<?xml version="1.0" encoding="UTF-8" standalone="no"?>
<!DOCTYPE svg PUBLIC "-//W3C//DTD SVG 1.1//EN"
 "http://www.w3.org/Graphics/SVG/1.1/DTD/svg11.dtd">
<!-- Generated by graphviz version 2.43.0 (0)
 -->
<!-- Title: src/os/__osDevMgrMain.c Pages: 1 -->
<svg width="258pt" height="247pt"
 viewBox="0.00 0.00 258.00 247.00" xmlns="http://www.w3.org/2000/svg" xmlns:xlink="http://www.w3.org/1999/xlink">
<g id="graph0" class="graph" transform="scale(1 1) rotate(0) translate(4 243)">
<title>src/os/__osDevMgrMain.c</title>
<!-- Node1 -->
<g id="Node000001" class="node">
<title>Node1</title>
<g id="a_Node000001"><a xlink:title=" ">
<polygon fill="#999999" stroke="#666666" points="158.5,-239 18.5,-239 18.5,-220 158.5,-220 158.5,-239"/>
<text text-anchor="middle" x="88.5" y="-227" font-family="Helvetica,sans-Serif" font-size="10.00">src/os/__osDevMgrMain.c</text>
</a>
</g>
</g>
<!-- Node2 -->
<g id="Node000002" class="node">
<title>Node2</title>
<g id="a_Node000002"><a xlink:href="libultra__internal_8h.html" target="_top" xlink:title=" ">
<polygon fill="white" stroke="#666666" points="161,-129 58,-129 58,-110 161,-110 161,-129"/>
<text text-anchor="middle" x="109.5" y="-117" font-family="Helvetica,sans-Serif" font-size="10.00">libultra_internal.h</text>
</a>
</g>
</g>
<!-- Node1&#45;&gt;Node2 -->
<g id="edge1_Node000001_Node000002" class="edge">
<title>Node1&#45;&gt;Node2</title>
<g id="a_edge1_Node000001_Node000002"><a xlink:title=" ">
<path fill="none" stroke="#63b8ff" d="M90.22,-219.66C93.62,-202.17 101.27,-162.8 105.85,-139.27"/>
<polygon fill="#63b8ff" stroke="#63b8ff" points="109.34,-139.64 107.82,-129.16 102.47,-138.31 109.34,-139.64"/>
</a>
</g>
</g>
<!-- Node4 -->
<g id="Node000004" class="node">
<title>Node4</title>
<g id="a_Node000004"><a xlink:href="macros_8h.html" target="_top" xlink:title=" ">
<polygon fill="white" stroke="#666666" points="70.5,-74 8.5,-74 8.5,-55 70.5,-55 70.5,-74"/>
<text text-anchor="middle" x="39.5" y="-62" font-family="Helvetica,sans-Serif" font-size="10.00">macros.h</text>
</a>
</g>
</g>
<!-- Node1&#45;&gt;Node4 -->
<g id="edge6_Node000001_Node000004" class="edge">
<title>Node1&#45;&gt;Node4</title>
<g id="a_edge6_Node000001_Node000004"><a xlink:title=" ">
<path fill="none" stroke="#63b8ff" d="M84.24,-219.96C75.99,-203.04 57.84,-163.89 48.5,-129 44.58,-114.34 42.28,-97.29 40.99,-84.56"/>
<polygon fill="#63b8ff" stroke="#63b8ff" points="44.45,-83.91 40.07,-74.26 37.47,-84.53 44.45,-83.91"/>
</a>
</g>
</g>
<!-- Node6 -->
<g id="Node000006" class="node">
<title>Node6</title>
<g id="a_Node000006"><a xlink:href="new__func_8h.html" target="_top" xlink:title=" ">
<polygon fill="white" stroke="#666666" points="188.5,-184 116.5,-184 116.5,-165 188.5,-165 188.5,-184"/>
<text text-anchor="middle" x="152.5" y="-172" font-family="Helvetica,sans-Serif" font-size="10.00">new_func.h</text>
</a>
</g>
</g>
<!-- Node1&#45;&gt;Node6 -->
<g id="edge7_Node000001_Node000006" class="edge">
<title>Node1&#45;&gt;Node6</title>
<g id="a_edge7_Node000001_Node000006"><a xlink:title=" ">
<path fill="none" stroke="#63b8ff" d="M98.78,-219.98C108.34,-212.07 122.78,-200.11 134.28,-190.58"/>
<polygon fill="#63b8ff" stroke="#63b8ff" points="136.56,-193.24 142.03,-184.17 132.1,-187.85 136.56,-193.24"/>
</a>
</g>
</g>
<!-- Node3 -->
<g id="Node000003" class="node">
<title>Node3</title>
<g id="a_Node000003"><a xlink:title=" ">
<polygon fill="#e0e0e0" stroke="#999999" points="149.5,-19 69.5,-19 69.5,0 149.5,0 149.5,-19"/>
<text text-anchor="middle" x="109.5" y="-7" font-family="Helvetica,sans-Serif" font-size="10.00">libultraship.h</text>
</a>
</g>
</g>
<!-- Node2&#45;&gt;Node3 -->
<g id="edge2_Node000002_Node000003" class="edge">
<title>Node2&#45;&gt;Node3</title>
<g id="a_edge2_Node000002_Node000003"><a xlink:title=" ">
<path fill="none" stroke="#63b8ff" d="M109.5,-109.66C109.5,-92.17 109.5,-52.8 109.5,-29.27"/>
<polygon fill="#63b8ff" stroke="#63b8ff" points="113,-29.16 109.5,-19.16 106,-29.16 113,-29.16"/>
</a>
</g>
</g>
<!-- Node2&#45;&gt;Node4 -->
<g id="edge3_Node000002_Node000004" class="edge">
<title>Node2&#45;&gt;Node4</title>
<g id="a_edge3_Node000002_Node000004"><a xlink:title=" ">
<path fill="none" stroke="#63b8ff" d="M98.25,-109.98C87.7,-102 71.7,-89.88 59.06,-80.31"/>
<polygon fill="#63b8ff" stroke="#63b8ff" points="61.04,-77.42 50.95,-74.17 56.81,-83 61.04,-77.42"/>
</a>
</g>
</g>
<!-- Node4&#45;&gt;Node3 -->
<g id="edge5_Node000004_Node000003" class="edge">
<title>Node4&#45;&gt;Node3</title>
<g id="a_edge5_Node000004_Node000003"><a xlink:title=" ">
<path fill="none" stroke="#63b8ff" d="M50.75,-54.98C61.3,-47 77.3,-34.88 89.94,-25.31"/>
<polygon fill="#63b8ff" stroke="#63b8ff" points="92.19,-28 98.05,-19.17 87.96,-22.42 92.19,-28"/>
</a>
</g>
</g>
<!-- Node5 -->
<g id="Node000005" class="node">
<title>Node5</title>
<g id="a_Node000005"><a xlink:href="math_8h.html" target="_top" xlink:title=" ">
<polygon fill="white" stroke="#666666" points="51,-19 0,-19 0,0 51,0 51,-19"/>
<text text-anchor="middle" x="25.5" y="-7" font-family="Helvetica,sans-Serif" font-size="10.00">math.h</text>
</a>
</g>
</g>
<!-- Node4&#45;&gt;Node5 -->
<g id="edge4_Node000004_Node000005" class="edge">
<title>Node4&#45;&gt;Node5</title>
<g id="a_edge4_Node000004_Node000005"><a xlink:title=" ">
<path fill="none" stroke="#63b8ff" d="M37.19,-54.75C35.33,-47.72 32.66,-37.62 30.35,-28.84"/>
<polygon fill="#63b8ff" stroke="#63b8ff" points="33.71,-27.86 27.77,-19.09 26.94,-29.65 33.71,-27.86"/>
</a>
</g>
</g>
<!-- Node6&#45;&gt;Node2 -->
<g id="edge8_Node000006_Node000002" class="edge">
<title>Node6&#45;&gt;Node2</title>
<g id="a_edge8_Node000006_Node000002"><a xlink:title=" ">
<path fill="none" stroke="#63b8ff" d="M145.4,-164.75C139.33,-157.26 130.41,-146.28 122.99,-137.13"/>
<polygon fill="#63b8ff" stroke="#63b8ff" points="125.49,-134.65 116.47,-129.09 120.05,-139.06 125.49,-134.65"/>
</a>
</g>
</g>
<!-- Node7 -->
<g id="Node000007" class="node">
<title>Node7</title>
<g id="a_Node000007"><a xlink:href="hardware_8h.html" target="_top" xlink:title=" ">
<polygon fill="white" stroke="#666666" points="250,-129 179,-129 179,-110 250,-110 250,-129"/>
<text text-anchor="middle" x="214.5" y="-117" font-family="Helvetica,sans-Serif" font-size="10.00">hardware.h</text>
</a>
</g>
</g>
<!-- Node6&#45;&gt;Node7 -->
<g id="edge9_Node000006_Node000007" class="edge">
<title>Node6&#45;&gt;Node7</title>
<g id="a_edge9_Node000006_Node000007"><a xlink:title=" ">
<path fill="none" stroke="#63b8ff" d="M162.46,-164.98C171.63,-157.15 185.44,-145.34 196.53,-135.86"/>
<polygon fill="#63b8ff" stroke="#63b8ff" points="199.03,-138.33 204.36,-129.17 194.48,-133.01 199.03,-138.33"/>
</a>
</g>
</g>
</g>
</svg>
