<?xml version="1.0" encoding="UTF-8" standalone="no"?>
<!DOCTYPE svg PUBLIC "-//W3C//DTD SVG 1.1//EN"
 "http://www.w3.org/Graphics/SVG/1.1/DTD/svg11.dtd">
<!-- Generated by graphviz version 2.43.0 (0)
 -->
<!-- Title: render_item_boxes Pages: 1 -->
<!--zoomable 556 -->

<svg id="main" version="1.1" xmlns="http://www.w3.org/2000/svg" xmlns:xlink="http://www.w3.org/1999/xlink" xml:space="preserve" onload="init(evt)">

<style type="text/css"><![CDATA[
.node, .edge {opacity: 0.7;}
.node.selected, .edge.selected {opacity: 1;}
.edge:hover path { stroke: red; }
.edge:hover polygon { stroke: red; fill: red; }
]]></style>

<defs>
  <circle id="rim" cx="0" cy="0" r="7"/>
  <circle id="rim2" cx="0" cy="0" r="3.5"/>
  <g id="zoomPlus">
    <use xlink:href="#rim" fill="#404040"><set attributeName="fill" to="#808080" begin="zoomplus.mouseover" end="zoomplus.mouseout"/></use>
    <path d="M-4,0h8M0,-4v8" fill="none" stroke="white" stroke-width="1.5" pointer-events="none"/>
  </g>
  <g id="zoomMin">
    <use xlink:href="#rim" fill="#404040"><set attributeName="fill" to="#808080" begin="zoomminus.mouseover" end="zoomminus.mouseout"/></use>
    <path d="M-4,0h8" fill="none" stroke="white" stroke-width="1.5" pointer-events="none"/>
  </g>
  <g id="arrowUp" transform="translate(30 24)">
    <use xlink:href="#rim"/>
    <path pointer-events="none" fill="none" stroke="white" stroke-width="1.5" d="M0,-3.0v7 M-2.5,-0.5L0,-3.0L2.5,-0.5"/>
  </g>
  <g id="arrowRight" transform="rotate(90) translate(36 -43)">
    <use xlink:href="#rim"/>
    <path pointer-events="none" fill="none" stroke="white" stroke-width="1.5" d="M0,-3.0v7 M-2.5,-0.5L0,-3.0L2.5,-0.5"/>
  </g>
  <g id="arrowDown" transform="rotate(180) translate(-30 -48)">
    <use xlink:href="#rim"/>
    <path pointer-events="none" fill="none" stroke="white" stroke-width="1.5" d="M0,-3.0v7 M-2.5,-0.5L0,-3.0L2.5,-0.5"/>
  </g>
  <g id="arrowLeft" transform="rotate(270) translate(-36 17)">
    <use xlink:href="#rim"/>
    <path pointer-events="none" fill="none" stroke="white" stroke-width="1.5" d="M0,-3.0v7 M-2.5,-0.5L0,-3.0L2.5,-0.5"/>
  </g>
  <g id="resetDef">
    <use xlink:href="#rim2" fill="#404040"><set attributeName="fill" to="#808080" begin="reset.mouseover" end="reset.mouseout"/></use>
  </g>
</defs>
<script type="application/ecmascript">
var viewWidth = 1122;
var viewHeight = 556;
var sectionId = 'dynsection-76';
</script>
<script type="application/ecmascript" xlink:href="svg.min.js"/>
<svg id="graph" class="graph">
<g id="viewport">
<title>render_item_boxes</title>
<!-- Node1 -->
<g id="Node000001" class="node">
<title>Node1</title>
<g id="a_Node000001"><a xlink:title=" ">
<polygon fill="#999999" stroke="#666666" points="110,-302 0,-302 0,-283 110,-283 110,-302"/>
<text text-anchor="middle" x="55" y="-290" font-family="Helvetica,sans-Serif" font-size="10.00">render_item_boxes</text>
</a>
</g>
</g>
<!-- Node2 -->
<g id="Node000002" class="node">
<title>Node2</title>
<g id="a_Node000002"><a xlink:href="Game_8cpp.html#a693de7d8b89fe291aafea86bc64a0a2e" target="_top" xlink:title=" ">
<polygon fill="white" stroke="#666666" points="263.5,-426 183.5,-426 183.5,-407 263.5,-407 263.5,-426"/>
<text text-anchor="middle" x="223.5" y="-414" font-family="Helvetica,sans-Serif" font-size="10.00">CM_GetActor</text>
</a>
</g>
</g>
<!-- Node1&#45;&gt;Node2 -->
<g id="edge1_Node000001_Node000002" class="edge">
<title>Node1&#45;&gt;Node2</title>
<g id="a_edge1_Node000001_Node000002"><a xlink:title=" ">
<path fill="none" stroke="#63b8ff" d="M68.79,-302.02C97.29,-323.25 166.26,-374.62 201.31,-400.72"/>
<polygon fill="#63b8ff" stroke="#63b8ff" points="199.33,-403.61 209.44,-406.77 203.51,-397.99 199.33,-403.61"/>
</a>
</g>
</g>
<!-- Node4 -->
<g id="Node000004" class="node">
<title>Node4</title>
<g id="a_Node000004"><a xlink:href="Game_8cpp.html#a0841ffe9a66e95aca42438b9d8ffc3d3" target="_top" xlink:title=" ">
<polygon fill="white" stroke="#666666" points="274,-516 173,-516 173,-497 274,-497 274,-516"/>
<text text-anchor="middle" x="223.5" y="-504" font-family="Helvetica,sans-Serif" font-size="10.00">CM_GetActorSize</text>
</a>
</g>
</g>
<!-- Node1&#45;&gt;Node4 -->
<g id="edge3_Node000001_Node000004" class="edge">
<title>Node1&#45;&gt;Node4</title>
<g id="a_edge3_Node000001_Node000004"><a xlink:title=" ">
<path fill="none" stroke="#63b8ff" d="M60.94,-302.01C73.45,-325.68 108.09,-388.59 146,-434.5 163.31,-455.46 186.39,-476.41 202.66,-490.27"/>
<polygon fill="#63b8ff" stroke="#63b8ff" points="200.56,-493.08 210.47,-496.83 205.06,-487.72 200.56,-493.08"/>
</a>
</g>
</g>
<!-- Node5 -->
<g id="Node000005" class="node">
<title>Node5</title>
<g id="a_Node000005"><a xlink:href="fake__item__box_2render_8inc_8c.html#af266b20983c5e1664e5d15c1e7a952d0" target="_top" xlink:title="Renders the fake item box actor.">
<polygon fill="white" stroke="#666666" points="301,-284 146,-284 146,-265 301,-265 301,-284"/>
<text text-anchor="middle" x="223.5" y="-272" font-family="Helvetica,sans-Serif" font-size="10.00">render_actor_fake_item_box</text>
</a>
</g>
</g>
<!-- Node1&#45;&gt;Node5 -->
<g id="edge5_Node000001_Node000005" class="edge">
<title>Node1&#45;&gt;Node5</title>
<g id="a_edge5_Node000001_Node000005"><a xlink:title=" ">
<path fill="none" stroke="#63b8ff" d="M110.06,-286.66C118.25,-285.77 126.87,-284.84 135.54,-283.9"/>
<polygon fill="#63b8ff" stroke="#63b8ff" points="136.16,-287.35 145.73,-282.8 135.41,-280.39 136.16,-287.35"/>
</a>
</g>
</g>
<!-- Node36 -->
<g id="Node000036" class="node">
<title>Node36</title>
<g id="a_Node000036"><a xlink:href="item__box_2render_8inc_8c.html#a7bf536a1640e0324213e474302d4b37f" target="_top" xlink:title="Renders the item box actor.">
<polygon fill="white" stroke="#666666" points="288,-241 159,-241 159,-222 288,-222 288,-241"/>
<text text-anchor="middle" x="223.5" y="-229" font-family="Helvetica,sans-Serif" font-size="10.00">render_actor_item_box</text>
</a>
</g>
</g>
<!-- Node1&#45;&gt;Node36 -->
<g id="edge44_Node000001_Node000036" class="edge">
<title>Node1&#45;&gt;Node36</title>
<g id="a_edge44_Node000001_Node000036"><a xlink:title=" ">
<path fill="none" stroke="#63b8ff" d="M77.62,-283C95.72,-275.19 122.33,-264.06 146,-255.5 157.04,-251.51 169.1,-247.54 180.32,-244.02"/>
<polygon fill="#63b8ff" stroke="#63b8ff" points="181.39,-247.35 189.91,-241.05 179.32,-240.66 181.39,-247.35"/>
</a>
</g>
</g>
<!-- Node3 -->
<g id="Node000003" class="node">
<title>Node3</title>
<g id="a_Node000003"><a xlink:href="Game_8cpp.html#ae2fa844b3cb1021ecbc357f8ed2ad8cc" target="_top" xlink:title=" ">
<polygon fill="white" stroke="#666666" points="778.5,-530 716.5,-530 716.5,-511 778.5,-511 778.5,-530"/>
<text text-anchor="middle" x="747.5" y="-518" font-family="Helvetica,sans-Serif" font-size="10.00">GetWorld</text>
</a>
</g>
</g>
<!-- Node2&#45;&gt;Node3 -->
<g id="edge2_Node000002_Node000003" class="edge">
<title>Node2&#45;&gt;Node3</title>
<g id="a_edge2_Node000002_Node000003"><a xlink:title=" ">
<path fill="none" stroke="#63b8ff" d="M250.19,-426.06C300.43,-444.32 415.6,-483.98 516,-502.5 581.92,-514.66 659.92,-518.61 706.19,-519.89"/>
<polygon fill="#63b8ff" stroke="#63b8ff" points="706.32,-523.4 716.4,-520.15 706.49,-516.4 706.32,-523.4"/>
</a>
</g>
</g>
<!-- Node4&#45;&gt;Node3 -->
<g id="edge4_Node000004_Node000003" class="edge">
<title>Node4&#45;&gt;Node3</title>
<g id="a_edge4_Node000004_Node000003"><a xlink:title=" ">
<path fill="none" stroke="#63b8ff" d="M253.25,-516.05C275.75,-523.01 307.99,-531.82 337,-535.5 481.62,-553.84 519.83,-548.75 665,-535.5 678.57,-534.26 693.25,-531.89 706.36,-529.39"/>
<polygon fill="#63b8ff" stroke="#63b8ff" points="707.37,-532.76 716.49,-527.37 706,-525.89 707.37,-532.76"/>
</a>
</g>
</g>
<!-- Node6 -->
<g id="Node000006" class="node">
<title>Node6</title>
<g id="a_Node000006"><a xlink:href="actors_8c.html#a25f3c7f1a525abf36fb695a718345b57" target="_top" xlink:title=" ">
<polygon fill="white" stroke="#666666" points="464,-432 353,-432 353,-413 464,-413 464,-432"/>
<text text-anchor="middle" x="408.5" y="-420" font-family="Helvetica,sans-Serif" font-size="10.00">actor_not_rendered</text>
</a>
</g>
</g>
<!-- Node5&#45;&gt;Node6 -->
<g id="edge6_Node000005_Node000006" class="edge">
<title>Node5&#45;&gt;Node6</title>
<g id="a_edge6_Node000005_Node000006"><a xlink:title=" ">
<path fill="none" stroke="#63b8ff" d="M230.18,-284.33C244.68,-308.53 285.59,-371.38 337,-403.5 340.41,-405.63 344.06,-407.52 347.83,-409.21"/>
<polygon fill="#63b8ff" stroke="#63b8ff" points="346.82,-412.57 357.41,-412.98 349.38,-406.06 346.82,-412.57"/>
</a>
</g>
</g>
<!-- Node7 -->
<g id="Node000007" class="node">
<title>Node7</title>
<g id="a_Node000007"><a xlink:href="actors_8c.html#a9293f7b62cb3da5141c43f313acdd360" target="_top" xlink:title=" ">
<polygon fill="white" stroke="#666666" points="453.5,-395 363.5,-395 363.5,-376 453.5,-376 453.5,-395"/>
<text text-anchor="middle" x="408.5" y="-383" font-family="Helvetica,sans-Serif" font-size="10.00">actor_rendered</text>
</a>
</g>
</g>
<!-- Node5&#45;&gt;Node7 -->
<g id="edge7_Node000005_Node000007" class="edge">
<title>Node5&#45;&gt;Node7</title>
<g id="a_edge7_Node000005_Node000007"><a xlink:title=" ">
<path fill="none" stroke="#63b8ff" d="M233.44,-284.14C251.3,-302.84 293.46,-344.14 337,-366.5 342.2,-369.17 347.82,-371.5 353.53,-373.51"/>
<polygon fill="#63b8ff" stroke="#63b8ff" points="352.58,-376.89 363.18,-376.62 354.73,-370.22 352.58,-376.89"/>
</a>
</g>
</g>
<!-- Node8 -->
<g id="Node000008" class="node">
<title>Node8</title>
<g id="a_Node000008"><a xlink:href="math__util_8c.html#ab886738b799d467264e9094fcc022241" target="_top" xlink:title=" ">
<polygon fill="white" stroke="#666666" points="465.5,-112.5 351.5,-112.5 351.5,-82.5 465.5,-82.5 465.5,-112.5"/>
<text text-anchor="start" x="359.5" y="-100.5" font-family="Helvetica,sans-Serif" font-size="10.00">add_translate_mat4</text>
<text text-anchor="middle" x="408.5" y="-89.5" font-family="Helvetica,sans-Serif" font-size="10.00">_vec3f</text>
</a>
</g>
</g>
<!-- Node5&#45;&gt;Node8 -->
<g id="edge8_Node000005_Node000008" class="edge">
<title>Node5&#45;&gt;Node8</title>
<g id="a_edge8_Node000005_Node000008"><a xlink:title=" ">
<path fill="none" stroke="#63b8ff" d="M277.03,-264.95C285.94,-261.34 294.42,-256.36 301,-249.5 341.91,-206.85 296.36,-164.4 337,-121.5 338.79,-119.61 340.73,-117.87 342.8,-116.27"/>
<polygon fill="#63b8ff" stroke="#63b8ff" points="344.81,-119.13 351.27,-110.74 340.98,-113.27 344.81,-119.13"/>
</a>
</g>
</g>
<!-- Node11 -->
<g id="Node000011" class="node">
<title>Node11</title>
<g id="a_Node000011"><a xlink:href="FrameInterpolation_8cpp.html#a3a036bc9d533e28a4e9697cd20dccf3e" target="_top" xlink:title=" ">
<polygon fill="white" stroke="#666666" points="463.5,-246.5 353.5,-246.5 353.5,-216.5 463.5,-216.5 463.5,-246.5"/>
<text text-anchor="start" x="361.5" y="-234.5" font-family="Helvetica,sans-Serif" font-size="10.00">FrameInterpolation</text>
<text text-anchor="middle" x="408.5" y="-223.5" font-family="Helvetica,sans-Serif" font-size="10.00">_RecordCloseChild</text>
</a>
</g>
</g>
<!-- Node5&#45;&gt;Node11 -->
<g id="edge11_Node000005_Node000011" class="edge">
<title>Node5&#45;&gt;Node11</title>
<g id="a_edge11_Node000005_Node000011"><a xlink:title=" ">
<path fill="none" stroke="#63b8ff" d="M265.11,-264.96C288.18,-259.54 317.56,-252.63 343.64,-246.5"/>
<polygon fill="#63b8ff" stroke="#63b8ff" points="344.52,-249.89 353.46,-244.2 342.92,-243.08 344.52,-249.89"/>
</a>
</g>
</g>
<!-- Node12 -->
<g id="Node000012" class="node">
<title>Node12</title>
<g id="a_Node000012"><a xlink:href="FrameInterpolation_8cpp.html#a0eda726b74eac815af4e874014e2727c" target="_top" xlink:title=" ">
<polygon fill="white" stroke="#666666" points="463.5,-198.5 353.5,-198.5 353.5,-168.5 463.5,-168.5 463.5,-198.5"/>
<text text-anchor="start" x="361.5" y="-186.5" font-family="Helvetica,sans-Serif" font-size="10.00">FrameInterpolation</text>
<text text-anchor="middle" x="408.5" y="-175.5" font-family="Helvetica,sans-Serif" font-size="10.00">_RecordOpenChild</text>
</a>
</g>
</g>
<!-- Node5&#45;&gt;Node12 -->
<g id="edge13_Node000005_Node000012" class="edge">
<title>Node5&#45;&gt;Node12</title>
<g id="a_edge13_Node000005_Node000012"><a xlink:title=" ">
<path fill="none" stroke="#63b8ff" d="M267.68,-264.9C279.1,-261.19 291.01,-256.18 301,-249.5 321.44,-235.84 316.64,-221.28 337,-207.5 339.28,-205.96 341.67,-204.5 344.13,-203.14"/>
<polygon fill="#63b8ff" stroke="#63b8ff" points="345.93,-206.15 353.32,-198.56 342.81,-199.89 345.93,-206.15"/>
</a>
</g>
</g>
<!-- Node13 -->
<g id="Node000013" class="node">
<title>Node13</title>
<g id="a_Node000013"><a xlink:href="GBIMiddleware_8cpp.html#a4ecc44e3c6f1ca5a6b4a20c41d3bd2d2" target="_top" xlink:title=" ">
<polygon fill="white" stroke="#666666" points="453,-64 364,-64 364,-45 453,-45 453,-64"/>
<text text-anchor="middle" x="408.5" y="-52" font-family="Helvetica,sans-Serif" font-size="10.00">gSPDisplayList</text>
</a>
</g>
</g>
<!-- Node5&#45;&gt;Node13 -->
<g id="edge15_Node000005_Node000013" class="edge">
<title>Node5&#45;&gt;Node13</title>
<g id="a_edge15_Node000005_Node000013"><a xlink:title=" ">
<path fill="none" stroke="#63b8ff" d="M278.61,-264.84C287.05,-261.23 294.95,-256.28 301,-249.5 354.15,-189.92 282.31,-131.67 337,-73.5 341.78,-68.41 347.77,-64.63 354.23,-61.84"/>
<polygon fill="#63b8ff" stroke="#63b8ff" points="355.67,-65.04 363.93,-58.41 353.34,-58.44 355.67,-65.04"/>
</a>
</g>
</g>
<!-- Node16 -->
<g id="Node000016" class="node">
<title>Node16</title>
<g id="a_Node000016"><a xlink:href="math__util_8c.html#a5e1d12b8745a8d5f8d73ab366328d3cd" target="_top" xlink:title=" ">
<polygon fill="white" stroke="#666666" points="480,-321 337,-321 337,-302 480,-302 480,-321"/>
<text text-anchor="middle" x="408.5" y="-309" font-family="Helvetica,sans-Serif" font-size="10.00">is_within_render_distance</text>
</a>
</g>
</g>
<!-- Node5&#45;&gt;Node16 -->
<g id="edge18_Node000005_Node000016" class="edge">
<title>Node5&#45;&gt;Node16</title>
<g id="a_edge18_Node000005_Node000016"><a xlink:title=" ">
<path fill="none" stroke="#63b8ff" d="M271.63,-284.03C295.65,-288.89 325.07,-294.83 350.38,-299.95"/>
<polygon fill="#63b8ff" stroke="#63b8ff" points="349.72,-303.39 360.21,-301.94 351.11,-296.53 349.72,-303.39"/>
</a>
</g>
</g>
<!-- Node25 -->
<g id="Node000025" class="node">
<title>Node25</title>
<g id="a_Node000025"><a xlink:href="math__util_8c.html#a7085bb4bb08bdc39c0fa0b98f25176ef" target="_top" xlink:title=" ">
<polygon fill="white" stroke="#666666" points="472.5,-284 344.5,-284 344.5,-265 472.5,-265 472.5,-284"/>
<text text-anchor="middle" x="408.5" y="-272" font-family="Helvetica,sans-Serif" font-size="10.00">mtxf_pos_rotation_xyz</text>
</a>
</g>
</g>
<!-- Node5&#45;&gt;Node25 -->
<g id="edge29_Node000005_Node000025" class="edge">
<title>Node5&#45;&gt;Node25</title>
<g id="a_edge29_Node000005_Node000025"><a xlink:title=" ">
<path fill="none" stroke="#63b8ff" d="M301.05,-274.5C311.96,-274.5 323.16,-274.5 334.01,-274.5"/>
<polygon fill="#63b8ff" stroke="#63b8ff" points="334.29,-278 344.29,-274.5 334.29,-271 334.29,-278"/>
</a>
</g>
</g>
<!-- Node29 -->
<g id="Node000029" class="node">
<title>Node29</title>
<g id="a_Node000029"><a xlink:href="math__util_8c.html#aca95a220db79fe028b35270f35a4a7b3" target="_top" xlink:title=" ">
<polygon fill="white" stroke="#666666" points="444,-150 373,-150 373,-131 444,-131 444,-150"/>
<text text-anchor="middle" x="408.5" y="-138" font-family="Helvetica,sans-Serif" font-size="10.00">mtxf_scale</text>
</a>
</g>
</g>
<!-- Node5&#45;&gt;Node29 -->
<g id="edge34_Node000005_Node000029" class="edge">
<title>Node5&#45;&gt;Node29</title>
<g id="a_edge34_Node000005_Node000029"><a xlink:title=" ">
<path fill="none" stroke="#63b8ff" d="M274.87,-264.98C284.4,-261.37 293.66,-256.38 301,-249.5 332.43,-220.04 304.8,-188.13 337,-159.5 344.31,-153 353.62,-148.69 363.07,-145.84"/>
<polygon fill="#63b8ff" stroke="#63b8ff" points="364.03,-149.21 372.87,-143.38 362.32,-142.42 364.03,-149.21"/>
</a>
</g>
</g>
<!-- Node31 -->
<g id="Node000031" class="node">
<title>Node31</title>
<g id="a_Node000031"><a xlink:href="math__util_8c.html#a1e5d28a1962fbb390c7551f66c2f099a" target="_top" xlink:title=" ">
<polygon fill="white" stroke="#666666" points="465,-358 352,-358 352,-339 465,-339 465,-358"/>
<text text-anchor="middle" x="408.5" y="-346" font-family="Helvetica,sans-Serif" font-size="10.00">render_set_position</text>
</a>
</g>
</g>
<!-- Node5&#45;&gt;Node31 -->
<g id="edge37_Node000005_Node000031" class="edge">
<title>Node5&#45;&gt;Node31</title>
<g id="a_edge37_Node000005_Node000031"><a xlink:title=" ">
<path fill="none" stroke="#63b8ff" d="M241.58,-284.14C263.24,-296.05 301.99,-316.36 337,-329.5 343.38,-331.89 350.19,-334.12 356.96,-336.14"/>
<polygon fill="#63b8ff" stroke="#63b8ff" points="356.24,-339.58 366.81,-338.96 358.16,-332.85 356.24,-339.58"/>
</a>
</g>
</g>
<!-- Node9 -->
<g id="Node000009" class="node">
<title>Node9</title>
<g id="a_Node000009"><a xlink:href="FrameInterpolation_8cpp.html#a995ba2652f40cdff19afb9bf7857e573" target="_top" xlink:title=" ">
<polygon fill="white" stroke="#666666" points="965.5,-47.5 834.5,-47.5 834.5,-17.5 965.5,-17.5 965.5,-47.5"/>
<text text-anchor="start" x="842.5" y="-35.5" font-family="Helvetica,sans-Serif" font-size="10.00">FrameInterpolation</text>
<text text-anchor="middle" x="900" y="-24.5" font-family="Helvetica,sans-Serif" font-size="10.00">_RecordMatrixTranslate</text>
</a>
</g>
</g>
<!-- Node8&#45;&gt;Node9 -->
<g id="edge9_Node000008_Node000009" class="edge">
<title>Node8&#45;&gt;Node9</title>
<g id="a_edge9_Node000008_Node000009"><a xlink:title=" ">
<path fill="none" stroke="#63b8ff" d="M465.65,-90.04C553.94,-78.32 725.29,-55.57 824.02,-42.46"/>
<polygon fill="#63b8ff" stroke="#63b8ff" points="824.77,-45.89 834.22,-41.1 823.85,-38.95 824.77,-45.89"/>
</a>
</g>
</g>
<!-- Node10 -->
<g id="Node000010" class="node">
<title>Node10</title>
<g id="a_Node000010"><a xlink:href="FrameInterpolation_8cpp.html#a02c7ac5342a4d376edee38f312b480bf" target="_top" xlink:title=" ">
<polygon fill="white" stroke="#666666" points="1114,-152 1006,-152 1006,-133 1114,-133 1114,-152"/>
<text text-anchor="middle" x="1060" y="-140" font-family="Helvetica,sans-Serif" font-size="10.00">check_if_recording</text>
</a>
</g>
</g>
<!-- Node9&#45;&gt;Node10 -->
<g id="edge10_Node000009_Node000010" class="edge">
<title>Node9&#45;&gt;Node10</title>
<g id="a_edge10_Node000009_Node000010"><a xlink:title=" ">
<path fill="none" stroke="#63b8ff" d="M952.28,-47.5C958.44,-50.12 964.49,-53.11 970,-56.5 1000.31,-75.15 1028.66,-105.67 1044.89,-124.89"/>
<polygon fill="#63b8ff" stroke="#63b8ff" points="1042.39,-127.36 1051.46,-132.84 1047.79,-122.9 1042.39,-127.36"/>
</a>
</g>
</g>
<!-- Node11&#45;&gt;Node10 -->
<g id="edge12_Node000011_Node000010" class="edge">
<title>Node11&#45;&gt;Node10</title>
<g id="a_edge12_Node000011_Node000010"><a xlink:title=" ">
<path fill="none" stroke="#63b8ff" d="M459.95,-216.38C466.82,-213.73 473.68,-210.76 480,-207.5 497.54,-198.44 497.45,-188.24 516,-181.5 538.21,-173.43 857.12,-154.17 995.6,-146.12"/>
<polygon fill="#63b8ff" stroke="#63b8ff" points="995.86,-149.61 1005.64,-145.54 995.46,-142.63 995.86,-149.61"/>
</a>
</g>
</g>
<!-- Node12&#45;&gt;Node10 -->
<g id="edge14_Node000012_Node000010" class="edge">
<title>Node12&#45;&gt;Node10</title>
<g id="a_edge14_Node000012_Node000010"><a xlink:title=" ">
<path fill="none" stroke="#63b8ff" d="M452,-168.42C478.71,-159.07 509.34,-148.63 516,-147.5 687.42,-118.5 893.65,-128.69 995.58,-136.65"/>
<polygon fill="#63b8ff" stroke="#63b8ff" points="995.46,-140.15 1005.71,-137.46 996.02,-133.18 995.46,-140.15"/>
</a>
</g>
</g>
<!-- Node14 -->
<g id="Node000014" class="node">
<title>Node14</title>
<g id="a_Node000014"><a xlink:href="Engine_8cpp.html#a223c8bc63f228dc11177515e38eff2db" target="_top" xlink:title=" ">
<polygon fill="white" stroke="#666666" points="665,-19 516,-19 516,0 665,0 665,-19"/>
<text text-anchor="middle" x="590.5" y="-7" font-family="Helvetica,sans-Serif" font-size="10.00">GameEngine_OTRSigCheck</text>
</a>
</g>
</g>
<!-- Node13&#45;&gt;Node14 -->
<g id="edge16_Node000013_Node000014" class="edge">
<title>Node13&#45;&gt;Node14</title>
<g id="a_edge16_Node000013_Node000014"><a xlink:title=" ">
<path fill="none" stroke="#63b8ff" d="M447.67,-44.96C475,-38.13 511.99,-28.88 541.35,-21.54"/>
<polygon fill="#63b8ff" stroke="#63b8ff" points="542.53,-24.85 551.38,-19.03 540.83,-18.06 542.53,-24.85"/>
</a>
</g>
</g>
<!-- Node15 -->
<g id="Node000015" class="node">
<title>Node15</title>
<g id="a_Node000015"><a xlink:href="string_8c.html#a008e171a518fe0e0352f31b245e03875" target="_top" xlink:title=" ">
<polygon fill="white" stroke="#666666" points="769.5,-19 725.5,-19 725.5,0 769.5,0 769.5,-19"/>
<text text-anchor="middle" x="747.5" y="-7" font-family="Helvetica,sans-Serif" font-size="10.00">strlen</text>
</a>
</g>
</g>
<!-- Node14&#45;&gt;Node15 -->
<g id="edge17_Node000014_Node000015" class="edge">
<title>Node14&#45;&gt;Node15</title>
<g id="a_edge17_Node000014_Node000015"><a xlink:title=" ">
<path fill="none" stroke="#63b8ff" d="M665.37,-9.5C682.89,-9.5 700.66,-9.5 715.09,-9.5"/>
<polygon fill="#63b8ff" stroke="#63b8ff" points="715.4,-13 725.4,-9.5 715.4,-6 715.4,-13"/>
</a>
</g>
</g>
<!-- Node17 -->
<g id="Node000017" class="node">
<title>Node17</title>
<g id="a_Node000017"><a xlink:href="math__util_8c.html#a07a66adf3458c156c7961b983983627a" target="_top" xlink:title=" ">
<polygon fill="white" stroke="#666666" points="637,-370 544,-370 544,-351 637,-351 637,-370"/>
<text text-anchor="middle" x="590.5" y="-358" font-family="Helvetica,sans-Serif" font-size="10.00">func_802B7CA8</text>
</a>
</g>
</g>
<!-- Node16&#45;&gt;Node17 -->
<g id="edge19_Node000016_Node000017" class="edge">
<title>Node16&#45;&gt;Node17</title>
<g id="a_edge19_Node000016_Node000017"><a xlink:title=" ">
<path fill="none" stroke="#63b8ff" d="M449.16,-321.09C459.26,-323.68 470.06,-326.58 480,-329.5 496.18,-334.26 499.83,-336.72 516,-341.5 523.91,-343.84 532.34,-346.17 540.57,-348.35"/>
<polygon fill="#63b8ff" stroke="#63b8ff" points="539.89,-351.79 550.45,-350.94 541.67,-345.02 539.89,-351.79"/>
</a>
</g>
</g>
<!-- Node21 -->
<g id="Node000021" class="node">
<title>Node21</title>
<g id="a_Node000021"><a xlink:href="math__util_8c.html#a84cf9d4ec33146a64c230ed4cec56632" target="_top" xlink:title=" ">
<polygon fill="white" stroke="#666666" points="658,-332.5 523,-332.5 523,-302.5 658,-302.5 658,-332.5"/>
<text text-anchor="start" x="531" y="-320.5" font-family="Helvetica,sans-Serif" font-size="10.00">get_angle_between_two</text>
<text text-anchor="middle" x="590.5" y="-309.5" font-family="Helvetica,sans-Serif" font-size="10.00">_vectors</text>
</a>
</g>
</g>
<!-- Node16&#45;&gt;Node21 -->
<g id="edge23_Node000016_Node000021" class="edge">
<title>Node16&#45;&gt;Node21</title>
<g id="a_edge23_Node000016_Node000021"><a xlink:title=" ">
<path fill="none" stroke="#63b8ff" d="M480.12,-313.85C490.8,-314.21 501.85,-314.58 512.65,-314.94"/>
<polygon fill="#63b8ff" stroke="#63b8ff" points="512.79,-318.44 522.9,-315.28 513.02,-311.45 512.79,-318.44"/>
</a>
</g>
</g>
<!-- Node22 -->
<g id="Node000022" class="node">
<title>Node22</title>
<g id="a_Node000022"><a xlink:href="math__util_8c.html#a3eb0db0895b2c11953df746ce49b782e" target="_top" xlink:title=" ">
<polygon fill="white" stroke="#666666" points="645.5,-418.5 535.5,-418.5 535.5,-388.5 645.5,-388.5 645.5,-418.5"/>
<text text-anchor="start" x="543.5" y="-406.5" font-family="Helvetica,sans-Serif" font-size="10.00">is_visible_between</text>
<text text-anchor="middle" x="590.5" y="-395.5" font-family="Helvetica,sans-Serif" font-size="10.00">_angle</text>
</a>
</g>
</g>
<!-- Node16&#45;&gt;Node22 -->
<g id="edge25_Node000016_Node000022" class="edge">
<title>Node16&#45;&gt;Node22</title>
<g id="a_edge25_Node000016_Node000022"><a xlink:title=" ">
<path fill="none" stroke="#63b8ff" d="M463.54,-321.12C469.35,-323.36 474.97,-326.11 480,-329.5 502.4,-344.61 494.2,-362.52 516,-378.5 519.21,-380.85 522.66,-383 526.25,-384.95"/>
<polygon fill="#63b8ff" stroke="#63b8ff" points="524.87,-388.17 535.4,-389.4 527.94,-381.88 524.87,-388.17"/>
</a>
</g>
</g>
<!-- Node23 -->
<g id="Node000023" class="node">
<title>Node23</title>
<g id="a_Node000023"><a xlink:href="Game_8cpp.html#ad474b8b257813cceeae25ab5205273c4" target="_top" xlink:title=" ">
<polygon fill="white" stroke="#666666" points="639.5,-456 541.5,-456 541.5,-437 639.5,-437 639.5,-456"/>
<text text-anchor="middle" x="590.5" y="-444" font-family="Helvetica,sans-Serif" font-size="10.00">IsKalimariDesert</text>
</a>
</g>
</g>
<!-- Node16&#45;&gt;Node23 -->
<g id="edge26_Node000016_Node000023" class="edge">
<title>Node16&#45;&gt;Node23</title>
<g id="a_edge26_Node000016_Node000023"><a xlink:title=" ">
<path fill="none" stroke="#63b8ff" d="M467.36,-321.09C471.95,-323.35 476.25,-326.11 480,-329.5 514.44,-360.59 481.6,-396.35 516,-427.5 520.68,-431.74 526.18,-435.06 532.04,-437.65"/>
<polygon fill="#63b8ff" stroke="#63b8ff" points="530.86,-440.95 541.45,-441.15 533.3,-434.39 530.86,-440.95"/>
</a>
</g>
</g>
<!-- Node18 -->
<g id="Node000018" class="node">
<title>Node18</title>
<g id="a_Node000018"><a xlink:href="math__util_8c.html#aaa39a297477f56051975259f4bddd829" target="_top" xlink:title=" ">
<polygon fill="white" stroke="#666666" points="772.5,-330 722.5,-330 722.5,-311 772.5,-311 772.5,-330"/>
<text text-anchor="middle" x="747.5" y="-318" font-family="Helvetica,sans-Serif" font-size="10.00">atan2s</text>
</a>
</g>
</g>
<!-- Node17&#45;&gt;Node18 -->
<g id="edge20_Node000017_Node000018" class="edge">
<title>Node17&#45;&gt;Node18</title>
<g id="a_edge20_Node000017_Node000018"><a xlink:title=" ">
<path fill="none" stroke="#63b8ff" d="M628.63,-350.92C654.13,-344.34 687.73,-335.67 712.53,-329.27"/>
<polygon fill="#63b8ff" stroke="#63b8ff" points="713.42,-332.65 722.23,-326.76 711.67,-325.87 713.42,-332.65"/>
</a>
</g>
</g>
<!-- Node20 -->
<g id="Node000020" class="node">
<title>Node20</title>
<g id="a_Node000020"><a xlink:href="math_8h.html#a37bde043e94a6f074c78f10518fb5d99" target="_top" xlink:title=" ">
<polygon fill="white" stroke="#666666" points="767,-370 728,-370 728,-351 767,-351 767,-370"/>
<text text-anchor="middle" x="747.5" y="-358" font-family="Helvetica,sans-Serif" font-size="10.00">sqrtf</text>
</a>
</g>
</g>
<!-- Node17&#45;&gt;Node20 -->
<g id="edge22_Node000017_Node000020" class="edge">
<title>Node17&#45;&gt;Node20</title>
<g id="a_edge22_Node000017_Node000020"><a xlink:title=" ">
<path fill="none" stroke="#63b8ff" d="M637.17,-360.5C663.11,-360.5 694.8,-360.5 717.38,-360.5"/>
<polygon fill="#63b8ff" stroke="#63b8ff" points="717.66,-364 727.66,-360.5 717.66,-357 717.66,-364"/>
</a>
</g>
</g>
<!-- Node19 -->
<g id="Node000019" class="node">
<title>Node19</title>
<g id="a_Node000019"><a xlink:href="math__util_8c.html#a0273b0ea0783a06996c28669a7438ed9" target="_top" xlink:title=" ">
<polygon fill="white" stroke="#666666" points="941,-330 859,-330 859,-311 941,-311 941,-330"/>
<text text-anchor="middle" x="900" y="-318" font-family="Helvetica,sans-Serif" font-size="10.00">atan2_lookup</text>
</a>
</g>
</g>
<!-- Node18&#45;&gt;Node19 -->
<g id="edge21_Node000018_Node000019" class="edge">
<title>Node18&#45;&gt;Node19</title>
<g id="a_edge21_Node000018_Node000019"><a xlink:title=" ">
<path fill="none" stroke="#63b8ff" d="M772.68,-320.5C793.06,-320.5 822.89,-320.5 848.45,-320.5"/>
<polygon fill="#63b8ff" stroke="#63b8ff" points="848.73,-324 858.73,-320.5 848.73,-317 848.73,-324"/>
</a>
</g>
</g>
<!-- Node21&#45;&gt;Node18 -->
<g id="edge24_Node000021_Node000018" class="edge">
<title>Node21&#45;&gt;Node18</title>
<g id="a_edge24_Node000021_Node000018"><a xlink:title=" ">
<path fill="none" stroke="#63b8ff" d="M658.13,-318.79C676.67,-319.15 696.05,-319.52 711.92,-319.83"/>
<polygon fill="#63b8ff" stroke="#63b8ff" points="712.23,-323.34 722.29,-320.03 712.36,-316.34 712.23,-323.34"/>
</a>
</g>
</g>
<!-- Node23&#45;&gt;Node3 -->
<g id="edge28_Node000023_Node000003" class="edge">
<title>Node23&#45;&gt;Node3</title>
<g id="a_edge28_Node000023_Node000003"><a xlink:title=" ">
<path fill="none" stroke="#63b8ff" d="M639.66,-454.91C648.43,-457.55 657.25,-461 665,-465.5 684.84,-477.02 681.91,-489.77 701,-502.5 703.1,-503.9 705.33,-505.22 707.63,-506.46"/>
<polygon fill="#63b8ff" stroke="#63b8ff" points="706.17,-509.64 716.7,-510.82 709.21,-503.33 706.17,-509.64"/>
</a>
</g>
</g>
<!-- Node24 -->
<g id="Node000024" class="node">
<title>Node24</title>
<g id="a_Node000024"><a xlink:href="classWorld.html#a1a4dacc6aea0b846df998be0afc239f7" target="_top" xlink:title=" ">
<polygon fill="white" stroke="#666666" points="794,-456 701,-456 701,-437 794,-437 794,-456"/>
<text text-anchor="middle" x="747.5" y="-444" font-family="Helvetica,sans-Serif" font-size="10.00">World::GetTrack</text>
</a>
</g>
</g>
<!-- Node23&#45;&gt;Node24 -->
<g id="edge27_Node000023_Node000024" class="edge">
<title>Node23&#45;&gt;Node24</title>
<g id="a_edge27_Node000023_Node000024"><a xlink:title=" ">
<path fill="none" stroke="#63b8ff" d="M639.69,-446.5C655.88,-446.5 674.08,-446.5 690.79,-446.5"/>
<polygon fill="#63b8ff" stroke="#63b8ff" points="690.98,-450 700.98,-446.5 690.98,-443 690.98,-450"/>
</a>
</g>
</g>
<!-- Node26 -->
<g id="Node000026" class="node">
<title>Node26</title>
<g id="a_Node000026"><a xlink:href="math__util_8c.html#ae69cbf5c8d4b3b0dba2d7b4d4673689f" target="_top" xlink:title=" ">
<polygon fill="white" stroke="#666666" points="609.5,-284 571.5,-284 571.5,-265 609.5,-265 609.5,-284"/>
<text text-anchor="middle" x="590.5" y="-272" font-family="Helvetica,sans-Serif" font-size="10.00">coss</text>
</a>
</g>
</g>
<!-- Node25&#45;&gt;Node26 -->
<g id="edge30_Node000025_Node000026" class="edge">
<title>Node25&#45;&gt;Node26</title>
<g id="a_edge30_Node000025_Node000026"><a xlink:title=" ">
<path fill="none" stroke="#63b8ff" d="M472.71,-274.5C502.93,-274.5 537.58,-274.5 561.24,-274.5"/>
<polygon fill="#63b8ff" stroke="#63b8ff" points="561.28,-278 571.28,-274.5 561.28,-271 561.28,-278"/>
</a>
</g>
</g>
<!-- Node27 -->
<g id="Node000027" class="node">
<title>Node27</title>
<g id="a_Node000027"><a xlink:href="FrameInterpolation_8cpp.html#a3a4250dd10535ebfad101196ec528f79" target="_top" xlink:title=" ">
<polygon fill="white" stroke="#666666" points="970,-219.5 830,-219.5 830,-189.5 970,-189.5 970,-219.5"/>
<text text-anchor="start" x="838" y="-207.5" font-family="Helvetica,sans-Serif" font-size="10.00">FrameInterpolation</text>
<text text-anchor="middle" x="900" y="-196.5" font-family="Helvetica,sans-Serif" font-size="10.00">_RecordMatrixPosRotXYZ</text>
</a>
</g>
</g>
<!-- Node25&#45;&gt;Node27 -->
<g id="edge31_Node000025_Node000027" class="edge">
<title>Node25&#45;&gt;Node27</title>
<g id="a_edge31_Node000025_Node000027"><a xlink:title=" ">
<path fill="none" stroke="#63b8ff" d="M458.67,-264.92C466.09,-262.44 473.44,-259.35 480,-255.5 499.78,-243.88 495.03,-227.81 516,-218.5 613.69,-175.13 739.57,-180.68 819.81,-190.82"/>
<polygon fill="#63b8ff" stroke="#63b8ff" points="819.48,-194.31 829.85,-192.15 820.39,-187.37 819.48,-194.31"/>
</a>
</g>
</g>
<!-- Node28 -->
<g id="Node000028" class="node">
<title>Node28</title>
<g id="a_Node000028"><a xlink:href="math__util_8c.html#a19ed3bd78fd2d3e2bd0a29f6caf48545" target="_top" xlink:title=" ">
<polygon fill="white" stroke="#666666" points="608.5,-247 572.5,-247 572.5,-228 608.5,-228 608.5,-247"/>
<text text-anchor="middle" x="590.5" y="-235" font-family="Helvetica,sans-Serif" font-size="10.00">sins</text>
</a>
</g>
</g>
<!-- Node25&#45;&gt;Node28 -->
<g id="edge33_Node000025_Node000028" class="edge">
<title>Node25&#45;&gt;Node28</title>
<g id="a_edge33_Node000025_Node000028"><a xlink:title=" ">
<path fill="none" stroke="#63b8ff" d="M455.85,-264.97C489.66,-258.02 534.31,-248.85 562.47,-243.06"/>
<polygon fill="#63b8ff" stroke="#63b8ff" points="563.31,-246.46 572.4,-241.02 561.9,-239.6 563.31,-246.46"/>
</a>
</g>
</g>
<!-- Node27&#45;&gt;Node10 -->
<g id="edge32_Node000027_Node000010" class="edge">
<title>Node27&#45;&gt;Node10</title>
<g id="a_edge32_Node000027_Node000010"><a xlink:title=" ">
<path fill="none" stroke="#63b8ff" d="M939.25,-189.49C965.37,-179.24 999.68,-165.78 1024.88,-155.89"/>
<polygon fill="#63b8ff" stroke="#63b8ff" points="1026.36,-159.07 1034.39,-152.16 1023.8,-152.55 1026.36,-159.07"/>
</a>
</g>
</g>
<!-- Node30 -->
<g id="Node000030" class="node">
<title>Node30</title>
<g id="a_Node000030"><a xlink:href="FrameInterpolation_8cpp.html#ad8eff15a52471a7a9c4801f2f23124e6" target="_top" xlink:title=" ">
<polygon fill="white" stroke="#666666" points="956.5,-95.5 843.5,-95.5 843.5,-65.5 956.5,-65.5 956.5,-95.5"/>
<text text-anchor="start" x="851.5" y="-83.5" font-family="Helvetica,sans-Serif" font-size="10.00">FrameInterpolation</text>
<text text-anchor="middle" x="900" y="-72.5" font-family="Helvetica,sans-Serif" font-size="10.00">_RecordMatrixScale</text>
</a>
</g>
</g>
<!-- Node29&#45;&gt;Node30 -->
<g id="edge35_Node000029_Node000030" class="edge">
<title>Node29&#45;&gt;Node30</title>
<g id="a_edge35_Node000029_Node000030"><a xlink:title=" ">
<path fill="none" stroke="#63b8ff" d="M444.04,-131.62C455.52,-128.56 468.35,-125.01 480,-121.5 496.15,-116.64 499.47,-112.83 516,-109.5 625.8,-87.4 756.39,-81.81 833.22,-80.59"/>
<polygon fill="#63b8ff" stroke="#63b8ff" points="833.29,-84.09 843.24,-80.45 833.19,-77.09 833.29,-84.09"/>
</a>
</g>
</g>
<!-- Node30&#45;&gt;Node10 -->
<g id="edge36_Node000030_Node000010" class="edge">
<title>Node30&#45;&gt;Node10</title>
<g id="a_edge36_Node000030_Node000010"><a xlink:title=" ">
<path fill="none" stroke="#63b8ff" d="M939.25,-95.51C965.37,-105.76 999.68,-119.22 1024.88,-129.11"/>
<polygon fill="#63b8ff" stroke="#63b8ff" points="1023.8,-132.45 1034.39,-132.84 1026.36,-125.93 1023.8,-132.45"/>
</a>
</g>
</g>
<!-- Node32 -->
<g id="Node000032" class="node">
<title>Node32</title>
<g id="a_Node000032"><a xlink:href="Matrix_8cpp.html#a6416f9a60a7397e8b517b1483adb96e8" target="_top" xlink:title=" ">
<polygon fill="white" stroke="#666666" points="639.5,-493 541.5,-493 541.5,-474 639.5,-474 639.5,-493"/>
<text text-anchor="middle" x="590.5" y="-481" font-family="Helvetica,sans-Serif" font-size="10.00">AddObjectMatrix</text>
</a>
</g>
</g>
<!-- Node31&#45;&gt;Node32 -->
<g id="edge38_Node000031_Node000032" class="edge">
<title>Node31&#45;&gt;Node32</title>
<g id="a_edge38_Node000031_Node000032"><a xlink:title=" ">
<path fill="none" stroke="#63b8ff" d="M465.3,-357.09C470.66,-359.52 475.69,-362.6 480,-366.5 514.7,-397.93 481.15,-434.24 516,-465.5 520.69,-469.7 526.19,-472.96 532.05,-475.48"/>
<polygon fill="#63b8ff" stroke="#63b8ff" points="530.87,-478.78 541.47,-478.87 533.24,-472.2 530.87,-478.78"/>
</a>
</g>
</g>
<!-- Node32&#45;&gt;Node3 -->
<g id="edge43_Node000032_Node000003" class="edge">
<title>Node32&#45;&gt;Node3</title>
<g id="a_edge43_Node000032_Node000003"><a xlink:title=" ">
<path fill="none" stroke="#63b8ff" d="M631.42,-493.03C654.39,-498.51 683.17,-505.38 706.21,-510.88"/>
<polygon fill="#63b8ff" stroke="#63b8ff" points="705.48,-514.31 716.02,-513.22 707.1,-507.5 705.48,-514.31"/>
</a>
</g>
</g>
<!-- Node33 -->
<g id="Node000033" class="node">
<title>Node33</title>
<g id="a_Node000033"><a xlink:href="Matrix_8cpp.html#a67401ed1d8de1f4d3a3e5a7b72842b6a" target="_top" xlink:title=" ">
<polygon fill="white" stroke="#666666" points="781,-493 714,-493 714,-474 781,-474 781,-493"/>
<text text-anchor="middle" x="747.5" y="-481" font-family="Helvetica,sans-Serif" font-size="10.00">AddMatrix</text>
</a>
</g>
</g>
<!-- Node32&#45;&gt;Node33 -->
<g id="edge39_Node000032_Node000033" class="edge">
<title>Node32&#45;&gt;Node33</title>
<g id="a_edge39_Node000032_Node000033"><a xlink:title=" ">
<path fill="none" stroke="#63b8ff" d="M639.69,-483.5C660.03,-483.5 683.53,-483.5 703.3,-483.5"/>
<polygon fill="#63b8ff" stroke="#63b8ff" points="703.55,-487 713.55,-483.5 703.55,-480 703.55,-487"/>
</a>
</g>
</g>
<!-- Node34 -->
<g id="Node000034" class="node">
<title>Node34</title>
<g id="a_Node000034"><a xlink:href="FrameInterpolation_8cpp.html#a8cf1f2d6fabc6925aa71a9515341b4aa" target="_top" xlink:title=" ">
<polygon fill="white" stroke="#666666" points="970,-418.5 830,-418.5 830,-388.5 970,-388.5 970,-418.5"/>
<text text-anchor="start" x="838" y="-406.5" font-family="Helvetica,sans-Serif" font-size="10.00">FrameInterpolation</text>
<text text-anchor="middle" x="900" y="-395.5" font-family="Helvetica,sans-Serif" font-size="10.00">_RecordMatrixMtxFToMtx</text>
</a>
</g>
</g>
<!-- Node33&#45;&gt;Node34 -->
<g id="edge40_Node000033_Node000034" class="edge">
<title>Node33&#45;&gt;Node34</title>
<g id="a_edge40_Node000033_Node000034"><a xlink:title=" ">
<path fill="none" stroke="#63b8ff" d="M774.79,-473.91C781.16,-471.36 787.9,-468.49 794,-465.5 819.34,-453.1 846.76,-436.81 867.22,-424.03"/>
<polygon fill="#63b8ff" stroke="#63b8ff" points="869.22,-426.91 875.81,-418.62 865.49,-420.99 869.22,-426.91"/>
</a>
</g>
</g>
<!-- Node35 -->
<g id="Node000035" class="node">
<title>Node35</title>
<g id="a_Node000035"><a xlink:href="guMtxF2L_8c.html#a40ab2d64c609839ff1e0ef0de2d0dcc4" target="_top" xlink:title=" ">
<polygon fill="white" stroke="#666666" points="932.5,-493 867.5,-493 867.5,-474 932.5,-474 932.5,-493"/>
<text text-anchor="middle" x="900" y="-481" font-family="Helvetica,sans-Serif" font-size="10.00">guMtxF2L</text>
</a>
</g>
</g>
<!-- Node33&#45;&gt;Node35 -->
<g id="edge42_Node000033_Node000035" class="edge">
<title>Node33&#45;&gt;Node35</title>
<g id="a_edge42_Node000033_Node000035"><a xlink:title=" ">
<path fill="none" stroke="#63b8ff" d="M781.16,-483.5C803.45,-483.5 833.17,-483.5 857.19,-483.5"/>
<polygon fill="#63b8ff" stroke="#63b8ff" points="857.44,-487 867.44,-483.5 857.44,-480 857.44,-487"/>
</a>
</g>
</g>
<!-- Node34&#45;&gt;Node10 -->
<g id="edge41_Node000034_Node000010" class="edge">
<title>Node34&#45;&gt;Node10</title>
<g id="a_edge41_Node000034_Node000010"><a xlink:title=" ">
<path fill="none" stroke="#63b8ff" d="M920.84,-388.38C935.83,-376.19 956.12,-357.91 970,-338.5 1011.76,-280.09 1040.97,-198.96 1052.94,-162.11"/>
<polygon fill="#63b8ff" stroke="#63b8ff" points="1056.41,-162.76 1056.1,-152.17 1049.74,-160.64 1056.41,-162.76"/>
</a>
</g>
</g>
<!-- Node36&#45;&gt;Node8 -->
<g id="edge45_Node000036_Node000008" class="edge">
<title>Node36&#45;&gt;Node8</title>
<g id="a_edge45_Node000036_Node000008"><a xlink:title=" ">
<path fill="none" stroke="#63b8ff" d="M231.86,-221.8C248.4,-200.65 290.69,-149.97 337,-121.5 339.75,-119.81 342.64,-118.22 345.61,-116.72"/>
<polygon fill="#63b8ff" stroke="#63b8ff" points="347.09,-119.89 354.72,-112.53 344.17,-113.54 347.09,-119.89"/>
</a>
</g>
</g>
<!-- Node36&#45;&gt;Node11 -->
<g id="edge46_Node000036_Node000011" class="edge">
<title>Node36&#45;&gt;Node11</title>
<g id="a_edge46_Node000036_Node000011"><a xlink:title=" ">
<path fill="none" stroke="#63b8ff" d="M288.25,-231.5C306.01,-231.5 325.31,-231.5 343.11,-231.5"/>
<polygon fill="#63b8ff" stroke="#63b8ff" points="343.4,-235 353.4,-231.5 343.4,-228 343.4,-235"/>
</a>
</g>
</g>
<!-- Node36&#45;&gt;Node12 -->
<g id="edge47_Node000036_Node000012" class="edge">
<title>Node36&#45;&gt;Node12</title>
<g id="a_edge47_Node000036_Node000012"><a xlink:title=" ">
<path fill="none" stroke="#63b8ff" d="M261.09,-221.9C284.6,-215.74 315.77,-207.56 343.31,-200.34"/>
<polygon fill="#63b8ff" stroke="#63b8ff" points="344.48,-203.65 353.27,-197.72 342.71,-196.88 344.48,-203.65"/>
</a>
</g>
</g>
<!-- Node36&#45;&gt;Node13 -->
<g id="edge48_Node000036_Node000013" class="edge">
<title>Node36&#45;&gt;Node13</title>
<g id="a_edge48_Node000036_Node000013"><a xlink:title=" ">
<path fill="none" stroke="#63b8ff" d="M228.47,-221.94C240.43,-194.33 278.94,-113.87 337,-73.5 342.19,-69.89 348.03,-66.97 354.08,-64.6"/>
<polygon fill="#63b8ff" stroke="#63b8ff" points="355.35,-67.86 363.68,-61.31 353.09,-61.24 355.35,-67.86"/>
</a>
</g>
</g>
<!-- Node36&#45;&gt;Node16 -->
<g id="edge49_Node000036_Node000016" class="edge">
<title>Node36&#45;&gt;Node16</title>
<g id="a_edge49_Node000036_Node000016"><a xlink:title=" ">
<path fill="none" stroke="#63b8ff" d="M267.81,-241.02C279.1,-244.57 290.92,-249.3 301,-255.5 320.54,-267.52 317.22,-280.88 337,-292.5 340.69,-294.67 344.63,-296.59 348.69,-298.3"/>
<polygon fill="#63b8ff" stroke="#63b8ff" points="347.74,-301.68 358.33,-301.92 350.2,-295.13 347.74,-301.68"/>
</a>
</g>
</g>
<!-- Node36&#45;&gt;Node25 -->
<g id="edge50_Node000036_Node000025" class="edge">
<title>Node36&#45;&gt;Node25</title>
<g id="a_edge50_Node000036_Node000025"><a xlink:title=" ">
<path fill="none" stroke="#63b8ff" d="M265.11,-241.04C292.24,-247.42 328.12,-255.85 357.07,-262.65"/>
<polygon fill="#63b8ff" stroke="#63b8ff" points="356.46,-266.1 367,-264.98 358.07,-259.29 356.46,-266.1"/>
</a>
</g>
</g>
<!-- Node36&#45;&gt;Node29 -->
<g id="edge51_Node000036_Node000029" class="edge">
<title>Node36&#45;&gt;Node29</title>
<g id="a_edge51_Node000036_Node000029"><a xlink:title=" ">
<path fill="none" stroke="#63b8ff" d="M236.61,-221.96C256.49,-206.72 297.76,-176.85 337,-159.5 345.17,-155.89 354.19,-152.82 362.96,-150.28"/>
<polygon fill="#63b8ff" stroke="#63b8ff" points="363.98,-153.63 372.71,-147.63 362.14,-146.88 363.98,-153.63"/>
</a>
</g>
</g>
<!-- Node36&#45;&gt;Node31 -->
<g id="edge52_Node000036_Node000031" class="edge">
<title>Node36&#45;&gt;Node31</title>
<g id="a_edge52_Node000036_Node000031"><a xlink:title=" ">
<path fill="none" stroke="#63b8ff" d="M275.28,-241.03C284.55,-244.47 293.62,-249.14 301,-255.5 328.71,-279.37 308.81,-306.2 337,-329.5 339.05,-331.2 341.24,-332.74 343.53,-334.15"/>
<polygon fill="#63b8ff" stroke="#63b8ff" points="342.3,-337.45 352.8,-338.93 345.51,-331.23 342.3,-337.45"/>
</a>
</g>
</g>
</g>
</svg>

<g id="navigator" transform="translate(0 0)" fill="#404254">
  <rect fill="#f2f5e9" fill-opacity="0.5" stroke="#606060" stroke-width=".5" x="0" y="0" width="60" height="60"/>
  <use id="zoomplus" xlink:href="#zoomPlus" x="17" y="9" onmousedown="handleZoom(evt,'in')"/>
  <use id="zoomminus" xlink:href="#zoomMin" x="42" y="9" onmousedown="handleZoom(evt,'out')"/>
  <use id="reset" xlink:href="#resetDef" x="30" y="36" onmousedown="handleReset()"/>
   <use id="arrowup" xlink:href="#arrowUp" x="0" y="0" onmousedown="handlePan(0,-1)"/>
  <use id="arrowright" xlink:href="#arrowRight" x="0" y="0" onmousedown="handlePan(1,0)"/>
  <use id="arrowdown" xlink:href="#arrowDown" x="0" y="0" onmousedown="handlePan(0,1)"/>
  <use id="arrowleft" xlink:href="#arrowLeft" x="0" y="0" onmousedown="handlePan(-1,0)"/>
</g>
<svg viewBox="0 0 15 15" width="100%" height="30px" preserveAspectRatio="xMaxYMin meet">
 <g id="arrow_out" transform="scale(0.3 0.3)">
  <a xlink:href="actors_8c_a911e7987e1670342aadf45be0095bde8_cgraph_org.svg" target="_base">
   <rect id="button" ry="5" rx="5" y="6" x="6" height="38" width="38"
        fill="#f2f5e9" fill-opacity="0.5" stroke="#606060" stroke-width="1.0"/>
   <path id="arrow"
     d="M 11.500037,31.436501 C 11.940474,20.09759 22.043105,11.32322 32.158766,21.979434 L 37.068811,17.246167 C 37.068811,17.246167 37.088388,32 37.088388,32 L 22.160133,31.978069 C 22.160133,31.978069 26.997745,27.140456 26.997745,27.140456 C 18.528582,18.264221 13.291696,25.230495 11.500037,31.436501 z"
     style="fill:#404040;"/>
  </a>
 </g>
</svg>

<style type='text/css'>
<![CDATA[
[data-mouse-over-selected='false'] { opacity: 0.7; }
[data-mouse-over-selected='true']  { opacity: 1.0; }
]]>
</style>
<script type="application/ecmascript"><![CDATA[
document.addEventListener('DOMContentLoaded', (event) => {
  highlightEdges();
  highlightAdjacentNodes();
});
]]></script>
</svg>
