<?xml version="1.0" encoding="UTF-8" standalone="no"?>
<!DOCTYPE svg PUBLIC "-//W3C//DTD SVG 1.1//EN"
 "http://www.w3.org/Graphics/SVG/1.1/DTD/svg11.dtd">
<!-- Generated by graphviz version 2.43.0 (0)
 -->
<!-- Title: func_80297340 Pages: 1 -->
<svg width="856pt" height="164pt"
 viewBox="0.00 0.00 856.00 164.00" xmlns="http://www.w3.org/2000/svg" xmlns:xlink="http://www.w3.org/1999/xlink">
<g id="graph0" class="graph" transform="scale(1 1) rotate(0) translate(4 160)">
<title>func_80297340</title>
<!-- Node1 -->
<g id="Node000001" class="node">
<title>Node1</title>
<g id="a_Node000001"><a xlink:title=" ">
<polygon fill="#999999" stroke="#666666" points="91,-108 0,-108 0,-89 91,-89 91,-108"/>
<text text-anchor="middle" x="45.5" y="-96" font-family="Helvetica,sans-Serif" font-size="10.00">func_80297340</text>
</a>
</g>
</g>
<!-- Node2 -->
<g id="Node000002" class="node">
<title>Node2</title>
<g id="a_Node000002"><a xlink:href="GBIMiddleware_8cpp.html#a4ecc44e3c6f1ca5a6b4a20c41d3bd2d2" target="_top" xlink:title=" ">
<polygon fill="white" stroke="#666666" points="228,-150 139,-150 139,-131 228,-131 228,-150"/>
<text text-anchor="middle" x="183.5" y="-138" font-family="Helvetica,sans-Serif" font-size="10.00">gSPDisplayList</text>
</a>
</g>
</g>
<!-- Node1&#45;&gt;Node2 -->
<g id="edge1_Node000001_Node000002" class="edge">
<title>Node1&#45;&gt;Node2</title>
<g id="a_edge1_Node000001_Node000002"><a xlink:title=" ">
<path fill="none" stroke="#63b8ff" d="M77.36,-108.03C96.35,-113.9 120.92,-121.48 141.53,-127.85"/>
<polygon fill="#63b8ff" stroke="#63b8ff" points="140.7,-131.26 151.29,-130.86 142.77,-124.57 140.7,-131.26"/>
</a>
</g>
</g>
<!-- Node5 -->
<g id="Node000005" class="node">
<title>Node5</title>
<g id="a_Node000005"><a xlink:href="math__util_8c.html#ad1800f715e0296b6e75f04de02479ea5" target="_top" xlink:title=" ">
<polygon fill="white" stroke="#666666" points="228,-108 139,-108 139,-89 228,-89 228,-108"/>
<text text-anchor="middle" x="183.5" y="-96" font-family="Helvetica,sans-Serif" font-size="10.00">mtxf_translate</text>
</a>
</g>
</g>
<!-- Node1&#45;&gt;Node5 -->
<g id="edge4_Node000001_Node000005" class="edge">
<title>Node1&#45;&gt;Node5</title>
<g id="a_edge4_Node000001_Node000005"><a xlink:title=" ">
<path fill="none" stroke="#63b8ff" d="M91.03,-98.5C103.01,-98.5 116.11,-98.5 128.54,-98.5"/>
<polygon fill="#63b8ff" stroke="#63b8ff" points="128.8,-102 138.8,-98.5 128.8,-95 128.8,-102"/>
</a>
</g>
</g>
<!-- Node9 -->
<g id="Node000009" class="node">
<title>Node9</title>
<g id="a_Node000009"><a xlink:href="math__util_8c.html#a1e5d28a1962fbb390c7551f66c2f099a" target="_top" xlink:title=" ">
<polygon fill="white" stroke="#666666" points="240,-62 127,-62 127,-43 240,-43 240,-62"/>
<text text-anchor="middle" x="183.5" y="-50" font-family="Helvetica,sans-Serif" font-size="10.00">render_set_position</text>
</a>
</g>
</g>
<!-- Node1&#45;&gt;Node9 -->
<g id="edge8_Node000001_Node000009" class="edge">
<title>Node1&#45;&gt;Node9</title>
<g id="a_edge8_Node000001_Node000009"><a xlink:title=" ">
<path fill="none" stroke="#63b8ff" d="M74.68,-88.97C94.92,-82.12 122.43,-72.82 144.59,-65.32"/>
<polygon fill="#63b8ff" stroke="#63b8ff" points="146.01,-68.54 154.36,-62.02 143.76,-61.91 146.01,-68.54"/>
</a>
</g>
</g>
<!-- Node3 -->
<g id="Node000003" class="node">
<title>Node3</title>
<g id="a_Node000003"><a xlink:href="Engine_8cpp.html#a223c8bc63f228dc11177515e38eff2db" target="_top" xlink:title=" ">
<polygon fill="white" stroke="#666666" points="425,-156 276,-156 276,-137 425,-137 425,-156"/>
<text text-anchor="middle" x="350.5" y="-144" font-family="Helvetica,sans-Serif" font-size="10.00">GameEngine_OTRSigCheck</text>
</a>
</g>
</g>
<!-- Node2&#45;&gt;Node3 -->
<g id="edge2_Node000002_Node000003" class="edge">
<title>Node2&#45;&gt;Node3</title>
<g id="a_edge2_Node000002_Node000003"><a xlink:title=" ">
<path fill="none" stroke="#63b8ff" d="M228.28,-142.09C239.81,-142.51 252.64,-142.98 265.52,-143.45"/>
<polygon fill="#63b8ff" stroke="#63b8ff" points="265.71,-146.96 275.83,-143.82 265.97,-139.96 265.71,-146.96"/>
</a>
</g>
</g>
<!-- Node4 -->
<g id="Node000004" class="node">
<title>Node4</title>
<g id="a_Node000004"><a xlink:href="string_8c.html#a008e171a518fe0e0352f31b245e03875" target="_top" xlink:title=" ">
<polygon fill="white" stroke="#666666" points="516.5,-156 472.5,-156 472.5,-137 516.5,-137 516.5,-156"/>
<text text-anchor="middle" x="494.5" y="-144" font-family="Helvetica,sans-Serif" font-size="10.00">strlen</text>
</a>
</g>
</g>
<!-- Node3&#45;&gt;Node4 -->
<g id="edge3_Node000003_Node000004" class="edge">
<title>Node3&#45;&gt;Node4</title>
<g id="a_edge3_Node000003_Node000004"><a xlink:title=" ">
<path fill="none" stroke="#63b8ff" d="M425.41,-146.5C438.35,-146.5 451.16,-146.5 462.12,-146.5"/>
<polygon fill="#63b8ff" stroke="#63b8ff" points="462.39,-150 472.39,-146.5 462.39,-143 462.39,-150"/>
</a>
</g>
</g>
<!-- Node6 -->
<g id="Node000006" class="node">
<title>Node6</title>
<g id="a_Node000006"><a xlink:href="FrameInterpolation_8cpp.html#a995ba2652f40cdff19afb9bf7857e573" target="_top" xlink:title=" ">
<polygon fill="white" stroke="#666666" points="699.5,-123.5 568.5,-123.5 568.5,-93.5 699.5,-93.5 699.5,-123.5"/>
<text text-anchor="start" x="576.5" y="-111.5" font-family="Helvetica,sans-Serif" font-size="10.00">FrameInterpolation</text>
<text text-anchor="middle" x="634" y="-100.5" font-family="Helvetica,sans-Serif" font-size="10.00">_RecordMatrixTranslate</text>
</a>
</g>
</g>
<!-- Node5&#45;&gt;Node6 -->
<g id="edge5_Node000005_Node000006" class="edge">
<title>Node5&#45;&gt;Node6</title>
<g id="a_edge5_Node000005_Node000006"><a xlink:title=" ">
<path fill="none" stroke="#63b8ff" d="M228.32,-99.48C304.88,-101.18 463.81,-104.73 558.11,-106.83"/>
<polygon fill="#63b8ff" stroke="#63b8ff" points="558.08,-110.33 568.16,-107.05 558.24,-103.33 558.08,-110.33"/>
</a>
</g>
</g>
<!-- Node8 -->
<g id="Node000008" class="node">
<title>Node8</title>
<g id="a_Node000008"><a xlink:href="math__util_8c.html#ac22eee16b1def67d2441ce919df0c5ac" target="_top" xlink:title=" ">
<polygon fill="white" stroke="#666666" points="392,-80 309,-80 309,-61 392,-61 392,-80"/>
<text text-anchor="middle" x="350.5" y="-68" font-family="Helvetica,sans-Serif" font-size="10.00">mtxf_identity</text>
</a>
</g>
</g>
<!-- Node5&#45;&gt;Node8 -->
<g id="edge7_Node000005_Node000008" class="edge">
<title>Node5&#45;&gt;Node8</title>
<g id="a_edge7_Node000005_Node000008"><a xlink:title=" ">
<path fill="none" stroke="#63b8ff" d="M228.28,-91.07C249.98,-87.39 276.29,-82.92 298.84,-79.1"/>
<polygon fill="#63b8ff" stroke="#63b8ff" points="299.64,-82.51 308.91,-77.39 298.47,-75.61 299.64,-82.51"/>
</a>
</g>
</g>
<!-- Node7 -->
<g id="Node000007" class="node">
<title>Node7</title>
<g id="a_Node000007"><a xlink:href="FrameInterpolation_8cpp.html#a02c7ac5342a4d376edee38f312b480bf" target="_top" xlink:title=" ">
<polygon fill="white" stroke="#666666" points="848,-94 740,-94 740,-75 848,-75 848,-94"/>
<text text-anchor="middle" x="794" y="-82" font-family="Helvetica,sans-Serif" font-size="10.00">check_if_recording</text>
</a>
</g>
</g>
<!-- Node6&#45;&gt;Node7 -->
<g id="edge6_Node000006_Node000007" class="edge">
<title>Node6&#45;&gt;Node7</title>
<g id="a_edge6_Node000006_Node000007"><a xlink:title=" ">
<path fill="none" stroke="#63b8ff" d="M699.72,-98.67C709.59,-97.17 719.76,-95.62 729.6,-94.13"/>
<polygon fill="#63b8ff" stroke="#63b8ff" points="730.34,-97.56 739.7,-92.6 729.29,-90.64 730.34,-97.56"/>
</a>
</g>
</g>
<!-- Node10 -->
<g id="Node000010" class="node">
<title>Node10</title>
<g id="a_Node000010"><a xlink:href="Matrix_8cpp.html#a6416f9a60a7397e8b517b1483adb96e8" target="_top" xlink:title=" ">
<polygon fill="white" stroke="#666666" points="399.5,-43 301.5,-43 301.5,-24 399.5,-24 399.5,-43"/>
<text text-anchor="middle" x="350.5" y="-31" font-family="Helvetica,sans-Serif" font-size="10.00">AddObjectMatrix</text>
</a>
</g>
</g>
<!-- Node9&#45;&gt;Node10 -->
<g id="edge9_Node000009_Node000010" class="edge">
<title>Node9&#45;&gt;Node10</title>
<g id="a_edge9_Node000009_Node000010"><a xlink:title=" ">
<path fill="none" stroke="#63b8ff" d="M240.36,-46.07C256.78,-44.18 274.76,-42.11 291.32,-40.2"/>
<polygon fill="#63b8ff" stroke="#63b8ff" points="291.88,-43.66 301.41,-39.04 291.08,-36.7 291.88,-43.66"/>
</a>
</g>
</g>
<!-- Node11 -->
<g id="Node000011" class="node">
<title>Node11</title>
<g id="a_Node000011"><a xlink:href="Matrix_8cpp.html#a67401ed1d8de1f4d3a3e5a7b72842b6a" target="_top" xlink:title=" ">
<polygon fill="white" stroke="#666666" points="528,-56 461,-56 461,-37 528,-37 528,-56"/>
<text text-anchor="middle" x="494.5" y="-44" font-family="Helvetica,sans-Serif" font-size="10.00">AddMatrix</text>
</a>
</g>
</g>
<!-- Node10&#45;&gt;Node11 -->
<g id="edge10_Node000010_Node000011" class="edge">
<title>Node10&#45;&gt;Node11</title>
<g id="a_edge10_Node000010_Node000011"><a xlink:title=" ">
<path fill="none" stroke="#63b8ff" d="M399.57,-37.9C416.08,-39.41 434.43,-41.09 450.5,-42.56"/>
<polygon fill="#63b8ff" stroke="#63b8ff" points="450.41,-46.07 460.69,-43.5 451.05,-39.1 450.41,-46.07"/>
</a>
</g>
</g>
<!-- Node14 -->
<g id="Node000014" class="node">
<title>Node14</title>
<g id="a_Node000014"><a xlink:href="Game_8cpp.html#ae2fa844b3cb1021ecbc357f8ed2ad8cc" target="_top" xlink:title=" ">
<polygon fill="white" stroke="#666666" points="525.5,-19 463.5,-19 463.5,0 525.5,0 525.5,-19"/>
<text text-anchor="middle" x="494.5" y="-7" font-family="Helvetica,sans-Serif" font-size="10.00">GetWorld</text>
</a>
</g>
</g>
<!-- Node10&#45;&gt;Node14 -->
<g id="edge14_Node000010_Node000014" class="edge">
<title>Node10&#45;&gt;Node14</title>
<g id="a_edge14_Node000010_Node000014"><a xlink:title=" ">
<path fill="none" stroke="#63b8ff" d="M399.57,-25.37C417.03,-22.42 436.56,-19.12 453.27,-16.3"/>
<polygon fill="#63b8ff" stroke="#63b8ff" points="453.99,-19.73 463.27,-14.61 452.82,-12.83 453.99,-19.73"/>
</a>
</g>
</g>
<!-- Node12 -->
<g id="Node000012" class="node">
<title>Node12</title>
<g id="a_Node000012"><a xlink:href="FrameInterpolation_8cpp.html#a8cf1f2d6fabc6925aa71a9515341b4aa" target="_top" xlink:title=" ">
<polygon fill="white" stroke="#666666" points="704,-75.5 564,-75.5 564,-45.5 704,-45.5 704,-75.5"/>
<text text-anchor="start" x="572" y="-63.5" font-family="Helvetica,sans-Serif" font-size="10.00">FrameInterpolation</text>
<text text-anchor="middle" x="634" y="-52.5" font-family="Helvetica,sans-Serif" font-size="10.00">_RecordMatrixMtxFToMtx</text>
</a>
</g>
</g>
<!-- Node11&#45;&gt;Node12 -->
<g id="edge11_Node000011_Node000012" class="edge">
<title>Node11&#45;&gt;Node12</title>
<g id="a_edge11_Node000011_Node000012"><a xlink:title=" ">
<path fill="none" stroke="#63b8ff" d="M528.09,-49.82C535.93,-50.62 544.66,-51.51 553.63,-52.42"/>
<polygon fill="#63b8ff" stroke="#63b8ff" points="553.53,-55.93 563.83,-53.46 554.24,-48.96 553.53,-55.93"/>
</a>
</g>
</g>
<!-- Node13 -->
<g id="Node000013" class="node">
<title>Node13</title>
<g id="a_Node000013"><a xlink:href="guMtxF2L_8c.html#a40ab2d64c609839ff1e0ef0de2d0dcc4" target="_top" xlink:title=" ">
<polygon fill="white" stroke="#666666" points="666.5,-27 601.5,-27 601.5,-8 666.5,-8 666.5,-27"/>
<text text-anchor="middle" x="634" y="-15" font-family="Helvetica,sans-Serif" font-size="10.00">guMtxF2L</text>
</a>
</g>
</g>
<!-- Node11&#45;&gt;Node13 -->
<g id="edge13_Node000011_Node000013" class="edge">
<title>Node11&#45;&gt;Node13</title>
<g id="a_edge13_Node000011_Node000013"><a xlink:title=" ">
<path fill="none" stroke="#63b8ff" d="M528.09,-39.63C546.97,-35.64 570.95,-30.59 591.21,-26.31"/>
<polygon fill="#63b8ff" stroke="#63b8ff" points="592.06,-29.71 601.12,-24.22 590.62,-22.86 592.06,-29.71"/>
</a>
</g>
</g>
<!-- Node12&#45;&gt;Node7 -->
<g id="edge12_Node000012_Node000007" class="edge">
<title>Node12&#45;&gt;Node7</title>
<g id="a_edge12_Node000012_Node000007"><a xlink:title=" ">
<path fill="none" stroke="#63b8ff" d="M704.3,-71.03C712.79,-72.32 721.43,-73.63 729.82,-74.9"/>
<polygon fill="#63b8ff" stroke="#63b8ff" points="729.5,-78.39 739.91,-76.44 730.55,-71.47 729.5,-78.39"/>
</a>
</g>
</g>
</g>
</svg>
