<?xml version="1.0" encoding="UTF-8" standalone="no"?>
<!DOCTYPE svg PUBLIC "-//W3C//DTD SVG 1.1//EN"
 "http://www.w3.org/Graphics/SVG/1.1/DTD/svg11.dtd">
<!-- Generated by graphviz version 2.43.0 (0)
 -->
<!-- Title: use_banana_bunch_item Pages: 1 -->
<svg width="1626pt" height="515pt"
 viewBox="0.00 0.00 1626.00 515.00" xmlns="http://www.w3.org/2000/svg" xmlns:xlink="http://www.w3.org/1999/xlink">
<g id="graph0" class="graph" transform="scale(1 1) rotate(0) translate(4 511)">
<title>use_banana_bunch_item</title>
<!-- Node1 -->
<g id="Node000001" class="node">
<title>Node1</title>
<g id="a_Node000001"><a xlink:title=" ">
<polygon fill="#999999" stroke="#666666" points="137,-310 0,-310 0,-291 137,-291 137,-310"/>
<text text-anchor="middle" x="68.5" y="-298" font-family="Helvetica,sans-Serif" font-size="10.00">use_banana_bunch_item</text>
</a>
</g>
</g>
<!-- Node2 -->
<g id="Node000002" class="node">
<title>Node2</title>
<g id="a_Node000002"><a xlink:href="actors_8c.html#a91fb2e4e37e7c72fea918fe2c1bb4eaf" target="_top" xlink:title=" ">
<polygon fill="white" stroke="#666666" points="313,-310 173,-310 173,-291 313,-291 313,-310"/>
<text text-anchor="middle" x="243" y="-298" font-family="Helvetica,sans-Serif" font-size="10.00">add_actor_to_empty_slot</text>
</a>
</g>
</g>
<!-- Node1&#45;&gt;Node2 -->
<g id="edge1_Node000001_Node000002" class="edge">
<title>Node1&#45;&gt;Node2</title>
<g id="a_edge1_Node000001_Node000002"><a xlink:title=" ">
<path fill="none" stroke="#63b8ff" d="M137.18,-300.5C145.5,-300.5 154.07,-300.5 162.54,-300.5"/>
<polygon fill="#63b8ff" stroke="#63b8ff" points="162.81,-304 172.81,-300.5 162.81,-297 162.81,-304"/>
</a>
</g>
</g>
<!-- Node3 -->
<g id="Node000003" class="node">
<title>Node3</title>
<g id="a_Node000003"><a xlink:href="actors_8c.html#a39c023177b5a7686cdd1fc65b8b953e1" target="_top" xlink:title=" ">
<polygon fill="white" stroke="#666666" points="436,-170 374,-170 374,-151 436,-151 436,-170"/>
<text text-anchor="middle" x="405" y="-158" font-family="Helvetica,sans-Serif" font-size="10.00">actor_init</text>
</a>
</g>
</g>
<!-- Node2&#45;&gt;Node3 -->
<g id="edge2_Node000002_Node000003" class="edge">
<title>Node2&#45;&gt;Node3</title>
<g id="a_edge2_Node000002_Node000003"><a xlink:title=" ">
<path fill="none" stroke="#63b8ff" d="M255,-290.88C281.94,-267.3 351.51,-206.43 385.19,-176.96"/>
<polygon fill="#63b8ff" stroke="#63b8ff" points="387.7,-179.41 392.93,-170.19 383.1,-174.14 387.7,-179.41"/>
</a>
</g>
</g>
<!-- Node26 -->
<g id="Node000026" class="node">
<title>Node26</title>
<g id="a_Node000026"><a xlink:href="Game_8cpp.html#acea5cfd9ab22f745bd6627869b95a62e" target="_top" xlink:title=" ">
<polygon fill="white" stroke="#666666" points="461,-405 349,-405 349,-386 461,-386 461,-405"/>
<text text-anchor="middle" x="405" y="-393" font-family="Helvetica,sans-Serif" font-size="10.00">CM_ActorBeginPlay</text>
</a>
</g>
</g>
<!-- Node2&#45;&gt;Node26 -->
<g id="edge25_Node000002_Node000026" class="edge">
<title>Node2&#45;&gt;Node26</title>
<g id="a_edge25_Node000002_Node000026"><a xlink:title=" ">
<path fill="none" stroke="#63b8ff" d="M260.22,-310.13C288.25,-326.78 345.93,-361.02 379.08,-380.7"/>
<polygon fill="#63b8ff" stroke="#63b8ff" points="377.35,-383.75 387.73,-385.84 380.92,-377.73 377.35,-383.75"/>
</a>
</g>
</g>
<!-- Node32 -->
<g id="Node000032" class="node">
<title>Node32</title>
<g id="a_Node000032"><a xlink:href="Game_8cpp.html#a42f23077aaa52cb3ea5c7803b7dd6816" target="_top" xlink:title=" ">
<polygon fill="white" stroke="#666666" points="458,-329 352,-329 352,-310 458,-310 458,-329"/>
<text text-anchor="middle" x="405" y="-317" font-family="Helvetica,sans-Serif" font-size="10.00">CM_AddBaseActor</text>
</a>
</g>
</g>
<!-- Node2&#45;&gt;Node32 -->
<g id="edge33_Node000002_Node000032" class="edge">
<title>Node2&#45;&gt;Node32</title>
<g id="a_edge33_Node000002_Node000032"><a xlink:title=" ">
<path fill="none" stroke="#63b8ff" d="M313.25,-308.72C322.68,-309.84 332.31,-310.99 341.6,-312.09"/>
<polygon fill="#63b8ff" stroke="#63b8ff" points="341.19,-315.57 351.53,-313.27 342.02,-308.61 341.19,-315.57"/>
</a>
</g>
</g>
<!-- Node34 -->
<g id="Node000034" class="node">
<title>Node34</title>
<g id="a_Node000034"><a xlink:href="Game_8cpp.html#a0841ffe9a66e95aca42438b9d8ffc3d3" target="_top" xlink:title=" ">
<polygon fill="white" stroke="#666666" points="455.5,-291 354.5,-291 354.5,-272 455.5,-272 455.5,-291"/>
<text text-anchor="middle" x="405" y="-279" font-family="Helvetica,sans-Serif" font-size="10.00">CM_GetActorSize</text>
</a>
</g>
</g>
<!-- Node2&#45;&gt;Node34 -->
<g id="edge36_Node000002_Node000034" class="edge">
<title>Node2&#45;&gt;Node34</title>
<g id="a_edge36_Node000002_Node000034"><a xlink:title=" ">
<path fill="none" stroke="#63b8ff" d="M313.25,-292.28C323.64,-291.04 334.27,-289.78 344.43,-288.57"/>
<polygon fill="#63b8ff" stroke="#63b8ff" points="344.9,-292.04 354.41,-287.39 344.07,-285.09 344.9,-292.04"/>
</a>
</g>
</g>
<!-- Node4 -->
<g id="Node000004" class="node">
<title>Node4</title>
<g id="a_Node000004"><a xlink:href="collision_8c.html#a37aa55b3768d001533ad75e7f1b8388a" target="_top" xlink:title=" ">
<polygon fill="white" stroke="#666666" points="638,-74 497,-74 497,-55 638,-55 638,-74"/>
<text text-anchor="middle" x="567.5" y="-62" font-family="Helvetica,sans-Serif" font-size="10.00">check_bounding_collision</text>
</a>
</g>
</g>
<!-- Node3&#45;&gt;Node4 -->
<g id="edge3_Node000003_Node000004" class="edge">
<title>Node3&#45;&gt;Node4</title>
<g id="a_edge3_Node000003_Node000004"><a xlink:title=" ">
<path fill="none" stroke="#63b8ff" d="M414.51,-150.74C429.5,-134.18 462.32,-100.6 497,-82.5 500.57,-80.64 504.34,-78.96 508.2,-77.45"/>
<polygon fill="#63b8ff" stroke="#63b8ff" points="509.68,-80.64 517.95,-74.03 507.36,-74.04 509.68,-80.64"/>
</a>
</g>
</g>
<!-- Node8 -->
<g id="Node000008" class="node">
<title>Node8</title>
<g id="a_Node000008"><a xlink:href="actors_8c.html#a1a9bccb586242555a9123ebd4ab70f2a" target="_top" xlink:title=" ">
<polygon fill="white" stroke="#666666" points="633.5,-196.5 501.5,-196.5 501.5,-166.5 633.5,-166.5 633.5,-196.5"/>
<text text-anchor="start" x="509.5" y="-184.5" font-family="Helvetica,sans-Serif" font-size="10.00">cleanup_red_and_green</text>
<text text-anchor="middle" x="567.5" y="-173.5" font-family="Helvetica,sans-Serif" font-size="10.00">_shells</text>
</a>
</g>
</g>
<!-- Node3&#45;&gt;Node8 -->
<g id="edge7_Node000003_Node000008" class="edge">
<title>Node3&#45;&gt;Node8</title>
<g id="a_edge7_Node000003_Node000008"><a xlink:title=" ">
<path fill="none" stroke="#63b8ff" d="M436.19,-164.45C451.81,-166.49 471.64,-169.09 491.09,-171.63"/>
<polygon fill="#63b8ff" stroke="#63b8ff" points="490.84,-175.13 501.21,-172.96 491.75,-168.19 490.84,-175.13"/>
</a>
</g>
</g>
<!-- Node22 -->
<g id="Node000022" class="node">
<title>Node22</title>
<g id="a_Node000022"><a xlink:href="collision_8c.html#ad72fef3ffe32191d73b1822f512ebf3f" target="_top" xlink:title=" ">
<polygon fill="white" stroke="#666666" points="615,-148 520,-148 520,-129 615,-129 615,-148"/>
<text text-anchor="middle" x="567.5" y="-136" font-family="Helvetica,sans-Serif" font-size="10.00">func_802AAAAC</text>
</a>
</g>
</g>
<!-- Node3&#45;&gt;Node22 -->
<g id="edge21_Node000003_Node000022" class="edge">
<title>Node3&#45;&gt;Node22</title>
<g id="a_edge21_Node000003_Node000022"><a xlink:title=" ">
<path fill="none" stroke="#63b8ff" d="M436.19,-156.36C456.86,-153.53 484.91,-149.68 509.69,-146.29"/>
<polygon fill="#63b8ff" stroke="#63b8ff" points="510.29,-149.74 519.72,-144.91 509.34,-142.8 510.29,-149.74"/>
</a>
</g>
</g>
<!-- Node24 -->
<g id="Node000024" class="node">
<title>Node24</title>
<g id="a_Node000024"><a xlink:href="math__util_8c.html#af7b470ed76fce07b8042a47c96e5690b" target="_top" xlink:title=" ">
<polygon fill="white" stroke="#666666" points="621,-111 514,-111 514,-92 621,-92 621,-111"/>
<text text-anchor="middle" x="567.5" y="-99" font-family="Helvetica,sans-Serif" font-size="10.00">vec3f_copy_return</text>
</a>
</g>
</g>
<!-- Node3&#45;&gt;Node24 -->
<g id="edge23_Node000003_Node000024" class="edge">
<title>Node3&#45;&gt;Node24</title>
<g id="a_edge23_Node000003_Node000024"><a xlink:title=" ">
<path fill="none" stroke="#63b8ff" d="M424.79,-150.9C442.93,-141.91 471.34,-128.53 497,-119.5 502.86,-117.44 509.08,-115.49 515.29,-113.7"/>
<polygon fill="#63b8ff" stroke="#63b8ff" points="516.29,-117.06 524.99,-111.02 514.42,-110.31 516.29,-117.06"/>
</a>
</g>
</g>
<!-- Node25 -->
<g id="Node000025" class="node">
<title>Node25</title>
<g id="a_Node000025"><a xlink:href="math__util_8c.html#a0e270ee67600c8c9c2f140c647d008a1" target="_top" xlink:title=" ">
<polygon fill="white" stroke="#666666" points="604.5,-234 530.5,-234 530.5,-215 604.5,-215 604.5,-234"/>
<text text-anchor="middle" x="567.5" y="-222" font-family="Helvetica,sans-Serif" font-size="10.00">vec3s_copy</text>
</a>
</g>
</g>
<!-- Node3&#45;&gt;Node25 -->
<g id="edge24_Node000003_Node000025" class="edge">
<title>Node3&#45;&gt;Node25</title>
<g id="a_edge24_Node000003_Node000025"><a xlink:title=" ">
<path fill="none" stroke="#63b8ff" d="M423,-170.14C440.96,-180.03 470.31,-195.36 497,-205.5 504.48,-208.34 512.57,-210.95 520.48,-213.26"/>
<polygon fill="#63b8ff" stroke="#63b8ff" points="519.79,-216.71 530.36,-216.03 521.68,-209.97 519.79,-216.71"/>
</a>
</g>
</g>
<!-- Node5 -->
<g id="Node000005" class="node">
<title>Node5</title>
<g id="a_Node000005"><a xlink:href="collision_8c.html#ac312bf382cb40752f6b790a99e7cdcb6" target="_top" xlink:title=" ">
<polygon fill="white" stroke="#666666" points="806.5,-19 698.5,-19 698.5,0 806.5,0 806.5,-19"/>
<text text-anchor="middle" x="752.5" y="-7" font-family="Helvetica,sans-Serif" font-size="10.00">check_collision_yx</text>
</a>
</g>
</g>
<!-- Node4&#45;&gt;Node5 -->
<g id="edge4_Node000004_Node000005" class="edge">
<title>Node4&#45;&gt;Node5</title>
<g id="a_edge4_Node000004_Node000005"><a xlink:title=" ">
<path fill="none" stroke="#63b8ff" d="M593.4,-54.9C614.63,-46.93 646.04,-35.62 674,-27.5 681.29,-25.38 689.01,-23.35 696.66,-21.45"/>
<polygon fill="#63b8ff" stroke="#63b8ff" points="697.71,-24.8 706.61,-19.05 696.07,-17.99 697.71,-24.8"/>
</a>
</g>
</g>
<!-- Node6 -->
<g id="Node000006" class="node">
<title>Node6</title>
<g id="a_Node000006"><a xlink:href="collision_8c.html#a4b48832a90e984536a0635a016ec4f28" target="_top" xlink:title=" ">
<polygon fill="white" stroke="#666666" points="806,-93 699,-93 699,-74 806,-74 806,-93"/>
<text text-anchor="middle" x="752.5" y="-81" font-family="Helvetica,sans-Serif" font-size="10.00">check_collision_zx</text>
</a>
</g>
</g>
<!-- Node4&#45;&gt;Node6 -->
<g id="edge5_Node000004_Node000006" class="edge">
<title>Node4&#45;&gt;Node6</title>
<g id="a_edge5_Node000004_Node000006"><a xlink:title=" ">
<path fill="none" stroke="#63b8ff" d="M638.21,-71.74C654.85,-73.47 672.52,-75.3 688.83,-76.99"/>
<polygon fill="#63b8ff" stroke="#63b8ff" points="688.47,-80.48 698.78,-78.03 689.2,-73.51 688.47,-80.48"/>
</a>
</g>
</g>
<!-- Node7 -->
<g id="Node000007" class="node">
<title>Node7</title>
<g id="a_Node000007"><a xlink:href="collision_8c.html#a21fef964ab48191a1c0341954ef27a40" target="_top" xlink:title=" ">
<polygon fill="white" stroke="#666666" points="806,-56 699,-56 699,-37 806,-37 806,-56"/>
<text text-anchor="middle" x="752.5" y="-44" font-family="Helvetica,sans-Serif" font-size="10.00">check_collision_zy</text>
</a>
</g>
</g>
<!-- Node4&#45;&gt;Node7 -->
<g id="edge6_Node000004_Node000007" class="edge">
<title>Node4&#45;&gt;Node7</title>
<g id="a_edge6_Node000004_Node000007"><a xlink:title=" ">
<path fill="none" stroke="#63b8ff" d="M638.21,-57.64C654.85,-56.01 672.52,-54.27 688.83,-52.66"/>
<polygon fill="#63b8ff" stroke="#63b8ff" points="689.17,-56.15 698.78,-51.69 688.49,-49.18 689.17,-56.15"/>
</a>
</g>
</g>
<!-- Node9 -->
<g id="Node000009" class="node">
<title>Node9</title>
<g id="a_Node000009"><a xlink:href="Game_8cpp.html#a693de7d8b89fe291aafea86bc64a0a2e" target="_top" xlink:title=" ">
<polygon fill="white" stroke="#666666" points="792.5,-253 712.5,-253 712.5,-234 792.5,-234 792.5,-253"/>
<text text-anchor="middle" x="752.5" y="-241" font-family="Helvetica,sans-Serif" font-size="10.00">CM_GetActor</text>
</a>
</g>
</g>
<!-- Node8&#45;&gt;Node9 -->
<g id="edge8_Node000008_Node000009" class="edge">
<title>Node8&#45;&gt;Node9</title>
<g id="a_edge8_Node000008_Node000009"><a xlink:title=" ">
<path fill="none" stroke="#63b8ff" d="M612.92,-196.59C621.32,-199.7 629.98,-203.07 638,-206.5 654.45,-213.54 657.21,-218.33 674,-224.5 683.07,-227.83 692.96,-230.76 702.53,-233.26"/>
<polygon fill="#63b8ff" stroke="#63b8ff" points="701.81,-236.68 712.36,-235.7 703.5,-229.89 701.81,-236.68"/>
</a>
</g>
</g>
<!-- Node11 -->
<g id="Node000011" class="node">
<title>Node11</title>
<g id="a_Node000011"><a xlink:href="code__80005FD0_8c.html#ad301b978cdd3c4cc190b10be050d51d8" target="_top" xlink:title=" ">
<polygon fill="white" stroke="#666666" points="825.5,-215.5 679.5,-215.5 679.5,-185.5 825.5,-185.5 825.5,-215.5"/>
<text text-anchor="start" x="687.5" y="-203.5" font-family="Helvetica,sans-Serif" font-size="10.00">delete_actor_in_unexpired</text>
<text text-anchor="middle" x="752.5" y="-192.5" font-family="Helvetica,sans-Serif" font-size="10.00">_actor_list</text>
</a>
</g>
</g>
<!-- Node8&#45;&gt;Node11 -->
<g id="edge10_Node000008_Node000011" class="edge">
<title>Node8&#45;&gt;Node11</title>
<g id="a_edge10_Node000008_Node000011"><a xlink:title=" ">
<path fill="none" stroke="#63b8ff" d="M633.53,-188.25C645.09,-189.45 657.27,-190.72 669.23,-191.96"/>
<polygon fill="#63b8ff" stroke="#63b8ff" points="668.9,-195.44 679.21,-192.99 669.62,-188.48 668.9,-195.44"/>
</a>
</g>
</g>
<!-- Node12 -->
<g id="Node000012" class="node">
<title>Node12</title>
<g id="a_Node000012"><a xlink:href="actors_8c.html#a694ec6ef7548b8618aeb35c038d3a9b9" target="_top" xlink:title=" ">
<polygon fill="white" stroke="#666666" points="794,-167 711,-167 711,-148 794,-148 794,-167"/>
<text text-anchor="middle" x="752.5" y="-155" font-family="Helvetica,sans-Serif" font-size="10.00">destroy_actor</text>
</a>
</g>
</g>
<!-- Node8&#45;&gt;Node12 -->
<g id="edge11_Node000008_Node000012" class="edge">
<title>Node8&#45;&gt;Node12</title>
<g id="a_edge11_Node000008_Node000012"><a xlink:title=" ">
<path fill="none" stroke="#63b8ff" d="M633.53,-172.97C655.69,-170.06 680.12,-166.86 700.97,-164.13"/>
<polygon fill="#63b8ff" stroke="#63b8ff" points="701.43,-167.6 710.89,-162.83 700.52,-160.66 701.43,-167.6"/>
</a>
</g>
</g>
<!-- Node10 -->
<g id="Node000010" class="node">
<title>Node10</title>
<g id="a_Node000010"><a xlink:href="Game_8cpp.html#ae2fa844b3cb1021ecbc357f8ed2ad8cc" target="_top" xlink:title=" ">
<polygon fill="white" stroke="#666666" points="993,-329 931,-329 931,-310 993,-310 993,-329"/>
<text text-anchor="middle" x="962" y="-317" font-family="Helvetica,sans-Serif" font-size="10.00">GetWorld</text>
</a>
</g>
</g>
<!-- Node9&#45;&gt;Node10 -->
<g id="edge9_Node000009_Node000010" class="edge">
<title>Node9&#45;&gt;Node10</title>
<g id="a_edge9_Node000009_Node000010"><a xlink:title=" ">
<path fill="none" stroke="#63b8ff" d="M786.5,-253.08C800.33,-257.26 816.53,-262.37 831,-267.5 864.93,-279.52 903.1,-295.03 929.26,-305.98"/>
<polygon fill="#63b8ff" stroke="#63b8ff" points="928.09,-309.28 938.66,-309.93 930.8,-302.83 928.09,-309.28"/>
</a>
</g>
</g>
<!-- Node13 -->
<g id="Node000013" class="node">
<title>Node13</title>
<g id="a_Node000013"><a xlink:href="actors_8c.html#a12dc3ccac4c7d8569eadac0af4fd6f9f" target="_top" xlink:title=" ">
<polygon fill="white" stroke="#666666" points="1041,-167 883,-167 883,-148 1041,-148 1041,-167"/>
<text text-anchor="middle" x="962" y="-155" font-family="Helvetica,sans-Serif" font-size="10.00">play_sound_before_despawn</text>
</a>
</g>
</g>
<!-- Node12&#45;&gt;Node13 -->
<g id="edge12_Node000012_Node000013" class="edge">
<title>Node12&#45;&gt;Node13</title>
<g id="a_edge12_Node000012_Node000013"><a xlink:title=" ">
<path fill="none" stroke="#63b8ff" d="M794,-157.5C816.48,-157.5 845.36,-157.5 872.77,-157.5"/>
<polygon fill="#63b8ff" stroke="#63b8ff" points="872.79,-161 882.79,-157.5 872.79,-154 872.79,-161"/>
</a>
</g>
</g>
<!-- Node14 -->
<g id="Node000014" class="node">
<title>Node14</title>
<g id="a_Node000014"><a xlink:href="external_8c.html#ae72057869772019e4464c87d4e16c682" target="_top" xlink:title=" ">
<polygon fill="white" stroke="#666666" points="1185,-167 1093,-167 1093,-148 1185,-148 1185,-167"/>
<text text-anchor="middle" x="1139" y="-155" font-family="Helvetica,sans-Serif" font-size="10.00">func_800C99E0</text>
</a>
</g>
</g>
<!-- Node13&#45;&gt;Node14 -->
<g id="edge13_Node000013_Node000014" class="edge">
<title>Node13&#45;&gt;Node14</title>
<g id="a_edge13_Node000013_Node000014"><a xlink:title=" ">
<path fill="none" stroke="#63b8ff" d="M1041.03,-157.5C1054.98,-157.5 1069.26,-157.5 1082.42,-157.5"/>
<polygon fill="#63b8ff" stroke="#63b8ff" points="1082.71,-161 1092.71,-157.5 1082.71,-154 1082.71,-161"/>
</a>
</g>
</g>
<!-- Node15 -->
<g id="Node000015" class="node">
<title>Node15</title>
<g id="a_Node000015"><a xlink:href="external_8c.html#aeb87c527482a244173df36a1f3d4f446" target="_top" xlink:title=" ">
<polygon fill="white" stroke="#666666" points="1313,-186 1221,-186 1221,-167 1313,-167 1313,-186"/>
<text text-anchor="middle" x="1267" y="-174" font-family="Helvetica,sans-Serif" font-size="10.00">func_800C21E8</text>
</a>
</g>
</g>
<!-- Node14&#45;&gt;Node15 -->
<g id="edge14_Node000014_Node000015" class="edge">
<title>Node14&#45;&gt;Node15</title>
<g id="a_edge14_Node000014_Node000015"><a xlink:title=" ">
<path fill="none" stroke="#63b8ff" d="M1185.13,-164.31C1193.46,-165.56 1202.23,-166.88 1210.81,-168.18"/>
<polygon fill="#63b8ff" stroke="#63b8ff" points="1210.35,-171.65 1220.76,-169.68 1211.39,-164.73 1210.35,-171.65"/>
</a>
</g>
</g>
<!-- Node16 -->
<g id="Node000016" class="node">
<title>Node16</title>
<g id="a_Node000016"><a xlink:href="external_8c.html#a028d40421b90c38f68ebfd5acc626f2e" target="_top" xlink:title=" ">
<polygon fill="white" stroke="#666666" points="1313,-149 1221,-149 1221,-130 1313,-130 1313,-149"/>
<text text-anchor="middle" x="1267" y="-137" font-family="Helvetica,sans-Serif" font-size="10.00">func_800C5578</text>
</a>
</g>
</g>
<!-- Node14&#45;&gt;Node16 -->
<g id="edge15_Node000014_Node000016" class="edge">
<title>Node14&#45;&gt;Node16</title>
<g id="a_edge15_Node000014_Node000016"><a xlink:title=" ">
<path fill="none" stroke="#63b8ff" d="M1185.13,-151.05C1193.46,-149.86 1202.23,-148.61 1210.81,-147.38"/>
<polygon fill="#63b8ff" stroke="#63b8ff" points="1211.35,-150.84 1220.76,-145.96 1210.36,-143.91 1211.35,-150.84"/>
</a>
</g>
</g>
<!-- Node17 -->
<g id="Node000017" class="node">
<title>Node17</title>
<g id="a_Node000017"><a xlink:href="external_8c.html#ac0fb767de7e14a03f1bcfa53f0abd23b" target="_top" xlink:title=" ">
<polygon fill="white" stroke="#666666" points="1489,-186 1349,-186 1349,-167 1489,-167 1489,-186"/>
<text text-anchor="middle" x="1419" y="-174" font-family="Helvetica,sans-Serif" font-size="10.00">delete_sound_from_bank</text>
</a>
</g>
</g>
<!-- Node16&#45;&gt;Node17 -->
<g id="edge16_Node000016_Node000017" class="edge">
<title>Node16&#45;&gt;Node17</title>
<g id="a_edge16_Node000016_Node000017"><a xlink:title=" ">
<path fill="none" stroke="#63b8ff" d="M1306.63,-149.03C1325.8,-153.76 1349.16,-159.52 1369.52,-164.54"/>
<polygon fill="#63b8ff" stroke="#63b8ff" points="1368.69,-167.94 1379.24,-166.94 1370.37,-161.15 1368.69,-167.94"/>
</a>
</g>
</g>
<!-- Node19 -->
<g id="Node000019" class="node">
<title>Node19</title>
<g id="a_Node000019"><a xlink:href="external_8c.html#ab83bd36e63f0f1baddcb2482b5ad31b0" target="_top" xlink:title=" ">
<polygon fill="white" stroke="#666666" points="1465.5,-149 1372.5,-149 1372.5,-130 1465.5,-130 1465.5,-149"/>
<text text-anchor="middle" x="1419" y="-137" font-family="Helvetica,sans-Serif" font-size="10.00">func_800C41CC</text>
</a>
</g>
</g>
<!-- Node16&#45;&gt;Node19 -->
<g id="edge18_Node000016_Node000019" class="edge">
<title>Node16&#45;&gt;Node19</title>
<g id="a_edge18_Node000016_Node000019"><a xlink:title=" ">
<path fill="none" stroke="#63b8ff" d="M1313,-139.5C1328.37,-139.5 1345.74,-139.5 1361.86,-139.5"/>
<polygon fill="#63b8ff" stroke="#63b8ff" points="1362.25,-143 1372.25,-139.5 1362.25,-136 1362.25,-143"/>
</a>
</g>
</g>
<!-- Node20 -->
<g id="Node000020" class="node">
<title>Node20</title>
<g id="a_Node000020"><a xlink:href="port__eu_8c.html#aa89dfaecca46c6d071f08c1898d1f7c9" target="_top" xlink:title=" ">
<polygon fill="white" stroke="#666666" points="1465.5,-112 1372.5,-112 1372.5,-93 1465.5,-93 1465.5,-112"/>
<text text-anchor="middle" x="1419" y="-100" font-family="Helvetica,sans-Serif" font-size="10.00">func_800CBBE8</text>
</a>
</g>
</g>
<!-- Node16&#45;&gt;Node20 -->
<g id="edge19_Node000016_Node000020" class="edge">
<title>Node16&#45;&gt;Node20</title>
<g id="a_edge19_Node000016_Node000020"><a xlink:title=" ">
<path fill="none" stroke="#63b8ff" d="M1306.63,-129.97C1325.8,-125.24 1349.16,-119.48 1369.52,-114.46"/>
<polygon fill="#63b8ff" stroke="#63b8ff" points="1370.37,-117.85 1379.24,-112.06 1368.69,-111.06 1370.37,-117.85"/>
</a>
</g>
</g>
<!-- Node18 -->
<g id="Node000018" class="node">
<title>Node18</title>
<g id="a_Node000018"><a xlink:href="external_8c.html#a358ac55e8ab5262dcae8037334be06d7" target="_top" xlink:title=" ">
<polygon fill="white" stroke="#666666" points="1617.5,-186 1525.5,-186 1525.5,-167 1617.5,-167 1617.5,-186"/>
<text text-anchor="middle" x="1571.5" y="-174" font-family="Helvetica,sans-Serif" font-size="10.00">func_800C40F0</text>
</a>
</g>
</g>
<!-- Node17&#45;&gt;Node18 -->
<g id="edge17_Node000017_Node000018" class="edge">
<title>Node17&#45;&gt;Node18</title>
<g id="a_edge17_Node000017_Node000018"><a xlink:title=" ">
<path fill="none" stroke="#63b8ff" d="M1489.08,-176.5C1497.87,-176.5 1506.78,-176.5 1515.31,-176.5"/>
<polygon fill="#63b8ff" stroke="#63b8ff" points="1515.5,-180 1525.5,-176.5 1515.5,-173 1515.5,-180"/>
</a>
</g>
</g>
<!-- Node21 -->
<g id="Node000021" class="node">
<title>Node21</title>
<g id="a_Node000021"><a xlink:href="port__eu_8c.html#af361a20d2e08f30c53a237ca481ff734" target="_top" xlink:title=" ">
<polygon fill="white" stroke="#666666" points="1618,-112 1525,-112 1525,-93 1618,-93 1618,-112"/>
<text text-anchor="middle" x="1571.5" y="-100" font-family="Helvetica,sans-Serif" font-size="10.00">func_800CBB48</text>
</a>
</g>
</g>
<!-- Node20&#45;&gt;Node21 -->
<g id="edge20_Node000020_Node000021" class="edge">
<title>Node20&#45;&gt;Node21</title>
<g id="a_edge20_Node000020_Node000021"><a xlink:title=" ">
<path fill="none" stroke="#63b8ff" d="M1465.56,-102.5C1480.96,-102.5 1498.34,-102.5 1514.46,-102.5"/>
<polygon fill="#63b8ff" stroke="#63b8ff" points="1514.83,-106 1524.83,-102.5 1514.83,-99 1514.83,-106"/>
</a>
</g>
</g>
<!-- Node23 -->
<g id="Node000023" class="node">
<title>Node23</title>
<g id="a_Node000023"><a xlink:href="math__util_8c.html#a79fd07a0971ec96a3ff0801963a2fa7f" target="_top" xlink:title=" ">
<polygon fill="white" stroke="#666666" points="784.5,-130 720.5,-130 720.5,-111 784.5,-111 784.5,-130"/>
<text text-anchor="middle" x="752.5" y="-118" font-family="Helvetica,sans-Serif" font-size="10.00">vec3f_set</text>
</a>
</g>
</g>
<!-- Node22&#45;&gt;Node23 -->
<g id="edge22_Node000022_Node000023" class="edge">
<title>Node22&#45;&gt;Node23</title>
<g id="a_edge22_Node000022_Node000023"><a xlink:title=" ">
<path fill="none" stroke="#63b8ff" d="M615.15,-133.91C644.58,-131.02 682.22,-127.31 710.5,-124.53"/>
<polygon fill="#63b8ff" stroke="#63b8ff" points="710.85,-128.01 720.46,-123.55 710.17,-121.05 710.85,-128.01"/>
</a>
</g>
</g>
<!-- Node26&#45;&gt;Node10 -->
<g id="edge32_Node000026_Node000010" class="edge">
<title>Node26&#45;&gt;Node10</title>
<g id="a_edge32_Node000026_Node000010"><a xlink:title=" ">
<path fill="none" stroke="#63b8ff" d="M461.06,-392.83C542.45,-388.26 699.45,-377.05 831,-353.5 861.61,-348.02 895.59,-339.03 921.13,-331.67"/>
<polygon fill="#63b8ff" stroke="#63b8ff" points="922.21,-335 930.83,-328.83 920.25,-328.28 922.21,-335"/>
</a>
</g>
</g>
<!-- Node27 -->
<g id="Node000027" class="node">
<title>Node27</title>
<g id="a_Node000027"><a xlink:href="classWorld.html#a0f40d5f6f8bd3c76ad1e1ca4ccc4b74f" target="_top" xlink:title=" ">
<polygon fill="white" stroke="#666666" points="630,-443 505,-443 505,-424 630,-424 630,-443"/>
<text text-anchor="middle" x="567.5" y="-431" font-family="Helvetica,sans-Serif" font-size="10.00">World::ActorBeginPlay</text>
</a>
</g>
</g>
<!-- Node26&#45;&gt;Node27 -->
<g id="edge26_Node000026_Node000027" class="edge">
<title>Node26&#45;&gt;Node27</title>
<g id="a_edge26_Node000026_Node000027"><a xlink:title=" ">
<path fill="none" stroke="#63b8ff" d="M446.5,-405.09C467.68,-410.1 493.8,-416.29 516.26,-421.61"/>
<polygon fill="#63b8ff" stroke="#63b8ff" points="515.75,-425.08 526.29,-423.98 517.37,-418.27 515.75,-425.08"/>
</a>
</g>
</g>
<!-- Node28 -->
<g id="Node000028" class="node">
<title>Node28</title>
<g id="a_Node000028"><a xlink:href="classAActor.html#aa18a335c99d43d74ac46328df5c4918b" target="_top" xlink:title=" ">
<polygon fill="white" stroke="#666666" points="804.5,-480 700.5,-480 700.5,-461 804.5,-461 804.5,-480"/>
<text text-anchor="middle" x="752.5" y="-468" font-family="Helvetica,sans-Serif" font-size="10.00">AActor::BeginPlay</text>
</a>
</g>
</g>
<!-- Node27&#45;&gt;Node28 -->
<g id="edge27_Node000027_Node000028" class="edge">
<title>Node27&#45;&gt;Node28</title>
<g id="a_edge27_Node000027_Node000028"><a xlink:title=" ">
<path fill="none" stroke="#63b8ff" d="M615.63,-443.03C639.65,-447.89 669.07,-453.83 694.38,-458.95"/>
<polygon fill="#63b8ff" stroke="#63b8ff" points="693.72,-462.39 704.21,-460.94 695.11,-455.53 693.72,-462.39"/>
</a>
</g>
</g>
<!-- Node31 -->
<g id="Node000031" class="node">
<title>Node31</title>
<g id="a_Node000031"><a xlink:href="classWorld.html#a944244b32a2219826939859c6138f6ab" target="_top" xlink:title=" ">
<polygon fill="white" stroke="#666666" points="831,-443 674,-443 674,-424 831,-424 831,-443"/>
<text text-anchor="middle" x="752.5" y="-431" font-family="Helvetica,sans-Serif" font-size="10.00">World::ConvertActorToAActor</text>
</a>
</g>
</g>
<!-- Node27&#45;&gt;Node31 -->
<g id="edge31_Node000027_Node000031" class="edge">
<title>Node27&#45;&gt;Node31</title>
<g id="a_edge31_Node000027_Node000031"><a xlink:title=" ">
<path fill="none" stroke="#63b8ff" d="M630.2,-433.5C640.93,-433.5 652.26,-433.5 663.53,-433.5"/>
<polygon fill="#63b8ff" stroke="#63b8ff" points="663.84,-437 673.84,-433.5 663.84,-430 663.84,-437"/>
</a>
</g>
</g>
<!-- Node29 -->
<g id="Node000029" class="node">
<title>Node29</title>
<g id="a_Node000029"><a xlink:href="Editor_8cpp.html#ad9cda86dc3eb2b6511a8c9a951945014" target="_top" xlink:title=" ">
<polygon fill="white" stroke="#666666" points="1011,-507 913,-507 913,-488 1011,-488 1011,-507"/>
<text text-anchor="middle" x="962" y="-495" font-family="Helvetica,sans-Serif" font-size="10.00">Editor_IsEnabled</text>
</a>
</g>
</g>
<!-- Node28&#45;&gt;Node29 -->
<g id="edge28_Node000028_Node000029" class="edge">
<title>Node28&#45;&gt;Node29</title>
<g id="a_edge28_Node000028_Node000029"><a xlink:title=" ">
<path fill="none" stroke="#63b8ff" d="M804.53,-477.14C834.17,-481 871.65,-485.87 902.49,-489.89"/>
<polygon fill="#63b8ff" stroke="#63b8ff" points="902.3,-493.39 912.67,-491.21 903.2,-486.45 902.3,-493.39"/>
</a>
</g>
</g>
<!-- Node30 -->
<g id="Node000030" class="node">
<title>Node30</title>
<g id="a_Node000030"><a xlink:href="namespaceTrackEditor.html#a79d25f3b85758b1d930e2eb429655ead" target="_top" xlink:title=" ">
<polygon fill="white" stroke="#666666" points="1057,-452 867,-452 867,-433 1057,-433 1057,-452"/>
<text text-anchor="middle" x="962" y="-440" font-family="Helvetica,sans-Serif" font-size="10.00">TrackEditor::GenerateCollisionMesh</text>
</a>
</g>
</g>
<!-- Node28&#45;&gt;Node30 -->
<g id="edge29_Node000028_Node000030" class="edge">
<title>Node28&#45;&gt;Node30</title>
<g id="a_edge29_Node000028_Node000030"><a xlink:title=" ">
<path fill="none" stroke="#63b8ff" d="M804.53,-463.61C827.41,-460.53 854.95,-456.81 880.51,-453.36"/>
<polygon fill="#63b8ff" stroke="#63b8ff" points="881.12,-456.81 890.56,-452 880.19,-449.87 881.12,-456.81"/>
</a>
</g>
</g>
<!-- Node30&#45;&gt;Node30 -->
<g id="edge30_Node000030_Node000030" class="edge">
<title>Node30&#45;&gt;Node30</title>
<g id="a_edge30_Node000030_Node000030"><a xlink:title=" ">
<path fill="none" stroke="#63b8ff" d="M934.87,-452.08C921.68,-460.73 930.72,-470 962,-470 983.02,-470 994,-465.82 994.93,-460.45"/>
<polygon fill="#63b8ff" stroke="#63b8ff" points="997.7,-458.3 989.13,-452.08 991.95,-462.29 997.7,-458.3"/>
</a>
</g>
</g>
<!-- Node32&#45;&gt;Node10 -->
<g id="edge35_Node000032_Node000010" class="edge">
<title>Node32&#45;&gt;Node10</title>
<g id="a_edge35_Node000032_Node000010"><a xlink:title=" ">
<path fill="none" stroke="#63b8ff" d="M442.92,-329.01C459.35,-332.77 479.02,-336.64 497,-338.5 653,-354.61 839.82,-335.27 920.56,-325.05"/>
<polygon fill="#63b8ff" stroke="#63b8ff" points="921.31,-328.48 930.78,-323.73 920.41,-321.54 921.31,-328.48"/>
</a>
</g>
</g>
<!-- Node33 -->
<g id="Node000033" class="node">
<title>Node33</title>
<g id="a_Node000033"><a xlink:href="classWorld.html#a215117703aa8944483793767a0fb80ed" target="_top" xlink:title=" ">
<polygon fill="white" stroke="#666666" points="627,-329 508,-329 508,-310 627,-310 627,-329"/>
<text text-anchor="middle" x="567.5" y="-317" font-family="Helvetica,sans-Serif" font-size="10.00">World::AddBaseActor</text>
</a>
</g>
</g>
<!-- Node32&#45;&gt;Node33 -->
<g id="edge34_Node000032_Node000033" class="edge">
<title>Node32&#45;&gt;Node33</title>
<g id="a_edge34_Node000032_Node000033"><a xlink:title=" ">
<path fill="none" stroke="#63b8ff" d="M458.11,-319.5C470.8,-319.5 484.57,-319.5 497.9,-319.5"/>
<polygon fill="#63b8ff" stroke="#63b8ff" points="497.98,-323 507.98,-319.5 497.98,-316 497.98,-323"/>
</a>
</g>
</g>
<!-- Node34&#45;&gt;Node10 -->
<g id="edge37_Node000034_Node000010" class="edge">
<title>Node34&#45;&gt;Node10</title>
<g id="a_edge37_Node000034_Node000010"><a xlink:title=" ">
<path fill="none" stroke="#63b8ff" d="M455.74,-284.91C564.33,-292.34 820.85,-309.9 920.46,-316.72"/>
<polygon fill="#63b8ff" stroke="#63b8ff" points="920.49,-320.23 930.71,-317.43 920.97,-313.25 920.49,-320.23"/>
</a>
</g>
</g>
</g>
</svg>
