<?xml version="1.0" encoding="UTF-8" standalone="no"?>
<!DOCTYPE svg PUBLIC "-//W3C//DTD SVG 1.1//EN"
 "http://www.w3.org/Graphics/SVG/1.1/DTD/svg11.dtd">
<!-- Generated by graphviz version 2.43.0 (0)
 -->
<!-- Title: spawn_palm_trees Pages: 1 -->
<svg width="1606pt" height="659pt"
 viewBox="0.00 0.00 1606.00 659.00" xmlns="http://www.w3.org/2000/svg" xmlns:xlink="http://www.w3.org/1999/xlink">
<g id="graph0" class="graph" transform="scale(1 1) rotate(0) translate(4 655)">
<title>spawn_palm_trees</title>
<!-- Node1 -->
<g id="Node000001" class="node">
<title>Node1</title>
<g id="a_Node000001"><a xlink:title=" ">
<polygon fill="#999999" stroke="#666666" points="108,-169 0,-169 0,-150 108,-150 108,-169"/>
<text text-anchor="middle" x="54" y="-157" font-family="Helvetica,sans-Serif" font-size="10.00">spawn_palm_trees</text>
</a>
</g>
</g>
<!-- Node2 -->
<g id="Node000002" class="node">
<title>Node2</title>
<g id="a_Node000002"><a xlink:href="actors_8c.html#a91fb2e4e37e7c72fea918fe2c1bb4eaf" target="_top" xlink:title=" ">
<polygon fill="white" stroke="#666666" points="284,-406 144,-406 144,-387 284,-387 284,-406"/>
<text text-anchor="middle" x="214" y="-394" font-family="Helvetica,sans-Serif" font-size="10.00">add_actor_to_empty_slot</text>
</a>
</g>
</g>
<!-- Node1&#45;&gt;Node2 -->
<g id="edge1_Node000001_Node000002" class="edge">
<title>Node1&#45;&gt;Node2</title>
<g id="a_edge1_Node000001_Node000002"><a xlink:title=" ">
<path fill="none" stroke="#63b8ff" d="M56.22,-169.13C60.94,-202.33 80.95,-313.18 144,-372.5 148.32,-376.56 153.36,-379.94 158.72,-382.75"/>
<polygon fill="#63b8ff" stroke="#63b8ff" points="157.42,-386.01 167.97,-386.97 160.32,-379.64 157.42,-386.01"/>
</a>
</g>
</g>
<!-- Node4 -->
<g id="Node000004" class="node">
<title>Node4</title>
<g id="a_Node000004"><a xlink:href="collision_8c.html#a37aa55b3768d001533ad75e7f1b8388a" target="_top" xlink:title=" ">
<polygon fill="white" stroke="#666666" points="613.5,-169 472.5,-169 472.5,-150 613.5,-150 613.5,-169"/>
<text text-anchor="middle" x="543" y="-157" font-family="Helvetica,sans-Serif" font-size="10.00">check_bounding_collision</text>
</a>
</g>
</g>
<!-- Node1&#45;&gt;Node4 -->
<g id="edge38_Node000001_Node000004" class="edge">
<title>Node1&#45;&gt;Node4</title>
<g id="a_edge38_Node000001_Node000004"><a xlink:title=" ">
<path fill="none" stroke="#63b8ff" d="M108.04,-159.5C193.49,-159.5 362.11,-159.5 462.15,-159.5"/>
<polygon fill="#63b8ff" stroke="#63b8ff" points="462.2,-163 472.2,-159.5 462.2,-156 462.2,-163"/>
</a>
</g>
</g>
<!-- Node9 -->
<g id="Node000009" class="node">
<title>Node9</title>
<g id="a_Node000009"><a xlink:href="Game_8cpp.html#a693de7d8b89fe291aafea86bc64a0a2e" target="_top" xlink:title=" ">
<polygon fill="white" stroke="#666666" points="772.5,-368 692.5,-368 692.5,-349 772.5,-349 772.5,-368"/>
<text text-anchor="middle" x="732.5" y="-356" font-family="Helvetica,sans-Serif" font-size="10.00">CM_GetActor</text>
</a>
</g>
</g>
<!-- Node1&#45;&gt;Node9 -->
<g id="edge43_Node000001_Node000009" class="edge">
<title>Node1&#45;&gt;Node9</title>
<g id="a_edge43_Node000001_Node000009"><a xlink:title=" ">
<path fill="none" stroke="#63b8ff" d="M71.15,-169.2C125.03,-200.96 304.48,-301.96 468,-339.5 541.13,-356.29 628.4,-359.38 681.87,-359.42"/>
<polygon fill="#63b8ff" stroke="#63b8ff" points="682.11,-362.92 692.1,-359.39 682.09,-355.92 682.11,-362.92"/>
</a>
</g>
</g>
<!-- Node23 -->
<g id="Node000023" class="node">
<title>Node23</title>
<g id="a_Node000023"><a xlink:href="math__util_8c.html#a79fd07a0971ec96a3ff0801963a2fa7f" target="_top" xlink:title=" ">
<polygon fill="white" stroke="#666666" points="764.5,-76 700.5,-76 700.5,-57 764.5,-57 764.5,-76"/>
<text text-anchor="middle" x="732.5" y="-64" font-family="Helvetica,sans-Serif" font-size="10.00">vec3f_set</text>
</a>
</g>
</g>
<!-- Node1&#45;&gt;Node23 -->
<g id="edge48_Node000001_Node000023" class="edge">
<title>Node1&#45;&gt;Node23</title>
<g id="a_edge48_Node000001_Node000023"><a xlink:title=" ">
<path fill="none" stroke="#63b8ff" d="M108.08,-152.2C238.7,-134.25 573.55,-88.21 690.47,-72.14"/>
<polygon fill="#63b8ff" stroke="#63b8ff" points="691.02,-75.6 700.45,-70.77 690.07,-68.66 691.02,-75.6"/>
</a>
</g>
</g>
<!-- Node35 -->
<g id="Node000035" class="node">
<title>Node35</title>
<g id="a_Node000035"><a xlink:href="Game_8cpp.html#a1da3595258e6b03f5c89bfa45851321c" target="_top" xlink:title=" ">
<polygon fill="white" stroke="#666666" points="618,-558 468,-558 468,-539 618,-539 618,-558"/>
<text text-anchor="middle" x="543" y="-546" font-family="Helvetica,sans-Serif" font-size="10.00">CM_ActorGenerateCollision</text>
</a>
</g>
</g>
<!-- Node1&#45;&gt;Node35 -->
<g id="edge39_Node000001_Node000035" class="edge">
<title>Node1&#45;&gt;Node35</title>
<g id="a_edge39_Node000001_Node000035"><a xlink:title=" ">
<path fill="none" stroke="#63b8ff" d="M55.62,-169.01C58.52,-205.72 73.68,-339.85 144,-415.5 225.79,-503.49 367.34,-533.31 457.73,-543.39"/>
<polygon fill="#63b8ff" stroke="#63b8ff" points="457.64,-546.9 467.95,-544.47 458.37,-539.94 457.64,-546.9"/>
</a>
</g>
</g>
<!-- Node36 -->
<g id="Node000036" class="node">
<title>Node36</title>
<g id="a_Node000036"><a xlink:href="actors_8c.html#a09d879c67b2c1430dd8ba2d5c9c136e1" target="_top" xlink:title=" ">
<polygon fill="white" stroke="#666666" points="260,-56 168,-56 168,-37 260,-37 260,-56"/>
<text text-anchor="middle" x="214" y="-44" font-family="Helvetica,sans-Serif" font-size="10.00">func_802976EC</text>
</a>
</g>
</g>
<!-- Node1&#45;&gt;Node36 -->
<g id="edge44_Node000001_Node000036" class="edge">
<title>Node1&#45;&gt;Node36</title>
<g id="a_edge44_Node000001_Node000036"><a xlink:title=" ">
<path fill="none" stroke="#63b8ff" d="M62.24,-149.77C76.16,-131.71 108.45,-92.79 144,-70.5 150.88,-66.19 158.62,-62.53 166.38,-59.48"/>
<polygon fill="#63b8ff" stroke="#63b8ff" points="167.6,-62.76 175.79,-56.04 165.19,-56.18 167.6,-62.76"/>
</a>
</g>
</g>
<!-- Node40 -->
<g id="Node000040" class="node">
<title>Node40</title>
<g id="a_Node000040"><a xlink:href="math__util_8c.html#a9092c945c52b3a3481228b2724991e3c" target="_top" xlink:title=" ">
<polygon fill="white" stroke="#666666" points="246.5,-19 181.5,-19 181.5,0 246.5,0 246.5,-19"/>
<text text-anchor="middle" x="214" y="-7" font-family="Helvetica,sans-Serif" font-size="10.00">vec3s_set</text>
</a>
</g>
</g>
<!-- Node1&#45;&gt;Node40 -->
<g id="edge49_Node000001_Node000040" class="edge">
<title>Node1&#45;&gt;Node40</title>
<g id="a_edge49_Node000001_Node000040"><a xlink:title=" ">
<path fill="none" stroke="#63b8ff" d="M58.68,-149.77C68.51,-125.2 97.77,-60.25 144,-27.5 152.1,-21.76 161.89,-17.85 171.52,-15.19"/>
<polygon fill="#63b8ff" stroke="#63b8ff" points="172.5,-18.56 181.42,-12.84 170.88,-11.75 172.5,-18.56"/>
</a>
</g>
</g>
<!-- Node3 -->
<g id="Node000003" class="node">
<title>Node3</title>
<g id="a_Node000003"><a xlink:href="actors_8c.html#a39c023177b5a7686cdd1fc65b8b953e1" target="_top" xlink:title=" ">
<polygon fill="white" stroke="#666666" points="407,-271 345,-271 345,-252 407,-252 407,-271"/>
<text text-anchor="middle" x="376" y="-259" font-family="Helvetica,sans-Serif" font-size="10.00">actor_init</text>
</a>
</g>
</g>
<!-- Node2&#45;&gt;Node3 -->
<g id="edge2_Node000002_Node000003" class="edge">
<title>Node2&#45;&gt;Node3</title>
<g id="a_edge2_Node000002_Node000003"><a xlink:title=" ">
<path fill="none" stroke="#63b8ff" d="M226.51,-386.79C253.72,-363.83 322.28,-305.99 355.86,-277.65"/>
<polygon fill="#63b8ff" stroke="#63b8ff" points="358.21,-280.24 363.6,-271.12 353.7,-274.89 358.21,-280.24"/>
</a>
</g>
</g>
<!-- Node26 -->
<g id="Node000026" class="node">
<title>Node26</title>
<g id="a_Node000026"><a xlink:href="Game_8cpp.html#acea5cfd9ab22f745bd6627869b95a62e" target="_top" xlink:title=" ">
<polygon fill="white" stroke="#666666" points="432,-482 320,-482 320,-463 432,-463 432,-482"/>
<text text-anchor="middle" x="376" y="-470" font-family="Helvetica,sans-Serif" font-size="10.00">CM_ActorBeginPlay</text>
</a>
</g>
</g>
<!-- Node2&#45;&gt;Node26 -->
<g id="edge25_Node000002_Node000026" class="edge">
<title>Node2&#45;&gt;Node26</title>
<g id="a_edge25_Node000002_Node000026"><a xlink:title=" ">
<path fill="none" stroke="#63b8ff" d="M235.26,-406.13C263.16,-419.37 313.55,-443.31 345.59,-458.53"/>
<polygon fill="#63b8ff" stroke="#63b8ff" points="344.37,-461.82 354.9,-462.95 347.37,-455.5 344.37,-461.82"/>
</a>
</g>
</g>
<!-- Node32 -->
<g id="Node000032" class="node">
<title>Node32</title>
<g id="a_Node000032"><a xlink:href="Game_8cpp.html#a42f23077aaa52cb3ea5c7803b7dd6816" target="_top" xlink:title=" ">
<polygon fill="white" stroke="#666666" points="429,-406 323,-406 323,-387 429,-387 429,-406"/>
<text text-anchor="middle" x="376" y="-394" font-family="Helvetica,sans-Serif" font-size="10.00">CM_AddBaseActor</text>
</a>
</g>
</g>
<!-- Node2&#45;&gt;Node32 -->
<g id="edge33_Node000002_Node000032" class="edge">
<title>Node2&#45;&gt;Node32</title>
<g id="a_edge33_Node000002_Node000032"><a xlink:title=" ">
<path fill="none" stroke="#63b8ff" d="M284.25,-396.5C293.57,-396.5 303.1,-396.5 312.31,-396.5"/>
<polygon fill="#63b8ff" stroke="#63b8ff" points="312.53,-400 322.53,-396.5 312.53,-393 312.53,-400"/>
</a>
</g>
</g>
<!-- Node34 -->
<g id="Node000034" class="node">
<title>Node34</title>
<g id="a_Node000034"><a xlink:href="Game_8cpp.html#a0841ffe9a66e95aca42438b9d8ffc3d3" target="_top" xlink:title=" ">
<polygon fill="white" stroke="#666666" points="426.5,-210 325.5,-210 325.5,-191 426.5,-191 426.5,-210"/>
<text text-anchor="middle" x="376" y="-198" font-family="Helvetica,sans-Serif" font-size="10.00">CM_GetActorSize</text>
</a>
</g>
</g>
<!-- Node2&#45;&gt;Node34 -->
<g id="edge36_Node000002_Node000034" class="edge">
<title>Node2&#45;&gt;Node34</title>
<g id="a_edge36_Node000002_Node000034"><a xlink:title=" ">
<path fill="none" stroke="#63b8ff" d="M220.25,-386.8C234.26,-361.46 274.55,-291.86 320,-243.5 329.6,-233.29 341.74,-223.53 352.18,-215.9"/>
<polygon fill="#63b8ff" stroke="#63b8ff" points="354.33,-218.67 360.45,-210.02 350.27,-212.96 354.33,-218.67"/>
</a>
</g>
</g>
<!-- Node3&#45;&gt;Node4 -->
<g id="edge3_Node000003_Node000004" class="edge">
<title>Node3&#45;&gt;Node4</title>
<g id="a_edge3_Node000003_Node000004"><a xlink:title=" ">
<path fill="none" stroke="#63b8ff" d="M392.52,-251.9C421.39,-234.06 483.52,-195.65 517.89,-174.4"/>
<polygon fill="#63b8ff" stroke="#63b8ff" points="519.73,-177.38 526.4,-169.14 516.05,-171.43 519.73,-177.38"/>
</a>
</g>
</g>
<!-- Node8 -->
<g id="Node000008" class="node">
<title>Node8</title>
<g id="a_Node000008"><a xlink:href="actors_8c.html#a1a9bccb586242555a9123ebd4ab70f2a" target="_top" xlink:title=" ">
<polygon fill="white" stroke="#666666" points="609,-255.5 477,-255.5 477,-225.5 609,-225.5 609,-255.5"/>
<text text-anchor="start" x="485" y="-243.5" font-family="Helvetica,sans-Serif" font-size="10.00">cleanup_red_and_green</text>
<text text-anchor="middle" x="543" y="-232.5" font-family="Helvetica,sans-Serif" font-size="10.00">_shells</text>
</a>
</g>
</g>
<!-- Node3&#45;&gt;Node8 -->
<g id="edge7_Node000003_Node000008" class="edge">
<title>Node3&#45;&gt;Node8</title>
<g id="a_edge7_Node000003_Node000008"><a xlink:title=" ">
<path fill="none" stroke="#63b8ff" d="M407.26,-257.65C424.05,-255.51 445.74,-252.75 466.79,-250.07"/>
<polygon fill="#63b8ff" stroke="#63b8ff" points="467.24,-253.54 476.72,-248.81 466.36,-246.6 467.24,-253.54"/>
</a>
</g>
</g>
<!-- Node22 -->
<g id="Node000022" class="node">
<title>Node22</title>
<g id="a_Node000022"><a xlink:href="collision_8c.html#ad72fef3ffe32191d73b1822f512ebf3f" target="_top" xlink:title=" ">
<polygon fill="white" stroke="#666666" points="590.5,-132 495.5,-132 495.5,-113 590.5,-113 590.5,-132"/>
<text text-anchor="middle" x="543" y="-120" font-family="Helvetica,sans-Serif" font-size="10.00">func_802AAAAC</text>
</a>
</g>
</g>
<!-- Node3&#45;&gt;Node22 -->
<g id="edge21_Node000003_Node000022" class="edge">
<title>Node3&#45;&gt;Node22</title>
<g id="a_edge21_Node000003_Node000022"><a xlink:title=" ">
<path fill="none" stroke="#63b8ff" d="M393.66,-251.85C405.58,-244.28 421.33,-232.81 432,-219.5 455.87,-189.7 438.67,-165.95 468,-141.5 473.2,-137.16 479.27,-133.8 485.66,-131.2"/>
<polygon fill="#63b8ff" stroke="#63b8ff" points="486.88,-134.48 495.18,-127.9 484.58,-127.87 486.88,-134.48"/>
</a>
</g>
</g>
<!-- Node24 -->
<g id="Node000024" class="node">
<title>Node24</title>
<g id="a_Node000024"><a xlink:href="math__util_8c.html#af7b470ed76fce07b8042a47c96e5690b" target="_top" xlink:title=" ">
<polygon fill="white" stroke="#666666" points="596.5,-330 489.5,-330 489.5,-311 596.5,-311 596.5,-330"/>
<text text-anchor="middle" x="543" y="-318" font-family="Helvetica,sans-Serif" font-size="10.00">vec3f_copy_return</text>
</a>
</g>
</g>
<!-- Node3&#45;&gt;Node24 -->
<g id="edge23_Node000003_Node000024" class="edge">
<title>Node3&#45;&gt;Node24</title>
<g id="a_edge23_Node000003_Node000024"><a xlink:title=" ">
<path fill="none" stroke="#63b8ff" d="M395.41,-271.01C413.51,-280.07 442.11,-293.6 468,-302.5 474.07,-304.59 480.5,-306.53 486.94,-308.31"/>
<polygon fill="#63b8ff" stroke="#63b8ff" points="486.44,-311.8 497.01,-310.96 488.23,-305.03 486.44,-311.8"/>
</a>
</g>
</g>
<!-- Node25 -->
<g id="Node000025" class="node">
<title>Node25</title>
<g id="a_Node000025"><a xlink:href="math__util_8c.html#a0e270ee67600c8c9c2f140c647d008a1" target="_top" xlink:title=" ">
<polygon fill="white" stroke="#666666" points="580,-293 506,-293 506,-274 580,-274 580,-293"/>
<text text-anchor="middle" x="543" y="-281" font-family="Helvetica,sans-Serif" font-size="10.00">vec3s_copy</text>
</a>
</g>
</g>
<!-- Node3&#45;&gt;Node25 -->
<g id="edge24_Node000003_Node000025" class="edge">
<title>Node3&#45;&gt;Node25</title>
<g id="a_edge24_Node000003_Node000025"><a xlink:title=" ">
<path fill="none" stroke="#63b8ff" d="M407.26,-265.54C432.04,-268.84 467.49,-273.57 495.81,-277.34"/>
<polygon fill="#63b8ff" stroke="#63b8ff" points="495.51,-280.83 505.89,-278.69 496.44,-273.89 495.51,-280.83"/>
</a>
</g>
</g>
<!-- Node5 -->
<g id="Node000005" class="node">
<title>Node5</title>
<g id="a_Node000005"><a xlink:href="collision_8c.html#ac312bf382cb40752f6b790a99e7cdcb6" target="_top" xlink:title=" ">
<polygon fill="white" stroke="#666666" points="786.5,-113 678.5,-113 678.5,-94 786.5,-94 786.5,-113"/>
<text text-anchor="middle" x="732.5" y="-101" font-family="Helvetica,sans-Serif" font-size="10.00">check_collision_yx</text>
</a>
</g>
</g>
<!-- Node4&#45;&gt;Node5 -->
<g id="edge4_Node000004_Node000005" class="edge">
<title>Node4&#45;&gt;Node5</title>
<g id="a_edge4_Node000004_Node000005"><a xlink:title=" ">
<path fill="none" stroke="#63b8ff" d="M590.72,-149.99C599.89,-147.61 609.34,-144.78 618,-141.5 634.92,-135.09 637.09,-128.92 654,-122.5 660.68,-119.96 667.81,-117.68 674.94,-115.65"/>
<polygon fill="#63b8ff" stroke="#63b8ff" points="675.88,-119.02 684.62,-113.03 674.06,-112.26 675.88,-119.02"/>
</a>
</g>
</g>
<!-- Node6 -->
<g id="Node000006" class="node">
<title>Node6</title>
<g id="a_Node000006"><a xlink:href="collision_8c.html#a4b48832a90e984536a0635a016ec4f28" target="_top" xlink:title=" ">
<polygon fill="white" stroke="#666666" points="786,-187 679,-187 679,-168 786,-168 786,-187"/>
<text text-anchor="middle" x="732.5" y="-175" font-family="Helvetica,sans-Serif" font-size="10.00">check_collision_zx</text>
</a>
</g>
</g>
<!-- Node4&#45;&gt;Node6 -->
<g id="edge5_Node000004_Node000006" class="edge">
<title>Node4&#45;&gt;Node6</title>
<g id="a_edge5_Node000004_Node000006"><a xlink:title=" ">
<path fill="none" stroke="#63b8ff" d="M613.55,-166.18C631.59,-167.91 650.9,-169.76 668.57,-171.46"/>
<polygon fill="#63b8ff" stroke="#63b8ff" points="668.48,-174.97 678.77,-172.44 669.15,-168 668.48,-174.97"/>
</a>
</g>
</g>
<!-- Node7 -->
<g id="Node000007" class="node">
<title>Node7</title>
<g id="a_Node000007"><a xlink:href="collision_8c.html#a21fef964ab48191a1c0341954ef27a40" target="_top" xlink:title=" ">
<polygon fill="white" stroke="#666666" points="786,-150 679,-150 679,-131 786,-131 786,-150"/>
<text text-anchor="middle" x="732.5" y="-138" font-family="Helvetica,sans-Serif" font-size="10.00">check_collision_zy</text>
</a>
</g>
</g>
<!-- Node4&#45;&gt;Node7 -->
<g id="edge6_Node000004_Node000007" class="edge">
<title>Node4&#45;&gt;Node7</title>
<g id="a_edge6_Node000004_Node000007"><a xlink:title=" ">
<path fill="none" stroke="#63b8ff" d="M613.55,-152.45C631.59,-150.62 650.9,-148.67 668.57,-146.88"/>
<polygon fill="#63b8ff" stroke="#63b8ff" points="669.17,-150.33 678.77,-145.84 668.47,-143.37 669.17,-150.33"/>
</a>
</g>
</g>
<!-- Node8&#45;&gt;Node9 -->
<g id="edge8_Node000008_Node000009" class="edge">
<title>Node8&#45;&gt;Node9</title>
<g id="a_edge8_Node000008_Node000009"><a xlink:title=" ">
<path fill="none" stroke="#63b8ff" d="M601.32,-255.53C607.25,-258.32 612.94,-261.62 618,-265.5 640.89,-283.05 632.4,-300.38 654,-319.5 665.91,-330.04 681.19,-338.53 695.03,-344.85"/>
<polygon fill="#63b8ff" stroke="#63b8ff" points="693.75,-348.11 704.31,-348.89 696.54,-341.69 693.75,-348.11"/>
</a>
</g>
</g>
<!-- Node11 -->
<g id="Node000011" class="node">
<title>Node11</title>
<g id="a_Node000011"><a xlink:href="code__80005FD0_8c.html#ad301b978cdd3c4cc190b10be050d51d8" target="_top" xlink:title=" ">
<polygon fill="white" stroke="#666666" points="805.5,-310.5 659.5,-310.5 659.5,-280.5 805.5,-280.5 805.5,-310.5"/>
<text text-anchor="start" x="667.5" y="-298.5" font-family="Helvetica,sans-Serif" font-size="10.00">delete_actor_in_unexpired</text>
<text text-anchor="middle" x="732.5" y="-287.5" font-family="Helvetica,sans-Serif" font-size="10.00">_actor_list</text>
</a>
</g>
</g>
<!-- Node8&#45;&gt;Node11 -->
<g id="edge10_Node000008_Node000011" class="edge">
<title>Node8&#45;&gt;Node11</title>
<g id="a_edge10_Node000008_Node000011"><a xlink:title=" ">
<path fill="none" stroke="#63b8ff" d="M595.24,-255.53C618.49,-262.35 646.17,-270.47 670.49,-277.6"/>
<polygon fill="#63b8ff" stroke="#63b8ff" points="669.75,-281.03 680.33,-280.49 671.72,-274.32 669.75,-281.03"/>
</a>
</g>
</g>
<!-- Node12 -->
<g id="Node000012" class="node">
<title>Node12</title>
<g id="a_Node000012"><a xlink:href="actors_8c.html#a694ec6ef7548b8618aeb35c038d3a9b9" target="_top" xlink:title=" ">
<polygon fill="white" stroke="#666666" points="774,-224 691,-224 691,-205 774,-205 774,-224"/>
<text text-anchor="middle" x="732.5" y="-212" font-family="Helvetica,sans-Serif" font-size="10.00">destroy_actor</text>
</a>
</g>
</g>
<!-- Node8&#45;&gt;Node12 -->
<g id="edge11_Node000008_Node000012" class="edge">
<title>Node8&#45;&gt;Node12</title>
<g id="a_edge11_Node000008_Node000012"><a xlink:title=" ">
<path fill="none" stroke="#63b8ff" d="M609.05,-231.48C632.52,-228.23 658.64,-224.6 680.71,-221.54"/>
<polygon fill="#63b8ff" stroke="#63b8ff" points="681.44,-224.98 690.86,-220.13 680.48,-218.04 681.44,-224.98"/>
</a>
</g>
</g>
<!-- Node10 -->
<g id="Node000010" class="node">
<title>Node10</title>
<g id="a_Node000010"><a xlink:href="Game_8cpp.html#ae2fa844b3cb1021ecbc357f8ed2ad8cc" target="_top" xlink:title=" ">
<polygon fill="white" stroke="#666666" points="973,-444 911,-444 911,-425 973,-425 973,-444"/>
<text text-anchor="middle" x="942" y="-432" font-family="Helvetica,sans-Serif" font-size="10.00">GetWorld</text>
</a>
</g>
</g>
<!-- Node9&#45;&gt;Node10 -->
<g id="edge9_Node000009_Node000010" class="edge">
<title>Node9&#45;&gt;Node10</title>
<g id="a_edge9_Node000009_Node000010"><a xlink:title=" ">
<path fill="none" stroke="#63b8ff" d="M759.78,-368.13C796.73,-381.66 864.14,-406.35 905.51,-421.5"/>
<polygon fill="#63b8ff" stroke="#63b8ff" points="904.34,-424.8 914.93,-424.95 906.75,-418.23 904.34,-424.8"/>
</a>
</g>
</g>
<!-- Node13 -->
<g id="Node000013" class="node">
<title>Node13</title>
<g id="a_Node000013"><a xlink:href="actors_8c.html#a12dc3ccac4c7d8569eadac0af4fd6f9f" target="_top" xlink:title=" ">
<polygon fill="white" stroke="#666666" points="1021,-224 863,-224 863,-205 1021,-205 1021,-224"/>
<text text-anchor="middle" x="942" y="-212" font-family="Helvetica,sans-Serif" font-size="10.00">play_sound_before_despawn</text>
</a>
</g>
</g>
<!-- Node12&#45;&gt;Node13 -->
<g id="edge12_Node000012_Node000013" class="edge">
<title>Node12&#45;&gt;Node13</title>
<g id="a_edge12_Node000012_Node000013"><a xlink:title=" ">
<path fill="none" stroke="#63b8ff" d="M774,-214.5C796.48,-214.5 825.36,-214.5 852.77,-214.5"/>
<polygon fill="#63b8ff" stroke="#63b8ff" points="852.79,-218 862.79,-214.5 852.79,-211 852.79,-218"/>
</a>
</g>
</g>
<!-- Node14 -->
<g id="Node000014" class="node">
<title>Node14</title>
<g id="a_Node000014"><a xlink:href="external_8c.html#ae72057869772019e4464c87d4e16c682" target="_top" xlink:title=" ">
<polygon fill="white" stroke="#666666" points="1165,-224 1073,-224 1073,-205 1165,-205 1165,-224"/>
<text text-anchor="middle" x="1119" y="-212" font-family="Helvetica,sans-Serif" font-size="10.00">func_800C99E0</text>
</a>
</g>
</g>
<!-- Node13&#45;&gt;Node14 -->
<g id="edge13_Node000013_Node000014" class="edge">
<title>Node13&#45;&gt;Node14</title>
<g id="a_edge13_Node000013_Node000014"><a xlink:title=" ">
<path fill="none" stroke="#63b8ff" d="M1021.03,-214.5C1034.98,-214.5 1049.26,-214.5 1062.42,-214.5"/>
<polygon fill="#63b8ff" stroke="#63b8ff" points="1062.71,-218 1072.71,-214.5 1062.71,-211 1062.71,-218"/>
</a>
</g>
</g>
<!-- Node15 -->
<g id="Node000015" class="node">
<title>Node15</title>
<g id="a_Node000015"><a xlink:href="external_8c.html#aeb87c527482a244173df36a1f3d4f446" target="_top" xlink:title=" ">
<polygon fill="white" stroke="#666666" points="1293,-243 1201,-243 1201,-224 1293,-224 1293,-243"/>
<text text-anchor="middle" x="1247" y="-231" font-family="Helvetica,sans-Serif" font-size="10.00">func_800C21E8</text>
</a>
</g>
</g>
<!-- Node14&#45;&gt;Node15 -->
<g id="edge14_Node000014_Node000015" class="edge">
<title>Node14&#45;&gt;Node15</title>
<g id="a_edge14_Node000014_Node000015"><a xlink:title=" ">
<path fill="none" stroke="#63b8ff" d="M1165.13,-221.31C1173.46,-222.56 1182.23,-223.88 1190.81,-225.18"/>
<polygon fill="#63b8ff" stroke="#63b8ff" points="1190.35,-228.65 1200.76,-226.68 1191.39,-221.73 1190.35,-228.65"/>
</a>
</g>
</g>
<!-- Node16 -->
<g id="Node000016" class="node">
<title>Node16</title>
<g id="a_Node000016"><a xlink:href="external_8c.html#a028d40421b90c38f68ebfd5acc626f2e" target="_top" xlink:title=" ">
<polygon fill="white" stroke="#666666" points="1293,-206 1201,-206 1201,-187 1293,-187 1293,-206"/>
<text text-anchor="middle" x="1247" y="-194" font-family="Helvetica,sans-Serif" font-size="10.00">func_800C5578</text>
</a>
</g>
</g>
<!-- Node14&#45;&gt;Node16 -->
<g id="edge15_Node000014_Node000016" class="edge">
<title>Node14&#45;&gt;Node16</title>
<g id="a_edge15_Node000014_Node000016"><a xlink:title=" ">
<path fill="none" stroke="#63b8ff" d="M1165.13,-208.05C1173.46,-206.86 1182.23,-205.61 1190.81,-204.38"/>
<polygon fill="#63b8ff" stroke="#63b8ff" points="1191.35,-207.84 1200.76,-202.96 1190.36,-200.91 1191.35,-207.84"/>
</a>
</g>
</g>
<!-- Node17 -->
<g id="Node000017" class="node">
<title>Node17</title>
<g id="a_Node000017"><a xlink:href="external_8c.html#ac0fb767de7e14a03f1bcfa53f0abd23b" target="_top" xlink:title=" ">
<polygon fill="white" stroke="#666666" points="1469,-243 1329,-243 1329,-224 1469,-224 1469,-243"/>
<text text-anchor="middle" x="1399" y="-231" font-family="Helvetica,sans-Serif" font-size="10.00">delete_sound_from_bank</text>
</a>
</g>
</g>
<!-- Node16&#45;&gt;Node17 -->
<g id="edge16_Node000016_Node000017" class="edge">
<title>Node16&#45;&gt;Node17</title>
<g id="a_edge16_Node000016_Node000017"><a xlink:title=" ">
<path fill="none" stroke="#63b8ff" d="M1286.63,-206.03C1305.8,-210.76 1329.16,-216.52 1349.52,-221.54"/>
<polygon fill="#63b8ff" stroke="#63b8ff" points="1348.69,-224.94 1359.24,-223.94 1350.37,-218.15 1348.69,-224.94"/>
</a>
</g>
</g>
<!-- Node19 -->
<g id="Node000019" class="node">
<title>Node19</title>
<g id="a_Node000019"><a xlink:href="external_8c.html#ab83bd36e63f0f1baddcb2482b5ad31b0" target="_top" xlink:title=" ">
<polygon fill="white" stroke="#666666" points="1445.5,-206 1352.5,-206 1352.5,-187 1445.5,-187 1445.5,-206"/>
<text text-anchor="middle" x="1399" y="-194" font-family="Helvetica,sans-Serif" font-size="10.00">func_800C41CC</text>
</a>
</g>
</g>
<!-- Node16&#45;&gt;Node19 -->
<g id="edge18_Node000016_Node000019" class="edge">
<title>Node16&#45;&gt;Node19</title>
<g id="a_edge18_Node000016_Node000019"><a xlink:title=" ">
<path fill="none" stroke="#63b8ff" d="M1293,-196.5C1308.37,-196.5 1325.74,-196.5 1341.86,-196.5"/>
<polygon fill="#63b8ff" stroke="#63b8ff" points="1342.25,-200 1352.25,-196.5 1342.25,-193 1342.25,-200"/>
</a>
</g>
</g>
<!-- Node20 -->
<g id="Node000020" class="node">
<title>Node20</title>
<g id="a_Node000020"><a xlink:href="port__eu_8c.html#aa89dfaecca46c6d071f08c1898d1f7c9" target="_top" xlink:title=" ">
<polygon fill="white" stroke="#666666" points="1445.5,-169 1352.5,-169 1352.5,-150 1445.5,-150 1445.5,-169"/>
<text text-anchor="middle" x="1399" y="-157" font-family="Helvetica,sans-Serif" font-size="10.00">func_800CBBE8</text>
</a>
</g>
</g>
<!-- Node16&#45;&gt;Node20 -->
<g id="edge19_Node000016_Node000020" class="edge">
<title>Node16&#45;&gt;Node20</title>
<g id="a_edge19_Node000016_Node000020"><a xlink:title=" ">
<path fill="none" stroke="#63b8ff" d="M1286.63,-186.97C1305.8,-182.24 1329.16,-176.48 1349.52,-171.46"/>
<polygon fill="#63b8ff" stroke="#63b8ff" points="1350.37,-174.85 1359.24,-169.06 1348.69,-168.06 1350.37,-174.85"/>
</a>
</g>
</g>
<!-- Node18 -->
<g id="Node000018" class="node">
<title>Node18</title>
<g id="a_Node000018"><a xlink:href="external_8c.html#a358ac55e8ab5262dcae8037334be06d7" target="_top" xlink:title=" ">
<polygon fill="white" stroke="#666666" points="1597.5,-243 1505.5,-243 1505.5,-224 1597.5,-224 1597.5,-243"/>
<text text-anchor="middle" x="1551.5" y="-231" font-family="Helvetica,sans-Serif" font-size="10.00">func_800C40F0</text>
</a>
</g>
</g>
<!-- Node17&#45;&gt;Node18 -->
<g id="edge17_Node000017_Node000018" class="edge">
<title>Node17&#45;&gt;Node18</title>
<g id="a_edge17_Node000017_Node000018"><a xlink:title=" ">
<path fill="none" stroke="#63b8ff" d="M1469.08,-233.5C1477.87,-233.5 1486.78,-233.5 1495.31,-233.5"/>
<polygon fill="#63b8ff" stroke="#63b8ff" points="1495.5,-237 1505.5,-233.5 1495.5,-230 1495.5,-237"/>
</a>
</g>
</g>
<!-- Node21 -->
<g id="Node000021" class="node">
<title>Node21</title>
<g id="a_Node000021"><a xlink:href="port__eu_8c.html#af361a20d2e08f30c53a237ca481ff734" target="_top" xlink:title=" ">
<polygon fill="white" stroke="#666666" points="1598,-169 1505,-169 1505,-150 1598,-150 1598,-169"/>
<text text-anchor="middle" x="1551.5" y="-157" font-family="Helvetica,sans-Serif" font-size="10.00">func_800CBB48</text>
</a>
</g>
</g>
<!-- Node20&#45;&gt;Node21 -->
<g id="edge20_Node000020_Node000021" class="edge">
<title>Node20&#45;&gt;Node21</title>
<g id="a_edge20_Node000020_Node000021"><a xlink:title=" ">
<path fill="none" stroke="#63b8ff" d="M1445.56,-159.5C1460.96,-159.5 1478.34,-159.5 1494.46,-159.5"/>
<polygon fill="#63b8ff" stroke="#63b8ff" points="1494.83,-163 1504.83,-159.5 1494.83,-156 1494.83,-163"/>
</a>
</g>
</g>
<!-- Node22&#45;&gt;Node23 -->
<g id="edge22_Node000022_Node000023" class="edge">
<title>Node22&#45;&gt;Node23</title>
<g id="a_edge22_Node000022_Node000023"><a xlink:title=" ">
<path fill="none" stroke="#63b8ff" d="M574.32,-112.92C587.74,-108.61 603.69,-103.4 618,-98.5 634.09,-92.99 637.72,-90.42 654,-85.5 665.69,-81.97 678.52,-78.61 690.32,-75.73"/>
<polygon fill="#63b8ff" stroke="#63b8ff" points="691.46,-79.06 700.37,-73.34 689.83,-72.25 691.46,-79.06"/>
</a>
</g>
</g>
<!-- Node26&#45;&gt;Node10 -->
<g id="edge32_Node000026_Node000010" class="edge">
<title>Node26&#45;&gt;Node10</title>
<g id="a_edge32_Node000026_Node000010"><a xlink:title=" ">
<path fill="none" stroke="#63b8ff" d="M432.21,-470.37C514.72,-466.97 675.05,-459.57 811,-448.5 841.13,-446.05 875.08,-442.36 900.74,-439.38"/>
<polygon fill="#63b8ff" stroke="#63b8ff" points="901.31,-442.84 910.83,-438.2 900.49,-435.89 901.31,-442.84"/>
</a>
</g>
</g>
<!-- Node27 -->
<g id="Node000027" class="node">
<title>Node27</title>
<g id="a_Node000027"><a xlink:href="classWorld.html#a0f40d5f6f8bd3c76ad1e1ca4ccc4b74f" target="_top" xlink:title=" ">
<polygon fill="white" stroke="#666666" points="605.5,-520 480.5,-520 480.5,-501 605.5,-501 605.5,-520"/>
<text text-anchor="middle" x="543" y="-508" font-family="Helvetica,sans-Serif" font-size="10.00">World::ActorBeginPlay</text>
</a>
</g>
</g>
<!-- Node26&#45;&gt;Node27 -->
<g id="edge26_Node000026_Node000027" class="edge">
<title>Node26&#45;&gt;Node27</title>
<g id="a_edge26_Node000026_Node000027"><a xlink:title=" ">
<path fill="none" stroke="#63b8ff" d="M418.64,-482.09C440.51,-487.13 467.51,-493.34 490.66,-498.68"/>
<polygon fill="#63b8ff" stroke="#63b8ff" points="490.13,-502.15 500.66,-500.98 491.7,-495.32 490.13,-502.15"/>
</a>
</g>
</g>
<!-- Node28 -->
<g id="Node000028" class="node">
<title>Node28</title>
<g id="a_Node000028"><a xlink:href="classAActor.html#aa18a335c99d43d74ac46328df5c4918b" target="_top" xlink:title=" ">
<polygon fill="white" stroke="#666666" points="784.5,-596 680.5,-596 680.5,-577 784.5,-577 784.5,-596"/>
<text text-anchor="middle" x="732.5" y="-584" font-family="Helvetica,sans-Serif" font-size="10.00">AActor::BeginPlay</text>
</a>
</g>
</g>
<!-- Node27&#45;&gt;Node28 -->
<g id="edge27_Node000027_Node000028" class="edge">
<title>Node27&#45;&gt;Node28</title>
<g id="a_edge27_Node000027_Node000028"><a xlink:title=" ">
<path fill="none" stroke="#63b8ff" d="M585.16,-520.1C595.98,-523.04 607.54,-526.55 618,-530.5 649.12,-542.25 683.12,-559.69 705.71,-571.97"/>
<polygon fill="#63b8ff" stroke="#63b8ff" points="704.21,-575.14 714.66,-576.89 707.58,-569.01 704.21,-575.14"/>
</a>
</g>
</g>
<!-- Node31 -->
<g id="Node000031" class="node">
<title>Node31</title>
<g id="a_Node000031"><a xlink:href="classWorld.html#a944244b32a2219826939859c6138f6ab" target="_top" xlink:title=" ">
<polygon fill="white" stroke="#666666" points="811,-520 654,-520 654,-501 811,-501 811,-520"/>
<text text-anchor="middle" x="732.5" y="-508" font-family="Helvetica,sans-Serif" font-size="10.00">World::ConvertActorToAActor</text>
</a>
</g>
</g>
<!-- Node27&#45;&gt;Node31 -->
<g id="edge31_Node000027_Node000031" class="edge">
<title>Node27&#45;&gt;Node31</title>
<g id="a_edge31_Node000027_Node000031"><a xlink:title=" ">
<path fill="none" stroke="#63b8ff" d="M605.65,-510.5C617.78,-510.5 630.73,-510.5 643.52,-510.5"/>
<polygon fill="#63b8ff" stroke="#63b8ff" points="643.74,-514 653.74,-510.5 643.74,-507 643.74,-514"/>
</a>
</g>
</g>
<!-- Node29 -->
<g id="Node000029" class="node">
<title>Node29</title>
<g id="a_Node000029"><a xlink:href="Editor_8cpp.html#ad9cda86dc3eb2b6511a8c9a951945014" target="_top" xlink:title=" ">
<polygon fill="white" stroke="#666666" points="991,-596 893,-596 893,-577 991,-577 991,-596"/>
<text text-anchor="middle" x="942" y="-584" font-family="Helvetica,sans-Serif" font-size="10.00">Editor_IsEnabled</text>
</a>
</g>
</g>
<!-- Node28&#45;&gt;Node29 -->
<g id="edge28_Node000028_Node000029" class="edge">
<title>Node28&#45;&gt;Node29</title>
<g id="a_edge28_Node000028_Node000029"><a xlink:title=" ">
<path fill="none" stroke="#63b8ff" d="M784.53,-586.5C814.17,-586.5 851.65,-586.5 882.49,-586.5"/>
<polygon fill="#63b8ff" stroke="#63b8ff" points="882.67,-590 892.67,-586.5 882.67,-583 882.67,-590"/>
</a>
</g>
</g>
<!-- Node30 -->
<g id="Node000030" class="node">
<title>Node30</title>
<g id="a_Node000030"><a xlink:href="namespaceTrackEditor.html#a79d25f3b85758b1d930e2eb429655ead" target="_top" xlink:title=" ">
<polygon fill="white" stroke="#666666" points="1037,-633 847,-633 847,-614 1037,-614 1037,-633"/>
<text text-anchor="middle" x="942" y="-621" font-family="Helvetica,sans-Serif" font-size="10.00">TrackEditor::GenerateCollisionMesh</text>
</a>
</g>
</g>
<!-- Node28&#45;&gt;Node30 -->
<g id="edge29_Node000028_Node000030" class="edge">
<title>Node28&#45;&gt;Node30</title>
<g id="a_edge29_Node000028_Node000030"><a xlink:title=" ">
<path fill="none" stroke="#63b8ff" d="M784.53,-595.6C812.66,-600.62 847.85,-606.89 877.73,-612.22"/>
<polygon fill="#63b8ff" stroke="#63b8ff" points="877.18,-615.67 887.64,-613.98 878.41,-608.78 877.18,-615.67"/>
</a>
</g>
</g>
<!-- Node30&#45;&gt;Node30 -->
<g id="edge30_Node000030_Node000030" class="edge">
<title>Node30&#45;&gt;Node30</title>
<g id="a_edge30_Node000030_Node000030"><a xlink:title=" ">
<path fill="none" stroke="#63b8ff" d="M914.87,-633.08C901.68,-641.73 910.72,-651 942,-651 963.02,-651 974,-646.82 974.93,-641.45"/>
<polygon fill="#63b8ff" stroke="#63b8ff" points="977.7,-639.3 969.13,-633.08 971.95,-643.29 977.7,-639.3"/>
</a>
</g>
</g>
<!-- Node32&#45;&gt;Node10 -->
<g id="edge35_Node000032_Node000010" class="edge">
<title>Node32&#45;&gt;Node10</title>
<g id="a_edge35_Node000032_Node000010"><a xlink:title=" ">
<path fill="none" stroke="#63b8ff" d="M415.73,-406.06C431.8,-409.65 450.7,-413.36 468,-415.5 627.4,-435.2 819.09,-435.9 900.87,-435.12"/>
<polygon fill="#63b8ff" stroke="#63b8ff" points="901.01,-438.62 910.98,-435.01 900.94,-431.62 901.01,-438.62"/>
</a>
</g>
</g>
<!-- Node33 -->
<g id="Node000033" class="node">
<title>Node33</title>
<g id="a_Node000033"><a xlink:href="classWorld.html#a215117703aa8944483793767a0fb80ed" target="_top" xlink:title=" ">
<polygon fill="white" stroke="#666666" points="602.5,-406 483.5,-406 483.5,-387 602.5,-387 602.5,-406"/>
<text text-anchor="middle" x="543" y="-394" font-family="Helvetica,sans-Serif" font-size="10.00">World::AddBaseActor</text>
</a>
</g>
</g>
<!-- Node32&#45;&gt;Node33 -->
<g id="edge34_Node000032_Node000033" class="edge">
<title>Node32&#45;&gt;Node33</title>
<g id="a_edge34_Node000032_Node000033"><a xlink:title=" ">
<path fill="none" stroke="#63b8ff" d="M429.21,-396.5C443.17,-396.5 458.47,-396.5 473.18,-396.5"/>
<polygon fill="#63b8ff" stroke="#63b8ff" points="473.25,-400 483.25,-396.5 473.25,-393 473.25,-400"/>
</a>
</g>
</g>
<!-- Node34&#45;&gt;Node10 -->
<g id="edge37_Node000034_Node000010" class="edge">
<title>Node34&#45;&gt;Node10</title>
<g id="a_edge37_Node000034_Node000010"><a xlink:title=" ">
<path fill="none" stroke="#63b8ff" d="M426.78,-198.44C476.12,-197.64 553.46,-199.76 618,-216.5 635.13,-220.94 637.31,-227.61 654,-233.5 721.7,-257.4 750.46,-232.91 811,-271.5 869.62,-308.87 913.45,-381.9 931.69,-416.06"/>
<polygon fill="#63b8ff" stroke="#63b8ff" points="928.61,-417.72 936.33,-424.97 934.81,-414.48 928.61,-417.72"/>
</a>
</g>
</g>
<!-- Node35&#45;&gt;Node10 -->
<g id="edge42_Node000035_Node000010" class="edge">
<title>Node35&#45;&gt;Node10</title>
<g id="a_edge42_Node000035_Node000010"><a xlink:title=" ">
<path fill="none" stroke="#63b8ff" d="M618.24,-554.04C673.13,-555.58 748.82,-552.27 811,-529.5 857.26,-512.56 901.43,-473.93 924.47,-451.49"/>
<polygon fill="#63b8ff" stroke="#63b8ff" points="927.09,-453.83 931.71,-444.29 922.15,-448.86 927.09,-453.83"/>
</a>
</g>
</g>
<!-- Node35&#45;&gt;Node30 -->
<g id="edge41_Node000035_Node000030" class="edge">
<title>Node35&#45;&gt;Node30</title>
<g id="a_edge41_Node000035_Node000030"><a xlink:title=" ">
<path fill="none" stroke="#63b8ff" d="M557.8,-558.08C577.9,-571.45 616.9,-595.22 654,-605.5 713.11,-621.88 781.58,-626.69 836.82,-627.25"/>
<polygon fill="#63b8ff" stroke="#63b8ff" points="836.95,-630.75 846.97,-627.31 836.99,-623.75 836.95,-630.75"/>
</a>
</g>
</g>
<!-- Node35&#45;&gt;Node31 -->
<g id="edge40_Node000035_Node000031" class="edge">
<title>Node35&#45;&gt;Node31</title>
<g id="a_edge40_Node000035_Node000031"><a xlink:title=" ">
<path fill="none" stroke="#63b8ff" d="M591.31,-538.91C616.61,-533.78 647.95,-527.43 674.57,-522.04"/>
<polygon fill="#63b8ff" stroke="#63b8ff" points="675.42,-525.44 684.53,-520.02 674.03,-518.58 675.42,-525.44"/>
</a>
</g>
</g>
<!-- Node37 -->
<g id="Node000037" class="node">
<title>Node37</title>
<g id="a_Node000037"><a xlink:href="math__util_8c.html#aaa39a297477f56051975259f4bddd829" target="_top" xlink:title=" ">
<polygon fill="white" stroke="#666666" points="401,-56 351,-56 351,-37 401,-37 401,-56"/>
<text text-anchor="middle" x="376" y="-44" font-family="Helvetica,sans-Serif" font-size="10.00">atan2s</text>
</a>
</g>
</g>
<!-- Node36&#45;&gt;Node37 -->
<g id="edge45_Node000036_Node000037" class="edge">
<title>Node36&#45;&gt;Node37</title>
<g id="a_edge45_Node000036_Node000037"><a xlink:title=" ">
<path fill="none" stroke="#63b8ff" d="M260.42,-46.5C285.9,-46.5 317.17,-46.5 340.6,-46.5"/>
<polygon fill="#63b8ff" stroke="#63b8ff" points="340.77,-50 350.77,-46.5 340.77,-43 340.77,-50"/>
</a>
</g>
</g>
<!-- Node39 -->
<g id="Node000039" class="node">
<title>Node39</title>
<g id="a_Node000039"><a xlink:href="actors_8c.html#a6fd7dc3bc34357287535b6f06ab7d85c" target="_top" xlink:title=" ">
<polygon fill="white" stroke="#666666" points="422,-19 330,-19 330,0 422,0 422,-19"/>
<text text-anchor="middle" x="376" y="-7" font-family="Helvetica,sans-Serif" font-size="10.00">func_802976D8</text>
</a>
</g>
</g>
<!-- Node36&#45;&gt;Node39 -->
<g id="edge47_Node000036_Node000039" class="edge">
<title>Node36&#45;&gt;Node39</title>
<g id="a_edge47_Node000036_Node000039"><a xlink:title=" ">
<path fill="none" stroke="#63b8ff" d="M256.2,-36.97C276.84,-32.2 302.02,-26.38 323.88,-21.32"/>
<polygon fill="#63b8ff" stroke="#63b8ff" points="324.7,-24.72 333.66,-19.06 323.13,-17.9 324.7,-24.72"/>
</a>
</g>
</g>
<!-- Node38 -->
<g id="Node000038" class="node">
<title>Node38</title>
<g id="a_Node000038"><a xlink:href="math__util_8c.html#a0273b0ea0783a06996c28669a7438ed9" target="_top" xlink:title=" ">
<polygon fill="white" stroke="#666666" points="584,-56 502,-56 502,-37 584,-37 584,-56"/>
<text text-anchor="middle" x="543" y="-44" font-family="Helvetica,sans-Serif" font-size="10.00">atan2_lookup</text>
</a>
</g>
</g>
<!-- Node37&#45;&gt;Node38 -->
<g id="edge46_Node000037_Node000038" class="edge">
<title>Node37&#45;&gt;Node38</title>
<g id="a_edge46_Node000037_Node000038"><a xlink:title=" ">
<path fill="none" stroke="#63b8ff" d="M401.35,-46.5C425,-46.5 461.64,-46.5 491.59,-46.5"/>
<polygon fill="#63b8ff" stroke="#63b8ff" points="491.87,-50 501.87,-46.5 491.87,-43 491.87,-50"/>
</a>
</g>
</g>
</g>
</svg>
