<?xml version="1.0" encoding="UTF-8" standalone="no"?>
<!DOCTYPE svg PUBLIC "-//W3C//DTD SVG 1.1//EN"
 "http://www.w3.org/Graphics/SVG/1.1/DTD/svg11.dtd">
<!-- Generated by graphviz version 2.43.0 (0)
 -->
<!-- Title: render_cows Pages: 1 -->
<svg width="946pt" height="493pt"
 viewBox="0.00 0.00 946.00 493.45" xmlns="http://www.w3.org/2000/svg" xmlns:xlink="http://www.w3.org/1999/xlink">
<g id="graph0" class="graph" transform="scale(1 1) rotate(0) translate(4 489.45)">
<title>render_cows</title>
<!-- Node1 -->
<g id="Node000001" class="node">
<title>Node1</title>
<g id="a_Node000001"><a xlink:title=" ">
<polygon fill="#999999" stroke="#666666" points="78,-292 0,-292 0,-273 78,-273 78,-292"/>
<text text-anchor="middle" x="39" y="-280" font-family="Helvetica,sans-Serif" font-size="10.00">render_cows</text>
</a>
</g>
</g>
<!-- Node2 -->
<g id="Node000002" class="node">
<title>Node2</title>
<g id="a_Node000002"><a xlink:href="FrameInterpolation_8cpp.html#a3a036bc9d533e28a4e9697cd20dccf3e" target="_top" xlink:title=" ">
<polygon fill="white" stroke="#666666" points="779,-462.5 669,-462.5 669,-432.5 779,-432.5 779,-462.5"/>
<text text-anchor="start" x="677" y="-450.5" font-family="Helvetica,sans-Serif" font-size="10.00">FrameInterpolation</text>
<text text-anchor="middle" x="724" y="-439.5" font-family="Helvetica,sans-Serif" font-size="10.00">_RecordCloseChild</text>
</a>
</g>
</g>
<!-- Node1&#45;&gt;Node2 -->
<g id="edge1_Node000001_Node000002" class="edge">
<title>Node1&#45;&gt;Node2</title>
<g id="a_edge1_Node000001_Node000002"><a xlink:title=" ">
<path fill="none" stroke="#63b8ff" d="M42.22,-292.06C48.51,-316.76 69.02,-382.7 114,-410.5 286.25,-516.98 540.87,-485.06 658.77,-462.06"/>
<polygon fill="#63b8ff" stroke="#63b8ff" points="659.6,-465.47 668.72,-460.08 658.23,-458.6 659.6,-465.47"/>
</a>
</g>
</g>
<!-- Node4 -->
<g id="Node000004" class="node">
<title>Node4</title>
<g id="a_Node000004"><a xlink:href="FrameInterpolation_8cpp.html#a0eda726b74eac815af4e874014e2727c" target="_top" xlink:title=" ">
<polygon fill="white" stroke="#666666" points="240.5,-401.5 130.5,-401.5 130.5,-371.5 240.5,-371.5 240.5,-401.5"/>
<text text-anchor="start" x="138.5" y="-389.5" font-family="Helvetica,sans-Serif" font-size="10.00">FrameInterpolation</text>
<text text-anchor="middle" x="185.5" y="-378.5" font-family="Helvetica,sans-Serif" font-size="10.00">_RecordOpenChild</text>
</a>
</g>
</g>
<!-- Node1&#45;&gt;Node4 -->
<g id="edge3_Node000001_Node000004" class="edge">
<title>Node1&#45;&gt;Node4</title>
<g id="a_edge3_Node000001_Node000004"><a xlink:title=" ">
<path fill="none" stroke="#63b8ff" d="M49.43,-292.25C62.93,-305.87 88.91,-330.91 114,-348.5 123.24,-354.98 133.71,-361.17 143.69,-366.6"/>
<polygon fill="#63b8ff" stroke="#63b8ff" points="142.21,-369.77 152.68,-371.36 145.49,-363.59 142.21,-369.77"/>
</a>
</g>
</g>
<!-- Node5 -->
<g id="Node000005" class="node">
<title>Node5</title>
<g id="a_Node000005"><a xlink:href="external_8c.html#acb60983213d09ee795e80ca3c8b5975e" target="_top" xlink:title=" ">
<polygon fill="white" stroke="#666666" points="231.5,-339 139.5,-339 139.5,-320 231.5,-320 231.5,-339"/>
<text text-anchor="middle" x="185.5" y="-327" font-family="Helvetica,sans-Serif" font-size="10.00">func_800C98B8</text>
</a>
</g>
</g>
<!-- Node1&#45;&gt;Node5 -->
<g id="edge5_Node000001_Node000005" class="edge">
<title>Node1&#45;&gt;Node5</title>
<g id="a_edge5_Node000001_Node000005"><a xlink:title=" ">
<path fill="none" stroke="#63b8ff" d="M69.24,-292.01C91.13,-299.13 121.3,-308.94 145.28,-316.74"/>
<polygon fill="#63b8ff" stroke="#63b8ff" points="144.21,-320.08 154.81,-319.84 146.38,-313.42 144.21,-320.08"/>
</a>
</g>
</g>
<!-- Node8 -->
<g id="Node000008" class="node">
<title>Node8</title>
<g id="a_Node000008"><a xlink:href="external_8c.html#ae72057869772019e4464c87d4e16c682" target="_top" xlink:title=" ">
<polygon fill="white" stroke="#666666" points="231.5,-292 139.5,-292 139.5,-273 231.5,-273 231.5,-292"/>
<text text-anchor="middle" x="185.5" y="-280" font-family="Helvetica,sans-Serif" font-size="10.00">func_800C99E0</text>
</a>
</g>
</g>
<!-- Node1&#45;&gt;Node8 -->
<g id="edge8_Node000001_Node000008" class="edge">
<title>Node1&#45;&gt;Node8</title>
<g id="a_edge8_Node000001_Node000008"><a xlink:title=" ">
<path fill="none" stroke="#63b8ff" d="M78.34,-282.5C93.85,-282.5 112.06,-282.5 128.97,-282.5"/>
<polygon fill="#63b8ff" stroke="#63b8ff" points="129.3,-286 139.3,-282.5 129.3,-279 129.3,-286"/>
</a>
</g>
</g>
<!-- Node16 -->
<g id="Node000016" class="node">
<title>Node16</title>
<g id="a_Node000016"><a xlink:href="GBIMiddleware_8cpp.html#a4ecc44e3c6f1ca5a6b4a20c41d3bd2d2" target="_top" xlink:title=" ">
<polygon fill="white" stroke="#666666" points="230,-237 141,-237 141,-218 230,-218 230,-237"/>
<text text-anchor="middle" x="185.5" y="-225" font-family="Helvetica,sans-Serif" font-size="10.00">gSPDisplayList</text>
</a>
</g>
</g>
<!-- Node1&#45;&gt;Node16 -->
<g id="edge16_Node000001_Node000016" class="edge">
<title>Node1&#45;&gt;Node16</title>
<g id="a_edge16_Node000001_Node000016"><a xlink:title=" ">
<path fill="none" stroke="#63b8ff" d="M65.17,-272.92C88.54,-264.02 123.56,-250.69 149.63,-240.77"/>
<polygon fill="#63b8ff" stroke="#63b8ff" points="151.03,-243.98 159.13,-237.16 148.54,-237.44 151.03,-243.98"/>
</a>
</g>
</g>
<!-- Node19 -->
<g id="Node000019" class="node">
<title>Node19</title>
<g id="a_Node000019"><a xlink:href="math__util_8c.html#a5e1d12b8745a8d5f8d73ab366328d3cd" target="_top" xlink:title=" ">
<polygon fill="white" stroke="#666666" points="257,-142 114,-142 114,-123 257,-123 257,-142"/>
<text text-anchor="middle" x="185.5" y="-130" font-family="Helvetica,sans-Serif" font-size="10.00">is_within_render_distance</text>
</a>
</g>
</g>
<!-- Node1&#45;&gt;Node19 -->
<g id="edge19_Node000001_Node000019" class="edge">
<title>Node1&#45;&gt;Node19</title>
<g id="a_edge19_Node000001_Node000019"><a xlink:title=" ">
<path fill="none" stroke="#63b8ff" d="M49.48,-272.66C73.57,-247.65 137.39,-181.4 167.86,-149.78"/>
<polygon fill="#63b8ff" stroke="#63b8ff" points="170.75,-151.81 175.17,-142.18 165.71,-146.96 170.75,-151.81"/>
</a>
</g>
</g>
<!-- Node29 -->
<g id="Node000029" class="node">
<title>Node29</title>
<g id="a_Node000029"><a xlink:href="math__util_8c.html#a1e5d28a1962fbb390c7551f66c2f099a" target="_top" xlink:title=" ">
<polygon fill="white" stroke="#666666" points="242,-62 129,-62 129,-43 242,-43 242,-62"/>
<text text-anchor="middle" x="185.5" y="-50" font-family="Helvetica,sans-Serif" font-size="10.00">render_set_position</text>
</a>
</g>
</g>
<!-- Node1&#45;&gt;Node29 -->
<g id="edge30_Node000001_Node000029" class="edge">
<title>Node1&#45;&gt;Node29</title>
<g id="a_edge30_Node000001_Node000029"><a xlink:title=" ">
<path fill="none" stroke="#63b8ff" d="M42.7,-272.64C50.46,-245.46 74.83,-167.98 114,-114.5 127.37,-96.25 146.96,-79.57 162.1,-68.12"/>
<polygon fill="#63b8ff" stroke="#63b8ff" points="164.43,-70.75 170.41,-62.01 160.28,-65.11 164.43,-70.75"/>
</a>
</g>
</g>
<!-- Node3 -->
<g id="Node000003" class="node">
<title>Node3</title>
<g id="a_Node000003"><a xlink:href="FrameInterpolation_8cpp.html#a02c7ac5342a4d376edee38f312b480bf" target="_top" xlink:title=" ">
<polygon fill="white" stroke="#666666" points="938,-414 830,-414 830,-395 938,-395 938,-414"/>
<text text-anchor="middle" x="884" y="-402" font-family="Helvetica,sans-Serif" font-size="10.00">check_if_recording</text>
</a>
</g>
</g>
<!-- Node2&#45;&gt;Node3 -->
<g id="edge2_Node000002_Node000003" class="edge">
<title>Node2&#45;&gt;Node3</title>
<g id="a_edge2_Node000002_Node000003"><a xlink:title=" ">
<path fill="none" stroke="#63b8ff" d="M779.37,-432.7C798.51,-427.5 819.78,-421.71 838.04,-416.73"/>
<polygon fill="#63b8ff" stroke="#63b8ff" points="839.12,-420.07 847.85,-414.07 837.28,-413.31 839.12,-420.07"/>
</a>
</g>
</g>
<!-- Node4&#45;&gt;Node3 -->
<g id="edge4_Node000004_Node000003" class="edge">
<title>Node4&#45;&gt;Node3</title>
<g id="a_edge4_Node000004_Node000003"><a xlink:title=" ">
<path fill="none" stroke="#63b8ff" d="M240.57,-387.9C367.51,-391.18 684.07,-399.36 819.69,-402.86"/>
<polygon fill="#63b8ff" stroke="#63b8ff" points="819.83,-406.37 829.92,-403.13 820.01,-399.37 819.83,-406.37"/>
</a>
</g>
</g>
<!-- Node6 -->
<g id="Node000006" class="node">
<title>Node6</title>
<g id="a_Node000006"><a xlink:href="external_8c.html#a747de0be4005b4b29150d5c068564b7d" target="_top" xlink:title=" ">
<polygon fill="white" stroke="#666666" points="413.5,-376 321.5,-376 321.5,-357 413.5,-357 413.5,-376"/>
<text text-anchor="middle" x="367.5" y="-364" font-family="Helvetica,sans-Serif" font-size="10.00">func_800C1C88</text>
</a>
</g>
</g>
<!-- Node5&#45;&gt;Node6 -->
<g id="edge6_Node000005_Node000006" class="edge">
<title>Node5&#45;&gt;Node6</title>
<g id="a_edge6_Node000005_Node000006"><a xlink:title=" ">
<path fill="none" stroke="#63b8ff" d="M231.92,-338.84C256.1,-343.81 286.03,-349.96 311.51,-355.2"/>
<polygon fill="#63b8ff" stroke="#63b8ff" points="310.91,-358.65 321.41,-357.23 312.31,-351.79 310.91,-358.65"/>
</a>
</g>
</g>
<!-- Node7 -->
<g id="Node000007" class="node">
<title>Node7</title>
<g id="a_Node000007"><a xlink:href="external_8c.html#a475cff796211891556f52877cd8e9b9e" target="_top" xlink:title=" ">
<polygon fill="white" stroke="#666666" points="403.5,-339 331.5,-339 331.5,-320 403.5,-320 403.5,-339"/>
<text text-anchor="middle" x="367.5" y="-327" font-family="Helvetica,sans-Serif" font-size="10.00">play_sound</text>
</a>
</g>
</g>
<!-- Node5&#45;&gt;Node7 -->
<g id="edge7_Node000005_Node000007" class="edge">
<title>Node5&#45;&gt;Node7</title>
<g id="a_edge7_Node000005_Node000007"><a xlink:title=" ">
<path fill="none" stroke="#63b8ff" d="M231.92,-329.5C259.26,-329.5 293.93,-329.5 321.24,-329.5"/>
<polygon fill="#63b8ff" stroke="#63b8ff" points="321.31,-333 331.31,-329.5 321.31,-326 321.31,-333"/>
</a>
</g>
</g>
<!-- Node9 -->
<g id="Node000009" class="node">
<title>Node9</title>
<g id="a_Node000009"><a xlink:href="external_8c.html#aeb87c527482a244173df36a1f3d4f446" target="_top" xlink:title=" ">
<polygon fill="white" stroke="#666666" points="413.5,-302 321.5,-302 321.5,-283 413.5,-283 413.5,-302"/>
<text text-anchor="middle" x="367.5" y="-290" font-family="Helvetica,sans-Serif" font-size="10.00">func_800C21E8</text>
</a>
</g>
</g>
<!-- Node8&#45;&gt;Node9 -->
<g id="edge9_Node000008_Node000009" class="edge">
<title>Node8&#45;&gt;Node9</title>
<g id="a_edge9_Node000008_Node000009"><a xlink:title=" ">
<path fill="none" stroke="#63b8ff" d="M231.92,-285.02C256,-286.36 285.76,-288.01 311.18,-289.43"/>
<polygon fill="#63b8ff" stroke="#63b8ff" points="311.23,-292.93 321.41,-289.99 311.61,-285.95 311.23,-292.93"/>
</a>
</g>
</g>
<!-- Node10 -->
<g id="Node000010" class="node">
<title>Node10</title>
<g id="a_Node000010"><a xlink:href="external_8c.html#a028d40421b90c38f68ebfd5acc626f2e" target="_top" xlink:title=" ">
<polygon fill="white" stroke="#666666" points="413.5,-265 321.5,-265 321.5,-246 413.5,-246 413.5,-265"/>
<text text-anchor="middle" x="367.5" y="-253" font-family="Helvetica,sans-Serif" font-size="10.00">func_800C5578</text>
</a>
</g>
</g>
<!-- Node8&#45;&gt;Node10 -->
<g id="edge10_Node000008_Node000010" class="edge">
<title>Node8&#45;&gt;Node10</title>
<g id="a_edge10_Node000008_Node000010"><a xlink:title=" ">
<path fill="none" stroke="#63b8ff" d="M231.92,-275.69C256.1,-272.06 286.03,-267.57 311.51,-263.75"/>
<polygon fill="#63b8ff" stroke="#63b8ff" points="312.03,-267.21 321.41,-262.26 311,-260.29 312.03,-267.21"/>
</a>
</g>
</g>
<!-- Node11 -->
<g id="Node000011" class="node">
<title>Node11</title>
<g id="a_Node000011"><a xlink:href="external_8c.html#ac0fb767de7e14a03f1bcfa53f0abd23b" target="_top" xlink:title=" ">
<polygon fill="white" stroke="#666666" points="618,-335 478,-335 478,-316 618,-316 618,-335"/>
<text text-anchor="middle" x="548" y="-323" font-family="Helvetica,sans-Serif" font-size="10.00">delete_sound_from_bank</text>
</a>
</g>
</g>
<!-- Node10&#45;&gt;Node11 -->
<g id="edge11_Node000010_Node000011" class="edge">
<title>Node10&#45;&gt;Node11</title>
<g id="a_edge11_Node000010_Node000011"><a xlink:title=" ">
<path fill="none" stroke="#63b8ff" d="M413.74,-263.49C423.41,-266.2 433.31,-269.78 442,-274.5 461.07,-284.86 458.94,-297.12 478,-307.5 481.29,-309.29 484.77,-310.91 488.35,-312.38"/>
<polygon fill="#63b8ff" stroke="#63b8ff" points="487.38,-315.75 497.97,-315.9 489.78,-309.18 487.38,-315.75"/>
</a>
</g>
</g>
<!-- Node13 -->
<g id="Node000013" class="node">
<title>Node13</title>
<g id="a_Node000013"><a xlink:href="external_8c.html#ab83bd36e63f0f1baddcb2482b5ad31b0" target="_top" xlink:title=" ">
<polygon fill="white" stroke="#666666" points="594.5,-298 501.5,-298 501.5,-279 594.5,-279 594.5,-298"/>
<text text-anchor="middle" x="548" y="-286" font-family="Helvetica,sans-Serif" font-size="10.00">func_800C41CC</text>
</a>
</g>
</g>
<!-- Node10&#45;&gt;Node13 -->
<g id="edge13_Node000010_Node000013" class="edge">
<title>Node10&#45;&gt;Node13</title>
<g id="a_edge13_Node000010_Node000013"><a xlink:title=" ">
<path fill="none" stroke="#63b8ff" d="M413.54,-263.83C437.14,-268.19 466.26,-273.57 491.27,-278.2"/>
<polygon fill="#63b8ff" stroke="#63b8ff" points="490.88,-281.68 501.35,-280.06 492.15,-274.8 490.88,-281.68"/>
</a>
</g>
</g>
<!-- Node14 -->
<g id="Node000014" class="node">
<title>Node14</title>
<g id="a_Node000014"><a xlink:href="port__eu_8c.html#aa89dfaecca46c6d071f08c1898d1f7c9" target="_top" xlink:title=" ">
<polygon fill="white" stroke="#666666" points="594.5,-261 501.5,-261 501.5,-242 594.5,-242 594.5,-261"/>
<text text-anchor="middle" x="548" y="-249" font-family="Helvetica,sans-Serif" font-size="10.00">func_800CBBE8</text>
</a>
</g>
</g>
<!-- Node10&#45;&gt;Node14 -->
<g id="edge14_Node000010_Node000014" class="edge">
<title>Node10&#45;&gt;Node14</title>
<g id="a_edge14_Node000010_Node000014"><a xlink:title=" ">
<path fill="none" stroke="#63b8ff" d="M413.54,-254.49C437.14,-253.96 466.26,-253.31 491.27,-252.75"/>
<polygon fill="#63b8ff" stroke="#63b8ff" points="491.43,-256.25 501.35,-252.52 491.27,-249.25 491.43,-256.25"/>
</a>
</g>
</g>
<!-- Node12 -->
<g id="Node000012" class="node">
<title>Node12</title>
<g id="a_Node000012"><a xlink:href="external_8c.html#a358ac55e8ab5262dcae8037334be06d7" target="_top" xlink:title=" ">
<polygon fill="white" stroke="#666666" points="770,-335 678,-335 678,-316 770,-316 770,-335"/>
<text text-anchor="middle" x="724" y="-323" font-family="Helvetica,sans-Serif" font-size="10.00">func_800C40F0</text>
</a>
</g>
</g>
<!-- Node11&#45;&gt;Node12 -->
<g id="edge12_Node000011_Node000012" class="edge">
<title>Node11&#45;&gt;Node12</title>
<g id="a_edge12_Node000011_Node000012"><a xlink:title=" ">
<path fill="none" stroke="#63b8ff" d="M618.02,-325.5C634.52,-325.5 651.92,-325.5 667.71,-325.5"/>
<polygon fill="#63b8ff" stroke="#63b8ff" points="667.83,-329 677.83,-325.5 667.83,-322 667.83,-329"/>
</a>
</g>
</g>
<!-- Node15 -->
<g id="Node000015" class="node">
<title>Node15</title>
<g id="a_Node000015"><a xlink:href="port__eu_8c.html#af361a20d2e08f30c53a237ca481ff734" target="_top" xlink:title=" ">
<polygon fill="white" stroke="#666666" points="770.5,-261 677.5,-261 677.5,-242 770.5,-242 770.5,-261"/>
<text text-anchor="middle" x="724" y="-249" font-family="Helvetica,sans-Serif" font-size="10.00">func_800CBB48</text>
</a>
</g>
</g>
<!-- Node14&#45;&gt;Node15 -->
<g id="edge15_Node000014_Node000015" class="edge">
<title>Node14&#45;&gt;Node15</title>
<g id="a_edge15_Node000014_Node000015"><a xlink:title=" ">
<path fill="none" stroke="#63b8ff" d="M594.72,-251.5C616.91,-251.5 643.76,-251.5 667.16,-251.5"/>
<polygon fill="#63b8ff" stroke="#63b8ff" points="667.29,-255 677.29,-251.5 667.29,-248 667.29,-255"/>
</a>
</g>
</g>
<!-- Node17 -->
<g id="Node000017" class="node">
<title>Node17</title>
<g id="a_Node000017"><a xlink:href="Engine_8cpp.html#a223c8bc63f228dc11177515e38eff2db" target="_top" xlink:title=" ">
<polygon fill="white" stroke="#666666" points="442,-228 293,-228 293,-209 442,-209 442,-228"/>
<text text-anchor="middle" x="367.5" y="-216" font-family="Helvetica,sans-Serif" font-size="10.00">GameEngine_OTRSigCheck</text>
</a>
</g>
</g>
<!-- Node16&#45;&gt;Node17 -->
<g id="edge17_Node000016_Node000017" class="edge">
<title>Node16&#45;&gt;Node17</title>
<g id="a_edge17_Node000016_Node000017"><a xlink:title=" ">
<path fill="none" stroke="#63b8ff" d="M230.07,-225.32C245.96,-224.53 264.51,-223.6 282.72,-222.69"/>
<polygon fill="#63b8ff" stroke="#63b8ff" points="282.97,-226.18 292.78,-222.19 282.62,-219.19 282.97,-226.18"/>
</a>
</g>
</g>
<!-- Node18 -->
<g id="Node000018" class="node">
<title>Node18</title>
<g id="a_Node000018"><a xlink:href="string_8c.html#a008e171a518fe0e0352f31b245e03875" target="_top" xlink:title=" ">
<polygon fill="white" stroke="#666666" points="570,-224 526,-224 526,-205 570,-205 570,-224"/>
<text text-anchor="middle" x="548" y="-212" font-family="Helvetica,sans-Serif" font-size="10.00">strlen</text>
</a>
</g>
</g>
<!-- Node17&#45;&gt;Node18 -->
<g id="edge18_Node000017_Node000018" class="edge">
<title>Node17&#45;&gt;Node18</title>
<g id="a_edge18_Node000017_Node000018"><a xlink:title=" ">
<path fill="none" stroke="#63b8ff" d="M442.13,-216.85C467.69,-216.28 495.02,-215.66 515.37,-215.21"/>
<polygon fill="#63b8ff" stroke="#63b8ff" points="515.69,-218.7 525.61,-214.98 515.53,-211.7 515.69,-218.7"/>
</a>
</g>
</g>
<!-- Node20 -->
<g id="Node000020" class="node">
<title>Node20</title>
<g id="a_Node000020"><a xlink:href="math__util_8c.html#a07a66adf3458c156c7961b983983627a" target="_top" xlink:title=" ">
<polygon fill="white" stroke="#666666" points="414,-142 321,-142 321,-123 414,-123 414,-142"/>
<text text-anchor="middle" x="367.5" y="-130" font-family="Helvetica,sans-Serif" font-size="10.00">func_802B7CA8</text>
</a>
</g>
</g>
<!-- Node19&#45;&gt;Node20 -->
<g id="edge20_Node000019_Node000020" class="edge">
<title>Node19&#45;&gt;Node20</title>
<g id="a_edge20_Node000019_Node000020"><a xlink:title=" ">
<path fill="none" stroke="#63b8ff" d="M257.12,-132.5C274.91,-132.5 293.75,-132.5 310.69,-132.5"/>
<polygon fill="#63b8ff" stroke="#63b8ff" points="310.96,-136 320.96,-132.5 310.96,-129 310.96,-136"/>
</a>
</g>
</g>
<!-- Node24 -->
<g id="Node000024" class="node">
<title>Node24</title>
<g id="a_Node000024"><a xlink:href="math__util_8c.html#a84cf9d4ec33146a64c230ed4cec56632" target="_top" xlink:title=" ">
<polygon fill="white" stroke="#666666" points="435,-190.5 300,-190.5 300,-160.5 435,-160.5 435,-190.5"/>
<text text-anchor="start" x="308" y="-178.5" font-family="Helvetica,sans-Serif" font-size="10.00">get_angle_between_two</text>
<text text-anchor="middle" x="367.5" y="-167.5" font-family="Helvetica,sans-Serif" font-size="10.00">_vectors</text>
</a>
</g>
</g>
<!-- Node19&#45;&gt;Node24 -->
<g id="edge24_Node000019_Node000024" class="edge">
<title>Node19&#45;&gt;Node24</title>
<g id="a_edge24_Node000019_Node000024"><a xlink:title=" ">
<path fill="none" stroke="#63b8ff" d="M226.45,-142.04C246.3,-146.78 270.9,-152.66 293.93,-158.16"/>
<polygon fill="#63b8ff" stroke="#63b8ff" points="293.14,-161.57 303.68,-160.49 294.77,-154.77 293.14,-161.57"/>
</a>
</g>
</g>
<!-- Node25 -->
<g id="Node000025" class="node">
<title>Node25</title>
<g id="a_Node000025"><a xlink:href="math__util_8c.html#a3eb0db0895b2c11953df746ce49b782e" target="_top" xlink:title=" ">
<polygon fill="white" stroke="#666666" points="422.5,-104.5 312.5,-104.5 312.5,-74.5 422.5,-74.5 422.5,-104.5"/>
<text text-anchor="start" x="320.5" y="-92.5" font-family="Helvetica,sans-Serif" font-size="10.00">is_visible_between</text>
<text text-anchor="middle" x="367.5" y="-81.5" font-family="Helvetica,sans-Serif" font-size="10.00">_angle</text>
</a>
</g>
</g>
<!-- Node19&#45;&gt;Node25 -->
<g id="edge26_Node000019_Node000025" class="edge">
<title>Node19&#45;&gt;Node25</title>
<g id="a_edge26_Node000019_Node000025"><a xlink:title=" ">
<path fill="none" stroke="#63b8ff" d="M226.45,-122.96C248.76,-117.63 277.09,-110.86 302.42,-104.81"/>
<polygon fill="#63b8ff" stroke="#63b8ff" points="303.41,-108.17 312.33,-102.44 301.79,-101.36 303.41,-108.17"/>
</a>
</g>
</g>
<!-- Node26 -->
<g id="Node000026" class="node">
<title>Node26</title>
<g id="a_Node000026"><a xlink:href="Game_8cpp.html#ad474b8b257813cceeae25ab5205273c4" target="_top" xlink:title=" ">
<polygon fill="white" stroke="#666666" points="416.5,-56 318.5,-56 318.5,-37 416.5,-37 416.5,-56"/>
<text text-anchor="middle" x="367.5" y="-44" font-family="Helvetica,sans-Serif" font-size="10.00">IsKalimariDesert</text>
</a>
</g>
</g>
<!-- Node19&#45;&gt;Node26 -->
<g id="edge27_Node000019_Node000026" class="edge">
<title>Node19&#45;&gt;Node26</title>
<g id="a_edge27_Node000019_Node000026"><a xlink:title=" ">
<path fill="none" stroke="#63b8ff" d="M198.9,-122.89C218.07,-108.47 256.5,-81.25 293,-65.5 298.72,-63.03 304.83,-60.83 310.99,-58.88"/>
<polygon fill="#63b8ff" stroke="#63b8ff" points="312.08,-62.21 320.68,-56.01 310.09,-55.49 312.08,-62.21"/>
</a>
</g>
</g>
<!-- Node21 -->
<g id="Node000021" class="node">
<title>Node21</title>
<g id="a_Node000021"><a xlink:href="math__util_8c.html#aaa39a297477f56051975259f4bddd829" target="_top" xlink:title=" ">
<polygon fill="white" stroke="#666666" points="573,-182 523,-182 523,-163 573,-163 573,-182"/>
<text text-anchor="middle" x="548" y="-170" font-family="Helvetica,sans-Serif" font-size="10.00">atan2s</text>
</a>
</g>
</g>
<!-- Node20&#45;&gt;Node21 -->
<g id="edge21_Node000020_Node000021" class="edge">
<title>Node20&#45;&gt;Node21</title>
<g id="a_edge21_Node000020_Node000021"><a xlink:title=" ">
<path fill="none" stroke="#63b8ff" d="M411.26,-142.08C442.4,-149.06 484.01,-158.39 512.92,-164.86"/>
<polygon fill="#63b8ff" stroke="#63b8ff" points="512.43,-168.34 522.95,-167.11 513.96,-161.51 512.43,-168.34"/>
</a>
</g>
</g>
<!-- Node23 -->
<g id="Node000023" class="node">
<title>Node23</title>
<g id="a_Node000023"><a xlink:href="math_8h.html#a37bde043e94a6f074c78f10518fb5d99" target="_top" xlink:title=" ">
<polygon fill="white" stroke="#666666" points="567.5,-142 528.5,-142 528.5,-123 567.5,-123 567.5,-142"/>
<text text-anchor="middle" x="548" y="-130" font-family="Helvetica,sans-Serif" font-size="10.00">sqrtf</text>
</a>
</g>
</g>
<!-- Node20&#45;&gt;Node23 -->
<g id="edge23_Node000020_Node000023" class="edge">
<title>Node20&#45;&gt;Node23</title>
<g id="a_edge23_Node000020_Node000023"><a xlink:title=" ">
<path fill="none" stroke="#63b8ff" d="M414,-132.5C446.65,-132.5 489.67,-132.5 517.81,-132.5"/>
<polygon fill="#63b8ff" stroke="#63b8ff" points="518.18,-136 528.18,-132.5 518.18,-129 518.18,-136"/>
</a>
</g>
</g>
<!-- Node22 -->
<g id="Node000022" class="node">
<title>Node22</title>
<g id="a_Node000022"><a xlink:href="math__util_8c.html#a0273b0ea0783a06996c28669a7438ed9" target="_top" xlink:title=" ">
<polygon fill="white" stroke="#666666" points="765,-182 683,-182 683,-163 765,-163 765,-182"/>
<text text-anchor="middle" x="724" y="-170" font-family="Helvetica,sans-Serif" font-size="10.00">atan2_lookup</text>
</a>
</g>
</g>
<!-- Node21&#45;&gt;Node22 -->
<g id="edge22_Node000021_Node000022" class="edge">
<title>Node21&#45;&gt;Node22</title>
<g id="a_edge22_Node000021_Node000022"><a xlink:title=" ">
<path fill="none" stroke="#63b8ff" d="M573.19,-172.5C598.81,-172.5 639.98,-172.5 672.68,-172.5"/>
<polygon fill="#63b8ff" stroke="#63b8ff" points="672.97,-176 682.97,-172.5 672.97,-169 672.97,-176"/>
</a>
</g>
</g>
<!-- Node24&#45;&gt;Node21 -->
<g id="edge25_Node000024_Node000021" class="edge">
<title>Node24&#45;&gt;Node21</title>
<g id="a_edge25_Node000024_Node000021"><a xlink:title=" ">
<path fill="none" stroke="#63b8ff" d="M435.22,-174.38C461.6,-173.94 490.79,-173.44 512.73,-173.08"/>
<polygon fill="#63b8ff" stroke="#63b8ff" points="512.93,-176.57 522.87,-172.91 512.81,-169.57 512.93,-176.57"/>
</a>
</g>
</g>
<!-- Node27 -->
<g id="Node000027" class="node">
<title>Node27</title>
<g id="a_Node000027"><a xlink:href="classWorld.html#a1a4dacc6aea0b846df998be0afc239f7" target="_top" xlink:title=" ">
<polygon fill="white" stroke="#666666" points="594.5,-93 501.5,-93 501.5,-74 594.5,-74 594.5,-93"/>
<text text-anchor="middle" x="548" y="-81" font-family="Helvetica,sans-Serif" font-size="10.00">World::GetTrack</text>
</a>
</g>
</g>
<!-- Node26&#45;&gt;Node27 -->
<g id="edge28_Node000026_Node000027" class="edge">
<title>Node26&#45;&gt;Node27</title>
<g id="a_edge28_Node000026_Node000027"><a xlink:title=" ">
<path fill="none" stroke="#63b8ff" d="M414.47,-56.03C437.98,-60.9 466.79,-66.87 491.53,-72"/>
<polygon fill="#63b8ff" stroke="#63b8ff" points="490.99,-75.47 501.5,-74.07 492.42,-68.61 490.99,-75.47"/>
</a>
</g>
</g>
<!-- Node28 -->
<g id="Node000028" class="node">
<title>Node28</title>
<g id="a_Node000028"><a xlink:href="Game_8cpp.html#ae2fa844b3cb1021ecbc357f8ed2ad8cc" target="_top" xlink:title=" ">
<polygon fill="white" stroke="#666666" points="579,-56 517,-56 517,-37 579,-37 579,-56"/>
<text text-anchor="middle" x="548" y="-44" font-family="Helvetica,sans-Serif" font-size="10.00">GetWorld</text>
</a>
</g>
</g>
<!-- Node26&#45;&gt;Node28 -->
<g id="edge29_Node000026_Node000028" class="edge">
<title>Node26&#45;&gt;Node28</title>
<g id="a_edge29_Node000026_Node000028"><a xlink:title=" ">
<path fill="none" stroke="#63b8ff" d="M416.8,-46.5C444.97,-46.5 480.08,-46.5 506.74,-46.5"/>
<polygon fill="#63b8ff" stroke="#63b8ff" points="506.88,-50 516.88,-46.5 506.88,-43 506.88,-50"/>
</a>
</g>
</g>
<!-- Node30 -->
<g id="Node000030" class="node">
<title>Node30</title>
<g id="a_Node000030"><a xlink:href="Matrix_8cpp.html#a6416f9a60a7397e8b517b1483adb96e8" target="_top" xlink:title=" ">
<polygon fill="white" stroke="#666666" points="416.5,-19 318.5,-19 318.5,0 416.5,0 416.5,-19"/>
<text text-anchor="middle" x="367.5" y="-7" font-family="Helvetica,sans-Serif" font-size="10.00">AddObjectMatrix</text>
</a>
</g>
</g>
<!-- Node29&#45;&gt;Node30 -->
<g id="edge31_Node000029_Node000030" class="edge">
<title>Node29&#45;&gt;Node30</title>
<g id="a_edge31_Node000029_Node000030"><a xlink:title=" ">
<path fill="none" stroke="#63b8ff" d="M226.45,-42.96C253.13,-36.58 288.42,-28.15 316.9,-21.35"/>
<polygon fill="#63b8ff" stroke="#63b8ff" points="317.75,-24.74 326.66,-19.02 316.12,-17.94 317.75,-24.74"/>
</a>
</g>
</g>
<!-- Node30&#45;&gt;Node28 -->
<g id="edge36_Node000030_Node000028" class="edge">
<title>Node30&#45;&gt;Node28</title>
<g id="a_edge36_Node000030_Node000028"><a xlink:title=" ">
<path fill="none" stroke="#63b8ff" d="M414.47,-19.03C443.05,-24.95 479.44,-32.5 506.85,-38.18"/>
<polygon fill="#63b8ff" stroke="#63b8ff" points="506.38,-41.65 516.88,-40.26 507.8,-34.8 506.38,-41.65"/>
</a>
</g>
</g>
<!-- Node31 -->
<g id="Node000031" class="node">
<title>Node31</title>
<g id="a_Node000031"><a xlink:href="Matrix_8cpp.html#a67401ed1d8de1f4d3a3e5a7b72842b6a" target="_top" xlink:title=" ">
<polygon fill="white" stroke="#666666" points="581.5,-19 514.5,-19 514.5,0 581.5,0 581.5,-19"/>
<text text-anchor="middle" x="548" y="-7" font-family="Helvetica,sans-Serif" font-size="10.00">AddMatrix</text>
</a>
</g>
</g>
<!-- Node30&#45;&gt;Node31 -->
<g id="edge32_Node000030_Node000031" class="edge">
<title>Node30&#45;&gt;Node31</title>
<g id="a_edge32_Node000030_Node000031"><a xlink:title=" ">
<path fill="none" stroke="#63b8ff" d="M416.8,-9.5C444.15,-9.5 478.04,-9.5 504.39,-9.5"/>
<polygon fill="#63b8ff" stroke="#63b8ff" points="504.45,-13 514.45,-9.5 504.45,-6 504.45,-13"/>
</a>
</g>
</g>
<!-- Node32 -->
<g id="Node000032" class="node">
<title>Node32</title>
<g id="a_Node000032"><a xlink:href="FrameInterpolation_8cpp.html#a8cf1f2d6fabc6925aa71a9515341b4aa" target="_top" xlink:title=" ">
<polygon fill="white" stroke="#666666" points="794,-104.5 654,-104.5 654,-74.5 794,-74.5 794,-104.5"/>
<text text-anchor="start" x="662" y="-92.5" font-family="Helvetica,sans-Serif" font-size="10.00">FrameInterpolation</text>
<text text-anchor="middle" x="724" y="-81.5" font-family="Helvetica,sans-Serif" font-size="10.00">_RecordMatrixMtxFToMtx</text>
</a>
</g>
</g>
<!-- Node31&#45;&gt;Node32 -->
<g id="edge33_Node000031_Node000032" class="edge">
<title>Node31&#45;&gt;Node32</title>
<g id="a_edge33_Node000031_Node000032"><a xlink:title=" ">
<path fill="none" stroke="#63b8ff" d="M581.56,-16.02C593.28,-18.88 606.46,-22.7 618,-27.5 644.56,-38.55 672.51,-55.34 692.89,-68.66"/>
<polygon fill="#63b8ff" stroke="#63b8ff" points="691.14,-71.7 701.41,-74.32 695.01,-65.87 691.14,-71.7"/>
</a>
</g>
</g>
<!-- Node33 -->
<g id="Node000033" class="node">
<title>Node33</title>
<g id="a_Node000033"><a xlink:href="guMtxF2L_8c.html#a40ab2d64c609839ff1e0ef0de2d0dcc4" target="_top" xlink:title=" ">
<polygon fill="white" stroke="#666666" points="756.5,-19 691.5,-19 691.5,0 756.5,0 756.5,-19"/>
<text text-anchor="middle" x="724" y="-7" font-family="Helvetica,sans-Serif" font-size="10.00">guMtxF2L</text>
</a>
</g>
</g>
<!-- Node31&#45;&gt;Node33 -->
<g id="edge35_Node000031_Node000033" class="edge">
<title>Node31&#45;&gt;Node33</title>
<g id="a_edge35_Node000031_Node000033"><a xlink:title=" ">
<path fill="none" stroke="#63b8ff" d="M581.73,-9.5C609.82,-9.5 650.48,-9.5 680.97,-9.5"/>
<polygon fill="#63b8ff" stroke="#63b8ff" points="681.3,-13 691.3,-9.5 681.3,-6 681.3,-13"/>
</a>
</g>
</g>
<!-- Node32&#45;&gt;Node3 -->
<g id="edge34_Node000032_Node000003" class="edge">
<title>Node32&#45;&gt;Node3</title>
<g id="a_edge34_Node000032_Node000003"><a xlink:title=" ">
<path fill="none" stroke="#63b8ff" d="M745.62,-104.54C760.83,-116.57 781.04,-134.66 794,-154.5 844.3,-231.5 870.27,-340.43 879.27,-384.67"/>
<polygon fill="#63b8ff" stroke="#63b8ff" points="875.88,-385.55 881.24,-394.69 882.74,-384.2 875.88,-385.55"/>
</a>
</g>
</g>
</g>
</svg>
