<?xml version="1.0" encoding="UTF-8" standalone="no"?>
<!DOCTYPE svg PUBLIC "-//W3C//DTD SVG 1.1//EN"
 "http://www.w3.org/Graphics/SVG/1.1/DTD/svg11.dtd">
<!-- Generated by graphviz version 2.43.0 (0)
 -->
<!-- Title: collision_tree Pages: 1 -->
<svg width="994pt" height="523pt"
 viewBox="0.00 0.00 994.00 523.00" xmlns="http://www.w3.org/2000/svg" xmlns:xlink="http://www.w3.org/1999/xlink">
<g id="graph0" class="graph" transform="scale(1 1) rotate(0) translate(4 519)">
<title>collision_tree</title>
<!-- Node1 -->
<g id="Node000001" class="node">
<title>Node1</title>
<g id="a_Node000001"><a xlink:title=" ">
<polygon fill="#999999" stroke="#666666" points="82,-347 0,-347 0,-328 82,-328 82,-347"/>
<text text-anchor="middle" x="41" y="-335" font-family="Helvetica,sans-Serif" font-size="10.00">collision_tree</text>
</a>
</g>
</g>
<!-- Node2 -->
<g id="Node000002" class="node">
<title>Node2</title>
<g id="a_Node000002"><a xlink:href="external_8c.html#a2be9efc97a92e19d02aaee90d676acc1" target="_top" xlink:title=" ">
<polygon fill="white" stroke="#666666" points="210,-515 118,-515 118,-496 210,-496 210,-515"/>
<text text-anchor="middle" x="164" y="-503" font-family="Helvetica,sans-Serif" font-size="10.00">func_800C9060</text>
</a>
</g>
</g>
<!-- Node1&#45;&gt;Node2 -->
<g id="edge1_Node000001_Node000002" class="edge">
<title>Node1&#45;&gt;Node2</title>
<g id="a_edge1_Node000001_Node000002"><a xlink:title=" ">
<path fill="none" stroke="#63b8ff" d="M44.29,-347.02C51.03,-373.1 73.21,-446.5 118,-487.5 119.28,-488.67 120.65,-489.77 122.08,-490.8"/>
<polygon fill="#63b8ff" stroke="#63b8ff" points="120.42,-493.89 130.81,-496 124,-487.88 120.42,-493.89"/>
</a>
</g>
</g>
<!-- Node4 -->
<g id="Node000004" class="node">
<title>Node4</title>
<g id="a_Node000004"><a xlink:href="external_8c.html#a337fc3ab94ebb3293a85908229303ac8" target="_top" xlink:title=" ">
<polygon fill="white" stroke="#666666" points="210,-478 118,-478 118,-459 210,-459 210,-478"/>
<text text-anchor="middle" x="164" y="-466" font-family="Helvetica,sans-Serif" font-size="10.00">func_800C90F4</text>
</a>
</g>
</g>
<!-- Node1&#45;&gt;Node4 -->
<g id="edge3_Node000001_Node000004" class="edge">
<title>Node1&#45;&gt;Node4</title>
<g id="a_edge3_Node000001_Node000004"><a xlink:title=" ">
<path fill="none" stroke="#63b8ff" d="M46.04,-347.09C55.52,-368.53 81.22,-420.78 118,-450.5 119.52,-451.73 121.14,-452.88 122.82,-453.97"/>
<polygon fill="#63b8ff" stroke="#63b8ff" points="121.18,-457.06 131.63,-458.8 124.55,-450.92 121.18,-457.06"/>
</a>
</g>
</g>
<!-- Node5 -->
<g id="Node000005" class="node">
<title>Node5</title>
<g id="a_Node000005"><a xlink:href="external_8c.html#acb60983213d09ee795e80ca3c8b5975e" target="_top" xlink:title=" ">
<polygon fill="white" stroke="#666666" points="210,-441 118,-441 118,-422 210,-422 210,-441"/>
<text text-anchor="middle" x="164" y="-429" font-family="Helvetica,sans-Serif" font-size="10.00">func_800C98B8</text>
</a>
</g>
</g>
<!-- Node1&#45;&gt;Node5 -->
<g id="edge5_Node000001_Node000005" class="edge">
<title>Node1&#45;&gt;Node5</title>
<g id="a_edge5_Node000001_Node000005"><a xlink:title=" ">
<path fill="none" stroke="#63b8ff" d="M49.44,-347.15C62.03,-362.93 89.03,-394.39 118,-413.5 120.15,-414.92 122.43,-416.26 124.78,-417.51"/>
<polygon fill="#63b8ff" stroke="#63b8ff" points="123.51,-420.78 134.04,-421.94 126.53,-414.47 123.51,-420.78"/>
</a>
</g>
</g>
<!-- Node7 -->
<g id="Node000007" class="node">
<title>Node7</title>
<g id="a_Node000007"><a xlink:href="actors_8c.html#a6968a4585e6457d53306634fbf66d0d1" target="_top" xlink:title=" ">
<polygon fill="white" stroke="#666666" points="210,-404 118,-404 118,-385 210,-385 210,-404"/>
<text text-anchor="middle" x="164" y="-392" font-family="Helvetica,sans-Serif" font-size="10.00">func_802977B0</text>
</a>
</g>
</g>
<!-- Node1&#45;&gt;Node7 -->
<g id="edge8_Node000001_Node000007" class="edge">
<title>Node1&#45;&gt;Node7</title>
<g id="a_edge8_Node000001_Node000007"><a xlink:title=" ">
<path fill="none" stroke="#63b8ff" d="M62.25,-347.04C81.71,-356.21 111.33,-370.16 133.42,-380.57"/>
<polygon fill="#63b8ff" stroke="#63b8ff" points="132.14,-383.83 142.68,-384.93 135.13,-377.5 132.14,-383.83"/>
</a>
</g>
</g>
<!-- Node8 -->
<g id="Node000008" class="node">
<title>Node8</title>
<g id="a_Node000008"><a xlink:href="Game_8cpp.html#a2d7429dca77188f881bf1c340271ea90" target="_top" xlink:title=" ">
<polygon fill="white" stroke="#666666" points="675.5,-291 583.5,-291 583.5,-272 675.5,-272 675.5,-291"/>
<text text-anchor="middle" x="629.5" y="-279" font-family="Helvetica,sans-Serif" font-size="10.00">IsLuigiRaceway</text>
</a>
</g>
</g>
<!-- Node1&#45;&gt;Node8 -->
<g id="edge9_Node000001_Node000008" class="edge">
<title>Node1&#45;&gt;Node8</title>
<g id="a_edge9_Node000001_Node000008"><a xlink:title=" ">
<path fill="none" stroke="#63b8ff" d="M82.19,-331.9C93.74,-330.37 106.36,-328.79 118,-327.5 283.39,-309.18 479.53,-293.08 573.26,-285.73"/>
<polygon fill="#63b8ff" stroke="#63b8ff" points="573.67,-289.21 583.37,-284.94 573.12,-282.23 573.67,-289.21"/>
</a>
</g>
</g>
<!-- Node11 -->
<g id="Node000011" class="node">
<title>Node11</title>
<g id="a_Node000011"><a xlink:href="Game_8cpp.html#a591286b8b2219a8889cda4cc5d3b8c79" target="_top" xlink:title=" ">
<polygon fill="white" stroke="#666666" points="678,-254 581,-254 581,-235 678,-235 678,-254"/>
<text text-anchor="middle" x="629.5" y="-242" font-family="Helvetica,sans-Serif" font-size="10.00">IsMarioRaceway</text>
</a>
</g>
</g>
<!-- Node1&#45;&gt;Node11 -->
<g id="edge12_Node000001_Node000011" class="edge">
<title>Node1&#45;&gt;Node11</title>
<g id="a_edge12_Node000001_Node000011"><a xlink:title=" ">
<path fill="none" stroke="#63b8ff" d="M69.87,-327.91C84.13,-323.3 101.84,-318.03 118,-314.5 280.32,-279.04 475.82,-258.19 570.92,-249.41"/>
<polygon fill="#63b8ff" stroke="#63b8ff" points="571.27,-252.89 580.91,-248.5 570.63,-245.92 571.27,-252.89"/>
</a>
</g>
</g>
<!-- Node12 -->
<g id="Node000012" class="node">
<title>Node12</title>
<g id="a_Node000012"><a xlink:href="Game_8cpp.html#afb0bb7b7bc2b816a7a9fbedcc6c41ab7" target="_top" xlink:title=" ">
<polygon fill="white" stroke="#666666" points="678,-365 581,-365 581,-346 678,-346 678,-365"/>
<text text-anchor="middle" x="629.5" y="-353" font-family="Helvetica,sans-Serif" font-size="10.00">IsRoyalRaceway</text>
</a>
</g>
</g>
<!-- Node1&#45;&gt;Node12 -->
<g id="edge15_Node000001_Node000012" class="edge">
<title>Node1&#45;&gt;Node12</title>
<g id="a_edge15_Node000001_Node000012"><a xlink:title=" ">
<path fill="none" stroke="#63b8ff" d="M82.31,-338.74C184.06,-341.86 451.58,-350.07 570.31,-353.71"/>
<polygon fill="#63b8ff" stroke="#63b8ff" points="570.54,-357.22 580.64,-354.03 570.75,-350.23 570.54,-357.22"/>
</a>
</g>
</g>
<!-- Node13 -->
<g id="Node000013" class="node">
<title>Node13</title>
<g id="a_Node000013"><a xlink:href="Game_8cpp.html#ab05bb065469940f40a5023c58a8f9e7f" target="_top" xlink:title=" ">
<polygon fill="white" stroke="#666666" points="669.5,-328 589.5,-328 589.5,-309 669.5,-309 669.5,-328"/>
<text text-anchor="middle" x="629.5" y="-316" font-family="Helvetica,sans-Serif" font-size="10.00">IsYoshiValley</text>
</a>
</g>
</g>
<!-- Node1&#45;&gt;Node13 -->
<g id="edge18_Node000001_Node000013" class="edge">
<title>Node1&#45;&gt;Node13</title>
<g id="a_edge18_Node000001_Node000013"><a xlink:title=" ">
<path fill="none" stroke="#63b8ff" d="M82.31,-336.19C186.72,-332.81 465.67,-323.78 579.3,-320.09"/>
<polygon fill="#63b8ff" stroke="#63b8ff" points="579.57,-323.59 589.45,-319.77 579.34,-316.59 579.57,-323.59"/>
</a>
</g>
</g>
<!-- Node14 -->
<g id="Node000014" class="node">
<title>Node14</title>
<g id="a_Node000014"><a xlink:href="update__objects_8c.html#a5f919af8fe62091da3c2beb957939727" target="_top" xlink:title=" ">
<polygon fill="white" stroke="#666666" points="200,-214 128,-214 128,-195 200,-195 200,-214"/>
<text text-anchor="middle" x="164" y="-202" font-family="Helvetica,sans-Serif" font-size="10.00">spawn_leaf</text>
</a>
</g>
</g>
<!-- Node1&#45;&gt;Node14 -->
<g id="edge21_Node000001_Node000014" class="edge">
<title>Node1&#45;&gt;Node14</title>
<g id="a_edge21_Node000001_Node000014"><a xlink:title=" ">
<path fill="none" stroke="#63b8ff" d="M46.68,-327.92C57.06,-307.44 83.84,-258.82 118,-228.5 121.95,-224.99 126.51,-221.81 131.18,-219"/>
<polygon fill="#63b8ff" stroke="#63b8ff" points="133.08,-221.95 140.15,-214.06 129.7,-215.82 133.08,-221.95"/>
</a>
</g>
</g>
<!-- Node26 -->
<g id="Node000026" class="node">
<title>Node26</title>
<g id="a_Node000026"><a xlink:href="math_8h.html#a37bde043e94a6f074c78f10518fb5d99" target="_top" xlink:title=" ">
<polygon fill="white" stroke="#666666" points="183.5,-177 144.5,-177 144.5,-158 183.5,-158 183.5,-177"/>
<text text-anchor="middle" x="164" y="-165" font-family="Helvetica,sans-Serif" font-size="10.00">sqrtf</text>
</a>
</g>
</g>
<!-- Node1&#45;&gt;Node26 -->
<g id="edge38_Node000001_Node000026" class="edge">
<title>Node1&#45;&gt;Node26</title>
<g id="a_edge38_Node000001_Node000026"><a xlink:title=" ">
<path fill="none" stroke="#63b8ff" d="M44.25,-327.86C50.89,-301.43 72.84,-227.05 118,-185.5 122.68,-181.19 128.52,-177.86 134.43,-175.3"/>
<polygon fill="#63b8ff" stroke="#63b8ff" points="136.06,-178.43 144.24,-171.69 133.64,-171.86 136.06,-178.43"/>
</a>
</g>
</g>
<!-- Node3 -->
<g id="Node000003" class="node">
<title>Node3</title>
<g id="a_Node000003"><a xlink:href="external_8c.html#a475cff796211891556f52877cd8e9b9e" target="_top" xlink:title=" ">
<polygon fill="white" stroke="#666666" points="331,-478 259,-478 259,-459 331,-459 331,-478"/>
<text text-anchor="middle" x="295" y="-466" font-family="Helvetica,sans-Serif" font-size="10.00">play_sound</text>
</a>
</g>
</g>
<!-- Node2&#45;&gt;Node3 -->
<g id="edge2_Node000002_Node000003" class="edge">
<title>Node2&#45;&gt;Node3</title>
<g id="a_edge2_Node000002_Node000003"><a xlink:title=" ">
<path fill="none" stroke="#63b8ff" d="M198.22,-495.97C214.2,-491.39 233.55,-485.84 250.67,-480.93"/>
<polygon fill="#63b8ff" stroke="#63b8ff" points="251.8,-484.25 260.44,-478.12 249.87,-477.52 251.8,-484.25"/>
</a>
</g>
</g>
<!-- Node4&#45;&gt;Node3 -->
<g id="edge4_Node000004_Node000003" class="edge">
<title>Node4&#45;&gt;Node3</title>
<g id="a_edge4_Node000004_Node000003"><a xlink:title=" ">
<path fill="none" stroke="#63b8ff" d="M210.12,-468.5C222.61,-468.5 236.16,-468.5 248.66,-468.5"/>
<polygon fill="#63b8ff" stroke="#63b8ff" points="248.87,-472 258.87,-468.5 248.87,-465 248.87,-472"/>
</a>
</g>
</g>
<!-- Node5&#45;&gt;Node3 -->
<g id="edge7_Node000005_Node000003" class="edge">
<title>Node5&#45;&gt;Node3</title>
<g id="a_edge7_Node000005_Node000003"><a xlink:title=" ">
<path fill="none" stroke="#63b8ff" d="M198.22,-441.03C214.2,-445.61 233.55,-451.16 250.67,-456.07"/>
<polygon fill="#63b8ff" stroke="#63b8ff" points="249.87,-459.48 260.44,-458.88 251.8,-452.75 249.87,-459.48"/>
</a>
</g>
</g>
<!-- Node6 -->
<g id="Node000006" class="node">
<title>Node6</title>
<g id="a_Node000006"><a xlink:href="external_8c.html#a747de0be4005b4b29150d5c068564b7d" target="_top" xlink:title=" ">
<polygon fill="white" stroke="#666666" points="341,-441 249,-441 249,-422 341,-422 341,-441"/>
<text text-anchor="middle" x="295" y="-429" font-family="Helvetica,sans-Serif" font-size="10.00">func_800C1C88</text>
</a>
</g>
</g>
<!-- Node5&#45;&gt;Node6 -->
<g id="edge6_Node000005_Node000006" class="edge">
<title>Node5&#45;&gt;Node6</title>
<g id="a_edge6_Node000005_Node000006"><a xlink:title=" ">
<path fill="none" stroke="#63b8ff" d="M210.12,-431.5C219.3,-431.5 229.05,-431.5 238.54,-431.5"/>
<polygon fill="#63b8ff" stroke="#63b8ff" points="238.69,-435 248.69,-431.5 238.69,-428 238.69,-435"/>
</a>
</g>
</g>
<!-- Node9 -->
<g id="Node000009" class="node">
<title>Node9</title>
<g id="a_Node000009"><a xlink:href="classWorld.html#a1a4dacc6aea0b846df998be0afc239f7" target="_top" xlink:title=" ">
<polygon fill="white" stroke="#666666" points="855.5,-328 762.5,-328 762.5,-309 855.5,-309 855.5,-328"/>
<text text-anchor="middle" x="809" y="-316" font-family="Helvetica,sans-Serif" font-size="10.00">World::GetTrack</text>
</a>
</g>
</g>
<!-- Node8&#45;&gt;Node9 -->
<g id="edge10_Node000008_Node000009" class="edge">
<title>Node8&#45;&gt;Node9</title>
<g id="a_edge10_Node000008_Node000009"><a xlink:title=" ">
<path fill="none" stroke="#63b8ff" d="M675.75,-290.93C699.04,-295.79 727.64,-301.75 752.28,-306.89"/>
<polygon fill="#63b8ff" stroke="#63b8ff" points="751.71,-310.34 762.22,-308.96 753.14,-303.49 751.71,-310.34"/>
</a>
</g>
</g>
<!-- Node10 -->
<g id="Node000010" class="node">
<title>Node10</title>
<g id="a_Node000010"><a xlink:href="Game_8cpp.html#ae2fa844b3cb1021ecbc357f8ed2ad8cc" target="_top" xlink:title=" ">
<polygon fill="white" stroke="#666666" points="840,-291 778,-291 778,-272 840,-272 840,-291"/>
<text text-anchor="middle" x="809" y="-279" font-family="Helvetica,sans-Serif" font-size="10.00">GetWorld</text>
</a>
</g>
</g>
<!-- Node8&#45;&gt;Node10 -->
<g id="edge11_Node000008_Node000010" class="edge">
<title>Node8&#45;&gt;Node10</title>
<g id="a_edge11_Node000008_Node000010"><a xlink:title=" ">
<path fill="none" stroke="#63b8ff" d="M675.75,-281.5C704.17,-281.5 740.49,-281.5 767.87,-281.5"/>
<polygon fill="#63b8ff" stroke="#63b8ff" points="767.9,-285 777.9,-281.5 767.9,-278 767.9,-285"/>
</a>
</g>
</g>
<!-- Node11&#45;&gt;Node9 -->
<g id="edge13_Node000011_Node000009" class="edge">
<title>Node11&#45;&gt;Node9</title>
<g id="a_edge13_Node000011_Node000009"><a xlink:title=" ">
<path fill="none" stroke="#63b8ff" d="M678.21,-251.53C688.78,-254.3 699.62,-258.15 709,-263.5 728.93,-274.87 725.31,-288.73 745,-300.5 747.83,-302.19 750.83,-303.73 753.92,-305.13"/>
<polygon fill="#63b8ff" stroke="#63b8ff" points="752.81,-308.46 763.4,-308.93 755.42,-301.96 752.81,-308.46"/>
</a>
</g>
</g>
<!-- Node11&#45;&gt;Node10 -->
<g id="edge14_Node000011_Node000010" class="edge">
<title>Node11&#45;&gt;Node10</title>
<g id="a_edge14_Node000011_Node000010"><a xlink:title=" ">
<path fill="none" stroke="#63b8ff" d="M676.21,-254.03C704.54,-259.93 740.58,-267.45 767.81,-273.12"/>
<polygon fill="#63b8ff" stroke="#63b8ff" points="767.28,-276.59 777.78,-275.2 768.71,-269.73 767.28,-276.59"/>
</a>
</g>
</g>
<!-- Node12&#45;&gt;Node9 -->
<g id="edge16_Node000012_Node000009" class="edge">
<title>Node12&#45;&gt;Node9</title>
<g id="a_edge16_Node000012_Node000009"><a xlink:title=" ">
<path fill="none" stroke="#63b8ff" d="M676.21,-345.97C699.5,-341.12 728.01,-335.17 752.55,-330.06"/>
<polygon fill="#63b8ff" stroke="#63b8ff" points="753.37,-333.46 762.44,-328 751.94,-326.61 753.37,-333.46"/>
</a>
</g>
</g>
<!-- Node12&#45;&gt;Node10 -->
<g id="edge17_Node000012_Node000010" class="edge">
<title>Node12&#45;&gt;Node10</title>
<g id="a_edge17_Node000012_Node000010"><a xlink:title=" ">
<path fill="none" stroke="#63b8ff" d="M678.2,-349.15C688.77,-346.51 699.62,-342.78 709,-337.5 729,-326.25 725.39,-312.41 745,-300.5 752.08,-296.2 760.2,-292.81 768.21,-290.16"/>
<polygon fill="#63b8ff" stroke="#63b8ff" points="769.26,-293.5 777.85,-287.29 767.26,-286.79 769.26,-293.5"/>
</a>
</g>
</g>
<!-- Node13&#45;&gt;Node9 -->
<g id="edge19_Node000013_Node000009" class="edge">
<title>Node13&#45;&gt;Node9</title>
<g id="a_edge19_Node000013_Node000009"><a xlink:title=" ">
<path fill="none" stroke="#63b8ff" d="M669.89,-318.5C694.16,-318.5 725.66,-318.5 752.44,-318.5"/>
<polygon fill="#63b8ff" stroke="#63b8ff" points="752.45,-322 762.45,-318.5 752.45,-315 752.45,-322"/>
</a>
</g>
</g>
<!-- Node13&#45;&gt;Node10 -->
<g id="edge20_Node000013_Node000010" class="edge">
<title>Node13&#45;&gt;Node10</title>
<g id="a_edge20_Node000013_Node000010"><a xlink:title=" ">
<path fill="none" stroke="#63b8ff" d="M669.89,-310.29C699.04,-304.21 738.59,-295.97 767.9,-289.86"/>
<polygon fill="#63b8ff" stroke="#63b8ff" points="768.74,-293.26 777.81,-287.79 767.31,-286.41 768.74,-293.26"/>
</a>
</g>
</g>
<!-- Node15 -->
<g id="Node000015" class="node">
<title>Node15</title>
<g id="a_Node000015"><a xlink:href="update__objects_8c.html#a86113b7f254606e89d4e7c566ce8ff27" target="_top" xlink:title=" ">
<polygon fill="white" stroke="#666666" points="344,-214 246,-214 246,-195 344,-195 344,-214"/>
<text text-anchor="middle" x="295" y="-202" font-family="Helvetica,sans-Serif" font-size="10.00">init_leaf_particle</text>
</a>
</g>
</g>
<!-- Node14&#45;&gt;Node15 -->
<g id="edge22_Node000014_Node000015" class="edge">
<title>Node14&#45;&gt;Node15</title>
<g id="a_edge22_Node000014_Node000015"><a xlink:title=" ">
<path fill="none" stroke="#63b8ff" d="M200.25,-204.5C211.21,-204.5 223.59,-204.5 235.68,-204.5"/>
<polygon fill="#63b8ff" stroke="#63b8ff" points="235.74,-208 245.74,-204.5 235.74,-201 235.74,-208"/>
</a>
</g>
</g>
<!-- Node16 -->
<g id="Node000016" class="node">
<title>Node16</title>
<g id="a_Node000016"><a xlink:href="update__objects_8c.html#a6e56a43ec98e81db05f2410893efa437" target="_top" xlink:title=" ">
<polygon fill="white" stroke="#666666" points="511,-98 383,-98 383,-79 511,-79 511,-98"/>
<text text-anchor="middle" x="447" y="-86" font-family="Helvetica,sans-Serif" font-size="10.00">add_unused_obj_index</text>
</a>
</g>
</g>
<!-- Node15&#45;&gt;Node16 -->
<g id="edge23_Node000015_Node000016" class="edge">
<title>Node15&#45;&gt;Node16</title>
<g id="a_edge23_Node000015_Node000016"><a xlink:title=" ">
<path fill="none" stroke="#63b8ff" d="M308.53,-194.81C334.4,-174.8 393.95,-128.76 425.5,-104.35"/>
<polygon fill="#63b8ff" stroke="#63b8ff" points="427.84,-106.97 433.61,-98.08 423.56,-101.43 427.84,-106.97"/>
</a>
</g>
</g>
<!-- Node18 -->
<g id="Node000018" class="node">
<title>Node18</title>
<g id="a_Node000018"><a xlink:href="update__objects_8c.html#ace0a45ab5c99bef15402117191fd2242" target="_top" xlink:title=" ">
<polygon fill="white" stroke="#666666" points="514,-214 380,-214 380,-195 514,-195 514,-214"/>
<text text-anchor="middle" x="447" y="-202" font-family="Helvetica,sans-Serif" font-size="10.00">init_object_leaf_particle</text>
</a>
</g>
</g>
<!-- Node15&#45;&gt;Node18 -->
<g id="edge25_Node000015_Node000018" class="edge">
<title>Node15&#45;&gt;Node18</title>
<g id="a_edge25_Node000015_Node000018"><a xlink:title=" ">
<path fill="none" stroke="#63b8ff" d="M344.29,-204.5C352.41,-204.5 361.02,-204.5 369.65,-204.5"/>
<polygon fill="#63b8ff" stroke="#63b8ff" points="369.76,-208 379.76,-204.5 369.76,-201 369.76,-208"/>
</a>
</g>
</g>
<!-- Node17 -->
<g id="Node000017" class="node">
<title>Node17</title>
<g id="a_Node000017"><a xlink:href="update__objects_8c.html#a92856990c4ca5fba1b8e0c61ca832c27" target="_top" xlink:title=" ">
<polygon fill="white" stroke="#666666" points="693.5,-19 565.5,-19 565.5,0 693.5,0 693.5,-19"/>
<text text-anchor="middle" x="629.5" y="-7" font-family="Helvetica,sans-Serif" font-size="10.00">find_unused_obj_index</text>
</a>
</g>
</g>
<!-- Node16&#45;&gt;Node17 -->
<g id="edge24_Node000016_Node000017" class="edge">
<title>Node16&#45;&gt;Node17</title>
<g id="a_edge24_Node000016_Node000017"><a xlink:title=" ">
<path fill="none" stroke="#63b8ff" d="M461.15,-78.78C479.92,-65.34 515.92,-41.2 550,-27.5 555.19,-25.41 560.67,-23.54 566.23,-21.86"/>
<polygon fill="#63b8ff" stroke="#63b8ff" points="567.59,-25.12 576.28,-19.06 565.7,-18.38 567.59,-25.12"/>
</a>
</g>
</g>
<!-- Node18&#45;&gt;Node8 -->
<g id="edge28_Node000018_Node000008" class="edge">
<title>Node18&#45;&gt;Node8</title>
<g id="a_edge28_Node000018_Node000008"><a xlink:title=" ">
<path fill="none" stroke="#63b8ff" d="M461.52,-214.1C480.44,-227.11 516.31,-250.24 550,-263.5 557.49,-266.45 565.59,-268.98 573.63,-271.14"/>
<polygon fill="#63b8ff" stroke="#63b8ff" points="572.83,-274.54 583.38,-273.58 574.53,-267.75 572.83,-274.54"/>
</a>
</g>
</g>
<!-- Node18&#45;&gt;Node11 -->
<g id="edge29_Node000018_Node000011" class="edge">
<title>Node18&#45;&gt;Node11</title>
<g id="a_edge29_Node000018_Node000011"><a xlink:title=" ">
<path fill="none" stroke="#63b8ff" d="M491.23,-214.08C516.57,-219.7 548.77,-226.83 575.62,-232.78"/>
<polygon fill="#63b8ff" stroke="#63b8ff" points="575.1,-236.25 585.62,-235 576.61,-229.42 575.1,-236.25"/>
</a>
</g>
</g>
<!-- Node18&#45;&gt;Node12 -->
<g id="edge30_Node000018_Node000012" class="edge">
<title>Node18&#45;&gt;Node12</title>
<g id="a_edge30_Node000018_Node000012"><a xlink:title=" ">
<path fill="none" stroke="#63b8ff" d="M452.38,-214.03C464.25,-238.72 499.57,-305.1 550,-337.5 556.31,-341.55 563.42,-344.7 570.72,-347.14"/>
<polygon fill="#63b8ff" stroke="#63b8ff" points="570.15,-350.62 580.73,-350.04 572.1,-343.89 570.15,-350.62"/>
</a>
</g>
</g>
<!-- Node18&#45;&gt;Node13 -->
<g id="edge31_Node000018_Node000013" class="edge">
<title>Node18&#45;&gt;Node13</title>
<g id="a_edge31_Node000018_Node000013"><a xlink:title=" ">
<path fill="none" stroke="#63b8ff" d="M455.25,-214.15C470.5,-233.71 507.95,-278.06 550,-300.5 558.97,-305.29 569.19,-308.81 579.21,-311.4"/>
<polygon fill="#63b8ff" stroke="#63b8ff" points="578.59,-314.85 589.12,-313.68 580.16,-308.02 578.59,-314.85"/>
</a>
</g>
</g>
<!-- Node19 -->
<g id="Node000019" class="node">
<title>Node19</title>
<g id="a_Node000019"><a xlink:href="update__objects_8c.html#abdebd086b5ff081f83af3d9205f39cd3" target="_top" xlink:title=" ">
<polygon fill="white" stroke="#666666" points="663.5,-217 595.5,-217 595.5,-198 663.5,-198 663.5,-217"/>
<text text-anchor="middle" x="629.5" y="-205" font-family="Helvetica,sans-Serif" font-size="10.00">init_object</text>
</a>
</g>
</g>
<!-- Node18&#45;&gt;Node19 -->
<g id="edge26_Node000018_Node000019" class="edge">
<title>Node18&#45;&gt;Node19</title>
<g id="a_edge26_Node000018_Node000019"><a xlink:title=" ">
<path fill="none" stroke="#63b8ff" d="M514.19,-205.6C537.88,-205.99 563.96,-206.43 585.22,-206.78"/>
<polygon fill="#63b8ff" stroke="#63b8ff" points="585.18,-210.28 595.23,-206.95 585.29,-203.28 585.18,-210.28"/>
</a>
</g>
</g>
<!-- Node21 -->
<g id="Node000021" class="node">
<title>Node21</title>
<g id="a_Node000021"><a xlink:href="code__80086E70_8c.html#a96d06a13f28b2621752f09858946c5f1" target="_top" xlink:title=" ">
<polygon fill="white" stroke="#666666" points="709,-141.5 550,-141.5 550,-111.5 709,-111.5 709,-141.5"/>
<text text-anchor="start" x="558" y="-129.5" font-family="Helvetica,sans-Serif" font-size="10.00">object_origin_pos_randomize</text>
<text text-anchor="middle" x="629.5" y="-118.5" font-family="Helvetica,sans-Serif" font-size="10.00">_around_xyz</text>
</a>
</g>
</g>
<!-- Node18&#45;&gt;Node21 -->
<g id="edge32_Node000018_Node000021" class="edge">
<title>Node18&#45;&gt;Node21</title>
<g id="a_edge32_Node000018_Node000021"><a xlink:title=" ">
<path fill="none" stroke="#63b8ff" d="M466.56,-194.93C486.82,-184.65 520.34,-168.07 550,-155.5 558.35,-151.96 567.3,-148.42 576.05,-145.1"/>
<polygon fill="#63b8ff" stroke="#63b8ff" points="577.3,-148.37 585.44,-141.58 574.84,-141.81 577.3,-148.37"/>
</a>
</g>
</g>
<!-- Node22 -->
<g id="Node000022" class="node">
<title>Node22</title>
<g id="a_Node000022"><a xlink:href="math__util_8c.html#a151b63b8adf9af7e4054b3b84bd226dc" target="_top" xlink:title=" ">
<polygon fill="white" stroke="#666666" points="845,-158 773,-158 773,-139 845,-139 845,-158"/>
<text text-anchor="middle" x="809" y="-146" font-family="Helvetica,sans-Serif" font-size="10.00">random_int</text>
</a>
</g>
</g>
<!-- Node18&#45;&gt;Node22 -->
<g id="edge35_Node000018_Node000022" class="edge">
<title>Node18&#45;&gt;Node22</title>
<g id="a_edge35_Node000018_Node000022"><a xlink:title=" ">
<path fill="none" stroke="#63b8ff" d="M508.67,-194.96C522.27,-192.83 536.63,-190.59 550,-188.5 624.58,-176.87 711.3,-163.44 762.81,-155.48"/>
<polygon fill="#63b8ff" stroke="#63b8ff" points="763.6,-158.9 772.94,-153.91 762.53,-151.98 763.6,-158.9"/>
</a>
</g>
</g>
<!-- Node24 -->
<g id="Node000024" class="node">
<title>Node24</title>
<g id="a_Node000024"><a xlink:href="code__80086E70_8c.html#af0e1570f9594db6104157d24386b80cb" target="_top" xlink:title=" ">
<polygon fill="white" stroke="#666666" points="695.5,-93 563.5,-93 563.5,-74 695.5,-74 695.5,-93"/>
<text text-anchor="middle" x="629.5" y="-81" font-family="Helvetica,sans-Serif" font-size="10.00">set_obj_direction_angle</text>
</a>
</g>
</g>
<!-- Node18&#45;&gt;Node24 -->
<g id="edge36_Node000018_Node000024" class="edge">
<title>Node18&#45;&gt;Node24</title>
<g id="a_edge36_Node000018_Node000024"><a xlink:title=" ">
<path fill="none" stroke="#63b8ff" d="M454.68,-194.9C469.39,-174.51 506.76,-126.77 550,-102.5 554.14,-100.18 558.55,-98.14 563.1,-96.34"/>
<polygon fill="#63b8ff" stroke="#63b8ff" points="564.31,-99.63 572.58,-93 561.98,-93.03 564.31,-99.63"/>
</a>
</g>
</g>
<!-- Node25 -->
<g id="Node000025" class="node">
<title>Node25</title>
<g id="a_Node000025"><a xlink:href="code__80086E70_8c.html#ad745ffd7b6ecd50c57336a484979b258" target="_top" xlink:title=" ">
<polygon fill="white" stroke="#666666" points="684.5,-56 574.5,-56 574.5,-37 684.5,-37 684.5,-56"/>
<text text-anchor="middle" x="629.5" y="-44" font-family="Helvetica,sans-Serif" font-size="10.00">set_obj_orientation</text>
</a>
</g>
</g>
<!-- Node18&#45;&gt;Node25 -->
<g id="edge37_Node000018_Node000025" class="edge">
<title>Node18&#45;&gt;Node25</title>
<g id="a_edge37_Node000018_Node000025"><a xlink:title=" ">
<path fill="none" stroke="#63b8ff" d="M454.54,-194.72C474.9,-164.38 536.63,-73.32 550,-64.5 554.6,-61.47 559.63,-58.94 564.87,-56.84"/>
<polygon fill="#63b8ff" stroke="#63b8ff" points="566.17,-60.09 574.46,-53.49 563.86,-53.48 566.17,-60.09"/>
</a>
</g>
</g>
<!-- Node20 -->
<g id="Node000020" class="node">
<title>Node20</title>
<g id="a_Node000020"><a xlink:href="update__objects_8c.html#af20e3f3c403dd4fbea56e358997e515a" target="_top" xlink:title=" ">
<polygon fill="white" stroke="#666666" points="873,-217 745,-217 745,-198 873,-198 873,-217"/>
<text text-anchor="middle" x="809" y="-205" font-family="Helvetica,sans-Serif" font-size="10.00">set_object_timer_state</text>
</a>
</g>
</g>
<!-- Node19&#45;&gt;Node20 -->
<g id="edge27_Node000019_Node000020" class="edge">
<title>Node19&#45;&gt;Node20</title>
<g id="a_edge27_Node000019_Node000020"><a xlink:title=" ">
<path fill="none" stroke="#63b8ff" d="M663.89,-207.5C683.92,-207.5 710.23,-207.5 734.87,-207.5"/>
<polygon fill="#63b8ff" stroke="#63b8ff" points="734.94,-211 744.94,-207.5 734.94,-204 734.94,-211"/>
</a>
</g>
</g>
<!-- Node21&#45;&gt;Node22 -->
<g id="edge33_Node000021_Node000022" class="edge">
<title>Node21&#45;&gt;Node22</title>
<g id="a_edge33_Node000021_Node000022"><a xlink:title=" ">
<path fill="none" stroke="#63b8ff" d="M709.13,-136.25C727.39,-138.51 746.22,-140.84 762.49,-142.86"/>
<polygon fill="#63b8ff" stroke="#63b8ff" points="762.42,-146.38 772.78,-144.13 763.29,-139.43 762.42,-146.38"/>
</a>
</g>
</g>
<!-- Node23 -->
<g id="Node000023" class="node">
<title>Node23</title>
<g id="a_Node000023"><a xlink:href="math__util_8c.html#a062850863585005ad1d0a75d9ff70693" target="_top" xlink:title=" ">
<polygon fill="white" stroke="#666666" points="986,-158 909,-158 909,-139 986,-139 986,-158"/>
<text text-anchor="middle" x="947.5" y="-146" font-family="Helvetica,sans-Serif" font-size="10.00">random_u16</text>
</a>
</g>
</g>
<!-- Node22&#45;&gt;Node23 -->
<g id="edge34_Node000022_Node000023" class="edge">
<title>Node22&#45;&gt;Node23</title>
<g id="a_edge34_Node000022_Node000023"><a xlink:title=" ">
<path fill="none" stroke="#63b8ff" d="M845.15,-148.5C861.4,-148.5 880.94,-148.5 898.51,-148.5"/>
<polygon fill="#63b8ff" stroke="#63b8ff" points="898.59,-152 908.59,-148.5 898.59,-145 898.59,-152"/>
</a>
</g>
</g>
</g>
</svg>
