<?xml version="1.0" encoding="UTF-8" standalone="no"?>
<!DOCTYPE svg PUBLIC "-//W3C//DTD SVG 1.1//EN"
 "http://www.w3.org/Graphics/SVG/1.1/DTD/svg11.dtd">
<!-- Generated by graphviz version 2.43.0 (0)
 -->
<!-- Title: use_banana_item Pages: 1 -->
<svg width="1604pt" height="515pt"
 viewBox="0.00 0.00 1604.00 515.00" xmlns="http://www.w3.org/2000/svg" xmlns:xlink="http://www.w3.org/1999/xlink">
<g id="graph0" class="graph" transform="scale(1 1) rotate(0) translate(4 511)">
<title>use_banana_item</title>
<!-- Node1 -->
<g id="Node000001" class="node">
<title>Node1</title>
<g id="a_Node000001"><a xlink:title=" ">
<polygon fill="#999999" stroke="#666666" points="103,-291 0,-291 0,-272 103,-272 103,-291"/>
<text text-anchor="middle" x="51.5" y="-279" font-family="Helvetica,sans-Serif" font-size="10.00">use_banana_item</text>
</a>
</g>
</g>
<!-- Node2 -->
<g id="Node000002" class="node">
<title>Node2</title>
<g id="a_Node000002"><a xlink:href="actors_8c.html#a91fb2e4e37e7c72fea918fe2c1bb4eaf" target="_top" xlink:title=" ">
<polygon fill="white" stroke="#666666" points="285,-310 145,-310 145,-291 285,-291 285,-310"/>
<text text-anchor="middle" x="215" y="-298" font-family="Helvetica,sans-Serif" font-size="10.00">add_actor_to_empty_slot</text>
</a>
</g>
</g>
<!-- Node1&#45;&gt;Node2 -->
<g id="edge1_Node000001_Node000002" class="edge">
<title>Node1&#45;&gt;Node2</title>
<g id="a_edge1_Node000001_Node000002"><a xlink:title=" ">
<path fill="none" stroke="#63b8ff" d="M103.16,-287.46C113.18,-288.64 123.93,-289.9 134.64,-291.16"/>
<polygon fill="#63b8ff" stroke="#63b8ff" points="134.54,-294.68 144.88,-292.37 135.36,-287.72 134.54,-294.68"/>
</a>
</g>
</g>
<!-- Node35 -->
<g id="Node000035" class="node">
<title>Node35</title>
<g id="a_Node000035"><a xlink:href="math__util_8c.html#ad5bb0138c68b50f119d3cb7966f522b7" target="_top" xlink:title=" ">
<polygon fill="white" stroke="#666666" points="291,-273 139,-273 139,-254 291,-254 291,-273"/>
<text text-anchor="middle" x="215" y="-261" font-family="Helvetica,sans-Serif" font-size="10.00">mtxf_translate_vec3f_mat3</text>
</a>
</g>
</g>
<!-- Node1&#45;&gt;Node35 -->
<g id="edge38_Node000001_Node000035" class="edge">
<title>Node1&#45;&gt;Node35</title>
<g id="a_edge38_Node000001_Node000035"><a xlink:title=" ">
<path fill="none" stroke="#63b8ff" d="M103.16,-275.85C111.42,-274.93 120.18,-273.96 129.01,-272.97"/>
<polygon fill="#63b8ff" stroke="#63b8ff" points="129.43,-276.45 138.98,-271.86 128.65,-269.49 129.43,-276.45"/>
</a>
</g>
</g>
<!-- Node3 -->
<g id="Node000003" class="node">
<title>Node3</title>
<g id="a_Node000003"><a xlink:href="actors_8c.html#a39c023177b5a7686cdd1fc65b8b953e1" target="_top" xlink:title=" ">
<polygon fill="white" stroke="#666666" points="414,-170 352,-170 352,-151 414,-151 414,-170"/>
<text text-anchor="middle" x="383" y="-158" font-family="Helvetica,sans-Serif" font-size="10.00">actor_init</text>
</a>
</g>
</g>
<!-- Node2&#45;&gt;Node3 -->
<g id="edge2_Node000002_Node000003" class="edge">
<title>Node2&#45;&gt;Node3</title>
<g id="a_edge2_Node000002_Node000003"><a xlink:title=" ">
<path fill="none" stroke="#63b8ff" d="M274.22,-290.88C280.14,-288.64 285.86,-285.89 291,-282.5 330.71,-256.33 359.57,-206.64 373.2,-179.45"/>
<polygon fill="#63b8ff" stroke="#63b8ff" points="376.46,-180.75 377.67,-170.23 370.16,-177.7 376.46,-180.75"/>
</a>
</g>
</g>
<!-- Node26 -->
<g id="Node000026" class="node">
<title>Node26</title>
<g id="a_Node000026"><a xlink:href="Game_8cpp.html#acea5cfd9ab22f745bd6627869b95a62e" target="_top" xlink:title=" ">
<polygon fill="white" stroke="#666666" points="439,-405 327,-405 327,-386 439,-386 439,-405"/>
<text text-anchor="middle" x="383" y="-393" font-family="Helvetica,sans-Serif" font-size="10.00">CM_ActorBeginPlay</text>
</a>
</g>
</g>
<!-- Node2&#45;&gt;Node26 -->
<g id="edge25_Node000002_Node000026" class="edge">
<title>Node2&#45;&gt;Node26</title>
<g id="a_edge25_Node000002_Node000026"><a xlink:title=" ">
<path fill="none" stroke="#63b8ff" d="M232.83,-310.13C261.91,-326.78 321.75,-361.02 356.15,-380.7"/>
<polygon fill="#63b8ff" stroke="#63b8ff" points="354.71,-383.91 365.12,-385.84 358.18,-377.84 354.71,-383.91"/>
</a>
</g>
</g>
<!-- Node32 -->
<g id="Node000032" class="node">
<title>Node32</title>
<g id="a_Node000032"><a xlink:href="Game_8cpp.html#a42f23077aaa52cb3ea5c7803b7dd6816" target="_top" xlink:title=" ">
<polygon fill="white" stroke="#666666" points="436,-329 330,-329 330,-310 436,-310 436,-329"/>
<text text-anchor="middle" x="383" y="-317" font-family="Helvetica,sans-Serif" font-size="10.00">CM_AddBaseActor</text>
</a>
</g>
</g>
<!-- Node2&#45;&gt;Node32 -->
<g id="edge33_Node000002_Node000032" class="edge">
<title>Node2&#45;&gt;Node32</title>
<g id="a_edge33_Node000002_Node000032"><a xlink:title=" ">
<path fill="none" stroke="#63b8ff" d="M285.44,-308.45C296.8,-309.75 308.5,-311.09 319.68,-312.37"/>
<polygon fill="#63b8ff" stroke="#63b8ff" points="319.43,-315.86 329.76,-313.52 320.23,-308.91 319.43,-315.86"/>
</a>
</g>
</g>
<!-- Node34 -->
<g id="Node000034" class="node">
<title>Node34</title>
<g id="a_Node000034"><a xlink:href="Game_8cpp.html#a0841ffe9a66e95aca42438b9d8ffc3d3" target="_top" xlink:title=" ">
<polygon fill="white" stroke="#666666" points="433.5,-291 332.5,-291 332.5,-272 433.5,-272 433.5,-291"/>
<text text-anchor="middle" x="383" y="-279" font-family="Helvetica,sans-Serif" font-size="10.00">CM_GetActorSize</text>
</a>
</g>
</g>
<!-- Node2&#45;&gt;Node34 -->
<g id="edge36_Node000002_Node000034" class="edge">
<title>Node2&#45;&gt;Node34</title>
<g id="a_edge36_Node000002_Node000034"><a xlink:title=" ">
<path fill="none" stroke="#63b8ff" d="M285.44,-292.55C297.53,-291.17 310.02,-289.74 321.84,-288.39"/>
<polygon fill="#63b8ff" stroke="#63b8ff" points="322.49,-291.83 332.03,-287.22 321.69,-284.88 322.49,-291.83"/>
</a>
</g>
</g>
<!-- Node4 -->
<g id="Node000004" class="node">
<title>Node4</title>
<g id="a_Node000004"><a xlink:href="collision_8c.html#a37aa55b3768d001533ad75e7f1b8388a" target="_top" xlink:title=" ">
<polygon fill="white" stroke="#666666" points="616,-74 475,-74 475,-55 616,-55 616,-74"/>
<text text-anchor="middle" x="545.5" y="-62" font-family="Helvetica,sans-Serif" font-size="10.00">check_bounding_collision</text>
</a>
</g>
</g>
<!-- Node3&#45;&gt;Node4 -->
<g id="edge3_Node000003_Node000004" class="edge">
<title>Node3&#45;&gt;Node4</title>
<g id="a_edge3_Node000003_Node000004"><a xlink:title=" ">
<path fill="none" stroke="#63b8ff" d="M392.51,-150.74C407.5,-134.18 440.32,-100.6 475,-82.5 478.57,-80.64 482.34,-78.96 486.2,-77.45"/>
<polygon fill="#63b8ff" stroke="#63b8ff" points="487.68,-80.64 495.95,-74.03 485.36,-74.04 487.68,-80.64"/>
</a>
</g>
</g>
<!-- Node8 -->
<g id="Node000008" class="node">
<title>Node8</title>
<g id="a_Node000008"><a xlink:href="actors_8c.html#a1a9bccb586242555a9123ebd4ab70f2a" target="_top" xlink:title=" ">
<polygon fill="white" stroke="#666666" points="611.5,-196.5 479.5,-196.5 479.5,-166.5 611.5,-166.5 611.5,-196.5"/>
<text text-anchor="start" x="487.5" y="-184.5" font-family="Helvetica,sans-Serif" font-size="10.00">cleanup_red_and_green</text>
<text text-anchor="middle" x="545.5" y="-173.5" font-family="Helvetica,sans-Serif" font-size="10.00">_shells</text>
</a>
</g>
</g>
<!-- Node3&#45;&gt;Node8 -->
<g id="edge7_Node000003_Node000008" class="edge">
<title>Node3&#45;&gt;Node8</title>
<g id="a_edge7_Node000003_Node000008"><a xlink:title=" ">
<path fill="none" stroke="#63b8ff" d="M414.19,-164.45C429.81,-166.49 449.64,-169.09 469.09,-171.63"/>
<polygon fill="#63b8ff" stroke="#63b8ff" points="468.84,-175.13 479.21,-172.96 469.75,-168.19 468.84,-175.13"/>
</a>
</g>
</g>
<!-- Node22 -->
<g id="Node000022" class="node">
<title>Node22</title>
<g id="a_Node000022"><a xlink:href="collision_8c.html#ad72fef3ffe32191d73b1822f512ebf3f" target="_top" xlink:title=" ">
<polygon fill="white" stroke="#666666" points="593,-148 498,-148 498,-129 593,-129 593,-148"/>
<text text-anchor="middle" x="545.5" y="-136" font-family="Helvetica,sans-Serif" font-size="10.00">func_802AAAAC</text>
</a>
</g>
</g>
<!-- Node3&#45;&gt;Node22 -->
<g id="edge21_Node000003_Node000022" class="edge">
<title>Node3&#45;&gt;Node22</title>
<g id="a_edge21_Node000003_Node000022"><a xlink:title=" ">
<path fill="none" stroke="#63b8ff" d="M414.19,-156.36C434.86,-153.53 462.91,-149.68 487.69,-146.29"/>
<polygon fill="#63b8ff" stroke="#63b8ff" points="488.29,-149.74 497.72,-144.91 487.34,-142.8 488.29,-149.74"/>
</a>
</g>
</g>
<!-- Node24 -->
<g id="Node000024" class="node">
<title>Node24</title>
<g id="a_Node000024"><a xlink:href="math__util_8c.html#af7b470ed76fce07b8042a47c96e5690b" target="_top" xlink:title=" ">
<polygon fill="white" stroke="#666666" points="599,-111 492,-111 492,-92 599,-92 599,-111"/>
<text text-anchor="middle" x="545.5" y="-99" font-family="Helvetica,sans-Serif" font-size="10.00">vec3f_copy_return</text>
</a>
</g>
</g>
<!-- Node3&#45;&gt;Node24 -->
<g id="edge23_Node000003_Node000024" class="edge">
<title>Node3&#45;&gt;Node24</title>
<g id="a_edge23_Node000003_Node000024"><a xlink:title=" ">
<path fill="none" stroke="#63b8ff" d="M402.79,-150.9C420.93,-141.91 449.34,-128.53 475,-119.5 480.86,-117.44 487.08,-115.49 493.29,-113.7"/>
<polygon fill="#63b8ff" stroke="#63b8ff" points="494.29,-117.06 502.99,-111.02 492.42,-110.31 494.29,-117.06"/>
</a>
</g>
</g>
<!-- Node25 -->
<g id="Node000025" class="node">
<title>Node25</title>
<g id="a_Node000025"><a xlink:href="math__util_8c.html#a0e270ee67600c8c9c2f140c647d008a1" target="_top" xlink:title=" ">
<polygon fill="white" stroke="#666666" points="582.5,-234 508.5,-234 508.5,-215 582.5,-215 582.5,-234"/>
<text text-anchor="middle" x="545.5" y="-222" font-family="Helvetica,sans-Serif" font-size="10.00">vec3s_copy</text>
</a>
</g>
</g>
<!-- Node3&#45;&gt;Node25 -->
<g id="edge24_Node000003_Node000025" class="edge">
<title>Node3&#45;&gt;Node25</title>
<g id="a_edge24_Node000003_Node000025"><a xlink:title=" ">
<path fill="none" stroke="#63b8ff" d="M401,-170.14C418.96,-180.03 448.31,-195.36 475,-205.5 482.48,-208.34 490.57,-210.95 498.48,-213.26"/>
<polygon fill="#63b8ff" stroke="#63b8ff" points="497.79,-216.71 508.36,-216.03 499.68,-209.97 497.79,-216.71"/>
</a>
</g>
</g>
<!-- Node5 -->
<g id="Node000005" class="node">
<title>Node5</title>
<g id="a_Node000005"><a xlink:href="collision_8c.html#ac312bf382cb40752f6b790a99e7cdcb6" target="_top" xlink:title=" ">
<polygon fill="white" stroke="#666666" points="784.5,-19 676.5,-19 676.5,0 784.5,0 784.5,-19"/>
<text text-anchor="middle" x="730.5" y="-7" font-family="Helvetica,sans-Serif" font-size="10.00">check_collision_yx</text>
</a>
</g>
</g>
<!-- Node4&#45;&gt;Node5 -->
<g id="edge4_Node000004_Node000005" class="edge">
<title>Node4&#45;&gt;Node5</title>
<g id="a_edge4_Node000004_Node000005"><a xlink:title=" ">
<path fill="none" stroke="#63b8ff" d="M571.4,-54.9C592.63,-46.93 624.04,-35.62 652,-27.5 659.29,-25.38 667.01,-23.35 674.66,-21.45"/>
<polygon fill="#63b8ff" stroke="#63b8ff" points="675.71,-24.8 684.61,-19.05 674.07,-17.99 675.71,-24.8"/>
</a>
</g>
</g>
<!-- Node6 -->
<g id="Node000006" class="node">
<title>Node6</title>
<g id="a_Node000006"><a xlink:href="collision_8c.html#a4b48832a90e984536a0635a016ec4f28" target="_top" xlink:title=" ">
<polygon fill="white" stroke="#666666" points="784,-93 677,-93 677,-74 784,-74 784,-93"/>
<text text-anchor="middle" x="730.5" y="-81" font-family="Helvetica,sans-Serif" font-size="10.00">check_collision_zx</text>
</a>
</g>
</g>
<!-- Node4&#45;&gt;Node6 -->
<g id="edge5_Node000004_Node000006" class="edge">
<title>Node4&#45;&gt;Node6</title>
<g id="a_edge5_Node000004_Node000006"><a xlink:title=" ">
<path fill="none" stroke="#63b8ff" d="M616.21,-71.74C632.85,-73.47 650.52,-75.3 666.83,-76.99"/>
<polygon fill="#63b8ff" stroke="#63b8ff" points="666.47,-80.48 676.78,-78.03 667.2,-73.51 666.47,-80.48"/>
</a>
</g>
</g>
<!-- Node7 -->
<g id="Node000007" class="node">
<title>Node7</title>
<g id="a_Node000007"><a xlink:href="collision_8c.html#a21fef964ab48191a1c0341954ef27a40" target="_top" xlink:title=" ">
<polygon fill="white" stroke="#666666" points="784,-56 677,-56 677,-37 784,-37 784,-56"/>
<text text-anchor="middle" x="730.5" y="-44" font-family="Helvetica,sans-Serif" font-size="10.00">check_collision_zy</text>
</a>
</g>
</g>
<!-- Node4&#45;&gt;Node7 -->
<g id="edge6_Node000004_Node000007" class="edge">
<title>Node4&#45;&gt;Node7</title>
<g id="a_edge6_Node000004_Node000007"><a xlink:title=" ">
<path fill="none" stroke="#63b8ff" d="M616.21,-57.64C632.85,-56.01 650.52,-54.27 666.83,-52.66"/>
<polygon fill="#63b8ff" stroke="#63b8ff" points="667.17,-56.15 676.78,-51.69 666.49,-49.18 667.17,-56.15"/>
</a>
</g>
</g>
<!-- Node9 -->
<g id="Node000009" class="node">
<title>Node9</title>
<g id="a_Node000009"><a xlink:href="Game_8cpp.html#a693de7d8b89fe291aafea86bc64a0a2e" target="_top" xlink:title=" ">
<polygon fill="white" stroke="#666666" points="770.5,-253 690.5,-253 690.5,-234 770.5,-234 770.5,-253"/>
<text text-anchor="middle" x="730.5" y="-241" font-family="Helvetica,sans-Serif" font-size="10.00">CM_GetActor</text>
</a>
</g>
</g>
<!-- Node8&#45;&gt;Node9 -->
<g id="edge8_Node000008_Node000009" class="edge">
<title>Node8&#45;&gt;Node9</title>
<g id="a_edge8_Node000008_Node000009"><a xlink:title=" ">
<path fill="none" stroke="#63b8ff" d="M590.92,-196.59C599.32,-199.7 607.98,-203.07 616,-206.5 632.45,-213.54 635.21,-218.33 652,-224.5 661.07,-227.83 670.96,-230.76 680.53,-233.26"/>
<polygon fill="#63b8ff" stroke="#63b8ff" points="679.81,-236.68 690.36,-235.7 681.5,-229.89 679.81,-236.68"/>
</a>
</g>
</g>
<!-- Node11 -->
<g id="Node000011" class="node">
<title>Node11</title>
<g id="a_Node000011"><a xlink:href="code__80005FD0_8c.html#ad301b978cdd3c4cc190b10be050d51d8" target="_top" xlink:title=" ">
<polygon fill="white" stroke="#666666" points="803.5,-215.5 657.5,-215.5 657.5,-185.5 803.5,-185.5 803.5,-215.5"/>
<text text-anchor="start" x="665.5" y="-203.5" font-family="Helvetica,sans-Serif" font-size="10.00">delete_actor_in_unexpired</text>
<text text-anchor="middle" x="730.5" y="-192.5" font-family="Helvetica,sans-Serif" font-size="10.00">_actor_list</text>
</a>
</g>
</g>
<!-- Node8&#45;&gt;Node11 -->
<g id="edge10_Node000008_Node000011" class="edge">
<title>Node8&#45;&gt;Node11</title>
<g id="a_edge10_Node000008_Node000011"><a xlink:title=" ">
<path fill="none" stroke="#63b8ff" d="M611.53,-188.25C623.09,-189.45 635.27,-190.72 647.23,-191.96"/>
<polygon fill="#63b8ff" stroke="#63b8ff" points="646.9,-195.44 657.21,-192.99 647.62,-188.48 646.9,-195.44"/>
</a>
</g>
</g>
<!-- Node12 -->
<g id="Node000012" class="node">
<title>Node12</title>
<g id="a_Node000012"><a xlink:href="actors_8c.html#a694ec6ef7548b8618aeb35c038d3a9b9" target="_top" xlink:title=" ">
<polygon fill="white" stroke="#666666" points="772,-167 689,-167 689,-148 772,-148 772,-167"/>
<text text-anchor="middle" x="730.5" y="-155" font-family="Helvetica,sans-Serif" font-size="10.00">destroy_actor</text>
</a>
</g>
</g>
<!-- Node8&#45;&gt;Node12 -->
<g id="edge11_Node000008_Node000012" class="edge">
<title>Node8&#45;&gt;Node12</title>
<g id="a_edge11_Node000008_Node000012"><a xlink:title=" ">
<path fill="none" stroke="#63b8ff" d="M611.53,-172.97C633.69,-170.06 658.12,-166.86 678.97,-164.13"/>
<polygon fill="#63b8ff" stroke="#63b8ff" points="679.43,-167.6 688.89,-162.83 678.52,-160.66 679.43,-167.6"/>
</a>
</g>
</g>
<!-- Node10 -->
<g id="Node000010" class="node">
<title>Node10</title>
<g id="a_Node000010"><a xlink:href="Game_8cpp.html#ae2fa844b3cb1021ecbc357f8ed2ad8cc" target="_top" xlink:title=" ">
<polygon fill="white" stroke="#666666" points="971,-329 909,-329 909,-310 971,-310 971,-329"/>
<text text-anchor="middle" x="940" y="-317" font-family="Helvetica,sans-Serif" font-size="10.00">GetWorld</text>
</a>
</g>
</g>
<!-- Node9&#45;&gt;Node10 -->
<g id="edge9_Node000009_Node000010" class="edge">
<title>Node9&#45;&gt;Node10</title>
<g id="a_edge9_Node000009_Node000010"><a xlink:title=" ">
<path fill="none" stroke="#63b8ff" d="M764.5,-253.08C778.33,-257.26 794.53,-262.37 809,-267.5 842.93,-279.52 881.1,-295.03 907.26,-305.98"/>
<polygon fill="#63b8ff" stroke="#63b8ff" points="906.09,-309.28 916.66,-309.93 908.8,-302.83 906.09,-309.28"/>
</a>
</g>
</g>
<!-- Node13 -->
<g id="Node000013" class="node">
<title>Node13</title>
<g id="a_Node000013"><a xlink:href="actors_8c.html#a12dc3ccac4c7d8569eadac0af4fd6f9f" target="_top" xlink:title=" ">
<polygon fill="white" stroke="#666666" points="1019,-167 861,-167 861,-148 1019,-148 1019,-167"/>
<text text-anchor="middle" x="940" y="-155" font-family="Helvetica,sans-Serif" font-size="10.00">play_sound_before_despawn</text>
</a>
</g>
</g>
<!-- Node12&#45;&gt;Node13 -->
<g id="edge12_Node000012_Node000013" class="edge">
<title>Node12&#45;&gt;Node13</title>
<g id="a_edge12_Node000012_Node000013"><a xlink:title=" ">
<path fill="none" stroke="#63b8ff" d="M772,-157.5C794.48,-157.5 823.36,-157.5 850.77,-157.5"/>
<polygon fill="#63b8ff" stroke="#63b8ff" points="850.79,-161 860.79,-157.5 850.79,-154 850.79,-161"/>
</a>
</g>
</g>
<!-- Node14 -->
<g id="Node000014" class="node">
<title>Node14</title>
<g id="a_Node000014"><a xlink:href="external_8c.html#ae72057869772019e4464c87d4e16c682" target="_top" xlink:title=" ">
<polygon fill="white" stroke="#666666" points="1163,-167 1071,-167 1071,-148 1163,-148 1163,-167"/>
<text text-anchor="middle" x="1117" y="-155" font-family="Helvetica,sans-Serif" font-size="10.00">func_800C99E0</text>
</a>
</g>
</g>
<!-- Node13&#45;&gt;Node14 -->
<g id="edge13_Node000013_Node000014" class="edge">
<title>Node13&#45;&gt;Node14</title>
<g id="a_edge13_Node000013_Node000014"><a xlink:title=" ">
<path fill="none" stroke="#63b8ff" d="M1019.03,-157.5C1032.98,-157.5 1047.26,-157.5 1060.42,-157.5"/>
<polygon fill="#63b8ff" stroke="#63b8ff" points="1060.71,-161 1070.71,-157.5 1060.71,-154 1060.71,-161"/>
</a>
</g>
</g>
<!-- Node15 -->
<g id="Node000015" class="node">
<title>Node15</title>
<g id="a_Node000015"><a xlink:href="external_8c.html#aeb87c527482a244173df36a1f3d4f446" target="_top" xlink:title=" ">
<polygon fill="white" stroke="#666666" points="1291,-186 1199,-186 1199,-167 1291,-167 1291,-186"/>
<text text-anchor="middle" x="1245" y="-174" font-family="Helvetica,sans-Serif" font-size="10.00">func_800C21E8</text>
</a>
</g>
</g>
<!-- Node14&#45;&gt;Node15 -->
<g id="edge14_Node000014_Node000015" class="edge">
<title>Node14&#45;&gt;Node15</title>
<g id="a_edge14_Node000014_Node000015"><a xlink:title=" ">
<path fill="none" stroke="#63b8ff" d="M1163.13,-164.31C1171.46,-165.56 1180.23,-166.88 1188.81,-168.18"/>
<polygon fill="#63b8ff" stroke="#63b8ff" points="1188.35,-171.65 1198.76,-169.68 1189.39,-164.73 1188.35,-171.65"/>
</a>
</g>
</g>
<!-- Node16 -->
<g id="Node000016" class="node">
<title>Node16</title>
<g id="a_Node000016"><a xlink:href="external_8c.html#a028d40421b90c38f68ebfd5acc626f2e" target="_top" xlink:title=" ">
<polygon fill="white" stroke="#666666" points="1291,-149 1199,-149 1199,-130 1291,-130 1291,-149"/>
<text text-anchor="middle" x="1245" y="-137" font-family="Helvetica,sans-Serif" font-size="10.00">func_800C5578</text>
</a>
</g>
</g>
<!-- Node14&#45;&gt;Node16 -->
<g id="edge15_Node000014_Node000016" class="edge">
<title>Node14&#45;&gt;Node16</title>
<g id="a_edge15_Node000014_Node000016"><a xlink:title=" ">
<path fill="none" stroke="#63b8ff" d="M1163.13,-151.05C1171.46,-149.86 1180.23,-148.61 1188.81,-147.38"/>
<polygon fill="#63b8ff" stroke="#63b8ff" points="1189.35,-150.84 1198.76,-145.96 1188.36,-143.91 1189.35,-150.84"/>
</a>
</g>
</g>
<!-- Node17 -->
<g id="Node000017" class="node">
<title>Node17</title>
<g id="a_Node000017"><a xlink:href="external_8c.html#ac0fb767de7e14a03f1bcfa53f0abd23b" target="_top" xlink:title=" ">
<polygon fill="white" stroke="#666666" points="1467,-186 1327,-186 1327,-167 1467,-167 1467,-186"/>
<text text-anchor="middle" x="1397" y="-174" font-family="Helvetica,sans-Serif" font-size="10.00">delete_sound_from_bank</text>
</a>
</g>
</g>
<!-- Node16&#45;&gt;Node17 -->
<g id="edge16_Node000016_Node000017" class="edge">
<title>Node16&#45;&gt;Node17</title>
<g id="a_edge16_Node000016_Node000017"><a xlink:title=" ">
<path fill="none" stroke="#63b8ff" d="M1284.63,-149.03C1303.8,-153.76 1327.16,-159.52 1347.52,-164.54"/>
<polygon fill="#63b8ff" stroke="#63b8ff" points="1346.69,-167.94 1357.24,-166.94 1348.37,-161.15 1346.69,-167.94"/>
</a>
</g>
</g>
<!-- Node19 -->
<g id="Node000019" class="node">
<title>Node19</title>
<g id="a_Node000019"><a xlink:href="external_8c.html#ab83bd36e63f0f1baddcb2482b5ad31b0" target="_top" xlink:title=" ">
<polygon fill="white" stroke="#666666" points="1443.5,-149 1350.5,-149 1350.5,-130 1443.5,-130 1443.5,-149"/>
<text text-anchor="middle" x="1397" y="-137" font-family="Helvetica,sans-Serif" font-size="10.00">func_800C41CC</text>
</a>
</g>
</g>
<!-- Node16&#45;&gt;Node19 -->
<g id="edge18_Node000016_Node000019" class="edge">
<title>Node16&#45;&gt;Node19</title>
<g id="a_edge18_Node000016_Node000019"><a xlink:title=" ">
<path fill="none" stroke="#63b8ff" d="M1291,-139.5C1306.37,-139.5 1323.74,-139.5 1339.86,-139.5"/>
<polygon fill="#63b8ff" stroke="#63b8ff" points="1340.25,-143 1350.25,-139.5 1340.25,-136 1340.25,-143"/>
</a>
</g>
</g>
<!-- Node20 -->
<g id="Node000020" class="node">
<title>Node20</title>
<g id="a_Node000020"><a xlink:href="port__eu_8c.html#aa89dfaecca46c6d071f08c1898d1f7c9" target="_top" xlink:title=" ">
<polygon fill="white" stroke="#666666" points="1443.5,-112 1350.5,-112 1350.5,-93 1443.5,-93 1443.5,-112"/>
<text text-anchor="middle" x="1397" y="-100" font-family="Helvetica,sans-Serif" font-size="10.00">func_800CBBE8</text>
</a>
</g>
</g>
<!-- Node16&#45;&gt;Node20 -->
<g id="edge19_Node000016_Node000020" class="edge">
<title>Node16&#45;&gt;Node20</title>
<g id="a_edge19_Node000016_Node000020"><a xlink:title=" ">
<path fill="none" stroke="#63b8ff" d="M1284.63,-129.97C1303.8,-125.24 1327.16,-119.48 1347.52,-114.46"/>
<polygon fill="#63b8ff" stroke="#63b8ff" points="1348.37,-117.85 1357.24,-112.06 1346.69,-111.06 1348.37,-117.85"/>
</a>
</g>
</g>
<!-- Node18 -->
<g id="Node000018" class="node">
<title>Node18</title>
<g id="a_Node000018"><a xlink:href="external_8c.html#a358ac55e8ab5262dcae8037334be06d7" target="_top" xlink:title=" ">
<polygon fill="white" stroke="#666666" points="1595.5,-186 1503.5,-186 1503.5,-167 1595.5,-167 1595.5,-186"/>
<text text-anchor="middle" x="1549.5" y="-174" font-family="Helvetica,sans-Serif" font-size="10.00">func_800C40F0</text>
</a>
</g>
</g>
<!-- Node17&#45;&gt;Node18 -->
<g id="edge17_Node000017_Node000018" class="edge">
<title>Node17&#45;&gt;Node18</title>
<g id="a_edge17_Node000017_Node000018"><a xlink:title=" ">
<path fill="none" stroke="#63b8ff" d="M1467.08,-176.5C1475.87,-176.5 1484.78,-176.5 1493.31,-176.5"/>
<polygon fill="#63b8ff" stroke="#63b8ff" points="1493.5,-180 1503.5,-176.5 1493.5,-173 1493.5,-180"/>
</a>
</g>
</g>
<!-- Node21 -->
<g id="Node000021" class="node">
<title>Node21</title>
<g id="a_Node000021"><a xlink:href="port__eu_8c.html#af361a20d2e08f30c53a237ca481ff734" target="_top" xlink:title=" ">
<polygon fill="white" stroke="#666666" points="1596,-112 1503,-112 1503,-93 1596,-93 1596,-112"/>
<text text-anchor="middle" x="1549.5" y="-100" font-family="Helvetica,sans-Serif" font-size="10.00">func_800CBB48</text>
</a>
</g>
</g>
<!-- Node20&#45;&gt;Node21 -->
<g id="edge20_Node000020_Node000021" class="edge">
<title>Node20&#45;&gt;Node21</title>
<g id="a_edge20_Node000020_Node000021"><a xlink:title=" ">
<path fill="none" stroke="#63b8ff" d="M1443.56,-102.5C1458.96,-102.5 1476.34,-102.5 1492.46,-102.5"/>
<polygon fill="#63b8ff" stroke="#63b8ff" points="1492.83,-106 1502.83,-102.5 1492.83,-99 1492.83,-106"/>
</a>
</g>
</g>
<!-- Node23 -->
<g id="Node000023" class="node">
<title>Node23</title>
<g id="a_Node000023"><a xlink:href="math__util_8c.html#a79fd07a0971ec96a3ff0801963a2fa7f" target="_top" xlink:title=" ">
<polygon fill="white" stroke="#666666" points="762.5,-130 698.5,-130 698.5,-111 762.5,-111 762.5,-130"/>
<text text-anchor="middle" x="730.5" y="-118" font-family="Helvetica,sans-Serif" font-size="10.00">vec3f_set</text>
</a>
</g>
</g>
<!-- Node22&#45;&gt;Node23 -->
<g id="edge22_Node000022_Node000023" class="edge">
<title>Node22&#45;&gt;Node23</title>
<g id="a_edge22_Node000022_Node000023"><a xlink:title=" ">
<path fill="none" stroke="#63b8ff" d="M593.15,-133.91C622.58,-131.02 660.22,-127.31 688.5,-124.53"/>
<polygon fill="#63b8ff" stroke="#63b8ff" points="688.85,-128.01 698.46,-123.55 688.17,-121.05 688.85,-128.01"/>
</a>
</g>
</g>
<!-- Node26&#45;&gt;Node10 -->
<g id="edge32_Node000026_Node000010" class="edge">
<title>Node26&#45;&gt;Node10</title>
<g id="a_edge32_Node000026_Node000010"><a xlink:title=" ">
<path fill="none" stroke="#63b8ff" d="M439.06,-392.83C520.45,-388.26 677.45,-377.05 809,-353.5 839.61,-348.02 873.59,-339.03 899.13,-331.67"/>
<polygon fill="#63b8ff" stroke="#63b8ff" points="900.21,-335 908.83,-328.83 898.25,-328.28 900.21,-335"/>
</a>
</g>
</g>
<!-- Node27 -->
<g id="Node000027" class="node">
<title>Node27</title>
<g id="a_Node000027"><a xlink:href="classWorld.html#a0f40d5f6f8bd3c76ad1e1ca4ccc4b74f" target="_top" xlink:title=" ">
<polygon fill="white" stroke="#666666" points="608,-443 483,-443 483,-424 608,-424 608,-443"/>
<text text-anchor="middle" x="545.5" y="-431" font-family="Helvetica,sans-Serif" font-size="10.00">World::ActorBeginPlay</text>
</a>
</g>
</g>
<!-- Node26&#45;&gt;Node27 -->
<g id="edge26_Node000026_Node000027" class="edge">
<title>Node26&#45;&gt;Node27</title>
<g id="a_edge26_Node000026_Node000027"><a xlink:title=" ">
<path fill="none" stroke="#63b8ff" d="M424.5,-405.09C445.68,-410.1 471.8,-416.29 494.26,-421.61"/>
<polygon fill="#63b8ff" stroke="#63b8ff" points="493.75,-425.08 504.29,-423.98 495.37,-418.27 493.75,-425.08"/>
</a>
</g>
</g>
<!-- Node28 -->
<g id="Node000028" class="node">
<title>Node28</title>
<g id="a_Node000028"><a xlink:href="classAActor.html#aa18a335c99d43d74ac46328df5c4918b" target="_top" xlink:title=" ">
<polygon fill="white" stroke="#666666" points="782.5,-480 678.5,-480 678.5,-461 782.5,-461 782.5,-480"/>
<text text-anchor="middle" x="730.5" y="-468" font-family="Helvetica,sans-Serif" font-size="10.00">AActor::BeginPlay</text>
</a>
</g>
</g>
<!-- Node27&#45;&gt;Node28 -->
<g id="edge27_Node000027_Node000028" class="edge">
<title>Node27&#45;&gt;Node28</title>
<g id="a_edge27_Node000027_Node000028"><a xlink:title=" ">
<path fill="none" stroke="#63b8ff" d="M593.63,-443.03C617.65,-447.89 647.07,-453.83 672.38,-458.95"/>
<polygon fill="#63b8ff" stroke="#63b8ff" points="671.72,-462.39 682.21,-460.94 673.11,-455.53 671.72,-462.39"/>
</a>
</g>
</g>
<!-- Node31 -->
<g id="Node000031" class="node">
<title>Node31</title>
<g id="a_Node000031"><a xlink:href="classWorld.html#a944244b32a2219826939859c6138f6ab" target="_top" xlink:title=" ">
<polygon fill="white" stroke="#666666" points="809,-443 652,-443 652,-424 809,-424 809,-443"/>
<text text-anchor="middle" x="730.5" y="-431" font-family="Helvetica,sans-Serif" font-size="10.00">World::ConvertActorToAActor</text>
</a>
</g>
</g>
<!-- Node27&#45;&gt;Node31 -->
<g id="edge31_Node000027_Node000031" class="edge">
<title>Node27&#45;&gt;Node31</title>
<g id="a_edge31_Node000027_Node000031"><a xlink:title=" ">
<path fill="none" stroke="#63b8ff" d="M608.2,-433.5C618.93,-433.5 630.26,-433.5 641.53,-433.5"/>
<polygon fill="#63b8ff" stroke="#63b8ff" points="641.84,-437 651.84,-433.5 641.84,-430 641.84,-437"/>
</a>
</g>
</g>
<!-- Node29 -->
<g id="Node000029" class="node">
<title>Node29</title>
<g id="a_Node000029"><a xlink:href="Editor_8cpp.html#ad9cda86dc3eb2b6511a8c9a951945014" target="_top" xlink:title=" ">
<polygon fill="white" stroke="#666666" points="989,-507 891,-507 891,-488 989,-488 989,-507"/>
<text text-anchor="middle" x="940" y="-495" font-family="Helvetica,sans-Serif" font-size="10.00">Editor_IsEnabled</text>
</a>
</g>
</g>
<!-- Node28&#45;&gt;Node29 -->
<g id="edge28_Node000028_Node000029" class="edge">
<title>Node28&#45;&gt;Node29</title>
<g id="a_edge28_Node000028_Node000029"><a xlink:title=" ">
<path fill="none" stroke="#63b8ff" d="M782.53,-477.14C812.17,-481 849.65,-485.87 880.49,-489.89"/>
<polygon fill="#63b8ff" stroke="#63b8ff" points="880.3,-493.39 890.67,-491.21 881.2,-486.45 880.3,-493.39"/>
</a>
</g>
</g>
<!-- Node30 -->
<g id="Node000030" class="node">
<title>Node30</title>
<g id="a_Node000030"><a xlink:href="namespaceTrackEditor.html#a79d25f3b85758b1d930e2eb429655ead" target="_top" xlink:title=" ">
<polygon fill="white" stroke="#666666" points="1035,-452 845,-452 845,-433 1035,-433 1035,-452"/>
<text text-anchor="middle" x="940" y="-440" font-family="Helvetica,sans-Serif" font-size="10.00">TrackEditor::GenerateCollisionMesh</text>
</a>
</g>
</g>
<!-- Node28&#45;&gt;Node30 -->
<g id="edge29_Node000028_Node000030" class="edge">
<title>Node28&#45;&gt;Node30</title>
<g id="a_edge29_Node000028_Node000030"><a xlink:title=" ">
<path fill="none" stroke="#63b8ff" d="M782.53,-463.61C805.41,-460.53 832.95,-456.81 858.51,-453.36"/>
<polygon fill="#63b8ff" stroke="#63b8ff" points="859.12,-456.81 868.56,-452 858.19,-449.87 859.12,-456.81"/>
</a>
</g>
</g>
<!-- Node30&#45;&gt;Node30 -->
<g id="edge30_Node000030_Node000030" class="edge">
<title>Node30&#45;&gt;Node30</title>
<g id="a_edge30_Node000030_Node000030"><a xlink:title=" ">
<path fill="none" stroke="#63b8ff" d="M912.87,-452.08C899.68,-460.73 908.72,-470 940,-470 961.02,-470 972,-465.82 972.93,-460.45"/>
<polygon fill="#63b8ff" stroke="#63b8ff" points="975.7,-458.3 967.13,-452.08 969.95,-462.29 975.7,-458.3"/>
</a>
</g>
</g>
<!-- Node32&#45;&gt;Node10 -->
<g id="edge35_Node000032_Node000010" class="edge">
<title>Node32&#45;&gt;Node10</title>
<g id="a_edge35_Node000032_Node000010"><a xlink:title=" ">
<path fill="none" stroke="#63b8ff" d="M420.92,-329.01C437.35,-332.77 457.02,-336.64 475,-338.5 631,-354.61 817.82,-335.27 898.56,-325.05"/>
<polygon fill="#63b8ff" stroke="#63b8ff" points="899.31,-328.48 908.78,-323.73 898.41,-321.54 899.31,-328.48"/>
</a>
</g>
</g>
<!-- Node33 -->
<g id="Node000033" class="node">
<title>Node33</title>
<g id="a_Node000033"><a xlink:href="classWorld.html#a215117703aa8944483793767a0fb80ed" target="_top" xlink:title=" ">
<polygon fill="white" stroke="#666666" points="605,-329 486,-329 486,-310 605,-310 605,-329"/>
<text text-anchor="middle" x="545.5" y="-317" font-family="Helvetica,sans-Serif" font-size="10.00">World::AddBaseActor</text>
</a>
</g>
</g>
<!-- Node32&#45;&gt;Node33 -->
<g id="edge34_Node000032_Node000033" class="edge">
<title>Node32&#45;&gt;Node33</title>
<g id="a_edge34_Node000032_Node000033"><a xlink:title=" ">
<path fill="none" stroke="#63b8ff" d="M436.11,-319.5C448.8,-319.5 462.57,-319.5 475.9,-319.5"/>
<polygon fill="#63b8ff" stroke="#63b8ff" points="475.98,-323 485.98,-319.5 475.98,-316 475.98,-323"/>
</a>
</g>
</g>
<!-- Node34&#45;&gt;Node10 -->
<g id="edge37_Node000034_Node000010" class="edge">
<title>Node34&#45;&gt;Node10</title>
<g id="a_edge37_Node000034_Node000010"><a xlink:title=" ">
<path fill="none" stroke="#63b8ff" d="M433.74,-284.91C542.33,-292.34 798.85,-309.9 898.46,-316.72"/>
<polygon fill="#63b8ff" stroke="#63b8ff" points="898.49,-320.23 908.71,-317.43 898.97,-313.25 898.49,-320.23"/>
</a>
</g>
</g>
</g>
</svg>
