<?xml version="1.0" encoding="UTF-8" standalone="no"?>
<!DOCTYPE svg PUBLIC "-//W3C//DTD SVG 1.1//EN"
 "http://www.w3.org/Graphics/SVG/1.1/DTD/svg11.dtd">
<!-- Generated by graphviz version 2.43.0 (0)
 -->
<!-- Title: unused Pages: 1 -->
<!--zoomable 652 -->

<svg id="main" version="1.1" xmlns="http://www.w3.org/2000/svg" xmlns:xlink="http://www.w3.org/1999/xlink" xml:space="preserve" onload="init(evt)">

<style type="text/css"><![CDATA[
.node, .edge {opacity: 0.7;}
.node.selected, .edge.selected {opacity: 1;}
.edge:hover path { stroke: red; }
.edge:hover polygon { stroke: red; fill: red; }
]]></style>

<defs>
  <circle id="rim" cx="0" cy="0" r="7"/>
  <circle id="rim2" cx="0" cy="0" r="3.5"/>
  <g id="zoomPlus">
    <use xlink:href="#rim" fill="#404040"><set attributeName="fill" to="#808080" begin="zoomplus.mouseover" end="zoomplus.mouseout"/></use>
    <path d="M-4,0h8M0,-4v8" fill="none" stroke="white" stroke-width="1.5" pointer-events="none"/>
  </g>
  <g id="zoomMin">
    <use xlink:href="#rim" fill="#404040"><set attributeName="fill" to="#808080" begin="zoomminus.mouseover" end="zoomminus.mouseout"/></use>
    <path d="M-4,0h8" fill="none" stroke="white" stroke-width="1.5" pointer-events="none"/>
  </g>
  <g id="arrowUp" transform="translate(30 24)">
    <use xlink:href="#rim"/>
    <path pointer-events="none" fill="none" stroke="white" stroke-width="1.5" d="M0,-3.0v7 M-2.5,-0.5L0,-3.0L2.5,-0.5"/>
  </g>
  <g id="arrowRight" transform="rotate(90) translate(36 -43)">
    <use xlink:href="#rim"/>
    <path pointer-events="none" fill="none" stroke="white" stroke-width="1.5" d="M0,-3.0v7 M-2.5,-0.5L0,-3.0L2.5,-0.5"/>
  </g>
  <g id="arrowDown" transform="rotate(180) translate(-30 -48)">
    <use xlink:href="#rim"/>
    <path pointer-events="none" fill="none" stroke="white" stroke-width="1.5" d="M0,-3.0v7 M-2.5,-0.5L0,-3.0L2.5,-0.5"/>
  </g>
  <g id="arrowLeft" transform="rotate(270) translate(-36 17)">
    <use xlink:href="#rim"/>
    <path pointer-events="none" fill="none" stroke="white" stroke-width="1.5" d="M0,-3.0v7 M-2.5,-0.5L0,-3.0L2.5,-0.5"/>
  </g>
  <g id="resetDef">
    <use xlink:href="#rim2" fill="#404040"><set attributeName="fill" to="#808080" begin="reset.mouseover" end="reset.mouseout"/></use>
  </g>
</defs>
<script type="application/ecmascript">
var viewWidth = 1411;
var viewHeight = 652;
var sectionId = 'dynsection-3';
</script>
<script type="application/ecmascript" xlink:href="svg.min.js"/>
<svg id="graph" class="graph">
<g id="viewport">
<title>unused</title>
<!-- Node1 -->
<g id="Node000001" class="node">
<title>Node1</title>
<g id="a_Node000001"><a xlink:title=" ">
<polygon fill="#999999" stroke="#666666" points="1403,-134 1351,-134 1351,-115 1403,-115 1403,-134"/>
<text text-anchor="middle" x="1377" y="-122" font-family="Helvetica,sans-Serif" font-size="10.00">unused</text>
</a>
</g>
</g>
<!-- Node2 -->
<g id="Node000002" class="node">
<title>Node2</title>
<g id="a_Node000002"><a xlink:href="__Ldtob_8c.html#a7cc858157b66e15c831ad085113729ae" target="_top" xlink:title=" ">
<polygon fill="white" stroke="#666666" points="1280.5,-210 1231.5,-210 1231.5,-191 1280.5,-191 1280.5,-210"/>
<text text-anchor="middle" x="1256" y="-198" font-family="Helvetica,sans-Serif" font-size="10.00">_Ldtob</text>
</a>
</g>
</g>
<!-- Node1&#45;&gt;Node2 -->
<g id="edge1_Node000001_Node000002" class="edge">
<title>Node1&#45;&gt;Node2</title>
<g id="a_edge1_Node000001_Node000002"><a xlink:title=" ">
<path fill="none" stroke="#63b8ff" d="M1359.13,-141.43C1347.47,-152.46 1331.2,-166.59 1315,-176.5 1304.31,-183.04 1291.52,-188.55 1280.67,-192.63"/>
<polygon fill="#63b8ff" stroke="#63b8ff" points="1361.65,-143.86 1366.4,-134.38 1356.78,-138.83 1361.65,-143.86"/>
</a>
</g>
</g>
<!-- Node18 -->
<g id="Node000018" class="node">
<title>Node18</title>
<g id="a_Node000018"><a xlink:href="menu__items_8c.html#ae1c49d1d64d691675110d1b5f7abe0f5" target="_top" xlink:title=" ">
<polygon fill="white" stroke="#666666" points="92.5,-380 0.5,-380 0.5,-361 92.5,-361 92.5,-380"/>
<text text-anchor="middle" x="46.5" y="-368" font-family="Helvetica,sans-Serif" font-size="10.00">func_800A1F30</text>
</a>
</g>
</g>
<!-- Node1&#45;&gt;Node18 -->
<g id="edge36_Node000001_Node000018" class="edge">
<title>Node1&#45;&gt;Node18</title>
<g id="a_edge36_Node000001_Node000018"><a xlink:title=" ">
<path fill="none" stroke="#63b8ff" d="M1341.18,-136.69C1332.7,-139.29 1323.6,-141.76 1315,-143.5 1229.21,-160.83 1206.52,-162.5 1119,-162.5 1119,-162.5 1119,-162.5 364,-162.5 259.18,-162.5 214.11,-121.31 129,-182.5 67.19,-226.94 51.77,-328.45 48.37,-360.57"/>
<polygon fill="#63b8ff" stroke="#63b8ff" points="1342.31,-140.01 1350.78,-133.63 1340.19,-133.34 1342.31,-140.01"/>
</a>
</g>
</g>
<!-- Node114 -->
<g id="Node000114" class="node">
<title>Node114</title>
<g id="a_Node000114"><a xlink:href="alBnkfNew_8c.html#ac90d78f312987c62aa7406792880cef1" target="_top" xlink:title=" ">
<polygon fill="white" stroke="#666666" points="1291,-134 1221,-134 1221,-115 1291,-115 1291,-134"/>
<text text-anchor="middle" x="1256" y="-122" font-family="Helvetica,sans-Serif" font-size="10.00">alBnkfNew</text>
</a>
</g>
</g>
<!-- Node1&#45;&gt;Node114 -->
<g id="edge35_Node000001_Node000114" class="edge">
<title>Node1&#45;&gt;Node114</title>
<g id="a_edge35_Node000001_Node000114"><a xlink:title=" ">
<path fill="none" stroke="#63b8ff" d="M1340.46,-124.5C1324.88,-124.5 1306.66,-124.5 1291.23,-124.5"/>
<polygon fill="#63b8ff" stroke="#63b8ff" points="1340.76,-128 1350.76,-124.5 1340.76,-121 1340.76,-128"/>
</a>
</g>
</g>
<!-- Node115 -->
<g id="Node000115" class="node">
<title>Node115</title>
<g id="a_Node000115"><a xlink:href="main_8c.html#adc4ddc4dba28c4eebe8a7c28e5559b11" target="_top" xlink:title=" ">
<polygon fill="white" stroke="#666666" points="1299,-97 1213,-97 1213,-78 1299,-78 1299,-97"/>
<text text-anchor="middle" x="1256" y="-85" font-family="Helvetica,sans-Serif" font-size="10.00">thread4_audio</text>
</a>
</g>
</g>
<!-- Node1&#45;&gt;Node115 -->
<g id="edge37_Node000001_Node000115" class="edge">
<title>Node1&#45;&gt;Node115</title>
<g id="a_edge37_Node000001_Node000115"><a xlink:title=" ">
<path fill="none" stroke="#63b8ff" d="M1341.21,-113.68C1324.26,-108.41 1304.06,-102.13 1287.69,-97.04"/>
<polygon fill="#63b8ff" stroke="#63b8ff" points="1340.17,-117.03 1350.76,-116.65 1342.25,-110.34 1340.17,-117.03"/>
</a>
</g>
</g>
<!-- Node119 -->
<g id="Node000119" class="node">
<title>Node119</title>
<g id="a_Node000119"><a xlink:href="code__80005FD0_8c.html#a349cc2fd811ee327a424d63b0fb85ebf" target="_top" xlink:title=" ">
<polygon fill="white" stroke="#666666" points="1315,-59.5 1197,-59.5 1197,-29.5 1315,-29.5 1315,-59.5"/>
<text text-anchor="start" x="1205" y="-47.5" font-family="Helvetica,sans-Serif" font-size="10.00">update_player_timer</text>
<text text-anchor="middle" x="1256" y="-36.5" font-family="Helvetica,sans-Serif" font-size="10.00">_sound</text>
</a>
</g>
</g>
<!-- Node1&#45;&gt;Node119 -->
<g id="edge41_Node000001_Node000119" class="edge">
<title>Node1&#45;&gt;Node119</title>
<g id="a_edge41_Node000001_Node000119"><a xlink:title=" ">
<path fill="none" stroke="#63b8ff" d="M1360.06,-107.43C1348.41,-95.66 1331.77,-80.26 1315,-69.5 1309.37,-65.89 1303.13,-62.58 1296.89,-59.63"/>
<polygon fill="#63b8ff" stroke="#63b8ff" points="1357.81,-110.14 1367.28,-114.9 1362.85,-105.27 1357.81,-110.14"/>
</a>
</g>
</g>
<!-- Node3 -->
<g id="Node000003" class="node">
<title>Node3</title>
<g id="a_Node000003"><a xlink:href="__Printf_8c.html#ad73a5847f2d7c9de14cc2723da86bf45" target="_top" xlink:title=" ">
<polygon fill="white" stroke="#666666" points="1143,-247 1093,-247 1093,-228 1143,-228 1143,-247"/>
<text text-anchor="middle" x="1118" y="-235" font-family="Helvetica,sans-Serif" font-size="10.00">_Putfld</text>
</a>
</g>
</g>
<!-- Node2&#45;&gt;Node3 -->
<g id="edge2_Node000002_Node000003" class="edge">
<title>Node2&#45;&gt;Node3</title>
<g id="a_edge2_Node000002_Node000003"><a xlink:title=" ">
<path fill="none" stroke="#63b8ff" d="M1221.47,-209.62C1197.26,-216.21 1165.12,-224.95 1143.33,-230.88"/>
<polygon fill="#63b8ff" stroke="#63b8ff" points="1222.58,-212.95 1231.31,-206.94 1220.74,-206.19 1222.58,-212.95"/>
</a>
</g>
</g>
<!-- Node4 -->
<g id="Node000004" class="node">
<title>Node4</title>
<g id="a_Node000004"><a xlink:href="__Printf_8c.html#a39bb05c90efce6c6790c5d58d271d72d" target="_top" xlink:title=" ">
<polygon fill="white" stroke="#666666" points="1017,-290 969,-290 969,-271 1017,-271 1017,-290"/>
<text text-anchor="middle" x="993" y="-278" font-family="Helvetica,sans-Serif" font-size="10.00">_Printf</text>
</a>
</g>
</g>
<!-- Node3&#45;&gt;Node4 -->
<g id="edge3_Node000003_Node000004" class="edge">
<title>Node3&#45;&gt;Node4</title>
<g id="a_edge3_Node000003_Node000004"><a xlink:title=" ">
<path fill="none" stroke="#63b8ff" d="M1083.46,-249.22C1062.42,-256.58 1035.82,-265.88 1017.11,-272.42"/>
<polygon fill="#63b8ff" stroke="#63b8ff" points="1084.71,-252.5 1092.99,-245.89 1082.4,-245.89 1084.71,-252.5"/>
</a>
</g>
</g>
<!-- Node5 -->
<g id="Node000005" class="node">
<title>Node5</title>
<g id="a_Node000005"><a xlink:href="is__debug_8c.html#a0a0b1c5c397ef1486b9b08b2e872ff5f" target="_top" xlink:title=" ">
<polygon fill="white" stroke="#666666" points="892.5,-403 815.5,-403 815.5,-384 892.5,-384 892.5,-403"/>
<text text-anchor="middle" x="854" y="-391" font-family="Helvetica,sans-Serif" font-size="10.00">osSyncPrintf</text>
</a>
</g>
</g>
<!-- Node4&#45;&gt;Node5 -->
<g id="edge4_Node000004_Node000005" class="edge">
<title>Node4&#45;&gt;Node5</title>
<g id="a_edge4_Node000004_Node000005"><a xlink:title=" ">
<path fill="none" stroke="#63b8ff" d="M979.42,-298.4C964.85,-318.03 939.21,-349.42 911,-369.5 902.73,-375.39 892.78,-380.24 883.59,-383.99"/>
<polygon fill="#63b8ff" stroke="#63b8ff" points="982.44,-300.19 985.47,-290.04 976.77,-296.09 982.44,-300.19"/>
</a>
</g>
</g>
<!-- Node6 -->
<g id="Node000006" class="node">
<title>Node6</title>
<g id="a_Node000006"><a xlink:href="osSyncPrintf_8c.html#a8b417b868747c80d58f83d8a1e78ecf3" target="_top" xlink:title=" ">
<polygon fill="white" stroke="#666666" points="728,-384 660,-384 660,-365 728,-365 728,-384"/>
<text text-anchor="middle" x="694" y="-372" font-family="Helvetica,sans-Serif" font-size="10.00">rmonPrintf</text>
</a>
</g>
</g>
<!-- Node4&#45;&gt;Node6 -->
<g id="edge33_Node000004_Node000006" class="edge">
<title>Node4&#45;&gt;Node6</title>
<g id="a_edge33_Node000004_Node000006"><a xlink:title=" ">
<path fill="none" stroke="#63b8ff" d="M973.57,-296.73C957.98,-309.56 934.49,-326.86 911,-336.5 849.53,-361.73 771.5,-370.22 728.05,-373.07"/>
<polygon fill="#63b8ff" stroke="#63b8ff" points="975.99,-299.27 981.37,-290.14 971.47,-293.92 975.99,-299.27"/>
</a>
</g>
</g>
<!-- Node7 -->
<g id="Node000007" class="node">
<title>Node7</title>
<g id="a_Node000007"><a xlink:href="is__debug_8c.html#a07582d28e6728e94c69884a4ad3038f8" target="_top" xlink:title=" ">
<polygon fill="white" stroke="#666666" points="911,-327 797,-327 797,-308 911,-308 911,-327"/>
<text text-anchor="middle" x="854" y="-315" font-family="Helvetica,sans-Serif" font-size="10.00">osSyncPrintfUnused</text>
</a>
</g>
</g>
<!-- Node4&#45;&gt;Node7 -->
<g id="edge6_Node000004_Node000007" class="edge">
<title>Node4&#45;&gt;Node7</title>
<g id="a_edge6_Node000004_Node000007"><a xlink:title=" ">
<path fill="none" stroke="#63b8ff" d="M959.09,-289.39C938.29,-295.01 911.43,-302.26 890.21,-307.99"/>
<polygon fill="#63b8ff" stroke="#63b8ff" points="960.02,-292.76 968.76,-286.78 958.19,-286 960.02,-292.76"/>
</a>
</g>
</g>
<!-- Node8 -->
<g id="Node000008" class="node">
<title>Node8</title>
<g id="a_Node000008"><a xlink:href="is__debug_8c.html#a42e65774c872bb2ffd35e7827f481776" target="_top" xlink:title=" ">
<polygon fill="white" stroke="#666666" points="873.5,-290 834.5,-290 834.5,-271 873.5,-271 873.5,-290"/>
<text text-anchor="middle" x="854" y="-278" font-family="Helvetica,sans-Serif" font-size="10.00">print</text>
</a>
</g>
</g>
<!-- Node4&#45;&gt;Node8 -->
<g id="edge7_Node000004_Node000008" class="edge">
<title>Node4&#45;&gt;Node8</title>
<g id="a_edge7_Node000004_Node000008"><a xlink:title=" ">
<path fill="none" stroke="#63b8ff" d="M958.68,-280.5C931.91,-280.5 895.3,-280.5 873.51,-280.5"/>
<polygon fill="#63b8ff" stroke="#63b8ff" points="958.76,-284 968.76,-280.5 958.76,-277 958.76,-284"/>
</a>
</g>
</g>
<!-- Node9 -->
<g id="Node000009" class="node">
<title>Node9</title>
<g id="a_Node000009"><a xlink:href="stubs_8c.html#a8b417b868747c80d58f83d8a1e78ecf3" target="_top" xlink:title=" ">
<polygon fill="white" stroke="#666666" points="888,-253 820,-253 820,-234 888,-234 888,-253"/>
<text text-anchor="middle" x="854" y="-241" font-family="Helvetica,sans-Serif" font-size="10.00">rmonPrintf</text>
</a>
</g>
</g>
<!-- Node4&#45;&gt;Node9 -->
<g id="edge8_Node000004_Node000009" class="edge">
<title>Node4&#45;&gt;Node9</title>
<g id="a_edge8_Node000004_Node000009"><a xlink:title=" ">
<path fill="none" stroke="#63b8ff" d="M959.09,-271.61C937.61,-265.81 909.66,-258.26 888.13,-252.45"/>
<polygon fill="#63b8ff" stroke="#63b8ff" points="958.19,-275 968.76,-274.22 960.02,-268.24 958.19,-275"/>
</a>
</g>
</g>
<!-- Node113 -->
<g id="Node000113" class="node">
<title>Node113</title>
<g id="a_Node000113"><a xlink:href="sprintf_8c.html#a353b2f73aed82bd1eb8cc2b34ec936d9" target="_top" xlink:title=" ">
<polygon fill="white" stroke="#666666" points="878,-216 830,-216 830,-197 878,-197 878,-216"/>
<text text-anchor="middle" x="854" y="-204" font-family="Helvetica,sans-Serif" font-size="10.00">sprintf</text>
</a>
</g>
</g>
<!-- Node4&#45;&gt;Node113 -->
<g id="edge34_Node000004_Node000113" class="edge">
<title>Node4&#45;&gt;Node113</title>
<g id="a_edge34_Node000004_Node000113"><a xlink:title=" ">
<path fill="none" stroke="#63b8ff" d="M972.01,-264.67C956.16,-252.7 933.08,-236.49 911,-225.5 900.61,-220.33 888.49,-216.02 878.18,-212.82"/>
<polygon fill="#63b8ff" stroke="#63b8ff" points="969.95,-267.51 980.01,-270.83 974.22,-261.96 969.95,-267.51"/>
</a>
</g>
</g>
<!-- Node5&#45;&gt;Node6 -->
<g id="edge5_Node000005_Node000006" class="edge">
<title>Node5&#45;&gt;Node6</title>
<g id="a_edge5_Node000005_Node000006"><a xlink:title=" ">
<path fill="none" stroke="#63b8ff" d="M805.19,-387.75C780.34,-384.76 750.57,-381.18 728.25,-378.5"/>
<polygon fill="#63b8ff" stroke="#63b8ff" points="804.81,-391.23 815.16,-388.95 805.64,-384.28 804.81,-391.23"/>
</a>
</g>
</g>
<!-- Node10 -->
<g id="Node000010" class="node">
<title>Node10</title>
<g id="a_Node000010"><a xlink:href="menus_8c.html#a8b056069ac34db88a251d9da269821dc" target="_top" xlink:title=" ">
<polygon fill="white" stroke="#666666" points="759.5,-325.5 628.5,-325.5 628.5,-295.5 759.5,-295.5 759.5,-325.5"/>
<text text-anchor="start" x="636.5" y="-313.5" font-family="Helvetica,sans-Serif" font-size="10.00">debug_print_ghost_kart</text>
<text text-anchor="middle" x="694" y="-302.5" font-family="Helvetica,sans-Serif" font-size="10.00">_character_id</text>
</a>
</g>
</g>
<!-- Node9&#45;&gt;Node10 -->
<g id="edge9_Node000009_Node000010" class="edge">
<title>Node9&#45;&gt;Node10</title>
<g id="a_edge9_Node000009_Node000010"><a xlink:title=" ">
<path fill="none" stroke="#63b8ff" d="M810.6,-256.56C805.94,-258.39 801.32,-260.37 797,-262.5 779.75,-270.99 778.16,-277.82 761,-286.5 754.69,-289.69 747.85,-292.67 741.05,-295.37"/>
<polygon fill="#63b8ff" stroke="#63b8ff" points="811.97,-259.79 820.14,-253.05 809.55,-253.22 811.97,-259.79"/>
</a>
</g>
</g>
<!-- Node11 -->
<g id="Node000011" class="node">
<title>Node11</title>
<g id="a_Node000011"><a xlink:href="menu__items_8c.html#a37eb021a953285ba504198ac6ca73a9a" target="_top" xlink:title=" ">
<polygon fill="white" stroke="#666666" points="740.5,-277 647.5,-277 647.5,-258 740.5,-258 740.5,-277"/>
<text text-anchor="middle" x="694" y="-265" font-family="Helvetica,sans-Serif" font-size="10.00">func_80095BD0</text>
</a>
</g>
</g>
<!-- Node9&#45;&gt;Node11 -->
<g id="edge10_Node000009_Node000011" class="edge">
<title>Node9&#45;&gt;Node11</title>
<g id="a_edge10_Node000009_Node000011"><a xlink:title=" ">
<path fill="none" stroke="#63b8ff" d="M809.75,-250.07C788.31,-253.33 762.42,-257.26 740.66,-260.56"/>
<polygon fill="#63b8ff" stroke="#63b8ff" points="810.52,-253.49 819.88,-248.53 809.47,-246.57 810.52,-253.49"/>
</a>
</g>
</g>
<!-- Node62 -->
<g id="Node000062" class="node">
<title>Node62</title>
<g id="a_Node000062"><a xlink:href="menu__items_8c.html#ad129d5fc839c6e03c8d1399f72f53071" target="_top" xlink:title=" ">
<polygon fill="white" stroke="#666666" points="755,-239.5 633,-239.5 633,-209.5 755,-209.5 755,-239.5"/>
<text text-anchor="start" x="641" y="-227.5" font-family="Helvetica,sans-Serif" font-size="10.00">func_80095BD0_wide</text>
<text text-anchor="middle" x="694" y="-216.5" font-family="Helvetica,sans-Serif" font-size="10.00">_right</text>
</a>
</g>
</g>
<!-- Node9&#45;&gt;Node62 -->
<g id="edge26_Node000009_Node000062" class="edge">
<title>Node9&#45;&gt;Node62</title>
<g id="a_edge26_Node000009_Node000062"><a xlink:title=" ">
<path fill="none" stroke="#63b8ff" d="M809.79,-238.3C792.96,-236.28 773.38,-233.93 755.21,-231.74"/>
<polygon fill="#63b8ff" stroke="#63b8ff" points="809.53,-241.8 819.88,-239.52 810.37,-234.85 809.53,-241.8"/>
</a>
</g>
</g>
<!-- Node12 -->
<g id="Node000012" class="node">
<title>Node12</title>
<g id="a_Node000012"><a xlink:href="menu__items_8c.html#aafca6e35a19465ad361e68b13e467243" target="_top" xlink:title=" ">
<polygon fill="white" stroke="#666666" points="563,-418 492,-418 492,-399 563,-399 563,-418"/>
<text text-anchor="middle" x="527.5" y="-406" font-family="Helvetica,sans-Serif" font-size="10.00">print_letter</text>
</a>
</g>
</g>
<!-- Node11&#45;&gt;Node12 -->
<g id="edge11_Node000011_Node000012" class="edge">
<title>Node11&#45;&gt;Node12</title>
<g id="a_edge11_Node000011_Node000012"><a xlink:title=" ">
<path fill="none" stroke="#63b8ff" d="M637.77,-280.54C634,-282.29 630.37,-284.26 627,-286.5 580.96,-317.06 546,-375.87 533.5,-398.91"/>
<polygon fill="#63b8ff" stroke="#63b8ff" points="639.4,-283.66 647.35,-276.65 636.77,-277.17 639.4,-283.66"/>
</a>
</g>
</g>
<!-- Node13 -->
<g id="Node000013" class="node">
<title>Node13</title>
<g id="a_Node000013"><a xlink:href="menu__items_8c.html#a07904969a6bc8374f305d668f432b26a" target="_top" xlink:title=" ">
<polygon fill="white" stroke="#666666" points="400,-589 330,-589 330,-570 400,-570 400,-589"/>
<text text-anchor="middle" x="365" y="-577" font-family="Helvetica,sans-Serif" font-size="10.00">print_text0</text>
</a>
</g>
</g>
<!-- Node12&#45;&gt;Node13 -->
<g id="edge12_Node000012_Node000013" class="edge">
<title>Node12&#45;&gt;Node13</title>
<g id="a_edge12_Node000012_Node000013"><a xlink:title=" ">
<path fill="none" stroke="#63b8ff" d="M510.21,-425.85C476.71,-461.55 401.02,-542.19 374.99,-569.92"/>
<polygon fill="#63b8ff" stroke="#63b8ff" points="513.12,-427.87 517.41,-418.18 508.02,-423.08 513.12,-427.87"/>
</a>
</g>
</g>
<!-- Node41 -->
<g id="Node000041" class="node">
<title>Node41</title>
<g id="a_Node000041"><a xlink:href="menu__items_8c.html#ad2af1a6781c3f0bf246aba0d078ae773" target="_top" xlink:title=" ">
<polygon fill="white" stroke="#666666" points="400,-455 330,-455 330,-436 400,-436 400,-455"/>
<text text-anchor="middle" x="365" y="-443" font-family="Helvetica,sans-Serif" font-size="10.00">print_text1</text>
</a>
</g>
</g>
<!-- Node12&#45;&gt;Node41 -->
<g id="edge18_Node000012_Node000041" class="edge">
<title>Node12&#45;&gt;Node41</title>
<g id="a_edge18_Node000012_Node000041"><a xlink:title=" ">
<path fill="none" stroke="#63b8ff" d="M481.75,-418.82C455.94,-424.77 424,-432.13 400.21,-437.61"/>
<polygon fill="#63b8ff" stroke="#63b8ff" points="482.72,-422.19 491.67,-416.53 481.14,-415.36 482.72,-422.19"/>
</a>
</g>
</g>
<!-- Node55 -->
<g id="Node000055" class="node">
<title>Node55</title>
<g id="a_Node000055"><a xlink:href="menu__items_8c.html#afa1d2583978658f8524340b7b94544b1" target="_top" xlink:title=" ">
<polygon fill="white" stroke="#666666" points="400,-381 330,-381 330,-362 400,-362 400,-381"/>
<text text-anchor="middle" x="365" y="-369" font-family="Helvetica,sans-Serif" font-size="10.00">print_text2</text>
</a>
</g>
</g>
<!-- Node12&#45;&gt;Node55 -->
<g id="edge23_Node000012_Node000055" class="edge">
<title>Node12&#45;&gt;Node55</title>
<g id="a_edge23_Node000012_Node000055"><a xlink:title=" ">
<path fill="none" stroke="#63b8ff" d="M481.75,-398.18C455.94,-392.23 424,-384.87 400.21,-379.39"/>
<polygon fill="#63b8ff" stroke="#63b8ff" points="481.14,-401.64 491.67,-400.47 482.72,-394.81 481.14,-401.64"/>
</a>
</g>
</g>
<!-- Node14 -->
<g id="Node000014" class="node">
<title>Node14</title>
<g id="a_Node000014"><a xlink:href="menu__items_8c.html#ad7caaa9bd54f2228a931877bd6eb3b87" target="_top" xlink:title=" ">
<polygon fill="#fff0f0" stroke="red" points="251.5,-626 143.5,-626 143.5,-607 251.5,-607 251.5,-626"/>
<text text-anchor="middle" x="197.5" y="-614" font-family="Helvetica,sans-Serif" font-size="10.00">print_text_mode_1</text>
</a>
</g>
</g>
<!-- Node13&#45;&gt;Node14 -->
<g id="edge13_Node000013_Node000014" class="edge">
<title>Node13&#45;&gt;Node14</title>
<g id="a_edge13_Node000013_Node000014"><a xlink:title=" ">
<path fill="none" stroke="#63b8ff" d="M319.67,-589.41C295.36,-594.85 265.36,-601.55 241.29,-606.93"/>
<polygon fill="#63b8ff" stroke="#63b8ff" points="320.71,-592.76 329.71,-587.17 319.19,-585.93 320.71,-592.76"/>
</a>
</g>
</g>
<!-- Node40 -->
<g id="Node000040" class="node">
<title>Node40</title>
<g id="a_Node000040"><a xlink:href="menu__items_8c.html#a339d2d418704e61fba5d9bd467ebebfd" target="_top" xlink:title=" ">
<polygon fill="#fff0f0" stroke="red" points="251.5,-589 143.5,-589 143.5,-570 251.5,-570 251.5,-589"/>
<text text-anchor="middle" x="197.5" y="-577" font-family="Helvetica,sans-Serif" font-size="10.00">print_text_mode_2</text>
</a>
</g>
</g>
<!-- Node13&#45;&gt;Node40 -->
<g id="edge17_Node000013_Node000040" class="edge">
<title>Node13&#45;&gt;Node40</title>
<g id="a_edge17_Node000013_Node000040"><a xlink:title=" ">
<path fill="none" stroke="#63b8ff" d="M319.51,-579.5C298.61,-579.5 273.54,-579.5 251.65,-579.5"/>
<polygon fill="#63b8ff" stroke="#63b8ff" points="319.71,-583 329.71,-579.5 319.71,-576 319.71,-583"/>
</a>
</g>
</g>
<!-- Node15 -->
<g id="Node000015" class="node">
<title>Node15</title>
<g id="a_Node000015"><a xlink:href="menu__items_8c.html#a72503793b504611ce264cfb68fcbc01c" target="_top" xlink:title=" ">
<polygon fill="white" stroke="#666666" points="92,-644 1,-644 1,-625 92,-625 92,-644"/>
<text text-anchor="middle" x="46.5" y="-632" font-family="Helvetica,sans-Serif" font-size="10.00">func_800930E4</text>
</a>
</g>
</g>
<!-- Node14&#45;&gt;Node15 -->
<g id="edge14_Node000014_Node000015" class="edge">
<title>Node14&#45;&gt;Node15</title>
<g id="a_edge14_Node000014_Node000015"><a xlink:title=" ">
<path fill="none" stroke="#63b8ff" d="M133.19,-624.15C119.39,-625.82 105.05,-627.55 92.15,-629.11"/>
<polygon fill="#63b8ff" stroke="#63b8ff" points="133.62,-627.62 143.13,-622.95 132.78,-620.67 133.62,-627.62"/>
</a>
</g>
</g>
<!-- Node16 -->
<g id="Node000016" class="node">
<title>Node16</title>
<g id="a_Node000016"><a xlink:href="menu__items_8c.html#abb912ddea43d5de759cf94ccdf913c19" target="_top" xlink:title=" ">
<polygon fill="white" stroke="#666666" points="93,-607 0,-607 0,-588 93,-588 93,-607"/>
<text text-anchor="middle" x="46.5" y="-595" font-family="Helvetica,sans-Serif" font-size="10.00">func_800A10CC</text>
</a>
</g>
</g>
<!-- Node14&#45;&gt;Node16 -->
<g id="edge15_Node000014_Node000016" class="edge">
<title>Node14&#45;&gt;Node16</title>
<g id="a_edge15_Node000014_Node000016"><a xlink:title=" ">
<path fill="none" stroke="#63b8ff" d="M133,-608.4C119.59,-606.69 105.7,-604.92 93.11,-603.32"/>
<polygon fill="#63b8ff" stroke="#63b8ff" points="132.77,-611.9 143.13,-609.69 133.65,-604.96 132.77,-611.9"/>
</a>
</g>
</g>
<!-- Node14&#45;&gt;Node18 -->
<g id="edge16_Node000014_Node000018" class="edge">
<title>Node14&#45;&gt;Node18</title>
<g id="a_edge16_Node000014_Node000018"><a xlink:title=" ">
<path fill="none" stroke="#63b8ff" d="M134.45,-602.81C132.53,-601.5 130.7,-600.07 129,-598.5 61.89,-536.72 49.99,-415.85 47.93,-380.46"/>
<polygon fill="#63b8ff" stroke="#63b8ff" points="132.94,-605.98 143.38,-607.82 136.36,-599.88 132.94,-605.98"/>
</a>
</g>
</g>
<!-- Node42 -->
<g id="Node000042" class="node">
<title>Node42</title>
<g id="a_Node000042"><a xlink:href="menu__items_8c.html#ac9a8fae36ca33cb34bee67b9f9ab440f" target="_top" xlink:title=" ">
<polygon fill="#fff0f0" stroke="red" points="250.5,-551.5 144.5,-551.5 144.5,-521.5 250.5,-521.5 250.5,-551.5"/>
<text text-anchor="start" x="152.5" y="-539.5" font-family="Helvetica,sans-Serif" font-size="10.00">print_text1_center</text>
<text text-anchor="middle" x="197.5" y="-528.5" font-family="Helvetica,sans-Serif" font-size="10.00">_mode_1</text>
</a>
</g>
</g>
<!-- Node41&#45;&gt;Node42 -->
<g id="edge19_Node000041_Node000042" class="edge">
<title>Node41&#45;&gt;Node42</title>
<g id="a_edge19_Node000041_Node000042"><a xlink:title=" ">
<path fill="none" stroke="#63b8ff" d="M344.29,-461.24C325.15,-475.96 294.83,-497.83 266,-512.5 259.68,-515.71 252.83,-518.69 246,-521.37"/>
<polygon fill="#63b8ff" stroke="#63b8ff" points="346.52,-463.94 352.26,-455.03 342.22,-458.42 346.52,-463.94"/>
</a>
</g>
</g>
<!-- Node48 -->
<g id="Node000048" class="node">
<title>Node48</title>
<g id="a_Node000048"><a xlink:href="menu__items_8c.html#a8051db7229d932b267fdec53a1e794eb" target="_top" xlink:title=" ">
<polygon fill="#fff0f0" stroke="red" points="250.5,-503.5 144.5,-503.5 144.5,-473.5 250.5,-473.5 250.5,-503.5"/>
<text text-anchor="start" x="152.5" y="-491.5" font-family="Helvetica,sans-Serif" font-size="10.00">print_text1_center</text>
<text text-anchor="middle" x="197.5" y="-480.5" font-family="Helvetica,sans-Serif" font-size="10.00">_mode_2</text>
</a>
</g>
</g>
<!-- Node41&#45;&gt;Node48 -->
<g id="edge20_Node000041_Node000048" class="edge">
<title>Node41&#45;&gt;Node48</title>
<g id="a_edge20_Node000041_Node000048"><a xlink:title=" ">
<path fill="none" stroke="#63b8ff" d="M319.96,-456.94C298.66,-462.48 272.96,-469.15 250.69,-474.94"/>
<polygon fill="#63b8ff" stroke="#63b8ff" points="320.91,-460.31 329.71,-454.41 319.15,-453.54 320.91,-460.31"/>
</a>
</g>
</g>
<!-- Node51 -->
<g id="Node000051" class="node">
<title>Node51</title>
<g id="a_Node000051"><a xlink:href="menu__items_8c.html#ad5ebb6015362a99f480a286c01b07d24" target="_top" xlink:title=" ">
<polygon fill="#fff0f0" stroke="red" points="243,-455 152,-455 152,-436 243,-436 243,-455"/>
<text text-anchor="middle" x="197.5" y="-443" font-family="Helvetica,sans-Serif" font-size="10.00">print_text1_left</text>
</a>
</g>
</g>
<!-- Node41&#45;&gt;Node51 -->
<g id="edge21_Node000041_Node000051" class="edge">
<title>Node41&#45;&gt;Node51</title>
<g id="a_edge21_Node000041_Node000051"><a xlink:title=" ">
<path fill="none" stroke="#63b8ff" d="M319.58,-445.5C295.9,-445.5 266.84,-445.5 243.13,-445.5"/>
<polygon fill="#63b8ff" stroke="#63b8ff" points="319.71,-449 329.71,-445.5 319.71,-442 319.71,-449"/>
</a>
</g>
</g>
<!-- Node52 -->
<g id="Node000052" class="node">
<title>Node52</title>
<g id="a_Node000052"><a xlink:href="menu__items_8c.html#aeadbf47fc56f2dabd289f8f417f2afff" target="_top" xlink:title=" ">
<polygon fill="#fff0f0" stroke="red" points="246.5,-418 148.5,-418 148.5,-399 246.5,-399 246.5,-418"/>
<text text-anchor="middle" x="197.5" y="-406" font-family="Helvetica,sans-Serif" font-size="10.00">print_text1_right</text>
</a>
</g>
</g>
<!-- Node41&#45;&gt;Node52 -->
<g id="edge22_Node000041_Node000052" class="edge">
<title>Node41&#45;&gt;Node52</title>
<g id="a_edge22_Node000041_Node000052"><a xlink:title=" ">
<path fill="none" stroke="#63b8ff" d="M319.67,-435.59C295.36,-430.15 265.36,-423.45 241.29,-418.07"/>
<polygon fill="#63b8ff" stroke="#63b8ff" points="319.19,-439.07 329.71,-437.83 320.71,-432.24 319.19,-439.07"/>
</a>
</g>
</g>
<!-- Node56 -->
<g id="Node000056" class="node">
<title>Node56</title>
<g id="a_Node000056"><a xlink:href="menu__items_8c.html#a51a08d17a71783b05d2688b3e4f1e88c" target="_top" xlink:title=" ">
<polygon fill="#fff0f0" stroke="red" points="243.5,-381 151.5,-381 151.5,-362 243.5,-362 243.5,-381"/>
<text text-anchor="middle" x="197.5" y="-369" font-family="Helvetica,sans-Serif" font-size="10.00">func_800939C8</text>
</a>
</g>
</g>
<!-- Node55&#45;&gt;Node56 -->
<g id="edge24_Node000055_Node000056" class="edge">
<title>Node55&#45;&gt;Node56</title>
<g id="a_edge24_Node000055_Node000056"><a xlink:title=" ">
<path fill="none" stroke="#63b8ff" d="M319.66,-371.5C296.17,-371.5 267.37,-371.5 243.75,-371.5"/>
<polygon fill="#63b8ff" stroke="#63b8ff" points="319.71,-375 329.71,-371.5 319.71,-368 319.71,-375"/>
</a>
</g>
</g>
<!-- Node57 -->
<g id="Node000057" class="node">
<title>Node57</title>
<g id="a_Node000057"><a xlink:href="menu__items_8c.html#a24be09f5258f7b9e60f78e51ad9b5c73" target="_top" xlink:title=" ">
<polygon fill="#fff0f0" stroke="red" points="230,-344 165,-344 165,-325 230,-325 230,-344"/>
<text text-anchor="middle" x="197.5" y="-332" font-family="Helvetica,sans-Serif" font-size="10.00">text_draw</text>
</a>
</g>
</g>
<!-- Node55&#45;&gt;Node57 -->
<g id="edge25_Node000055_Node000057" class="edge">
<title>Node55&#45;&gt;Node57</title>
<g id="a_edge25_Node000055_Node000057"><a xlink:title=" ">
<path fill="none" stroke="#63b8ff" d="M319.69,-361.59C291.48,-355.29 255.6,-347.27 230.22,-341.59"/>
<polygon fill="#63b8ff" stroke="#63b8ff" points="319.19,-365.07 329.71,-363.83 320.71,-358.24 319.19,-365.07"/>
</a>
</g>
</g>
<!-- Node63 -->
<g id="Node000063" class="node">
<title>Node63</title>
<g id="a_Node000063"><a xlink:href="menu__items_8c.html#a4a007ea44e7ab306e6126af44f75814a" target="_top" xlink:title=" ">
<polygon fill="white" stroke="#666666" points="591,-234 464,-234 464,-215 591,-215 591,-234"/>
<text text-anchor="middle" x="527.5" y="-222" font-family="Helvetica,sans-Serif" font-size="10.00">print_letter_wide_right</text>
</a>
</g>
</g>
<!-- Node62&#45;&gt;Node63 -->
<g id="edge27_Node000062_Node000063" class="edge">
<title>Node62&#45;&gt;Node63</title>
<g id="a_edge27_Node000062_Node000063"><a xlink:title=" ">
<path fill="none" stroke="#63b8ff" d="M622.37,-224.5C611.94,-224.5 601.26,-224.5 591.02,-224.5"/>
<polygon fill="#63b8ff" stroke="#63b8ff" points="622.68,-228 632.68,-224.5 622.68,-221 622.68,-228"/>
</a>
</g>
</g>
<!-- Node64 -->
<g id="Node000064" class="node">
<title>Node64</title>
<g id="a_Node000064"><a xlink:href="menu__items_8c.html#a29d12f53fcd2239f7403a52647b315e4" target="_top" xlink:title=" ">
<polygon fill="white" stroke="#666666" points="428,-253 302,-253 302,-234 428,-234 428,-253"/>
<text text-anchor="middle" x="365" y="-241" font-family="Helvetica,sans-Serif" font-size="10.00">print_text0_wide_right</text>
</a>
</g>
</g>
<!-- Node63&#45;&gt;Node64 -->
<g id="edge28_Node000063_Node000064" class="edge">
<title>Node63&#45;&gt;Node64</title>
<g id="a_edge28_Node000063_Node000064"><a xlink:title=" ">
<path fill="none" stroke="#63b8ff" d="M453.93,-233.09C445.3,-234.11 436.55,-235.15 428.08,-236.15"/>
<polygon fill="#63b8ff" stroke="#63b8ff" points="454.47,-236.55 463.99,-231.9 453.64,-229.6 454.47,-236.55"/>
</a>
</g>
</g>
<!-- Node68 -->
<g id="Node000068" class="node">
<title>Node68</title>
<g id="a_Node000068"><a xlink:href="menu__items_8c.html#a5abcef085b1e2089c54ea352ab09c9e2" target="_top" xlink:title=" ">
<polygon fill="white" stroke="#666666" points="414,-216 316,-216 316,-197 414,-197 414,-216"/>
<text text-anchor="middle" x="365" y="-204" font-family="Helvetica,sans-Serif" font-size="10.00">print_text2_wide</text>
</a>
</g>
</g>
<!-- Node63&#45;&gt;Node68 -->
<g id="edge31_Node000063_Node000068" class="edge">
<title>Node63&#45;&gt;Node68</title>
<g id="a_edge31_Node000063_Node000068"><a xlink:title=" ">
<path fill="none" stroke="#63b8ff" d="M453.8,-216.35C440.37,-214.84 426.65,-213.3 414.18,-211.9"/>
<polygon fill="#63b8ff" stroke="#63b8ff" points="453.66,-219.85 463.99,-217.49 454.44,-212.9 453.66,-219.85"/>
</a>
</g>
</g>
<!-- Node65 -->
<g id="Node000065" class="node">
<title>Node65</title>
<g id="a_Node000065"><a xlink:href="menu__items_8c.html#a30b200caa6b850c044716dae37f399f1" target="_top" xlink:title=" ">
<polygon fill="#fff0f0" stroke="red" points="266,-306.5 129,-306.5 129,-276.5 266,-276.5 266,-306.5"/>
<text text-anchor="start" x="137" y="-294.5" font-family="Helvetica,sans-Serif" font-size="10.00">print_text_mode_1_wide</text>
<text text-anchor="middle" x="197.5" y="-283.5" font-family="Helvetica,sans-Serif" font-size="10.00">_right</text>
</a>
</g>
</g>
<!-- Node64&#45;&gt;Node65 -->
<g id="edge29_Node000064_Node000065" class="edge">
<title>Node64&#45;&gt;Node65</title>
<g id="a_edge29_Node000064_Node000065"><a xlink:title=" ">
<path fill="none" stroke="#63b8ff" d="M321.04,-255.96C299.46,-262.22 273.14,-269.85 250.44,-276.44"/>
<polygon fill="#63b8ff" stroke="#63b8ff" points="322.28,-259.25 330.91,-253.1 320.33,-252.52 322.28,-259.25"/>
</a>
</g>
</g>
<!-- Node66 -->
<g id="Node000066" class="node">
<title>Node66</title>
<g id="a_Node000066"><a xlink:href="menu__items_8c.html#ab60993caf76992168173f0ffb695df05" target="_top" xlink:title=" ">
<polygon fill="#fff0f0" stroke="red" points="266,-258.5 129,-258.5 129,-228.5 266,-228.5 266,-258.5"/>
<text text-anchor="start" x="137" y="-246.5" font-family="Helvetica,sans-Serif" font-size="10.00">print_text_mode_2_wide</text>
<text text-anchor="middle" x="197.5" y="-235.5" font-family="Helvetica,sans-Serif" font-size="10.00">_right</text>
</a>
</g>
</g>
<!-- Node64&#45;&gt;Node66 -->
<g id="edge30_Node000064_Node000066" class="edge">
<title>Node64&#45;&gt;Node66</title>
<g id="a_edge30_Node000064_Node000066"><a xlink:title=" ">
<path fill="none" stroke="#63b8ff" d="M291.68,-243.5C283.22,-243.5 274.61,-243.5 266.21,-243.5"/>
<polygon fill="#63b8ff" stroke="#63b8ff" points="291.9,-247 301.9,-243.5 291.9,-240 291.9,-247"/>
</a>
</g>
</g>
<!-- Node69 -->
<g id="Node000069" class="node">
<title>Node69</title>
<g id="a_Node000069"><a xlink:href="menu__items_8c.html#ae50e7ba196b45d70439274d82e043027" target="_top" xlink:title=" ">
<polygon fill="#fff0f0" stroke="red" points="244.5,-210 150.5,-210 150.5,-191 244.5,-191 244.5,-210"/>
<text text-anchor="middle" x="197.5" y="-198" font-family="Helvetica,sans-Serif" font-size="10.00">text_draw_wide</text>
</a>
</g>
</g>
<!-- Node68&#45;&gt;Node69 -->
<g id="edge32_Node000068_Node000069" class="edge">
<title>Node68&#45;&gt;Node69</title>
<g id="a_edge32_Node000068_Node000069"><a xlink:title=" ">
<path fill="none" stroke="#63b8ff" d="M305.46,-204.38C285.49,-203.65 263.45,-202.85 244.6,-202.17"/>
<polygon fill="#63b8ff" stroke="#63b8ff" points="305.57,-207.88 315.69,-204.75 305.82,-200.89 305.57,-207.88"/>
</a>
</g>
</g>
<!-- Node116 -->
<g id="Node000116" class="node">
<title>Node116</title>
<g id="a_Node000116"><a xlink:href="main_8c.html#a023b8f272e4efbd33f371e91ffff6b30" target="_top" xlink:title=" ">
<polygon fill="white" stroke="#666666" points="1161,-97 1075,-97 1075,-78 1161,-78 1161,-97"/>
<text text-anchor="middle" x="1118" y="-85" font-family="Helvetica,sans-Serif" font-size="10.00">thread3_video</text>
</a>
</g>
</g>
<!-- Node115&#45;&gt;Node116 -->
<g id="edge38_Node000115_Node000116" class="edge">
<title>Node115&#45;&gt;Node116</title>
<g id="a_edge38_Node000115_Node000116"><a xlink:title=" ">
<path fill="none" stroke="#63b8ff" d="M1202.49,-87.5C1188.84,-87.5 1174.31,-87.5 1161.26,-87.5"/>
<polygon fill="#63b8ff" stroke="#63b8ff" points="1202.71,-91 1212.71,-87.5 1202.71,-84 1202.71,-91"/>
</a>
</g>
</g>
<!-- Node117 -->
<g id="Node000117" class="node">
<title>Node117</title>
<g id="a_Node000117"><a xlink:href="main_8c.html#a1e35d2b842121e6aea373f09381616e5" target="_top" xlink:title=" ">
<polygon fill="white" stroke="#666666" points="1031.5,-97 954.5,-97 954.5,-78 1031.5,-78 1031.5,-97"/>
<text text-anchor="middle" x="993" y="-85" font-family="Helvetica,sans-Serif" font-size="10.00">thread1_idle</text>
</a>
</g>
</g>
<!-- Node116&#45;&gt;Node117 -->
<g id="edge39_Node000116_Node000117" class="edge">
<title>Node116&#45;&gt;Node117</title>
<g id="a_edge39_Node000116_Node000117"><a xlink:title=" ">
<path fill="none" stroke="#63b8ff" d="M1064.36,-87.5C1053.44,-87.5 1042.14,-87.5 1031.88,-87.5"/>
<polygon fill="#63b8ff" stroke="#63b8ff" points="1064.67,-91 1074.67,-87.5 1064.67,-84 1064.67,-91"/>
</a>
</g>
</g>
<!-- Node118 -->
<g id="Node000118" class="node">
<title>Node118</title>
<g id="a_Node000118"><a xlink:href="main_8c.html#a4f87d43525fe95f60ea92bc8a3b70e62" target="_top" xlink:title=" ">
<polygon fill="white" stroke="#666666" points="888,-97 820,-97 820,-78 888,-78 888,-97"/>
<text text-anchor="middle" x="854" y="-85" font-family="Helvetica,sans-Serif" font-size="10.00">main_func</text>
</a>
</g>
</g>
<!-- Node117&#45;&gt;Node118 -->
<g id="edge40_Node000117_Node000118" class="edge">
<title>Node117&#45;&gt;Node118</title>
<g id="a_edge40_Node000117_Node000118"><a xlink:title=" ">
<path fill="none" stroke="#63b8ff" d="M944.17,-87.5C925.62,-87.5 904.84,-87.5 888.02,-87.5"/>
<polygon fill="#63b8ff" stroke="#63b8ff" points="944.2,-91 954.2,-87.5 944.2,-84 944.2,-91"/>
</a>
</g>
</g>
<!-- Node120 -->
<g id="Node000120" class="node">
<title>Node120</title>
<g id="a_Node000120"><a xlink:href="code__80005FD0_8c.html#af0170dbecbb754e3e7c1ab190fa14c01" target="_top" xlink:title=" ">
<polygon fill="white" stroke="#666666" points="1161,-54 1075,-54 1075,-35 1161,-35 1161,-54"/>
<text text-anchor="middle" x="1118" y="-42" font-family="Helvetica,sans-Serif" font-size="10.00">update_player</text>
</a>
</g>
</g>
<!-- Node119&#45;&gt;Node120 -->
<g id="edge42_Node000119_Node000120" class="edge">
<title>Node119&#45;&gt;Node120</title>
<g id="a_edge42_Node000119_Node000120"><a xlink:title=" ">
<path fill="none" stroke="#63b8ff" d="M1186.75,-44.5C1178.05,-44.5 1169.36,-44.5 1161.25,-44.5"/>
<polygon fill="#63b8ff" stroke="#63b8ff" points="1186.93,-48 1196.93,-44.5 1186.93,-41 1186.93,-48"/>
</a>
</g>
</g>
<!-- Node121 -->
<g id="Node000121" class="node">
<title>Node121</title>
<g id="a_Node000121"><a xlink:href="code__80005FD0_8c.html#a0056485e80d615faffaf2715a906c294" target="_top" xlink:title=" ">
<polygon fill="white" stroke="#666666" points="1039,-57 947,-57 947,-38 1039,-38 1039,-57"/>
<text text-anchor="middle" x="993" y="-45" font-family="Helvetica,sans-Serif" font-size="10.00">func_8001C14C</text>
</a>
</g>
</g>
<!-- Node120&#45;&gt;Node121 -->
<g id="edge43_Node000120_Node000121" class="edge">
<title>Node120&#45;&gt;Node121</title>
<g id="a_edge43_Node000120_Node000121"><a xlink:title=" ">
<path fill="none" stroke="#63b8ff" d="M1064.59,-45.78C1056.19,-45.98 1047.56,-46.19 1039.35,-46.39"/>
<polygon fill="#63b8ff" stroke="#63b8ff" points="1064.76,-49.28 1074.67,-45.53 1064.59,-42.28 1064.76,-49.28"/>
</a>
</g>
</g>
<!-- Node122 -->
<g id="Node000122" class="node">
<title>Node122</title>
<g id="a_Node000122"><a xlink:href="race__logic_8c.html#af3b28af56eee680540843d3bd6bd24ba" target="_top" xlink:title=" ">
<polygon fill="white" stroke="#666666" points="1038.5,-20 947.5,-20 947.5,-1 1038.5,-1 1038.5,-20"/>
<text text-anchor="middle" x="993" y="-8" font-family="Helvetica,sans-Serif" font-size="10.00">func_8028F474</text>
</a>
</g>
</g>
<!-- Node120&#45;&gt;Node122 -->
<g id="edge49_Node000120_Node000122" class="edge">
<title>Node120&#45;&gt;Node122</title>
<g id="a_edge49_Node000120_Node000122"><a xlink:title=" ">
<path fill="none" stroke="#63b8ff" d="M1072.67,-32.25C1058.22,-28.25 1042.4,-23.88 1028.76,-20.11"/>
<polygon fill="#63b8ff" stroke="#63b8ff" points="1071.84,-35.65 1082.41,-34.94 1073.7,-28.9 1071.84,-35.65"/>
</a>
</g>
</g>
<!-- Node101 -->
<g id="Node000101" class="node">
<title>Node101</title>
<g id="a_Node000101"><a xlink:href="podium__ceremony__actors_8c.html#a7ea229c65f264670fc828b95e8321154" target="_top" xlink:title=" ">
<polygon fill="white" stroke="#666666" points="761,-57 627,-57 627,-38 761,-38 761,-57"/>
<text text-anchor="middle" x="694" y="-45" font-family="Helvetica,sans-Serif" font-size="10.00">podium_ceremony_loop</text>
</a>
</g>
</g>
<!-- Node121&#45;&gt;Node101 -->
<g id="edge44_Node000121_Node000101" class="edge">
<title>Node121&#45;&gt;Node101</title>
<g id="a_edge44_Node000121_Node000101"><a xlink:title=" ">
<path fill="none" stroke="#63b8ff" d="M936.66,-47.5C886.99,-47.5 813.99,-47.5 761.24,-47.5"/>
<polygon fill="#63b8ff" stroke="#63b8ff" points="936.89,-51 946.89,-47.5 936.89,-44 936.89,-51"/>
</a>
</g>
</g>
<!-- Node75 -->
<g id="Node000075" class="node">
<title>Node75</title>
<g id="a_Node000075"><a xlink:href="main_8c.html#ae04143ce8113cdafa007c642eb620bc8" target="_top" xlink:title=" ">
<polygon fill="white" stroke="#666666" points="585.5,-39 469.5,-39 469.5,-20 585.5,-20 585.5,-39"/>
<text text-anchor="middle" x="527.5" y="-27" font-family="Helvetica,sans-Serif" font-size="10.00">game_state_handler</text>
</a>
</g>
</g>
<!-- Node101&#45;&gt;Node75 -->
<g id="edge45_Node000101_Node000075" class="edge">
<title>Node101&#45;&gt;Node75</title>
<g id="a_edge45_Node000101_Node000075"><a xlink:title=" ">
<path fill="none" stroke="#63b8ff" d="M616.31,-39.11C606,-37.98 595.56,-36.84 585.67,-35.76"/>
<polygon fill="#63b8ff" stroke="#63b8ff" points="616.24,-42.62 626.57,-40.23 617.01,-35.66 616.24,-42.62"/>
</a>
</g>
</g>
<!-- Node76 -->
<g id="Node000076" class="node">
<title>Node76</title>
<g id="a_Node000076"><a xlink:href="main_8c.html#a2bd6afc4241736db360297b364c27b84" target="_top" xlink:title=" ">
<polygon fill="white" stroke="#666666" points="415.5,-39 314.5,-39 314.5,-20 415.5,-20 415.5,-39"/>
<text text-anchor="middle" x="365" y="-27" font-family="Helvetica,sans-Serif" font-size="10.00">thread5_iteration</text>
</a>
</g>
</g>
<!-- Node75&#45;&gt;Node76 -->
<g id="edge46_Node000075_Node000076" class="edge">
<title>Node75&#45;&gt;Node76</title>
<g id="a_edge46_Node000075_Node000076"><a xlink:title=" ">
<path fill="none" stroke="#63b8ff" d="M459.43,-29.5C444.77,-29.5 429.5,-29.5 415.67,-29.5"/>
<polygon fill="#63b8ff" stroke="#63b8ff" points="459.46,-33 469.46,-29.5 459.46,-26 459.46,-33"/>
</a>
</g>
</g>
<!-- Node77 -->
<g id="Node000077" class="node">
<title>Node77</title>
<g id="a_Node000077"><a xlink:href="Game_8cpp.html#a7e10f41e410b6fdab17e0388f164f61d" target="_top" xlink:title=" ">
<polygon fill="white" stroke="#666666" points="234.5,-39 160.5,-39 160.5,-20 234.5,-20 234.5,-39"/>
<text text-anchor="middle" x="197.5" y="-27" font-family="Helvetica,sans-Serif" font-size="10.00">push_frame</text>
</a>
</g>
</g>
<!-- Node76&#45;&gt;Node77 -->
<g id="edge47_Node000076_Node000077" class="edge">
<title>Node76&#45;&gt;Node77</title>
<g id="a_edge47_Node000076_Node000077"><a xlink:title=" ">
<path fill="none" stroke="#63b8ff" d="M304.21,-29.5C280.95,-29.5 255.05,-29.5 234.71,-29.5"/>
<polygon fill="#63b8ff" stroke="#63b8ff" points="304.34,-33 314.34,-29.5 304.34,-26 304.34,-33"/>
</a>
</g>
</g>
<!-- Node78 -->
<g id="Node000078" class="node">
<title>Node78</title>
<g id="a_Node000078"><a xlink:href="Game_8cpp.html#a0ddf1224851353fc92bfbff6f499fa97" target="_top" xlink:title=" ">
<polygon fill="#fff0f0" stroke="red" points="67,-39 26,-39 26,-20 67,-20 67,-39"/>
<text text-anchor="middle" x="46.5" y="-27" font-family="Helvetica,sans-Serif" font-size="10.00">main</text>
</a>
</g>
</g>
<!-- Node77&#45;&gt;Node78 -->
<g id="edge48_Node000077_Node000078" class="edge">
<title>Node77&#45;&gt;Node78</title>
<g id="a_edge48_Node000077_Node000078"><a xlink:title=" ">
<path fill="none" stroke="#63b8ff" d="M150.1,-29.5C122.25,-29.5 88.27,-29.5 67.26,-29.5"/>
<polygon fill="#63b8ff" stroke="#63b8ff" points="150.43,-33 160.43,-29.5 150.43,-26 150.43,-33"/>
</a>
</g>
</g>
<!-- Node123 -->
<g id="Node000123" class="node">
<title>Node123</title>
<g id="a_Node000123"><a xlink:href="main_8c.html#a06ee966cd36f1640715226c8c9a77d75" target="_top" xlink:title=" ">
<polygon fill="white" stroke="#666666" points="909,-19 799,-19 799,0 909,0 909,-19"/>
<text text-anchor="middle" x="854" y="-7" font-family="Helvetica,sans-Serif" font-size="10.00">process_game_tick</text>
</a>
</g>
</g>
<!-- Node122&#45;&gt;Node123 -->
<g id="edge50_Node000122_Node000123" class="edge">
<title>Node122&#45;&gt;Node123</title>
<g id="a_edge50_Node000122_Node000123"><a xlink:title=" ">
<path fill="none" stroke="#63b8ff" d="M936.94,-10.1C927.74,-10.03 918.21,-9.96 909.04,-9.89"/>
<polygon fill="#63b8ff" stroke="#63b8ff" points="937.12,-13.6 947.14,-10.17 937.17,-6.6 937.12,-13.6"/>
</a>
</g>
</g>
<!-- Node74 -->
<g id="Node000074" class="node">
<title>Node74</title>
<g id="a_Node000074"><a xlink:href="main_8c.html#afff87ffcbfee4f1f37d443110aa7b52a" target="_top" xlink:title=" ">
<polygon fill="white" stroke="#666666" points="740,-20 648,-20 648,-1 740,-1 740,-20"/>
<text text-anchor="middle" x="694" y="-8" font-family="Helvetica,sans-Serif" font-size="10.00">race_logic_loop</text>
</a>
</g>
</g>
<!-- Node123&#45;&gt;Node74 -->
<g id="edge51_Node000123_Node000074" class="edge">
<title>Node123&#45;&gt;Node74</title>
<g id="a_edge51_Node000123_Node000074"><a xlink:title=" ">
<path fill="none" stroke="#63b8ff" d="M788.61,-9.91C772.31,-10.01 755.15,-10.12 740.04,-10.21"/>
<polygon fill="#63b8ff" stroke="#63b8ff" points="788.65,-13.41 798.63,-9.84 788.6,-6.41 788.65,-13.41"/>
</a>
</g>
</g>
<!-- Node74&#45;&gt;Node75 -->
<g id="edge52_Node000074_Node000075" class="edge">
<title>Node74&#45;&gt;Node75</title>
<g id="a_edge52_Node000074_Node000075"><a xlink:title=" ">
<path fill="none" stroke="#63b8ff" d="M637.49,-16.91C620.84,-18.83 602.56,-20.95 585.8,-22.88"/>
<polygon fill="#63b8ff" stroke="#63b8ff" points="638.08,-20.37 647.61,-15.74 637.28,-13.41 638.08,-20.37"/>
</a>
</g>
</g>
</g>
</svg>

<g id="navigator" transform="translate(0 0)" fill="#404254">
  <rect fill="#f2f5e9" fill-opacity="0.5" stroke="#606060" stroke-width=".5" x="0" y="0" width="60" height="60"/>
  <use id="zoomplus" xlink:href="#zoomPlus" x="17" y="9" onmousedown="handleZoom(evt,'in')"/>
  <use id="zoomminus" xlink:href="#zoomMin" x="42" y="9" onmousedown="handleZoom(evt,'out')"/>
  <use id="reset" xlink:href="#resetDef" x="30" y="36" onmousedown="handleReset()"/>
   <use id="arrowup" xlink:href="#arrowUp" x="0" y="0" onmousedown="handlePan(0,-1)"/>
  <use id="arrowright" xlink:href="#arrowRight" x="0" y="0" onmousedown="handlePan(1,0)"/>
  <use id="arrowdown" xlink:href="#arrowDown" x="0" y="0" onmousedown="handlePan(0,1)"/>
  <use id="arrowleft" xlink:href="#arrowLeft" x="0" y="0" onmousedown="handlePan(-1,0)"/>
</g>
<svg viewBox="0 0 15 15" width="100%" height="30px" preserveAspectRatio="xMaxYMin meet">
 <g id="arrow_out" transform="scale(0.3 0.3)">
  <a xlink:href="alBnkfNew_8c_a96a0200a6b40350e524f536d232ecb53_icgraph_org.svg" target="_base">
   <rect id="button" ry="5" rx="5" y="6" x="6" height="38" width="38"
        fill="#f2f5e9" fill-opacity="0.5" stroke="#606060" stroke-width="1.0"/>
   <path id="arrow"
     d="M 11.500037,31.436501 C 11.940474,20.09759 22.043105,11.32322 32.158766,21.979434 L 37.068811,17.246167 C 37.068811,17.246167 37.088388,32 37.088388,32 L 22.160133,31.978069 C 22.160133,31.978069 26.997745,27.140456 26.997745,27.140456 C 18.528582,18.264221 13.291696,25.230495 11.500037,31.436501 z"
     style="fill:#404040;"/>
  </a>
 </g>
</svg>

<style type='text/css'>
<![CDATA[
[data-mouse-over-selected='false'] { opacity: 0.7; }
[data-mouse-over-selected='true']  { opacity: 1.0; }
]]>
</style>
<script type="application/ecmascript"><![CDATA[
document.addEventListener('DOMContentLoaded', (event) => {
  highlightEdges();
  highlightAdjacentNodes();
});
]]></script>
</svg>
