<?xml version="1.0" encoding="UTF-8" standalone="no"?>
<!DOCTYPE svg PUBLIC "-//W3C//DTD SVG 1.1//EN"
 "http://www.w3.org/Graphics/SVG/1.1/DTD/svg11.dtd">
<!-- Generated by graphviz version 2.43.0 (0)
 -->
<!-- Title: src/engine/actors/BowserStatue.h Pages: 1 -->
<svg width="1338pt" height="379pt"
 viewBox="0.00 0.00 1338.00 379.00" xmlns="http://www.w3.org/2000/svg" xmlns:xlink="http://www.w3.org/1999/xlink">
<g id="graph0" class="graph" transform="scale(1 1) rotate(0) translate(4 375)">
<title>src/engine/actors/BowserStatue.h</title>
<!-- Node1 -->
<g id="Node000001" class="node">
<title>Node1</title>
<g id="a_Node000001"><a xlink:title=" ">
<polygon fill="#999999" stroke="#666666" points="378.5,-371 239.5,-371 239.5,-341 378.5,-341 378.5,-371"/>
<text text-anchor="start" x="247.5" y="-359" font-family="Helvetica,sans-Serif" font-size="10.00">src/engine/actors/Bowser</text>
<text text-anchor="middle" x="309" y="-348" font-family="Helvetica,sans-Serif" font-size="10.00">Statue.h</text>
</a>
</g>
</g>
<!-- Node2 -->
<g id="Node000002" class="node">
<title>Node2</title>
<g id="a_Node000002"><a xlink:title=" ">
<polygon fill="#e0e0e0" stroke="#999999" points="244,-19 164,-19 164,0 244,0 244,-19"/>
<text text-anchor="middle" x="204" y="-7" font-family="Helvetica,sans-Serif" font-size="10.00">libultraship.h</text>
</a>
</g>
</g>
<!-- Node1&#45;&gt;Node2 -->
<g id="edge1_Node000001_Node000002" class="edge">
<title>Node1&#45;&gt;Node2</title>
<g id="a_edge1_Node000001_Node000002"><a xlink:title=" ">
<path fill="none" stroke="#63b8ff" d="M239.32,-354.69C185.25,-351.44 110.43,-340.11 55,-305 20.23,-282.98 0,-271.66 0,-230.5 0,-230.5 0,-230.5 0,-118.5 0,-49.18 93.15,-24.23 153.56,-15.34"/>
<polygon fill="#63b8ff" stroke="#63b8ff" points="154.26,-18.77 163.7,-13.95 153.31,-11.84 154.26,-18.77"/>
</a>
</g>
</g>
<!-- Node3 -->
<g id="Node000003" class="node">
<title>Node3</title>
<g id="a_Node000003"><a xlink:title=" ">
<polygon fill="#e0e0e0" stroke="#999999" points="988,-129 910,-129 910,-110 988,-110 988,-129"/>
<text text-anchor="middle" x="949" y="-117" font-family="Helvetica,sans-Serif" font-size="10.00">libultra/gbi.h</text>
</a>
</g>
</g>
<!-- Node1&#45;&gt;Node3 -->
<g id="edge2_Node000001_Node000003" class="edge">
<title>Node1&#45;&gt;Node3</title>
<g id="a_edge2_Node000001_Node000003"><a xlink:title=" ">
<path fill="none" stroke="#63b8ff" d="M378.55,-344.65C435.05,-335.72 516.61,-321.66 587,-305 771.88,-261.23 883.25,-336.17 997,-184 1009.66,-167.07 990.05,-147.7 972.22,-134.85"/>
<polygon fill="#63b8ff" stroke="#63b8ff" points="973.99,-131.83 963.75,-129.11 970.06,-137.62 973.99,-131.83"/>
</a>
</g>
</g>
<!-- Node4 -->
<g id="Node000004" class="node">
<title>Node4</title>
<g id="a_Node000004"><a xlink:href="Actor_8h.html" target="_top" xlink:title=" ">
<polygon fill="white" stroke="#666666" points="578,-299.5 492,-299.5 492,-280.5 578,-280.5 578,-299.5"/>
<text text-anchor="middle" x="535" y="-287.5" font-family="Helvetica,sans-Serif" font-size="10.00">engine/Actor.h</text>
</a>
</g>
</g>
<!-- Node1&#45;&gt;Node4 -->
<g id="edge3_Node000001_Node000004" class="edge">
<title>Node1&#45;&gt;Node4</title>
<g id="a_edge3_Node000001_Node000004"><a xlink:title=" ">
<path fill="none" stroke="#63b8ff" d="M358.6,-340.95C399.63,-329.34 457.15,-313.05 495.21,-302.27"/>
<polygon fill="#63b8ff" stroke="#63b8ff" points="496.26,-305.61 504.92,-299.52 494.35,-298.87 496.26,-305.61"/>
</a>
</g>
</g>
<!-- Node10 -->
<g id="Node000010" class="node">
<title>Node10</title>
<g id="a_Node000010"><a xlink:href="CoreMath_8h.html" target="_top" xlink:title=" ">
<polygon fill="white" stroke="#666666" points="273.5,-74 200.5,-74 200.5,-55 273.5,-55 273.5,-74"/>
<text text-anchor="middle" x="237" y="-62" font-family="Helvetica,sans-Serif" font-size="10.00">CoreMath.h</text>
</a>
</g>
</g>
<!-- Node1&#45;&gt;Node10 -->
<g id="edge48_Node000001_Node000010" class="edge">
<title>Node1&#45;&gt;Node10</title>
<g id="a_edge48_Node000001_Node000010"><a xlink:title=" ">
<path fill="none" stroke="#63b8ff" d="M295.82,-340.93C271.16,-313.43 219.21,-249.49 204,-184 195.58,-147.76 213.91,-105.96 226.47,-82.96"/>
<polygon fill="#63b8ff" stroke="#63b8ff" points="229.64,-84.48 231.57,-74.06 223.56,-81 229.64,-84.48"/>
</a>
</g>
</g>
<!-- Node11 -->
<g id="Node000011" class="node">
<title>Node11</title>
<g id="a_Node000011"><a xlink:href="common__structs_8h.html" target="_top" xlink:title=" ">
<polygon fill="white" stroke="#666666" points="1223.5,-74 1116.5,-74 1116.5,-55 1223.5,-55 1223.5,-74"/>
<text text-anchor="middle" x="1170" y="-62" font-family="Helvetica,sans-Serif" font-size="10.00">common_structs.h</text>
</a>
</g>
</g>
<!-- Node1&#45;&gt;Node11 -->
<g id="edge49_Node000001_Node000011" class="edge">
<title>Node1&#45;&gt;Node11</title>
<g id="a_edge49_Node000001_Node000011"><a xlink:title=" ">
<path fill="none" stroke="#63b8ff" d="M378.6,-353C594.73,-345.89 1240,-317.39 1240,-230.5 1240,-230.5 1240,-230.5 1240,-173.5 1240,-135.43 1208.99,-100.19 1188.25,-80.89"/>
<polygon fill="#63b8ff" stroke="#63b8ff" points="1190.42,-78.13 1180.63,-74.07 1185.75,-83.34 1190.42,-78.13"/>
</a>
</g>
</g>
<!-- Node25 -->
<g id="Node000025" class="node">
<title>Node25</title>
<g id="a_Node000025"><a xlink:href="other__textures_8h.html" target="_top" xlink:title=" ">
<polygon fill="white" stroke="#666666" points="184,-305 64,-305 64,-275 184,-275 184,-305"/>
<text text-anchor="start" x="72" y="-293" font-family="Helvetica,sans-Serif" font-size="10.00">assets/textures/other</text>
<text text-anchor="middle" x="124" y="-282" font-family="Helvetica,sans-Serif" font-size="10.00">_textures.h</text>
</a>
</g>
</g>
<!-- Node1&#45;&gt;Node25 -->
<g id="edge50_Node000001_Node000025" class="edge">
<title>Node1&#45;&gt;Node25</title>
<g id="a_edge50_Node000001_Node000025"><a xlink:title=" ">
<path fill="none" stroke="#63b8ff" d="M268.4,-340.95C240.69,-331.37 203.79,-318.6 174.22,-308.37"/>
<polygon fill="#63b8ff" stroke="#63b8ff" points="175.1,-304.97 164.5,-305.01 172.81,-311.59 175.1,-304.97"/>
</a>
</g>
</g>
<!-- Node4&#45;&gt;Node2 -->
<g id="edge4_Node000004_Node000002" class="edge">
<title>Node4&#45;&gt;Node2</title>
<g id="a_edge4_Node000004_Node000002"><a xlink:title=" ">
<path fill="none" stroke="#63b8ff" d="M516.59,-280.42C470.16,-258.39 345.38,-196.84 252,-129 222.73,-107.74 206.57,-107.11 192,-74 185.58,-59.41 189.98,-41.47 195.17,-28.38"/>
<polygon fill="#63b8ff" stroke="#63b8ff" points="198.44,-29.64 199.31,-19.08 192.04,-26.79 198.44,-29.64"/>
</a>
</g>
</g>
<!-- Node5 -->
<g id="Node000005" class="node">
<title>Node5</title>
<g id="a_Node000005"><a xlink:href="SpawnParams_8h.html" target="_top" xlink:title=" ">
<polygon fill="white" stroke="#666666" points="444,-129 314,-129 314,-110 444,-110 444,-129"/>
<text text-anchor="middle" x="379" y="-117" font-family="Helvetica,sans-Serif" font-size="10.00">engine/SpawnParams.h</text>
</a>
</g>
</g>
<!-- Node4&#45;&gt;Node5 -->
<g id="edge5_Node000004_Node000005" class="edge">
<title>Node4&#45;&gt;Node5</title>
<g id="a_edge5_Node000004_Node000005"><a xlink:title=" ">
<path fill="none" stroke="#63b8ff" d="M527.05,-280.41C502.33,-253.71 426.55,-171.86 394.05,-136.76"/>
<polygon fill="#63b8ff" stroke="#63b8ff" points="396.48,-134.23 387.12,-129.27 391.35,-138.99 396.48,-134.23"/>
</a>
</g>
</g>
<!-- Node4&#45;&gt;Node11 -->
<g id="edge47_Node000004_Node000011" class="edge">
<title>Node4&#45;&gt;Node11</title>
<g id="a_edge47_Node000004_Node000011"><a xlink:title=" ">
<path fill="none" stroke="#63b8ff" d="M578.17,-289.04C694.44,-288.53 1011.69,-283.05 1105,-239 1158.06,-213.95 1168.29,-186.87 1178,-129 1180.53,-113.91 1178.03,-96.69 1175.17,-83.99"/>
<polygon fill="#63b8ff" stroke="#63b8ff" points="1178.53,-83 1172.69,-74.16 1171.74,-84.71 1178.53,-83"/>
</a>
</g>
</g>
<!-- Node12 -->
<g id="Node000012" class="node">
<title>Node12</title>
<g id="a_Node000012"><a xlink:href="EditorMath_8h.html" target="_top" xlink:title=" ">
<polygon fill="white" stroke="#666666" points="723,-239 577,-239 577,-220 723,-220 723,-239"/>
<text text-anchor="middle" x="650" y="-227" font-family="Helvetica,sans-Serif" font-size="10.00">engine/editor/EditorMath.h</text>
</a>
</g>
</g>
<!-- Node4&#45;&gt;Node12 -->
<g id="edge14_Node000004_Node000012" class="edge">
<title>Node4&#45;&gt;Node12</title>
<g id="a_edge14_Node000004_Node000012"><a xlink:title=" ">
<path fill="none" stroke="#63b8ff" d="M551.97,-280.37C570.91,-270.73 601.79,-255.03 623.83,-243.81"/>
<polygon fill="#63b8ff" stroke="#63b8ff" points="625.64,-246.82 632.96,-239.17 622.46,-240.58 625.64,-246.82"/>
</a>
</g>
</g>
<!-- Node19 -->
<g id="Node000019" class="node">
<title>Node19</title>
<g id="a_Node000019"><a xlink:href="macros_8h.html" target="_top" xlink:title=" ">
<polygon fill="white" stroke="#666666" points="302,-239 240,-239 240,-220 302,-220 302,-239"/>
<text text-anchor="middle" x="271" y="-227" font-family="Helvetica,sans-Serif" font-size="10.00">macros.h</text>
</a>
</g>
</g>
<!-- Node4&#45;&gt;Node19 -->
<g id="edge34_Node000004_Node000019" class="edge">
<title>Node4&#45;&gt;Node19</title>
<g id="a_edge34_Node000004_Node000019"><a xlink:title=" ">
<path fill="none" stroke="#63b8ff" d="M496.61,-280.49C447.38,-269.58 362.34,-250.74 311.92,-239.57"/>
<polygon fill="#63b8ff" stroke="#63b8ff" points="312.53,-236.12 302.01,-237.37 311.02,-242.95 312.53,-236.12"/>
</a>
</g>
</g>
<!-- Node21 -->
<g id="Node000021" class="node">
<title>Node21</title>
<g id="a_Node000021"><a xlink:href="main_8h.html" target="_top" xlink:title=" ">
<polygon fill="white" stroke="#666666" points="1096,-239 1046,-239 1046,-220 1096,-220 1096,-239"/>
<text text-anchor="middle" x="1071" y="-227" font-family="Helvetica,sans-Serif" font-size="10.00">main.h</text>
</a>
</g>
</g>
<!-- Node4&#45;&gt;Node21 -->
<g id="edge37_Node000004_Node000021" class="edge">
<title>Node4&#45;&gt;Node21</title>
<g id="a_edge37_Node000004_Node000021"><a xlink:title=" ">
<path fill="none" stroke="#63b8ff" d="M578.41,-284.26C681.84,-272.97 941.23,-244.66 1035.8,-234.34"/>
<polygon fill="#63b8ff" stroke="#63b8ff" points="1036.42,-237.8 1045.98,-233.23 1035.66,-230.84 1036.42,-237.8"/>
</a>
</g>
</g>
<!-- Node24 -->
<g id="Node000024" class="node">
<title>Node24</title>
<g id="a_Node000024"><a xlink:href="camera_8h.html" target="_top" xlink:title=" ">
<polygon fill="white" stroke="#666666" points="1330,-129 1268,-129 1268,-110 1330,-110 1330,-129"/>
<text text-anchor="middle" x="1299" y="-117" font-family="Helvetica,sans-Serif" font-size="10.00">camera.h</text>
</a>
</g>
</g>
<!-- Node4&#45;&gt;Node24 -->
<g id="edge44_Node000004_Node000024" class="edge">
<title>Node4&#45;&gt;Node24</title>
<g id="a_edge44_Node000004_Node000024"><a xlink:title=" ">
<path fill="none" stroke="#63b8ff" d="M578.04,-287.97C718.95,-284.31 1160.66,-270.43 1216,-239 1255.91,-216.33 1281.14,-165.64 1292.3,-138.49"/>
<polygon fill="#63b8ff" stroke="#63b8ff" points="1295.62,-139.63 1296.01,-129.04 1289.1,-137.07 1295.62,-139.63"/>
</a>
</g>
</g>
<!-- Node6 -->
<g id="Node000006" class="node">
<title>Node6</title>
<g id="a_Node000006"><a xlink:title=" ">
<polygon fill="#e0e0e0" stroke="#999999" points="603.5,-74 556.5,-74 556.5,-55 603.5,-55 603.5,-74"/>
<text text-anchor="middle" x="580" y="-62" font-family="Helvetica,sans-Serif" font-size="10.00">vector</text>
</a>
</g>
</g>
<!-- Node5&#45;&gt;Node6 -->
<g id="edge6_Node000005_Node000006" class="edge">
<title>Node5&#45;&gt;Node6</title>
<g id="a_edge6_Node000005_Node000006"><a xlink:title=" ">
<path fill="none" stroke="#63b8ff" d="M411.29,-109.98C448.32,-100.22 508.73,-84.29 546.32,-74.38"/>
<polygon fill="#63b8ff" stroke="#63b8ff" points="547.5,-77.69 556.28,-71.75 545.72,-70.92 547.5,-77.69"/>
</a>
</g>
</g>
<!-- Node7 -->
<g id="Node000007" class="node">
<title>Node7</title>
<g id="a_Node000007"><a xlink:title=" ">
<polygon fill="#e0e0e0" stroke="#999999" points="538,-74 482,-74 482,-55 538,-55 538,-74"/>
<text text-anchor="middle" x="510" y="-62" font-family="Helvetica,sans-Serif" font-size="10.00">optional</text>
</a>
</g>
</g>
<!-- Node5&#45;&gt;Node7 -->
<g id="edge7_Node000005_Node000007" class="edge">
<title>Node5&#45;&gt;Node7</title>
<g id="a_edge7_Node000005_Node000007"><a xlink:title=" ">
<path fill="none" stroke="#63b8ff" d="M400.05,-109.98C421.41,-101.34 454.7,-87.87 479.06,-78.02"/>
<polygon fill="#63b8ff" stroke="#63b8ff" points="480.61,-81.17 488.57,-74.17 477.99,-74.68 480.61,-81.17"/>
</a>
</g>
</g>
<!-- Node8 -->
<g id="Node000008" class="node">
<title>Node8</title>
<g id="a_Node000008"><a xlink:title=" ">
<polygon fill="#e0e0e0" stroke="#999999" points="336,-74 292,-74 292,-55 336,-55 336,-74"/>
<text text-anchor="middle" x="314" y="-62" font-family="Helvetica,sans-Serif" font-size="10.00">string</text>
</a>
</g>
</g>
<!-- Node5&#45;&gt;Node8 -->
<g id="edge8_Node000005_Node000008" class="edge">
<title>Node5&#45;&gt;Node8</title>
<g id="a_edge8_Node000005_Node000008"><a xlink:title=" ">
<path fill="none" stroke="#63b8ff" d="M368.56,-109.98C358.85,-102.07 344.18,-90.11 332.5,-80.58"/>
<polygon fill="#63b8ff" stroke="#63b8ff" points="334.6,-77.78 324.63,-74.17 330.17,-83.2 334.6,-77.78"/>
</a>
</g>
</g>
<!-- Node9 -->
<g id="Node000009" class="node">
<title>Node9</title>
<g id="a_Node000009"><a xlink:title=" ">
<polygon fill="#e0e0e0" stroke="#999999" points="464,-74 354,-74 354,-55 464,-55 464,-74"/>
<text text-anchor="middle" x="409" y="-62" font-family="Helvetica,sans-Serif" font-size="10.00">nlohmann/json.hpp</text>
</a>
</g>
</g>
<!-- Node5&#45;&gt;Node9 -->
<g id="edge9_Node000005_Node000009" class="edge">
<title>Node5&#45;&gt;Node9</title>
<g id="a_edge9_Node000005_Node000009"><a xlink:title=" ">
<path fill="none" stroke="#63b8ff" d="M383.95,-109.75C388.06,-102.49 394.03,-91.95 399.1,-82.98"/>
<polygon fill="#63b8ff" stroke="#63b8ff" points="402.26,-84.52 404.14,-74.09 396.17,-81.07 402.26,-84.52"/>
</a>
</g>
</g>
<!-- Node5&#45;&gt;Node10 -->
<g id="edge10_Node000005_Node000010" class="edge">
<title>Node5&#45;&gt;Node10</title>
<g id="a_edge10_Node000005_Node000010"><a xlink:title=" ">
<path fill="none" stroke="#63b8ff" d="M356.19,-109.98C332.83,-101.27 296.3,-87.63 269.83,-77.75"/>
<polygon fill="#63b8ff" stroke="#63b8ff" points="270.82,-74.39 260.23,-74.17 268.37,-80.95 270.82,-74.39"/>
</a>
</g>
</g>
<!-- Node5&#45;&gt;Node11 -->
<g id="edge12_Node000005_Node000011" class="edge">
<title>Node5&#45;&gt;Node11</title>
<g id="a_edge12_Node000005_Node000011"><a xlink:title=" ">
<path fill="none" stroke="#63b8ff" d="M444.07,-114.14C593.21,-104.15 958.25,-79.69 1106.18,-69.78"/>
<polygon fill="#63b8ff" stroke="#63b8ff" points="1106.7,-73.25 1116.45,-69.09 1106.24,-66.26 1106.7,-73.25"/>
</a>
</g>
</g>
<!-- Node10&#45;&gt;Node2 -->
<g id="edge11_Node000010_Node000002" class="edge">
<title>Node10&#45;&gt;Node2</title>
<g id="a_edge11_Node000010_Node000002"><a xlink:title=" ">
<path fill="none" stroke="#63b8ff" d="M231.55,-54.75C226.99,-47.42 220.33,-36.73 214.71,-27.7"/>
<polygon fill="#63b8ff" stroke="#63b8ff" points="217.6,-25.73 209.35,-19.09 211.66,-29.43 217.6,-25.73"/>
</a>
</g>
</g>
<!-- Node11&#45;&gt;Node2 -->
<g id="edge13_Node000011_Node000002" class="edge">
<title>Node11&#45;&gt;Node2</title>
<g id="a_edge13_Node000011_Node000002"><a xlink:title=" ">
<path fill="none" stroke="#63b8ff" d="M1116.22,-56.4C1111.41,-55.88 1106.62,-55.4 1102,-55 779.94,-26.93 391.25,-15.15 254.52,-11.68"/>
<polygon fill="#63b8ff" stroke="#63b8ff" points="254.43,-8.18 244.35,-11.42 254.26,-15.17 254.43,-8.18"/>
</a>
</g>
</g>
<!-- Node12&#45;&gt;Node3 -->
<g id="edge16_Node000012_Node000003" class="edge">
<title>Node12&#45;&gt;Node3</title>
<g id="a_edge16_Node000012_Node000003"><a xlink:title=" ">
<path fill="none" stroke="#63b8ff" d="M660.2,-219.88C676.98,-206.15 711.95,-179.4 746,-165 773.2,-153.5 848.64,-138.51 899.49,-129.19"/>
<polygon fill="#63b8ff" stroke="#63b8ff" points="900.41,-132.58 909.62,-127.35 899.16,-125.7 900.41,-132.58"/>
</a>
</g>
</g>
<!-- Node12&#45;&gt;Node6 -->
<g id="edge19_Node000012_Node000006" class="edge">
<title>Node12&#45;&gt;Node6</title>
<g id="a_edge19_Node000012_Node000006"><a xlink:title=" ">
<path fill="none" stroke="#63b8ff" d="M583.82,-219.96C562.1,-213.66 540.17,-202.78 527,-184 508.11,-157.08 513.11,-139.81 527,-110 532.83,-97.49 544.09,-87.25 554.75,-79.76"/>
<polygon fill="#63b8ff" stroke="#63b8ff" points="556.94,-82.51 563.42,-74.13 553.12,-76.64 556.94,-82.51"/>
</a>
</g>
</g>
<!-- Node12&#45;&gt;Node10 -->
<g id="edge18_Node000012_Node000010" class="edge">
<title>Node12&#45;&gt;Node10</title>
<g id="a_edge18_Node000012_Node000010"><a xlink:title=" ">
<path fill="none" stroke="#63b8ff" d="M598.26,-219.96C507.41,-204.14 324.01,-168.3 273,-129 258.28,-117.66 248.61,-98.48 243.04,-84.16"/>
<polygon fill="#63b8ff" stroke="#63b8ff" points="246.21,-82.62 239.56,-74.37 239.61,-84.96 246.21,-82.62"/>
</a>
</g>
</g>
<!-- Node12&#45;&gt;Node11 -->
<g id="edge33_Node000012_Node000011" class="edge">
<title>Node12&#45;&gt;Node11</title>
<g id="a_edge33_Node000012_Node000011"><a xlink:title=" ">
<path fill="none" stroke="#63b8ff" d="M723.01,-225.16C843.99,-219.07 1075.86,-204.83 1107,-184 1142.06,-160.54 1159.04,-110.99 1165.98,-83.99"/>
<polygon fill="#63b8ff" stroke="#63b8ff" points="1169.39,-84.78 1168.29,-74.24 1162.58,-83.16 1169.39,-84.78"/>
</a>
</g>
</g>
<!-- Node13 -->
<g id="Node000013" class="node">
<title>Node13</title>
<g id="a_Node000013"><a xlink:title=" ">
<polygon fill="#e0e0e0" stroke="#999999" points="760,-74 622,-74 622,-55 760,-55 760,-74"/>
<text text-anchor="middle" x="691" y="-62" font-family="Helvetica,sans-Serif" font-size="10.00">libultraship/libultraship.h</text>
</a>
</g>
</g>
<!-- Node12&#45;&gt;Node13 -->
<g id="edge15_Node000012_Node000013" class="edge">
<title>Node12&#45;&gt;Node13</title>
<g id="a_edge15_Node000012_Node000013"><a xlink:title=" ">
<path fill="none" stroke="#63b8ff" d="M651.22,-219.61C653.49,-206.23 659.5,-180.81 674,-165 698.99,-137.75 729.31,-160.29 749,-129 761.05,-109.85 738.5,-91.11 718.1,-79.02"/>
<polygon fill="#63b8ff" stroke="#63b8ff" points="719.74,-75.92 709.3,-74.1 716.32,-82.04 719.74,-75.92"/>
</a>
</g>
</g>
<!-- Node14 -->
<g id="Node000014" class="node">
<title>Node14</title>
<g id="a_Node000014"><a xlink:title=" ">
<polygon fill="#e0e0e0" stroke="#999999" points="889,-74 799,-74 799,-55 889,-55 889,-74"/>
<text text-anchor="middle" x="844" y="-62" font-family="Helvetica,sans-Serif" font-size="10.00">libultra/types.h</text>
</a>
</g>
</g>
<!-- Node12&#45;&gt;Node14 -->
<g id="edge17_Node000012_Node000014" class="edge">
<title>Node12&#45;&gt;Node14</title>
<g id="a_edge17_Node000012_Node000014"><a xlink:title=" ">
<path fill="none" stroke="#63b8ff" d="M656.31,-219.77C666.18,-206.6 686.37,-181.44 708,-165 736.17,-143.59 750.24,-149.6 779,-129 798.33,-115.16 817.43,-95.6 829.87,-81.86"/>
<polygon fill="#63b8ff" stroke="#63b8ff" points="832.68,-83.96 836.7,-74.16 827.45,-79.32 832.68,-83.96"/>
</a>
</g>
</g>
<!-- Node15 -->
<g id="Node000015" class="node">
<title>Node15</title>
<g id="a_Node000015"><a xlink:href="GameObject_8h.html" target="_top" xlink:title=" ">
<polygon fill="white" stroke="#666666" points="622,-184 536,-184 536,-165 622,-165 622,-184"/>
<text text-anchor="middle" x="579" y="-172" font-family="Helvetica,sans-Serif" font-size="10.00">GameObject.h</text>
</a>
</g>
</g>
<!-- Node12&#45;&gt;Node15 -->
<g id="edge20_Node000012_Node000015" class="edge">
<title>Node12&#45;&gt;Node15</title>
<g id="a_edge20_Node000012_Node000015"><a xlink:title=" ">
<path fill="none" stroke="#63b8ff" d="M633.48,-219.98C621.25,-212.15 605.08,-200.34 593.39,-190.86"/>
<polygon fill="#63b8ff" stroke="#63b8ff" points="595.36,-187.95 585.47,-184.17 590.85,-193.3 595.36,-187.95"/>
</a>
</g>
</g>
<!-- Node17 -->
<g id="Node000017" class="node">
<title>Node17</title>
<g id="a_Node000017"><a xlink:title=" ">
<polygon fill="#e0e0e0" stroke="#999999" points="871.5,-184 754.5,-184 754.5,-165 871.5,-165 871.5,-184"/>
<text text-anchor="middle" x="813" y="-172" font-family="Helvetica,sans-Serif" font-size="10.00">fast/Fast3dWindow.h</text>
</a>
</g>
</g>
<!-- Node12&#45;&gt;Node17 -->
<g id="edge31_Node000012_Node000017" class="edge">
<title>Node12&#45;&gt;Node17</title>
<g id="a_edge31_Node000012_Node000017"><a xlink:title=" ">
<path fill="none" stroke="#63b8ff" d="M676.19,-219.98C703.44,-211.13 746.3,-197.19 776.78,-187.28"/>
<polygon fill="#63b8ff" stroke="#63b8ff" points="778.18,-190.5 786.61,-184.08 776.01,-183.85 778.18,-190.5"/>
</a>
</g>
</g>
<!-- Node18 -->
<g id="Node000018" class="node">
<title>Node18</title>
<g id="a_Node000018"><a xlink:title=" ">
<polygon fill="#e0e0e0" stroke="#999999" points="988,-184 890,-184 890,-165 988,-165 988,-184"/>
<text text-anchor="middle" x="939" y="-172" font-family="Helvetica,sans-Serif" font-size="10.00">fast/interpreter.h</text>
</a>
</g>
</g>
<!-- Node12&#45;&gt;Node18 -->
<g id="edge32_Node000012_Node000018" class="edge">
<title>Node12&#45;&gt;Node18</title>
<g id="a_edge32_Node000012_Node000018"><a xlink:title=" ">
<path fill="none" stroke="#63b8ff" d="M696.43,-219.98C746.95,-210.72 827.74,-195.9 882.05,-185.94"/>
<polygon fill="#63b8ff" stroke="#63b8ff" points="883,-189.33 892.2,-184.08 881.74,-182.44 883,-189.33"/>
</a>
</g>
</g>
<!-- Node15&#45;&gt;Node3 -->
<g id="edge22_Node000015_Node000003" class="edge">
<title>Node15&#45;&gt;Node3</title>
<g id="a_edge22_Node000015_Node000003"><a xlink:title=" ">
<path fill="none" stroke="#63b8ff" d="M622.11,-167.72C683.13,-159.48 798.18,-143.71 896,-129 897.27,-128.81 898.56,-128.61 899.86,-128.42"/>
<polygon fill="#63b8ff" stroke="#63b8ff" points="900.59,-131.84 909.94,-126.85 899.52,-124.93 900.59,-131.84"/>
</a>
</g>
</g>
<!-- Node15&#45;&gt;Node5 -->
<g id="edge27_Node000015_Node000005" class="edge">
<title>Node15&#45;&gt;Node5</title>
<g id="a_edge27_Node000015_Node000005"><a xlink:title=" ">
<path fill="none" stroke="#63b8ff" d="M546.87,-164.98C512.85,-155.97 459,-141.7 421.5,-131.76"/>
<polygon fill="#63b8ff" stroke="#63b8ff" points="421.95,-128.26 411.39,-129.08 420.16,-135.03 421.95,-128.26"/>
</a>
</g>
</g>
<!-- Node15&#45;&gt;Node6 -->
<g id="edge26_Node000015_Node000006" class="edge">
<title>Node15&#45;&gt;Node6</title>
<g id="a_edge26_Node000015_Node000006"><a xlink:title=" ">
<path fill="none" stroke="#63b8ff" d="M565.56,-164.99C549.19,-153.45 524.77,-131.77 534,-110 538.98,-98.25 548.75,-88.09 558.01,-80.45"/>
<polygon fill="#63b8ff" stroke="#63b8ff" points="560.4,-83.03 566.22,-74.18 556.15,-77.47 560.4,-83.03"/>
</a>
</g>
</g>
<!-- Node15&#45;&gt;Node10 -->
<g id="edge24_Node000015_Node000010" class="edge">
<title>Node15&#45;&gt;Node10</title>
<g id="a_edge24_Node000015_Node000010"><a xlink:title=" ">
<path fill="none" stroke="#63b8ff" d="M535.84,-174.1C479.81,-173.22 380.28,-165.93 305,-129 282.45,-117.94 262.21,-96.89 249.79,-82.07"/>
<polygon fill="#63b8ff" stroke="#63b8ff" points="252.43,-79.76 243.42,-74.18 246.98,-84.16 252.43,-79.76"/>
</a>
</g>
</g>
<!-- Node15&#45;&gt;Node11 -->
<g id="edge30_Node000015_Node000011" class="edge">
<title>Node15&#45;&gt;Node11</title>
<g id="a_edge30_Node000015_Node000011"><a xlink:title=" ">
<path fill="none" stroke="#63b8ff" d="M620.1,-164.98C681.23,-152.39 799.8,-128.34 901,-110 971.01,-97.31 1051.55,-84.18 1106.11,-75.5"/>
<polygon fill="#63b8ff" stroke="#63b8ff" points="1107,-78.9 1116.33,-73.88 1105.9,-71.99 1107,-78.9"/>
</a>
</g>
</g>
<!-- Node15&#45;&gt;Node12 -->
<g id="edge25_Node000015_Node000012" class="edge">
<title>Node15&#45;&gt;Node12</title>
<g id="a_edge25_Node000015_Node000012"><a xlink:title=" ">
<path fill="none" stroke="#63b8ff" d="M595.76,-184.17C608.04,-192.06 624.21,-203.87 635.84,-213.32"/>
<polygon fill="#63b8ff" stroke="#63b8ff" points="633.81,-216.19 643.71,-219.98 638.34,-210.85 633.81,-216.19"/>
</a>
</g>
</g>
<!-- Node15&#45;&gt;Node13 -->
<g id="edge21_Node000015_Node000013" class="edge">
<title>Node15&#45;&gt;Node13</title>
<g id="a_edge21_Node000015_Node000013"><a xlink:title=" ">
<path fill="none" stroke="#63b8ff" d="M573.84,-164.83C566.8,-151.73 556.3,-126.67 568,-110 579.22,-94.01 596.78,-83.74 615.16,-77.16"/>
<polygon fill="#63b8ff" stroke="#63b8ff" points="616.38,-80.44 624.82,-74.04 614.23,-73.78 616.38,-80.44"/>
</a>
</g>
</g>
<!-- Node15&#45;&gt;Node14 -->
<g id="edge23_Node000015_Node000014" class="edge">
<title>Node15&#45;&gt;Node14</title>
<g id="a_edge23_Node000015_Node000014"><a xlink:title=" ">
<path fill="none" stroke="#63b8ff" d="M622.25,-166.31C657.44,-159.5 707.82,-147.52 749,-129 777.61,-116.13 807.12,-94.94 825.5,-80.61"/>
<polygon fill="#63b8ff" stroke="#63b8ff" points="827.93,-83.15 833.58,-74.19 823.58,-77.67 827.93,-83.15"/>
</a>
</g>
</g>
<!-- Node16 -->
<g id="Node000016" class="node">
<title>Node16</title>
<g id="a_Node000016"><a xlink:href="DefaultProperties_8h.html" target="_top" xlink:title=" ">
<polygon fill="white" stroke="#666666" points="739.5,-129 576.5,-129 576.5,-110 739.5,-110 739.5,-129"/>
<text text-anchor="middle" x="658" y="-117" font-family="Helvetica,sans-Serif" font-size="10.00">src/port/ui/DefaultProperties.h</text>
</a>
</g>
</g>
<!-- Node15&#45;&gt;Node16 -->
<g id="edge28_Node000015_Node000016" class="edge">
<title>Node15&#45;&gt;Node16</title>
<g id="a_edge28_Node000015_Node000016"><a xlink:title=" ">
<path fill="none" stroke="#63b8ff" d="M591.69,-164.98C603.83,-156.84 622.36,-144.41 636.75,-134.76"/>
<polygon fill="#63b8ff" stroke="#63b8ff" points="638.72,-137.65 645.08,-129.17 634.82,-131.84 638.72,-137.65"/>
</a>
</g>
</g>
<!-- Node16&#45;&gt;Node13 -->
<g id="edge29_Node000016_Node000013" class="edge">
<title>Node16&#45;&gt;Node13</title>
<g id="a_edge29_Node000016_Node000013"><a xlink:title=" ">
<path fill="none" stroke="#63b8ff" d="M663.45,-109.75C668.01,-102.42 674.67,-91.73 680.29,-82.7"/>
<polygon fill="#63b8ff" stroke="#63b8ff" points="683.34,-84.43 685.65,-74.09 677.4,-80.73 683.34,-84.43"/>
</a>
</g>
</g>
<!-- Node19&#45;&gt;Node2 -->
<g id="edge36_Node000019_Node000002" class="edge">
<title>Node19&#45;&gt;Node2</title>
<g id="a_edge36_Node000019_Node000002"><a xlink:title=" ">
<path fill="none" stroke="#63b8ff" d="M274.38,-219.7C278.86,-206.45 284.89,-181.18 273,-165 241.29,-121.84 189.71,-172.16 158,-129 138.53,-102.5 145.16,-85.28 158,-55 162.98,-43.25 172.75,-33.09 182.01,-25.45"/>
<polygon fill="#63b8ff" stroke="#63b8ff" points="184.4,-28.03 190.22,-19.18 180.15,-22.47 184.4,-28.03"/>
</a>
</g>
</g>
<!-- Node20 -->
<g id="Node000020" class="node">
<title>Node20</title>
<g id="a_Node000020"><a xlink:href="math_8h.html" target="_top" xlink:title=" ">
<polygon fill="white" stroke="#666666" points="263.5,-184 212.5,-184 212.5,-165 263.5,-165 263.5,-184"/>
<text text-anchor="middle" x="238" y="-172" font-family="Helvetica,sans-Serif" font-size="10.00">math.h</text>
</a>
</g>
</g>
<!-- Node19&#45;&gt;Node20 -->
<g id="edge35_Node000019_Node000020" class="edge">
<title>Node19&#45;&gt;Node20</title>
<g id="a_edge35_Node000019_Node000020"><a xlink:title=" ">
<path fill="none" stroke="#63b8ff" d="M265.55,-219.75C260.99,-212.42 254.33,-201.73 248.71,-192.7"/>
<polygon fill="#63b8ff" stroke="#63b8ff" points="251.6,-190.73 243.35,-184.09 245.66,-194.43 251.6,-190.73"/>
</a>
</g>
</g>
<!-- Node21&#45;&gt;Node11 -->
<g id="edge43_Node000021_Node000011" class="edge">
<title>Node21&#45;&gt;Node11</title>
<g id="a_edge43_Node000021_Node000011"><a xlink:title=" ">
<path fill="none" stroke="#63b8ff" d="M1092.19,-219.97C1107.69,-212.67 1128.02,-200.67 1140,-184 1161.7,-153.8 1167.75,-109.41 1169.41,-84.42"/>
<polygon fill="#63b8ff" stroke="#63b8ff" points="1172.92,-84.29 1169.91,-74.14 1165.92,-83.95 1172.92,-84.29"/>
</a>
</g>
</g>
<!-- Node22 -->
<g id="Node000022" class="node">
<title>Node22</title>
<g id="a_Node000022"><a xlink:href="mk64_8h.html" target="_top" xlink:title=" ">
<polygon fill="white" stroke="#666666" points="1097.5,-184 1044.5,-184 1044.5,-165 1097.5,-165 1097.5,-184"/>
<text text-anchor="middle" x="1071" y="-172" font-family="Helvetica,sans-Serif" font-size="10.00">mk64.h</text>
</a>
</g>
</g>
<!-- Node21&#45;&gt;Node22 -->
<g id="edge38_Node000021_Node000022" class="edge">
<title>Node21&#45;&gt;Node22</title>
<g id="a_edge38_Node000021_Node000022"><a xlink:title=" ">
<path fill="none" stroke="#63b8ff" d="M1071,-219.75C1071,-212.8 1071,-202.85 1071,-194.13"/>
<polygon fill="#63b8ff" stroke="#63b8ff" points="1074.5,-194.09 1071,-184.09 1067.5,-194.09 1074.5,-194.09"/>
</a>
</g>
</g>
<!-- Node22&#45;&gt;Node2 -->
<g id="edge39_Node000022_Node000002" class="edge">
<title>Node22&#45;&gt;Node2</title>
<g id="a_edge39_Node000022_Node000002"><a xlink:title=" ">
<path fill="none" stroke="#63b8ff" d="M1073.62,-164.67C1076.99,-151.36 1081.08,-126.03 1069,-110 1020.97,-46.23 976.43,-69.89 898,-55 774.45,-31.54 392.41,-16.8 254.39,-12.11"/>
<polygon fill="#63b8ff" stroke="#63b8ff" points="254.22,-8.61 244.11,-11.77 253.99,-15.6 254.22,-8.61"/>
</a>
</g>
</g>
<!-- Node22&#45;&gt;Node3 -->
<g id="edge42_Node000022_Node000003" class="edge">
<title>Node22&#45;&gt;Node3</title>
<g id="a_edge42_Node000022_Node000003"><a xlink:title=" ">
<path fill="none" stroke="#63b8ff" d="M1051.4,-164.98C1031.68,-156.42 1001.05,-143.11 978.42,-133.28"/>
<polygon fill="#63b8ff" stroke="#63b8ff" points="979.52,-129.94 968.96,-129.17 976.74,-136.37 979.52,-129.94"/>
</a>
</g>
</g>
<!-- Node23 -->
<g id="Node000023" class="node">
<title>Node23</title>
<g id="a_Node000023"><a xlink:href="string_8h.html" target="_top" xlink:title=" ">
<polygon fill="white" stroke="#666666" points="1059.5,-129 1006.5,-129 1006.5,-110 1059.5,-110 1059.5,-129"/>
<text text-anchor="middle" x="1033" y="-117" font-family="Helvetica,sans-Serif" font-size="10.00">string.h</text>
</a>
</g>
</g>
<!-- Node22&#45;&gt;Node23 -->
<g id="edge40_Node000022_Node000023" class="edge">
<title>Node22&#45;&gt;Node23</title>
<g id="a_edge40_Node000022_Node000023"><a xlink:title=" ">
<path fill="none" stroke="#63b8ff" d="M1064.73,-164.75C1059.41,-157.34 1051.64,-146.5 1045.12,-137.41"/>
<polygon fill="#63b8ff" stroke="#63b8ff" points="1047.83,-135.18 1039.16,-129.09 1042.14,-139.26 1047.83,-135.18"/>
</a>
</g>
</g>
<!-- Node23&#45;&gt;Node14 -->
<g id="edge41_Node000023_Node000014" class="edge">
<title>Node23&#45;&gt;Node14</title>
<g id="a_edge41_Node000023_Node000014"><a xlink:title=" ">
<path fill="none" stroke="#63b8ff" d="M1006.32,-111.02C974.61,-102.12 921.35,-87.19 884.53,-76.87"/>
<polygon fill="#63b8ff" stroke="#63b8ff" points="885.19,-73.41 874.61,-74.08 883.3,-80.15 885.19,-73.41"/>
</a>
</g>
</g>
<!-- Node24&#45;&gt;Node2 -->
<g id="edge45_Node000024_Node000002" class="edge">
<title>Node24&#45;&gt;Node2</title>
<g id="a_edge45_Node000024_Node000002"><a xlink:title=" ">
<path fill="none" stroke="#63b8ff" d="M1293.32,-109.93C1283.19,-95.5 1260.48,-66.77 1233,-55 1142.67,-16.31 448.7,-11.25 254.41,-10.6"/>
<polygon fill="#63b8ff" stroke="#63b8ff" points="254.21,-7.1 244.2,-10.56 254.19,-14.1 254.21,-7.1"/>
</a>
</g>
</g>
<!-- Node24&#45;&gt;Node11 -->
<g id="edge46_Node000024_Node000011" class="edge">
<title>Node24&#45;&gt;Node11</title>
<g id="a_edge46_Node000024_Node000011"><a xlink:title=" ">
<path fill="none" stroke="#63b8ff" d="M1278.27,-109.98C1257.24,-101.34 1224.45,-87.87 1200.46,-78.02"/>
<polygon fill="#63b8ff" stroke="#63b8ff" points="1201.68,-74.73 1191.1,-74.17 1199.02,-81.21 1201.68,-74.73"/>
</a>
</g>
</g>
<!-- Node25&#45;&gt;Node2 -->
<g id="edge51_Node000025_Node000002" class="edge">
<title>Node25&#45;&gt;Node2</title>
<g id="a_edge51_Node000025_Node000002"><a xlink:title=" ">
<path fill="none" stroke="#63b8ff" d="M97.49,-274.8C83.61,-266.14 67.4,-253.87 57,-239 40.12,-214.86 38,-204.96 38,-175.5 38,-175.5 38,-175.5 38,-118.5 38,-62.53 105.12,-34.07 154,-20.77"/>
<polygon fill="#63b8ff" stroke="#63b8ff" points="155.01,-24.12 163.82,-18.23 153.26,-17.34 155.01,-24.12"/>
</a>
</g>
</g>
<!-- Node26 -->
<g id="Node000026" class="node">
<title>Node26</title>
<g id="a_Node000026"><a xlink:href="align__asset__macro_8h.html" target="_top" xlink:title=" ">
<polygon fill="white" stroke="#666666" points="183.5,-239 66.5,-239 66.5,-220 183.5,-220 183.5,-239"/>
<text text-anchor="middle" x="125" y="-227" font-family="Helvetica,sans-Serif" font-size="10.00">align_asset_macro.h</text>
</a>
</g>
</g>
<!-- Node25&#45;&gt;Node26 -->
<g id="edge52_Node000025_Node000026" class="edge">
<title>Node25&#45;&gt;Node26</title>
<g id="a_edge52_Node000025_Node000026"><a xlink:title=" ">
<path fill="none" stroke="#63b8ff" d="M124.24,-274.84C124.37,-267.21 124.53,-257.7 124.68,-249.45"/>
<polygon fill="#63b8ff" stroke="#63b8ff" points="128.18,-249.32 124.85,-239.27 121.18,-249.2 128.18,-249.32"/>
</a>
</g>
</g>
</g>
</svg>
