<?xml version="1.0" encoding="UTF-8" standalone="no"?>
<!DOCTYPE svg PUBLIC "-//W3C//DTD SVG 1.1//EN"
 "http://www.w3.org/Graphics/SVG/1.1/DTD/svg11.dtd">
<!-- Generated by graphviz version 2.43.0 (0)
 -->
<!-- Title: func_8001E8E8 Pages: 1 -->
<svg width="1004pt" height="432pt"
 viewBox="0.00 0.00 1004.00 432.02" xmlns="http://www.w3.org/2000/svg" xmlns:xlink="http://www.w3.org/1999/xlink">
<g id="graph0" class="graph" transform="scale(1 1) rotate(0) translate(4 428.02)">
<title>func_8001E8E8</title>
<!-- Node1 -->
<g id="Node000001" class="node">
<title>Node1</title>
<g id="a_Node000001"><a xlink:title=" ">
<polygon fill="#999999" stroke="#666666" points="91,-188 0,-188 0,-169 91,-169 91,-188"/>
<text text-anchor="middle" x="45.5" y="-176" font-family="Helvetica,sans-Serif" font-size="10.00">func_8001E8E8</text>
</a>
</g>
</g>
<!-- Node2 -->
<g id="Node000002" class="node">
<title>Node2</title>
<g id="a_Node000002"><a xlink:href="math__util_8c.html#aaa39a297477f56051975259f4bddd829" target="_top" xlink:title=" ">
<polygon fill="white" stroke="#666666" points="878,-318 828,-318 828,-299 878,-299 878,-318"/>
<text text-anchor="middle" x="853" y="-306" font-family="Helvetica,sans-Serif" font-size="10.00">atan2s</text>
</a>
</g>
</g>
<!-- Node1&#45;&gt;Node2 -->
<g id="edge1_Node000001_Node000002" class="edge">
<title>Node1&#45;&gt;Node2</title>
<g id="a_edge1_Node000001_Node000002"><a xlink:title=" ">
<path fill="none" stroke="#63b8ff" d="M52.89,-188.25C83.3,-233.33 218.59,-419.5 379,-419.5 379,-419.5 379,-419.5 571,-419.5 670.12,-419.5 706.68,-439.96 792,-389.5 816.39,-375.08 833.93,-346.5 843.52,-327.44"/>
<polygon fill="#63b8ff" stroke="#63b8ff" points="846.78,-328.76 847.92,-318.22 840.46,-325.74 846.78,-328.76"/>
</a>
</g>
</g>
<!-- Node4 -->
<g id="Node000004" class="node">
<title>Node4</title>
<g id="a_Node000004"><a xlink:href="collision_8c.html#a37aa55b3768d001533ad75e7f1b8388a" target="_top" xlink:title=" ">
<polygon fill="white" stroke="#666666" points="268,-75 127,-75 127,-56 268,-56 268,-75"/>
<text text-anchor="middle" x="197.5" y="-63" font-family="Helvetica,sans-Serif" font-size="10.00">check_bounding_collision</text>
</a>
</g>
</g>
<!-- Node1&#45;&gt;Node4 -->
<g id="edge3_Node000001_Node000004" class="edge">
<title>Node1&#45;&gt;Node4</title>
<g id="a_edge3_Node000001_Node000004"><a xlink:title=" ">
<path fill="none" stroke="#63b8ff" d="M56.42,-168.69C71.15,-154.39 99.96,-127.35 127,-107.5 140.54,-97.57 156.52,-87.78 169.74,-80.16"/>
<polygon fill="#63b8ff" stroke="#63b8ff" points="171.83,-83 178.81,-75.03 168.38,-76.91 171.83,-83"/>
</a>
</g>
</g>
<!-- Node8 -->
<g id="Node000008" class="node">
<title>Node8</title>
<g id="a_Node000008"><a xlink:href="camera_8c.html#a4dad3173b9ad30349800405b58fc6c80" target="_top" xlink:title=" ">
<polygon fill="white" stroke="#666666" points="244,-266 151,-266 151,-247 244,-247 244,-266"/>
<text text-anchor="middle" x="197.5" y="-254" font-family="Helvetica,sans-Serif" font-size="10.00">func_8001D53C</text>
</a>
</g>
</g>
<!-- Node1&#45;&gt;Node8 -->
<g id="edge7_Node000001_Node000008" class="edge">
<title>Node1&#45;&gt;Node8</title>
<g id="a_edge7_Node000001_Node000008"><a xlink:title=" ">
<path fill="none" stroke="#63b8ff" d="M64.89,-188.06C90.87,-201.57 138.51,-226.35 168.79,-242.09"/>
<polygon fill="#63b8ff" stroke="#63b8ff" points="167.47,-245.35 177.96,-246.86 170.7,-239.14 167.47,-245.35"/>
</a>
</g>
</g>
<!-- Node15 -->
<g id="Node000015" class="node">
<title>Node15</title>
<g id="a_Node000015"><a xlink:href="math_8h.html#a37bde043e94a6f074c78f10518fb5d99" target="_top" xlink:title=" ">
<polygon fill="white" stroke="#666666" points="757.5,-169 718.5,-169 718.5,-150 757.5,-150 757.5,-169"/>
<text text-anchor="middle" x="738" y="-157" font-family="Helvetica,sans-Serif" font-size="10.00">sqrtf</text>
</a>
</g>
</g>
<!-- Node1&#45;&gt;Node15 -->
<g id="edge23_Node000001_Node000015" class="edge">
<title>Node1&#45;&gt;Node15</title>
<g id="a_edge23_Node000001_Node000015"><a xlink:title=" ">
<path fill="none" stroke="#63b8ff" d="M91.01,-174.65C190.71,-166.49 439.58,-148.65 648,-154.5 668.11,-155.06 690.75,-156.35 708.16,-157.47"/>
<polygon fill="#63b8ff" stroke="#63b8ff" points="708.05,-160.97 718.26,-158.14 708.52,-153.98 708.05,-160.97"/>
</a>
</g>
</g>
<!-- Node3 -->
<g id="Node000003" class="node">
<title>Node3</title>
<g id="a_Node000003"><a xlink:href="math__util_8c.html#a0273b0ea0783a06996c28669a7438ed9" target="_top" xlink:title=" ">
<polygon fill="white" stroke="#666666" points="996,-318 914,-318 914,-299 996,-299 996,-318"/>
<text text-anchor="middle" x="955" y="-306" font-family="Helvetica,sans-Serif" font-size="10.00">atan2_lookup</text>
</a>
</g>
</g>
<!-- Node2&#45;&gt;Node3 -->
<g id="edge2_Node000002_Node000003" class="edge">
<title>Node2&#45;&gt;Node3</title>
<g id="a_edge2_Node000002_Node000003"><a xlink:title=" ">
<path fill="none" stroke="#63b8ff" d="M878.21,-308.5C885.85,-308.5 894.6,-308.5 903.38,-308.5"/>
<polygon fill="#63b8ff" stroke="#63b8ff" points="903.63,-312 913.63,-308.5 903.63,-305 903.63,-312"/>
</a>
</g>
</g>
<!-- Node5 -->
<g id="Node000005" class="node">
<title>Node5</title>
<g id="a_Node000005"><a xlink:href="collision_8c.html#ac312bf382cb40752f6b790a99e7cdcb6" target="_top" xlink:title=" ">
<polygon fill="white" stroke="#666666" points="434,-93 326,-93 326,-74 434,-74 434,-93"/>
<text text-anchor="middle" x="380" y="-81" font-family="Helvetica,sans-Serif" font-size="10.00">check_collision_yx</text>
</a>
</g>
</g>
<!-- Node4&#45;&gt;Node5 -->
<g id="edge4_Node000004_Node000005" class="edge">
<title>Node4&#45;&gt;Node5</title>
<g id="a_edge4_Node000004_Node000005"><a xlink:title=" ">
<path fill="none" stroke="#63b8ff" d="M268.03,-72.43C283.75,-74 300.36,-75.66 315.81,-77.2"/>
<polygon fill="#63b8ff" stroke="#63b8ff" points="315.47,-80.68 325.77,-78.19 316.16,-73.72 315.47,-80.68"/>
</a>
</g>
</g>
<!-- Node6 -->
<g id="Node000006" class="node">
<title>Node6</title>
<g id="a_Node000006"><a xlink:href="collision_8c.html#a4b48832a90e984536a0635a016ec4f28" target="_top" xlink:title=" ">
<polygon fill="white" stroke="#666666" points="433.5,-56 326.5,-56 326.5,-37 433.5,-37 433.5,-56"/>
<text text-anchor="middle" x="380" y="-44" font-family="Helvetica,sans-Serif" font-size="10.00">check_collision_zx</text>
</a>
</g>
</g>
<!-- Node4&#45;&gt;Node6 -->
<g id="edge5_Node000004_Node000006" class="edge">
<title>Node4&#45;&gt;Node6</title>
<g id="a_edge5_Node000004_Node000006"><a xlink:title=" ">
<path fill="none" stroke="#63b8ff" d="M268.03,-58.18C283.91,-56.51 300.71,-54.74 316.29,-53.1"/>
<polygon fill="#63b8ff" stroke="#63b8ff" points="316.75,-56.57 326.33,-52.04 316.02,-49.61 316.75,-56.57"/>
</a>
</g>
</g>
<!-- Node7 -->
<g id="Node000007" class="node">
<title>Node7</title>
<g id="a_Node000007"><a xlink:href="collision_8c.html#a21fef964ab48191a1c0341954ef27a40" target="_top" xlink:title=" ">
<polygon fill="white" stroke="#666666" points="433.5,-19 326.5,-19 326.5,0 433.5,0 433.5,-19"/>
<text text-anchor="middle" x="380" y="-7" font-family="Helvetica,sans-Serif" font-size="10.00">check_collision_zy</text>
</a>
</g>
</g>
<!-- Node4&#45;&gt;Node7 -->
<g id="edge6_Node000004_Node000007" class="edge">
<title>Node4&#45;&gt;Node7</title>
<g id="a_edge6_Node000004_Node000007"><a xlink:title=" ">
<path fill="none" stroke="#63b8ff" d="M222.55,-55.98C243.77,-47.79 275.65,-35.98 304,-27.5 310.97,-25.42 318.35,-23.41 325.67,-21.53"/>
<polygon fill="#63b8ff" stroke="#63b8ff" points="326.7,-24.88 335.55,-19.07 325,-18.09 326.7,-24.88"/>
</a>
</g>
</g>
<!-- Node9 -->
<g id="Node000009" class="node">
<title>Node9</title>
<g id="a_Node000009"><a xlink:href="math__util_8c.html#ad8cb26171252640b6d9398122af8173a" target="_top" xlink:title=" ">
<polygon fill="white" stroke="#666666" points="439.5,-250.5 320.5,-250.5 320.5,-220.5 439.5,-220.5 439.5,-250.5"/>
<text text-anchor="start" x="328.5" y="-238.5" font-family="Helvetica,sans-Serif" font-size="10.00">calculate_orientation</text>
<text text-anchor="middle" x="380" y="-227.5" font-family="Helvetica,sans-Serif" font-size="10.00">_matrix</text>
</a>
</g>
</g>
<!-- Node8&#45;&gt;Node9 -->
<g id="edge8_Node000008_Node000009" class="edge">
<title>Node8&#45;&gt;Node9</title>
<g id="a_edge8_Node000008_Node000009"><a xlink:title=" ">
<path fill="none" stroke="#63b8ff" d="M244.05,-251.2C264.15,-248.86 288.22,-246.06 310.42,-243.48"/>
<polygon fill="#63b8ff" stroke="#63b8ff" points="310.95,-246.94 320.47,-242.31 310.14,-239.99 310.95,-246.94"/>
</a>
</g>
</g>
<!-- Node18 -->
<g id="Node000018" class="node">
<title>Node18</title>
<g id="a_Node000018"><a xlink:href="render__player_8c.html#a35eebbf671cc37666be29a2a9b6f3c8c" target="_top" xlink:title=" ">
<polygon fill="white" stroke="#666666" points="435,-288 325,-288 325,-269 435,-269 435,-288"/>
<text text-anchor="middle" x="380" y="-276" font-family="Helvetica,sans-Serif" font-size="10.00">move_f32_towards</text>
</a>
</g>
</g>
<!-- Node8&#45;&gt;Node18 -->
<g id="edge21_Node000008_Node000018" class="edge">
<title>Node8&#45;&gt;Node18</title>
<g id="a_edge21_Node000008_Node000018"><a xlink:title=" ">
<path fill="none" stroke="#63b8ff" d="M244.05,-262.05C265.43,-264.66 291.28,-267.81 314.62,-270.65"/>
<polygon fill="#63b8ff" stroke="#63b8ff" points="314.44,-274.16 324.79,-271.89 315.29,-267.21 314.44,-274.16"/>
</a>
</g>
</g>
<!-- Node19 -->
<g id="Node000019" class="node">
<title>Node19</title>
<g id="a_Node000019"><a xlink:href="math__util_8c.html#ad5bb0138c68b50f119d3cb7966f522b7" target="_top" xlink:title=" ">
<polygon fill="white" stroke="#666666" points="456,-325 304,-325 304,-306 456,-306 456,-325"/>
<text text-anchor="middle" x="380" y="-313" font-family="Helvetica,sans-Serif" font-size="10.00">mtxf_translate_vec3f_mat3</text>
</a>
</g>
</g>
<!-- Node8&#45;&gt;Node19 -->
<g id="edge22_Node000008_Node000019" class="edge">
<title>Node8&#45;&gt;Node19</title>
<g id="a_edge22_Node000008_Node000019"><a xlink:title=" ">
<path fill="none" stroke="#63b8ff" d="M220.42,-266.02C241.55,-274.96 274.56,-288.29 304,-297.5 310.61,-299.57 317.61,-301.53 324.58,-303.36"/>
<polygon fill="#63b8ff" stroke="#63b8ff" points="324.15,-306.86 334.71,-305.92 325.87,-300.07 324.15,-306.86"/>
</a>
</g>
</g>
<!-- Node10 -->
<g id="Node000010" class="node">
<title>Node10</title>
<g id="a_Node000010"><a xlink:href="math__util_8c.html#ab9faf7f44e869c2270678250306a9546" target="_top" xlink:title=" ">
<polygon fill="white" stroke="#666666" points="622,-293.5 518,-293.5 518,-263.5 622,-263.5 622,-293.5"/>
<text text-anchor="start" x="526" y="-281.5" font-family="Helvetica,sans-Serif" font-size="10.00">calculate_rotation</text>
<text text-anchor="middle" x="570" y="-270.5" font-family="Helvetica,sans-Serif" font-size="10.00">_matrix</text>
</a>
</g>
</g>
<!-- Node9&#45;&gt;Node10 -->
<g id="edge9_Node000009_Node000010" class="edge">
<title>Node9&#45;&gt;Node10</title>
<g id="a_edge9_Node000009_Node000010"><a xlink:title=" ">
<path fill="none" stroke="#63b8ff" d="M439.71,-248.93C461.39,-253.89 485.99,-259.51 507.87,-264.52"/>
<polygon fill="#63b8ff" stroke="#63b8ff" points="507.19,-267.95 517.72,-266.77 508.75,-261.13 507.19,-267.95"/>
</a>
</g>
</g>
<!-- Node11 -->
<g id="Node000011" class="node">
<title>Node11</title>
<g id="a_Node000011"><a xlink:href="math__util_8c.html#ae69cbf5c8d4b3b0dba2d7b4d4673689f" target="_top" xlink:title=" ">
<polygon fill="white" stroke="#666666" points="757,-309 719,-309 719,-290 757,-290 757,-309"/>
<text text-anchor="middle" x="738" y="-297" font-family="Helvetica,sans-Serif" font-size="10.00">coss</text>
</a>
</g>
</g>
<!-- Node9&#45;&gt;Node11 -->
<g id="edge16_Node000009_Node000011" class="edge">
<title>Node9&#45;&gt;Node11</title>
<g id="a_edge16_Node000009_Node000011"><a xlink:title=" ">
<path fill="none" stroke="#63b8ff" d="M437.47,-250.57C443.97,-253.38 450.31,-256.67 456,-260.5 476.4,-274.22 469.66,-292.23 492,-302.5 564.22,-335.72 661.55,-318.84 708.85,-307.31"/>
<polygon fill="#63b8ff" stroke="#63b8ff" points="709.86,-310.66 718.69,-304.8 708.14,-303.87 709.86,-310.66"/>
</a>
</g>
</g>
<!-- Node12 -->
<g id="Node000012" class="node">
<title>Node12</title>
<g id="a_Node000012"><a xlink:href="math__util_8c.html#a19ed3bd78fd2d3e2bd0a29f6caf48545" target="_top" xlink:title=" ">
<polygon fill="white" stroke="#666666" points="756,-258 720,-258 720,-239 756,-239 756,-258"/>
<text text-anchor="middle" x="738" y="-246" font-family="Helvetica,sans-Serif" font-size="10.00">sins</text>
</a>
</g>
</g>
<!-- Node9&#45;&gt;Node12 -->
<g id="edge19_Node000009_Node000012" class="edge">
<title>Node9&#45;&gt;Node12</title>
<g id="a_edge19_Node000009_Node000012"><a xlink:title=" ">
<path fill="none" stroke="#63b8ff" d="M439.79,-237.65C517.71,-240.49 652.04,-245.4 709.57,-247.5"/>
<polygon fill="#63b8ff" stroke="#63b8ff" points="709.57,-251 719.69,-247.87 709.83,-244.01 709.57,-251"/>
</a>
</g>
</g>
<!-- Node13 -->
<g id="Node000013" class="node">
<title>Node13</title>
<g id="a_Node000013"><a xlink:href="math__util_8c.html#af524d0a35bc0c97564ca6c9cb6aae60f" target="_top" xlink:title=" ">
<polygon fill="white" stroke="#666666" points="643,-207 497,-207 497,-188 643,-188 643,-207"/>
<text text-anchor="middle" x="570" y="-195" font-family="Helvetica,sans-Serif" font-size="10.00">calculate_vector_angle_xy</text>
</a>
</g>
</g>
<!-- Node9&#45;&gt;Node13 -->
<g id="edge12_Node000009_Node000013" class="edge">
<title>Node9&#45;&gt;Node13</title>
<g id="a_edge12_Node000009_Node000013"><a xlink:title=" ">
<path fill="none" stroke="#63b8ff" d="M439.71,-223.63C462.7,-218.99 488.99,-213.67 511.83,-209.05"/>
<polygon fill="#63b8ff" stroke="#63b8ff" points="512.62,-212.47 521.73,-207.06 511.23,-205.61 512.62,-212.47"/>
</a>
</g>
</g>
<!-- Node9&#45;&gt;Node15 -->
<g id="edge20_Node000009_Node000015" class="edge">
<title>Node9&#45;&gt;Node15</title>
<g id="a_edge20_Node000009_Node000015"><a xlink:title=" ">
<path fill="none" stroke="#63b8ff" d="M404.16,-220.46C425.9,-207.18 459.8,-188.56 492,-179.5 567.87,-158.15 661.79,-157.19 708.22,-158.32"/>
<polygon fill="#63b8ff" stroke="#63b8ff" points="708.34,-161.83 718.44,-158.62 708.55,-154.83 708.34,-161.83"/>
</a>
</g>
</g>
<!-- Node16 -->
<g id="Node000016" class="node">
<title>Node16</title>
<g id="a_Node000016"><a xlink:href="FrameInterpolation_8cpp.html#a370937c591d27758600d740e2881e7cf" target="_top" xlink:title=" ">
<polygon fill="white" stroke="#666666" points="648,-391 492,-391 492,-350 648,-350 648,-391"/>
<text text-anchor="start" x="500" y="-379" font-family="Helvetica,sans-Serif" font-size="10.00">FrameInterpolation</text>
<text text-anchor="start" x="500" y="-368" font-family="Helvetica,sans-Serif" font-size="10.00">_RecordCalculateOrientation</text>
<text text-anchor="middle" x="570" y="-357" font-family="Helvetica,sans-Serif" font-size="10.00">Matrix</text>
</a>
</g>
</g>
<!-- Node9&#45;&gt;Node16 -->
<g id="edge17_Node000009_Node000016" class="edge">
<title>Node9&#45;&gt;Node16</title>
<g id="a_edge17_Node000009_Node000016"><a xlink:title=" ">
<path fill="none" stroke="#63b8ff" d="M439.67,-249.75C445.57,-252.69 451.16,-256.23 456,-260.5 483.74,-284.95 465.58,-309.63 492,-335.5 495.28,-338.71 498.9,-341.65 502.73,-344.35"/>
<polygon fill="#63b8ff" stroke="#63b8ff" points="501.1,-347.46 511.41,-349.88 504.86,-341.56 501.1,-347.46"/>
</a>
</g>
</g>
<!-- Node10&#45;&gt;Node11 -->
<g id="edge10_Node000010_Node000011" class="edge">
<title>Node10&#45;&gt;Node11</title>
<g id="a_edge10_Node000010_Node000011"><a xlink:title=" ">
<path fill="none" stroke="#63b8ff" d="M622.16,-284.97C650.58,-288.57 684.87,-292.9 708.54,-295.9"/>
<polygon fill="#63b8ff" stroke="#63b8ff" points="708.25,-299.39 718.61,-297.17 709.12,-292.45 708.25,-299.39"/>
</a>
</g>
</g>
<!-- Node10&#45;&gt;Node12 -->
<g id="edge11_Node000010_Node000012" class="edge">
<title>Node10&#45;&gt;Node12</title>
<g id="a_edge11_Node000010_Node000012"><a xlink:title=" ">
<path fill="none" stroke="#63b8ff" d="M622.16,-269.25C651.07,-264.03 686.06,-257.71 709.77,-253.42"/>
<polygon fill="#63b8ff" stroke="#63b8ff" points="710.58,-256.83 719.8,-251.61 709.34,-249.94 710.58,-256.83"/>
</a>
</g>
</g>
<!-- Node14 -->
<g id="Node000014" class="node">
<title>Node14</title>
<g id="a_Node000014"><a xlink:href="math__util_8c.html#ae5ccdf2ee48e06c8a0bced3f3a00f582" target="_top" xlink:title=" ">
<polygon fill="white" stroke="#666666" points="764.5,-207 711.5,-207 711.5,-188 764.5,-188 764.5,-207"/>
<text text-anchor="middle" x="738" y="-195" font-family="Helvetica,sans-Serif" font-size="10.00">_atan2f</text>
</a>
</g>
</g>
<!-- Node13&#45;&gt;Node14 -->
<g id="edge13_Node000013_Node000014" class="edge">
<title>Node13&#45;&gt;Node14</title>
<g id="a_edge13_Node000013_Node000014"><a xlink:title=" ">
<path fill="none" stroke="#63b8ff" d="M643.33,-197.5C663.44,-197.5 684.41,-197.5 701.39,-197.5"/>
<polygon fill="#63b8ff" stroke="#63b8ff" points="701.41,-201 711.41,-197.5 701.41,-194 701.41,-201"/>
</a>
</g>
</g>
<!-- Node13&#45;&gt;Node15 -->
<g id="edge15_Node000013_Node000015" class="edge">
<title>Node13&#45;&gt;Node15</title>
<g id="a_edge15_Node000013_Node000015"><a xlink:title=" ">
<path fill="none" stroke="#63b8ff" d="M612.89,-187.91C642.6,-181.11 681.72,-172.15 708.03,-166.13"/>
<polygon fill="#63b8ff" stroke="#63b8ff" points="709.15,-169.47 718.12,-163.82 707.59,-162.64 709.15,-169.47"/>
</a>
</g>
</g>
<!-- Node14&#45;&gt;Node2 -->
<g id="edge14_Node000014_Node000002" class="edge">
<title>Node14&#45;&gt;Node2</title>
<g id="a_edge14_Node000014_Node000002"><a xlink:title=" ">
<path fill="none" stroke="#63b8ff" d="M757.79,-207.01C768.47,-212.94 781.72,-221.19 792,-230.5 811.69,-248.33 829.59,-273.28 840.62,-290.12"/>
<polygon fill="#63b8ff" stroke="#63b8ff" points="837.95,-292.43 846.28,-298.98 843.85,-288.67 837.95,-292.43"/>
</a>
</g>
</g>
<!-- Node17 -->
<g id="Node000017" class="node">
<title>Node17</title>
<g id="a_Node000017"><a xlink:href="FrameInterpolation_8cpp.html#a02c7ac5342a4d376edee38f312b480bf" target="_top" xlink:title=" ">
<polygon fill="white" stroke="#666666" points="792,-380 684,-380 684,-361 792,-361 792,-380"/>
<text text-anchor="middle" x="738" y="-368" font-family="Helvetica,sans-Serif" font-size="10.00">check_if_recording</text>
</a>
</g>
</g>
<!-- Node16&#45;&gt;Node17 -->
<g id="edge18_Node000016_Node000017" class="edge">
<title>Node16&#45;&gt;Node17</title>
<g id="a_edge18_Node000016_Node000017"><a xlink:title=" ">
<path fill="none" stroke="#63b8ff" d="M648.17,-370.5C656.72,-370.5 665.35,-370.5 673.69,-370.5"/>
<polygon fill="#63b8ff" stroke="#63b8ff" points="673.71,-374 683.71,-370.5 673.71,-367 673.71,-374"/>
</a>
</g>
</g>
</g>
</svg>
