<?xml version="1.0" encoding="UTF-8" standalone="no"?>
<!DOCTYPE svg PUBLIC "-//W3C//DTD SVG 1.1//EN"
 "http://www.w3.org/Graphics/SVG/1.1/DTD/svg11.dtd">
<!-- Generated by graphviz version 2.43.0 (0)
 -->
<!-- Title: src/actors/car/render.inc.c Pages: 1 -->
<svg width="692pt" height="379pt"
 viewBox="0.00 0.00 691.50 379.00" xmlns="http://www.w3.org/2000/svg" xmlns:xlink="http://www.w3.org/1999/xlink">
<g id="graph0" class="graph" transform="scale(1 1) rotate(0) translate(4 375)">
<title>src/actors/car/render.inc.c</title>
<!-- Node1 -->
<g id="Node000001" class="node">
<title>Node1</title>
<g id="a_Node000001"><a xlink:title=" ">
<polygon fill="#999999" stroke="#666666" points="558.5,-371 417.5,-371 417.5,-352 558.5,-352 558.5,-371"/>
<text text-anchor="middle" x="488" y="-359" font-family="Helvetica,sans-Serif" font-size="10.00">src/actors/car/render.inc.c</text>
</a>
</g>
</g>
<!-- Node2 -->
<g id="Node000002" class="node">
<title>Node2</title>
<g id="a_Node000002"><a xlink:href="actors_8h.html" target="_top" xlink:title=" ">
<polygon fill="white" stroke="#666666" points="339,-316 283,-316 283,-297 339,-297 339,-316"/>
<text text-anchor="middle" x="311" y="-304" font-family="Helvetica,sans-Serif" font-size="10.00">actors.h</text>
</a>
</g>
</g>
<!-- Node1&#45;&gt;Node2 -->
<g id="edge1_Node000001_Node000002" class="edge">
<title>Node1&#45;&gt;Node2</title>
<g id="a_edge1_Node000001_Node000002"><a xlink:title=" ">
<path fill="none" stroke="#63b8ff" d="M459.56,-351.98C429.54,-342.99 382.06,-328.78 348.88,-318.84"/>
<polygon fill="#63b8ff" stroke="#63b8ff" points="349.66,-315.42 339.08,-315.91 347.65,-322.13 349.66,-315.42"/>
</a>
</g>
</g>
<!-- Node12 -->
<g id="Node000012" class="node">
<title>Node12</title>
<g id="a_Node000012"><a xlink:href="main_8h.html" target="_top" xlink:title=" ">
<polygon fill="white" stroke="#666666" points="480,-206 430,-206 430,-187 480,-187 480,-206"/>
<text text-anchor="middle" x="455" y="-194" font-family="Helvetica,sans-Serif" font-size="10.00">main.h</text>
</a>
</g>
</g>
<!-- Node1&#45;&gt;Node12 -->
<g id="edge20_Node000001_Node000012" class="edge">
<title>Node1&#45;&gt;Node12</title>
<g id="a_edge20_Node000001_Node000012"><a xlink:title=" ">
<path fill="none" stroke="#63b8ff" d="M486.23,-351.74C481.06,-326.2 465.92,-251.43 458.79,-216.23"/>
<polygon fill="#63b8ff" stroke="#63b8ff" points="462.2,-215.41 456.78,-206.31 455.34,-216.8 462.2,-215.41"/>
</a>
</g>
</g>
<!-- Node17 -->
<g id="Node000017" class="node">
<title>Node17</title>
<g id="a_Node000017"><a xlink:href="defines_8h.html" target="_top" xlink:title=" ">
<polygon fill="white" stroke="#666666" points="597.5,-316 536.5,-316 536.5,-297 597.5,-297 597.5,-316"/>
<text text-anchor="middle" x="567" y="-304" font-family="Helvetica,sans-Serif" font-size="10.00">defines.h</text>
</a>
</g>
</g>
<!-- Node1&#45;&gt;Node17 -->
<g id="edge27_Node000001_Node000017" class="edge">
<title>Node1&#45;&gt;Node17</title>
<g id="a_edge27_Node000001_Node000017"><a xlink:title=" ">
<path fill="none" stroke="#63b8ff" d="M500.69,-351.98C512.83,-343.84 531.36,-331.41 545.75,-321.76"/>
<polygon fill="#63b8ff" stroke="#63b8ff" points="547.72,-324.65 554.08,-316.17 543.82,-318.84 547.72,-324.65"/>
</a>
</g>
</g>
<!-- Node18 -->
<g id="Node000018" class="node">
<title>Node18</title>
<g id="a_Node000018"><a xlink:href="toads__turnpike__offsets_8h.html" target="_top" xlink:title=" ">
<polygon fill="white" stroke="#666666" points="634,-151 512,-151 512,-110 634,-110 634,-151"/>
<text text-anchor="start" x="520" y="-139" font-family="Helvetica,sans-Serif" font-size="10.00">assets/models/tracks</text>
<text text-anchor="start" x="520" y="-128" font-family="Helvetica,sans-Serif" font-size="10.00">/toads_turnpike/toads</text>
<text text-anchor="middle" x="573" y="-117" font-family="Helvetica,sans-Serif" font-size="10.00">_turnpike_offsets.h</text>
</a>
</g>
</g>
<!-- Node1&#45;&gt;Node18 -->
<g id="edge28_Node000001_Node000018" class="edge">
<title>Node1&#45;&gt;Node18</title>
<g id="a_edge28_Node000001_Node000018"><a xlink:title=" ">
<path fill="none" stroke="#63b8ff" d="M491.23,-351.8C502.82,-320.56 542.7,-213.12 562.16,-160.71"/>
<polygon fill="#63b8ff" stroke="#63b8ff" points="565.45,-161.89 565.65,-151.3 558.89,-159.46 565.45,-161.89"/>
</a>
</g>
</g>
<!-- Node3 -->
<g id="Node000003" class="node">
<title>Node3</title>
<g id="a_Node000003"><a xlink:href="actor__types_8h.html" target="_top" xlink:title=" ">
<polygon fill="white" stroke="#666666" points="319.5,-206 236.5,-206 236.5,-187 319.5,-187 319.5,-206"/>
<text text-anchor="middle" x="278" y="-194" font-family="Helvetica,sans-Serif" font-size="10.00">actor_types.h</text>
</a>
</g>
</g>
<!-- Node2&#45;&gt;Node3 -->
<g id="edge2_Node000002_Node000003" class="edge">
<title>Node2&#45;&gt;Node3</title>
<g id="a_edge2_Node000002_Node000003"><a xlink:title=" ">
<path fill="none" stroke="#63b8ff" d="M308.3,-296.66C302.93,-279.09 290.82,-239.45 283.64,-215.95"/>
<polygon fill="#63b8ff" stroke="#63b8ff" points="286.92,-214.7 280.65,-206.16 280.22,-216.74 286.92,-214.7"/>
</a>
</g>
</g>
<!-- Node9 -->
<g id="Node000009" class="node">
<title>Node9</title>
<g id="a_Node000009"><a xlink:href="code__800029B0_8h.html" target="_top" xlink:title=" ">
<polygon fill="white" stroke="#666666" points="245.5,-261 142.5,-261 142.5,-242 245.5,-242 245.5,-261"/>
<text text-anchor="middle" x="194" y="-249" font-family="Helvetica,sans-Serif" font-size="10.00">code_800029B0.h</text>
</a>
</g>
</g>
<!-- Node2&#45;&gt;Node9 -->
<g id="edge10_Node000002_Node000009" class="edge">
<title>Node2&#45;&gt;Node9</title>
<g id="a_edge10_Node000002_Node000009"><a xlink:title=" ">
<path fill="none" stroke="#63b8ff" d="M292.2,-296.98C273.38,-288.46 244.18,-275.23 222.5,-265.41"/>
<polygon fill="#63b8ff" stroke="#63b8ff" points="223.69,-262.11 213.14,-261.17 220.8,-268.48 223.69,-262.11"/>
</a>
</g>
</g>
<!-- Node10 -->
<g id="Node000010" class="node">
<title>Node10</title>
<g id="a_Node000010"><a xlink:href="camera_8h.html" target="_top" xlink:title=" ">
<polygon fill="white" stroke="#666666" points="400,-206 338,-206 338,-187 400,-187 400,-206"/>
<text text-anchor="middle" x="369" y="-194" font-family="Helvetica,sans-Serif" font-size="10.00">camera.h</text>
</a>
</g>
</g>
<!-- Node2&#45;&gt;Node10 -->
<g id="edge19_Node000002_Node000010" class="edge">
<title>Node2&#45;&gt;Node10</title>
<g id="a_edge19_Node000002_Node000010"><a xlink:title=" ">
<path fill="none" stroke="#63b8ff" d="M315.75,-296.66C325.31,-278.85 347.05,-238.37 359.6,-215.01"/>
<polygon fill="#63b8ff" stroke="#63b8ff" points="362.7,-216.62 364.35,-206.16 356.54,-213.31 362.7,-216.62"/>
</a>
</g>
</g>
<!-- Node4 -->
<g id="Node000004" class="node">
<title>Node4</title>
<g id="a_Node000004"><a xlink:title=" ">
<polygon fill="#e0e0e0" stroke="#999999" points="308,-74 228,-74 228,-55 308,-55 308,-74"/>
<text text-anchor="middle" x="268" y="-62" font-family="Helvetica,sans-Serif" font-size="10.00">libultraship.h</text>
</a>
</g>
</g>
<!-- Node3&#45;&gt;Node4 -->
<g id="edge3_Node000003_Node000004" class="edge">
<title>Node3&#45;&gt;Node4</title>
<g id="a_edge3_Node000003_Node000004"><a xlink:title=" ">
<path fill="none" stroke="#63b8ff" d="M276.91,-186.98C275.79,-178.04 274.07,-163.55 273,-151 271.05,-128.13 269.63,-101.75 268.82,-84.41"/>
<polygon fill="#63b8ff" stroke="#63b8ff" points="272.29,-83.84 268.35,-74.01 265.3,-84.15 272.29,-83.84"/>
</a>
</g>
</g>
<!-- Node5 -->
<g id="Node000005" class="node">
<title>Node5</title>
<g id="a_Node000005"><a xlink:href="macros_8h.html" target="_top" xlink:title=" ">
<polygon fill="white" stroke="#666666" points="62,-140 0,-140 0,-121 62,-121 62,-140"/>
<text text-anchor="middle" x="31" y="-128" font-family="Helvetica,sans-Serif" font-size="10.00">macros.h</text>
</a>
</g>
</g>
<!-- Node3&#45;&gt;Node5 -->
<g id="edge4_Node000003_Node000005" class="edge">
<title>Node3&#45;&gt;Node5</title>
<g id="a_edge4_Node000003_Node000005"><a xlink:title=" ">
<path fill="none" stroke="#63b8ff" d="M244.94,-186.94C200.27,-175.36 120.65,-154.73 72.15,-142.16"/>
<polygon fill="#63b8ff" stroke="#63b8ff" points="72.86,-138.73 62.3,-139.61 71.1,-145.51 72.86,-138.73"/>
</a>
</g>
</g>
<!-- Node7 -->
<g id="Node000007" class="node">
<title>Node7</title>
<g id="a_Node000007"><a xlink:href="common__structs_8h.html" target="_top" xlink:title=" ">
<polygon fill="white" stroke="#666666" points="422.5,-140 315.5,-140 315.5,-121 422.5,-121 422.5,-140"/>
<text text-anchor="middle" x="369" y="-128" font-family="Helvetica,sans-Serif" font-size="10.00">common_structs.h</text>
</a>
</g>
</g>
<!-- Node3&#45;&gt;Node7 -->
<g id="edge7_Node000003_Node000007" class="edge">
<title>Node3&#45;&gt;Node7</title>
<g id="a_edge7_Node000003_Node000007"><a xlink:title=" ">
<path fill="none" stroke="#63b8ff" d="M290.27,-186.87C305.06,-176.47 330.15,-158.82 348.03,-146.25"/>
<polygon fill="#63b8ff" stroke="#63b8ff" points="350.46,-148.81 356.63,-140.2 346.44,-143.09 350.46,-148.81"/>
</a>
</g>
</g>
<!-- Node8 -->
<g id="Node000008" class="node">
<title>Node8</title>
<g id="a_Node000008"><a xlink:title=" ">
<polygon fill="#e0e0e0" stroke="#999999" points="221,-140 165,-140 165,-121 221,-121 221,-140"/>
<text text-anchor="middle" x="193" y="-128" font-family="Helvetica,sans-Serif" font-size="10.00">assert.h</text>
</a>
</g>
</g>
<!-- Node3&#45;&gt;Node8 -->
<g id="edge9_Node000003_Node000008" class="edge">
<title>Node3&#45;&gt;Node8</title>
<g id="a_edge9_Node000003_Node000008"><a xlink:title=" ">
<path fill="none" stroke="#63b8ff" d="M266.54,-186.87C252.72,-176.47 229.29,-158.82 212.59,-146.25"/>
<polygon fill="#63b8ff" stroke="#63b8ff" points="214.65,-143.42 204.55,-140.2 210.44,-149.01 214.65,-143.42"/>
</a>
</g>
</g>
<!-- Node5&#45;&gt;Node4 -->
<g id="edge6_Node000005_Node000004" class="edge">
<title>Node5&#45;&gt;Node4</title>
<g id="a_edge6_Node000005_Node000004"><a xlink:title=" ">
<path fill="none" stroke="#63b8ff" d="M48.67,-120.96C56.85,-117.24 66.78,-113.04 76,-110 123.23,-94.43 178.73,-82.2 217.87,-74.53"/>
<polygon fill="#63b8ff" stroke="#63b8ff" points="218.55,-77.96 227.71,-72.63 217.22,-71.09 218.55,-77.96"/>
</a>
</g>
</g>
<!-- Node6 -->
<g id="Node000006" class="node">
<title>Node6</title>
<g id="a_Node000006"><a xlink:href="math_8h.html" target="_top" xlink:title=" ">
<polygon fill="white" stroke="#666666" points="56.5,-74 5.5,-74 5.5,-55 56.5,-55 56.5,-74"/>
<text text-anchor="middle" x="31" y="-62" font-family="Helvetica,sans-Serif" font-size="10.00">math.h</text>
</a>
</g>
</g>
<!-- Node5&#45;&gt;Node6 -->
<g id="edge5_Node000005_Node000006" class="edge">
<title>Node5&#45;&gt;Node6</title>
<g id="a_edge5_Node000005_Node000006"><a xlink:title=" ">
<path fill="none" stroke="#63b8ff" d="M31,-120.87C31,-111.66 31,-96.79 31,-84.77"/>
<polygon fill="#63b8ff" stroke="#63b8ff" points="34.5,-84.41 31,-74.41 27.5,-84.41 34.5,-84.41"/>
</a>
</g>
</g>
<!-- Node7&#45;&gt;Node4 -->
<g id="edge8_Node000007_Node000004" class="edge">
<title>Node7&#45;&gt;Node4</title>
<g id="a_edge8_Node000007_Node000004"><a xlink:title=" ">
<path fill="none" stroke="#63b8ff" d="M355.38,-120.87C338.66,-110.28 310.09,-92.17 290.19,-79.56"/>
<polygon fill="#63b8ff" stroke="#63b8ff" points="292.05,-76.6 281.73,-74.2 288.3,-82.51 292.05,-76.6"/>
</a>
</g>
</g>
<!-- Node9&#45;&gt;Node3 -->
<g id="edge13_Node000009_Node000003" class="edge">
<title>Node9&#45;&gt;Node3</title>
<g id="a_edge13_Node000009_Node000003"><a xlink:title=" ">
<path fill="none" stroke="#63b8ff" d="M207.5,-241.98C220.4,-233.84 240.1,-221.41 255.4,-211.76"/>
<polygon fill="#63b8ff" stroke="#63b8ff" points="257.67,-214.47 264.26,-206.17 253.93,-208.55 257.67,-214.47"/>
</a>
</g>
</g>
<!-- Node9&#45;&gt;Node4 -->
<g id="edge12_Node000009_Node000004" class="edge">
<title>Node9&#45;&gt;Node4</title>
<g id="a_edge12_Node000009_Node000004"><a xlink:title=" ">
<path fill="none" stroke="#63b8ff" d="M153.38,-241.99C133.68,-235.59 111.78,-224.61 100,-206 95.48,-198.86 97.79,-195.15 100,-187 110.36,-148.74 114.54,-135.37 145,-110 165.86,-92.63 194.05,-81.78 218.19,-75.14"/>
<polygon fill="#63b8ff" stroke="#63b8ff" points="219.09,-78.53 227.9,-72.64 217.34,-71.75 219.09,-78.53"/>
</a>
</g>
</g>
<!-- Node9&#45;&gt;Node5 -->
<g id="edge11_Node000009_Node000005" class="edge">
<title>Node9&#45;&gt;Node5</title>
<g id="a_edge11_Node000009_Node000005"><a xlink:title=" ">
<path fill="none" stroke="#63b8ff" d="M142.26,-241.98C117.13,-235.62 87.91,-224.67 67,-206 50.3,-191.09 40.59,-166.72 35.55,-149.94"/>
<polygon fill="#63b8ff" stroke="#63b8ff" points="38.9,-148.9 32.88,-140.18 32.14,-150.75 38.9,-148.9"/>
</a>
</g>
</g>
<!-- Node9&#45;&gt;Node10 -->
<g id="edge14_Node000009_Node000010" class="edge">
<title>Node9&#45;&gt;Node10</title>
<g id="a_edge14_Node000009_Node000010"><a xlink:title=" ">
<path fill="none" stroke="#63b8ff" d="M222.12,-241.98C251.62,-233.05 298.19,-218.94 330.97,-209.02"/>
<polygon fill="#63b8ff" stroke="#63b8ff" points="332.11,-212.33 340.66,-206.08 330.08,-205.63 332.11,-212.33"/>
</a>
</g>
</g>
<!-- Node11 -->
<g id="Node000011" class="node">
<title>Node11</title>
<g id="a_Node000011"><a xlink:href="CoreMath_8h.html" target="_top" xlink:title=" ">
<polygon fill="white" stroke="#666666" points="218.5,-206 109.5,-206 109.5,-187 218.5,-187 218.5,-206"/>
<text text-anchor="middle" x="164" y="-194" font-family="Helvetica,sans-Serif" font-size="10.00">engine/CoreMath.h</text>
</a>
</g>
</g>
<!-- Node9&#45;&gt;Node11 -->
<g id="edge17_Node000009_Node000011" class="edge">
<title>Node9&#45;&gt;Node11</title>
<g id="a_edge17_Node000009_Node000011"><a xlink:title=" ">
<path fill="none" stroke="#63b8ff" d="M189.05,-241.75C184.94,-234.49 178.97,-223.95 173.9,-214.98"/>
<polygon fill="#63b8ff" stroke="#63b8ff" points="176.83,-213.07 168.86,-206.09 170.74,-216.52 176.83,-213.07"/>
</a>
</g>
</g>
<!-- Node10&#45;&gt;Node4 -->
<g id="edge15_Node000010_Node000004" class="edge">
<title>Node10&#45;&gt;Node4</title>
<g id="a_edge15_Node000010_Node000004"><a xlink:title=" ">
<path fill="none" stroke="#63b8ff" d="M352.68,-186.98C338.99,-179.16 319.71,-166.45 307,-151 290.45,-130.87 279.37,-102.57 273.37,-84.13"/>
<polygon fill="#63b8ff" stroke="#63b8ff" points="276.64,-82.86 270.36,-74.32 269.95,-84.91 276.64,-82.86"/>
</a>
</g>
</g>
<!-- Node10&#45;&gt;Node7 -->
<g id="edge16_Node000010_Node000007" class="edge">
<title>Node10&#45;&gt;Node7</title>
<g id="a_edge16_Node000010_Node000007"><a xlink:title=" ">
<path fill="none" stroke="#63b8ff" d="M369,-186.87C369,-177.66 369,-162.79 369,-150.77"/>
<polygon fill="#63b8ff" stroke="#63b8ff" points="372.5,-150.41 369,-140.41 365.5,-150.41 372.5,-150.41"/>
</a>
</g>
</g>
<!-- Node11&#45;&gt;Node4 -->
<g id="edge18_Node000011_Node000004" class="edge">
<title>Node11&#45;&gt;Node4</title>
<g id="a_edge18_Node000011_Node000004"><a xlink:title=" ">
<path fill="none" stroke="#63b8ff" d="M159.85,-186.84C152.59,-170.31 139.84,-133.81 156,-110 169.92,-89.49 194.94,-78.43 217.81,-72.47"/>
<polygon fill="#63b8ff" stroke="#63b8ff" points="218.83,-75.83 227.78,-70.15 217.24,-69.01 218.83,-75.83"/>
</a>
</g>
</g>
<!-- Node12&#45;&gt;Node7 -->
<g id="edge26_Node000012_Node000007" class="edge">
<title>Node12&#45;&gt;Node7</title>
<g id="a_edge26_Node000012_Node000007"><a xlink:title=" ">
<path fill="none" stroke="#63b8ff" d="M443.4,-186.87C429.42,-176.47 405.71,-158.82 388.82,-146.25"/>
<polygon fill="#63b8ff" stroke="#63b8ff" points="390.8,-143.36 380.69,-140.2 386.62,-148.98 390.8,-143.36"/>
</a>
</g>
</g>
<!-- Node13 -->
<g id="Node000013" class="node">
<title>Node13</title>
<g id="a_Node000013"><a xlink:href="mk64_8h.html" target="_top" xlink:title=" ">
<polygon fill="white" stroke="#666666" points="493.5,-140 440.5,-140 440.5,-121 493.5,-121 493.5,-140"/>
<text text-anchor="middle" x="467" y="-128" font-family="Helvetica,sans-Serif" font-size="10.00">mk64.h</text>
</a>
</g>
</g>
<!-- Node12&#45;&gt;Node13 -->
<g id="edge21_Node000012_Node000013" class="edge">
<title>Node12&#45;&gt;Node13</title>
<g id="a_edge21_Node000012_Node000013"><a xlink:title=" ">
<path fill="none" stroke="#63b8ff" d="M456.62,-186.87C458.36,-177.57 461.19,-162.48 463.46,-150.4"/>
<polygon fill="#63b8ff" stroke="#63b8ff" points="466.93,-150.88 465.33,-140.41 460.05,-149.59 466.93,-150.88"/>
</a>
</g>
</g>
<!-- Node13&#45;&gt;Node4 -->
<g id="edge22_Node000013_Node000004" class="edge">
<title>Node13&#45;&gt;Node4</title>
<g id="a_edge22_Node000013_Node000004"><a xlink:title=" ">
<path fill="none" stroke="#63b8ff" d="M453.42,-120.92C447.09,-117.18 439.34,-112.99 432,-110 394.98,-94.93 351.21,-83.35 318.2,-75.78"/>
<polygon fill="#63b8ff" stroke="#63b8ff" points="318.85,-72.34 308.32,-73.56 317.31,-79.17 318.85,-72.34"/>
</a>
</g>
</g>
<!-- Node14 -->
<g id="Node000014" class="node">
<title>Node14</title>
<g id="a_Node000014"><a xlink:href="string_8h.html" target="_top" xlink:title=" ">
<polygon fill="white" stroke="#666666" points="451.5,-74 398.5,-74 398.5,-55 451.5,-55 451.5,-74"/>
<text text-anchor="middle" x="425" y="-62" font-family="Helvetica,sans-Serif" font-size="10.00">string.h</text>
</a>
</g>
</g>
<!-- Node13&#45;&gt;Node14 -->
<g id="edge23_Node000013_Node000014" class="edge">
<title>Node13&#45;&gt;Node14</title>
<g id="a_edge23_Node000013_Node000014"><a xlink:title=" ">
<path fill="none" stroke="#63b8ff" d="M461.34,-120.87C454.98,-111.19 444.52,-95.24 436.44,-82.94"/>
<polygon fill="#63b8ff" stroke="#63b8ff" points="439.26,-80.85 430.84,-74.41 433.4,-84.69 439.26,-80.85"/>
</a>
</g>
</g>
<!-- Node16 -->
<g id="Node000016" class="node">
<title>Node16</title>
<g id="a_Node000016"><a xlink:title=" ">
<polygon fill="#e0e0e0" stroke="#999999" points="548,-74 470,-74 470,-55 548,-55 548,-74"/>
<text text-anchor="middle" x="509" y="-62" font-family="Helvetica,sans-Serif" font-size="10.00">libultra/gbi.h</text>
</a>
</g>
</g>
<!-- Node13&#45;&gt;Node16 -->
<g id="edge25_Node000013_Node000016" class="edge">
<title>Node13&#45;&gt;Node16</title>
<g id="a_edge25_Node000013_Node000016"><a xlink:title=" ">
<path fill="none" stroke="#63b8ff" d="M472.66,-120.87C479.02,-111.19 489.48,-95.24 497.56,-82.94"/>
<polygon fill="#63b8ff" stroke="#63b8ff" points="500.6,-84.69 503.16,-74.41 494.74,-80.85 500.6,-84.69"/>
</a>
</g>
</g>
<!-- Node15 -->
<g id="Node000015" class="node">
<title>Node15</title>
<g id="a_Node000015"><a xlink:title=" ">
<polygon fill="#e0e0e0" stroke="#999999" points="470,-19 380,-19 380,0 470,0 470,-19"/>
<text text-anchor="middle" x="425" y="-7" font-family="Helvetica,sans-Serif" font-size="10.00">libultra/types.h</text>
</a>
</g>
</g>
<!-- Node14&#45;&gt;Node15 -->
<g id="edge24_Node000014_Node000015" class="edge">
<title>Node14&#45;&gt;Node15</title>
<g id="a_edge24_Node000014_Node000015"><a xlink:title=" ">
<path fill="none" stroke="#63b8ff" d="M425,-54.75C425,-47.8 425,-37.85 425,-29.13"/>
<polygon fill="#63b8ff" stroke="#63b8ff" points="428.5,-29.09 425,-19.09 421.5,-29.09 428.5,-29.09"/>
</a>
</g>
</g>
<!-- Node18&#45;&gt;Node4 -->
<g id="edge29_Node000018_Node000004" class="edge">
<title>Node18&#45;&gt;Node4</title>
<g id="a_edge29_Node000018_Node000004"><a xlink:title=" ">
<path fill="none" stroke="#63b8ff" d="M511.99,-112.18C508.96,-111.42 505.95,-110.69 503,-110 439.71,-95.22 365.97,-81.88 318.21,-73.74"/>
<polygon fill="#63b8ff" stroke="#63b8ff" points="318.58,-70.25 308.13,-72.04 317.41,-77.16 318.58,-70.25"/>
</a>
</g>
</g>
<!-- Node18&#45;&gt;Node16 -->
<g id="edge30_Node000018_Node000016" class="edge">
<title>Node18&#45;&gt;Node16</title>
<g id="a_edge30_Node000018_Node000016"><a xlink:title=" ">
<path fill="none" stroke="#63b8ff" d="M553.45,-109.95C544.33,-100.83 533.61,-90.11 524.99,-81.49"/>
<polygon fill="#63b8ff" stroke="#63b8ff" points="527.31,-78.86 517.76,-74.26 522.36,-83.81 527.31,-78.86"/>
</a>
</g>
</g>
<!-- Node19 -->
<g id="Node000019" class="node">
<title>Node19</title>
<g id="a_Node000019"><a xlink:href="align__asset__macro_8h.html" target="_top" xlink:title=" ">
<polygon fill="white" stroke="#666666" points="683.5,-74 566.5,-74 566.5,-55 683.5,-55 683.5,-74"/>
<text text-anchor="middle" x="625" y="-62" font-family="Helvetica,sans-Serif" font-size="10.00">align_asset_macro.h</text>
</a>
</g>
</g>
<!-- Node18&#45;&gt;Node19 -->
<g id="edge31_Node000018_Node000019" class="edge">
<title>Node18&#45;&gt;Node19</title>
<g id="a_edge31_Node000018_Node000019"><a xlink:title=" ">
<path fill="none" stroke="#63b8ff" d="M588.88,-109.95C596.07,-101.11 604.47,-90.77 611.36,-82.29"/>
<polygon fill="#63b8ff" stroke="#63b8ff" points="614.29,-84.23 617.88,-74.26 608.86,-79.81 614.29,-84.23"/>
</a>
</g>
</g>
</g>
</svg>
