<?xml version="1.0" encoding="UTF-8" standalone="no"?>
<!DOCTYPE svg PUBLIC "-//W3C//DTD SVG 1.1//EN"
 "http://www.w3.org/Graphics/SVG/1.1/DTD/svg11.dtd">
<!-- Generated by graphviz version 2.43.0 (0)
 -->
<!-- Title: func_80284308 Pages: 1 -->
<svg width="750pt" height="212pt"
 viewBox="0.00 0.00 750.00 212.00" xmlns="http://www.w3.org/2000/svg" xmlns:xlink="http://www.w3.org/1999/xlink">
<g id="graph0" class="graph" transform="scale(1 1) rotate(0) translate(4 208)">
<title>func_80284308</title>
<!-- Node1 -->
<g id="Node000001" class="node">
<title>Node1</title>
<g id="a_Node000001"><a xlink:title=" ">
<polygon fill="#999999" stroke="#666666" points="91,-138 0,-138 0,-119 91,-119 91,-138"/>
<text text-anchor="middle" x="45.5" y="-126" font-family="Helvetica,sans-Serif" font-size="10.00">func_80284308</text>
</a>
</g>
</g>
<!-- Node2 -->
<g id="Node000002" class="node">
<title>Node2</title>
<g id="a_Node000002"><a xlink:href="ceremony__and__credits_8c.html#a2254e8dcd170e82dc1321fd5d263a642" target="_top" xlink:title=" ">
<polygon fill="white" stroke="#666666" points="428,-204 335,-204 335,-185 428,-185 428,-204"/>
<text text-anchor="middle" x="381.5" y="-192" font-family="Helvetica,sans-Serif" font-size="10.00">cutscene_event</text>
</a>
</g>
</g>
<!-- Node1&#45;&gt;Node2 -->
<g id="edge1_Node000001_Node000002" class="edge">
<title>Node1&#45;&gt;Node2</title>
<g id="a_edge1_Node000001_Node000002"><a xlink:title=" ">
<path fill="none" stroke="#63b8ff" d="M75.33,-138.05C90.57,-142.86 109.66,-148.5 127,-152.5 194.44,-168.08 273.25,-180.2 324.88,-187.33"/>
<polygon fill="#63b8ff" stroke="#63b8ff" points="324.45,-190.81 334.83,-188.69 325.39,-183.87 324.45,-190.81"/>
</a>
</g>
</g>
<!-- Node3 -->
<g id="Node000003" class="node">
<title>Node3</title>
<g id="a_Node000003"><a xlink:href="ceremony__and__credits_8c.html#ac834e70a6463e6ebc3ed8882f0986d38" target="_top" xlink:title=" ">
<polygon fill="white" stroke="#666666" points="271,-143.5 131,-143.5 131,-113.5 271,-113.5 271,-143.5"/>
<text text-anchor="start" x="139" y="-131.5" font-family="Helvetica,sans-Serif" font-size="10.00">move_cinematic_camera</text>
<text text-anchor="middle" x="201" y="-120.5" font-family="Helvetica,sans-Serif" font-size="10.00">_along_spline</text>
</a>
</g>
</g>
<!-- Node1&#45;&gt;Node3 -->
<g id="edge2_Node000001_Node000003" class="edge">
<title>Node1&#45;&gt;Node3</title>
<g id="a_edge2_Node000001_Node000003"><a xlink:title=" ">
<path fill="none" stroke="#63b8ff" d="M91.31,-128.5C100.6,-128.5 110.65,-128.5 120.76,-128.5"/>
<polygon fill="#63b8ff" stroke="#63b8ff" points="120.87,-132 130.87,-128.5 120.87,-125 120.87,-132"/>
</a>
</g>
</g>
<!-- Node10 -->
<g id="Node000010" class="node">
<title>Node10</title>
<g id="a_Node000010"><a xlink:href="ceremony__and__credits_8c.html#a996f34d88effe7d5d2e53faa7663c179" target="_top" xlink:title=" ">
<polygon fill="white" stroke="#666666" points="275,-80 127,-80 127,-61 275,-61 275,-80"/>
<text text-anchor="middle" x="201" y="-68" font-family="Helvetica,sans-Serif" font-size="10.00">play_sound_congratulation</text>
</a>
</g>
</g>
<!-- Node1&#45;&gt;Node10 -->
<g id="edge10_Node000001_Node000010" class="edge">
<title>Node1&#45;&gt;Node10</title>
<g id="a_edge10_Node000001_Node000010"><a xlink:title=" ">
<path fill="none" stroke="#63b8ff" d="M71.85,-118.92C97.29,-109.31 136.68,-94.43 165.07,-83.7"/>
<polygon fill="#63b8ff" stroke="#63b8ff" points="166.5,-86.9 174.61,-80.09 164.02,-80.35 166.5,-86.9"/>
</a>
</g>
</g>
<!-- Node3&#45;&gt;Node2 -->
<g id="edge3_Node000003_Node000002" class="edge">
<title>Node3&#45;&gt;Node2</title>
<g id="a_edge3_Node000003_Node000002"><a xlink:title=" ">
<path fill="none" stroke="#63b8ff" d="M232.48,-143.51C254.05,-153.73 283.85,-167.07 311,-176.5 316.87,-178.54 323.1,-180.47 329.31,-182.25"/>
<polygon fill="#63b8ff" stroke="#63b8ff" points="328.44,-185.64 339.01,-184.92 330.3,-178.89 328.44,-185.64"/>
</a>
</g>
</g>
<!-- Node4 -->
<g id="Node000004" class="node">
<title>Node4</title>
<g id="a_Node000004"><a xlink:href="ceremony__and__credits_8c.html#a1d267875e7f1f73c656b8170663a690c" target="_top" xlink:title=" ">
<polygon fill="white" stroke="#666666" points="427.5,-167 335.5,-167 335.5,-148 427.5,-148 427.5,-167"/>
<text text-anchor="middle" x="381.5" y="-155" font-family="Helvetica,sans-Serif" font-size="10.00">func_80282C40</text>
</a>
</g>
</g>
<!-- Node3&#45;&gt;Node4 -->
<g id="edge4_Node000003_Node000004" class="edge">
<title>Node3&#45;&gt;Node4</title>
<g id="a_edge4_Node000003_Node000004"><a xlink:title=" ">
<path fill="none" stroke="#63b8ff" d="M271.01,-139.71C289.05,-142.64 308.26,-145.76 325.47,-148.56"/>
<polygon fill="#63b8ff" stroke="#63b8ff" points="324.91,-152.01 335.35,-150.16 326.04,-145.11 324.91,-152.01"/>
</a>
</g>
</g>
<!-- Node6 -->
<g id="Node000006" class="node">
<title>Node6</title>
<g id="a_Node000006"><a xlink:href="ceremony__and__credits_8c.html#a120e7627b5117702254a0c9cdb7a7ccd" target="_top" xlink:title=" ">
<polygon fill="white" stroke="#666666" points="452,-130 311,-130 311,-111 452,-111 452,-130"/>
<text text-anchor="middle" x="381.5" y="-118" font-family="Helvetica,sans-Serif" font-size="10.00">move_point_along_spline</text>
</a>
</g>
</g>
<!-- Node3&#45;&gt;Node6 -->
<g id="edge6_Node000003_Node000006" class="edge">
<title>Node3&#45;&gt;Node6</title>
<g id="a_edge6_Node000003_Node000006"><a xlink:title=" ">
<path fill="none" stroke="#63b8ff" d="M271.01,-125.41C280.7,-124.97 290.72,-124.52 300.58,-124.08"/>
<polygon fill="#63b8ff" stroke="#63b8ff" points="300.95,-127.57 310.79,-123.62 300.64,-120.58 300.95,-127.57"/>
</a>
</g>
</g>
<!-- Node8 -->
<g id="Node000008" class="node">
<title>Node8</title>
<g id="a_Node000008"><a xlink:href="ceremony__and__credits_8c.html#a4269d7e4669381ffbc040a829de5b016" target="_top" xlink:title=" ">
<polygon fill="white" stroke="#666666" points="434,-93 329,-93 329,-74 434,-74 434,-93"/>
<text text-anchor="middle" x="381.5" y="-81" font-family="Helvetica,sans-Serif" font-size="10.00">reset_spline_wrap</text>
</a>
</g>
</g>
<!-- Node3&#45;&gt;Node8 -->
<g id="edge8_Node000003_Node000008" class="edge">
<title>Node3&#45;&gt;Node8</title>
<g id="a_edge8_Node000003_Node000008"><a xlink:title=" ">
<path fill="none" stroke="#63b8ff" d="M261.93,-113.39C285.12,-107.54 311.28,-100.95 333.11,-95.45"/>
<polygon fill="#63b8ff" stroke="#63b8ff" points="333.97,-98.84 342.82,-93 332.26,-92.05 333.97,-98.84"/>
</a>
</g>
</g>
<!-- Node5 -->
<g id="Node000005" class="node">
<title>Node5</title>
<g id="a_Node000005"><a xlink:href="ceremony__and__credits_8c.html#a2a6075e13264bc880b886b8f17edf96f" target="_top" xlink:title=" ">
<polygon fill="white" stroke="#666666" points="596.5,-167 504.5,-167 504.5,-148 596.5,-148 596.5,-167"/>
<text text-anchor="middle" x="550.5" y="-155" font-family="Helvetica,sans-Serif" font-size="10.00">func_80282BE4</text>
</a>
</g>
</g>
<!-- Node4&#45;&gt;Node5 -->
<g id="edge5_Node000004_Node000005" class="edge">
<title>Node4&#45;&gt;Node5</title>
<g id="a_edge5_Node000004_Node000005"><a xlink:title=" ">
<path fill="none" stroke="#63b8ff" d="M427.69,-157.5C448.21,-157.5 472.66,-157.5 494.25,-157.5"/>
<polygon fill="#63b8ff" stroke="#63b8ff" points="494.27,-161 504.27,-157.5 494.27,-154 494.27,-161"/>
</a>
</g>
</g>
<!-- Node7 -->
<g id="Node000007" class="node">
<title>Node7</title>
<g id="a_Node000007"><a xlink:href="ceremony__and__credits_8c.html#a53bc41b708fd9b7fb8e0b8c3a0ef32e3" target="_top" xlink:title=" ">
<polygon fill="white" stroke="#666666" points="613,-130 488,-130 488,-111 613,-111 613,-130"/>
<text text-anchor="middle" x="550.5" y="-118" font-family="Helvetica,sans-Serif" font-size="10.00">evaluate_cubic_spline</text>
</a>
</g>
</g>
<!-- Node6&#45;&gt;Node7 -->
<g id="edge7_Node000006_Node000007" class="edge">
<title>Node6&#45;&gt;Node7</title>
<g id="a_edge7_Node000006_Node000007"><a xlink:title=" ">
<path fill="none" stroke="#63b8ff" d="M452.36,-120.5C460.74,-120.5 469.32,-120.5 477.73,-120.5"/>
<polygon fill="#63b8ff" stroke="#63b8ff" points="477.89,-124 487.89,-120.5 477.89,-117 477.89,-124"/>
</a>
</g>
</g>
<!-- Node9 -->
<g id="Node000009" class="node">
<title>Node9</title>
<g id="a_Node000009"><a xlink:href="ceremony__and__credits_8c.html#ad7eaa744a487416940013f05c90a2cd0" target="_top" xlink:title=" ">
<polygon fill="white" stroke="#666666" points="588.5,-93 512.5,-93 512.5,-74 588.5,-74 588.5,-93"/>
<text text-anchor="middle" x="550.5" y="-81" font-family="Helvetica,sans-Serif" font-size="10.00">reset_spline</text>
</a>
</g>
</g>
<!-- Node8&#45;&gt;Node9 -->
<g id="edge9_Node000008_Node000009" class="edge">
<title>Node8&#45;&gt;Node9</title>
<g id="a_edge9_Node000008_Node000009"><a xlink:title=" ">
<path fill="none" stroke="#63b8ff" d="M434.42,-83.5C456.15,-83.5 481.21,-83.5 502.4,-83.5"/>
<polygon fill="#63b8ff" stroke="#63b8ff" points="502.45,-87 512.45,-83.5 502.45,-80 502.45,-87"/>
</a>
</g>
</g>
<!-- Node11 -->
<g id="Node000011" class="node">
<title>Node11</title>
<g id="a_Node000011"><a xlink:href="external_8c.html#afadd9eacb33a057bc8c1caaab7ab5a84" target="_top" xlink:title=" ">
<polygon fill="white" stroke="#666666" points="420.5,-56 342.5,-56 342.5,-37 420.5,-37 420.5,-56"/>
<text text-anchor="middle" x="381.5" y="-44" font-family="Helvetica,sans-Serif" font-size="10.00">play_sound2</text>
</a>
</g>
</g>
<!-- Node10&#45;&gt;Node11 -->
<g id="edge11_Node000010_Node000011" class="edge">
<title>Node10&#45;&gt;Node11</title>
<g id="a_edge11_Node000010_Node000011"><a xlink:title=" ">
<path fill="none" stroke="#63b8ff" d="M272.8,-60.98C292.75,-58.3 313.98,-55.44 332.28,-52.98"/>
<polygon fill="#63b8ff" stroke="#63b8ff" points="332.95,-56.43 342.39,-51.62 332.01,-49.49 332.95,-56.43"/>
</a>
</g>
</g>
<!-- Node12 -->
<g id="Node000012" class="node">
<title>Node12</title>
<g id="a_Node000012"><a xlink:href="Game_8cpp.html#a545c1a384e93cc7b616dfee707f5d962" target="_top" xlink:title=" ">
<polygon fill="white" stroke="#666666" points="584.5,-56 516.5,-56 516.5,-37 584.5,-37 584.5,-56"/>
<text text-anchor="middle" x="550.5" y="-44" font-family="Helvetica,sans-Serif" font-size="10.00">IsDkJungle</text>
</a>
</g>
</g>
<!-- Node11&#45;&gt;Node12 -->
<g id="edge12_Node000011_Node000012" class="edge">
<title>Node11&#45;&gt;Node12</title>
<g id="a_edge12_Node000011_Node000012"><a xlink:title=" ">
<path fill="none" stroke="#63b8ff" d="M420.81,-46.5C446.32,-46.5 479.87,-46.5 506.32,-46.5"/>
<polygon fill="#63b8ff" stroke="#63b8ff" points="506.44,-50 516.44,-46.5 506.44,-43 506.44,-50"/>
</a>
</g>
</g>
<!-- Node15 -->
<g id="Node000015" class="node">
<title>Node15</title>
<g id="a_Node000015"><a xlink:href="external_8c.html#a475cff796211891556f52877cd8e9b9e" target="_top" xlink:title=" ">
<polygon fill="white" stroke="#666666" points="586.5,-19 514.5,-19 514.5,0 586.5,0 586.5,-19"/>
<text text-anchor="middle" x="550.5" y="-7" font-family="Helvetica,sans-Serif" font-size="10.00">play_sound</text>
</a>
</g>
</g>
<!-- Node11&#45;&gt;Node15 -->
<g id="edge15_Node000011_Node000015" class="edge">
<title>Node11&#45;&gt;Node15</title>
<g id="a_edge15_Node000011_Node000015"><a xlink:title=" ">
<path fill="none" stroke="#63b8ff" d="M420.81,-38.01C445.72,-32.49 478.31,-25.27 504.46,-19.48"/>
<polygon fill="#63b8ff" stroke="#63b8ff" points="505.49,-22.84 514.5,-17.26 503.97,-16 505.49,-22.84"/>
</a>
</g>
</g>
<!-- Node13 -->
<g id="Node000013" class="node">
<title>Node13</title>
<g id="a_Node000013"><a xlink:href="classWorld.html#a1a4dacc6aea0b846df998be0afc239f7" target="_top" xlink:title=" ">
<polygon fill="white" stroke="#666666" points="742,-75 649,-75 649,-56 742,-56 742,-75"/>
<text text-anchor="middle" x="695.5" y="-63" font-family="Helvetica,sans-Serif" font-size="10.00">World::GetTrack</text>
</a>
</g>
</g>
<!-- Node12&#45;&gt;Node13 -->
<g id="edge13_Node000012_Node000013" class="edge">
<title>Node12&#45;&gt;Node13</title>
<g id="a_edge13_Node000012_Node000013"><a xlink:title=" ">
<path fill="none" stroke="#63b8ff" d="M584.67,-50.91C600.75,-53.04 620.5,-55.67 638.8,-58.1"/>
<polygon fill="#63b8ff" stroke="#63b8ff" points="638.41,-61.58 648.79,-59.43 639.34,-54.64 638.41,-61.58"/>
</a>
</g>
</g>
<!-- Node14 -->
<g id="Node000014" class="node">
<title>Node14</title>
<g id="a_Node000014"><a xlink:href="Game_8cpp.html#ae2fa844b3cb1021ecbc357f8ed2ad8cc" target="_top" xlink:title=" ">
<polygon fill="white" stroke="#666666" points="726.5,-38 664.5,-38 664.5,-19 726.5,-19 726.5,-38"/>
<text text-anchor="middle" x="695.5" y="-26" font-family="Helvetica,sans-Serif" font-size="10.00">GetWorld</text>
</a>
</g>
</g>
<!-- Node12&#45;&gt;Node14 -->
<g id="edge14_Node000012_Node000014" class="edge">
<title>Node12&#45;&gt;Node14</title>
<g id="a_edge14_Node000012_Node000014"><a xlink:title=" ">
<path fill="none" stroke="#63b8ff" d="M584.67,-42.33C605.46,-39.71 632.41,-36.32 654.4,-33.55"/>
<polygon fill="#63b8ff" stroke="#63b8ff" points="654.95,-37.01 664.44,-32.28 654.08,-30.06 654.95,-37.01"/>
</a>
</g>
</g>
</g>
</svg>
