<?xml version="1.0" encoding="UTF-8" standalone="no"?>
<!DOCTYPE svg PUBLIC "-//W3C//DTD SVG 1.1//EN"
 "http://www.w3.org/Graphics/SVG/1.1/DTD/svg11.dtd">
<!-- Generated by graphviz version 2.43.0 (0)
 -->
<!-- Title: include/assets/models/tracks/choco_mountain/choco_mountain_vertices.h Pages: 1 -->
<svg width="572pt" height="236pt"
 viewBox="0.00 0.00 572.00 236.00" xmlns="http://www.w3.org/2000/svg" xmlns:xlink="http://www.w3.org/1999/xlink">
<g id="graph0" class="graph" transform="scale(1 1) rotate(0) translate(4 232)">
<title>include/assets/models/tracks/choco_mountain/choco_mountain_vertices.h</title>
<!-- Node1 -->
<g id="Node000001" class="node">
<title>Node1</title>
<g id="a_Node000001"><a xlink:title=" ">
<polygon fill="#999999" stroke="#666666" points="291,-228 138,-228 138,-187 291,-187 291,-228"/>
<text text-anchor="start" x="146" y="-216" font-family="Helvetica,sans-Serif" font-size="10.00">include/assets/models</text>
<text text-anchor="start" x="146" y="-205" font-family="Helvetica,sans-Serif" font-size="10.00">/tracks/choco_mountain</text>
<text text-anchor="middle" x="214.5" y="-194" font-family="Helvetica,sans-Serif" font-size="10.00">/choco_mountain_vertices.h</text>
</a>
</g>
</g>
<!-- Node2 -->
<g id="Node000002" class="node">
<title>Node2</title>
<g id="a_Node000002"><a xlink:href="all__course__model_8h.html" target="_top" xlink:title=" ">
<polygon fill="white" stroke="#666666" points="185,-151 78,-151 78,-121 185,-121 185,-151"/>
<text text-anchor="start" x="86" y="-139" font-family="Helvetica,sans-Serif" font-size="10.00">courses/all_course</text>
<text text-anchor="middle" x="131.5" y="-128" font-family="Helvetica,sans-Serif" font-size="10.00">_model.h</text>
</a>
</g>
</g>
<!-- Node1&#45;&gt;Node2 -->
<g id="edge1_Node000001_Node000002" class="edge">
<title>Node1&#45;&gt;Node2</title>
<g id="a_edge1_Node000001_Node000002"><a xlink:title=" ">
<path fill="none" stroke="#63b8ff" d="M183,-180.12C171.19,-170.23 158.23,-159.38 148.27,-151.04"/>
<polygon fill="#63b8ff" stroke="#63b8ff" points="181.02,-183.03 190.94,-186.77 185.52,-177.67 181.02,-183.03"/>
</a>
</g>
</g>
<!-- Node3 -->
<g id="Node000003" class="node">
<title>Node3</title>
<g id="a_Node000003"><a xlink:href="ChocoMountain_8h.html" target="_top" xlink:title=" ">
<polygon fill="white" stroke="#666666" points="391.5,-145.5 203.5,-145.5 203.5,-126.5 391.5,-126.5 391.5,-145.5"/>
<text text-anchor="middle" x="297.5" y="-133.5" font-family="Helvetica,sans-Serif" font-size="10.00">src/engine/tracks/ChocoMountain.h</text>
</a>
</g>
</g>
<!-- Node1&#45;&gt;Node3 -->
<g id="edge2_Node000001_Node000003" class="edge">
<title>Node1&#45;&gt;Node3</title>
<g id="a_edge2_Node000001_Node000003"><a xlink:title=" ">
<path fill="none" stroke="#63b8ff" d="M245.89,-180.22C260.39,-168.07 276.64,-154.46 286.97,-145.82"/>
<polygon fill="#63b8ff" stroke="#63b8ff" points="243.48,-177.67 238.06,-186.77 247.98,-183.03 243.48,-177.67"/>
</a>
</g>
</g>
<!-- Node4 -->
<g id="Node000004" class="node">
<title>Node4</title>
<g id="a_Node000004"><a xlink:href="AllTracks_8h.html" target="_top" xlink:title=" ">
<polygon fill="white" stroke="#666666" points="179.5,-85 57.5,-85 57.5,-66 179.5,-66 179.5,-85"/>
<text text-anchor="middle" x="118.5" y="-73" font-family="Helvetica,sans-Serif" font-size="10.00">src/engine/AllTracks.h</text>
</a>
</g>
</g>
<!-- Node3&#45;&gt;Node4 -->
<g id="edge3_Node000003_Node000004" class="edge">
<title>Node3&#45;&gt;Node4</title>
<g id="a_edge3_Node000003_Node000004"><a xlink:title=" ">
<path fill="none" stroke="#63b8ff" d="M261.75,-123.32C227.13,-112 175.46,-95.12 144.56,-85.02"/>
<polygon fill="#63b8ff" stroke="#63b8ff" points="260.88,-126.71 271.47,-126.49 263.05,-120.06 260.88,-126.71"/>
</a>
</g>
</g>
<!-- Node7 -->
<g id="Node000007" class="node">
<title>Node7</title>
<g id="a_Node000007"><a xlink:href="ChocoMountain_8cpp.html" target="_top" xlink:title=" ">
<polygon fill="white" stroke="#666666" points="397,-85 198,-85 198,-66 397,-66 397,-85"/>
<text text-anchor="middle" x="297.5" y="-73" font-family="Helvetica,sans-Serif" font-size="10.00">src/engine/tracks/ChocoMountain.cpp</text>
</a>
</g>
</g>
<!-- Node3&#45;&gt;Node7 -->
<g id="edge6_Node000003_Node000007" class="edge">
<title>Node3&#45;&gt;Node7</title>
<g id="a_edge6_Node000003_Node000007"><a xlink:title=" ">
<path fill="none" stroke="#63b8ff" d="M297.5,-116.16C297.5,-105.74 297.5,-93.3 297.5,-85.17"/>
<polygon fill="#63b8ff" stroke="#63b8ff" points="294,-116.37 297.5,-126.37 301,-116.37 294,-116.37"/>
</a>
</g>
</g>
<!-- Node8 -->
<g id="Node000008" class="node">
<title>Node8</title>
<g id="a_Node000008"><a xlink:href="Track_8cpp.html" target="_top" xlink:title=" ">
<polygon fill="white" stroke="#666666" points="564,-85 415,-85 415,-66 564,-66 564,-85"/>
<text text-anchor="middle" x="489.5" y="-73" font-family="Helvetica,sans-Serif" font-size="10.00">src/engine/tracks/Track.cpp</text>
</a>
</g>
</g>
<!-- Node3&#45;&gt;Node8 -->
<g id="edge7_Node000003_Node000008" class="edge">
<title>Node3&#45;&gt;Node8</title>
<g id="a_edge7_Node000003_Node000008"><a xlink:title=" ">
<path fill="none" stroke="#63b8ff" d="M335.37,-123.46C372.5,-112.15 428.26,-95.16 461.55,-85.02"/>
<polygon fill="#63b8ff" stroke="#63b8ff" points="333.96,-120.23 325.42,-126.49 336,-126.93 333.96,-120.23"/>
</a>
</g>
</g>
<!-- Node5 -->
<g id="Node000005" class="node">
<title>Node5</title>
<g id="a_Node000005"><a xlink:href="RegisterTracks_8cpp.html" target="_top" xlink:title=" ">
<polygon fill="white" stroke="#666666" points="111,-30 0,-30 0,0 111,0 111,-30"/>
<text text-anchor="start" x="8" y="-18" font-family="Helvetica,sans-Serif" font-size="10.00">src/engine/registry</text>
<text text-anchor="middle" x="55.5" y="-7" font-family="Helvetica,sans-Serif" font-size="10.00">/RegisterTracks.cpp</text>
</a>
</g>
</g>
<!-- Node4&#45;&gt;Node5 -->
<g id="edge4_Node000004_Node000005" class="edge">
<title>Node4&#45;&gt;Node5</title>
<g id="a_edge4_Node000004_Node000005"><a xlink:title=" ">
<path fill="none" stroke="#63b8ff" d="M101.77,-58.97C92.12,-50.01 80.08,-38.82 70.7,-30.11"/>
<polygon fill="#63b8ff" stroke="#63b8ff" points="99.49,-61.63 109.2,-65.87 104.26,-56.5 99.49,-61.63"/>
</a>
</g>
</g>
<!-- Node6 -->
<g id="Node000006" class="node">
<title>Node6</title>
<g id="a_Node000006"><a xlink:href="Game_8cpp.html" target="_top" xlink:title=" ">
<polygon fill="white" stroke="#666666" points="235.5,-24.5 129.5,-24.5 129.5,-5.5 235.5,-5.5 235.5,-24.5"/>
<text text-anchor="middle" x="182.5" y="-12.5" font-family="Helvetica,sans-Serif" font-size="10.00">src/port/Game.cpp</text>
</a>
</g>
</g>
<!-- Node4&#45;&gt;Node6 -->
<g id="edge5_Node000004_Node000006" class="edge">
<title>Node4&#45;&gt;Node6</title>
<g id="a_edge5_Node000004_Node000006"><a xlink:title=" ">
<path fill="none" stroke="#63b8ff" d="M135.56,-58.91C147.56,-47.94 163.17,-33.67 173.02,-24.67"/>
<polygon fill="#63b8ff" stroke="#63b8ff" points="132.96,-56.54 127.94,-65.87 137.69,-61.7 132.96,-56.54"/>
</a>
</g>
</g>
</g>
</svg>
