<?xml version="1.0" encoding="UTF-8" standalone="no"?>
<!DOCTYPE svg PUBLIC "-//W3C//DTD SVG 1.1//EN"
 "http://www.w3.org/Graphics/SVG/1.1/DTD/svg11.dtd">
<!-- Generated by graphviz version 2.43.0 (0)
 -->
<!-- Title: OThwomp::func_80080078 Pages: 1 -->
<svg width="536pt" height="27pt"
 viewBox="0.00 0.00 536.00 27.00" xmlns="http://www.w3.org/2000/svg" xmlns:xlink="http://www.w3.org/1999/xlink">
<g id="graph0" class="graph" transform="scale(1 1) rotate(0) translate(4 23)">
<title>OThwomp::func_80080078</title>
<!-- Node1 -->
<g id="Node000001" class="node">
<title>Node1</title>
<g id="a_Node000001"><a xlink:title=" ">
<polygon fill="#999999" stroke="#666666" points="528,-19 382,-19 382,0 528,0 528,-19"/>
<text text-anchor="middle" x="455" y="-7" font-family="Helvetica,sans-Serif" font-size="10.00">OThwomp::func_80080078</text>
</a>
</g>
</g>
<!-- Node2 -->
<g id="Node000002" class="node">
<title>Node2</title>
<g id="a_Node000002"><a xlink:href="classOThwomp.html#a3017a5689feee98eedef0d112173fe68" target="_top" xlink:title=" ">
<polygon fill="white" stroke="#666666" points="346,-19 155,-19 155,0 346,0 346,-19"/>
<text text-anchor="middle" x="250.5" y="-7" font-family="Helvetica,sans-Serif" font-size="10.00">OThwomp::StationaryFastBehaviour</text>
</a>
</g>
</g>
<!-- Node1&#45;&gt;Node2 -->
<g id="edge1_Node000001_Node000002" class="edge">
<title>Node1&#45;&gt;Node2</title>
<g id="a_edge1_Node000001_Node000002"><a xlink:title=" ">
<path fill="none" stroke="#63b8ff" d="M371.58,-9.5C363.16,-9.5 354.55,-9.5 346.01,-9.5"/>
<polygon fill="#63b8ff" stroke="#63b8ff" points="371.75,-13 381.75,-9.5 371.75,-6 371.75,-13"/>
</a>
</g>
</g>
<!-- Node3 -->
<g id="Node000003" class="node">
<title>Node3</title>
<g id="a_Node000003"><a xlink:href="classOThwomp.html#ade9abcb1581897ba5376f12e1c7ed1ca" target="_top" xlink:title=" ">
<polygon fill="white" stroke="#666666" points="119,-19 0,-19 0,0 119,0 119,-19"/>
<text text-anchor="middle" x="59.5" y="-7" font-family="Helvetica,sans-Serif" font-size="10.00">OThwomp::Tick60fps</text>
</a>
</g>
</g>
<!-- Node2&#45;&gt;Node3 -->
<g id="edge2_Node000002_Node000003" class="edge">
<title>Node2&#45;&gt;Node3</title>
<g id="a_edge2_Node000002_Node000003"><a xlink:title=" ">
<path fill="none" stroke="#63b8ff" d="M144.48,-9.5C135.79,-9.5 127.22,-9.5 119.07,-9.5"/>
<polygon fill="#63b8ff" stroke="#63b8ff" points="144.72,-13 154.72,-9.5 144.72,-6 144.72,-13"/>
</a>
</g>
</g>
</g>
</svg>
