<?xml version="1.0" encoding="UTF-8" standalone="no"?>
<!DOCTYPE svg PUBLIC "-//W3C//DTD SVG 1.1//EN"
 "http://www.w3.org/Graphics/SVG/1.1/DTD/svg11.dtd">
<!-- Generated by graphviz version 2.43.0 (0)
 -->
<!-- Title: GameUI::PortMenu::InitElement Pages: 1 -->
<!--zoomable 503 -->

<svg id="main" version="1.1" xmlns="http://www.w3.org/2000/svg" xmlns:xlink="http://www.w3.org/1999/xlink" xml:space="preserve" onload="init(evt)">

<style type="text/css"><![CDATA[
.node, .edge {opacity: 0.7;}
.node.selected, .edge.selected {opacity: 1;}
.edge:hover path { stroke: red; }
.edge:hover polygon { stroke: red; fill: red; }
]]></style>

<defs>
  <circle id="rim" cx="0" cy="0" r="7"/>
  <circle id="rim2" cx="0" cy="0" r="3.5"/>
  <g id="zoomPlus">
    <use xlink:href="#rim" fill="#404040"><set attributeName="fill" to="#808080" begin="zoomplus.mouseover" end="zoomplus.mouseout"/></use>
    <path d="M-4,0h8M0,-4v8" fill="none" stroke="white" stroke-width="1.5" pointer-events="none"/>
  </g>
  <g id="zoomMin">
    <use xlink:href="#rim" fill="#404040"><set attributeName="fill" to="#808080" begin="zoomminus.mouseover" end="zoomminus.mouseout"/></use>
    <path d="M-4,0h8" fill="none" stroke="white" stroke-width="1.5" pointer-events="none"/>
  </g>
  <g id="arrowUp" transform="translate(30 24)">
    <use xlink:href="#rim"/>
    <path pointer-events="none" fill="none" stroke="white" stroke-width="1.5" d="M0,-3.0v7 M-2.5,-0.5L0,-3.0L2.5,-0.5"/>
  </g>
  <g id="arrowRight" transform="rotate(90) translate(36 -43)">
    <use xlink:href="#rim"/>
    <path pointer-events="none" fill="none" stroke="white" stroke-width="1.5" d="M0,-3.0v7 M-2.5,-0.5L0,-3.0L2.5,-0.5"/>
  </g>
  <g id="arrowDown" transform="rotate(180) translate(-30 -48)">
    <use xlink:href="#rim"/>
    <path pointer-events="none" fill="none" stroke="white" stroke-width="1.5" d="M0,-3.0v7 M-2.5,-0.5L0,-3.0L2.5,-0.5"/>
  </g>
  <g id="arrowLeft" transform="rotate(270) translate(-36 17)">
    <use xlink:href="#rim"/>
    <path pointer-events="none" fill="none" stroke="white" stroke-width="1.5" d="M0,-3.0v7 M-2.5,-0.5L0,-3.0L2.5,-0.5"/>
  </g>
  <g id="resetDef">
    <use xlink:href="#rim2" fill="#404040"><set attributeName="fill" to="#808080" begin="reset.mouseover" end="reset.mouseout"/></use>
  </g>
</defs>
<script type="application/ecmascript">
var viewWidth = 1012;
var viewHeight = 503;
var sectionId = 'dynsection-15';
</script>
<script type="application/ecmascript" xlink:href="svg.min.js"/>
<svg id="graph" class="graph">
<g id="viewport">
<title>GameUI::PortMenu::InitElement</title>
<!-- Node1 -->
<g id="Node000001" class="node">
<title>Node1</title>
<g id="a_Node000001"><a xlink:title=" ">
<polygon fill="#999999" stroke="#666666" points="171,-248 0,-248 0,-229 171,-229 171,-248"/>
<text text-anchor="middle" x="85.5" y="-236" font-family="Helvetica,sans-Serif" font-size="10.00">GameUI::PortMenu::InitElement</text>
</a>
</g>
</g>
<!-- Node2 -->
<g id="Node000002" class="node">
<title>Node2</title>
<g id="a_Node000002"><a xlink:href="classGameUI_1_1PortMenu.html#ae2b125ddd080ba7cfd4da340dfb14192" target="_top" xlink:title=" ">
<polygon fill="white" stroke="#666666" points="613.5,-418.5 460.5,-418.5 460.5,-388.5 613.5,-388.5 613.5,-418.5"/>
<text text-anchor="start" x="468.5" y="-406.5" font-family="Helvetica,sans-Serif" font-size="10.00">GameUI::PortMenu::AddDev</text>
<text text-anchor="middle" x="537" y="-395.5" font-family="Helvetica,sans-Serif" font-size="10.00">Tools</text>
</a>
</g>
</g>
<!-- Node1&#45;&gt;Node2 -->
<g id="edge1_Node000001_Node000002" class="edge">
<title>Node1&#45;&gt;Node2</title>
<g id="a_edge1_Node000001_Node000002"><a xlink:title=" ">
<path fill="none" stroke="#63b8ff" d="M98.42,-248.07C119.25,-264.36 164.15,-297.55 207,-316.5 286.02,-351.45 382.12,-374.86 450,-388.51"/>
<polygon fill="#63b8ff" stroke="#63b8ff" points="449.74,-392.03 460.23,-390.54 451.1,-385.16 449.74,-392.03"/>
</a>
</g>
</g>
<!-- Node13 -->
<g id="Node000013" class="node">
<title>Node13</title>
<g id="a_Node000013"><a xlink:href="classGameUI_1_1PortMenu.html#ad0164e1a4d1111fb2312cdec60c8d223" target="_top" xlink:title=" ">
<polygon fill="white" stroke="#666666" points="413,-267 207,-267 207,-248 413,-248 413,-267"/>
<text text-anchor="middle" x="310" y="-255" font-family="Helvetica,sans-Serif" font-size="10.00">GameUI::PortMenu::AddEnhancements</text>
</a>
</g>
</g>
<!-- Node1&#45;&gt;Node13 -->
<g id="edge12_Node000001_Node000013" class="edge">
<title>Node1&#45;&gt;Node13</title>
<g id="a_edge12_Node000001_Node000013"><a xlink:title=" ">
<path fill="none" stroke="#63b8ff" d="M171.25,-245.74C179.64,-246.45 188.24,-247.19 196.84,-247.92"/>
<polygon fill="#63b8ff" stroke="#63b8ff" points="196.68,-251.42 206.94,-248.78 197.27,-244.45 196.68,-251.42"/>
</a>
</g>
</g>
<!-- Node16 -->
<g id="Node000016" class="node">
<title>Node16</title>
<g id="a_Node000016"><a xlink:href="classGameUI_1_1PortMenu.html#ad1010e161497fac3f609b69b0f7d6348" target="_top" xlink:title=" ">
<polygon fill="white" stroke="#666666" points="623.5,-370 450.5,-370 450.5,-351 623.5,-351 623.5,-370"/>
<text text-anchor="middle" x="537" y="-358" font-family="Helvetica,sans-Serif" font-size="10.00">GameUI::PortMenu::AddSettings</text>
</a>
</g>
</g>
<!-- Node1&#45;&gt;Node16 -->
<g id="edge27_Node000001_Node000016" class="edge">
<title>Node1&#45;&gt;Node16</title>
<g id="a_edge27_Node000001_Node000016"><a xlink:title=" ">
<path fill="none" stroke="#63b8ff" d="M115.09,-248.01C139.43,-255.98 175.36,-267.48 207,-276.5 305.21,-304.5 421.16,-333.07 485.86,-348.62"/>
<polygon fill="#63b8ff" stroke="#63b8ff" points="485.26,-352.07 495.8,-351 486.89,-345.26 485.26,-352.07"/>
</a>
</g>
</g>
<!-- Node17 -->
<g id="Node000017" class="node">
<title>Node17</title>
<g id="a_Node000017"><a xlink:href="structMenuInit.html#a7c6bfdff0aa1152d33dd9b028aa2dec9" target="_top" xlink:title=" ">
<polygon fill="white" stroke="#666666" points="373,-230 247,-230 247,-211 373,-211 373,-230"/>
<text text-anchor="middle" x="310" y="-218" font-family="Helvetica,sans-Serif" font-size="10.00">MenuInit::GetInitFuncs</text>
</a>
</g>
</g>
<!-- Node1&#45;&gt;Node17 -->
<g id="edge38_Node000001_Node000017" class="edge">
<title>Node1&#45;&gt;Node17</title>
<g id="a_edge38_Node000001_Node000017"><a xlink:title=" ">
<path fill="none" stroke="#63b8ff" d="M171.25,-231.64C192.89,-229.89 215.94,-228.03 236.88,-226.33"/>
<polygon fill="#63b8ff" stroke="#63b8ff" points="237.29,-229.81 246.97,-225.52 236.72,-222.84 237.29,-229.81"/>
</a>
</g>
</g>
<!-- Node18 -->
<g id="Node000018" class="node">
<title>Node18</title>
<g id="a_Node000018"><a xlink:href="classShip_1_1Menu.html#a953d120de56dfabc594b699e2ff68b23" target="_top" xlink:title=" ">
<polygon fill="white" stroke="#666666" points="376.5,-140 243.5,-140 243.5,-121 376.5,-121 376.5,-140"/>
<text text-anchor="middle" x="310" y="-128" font-family="Helvetica,sans-Serif" font-size="10.00">Ship::Menu::InitElement</text>
</a>
</g>
</g>
<!-- Node1&#45;&gt;Node18 -->
<g id="edge39_Node000001_Node000018" class="edge">
<title>Node1&#45;&gt;Node18</title>
<g id="a_edge39_Node000001_Node000018"><a xlink:title=" ">
<path fill="none" stroke="#63b8ff" d="M106.25,-228.92C145.66,-209.78 234.26,-166.78 280.18,-144.49"/>
<polygon fill="#63b8ff" stroke="#63b8ff" points="281.83,-147.58 289.3,-140.06 278.77,-141.28 281.83,-147.58"/>
</a>
</g>
</g>
<!-- Node20 -->
<g id="Node000020" class="node">
<title>Node20</title>
<g id="a_Node000020"><a xlink:href="classShip_1_1Menu.html#a5c9049d39655da5c027cf0cabf77adda" target="_top" xlink:title=" ">
<polygon fill="white" stroke="#666666" points="380.5,-61.5 239.5,-61.5 239.5,-31.5 380.5,-31.5 380.5,-61.5"/>
<text text-anchor="start" x="247.5" y="-49.5" font-family="Helvetica,sans-Serif" font-size="10.00">Ship::Menu::InsertSidebar</text>
<text text-anchor="middle" x="310" y="-38.5" font-family="Helvetica,sans-Serif" font-size="10.00">Search</text>
</a>
</g>
</g>
<!-- Node1&#45;&gt;Node20 -->
<g id="edge41_Node000001_Node000020" class="edge">
<title>Node1&#45;&gt;Node20</title>
<g id="a_edge41_Node000001_Node000020"><a xlink:title=" ">
<path fill="none" stroke="#63b8ff" d="M94.3,-228.92C112.57,-206.84 160.12,-151.27 207,-112.5 227.67,-95.4 252.98,-79.01 273.21,-66.83"/>
<polygon fill="#63b8ff" stroke="#63b8ff" points="275.02,-69.83 281.83,-61.71 271.45,-63.81 275.02,-69.83"/>
</a>
</g>
</g>
<!-- Node3 -->
<g id="Node000003" class="node">
<title>Node3</title>
<g id="a_Node000003"><a xlink:href="classShip_1_1Menu.html#ab11c570db7278bb11d2106d1b3584830" target="_top" xlink:title=" ">
<polygon fill="white" stroke="#666666" points="820,-492 672,-492 672,-473 820,-473 820,-492"/>
<text text-anchor="middle" x="746" y="-480" font-family="Helvetica,sans-Serif" font-size="10.00">Ship::Menu::AddMenuEntry</text>
</a>
</g>
</g>
<!-- Node2&#45;&gt;Node3 -->
<g id="edge2_Node000002_Node000003" class="edge">
<title>Node2&#45;&gt;Node3</title>
<g id="a_edge2_Node000002_Node000003"><a xlink:title=" ">
<path fill="none" stroke="#63b8ff" d="M563.57,-418.54C587.9,-432.28 625.89,-452.25 661,-464.5 667.34,-466.71 674.05,-468.7 680.8,-470.48"/>
<polygon fill="#63b8ff" stroke="#63b8ff" points="680.13,-473.92 690.68,-472.94 681.82,-467.13 680.13,-473.92"/>
</a>
</g>
</g>
<!-- Node4 -->
<g id="Node000004" class="node">
<title>Node4</title>
<g id="a_Node000004"><a xlink:href="classGameUI_1_1PortMenu.html#a13c853deed0530fa8e1810ffe6fef9a5" target="_top" xlink:title=" ">
<polygon fill="white" stroke="#666666" points="831,-343.5 661,-343.5 661,-313.5 831,-313.5 831,-343.5"/>
<text text-anchor="start" x="669" y="-331.5" font-family="Helvetica,sans-Serif" font-size="10.00">GameUI::PortMenu::AddSidebar</text>
<text text-anchor="middle" x="746" y="-320.5" font-family="Helvetica,sans-Serif" font-size="10.00">Entry</text>
</a>
</g>
</g>
<!-- Node2&#45;&gt;Node4 -->
<g id="edge3_Node000002_Node000004" class="edge">
<title>Node2&#45;&gt;Node4</title>
<g id="a_edge3_Node000002_Node000004"><a xlink:title=" ">
<path fill="none" stroke="#63b8ff" d="M602.62,-388.47C610.31,-385.87 617.94,-382.89 625,-379.5 642.79,-370.96 643.29,-362.22 661,-353.5 665.66,-351.21 670.57,-349.08 675.58,-347.12"/>
<polygon fill="#63b8ff" stroke="#63b8ff" points="677.12,-350.28 685.3,-343.54 674.7,-343.71 677.12,-350.28"/>
</a>
</g>
</g>
<!-- Node5 -->
<g id="Node000005" class="node">
<title>Node5</title>
<g id="a_Node000005"><a xlink:href="classGameUI_1_1PortMenu.html#a35ff589db0705776ae252a50fa1cee7d" target="_top" xlink:title=" ">
<polygon fill="white" stroke="#666666" points="830,-147 662,-147 662,-128 830,-128 830,-147"/>
<text text-anchor="middle" x="746" y="-135" font-family="Helvetica,sans-Serif" font-size="10.00">GameUI::PortMenu::AddWidget</text>
</a>
</g>
</g>
<!-- Node2&#45;&gt;Node5 -->
<g id="edge4_Node000002_Node000005" class="edge">
<title>Node2&#45;&gt;Node5</title>
<g id="a_edge4_Node000002_Node000005"><a xlink:title=" ">
<path fill="none" stroke="#63b8ff" d="M613.57,-389.11C617.78,-386.41 621.65,-383.23 625,-379.5 692.01,-304.75 592.26,-229.67 661,-156.5 662.23,-155.19 663.53,-153.96 664.9,-152.81"/>
<polygon fill="#63b8ff" stroke="#63b8ff" points="667.05,-155.57 673.29,-147 663.08,-149.81 667.05,-155.57"/>
</a>
</g>
</g>
<!-- Node6 -->
<g id="Node000006" class="node">
<title>Node6</title>
<g id="a_Node000006"><a xlink:href="structWidgetInfo.html#a63678e013cb28e918508e58d8c6f2aec" target="_top" xlink:title=" ">
<polygon fill="white" stroke="#666666" points="805,-418 687,-418 687,-399 805,-399 805,-418"/>
<text text-anchor="middle" x="746" y="-406" font-family="Helvetica,sans-Serif" font-size="10.00">WidgetInfo::Callback</text>
</a>
</g>
</g>
<!-- Node2&#45;&gt;Node6 -->
<g id="edge5_Node000002_Node000006" class="edge">
<title>Node2&#45;&gt;Node6</title>
<g id="a_edge5_Node000002_Node000006"><a xlink:title=" ">
<path fill="none" stroke="#63b8ff" d="M613.61,-405.33C634.26,-405.83 656.51,-406.36 676.72,-406.85"/>
<polygon fill="#63b8ff" stroke="#63b8ff" points="676.7,-410.35 686.78,-407.09 676.87,-403.35 676.7,-410.35"/>
</a>
</g>
</g>
<!-- Node7 -->
<g id="Node000007" class="node">
<title>Node7</title>
<g id="a_Node000007"><a xlink:href="structWidgetInfo.html#a90231c4f7b3b153e6ede3f853748db3a" target="_top" xlink:title=" ">
<polygon fill="white" stroke="#666666" points="795,-258 697,-258 697,-239 795,-239 795,-258"/>
<text text-anchor="middle" x="746" y="-246" font-family="Helvetica,sans-Serif" font-size="10.00">WidgetInfo::CVar</text>
</a>
</g>
</g>
<!-- Node2&#45;&gt;Node7 -->
<g id="edge6_Node000002_Node000007" class="edge">
<title>Node2&#45;&gt;Node7</title>
<g id="a_edge6_Node000002_Node000007"><a xlink:title=" ">
<path fill="none" stroke="#63b8ff" d="M613.36,-388.26C617.56,-385.76 621.49,-382.86 625,-379.5 662.74,-343.31 622.43,-302.8 661,-267.5 668.36,-260.76 677.6,-256.25 687.23,-253.25"/>
<polygon fill="#63b8ff" stroke="#63b8ff" points="688.13,-256.63 696.93,-250.74 686.37,-249.86 688.13,-256.63"/>
</a>
</g>
</g>
<!-- Node8 -->
<g id="Node000008" class="node">
<title>Node8</title>
<g id="a_Node000008"><a xlink:href="structWidgetInfo.html#a8fb193d773f8f491d161798ec34a3569" target="_top" xlink:title=" ">
<polygon fill="white" stroke="#666666" points="802.5,-221 689.5,-221 689.5,-202 802.5,-202 802.5,-221"/>
<text text-anchor="middle" x="746" y="-209" font-family="Helvetica,sans-Serif" font-size="10.00">WidgetInfo::Options</text>
</a>
</g>
</g>
<!-- Node2&#45;&gt;Node8 -->
<g id="edge7_Node000002_Node000008" class="edge">
<title>Node2&#45;&gt;Node8</title>
<g id="a_edge7_Node000002_Node000008"><a xlink:title=" ">
<path fill="none" stroke="#63b8ff" d="M613.65,-388.56C617.78,-385.99 621.62,-382.99 625,-379.5 672.39,-330.56 612.48,-278.32 661,-230.5 666.27,-225.31 672.64,-221.41 679.5,-218.5"/>
<polygon fill="#63b8ff" stroke="#63b8ff" points="680.81,-221.75 689.08,-215.13 678.48,-215.15 680.81,-221.75"/>
</a>
</g>
</g>
<!-- Node9 -->
<g id="Node000009" class="node">
<title>Node9</title>
<g id="a_Node000009"><a xlink:href="structWidgetInfo.html#aa5a2f8ac208a9a4bb743df31284b9823" target="_top" xlink:title=" ">
<polygon fill="white" stroke="#666666" points="803,-455 689,-455 689,-436 803,-436 803,-455"/>
<text text-anchor="middle" x="746" y="-443" font-family="Helvetica,sans-Serif" font-size="10.00">WidgetInfo::PreFunc</text>
</a>
</g>
</g>
<!-- Node2&#45;&gt;Node9 -->
<g id="edge8_Node000002_Node000009" class="edge">
<title>Node2&#45;&gt;Node9</title>
<g id="a_edge8_Node000002_Node000009"><a xlink:title=" ">
<path fill="none" stroke="#63b8ff" d="M612.15,-418.54C637.22,-423.63 664.8,-429.23 688.3,-434"/>
<polygon fill="#63b8ff" stroke="#63b8ff" points="687.6,-437.43 698.1,-435.98 689,-430.57 687.6,-437.43"/>
</a>
</g>
</g>
<!-- Node10 -->
<g id="Node000010" class="node">
<title>Node10</title>
<g id="a_Node000010"><a xlink:href="namespaceUIWidgets.html#a4d98c5aaae7bc50d0349332872902b84" target="_top" xlink:title=" ">
<polygon fill="white" stroke="#666666" points="798.5,-295 693.5,-295 693.5,-276 798.5,-276 798.5,-295"/>
<text text-anchor="middle" x="746" y="-283" font-family="Helvetica,sans-Serif" font-size="10.00">UIWidgets::Tooltip</text>
</a>
</g>
</g>
<!-- Node2&#45;&gt;Node10 -->
<g id="edge9_Node000002_Node000010" class="edge">
<title>Node2&#45;&gt;Node10</title>
<g id="a_edge9_Node000002_Node000010"><a xlink:title=" ">
<path fill="none" stroke="#63b8ff" d="M611.58,-388.37C616.38,-385.85 620.91,-382.92 625,-379.5 653.37,-355.79 632.08,-327.54 661,-304.5 667.64,-299.21 675.47,-295.33 683.63,-292.5"/>
<polygon fill="#63b8ff" stroke="#63b8ff" points="684.71,-295.83 693.31,-289.63 682.73,-289.11 684.71,-295.83"/>
</a>
</g>
</g>
<!-- Node12 -->
<g id="Node000012" class="node">
<title>Node12</title>
<g id="a_Node000012"><a xlink:href="structWidgetInfo.html#aeea77b4ba4faf5a2440b454857c019e5" target="_top" xlink:title=" ">
<polygon fill="white" stroke="#666666" points="818,-381 674,-381 674,-362 818,-362 818,-381"/>
<text text-anchor="middle" x="746" y="-369" font-family="Helvetica,sans-Serif" font-size="10.00">WidgetInfo::WindowName</text>
</a>
</g>
</g>
<!-- Node2&#45;&gt;Node12 -->
<g id="edge11_Node000002_Node000012" class="edge">
<title>Node2&#45;&gt;Node12</title>
<g id="a_edge11_Node000002_Node000012"><a xlink:title=" ">
<path fill="none" stroke="#63b8ff" d="M613.61,-391.81C633.18,-388.79 654.19,-385.54 673.54,-382.55"/>
<polygon fill="#63b8ff" stroke="#63b8ff" points="674.15,-385.99 683.49,-381.01 673.08,-379.08 674.15,-385.99"/>
</a>
</g>
</g>
<!-- Node11 -->
<g id="Node000011" class="node">
<title>Node11</title>
<g id="a_Node000011"><a xlink:href="namespaceUIWidgets.html#a01b8f77a826ec1dcc1ee8c9a21c219d6" target="_top" xlink:title=" ">
<polygon fill="white" stroke="#666666" points="1004,-295 867,-295 867,-276 1004,-276 1004,-295"/>
<text text-anchor="middle" x="935.5" y="-283" font-family="Helvetica,sans-Serif" font-size="10.00">UIWidgets::WrappedText</text>
</a>
</g>
</g>
<!-- Node10&#45;&gt;Node11 -->
<g id="edge10_Node000010_Node000011" class="edge">
<title>Node10&#45;&gt;Node11</title>
<g id="a_edge10_Node000010_Node000011"><a xlink:title=" ">
<path fill="none" stroke="#63b8ff" d="M798.73,-285.5C816.64,-285.5 837.13,-285.5 856.66,-285.5"/>
<polygon fill="#63b8ff" stroke="#63b8ff" points="856.77,-289 866.77,-285.5 856.77,-282 856.77,-289"/>
</a>
</g>
</g>
<!-- Node13&#45;&gt;Node3 -->
<g id="edge13_Node000013_Node000003" class="edge">
<title>Node13&#45;&gt;Node3</title>
<g id="a_edge13_Node000013_Node000003"><a xlink:title=" ">
<path fill="none" stroke="#63b8ff" d="M314.28,-267.27C326.12,-300.83 370.18,-411.79 449,-457.5 516.72,-496.77 608.21,-498.26 671.46,-492.97"/>
<polygon fill="#63b8ff" stroke="#63b8ff" points="672.11,-496.42 681.75,-492.02 671.48,-489.45 672.11,-496.42"/>
</a>
</g>
</g>
<!-- Node13&#45;&gt;Node4 -->
<g id="edge21_Node000013_Node000004" class="edge">
<title>Node13&#45;&gt;Node4</title>
<g id="a_edge21_Node000013_Node000004"><a xlink:title=" ">
<path fill="none" stroke="#63b8ff" d="M354.7,-267.02C381.78,-272.75 417.33,-279.99 449,-285.5 516.34,-297.21 592.69,-308.25 650.98,-316.21"/>
<polygon fill="#63b8ff" stroke="#63b8ff" points="650.53,-319.68 660.91,-317.56 651.48,-312.74 650.53,-319.68"/>
</a>
</g>
</g>
<!-- Node13&#45;&gt;Node5 -->
<g id="edge22_Node000013_Node000005" class="edge">
<title>Node13&#45;&gt;Node5</title>
<g id="a_edge22_Node000013_Node000005"><a xlink:title=" ">
<path fill="none" stroke="#63b8ff" d="M398.5,-247.92C403.63,-245.6 408.52,-242.82 413,-239.5 441.42,-218.43 419.86,-188.56 449,-168.5 515.15,-122.96 610.09,-121.29 674.48,-127.01"/>
<polygon fill="#63b8ff" stroke="#63b8ff" points="674.25,-130.5 684.54,-127.98 674.92,-123.54 674.25,-130.5"/>
</a>
</g>
</g>
<!-- Node13&#45;&gt;Node7 -->
<g id="edge23_Node000013_Node000007" class="edge">
<title>Node13&#45;&gt;Node7</title>
<g id="a_edge23_Node000013_Node000007"><a xlink:title=" ">
<path fill="none" stroke="#63b8ff" d="M413.03,-255.38C498.11,-253.62 616.36,-251.17 686.36,-249.72"/>
<polygon fill="#63b8ff" stroke="#63b8ff" points="686.82,-253.21 696.74,-249.5 686.67,-246.21 686.82,-253.21"/>
</a>
</g>
</g>
<!-- Node13&#45;&gt;Node8 -->
<g id="edge24_Node000013_Node000008" class="edge">
<title>Node13&#45;&gt;Node8</title>
<g id="a_edge24_Node000013_Node000008"><a xlink:title=" ">
<path fill="none" stroke="#63b8ff" d="M395.59,-247.94C401.7,-245.65 407.58,-242.87 413,-239.5 435.95,-225.24 424.89,-202.7 449,-190.5 518.79,-155.17 547.07,-183.73 625,-190.5 646.91,-192.4 670.82,-196.22 691.49,-200.09"/>
<polygon fill="#63b8ff" stroke="#63b8ff" points="690.87,-203.54 701.35,-201.99 692.19,-196.66 690.87,-203.54"/>
</a>
</g>
</g>
<!-- Node13&#45;&gt;Node9 -->
<g id="edge25_Node000013_Node000009" class="edge">
<title>Node13&#45;&gt;Node9</title>
<g id="a_edge25_Node000013_Node000009"><a xlink:title=" ">
<path fill="none" stroke="#63b8ff" d="M315.28,-267.14C329.27,-297.38 376.99,-390.48 449,-427.5 520.89,-464.46 615.94,-462.85 678.7,-456.08"/>
<polygon fill="#63b8ff" stroke="#63b8ff" points="679.34,-459.53 688.87,-454.91 678.54,-452.58 679.34,-459.53"/>
</a>
</g>
</g>
<!-- Node13&#45;&gt;Node10 -->
<g id="edge26_Node000013_Node000010" class="edge">
<title>Node13&#45;&gt;Node10</title>
<g id="a_edge26_Node000013_Node000010"><a xlink:title=" ">
<path fill="none" stroke="#63b8ff" d="M413.11,-264.17C425.21,-264.96 437.38,-265.75 449,-266.5 530,-271.74 623.48,-277.73 683.35,-281.56"/>
<polygon fill="#63b8ff" stroke="#63b8ff" points="683.2,-285.06 693.4,-282.2 683.64,-278.07 683.2,-285.06"/>
</a>
</g>
</g>
<!-- Node14 -->
<g id="Node000014" class="node">
<title>Node14</title>
<g id="a_Node000014"><a xlink:href="classGameUI_1_1PortMenu.html#acf1c08d9ed088b6b33ec91a0e0a48494" target="_top" xlink:title=" ">
<polygon fill="white" stroke="#666666" points="625,-218 449,-218 449,-199 625,-199 625,-218"/>
<text text-anchor="middle" x="537" y="-206" font-family="Helvetica,sans-Serif" font-size="10.00">GameUI::PortMenu::AddRulesets</text>
</a>
</g>
</g>
<!-- Node13&#45;&gt;Node14 -->
<g id="edge14_Node000013_Node000014" class="edge">
<title>Node13&#45;&gt;Node14</title>
<g id="a_edge14_Node000013_Node000014"><a xlink:title=" ">
<path fill="none" stroke="#63b8ff" d="M369.13,-247.99C383.51,-245.43 398.84,-242.53 413,-239.5 438.98,-233.94 467.79,-226.74 490.99,-220.67"/>
<polygon fill="#63b8ff" stroke="#63b8ff" points="492.12,-224 500.9,-218.06 490.34,-217.23 492.12,-224"/>
</a>
</g>
</g>
<!-- Node14&#45;&gt;Node4 -->
<g id="edge15_Node000014_Node000004" class="edge">
<title>Node14&#45;&gt;Node4</title>
<g id="a_edge15_Node000014_Node000004"><a xlink:title=" ">
<path fill="none" stroke="#63b8ff" d="M547.6,-218.18C567.2,-237.39 613.92,-280.55 661,-304.5 664.73,-306.4 668.62,-308.16 672.61,-309.8"/>
<polygon fill="#63b8ff" stroke="#63b8ff" points="671.46,-313.11 682.05,-313.41 673.96,-306.57 671.46,-313.11"/>
</a>
</g>
</g>
<!-- Node14&#45;&gt;Node5 -->
<g id="edge16_Node000014_Node000005" class="edge">
<title>Node14&#45;&gt;Node5</title>
<g id="a_edge16_Node000014_Node000005"><a xlink:title=" ">
<path fill="none" stroke="#63b8ff" d="M557.61,-198.92C581.55,-187.54 623.48,-168.57 661,-156.5 669.08,-153.9 677.71,-151.52 686.25,-149.39"/>
<polygon fill="#63b8ff" stroke="#63b8ff" points="687.28,-152.74 696.19,-147 685.65,-145.93 687.28,-152.74"/>
</a>
</g>
</g>
<!-- Node14&#45;&gt;Node7 -->
<g id="edge17_Node000014_Node000007" class="edge">
<title>Node14&#45;&gt;Node7</title>
<g id="a_edge17_Node000014_Node000007"><a xlink:title=" ">
<path fill="none" stroke="#63b8ff" d="M587.32,-218.03C617.21,-223.81 655.49,-231.2 686.85,-237.26"/>
<polygon fill="#63b8ff" stroke="#63b8ff" points="686.29,-240.72 696.77,-239.18 687.62,-233.85 686.29,-240.72"/>
</a>
</g>
</g>
<!-- Node14&#45;&gt;Node8 -->
<g id="edge18_Node000014_Node000008" class="edge">
<title>Node14&#45;&gt;Node8</title>
<g id="a_edge18_Node000014_Node000008"><a xlink:title=" ">
<path fill="none" stroke="#63b8ff" d="M625.19,-209.76C643.21,-210.02 661.92,-210.3 679.03,-210.54"/>
<polygon fill="#63b8ff" stroke="#63b8ff" points="679.42,-214.05 689.47,-210.7 679.52,-207.05 679.42,-214.05"/>
</a>
</g>
</g>
<!-- Node14&#45;&gt;Node10 -->
<g id="edge19_Node000014_Node000010" class="edge">
<title>Node14&#45;&gt;Node10</title>
<g id="a_edge19_Node000014_Node000010"><a xlink:title=" ">
<path fill="none" stroke="#63b8ff" d="M554.58,-218.02C577.72,-230.93 621.33,-253.95 661,-267.5 668.16,-269.95 675.79,-272.13 683.41,-274.06"/>
<polygon fill="#63b8ff" stroke="#63b8ff" points="682.85,-277.53 693.39,-276.45 684.48,-270.72 682.85,-277.53"/>
</a>
</g>
</g>
<!-- Node15 -->
<g id="Node000015" class="node">
<title>Node15</title>
<g id="a_Node000015"><a xlink:href="structWidgetInfo.html#a989db9af6c076da6263e8d8b5430f4b8" target="_top" xlink:title=" ">
<polygon fill="white" stroke="#666666" points="814.5,-184 677.5,-184 677.5,-165 814.5,-165 814.5,-184"/>
<text text-anchor="middle" x="746" y="-172" font-family="Helvetica,sans-Serif" font-size="10.00">WidgetInfo::ValuePointer</text>
</a>
</g>
</g>
<!-- Node14&#45;&gt;Node15 -->
<g id="edge20_Node000014_Node000015" class="edge">
<title>Node14&#45;&gt;Node15</title>
<g id="a_edge20_Node000014_Node000015"><a xlink:title=" ">
<path fill="none" stroke="#63b8ff" d="M595.94,-198.98C621.18,-194.84 650.94,-189.95 677.2,-185.64"/>
<polygon fill="#63b8ff" stroke="#63b8ff" points="677.78,-189.09 687.08,-184.01 676.64,-182.18 677.78,-189.09"/>
</a>
</g>
</g>
<!-- Node16&#45;&gt;Node3 -->
<g id="edge28_Node000016_Node000003" class="edge">
<title>Node16&#45;&gt;Node3</title>
<g id="a_edge28_Node000016_Node000003"><a xlink:title=" ">
<path fill="none" stroke="#63b8ff" d="M609.56,-370.01C615.11,-372.53 620.36,-375.65 625,-379.5 656.57,-405.7 629.38,-438.37 661,-464.5 662.38,-465.64 663.82,-466.72 665.31,-467.73"/>
<polygon fill="#63b8ff" stroke="#63b8ff" points="663.86,-470.93 674.28,-472.85 667.33,-464.85 663.86,-470.93"/>
</a>
</g>
</g>
<!-- Node16&#45;&gt;Node4 -->
<g id="edge29_Node000016_Node000004" class="edge">
<title>Node16&#45;&gt;Node4</title>
<g id="a_edge29_Node000016_Node000004"><a xlink:title=" ">
<path fill="none" stroke="#63b8ff" d="M599.55,-350.99C615.59,-348.51 633.24,-345.78 650.56,-343.1"/>
<polygon fill="#63b8ff" stroke="#63b8ff" points="651.35,-346.52 660.7,-341.53 650.28,-339.6 651.35,-346.52"/>
</a>
</g>
</g>
<!-- Node16&#45;&gt;Node5 -->
<g id="edge30_Node000016_Node000005" class="edge">
<title>Node16&#45;&gt;Node5</title>
<g id="a_edge30_Node000016_Node000005"><a xlink:title=" ">
<path fill="none" stroke="#63b8ff" d="M544.93,-350.72C560.19,-329.03 597.51,-275.03 625,-227.5 642.71,-196.87 633.09,-178.25 661,-156.5 663.32,-154.69 665.78,-153.05 668.35,-151.55"/>
<polygon fill="#63b8ff" stroke="#63b8ff" points="670.03,-154.63 677.42,-147.04 666.91,-148.36 670.03,-154.63"/>
</a>
</g>
</g>
<!-- Node16&#45;&gt;Node6 -->
<g id="edge31_Node000016_Node000006" class="edge">
<title>Node16&#45;&gt;Node6</title>
<g id="a_edge31_Node000016_Node000006"><a xlink:title=" ">
<path fill="none" stroke="#63b8ff" d="M585.12,-370.06C598.1,-372.89 612.14,-376.14 625,-379.5 641.19,-383.73 644.81,-386.3 661,-390.5 669.39,-392.68 678.3,-394.79 687.06,-396.76"/>
<polygon fill="#63b8ff" stroke="#63b8ff" points="686.34,-400.19 696.86,-398.92 687.85,-393.35 686.34,-400.19"/>
</a>
</g>
</g>
<!-- Node16&#45;&gt;Node7 -->
<g id="edge32_Node000016_Node000007" class="edge">
<title>Node16&#45;&gt;Node7</title>
<g id="a_edge32_Node000016_Node000007"><a xlink:title=" ">
<path fill="none" stroke="#63b8ff" d="M547.56,-350.92C567.07,-331.94 613.66,-289.5 661,-267.5 669.08,-263.75 677.95,-260.71 686.8,-258.26"/>
<polygon fill="#63b8ff" stroke="#63b8ff" points="687.91,-261.59 696.74,-255.74 686.19,-254.81 687.91,-261.59"/>
</a>
</g>
</g>
<!-- Node16&#45;&gt;Node8 -->
<g id="edge33_Node000016_Node000008" class="edge">
<title>Node16&#45;&gt;Node8</title>
<g id="a_edge33_Node000016_Node000008"><a xlink:title=" ">
<path fill="none" stroke="#63b8ff" d="M544.11,-350.83C560.07,-326.42 605.65,-262.02 661,-230.5 666.85,-227.17 673.24,-224.42 679.8,-222.16"/>
<polygon fill="#63b8ff" stroke="#63b8ff" points="680.96,-225.46 689.48,-219.17 678.9,-218.77 680.96,-225.46"/>
</a>
</g>
</g>
<!-- Node16&#45;&gt;Node9 -->
<g id="edge34_Node000016_Node000009" class="edge">
<title>Node16&#45;&gt;Node9</title>
<g id="a_edge34_Node000016_Node000009"><a xlink:title=" ">
<path fill="none" stroke="#63b8ff" d="M605.5,-370.12C612.38,-372.58 619.02,-375.66 625,-379.5 647.43,-393.92 638.54,-413.13 661,-427.5 666.44,-430.98 672.45,-433.8 678.67,-436.08"/>
<polygon fill="#63b8ff" stroke="#63b8ff" points="677.98,-439.54 688.57,-439.24 680.11,-432.87 677.98,-439.54"/>
</a>
</g>
</g>
<!-- Node16&#45;&gt;Node10 -->
<g id="edge35_Node000016_Node000010" class="edge">
<title>Node16&#45;&gt;Node10</title>
<g id="a_edge35_Node000016_Node000010"><a xlink:title=" ">
<path fill="none" stroke="#63b8ff" d="M555.87,-350.95C579.39,-338.72 622.31,-317.53 661,-304.5 668.66,-301.92 676.82,-299.59 684.94,-297.5"/>
<polygon fill="#63b8ff" stroke="#63b8ff" points="685.91,-300.87 694.79,-295.09 684.24,-294.07 685.91,-300.87"/>
</a>
</g>
</g>
<!-- Node16&#45;&gt;Node12 -->
<g id="edge37_Node000016_Node000012" class="edge">
<title>Node16&#45;&gt;Node12</title>
<g id="a_edge37_Node000016_Node000012"><a xlink:title=" ">
<path fill="none" stroke="#63b8ff" d="M623.69,-365.05C636.85,-365.75 650.41,-366.47 663.48,-367.17"/>
<polygon fill="#63b8ff" stroke="#63b8ff" points="663.67,-370.68 673.84,-367.72 664.04,-363.69 663.67,-370.68"/>
</a>
</g>
</g>
<!-- Node16&#45;&gt;Node15 -->
<g id="edge36_Node000016_Node000015" class="edge">
<title>Node16&#45;&gt;Node15</title>
<g id="a_edge36_Node000016_Node000015"><a xlink:title=" ">
<path fill="none" stroke="#63b8ff" d="M543.96,-350.65C563.87,-318.08 628.6,-214.69 661,-193.5 664.12,-191.46 667.44,-189.63 670.88,-188"/>
<polygon fill="#63b8ff" stroke="#63b8ff" points="672.32,-191.19 680.21,-184.12 669.64,-184.72 672.32,-191.19"/>
</a>
</g>
</g>
<!-- Node19 -->
<g id="Node000019" class="node">
<title>Node19</title>
<g id="a_Node000019"><a xlink:href="classShip_1_1Menu.html#a7329d35f375df068b761b04f4ef390c5" target="_top" xlink:title=" ">
<polygon fill="white" stroke="#666666" points="612.5,-104.5 461.5,-104.5 461.5,-74.5 612.5,-74.5 612.5,-104.5"/>
<text text-anchor="start" x="469.5" y="-92.5" font-family="Helvetica,sans-Serif" font-size="10.00">Ship::Menu::UpdateWindow</text>
<text text-anchor="middle" x="537" y="-81.5" font-family="Helvetica,sans-Serif" font-size="10.00">BackendObjects</text>
</a>
</g>
</g>
<!-- Node18&#45;&gt;Node19 -->
<g id="edge40_Node000018_Node000019" class="edge">
<title>Node18&#45;&gt;Node19</title>
<g id="a_edge40_Node000018_Node000019"><a xlink:title=" ">
<path fill="none" stroke="#63b8ff" d="M363.19,-120.99C389.31,-116.23 421.6,-110.35 451.17,-104.96"/>
<polygon fill="#63b8ff" stroke="#63b8ff" points="451.87,-108.39 461.08,-103.15 450.61,-101.5 451.87,-108.39"/>
</a>
</g>
</g>
<!-- Node21 -->
<g id="Node000021" class="node">
<title>Node21</title>
<g id="a_Node000021"><a xlink:href="namespaceShip.html#aa346db7804e4175df73113e9e2391358" target="_top" xlink:title=" ">
<polygon fill="white" stroke="#666666" points="602,-19 472,-19 472,0 602,0 602,-19"/>
<text text-anchor="middle" x="537" y="-7" font-family="Helvetica,sans-Serif" font-size="10.00">Ship::GetVectorIndexOf</text>
</a>
</g>
</g>
<!-- Node20&#45;&gt;Node21 -->
<g id="edge42_Node000020_Node000021" class="edge">
<title>Node20&#45;&gt;Node21</title>
<g id="a_edge42_Node000020_Node000021"><a xlink:title=" ">
<path fill="none" stroke="#63b8ff" d="M380.65,-35.05C408.47,-30.47 440.39,-25.22 468.04,-20.68"/>
<polygon fill="#63b8ff" stroke="#63b8ff" points="468.72,-24.11 478.02,-19.03 467.58,-17.2 468.72,-24.11"/>
</a>
</g>
</g>
<!-- Node22 -->
<g id="Node000022" class="node">
<title>Node22</title>
<g id="a_Node000022"><a xlink:href="ShipUtils_8cpp.html#a31d87083f0db90738310ec533f7e9d17" target="_top" xlink:title=" ">
<polygon fill="white" stroke="#666666" points="596,-56 478,-56 478,-37 596,-37 596,-56"/>
<text text-anchor="middle" x="537" y="-44" font-family="Helvetica,sans-Serif" font-size="10.00">Ship_IsCStringEmpty</text>
</a>
</g>
</g>
<!-- Node20&#45;&gt;Node22 -->
<g id="edge43_Node000020_Node000022" class="edge">
<title>Node20&#45;&gt;Node22</title>
<g id="a_edge43_Node000020_Node000022"><a xlink:title=" ">
<path fill="none" stroke="#63b8ff" d="M380.65,-46.5C408.23,-46.5 439.85,-46.5 467.33,-46.5"/>
<polygon fill="#63b8ff" stroke="#63b8ff" points="467.65,-50 477.65,-46.5 467.65,-43 467.65,-50"/>
</a>
</g>
</g>
</g>
</svg>

<g id="navigator" transform="translate(0 0)" fill="#404254">
  <rect fill="#f2f5e9" fill-opacity="0.5" stroke="#606060" stroke-width=".5" x="0" y="0" width="60" height="60"/>
  <use id="zoomplus" xlink:href="#zoomPlus" x="17" y="9" onmousedown="handleZoom(evt,'in')"/>
  <use id="zoomminus" xlink:href="#zoomMin" x="42" y="9" onmousedown="handleZoom(evt,'out')"/>
  <use id="reset" xlink:href="#resetDef" x="30" y="36" onmousedown="handleReset()"/>
   <use id="arrowup" xlink:href="#arrowUp" x="0" y="0" onmousedown="handlePan(0,-1)"/>
  <use id="arrowright" xlink:href="#arrowRight" x="0" y="0" onmousedown="handlePan(1,0)"/>
  <use id="arrowdown" xlink:href="#arrowDown" x="0" y="0" onmousedown="handlePan(0,1)"/>
  <use id="arrowleft" xlink:href="#arrowLeft" x="0" y="0" onmousedown="handlePan(-1,0)"/>
</g>
<svg viewBox="0 0 15 15" width="100%" height="30px" preserveAspectRatio="xMaxYMin meet">
 <g id="arrow_out" transform="scale(0.3 0.3)">
  <a xlink:href="classGameUI_1_1PortMenu_a6107d5040943b730f00a96293d335e23_cgraph_org.svg" target="_base">
   <rect id="button" ry="5" rx="5" y="6" x="6" height="38" width="38"
        fill="#f2f5e9" fill-opacity="0.5" stroke="#606060" stroke-width="1.0"/>
   <path id="arrow"
     d="M 11.500037,31.436501 C 11.940474,20.09759 22.043105,11.32322 32.158766,21.979434 L 37.068811,17.246167 C 37.068811,17.246167 37.088388,32 37.088388,32 L 22.160133,31.978069 C 22.160133,31.978069 26.997745,27.140456 26.997745,27.140456 C 18.528582,18.264221 13.291696,25.230495 11.500037,31.436501 z"
     style="fill:#404040;"/>
  </a>
 </g>
</svg>

<style type='text/css'>
<![CDATA[
[data-mouse-over-selected='false'] { opacity: 0.7; }
[data-mouse-over-selected='true']  { opacity: 1.0; }
]]>
</style>
<script type="application/ecmascript"><![CDATA[
document.addEventListener('DOMContentLoaded', (event) => {
  highlightEdges();
  highlightAdjacentNodes();
});
]]></script>
</svg>
