<?xml version="1.0" encoding="UTF-8" standalone="no"?>
<!DOCTYPE svg PUBLIC "-//W3C//DTD SVG 1.1//EN"
 "http://www.w3.org/Graphics/SVG/1.1/DTD/svg11.dtd">
<!-- Generated by graphviz version 2.43.0 (0)
 -->
<!-- Title: pfd::internal::executor::ready Pages: 1 -->
<!--zoomable 200 -->

<svg id="main" version="1.1" xmlns="http://www.w3.org/2000/svg" xmlns:xlink="http://www.w3.org/1999/xlink" xml:space="preserve" onload="init(evt)">

<style type="text/css"><![CDATA[
.node, .edge {opacity: 0.7;}
.node.selected, .edge.selected {opacity: 1;}
.edge:hover path { stroke: red; }
.edge:hover polygon { stroke: red; fill: red; }
]]></style>

<defs>
  <circle id="rim" cx="0" cy="0" r="7"/>
  <circle id="rim2" cx="0" cy="0" r="3.5"/>
  <g id="zoomPlus">
    <use xlink:href="#rim" fill="#404040"><set attributeName="fill" to="#808080" begin="zoomplus.mouseover" end="zoomplus.mouseout"/></use>
    <path d="M-4,0h8M0,-4v8" fill="none" stroke="white" stroke-width="1.5" pointer-events="none"/>
  </g>
  <g id="zoomMin">
    <use xlink:href="#rim" fill="#404040"><set attributeName="fill" to="#808080" begin="zoomminus.mouseover" end="zoomminus.mouseout"/></use>
    <path d="M-4,0h8" fill="none" stroke="white" stroke-width="1.5" pointer-events="none"/>
  </g>
  <g id="arrowUp" transform="translate(30 24)">
    <use xlink:href="#rim"/>
    <path pointer-events="none" fill="none" stroke="white" stroke-width="1.5" d="M0,-3.0v7 M-2.5,-0.5L0,-3.0L2.5,-0.5"/>
  </g>
  <g id="arrowRight" transform="rotate(90) translate(36 -43)">
    <use xlink:href="#rim"/>
    <path pointer-events="none" fill="none" stroke="white" stroke-width="1.5" d="M0,-3.0v7 M-2.5,-0.5L0,-3.0L2.5,-0.5"/>
  </g>
  <g id="arrowDown" transform="rotate(180) translate(-30 -48)">
    <use xlink:href="#rim"/>
    <path pointer-events="none" fill="none" stroke="white" stroke-width="1.5" d="M0,-3.0v7 M-2.5,-0.5L0,-3.0L2.5,-0.5"/>
  </g>
  <g id="arrowLeft" transform="rotate(270) translate(-36 17)">
    <use xlink:href="#rim"/>
    <path pointer-events="none" fill="none" stroke="white" stroke-width="1.5" d="M0,-3.0v7 M-2.5,-0.5L0,-3.0L2.5,-0.5"/>
  </g>
  <g id="resetDef">
    <use xlink:href="#rim2" fill="#404040"><set attributeName="fill" to="#808080" begin="reset.mouseover" end="reset.mouseout"/></use>
  </g>
</defs>
<script type="application/ecmascript">
var viewWidth = 1113;
var viewHeight = 200;
var sectionId = 'dynsection-4';
</script>
<script type="application/ecmascript" xlink:href="svg.min.js"/>
<svg id="graph" class="graph">
<g id="viewport">
<title>pfd::internal::executor::ready</title>
<!-- Node1 -->
<g id="Node000001" class="node">
<title>Node1</title>
<g id="a_Node000001"><a xlink:title=" ">
<polygon fill="#999999" stroke="#666666" points="1105,-102 981,-102 981,-72 1105,-72 1105,-102"/>
<text text-anchor="start" x="989" y="-90" font-family="Helvetica,sans-Serif" font-size="10.00">pfd::internal::executor</text>
<text text-anchor="middle" x="1043" y="-79" font-family="Helvetica,sans-Serif" font-size="10.00">::ready</text>
</a>
</g>
</g>
<!-- Node2 -->
<g id="Node000002" class="node">
<title>Node2</title>
<g id="a_Node000002"><a xlink:href="classpfd_1_1internal_1_1executor.html#a2e65a18556b3de93dafd6fabe3786277" target="_top" xlink:title=" ">
<polygon fill="white" stroke="#666666" points="945,-102 821,-102 821,-72 945,-72 945,-102"/>
<text text-anchor="start" x="829" y="-90" font-family="Helvetica,sans-Serif" font-size="10.00">pfd::internal::executor</text>
<text text-anchor="middle" x="883" y="-79" font-family="Helvetica,sans-Serif" font-size="10.00">::stop</text>
</a>
</g>
</g>
<!-- Node1&#45;&gt;Node2 -->
<g id="edge1_Node000001_Node000002" class="edge">
<title>Node1&#45;&gt;Node2</title>
<g id="a_edge1_Node000001_Node000002"><a xlink:title=" ">
<path fill="none" stroke="#63b8ff" d="M970.63,-87C962.14,-87 953.52,-87 945.18,-87"/>
<polygon fill="#63b8ff" stroke="#63b8ff" points="970.91,-90.5 980.91,-87 970.91,-83.5 970.91,-90.5"/>
</a>
</g>
</g>
<!-- Node3 -->
<g id="Node000003" class="node">
<title>Node3</title>
<g id="a_Node000003"><a xlink:href="classpfd_1_1internal_1_1executor.html#ab7766273bae572779a404c5543268406" target="_top" xlink:title=" ">
<polygon fill="white" stroke="#666666" points="785,-174 661,-174 661,-144 785,-144 785,-174"/>
<text text-anchor="start" x="669" y="-162" font-family="Helvetica,sans-Serif" font-size="10.00">pfd::internal::executor</text>
<text text-anchor="middle" x="723" y="-151" font-family="Helvetica,sans-Serif" font-size="10.00">::kill</text>
</a>
</g>
</g>
<!-- Node2&#45;&gt;Node3 -->
<g id="edge2_Node000002_Node000003" class="edge">
<title>Node2&#45;&gt;Node3</title>
<g id="a_edge2_Node000002_Node000003"><a xlink:title=" ">
<path fill="none" stroke="#63b8ff" d="M844.1,-106.69C826.32,-115.68 804.75,-126.25 785,-135 778.13,-138.04 770.75,-141.11 763.58,-143.99"/>
<polygon fill="#63b8ff" stroke="#63b8ff" points="845.69,-109.8 853.02,-102.14 842.52,-103.56 845.69,-109.8"/>
</a>
</g>
</g>
<!-- Node4 -->
<g id="Node000004" class="node">
<title>Node4</title>
<g id="a_Node000004"><a xlink:href="classpfd_1_1internal_1_1executor.html#a07116b98b28332c42946e956f7edd2ae" target="_top" xlink:title=" ">
<polygon fill="white" stroke="#666666" points="785,-126 661,-126 661,-96 785,-96 785,-126"/>
<text text-anchor="start" x="669" y="-114" font-family="Helvetica,sans-Serif" font-size="10.00">pfd::internal::executor</text>
<text text-anchor="middle" x="723" y="-103" font-family="Helvetica,sans-Serif" font-size="10.00">::result</text>
</a>
</g>
</g>
<!-- Node2&#45;&gt;Node4 -->
<g id="edge4_Node000002_Node000004" class="edge">
<title>Node2&#45;&gt;Node4</title>
<g id="a_edge4_Node000002_Node000004"><a xlink:title=" ">
<path fill="none" stroke="#63b8ff" d="M810.91,-97.8C802.33,-99.1 793.61,-100.43 785.18,-101.71"/>
<polygon fill="#63b8ff" stroke="#63b8ff" points="811.55,-101.24 820.91,-96.28 810.5,-94.32 811.55,-101.24"/>
</a>
</g>
</g>
<!-- Node12 -->
<g id="Node000012" class="node">
<title>Node12</title>
<g id="a_Node000012"><a xlink:href="classpfd_1_1internal_1_1executor.html#adcb1fcd88381030ada3d8f6d07dd8d6e" target="_top" xlink:title=" ">
<polygon fill="white" stroke="#666666" points="785,-78 661,-78 661,-48 785,-48 785,-78"/>
<text text-anchor="start" x="669" y="-66" font-family="Helvetica,sans-Serif" font-size="10.00">pfd::internal::executor</text>
<text text-anchor="middle" x="723" y="-55" font-family="Helvetica,sans-Serif" font-size="10.00">::start_process</text>
</a>
</g>
</g>
<!-- Node2&#45;&gt;Node12 -->
<g id="edge12_Node000002_Node000012" class="edge">
<title>Node2&#45;&gt;Node12</title>
<g id="a_edge12_Node000002_Node000012"><a xlink:title=" ">
<path fill="none" stroke="#63b8ff" d="M810.91,-76.2C802.33,-74.9 793.61,-73.57 785.18,-72.29"/>
<polygon fill="#63b8ff" stroke="#63b8ff" points="810.5,-79.68 820.91,-77.72 811.55,-72.76 810.5,-79.68"/>
</a>
</g>
</g>
<!-- Node13 -->
<g id="Node000013" class="node">
<title>Node13</title>
<g id="a_Node000013"><a xlink:href="classpfd_1_1internal_1_1executor.html#a2d46b9964c60985ea8406c4092393be3" target="_top" xlink:title=" ">
<polygon fill="white" stroke="#666666" points="785,-30 661,-30 661,0 785,0 785,-30"/>
<text text-anchor="start" x="669" y="-18" font-family="Helvetica,sans-Serif" font-size="10.00">pfd::internal::executor</text>
<text text-anchor="middle" x="723" y="-7" font-family="Helvetica,sans-Serif" font-size="10.00">::~executor</text>
</a>
</g>
</g>
<!-- Node2&#45;&gt;Node13 -->
<g id="edge14_Node000002_Node000013" class="edge">
<title>Node2&#45;&gt;Node13</title>
<g id="a_edge14_Node000002_Node000013"><a xlink:title=" ">
<path fill="none" stroke="#63b8ff" d="M844.1,-67.31C826.32,-58.32 804.75,-47.75 785,-39 778.13,-35.96 770.75,-32.89 763.58,-30.01"/>
<polygon fill="#63b8ff" stroke="#63b8ff" points="842.52,-70.44 853.02,-71.86 845.69,-64.2 842.52,-70.44"/>
</a>
</g>
</g>
<!-- Node3&#45;&gt;Node3 -->
<g id="edge3_Node000003_Node000003" class="edge">
<title>Node3&#45;&gt;Node3</title>
<g id="a_edge3_Node000003_Node000003"><a xlink:title=" ">
<path fill="none" stroke="#63b8ff" d="M749.96,-184.6C746.27,-188.97 737.29,-192 723,-192 698.94,-192 689.91,-183.41 695.93,-174.28"/>
<polygon fill="#63b8ff" stroke="#63b8ff" points="753.46,-184.31 750.07,-174.28 746.46,-184.24 753.46,-184.31"/>
</a>
</g>
</g>
<!-- Node5 -->
<g id="Node000005" class="node">
<title>Node5</title>
<g id="a_Node000005"><a xlink:href="classpfd_1_1settings.html#af1c2f6e88ffafd59a2f7609631a9eade" target="_top" xlink:title=" ">
<polygon fill="white" stroke="#666666" points="625,-102 513,-102 513,-72 625,-72 625,-102"/>
<text text-anchor="start" x="521" y="-90" font-family="Helvetica,sans-Serif" font-size="10.00">pfd::settings::check</text>
<text text-anchor="middle" x="569" y="-79" font-family="Helvetica,sans-Serif" font-size="10.00">_program</text>
</a>
</g>
</g>
<!-- Node4&#45;&gt;Node5 -->
<g id="edge5_Node000004_Node000005" class="edge">
<title>Node4&#45;&gt;Node5</title>
<g id="a_edge5_Node000004_Node000005"><a xlink:title=" ">
<path fill="none" stroke="#63b8ff" d="M650.65,-99.73C642.12,-98.39 633.5,-97.03 625.24,-95.72"/>
<polygon fill="#63b8ff" stroke="#63b8ff" points="650.19,-103.2 660.61,-101.31 651.28,-96.29 650.19,-103.2"/>
</a>
</g>
</g>
<!-- Node6 -->
<g id="Node000006" class="node">
<title>Node6</title>
<g id="a_Node000006"><a xlink:href="classpfd_1_1settings.html#a7190e52d512b1321acb78731a8cddf42" target="_top" xlink:title=" ">
<polygon fill="white" stroke="#666666" points="477,-96.5 355,-96.5 355,-77.5 477,-77.5 477,-96.5"/>
<text text-anchor="middle" x="416" y="-84.5" font-family="Helvetica,sans-Serif" font-size="10.00">pfd::settings::settings</text>
</a>
</g>
</g>
<!-- Node5&#45;&gt;Node6 -->
<g id="edge6_Node000005_Node000006" class="edge">
<title>Node5&#45;&gt;Node6</title>
<g id="a_edge6_Node000005_Node000006"><a xlink:title=" ">
<path fill="none" stroke="#63b8ff" d="M502.49,-87C494.08,-87 485.51,-87 477.2,-87"/>
<polygon fill="#63b8ff" stroke="#63b8ff" points="502.63,-90.5 512.63,-87 502.63,-83.5 502.63,-90.5"/>
</a>
</g>
</g>
<!-- Node7 -->
<g id="Node000007" class="node">
<title>Node7</title>
<g id="a_Node000007"><a xlink:href="classpfd_1_1settings.html#a54fb5598e7501ac38d17e3629190b2fe" target="_top" xlink:title=" ">
<polygon fill="white" stroke="#666666" points="319,-152.5 191,-152.5 191,-133.5 319,-133.5 319,-152.5"/>
<text text-anchor="middle" x="255" y="-140.5" font-family="Helvetica,sans-Serif" font-size="10.00">pfd::settings::available</text>
</a>
</g>
</g>
<!-- Node6&#45;&gt;Node7 -->
<g id="edge7_Node000006_Node000007" class="edge">
<title>Node6&#45;&gt;Node7</title>
<g id="a_edge7_Node000006_Node000007"><a xlink:title=" ">
<path fill="none" stroke="#63b8ff" d="M382.1,-100.38C363.67,-107.7 340.2,-116.73 319,-124 309.49,-127.26 299.07,-130.53 289.5,-133.41"/>
<polygon fill="#63b8ff" stroke="#63b8ff" points="383.52,-103.58 391.51,-96.62 380.93,-97.08 383.52,-103.58"/>
</a>
</g>
</g>
<!-- Node9 -->
<g id="Node000009" class="node">
<title>Node9</title>
<g id="a_Node000009"><a xlink:href="classpfd_1_1settings.html#a9b611d06856910f0d8c358dd0eadfcee" target="_top" xlink:title=" ">
<polygon fill="white" stroke="#666666" points="308.5,-115.5 201.5,-115.5 201.5,-96.5 308.5,-96.5 308.5,-115.5"/>
<text text-anchor="middle" x="255" y="-103.5" font-family="Helvetica,sans-Serif" font-size="10.00">pfd::settings::flags</text>
</a>
</g>
</g>
<!-- Node6&#45;&gt;Node9 -->
<g id="edge9_Node000006_Node000009" class="edge">
<title>Node6&#45;&gt;Node9</title>
<g id="a_edge9_Node000006_Node000009"><a xlink:title=" ">
<path fill="none" stroke="#63b8ff" d="M344.79,-95.39C332.65,-96.84 320.21,-98.33 308.64,-99.71"/>
<polygon fill="#63b8ff" stroke="#63b8ff" points="345.37,-98.84 354.89,-94.18 344.54,-91.89 345.37,-98.84"/>
</a>
</g>
</g>
<!-- Node10 -->
<g id="Node000010" class="node">
<title>Node10</title>
<g id="a_Node000010"><a xlink:href="classpfd_1_1settings.html#a60023ab0ac98008d2c52a568e9ee540f" target="_top" xlink:title=" ">
<polygon fill="white" stroke="#666666" points="313,-78.5 197,-78.5 197,-59.5 313,-59.5 313,-78.5"/>
<text text-anchor="middle" x="255" y="-66.5" font-family="Helvetica,sans-Serif" font-size="10.00">pfd::settings::rescan</text>
</a>
</g>
</g>
<!-- Node6&#45;&gt;Node10 -->
<g id="edge10_Node000006_Node000010" class="edge">
<title>Node6&#45;&gt;Node10</title>
<g id="a_edge10_Node000006_Node000010"><a xlink:title=" ">
<path fill="none" stroke="#63b8ff" d="M344.8,-79.05C334.18,-77.85 323.34,-76.62 313.04,-75.46"/>
<polygon fill="#63b8ff" stroke="#63b8ff" points="344.56,-82.55 354.89,-80.19 345.35,-75.59 344.56,-82.55"/>
</a>
</g>
</g>
<!-- Node11 -->
<g id="Node000011" class="node">
<title>Node11</title>
<g id="a_Node000011"><a xlink:href="classpfd_1_1settings.html#a0ed32e8ed039106028474eb9f0a0a7bc" target="_top" xlink:title=" ">
<polygon fill="white" stroke="#666666" points="316,-41.5 194,-41.5 194,-22.5 316,-22.5 316,-41.5"/>
<text text-anchor="middle" x="255" y="-29.5" font-family="Helvetica,sans-Serif" font-size="10.00">pfd::settings::verbose</text>
</a>
</g>
</g>
<!-- Node6&#45;&gt;Node11 -->
<g id="edge11_Node000006_Node000011" class="edge">
<title>Node6&#45;&gt;Node11</title>
<g id="a_edge11_Node000006_Node000011"><a xlink:title=" ">
<path fill="none" stroke="#63b8ff" d="M382.52,-73.65C364.04,-66.26 340.39,-57.16 319,-50 310.15,-47.04 300.51,-44.13 291.49,-41.54"/>
<polygon fill="#63b8ff" stroke="#63b8ff" points="381.35,-76.95 391.93,-77.44 383.97,-70.46 381.35,-76.95"/>
</a>
</g>
</g>
<!-- Node8 -->
<g id="Node000008" class="node">
<title>Node8</title>
<g id="a_Node000008"><a xlink:href="classGameExtractor.html#a10cbcd1aac0aa869fdde0d3f1d502b45" target="_top" xlink:title=" ">
<polygon fill="white" stroke="#666666" points="155,-158 0,-158 0,-128 155,-128 155,-158"/>
<text text-anchor="start" x="8" y="-146" font-family="Helvetica,sans-Serif" font-size="10.00">GameExtractor::SelectGame</text>
<text text-anchor="middle" x="77.5" y="-135" font-family="Helvetica,sans-Serif" font-size="10.00">FromUI</text>
</a>
</g>
</g>
<!-- Node7&#45;&gt;Node8 -->
<g id="edge8_Node000007_Node000008" class="edge">
<title>Node7&#45;&gt;Node8</title>
<g id="a_edge8_Node000007_Node000008"><a xlink:title=" ">
<path fill="none" stroke="#63b8ff" d="M180.55,-143C172.18,-143 163.64,-143 155.24,-143"/>
<polygon fill="#63b8ff" stroke="#63b8ff" points="180.64,-146.5 190.64,-143 180.64,-139.5 180.64,-146.5"/>
</a>
</g>
</g>
<!-- Node12&#45;&gt;Node5 -->
<g id="edge13_Node000012_Node000005" class="edge">
<title>Node12&#45;&gt;Node5</title>
<g id="a_edge13_Node000012_Node000005"><a xlink:title=" ">
<path fill="none" stroke="#63b8ff" d="M650.65,-74.27C642.12,-75.61 633.5,-76.97 625.24,-78.28"/>
<polygon fill="#63b8ff" stroke="#63b8ff" points="651.28,-77.71 660.61,-72.69 650.19,-70.8 651.28,-77.71"/>
</a>
</g>
</g>
</g>
</svg>

<g id="navigator" transform="translate(0 0)" fill="#404254">
  <rect fill="#f2f5e9" fill-opacity="0.5" stroke="#606060" stroke-width=".5" x="0" y="0" width="60" height="60"/>
  <use id="zoomplus" xlink:href="#zoomPlus" x="17" y="9" onmousedown="handleZoom(evt,'in')"/>
  <use id="zoomminus" xlink:href="#zoomMin" x="42" y="9" onmousedown="handleZoom(evt,'out')"/>
  <use id="reset" xlink:href="#resetDef" x="30" y="36" onmousedown="handleReset()"/>
   <use id="arrowup" xlink:href="#arrowUp" x="0" y="0" onmousedown="handlePan(0,-1)"/>
  <use id="arrowright" xlink:href="#arrowRight" x="0" y="0" onmousedown="handlePan(1,0)"/>
  <use id="arrowdown" xlink:href="#arrowDown" x="0" y="0" onmousedown="handlePan(0,1)"/>
  <use id="arrowleft" xlink:href="#arrowLeft" x="0" y="0" onmousedown="handlePan(-1,0)"/>
</g>
<svg viewBox="0 0 15 15" width="100%" height="30px" preserveAspectRatio="xMaxYMin meet">
 <g id="arrow_out" transform="scale(0.3 0.3)">
  <a xlink:href="classpfd_1_1internal_1_1executor_a7eb363f3dc9d6dc21f1a8b6ce6a33679_icgraph_org.svg" target="_base">
   <rect id="button" ry="5" rx="5" y="6" x="6" height="38" width="38"
        fill="#f2f5e9" fill-opacity="0.5" stroke="#606060" stroke-width="1.0"/>
   <path id="arrow"
     d="M 11.500037,31.436501 C 11.940474,20.09759 22.043105,11.32322 32.158766,21.979434 L 37.068811,17.246167 C 37.068811,17.246167 37.088388,32 37.088388,32 L 22.160133,31.978069 C 22.160133,31.978069 26.997745,27.140456 26.997745,27.140456 C 18.528582,18.264221 13.291696,25.230495 11.500037,31.436501 z"
     style="fill:#404040;"/>
  </a>
 </g>
</svg>

<style type='text/css'>
<![CDATA[
[data-mouse-over-selected='false'] { opacity: 0.7; }
[data-mouse-over-selected='true']  { opacity: 1.0; }
]]>
</style>
<script type="application/ecmascript"><![CDATA[
document.addEventListener('DOMContentLoaded', (event) => {
  highlightEdges();
  highlightAdjacentNodes();
});
]]></script>
</svg>
