<?xml version="1.0" encoding="UTF-8" standalone="no"?>
<!DOCTYPE svg PUBLIC "-//W3C//DTD SVG 1.1//EN"
 "http://www.w3.org/Graphics/SVG/1.1/DTD/svg11.dtd">
<!-- Generated by graphviz version 2.43.0 (0)
 -->
<!-- Title: TrackEditor::Gizmo::Tick Pages: 1 -->
<svg width="751pt" height="155pt"
 viewBox="0.00 0.00 751.00 155.00" xmlns="http://www.w3.org/2000/svg" xmlns:xlink="http://www.w3.org/1999/xlink">
<g id="graph0" class="graph" transform="scale(1 1) rotate(0) translate(4 151)">
<title>TrackEditor::Gizmo::Tick</title>
<!-- Node1 -->
<g id="Node000001" class="node">
<title>Node1</title>
<g id="a_Node000001"><a xlink:title=" ">
<polygon fill="#999999" stroke="#666666" points="108,-99 0,-99 0,-69 108,-69 108,-99"/>
<text text-anchor="start" x="8" y="-87" font-family="Helvetica,sans-Serif" font-size="10.00">TrackEditor::Gizmo</text>
<text text-anchor="middle" x="54" y="-76" font-family="Helvetica,sans-Serif" font-size="10.00">::Tick</text>
</a>
</g>
</g>
<!-- Node2 -->
<g id="Node000002" class="node">
<title>Node2</title>
<g id="a_Node000002"><a xlink:href="classTrackEditor_1_1Gizmo.html#a9c2808ee61b564f82b619810e33173eb" target="_top" xlink:title=" ">
<polygon fill="white" stroke="#666666" points="252,-147 144,-147 144,-117 252,-117 252,-147"/>
<text text-anchor="start" x="152" y="-135" font-family="Helvetica,sans-Serif" font-size="10.00">TrackEditor::Gizmo</text>
<text text-anchor="middle" x="198" y="-124" font-family="Helvetica,sans-Serif" font-size="10.00">::Rotate</text>
</a>
</g>
</g>
<!-- Node1&#45;&gt;Node2 -->
<g id="edge1_Node000001_Node000002" class="edge">
<title>Node1&#45;&gt;Node2</title>
<g id="a_edge1_Node000001_Node000002"><a xlink:title=" ">
<path fill="none" stroke="#63b8ff" d="M99.54,-99.06C113.29,-103.7 128.58,-108.87 142.89,-113.71"/>
<polygon fill="#63b8ff" stroke="#63b8ff" points="142.02,-117.11 152.62,-117 144.27,-110.48 142.02,-117.11"/>
</a>
</g>
</g>
<!-- Node3 -->
<g id="Node000003" class="node">
<title>Node3</title>
<g id="a_Node000003"><a xlink:href="classTrackEditor_1_1Gizmo.html#a506da1ca723b4a39f702864c71c119c5" target="_top" xlink:title=" ">
<polygon fill="white" stroke="#666666" points="252,-99 144,-99 144,-69 252,-69 252,-99"/>
<text text-anchor="start" x="152" y="-87" font-family="Helvetica,sans-Serif" font-size="10.00">TrackEditor::Gizmo</text>
<text text-anchor="middle" x="198" y="-76" font-family="Helvetica,sans-Serif" font-size="10.00">::Scale</text>
</a>
</g>
</g>
<!-- Node1&#45;&gt;Node3 -->
<g id="edge2_Node000001_Node000003" class="edge">
<title>Node1&#45;&gt;Node3</title>
<g id="a_edge2_Node000001_Node000003"><a xlink:title=" ">
<path fill="none" stroke="#63b8ff" d="M108.28,-84C116.56,-84 125.18,-84 133.66,-84"/>
<polygon fill="#63b8ff" stroke="#63b8ff" points="133.89,-87.5 143.89,-84 133.89,-80.5 133.89,-87.5"/>
</a>
</g>
</g>
<!-- Node4 -->
<g id="Node000004" class="node">
<title>Node4</title>
<g id="a_Node000004"><a xlink:href="classTrackEditor_1_1Gizmo.html#a8bb173794799c401822677df775149eb" target="_top" xlink:title=" ">
<polygon fill="white" stroke="#666666" points="252,-51 144,-51 144,-21 252,-21 252,-51"/>
<text text-anchor="start" x="152" y="-39" font-family="Helvetica,sans-Serif" font-size="10.00">TrackEditor::Gizmo</text>
<text text-anchor="middle" x="198" y="-28" font-family="Helvetica,sans-Serif" font-size="10.00">::Translate</text>
</a>
</g>
</g>
<!-- Node1&#45;&gt;Node4 -->
<g id="edge3_Node000001_Node000004" class="edge">
<title>Node1&#45;&gt;Node4</title>
<g id="a_edge3_Node000001_Node000004"><a xlink:title=" ">
<path fill="none" stroke="#63b8ff" d="M99.54,-68.94C113.29,-64.3 128.58,-59.13 142.89,-54.29"/>
<polygon fill="#63b8ff" stroke="#63b8ff" points="144.27,-57.52 152.62,-51 142.02,-50.89 144.27,-57.52"/>
</a>
</g>
</g>
<!-- Node5 -->
<g id="Node000005" class="node">
<title>Node5</title>
<g id="a_Node000005"><a xlink:href="classTrackEditor_1_1Gizmo.html#a9ff15909d91b306989ebf6506e00ff75" target="_top" xlink:title=" ">
<polygon fill="white" stroke="#666666" points="396,-51 288,-51 288,-21 396,-21 396,-51"/>
<text text-anchor="start" x="296" y="-39" font-family="Helvetica,sans-Serif" font-size="10.00">TrackEditor::Gizmo</text>
<text text-anchor="middle" x="342" y="-28" font-family="Helvetica,sans-Serif" font-size="10.00">::SnapToSurface</text>
</a>
</g>
</g>
<!-- Node4&#45;&gt;Node5 -->
<g id="edge4_Node000004_Node000005" class="edge">
<title>Node4&#45;&gt;Node5</title>
<g id="a_edge4_Node000004_Node000005"><a xlink:title=" ">
<path fill="none" stroke="#63b8ff" d="M252.28,-36C260.56,-36 269.18,-36 277.66,-36"/>
<polygon fill="#63b8ff" stroke="#63b8ff" points="277.89,-39.5 287.89,-36 277.89,-32.5 277.89,-39.5"/>
</a>
</g>
</g>
<!-- Node6 -->
<g id="Node000006" class="node">
<title>Node6</title>
<g id="a_Node000006"><a xlink:href="collision_8c.html#ad95e9ed2051529d5edee26109fa07427" target="_top" xlink:title=" ">
<polygon fill="white" stroke="#666666" points="569,-45.5 432,-45.5 432,-26.5 569,-26.5 569,-45.5"/>
<text text-anchor="middle" x="500.5" y="-33.5" font-family="Helvetica,sans-Serif" font-size="10.00">spawn_actor_on_surface</text>
</a>
</g>
</g>
<!-- Node5&#45;&gt;Node6 -->
<g id="edge5_Node000005_Node000006" class="edge">
<title>Node5&#45;&gt;Node6</title>
<g id="a_edge5_Node000005_Node000006"><a xlink:title=" ">
<path fill="none" stroke="#63b8ff" d="M396.42,-36C404.63,-36 413.25,-36 421.85,-36"/>
<polygon fill="#63b8ff" stroke="#63b8ff" points="421.93,-39.5 431.93,-36 421.93,-32.5 421.93,-39.5"/>
</a>
</g>
</g>
<!-- Node7 -->
<g id="Node000007" class="node">
<title>Node7</title>
<g id="a_Node000007"><a xlink:href="collision_8c.html#a6527a2135a10909cdf9a1fd731be5628" target="_top" xlink:title=" ">
<polygon fill="white" stroke="#666666" points="743,-67.5 605,-67.5 605,-48.5 743,-48.5 743,-67.5"/>
<text text-anchor="middle" x="674" y="-55.5" font-family="Helvetica,sans-Serif" font-size="10.00">calculate_surface_height</text>
</a>
</g>
</g>
<!-- Node6&#45;&gt;Node7 -->
<g id="edge6_Node000006_Node000007" class="edge">
<title>Node6&#45;&gt;Node7</title>
<g id="a_edge6_Node000006_Node000007"><a xlink:title=" ">
<path fill="none" stroke="#63b8ff" d="M569.28,-44.69C577.69,-45.77 586.35,-46.88 594.9,-47.98"/>
<polygon fill="#63b8ff" stroke="#63b8ff" points="594.5,-51.46 604.87,-49.26 595.4,-44.52 594.5,-51.46"/>
</a>
</g>
</g>
<!-- Node8 -->
<g id="Node000008" class="node">
<title>Node8</title>
<g id="a_Node000008"><a xlink:href="collision_8c.html#a0fe340ccfe1d926a592ea9a0c84d7574" target="_top" xlink:title=" ">
<polygon fill="white" stroke="#666666" points="740,-30 608,-30 608,0 740,0 740,-30"/>
<text text-anchor="start" x="616" y="-18" font-family="Helvetica,sans-Serif" font-size="10.00">check_horizontally</text>
<text text-anchor="middle" x="674" y="-7" font-family="Helvetica,sans-Serif" font-size="10.00">_colliding_with_triangle</text>
</a>
</g>
</g>
<!-- Node6&#45;&gt;Node8 -->
<g id="edge7_Node000006_Node000008" class="edge">
<title>Node6&#45;&gt;Node8</title>
<g id="a_edge7_Node000006_Node000008"><a xlink:title=" ">
<path fill="none" stroke="#63b8ff" d="M569.28,-27.7C578.63,-26.56 588.28,-25.37 597.76,-24.21"/>
<polygon fill="#63b8ff" stroke="#63b8ff" points="598.45,-27.65 607.95,-22.97 597.6,-20.71 598.45,-27.65"/>
</a>
</g>
</g>
</g>
</svg>
