<?xml version="1.0" encoding="UTF-8" standalone="no"?>
<!DOCTYPE svg PUBLIC "-//W3C//DTD SVG 1.1//EN"
 "http://www.w3.org/Graphics/SVG/1.1/DTD/svg11.dtd">
<!-- Generated by graphviz version 2.43.0 (0)
 -->
<!-- Title: AStarship::Spawn Pages: 1 -->
<svg width="409pt" height="138pt"
 viewBox="0.00 0.00 409.00 138.00" xmlns="http://www.w3.org/2000/svg" xmlns:xlink="http://www.w3.org/1999/xlink">
<g id="graph0" class="graph" transform="scale(1 1) rotate(0) translate(4 134)">
<title>AStarship::Spawn</title>
<!-- Node1 -->
<g id="Node000001" class="node">
<title>Node1</title>
<g id="a_Node000001"><a xlink:title=" ">
<polygon fill="#999999" stroke="#666666" points="101,-74 0,-74 0,-55 101,-55 101,-74"/>
<text text-anchor="middle" x="50.5" y="-62" font-family="Helvetica,sans-Serif" font-size="10.00">AStarship::Spawn</text>
</a>
</g>
</g>
<!-- Node2 -->
<g id="Node000002" class="node">
<title>Node2</title>
<g id="a_Node000002"><a xlink:href="RegisterContent_8h.html#aa90aab222b9cb6a7a75c2ed09379eb4e" target="_top" xlink:title=" ">
<polygon fill="white" stroke="#666666" points="244.5,-93 145.5,-93 145.5,-74 244.5,-74 244.5,-93"/>
<text text-anchor="middle" x="195" y="-81" font-family="Helvetica,sans-Serif" font-size="10.00">AddActorToWorld</text>
</a>
</g>
</g>
<!-- Node1&#45;&gt;Node2 -->
<g id="edge1_Node000001_Node000002" class="edge">
<title>Node1&#45;&gt;Node2</title>
<g id="a_edge1_Node000001_Node000002"><a xlink:title=" ">
<path fill="none" stroke="#63b8ff" d="M101.34,-71.15C112.28,-72.6 123.96,-74.16 135.21,-75.66"/>
<polygon fill="#63b8ff" stroke="#63b8ff" points="135.01,-79.17 145.39,-77.02 135.94,-72.23 135.01,-79.17"/>
</a>
</g>
</g>
<!-- Node5 -->
<g id="Node000005" class="node">
<title>Node5</title>
<g id="a_Node000005"><a xlink:href="classAStarship.html#a3cfda4a7c78d0fa761a3d011205d229d" target="_top" xlink:title=" ">
<polygon fill="white" stroke="#666666" points="253,-56 137,-56 137,-37 253,-37 253,-56"/>
<text text-anchor="middle" x="195" y="-44" font-family="Helvetica,sans-Serif" font-size="10.00">AStarship::AStarship</text>
</a>
</g>
</g>
<!-- Node1&#45;&gt;Node5 -->
<g id="edge4_Node000001_Node000005" class="edge">
<title>Node1&#45;&gt;Node5</title>
<g id="a_edge4_Node000001_Node000005"><a xlink:title=" ">
<path fill="none" stroke="#63b8ff" d="M101.34,-58.2C109.53,-57.17 118.14,-56.08 126.67,-55"/>
<polygon fill="#63b8ff" stroke="#63b8ff" points="127.14,-58.47 136.62,-53.75 126.26,-51.53 127.14,-58.47"/>
</a>
</g>
</g>
<!-- Node3 -->
<g id="Node000003" class="node">
<title>Node3</title>
<g id="a_Node000003"><a xlink:href="classWorld.html#ad293502729ed5ecaf8aae97e10daf386" target="_top" xlink:title=" ">
<polygon fill="white" stroke="#666666" points="392.5,-130 297.5,-130 297.5,-111 392.5,-111 392.5,-130"/>
<text text-anchor="middle" x="345" y="-118" font-family="Helvetica,sans-Serif" font-size="10.00">World::AddActor</text>
</a>
</g>
</g>
<!-- Node2&#45;&gt;Node3 -->
<g id="edge2_Node000002_Node000003" class="edge">
<title>Node2&#45;&gt;Node3</title>
<g id="a_edge2_Node000002_Node000003"><a xlink:title=" ">
<path fill="none" stroke="#63b8ff" d="M234.11,-93.03C252.94,-97.74 275.86,-103.47 295.89,-108.47"/>
<polygon fill="#63b8ff" stroke="#63b8ff" points="295.21,-111.91 305.76,-110.94 296.91,-105.12 295.21,-111.91"/>
</a>
</g>
</g>
<!-- Node4 -->
<g id="Node000004" class="node">
<title>Node4</title>
<g id="a_Node000004"><a xlink:href="Game_8cpp.html#ae2fa844b3cb1021ecbc357f8ed2ad8cc" target="_top" xlink:title=" ">
<polygon fill="white" stroke="#666666" points="376,-93 314,-93 314,-74 376,-74 376,-93"/>
<text text-anchor="middle" x="345" y="-81" font-family="Helvetica,sans-Serif" font-size="10.00">GetWorld</text>
</a>
</g>
</g>
<!-- Node2&#45;&gt;Node4 -->
<g id="edge3_Node000002_Node000004" class="edge">
<title>Node2&#45;&gt;Node4</title>
<g id="a_edge3_Node000002_Node000004"><a xlink:title=" ">
<path fill="none" stroke="#63b8ff" d="M244.87,-83.5C263.87,-83.5 285.39,-83.5 303.5,-83.5"/>
<polygon fill="#63b8ff" stroke="#63b8ff" points="303.73,-87 313.73,-83.5 303.73,-80 303.73,-87"/>
</a>
</g>
</g>
<!-- Node6 -->
<g id="Node000006" class="node">
<title>Node6</title>
<g id="a_Node000006"><a xlink:href="classAActor.html#a679c43bacf3600fa2d7a6ab30e34a8a6" target="_top" xlink:title=" ">
<polygon fill="white" stroke="#666666" points="388.5,-56 301.5,-56 301.5,-37 388.5,-37 388.5,-56"/>
<text text-anchor="middle" x="345" y="-44" font-family="Helvetica,sans-Serif" font-size="10.00">AActor::AActor</text>
</a>
</g>
</g>
<!-- Node5&#45;&gt;Node6 -->
<g id="edge5_Node000005_Node000006" class="edge">
<title>Node5&#45;&gt;Node6</title>
<g id="a_edge5_Node000005_Node000006"><a xlink:title=" ">
<path fill="none" stroke="#63b8ff" d="M253.22,-46.5C265.68,-46.5 278.8,-46.5 291.08,-46.5"/>
<polygon fill="#63b8ff" stroke="#63b8ff" points="291.16,-50 301.16,-46.5 291.16,-43 291.16,-50"/>
</a>
</g>
</g>
<!-- Node7 -->
<g id="Node000007" class="node">
<title>Node7</title>
<g id="a_Node000007"><a xlink:href="classAActor.html#a2242f7915fdde70c732b6186ccb6ddcf" target="_top" xlink:title=" ">
<polygon fill="white" stroke="#666666" points="401,-19 289,-19 289,0 401,0 401,-19"/>
<text text-anchor="middle" x="345" y="-7" font-family="Helvetica,sans-Serif" font-size="10.00">AActor::SetLocation</text>
</a>
</g>
</g>
<!-- Node5&#45;&gt;Node7 -->
<g id="edge6_Node000005_Node000007" class="edge">
<title>Node5&#45;&gt;Node7</title>
<g id="a_edge6_Node000005_Node000007"><a xlink:title=" ">
<path fill="none" stroke="#63b8ff" d="M234.11,-36.97C252.94,-32.26 275.86,-26.53 295.89,-21.53"/>
<polygon fill="#63b8ff" stroke="#63b8ff" points="296.91,-24.88 305.76,-19.06 295.21,-18.09 296.91,-24.88"/>
</a>
</g>
</g>
</g>
</svg>
