<?xml version="1.0" encoding="UTF-8" standalone="no"?>
<!DOCTYPE svg PUBLIC "-//W3C//DTD SVG 1.1//EN"
 "http://www.w3.org/Graphics/SVG/1.1/DTD/svg11.dtd">
<!-- Generated by graphviz version 2.43.0 (0)
 -->
<!-- Title: TrackEditor::ObjectPicker Pages: 1 -->
<svg width="946pt" height="561pt"
 viewBox="0.00 0.00 946.00 560.67" xmlns="http://www.w3.org/2000/svg" xmlns:xlink="http://www.w3.org/1999/xlink">
<g id="graph0" class="graph" transform="scale(1 1) rotate(0) translate(4 556.67)">
<title>TrackEditor::ObjectPicker</title>
<!-- Node1 -->
<g id="Node000001" class="node">
<title>Node1</title>
<g id="a_Node000001"><a xlink:title=" ">
<polygon fill="#999999" stroke="#666666" points="938,-278 801,-278 801,-259 938,-259 938,-278"/>
<text text-anchor="middle" x="869.5" y="-266" font-family="Helvetica,sans-Serif" font-size="10.00">TrackEditor::ObjectPicker</text>
</a>
</g>
</g>
<!-- Node2 -->
<g id="Node000002" class="node">
<title>Node2</title>
<g id="a_Node000002"><a xlink:href="classTrackEditor_1_1Gizmo.html" target="_top" xlink:title=" ">
<polygon fill="white" stroke="#666666" points="724,-332 616,-332 616,-313 724,-313 724,-332"/>
<text text-anchor="middle" x="670" y="-320" font-family="Helvetica,sans-Serif" font-size="10.00">TrackEditor::Gizmo</text>
</a>
</g>
</g>
<!-- Node2&#45;&gt;Node1 -->
<g id="edge1_Node000001_Node000002" class="edge">
<title>Node2&#45;&gt;Node1</title>
<g id="a_edge1_Node000001_Node000002"><a xlink:title=" ">
<path fill="none" stroke="#9a32cd" stroke-dasharray="5,2" d="M715.55,-310.32C751.29,-300.55 800.77,-287.02 833.66,-278.03"/>
<polygon fill="#9a32cd" stroke="#9a32cd" points="714.58,-306.96 705.85,-312.97 716.42,-313.71 714.58,-306.96"/>
</a>
</g>
<text text-anchor="middle" x="762.5" y="-304.5" font-family="Helvetica,sans-Serif" font-size="10.00" fill="grey"> eGizmo</text>
</g>
<!-- Node3 -->
<g id="Node000003" class="node">
<title>Node3</title>
<g id="a_Node000003"><a xlink:href="structTrackEditor_1_1Gizmo_1_1TrackDimensions.html" target="_top" xlink:title=" ">
<polygon fill="white" stroke="#666666" points="461.5,-410.5 353.5,-410.5 353.5,-380.5 461.5,-380.5 461.5,-410.5"/>
<text text-anchor="start" x="361.5" y="-398.5" font-family="Helvetica,sans-Serif" font-size="10.00">TrackEditor::Gizmo</text>
<text text-anchor="middle" x="407.5" y="-387.5" font-family="Helvetica,sans-Serif" font-size="10.00">::TrackDimensions</text>
</a>
</g>
</g>
<!-- Node3&#45;&gt;Node2 -->
<g id="edge2_Node000002_Node000003" class="edge">
<title>Node3&#45;&gt;Node2</title>
<g id="a_edge2_Node000002_Node000003"><a xlink:title=" ">
<path fill="none" stroke="#9a32cd" stroke-dasharray="5,2" d="M471.79,-385.25C509.05,-378.37 556.8,-368.07 598,-354.5 616.49,-348.41 636.65,-339.04 650.74,-332.02"/>
<polygon fill="#9a32cd" stroke="#9a32cd" points="470.79,-381.88 461.58,-387.1 472.04,-388.77 470.79,-381.88"/>
</a>
</g>
<text text-anchor="middle" x="546" y="-383.5" font-family="Helvetica,sans-Serif" font-size="10.00" fill="grey"> dimensions</text>
</g>
<!-- Node4 -->
<g id="Node000004" class="node">
<title>Node4</title>
<g id="a_Node000004"><a xlink:title=" ">
<polygon fill="white" stroke="#666666" points="191,-405 157,-405 157,-386 191,-386 191,-405"/>
<text text-anchor="middle" x="174" y="-393" font-family="Helvetica,sans-Serif" font-size="10.00">s16</text>
</a>
</g>
</g>
<!-- Node4&#45;&gt;Node3 -->
<g id="edge3_Node000003_Node000004" class="edge">
<title>Node4&#45;&gt;Node3</title>
<g id="a_edge3_Node000003_Node000004"><a xlink:title=" ">
<path fill="none" stroke="#9a32cd" stroke-dasharray="5,2" d="M201.69,-395.5C238.56,-395.5 305.9,-395.5 353.27,-395.5"/>
<polygon fill="#9a32cd" stroke="#9a32cd" points="201.28,-392 191.28,-395.5 201.28,-399 201.28,-392"/>
</a>
</g>
<text text-anchor="middle" x="283.5" y="-453.5" font-family="Helvetica,sans-Serif" font-size="10.00" fill="grey"> MaxX</text>
<text text-anchor="middle" x="283.5" y="-442.5" font-family="Helvetica,sans-Serif" font-size="10.00" fill="grey">MaxY</text>
<text text-anchor="middle" x="283.5" y="-431.5" font-family="Helvetica,sans-Serif" font-size="10.00" fill="grey">MaxZ</text>
<text text-anchor="middle" x="283.5" y="-420.5" font-family="Helvetica,sans-Serif" font-size="10.00" fill="grey">MinX</text>
<text text-anchor="middle" x="283.5" y="-409.5" font-family="Helvetica,sans-Serif" font-size="10.00" fill="grey">MinY</text>
<text text-anchor="middle" x="283.5" y="-398.5" font-family="Helvetica,sans-Serif" font-size="10.00" fill="grey">MinZ</text>
</g>
<!-- Node5 -->
<g id="Node000005" class="node">
<title>Node5</title>
<g id="a_Node000005"><a xlink:title=" ">
<polygon fill="white" stroke="#666666" points="426.5,-538 388.5,-538 388.5,-519 426.5,-519 426.5,-538"/>
<text text-anchor="middle" x="407.5" y="-526" font-family="Helvetica,sans-Serif" font-size="10.00">bool</text>
</a>
</g>
</g>
<!-- Node5&#45;&gt;Node1 -->
<g id="edge21_Node000001_Node000005" class="edge">
<title>Node5&#45;&gt;Node1</title>
<g id="a_edge21_Node000001_Node000005"><a xlink:title=" ">
<path fill="none" stroke="#9a32cd" stroke-dasharray="5,2" d="M436.49,-537.73C474.62,-548.68 544.3,-562.83 598,-540.5 735.13,-483.48 838.61,-319.4 863.01,-278.05"/>
<polygon fill="#9a32cd" stroke="#9a32cd" points="437.19,-534.29 426.61,-534.76 435.18,-540.99 437.19,-534.29"/>
</a>
</g>
<text text-anchor="middle" x="670" y="-544.5" font-family="Helvetica,sans-Serif" font-size="10.00" fill="grey"> Debug</text>
<text text-anchor="middle" x="670" y="-533.5" font-family="Helvetica,sans-Serif" font-size="10.00" fill="grey">_draw</text>
</g>
<!-- Node5&#45;&gt;Node2 -->
<g id="edge4_Node000002_Node000005" class="edge">
<title>Node5&#45;&gt;Node2</title>
<g id="a_edge4_Node000002_Node000005"><a xlink:title=" ">
<path fill="none" stroke="#9a32cd" stroke-dasharray="5,2" d="M436.97,-521.33C453.58,-517.19 474.95,-511.94 494,-507.5 540.1,-496.74 561.42,-514.55 598,-484.5 647.83,-443.57 663.68,-360.78 667.77,-332.35"/>
<polygon fill="#9a32cd" stroke="#9a32cd" points="435.67,-518.05 426.82,-523.87 437.37,-524.84 435.67,-518.05"/>
</a>
</g>
<text text-anchor="middle" x="546" y="-532.5" font-family="Helvetica,sans-Serif" font-size="10.00" fill="grey"> Enabled</text>
<text text-anchor="middle" x="546" y="-521.5" font-family="Helvetica,sans-Serif" font-size="10.00" fill="grey">ManipulationStart</text>
<text text-anchor="middle" x="546" y="-510.5" font-family="Helvetica,sans-Serif" font-size="10.00" fill="grey">_draw</text>
</g>
<!-- Node6 -->
<g id="Node000006" class="node">
<title>Node6</title>
<g id="a_Node000006"><a xlink:href="structFVector.html" target="_top" xlink:title=" ">
<polygon fill="white" stroke="#666666" points="200.5,-204 147.5,-204 147.5,-185 200.5,-185 200.5,-204"/>
<text text-anchor="middle" x="174" y="-192" font-family="Helvetica,sans-Serif" font-size="10.00">FVector</text>
</a>
</g>
</g>
<!-- Node6&#45;&gt;Node2 -->
<g id="edge5_Node000002_Node000006" class="edge">
<title>Node6&#45;&gt;Node2</title>
<g id="a_edge5_Node000002_Node000006"><a xlink:title=" ">
<path fill="none" stroke="#9a32cd" stroke-dasharray="5,2" d="M210.52,-202.04C221.83,-204.29 234.41,-206.65 246,-208.5 347.7,-224.69 375.82,-212.66 476,-236.5 504.04,-243.17 571.93,-268.22 598,-280.5 618.47,-290.14 640.72,-303.88 654.75,-312.99"/>
<polygon fill="#9a32cd" stroke="#9a32cd" points="211.05,-198.57 200.55,-200.01 209.65,-205.43 211.05,-198.57"/>
</a>
</g>
<text text-anchor="middle" x="407.5" y="-272.5" font-family="Helvetica,sans-Serif" font-size="10.00" fill="grey"> InitialScale</text>
<text text-anchor="middle" x="407.5" y="-261.5" font-family="Helvetica,sans-Serif" font-size="10.00" fill="grey">Pos</text>
<text text-anchor="middle" x="407.5" y="-250.5" font-family="Helvetica,sans-Serif" font-size="10.00" fill="grey">_cursorOffset</text>
<text text-anchor="middle" x="407.5" y="-239.5" font-family="Helvetica,sans-Serif" font-size="10.00" fill="grey">_ray</text>
</g>
<!-- Node11 -->
<g id="Node000011" class="node">
<title>Node11</title>
<g id="a_Node000011"><a xlink:href="classTrackEditor_1_1GameObject.html" target="_top" xlink:title=" ">
<polygon fill="white" stroke="#666666" points="476,-92 339,-92 339,-73 476,-73 476,-92"/>
<text text-anchor="middle" x="407.5" y="-80" font-family="Helvetica,sans-Serif" font-size="10.00">TrackEditor::GameObject</text>
</a>
</g>
</g>
<!-- Node6&#45;&gt;Node11 -->
<g id="edge12_Node000011_Node000006" class="edge">
<title>Node6&#45;&gt;Node11</title>
<g id="a_edge12_Node000011_Node000006"><a xlink:title=" ">
<path fill="none" stroke="#9a32cd" stroke-dasharray="5,2" d="M205.65,-180.74C218.06,-175.38 232.6,-169.37 246,-164.5 278.77,-152.59 289.62,-156.69 321,-141.5 349.57,-127.67 379.27,-104.97 395.04,-92.13"/>
<polygon fill="#9a32cd" stroke="#9a32cd" points="203.97,-177.65 196.21,-184.87 206.78,-184.07 203.97,-177.65"/>
</a>
</g>
<text text-anchor="middle" x="283.5" y="-200.5" font-family="Helvetica,sans-Serif" font-size="10.00" fill="grey"> Pos</text>
<text text-anchor="middle" x="283.5" y="-189.5" font-family="Helvetica,sans-Serif" font-size="10.00" fill="grey">Scale</text>
<text text-anchor="middle" x="283.5" y="-178.5" font-family="Helvetica,sans-Serif" font-size="10.00" fill="grey">SpawnPos</text>
<text text-anchor="middle" x="283.5" y="-167.5" font-family="Helvetica,sans-Serif" font-size="10.00" fill="grey">SpawnScale</text>
</g>
<!-- Node7 -->
<g id="Node000007" class="node">
<title>Node7</title>
<g id="a_Node000007"><a xlink:title=" ">
<polygon fill="white" stroke="#666666" points="47,-204 9,-204 9,-185 47,-185 47,-204"/>
<text text-anchor="middle" x="28" y="-192" font-family="Helvetica,sans-Serif" font-size="10.00">float</text>
</a>
</g>
</g>
<!-- Node7&#45;&gt;Node2 -->
<g id="edge18_Node000002_Node000007" class="edge">
<title>Node7&#45;&gt;Node2</title>
<g id="a_edge18_Node000002_Node000007"><a xlink:title=" ">
<path fill="none" stroke="#9a32cd" stroke-dasharray="5,2" d="M44.7,-211.43C52.7,-218.93 63.04,-227.04 74,-231.5 176.05,-273.03 226.62,-195.65 321,-252.5 333.67,-260.13 326.49,-272.6 339,-280.5 383.87,-308.82 534.34,-318.12 615.7,-321.12"/>
<polygon fill="#9a32cd" stroke="#9a32cd" points="47.1,-208.88 37.54,-204.3 42.16,-213.84 47.1,-208.88"/>
</a>
</g>
<text text-anchor="middle" x="283.5" y="-288.5" font-family="Helvetica,sans-Serif" font-size="10.00" fill="grey"> AllAxisRadius</text>
<text text-anchor="middle" x="283.5" y="-277.5" font-family="Helvetica,sans-Serif" font-size="10.00" fill="grey">HandleSize</text>
<text text-anchor="middle" x="283.5" y="-266.5" font-family="Helvetica,sans-Serif" font-size="10.00" fill="grey">PickDistance</text>
<text text-anchor="middle" x="283.5" y="-255.5" font-family="Helvetica,sans-Serif" font-size="10.00" fill="grey">_gizmoOffset</text>
</g>
<!-- Node7&#45;&gt;Node6 -->
<g id="edge6_Node000006_Node000007" class="edge">
<title>Node7&#45;&gt;Node6</title>
<g id="a_edge6_Node000006_Node000007"><a xlink:title=" ">
<path fill="none" stroke="#9a32cd" stroke-dasharray="5,2" d="M57.29,-194.5C83.48,-194.5 122.09,-194.5 147.39,-194.5"/>
<polygon fill="#9a32cd" stroke="#9a32cd" points="57.24,-191 47.24,-194.5 57.24,-198 57.24,-191"/>
</a>
</g>
<text text-anchor="middle" x="88" y="-219.5" font-family="Helvetica,sans-Serif" font-size="10.00" fill="grey"> x</text>
<text text-anchor="middle" x="88" y="-208.5" font-family="Helvetica,sans-Serif" font-size="10.00" fill="grey">y</text>
<text text-anchor="middle" x="88" y="-197.5" font-family="Helvetica,sans-Serif" font-size="10.00" fill="grey">z</text>
</g>
<!-- Node7&#45;&gt;Node11 -->
<g id="edge14_Node000011_Node000007" class="edge">
<title>Node7&#45;&gt;Node11</title>
<g id="a_edge14_Node000011_Node000007"><a xlink:title=" ">
<path fill="none" stroke="#9a32cd" stroke-dasharray="5,2" d="M56.14,-180.19C73.89,-171.36 97.81,-160.43 120,-153.5 206.71,-126.42 233.71,-141.63 321,-116.5 343.72,-109.96 368.75,-99.62 385.82,-92.06"/>
<polygon fill="#9a32cd" stroke="#9a32cd" points="54.3,-177.19 46.97,-184.84 57.47,-183.44 54.3,-177.19"/>
</a>
</g>
<text text-anchor="middle" x="174" y="-167.5" font-family="Helvetica,sans-Serif" font-size="10.00" fill="grey"> BoundingBoxSize</text>
<text text-anchor="middle" x="174" y="-156.5" font-family="Helvetica,sans-Serif" font-size="10.00" fill="grey">Speed</text>
</g>
<!-- Node8 -->
<g id="Node000008" class="node">
<title>Node8</title>
<g id="a_Node000008"><a xlink:href="structIRotator.html" target="_top" xlink:title=" ">
<polygon fill="white" stroke="#666666" points="202,-350 146,-350 146,-331 202,-331 202,-350"/>
<text text-anchor="middle" x="174" y="-338" font-family="Helvetica,sans-Serif" font-size="10.00">IRotator</text>
</a>
</g>
</g>
<!-- Node8&#45;&gt;Node2 -->
<g id="edge7_Node000002_Node000008" class="edge">
<title>Node8&#45;&gt;Node2</title>
<g id="a_edge7_Node000002_Node000008"><a xlink:title=" ">
<path fill="none" stroke="#9a32cd" stroke-dasharray="5,2" d="M212.31,-343.62C223.17,-344.4 235.05,-345.11 246,-345.5 379.22,-350.19 535.84,-336.71 615.94,-328.44"/>
<polygon fill="#9a32cd" stroke="#9a32cd" points="212.52,-340.13 202.29,-342.87 212,-347.11 212.52,-340.13"/>
</a>
</g>
<text text-anchor="middle" x="407.5" y="-359.5" font-family="Helvetica,sans-Serif" font-size="10.00" fill="grey"> InitialRotation</text>
<text text-anchor="middle" x="407.5" y="-348.5" font-family="Helvetica,sans-Serif" font-size="10.00" fill="grey">Rot</text>
</g>
<!-- Node8&#45;&gt;Node11 -->
<g id="edge13_Node000011_Node000008" class="edge">
<title>Node8&#45;&gt;Node11</title>
<g id="a_edge13_Node000011_Node000008"><a xlink:title=" ">
<path fill="none" stroke="#9a32cd" stroke-dasharray="5,2" d="M212.14,-331.43C254.19,-320.99 317.38,-304.75 321,-300.5 344.93,-272.43 321.09,-167.75 339,-135.5 349.92,-115.83 371.44,-100.93 387.26,-92.01"/>
<polygon fill="#9a32cd" stroke="#9a32cd" points="211.09,-328.08 202.22,-333.88 212.77,-334.88 211.09,-328.08"/>
</a>
</g>
<text text-anchor="middle" x="283.5" y="-335.5" font-family="Helvetica,sans-Serif" font-size="10.00" fill="grey"> Rot</text>
<text text-anchor="middle" x="283.5" y="-324.5" font-family="Helvetica,sans-Serif" font-size="10.00" fill="grey">SpawnRot</text>
</g>
<!-- Node9 -->
<g id="Node000009" class="node">
<title>Node9</title>
<g id="a_Node000009"><a xlink:title=" ">
<polygon fill="white" stroke="#666666" points="56,-350 0,-350 0,-331 56,-331 56,-350"/>
<text text-anchor="middle" x="28" y="-338" font-family="Helvetica,sans-Serif" font-size="10.00">uint16_t</text>
</a>
</g>
</g>
<!-- Node9&#45;&gt;Node8 -->
<g id="edge8_Node000008_Node000009" class="edge">
<title>Node9&#45;&gt;Node8</title>
<g id="a_edge8_Node000008_Node000009"><a xlink:title=" ">
<path fill="none" stroke="#9a32cd" stroke-dasharray="5,2" d="M66.22,-340.5C91.02,-340.5 123.06,-340.5 145.55,-340.5"/>
<polygon fill="#9a32cd" stroke="#9a32cd" points="66.09,-337 56.09,-340.5 66.09,-344 66.09,-337"/>
</a>
</g>
<text text-anchor="middle" x="88" y="-365.5" font-family="Helvetica,sans-Serif" font-size="10.00" fill="grey"> pitch</text>
<text text-anchor="middle" x="88" y="-354.5" font-family="Helvetica,sans-Serif" font-size="10.00" fill="grey">roll</text>
<text text-anchor="middle" x="88" y="-343.5" font-family="Helvetica,sans-Serif" font-size="10.00" fill="grey">yaw</text>
</g>
<!-- Node10 -->
<g id="Node000010" class="node">
<title>Node10</title>
<g id="a_Node000010"><a xlink:title=" ">
<polygon fill="white" stroke="#666666" points="449,-485 366,-485 366,-466 449,-466 449,-485"/>
<text text-anchor="middle" x="407.5" y="-473" font-family="Helvetica,sans-Serif" font-size="10.00">GizmoHandle</text>
</a>
</g>
</g>
<!-- Node10&#45;&gt;Node2 -->
<g id="edge9_Node000002_Node000010" class="edge">
<title>Node10&#45;&gt;Node2</title>
<g id="a_edge9_Node000002_Node000010"><a xlink:title=" ">
<path fill="none" stroke="#9a32cd" stroke-dasharray="5,2" d="M459.4,-473.88C507.71,-471.45 576.09,-465.42 598,-450.5 641.06,-421.18 660.69,-356.74 666.8,-332.23"/>
<polygon fill="#9a32cd" stroke="#9a32cd" points="458.95,-470.4 449.12,-474.36 459.27,-477.39 458.95,-470.4"/>
</a>
</g>
<text text-anchor="middle" x="546" y="-474.5" font-family="Helvetica,sans-Serif" font-size="10.00" fill="grey"> SelectedHandle</text>
</g>
<!-- Node11&#45;&gt;Node1 -->
<g id="edge22_Node000001_Node000011" class="edge">
<title>Node11&#45;&gt;Node1</title>
<g id="a_edge22_Node000001_Node000011"><a xlink:title=" ">
<path fill="none" stroke="#9a32cd" stroke-dasharray="5,2" d="M448.62,-70.43C487.74,-60.7 548.42,-51.1 598,-67.5 718.54,-107.38 829.09,-224.07 859.97,-258.7"/>
<polygon fill="#9a32cd" stroke="#9a32cd" points="447.71,-67.05 438.91,-72.96 449.47,-73.82 447.71,-67.05"/>
</a>
</g>
<text text-anchor="middle" x="670" y="-138.5" font-family="Helvetica,sans-Serif" font-size="10.00" fill="grey"> _lastSelected</text>
</g>
<!-- Node11&#45;&gt;Node2 -->
<g id="edge10_Node000002_Node000011" class="edge">
<title>Node11&#45;&gt;Node2</title>
<g id="a_edge10_Node000002_Node000011"><a xlink:title=" ">
<path fill="none" stroke="#9a32cd" stroke-dasharray="5,2" d="M472.04,-72.07C513.22,-69.15 565.13,-73.27 598,-104.5 632.96,-137.72 601.47,-165.52 616,-211.5 628.42,-250.8 652.24,-293.93 663.21,-312.78"/>
<polygon fill="#9a32cd" stroke="#9a32cd" points="471.48,-68.61 461.82,-72.96 472.09,-75.58 471.48,-68.61"/>
</a>
</g>
<text text-anchor="middle" x="546" y="-195.5" font-family="Helvetica,sans-Serif" font-size="10.00" fill="grey"> BlueCollision</text>
<text text-anchor="middle" x="546" y="-184.5" font-family="Helvetica,sans-Serif" font-size="10.00" fill="grey">BlueRotateCollision</text>
<text text-anchor="middle" x="546" y="-173.5" font-family="Helvetica,sans-Serif" font-size="10.00" fill="grey">BlueScaleCollision</text>
<text text-anchor="middle" x="546" y="-162.5" font-family="Helvetica,sans-Serif" font-size="10.00" fill="grey">GreenCollision</text>
<text text-anchor="middle" x="546" y="-151.5" font-family="Helvetica,sans-Serif" font-size="10.00" fill="grey">GreenRotateCollision</text>
<text text-anchor="middle" x="546" y="-140.5" font-family="Helvetica,sans-Serif" font-size="10.00" fill="grey">GreenScaleCollision</text>
<text text-anchor="middle" x="546" y="-129.5" font-family="Helvetica,sans-Serif" font-size="10.00" fill="grey">RedCollision</text>
<text text-anchor="middle" x="546" y="-118.5" font-family="Helvetica,sans-Serif" font-size="10.00" fill="grey">RedRotateCollision</text>
<text text-anchor="middle" x="546" y="-107.5" font-family="Helvetica,sans-Serif" font-size="10.00" fill="grey">RedScaleCollision</text>
</g>
<!-- Node12 -->
<g id="Node000012" class="node">
<title>Node12</title>
<g id="a_Node000012"><a xlink:title=" ">
<polygon fill="white" stroke="#666666" points="193,-93 155,-93 155,-74 193,-74 193,-93"/>
<text text-anchor="middle" x="174" y="-81" font-family="Helvetica,sans-Serif" font-size="10.00">char</text>
</a>
</g>
</g>
<!-- Node12&#45;&gt;Node11 -->
<g id="edge11_Node000011_Node000012" class="edge">
<title>Node12&#45;&gt;Node11</title>
<g id="a_edge11_Node000011_Node000012"><a xlink:title=" ">
<path fill="none" stroke="#9a32cd" stroke-dasharray="5,2" d="M203.17,-83.38C236.68,-83.23 293.74,-82.99 338.91,-82.79"/>
<polygon fill="#9a32cd" stroke="#9a32cd" points="203.15,-79.88 193.17,-83.42 203.18,-86.88 203.15,-79.88"/>
</a>
</g>
<text text-anchor="middle" x="283.5" y="-108.5" font-family="Helvetica,sans-Serif" font-size="10.00" fill="grey"> Model</text>
<text text-anchor="middle" x="283.5" y="-97.5" font-family="Helvetica,sans-Serif" font-size="10.00" fill="grey">Name</text>
<text text-anchor="middle" x="283.5" y="-86.5" font-family="Helvetica,sans-Serif" font-size="10.00" fill="grey">ResourceName</text>
</g>
<!-- Node13 -->
<g id="Node000013" class="node">
<title>Node13</title>
<g id="a_Node000013"><a xlink:title=" ">
<polygon fill="white" stroke="#666666" points="228,-56 120,-56 120,-37 228,-37 228,-56"/>
<text text-anchor="middle" x="174" y="-44" font-family="Helvetica,sans-Serif" font-size="10.00">vector&lt; Triangle &gt;</text>
</a>
</g>
</g>
<!-- Node13&#45;&gt;Node11 -->
<g id="edge15_Node000011_Node000013" class="edge">
<title>Node13&#45;&gt;Node11</title>
<g id="a_edge15_Node000011_Node000013"><a xlink:title=" ">
<path fill="none" stroke="#9a32cd" stroke-dasharray="5,2" d="M238.08,-55.83C263.81,-59.68 293.84,-64.23 321,-68.5 330.06,-69.92 339.66,-71.47 349.03,-72.99"/>
<polygon fill="#9a32cd" stroke="#9a32cd" points="238.49,-52.35 228.08,-54.33 237.45,-59.27 238.49,-52.35"/>
</a>
</g>
<text text-anchor="middle" x="283.5" y="-71.5" font-family="Helvetica,sans-Serif" font-size="10.00" fill="grey"> Triangles</text>
</g>
<!-- Node14 -->
<g id="Node000014" class="node">
<title>Node14</title>
<g id="a_Node000014"><a xlink:title=" ">
<polygon fill="white" stroke="#666666" points="214.5,-19 133.5,-19 133.5,0 214.5,0 214.5,-19"/>
<text text-anchor="middle" x="174" y="-7" font-family="Helvetica,sans-Serif" font-size="10.00">CollisionType</text>
</a>
</g>
</g>
<!-- Node14&#45;&gt;Node11 -->
<g id="edge16_Node000011_Node000014" class="edge">
<title>Node14&#45;&gt;Node11</title>
<g id="a_edge16_Node000011_Node000014"><a xlink:title=" ">
<path fill="none" stroke="#9a32cd" stroke-dasharray="5,2" d="M224.83,-18C253.4,-23.56 289.69,-31.78 321,-42.5 345.34,-50.84 371.98,-63.99 388.95,-72.92"/>
<polygon fill="#9a32cd" stroke="#9a32cd" points="225.15,-14.5 214.68,-16.08 223.85,-21.38 225.15,-14.5"/>
</a>
</g>
<text text-anchor="middle" x="283.5" y="-45.5" font-family="Helvetica,sans-Serif" font-size="10.00" fill="grey"> Collision</text>
</g>
<!-- Node15 -->
<g id="Node000015" class="node">
<title>Node15</title>
<g id="a_Node000015"><a xlink:title=" ">
<polygon fill="white" stroke="#666666" points="428,-448 387,-448 387,-429 428,-429 428,-448"/>
<text text-anchor="middle" x="407.5" y="-436" font-family="Helvetica,sans-Serif" font-size="10.00">MtxF</text>
</a>
</g>
</g>
<!-- Node15&#45;&gt;Node2 -->
<g id="edge17_Node000002_Node000015" class="edge">
<title>Node15&#45;&gt;Node2</title>
<g id="a_edge17_Node000002_Node000015"><a xlink:title=" ">
<path fill="none" stroke="#9a32cd" stroke-dasharray="5,2" d="M438.26,-431.01C454.68,-426.92 475.44,-421.83 494,-417.5 540.1,-406.74 556.57,-417.4 598,-394.5 626.58,-378.7 651.11,-347.85 662.39,-332.16"/>
<polygon fill="#9a32cd" stroke="#9a32cd" points="437.02,-427.71 428.17,-433.53 438.72,-434.5 437.02,-427.71"/>
</a>
</g>
<text text-anchor="middle" x="546" y="-442.5" font-family="Helvetica,sans-Serif" font-size="10.00" fill="grey"> Mtx_BlueZ</text>
<text text-anchor="middle" x="546" y="-431.5" font-family="Helvetica,sans-Serif" font-size="10.00" fill="grey">Mtx_GreenY</text>
<text text-anchor="middle" x="546" y="-420.5" font-family="Helvetica,sans-Serif" font-size="10.00" fill="grey">Mtx_RedX</text>
</g>
<!-- Node16 -->
<g id="Node000016" class="node">
<title>Node16</title>
<g id="a_Node000016"><a xlink:title=" ">
<polygon fill="white" stroke="#666666" points="471,-186 344,-186 344,-145 471,-145 471,-186"/>
<text text-anchor="start" x="352" y="-174" font-family="Helvetica,sans-Serif" font-size="10.00">variant&lt; AActor *,</text>
<text text-anchor="start" x="352" y="-163" font-family="Helvetica,sans-Serif" font-size="10.00"> OObject *, TrackEditor</text>
<text text-anchor="middle" x="407.5" y="-152" font-family="Helvetica,sans-Serif" font-size="10.00">::GameObject * &gt;</text>
</a>
</g>
</g>
<!-- Node16&#45;&gt;Node1 -->
<g id="edge20_Node000001_Node000016" class="edge">
<title>Node16&#45;&gt;Node1</title>
<g id="a_edge20_Node000001_Node000016"><a xlink:title=" ">
<path fill="none" stroke="#9a32cd" stroke-dasharray="5,2" d="M481.05,-181.74C578.17,-203.49 747.31,-241.36 825.99,-258.98"/>
<polygon fill="#9a32cd" stroke="#9a32cd" points="481.54,-178.27 471.02,-179.5 480.01,-185.1 481.54,-178.27"/>
</a>
</g>
<text text-anchor="middle" x="670" y="-238.5" font-family="Helvetica,sans-Serif" font-size="10.00" fill="grey"> _selected</text>
</g>
<!-- Node16&#45;&gt;Node2 -->
<g id="edge19_Node000002_Node000016" class="edge">
<title>Node16&#45;&gt;Node2</title>
<g id="a_edge19_Node000002_Node000016"><a xlink:title=" ">
<path fill="none" stroke="#9a32cd" stroke-dasharray="5,2" d="M454.82,-190.75C467.29,-196.85 480.94,-202.92 494,-207.5 538.67,-223.16 558.03,-205.13 598,-230.5 631.22,-251.58 655.02,-293.93 664.49,-312.91"/>
<polygon fill="#9a32cd" stroke="#9a32cd" points="456.05,-187.45 445.54,-186.1 452.92,-193.71 456.05,-187.45"/>
</a>
</g>
<text text-anchor="middle" x="546" y="-233.5" font-family="Helvetica,sans-Serif" font-size="10.00" fill="grey"> _selected</text>
</g>
</g>
</svg>
