<?xml version="1.0" encoding="UTF-8" standalone="no"?>
<!DOCTYPE svg PUBLIC "-//W3C//DTD SVG 1.1//EN"
 "http://www.w3.org/Graphics/SVG/1.1/DTD/svg11.dtd">
<!-- Generated by graphviz version 2.43.0 (0)
 -->
<!-- Title: OBombKart::SomeRender Pages: 1 -->
<svg width="1169pt" height="252pt"
 viewBox="0.00 0.00 1169.00 252.00" xmlns="http://www.w3.org/2000/svg" xmlns:xlink="http://www.w3.org/1999/xlink">
<g id="graph0" class="graph" transform="scale(1 1) rotate(0) translate(4 248)">
<title>OBombKart::SomeRender</title>
<!-- Node1 -->
<g id="Node000001" class="node">
<title>Node1</title>
<g id="a_Node000001"><a xlink:title=" ">
<polygon fill="#999999" stroke="#666666" points="141,-187 0,-187 0,-168 141,-168 141,-187"/>
<text text-anchor="middle" x="70.5" y="-175" font-family="Helvetica,sans-Serif" font-size="10.00">OBombKart::SomeRender</text>
</a>
</g>
</g>
<!-- Node2 -->
<g id="Node000002" class="node">
<title>Node2</title>
<g id="a_Node000002"><a xlink:href="math__util__2_8c.html#a99d173c040cb4a9d0184df2605d71e32" target="_top" xlink:title=" ">
<polygon fill="white" stroke="#666666" points="278,-244 186,-244 186,-225 278,-225 278,-244"/>
<text text-anchor="middle" x="232" y="-232" font-family="Helvetica,sans-Serif" font-size="10.00">func_800418AC</text>
</a>
</g>
</g>
<!-- Node1&#45;&gt;Node2 -->
<g id="edge1_Node000001_Node000002" class="edge">
<title>Node1&#45;&gt;Node2</title>
<g id="a_edge1_Node000001_Node000002"><a xlink:title=" ">
<path fill="none" stroke="#63b8ff" d="M98.2,-187.04C124.65,-196.49 165.35,-211.04 194.73,-221.54"/>
<polygon fill="#63b8ff" stroke="#63b8ff" points="193.62,-224.86 204.22,-224.93 195.98,-218.27 193.62,-224.86"/>
</a>
</g>
</g>
<!-- Node5 -->
<g id="Node000005" class="node">
<title>Node5</title>
<g id="a_Node000005"><a xlink:href="render__objects_8c.html#abfc36be592b2cbf423febe66fa12ec34" target="_top" xlink:title=" ">
<polygon fill="white" stroke="#666666" points="278,-168 186,-168 186,-149 278,-149 278,-168"/>
<text text-anchor="middle" x="232" y="-156" font-family="Helvetica,sans-Serif" font-size="10.00">func_800431B0</text>
</a>
</g>
</g>
<!-- Node1&#45;&gt;Node5 -->
<g id="edge4_Node000001_Node000005" class="edge">
<title>Node1&#45;&gt;Node5</title>
<g id="a_edge4_Node000001_Node000005"><a xlink:title=" ">
<path fill="none" stroke="#63b8ff" d="M141.46,-169.17C152.99,-167.79 164.81,-166.39 175.91,-165.06"/>
<polygon fill="#63b8ff" stroke="#63b8ff" points="176.37,-168.53 185.88,-163.87 175.54,-161.58 176.37,-168.53"/>
</a>
</g>
</g>
<!-- Node6 -->
<g id="Node000006" class="node">
<title>Node6</title>
<g id="a_Node000006"><a xlink:href="GBIMiddleware_8cpp.html#a4ecc44e3c6f1ca5a6b4a20c41d3bd2d2" target="_top" xlink:title=" ">
<polygon fill="white" stroke="#666666" points="451,-206 362,-206 362,-187 451,-187 451,-206"/>
<text text-anchor="middle" x="406.5" y="-194" font-family="Helvetica,sans-Serif" font-size="10.00">gSPDisplayList</text>
</a>
</g>
</g>
<!-- Node1&#45;&gt;Node6 -->
<g id="edge22_Node000001_Node000006" class="edge">
<title>Node1&#45;&gt;Node6</title>
<g id="a_edge22_Node000001_Node000006"><a xlink:title=" ">
<path fill="none" stroke="#63b8ff" d="M141.11,-181.46C203.74,-185.02 294.47,-190.18 351.7,-193.44"/>
<polygon fill="#63b8ff" stroke="#63b8ff" points="351.79,-196.95 361.98,-194.02 352.19,-189.96 351.79,-196.95"/>
</a>
</g>
</g>
<!-- Node21 -->
<g id="Node000021" class="node">
<title>Node21</title>
<g id="a_Node000021"><a xlink:href="render__objects_8c.html#abb8ae92ab6d9189d5851fdfad2ac7f91" target="_top" xlink:title=" ">
<polygon fill="white" stroke="#666666" points="287,-130.5 177,-130.5 177,-100.5 287,-100.5 287,-130.5"/>
<text text-anchor="start" x="185" y="-118.5" font-family="Helvetica,sans-Serif" font-size="10.00">load_texture_block</text>
<text text-anchor="middle" x="232" y="-107.5" font-family="Helvetica,sans-Serif" font-size="10.00">_rgba16_mirror</text>
</a>
</g>
</g>
<!-- Node1&#45;&gt;Node21 -->
<g id="edge23_Node000001_Node000021" class="edge">
<title>Node1&#45;&gt;Node21</title>
<g id="a_edge23_Node000001_Node000021"><a xlink:title=" ">
<path fill="none" stroke="#63b8ff" d="M96.07,-167.95C119.08,-159.01 154.09,-145.4 182.69,-134.28"/>
<polygon fill="#63b8ff" stroke="#63b8ff" points="184.06,-137.5 192.11,-130.62 181.52,-130.98 184.06,-137.5"/>
</a>
</g>
</g>
<!-- Node3 -->
<g id="Node000003" class="node">
<title>Node3</title>
<g id="a_Node000003"><a xlink:href="math__util_8c.html#aaa39a297477f56051975259f4bddd829" target="_top" xlink:title=" ">
<polygon fill="white" stroke="#666666" points="431.5,-244 381.5,-244 381.5,-225 431.5,-225 431.5,-244"/>
<text text-anchor="middle" x="406.5" y="-232" font-family="Helvetica,sans-Serif" font-size="10.00">atan2s</text>
</a>
</g>
</g>
<!-- Node2&#45;&gt;Node3 -->
<g id="edge2_Node000002_Node000003" class="edge">
<title>Node2&#45;&gt;Node3</title>
<g id="a_edge2_Node000002_Node000003"><a xlink:title=" ">
<path fill="none" stroke="#63b8ff" d="M278.32,-234.5C307.4,-234.5 344.57,-234.5 371.2,-234.5"/>
<polygon fill="#63b8ff" stroke="#63b8ff" points="371.2,-238 381.2,-234.5 371.2,-231 371.2,-238"/>
</a>
</g>
</g>
<!-- Node4 -->
<g id="Node000004" class="node">
<title>Node4</title>
<g id="a_Node000004"><a xlink:href="math__util_8c.html#a0273b0ea0783a06996c28669a7438ed9" target="_top" xlink:title=" ">
<polygon fill="white" stroke="#666666" points="655,-244 573,-244 573,-225 655,-225 655,-244"/>
<text text-anchor="middle" x="614" y="-232" font-family="Helvetica,sans-Serif" font-size="10.00">atan2_lookup</text>
</a>
</g>
</g>
<!-- Node3&#45;&gt;Node4 -->
<g id="edge3_Node000003_Node000004" class="edge">
<title>Node3&#45;&gt;Node4</title>
<g id="a_edge3_Node000003_Node000004"><a xlink:title=" ">
<path fill="none" stroke="#63b8ff" d="M431.88,-234.5C463.93,-234.5 521.03,-234.5 562.56,-234.5"/>
<polygon fill="#63b8ff" stroke="#63b8ff" points="562.77,-238 572.77,-234.5 562.77,-231 562.77,-238"/>
</a>
</g>
</g>
<!-- Node5&#45;&gt;Node6 -->
<g id="edge5_Node000005_Node000006" class="edge">
<title>Node5&#45;&gt;Node6</title>
<g id="a_edge5_Node000005_Node000006"><a xlink:title=" ">
<path fill="none" stroke="#63b8ff" d="M276.02,-168.1C290.9,-171.41 307.68,-175.13 323,-178.5 332.35,-180.56 342.3,-182.74 351.93,-184.84"/>
<polygon fill="#63b8ff" stroke="#63b8ff" points="351.3,-188.29 361.82,-187 352.8,-181.45 351.3,-188.29"/>
</a>
</g>
</g>
<!-- Node9 -->
<g id="Node000009" class="node">
<title>Node9</title>
<g id="a_Node000009"><a xlink:href="GBIMiddleware_8cpp.html#aeef79449a27a710d73576e4a4f7f7f99" target="_top" xlink:title=" ">
<polygon fill="white" stroke="#666666" points="439.5,-169 373.5,-169 373.5,-150 439.5,-150 439.5,-169"/>
<text text-anchor="middle" x="406.5" y="-157" font-family="Helvetica,sans-Serif" font-size="10.00">gSPVertex</text>
</a>
</g>
</g>
<!-- Node5&#45;&gt;Node9 -->
<g id="edge8_Node000005_Node000009" class="edge">
<title>Node5&#45;&gt;Node9</title>
<g id="a_edge8_Node000005_Node000009"><a xlink:title=" ">
<path fill="none" stroke="#63b8ff" d="M278.32,-158.76C304.55,-158.91 337.36,-159.11 363.09,-159.25"/>
<polygon fill="#63b8ff" stroke="#63b8ff" points="363.26,-162.76 373.28,-159.31 363.3,-155.76 363.26,-162.76"/>
</a>
</g>
</g>
<!-- Node10 -->
<g id="Node000010" class="node">
<title>Node10</title>
<g id="a_Node000010"><a xlink:href="math__util__2_8c.html#a2eff0e02deb703653ee3230fbc02eb14" target="_top" xlink:title="set the matrix to a transformation matrix">
<polygon fill="white" stroke="#666666" points="490,-132 323,-132 323,-113 490,-113 490,-132"/>
<text text-anchor="middle" x="406.5" y="-120" font-family="Helvetica,sans-Serif" font-size="10.00">rsp_set_matrix_transformation</text>
</a>
</g>
</g>
<!-- Node5&#45;&gt;Node10 -->
<g id="edge10_Node000005_Node000010" class="edge">
<title>Node5&#45;&gt;Node10</title>
<g id="a_edge10_Node000005_Node000010"><a xlink:title=" ">
<path fill="none" stroke="#63b8ff" d="M278.32,-149.04C300.23,-144.47 326.74,-138.94 349.86,-134.11"/>
<polygon fill="#63b8ff" stroke="#63b8ff" points="350.81,-137.49 359.88,-132.02 349.38,-130.64 350.81,-137.49"/>
</a>
</g>
</g>
<!-- Node7 -->
<g id="Node000007" class="node">
<title>Node7</title>
<g id="a_Node000007"><a xlink:href="Engine_8cpp.html#a223c8bc63f228dc11177515e38eff2db" target="_top" xlink:title=" ">
<polygon fill="white" stroke="#666666" points="688.5,-206 539.5,-206 539.5,-187 688.5,-187 688.5,-206"/>
<text text-anchor="middle" x="614" y="-194" font-family="Helvetica,sans-Serif" font-size="10.00">GameEngine_OTRSigCheck</text>
</a>
</g>
</g>
<!-- Node6&#45;&gt;Node7 -->
<g id="edge6_Node000006_Node000007" class="edge">
<title>Node6&#45;&gt;Node7</title>
<g id="a_edge6_Node000006_Node000007"><a xlink:title=" ">
<path fill="none" stroke="#63b8ff" d="M451.08,-196.5C473.75,-196.5 502.25,-196.5 529,-196.5"/>
<polygon fill="#63b8ff" stroke="#63b8ff" points="529.15,-200 539.15,-196.5 529.15,-193 529.15,-200"/>
</a>
</g>
</g>
<!-- Node8 -->
<g id="Node000008" class="node">
<title>Node8</title>
<g id="a_Node000008"><a xlink:href="string_8c.html#a008e171a518fe0e0352f31b245e03875" target="_top" xlink:title=" ">
<polygon fill="white" stroke="#666666" points="793.5,-206 749.5,-206 749.5,-187 793.5,-187 793.5,-206"/>
<text text-anchor="middle" x="771.5" y="-194" font-family="Helvetica,sans-Serif" font-size="10.00">strlen</text>
</a>
</g>
</g>
<!-- Node7&#45;&gt;Node8 -->
<g id="edge7_Node000007_Node000008" class="edge">
<title>Node7&#45;&gt;Node8</title>
<g id="a_edge7_Node000007_Node000008"><a xlink:title=" ">
<path fill="none" stroke="#63b8ff" d="M688.65,-196.5C706.29,-196.5 724.21,-196.5 738.77,-196.5"/>
<polygon fill="#63b8ff" stroke="#63b8ff" points="739.19,-200 749.19,-196.5 739.19,-193 739.19,-200"/>
</a>
</g>
</g>
<!-- Node9&#45;&gt;Node7 -->
<g id="edge9_Node000009_Node000007" class="edge">
<title>Node9&#45;&gt;Node7</title>
<g id="a_edge9_Node000009_Node000007"><a xlink:title=" ">
<path fill="none" stroke="#63b8ff" d="M439.61,-165.28C469.02,-170.58 513.39,-178.56 549.88,-185.14"/>
<polygon fill="#63b8ff" stroke="#63b8ff" points="549.48,-188.62 559.95,-186.95 550.72,-181.73 549.48,-188.62"/>
</a>
</g>
</g>
<!-- Node11 -->
<g id="Node000011" class="node">
<title>Node11</title>
<g id="a_Node000011"><a xlink:href="Matrix_8cpp.html#a329d78c031733cf22ff7518f5d38fd74" target="_top" xlink:title=" ">
<polygon fill="white" stroke="#666666" points="657,-132 571,-132 571,-113 657,-113 657,-132"/>
<text text-anchor="middle" x="614" y="-120" font-family="Helvetica,sans-Serif" font-size="10.00">AddHudMatrix</text>
</a>
</g>
</g>
<!-- Node10&#45;&gt;Node11 -->
<g id="edge11_Node000010_Node000011" class="edge">
<title>Node10&#45;&gt;Node11</title>
<g id="a_edge11_Node000010_Node000011"><a xlink:title=" ">
<path fill="none" stroke="#63b8ff" d="M490.2,-122.5C513.97,-122.5 539.23,-122.5 560.62,-122.5"/>
<polygon fill="#63b8ff" stroke="#63b8ff" points="560.78,-126 570.78,-122.5 560.78,-119 560.78,-126"/>
</a>
</g>
</g>
<!-- Node17 -->
<g id="Node000017" class="node">
<title>Node17</title>
<g id="a_Node000017"><a xlink:href="math__util__2_8c.html#ae71383a9d7f97bcb240b23f68068ab30" target="_top" xlink:title=" ">
<polygon fill="white" stroke="#666666" points="702,-76 526,-76 526,-57 702,-57 702,-76"/>
<text text-anchor="middle" x="614" y="-64" font-family="Helvetica,sans-Serif" font-size="10.00">mtxf_set_matrix_transformation</text>
</a>
</g>
</g>
<!-- Node10&#45;&gt;Node17 -->
<g id="edge17_Node000010_Node000017" class="edge">
<title>Node10&#45;&gt;Node17</title>
<g id="a_edge17_Node000010_Node000017"><a xlink:title=" ">
<path fill="none" stroke="#63b8ff" d="M442.83,-112.87C477.59,-103.4 530.79,-88.9 568.44,-78.64"/>
<polygon fill="#63b8ff" stroke="#63b8ff" points="569.41,-82.01 578.13,-76 567.57,-75.25 569.41,-82.01"/>
</a>
</g>
</g>
<!-- Node12 -->
<g id="Node000012" class="node">
<title>Node12</title>
<g id="a_Node000012"><a xlink:href="Matrix_8cpp.html#a67401ed1d8de1f4d3a3e5a7b72842b6a" target="_top" xlink:title=" ">
<polygon fill="white" stroke="#666666" points="805,-169 738,-169 738,-150 805,-150 805,-169"/>
<text text-anchor="middle" x="771.5" y="-157" font-family="Helvetica,sans-Serif" font-size="10.00">AddMatrix</text>
</a>
</g>
</g>
<!-- Node11&#45;&gt;Node12 -->
<g id="edge12_Node000011_Node000012" class="edge">
<title>Node11&#45;&gt;Node12</title>
<g id="a_edge12_Node000011_Node000012"><a xlink:title=" ">
<path fill="none" stroke="#63b8ff" d="M655.05,-132.03C677.46,-137.36 705.4,-144.01 728.18,-149.43"/>
<polygon fill="#63b8ff" stroke="#63b8ff" points="727.38,-152.84 737.92,-151.75 729,-146.03 727.38,-152.84"/>
</a>
</g>
</g>
<!-- Node16 -->
<g id="Node000016" class="node">
<title>Node16</title>
<g id="a_Node000016"><a xlink:href="Game_8cpp.html#ae2fa844b3cb1021ecbc357f8ed2ad8cc" target="_top" xlink:title=" ">
<polygon fill="white" stroke="#666666" points="802.5,-132 740.5,-132 740.5,-113 802.5,-113 802.5,-132"/>
<text text-anchor="middle" x="771.5" y="-120" font-family="Helvetica,sans-Serif" font-size="10.00">GetWorld</text>
</a>
</g>
</g>
<!-- Node11&#45;&gt;Node16 -->
<g id="edge16_Node000011_Node000016" class="edge">
<title>Node11&#45;&gt;Node16</title>
<g id="a_edge16_Node000011_Node000016"><a xlink:title=" ">
<path fill="none" stroke="#63b8ff" d="M657.08,-122.5C679.75,-122.5 707.59,-122.5 730.02,-122.5"/>
<polygon fill="#63b8ff" stroke="#63b8ff" points="730.22,-126 740.22,-122.5 730.22,-119 730.22,-126"/>
</a>
</g>
</g>
<!-- Node13 -->
<g id="Node000013" class="node">
<title>Node13</title>
<g id="a_Node000013"><a xlink:href="FrameInterpolation_8cpp.html#a8cf1f2d6fabc6925aa71a9515341b4aa" target="_top" xlink:title=" ">
<polygon fill="white" stroke="#666666" points="999,-174.5 859,-174.5 859,-144.5 999,-144.5 999,-174.5"/>
<text text-anchor="start" x="867" y="-162.5" font-family="Helvetica,sans-Serif" font-size="10.00">FrameInterpolation</text>
<text text-anchor="middle" x="929" y="-151.5" font-family="Helvetica,sans-Serif" font-size="10.00">_RecordMatrixMtxFToMtx</text>
</a>
</g>
</g>
<!-- Node12&#45;&gt;Node13 -->
<g id="edge13_Node000012_Node000013" class="edge">
<title>Node12&#45;&gt;Node13</title>
<g id="a_edge13_Node000012_Node000013"><a xlink:title=" ">
<path fill="none" stroke="#63b8ff" d="M805.1,-159.5C817.96,-159.5 833.33,-159.5 848.79,-159.5"/>
<polygon fill="#63b8ff" stroke="#63b8ff" points="848.93,-163 858.93,-159.5 848.93,-156 848.93,-163"/>
</a>
</g>
</g>
<!-- Node15 -->
<g id="Node000015" class="node">
<title>Node15</title>
<g id="a_Node000015"><a xlink:href="guMtxF2L_8c.html#a40ab2d64c609839ff1e0ef0de2d0dcc4" target="_top" xlink:title=" ">
<polygon fill="white" stroke="#666666" points="961.5,-126 896.5,-126 896.5,-107 961.5,-107 961.5,-126"/>
<text text-anchor="middle" x="929" y="-114" font-family="Helvetica,sans-Serif" font-size="10.00">guMtxF2L</text>
</a>
</g>
</g>
<!-- Node12&#45;&gt;Node15 -->
<g id="edge15_Node000012_Node000015" class="edge">
<title>Node12&#45;&gt;Node15</title>
<g id="a_edge15_Node000012_Node000015"><a xlink:title=" ">
<path fill="none" stroke="#63b8ff" d="M797.32,-149.98C810.22,-145.24 826.33,-139.66 841,-135.5 855.6,-131.36 871.8,-127.61 886.22,-124.54"/>
<polygon fill="#63b8ff" stroke="#63b8ff" points="887.28,-127.9 896.36,-122.44 885.86,-121.05 887.28,-127.9"/>
</a>
</g>
</g>
<!-- Node14 -->
<g id="Node000014" class="node">
<title>Node14</title>
<g id="a_Node000014"><a xlink:href="FrameInterpolation_8cpp.html#a02c7ac5342a4d376edee38f312b480bf" target="_top" xlink:title=" ">
<polygon fill="white" stroke="#666666" points="1161,-113 1053,-113 1053,-94 1161,-94 1161,-113"/>
<text text-anchor="middle" x="1107" y="-101" font-family="Helvetica,sans-Serif" font-size="10.00">check_if_recording</text>
</a>
</g>
</g>
<!-- Node13&#45;&gt;Node14 -->
<g id="edge14_Node000013_Node000014" class="edge">
<title>Node13&#45;&gt;Node14</title>
<g id="a_edge14_Node000013_Node000014"><a xlink:title=" ">
<path fill="none" stroke="#63b8ff" d="M986.81,-144.5C996.91,-141.64 1007.29,-138.58 1017,-135.5 1035.02,-129.79 1054.82,-122.74 1071.17,-116.72"/>
<polygon fill="#63b8ff" stroke="#63b8ff" points="1072.7,-119.88 1080.85,-113.12 1070.26,-113.32 1072.7,-119.88"/>
</a>
</g>
</g>
<!-- Node18 -->
<g id="Node000018" class="node">
<title>Node18</title>
<g id="a_Node000018"><a xlink:href="math__util_8c.html#ae69cbf5c8d4b3b0dba2d7b4d4673689f" target="_top" xlink:title=" ">
<polygon fill="white" stroke="#666666" points="790.5,-95 752.5,-95 752.5,-76 790.5,-76 790.5,-95"/>
<text text-anchor="middle" x="771.5" y="-83" font-family="Helvetica,sans-Serif" font-size="10.00">coss</text>
</a>
</g>
</g>
<!-- Node17&#45;&gt;Node18 -->
<g id="edge18_Node000017_Node000018" class="edge">
<title>Node17&#45;&gt;Node18</title>
<g id="a_edge18_Node000017_Node000018"><a xlink:title=" ">
<path fill="none" stroke="#63b8ff" d="M693.21,-76.06C710.75,-78.2 728.26,-80.34 742.17,-82.04"/>
<polygon fill="#63b8ff" stroke="#63b8ff" points="742.14,-85.56 752.49,-83.3 742.99,-78.61 742.14,-85.56"/>
</a>
</g>
</g>
<!-- Node19 -->
<g id="Node000019" class="node">
<title>Node19</title>
<g id="a_Node000019"><a xlink:href="FrameInterpolation_8cpp.html#af749df1a96bee5c78287b1845455ae2d" target="_top" xlink:title=" ">
<polygon fill="white" stroke="#666666" points="1017,-75.5 841,-75.5 841,-45.5 1017,-45.5 1017,-75.5"/>
<text text-anchor="start" x="849" y="-63.5" font-family="Helvetica,sans-Serif" font-size="10.00">FrameInterpolation</text>
<text text-anchor="middle" x="929" y="-52.5" font-family="Helvetica,sans-Serif" font-size="10.00">_RecordSetMatrixTransformation</text>
</a>
</g>
</g>
<!-- Node17&#45;&gt;Node19 -->
<g id="edge19_Node000017_Node000019" class="edge">
<title>Node17&#45;&gt;Node19</title>
<g id="a_edge19_Node000017_Node000019"><a xlink:title=" ">
<path fill="none" stroke="#63b8ff" d="M702.19,-64.83C742.13,-64.06 789.61,-63.15 830.71,-62.36"/>
<polygon fill="#63b8ff" stroke="#63b8ff" points="830.81,-65.86 840.74,-62.17 830.67,-58.87 830.81,-65.86"/>
</a>
</g>
</g>
<!-- Node20 -->
<g id="Node000020" class="node">
<title>Node20</title>
<g id="a_Node000020"><a xlink:href="math__util_8c.html#a19ed3bd78fd2d3e2bd0a29f6caf48545" target="_top" xlink:title=" ">
<polygon fill="white" stroke="#666666" points="789.5,-19 753.5,-19 753.5,0 789.5,0 789.5,-19"/>
<text text-anchor="middle" x="771.5" y="-7" font-family="Helvetica,sans-Serif" font-size="10.00">sins</text>
</a>
</g>
</g>
<!-- Node17&#45;&gt;Node20 -->
<g id="edge21_Node000017_Node000020" class="edge">
<title>Node17&#45;&gt;Node20</title>
<g id="a_edge21_Node000017_Node000020"><a xlink:title=" ">
<path fill="none" stroke="#63b8ff" d="M641.03,-56.96C669.49,-46.53 714.87,-29.89 743.65,-19.34"/>
<polygon fill="#63b8ff" stroke="#63b8ff" points="744.9,-22.61 753.09,-15.88 742.49,-16.04 744.9,-22.61"/>
</a>
</g>
</g>
<!-- Node19&#45;&gt;Node14 -->
<g id="edge20_Node000019_Node000014" class="edge">
<title>Node19&#45;&gt;Node14</title>
<g id="a_edge20_Node000019_Node000014"><a xlink:title=" ">
<path fill="none" stroke="#63b8ff" d="M991.56,-75.54C1013.01,-80.78 1036.78,-86.59 1057.07,-91.54"/>
<polygon fill="#63b8ff" stroke="#63b8ff" points="1056.48,-95 1067.03,-93.98 1058.14,-88.2 1056.48,-95"/>
</a>
</g>
</g>
</g>
</svg>
