<?xml version="1.0" encoding="UTF-8" standalone="no"?>
<!DOCTYPE svg PUBLIC "-//W3C//DTD SVG 1.1//EN"
 "http://www.w3.org/Graphics/SVG/1.1/DTD/svg11.dtd">
<!-- Generated by graphviz version 2.43.0 (0)
 -->
<!-- Title: World::ActorBeginPlay Pages: 1 -->
<svg width="552pt" height="91pt"
 viewBox="0.00 0.00 552.00 91.00" xmlns="http://www.w3.org/2000/svg" xmlns:xlink="http://www.w3.org/1999/xlink">
<g id="graph0" class="graph" transform="scale(1 1) rotate(0) translate(4 87)">
<title>World::ActorBeginPlay</title>
<!-- Node1 -->
<g id="Node000001" class="node">
<title>Node1</title>
<g id="a_Node000001"><a xlink:title=" ">
<polygon fill="#999999" stroke="#666666" points="125,-37 0,-37 0,-18 125,-18 125,-37"/>
<text text-anchor="middle" x="62.5" y="-25" font-family="Helvetica,sans-Serif" font-size="10.00">World::ActorBeginPlay</text>
</a>
</g>
</g>
<!-- Node2 -->
<g id="Node000002" class="node">
<title>Node2</title>
<g id="a_Node000002"><a xlink:href="classAActor.html#aa18a335c99d43d74ac46328df5c4918b" target="_top" xlink:title=" ">
<polygon fill="white" stroke="#666666" points="291.5,-56 187.5,-56 187.5,-37 291.5,-37 291.5,-56"/>
<text text-anchor="middle" x="239.5" y="-44" font-family="Helvetica,sans-Serif" font-size="10.00">AActor::BeginPlay</text>
</a>
</g>
</g>
<!-- Node1&#45;&gt;Node2 -->
<g id="edge1_Node000001_Node000002" class="edge">
<title>Node1&#45;&gt;Node2</title>
<g id="a_edge1_Node000001_Node000002"><a xlink:title=" ">
<path fill="none" stroke="#63b8ff" d="M125.2,-34.2C142.07,-36.03 160.34,-38.01 177.19,-39.84"/>
<polygon fill="#63b8ff" stroke="#63b8ff" points="177.15,-43.36 187.47,-40.96 177.9,-36.4 177.15,-43.36"/>
</a>
</g>
</g>
<!-- Node5 -->
<g id="Node000005" class="node">
<title>Node5</title>
<g id="a_Node000005"><a xlink:href="classWorld.html#a944244b32a2219826939859c6138f6ab" target="_top" xlink:title=" ">
<polygon fill="white" stroke="#666666" points="318,-19 161,-19 161,0 318,0 318,-19"/>
<text text-anchor="middle" x="239.5" y="-7" font-family="Helvetica,sans-Serif" font-size="10.00">World::ConvertActorToAActor</text>
</a>
</g>
</g>
<!-- Node1&#45;&gt;Node5 -->
<g id="edge5_Node000001_Node000005" class="edge">
<title>Node1&#45;&gt;Node5</title>
<g id="a_edge5_Node000001_Node000005"><a xlink:title=" ">
<path fill="none" stroke="#63b8ff" d="M125.2,-21.15C133.47,-20.3 142.09,-19.42 150.7,-18.53"/>
<polygon fill="#63b8ff" stroke="#63b8ff" points="151.21,-22 160.8,-17.49 150.5,-15.03 151.21,-22"/>
</a>
</g>
</g>
<!-- Node3 -->
<g id="Node000003" class="node">
<title>Node3</title>
<g id="a_Node000003"><a xlink:href="Editor_8cpp.html#ad9cda86dc3eb2b6511a8c9a951945014" target="_top" xlink:title=" ">
<polygon fill="white" stroke="#666666" points="498,-83 400,-83 400,-64 498,-64 498,-83"/>
<text text-anchor="middle" x="449" y="-71" font-family="Helvetica,sans-Serif" font-size="10.00">Editor_IsEnabled</text>
</a>
</g>
</g>
<!-- Node2&#45;&gt;Node3 -->
<g id="edge2_Node000002_Node000003" class="edge">
<title>Node2&#45;&gt;Node3</title>
<g id="a_edge2_Node000002_Node000003"><a xlink:title=" ">
<path fill="none" stroke="#63b8ff" d="M291.53,-53.14C321.17,-57 358.65,-61.87 389.49,-65.89"/>
<polygon fill="#63b8ff" stroke="#63b8ff" points="389.3,-69.39 399.67,-67.21 390.2,-62.45 389.3,-69.39"/>
</a>
</g>
</g>
<!-- Node4 -->
<g id="Node000004" class="node">
<title>Node4</title>
<g id="a_Node000004"><a xlink:href="namespaceTrackEditor.html#a79d25f3b85758b1d930e2eb429655ead" target="_top" xlink:title=" ">
<polygon fill="white" stroke="#666666" points="544,-28 354,-28 354,-9 544,-9 544,-28"/>
<text text-anchor="middle" x="449" y="-16" font-family="Helvetica,sans-Serif" font-size="10.00">TrackEditor::GenerateCollisionMesh</text>
</a>
</g>
</g>
<!-- Node2&#45;&gt;Node4 -->
<g id="edge3_Node000002_Node000004" class="edge">
<title>Node2&#45;&gt;Node4</title>
<g id="a_edge3_Node000002_Node000004"><a xlink:title=" ">
<path fill="none" stroke="#63b8ff" d="M291.53,-39.61C314.41,-36.53 341.95,-32.81 367.51,-29.36"/>
<polygon fill="#63b8ff" stroke="#63b8ff" points="368.12,-32.81 377.56,-28 367.19,-25.87 368.12,-32.81"/>
</a>
</g>
</g>
<!-- Node4&#45;&gt;Node4 -->
<g id="edge4_Node000004_Node000004" class="edge">
<title>Node4&#45;&gt;Node4</title>
<g id="a_edge4_Node000004_Node000004"><a xlink:title=" ">
<path fill="none" stroke="#63b8ff" d="M416.94,-28.08C401.34,-36.73 412.03,-46 449,-46 475.57,-46 488.57,-41.21 487.98,-35.31"/>
<polygon fill="#63b8ff" stroke="#63b8ff" points="490.5,-32.88 481.06,-28.08 485.45,-37.73 490.5,-32.88"/>
</a>
</g>
</g>
</g>
</svg>
