<?xml version="1.0" encoding="UTF-8" standalone="no"?>
<!DOCTYPE svg PUBLIC "-//W3C//DTD SVG 1.1//EN"
 "http://www.w3.org/Graphics/SVG/1.1/DTD/svg11.dtd">
<!-- Generated by graphviz version 2.43.0 (0)
 -->
<!-- Title: OThwomp::func_8007FA08 Pages: 1 -->
<svg width="486pt" height="212pt"
 viewBox="0.00 0.00 486.00 212.00" xmlns="http://www.w3.org/2000/svg" xmlns:xlink="http://www.w3.org/1999/xlink">
<g id="graph0" class="graph" transform="scale(1 1) rotate(0) translate(4 208)">
<title>OThwomp::func_8007FA08</title>
<!-- Node1 -->
<g id="Node000001" class="node">
<title>Node1</title>
<g id="a_Node000001"><a xlink:title=" ">
<polygon fill="#999999" stroke="#666666" points="146,-111 0,-111 0,-92 146,-92 146,-111"/>
<text text-anchor="middle" x="73" y="-99" font-family="Helvetica,sans-Serif" font-size="10.00">OThwomp::func_8007FA08</text>
</a>
</g>
</g>
<!-- Node2 -->
<g id="Node000002" class="node">
<title>Node2</title>
<g id="a_Node000002"><a xlink:href="update__objects_8c.html#add0bf98084e3359319c40487d800d428" target="_top" xlink:title=" ">
<polygon fill="white" stroke="#666666" points="302,-204 194,-204 194,-185 302,-185 302,-204"/>
<text text-anchor="middle" x="248" y="-192" font-family="Helvetica,sans-Serif" font-size="10.00">init_texture_object</text>
</a>
</g>
</g>
<!-- Node1&#45;&gt;Node2 -->
<g id="edge1_Node000001_Node000002" class="edge">
<title>Node1&#45;&gt;Node2</title>
<g id="a_edge1_Node000001_Node000002"><a xlink:title=" ">
<path fill="none" stroke="#63b8ff" d="M85.19,-111.21C103.97,-127.05 143.56,-158.47 182,-176.5 186.05,-178.4 190.33,-180.13 194.69,-181.7"/>
<polygon fill="#63b8ff" stroke="#63b8ff" points="193.7,-185.06 204.3,-184.9 195.91,-178.42 193.7,-185.06"/>
</a>
</g>
</g>
<!-- Node3 -->
<g id="Node000003" class="node">
<title>Node3</title>
<g id="a_Node000003"><a xlink:href="update__objects_8c.html#a8bfc5f5c7034d61b534e14f325b6e399" target="_top" xlink:title=" ">
<polygon fill="white" stroke="#666666" points="300,-167 196,-167 196,-148 300,-148 300,-167"/>
<text text-anchor="middle" x="248" y="-155" font-family="Helvetica,sans-Serif" font-size="10.00">object_next_state</text>
</a>
</g>
</g>
<!-- Node1&#45;&gt;Node3 -->
<g id="edge2_Node000001_Node000003" class="edge">
<title>Node1&#45;&gt;Node3</title>
<g id="a_edge2_Node000001_Node000003"><a xlink:title=" ">
<path fill="none" stroke="#63b8ff" d="M99.58,-111.06C121.36,-119.06 153.55,-130.57 182,-139.5 188.09,-141.41 194.52,-143.32 200.89,-145.15"/>
<polygon fill="#63b8ff" stroke="#63b8ff" points="200.2,-148.59 210.77,-147.94 202.1,-141.85 200.2,-148.59"/>
</a>
</g>
</g>
<!-- Node6 -->
<g id="Node000006" class="node">
<title>Node6</title>
<g id="a_Node000006"><a xlink:href="code__80086E70_8c.html#af0e1570f9594db6104157d24386b80cb" target="_top" xlink:title=" ">
<polygon fill="white" stroke="#666666" points="314,-130 182,-130 182,-111 314,-111 314,-130"/>
<text text-anchor="middle" x="248" y="-118" font-family="Helvetica,sans-Serif" font-size="10.00">set_obj_direction_angle</text>
</a>
</g>
</g>
<!-- Node1&#45;&gt;Node6 -->
<g id="edge5_Node000001_Node000006" class="edge">
<title>Node1&#45;&gt;Node6</title>
<g id="a_edge5_Node000001_Node000006"><a xlink:title=" ">
<path fill="none" stroke="#63b8ff" d="M146.11,-109.42C154.64,-110.36 163.37,-111.31 171.94,-112.26"/>
<polygon fill="#63b8ff" stroke="#63b8ff" points="171.58,-115.74 181.9,-113.35 172.35,-108.78 171.58,-115.74"/>
</a>
</g>
</g>
<!-- Node7 -->
<g id="Node000007" class="node">
<title>Node7</title>
<g id="a_Node000007"><a xlink:href="code__80086E70_8c.html#ad745ffd7b6ecd50c57336a484979b258" target="_top" xlink:title=" ">
<polygon fill="white" stroke="#666666" points="303,-93 193,-93 193,-74 303,-74 303,-93"/>
<text text-anchor="middle" x="248" y="-81" font-family="Helvetica,sans-Serif" font-size="10.00">set_obj_orientation</text>
</a>
</g>
</g>
<!-- Node1&#45;&gt;Node7 -->
<g id="edge6_Node000001_Node000007" class="edge">
<title>Node1&#45;&gt;Node7</title>
<g id="a_edge6_Node000001_Node000007"><a xlink:title=" ">
<path fill="none" stroke="#63b8ff" d="M146.11,-94C158.23,-92.74 170.74,-91.43 182.65,-90.2"/>
<polygon fill="#63b8ff" stroke="#63b8ff" points="183.35,-93.64 192.93,-89.13 182.62,-86.68 183.35,-93.64"/>
</a>
</g>
</g>
<!-- Node8 -->
<g id="Node000008" class="node">
<title>Node8</title>
<g id="a_Node000008"><a xlink:href="code__80086E70_8c.html#ac9171108201f29dda52974a4a5c68a04" target="_top" xlink:title=" ">
<polygon fill="white" stroke="#666666" points="307,-56 189,-56 189,-37 307,-37 307,-56"/>
<text text-anchor="middle" x="248" y="-44" font-family="Helvetica,sans-Serif" font-size="10.00">set_obj_origin_offset</text>
</a>
</g>
</g>
<!-- Node1&#45;&gt;Node8 -->
<g id="edge7_Node000001_Node000008" class="edge">
<title>Node1&#45;&gt;Node8</title>
<g id="a_edge7_Node000001_Node000008"><a xlink:title=" ">
<path fill="none" stroke="#63b8ff" d="M101.88,-91.89C123.63,-84.47 154.65,-74.05 182,-65.5 189.02,-63.3 196.49,-61.05 203.77,-58.89"/>
<polygon fill="#63b8ff" stroke="#63b8ff" points="204.92,-62.2 213.53,-56.03 202.95,-55.49 204.92,-62.2"/>
</a>
</g>
</g>
<!-- Node9 -->
<g id="Node000009" class="node">
<title>Node9</title>
<g id="a_Node000009"><a xlink:href="update__objects_8c.html#afe64f2394ee0deab6370b77609500bda" target="_top" xlink:title=" ">
<polygon fill="white" stroke="#666666" points="293,-19 203,-19 203,0 293,0 293,-19"/>
<text text-anchor="middle" x="248" y="-7" font-family="Helvetica,sans-Serif" font-size="10.00">set_object_flag</text>
</a>
</g>
</g>
<!-- Node1&#45;&gt;Node9 -->
<g id="edge8_Node000001_Node000009" class="edge">
<title>Node1&#45;&gt;Node9</title>
<g id="a_edge8_Node000001_Node000009"><a xlink:title=" ">
<path fill="none" stroke="#63b8ff" d="M85.57,-91.88C104.58,-76.5 144.11,-46.31 182,-28.5 186.92,-26.19 192.19,-24.09 197.51,-22.21"/>
<polygon fill="#63b8ff" stroke="#63b8ff" points="198.69,-25.5 207.09,-19.04 196.5,-18.85 198.69,-25.5"/>
</a>
</g>
</g>
<!-- Node4 -->
<g id="Node000004" class="node">
<title>Node4</title>
<g id="a_Node000004"><a xlink:href="update__objects_8c.html#a3953241e15c6372ac8944ba842148a9a" target="_top" xlink:title=" ">
<polygon fill="white" stroke="#666666" points="463.5,-185 364.5,-185 364.5,-166 463.5,-166 463.5,-185"/>
<text text-anchor="middle" x="414" y="-173" font-family="Helvetica,sans-Serif" font-size="10.00">clear_object_flag</text>
</a>
</g>
</g>
<!-- Node3&#45;&gt;Node4 -->
<g id="edge3_Node000003_Node000004" class="edge">
<title>Node3&#45;&gt;Node4</title>
<g id="a_edge3_Node000003_Node000004"><a xlink:title=" ">
<path fill="none" stroke="#63b8ff" d="M300.44,-163.15C317.48,-165.02 336.58,-167.11 354.13,-169.04"/>
<polygon fill="#63b8ff" stroke="#63b8ff" points="353.94,-172.54 364.26,-170.15 354.7,-165.58 353.94,-172.54"/>
</a>
</g>
</g>
<!-- Node5 -->
<g id="Node000005" class="node">
<title>Node5</title>
<g id="a_Node000005"><a xlink:href="update__objects_8c.html#af20e3f3c403dd4fbea56e358997e515a" target="_top" xlink:title=" ">
<polygon fill="white" stroke="#666666" points="478,-148 350,-148 350,-129 478,-129 478,-148"/>
<text text-anchor="middle" x="414" y="-136" font-family="Helvetica,sans-Serif" font-size="10.00">set_object_timer_state</text>
</a>
</g>
</g>
<!-- Node3&#45;&gt;Node5 -->
<g id="edge4_Node000003_Node000005" class="edge">
<title>Node3&#45;&gt;Node5</title>
<g id="a_edge4_Node000003_Node000005"><a xlink:title=" ">
<path fill="none" stroke="#63b8ff" d="M300.44,-151.54C312.94,-150.09 326.55,-148.52 339.84,-146.98"/>
<polygon fill="#63b8ff" stroke="#63b8ff" points="340.39,-150.44 349.92,-145.81 339.59,-143.48 340.39,-150.44"/>
</a>
</g>
</g>
</g>
</svg>
