<?xml version="1.0" encoding="UTF-8" standalone="no"?>
<!DOCTYPE svg PUBLIC "-//W3C//DTD SVG 1.1//EN"
 "http://www.w3.org/Graphics/SVG/1.1/DTD/svg11.dtd">
<!-- Generated by graphviz version 2.43.0 (0)
 -->
<!-- Title: TrackEditor::ContentBrowserWindow Pages: 1 -->
<svg width="438pt" height="137pt"
 viewBox="0.00 0.00 437.50 137.00" xmlns="http://www.w3.org/2000/svg" xmlns:xlink="http://www.w3.org/1999/xlink">
<g id="graph0" class="graph" transform="scale(1 1) rotate(0) translate(4 133)">
<title>TrackEditor::ContentBrowserWindow</title>
<!-- Node1 -->
<g id="Node000001" class="node">
<title>Node1</title>
<g id="a_Node000001"><a xlink:title=" ">
<polygon fill="#999999" stroke="#666666" points="294,-30 139,-30 139,0 294,0 294,-30"/>
<text text-anchor="start" x="147" y="-18" font-family="Helvetica,sans-Serif" font-size="10.00">TrackEditor::ContentBrowser</text>
<text text-anchor="middle" x="216.5" y="-7" font-family="Helvetica,sans-Serif" font-size="10.00">Window</text>
</a>
</g>
</g>
<!-- Node2 -->
<g id="Node000002" class="node">
<title>Node2</title>
<g id="a_Node000002"><a xlink:title=" ">
<polygon fill="white" stroke="#666666" points="99,-129 0,-129 0,-110 99,-110 99,-129"/>
<text text-anchor="middle" x="49.5" y="-117" font-family="Helvetica,sans-Serif" font-size="10.00">Ship::GuiWindow</text>
</a>
</g>
</g>
<!-- Node2&#45;&gt;Node1 -->
<g id="edge1_Node000001_Node000002" class="edge">
<title>Node2&#45;&gt;Node1</title>
<g id="a_edge1_Node000001_Node000002"><a xlink:title=" ">
<path fill="none" stroke="#63b8ff" d="M72.06,-104.65C103.86,-85.14 161.54,-49.73 193.55,-30.09"/>
<polygon fill="#63b8ff" stroke="#63b8ff" points="70.14,-101.72 63.45,-109.94 73.8,-107.69 70.14,-101.72"/>
</a>
</g>
</g>
<!-- Node3 -->
<g id="Node000003" class="node">
<title>Node3</title>
<g id="a_Node000003"><a xlink:title=" ">
<polygon fill="white" stroke="#666666" points="236,-129 117,-129 117,-110 236,-110 236,-129"/>
<text text-anchor="middle" x="176.5" y="-117" font-family="Helvetica,sans-Serif" font-size="10.00">vector&lt; std::string &gt;</text>
</a>
</g>
</g>
<!-- Node3&#45;&gt;Node1 -->
<g id="edge2_Node000001_Node000003" class="edge">
<title>Node3&#45;&gt;Node1</title>
<g id="a_edge2_Node000001_Node000003"><a xlink:title=" ">
<path fill="none" stroke="#9a32cd" stroke-dasharray="5,2" d="M179.02,-99.65C181.44,-85.06 185.88,-64.62 193.5,-48 196.35,-41.78 200.48,-35.54 204.46,-30.24"/>
<polygon fill="#9a32cd" stroke="#9a32cd" points="175.5,-99.5 177.49,-109.9 182.42,-100.53 175.5,-99.5"/>
</a>
</g>
<text text-anchor="middle" x="214.5" y="-67.5" font-family="Helvetica,sans-Serif" font-size="10.00" fill="grey"> Content</text>
</g>
<!-- Node4 -->
<g id="Node000004" class="node">
<title>Node4</title>
<g id="a_Node000004"><a xlink:title=" ">
<polygon fill="white" stroke="#666666" points="292.5,-129 254.5,-129 254.5,-110 292.5,-110 292.5,-129"/>
<text text-anchor="middle" x="273.5" y="-117" font-family="Helvetica,sans-Serif" font-size="10.00">bool</text>
</a>
</g>
</g>
<!-- Node4&#45;&gt;Node1 -->
<g id="edge3_Node000001_Node000004" class="edge">
<title>Node4&#45;&gt;Node1</title>
<g id="a_edge3_Node000001_Node000004"><a xlink:title=" ">
<path fill="none" stroke="#9a32cd" stroke-dasharray="5,2" d="M263.41,-100.87C261.75,-97.92 260.07,-94.88 258.5,-92 247.95,-72.62 246.25,-67.27 235.5,-48 232.23,-42.13 228.48,-35.75 225.18,-30.24"/>
<polygon fill="#9a32cd" stroke="#9a32cd" points="260.45,-102.74 268.43,-109.71 266.54,-99.28 260.45,-102.74"/>
</a>
</g>
<text text-anchor="middle" x="296.5" y="-84" font-family="Helvetica,sans-Serif" font-size="10.00" fill="grey"> ActorContent</text>
<text text-anchor="middle" x="296.5" y="-73" font-family="Helvetica,sans-Serif" font-size="10.00" fill="grey">CustomContent</text>
<text text-anchor="middle" x="296.5" y="-62" font-family="Helvetica,sans-Serif" font-size="10.00" fill="grey">Refresh</text>
<text text-anchor="middle" x="296.5" y="-51" font-family="Helvetica,sans-Serif" font-size="10.00" fill="grey">TrackContent</text>
</g>
<!-- Node5 -->
<g id="Node000005" class="node">
<title>Node5</title>
<g id="a_Node000005"><a xlink:title=" ">
<polygon fill="white" stroke="#666666" points="375.5,-129 337.5,-129 337.5,-110 375.5,-110 375.5,-129"/>
<text text-anchor="middle" x="356.5" y="-117" font-family="Helvetica,sans-Serif" font-size="10.00">char</text>
</a>
</g>
</g>
<!-- Node5&#45;&gt;Node1 -->
<g id="edge4_Node000001_Node000005" class="edge">
<title>Node5&#45;&gt;Node1</title>
<g id="a_edge4_Node000001_Node000005"><a xlink:title=" ">
<path fill="none" stroke="#9a32cd" stroke-dasharray="5,2" d="M355.48,-99.52C353.61,-83.63 348.47,-61.45 334.5,-48 323.34,-37.25 308.95,-30.03 294.08,-25.2"/>
<polygon fill="#9a32cd" stroke="#9a32cd" points="352.02,-100.09 356.34,-109.76 358.99,-99.5 352.02,-100.09"/>
</a>
</g>
<text text-anchor="middle" x="391.5" y="-67.5" font-family="Helvetica,sans-Serif" font-size="10.00" fill="grey"> mSearchBuffer</text>
</g>
</g>
</svg>
