<?xml version="1.0" encoding="UTF-8" standalone="no"?>
<!DOCTYPE svg PUBLIC "-//W3C//DTD SVG 1.1//EN"
 "http://www.w3.org/Graphics/SVG/1.1/DTD/svg11.dtd">
<!-- Generated by graphviz version 2.43.0 (0)
 -->
<!-- Title: pfd::save_file::save_file Pages: 1 -->
<!--zoomable 348 -->

<svg id="main" version="1.1" xmlns="http://www.w3.org/2000/svg" xmlns:xlink="http://www.w3.org/1999/xlink" xml:space="preserve" onload="init(evt)">

<style type="text/css"><![CDATA[
.node, .edge {opacity: 0.7;}
.node.selected, .edge.selected {opacity: 1;}
.edge:hover path { stroke: red; }
.edge:hover polygon { stroke: red; fill: red; }
]]></style>

<defs>
  <circle id="rim" cx="0" cy="0" r="7"/>
  <circle id="rim2" cx="0" cy="0" r="3.5"/>
  <g id="zoomPlus">
    <use xlink:href="#rim" fill="#404040"><set attributeName="fill" to="#808080" begin="zoomplus.mouseover" end="zoomplus.mouseout"/></use>
    <path d="M-4,0h8M0,-4v8" fill="none" stroke="white" stroke-width="1.5" pointer-events="none"/>
  </g>
  <g id="zoomMin">
    <use xlink:href="#rim" fill="#404040"><set attributeName="fill" to="#808080" begin="zoomminus.mouseover" end="zoomminus.mouseout"/></use>
    <path d="M-4,0h8" fill="none" stroke="white" stroke-width="1.5" pointer-events="none"/>
  </g>
  <g id="arrowUp" transform="translate(30 24)">
    <use xlink:href="#rim"/>
    <path pointer-events="none" fill="none" stroke="white" stroke-width="1.5" d="M0,-3.0v7 M-2.5,-0.5L0,-3.0L2.5,-0.5"/>
  </g>
  <g id="arrowRight" transform="rotate(90) translate(36 -43)">
    <use xlink:href="#rim"/>
    <path pointer-events="none" fill="none" stroke="white" stroke-width="1.5" d="M0,-3.0v7 M-2.5,-0.5L0,-3.0L2.5,-0.5"/>
  </g>
  <g id="arrowDown" transform="rotate(180) translate(-30 -48)">
    <use xlink:href="#rim"/>
    <path pointer-events="none" fill="none" stroke="white" stroke-width="1.5" d="M0,-3.0v7 M-2.5,-0.5L0,-3.0L2.5,-0.5"/>
  </g>
  <g id="arrowLeft" transform="rotate(270) translate(-36 17)">
    <use xlink:href="#rim"/>
    <path pointer-events="none" fill="none" stroke="white" stroke-width="1.5" d="M0,-3.0v7 M-2.5,-0.5L0,-3.0L2.5,-0.5"/>
  </g>
  <g id="resetDef">
    <use xlink:href="#rim2" fill="#404040"><set attributeName="fill" to="#808080" begin="reset.mouseover" end="reset.mouseout"/></use>
  </g>
</defs>
<script type="application/ecmascript">
var viewWidth = 770;
var viewHeight = 348;
var sectionId = 'dynsection-4';
</script>
<script type="application/ecmascript" xlink:href="svg.min.js"/>
<svg id="graph" class="graph">
<g id="viewport">
<title>pfd::save_file::save_file</title>
<!-- Node1 -->
<g id="Node000001" class="node">
<title>Node1</title>
<g id="a_Node000001"><a xlink:title=" ">
<polygon fill="#999999" stroke="#666666" points="131,-179 0,-179 0,-160 131,-160 131,-179"/>
<text text-anchor="middle" x="65.5" y="-167" font-family="Helvetica,sans-Serif" font-size="10.00">pfd::save_file::save_file</text>
</a>
</g>
</g>
<!-- Node2 -->
<g id="Node000002" class="node">
<title>Node2</title>
<g id="a_Node000002"><a xlink:href="classpfd_1_1save__file.html#a5405ec39e88121a9ebeae60ba26b4af1" target="_top" xlink:title=" ">
<polygon fill="white" stroke="#666666" points="298,-179 167,-179 167,-160 298,-160 298,-179"/>
<text text-anchor="middle" x="232.5" y="-167" font-family="Helvetica,sans-Serif" font-size="10.00">pfd::save_file::save_file</text>
</a>
</g>
</g>
<!-- Node1&#45;&gt;Node2 -->
<g id="edge1_Node000001_Node000002" class="edge">
<title>Node1&#45;&gt;Node2</title>
<g id="a_edge1_Node000001_Node000002"><a xlink:title=" ">
<path fill="none" stroke="#63b8ff" d="M131.24,-169.5C139.58,-169.5 148.18,-169.5 156.67,-169.5"/>
<polygon fill="#63b8ff" stroke="#63b8ff" points="156.95,-173 166.95,-169.5 156.95,-166 156.95,-173"/>
</a>
</g>
</g>
<!-- Node3 -->
<g id="Node000003" class="node">
<title>Node3</title>
<g id="a_Node000003"><a xlink:href="classpfd_1_1internal_1_1file__dialog.html#a16f53945e61d23aa9b7fc373701dd13f" target="_top" xlink:title=" ">
<polygon fill="white" stroke="#666666" points="442,-184.5 334,-184.5 334,-154.5 442,-154.5 442,-184.5"/>
<text text-anchor="start" x="342" y="-172.5" font-family="Helvetica,sans-Serif" font-size="10.00">pfd::internal::file</text>
<text text-anchor="middle" x="388" y="-161.5" font-family="Helvetica,sans-Serif" font-size="10.00">_dialog::file_dialog</text>
</a>
</g>
</g>
<!-- Node2&#45;&gt;Node3 -->
<g id="edge2_Node000002_Node000003" class="edge">
<title>Node2&#45;&gt;Node3</title>
<g id="a_edge2_Node000002_Node000003"><a xlink:title=" ">
<path fill="none" stroke="#63b8ff" d="M298.15,-169.5C306.54,-169.5 315.13,-169.5 323.5,-169.5"/>
<polygon fill="#63b8ff" stroke="#63b8ff" points="323.57,-173 333.57,-169.5 323.57,-166 323.57,-173"/>
</a>
</g>
</g>
<!-- Node4 -->
<g id="Node000004" class="node">
<title>Node4</title>
<g id="a_Node000004"><a xlink:href="classpfd_1_1internal_1_1dialog.html#aadaf6cb30620c85f4b97993e3c819188" target="_top" xlink:title=" ">
<polygon fill="white" stroke="#666666" points="604.5,-339.5 492.5,-339.5 492.5,-309.5 604.5,-309.5 604.5,-339.5"/>
<text text-anchor="start" x="500.5" y="-327.5" font-family="Helvetica,sans-Serif" font-size="10.00">pfd::internal::dialog</text>
<text text-anchor="middle" x="548.5" y="-316.5" font-family="Helvetica,sans-Serif" font-size="10.00">::desktop_helper</text>
</a>
</g>
</g>
<!-- Node3&#45;&gt;Node4 -->
<g id="edge3_Node000003_Node000004" class="edge">
<title>Node3&#45;&gt;Node4</title>
<g id="a_edge3_Node000003_Node000004"><a xlink:title=" ">
<path fill="none" stroke="#63b8ff" d="M396.19,-184.78C409.13,-210.82 438.71,-264.01 478,-295.5 482.27,-298.92 487.01,-302 491.94,-304.76"/>
<polygon fill="#63b8ff" stroke="#63b8ff" points="490.47,-307.94 500.97,-309.38 493.66,-301.71 490.47,-307.94"/>
</a>
</g>
</g>
<!-- Node5 -->
<g id="Node000005" class="node">
<title>Node5</title>
<g id="a_Node000005"><a xlink:href="classpfd_1_1settings.html#a1445f3cf0311b15182d401f244b012d8" target="_top" xlink:title=" ">
<polygon fill="white" stroke="#666666" points="762,-235 655,-235 655,-216 762,-216 762,-235"/>
<text text-anchor="middle" x="708.5" y="-223" font-family="Helvetica,sans-Serif" font-size="10.00">pfd::settings::flags</text>
</a>
</g>
</g>
<!-- Node3&#45;&gt;Node5 -->
<g id="edge7_Node000003_Node000005" class="edge">
<title>Node3&#45;&gt;Node5</title>
<g id="a_edge7_Node000003_Node000005"><a xlink:title=" ">
<path fill="none" stroke="#63b8ff" d="M397.86,-184.68C411.71,-206.7 440.8,-246.61 478,-262.5 535.63,-287.12 557.56,-274.83 619,-262.5 640.7,-258.15 663.73,-248.34 680.85,-239.92"/>
<polygon fill="#63b8ff" stroke="#63b8ff" points="682.86,-242.82 690.19,-235.17 679.69,-236.58 682.86,-242.82"/>
</a>
</g>
</g>
<!-- Node6 -->
<g id="Node000006" class="node">
<title>Node6</title>
<g id="a_Node000006"><a xlink:href="namespacepfd_1_1internal.html#aaf263cbe957efd58a37827691b430371" target="_top" xlink:title=" ">
<polygon fill="white" stroke="#666666" points="614,-253 483,-253 483,-234 614,-234 614,-253"/>
<text text-anchor="middle" x="548.5" y="-241" font-family="Helvetica,sans-Serif" font-size="10.00">pfd::internal::ends_with</text>
</a>
</g>
</g>
<!-- Node3&#45;&gt;Node6 -->
<g id="edge6_Node000003_Node000006" class="edge">
<title>Node3&#45;&gt;Node6</title>
<g id="a_edge6_Node000003_Node000006"><a xlink:title=" ">
<path fill="none" stroke="#63b8ff" d="M408.86,-184.52C426.27,-197.05 452.69,-214.57 478,-225.5 482.67,-227.52 487.62,-229.35 492.64,-231"/>
<polygon fill="#63b8ff" stroke="#63b8ff" points="491.74,-234.39 502.33,-233.97 493.79,-227.69 491.74,-234.39"/>
</a>
</g>
</g>
<!-- Node7 -->
<g id="Node000007" class="node">
<title>Node7</title>
<g id="a_Node000007"><a xlink:href="namespacepfd_1_1internal.html#a48cc31ab291a956a29b0a23fb46a7d26" target="_top" xlink:title=" ">
<polygon fill="white" stroke="#666666" points="618,-216 479,-216 479,-197 618,-197 618,-216"/>
<text text-anchor="middle" x="548.5" y="-204" font-family="Helvetica,sans-Serif" font-size="10.00">pfd::internal::is_directory</text>
</a>
</g>
</g>
<!-- Node3&#45;&gt;Node7 -->
<g id="edge8_Node000003_Node000007" class="edge">
<title>Node3&#45;&gt;Node7</title>
<g id="a_edge8_Node000003_Node000007"><a xlink:title=" ">
<path fill="none" stroke="#63b8ff" d="M442.22,-181.92C459.81,-186.03 479.33,-190.59 496.73,-194.65"/>
<polygon fill="#63b8ff" stroke="#63b8ff" points="496.17,-198.11 506.7,-196.98 497.76,-191.29 496.17,-198.11"/>
</a>
</g>
</g>
<!-- Node8 -->
<g id="Node000008" class="node">
<title>Node8</title>
<g id="a_Node000008"><a xlink:href="classpfd_1_1settings.html#aa79fb10eee785f1acd8d1ff34e226c89" target="_top" xlink:title=" ">
<polygon fill="white" stroke="#666666" points="615,-179 482,-179 482,-160 615,-160 615,-179"/>
<text text-anchor="middle" x="548.5" y="-167" font-family="Helvetica,sans-Serif" font-size="10.00">pfd::settings::is_kdialog</text>
</a>
</g>
</g>
<!-- Node3&#45;&gt;Node8 -->
<g id="edge9_Node000003_Node000008" class="edge">
<title>Node3&#45;&gt;Node8</title>
<g id="a_edge9_Node000003_Node000008"><a xlink:title=" ">
<path fill="none" stroke="#63b8ff" d="M442.22,-169.5C451.63,-169.5 461.59,-169.5 471.49,-169.5"/>
<polygon fill="#63b8ff" stroke="#63b8ff" points="471.75,-173 481.75,-169.5 471.75,-166 471.75,-173"/>
</a>
</g>
</g>
<!-- Node9 -->
<g id="Node000009" class="node">
<title>Node9</title>
<g id="a_Node000009"><a xlink:href="classpfd_1_1settings.html#a4e22d6fb43d387ddc980bf6e2a6aad24" target="_top" xlink:title=" ">
<polygon fill="white" stroke="#666666" points="619,-142 478,-142 478,-123 619,-123 619,-142"/>
<text text-anchor="middle" x="548.5" y="-130" font-family="Helvetica,sans-Serif" font-size="10.00">pfd::settings::is_osascript</text>
</a>
</g>
</g>
<!-- Node3&#45;&gt;Node9 -->
<g id="edge11_Node000003_Node000009" class="edge">
<title>Node3&#45;&gt;Node9</title>
<g id="a_edge11_Node000003_Node000009"><a xlink:title=" ">
<path fill="none" stroke="#63b8ff" d="M442.22,-157.08C459.81,-152.97 479.33,-148.41 496.73,-144.35"/>
<polygon fill="#63b8ff" stroke="#63b8ff" points="497.76,-147.71 506.7,-142.02 496.17,-140.89 497.76,-147.71"/>
</a>
</g>
</g>
<!-- Node10 -->
<g id="Node000010" class="node">
<title>Node10</title>
<g id="a_Node000010"><a xlink:href="classpfd_1_1settings.html#a08e4a5b150186d77158a974cc8c2d4a2" target="_top" xlink:title=" ">
<polygon fill="white" stroke="#666666" points="612,-105 485,-105 485,-86 612,-86 612,-105"/>
<text text-anchor="middle" x="548.5" y="-93" font-family="Helvetica,sans-Serif" font-size="10.00">pfd::settings::is_zenity</text>
</a>
</g>
</g>
<!-- Node3&#45;&gt;Node10 -->
<g id="edge12_Node000003_Node000010" class="edge">
<title>Node3&#45;&gt;Node10</title>
<g id="a_edge12_Node000003_Node000010"><a xlink:title=" ">
<path fill="none" stroke="#63b8ff" d="M409.64,-154.36C427.1,-142.15 453.18,-125.29 478,-114.5 483.44,-112.14 489.25,-109.99 495.1,-108.08"/>
<polygon fill="#63b8ff" stroke="#63b8ff" points="496.4,-111.34 504.94,-105.06 494.35,-104.65 496.4,-111.34"/>
</a>
</g>
</g>
<!-- Node11 -->
<g id="Node000011" class="node">
<title>Node11</title>
<g id="a_Node000011"><a xlink:href="classpfd_1_1internal_1_1dialog.html#adc0ec6f5c8137cbdb0ea6669b5263a73" target="_top" xlink:title=" ">
<polygon fill="white" stroke="#666666" points="604.5,-67.5 492.5,-67.5 492.5,-37.5 604.5,-37.5 604.5,-67.5"/>
<text text-anchor="start" x="500.5" y="-55.5" font-family="Helvetica,sans-Serif" font-size="10.00">pfd::internal::dialog</text>
<text text-anchor="middle" x="548.5" y="-44.5" font-family="Helvetica,sans-Serif" font-size="10.00">::osascript_quote</text>
</a>
</g>
</g>
<!-- Node3&#45;&gt;Node11 -->
<g id="edge14_Node000003_Node000011" class="edge">
<title>Node3&#45;&gt;Node11</title>
<g id="a_edge14_Node000003_Node000011"><a xlink:title=" ">
<path fill="none" stroke="#63b8ff" d="M400.02,-154.38C415.4,-134.25 445.15,-98.73 478,-77.5 481.09,-75.5 484.36,-73.64 487.73,-71.91"/>
<polygon fill="#63b8ff" stroke="#63b8ff" points="489.28,-75.04 496.84,-67.61 486.3,-68.71 489.28,-75.04"/>
</a>
</g>
</g>
<!-- Node12 -->
<g id="Node000012" class="node">
<title>Node12</title>
<g id="a_Node000012"><a xlink:href="namespacepfd_1_1internal.html#a405a4127479d770e2b2fd48504c85f42" target="_top" xlink:title=" ">
<polygon fill="white" stroke="#666666" points="616.5,-19 480.5,-19 480.5,0 616.5,0 616.5,-19"/>
<text text-anchor="middle" x="548.5" y="-7" font-family="Helvetica,sans-Serif" font-size="10.00">pfd::internal::starts_with</text>
</a>
</g>
</g>
<!-- Node3&#45;&gt;Node12 -->
<g id="edge15_Node000003_Node000012" class="edge">
<title>Node3&#45;&gt;Node12</title>
<g id="a_edge15_Node000003_Node000012"><a xlink:title=" ">
<path fill="none" stroke="#63b8ff" d="M394.36,-154.13C405.31,-125 433.1,-61.74 478,-28.5 480.53,-26.63 483.24,-24.94 486.06,-23.41"/>
<polygon fill="#63b8ff" stroke="#63b8ff" points="487.79,-26.47 495.4,-19.09 484.85,-20.12 487.79,-26.47"/>
</a>
</g>
</g>
<!-- Node4&#45;&gt;Node5 -->
<g id="edge4_Node000004_Node000005" class="edge">
<title>Node4&#45;&gt;Node5</title>
<g id="a_edge4_Node000004_Node000005"><a xlink:title=" ">
<path fill="none" stroke="#63b8ff" d="M590.83,-309.44C600.33,-305.39 610.21,-300.68 619,-295.5 645.4,-279.95 672.58,-257.27 689.73,-241.98"/>
<polygon fill="#63b8ff" stroke="#63b8ff" points="692.23,-244.44 697.29,-235.13 687.53,-239.25 692.23,-244.44"/>
</a>
</g>
</g>
<!-- Node5&#45;&gt;Node5 -->
<g id="edge5_Node000005_Node000005" class="edge">
<title>Node5&#45;&gt;Node5</title>
<g id="a_edge5_Node000005_Node000005"><a xlink:title=" ">
<path fill="none" stroke="#63b8ff" d="M683.84,-235.08C671.84,-243.73 680.06,-253 708.5,-253 727.16,-253 737.12,-249.01 738.37,-243.82"/>
<polygon fill="#63b8ff" stroke="#63b8ff" points="741.29,-241.88 733.16,-235.08 735.27,-245.47 741.29,-241.88"/>
</a>
</g>
</g>
<!-- Node8&#45;&gt;Node5 -->
<g id="edge10_Node000008_Node000005" class="edge">
<title>Node8&#45;&gt;Node5</title>
<g id="a_edge10_Node000008_Node000005"><a xlink:title=" ">
<path fill="none" stroke="#63b8ff" d="M588.01,-179.08C598.17,-181.86 609.06,-185.08 619,-188.5 638.75,-195.29 660.38,-204.31 677.32,-211.74"/>
<polygon fill="#63b8ff" stroke="#63b8ff" points="676.13,-215.05 686.69,-215.9 678.97,-208.65 676.13,-215.05"/>
</a>
</g>
</g>
<!-- Node10&#45;&gt;Node5 -->
<g id="edge13_Node000010_Node000005" class="edge">
<title>Node10&#45;&gt;Node5</title>
<g id="a_edge13_Node000010_Node000005"><a xlink:title=" ">
<path fill="none" stroke="#63b8ff" d="M599.77,-105.12C606.53,-107.57 613.15,-110.65 619,-114.5 655.34,-138.43 683.65,-182.15 697.72,-206.98"/>
<polygon fill="#63b8ff" stroke="#63b8ff" points="694.67,-208.7 702.56,-215.78 700.81,-205.33 694.67,-208.7"/>
</a>
</g>
</g>
</g>
</svg>

<g id="navigator" transform="translate(0 0)" fill="#404254">
  <rect fill="#f2f5e9" fill-opacity="0.5" stroke="#606060" stroke-width=".5" x="0" y="0" width="60" height="60"/>
  <use id="zoomplus" xlink:href="#zoomPlus" x="17" y="9" onmousedown="handleZoom(evt,'in')"/>
  <use id="zoomminus" xlink:href="#zoomMin" x="42" y="9" onmousedown="handleZoom(evt,'out')"/>
  <use id="reset" xlink:href="#resetDef" x="30" y="36" onmousedown="handleReset()"/>
   <use id="arrowup" xlink:href="#arrowUp" x="0" y="0" onmousedown="handlePan(0,-1)"/>
  <use id="arrowright" xlink:href="#arrowRight" x="0" y="0" onmousedown="handlePan(1,0)"/>
  <use id="arrowdown" xlink:href="#arrowDown" x="0" y="0" onmousedown="handlePan(0,1)"/>
  <use id="arrowleft" xlink:href="#arrowLeft" x="0" y="0" onmousedown="handlePan(-1,0)"/>
</g>
<svg viewBox="0 0 15 15" width="100%" height="30px" preserveAspectRatio="xMaxYMin meet">
 <g id="arrow_out" transform="scale(0.3 0.3)">
  <a xlink:href="classpfd_1_1save__file_a3e75a83822e14ddcf7cd95e397db400f_cgraph_org.svg" target="_base">
   <rect id="button" ry="5" rx="5" y="6" x="6" height="38" width="38"
        fill="#f2f5e9" fill-opacity="0.5" stroke="#606060" stroke-width="1.0"/>
   <path id="arrow"
     d="M 11.500037,31.436501 C 11.940474,20.09759 22.043105,11.32322 32.158766,21.979434 L 37.068811,17.246167 C 37.068811,17.246167 37.088388,32 37.088388,32 L 22.160133,31.978069 C 22.160133,31.978069 26.997745,27.140456 26.997745,27.140456 C 18.528582,18.264221 13.291696,25.230495 11.500037,31.436501 z"
     style="fill:#404040;"/>
  </a>
 </g>
</svg>

<style type='text/css'>
<![CDATA[
[data-mouse-over-selected='false'] { opacity: 0.7; }
[data-mouse-over-selected='true']  { opacity: 1.0; }
]]>
</style>
<script type="application/ecmascript"><![CDATA[
document.addEventListener('DOMContentLoaded', (event) => {
  highlightEdges();
  highlightAdjacentNodes();
});
]]></script>
</svg>
