<?xml version="1.0" encoding="UTF-8" standalone="no"?>
<!DOCTYPE svg PUBLIC "-//W3C//DTD SVG 1.1//EN"
 "http://www.w3.org/Graphics/SVG/1.1/DTD/svg11.dtd">
<!-- Generated by graphviz version 2.43.0 (0)
 -->
<!-- Title: DKJungle::DrawTrackObjects Pages: 1 -->
<svg width="1525pt" height="252pt"
 viewBox="0.00 0.00 1525.00 252.00" xmlns="http://www.w3.org/2000/svg" xmlns:xlink="http://www.w3.org/1999/xlink">
<g id="graph0" class="graph" transform="scale(1 1) rotate(0) translate(4 248)">
<title>DKJungle::DrawTrackObjects</title>
<!-- Node1 -->
<g id="Node000001" class="node">
<title>Node1</title>
<g id="a_Node000001"><a xlink:title=" ">
<polygon fill="#999999" stroke="#666666" points="155,-159 0,-159 0,-140 155,-140 155,-159"/>
<text text-anchor="middle" x="77.5" y="-147" font-family="Helvetica,sans-Serif" font-size="10.00">DKJungle::DrawTrackObjects</text>
</a>
</g>
</g>
<!-- Node2 -->
<g id="Node000002" class="node">
<title>Node2</title>
<g id="a_Node000002"><a xlink:href="render__objects_8c.html#a50e8e7af07b8f51c524740b30edd454b" target="_top" xlink:title=" ">
<polygon fill="white" stroke="#666666" points="319,-164.5 191,-164.5 191,-134.5 319,-134.5 319,-164.5"/>
<text text-anchor="start" x="199" y="-152.5" font-family="Helvetica,sans-Serif" font-size="10.00">render_object_paddle</text>
<text text-anchor="middle" x="255" y="-141.5" font-family="Helvetica,sans-Serif" font-size="10.00">_boat_smoke_particles</text>
</a>
</g>
</g>
<!-- Node1&#45;&gt;Node2 -->
<g id="edge1_Node000001_Node000002" class="edge">
<title>Node1&#45;&gt;Node2</title>
<g id="a_edge1_Node000001_Node000002"><a xlink:title=" ">
<path fill="none" stroke="#63b8ff" d="M155.22,-149.5C163.68,-149.5 172.28,-149.5 180.69,-149.5"/>
<polygon fill="#63b8ff" stroke="#63b8ff" points="180.85,-153 190.85,-149.5 180.85,-146 180.85,-153"/>
</a>
</g>
</g>
<!-- Node3 -->
<g id="Node000003" class="node">
<title>Node3</title>
<g id="a_Node000003"><a xlink:href="render__objects_8c.html#a96e9d0f1c39751cc18e6a5adfbe393bf" target="_top" xlink:title=" ">
<polygon fill="white" stroke="#666666" points="462.5,-244 370.5,-244 370.5,-225 462.5,-225 462.5,-244"/>
<text text-anchor="middle" x="416.5" y="-232" font-family="Helvetica,sans-Serif" font-size="10.00">func_8004B72C</text>
</a>
</g>
</g>
<!-- Node2&#45;&gt;Node3 -->
<g id="edge2_Node000002_Node000003" class="edge">
<title>Node2&#45;&gt;Node3</title>
<g id="a_edge2_Node000002_Node000003"><a xlink:title=" ">
<path fill="none" stroke="#63b8ff" d="M278.16,-164.71C297.81,-177.82 327.57,-196.74 355,-210.5 362.61,-214.32 370.98,-217.97 379.01,-221.22"/>
<polygon fill="#63b8ff" stroke="#63b8ff" points="377.97,-224.57 388.56,-224.97 380.53,-218.05 377.97,-224.57"/>
</a>
</g>
</g>
<!-- Node4 -->
<g id="Node000004" class="node">
<title>Node4</title>
<g id="a_Node000004"><a xlink:href="GBIMiddleware_8cpp.html#a4ecc44e3c6f1ca5a6b4a20c41d3bd2d2" target="_top" xlink:title=" ">
<polygon fill="white" stroke="#666666" points="807,-206 718,-206 718,-187 807,-187 807,-206"/>
<text text-anchor="middle" x="762.5" y="-194" font-family="Helvetica,sans-Serif" font-size="10.00">gSPDisplayList</text>
</a>
</g>
</g>
<!-- Node2&#45;&gt;Node4 -->
<g id="edge3_Node000002_Node000004" class="edge">
<title>Node2&#45;&gt;Node4</title>
<g id="a_edge3_Node000002_Node000004"><a xlink:title=" ">
<path fill="none" stroke="#63b8ff" d="M310.38,-164.56C324.78,-168.03 340.39,-171.33 355,-173.5 480.47,-192.1 629.77,-195.93 707.84,-196.55"/>
<polygon fill="#63b8ff" stroke="#63b8ff" points="707.9,-200.05 717.92,-196.62 707.94,-193.05 707.9,-200.05"/>
</a>
</g>
</g>
<!-- Node7 -->
<g id="Node000007" class="node">
<title>Node7</title>
<g id="a_Node000007"><a xlink:href="math__util__2_8c.html#adce48d8322f3e1f7f481896a320a3365" target="_top" xlink:title=" ">
<polygon fill="white" stroke="#666666" points="477.5,-61 355.5,-61 355.5,-42 477.5,-42 477.5,-61"/>
<text text-anchor="middle" x="416.5" y="-49" font-family="Helvetica,sans-Serif" font-size="10.00">is_particle_on_screen</text>
</a>
</g>
</g>
<!-- Node2&#45;&gt;Node7 -->
<g id="edge6_Node000002_Node000007" class="edge">
<title>Node2&#45;&gt;Node7</title>
<g id="a_edge6_Node000002_Node000007"><a xlink:title=" ">
<path fill="none" stroke="#63b8ff" d="M274.14,-134.39C293.38,-118.84 325.08,-94.53 355,-77.5 363.01,-72.94 371.98,-68.67 380.51,-64.97"/>
<polygon fill="#63b8ff" stroke="#63b8ff" points="382.01,-68.13 389.87,-61.03 379.3,-61.68 382.01,-68.13"/>
</a>
</g>
</g>
<!-- Node11 -->
<g id="Node000011" class="node">
<title>Node11</title>
<g id="a_Node000011"><a xlink:href="render__objects_8c.html#a346a55731e91e8f44ec477268ec8a0f8" target="_top" xlink:title=" ">
<polygon fill="white" stroke="#666666" points="471.5,-116.5 361.5,-116.5 361.5,-86.5 471.5,-86.5 471.5,-116.5"/>
<text text-anchor="start" x="369.5" y="-104.5" font-family="Helvetica,sans-Serif" font-size="10.00">load_texture_block</text>
<text text-anchor="middle" x="416.5" y="-93.5" font-family="Helvetica,sans-Serif" font-size="10.00">_i8_nomirror</text>
</a>
</g>
</g>
<!-- Node2&#45;&gt;Node11 -->
<g id="edge10_Node000002_Node000011" class="edge">
<title>Node2&#45;&gt;Node11</title>
<g id="a_edge10_Node000002_Node000011"><a xlink:title=" ">
<path fill="none" stroke="#63b8ff" d="M306.03,-134.44C321.77,-129.71 339.3,-124.43 355.65,-119.51"/>
<polygon fill="#63b8ff" stroke="#63b8ff" points="357.08,-122.74 365.65,-116.5 355.06,-116.03 357.08,-122.74"/>
</a>
</g>
</g>
<!-- Node12 -->
<g id="Node000012" class="node">
<title>Node12</title>
<g id="a_Node000012"><a xlink:href="render__objects_8c.html#a5e5a2e028879ac856899bbfbb1754b25" target="_top" xlink:title=" ">
<polygon fill="white" stroke="#666666" points="478,-164.5 355,-164.5 355,-134.5 478,-134.5 478,-164.5"/>
<text text-anchor="start" x="363" y="-152.5" font-family="Helvetica,sans-Serif" font-size="10.00">render_object_paddle</text>
<text text-anchor="middle" x="416.5" y="-141.5" font-family="Helvetica,sans-Serif" font-size="10.00">_boat_smoke_particle</text>
</a>
</g>
</g>
<!-- Node2&#45;&gt;Node12 -->
<g id="edge11_Node000002_Node000012" class="edge">
<title>Node2&#45;&gt;Node12</title>
<g id="a_edge11_Node000002_Node000012"><a xlink:title=" ">
<path fill="none" stroke="#63b8ff" d="M319.04,-149.5C327.4,-149.5 336.01,-149.5 344.49,-149.5"/>
<polygon fill="#63b8ff" stroke="#63b8ff" points="344.74,-153 354.74,-149.5 344.74,-146 344.74,-153"/>
</a>
</g>
</g>
<!-- Node5 -->
<g id="Node000005" class="node">
<title>Node5</title>
<g id="a_Node000005"><a xlink:href="Engine_8cpp.html#a223c8bc63f228dc11177515e38eff2db" target="_top" xlink:title=" ">
<polygon fill="white" stroke="#666666" points="1044.5,-206 895.5,-206 895.5,-187 1044.5,-187 1044.5,-206"/>
<text text-anchor="middle" x="970" y="-194" font-family="Helvetica,sans-Serif" font-size="10.00">GameEngine_OTRSigCheck</text>
</a>
</g>
</g>
<!-- Node4&#45;&gt;Node5 -->
<g id="edge4_Node000004_Node000005" class="edge">
<title>Node4&#45;&gt;Node5</title>
<g id="a_edge4_Node000004_Node000005"><a xlink:title=" ">
<path fill="none" stroke="#63b8ff" d="M807.08,-196.5C829.75,-196.5 858.25,-196.5 885,-196.5"/>
<polygon fill="#63b8ff" stroke="#63b8ff" points="885.15,-200 895.15,-196.5 885.15,-193 885.15,-200"/>
</a>
</g>
</g>
<!-- Node6 -->
<g id="Node000006" class="node">
<title>Node6</title>
<g id="a_Node000006"><a xlink:href="string_8c.html#a008e171a518fe0e0352f31b245e03875" target="_top" xlink:title=" ">
<polygon fill="white" stroke="#666666" points="1149.5,-206 1105.5,-206 1105.5,-187 1149.5,-187 1149.5,-206"/>
<text text-anchor="middle" x="1127.5" y="-194" font-family="Helvetica,sans-Serif" font-size="10.00">strlen</text>
</a>
</g>
</g>
<!-- Node5&#45;&gt;Node6 -->
<g id="edge5_Node000005_Node000006" class="edge">
<title>Node5&#45;&gt;Node6</title>
<g id="a_edge5_Node000005_Node000006"><a xlink:title=" ">
<path fill="none" stroke="#63b8ff" d="M1044.65,-196.5C1062.29,-196.5 1080.21,-196.5 1094.77,-196.5"/>
<polygon fill="#63b8ff" stroke="#63b8ff" points="1095.19,-200 1105.19,-196.5 1095.19,-193 1095.19,-200"/>
</a>
</g>
</g>
<!-- Node8 -->
<g id="Node000008" class="node">
<title>Node8</title>
<g id="a_Node000008"><a xlink:href="math__util__2_8c.html#a13e56d0f66165ef2bfef5122f7de73b6" target="_top" xlink:title=" ">
<polygon fill="white" stroke="#666666" points="643,-57 514,-57 514,-38 643,-38 643,-57"/>
<text text-anchor="middle" x="578.5" y="-45" font-family="Helvetica,sans-Serif" font-size="10.00">get_angle_between_xy</text>
</a>
</g>
</g>
<!-- Node7&#45;&gt;Node8 -->
<g id="edge7_Node000007_Node000008" class="edge">
<title>Node7&#45;&gt;Node8</title>
<g id="a_edge7_Node000007_Node000008"><a xlink:title=" ">
<path fill="none" stroke="#63b8ff" d="M477.53,-50C486.07,-49.79 494.94,-49.56 503.7,-49.34"/>
<polygon fill="#63b8ff" stroke="#63b8ff" points="504.01,-52.84 513.92,-49.09 503.84,-45.84 504.01,-52.84"/>
</a>
</g>
</g>
<!-- Node9 -->
<g id="Node000009" class="node">
<title>Node9</title>
<g id="a_Node000009"><a xlink:href="math__util_8c.html#aaa39a297477f56051975259f4bddd829" target="_top" xlink:title=" ">
<polygon fill="white" stroke="#666666" points="787.5,-57 737.5,-57 737.5,-38 787.5,-38 787.5,-57"/>
<text text-anchor="middle" x="762.5" y="-45" font-family="Helvetica,sans-Serif" font-size="10.00">atan2s</text>
</a>
</g>
</g>
<!-- Node8&#45;&gt;Node9 -->
<g id="edge8_Node000008_Node000009" class="edge">
<title>Node8&#45;&gt;Node9</title>
<g id="a_edge8_Node000008_Node000009"><a xlink:title=" ">
<path fill="none" stroke="#63b8ff" d="M643.15,-47.5C671.42,-47.5 703.57,-47.5 727.22,-47.5"/>
<polygon fill="#63b8ff" stroke="#63b8ff" points="727.44,-51 737.44,-47.5 727.44,-44 727.44,-51"/>
</a>
</g>
</g>
<!-- Node10 -->
<g id="Node000010" class="node">
<title>Node10</title>
<g id="a_Node000010"><a xlink:href="math__util_8c.html#a0273b0ea0783a06996c28669a7438ed9" target="_top" xlink:title=" ">
<polygon fill="white" stroke="#666666" points="1011,-57 929,-57 929,-38 1011,-38 1011,-57"/>
<text text-anchor="middle" x="970" y="-45" font-family="Helvetica,sans-Serif" font-size="10.00">atan2_lookup</text>
</a>
</g>
</g>
<!-- Node9&#45;&gt;Node10 -->
<g id="edge9_Node000009_Node000010" class="edge">
<title>Node9&#45;&gt;Node10</title>
<g id="a_edge9_Node000009_Node000010"><a xlink:title=" ">
<path fill="none" stroke="#63b8ff" d="M787.88,-47.5C819.93,-47.5 877.03,-47.5 918.56,-47.5"/>
<polygon fill="#63b8ff" stroke="#63b8ff" points="918.77,-51 928.77,-47.5 918.77,-44 918.77,-51"/>
</a>
</g>
</g>
<!-- Node13 -->
<g id="Node000013" class="node">
<title>Node13</title>
<g id="a_Node000013"><a xlink:href="math__util__2_8c.html#a99d173c040cb4a9d0184df2605d71e32" target="_top" xlink:title=" ">
<polygon fill="white" stroke="#666666" points="624.5,-131 532.5,-131 532.5,-112 624.5,-112 624.5,-131"/>
<text text-anchor="middle" x="578.5" y="-119" font-family="Helvetica,sans-Serif" font-size="10.00">func_800418AC</text>
</a>
</g>
</g>
<!-- Node12&#45;&gt;Node13 -->
<g id="edge12_Node000012_Node000013" class="edge">
<title>Node12&#45;&gt;Node13</title>
<g id="a_edge12_Node000012_Node000013"><a xlink:title=" ">
<path fill="none" stroke="#63b8ff" d="M478.45,-138.83C492.8,-136.32 508.02,-133.66 522.12,-131.19"/>
<polygon fill="#63b8ff" stroke="#63b8ff" points="522.91,-134.61 532.15,-129.44 521.7,-127.71 522.91,-134.61"/>
</a>
</g>
</g>
<!-- Node14 -->
<g id="Node000014" class="node">
<title>Node14</title>
<g id="a_Node000014"><a xlink:href="render__objects_8c.html#abfc36be592b2cbf423febe66fa12ec34" target="_top" xlink:title=" ">
<polygon fill="white" stroke="#666666" points="624.5,-168 532.5,-168 532.5,-149 624.5,-149 624.5,-168"/>
<text text-anchor="middle" x="578.5" y="-156" font-family="Helvetica,sans-Serif" font-size="10.00">func_800431B0</text>
</a>
</g>
</g>
<!-- Node12&#45;&gt;Node14 -->
<g id="edge14_Node000012_Node000014" class="edge">
<title>Node12&#45;&gt;Node14</title>
<g id="a_edge14_Node000012_Node000014"><a xlink:title=" ">
<path fill="none" stroke="#63b8ff" d="M478.45,-152.93C492.8,-153.74 508.02,-154.59 522.12,-155.38"/>
<polygon fill="#63b8ff" stroke="#63b8ff" points="521.97,-158.88 532.15,-155.95 522.37,-151.89 521.97,-158.88"/>
</a>
</g>
</g>
<!-- Node27 -->
<g id="Node000027" class="node">
<title>Node27</title>
<g id="a_Node000027"><a xlink:href="render__objects_8c.html#a478c0c265cba4e59430ec73ad32231f2" target="_top" xlink:title=" ">
<polygon fill="white" stroke="#666666" points="627.5,-94 529.5,-94 529.5,-75 627.5,-75 627.5,-94"/>
<text text-anchor="middle" x="578.5" y="-82" font-family="Helvetica,sans-Serif" font-size="10.00">set_color_render</text>
</a>
</g>
</g>
<!-- Node12&#45;&gt;Node27 -->
<g id="edge30_Node000012_Node000027" class="edge">
<title>Node12&#45;&gt;Node27</title>
<g id="a_edge30_Node000012_Node000027"><a xlink:title=" ">
<path fill="none" stroke="#63b8ff" d="M458.27,-134.43C464.95,-131.65 471.73,-128.63 478,-125.5 494.78,-117.12 496.88,-111.14 514,-103.5 519.06,-101.24 524.46,-99.16 529.89,-97.27"/>
<polygon fill="#63b8ff" stroke="#63b8ff" points="531.23,-100.52 539.65,-94.08 529.05,-93.87 531.23,-100.52"/>
</a>
</g>
</g>
<!-- Node13&#45;&gt;Node9 -->
<g id="edge13_Node000013_Node000009" class="edge">
<title>Node13&#45;&gt;Node9</title>
<g id="a_edge13_Node000013_Node000009"><a xlink:title=" ">
<path fill="none" stroke="#63b8ff" d="M617.1,-111.95C625.7,-109.46 634.74,-106.6 643,-103.5 675.21,-91.42 710.7,-74.08 734.36,-61.9"/>
<polygon fill="#63b8ff" stroke="#63b8ff" points="736.17,-64.91 743.43,-57.19 732.95,-58.7 736.17,-64.91"/>
</a>
</g>
</g>
<!-- Node14&#45;&gt;Node4 -->
<g id="edge15_Node000014_Node000004" class="edge">
<title>Node14&#45;&gt;Node4</title>
<g id="a_edge15_Node000014_Node000004"><a xlink:title=" ">
<path fill="none" stroke="#63b8ff" d="M624.96,-167.99C650.16,-173.25 681.65,-179.83 708.04,-185.34"/>
<polygon fill="#63b8ff" stroke="#63b8ff" points="707.37,-188.77 717.88,-187.39 708.8,-181.92 707.37,-188.77"/>
</a>
</g>
</g>
<!-- Node15 -->
<g id="Node000015" class="node">
<title>Node15</title>
<g id="a_Node000015"><a xlink:href="GBIMiddleware_8cpp.html#aeef79449a27a710d73576e4a4f7f7f99" target="_top" xlink:title=" ">
<polygon fill="white" stroke="#666666" points="795.5,-169 729.5,-169 729.5,-150 795.5,-150 795.5,-169"/>
<text text-anchor="middle" x="762.5" y="-157" font-family="Helvetica,sans-Serif" font-size="10.00">gSPVertex</text>
</a>
</g>
</g>
<!-- Node14&#45;&gt;Node15 -->
<g id="edge16_Node000014_Node000015" class="edge">
<title>Node14&#45;&gt;Node15</title>
<g id="a_edge16_Node000014_Node000015"><a xlink:title=" ">
<path fill="none" stroke="#63b8ff" d="M624.96,-158.75C653.81,-158.91 690.88,-159.11 719.12,-159.27"/>
<polygon fill="#63b8ff" stroke="#63b8ff" points="719.45,-162.77 729.47,-159.32 719.49,-155.77 719.45,-162.77"/>
</a>
</g>
</g>
<!-- Node16 -->
<g id="Node000016" class="node">
<title>Node16</title>
<g id="a_Node000016"><a xlink:href="math__util__2_8c.html#a2eff0e02deb703653ee3230fbc02eb14" target="_top" xlink:title="set the matrix to a transformation matrix">
<polygon fill="white" stroke="#666666" points="846,-132 679,-132 679,-113 846,-113 846,-132"/>
<text text-anchor="middle" x="762.5" y="-120" font-family="Helvetica,sans-Serif" font-size="10.00">rsp_set_matrix_transformation</text>
</a>
</g>
</g>
<!-- Node14&#45;&gt;Node16 -->
<g id="edge18_Node000014_Node000016" class="edge">
<title>Node14&#45;&gt;Node16</title>
<g id="a_edge18_Node000014_Node000016"><a xlink:title=" ">
<path fill="none" stroke="#63b8ff" d="M624.96,-149.51C648.75,-144.8 678.14,-138.99 703.56,-133.96"/>
<polygon fill="#63b8ff" stroke="#63b8ff" points="704.31,-137.38 713.44,-132.01 702.95,-130.51 704.31,-137.38"/>
</a>
</g>
</g>
<!-- Node15&#45;&gt;Node5 -->
<g id="edge17_Node000015_Node000005" class="edge">
<title>Node15&#45;&gt;Node5</title>
<g id="a_edge17_Node000015_Node000005"><a xlink:title=" ">
<path fill="none" stroke="#63b8ff" d="M795.61,-165.28C825.02,-170.58 869.39,-178.56 905.88,-185.14"/>
<polygon fill="#63b8ff" stroke="#63b8ff" points="905.48,-188.62 915.95,-186.95 906.72,-181.73 905.48,-188.62"/>
</a>
</g>
</g>
<!-- Node17 -->
<g id="Node000017" class="node">
<title>Node17</title>
<g id="a_Node000017"><a xlink:href="Matrix_8cpp.html#a329d78c031733cf22ff7518f5d38fd74" target="_top" xlink:title=" ">
<polygon fill="white" stroke="#666666" points="1013,-132 927,-132 927,-113 1013,-113 1013,-132"/>
<text text-anchor="middle" x="970" y="-120" font-family="Helvetica,sans-Serif" font-size="10.00">AddHudMatrix</text>
</a>
</g>
</g>
<!-- Node16&#45;&gt;Node17 -->
<g id="edge19_Node000016_Node000017" class="edge">
<title>Node16&#45;&gt;Node17</title>
<g id="a_edge19_Node000016_Node000017"><a xlink:title=" ">
<path fill="none" stroke="#63b8ff" d="M846.2,-122.5C869.97,-122.5 895.23,-122.5 916.62,-122.5"/>
<polygon fill="#63b8ff" stroke="#63b8ff" points="916.78,-126 926.78,-122.5 916.78,-119 916.78,-126"/>
</a>
</g>
</g>
<!-- Node23 -->
<g id="Node000023" class="node">
<title>Node23</title>
<g id="a_Node000023"><a xlink:href="math__util__2_8c.html#ae71383a9d7f97bcb240b23f68068ab30" target="_top" xlink:title=" ">
<polygon fill="white" stroke="#666666" points="1058,-94 882,-94 882,-75 1058,-75 1058,-94"/>
<text text-anchor="middle" x="970" y="-82" font-family="Helvetica,sans-Serif" font-size="10.00">mtxf_set_matrix_transformation</text>
</a>
</g>
</g>
<!-- Node16&#45;&gt;Node23 -->
<g id="edge25_Node000016_Node000023" class="edge">
<title>Node16&#45;&gt;Node23</title>
<g id="a_edge25_Node000016_Node000023"><a xlink:title=" ">
<path fill="none" stroke="#63b8ff" d="M815.09,-112.96C843.06,-107.79 877.82,-101.36 907.23,-95.92"/>
<polygon fill="#63b8ff" stroke="#63b8ff" points="908.19,-99.3 917.39,-94.04 906.92,-92.42 908.19,-99.3"/>
</a>
</g>
</g>
<!-- Node18 -->
<g id="Node000018" class="node">
<title>Node18</title>
<g id="a_Node000018"><a xlink:href="Matrix_8cpp.html#a67401ed1d8de1f4d3a3e5a7b72842b6a" target="_top" xlink:title=" ">
<polygon fill="white" stroke="#666666" points="1161,-169 1094,-169 1094,-150 1161,-150 1161,-169"/>
<text text-anchor="middle" x="1127.5" y="-157" font-family="Helvetica,sans-Serif" font-size="10.00">AddMatrix</text>
</a>
</g>
</g>
<!-- Node17&#45;&gt;Node18 -->
<g id="edge20_Node000017_Node000018" class="edge">
<title>Node17&#45;&gt;Node18</title>
<g id="a_edge20_Node000017_Node000018"><a xlink:title=" ">
<path fill="none" stroke="#63b8ff" d="M1011.05,-132.03C1033.46,-137.36 1061.4,-144.01 1084.18,-149.43"/>
<polygon fill="#63b8ff" stroke="#63b8ff" points="1083.38,-152.84 1093.92,-151.75 1085,-146.03 1083.38,-152.84"/>
</a>
</g>
</g>
<!-- Node22 -->
<g id="Node000022" class="node">
<title>Node22</title>
<g id="a_Node000022"><a xlink:href="Game_8cpp.html#ae2fa844b3cb1021ecbc357f8ed2ad8cc" target="_top" xlink:title=" ">
<polygon fill="white" stroke="#666666" points="1158.5,-132 1096.5,-132 1096.5,-113 1158.5,-113 1158.5,-132"/>
<text text-anchor="middle" x="1127.5" y="-120" font-family="Helvetica,sans-Serif" font-size="10.00">GetWorld</text>
</a>
</g>
</g>
<!-- Node17&#45;&gt;Node22 -->
<g id="edge24_Node000017_Node000022" class="edge">
<title>Node17&#45;&gt;Node22</title>
<g id="a_edge24_Node000017_Node000022"><a xlink:title=" ">
<path fill="none" stroke="#63b8ff" d="M1013.08,-122.5C1035.75,-122.5 1063.59,-122.5 1086.02,-122.5"/>
<polygon fill="#63b8ff" stroke="#63b8ff" points="1086.22,-126 1096.22,-122.5 1086.22,-119 1086.22,-126"/>
</a>
</g>
</g>
<!-- Node19 -->
<g id="Node000019" class="node">
<title>Node19</title>
<g id="a_Node000019"><a xlink:href="FrameInterpolation_8cpp.html#a8cf1f2d6fabc6925aa71a9515341b4aa" target="_top" xlink:title=" ">
<polygon fill="white" stroke="#666666" points="1355,-126.5 1215,-126.5 1215,-96.5 1355,-96.5 1355,-126.5"/>
<text text-anchor="start" x="1223" y="-114.5" font-family="Helvetica,sans-Serif" font-size="10.00">FrameInterpolation</text>
<text text-anchor="middle" x="1285" y="-103.5" font-family="Helvetica,sans-Serif" font-size="10.00">_RecordMatrixMtxFToMtx</text>
</a>
</g>
</g>
<!-- Node18&#45;&gt;Node19 -->
<g id="edge21_Node000018_Node000019" class="edge">
<title>Node18&#45;&gt;Node19</title>
<g id="a_edge21_Node000018_Node000019"><a xlink:title=" ">
<path fill="none" stroke="#63b8ff" d="M1159.59,-149.9C1178.43,-144.09 1203.07,-136.48 1225.44,-129.58"/>
<polygon fill="#63b8ff" stroke="#63b8ff" points="1226.68,-132.86 1235.2,-126.56 1224.61,-126.17 1226.68,-132.86"/>
</a>
</g>
</g>
<!-- Node21 -->
<g id="Node000021" class="node">
<title>Node21</title>
<g id="a_Node000021"><a xlink:href="guMtxF2L_8c.html#a40ab2d64c609839ff1e0ef0de2d0dcc4" target="_top" xlink:title=" ">
<polygon fill="white" stroke="#666666" points="1317.5,-169 1252.5,-169 1252.5,-150 1317.5,-150 1317.5,-169"/>
<text text-anchor="middle" x="1285" y="-157" font-family="Helvetica,sans-Serif" font-size="10.00">guMtxF2L</text>
</a>
</g>
</g>
<!-- Node18&#45;&gt;Node21 -->
<g id="edge23_Node000018_Node000021" class="edge">
<title>Node18&#45;&gt;Node21</title>
<g id="a_edge23_Node000018_Node000021"><a xlink:title=" ">
<path fill="none" stroke="#63b8ff" d="M1161.1,-159.5C1184.66,-159.5 1216.68,-159.5 1242.14,-159.5"/>
<polygon fill="#63b8ff" stroke="#63b8ff" points="1242.24,-163 1252.24,-159.5 1242.24,-156 1242.24,-163"/>
</a>
</g>
</g>
<!-- Node20 -->
<g id="Node000020" class="node">
<title>Node20</title>
<g id="a_Node000020"><a xlink:href="FrameInterpolation_8cpp.html#a02c7ac5342a4d376edee38f312b480bf" target="_top" xlink:title=" ">
<polygon fill="white" stroke="#666666" points="1517,-87 1409,-87 1409,-68 1517,-68 1517,-87"/>
<text text-anchor="middle" x="1463" y="-75" font-family="Helvetica,sans-Serif" font-size="10.00">check_if_recording</text>
</a>
</g>
</g>
<!-- Node19&#45;&gt;Node20 -->
<g id="edge22_Node000019_Node000020" class="edge">
<title>Node19&#45;&gt;Node20</title>
<g id="a_edge22_Node000019_Node000020"><a xlink:title=" ">
<path fill="none" stroke="#63b8ff" d="M1355.05,-98.16C1370.85,-95.11 1387.51,-91.89 1402.85,-88.93"/>
<polygon fill="#63b8ff" stroke="#63b8ff" points="1403.56,-92.35 1412.72,-87.02 1402.24,-85.48 1403.56,-92.35"/>
</a>
</g>
</g>
<!-- Node24 -->
<g id="Node000024" class="node">
<title>Node24</title>
<g id="a_Node000024"><a xlink:href="math__util_8c.html#ae69cbf5c8d4b3b0dba2d7b4d4673689f" target="_top" xlink:title=" ">
<polygon fill="white" stroke="#666666" points="1146.5,-95 1108.5,-95 1108.5,-76 1146.5,-76 1146.5,-95"/>
<text text-anchor="middle" x="1127.5" y="-83" font-family="Helvetica,sans-Serif" font-size="10.00">coss</text>
</a>
</g>
</g>
<!-- Node23&#45;&gt;Node24 -->
<g id="edge26_Node000023_Node000024" class="edge">
<title>Node23&#45;&gt;Node24</title>
<g id="a_edge26_Node000023_Node000024"><a xlink:title=" ">
<path fill="none" stroke="#63b8ff" d="M1058.3,-85.06C1072.67,-85.15 1086.6,-85.24 1098.09,-85.32"/>
<polygon fill="#63b8ff" stroke="#63b8ff" points="1098.26,-88.82 1108.29,-85.38 1098.31,-81.82 1098.26,-88.82"/>
</a>
</g>
</g>
<!-- Node25 -->
<g id="Node000025" class="node">
<title>Node25</title>
<g id="a_Node000025"><a xlink:href="FrameInterpolation_8cpp.html#af749df1a96bee5c78287b1845455ae2d" target="_top" xlink:title=" ">
<polygon fill="white" stroke="#666666" points="1373,-68.5 1197,-68.5 1197,-38.5 1373,-38.5 1373,-68.5"/>
<text text-anchor="start" x="1205" y="-56.5" font-family="Helvetica,sans-Serif" font-size="10.00">FrameInterpolation</text>
<text text-anchor="middle" x="1285" y="-45.5" font-family="Helvetica,sans-Serif" font-size="10.00">_RecordSetMatrixTransformation</text>
</a>
</g>
</g>
<!-- Node23&#45;&gt;Node25 -->
<g id="edge27_Node000023_Node000025" class="edge">
<title>Node23&#45;&gt;Node25</title>
<g id="a_edge27_Node000023_Node000025"><a xlink:title=" ">
<path fill="none" stroke="#63b8ff" d="M1029.69,-74.97C1050.02,-71.92 1072.97,-68.75 1094,-66.5 1124.13,-63.27 1157.03,-60.69 1186.87,-58.7"/>
<polygon fill="#63b8ff" stroke="#63b8ff" points="1187.11,-62.19 1196.86,-58.05 1186.65,-55.21 1187.11,-62.19"/>
</a>
</g>
</g>
<!-- Node26 -->
<g id="Node000026" class="node">
<title>Node26</title>
<g id="a_Node000026"><a xlink:href="math__util_8c.html#a19ed3bd78fd2d3e2bd0a29f6caf48545" target="_top" xlink:title=" ">
<polygon fill="white" stroke="#666666" points="1145.5,-19 1109.5,-19 1109.5,0 1145.5,0 1145.5,-19"/>
<text text-anchor="middle" x="1127.5" y="-7" font-family="Helvetica,sans-Serif" font-size="10.00">sins</text>
</a>
</g>
</g>
<!-- Node23&#45;&gt;Node26 -->
<g id="edge29_Node000023_Node000026" class="edge">
<title>Node23&#45;&gt;Node26</title>
<g id="a_edge29_Node000023_Node000026"><a xlink:title=" ">
<path fill="none" stroke="#63b8ff" d="M1033.66,-74.89C1042.08,-72.43 1050.42,-69.36 1058,-65.5 1077.08,-55.79 1077.37,-46.98 1094,-33.5 1097.43,-30.72 1101.14,-27.85 1104.79,-25.11"/>
<polygon fill="#63b8ff" stroke="#63b8ff" points="1107.04,-27.8 1113.01,-19.04 1102.89,-22.16 1107.04,-27.8"/>
</a>
</g>
</g>
<!-- Node25&#45;&gt;Node20 -->
<g id="edge28_Node000025_Node000020" class="edge">
<title>Node25&#45;&gt;Node20</title>
<g id="a_edge28_Node000025_Node000020"><a xlink:title=" ">
<path fill="none" stroke="#63b8ff" d="M1373.23,-65.39C1381.83,-66.57 1390.44,-67.74 1398.74,-68.87"/>
<polygon fill="#63b8ff" stroke="#63b8ff" points="1398.29,-72.34 1408.67,-70.23 1399.24,-65.41 1398.29,-72.34"/>
</a>
</g>
</g>
</g>
</svg>
