<?xml version="1.0" encoding="UTF-8" standalone="no"?>
<!DOCTYPE svg PUBLIC "-//W3C//DTD SVG 1.1//EN"
 "http://www.w3.org/Graphics/SVG/1.1/DTD/svg11.dtd">
<!-- Generated by graphviz version 2.43.0 (0)
 -->
<!-- Title: DKJungle::ScrollingTextures Pages: 1 -->
<!--zoomable 187 -->

<svg id="main" version="1.1" xmlns="http://www.w3.org/2000/svg" xmlns:xlink="http://www.w3.org/1999/xlink" xml:space="preserve" onload="init(evt)">

<style type="text/css"><![CDATA[
.node, .edge {opacity: 0.7;}
.node.selected, .edge.selected {opacity: 1;}
.edge:hover path { stroke: red; }
.edge:hover polygon { stroke: red; fill: red; }
]]></style>

<defs>
  <circle id="rim" cx="0" cy="0" r="7"/>
  <circle id="rim2" cx="0" cy="0" r="3.5"/>
  <g id="zoomPlus">
    <use xlink:href="#rim" fill="#404040"><set attributeName="fill" to="#808080" begin="zoomplus.mouseover" end="zoomplus.mouseout"/></use>
    <path d="M-4,0h8M0,-4v8" fill="none" stroke="white" stroke-width="1.5" pointer-events="none"/>
  </g>
  <g id="zoomMin">
    <use xlink:href="#rim" fill="#404040"><set attributeName="fill" to="#808080" begin="zoomminus.mouseover" end="zoomminus.mouseout"/></use>
    <path d="M-4,0h8" fill="none" stroke="white" stroke-width="1.5" pointer-events="none"/>
  </g>
  <g id="arrowUp" transform="translate(30 24)">
    <use xlink:href="#rim"/>
    <path pointer-events="none" fill="none" stroke="white" stroke-width="1.5" d="M0,-3.0v7 M-2.5,-0.5L0,-3.0L2.5,-0.5"/>
  </g>
  <g id="arrowRight" transform="rotate(90) translate(36 -43)">
    <use xlink:href="#rim"/>
    <path pointer-events="none" fill="none" stroke="white" stroke-width="1.5" d="M0,-3.0v7 M-2.5,-0.5L0,-3.0L2.5,-0.5"/>
  </g>
  <g id="arrowDown" transform="rotate(180) translate(-30 -48)">
    <use xlink:href="#rim"/>
    <path pointer-events="none" fill="none" stroke="white" stroke-width="1.5" d="M0,-3.0v7 M-2.5,-0.5L0,-3.0L2.5,-0.5"/>
  </g>
  <g id="arrowLeft" transform="rotate(270) translate(-36 17)">
    <use xlink:href="#rim"/>
    <path pointer-events="none" fill="none" stroke="white" stroke-width="1.5" d="M0,-3.0v7 M-2.5,-0.5L0,-3.0L2.5,-0.5"/>
  </g>
  <g id="resetDef">
    <use xlink:href="#rim2" fill="#404040"><set attributeName="fill" to="#808080" begin="reset.mouseover" end="reset.mouseout"/></use>
  </g>
</defs>
<script type="application/ecmascript">
var viewWidth = 822;
var viewHeight = 187;
var sectionId = 'dynsection-12';
</script>
<script type="application/ecmascript" xlink:href="svg.min.js"/>
<svg id="graph" class="graph">
<g id="viewport">
<title>DKJungle::ScrollingTextures</title>
<!-- Node1 -->
<g id="Node000001" class="node">
<title>Node1</title>
<g id="a_Node000001"><a xlink:title=" ">
<polygon fill="#999999" stroke="#666666" points="150,-40 0,-40 0,-21 150,-21 150,-40"/>
<text text-anchor="middle" x="75" y="-28" font-family="Helvetica,sans-Serif" font-size="10.00">DKJungle::ScrollingTextures</text>
</a>
</g>
</g>
<!-- Node2 -->
<g id="Node000002" class="node">
<title>Node2</title>
<g id="a_Node000002"><a xlink:href="actors_8c.html#a3f5880ec8c497fe310d631e9e4518d90" target="_top" xlink:title=" ">
<polygon fill="white" stroke="#666666" points="307,-67.5 189,-67.5 189,-37.5 307,-37.5 307,-67.5"/>
<text text-anchor="start" x="197" y="-55.5" font-family="Helvetica,sans-Serif" font-size="10.00">evaluate_collision</text>
<text text-anchor="middle" x="248" y="-44.5" font-family="Helvetica,sans-Serif" font-size="10.00">_players_palm_trees</text>
</a>
</g>
</g>
<!-- Node1&#45;&gt;Node2 -->
<g id="edge1_Node000001_Node000002" class="edge">
<title>Node1&#45;&gt;Node2</title>
<g id="a_edge1_Node000001_Node000002"><a xlink:title=" ">
<path fill="none" stroke="#63b8ff" d="M150.01,-40.02C159.55,-41.25 169.29,-42.5 178.74,-43.72"/>
<polygon fill="#63b8ff" stroke="#63b8ff" points="178.49,-47.21 188.85,-45.02 179.38,-40.27 178.49,-47.21"/>
</a>
</g>
</g>
<!-- Node12 -->
<g id="Node000012" class="node">
<title>Node12</title>
<g id="a_Node000012"><a xlink:href="collision_8c.html#ad4acc660e55a551946cb912b19b1dc18" target="_top" xlink:title=" ">
<polygon fill="white" stroke="#666666" points="310,-19 186,-19 186,0 310,0 310,-19"/>
<text text-anchor="middle" x="248" y="-7" font-family="Helvetica,sans-Serif" font-size="10.00">find_and_set_tile_size</text>
</a>
</g>
</g>
<!-- Node1&#45;&gt;Node12 -->
<g id="edge13_Node000001_Node000012" class="edge">
<title>Node1&#45;&gt;Node12</title>
<g id="a_edge13_Node000001_Node000012"><a xlink:title=" ">
<path fill="none" stroke="#63b8ff" d="M150.01,-21.41C158.64,-20.35 167.42,-19.27 176.01,-18.22"/>
<polygon fill="#63b8ff" stroke="#63b8ff" points="176.48,-21.69 185.98,-16.99 175.62,-14.74 176.48,-21.69"/>
</a>
</g>
</g>
<!-- Node3 -->
<g id="Node000003" class="node">
<title>Node3</title>
<g id="a_Node000003"><a xlink:href="actors_8c.html#a55dd52d90732891552d43874931866cb" target="_top" xlink:title=" ">
<polygon fill="white" stroke="#666666" points="477,-110.5 364,-110.5 364,-80.5 477,-80.5 477,-110.5"/>
<text text-anchor="start" x="372" y="-98.5" font-family="Helvetica,sans-Serif" font-size="10.00">evaluate_collision</text>
<text text-anchor="middle" x="420.5" y="-87.5" font-family="Helvetica,sans-Serif" font-size="10.00">_player_palm_trees</text>
</a>
</g>
</g>
<!-- Node2&#45;&gt;Node3 -->
<g id="edge2_Node000002_Node000003" class="edge">
<title>Node2&#45;&gt;Node3</title>
<g id="a_edge2_Node000002_Node000003"><a xlink:title=" ">
<path fill="none" stroke="#63b8ff" d="M307.2,-67.18C322.24,-70.97 338.52,-75.08 353.91,-78.96"/>
<polygon fill="#63b8ff" stroke="#63b8ff" points="353.31,-82.42 363.87,-81.47 355.03,-75.63 353.31,-82.42"/>
</a>
</g>
</g>
<!-- Node11 -->
<g id="Node000011" class="node">
<title>Node11</title>
<g id="a_Node000011"><a xlink:href="collision_8c.html#a9395b9fc31397e9e9d754b4887a12544" target="_top" xlink:title=" ">
<polygon fill="white" stroke="#666666" points="471,-62 370,-62 370,-43 471,-43 471,-62"/>
<text text-anchor="middle" x="420.5" y="-50" font-family="Helvetica,sans-Serif" font-size="10.00">get_surface_type</text>
</a>
</g>
</g>
<!-- Node2&#45;&gt;Node11 -->
<g id="edge12_Node000002_Node000011" class="edge">
<title>Node2&#45;&gt;Node11</title>
<g id="a_edge12_Node000002_Node000011"><a xlink:title=" ">
<path fill="none" stroke="#63b8ff" d="M307.2,-52.5C324.06,-52.5 342.49,-52.5 359.45,-52.5"/>
<polygon fill="#63b8ff" stroke="#63b8ff" points="359.8,-56 369.8,-52.5 359.8,-49 359.8,-56"/>
</a>
</g>
</g>
<!-- Node4 -->
<g id="Node000004" class="node">
<title>Node4</title>
<g id="a_Node000004"><a xlink:href="external_8c.html#a2be9efc97a92e19d02aaee90d676acc1" target="_top" xlink:title=" ">
<polygon fill="white" stroke="#666666" points="654.5,-179 562.5,-179 562.5,-160 654.5,-160 654.5,-179"/>
<text text-anchor="middle" x="608.5" y="-167" font-family="Helvetica,sans-Serif" font-size="10.00">func_800C9060</text>
</a>
</g>
</g>
<!-- Node3&#45;&gt;Node4 -->
<g id="edge3_Node000003_Node000004" class="edge">
<title>Node3&#45;&gt;Node4</title>
<g id="a_edge3_Node000003_Node000004"><a xlink:title=" ">
<path fill="none" stroke="#63b8ff" d="M446.81,-110.67C468.51,-123.13 500.93,-140.46 531,-151.5 537.87,-154.02 545.22,-156.28 552.54,-158.27"/>
<polygon fill="#63b8ff" stroke="#63b8ff" points="551.91,-161.72 562.47,-160.82 553.65,-154.94 551.91,-161.72"/>
</a>
</g>
</g>
<!-- Node6 -->
<g id="Node000006" class="node">
<title>Node6</title>
<g id="a_Node000006"><a xlink:href="external_8c.html#a337fc3ab94ebb3293a85908229303ac8" target="_top" xlink:title=" ">
<polygon fill="white" stroke="#666666" points="654.5,-142 562.5,-142 562.5,-123 654.5,-123 654.5,-142"/>
<text text-anchor="middle" x="608.5" y="-130" font-family="Helvetica,sans-Serif" font-size="10.00">func_800C90F4</text>
</a>
</g>
</g>
<!-- Node3&#45;&gt;Node6 -->
<g id="edge5_Node000003_Node000006" class="edge">
<title>Node3&#45;&gt;Node6</title>
<g id="a_edge5_Node000003_Node000006"><a xlink:title=" ">
<path fill="none" stroke="#63b8ff" d="M477.05,-106.55C500.85,-111.28 528.56,-116.8 552.31,-121.52"/>
<polygon fill="#63b8ff" stroke="#63b8ff" points="551.73,-124.98 562.23,-123.49 553.1,-118.11 551.73,-124.98"/>
</a>
</g>
</g>
<!-- Node7 -->
<g id="Node000007" class="node">
<title>Node7</title>
<g id="a_Node000007"><a xlink:href="external_8c.html#acb60983213d09ee795e80ca3c8b5975e" target="_top" xlink:title=" ">
<polygon fill="white" stroke="#666666" points="654.5,-105 562.5,-105 562.5,-86 654.5,-86 654.5,-105"/>
<text text-anchor="middle" x="608.5" y="-93" font-family="Helvetica,sans-Serif" font-size="10.00">func_800C98B8</text>
</a>
</g>
</g>
<!-- Node3&#45;&gt;Node7 -->
<g id="edge7_Node000003_Node000007" class="edge">
<title>Node3&#45;&gt;Node7</title>
<g id="a_edge7_Node000003_Node000007"><a xlink:title=" ">
<path fill="none" stroke="#63b8ff" d="M477.05,-95.5C500.74,-95.5 528.31,-95.5 551.99,-95.5"/>
<polygon fill="#63b8ff" stroke="#63b8ff" points="552.23,-99 562.23,-95.5 552.23,-92 552.23,-99"/>
</a>
</g>
</g>
<!-- Node9 -->
<g id="Node000009" class="node">
<title>Node9</title>
<g id="a_Node000009"><a xlink:href="actors_8c.html#ad25a217bee1529c47a2532a0e424f434" target="_top" xlink:title=" ">
<polygon fill="white" stroke="#666666" points="686,-67.5 531,-67.5 531,-37.5 686,-37.5 686,-67.5"/>
<text text-anchor="start" x="539" y="-55.5" font-family="Helvetica,sans-Serif" font-size="10.00">query_and_resolve_collision</text>
<text text-anchor="middle" x="608.5" y="-44.5" font-family="Helvetica,sans-Serif" font-size="10.00">_player_actor</text>
</a>
</g>
</g>
<!-- Node3&#45;&gt;Node9 -->
<g id="edge10_Node000003_Node000009" class="edge">
<title>Node3&#45;&gt;Node9</title>
<g id="a_edge10_Node000003_Node000009"><a xlink:title=" ">
<path fill="none" stroke="#63b8ff" d="M477.05,-82.66C494.48,-78.63 514,-74.11 532.54,-69.83"/>
<polygon fill="#63b8ff" stroke="#63b8ff" points="533.46,-73.21 542.41,-67.55 531.88,-66.39 533.46,-73.21"/>
</a>
</g>
</g>
<!-- Node5 -->
<g id="Node000005" class="node">
<title>Node5</title>
<g id="a_Node000005"><a xlink:href="external_8c.html#a475cff796211891556f52877cd8e9b9e" target="_top" xlink:title=" ">
<polygon fill="white" stroke="#666666" points="804,-142 732,-142 732,-123 804,-123 804,-142"/>
<text text-anchor="middle" x="768" y="-130" font-family="Helvetica,sans-Serif" font-size="10.00">play_sound</text>
</a>
</g>
</g>
<!-- Node4&#45;&gt;Node5 -->
<g id="edge4_Node000004_Node000005" class="edge">
<title>Node4&#45;&gt;Node5</title>
<g id="a_edge4_Node000004_Node000005"><a xlink:title=" ">
<path fill="none" stroke="#63b8ff" d="M650.06,-159.97C672.13,-154.79 699.49,-148.36 722.19,-143.03"/>
<polygon fill="#63b8ff" stroke="#63b8ff" points="722.99,-146.43 731.93,-140.74 721.39,-139.62 722.99,-146.43"/>
</a>
</g>
</g>
<!-- Node6&#45;&gt;Node5 -->
<g id="edge6_Node000006_Node000005" class="edge">
<title>Node6&#45;&gt;Node5</title>
<g id="a_edge6_Node000006_Node000005"><a xlink:title=" ">
<path fill="none" stroke="#63b8ff" d="M654.63,-132.5C675.72,-132.5 700.78,-132.5 721.87,-132.5"/>
<polygon fill="#63b8ff" stroke="#63b8ff" points="721.87,-136 731.87,-132.5 721.87,-129 721.87,-136"/>
</a>
</g>
</g>
<!-- Node7&#45;&gt;Node5 -->
<g id="edge9_Node000007_Node000005" class="edge">
<title>Node7&#45;&gt;Node5</title>
<g id="a_edge9_Node000007_Node000005"><a xlink:title=" ">
<path fill="none" stroke="#63b8ff" d="M650.06,-105.03C672.13,-110.21 699.49,-116.64 722.19,-121.97"/>
<polygon fill="#63b8ff" stroke="#63b8ff" points="721.39,-125.38 731.93,-124.26 722.99,-118.57 721.39,-125.38"/>
</a>
</g>
</g>
<!-- Node8 -->
<g id="Node000008" class="node">
<title>Node8</title>
<g id="a_Node000008"><a xlink:href="external_8c.html#a747de0be4005b4b29150d5c068564b7d" target="_top" xlink:title=" ">
<polygon fill="white" stroke="#666666" points="814,-105 722,-105 722,-86 814,-86 814,-105"/>
<text text-anchor="middle" x="768" y="-93" font-family="Helvetica,sans-Serif" font-size="10.00">func_800C1C88</text>
</a>
</g>
</g>
<!-- Node7&#45;&gt;Node8 -->
<g id="edge8_Node000007_Node000008" class="edge">
<title>Node7&#45;&gt;Node8</title>
<g id="a_edge8_Node000007_Node000008"><a xlink:title=" ">
<path fill="none" stroke="#63b8ff" d="M654.63,-95.5C672.43,-95.5 693.04,-95.5 711.71,-95.5"/>
<polygon fill="#63b8ff" stroke="#63b8ff" points="711.86,-99 721.86,-95.5 711.86,-92 711.86,-99"/>
</a>
</g>
</g>
<!-- Node10 -->
<g id="Node000010" class="node">
<title>Node10</title>
<g id="a_Node000010"><a xlink:href="math_8h.html#a37bde043e94a6f074c78f10518fb5d99" target="_top" xlink:title=" ">
<polygon fill="white" stroke="#666666" points="787.5,-62 748.5,-62 748.5,-43 787.5,-43 787.5,-62"/>
<text text-anchor="middle" x="768" y="-50" font-family="Helvetica,sans-Serif" font-size="10.00">sqrtf</text>
</a>
</g>
</g>
<!-- Node9&#45;&gt;Node10 -->
<g id="edge11_Node000009_Node000010" class="edge">
<title>Node9&#45;&gt;Node10</title>
<g id="a_edge11_Node000009_Node000010"><a xlink:title=" ">
<path fill="none" stroke="#63b8ff" d="M686.4,-52.5C704.82,-52.5 723.38,-52.5 738.03,-52.5"/>
<polygon fill="#63b8ff" stroke="#63b8ff" points="738.41,-56 748.41,-52.5 738.41,-49 738.41,-56"/>
</a>
</g>
</g>
<!-- Node13 -->
<g id="Node000013" class="node">
<title>Node13</title>
<g id="a_Node000013"><a xlink:href="Engine_8cpp.html#a223c8bc63f228dc11177515e38eff2db" target="_top" xlink:title=" ">
<polygon fill="white" stroke="#666666" points="495,-19 346,-19 346,0 495,0 495,-19"/>
<text text-anchor="middle" x="420.5" y="-7" font-family="Helvetica,sans-Serif" font-size="10.00">GameEngine_OTRSigCheck</text>
</a>
</g>
</g>
<!-- Node12&#45;&gt;Node13 -->
<g id="edge14_Node000012_Node000013" class="edge">
<title>Node12&#45;&gt;Node13</title>
<g id="a_edge14_Node000012_Node000013"><a xlink:title=" ">
<path fill="none" stroke="#63b8ff" d="M310.07,-9.5C318.38,-9.5 327.03,-9.5 335.65,-9.5"/>
<polygon fill="#63b8ff" stroke="#63b8ff" points="335.75,-13 345.75,-9.5 335.75,-6 335.75,-13"/>
</a>
</g>
</g>
<!-- Node14 -->
<g id="Node000014" class="node">
<title>Node14</title>
<g id="a_Node000014"><a xlink:href="string_8c.html#a008e171a518fe0e0352f31b245e03875" target="_top" xlink:title=" ">
<polygon fill="white" stroke="#666666" points="630.5,-19 586.5,-19 586.5,0 630.5,0 630.5,-19"/>
<text text-anchor="middle" x="608.5" y="-7" font-family="Helvetica,sans-Serif" font-size="10.00">strlen</text>
</a>
</g>
</g>
<!-- Node13&#45;&gt;Node14 -->
<g id="edge15_Node000013_Node000014" class="edge">
<title>Node13&#45;&gt;Node14</title>
<g id="a_edge15_Node000013_Node000014"><a xlink:title=" ">
<path fill="none" stroke="#63b8ff" d="M495.01,-9.5C523.29,-9.5 554.08,-9.5 576.28,-9.5"/>
<polygon fill="#63b8ff" stroke="#63b8ff" points="576.45,-13 586.45,-9.5 576.45,-6 576.45,-13"/>
</a>
</g>
</g>
</g>
</svg>

<g id="navigator" transform="translate(0 0)" fill="#404254">
  <rect fill="#f2f5e9" fill-opacity="0.5" stroke="#606060" stroke-width=".5" x="0" y="0" width="60" height="60"/>
  <use id="zoomplus" xlink:href="#zoomPlus" x="17" y="9" onmousedown="handleZoom(evt,'in')"/>
  <use id="zoomminus" xlink:href="#zoomMin" x="42" y="9" onmousedown="handleZoom(evt,'out')"/>
  <use id="reset" xlink:href="#resetDef" x="30" y="36" onmousedown="handleReset()"/>
   <use id="arrowup" xlink:href="#arrowUp" x="0" y="0" onmousedown="handlePan(0,-1)"/>
  <use id="arrowright" xlink:href="#arrowRight" x="0" y="0" onmousedown="handlePan(1,0)"/>
  <use id="arrowdown" xlink:href="#arrowDown" x="0" y="0" onmousedown="handlePan(0,1)"/>
  <use id="arrowleft" xlink:href="#arrowLeft" x="0" y="0" onmousedown="handlePan(-1,0)"/>
</g>
<svg viewBox="0 0 15 15" width="100%" height="30px" preserveAspectRatio="xMaxYMin meet">
 <g id="arrow_out" transform="scale(0.3 0.3)">
  <a xlink:href="classDKJungle_aeec7bbd5ce9c073a8f5b191a29fd7fb6_cgraph_org.svg" target="_base">
   <rect id="button" ry="5" rx="5" y="6" x="6" height="38" width="38"
        fill="#f2f5e9" fill-opacity="0.5" stroke="#606060" stroke-width="1.0"/>
   <path id="arrow"
     d="M 11.500037,31.436501 C 11.940474,20.09759 22.043105,11.32322 32.158766,21.979434 L 37.068811,17.246167 C 37.068811,17.246167 37.088388,32 37.088388,32 L 22.160133,31.978069 C 22.160133,31.978069 26.997745,27.140456 26.997745,27.140456 C 18.528582,18.264221 13.291696,25.230495 11.500037,31.436501 z"
     style="fill:#404040;"/>
  </a>
 </g>
</svg>

<style type='text/css'>
<![CDATA[
[data-mouse-over-selected='false'] { opacity: 0.7; }
[data-mouse-over-selected='true']  { opacity: 1.0; }
]]>
</style>
<script type="application/ecmascript"><![CDATA[
document.addEventListener('DOMContentLoaded', (event) => {
  highlightEdges();
  highlightAdjacentNodes();
});
]]></script>
</svg>
