<?xml version="1.0" encoding="UTF-8" standalone="no"?>
<!DOCTYPE svg PUBLIC "-//W3C//DTD SVG 1.1//EN"
 "http://www.w3.org/Graphics/SVG/1.1/DTD/svg11.dtd">
<!-- Generated by graphviz version 2.43.0 (0)
 -->
<!-- Title: OPenguin Pages: 1 -->
<!--zoomable 613 -->

<svg id="main" version="1.1" xmlns="http://www.w3.org/2000/svg" xmlns:xlink="http://www.w3.org/1999/xlink" xml:space="preserve" onload="init(evt)">

<style type="text/css"><![CDATA[
.node, .edge {opacity: 0.7;}
.node.selected, .edge.selected {opacity: 1;}
.edge:hover path { stroke: red; }
.edge:hover polygon { stroke: red; fill: red; }
]]></style>

<defs>
  <circle id="rim" cx="0" cy="0" r="7"/>
  <circle id="rim2" cx="0" cy="0" r="3.5"/>
  <g id="zoomPlus">
    <use xlink:href="#rim" fill="#404040"><set attributeName="fill" to="#808080" begin="zoomplus.mouseover" end="zoomplus.mouseout"/></use>
    <path d="M-4,0h8M0,-4v8" fill="none" stroke="white" stroke-width="1.5" pointer-events="none"/>
  </g>
  <g id="zoomMin">
    <use xlink:href="#rim" fill="#404040"><set attributeName="fill" to="#808080" begin="zoomminus.mouseover" end="zoomminus.mouseout"/></use>
    <path d="M-4,0h8" fill="none" stroke="white" stroke-width="1.5" pointer-events="none"/>
  </g>
  <g id="arrowUp" transform="translate(30 24)">
    <use xlink:href="#rim"/>
    <path pointer-events="none" fill="none" stroke="white" stroke-width="1.5" d="M0,-3.0v7 M-2.5,-0.5L0,-3.0L2.5,-0.5"/>
  </g>
  <g id="arrowRight" transform="rotate(90) translate(36 -43)">
    <use xlink:href="#rim"/>
    <path pointer-events="none" fill="none" stroke="white" stroke-width="1.5" d="M0,-3.0v7 M-2.5,-0.5L0,-3.0L2.5,-0.5"/>
  </g>
  <g id="arrowDown" transform="rotate(180) translate(-30 -48)">
    <use xlink:href="#rim"/>
    <path pointer-events="none" fill="none" stroke="white" stroke-width="1.5" d="M0,-3.0v7 M-2.5,-0.5L0,-3.0L2.5,-0.5"/>
  </g>
  <g id="arrowLeft" transform="rotate(270) translate(-36 17)">
    <use xlink:href="#rim"/>
    <path pointer-events="none" fill="none" stroke="white" stroke-width="1.5" d="M0,-3.0v7 M-2.5,-0.5L0,-3.0L2.5,-0.5"/>
  </g>
  <g id="resetDef">
    <use xlink:href="#rim2" fill="#404040"><set attributeName="fill" to="#808080" begin="reset.mouseover" end="reset.mouseout"/></use>
  </g>
</defs>
<script type="application/ecmascript">
var viewWidth = 1455;
var viewHeight = 613;
var sectionId = 'dynsection-1';
</script>
<script type="application/ecmascript" xlink:href="svg.min.js"/>
<svg id="graph" class="graph">
<g id="viewport">
<title>OPenguin</title>
<!-- Node1 -->
<g id="Node000001" class="node">
<title>Node1</title>
<g id="a_Node000001"><a xlink:title=" ">
<polygon fill="#999999" stroke="#666666" points="1306.5,-19 1243.5,-19 1243.5,0 1306.5,0 1306.5,-19"/>
<text text-anchor="middle" x="1275" y="-7" font-family="Helvetica,sans-Serif" font-size="10.00">OPenguin</text>
</a>
</g>
</g>
<!-- Node2 -->
<g id="Node000002" class="node">
<title>Node2</title>
<g id="a_Node000002"><a xlink:href="classOObject.html" target="_top" xlink:title=" ">
<polygon fill="white" stroke="#666666" points="938,-85 882,-85 882,-66 938,-66 938,-85"/>
<text text-anchor="middle" x="910" y="-73" font-family="Helvetica,sans-Serif" font-size="10.00">OObject</text>
</a>
</g>
</g>
<!-- Node2&#45;&gt;Node1 -->
<g id="edge1_Node000001_Node000002" class="edge">
<title>Node2&#45;&gt;Node1</title>
<g id="a_edge1_Node000001_Node000002"><a xlink:title=" ">
<path fill="none" stroke="#63b8ff" d="M948.07,-67.82C1020.35,-55.15 1176.21,-27.82 1243.27,-16.06"/>
<polygon fill="#63b8ff" stroke="#63b8ff" points="947.28,-64.41 938.03,-69.58 948.49,-71.3 947.28,-64.41"/>
</a>
</g>
</g>
<!-- Node3 -->
<g id="Node000003" class="node">
<title>Node3</title>
<g id="a_Node000003"><a xlink:title=" ">
<polygon fill="white" stroke="#666666" points="839,-169 789,-169 789,-150 839,-150 839,-169"/>
<text text-anchor="middle" x="814" y="-157" font-family="Helvetica,sans-Serif" font-size="10.00">uint8_t</text>
</a>
</g>
</g>
<!-- Node3&#45;&gt;Node2 -->
<g id="edge2_Node000002_Node000003" class="edge">
<title>Node3&#45;&gt;Node2</title>
<g id="a_edge2_Node000002_Node000003"><a xlink:title=" ">
<path fill="none" stroke="#9a32cd" stroke-dasharray="5,2" d="M819.5,-139.93C823.88,-127.98 831.11,-112.89 842,-103 853.07,-92.95 868.38,-86.53 881.67,-82.53"/>
<polygon fill="#9a32cd" stroke="#9a32cd" points="816.06,-139.19 816.25,-149.78 822.71,-141.38 816.06,-139.19"/>
</a>
</g>
<text text-anchor="middle" x="854.5" y="-111.5" font-family="Helvetica,sans-Serif" font-size="10.00" fill="grey"> uuid</text>
</g>
<!-- Node4 -->
<g id="Node000004" class="node">
<title>Node4</title>
<g id="a_Node000004"><a xlink:href="structObject.html" target="_top" xlink:title=" ">
<polygon fill="white" stroke="#666666" points="492,-169 444,-169 444,-150 492,-150 492,-169"/>
<text text-anchor="middle" x="468" y="-157" font-family="Helvetica,sans-Serif" font-size="10.00">Object</text>
</a>
</g>
</g>
<!-- Node4&#45;&gt;Node2 -->
<g id="edge3_Node000002_Node000004" class="edge">
<title>Node4&#45;&gt;Node2</title>
<g id="a_edge3_Node000002_Node000004"><a xlink:title=" ">
<path fill="none" stroke="#9a32cd" stroke-dasharray="5,2" d="M501.91,-152.21C586.26,-136.56 804.29,-96.11 881.99,-81.7"/>
<polygon fill="#9a32cd" stroke="#9a32cd" points="501.27,-148.77 492.08,-154.03 502.55,-155.65 501.27,-148.77"/>
</a>
</g>
<text text-anchor="middle" x="773" y="-111.5" font-family="Helvetica,sans-Serif" font-size="10.00" fill="grey"> o</text>
</g>
<!-- Node5 -->
<g id="Node000005" class="node">
<title>Node5</title>
<g id="a_Node000005"><a xlink:title=" ">
<polygon fill="white" stroke="#666666" points="673,-352 641,-352 641,-333 673,-333 673,-352"/>
<text text-anchor="middle" x="657" y="-340" font-family="Helvetica,sans-Serif" font-size="10.00">f32</text>
</a>
</g>
</g>
<!-- Node5&#45;&gt;Node4 -->
<g id="edge4_Node000004_Node000005" class="edge">
<title>Node5&#45;&gt;Node4</title>
<g id="a_edge4_Node000004_Node000005"><a xlink:title=" ">
<path fill="none" stroke="#9a32cd" stroke-dasharray="5,2" d="M656.79,-322.48C655.99,-286.87 652.24,-212.12 635,-194 615.69,-173.7 533.46,-165.1 492.04,-162"/>
<polygon fill="#9a32cd" stroke="#9a32cd" points="653.3,-322.97 656.96,-332.91 660.3,-322.86 653.3,-322.97"/>
</a>
</g>
<text text-anchor="middle" x="691.5" y="-290.5" font-family="Helvetica,sans-Serif" font-size="10.00" fill="grey"> offset</text>
<text text-anchor="middle" x="691.5" y="-279.5" font-family="Helvetica,sans-Serif" font-size="10.00" fill="grey">origin_pos</text>
<text text-anchor="middle" x="691.5" y="-268.5" font-family="Helvetica,sans-Serif" font-size="10.00" fill="grey">pos</text>
<text text-anchor="middle" x="691.5" y="-257.5" font-family="Helvetica,sans-Serif" font-size="10.00" fill="grey">sizeScaling</text>
<text text-anchor="middle" x="691.5" y="-246.5" font-family="Helvetica,sans-Serif" font-size="10.00" fill="grey">surfaceHeight</text>
<text text-anchor="middle" x="691.5" y="-235.5" font-family="Helvetica,sans-Serif" font-size="10.00" fill="grey">unk_01C</text>
<text text-anchor="middle" x="691.5" y="-224.5" font-family="Helvetica,sans-Serif" font-size="10.00" fill="grey">unk_034</text>
<text text-anchor="middle" x="691.5" y="-213.5" font-family="Helvetica,sans-Serif" font-size="10.00" fill="grey">velocity</text>
</g>
<!-- Node6 -->
<g id="Node000006" class="node">
<title>Node6</title>
<g id="a_Node000006"><a xlink:title=" ">
<polygon fill="white" stroke="#666666" points="34,-352 0,-352 0,-333 34,-333 34,-352"/>
<text text-anchor="middle" x="17" y="-340" font-family="Helvetica,sans-Serif" font-size="10.00">s32</text>
</a>
</g>
</g>
<!-- Node6&#45;&gt;Node2 -->
<g id="edge21_Node000002_Node000006" class="edge">
<title>Node6&#45;&gt;Node2</title>
<g id="a_edge21_Node000002_Node000006"><a xlink:title=" ">
<path fill="none" stroke="#9a32cd" stroke-dasharray="5,2" d="M11.64,-322.92C4.31,-293.76 -5.73,-236.21 15,-194 31.34,-160.72 46.72,-157.12 81,-143 230.69,-81.34 754.25,-76.68 881.82,-76.47"/>
<polygon fill="#9a32cd" stroke="#9a32cd" points="8.36,-324.19 14.34,-332.93 15.12,-322.36 8.36,-324.19"/>
</a>
</g>
<text text-anchor="middle" x="114" y="-157" font-family="Helvetica,sans-Serif" font-size="10.00" fill="grey"> _objectIndex</text>
</g>
<!-- Node6&#45;&gt;Node4 -->
<g id="edge5_Node000004_Node000006" class="edge">
<title>Node6&#45;&gt;Node4</title>
<g id="a_edge5_Node000004_Node000006"><a xlink:title=" ">
<path fill="none" stroke="#9a32cd" stroke-dasharray="5,2" d="M17.78,-322.35C20.24,-290.02 30.27,-225.1 71,-194 85.9,-182.63 360.16,-166.5 443.92,-161.82"/>
<polygon fill="#9a32cd" stroke="#9a32cd" points="14.27,-322.48 17.18,-332.67 21.26,-322.89 14.27,-322.48"/>
</a>
</g>
<text text-anchor="middle" x="92.5" y="-279.5" font-family="Helvetica,sans-Serif" font-size="10.00" fill="grey"> status</text>
<text text-anchor="middle" x="92.5" y="-268.5" font-family="Helvetica,sans-Serif" font-size="10.00" fill="grey">timer</text>
<text text-anchor="middle" x="92.5" y="-257.5" font-family="Helvetica,sans-Serif" font-size="10.00" fill="grey">unk_048</text>
<text text-anchor="middle" x="92.5" y="-246.5" font-family="Helvetica,sans-Serif" font-size="10.00" fill="grey">unk_04C</text>
<text text-anchor="middle" x="92.5" y="-235.5" font-family="Helvetica,sans-Serif" font-size="10.00" fill="grey">unk_058</text>
<text text-anchor="middle" x="92.5" y="-224.5" font-family="Helvetica,sans-Serif" font-size="10.00" fill="grey">unk_05C</text>
</g>
<!-- Node7 -->
<g id="Node000007" class="node">
<title>Node7</title>
<g id="a_Node000007"><a xlink:title=" ">
<polygon fill="white" stroke="#666666" points="158.5,-352 83.5,-352 83.5,-333 158.5,-333 158.5,-352"/>
<text text-anchor="middle" x="121" y="-340" font-family="Helvetica,sans-Serif" font-size="10.00">const char *</text>
</a>
</g>
</g>
<!-- Node7&#45;&gt;Node2 -->
<g id="edge19_Node000002_Node000007" class="edge">
<title>Node7&#45;&gt;Node2</title>
<g id="a_edge19_Node000002_Node000007"><a xlink:title=" ">
<path fill="none" stroke="#9a32cd" stroke-dasharray="5,2" d="M113.31,-323.65C101.58,-293.31 83.6,-231.35 114,-194 163.82,-132.79 746.05,-88.08 881.82,-78.44"/>
<polygon fill="#9a32cd" stroke="#9a32cd" points="110.1,-325.03 117.11,-332.97 116.58,-322.39 110.1,-325.03"/>
</a>
</g>
<text text-anchor="middle" x="315.5" y="-168" font-family="Helvetica,sans-Serif" font-size="10.00" fill="grey"> Model</text>
<text text-anchor="middle" x="315.5" y="-157" font-family="Helvetica,sans-Serif" font-size="10.00" fill="grey">Name</text>
<text text-anchor="middle" x="315.5" y="-146" font-family="Helvetica,sans-Serif" font-size="10.00" fill="grey">ResourceName</text>
</g>
<!-- Node7&#45;&gt;Node4 -->
<g id="edge6_Node000004_Node000007" class="edge">
<title>Node7&#45;&gt;Node4</title>
<g id="a_edge6_Node000004_Node000007"><a xlink:title=" ">
<path fill="none" stroke="#9a32cd" stroke-dasharray="5,2" d="M119.43,-322.88C116.87,-287.37 113.67,-211.88 131,-194 152.74,-171.57 370.59,-163.29 444,-161.13"/>
<polygon fill="#9a32cd" stroke="#9a32cd" points="115.94,-323.19 120.21,-332.89 122.92,-322.64 115.94,-323.19"/>
</a>
</g>
<text text-anchor="middle" x="164.5" y="-257.5" font-family="Helvetica,sans-Serif" font-size="10.00" fill="grey"> activeTLUT</text>
<text text-anchor="middle" x="164.5" y="-246.5" font-family="Helvetica,sans-Serif" font-size="10.00" fill="grey">activeTexture</text>
</g>
<!-- Node8 -->
<g id="Node000008" class="node">
<title>Node8</title>
<g id="a_Node000008"><a xlink:title=" ">
<polygon fill="white" stroke="#666666" points="763.5,-352 734.5,-352 734.5,-333 763.5,-333 763.5,-352"/>
<text text-anchor="middle" x="749" y="-340" font-family="Helvetica,sans-Serif" font-size="10.00">u8</text>
</a>
</g>
</g>
<!-- Node8&#45;&gt;Node4 -->
<g id="edge7_Node000004_Node000008" class="edge">
<title>Node8&#45;&gt;Node4</title>
<g id="a_edge7_Node000004_Node000008"><a xlink:title=" ">
<path fill="none" stroke="#9a32cd" stroke-dasharray="5,2" d="M748.91,-322.83C748.32,-287.23 744.93,-211.59 727,-194 694.06,-161.7 549.83,-159.58 492.05,-160.07"/>
<polygon fill="#9a32cd" stroke="#9a32cd" points="745.41,-322.9 749.02,-332.86 752.41,-322.82 745.41,-322.9"/>
</a>
</g>
<text text-anchor="middle" x="784.5" y="-307" font-family="Helvetica,sans-Serif" font-size="10.00" fill="grey"> textureHeight</text>
<text text-anchor="middle" x="784.5" y="-296" font-family="Helvetica,sans-Serif" font-size="10.00" fill="grey">textureWidth</text>
<text text-anchor="middle" x="784.5" y="-285" font-family="Helvetica,sans-Serif" font-size="10.00" fill="grey">tlutList</text>
<text text-anchor="middle" x="784.5" y="-274" font-family="Helvetica,sans-Serif" font-size="10.00" fill="grey">unk_0D5</text>
<text text-anchor="middle" x="784.5" y="-263" font-family="Helvetica,sans-Serif" font-size="10.00" fill="grey">unk_0D6</text>
<text text-anchor="middle" x="784.5" y="-252" font-family="Helvetica,sans-Serif" font-size="10.00" fill="grey">unk_0D7</text>
<text text-anchor="middle" x="784.5" y="-241" font-family="Helvetica,sans-Serif" font-size="10.00" fill="grey">unk_0D8</text>
<text text-anchor="middle" x="784.5" y="-230" font-family="Helvetica,sans-Serif" font-size="10.00" fill="grey">unk_0DB</text>
<text text-anchor="middle" x="784.5" y="-219" font-family="Helvetica,sans-Serif" font-size="10.00" fill="grey">unk_0DC</text>
<text text-anchor="middle" x="784.5" y="-208" font-family="Helvetica,sans-Serif" font-size="10.00" fill="grey">unk_0DD</text>
<text text-anchor="middle" x="784.5" y="-197" font-family="Helvetica,sans-Serif" font-size="10.00" fill="grey">...</text>
</g>
<!-- Node9 -->
<g id="Node000009" class="node">
<title>Node9</title>
<g id="a_Node000009"><a xlink:title=" ">
<polygon fill="white" stroke="#666666" points="883,-352 803,-352 803,-333 883,-333 883,-352"/>
<text text-anchor="middle" x="843" y="-340" font-family="Helvetica,sans-Serif" font-size="10.00">const char **</text>
</a>
</g>
</g>
<!-- Node9&#45;&gt;Node4 -->
<g id="edge8_Node000004_Node000009" class="edge">
<title>Node9&#45;&gt;Node4</title>
<g id="a_edge8_Node000004_Node000009"><a xlink:title=" ">
<path fill="none" stroke="#9a32cd" stroke-dasharray="5,2" d="M840.81,-322.6C836.21,-283.8 825.64,-198.4 821,-194 797.18,-171.42 568.1,-163.21 492.25,-161.1"/>
<polygon fill="#9a32cd" stroke="#9a32cd" points="837.34,-323.09 841.98,-332.61 844.29,-322.27 837.34,-323.09"/>
</a>
</g>
<text text-anchor="middle" x="868" y="-252" font-family="Helvetica,sans-Serif" font-size="10.00" fill="grey"> textureList</text>
</g>
<!-- Node10 -->
<g id="Node000010" class="node">
<title>Node10</title>
<g id="a_Node000010"><a xlink:title=" ">
<polygon fill="white" stroke="#666666" points="239,-352 205,-352 205,-333 239,-333 239,-352"/>
<text text-anchor="middle" x="222" y="-340" font-family="Helvetica,sans-Serif" font-size="10.00">Gfx</text>
</a>
</g>
</g>
<!-- Node10&#45;&gt;Node4 -->
<g id="edge9_Node000004_Node000010" class="edge">
<title>Node10&#45;&gt;Node4</title>
<g id="a_edge9_Node000004_Node000010"><a xlink:title=" ">
<path fill="none" stroke="#9a32cd" stroke-dasharray="5,2" d="M214.92,-323.41C204.22,-292.71 188.34,-230.22 220,-194 248.95,-160.88 387.27,-159.19 443.83,-159.94"/>
<polygon fill="#9a32cd" stroke="#9a32cd" points="211.66,-324.68 218.4,-332.85 218.22,-322.25 211.66,-324.68"/>
</a>
</g>
<text text-anchor="middle" x="237" y="-252" font-family="Helvetica,sans-Serif" font-size="10.00" fill="grey"> model</text>
</g>
<!-- Node11 -->
<g id="Node000011" class="node">
<title>Node11</title>
<g id="a_Node000011"><a xlink:title=" ">
<polygon fill="white" stroke="#666666" points="292.5,-352 259.5,-352 259.5,-333 292.5,-333 292.5,-352"/>
<text text-anchor="middle" x="276" y="-340" font-family="Helvetica,sans-Serif" font-size="10.00">Vtx</text>
</a>
</g>
</g>
<!-- Node11&#45;&gt;Node4 -->
<g id="edge10_Node000004_Node000011" class="edge">
<title>Node11&#45;&gt;Node4</title>
<g id="a_edge10_Node000004_Node000011"><a xlink:title=" ">
<path fill="none" stroke="#9a32cd" stroke-dasharray="5,2" d="M269.44,-323.11C259.8,-292.44 246.07,-230.57 277,-194 298.14,-169 397.41,-162.65 443.89,-161.04"/>
<polygon fill="#9a32cd" stroke="#9a32cd" points="266.23,-324.53 272.72,-332.9 272.87,-322.31 266.23,-324.53"/>
</a>
</g>
<text text-anchor="middle" x="294.5" y="-252" font-family="Helvetica,sans-Serif" font-size="10.00" fill="grey"> vertex</text>
</g>
<!-- Node12 -->
<g id="Node000012" class="node">
<title>Node12</title>
<g id="a_Node000012"><a xlink:title=" ">
<polygon fill="white" stroke="#666666" points="339.5,-352 310.5,-352 310.5,-333 339.5,-333 339.5,-352"/>
<text text-anchor="middle" x="325" y="-340" font-family="Helvetica,sans-Serif" font-size="10.00">s8</text>
</a>
</g>
</g>
<!-- Node12&#45;&gt;Node4 -->
<g id="edge11_Node000004_Node000012" class="edge">
<title>Node12&#45;&gt;Node4</title>
<g id="a_edge11_Node000004_Node000012"><a xlink:title=" ">
<path fill="none" stroke="#9a32cd" stroke-dasharray="5,2" d="M320.55,-323.14C314.31,-292.49 306.91,-230.67 338,-194 351.53,-178.05 410,-167.99 443.74,-163.41"/>
<polygon fill="#9a32cd" stroke="#9a32cd" points="317.14,-323.91 322.73,-332.91 323.97,-322.39 317.14,-323.91"/>
</a>
</g>
<text text-anchor="middle" x="378" y="-307" font-family="Helvetica,sans-Serif" font-size="10.00" fill="grey"> isTimerActive</text>
<text text-anchor="middle" x="378" y="-296" font-family="Helvetica,sans-Serif" font-size="10.00" fill="grey">textureListIndex</text>
<text text-anchor="middle" x="378" y="-285" font-family="Helvetica,sans-Serif" font-size="10.00" fill="grey">unk_078</text>
<text text-anchor="middle" x="378" y="-274" font-family="Helvetica,sans-Serif" font-size="10.00" fill="grey">unk_0CA</text>
<text text-anchor="middle" x="378" y="-263" font-family="Helvetica,sans-Serif" font-size="10.00" fill="grey">unk_0CC</text>
<text text-anchor="middle" x="378" y="-252" font-family="Helvetica,sans-Serif" font-size="10.00" fill="grey">unk_0CD</text>
<text text-anchor="middle" x="378" y="-241" font-family="Helvetica,sans-Serif" font-size="10.00" fill="grey">unk_0CE</text>
<text text-anchor="middle" x="378" y="-230" font-family="Helvetica,sans-Serif" font-size="10.00" fill="grey">unk_0CF</text>
<text text-anchor="middle" x="378" y="-219" font-family="Helvetica,sans-Serif" font-size="10.00" fill="grey">unk_0D0</text>
<text text-anchor="middle" x="378" y="-208" font-family="Helvetica,sans-Serif" font-size="10.00" fill="grey">unk_0D1</text>
<text text-anchor="middle" x="378" y="-197" font-family="Helvetica,sans-Serif" font-size="10.00" fill="grey">...</text>
</g>
<!-- Node13 -->
<g id="Node000013" class="node">
<title>Node13</title>
<g id="a_Node000013"><a xlink:href="structSplineControlPoint.html" target="_top" xlink:title=" ">
<polygon fill="white" stroke="#666666" points="441.5,-528 334.5,-528 334.5,-509 441.5,-509 441.5,-528"/>
<text text-anchor="middle" x="388" y="-516" font-family="Helvetica,sans-Serif" font-size="10.00">SplineControlPoint</text>
</a>
</g>
</g>
<!-- Node13&#45;&gt;Node4 -->
<g id="edge12_Node000004_Node000013" class="edge">
<title>Node13&#45;&gt;Node4</title>
<g id="a_edge12_Node000004_Node000013"><a xlink:title=" ">
<path fill="none" stroke="#9a32cd" stroke-dasharray="5,2" d="M381.83,-499.19C371.19,-464.11 353.42,-386.19 385,-333 393.53,-318.63 407.54,-328.03 418,-315 453.05,-271.35 433.74,-246.56 453,-194 456.16,-185.38 460.51,-175.86 463.71,-169.18"/>
<polygon fill="#9a32cd" stroke="#9a32cd" points="378.58,-500.53 384.96,-508.99 385.25,-498.4 378.58,-500.53"/>
</a>
</g>
<text text-anchor="middle" x="418.5" y="-340" font-family="Helvetica,sans-Serif" font-size="10.00" fill="grey"> controlPoints</text>
</g>
<!-- Node15 -->
<g id="Node000015" class="node">
<title>Node15</title>
<g id="a_Node000015"><a xlink:href="structSplineData.html" target="_top" xlink:title=" ">
<polygon fill="white" stroke="#666666" points="531,-352 461,-352 461,-333 531,-333 531,-352"/>
<text text-anchor="middle" x="496" y="-340" font-family="Helvetica,sans-Serif" font-size="10.00">SplineData</text>
</a>
</g>
</g>
<!-- Node13&#45;&gt;Node15 -->
<g id="edge16_Node000015_Node000013" class="edge">
<title>Node13&#45;&gt;Node15</title>
<g id="a_edge16_Node000015_Node000013"><a xlink:title=" ">
<path fill="none" stroke="#9a32cd" stroke-dasharray="5,2" d="M388.38,-498.63C389.47,-463.29 393.7,-388.96 410,-370 416.82,-362.06 440.07,-355.17 460.67,-350.41"/>
<polygon fill="#9a32cd" stroke="#9a32cd" points="384.87,-498.9 388.12,-508.99 391.87,-499.08 384.87,-498.9"/>
</a>
</g>
<text text-anchor="middle" x="443.5" y="-428" font-family="Helvetica,sans-Serif" font-size="10.00" fill="grey"> controlPoints</text>
</g>
<!-- Node14 -->
<g id="Node000014" class="node">
<title>Node14</title>
<g id="a_Node000014"><a xlink:title=" ">
<polygon fill="white" stroke="#666666" points="495,-605 461,-605 461,-586 495,-586 495,-605"/>
<text text-anchor="middle" x="478" y="-593" font-family="Helvetica,sans-Serif" font-size="10.00">s16</text>
</a>
</g>
</g>
<!-- Node14&#45;&gt;Node4 -->
<g id="edge17_Node000004_Node000014" class="edge">
<title>Node14&#45;&gt;Node4</title>
<g id="a_edge17_Node000004_Node000014"><a xlink:title=" ">
<path fill="none" stroke="#9a32cd" stroke-dasharray="5,2" d="M504.72,-585.51C529.26,-575.66 564.16,-557.24 580,-528 584.02,-520.58 580.94,-517.39 580,-509 571.06,-429.28 568.65,-407.92 540,-333 536.73,-324.45 533.29,-323.54 530,-315 510.18,-263.48 528.95,-242.17 502,-194 496.5,-184.16 487.25,-175.32 479.78,-169.2"/>
<polygon fill="#9a32cd" stroke="#9a32cd" points="503.35,-582.28 495.24,-589.1 505.83,-588.83 503.35,-582.28"/>
</a>
</g>
<text text-anchor="middle" x="605" y="-483" font-family="Helvetica,sans-Serif" font-size="10.00" fill="grey"> primAlpha</text>
<text text-anchor="middle" x="605" y="-472" font-family="Helvetica,sans-Serif" font-size="10.00" fill="grey">state</text>
<text text-anchor="middle" x="605" y="-461" font-family="Helvetica,sans-Serif" font-size="10.00" fill="grey">type</text>
<text text-anchor="middle" x="605" y="-450" font-family="Helvetica,sans-Serif" font-size="10.00" fill="grey">unk_084</text>
<text text-anchor="middle" x="605" y="-439" font-family="Helvetica,sans-Serif" font-size="10.00" fill="grey">unk_09C</text>
<text text-anchor="middle" x="605" y="-428" font-family="Helvetica,sans-Serif" font-size="10.00" fill="grey">unk_09E</text>
<text text-anchor="middle" x="605" y="-417" font-family="Helvetica,sans-Serif" font-size="10.00" fill="grey">unk_0A2</text>
<text text-anchor="middle" x="605" y="-406" font-family="Helvetica,sans-Serif" font-size="10.00" fill="grey">unk_0A8</text>
<text text-anchor="middle" x="605" y="-395" font-family="Helvetica,sans-Serif" font-size="10.00" fill="grey">unk_0AA</text>
<text text-anchor="middle" x="605" y="-384" font-family="Helvetica,sans-Serif" font-size="10.00" fill="grey">unk_0AC</text>
<text text-anchor="middle" x="605" y="-373" font-family="Helvetica,sans-Serif" font-size="10.00" fill="grey">...</text>
</g>
<!-- Node14&#45;&gt;Node13 -->
<g id="edge13_Node000013_Node000014" class="edge">
<title>Node14&#45;&gt;Node13</title>
<g id="a_edge13_Node000013_Node000014"><a xlink:title=" ">
<path fill="none" stroke="#9a32cd" stroke-dasharray="5,2" d="M451.48,-584.53C442.21,-580.29 432.1,-574.74 424,-568 410.14,-556.46 398.65,-538.53 392.61,-528.01"/>
<polygon fill="#9a32cd" stroke="#9a32cd" points="450.15,-587.77 460.72,-588.48 452.9,-581.33 450.15,-587.77"/>
</a>
</g>
<text text-anchor="middle" x="444" y="-560" font-family="Helvetica,sans-Serif" font-size="10.00" fill="grey"> pos</text>
<text text-anchor="middle" x="444" y="-549" font-family="Helvetica,sans-Serif" font-size="10.00" fill="grey">velocity</text>
</g>
<!-- Node14&#45;&gt;Node15 -->
<g id="edge15_Node000015_Node000014" class="edge">
<title>Node14&#45;&gt;Node15</title>
<g id="a_edge15_Node000015_Node000014"><a xlink:title=" ">
<path fill="none" stroke="#9a32cd" stroke-dasharray="5,2" d="M479.35,-575.73C482.97,-525.23 492.82,-387.86 495.38,-352.1"/>
<polygon fill="#9a32cd" stroke="#9a32cd" points="475.84,-575.64 478.62,-585.86 482.83,-576.14 475.84,-575.64"/>
</a>
</g>
<text text-anchor="middle" x="530.5" y="-516" font-family="Helvetica,sans-Serif" font-size="10.00" fill="grey"> numControlPoints</text>
</g>
<!-- Node15&#45;&gt;Node4 -->
<g id="edge14_Node000004_Node000015" class="edge">
<title>Node15&#45;&gt;Node4</title>
<g id="a_edge14_Node000004_Node000015"><a xlink:title=" ">
<path fill="none" stroke="#9a32cd" stroke-dasharray="5,2" d="M476.3,-326.03C473.33,-322.73 470.7,-319.01 469,-315 447.24,-263.62 460.18,-193.74 465.8,-169.34"/>
<polygon fill="#9a32cd" stroke="#9a32cd" points="473.9,-328.57 483.56,-332.92 478.72,-323.5 473.9,-328.57"/>
</a>
</g>
<text text-anchor="middle" x="485.5" y="-252" font-family="Helvetica,sans-Serif" font-size="10.00" fill="grey"> spline</text>
</g>
<!-- Node16 -->
<g id="Node000016" class="node">
<title>Node16</title>
<g id="a_Node000016"><a xlink:title=" ">
<polygon fill="white" stroke="#666666" points="622.5,-352 587.5,-352 587.5,-333 622.5,-333 622.5,-352"/>
<text text-anchor="middle" x="605" y="-340" font-family="Helvetica,sans-Serif" font-size="10.00">u16</text>
</a>
</g>
</g>
<!-- Node16&#45;&gt;Node4 -->
<g id="edge18_Node000004_Node000016" class="edge">
<title>Node16&#45;&gt;Node4</title>
<g id="a_edge18_Node000004_Node000016"><a xlink:title=" ">
<path fill="none" stroke="#9a32cd" stroke-dasharray="5,2" d="M577.99,-334.23C567.77,-330.17 556.95,-324.05 550,-315 516.66,-271.58 558.86,-238.52 527,-194 518.5,-182.12 504.39,-173.89 492.1,-168.56"/>
<polygon fill="#9a32cd" stroke="#9a32cd" points="576.85,-337.54 587.45,-337.52 579.15,-330.93 576.85,-337.54"/>
</a>
</g>
<text text-anchor="middle" x="592.5" y="-290.5" font-family="Helvetica,sans-Serif" font-size="10.00" fill="grey"> animationTimer</text>
<text text-anchor="middle" x="592.5" y="-279.5" font-family="Helvetica,sans-Serif" font-size="10.00" fill="grey">boundingBoxSize</text>
<text text-anchor="middle" x="592.5" y="-268.5" font-family="Helvetica,sans-Serif" font-size="10.00" fill="grey">direction_angle</text>
<text text-anchor="middle" x="592.5" y="-257.5" font-family="Helvetica,sans-Serif" font-size="10.00" fill="grey">orientation</text>
<text text-anchor="middle" x="592.5" y="-246.5" font-family="Helvetica,sans-Serif" font-size="10.00" fill="grey">unk_09A</text>
<text text-anchor="middle" x="592.5" y="-235.5" font-family="Helvetica,sans-Serif" font-size="10.00" fill="grey">unk_0B8</text>
<text text-anchor="middle" x="592.5" y="-224.5" font-family="Helvetica,sans-Serif" font-size="10.00" fill="grey">unk_0C4</text>
<text text-anchor="middle" x="592.5" y="-213.5" font-family="Helvetica,sans-Serif" font-size="10.00" fill="grey">unk_0C6</text>
</g>
<!-- Node17 -->
<g id="Node000017" class="node">
<title>Node17</title>
<g id="a_Node000017"><a xlink:title=" ">
<polygon fill="white" stroke="#666666" points="1242,-169 1204,-169 1204,-150 1242,-150 1242,-169"/>
<text text-anchor="middle" x="1223" y="-157" font-family="Helvetica,sans-Serif" font-size="10.00">bool</text>
</a>
</g>
</g>
<!-- Node17&#45;&gt;Node1 -->
<g id="edge30_Node000001_Node000017" class="edge">
<title>Node17&#45;&gt;Node1</title>
<g id="a_edge30_Node000001_Node000017"><a xlink:title=" ">
<path fill="none" stroke="#9a32cd" stroke-dasharray="5,2" d="M1223.09,-139.62C1223.76,-120.45 1226.44,-90.22 1236,-66 1243.27,-47.6 1257.79,-29.45 1266.92,-19.14"/>
<polygon fill="#9a32cd" stroke="#9a32cd" points="1219.58,-139.67 1222.89,-149.74 1226.58,-139.81 1219.58,-139.67"/>
</a>
</g>
<text text-anchor="middle" x="1256" y="-73" font-family="Helvetica,sans-Serif" font-size="10.00" fill="grey"> _toggle</text>
</g>
<!-- Node17&#45;&gt;Node2 -->
<g id="edge20_Node000002_Node000017" class="edge">
<title>Node17&#45;&gt;Node2</title>
<g id="a_edge20_Node000002_Node000017"><a xlink:title=" ">
<path fill="none" stroke="#9a32cd" stroke-dasharray="5,2" d="M1196.86,-145.75C1194.56,-144.77 1192.25,-143.84 1190,-143 1162.31,-132.68 1151.66,-139.65 1126,-125 1113.71,-117.99 1115.74,-109.15 1103,-103 1074.52,-89.25 984.67,-81.45 938.3,-78.24"/>
<polygon fill="#9a32cd" stroke="#9a32cd" points="1195.55,-148.99 1206.1,-149.91 1198.42,-142.61 1195.55,-148.99"/>
</a>
</g>
<text text-anchor="middle" x="1169.5" y="-111.5" font-family="Helvetica,sans-Serif" font-size="10.00" fill="grey"> bPendingDestroy</text>
</g>
<!-- Node18 -->
<g id="Node000018" class="node">
<title>Node18</title>
<g id="a_Node000018"><a xlink:href="structFVector.html" target="_top" xlink:title=" ">
<polygon fill="white" stroke="#666666" points="910.5,-169 857.5,-169 857.5,-150 910.5,-150 910.5,-169"/>
<text text-anchor="middle" x="884" y="-157" font-family="Helvetica,sans-Serif" font-size="10.00">FVector</text>
</a>
</g>
</g>
<!-- Node18&#45;&gt;Node2 -->
<g id="edge22_Node000002_Node000018" class="edge">
<title>Node18&#45;&gt;Node2</title>
<g id="a_edge22_Node000002_Node000018"><a xlink:title=" ">
<path fill="none" stroke="#9a32cd" stroke-dasharray="5,2" d="M875.24,-140.48C871.06,-129.19 868.11,-114.64 874,-103 877.85,-95.38 885.04,-89.42 891.99,-85.09"/>
<polygon fill="#9a32cd" stroke="#9a32cd" points="872.06,-141.93 879.21,-149.74 878.49,-139.17 872.06,-141.93"/>
</a>
</g>
<text text-anchor="middle" x="903.5" y="-117" font-family="Helvetica,sans-Serif" font-size="10.00" fill="grey"> SpawnPos</text>
<text text-anchor="middle" x="903.5" y="-106" font-family="Helvetica,sans-Serif" font-size="10.00" fill="grey">SpawnScale</text>
</g>
<!-- Node19 -->
<g id="Node000019" class="node">
<title>Node19</title>
<g id="a_Node000019"><a xlink:title=" ">
<polygon fill="white" stroke="#666666" points="953,-352 915,-352 915,-333 953,-333 953,-352"/>
<text text-anchor="middle" x="934" y="-340" font-family="Helvetica,sans-Serif" font-size="10.00">float</text>
</a>
</g>
</g>
<!-- Node19&#45;&gt;Node2 -->
<g id="edge26_Node000002_Node000019" class="edge">
<title>Node19&#45;&gt;Node2</title>
<g id="a_edge26_Node000002_Node000019"><a xlink:title=" ">
<path fill="none" stroke="#9a32cd" stroke-dasharray="5,2" d="M938.15,-322.93C946.47,-281.74 962.03,-180.23 933,-103 930.43,-96.16 925.21,-89.91 920.4,-85.2"/>
<polygon fill="#9a32cd" stroke="#9a32cd" points="934.69,-322.37 936.04,-332.88 941.54,-323.82 934.69,-322.37"/>
</a>
</g>
<text text-anchor="middle" x="966" y="-157" font-family="Helvetica,sans-Serif" font-size="10.00" fill="grey"> Speed</text>
</g>
<!-- Node19&#45;&gt;Node18 -->
<g id="edge23_Node000018_Node000019" class="edge">
<title>Node19&#45;&gt;Node18</title>
<g id="a_edge23_Node000018_Node000019"><a xlink:title=" ">
<path fill="none" stroke="#9a32cd" stroke-dasharray="5,2" d="M925.92,-323.43C924.85,-320.64 923.83,-317.77 923,-315 907.31,-262.56 917.05,-246.02 900,-194 897.11,-185.18 892.41,-175.68 888.85,-169.06"/>
<polygon fill="#9a32cd" stroke="#9a32cd" points="922.77,-324.97 929.87,-332.83 929.23,-322.26 922.77,-324.97"/>
</a>
</g>
<text text-anchor="middle" x="928" y="-263" font-family="Helvetica,sans-Serif" font-size="10.00" fill="grey"> x</text>
<text text-anchor="middle" x="928" y="-252" font-family="Helvetica,sans-Serif" font-size="10.00" fill="grey">y</text>
<text text-anchor="middle" x="928" y="-241" font-family="Helvetica,sans-Serif" font-size="10.00" fill="grey">z</text>
</g>
<!-- Node20 -->
<g id="Node000020" class="node">
<title>Node20</title>
<g id="a_Node000020"><a xlink:href="structIRotator.html" target="_top" xlink:title=" ">
<polygon fill="white" stroke="#666666" points="1055,-169 999,-169 999,-150 1055,-150 1055,-169"/>
<text text-anchor="middle" x="1027" y="-157" font-family="Helvetica,sans-Serif" font-size="10.00">IRotator</text>
</a>
</g>
</g>
<!-- Node20&#45;&gt;Node2 -->
<g id="edge24_Node000002_Node000020" class="edge">
<title>Node20&#45;&gt;Node2</title>
<g id="a_edge24_Node000002_Node000020"><a xlink:title=" ">
<path fill="none" stroke="#9a32cd" stroke-dasharray="5,2" d="M1005.75,-143.93C997.81,-138.25 988.82,-131.54 981,-125 970.15,-115.93 969.4,-111.38 958,-103 948.64,-96.12 937.3,-89.78 927.99,-85.03"/>
<polygon fill="#9a32cd" stroke="#9a32cd" points="1003.97,-146.95 1014.16,-149.84 1007.99,-141.22 1003.97,-146.95"/>
</a>
</g>
<text text-anchor="middle" x="1007" y="-111.5" font-family="Helvetica,sans-Serif" font-size="10.00" fill="grey"> SpawnRot</text>
</g>
<!-- Node21 -->
<g id="Node000021" class="node">
<title>Node21</title>
<g id="a_Node000021"><a xlink:title=" ">
<polygon fill="white" stroke="#666666" points="1055,-352 999,-352 999,-333 1055,-333 1055,-352"/>
<text text-anchor="middle" x="1027" y="-340" font-family="Helvetica,sans-Serif" font-size="10.00">uint16_t</text>
</a>
</g>
</g>
<!-- Node21&#45;&gt;Node20 -->
<g id="edge25_Node000020_Node000021" class="edge">
<title>Node21&#45;&gt;Node20</title>
<g id="a_edge25_Node000020_Node000021"><a xlink:title=" ">
<path fill="none" stroke="#9a32cd" stroke-dasharray="5,2" d="M1027,-322.38C1027,-283.54 1027,-196.79 1027,-169.14"/>
<polygon fill="#9a32cd" stroke="#9a32cd" points="1023.5,-322.77 1027,-332.77 1030.5,-322.77 1023.5,-322.77"/>
</a>
</g>
<text text-anchor="middle" x="1041" y="-263" font-family="Helvetica,sans-Serif" font-size="10.00" fill="grey"> pitch</text>
<text text-anchor="middle" x="1041" y="-252" font-family="Helvetica,sans-Serif" font-size="10.00" fill="grey">roll</text>
<text text-anchor="middle" x="1041" y="-241" font-family="Helvetica,sans-Serif" font-size="10.00" fill="grey">yaw</text>
</g>
<!-- Node22 -->
<g id="Node000022" class="node">
<title>Node22</title>
<g id="a_Node000022"><a xlink:title=" ">
<polygon fill="white" stroke="#666666" points="1181,-169 1073,-169 1073,-150 1181,-150 1181,-169"/>
<text text-anchor="middle" x="1127" y="-157" font-family="Helvetica,sans-Serif" font-size="10.00">vector&lt; Triangle &gt;</text>
</a>
</g>
</g>
<!-- Node22&#45;&gt;Node2 -->
<g id="edge27_Node000002_Node000022" class="edge">
<title>Node22&#45;&gt;Node2</title>
<g id="a_edge27_Node000002_Node000022"><a xlink:title=" ">
<path fill="none" stroke="#9a32cd" stroke-dasharray="5,2" d="M1094.98,-146.02C1082.34,-140.44 1068,-133.24 1056,-125 1044.34,-116.99 1045.5,-109.63 1033,-103 1002.99,-87.08 964.06,-80.73 938.11,-78.19"/>
<polygon fill="#9a32cd" stroke="#9a32cd" points="1093.68,-149.27 1104.25,-149.97 1096.42,-142.83 1093.68,-149.27"/>
</a>
</g>
<text text-anchor="middle" x="1079.5" y="-111.5" font-family="Helvetica,sans-Serif" font-size="10.00" fill="grey"> Triangles</text>
</g>
<!-- Node23 -->
<g id="Node000023" class="node">
<title>Node23</title>
<g id="a_Node000023"><a xlink:title=" ">
<polygon fill="white" stroke="#666666" points="1363,-85 1285,-85 1285,-66 1363,-66 1363,-85"/>
<text text-anchor="middle" x="1324" y="-73" font-family="Helvetica,sans-Serif" font-size="10.00">PenguinType</text>
</a>
</g>
</g>
<!-- Node23&#45;&gt;Node1 -->
<g id="edge28_Node000001_Node000023" class="edge">
<title>Node23&#45;&gt;Node1</title>
<g id="a_edge28_Node000001_Node000023"><a xlink:title=" ">
<path fill="none" stroke="#9a32cd" stroke-dasharray="5,2" d="M1311.19,-57.77C1301.79,-45.49 1289.39,-29.3 1281.82,-19.41"/>
<polygon fill="#9a32cd" stroke="#9a32cd" points="1308.53,-60.06 1317.39,-65.87 1314.09,-55.8 1308.53,-60.06"/>
</a>
</g>
<text text-anchor="middle" x="1316" y="-40" font-family="Helvetica,sans-Serif" font-size="10.00" fill="grey"> Type</text>
</g>
<!-- Node24 -->
<g id="Node000024" class="node">
<title>Node24</title>
<g id="a_Node000024"><a xlink:title=" ">
<polygon fill="white" stroke="#666666" points="1447,-85 1381,-85 1381,-66 1447,-66 1447,-85"/>
<text text-anchor="middle" x="1414" y="-73" font-family="Helvetica,sans-Serif" font-size="10.00">Behaviour</text>
</a>
</g>
</g>
<!-- Node24&#45;&gt;Node1 -->
<g id="edge29_Node000001_Node000024" class="edge">
<title>Node24&#45;&gt;Node1</title>
<g id="a_edge29_Node000001_Node000024"><a xlink:title=" ">
<path fill="none" stroke="#9a32cd" stroke-dasharray="5,2" d="M1386.54,-61.74C1370.86,-54.47 1350.84,-45.2 1333,-37 1319.92,-30.99 1305.17,-24.25 1293.82,-19.07"/>
<polygon fill="#9a32cd" stroke="#9a32cd" points="1385.13,-64.95 1395.68,-65.98 1388.08,-58.6 1385.13,-64.95"/>
</a>
</g>
<text text-anchor="middle" x="1382.5" y="-40" font-family="Helvetica,sans-Serif" font-size="10.00" fill="grey"> SpawnBhv</text>
</g>
</g>
</svg>

<g id="navigator" transform="translate(0 0)" fill="#404254">
  <rect fill="#f2f5e9" fill-opacity="0.5" stroke="#606060" stroke-width=".5" x="0" y="0" width="60" height="60"/>
  <use id="zoomplus" xlink:href="#zoomPlus" x="17" y="9" onmousedown="handleZoom(evt,'in')"/>
  <use id="zoomminus" xlink:href="#zoomMin" x="42" y="9" onmousedown="handleZoom(evt,'out')"/>
  <use id="reset" xlink:href="#resetDef" x="30" y="36" onmousedown="handleReset()"/>
   <use id="arrowup" xlink:href="#arrowUp" x="0" y="0" onmousedown="handlePan(0,-1)"/>
  <use id="arrowright" xlink:href="#arrowRight" x="0" y="0" onmousedown="handlePan(1,0)"/>
  <use id="arrowdown" xlink:href="#arrowDown" x="0" y="0" onmousedown="handlePan(0,1)"/>
  <use id="arrowleft" xlink:href="#arrowLeft" x="0" y="0" onmousedown="handlePan(-1,0)"/>
</g>
<svg viewBox="0 0 15 15" width="100%" height="30px" preserveAspectRatio="xMaxYMin meet">
 <g id="arrow_out" transform="scale(0.3 0.3)">
  <a xlink:href="classOPenguin__coll__graph_org.svg" target="_base">
   <rect id="button" ry="5" rx="5" y="6" x="6" height="38" width="38"
        fill="#f2f5e9" fill-opacity="0.5" stroke="#606060" stroke-width="1.0"/>
   <path id="arrow"
     d="M 11.500037,31.436501 C 11.940474,20.09759 22.043105,11.32322 32.158766,21.979434 L 37.068811,17.246167 C 37.068811,17.246167 37.088388,32 37.088388,32 L 22.160133,31.978069 C 22.160133,31.978069 26.997745,27.140456 26.997745,27.140456 C 18.528582,18.264221 13.291696,25.230495 11.500037,31.436501 z"
     style="fill:#404040;"/>
  </a>
 </g>
</svg>

<style type='text/css'>
<![CDATA[
[data-mouse-over-selected='false'] { opacity: 0.7; }
[data-mouse-over-selected='true']  { opacity: 1.0; }
]]>
</style>
<script type="application/ecmascript"><![CDATA[
document.addEventListener('DOMContentLoaded', (event) => {
  highlightEdges();
  highlightAdjacentNodes();
});
]]></script>
</svg>
