<?xml version="1.0" encoding="UTF-8" standalone="no"?>
<!DOCTYPE svg PUBLIC "-//W3C//DTD SVG 1.1//EN"
 "http://www.w3.org/Graphics/SVG/1.1/DTD/svg11.dtd">
<!-- Generated by graphviz version 2.43.0 (0)
 -->
<!-- Title: pfd::notify Pages: 1 -->
<svg width="385pt" height="160pt"
 viewBox="0.00 0.00 385.00 160.00" xmlns="http://www.w3.org/2000/svg" xmlns:xlink="http://www.w3.org/1999/xlink">
<g id="graph0" class="graph" transform="scale(1 1) rotate(0) translate(4 156)">
<title>pfd::notify</title>
<!-- Node1 -->
<g id="Node000001" class="node">
<title>Node1</title>
<g id="a_Node000001"><a xlink:title=" ">
<polygon fill="#999999" stroke="#666666" points="190.5,-19 124.5,-19 124.5,0 190.5,0 190.5,-19"/>
<text text-anchor="middle" x="157.5" y="-7" font-family="Helvetica,sans-Serif" font-size="10.00">pfd::notify</text>
</a>
</g>
</g>
<!-- Node2 -->
<g id="Node000002" class="node">
<title>Node2</title>
<g id="a_Node000002"><a xlink:href="classpfd_1_1internal_1_1dialog.html" target="_top" xlink:title=" ">
<polygon fill="white" stroke="#666666" points="213.5,-75 101.5,-75 101.5,-56 213.5,-56 213.5,-75"/>
<text text-anchor="middle" x="157.5" y="-63" font-family="Helvetica,sans-Serif" font-size="10.00">pfd::internal::dialog</text>
</a>
</g>
</g>
<!-- Node2&#45;&gt;Node1 -->
<g id="edge1_Node000001_Node000002" class="edge">
<title>Node2&#45;&gt;Node1</title>
<g id="a_edge1_Node000001_Node000002"><a xlink:title=" ">
<path fill="none" stroke="#63b8ff" d="M157.5,-45.3C157.5,-36.41 157.5,-26.28 157.5,-19.25"/>
<polygon fill="#63b8ff" stroke="#63b8ff" points="154,-45.58 157.5,-55.58 161,-45.58 154,-45.58"/>
</a>
</g>
</g>
<!-- Node3 -->
<g id="Node000003" class="node">
<title>Node3</title>
<g id="a_Node000003"><a xlink:href="classpfd_1_1settings.html" target="_top" xlink:title=" ">
<polygon fill="white" stroke="#666666" points="77,-146.5 0,-146.5 0,-127.5 77,-127.5 77,-146.5"/>
<text text-anchor="middle" x="38.5" y="-134.5" font-family="Helvetica,sans-Serif" font-size="10.00">pfd::settings</text>
</a>
</g>
</g>
<!-- Node3&#45;&gt;Node2 -->
<g id="edge2_Node000002_Node000003" class="edge">
<title>Node3&#45;&gt;Node2</title>
<g id="a_edge2_Node000002_Node000003"><a xlink:title=" ">
<path fill="none" stroke="darkgreen" d="M61.92,-122.32C85.94,-108.29 122.56,-86.91 142.79,-75.09"/>
<polygon fill="darkgreen" stroke="darkgreen" points="59.96,-119.41 53.09,-127.48 63.49,-125.46 59.96,-119.41"/>
</a>
</g>
</g>
<!-- Node4 -->
<g id="Node000004" class="node">
<title>Node4</title>
<g id="a_Node000004"><a xlink:href="classpfd_1_1internal_1_1platform.html" target="_top" xlink:title=" ">
<polygon fill="white" stroke="#666666" points="219.5,-146.5 95.5,-146.5 95.5,-127.5 219.5,-127.5 219.5,-146.5"/>
<text text-anchor="middle" x="157.5" y="-134.5" font-family="Helvetica,sans-Serif" font-size="10.00">pfd::internal::platform</text>
</a>
</g>
</g>
<!-- Node4&#45;&gt;Node2 -->
<g id="edge3_Node000002_Node000004" class="edge">
<title>Node4&#45;&gt;Node2</title>
<g id="a_edge3_Node000002_Node000004"><a xlink:title=" ">
<path fill="none" stroke="darkgreen" d="M157.5,-117.21C157.5,-103.5 157.5,-85.55 157.5,-75.09"/>
<polygon fill="darkgreen" stroke="darkgreen" points="154,-117.48 157.5,-127.48 161,-117.48 154,-117.48"/>
</a>
</g>
</g>
<!-- Node5 -->
<g id="Node000005" class="node">
<title>Node5</title>
<g id="a_Node000005"><a xlink:title=" ">
<polygon fill="white" stroke="#666666" points="377,-152 238,-152 238,-122 377,-122 377,-152"/>
<text text-anchor="start" x="246" y="-140" font-family="Helvetica,sans-Serif" font-size="10.00">shared_ptr&lt; pfd::internal</text>
<text text-anchor="middle" x="307.5" y="-129" font-family="Helvetica,sans-Serif" font-size="10.00">::executor &gt;</text>
</a>
</g>
</g>
<!-- Node5&#45;&gt;Node2 -->
<g id="edge4_Node000002_Node000005" class="edge">
<title>Node5&#45;&gt;Node2</title>
<g id="a_edge4_Node000002_Node000005"><a xlink:title=" ">
<path fill="none" stroke="#9a32cd" stroke-dasharray="5,2" d="M267.86,-117.63C238.13,-103.86 198.78,-85.63 175.99,-75.07"/>
<polygon fill="#9a32cd" stroke="#9a32cd" points="266.6,-120.91 277.15,-121.94 269.54,-114.56 266.6,-120.91"/>
</a>
</g>
<text text-anchor="middle" x="261" y="-96" font-family="Helvetica,sans-Serif" font-size="10.00" fill="grey"> m_async</text>
</g>
</g>
</svg>
