<?xml version="1.0" encoding="UTF-8" standalone="no"?>
<!DOCTYPE svg PUBLIC "-//W3C//DTD SVG 1.1//EN"
 "http://www.w3.org/Graphics/SVG/1.1/DTD/svg11.dtd">
<!-- Generated by graphviz version 2.43.0 (0)
 -->
<!-- Title: OThwomp::func_800810F4 Pages: 1 -->
<svg width="640pt" height="311pt"
 viewBox="0.00 0.00 640.00 310.50" xmlns="http://www.w3.org/2000/svg" xmlns:xlink="http://www.w3.org/1999/xlink">
<g id="graph0" class="graph" transform="scale(1 1) rotate(0) translate(4 306.5)">
<title>OThwomp::func_800810F4</title>
<!-- Node1 -->
<g id="Node000001" class="node">
<title>Node1</title>
<g id="a_Node000001"><a xlink:title=" ">
<polygon fill="#999999" stroke="#666666" points="146,-170.5 0,-170.5 0,-151.5 146,-151.5 146,-170.5"/>
<text text-anchor="middle" x="73" y="-158.5" font-family="Helvetica,sans-Serif" font-size="10.00">OThwomp::func_800810F4</text>
</a>
</g>
</g>
<!-- Node2 -->
<g id="Node000002" class="node">
<title>Node2</title>
<g id="a_Node000002"><a xlink:href="math__util__2_8c.html#a561fab07d3a0b3c0be1ea5643179abb5" target="_top" xlink:title=" ">
<polygon fill="white" stroke="#666666" points="315,-302.5 195,-302.5 195,-283.5 315,-283.5 315,-302.5"/>
<text text-anchor="middle" x="255" y="-290.5" font-family="Helvetica,sans-Serif" font-size="10.00">f32_step_up_towards</text>
</a>
</g>
</g>
<!-- Node1&#45;&gt;Node2 -->
<g id="edge1_Node000001_Node000002" class="edge">
<title>Node1&#45;&gt;Node2</title>
<g id="a_edge1_Node000001_Node000002"><a xlink:title=" ">
<path fill="none" stroke="#63b8ff" d="M80.26,-170.7C95.09,-192.85 134.68,-247.36 182,-275 185.04,-276.78 188.25,-278.38 191.56,-279.82"/>
<polygon fill="#63b8ff" stroke="#63b8ff" points="190.51,-283.17 201.1,-283.49 193.03,-276.64 190.51,-283.17"/>
</a>
</g>
</g>
<!-- Node3 -->
<g id="Node000003" class="node">
<title>Node3</title>
<g id="a_Node000003"><a xlink:href="update__objects_8c.html#a5978ef1e35515c275f92eb79b8601d77" target="_top" xlink:title=" ">
<polygon fill="white" stroke="#666666" points="300.5,-265.5 209.5,-265.5 209.5,-246.5 300.5,-246.5 300.5,-265.5"/>
<text text-anchor="middle" x="255" y="-253.5" font-family="Helvetica,sans-Serif" font-size="10.00">func_80072428</text>
</a>
</g>
</g>
<!-- Node1&#45;&gt;Node3 -->
<g id="edge2_Node000001_Node000003" class="edge">
<title>Node1&#45;&gt;Node3</title>
<g id="a_edge2_Node000001_Node000003"><a xlink:title=" ">
<path fill="none" stroke="#63b8ff" d="M86.32,-170.66C105.74,-185.5 145.05,-214.08 182,-232 190.71,-236.23 200.35,-240 209.67,-243.24"/>
<polygon fill="#63b8ff" stroke="#63b8ff" points="208.62,-246.58 219.22,-246.42 210.83,-239.94 208.62,-246.58"/>
</a>
</g>
</g>
<!-- Node7 -->
<g id="Node000007" class="node">
<title>Node7</title>
<g id="a_Node000007"><a xlink:href="update__objects_8c.html#a0402bdcdbe1edec96b71374d1dafaa5e" target="_top" xlink:title=" ">
<polygon fill="white" stroke="#666666" points="301,-152.5 209,-152.5 209,-133.5 301,-133.5 301,-152.5"/>
<text text-anchor="middle" x="255" y="-140.5" font-family="Helvetica,sans-Serif" font-size="10.00">func_80073B00</text>
</a>
</g>
</g>
<!-- Node1&#45;&gt;Node7 -->
<g id="edge6_Node000001_Node000007" class="edge">
<title>Node1&#45;&gt;Node7</title>
<g id="a_edge6_Node000001_Node000007"><a xlink:title=" ">
<path fill="none" stroke="#63b8ff" d="M146.18,-153.78C163.67,-152.03 182.1,-150.19 198.68,-148.53"/>
<polygon fill="#63b8ff" stroke="#63b8ff" points="199.14,-152 208.74,-147.53 198.44,-145.04 199.14,-152"/>
</a>
</g>
</g>
<!-- Node11 -->
<g id="Node000011" class="node">
<title>Node11</title>
<g id="a_Node000011"><a xlink:href="update__objects_8c.html#a8575e661ae825645eeedcf6b75f0132f" target="_top" xlink:title=" ">
<polygon fill="white" stroke="#666666" points="301,-115.5 209,-115.5 209,-96.5 301,-96.5 301,-115.5"/>
<text text-anchor="middle" x="255" y="-103.5" font-family="Helvetica,sans-Serif" font-size="10.00">func_8007415C</text>
</a>
</g>
</g>
<!-- Node1&#45;&gt;Node11 -->
<g id="edge10_Node000001_Node000011" class="edge">
<title>Node1&#45;&gt;Node11</title>
<g id="a_edge10_Node000001_Node000011"><a xlink:title=" ">
<path fill="none" stroke="#63b8ff" d="M100.92,-151.49C122.68,-143.94 154.16,-133.3 182,-125 189.84,-122.66 198.2,-120.32 206.35,-118.12"/>
<polygon fill="#63b8ff" stroke="#63b8ff" points="207.37,-121.47 216.13,-115.51 205.57,-114.7 207.37,-121.47"/>
</a>
</g>
</g>
<!-- Node15 -->
<g id="Node000015" class="node">
<title>Node15</title>
<g id="a_Node000015"><a xlink:href="classOThwomp.html#a5e6e666051de3a48194c2da8f11b3283" target="_top" xlink:title=" ">
<polygon fill="white" stroke="#666666" points="328,-189.5 182,-189.5 182,-170.5 328,-170.5 328,-189.5"/>
<text text-anchor="middle" x="255" y="-177.5" font-family="Helvetica,sans-Serif" font-size="10.00">OThwomp::func_80081080</text>
</a>
</g>
</g>
<!-- Node1&#45;&gt;Node15 -->
<g id="edge14_Node000001_Node000015" class="edge">
<title>Node1&#45;&gt;Node15</title>
<g id="a_edge14_Node000001_Node000015"><a xlink:title=" ">
<path fill="none" stroke="#63b8ff" d="M146.18,-168.62C154.61,-169.51 163.27,-170.42 171.82,-171.33"/>
<polygon fill="#63b8ff" stroke="#63b8ff" points="171.5,-174.81 181.81,-172.38 172.23,-167.85 171.5,-174.81"/>
</a>
</g>
</g>
<!-- Node16 -->
<g id="Node000016" class="node">
<title>Node16</title>
<g id="a_Node000016"><a xlink:href="update__objects_8c.html#a8bfc5f5c7034d61b534e14f325b6e399" target="_top" xlink:title=" ">
<polygon fill="white" stroke="#666666" points="468,-208.5 364,-208.5 364,-189.5 468,-189.5 468,-208.5"/>
<text text-anchor="middle" x="416" y="-196.5" font-family="Helvetica,sans-Serif" font-size="10.00">object_next_state</text>
</a>
</g>
</g>
<!-- Node1&#45;&gt;Node16 -->
<g id="edge20_Node000001_Node000016" class="edge">
<title>Node1&#45;&gt;Node16</title>
<g id="a_edge20_Node000001_Node000016"><a xlink:title=" ">
<path fill="none" stroke="#63b8ff" d="M94.55,-170.59C115.87,-179.97 150.46,-193.61 182,-199 239.58,-208.83 306.34,-207.57 353.6,-204.61"/>
<polygon fill="#63b8ff" stroke="#63b8ff" points="353.93,-208.09 363.68,-203.93 353.46,-201.11 353.93,-208.09"/>
</a>
</g>
</g>
<!-- Node17 -->
<g id="Node000017" class="node">
<title>Node17</title>
<g id="a_Node000017"><a xlink:href="code__80086E70_8c.html#ad7b4c375db18ad21adab51801dba6092" target="_top" xlink:title=" ">
<polygon fill="white" stroke="#666666" points="312,-78 198,-78 198,-48 312,-48 312,-78"/>
<text text-anchor="start" x="206" y="-66" font-family="Helvetica,sans-Serif" font-size="10.00">object_add_velocity</text>
<text text-anchor="middle" x="255" y="-55" font-family="Helvetica,sans-Serif" font-size="10.00">_offset_xz</text>
</a>
</g>
</g>
<!-- Node1&#45;&gt;Node17 -->
<g id="edge18_Node000001_Node000017" class="edge">
<title>Node1&#45;&gt;Node17</title>
<g id="a_edge18_Node000001_Node000017"><a xlink:title=" ">
<path fill="none" stroke="#63b8ff" d="M85.62,-151.4C104.71,-136.03 144.35,-105.71 182,-87 185.72,-85.15 189.61,-83.4 193.58,-81.74"/>
<polygon fill="#63b8ff" stroke="#63b8ff" points="194.91,-84.97 202.93,-78.04 192.34,-78.46 194.91,-84.97"/>
</a>
</g>
</g>
<!-- Node18 -->
<g id="Node000018" class="node">
<title>Node18</title>
<g id="a_Node000018"><a xlink:href="code__80086E70_8c.html#a2f6ae8b384477efbc2654d6427d095f7" target="_top" xlink:title=" ">
<polygon fill="white" stroke="#666666" points="316,-30 194,-30 194,0 316,0 316,-30"/>
<text text-anchor="start" x="202" y="-18" font-family="Helvetica,sans-Serif" font-size="10.00">object_calculate_new</text>
<text text-anchor="middle" x="255" y="-7" font-family="Helvetica,sans-Serif" font-size="10.00">_pos_offset</text>
</a>
</g>
</g>
<!-- Node1&#45;&gt;Node18 -->
<g id="edge19_Node000001_Node000018" class="edge">
<title>Node1&#45;&gt;Node18</title>
<g id="a_edge19_Node000001_Node000018"><a xlink:title=" ">
<path fill="none" stroke="#63b8ff" d="M80.03,-151.21C94.65,-128.25 134.33,-70.5 182,-39 184.42,-37.4 186.96,-35.9 189.58,-34.49"/>
<polygon fill="#63b8ff" stroke="#63b8ff" points="191.26,-37.56 198.72,-30.04 188.2,-31.27 191.26,-37.56"/>
</a>
</g>
</g>
<!-- Node4 -->
<g id="Node000004" class="node">
<title>Node4</title>
<g id="a_Node000004"><a xlink:href="code__80086E70_8c.html#acd186a6f592769b3e3db3da72fcf765f" target="_top" xlink:title=" ">
<polygon fill="white" stroke="#666666" points="461.5,-245.5 370.5,-245.5 370.5,-226.5 461.5,-226.5 461.5,-245.5"/>
<text text-anchor="middle" x="416" y="-233.5" font-family="Helvetica,sans-Serif" font-size="10.00">func_80086F60</text>
</a>
</g>
</g>
<!-- Node3&#45;&gt;Node4 -->
<g id="edge3_Node000003_Node000004" class="edge">
<title>Node3&#45;&gt;Node4</title>
<g id="a_edge3_Node000003_Node000004"><a xlink:title=" ">
<path fill="none" stroke="#63b8ff" d="M300.71,-250.38C319.25,-248.04 340.93,-245.32 360.4,-242.87"/>
<polygon fill="#63b8ff" stroke="#63b8ff" points="360.86,-246.34 370.35,-241.62 359.99,-239.39 360.86,-246.34"/>
</a>
</g>
</g>
<!-- Node6 -->
<g id="Node000006" class="node">
<title>Node6</title>
<g id="a_Node000006"><a xlink:href="update__objects_8c.html#af20e3f3c403dd4fbea56e358997e515a" target="_top" xlink:title=" ">
<polygon fill="white" stroke="#666666" points="632,-278.5 504,-278.5 504,-259.5 632,-259.5 632,-278.5"/>
<text text-anchor="middle" x="568" y="-266.5" font-family="Helvetica,sans-Serif" font-size="10.00">set_object_timer_state</text>
</a>
</g>
</g>
<!-- Node3&#45;&gt;Node6 -->
<g id="edge5_Node000003_Node000006" class="edge">
<title>Node3&#45;&gt;Node6</title>
<g id="a_edge5_Node000003_Node000006"><a xlink:title=" ">
<path fill="none" stroke="#63b8ff" d="M300.56,-257.86C350.97,-259.97 433.84,-263.43 493.79,-265.94"/>
<polygon fill="#63b8ff" stroke="#63b8ff" points="493.81,-269.44 503.95,-266.36 494.1,-262.45 493.81,-269.44"/>
</a>
</g>
</g>
<!-- Node5 -->
<g id="Node000005" class="node">
<title>Node5</title>
<g id="a_Node000005"><a xlink:href="update__objects_8c.html#a3953241e15c6372ac8944ba842148a9a" target="_top" xlink:title=" ">
<polygon fill="white" stroke="#666666" points="617.5,-236.5 518.5,-236.5 518.5,-217.5 617.5,-217.5 617.5,-236.5"/>
<text text-anchor="middle" x="568" y="-224.5" font-family="Helvetica,sans-Serif" font-size="10.00">clear_object_flag</text>
</a>
</g>
</g>
<!-- Node4&#45;&gt;Node5 -->
<g id="edge4_Node000004_Node000005" class="edge">
<title>Node4&#45;&gt;Node5</title>
<g id="a_edge4_Node000004_Node000005"><a xlink:title=" ">
<path fill="none" stroke="#63b8ff" d="M461.6,-233.32C476.26,-232.44 492.79,-231.45 508.34,-230.52"/>
<polygon fill="#63b8ff" stroke="#63b8ff" points="508.61,-234.01 518.38,-229.92 508.19,-227.02 508.61,-234.01"/>
</a>
</g>
</g>
<!-- Node8 -->
<g id="Node000008" class="node">
<title>Node8</title>
<g id="a_Node000008"><a xlink:href="update__objects_8c.html#a77160ca84eead36749ab8b1ac1ef987b" target="_top" xlink:title=" ">
<polygon fill="white" stroke="#666666" points="462,-152.5 370,-152.5 370,-133.5 462,-133.5 462,-152.5"/>
<text text-anchor="middle" x="416" y="-140.5" font-family="Helvetica,sans-Serif" font-size="10.00">func_80073A10</text>
</a>
</g>
</g>
<!-- Node7&#45;&gt;Node8 -->
<g id="edge7_Node000007_Node000008" class="edge">
<title>Node7&#45;&gt;Node8</title>
<g id="a_edge7_Node000007_Node000008"><a xlink:title=" ">
<path fill="none" stroke="#63b8ff" d="M301.14,-143C319.35,-143 340.54,-143 359.67,-143"/>
<polygon fill="#63b8ff" stroke="#63b8ff" points="359.75,-146.5 369.75,-143 359.75,-139.5 359.75,-146.5"/>
</a>
</g>
</g>
<!-- Node9 -->
<g id="Node000009" class="node">
<title>Node9</title>
<g id="a_Node000009"><a xlink:href="update__objects_8c.html#a350ec2cc42f1fa42cda82e830e6dc1c6" target="_top" xlink:title=" ">
<polygon fill="white" stroke="#666666" points="613.5,-189.5 522.5,-189.5 522.5,-170.5 613.5,-170.5 613.5,-189.5"/>
<text text-anchor="middle" x="568" y="-177.5" font-family="Helvetica,sans-Serif" font-size="10.00">func_80073800</text>
</a>
</g>
</g>
<!-- Node8&#45;&gt;Node9 -->
<g id="edge8_Node000008_Node000009" class="edge">
<title>Node8&#45;&gt;Node9</title>
<g id="a_edge8_Node000008_Node000009"><a xlink:title=" ">
<path fill="none" stroke="#63b8ff" d="M455.63,-152.53C474.8,-157.26 498.16,-163.02 518.52,-168.04"/>
<polygon fill="#63b8ff" stroke="#63b8ff" points="517.69,-171.44 528.24,-170.44 519.37,-164.65 517.69,-171.44"/>
</a>
</g>
</g>
<!-- Node10 -->
<g id="Node000010" class="node">
<title>Node10</title>
<g id="a_Node000010"><a xlink:href="update__objects_8c.html#a95b88653b438ce0326cfae9fc910bb68" target="_top" xlink:title=" ">
<polygon fill="white" stroke="#666666" points="614,-152.5 522,-152.5 522,-133.5 614,-133.5 614,-152.5"/>
<text text-anchor="middle" x="568" y="-140.5" font-family="Helvetica,sans-Serif" font-size="10.00">func_8007381C</text>
</a>
</g>
</g>
<!-- Node8&#45;&gt;Node10 -->
<g id="edge9_Node000008_Node000010" class="edge">
<title>Node8&#45;&gt;Node10</title>
<g id="a_edge9_Node000008_Node000010"><a xlink:title=" ">
<path fill="none" stroke="#63b8ff" d="M462,-143C477.51,-143 495.06,-143 511.31,-143"/>
<polygon fill="#63b8ff" stroke="#63b8ff" points="511.77,-146.5 521.77,-143 511.77,-139.5 511.77,-146.5"/>
</a>
</g>
</g>
<!-- Node12 -->
<g id="Node000012" class="node">
<title>Node12</title>
<g id="a_Node000012"><a xlink:href="update__objects_8c.html#adc21b0cb8a0e887624e0daec5a02005c" target="_top" xlink:title=" ">
<polygon fill="white" stroke="#666666" points="462,-115.5 370,-115.5 370,-96.5 462,-96.5 462,-115.5"/>
<text text-anchor="middle" x="416" y="-103.5" font-family="Helvetica,sans-Serif" font-size="10.00">func_8007401C</text>
</a>
</g>
</g>
<!-- Node11&#45;&gt;Node12 -->
<g id="edge11_Node000011_Node000012" class="edge">
<title>Node11&#45;&gt;Node12</title>
<g id="a_edge11_Node000011_Node000012"><a xlink:title=" ">
<path fill="none" stroke="#63b8ff" d="M301.14,-106C319.35,-106 340.54,-106 359.67,-106"/>
<polygon fill="#63b8ff" stroke="#63b8ff" points="359.75,-109.5 369.75,-106 359.75,-102.5 359.75,-109.5"/>
</a>
</g>
</g>
<!-- Node13 -->
<g id="Node000013" class="node">
<title>Node13</title>
<g id="a_Node000013"><a xlink:href="update__objects_8c.html#ac0f84fb76a5a0da9a3c5bfbc9d5e16b9" target="_top" xlink:title=" ">
<polygon fill="white" stroke="#666666" points="613.5,-115.5 522.5,-115.5 522.5,-96.5 613.5,-96.5 613.5,-115.5"/>
<text text-anchor="middle" x="568" y="-103.5" font-family="Helvetica,sans-Serif" font-size="10.00">func_80073F90</text>
</a>
</g>
</g>
<!-- Node12&#45;&gt;Node13 -->
<g id="edge12_Node000012_Node000013" class="edge">
<title>Node12&#45;&gt;Node13</title>
<g id="a_edge12_Node000012_Node000013"><a xlink:title=" ">
<path fill="none" stroke="#63b8ff" d="M462,-106C477.8,-106 495.72,-106 512.22,-106"/>
<polygon fill="#63b8ff" stroke="#63b8ff" points="512.29,-109.5 522.29,-106 512.29,-102.5 512.29,-109.5"/>
</a>
</g>
</g>
<!-- Node14 -->
<g id="Node000014" class="node">
<title>Node14</title>
<g id="a_Node000014"><a xlink:href="update__objects_8c.html#ab7e85cd0bcb0dadcf5927343374a9da9" target="_top" xlink:title=" ">
<polygon fill="white" stroke="#666666" points="613.5,-78.5 522.5,-78.5 522.5,-59.5 613.5,-59.5 613.5,-78.5"/>
<text text-anchor="middle" x="568" y="-66.5" font-family="Helvetica,sans-Serif" font-size="10.00">func_80073FAC</text>
</a>
</g>
</g>
<!-- Node12&#45;&gt;Node14 -->
<g id="edge13_Node000012_Node000014" class="edge">
<title>Node12&#45;&gt;Node14</title>
<g id="a_edge13_Node000012_Node000014"><a xlink:title=" ">
<path fill="none" stroke="#63b8ff" d="M455.63,-96.47C474.8,-91.74 498.16,-85.98 518.52,-80.96"/>
<polygon fill="#63b8ff" stroke="#63b8ff" points="519.37,-84.35 528.24,-78.56 517.69,-77.56 519.37,-84.35"/>
</a>
</g>
</g>
<!-- Node15&#45;&gt;Node16 -->
<g id="edge15_Node000015_Node000016" class="edge">
<title>Node15&#45;&gt;Node16</title>
<g id="a_edge15_Node000015_Node000016"><a xlink:title=" ">
<path fill="none" stroke="#63b8ff" d="M328.06,-188.61C336.59,-189.63 345.23,-190.66 353.59,-191.66"/>
<polygon fill="#63b8ff" stroke="#63b8ff" points="353.28,-195.15 363.62,-192.86 354.11,-188.2 353.28,-195.15"/>
</a>
</g>
</g>
<!-- Node16&#45;&gt;Node5 -->
<g id="edge16_Node000016_Node000005" class="edge">
<title>Node16&#45;&gt;Node5</title>
<g id="a_edge16_Node000016_Node000005"><a xlink:title=" ">
<path fill="none" stroke="#63b8ff" d="M468.2,-208.56C481.12,-210.97 495.09,-213.58 508.34,-216.05"/>
<polygon fill="#63b8ff" stroke="#63b8ff" points="507.83,-219.52 518.31,-217.91 509.12,-212.63 507.83,-219.52"/>
</a>
</g>
</g>
<!-- Node16&#45;&gt;Node6 -->
<g id="edge17_Node000016_Node000006" class="edge">
<title>Node16&#45;&gt;Node6</title>
<g id="a_edge17_Node000016_Node000006"><a xlink:title=" ">
<path fill="none" stroke="#63b8ff" d="M447.35,-208.58C454.31,-211.24 461.56,-214.41 468,-218 485.7,-227.87 486.27,-236.18 504,-246 510.58,-249.64 517.86,-252.91 525.05,-255.77"/>
<polygon fill="#63b8ff" stroke="#63b8ff" points="524.16,-259.17 534.75,-259.39 526.61,-252.61 524.16,-259.17"/>
</a>
</g>
</g>
</g>
</svg>
