<?xml version="1.0" encoding="UTF-8" standalone="no"?>
<!DOCTYPE svg PUBLIC "-//W3C//DTD SVG 1.1//EN"
 "http://www.w3.org/Graphics/SVG/1.1/DTD/svg11.dtd">
<!-- Generated by graphviz version 2.43.0 (0)
 -->
<!-- Title: GameExtractor Pages: 1 -->
<svg width="168pt" height="93pt"
 viewBox="0.00 0.00 168.00 93.00" xmlns="http://www.w3.org/2000/svg" xmlns:xlink="http://www.w3.org/1999/xlink">
<g id="graph0" class="graph" transform="scale(1 1) rotate(0) translate(4 89)">
<title>GameExtractor</title>
<!-- Node1 -->
<g id="Node000001" class="node">
<title>Node1</title>
<g id="a_Node000001"><a xlink:title=" ">
<polygon fill="#999999" stroke="#666666" points="108,-19 18,-19 18,0 108,0 108,-19"/>
<text text-anchor="middle" x="63" y="-7" font-family="Helvetica,sans-Serif" font-size="10.00">GameExtractor</text>
</a>
</g>
</g>
<!-- Node2 -->
<g id="Node000002" class="node">
<title>Node2</title>
<g id="a_Node000002"><a xlink:title=" ">
<polygon fill="white" stroke="#666666" points="38,-85 0,-85 0,-66 38,-66 38,-85"/>
<text text-anchor="middle" x="19" y="-73" font-family="Helvetica,sans-Serif" font-size="10.00">path</text>
</a>
</g>
</g>
<!-- Node2&#45;&gt;Node1 -->
<g id="edge1_Node000001_Node000002" class="edge">
<title>Node2&#45;&gt;Node1</title>
<g id="a_edge1_Node000001_Node000002"><a xlink:title=" ">
<path fill="none" stroke="#9a32cd" stroke-dasharray="5,2" d="M17.27,-55.46C17.52,-49.21 18.73,-42.47 22,-37 26.61,-29.29 34.43,-23.42 42.01,-19.19"/>
<polygon fill="#9a32cd" stroke="#9a32cd" points="13.78,-55.93 17.62,-65.81 20.78,-55.69 13.78,-55.93"/>
</a>
</g>
<text text-anchor="middle" x="54" y="-40" font-family="Helvetica,sans-Serif" font-size="10.00" fill="grey"> mGamePath</text>
</g>
<!-- Node3 -->
<g id="Node000003" class="node">
<title>Node3</title>
<g id="a_Node000003"><a xlink:title=" ">
<polygon fill="white" stroke="#666666" points="160,-85 56,-85 56,-66 160,-66 160,-85"/>
<text text-anchor="middle" x="108" y="-73" font-family="Helvetica,sans-Serif" font-size="10.00">vector&lt; uint8_t &gt;</text>
</a>
</g>
</g>
<!-- Node3&#45;&gt;Node1 -->
<g id="edge2_Node000001_Node000003" class="edge">
<title>Node3&#45;&gt;Node1</title>
<g id="a_edge2_Node000001_Node000003"><a xlink:title=" ">
<path fill="none" stroke="#9a32cd" stroke-dasharray="5,2" d="M98.47,-56.73C94.81,-50.34 90.45,-43.2 86,-37 81.59,-30.86 76.06,-24.45 71.52,-19.48"/>
<polygon fill="#9a32cd" stroke="#9a32cd" points="95.63,-58.83 103.53,-65.88 101.75,-55.44 95.63,-58.83"/>
</a>
</g>
<text text-anchor="middle" x="126" y="-40" font-family="Helvetica,sans-Serif" font-size="10.00" fill="grey"> mGameData</text>
</g>
</g>
</svg>
