<?xml version="1.0" encoding="UTF-8" standalone="no"?>
<!DOCTYPE svg PUBLIC "-//W3C//DTD SVG 1.1//EN"
 "http://www.w3.org/Graphics/SVG/1.1/DTD/svg11.dtd">
<!-- Generated by graphviz version 2.43.0 (0)
 -->
<!-- Title: AWarioSign::Draw Pages: 1 -->
<svg width="924pt" height="430pt"
 viewBox="0.00 0.00 924.00 429.50" xmlns="http://www.w3.org/2000/svg" xmlns:xlink="http://www.w3.org/1999/xlink">
<g id="graph0" class="graph" transform="scale(1 1) rotate(0) translate(4 425.5)">
<title>AWarioSign::Draw</title>
<!-- Node1 -->
<g id="Node000001" class="node">
<title>Node1</title>
<g id="a_Node000001"><a xlink:title=" ">
<polygon fill="#999999" stroke="#666666" points="103,-247 0,-247 0,-228 103,-228 103,-247"/>
<text text-anchor="middle" x="51.5" y="-235" font-family="Helvetica,sans-Serif" font-size="10.00">AWarioSign::Draw</text>
</a>
</g>
</g>
<!-- Node2 -->
<g id="Node000002" class="node">
<title>Node2</title>
<g id="a_Node000002"><a xlink:href="FrameInterpolation_8cpp.html#a3a036bc9d533e28a4e9697cd20dccf3e" target="_top" xlink:title=" ">
<polygon fill="white" stroke="#666666" points="757,-236.5 647,-236.5 647,-206.5 757,-206.5 757,-236.5"/>
<text text-anchor="start" x="655" y="-224.5" font-family="Helvetica,sans-Serif" font-size="10.00">FrameInterpolation</text>
<text text-anchor="middle" x="702" y="-213.5" font-family="Helvetica,sans-Serif" font-size="10.00">_RecordCloseChild</text>
</a>
</g>
</g>
<!-- Node1&#45;&gt;Node2 -->
<g id="edge1_Node000001_Node000002" class="edge">
<title>Node1&#45;&gt;Node2</title>
<g id="a_edge1_Node000001_Node000002"><a xlink:title=" ">
<path fill="none" stroke="#63b8ff" d="M103.12,-236.25C219.79,-233.37 507.48,-226.27 636.53,-223.09"/>
<polygon fill="#63b8ff" stroke="#63b8ff" points="636.75,-226.59 646.66,-222.84 636.58,-219.59 636.75,-226.59"/>
</a>
</g>
</g>
<!-- Node4 -->
<g id="Node000004" class="node">
<title>Node4</title>
<g id="a_Node000004"><a xlink:href="FrameInterpolation_8cpp.html#a0eda726b74eac815af4e874014e2727c" target="_top" xlink:title=" ">
<polygon fill="white" stroke="#666666" points="757,-421.5 647,-421.5 647,-391.5 757,-391.5 757,-421.5"/>
<text text-anchor="start" x="655" y="-409.5" font-family="Helvetica,sans-Serif" font-size="10.00">FrameInterpolation</text>
<text text-anchor="middle" x="702" y="-398.5" font-family="Helvetica,sans-Serif" font-size="10.00">_RecordOpenChild</text>
</a>
</g>
</g>
<!-- Node1&#45;&gt;Node4 -->
<g id="edge3_Node000001_Node000004" class="edge">
<title>Node1&#45;&gt;Node4</title>
<g id="a_edge3_Node000001_Node000004"><a xlink:title=" ">
<path fill="none" stroke="#63b8ff" d="M58.31,-247.01C70.62,-266.26 101.29,-309.87 139,-331.5 299.27,-423.42 526.63,-420.87 636.55,-412.96"/>
<polygon fill="#63b8ff" stroke="#63b8ff" points="637.11,-416.43 646.82,-412.18 636.58,-409.45 637.11,-416.43"/>
</a>
</g>
</g>
<!-- Node5 -->
<g id="Node000005" class="node">
<title>Node5</title>
<g id="a_Node000005"><a xlink:href="GBIMiddleware_8cpp.html#a4ecc44e3c6f1ca5a6b4a20c41d3bd2d2" target="_top" xlink:title=" ">
<polygon fill="white" stroke="#666666" points="255,-65 166,-65 166,-46 255,-46 255,-65"/>
<text text-anchor="middle" x="210.5" y="-53" font-family="Helvetica,sans-Serif" font-size="10.00">gSPDisplayList</text>
</a>
</g>
</g>
<!-- Node1&#45;&gt;Node5 -->
<g id="edge5_Node000001_Node000005" class="edge">
<title>Node1&#45;&gt;Node5</title>
<g id="a_edge5_Node000001_Node000005"><a xlink:title=" ">
<path fill="none" stroke="#63b8ff" d="M58.59,-227.72C71.89,-206.69 105.09,-156.01 139,-118.5 154.64,-101.2 174.64,-83.69 189.34,-71.54"/>
<polygon fill="#63b8ff" stroke="#63b8ff" points="191.77,-74.07 197.31,-65.04 187.35,-68.65 191.77,-74.07"/>
</a>
</g>
</g>
<!-- Node8 -->
<g id="Node000008" class="node">
<title>Node8</title>
<g id="a_Node000008"><a xlink:href="math__util_8c.html#a5e1d12b8745a8d5f8d73ab366328d3cd" target="_top" xlink:title=" ">
<polygon fill="white" stroke="#666666" points="282,-147 139,-147 139,-128 282,-128 282,-147"/>
<text text-anchor="middle" x="210.5" y="-135" font-family="Helvetica,sans-Serif" font-size="10.00">is_within_render_distance</text>
</a>
</g>
</g>
<!-- Node1&#45;&gt;Node8 -->
<g id="edge8_Node000001_Node000008" class="edge">
<title>Node1&#45;&gt;Node8</title>
<g id="a_edge8_Node000001_Node000008"><a xlink:title=" ">
<path fill="none" stroke="#63b8ff" d="M67.55,-227.91C94.91,-210.48 152.99,-173.5 185.74,-152.63"/>
<polygon fill="#63b8ff" stroke="#63b8ff" points="187.71,-155.53 194.26,-147.21 183.95,-149.63 187.71,-155.53"/>
</a>
</g>
</g>
<!-- Node18 -->
<g id="Node000018" class="node">
<title>Node18</title>
<g id="a_Node000018"><a xlink:href="math__util_8c.html#a7085bb4bb08bdc39c0fa0b98f25176ef" target="_top" xlink:title=" ">
<polygon fill="white" stroke="#666666" points="274.5,-322 146.5,-322 146.5,-303 274.5,-303 274.5,-322"/>
<text text-anchor="middle" x="210.5" y="-310" font-family="Helvetica,sans-Serif" font-size="10.00">mtxf_pos_rotation_xyz</text>
</a>
</g>
</g>
<!-- Node1&#45;&gt;Node18 -->
<g id="edge19_Node000001_Node000018" class="edge">
<title>Node1&#45;&gt;Node18</title>
<g id="a_edge19_Node000001_Node000018"><a xlink:title=" ">
<path fill="none" stroke="#63b8ff" d="M72.7,-247.15C100.02,-260.2 148.92,-283.56 180.26,-298.53"/>
<polygon fill="#63b8ff" stroke="#63b8ff" points="178.84,-301.73 189.37,-302.89 181.86,-295.42 178.84,-301.73"/>
</a>
</g>
</g>
<!-- Node22 -->
<g id="Node000022" class="node">
<title>Node22</title>
<g id="a_Node000022"><a xlink:href="math__util_8c.html#a1e5d28a1962fbb390c7551f66c2f099a" target="_top" xlink:title=" ">
<polygon fill="white" stroke="#666666" points="267,-266 154,-266 154,-247 267,-247 267,-266"/>
<text text-anchor="middle" x="210.5" y="-254" font-family="Helvetica,sans-Serif" font-size="10.00">render_set_position</text>
</a>
</g>
</g>
<!-- Node1&#45;&gt;Node22 -->
<g id="edge24_Node000001_Node000022" class="edge">
<title>Node1&#45;&gt;Node22</title>
<g id="a_edge24_Node000001_Node000022"><a xlink:title=" ">
<path fill="none" stroke="#63b8ff" d="M103.04,-243.62C115.97,-245.18 130.06,-246.89 143.64,-248.53"/>
<polygon fill="#63b8ff" stroke="#63b8ff" points="143.54,-252.04 153.89,-249.77 144.38,-245.09 143.54,-252.04"/>
</a>
</g>
</g>
<!-- Node3 -->
<g id="Node000003" class="node">
<title>Node3</title>
<g id="a_Node000003"><a xlink:href="FrameInterpolation_8cpp.html#a02c7ac5342a4d376edee38f312b480bf" target="_top" xlink:title=" ">
<polygon fill="white" stroke="#666666" points="916,-325 808,-325 808,-306 916,-306 916,-325"/>
<text text-anchor="middle" x="862" y="-313" font-family="Helvetica,sans-Serif" font-size="10.00">check_if_recording</text>
</a>
</g>
</g>
<!-- Node2&#45;&gt;Node3 -->
<g id="edge2_Node000002_Node000003" class="edge">
<title>Node2&#45;&gt;Node3</title>
<g id="a_edge2_Node000002_Node000003"><a xlink:title=" ">
<path fill="none" stroke="#63b8ff" d="M746.89,-236.6C755.42,-240.1 764.14,-244.11 772,-248.5 798.12,-263.08 825.17,-284.5 842.49,-299.18"/>
<polygon fill="#63b8ff" stroke="#63b8ff" points="840.3,-301.91 850.16,-305.78 844.86,-296.6 840.3,-301.91"/>
</a>
</g>
</g>
<!-- Node4&#45;&gt;Node3 -->
<g id="edge4_Node000004_Node000003" class="edge">
<title>Node4&#45;&gt;Node3</title>
<g id="a_edge4_Node000004_Node000003"><a xlink:title=" ">
<path fill="none" stroke="#63b8ff" d="M752.43,-391.42C759.15,-388.76 765.85,-385.78 772,-382.5 798.54,-368.34 825.69,-346.65 842.9,-331.81"/>
<polygon fill="#63b8ff" stroke="#63b8ff" points="845.3,-334.37 850.51,-325.14 840.69,-329.1 845.3,-334.37"/>
</a>
</g>
</g>
<!-- Node6 -->
<g id="Node000006" class="node">
<title>Node6</title>
<g id="a_Node000006"><a xlink:href="Engine_8cpp.html#a223c8bc63f228dc11177515e38eff2db" target="_top" xlink:title=" ">
<polygon fill="white" stroke="#666666" points="467,-19 318,-19 318,0 467,0 467,-19"/>
<text text-anchor="middle" x="392.5" y="-7" font-family="Helvetica,sans-Serif" font-size="10.00">GameEngine_OTRSigCheck</text>
</a>
</g>
</g>
<!-- Node5&#45;&gt;Node6 -->
<g id="edge6_Node000005_Node000006" class="edge">
<title>Node5&#45;&gt;Node6</title>
<g id="a_edge6_Node000005_Node000006"><a xlink:title=" ">
<path fill="none" stroke="#63b8ff" d="M247.45,-45.89C268.07,-40.41 294.47,-33.47 318,-27.5 325.7,-25.55 333.86,-23.51 341.84,-21.54"/>
<polygon fill="#63b8ff" stroke="#63b8ff" points="342.92,-24.88 351.8,-19.09 341.25,-18.08 342.92,-24.88"/>
</a>
</g>
</g>
<!-- Node7 -->
<g id="Node000007" class="node">
<title>Node7</title>
<g id="a_Node000007"><a xlink:href="string_8c.html#a008e171a518fe0e0352f31b245e03875" target="_top" xlink:title=" ">
<polygon fill="white" stroke="#666666" points="571.5,-19 527.5,-19 527.5,0 571.5,0 571.5,-19"/>
<text text-anchor="middle" x="549.5" y="-7" font-family="Helvetica,sans-Serif" font-size="10.00">strlen</text>
</a>
</g>
</g>
<!-- Node6&#45;&gt;Node7 -->
<g id="edge7_Node000006_Node000007" class="edge">
<title>Node6&#45;&gt;Node7</title>
<g id="a_edge7_Node000006_Node000007"><a xlink:title=" ">
<path fill="none" stroke="#63b8ff" d="M467.37,-9.5C484.89,-9.5 502.66,-9.5 517.09,-9.5"/>
<polygon fill="#63b8ff" stroke="#63b8ff" points="517.4,-13 527.4,-9.5 517.4,-6 517.4,-13"/>
</a>
</g>
</g>
<!-- Node9 -->
<g id="Node000009" class="node">
<title>Node9</title>
<g id="a_Node000009"><a xlink:href="math__util_8c.html#a07a66adf3458c156c7961b983983627a" target="_top" xlink:title=" ">
<polygon fill="white" stroke="#666666" points="439,-56 346,-56 346,-37 439,-37 439,-56"/>
<text text-anchor="middle" x="392.5" y="-44" font-family="Helvetica,sans-Serif" font-size="10.00">func_802B7CA8</text>
</a>
</g>
</g>
<!-- Node8&#45;&gt;Node9 -->
<g id="edge9_Node000008_Node000009" class="edge">
<title>Node8&#45;&gt;Node9</title>
<g id="a_edge9_Node000008_Node000009"><a xlink:title=" ">
<path fill="none" stroke="#63b8ff" d="M222.85,-127.87C241.51,-112.52 280.36,-82.48 318,-65.5 323.76,-62.9 329.93,-60.61 336.17,-58.61"/>
<polygon fill="#63b8ff" stroke="#63b8ff" points="337.39,-61.9 345.97,-55.68 335.38,-55.19 337.39,-61.9"/>
</a>
</g>
</g>
<!-- Node13 -->
<g id="Node000013" class="node">
<title>Node13</title>
<g id="a_Node000013"><a xlink:href="math__util_8c.html#a84cf9d4ec33146a64c230ed4cec56632" target="_top" xlink:title=" ">
<polygon fill="white" stroke="#666666" points="460,-104.5 325,-104.5 325,-74.5 460,-74.5 460,-104.5"/>
<text text-anchor="start" x="333" y="-92.5" font-family="Helvetica,sans-Serif" font-size="10.00">get_angle_between_two</text>
<text text-anchor="middle" x="392.5" y="-81.5" font-family="Helvetica,sans-Serif" font-size="10.00">_vectors</text>
</a>
</g>
</g>
<!-- Node8&#45;&gt;Node13 -->
<g id="edge13_Node000008_Node000013" class="edge">
<title>Node8&#45;&gt;Node13</title>
<g id="a_edge13_Node000008_Node000013"><a xlink:title=" ">
<path fill="none" stroke="#63b8ff" d="M247.49,-127.9C269.69,-121.98 298.84,-114.21 325.11,-107.2"/>
<polygon fill="#63b8ff" stroke="#63b8ff" points="326.25,-110.52 335.01,-104.56 324.45,-103.76 326.25,-110.52"/>
</a>
</g>
</g>
<!-- Node14 -->
<g id="Node000014" class="node">
<title>Node14</title>
<g id="a_Node000014"><a xlink:href="math__util_8c.html#a3eb0db0895b2c11953df746ce49b782e" target="_top" xlink:title=" ">
<polygon fill="white" stroke="#666666" points="447.5,-152.5 337.5,-152.5 337.5,-122.5 447.5,-122.5 447.5,-152.5"/>
<text text-anchor="start" x="345.5" y="-140.5" font-family="Helvetica,sans-Serif" font-size="10.00">is_visible_between</text>
<text text-anchor="middle" x="392.5" y="-129.5" font-family="Helvetica,sans-Serif" font-size="10.00">_angle</text>
</a>
</g>
</g>
<!-- Node8&#45;&gt;Node14 -->
<g id="edge15_Node000008_Node000014" class="edge">
<title>Node8&#45;&gt;Node14</title>
<g id="a_edge15_Node000008_Node000014"><a xlink:title=" ">
<path fill="none" stroke="#63b8ff" d="M282.12,-137.5C296.87,-137.5 312.34,-137.5 326.85,-137.5"/>
<polygon fill="#63b8ff" stroke="#63b8ff" points="327.22,-141 337.22,-137.5 327.22,-134 327.22,-141"/>
</a>
</g>
</g>
<!-- Node15 -->
<g id="Node000015" class="node">
<title>Node15</title>
<g id="a_Node000015"><a xlink:href="Game_8cpp.html#ad474b8b257813cceeae25ab5205273c4" target="_top" xlink:title=" ">
<polygon fill="white" stroke="#666666" points="441.5,-190 343.5,-190 343.5,-171 441.5,-171 441.5,-190"/>
<text text-anchor="middle" x="392.5" y="-178" font-family="Helvetica,sans-Serif" font-size="10.00">IsKalimariDesert</text>
</a>
</g>
</g>
<!-- Node8&#45;&gt;Node15 -->
<g id="edge16_Node000008_Node000015" class="edge">
<title>Node8&#45;&gt;Node15</title>
<g id="a_edge16_Node000008_Node000015"><a xlink:title=" ">
<path fill="none" stroke="#63b8ff" d="M251.45,-147.04C278.13,-153.42 313.42,-161.85 341.9,-168.65"/>
<polygon fill="#63b8ff" stroke="#63b8ff" points="341.12,-172.06 351.66,-170.98 342.75,-165.26 341.12,-172.06"/>
</a>
</g>
</g>
<!-- Node10 -->
<g id="Node000010" class="node">
<title>Node10</title>
<g id="a_Node000010"><a xlink:href="math__util_8c.html#aaa39a297477f56051975259f4bddd829" target="_top" xlink:title=" ">
<polygon fill="white" stroke="#666666" points="574.5,-96 524.5,-96 524.5,-77 574.5,-77 574.5,-96"/>
<text text-anchor="middle" x="549.5" y="-84" font-family="Helvetica,sans-Serif" font-size="10.00">atan2s</text>
</a>
</g>
</g>
<!-- Node9&#45;&gt;Node10 -->
<g id="edge10_Node000009_Node000010" class="edge">
<title>Node9&#45;&gt;Node10</title>
<g id="a_edge10_Node000009_Node000010"><a xlink:title=" ">
<path fill="none" stroke="#63b8ff" d="M430.63,-56.08C456.13,-62.66 489.73,-71.33 514.53,-77.73"/>
<polygon fill="#63b8ff" stroke="#63b8ff" points="513.67,-81.13 524.23,-80.24 515.42,-74.35 513.67,-81.13"/>
</a>
</g>
</g>
<!-- Node12 -->
<g id="Node000012" class="node">
<title>Node12</title>
<g id="a_Node000012"><a xlink:href="math_8h.html#a37bde043e94a6f074c78f10518fb5d99" target="_top" xlink:title=" ">
<polygon fill="white" stroke="#666666" points="569,-56 530,-56 530,-37 569,-37 569,-56"/>
<text text-anchor="middle" x="549.5" y="-44" font-family="Helvetica,sans-Serif" font-size="10.00">sqrtf</text>
</a>
</g>
</g>
<!-- Node9&#45;&gt;Node12 -->
<g id="edge12_Node000009_Node000012" class="edge">
<title>Node9&#45;&gt;Node12</title>
<g id="a_edge12_Node000009_Node000012"><a xlink:title=" ">
<path fill="none" stroke="#63b8ff" d="M439.17,-46.5C465.11,-46.5 496.8,-46.5 519.38,-46.5"/>
<polygon fill="#63b8ff" stroke="#63b8ff" points="519.66,-50 529.66,-46.5 519.66,-43 519.66,-50"/>
</a>
</g>
</g>
<!-- Node11 -->
<g id="Node000011" class="node">
<title>Node11</title>
<g id="a_Node000011"><a xlink:href="math__util_8c.html#a0273b0ea0783a06996c28669a7438ed9" target="_top" xlink:title=" ">
<polygon fill="white" stroke="#666666" points="743,-96 661,-96 661,-77 743,-77 743,-96"/>
<text text-anchor="middle" x="702" y="-84" font-family="Helvetica,sans-Serif" font-size="10.00">atan2_lookup</text>
</a>
</g>
</g>
<!-- Node10&#45;&gt;Node11 -->
<g id="edge11_Node000010_Node000011" class="edge">
<title>Node10&#45;&gt;Node11</title>
<g id="a_edge11_Node000010_Node000011"><a xlink:title=" ">
<path fill="none" stroke="#63b8ff" d="M574.68,-86.5C595.06,-86.5 624.89,-86.5 650.45,-86.5"/>
<polygon fill="#63b8ff" stroke="#63b8ff" points="650.73,-90 660.73,-86.5 650.73,-83 650.73,-90"/>
</a>
</g>
</g>
<!-- Node13&#45;&gt;Node10 -->
<g id="edge14_Node000013_Node000010" class="edge">
<title>Node13&#45;&gt;Node10</title>
<g id="a_edge14_Node000013_Node000010"><a xlink:title=" ">
<path fill="none" stroke="#63b8ff" d="M460.13,-88.21C478.67,-87.85 498.05,-87.48 513.92,-87.17"/>
<polygon fill="#63b8ff" stroke="#63b8ff" points="514.36,-90.66 524.29,-86.97 514.23,-83.66 514.36,-90.66"/>
</a>
</g>
</g>
<!-- Node16 -->
<g id="Node000016" class="node">
<title>Node16</title>
<g id="a_Node000016"><a xlink:href="classWorld.html#a1a4dacc6aea0b846df998be0afc239f7" target="_top" xlink:title=" ">
<polygon fill="white" stroke="#666666" points="596,-190 503,-190 503,-171 596,-171 596,-190"/>
<text text-anchor="middle" x="549.5" y="-178" font-family="Helvetica,sans-Serif" font-size="10.00">World::GetTrack</text>
</a>
</g>
</g>
<!-- Node15&#45;&gt;Node16 -->
<g id="edge17_Node000015_Node000016" class="edge">
<title>Node15&#45;&gt;Node16</title>
<g id="a_edge17_Node000015_Node000016"><a xlink:title=" ">
<path fill="none" stroke="#63b8ff" d="M441.69,-180.5C457.88,-180.5 476.08,-180.5 492.79,-180.5"/>
<polygon fill="#63b8ff" stroke="#63b8ff" points="492.98,-184 502.98,-180.5 492.98,-177 492.98,-184"/>
</a>
</g>
</g>
<!-- Node17 -->
<g id="Node000017" class="node">
<title>Node17</title>
<g id="a_Node000017"><a xlink:href="Game_8cpp.html#ae2fa844b3cb1021ecbc357f8ed2ad8cc" target="_top" xlink:title=" ">
<polygon fill="white" stroke="#666666" points="580.5,-266 518.5,-266 518.5,-247 580.5,-247 580.5,-266"/>
<text text-anchor="middle" x="549.5" y="-254" font-family="Helvetica,sans-Serif" font-size="10.00">GetWorld</text>
</a>
</g>
</g>
<!-- Node15&#45;&gt;Node17 -->
<g id="edge18_Node000015_Node000017" class="edge">
<title>Node15&#45;&gt;Node17</title>
<g id="a_edge18_Node000015_Node000017"><a xlink:title=" ">
<path fill="none" stroke="#63b8ff" d="M413.13,-190.13C440.15,-203.37 488.97,-227.31 520.01,-242.53"/>
<polygon fill="#63b8ff" stroke="#63b8ff" points="518.51,-245.69 529.03,-246.95 521.59,-239.41 518.51,-245.69"/>
</a>
</g>
</g>
<!-- Node19 -->
<g id="Node000019" class="node">
<title>Node19</title>
<g id="a_Node000019"><a xlink:href="math__util_8c.html#ae69cbf5c8d4b3b0dba2d7b4d4673689f" target="_top" xlink:title=" ">
<polygon fill="white" stroke="#666666" points="411.5,-340 373.5,-340 373.5,-321 411.5,-321 411.5,-340"/>
<text text-anchor="middle" x="392.5" y="-328" font-family="Helvetica,sans-Serif" font-size="10.00">coss</text>
</a>
</g>
</g>
<!-- Node18&#45;&gt;Node19 -->
<g id="edge20_Node000018_Node000019" class="edge">
<title>Node18&#45;&gt;Node19</title>
<g id="a_edge20_Node000018_Node000019"><a xlink:title=" ">
<path fill="none" stroke="#63b8ff" d="M274.71,-318.82C304.93,-321.84 339.58,-325.31 363.24,-327.67"/>
<polygon fill="#63b8ff" stroke="#63b8ff" points="362.99,-331.17 373.28,-328.68 363.68,-324.2 362.99,-331.17"/>
</a>
</g>
</g>
<!-- Node20 -->
<g id="Node000020" class="node">
<title>Node20</title>
<g id="a_Node000020"><a xlink:href="FrameInterpolation_8cpp.html#a3a4250dd10535ebfad101196ec528f79" target="_top" xlink:title=" ">
<polygon fill="white" stroke="#666666" points="772,-373.5 632,-373.5 632,-343.5 772,-343.5 772,-373.5"/>
<text text-anchor="start" x="640" y="-361.5" font-family="Helvetica,sans-Serif" font-size="10.00">FrameInterpolation</text>
<text text-anchor="middle" x="702" y="-350.5" font-family="Helvetica,sans-Serif" font-size="10.00">_RecordMatrixPosRotXYZ</text>
</a>
</g>
</g>
<!-- Node18&#45;&gt;Node20 -->
<g id="edge21_Node000018_Node000020" class="edge">
<title>Node18&#45;&gt;Node20</title>
<g id="a_edge21_Node000018_Node000020"><a xlink:title=" ">
<path fill="none" stroke="#63b8ff" d="M232.59,-322.02C253.71,-331.03 287.37,-343.96 318,-349.5 421.66,-368.25 543.66,-367.24 621.63,-363.75"/>
<polygon fill="#63b8ff" stroke="#63b8ff" points="622.04,-367.23 631.86,-363.27 621.7,-360.24 622.04,-367.23"/>
</a>
</g>
</g>
<!-- Node21 -->
<g id="Node000021" class="node">
<title>Node21</title>
<g id="a_Node000021"><a xlink:href="math__util_8c.html#a19ed3bd78fd2d3e2bd0a29f6caf48545" target="_top" xlink:title=" ">
<polygon fill="white" stroke="#666666" points="410.5,-303 374.5,-303 374.5,-284 410.5,-284 410.5,-303"/>
<text text-anchor="middle" x="392.5" y="-291" font-family="Helvetica,sans-Serif" font-size="10.00">sins</text>
</a>
</g>
</g>
<!-- Node18&#45;&gt;Node21 -->
<g id="edge23_Node000018_Node000021" class="edge">
<title>Node18&#45;&gt;Node21</title>
<g id="a_edge23_Node000018_Node000021"><a xlink:title=" ">
<path fill="none" stroke="#63b8ff" d="M274.71,-305.83C305.45,-302.58 340.79,-298.85 364.47,-296.35"/>
<polygon fill="#63b8ff" stroke="#63b8ff" points="364.89,-299.83 374.47,-295.3 364.16,-292.87 364.89,-299.83"/>
</a>
</g>
</g>
<!-- Node20&#45;&gt;Node3 -->
<g id="edge22_Node000020_Node000003" class="edge">
<title>Node20&#45;&gt;Node3</title>
<g id="a_edge22_Node000020_Node000003"><a xlink:title=" ">
<path fill="none" stroke="#63b8ff" d="M758.26,-343.46C777.18,-338.31 798.11,-332.62 816.11,-327.72"/>
<polygon fill="#63b8ff" stroke="#63b8ff" points="817.05,-331.09 825.78,-325.09 815.21,-324.34 817.05,-331.09"/>
</a>
</g>
</g>
<!-- Node23 -->
<g id="Node000023" class="node">
<title>Node23</title>
<g id="a_Node000023"><a xlink:href="Matrix_8cpp.html#a6416f9a60a7397e8b517b1483adb96e8" target="_top" xlink:title=" ">
<polygon fill="white" stroke="#666666" points="441.5,-266 343.5,-266 343.5,-247 441.5,-247 441.5,-266"/>
<text text-anchor="middle" x="392.5" y="-254" font-family="Helvetica,sans-Serif" font-size="10.00">AddObjectMatrix</text>
</a>
</g>
</g>
<!-- Node22&#45;&gt;Node23 -->
<g id="edge25_Node000022_Node000023" class="edge">
<title>Node22&#45;&gt;Node23</title>
<g id="a_edge25_Node000022_Node000023"><a xlink:title=" ">
<path fill="none" stroke="#63b8ff" d="M267.47,-256.5C288.4,-256.5 312.21,-256.5 333.33,-256.5"/>
<polygon fill="#63b8ff" stroke="#63b8ff" points="333.46,-260 343.46,-256.5 333.46,-253 333.46,-260"/>
</a>
</g>
</g>
<!-- Node23&#45;&gt;Node17 -->
<g id="edge30_Node000023_Node000017" class="edge">
<title>Node23&#45;&gt;Node17</title>
<g id="a_edge30_Node000023_Node000017"><a xlink:title=" ">
<path fill="none" stroke="#63b8ff" d="M441.69,-256.5C463.03,-256.5 487.85,-256.5 508.19,-256.5"/>
<polygon fill="#63b8ff" stroke="#63b8ff" points="508.38,-260 518.38,-256.5 508.38,-253 508.38,-260"/>
</a>
</g>
</g>
<!-- Node24 -->
<g id="Node000024" class="node">
<title>Node24</title>
<g id="a_Node000024"><a xlink:href="Matrix_8cpp.html#a67401ed1d8de1f4d3a3e5a7b72842b6a" target="_top" xlink:title=" ">
<polygon fill="white" stroke="#666666" points="583,-303 516,-303 516,-284 583,-284 583,-303"/>
<text text-anchor="middle" x="549.5" y="-291" font-family="Helvetica,sans-Serif" font-size="10.00">AddMatrix</text>
</a>
</g>
</g>
<!-- Node23&#45;&gt;Node24 -->
<g id="edge26_Node000023_Node000024" class="edge">
<title>Node23&#45;&gt;Node24</title>
<g id="a_edge26_Node000023_Node000024"><a xlink:title=" ">
<path fill="none" stroke="#63b8ff" d="M433.42,-266.03C455.59,-271.32 483.17,-277.9 505.77,-283.3"/>
<polygon fill="#63b8ff" stroke="#63b8ff" points="505.23,-286.77 515.77,-285.69 506.86,-279.96 505.23,-286.77"/>
</a>
</g>
</g>
<!-- Node25 -->
<g id="Node000025" class="node">
<title>Node25</title>
<g id="a_Node000025"><a xlink:href="FrameInterpolation_8cpp.html#a8cf1f2d6fabc6925aa71a9515341b4aa" target="_top" xlink:title=" ">
<polygon fill="white" stroke="#666666" points="772,-287.5 632,-287.5 632,-257.5 772,-257.5 772,-287.5"/>
<text text-anchor="start" x="640" y="-275.5" font-family="Helvetica,sans-Serif" font-size="10.00">FrameInterpolation</text>
<text text-anchor="middle" x="702" y="-264.5" font-family="Helvetica,sans-Serif" font-size="10.00">_RecordMatrixMtxFToMtx</text>
</a>
</g>
</g>
<!-- Node24&#45;&gt;Node25 -->
<g id="edge27_Node000024_Node000025" class="edge">
<title>Node24&#45;&gt;Node25</title>
<g id="a_edge27_Node000024_Node000025"><a xlink:title=" ">
<path fill="none" stroke="#63b8ff" d="M583.16,-288.94C594.7,-287.33 608.25,-285.44 621.96,-283.53"/>
<polygon fill="#63b8ff" stroke="#63b8ff" points="622.53,-286.98 631.95,-282.14 621.56,-280.05 622.53,-286.98"/>
</a>
</g>
</g>
<!-- Node26 -->
<g id="Node000026" class="node">
<title>Node26</title>
<g id="a_Node000026"><a xlink:href="guMtxF2L_8c.html#a40ab2d64c609839ff1e0ef0de2d0dcc4" target="_top" xlink:title=" ">
<polygon fill="white" stroke="#666666" points="734.5,-325 669.5,-325 669.5,-306 734.5,-306 734.5,-325"/>
<text text-anchor="middle" x="702" y="-313" font-family="Helvetica,sans-Serif" font-size="10.00">guMtxF2L</text>
</a>
</g>
</g>
<!-- Node24&#45;&gt;Node26 -->
<g id="edge29_Node000024_Node000026" class="edge">
<title>Node24&#45;&gt;Node26</title>
<g id="a_edge29_Node000024_Node000026"><a xlink:title=" ">
<path fill="none" stroke="#63b8ff" d="M583.16,-298.27C605.55,-301.55 635.44,-305.92 659.52,-309.44"/>
<polygon fill="#63b8ff" stroke="#63b8ff" points="659.04,-312.9 669.44,-310.89 660.05,-305.98 659.04,-312.9"/>
</a>
</g>
</g>
<!-- Node25&#45;&gt;Node3 -->
<g id="edge28_Node000025_Node000003" class="edge">
<title>Node25&#45;&gt;Node3</title>
<g id="a_edge28_Node000025_Node000003"><a xlink:title=" ">
<path fill="none" stroke="#63b8ff" d="M758.26,-287.54C777.18,-292.69 798.11,-298.38 816.11,-303.28"/>
<polygon fill="#63b8ff" stroke="#63b8ff" points="815.21,-306.66 825.78,-305.91 817.05,-299.91 815.21,-306.66"/>
</a>
</g>
</g>
</g>
</svg>
