<?xml version="1.0" encoding="UTF-8" standalone="no"?>
<!DOCTYPE svg PUBLIC "-//W3C//DTD SVG 1.1//EN"
 "http://www.w3.org/Graphics/SVG/1.1/DTD/svg11.dtd">
<!-- Generated by graphviz version 2.43.0 (0)
 -->
<!-- Title: PlayerBombKart::func_800568A0 Pages: 1 -->
<svg width="806pt" height="334pt"
 viewBox="0.00 0.00 806.00 333.50" xmlns="http://www.w3.org/2000/svg" xmlns:xlink="http://www.w3.org/1999/xlink">
<g id="graph0" class="graph" transform="scale(1 1) rotate(0) translate(4 329.5)">
<title>PlayerBombKart::func_800568A0</title>
<!-- Node1 -->
<g id="Node000001" class="node">
<title>Node1</title>
<g id="a_Node000001"><a xlink:title=" ">
<polygon fill="#999999" stroke="#666666" points="123,-248.5 0,-248.5 0,-218.5 123,-218.5 123,-248.5"/>
<text text-anchor="start" x="8" y="-236.5" font-family="Helvetica,sans-Serif" font-size="10.00">PlayerBombKart::func</text>
<text text-anchor="middle" x="61.5" y="-225.5" font-family="Helvetica,sans-Serif" font-size="10.00">_800568A0</text>
</a>
</g>
</g>
<!-- Node2 -->
<g id="Node000002" class="node">
<title>Node2</title>
<g id="a_Node000002"><a xlink:href="Matrix_8cpp.html#a329d78c031733cf22ff7518f5d38fd74" target="_top" xlink:title=" ">
<polygon fill="white" stroke="#666666" points="263,-280 177,-280 177,-261 263,-261 263,-280"/>
<text text-anchor="middle" x="220" y="-268" font-family="Helvetica,sans-Serif" font-size="10.00">AddHudMatrix</text>
</a>
</g>
</g>
<!-- Node1&#45;&gt;Node2 -->
<g id="edge1_Node000001_Node000002" class="edge">
<title>Node1&#45;&gt;Node2</title>
<g id="a_edge1_Node000001_Node000002"><a xlink:title=" ">
<path fill="none" stroke="#63b8ff" d="M123.01,-247.81C138.1,-251.37 154.13,-255.16 168.67,-258.6"/>
<polygon fill="#63b8ff" stroke="#63b8ff" points="167.94,-262.02 178.47,-260.92 169.55,-255.21 167.94,-262.02"/>
</a>
</g>
</g>
<!-- Node8 -->
<g id="Node000008" class="node">
<title>Node8</title>
<g id="a_Node000008"><a xlink:href="GBIMiddleware_8cpp.html#a4ecc44e3c6f1ca5a6b4a20c41d3bd2d2" target="_top" xlink:title=" ">
<polygon fill="white" stroke="#666666" points="264.5,-243 175.5,-243 175.5,-224 264.5,-224 264.5,-243"/>
<text text-anchor="middle" x="220" y="-231" font-family="Helvetica,sans-Serif" font-size="10.00">gSPDisplayList</text>
</a>
</g>
</g>
<!-- Node1&#45;&gt;Node8 -->
<g id="edge7_Node000001_Node000008" class="edge">
<title>Node1&#45;&gt;Node8</title>
<g id="a_edge7_Node000001_Node000008"><a xlink:title=" ">
<path fill="none" stroke="#63b8ff" d="M123.01,-233.5C136.85,-233.5 151.48,-233.5 165.03,-233.5"/>
<polygon fill="#63b8ff" stroke="#63b8ff" points="165.15,-237 175.15,-233.5 165.15,-230 165.15,-237"/>
</a>
</g>
</g>
<!-- Node11 -->
<g id="Node000011" class="node">
<title>Node11</title>
<g id="a_Node000011"><a xlink:href="math__util__2_8c.html#aae502d60ed48e002c9bf17890477aebc" target="_top" xlink:title=" ">
<polygon fill="white" stroke="#666666" points="281,-130 159,-130 159,-111 281,-111 281,-130"/>
<text text-anchor="middle" x="220" y="-118" font-family="Helvetica,sans-Serif" font-size="10.00">set_transform_matrix</text>
</a>
</g>
</g>
<!-- Node1&#45;&gt;Node11 -->
<g id="edge10_Node000001_Node000011" class="edge">
<title>Node1&#45;&gt;Node11</title>
<g id="a_edge10_Node000001_Node000011"><a xlink:title=" ">
<path fill="none" stroke="#63b8ff" d="M83.28,-218.49C112.95,-197.07 167.17,-157.92 197.32,-136.15"/>
<polygon fill="#63b8ff" stroke="#63b8ff" points="199.44,-138.94 205.5,-130.25 195.34,-133.26 199.44,-138.94"/>
</a>
</g>
</g>
<!-- Node3 -->
<g id="Node000003" class="node">
<title>Node3</title>
<g id="a_Node000003"><a xlink:href="Matrix_8cpp.html#a67401ed1d8de1f4d3a3e5a7b72842b6a" target="_top" xlink:title=" ">
<polygon fill="white" stroke="#666666" points="425,-317 358,-317 358,-298 425,-298 425,-317"/>
<text text-anchor="middle" x="391.5" y="-305" font-family="Helvetica,sans-Serif" font-size="10.00">AddMatrix</text>
</a>
</g>
</g>
<!-- Node2&#45;&gt;Node3 -->
<g id="edge2_Node000002_Node000003" class="edge">
<title>Node2&#45;&gt;Node3</title>
<g id="a_edge2_Node000002_Node000003"><a xlink:title=" ">
<path fill="none" stroke="#63b8ff" d="M263.33,-279.74C289.13,-285.37 321.99,-292.55 347.85,-298.19"/>
<polygon fill="#63b8ff" stroke="#63b8ff" points="347.22,-301.64 357.74,-300.35 348.72,-294.8 347.22,-301.64"/>
</a>
</g>
</g>
<!-- Node7 -->
<g id="Node000007" class="node">
<title>Node7</title>
<g id="a_Node000007"><a xlink:href="Game_8cpp.html#ae2fa844b3cb1021ecbc357f8ed2ad8cc" target="_top" xlink:title=" ">
<polygon fill="white" stroke="#666666" points="422.5,-280 360.5,-280 360.5,-261 422.5,-261 422.5,-280"/>
<text text-anchor="middle" x="391.5" y="-268" font-family="Helvetica,sans-Serif" font-size="10.00">GetWorld</text>
</a>
</g>
</g>
<!-- Node2&#45;&gt;Node7 -->
<g id="edge6_Node000002_Node000007" class="edge">
<title>Node2&#45;&gt;Node7</title>
<g id="a_edge6_Node000002_Node000007"><a xlink:title=" ">
<path fill="none" stroke="#63b8ff" d="M263.33,-270.5C289.88,-270.5 323.9,-270.5 350.08,-270.5"/>
<polygon fill="#63b8ff" stroke="#63b8ff" points="350.41,-274 360.41,-270.5 350.41,-267 350.41,-274"/>
</a>
</g>
</g>
<!-- Node4 -->
<g id="Node000004" class="node">
<title>Node4</title>
<g id="a_Node000004"><a xlink:href="FrameInterpolation_8cpp.html#a8cf1f2d6fabc6925aa71a9515341b4aa" target="_top" xlink:title=" ">
<polygon fill="white" stroke="#666666" points="648,-325.5 508,-325.5 508,-295.5 648,-295.5 648,-325.5"/>
<text text-anchor="start" x="516" y="-313.5" font-family="Helvetica,sans-Serif" font-size="10.00">FrameInterpolation</text>
<text text-anchor="middle" x="578" y="-302.5" font-family="Helvetica,sans-Serif" font-size="10.00">_RecordMatrixMtxFToMtx</text>
</a>
</g>
</g>
<!-- Node3&#45;&gt;Node4 -->
<g id="edge3_Node000003_Node000004" class="edge">
<title>Node3&#45;&gt;Node4</title>
<g id="a_edge3_Node000003_Node000004"><a xlink:title=" ">
<path fill="none" stroke="#63b8ff" d="M425.06,-308.03C445.24,-308.36 472.11,-308.79 497.63,-309.21"/>
<polygon fill="#63b8ff" stroke="#63b8ff" points="497.65,-312.71 507.7,-309.37 497.76,-305.71 497.65,-312.71"/>
</a>
</g>
</g>
<!-- Node6 -->
<g id="Node000006" class="node">
<title>Node6</title>
<g id="a_Node000006"><a xlink:href="guMtxF2L_8c.html#a40ab2d64c609839ff1e0ef0de2d0dcc4" target="_top" xlink:title=" ">
<polygon fill="white" stroke="#666666" points="610.5,-277 545.5,-277 545.5,-258 610.5,-258 610.5,-277"/>
<text text-anchor="middle" x="578" y="-265" font-family="Helvetica,sans-Serif" font-size="10.00">guMtxF2L</text>
</a>
</g>
</g>
<!-- Node3&#45;&gt;Node6 -->
<g id="edge5_Node000003_Node000006" class="edge">
<title>Node3&#45;&gt;Node6</title>
<g id="a_edge5_Node000003_Node000006"><a xlink:title=" ">
<path fill="none" stroke="#63b8ff" d="M425.06,-300.44C455.81,-293.77 502.07,-283.75 535.46,-276.51"/>
<polygon fill="#63b8ff" stroke="#63b8ff" points="536.35,-279.89 545.38,-274.35 534.87,-273.05 536.35,-279.89"/>
</a>
</g>
</g>
<!-- Node5 -->
<g id="Node000005" class="node">
<title>Node5</title>
<g id="a_Node000005"><a xlink:href="FrameInterpolation_8cpp.html#a02c7ac5342a4d376edee38f312b480bf" target="_top" xlink:title=" ">
<polygon fill="white" stroke="#666666" points="798,-256 690,-256 690,-237 798,-237 798,-256"/>
<text text-anchor="middle" x="744" y="-244" font-family="Helvetica,sans-Serif" font-size="10.00">check_if_recording</text>
</a>
</g>
</g>
<!-- Node4&#45;&gt;Node5 -->
<g id="edge4_Node000004_Node000005" class="edge">
<title>Node4&#45;&gt;Node5</title>
<g id="a_edge4_Node000004_Node000005"><a xlink:title=" ">
<path fill="none" stroke="#63b8ff" d="M628.9,-295.4C637.33,-292.6 645.96,-289.58 654,-286.5 674.36,-278.69 696.75,-268.62 713.98,-260.54"/>
<polygon fill="#63b8ff" stroke="#63b8ff" points="715.94,-263.49 723.47,-256.04 712.94,-257.16 715.94,-263.49"/>
</a>
</g>
</g>
<!-- Node9 -->
<g id="Node000009" class="node">
<title>Node9</title>
<g id="a_Node000009"><a xlink:href="Engine_8cpp.html#a223c8bc63f228dc11177515e38eff2db" target="_top" xlink:title=" ">
<polygon fill="white" stroke="#666666" points="466,-243 317,-243 317,-224 466,-224 466,-243"/>
<text text-anchor="middle" x="391.5" y="-231" font-family="Helvetica,sans-Serif" font-size="10.00">GameEngine_OTRSigCheck</text>
</a>
</g>
</g>
<!-- Node8&#45;&gt;Node9 -->
<g id="edge8_Node000008_Node000009" class="edge">
<title>Node8&#45;&gt;Node9</title>
<g id="a_edge8_Node000008_Node000009"><a xlink:title=" ">
<path fill="none" stroke="#63b8ff" d="M264.65,-233.5C277.56,-233.5 292.15,-233.5 306.7,-233.5"/>
<polygon fill="#63b8ff" stroke="#63b8ff" points="306.75,-237 316.75,-233.5 306.75,-230 306.75,-237"/>
</a>
</g>
</g>
<!-- Node10 -->
<g id="Node000010" class="node">
<title>Node10</title>
<g id="a_Node000010"><a xlink:href="string_8c.html#a008e171a518fe0e0352f31b245e03875" target="_top" xlink:title=" ">
<polygon fill="white" stroke="#666666" points="600,-240 556,-240 556,-221 600,-221 600,-240"/>
<text text-anchor="middle" x="578" y="-228" font-family="Helvetica,sans-Serif" font-size="10.00">strlen</text>
</a>
</g>
</g>
<!-- Node9&#45;&gt;Node10 -->
<g id="edge9_Node000009_Node000010" class="edge">
<title>Node9&#45;&gt;Node10</title>
<g id="a_edge9_Node000009_Node000010"><a xlink:title=" ">
<path fill="none" stroke="#63b8ff" d="M466.21,-232.3C493.86,-231.85 523.83,-231.36 545.62,-231.01"/>
<polygon fill="#63b8ff" stroke="#63b8ff" points="545.96,-234.51 555.91,-230.84 545.85,-227.51 545.96,-234.51"/>
</a>
</g>
</g>
<!-- Node12 -->
<g id="Node000012" class="node">
<title>Node12</title>
<g id="a_Node000012"><a xlink:href="math__util_8c.html#ae69cbf5c8d4b3b0dba2d7b4d4673689f" target="_top" xlink:title=" ">
<polygon fill="white" stroke="#666666" points="410.5,-206 372.5,-206 372.5,-187 410.5,-187 410.5,-206"/>
<text text-anchor="middle" x="391.5" y="-194" font-family="Helvetica,sans-Serif" font-size="10.00">coss</text>
</a>
</g>
</g>
<!-- Node11&#45;&gt;Node12 -->
<g id="edge11_Node000011_Node000012" class="edge">
<title>Node11&#45;&gt;Node12</title>
<g id="a_edge11_Node000011_Node000012"><a xlink:title=" ">
<path fill="none" stroke="#63b8ff" d="M236.53,-130.05C255.16,-141.24 287.57,-159.85 317,-172.5 331.64,-178.79 348.51,-184.41 362.4,-188.63"/>
<polygon fill="#63b8ff" stroke="#63b8ff" points="361.76,-192.09 372.34,-191.57 363.74,-185.38 361.76,-192.09"/>
</a>
</g>
</g>
<!-- Node13 -->
<g id="Node000013" class="node">
<title>Node13</title>
<g id="a_Node000013"><a xlink:href="FrameInterpolation_8cpp.html#adc4e082ac2a755e94aa8b4e8bbba9850" target="_top" xlink:title=" ">
<polygon fill="white" stroke="#666666" points="654,-187.5 502,-187.5 502,-157.5 654,-157.5 654,-187.5"/>
<text text-anchor="start" x="510" y="-175.5" font-family="Helvetica,sans-Serif" font-size="10.00">FrameInterpolation</text>
<text text-anchor="middle" x="578" y="-164.5" font-family="Helvetica,sans-Serif" font-size="10.00">_RecordSetTransformMatrix</text>
</a>
</g>
</g>
<!-- Node11&#45;&gt;Node13 -->
<g id="edge12_Node000011_Node000013" class="edge">
<title>Node11&#45;&gt;Node13</title>
<g id="a_edge12_Node000011_Node000013"><a xlink:title=" ">
<path fill="none" stroke="#63b8ff" d="M269.25,-130.09C284.5,-132.97 301.43,-136.02 317,-138.5 375.16,-147.75 440.94,-156.33 491.79,-162.56"/>
<polygon fill="#63b8ff" stroke="#63b8ff" points="491.4,-166.04 501.75,-163.78 492.25,-159.09 491.4,-166.04"/>
</a>
</g>
</g>
<!-- Node14 -->
<g id="Node000014" class="node">
<title>Node14</title>
<g id="a_Node000014"><a xlink:href="math__util_8c.html#a19ed3bd78fd2d3e2bd0a29f6caf48545" target="_top" xlink:title=" ">
<polygon fill="white" stroke="#666666" points="409.5,-130 373.5,-130 373.5,-111 409.5,-111 409.5,-130"/>
<text text-anchor="middle" x="391.5" y="-118" font-family="Helvetica,sans-Serif" font-size="10.00">sins</text>
</a>
</g>
</g>
<!-- Node11&#45;&gt;Node14 -->
<g id="edge14_Node000011_Node000014" class="edge">
<title>Node11&#45;&gt;Node14</title>
<g id="a_edge14_Node000011_Node000014"><a xlink:title=" ">
<path fill="none" stroke="#63b8ff" d="M281.24,-120.5C309.08,-120.5 340.78,-120.5 362.84,-120.5"/>
<polygon fill="#63b8ff" stroke="#63b8ff" points="363.13,-124 373.13,-120.5 363.12,-117 363.13,-124"/>
</a>
</g>
</g>
<!-- Node15 -->
<g id="Node000015" class="node">
<title>Node15</title>
<g id="a_Node000015"><a xlink:href="math__util__2_8c.html#ab05a6d20123383498f07f82db7b6fb8d" target="_top" xlink:title=" ">
<polygon fill="white" stroke="#666666" points="449.5,-93 333.5,-93 333.5,-74 449.5,-74 449.5,-93"/>
<text text-anchor="middle" x="391.5" y="-81" font-family="Helvetica,sans-Serif" font-size="10.00">vec3f_cross_product</text>
</a>
</g>
</g>
<!-- Node11&#45;&gt;Node15 -->
<g id="edge15_Node000011_Node000015" class="edge">
<title>Node11&#45;&gt;Node15</title>
<g id="a_edge15_Node000011_Node000015"><a xlink:title=" ">
<path fill="none" stroke="#63b8ff" d="M264.65,-110.97C286.61,-106.18 313.43,-100.32 336.65,-95.25"/>
<polygon fill="#63b8ff" stroke="#63b8ff" points="337.68,-98.61 346.7,-93.06 336.19,-91.77 337.68,-98.61"/>
</a>
</g>
</g>
<!-- Node16 -->
<g id="Node000016" class="node">
<title>Node16</title>
<g id="a_Node000016"><a xlink:href="math__util__2_8c.html#ad692d06c2c62cfc4e1b91e03cc0acf00" target="_top" xlink:title=" ">
<polygon fill="white" stroke="#666666" points="440.5,-56 342.5,-56 342.5,-37 440.5,-37 440.5,-56"/>
<text text-anchor="middle" x="391.5" y="-44" font-family="Helvetica,sans-Serif" font-size="10.00">vec3f_normalize</text>
</a>
</g>
</g>
<!-- Node11&#45;&gt;Node16 -->
<g id="edge16_Node000011_Node000016" class="edge">
<title>Node11&#45;&gt;Node16</title>
<g id="a_edge16_Node000011_Node000016"><a xlink:title=" ">
<path fill="none" stroke="#63b8ff" d="M234.66,-110.82C252.71,-98.43 285.87,-77.08 317,-64.5 322.1,-62.44 327.5,-60.57 332.96,-58.89"/>
<polygon fill="#63b8ff" stroke="#63b8ff" points="334.17,-62.18 342.81,-56.05 332.23,-55.45 334.17,-62.18"/>
</a>
</g>
</g>
<!-- Node18 -->
<g id="Node000018" class="node">
<title>Node18</title>
<g id="a_Node000018"><a xlink:href="math__util__2_8c.html#a03ebc759ba50db479384b0ad89225f1e" target="_top" xlink:title=" ">
<polygon fill="white" stroke="#666666" points="434.5,-19 348.5,-19 348.5,0 434.5,0 434.5,-19"/>
<text text-anchor="middle" x="391.5" y="-7" font-family="Helvetica,sans-Serif" font-size="10.00">vec3f_set_xyz</text>
</a>
</g>
</g>
<!-- Node11&#45;&gt;Node18 -->
<g id="edge18_Node000011_Node000018" class="edge">
<title>Node11&#45;&gt;Node18</title>
<g id="a_edge18_Node000011_Node000018"><a xlink:title=" ">
<path fill="none" stroke="#63b8ff" d="M228.01,-110.9C242.43,-91.89 277.4,-49.39 317,-27.5 323.64,-23.83 331.02,-20.9 338.47,-18.57"/>
<polygon fill="#63b8ff" stroke="#63b8ff" points="339.56,-21.9 348.24,-15.82 337.67,-15.16 339.56,-21.9"/>
</a>
</g>
</g>
<!-- Node13&#45;&gt;Node5 -->
<g id="edge13_Node000013_Node000005" class="edge">
<title>Node13&#45;&gt;Node5</title>
<g id="a_edge13_Node000013_Node000005"><a xlink:title=" ">
<path fill="none" stroke="#63b8ff" d="M612.58,-187.65C641.92,-200.89 684.15,-219.94 712.53,-232.75"/>
<polygon fill="#63b8ff" stroke="#63b8ff" points="711.39,-236.08 721.94,-237 714.27,-229.7 711.39,-236.08"/>
</a>
</g>
</g>
<!-- Node17 -->
<g id="Node000017" class="node">
<title>Node17</title>
<g id="a_Node000017"><a xlink:href="math_8h.html#a37bde043e94a6f074c78f10518fb5d99" target="_top" xlink:title=" ">
<polygon fill="white" stroke="#666666" points="597.5,-56 558.5,-56 558.5,-37 597.5,-37 597.5,-56"/>
<text text-anchor="middle" x="578" y="-44" font-family="Helvetica,sans-Serif" font-size="10.00">sqrtf</text>
</a>
</g>
</g>
<!-- Node16&#45;&gt;Node17 -->
<g id="edge17_Node000016_Node000017" class="edge">
<title>Node16&#45;&gt;Node17</title>
<g id="a_edge17_Node000016_Node000017"><a xlink:title=" ">
<path fill="none" stroke="#63b8ff" d="M440.98,-46.5C475.06,-46.5 519.52,-46.5 548.16,-46.5"/>
<polygon fill="#63b8ff" stroke="#63b8ff" points="548.32,-50 558.32,-46.5 548.32,-43 548.32,-50"/>
</a>
</g>
</g>
</g>
</svg>
