<?xml version="1.0" encoding="UTF-8" standalone="no"?>
<!DOCTYPE svg PUBLIC "-//W3C//DTD SVG 1.1//EN"
 "http://www.w3.org/Graphics/SVG/1.1/DTD/svg11.dtd">
<!-- Generated by graphviz version 2.43.0 (0)
 -->
<!-- Title: OBat::func_8007DAF8 Pages: 1 -->
<svg width="695pt" height="285pt"
 viewBox="0.00 0.00 695.00 284.50" xmlns="http://www.w3.org/2000/svg" xmlns:xlink="http://www.w3.org/1999/xlink">
<g id="graph0" class="graph" transform="scale(1 1) rotate(0) translate(4 280.5)">
<title>OBat::func_8007DAF8</title>
<!-- Node1 -->
<g id="Node000001" class="node">
<title>Node1</title>
<g id="a_Node000001"><a xlink:title=" ">
<polygon fill="#999999" stroke="#666666" points="123,-125.5 0,-125.5 0,-106.5 123,-106.5 123,-125.5"/>
<text text-anchor="middle" x="61.5" y="-113.5" font-family="Helvetica,sans-Serif" font-size="10.00">OBat::func_8007DAF8</text>
</a>
</g>
</g>
<!-- Node2 -->
<g id="Node000002" class="node">
<title>Node2</title>
<g id="a_Node000002"><a xlink:href="classOBat.html#a0328a08a971d74212deae9865d5d5702" target="_top" xlink:title=" ">
<polygon fill="white" stroke="#666666" points="283,-104.5 159,-104.5 159,-85.5 283,-85.5 283,-104.5"/>
<text text-anchor="middle" x="221" y="-92.5" font-family="Helvetica,sans-Serif" font-size="10.00">OBat::func_8007DA4C</text>
</a>
</g>
</g>
<!-- Node1&#45;&gt;Node2 -->
<g id="edge1_Node000001_Node000002" class="edge">
<title>Node1&#45;&gt;Node2</title>
<g id="a_edge1_Node000001_Node000002"><a xlink:title=" ">
<path fill="none" stroke="#63b8ff" d="M123.39,-107.88C131.64,-106.78 140.16,-105.65 148.57,-104.52"/>
<polygon fill="#63b8ff" stroke="#63b8ff" points="149.3,-107.96 158.75,-103.17 148.37,-101.02 149.3,-107.96"/>
</a>
</g>
</g>
<!-- Node9 -->
<g id="Node000009" class="node">
<title>Node9</title>
<g id="a_Node000009"><a xlink:href="classOBat.html#abfcea8402750261c9abb041cb1784336" target="_top" xlink:title=" ">
<polygon fill="white" stroke="#666666" points="282.5,-147.5 159.5,-147.5 159.5,-128.5 282.5,-128.5 282.5,-147.5"/>
<text text-anchor="middle" x="221" y="-135.5" font-family="Helvetica,sans-Serif" font-size="10.00">OBat::func_8007DA74</text>
</a>
</g>
</g>
<!-- Node1&#45;&gt;Node9 -->
<g id="edge8_Node000001_Node000009" class="edge">
<title>Node1&#45;&gt;Node9</title>
<g id="a_edge8_Node000001_Node000009"><a xlink:title=" ">
<path fill="none" stroke="#63b8ff" d="M123.39,-124.51C131.86,-125.69 140.61,-126.91 149.23,-128.11"/>
<polygon fill="#63b8ff" stroke="#63b8ff" points="148.88,-131.6 159.27,-129.52 149.85,-124.67 148.88,-131.6"/>
</a>
</g>
</g>
<!-- Node3 -->
<g id="Node000003" class="node">
<title>Node3</title>
<g id="a_Node000003"><a xlink:href="code__80086E70_8c.html#adcb9e38595a0827a9b9c10943bcb89b5" target="_top" xlink:title=" ">
<polygon fill="white" stroke="#666666" points="426,-61.5 334,-61.5 334,-42.5 426,-42.5 426,-61.5"/>
<text text-anchor="middle" x="380" y="-49.5" font-family="Helvetica,sans-Serif" font-size="10.00">func_8008781C</text>
</a>
</g>
</g>
<!-- Node2&#45;&gt;Node3 -->
<g id="edge2_Node000002_Node000003" class="edge">
<title>Node2&#45;&gt;Node3</title>
<g id="a_edge2_Node000002_Node000003"><a xlink:title=" ">
<path fill="none" stroke="#63b8ff" d="M256.84,-85.46C279.71,-79.19 309.82,-70.95 334.43,-64.21"/>
<polygon fill="#63b8ff" stroke="#63b8ff" points="335.53,-67.53 344.25,-61.52 333.68,-60.78 335.53,-67.53"/>
</a>
</g>
</g>
<!-- Node8 -->
<g id="Node000008" class="node">
<title>Node8</title>
<g id="a_Node000008"><a xlink:href="code__80086E70_8c.html#a2f6ae8b384477efbc2654d6427d095f7" target="_top" xlink:title=" ">
<polygon fill="white" stroke="#666666" points="441,-110 319,-110 319,-80 441,-80 441,-110"/>
<text text-anchor="start" x="327" y="-98" font-family="Helvetica,sans-Serif" font-size="10.00">object_calculate_new</text>
<text text-anchor="middle" x="380" y="-87" font-family="Helvetica,sans-Serif" font-size="10.00">_pos_offset</text>
</a>
</g>
</g>
<!-- Node2&#45;&gt;Node8 -->
<g id="edge7_Node000002_Node000008" class="edge">
<title>Node2&#45;&gt;Node8</title>
<g id="a_edge7_Node000002_Node000008"><a xlink:title=" ">
<path fill="none" stroke="#63b8ff" d="M283.15,-95C291.47,-95 300.07,-95 308.55,-95"/>
<polygon fill="#63b8ff" stroke="#63b8ff" points="308.79,-98.5 318.79,-95 308.79,-91.5 308.79,-98.5"/>
</a>
</g>
</g>
<!-- Node4 -->
<g id="Node000004" class="node">
<title>Node4</title>
<g id="a_Node000004"><a xlink:href="code__80086E70_8c.html#a1cd6a78cf091bd496e83739902c652a7" target="_top" xlink:title=" ">
<polygon fill="white" stroke="#666666" points="591,-67.5 499,-67.5 499,-48.5 591,-48.5 591,-67.5"/>
<text text-anchor="middle" x="545" y="-55.5" font-family="Helvetica,sans-Serif" font-size="10.00">func_8008751C</text>
</a>
</g>
</g>
<!-- Node3&#45;&gt;Node4 -->
<g id="edge3_Node000003_Node000004" class="edge">
<title>Node3&#45;&gt;Node4</title>
<g id="a_edge3_Node000003_Node000004"><a xlink:title=" ">
<path fill="none" stroke="#63b8ff" d="M426.4,-53.67C445.75,-54.38 468.48,-55.22 488.79,-55.97"/>
<polygon fill="#63b8ff" stroke="#63b8ff" points="488.72,-59.47 498.84,-56.34 488.97,-52.47 488.72,-59.47"/>
</a>
</g>
</g>
<!-- Node7 -->
<g id="Node000007" class="node">
<title>Node7</title>
<g id="a_Node000007"><a xlink:href="code__80086E70_8c.html#ad7b4c375db18ad21adab51801dba6092" target="_top" xlink:title=" ">
<polygon fill="white" stroke="#666666" points="602,-30 488,-30 488,0 602,0 602,-30"/>
<text text-anchor="start" x="496" y="-18" font-family="Helvetica,sans-Serif" font-size="10.00">object_add_velocity</text>
<text text-anchor="middle" x="545" y="-7" font-family="Helvetica,sans-Serif" font-size="10.00">_offset_xz</text>
</a>
</g>
</g>
<!-- Node3&#45;&gt;Node7 -->
<g id="edge6_Node000003_Node000007" class="edge">
<title>Node3&#45;&gt;Node7</title>
<g id="a_edge6_Node000003_Node000007"><a xlink:title=" ">
<path fill="none" stroke="#63b8ff" d="M422.98,-42.47C439.69,-38.68 459.32,-34.22 477.86,-30.01"/>
<polygon fill="#63b8ff" stroke="#63b8ff" points="478.75,-33.4 487.72,-27.77 477.2,-26.57 478.75,-33.4"/>
</a>
</g>
</g>
<!-- Node5 -->
<g id="Node000005" class="node">
<title>Node5</title>
<g id="a_Node000005"><a xlink:href="math__util_8c.html#ae69cbf5c8d4b3b0dba2d7b4d4673689f" target="_top" xlink:title=" ">
<polygon fill="white" stroke="#666666" points="687,-104.5 649,-104.5 649,-85.5 687,-85.5 687,-104.5"/>
<text text-anchor="middle" x="668" y="-92.5" font-family="Helvetica,sans-Serif" font-size="10.00">coss</text>
</a>
</g>
</g>
<!-- Node4&#45;&gt;Node5 -->
<g id="edge4_Node000004_Node000005" class="edge">
<title>Node4&#45;&gt;Node5</title>
<g id="a_edge4_Node000004_Node000005"><a xlink:title=" ">
<path fill="none" stroke="#63b8ff" d="M583.71,-67.59C593.3,-70.18 603.57,-73.08 613,-76 621.5,-78.63 630.67,-81.75 638.99,-84.69"/>
<polygon fill="#63b8ff" stroke="#63b8ff" points="638.03,-88.06 648.62,-88.14 640.39,-81.47 638.03,-88.06"/>
</a>
</g>
</g>
<!-- Node6 -->
<g id="Node000006" class="node">
<title>Node6</title>
<g id="a_Node000006"><a xlink:href="math__util_8c.html#a19ed3bd78fd2d3e2bd0a29f6caf48545" target="_top" xlink:title=" ">
<polygon fill="white" stroke="#666666" points="686,-67.5 650,-67.5 650,-48.5 686,-48.5 686,-67.5"/>
<text text-anchor="middle" x="668" y="-55.5" font-family="Helvetica,sans-Serif" font-size="10.00">sins</text>
</a>
</g>
</g>
<!-- Node4&#45;&gt;Node6 -->
<g id="edge5_Node000004_Node000006" class="edge">
<title>Node4&#45;&gt;Node6</title>
<g id="a_edge5_Node000004_Node000006"><a xlink:title=" ">
<path fill="none" stroke="#63b8ff" d="M591.06,-58C607.44,-58 625.44,-58 639.81,-58"/>
<polygon fill="#63b8ff" stroke="#63b8ff" points="640,-61.5 650,-58 640,-54.5 640,-61.5"/>
</a>
</g>
</g>
<!-- Node9&#45;&gt;Node8 -->
<g id="edge19_Node000009_Node000008" class="edge">
<title>Node9&#45;&gt;Node8</title>
<g id="a_edge19_Node000009_Node000008"><a xlink:title=" ">
<path fill="none" stroke="#63b8ff" d="M256.84,-128.46C273.77,-123.82 294.66,-118.1 314.36,-112.71"/>
<polygon fill="#63b8ff" stroke="#63b8ff" points="315.49,-116.02 324.21,-110.01 313.64,-109.27 315.49,-116.02"/>
</a>
</g>
</g>
<!-- Node10 -->
<g id="Node000010" class="node">
<title>Node10</title>
<g id="a_Node000010"><a xlink:href="math__util__2_8c.html#a0477eb3c05bafb2dd984658abd1e56e9" target="_top" xlink:title=" ">
<polygon fill="white" stroke="#666666" points="426,-184.5 334,-184.5 334,-165.5 426,-165.5 426,-184.5"/>
<text text-anchor="middle" x="380" y="-172.5" font-family="Helvetica,sans-Serif" font-size="10.00">func_800417B4</text>
</a>
</g>
</g>
<!-- Node9&#45;&gt;Node10 -->
<g id="edge9_Node000009_Node000010" class="edge">
<title>Node9&#45;&gt;Node10</title>
<g id="a_edge9_Node000009_Node000010"><a xlink:title=" ">
<path fill="none" stroke="#63b8ff" d="M262.43,-147.53C282.59,-152.28 307.17,-158.07 328.55,-163.11"/>
<polygon fill="#63b8ff" stroke="#63b8ff" points="327.9,-166.55 338.43,-165.44 329.5,-159.74 327.9,-166.55"/>
</a>
</g>
</g>
<!-- Node11 -->
<g id="Node000011" class="node">
<title>Node11</title>
<g id="a_Node000011"><a xlink:href="code__80086E70_8c.html#a64bb471d4676a52cdee8aa47e84880dd" target="_top" xlink:title=" ">
<polygon fill="white" stroke="#666666" points="425.5,-227.5 334.5,-227.5 334.5,-208.5 425.5,-208.5 425.5,-227.5"/>
<text text-anchor="middle" x="380" y="-215.5" font-family="Helvetica,sans-Serif" font-size="10.00">func_80087060</text>
</a>
</g>
</g>
<!-- Node9&#45;&gt;Node11 -->
<g id="edge10_Node000009_Node000011" class="edge">
<title>Node9&#45;&gt;Node11</title>
<g id="a_edge10_Node000009_Node000011"><a xlink:title=" ">
<path fill="none" stroke="#63b8ff" d="M237.09,-147.62C255.86,-159.37 289.09,-179.48 319,-194 326.68,-197.73 335.09,-201.36 343.12,-204.62"/>
<polygon fill="#63b8ff" stroke="#63b8ff" points="342.07,-207.97 352.66,-208.4 344.65,-201.46 342.07,-207.97"/>
</a>
</g>
</g>
<!-- Node15 -->
<g id="Node000015" class="node">
<title>Node15</title>
<g id="a_Node000015"><a xlink:href="code__80086E70_8c.html#a7f545f496d8eed39c2ef6fcb4bef6de1" target="_top" xlink:title=" ">
<polygon fill="white" stroke="#666666" points="425.5,-147.5 334.5,-147.5 334.5,-128.5 425.5,-128.5 425.5,-147.5"/>
<text text-anchor="middle" x="380" y="-135.5" font-family="Helvetica,sans-Serif" font-size="10.00">func_80087844</text>
</a>
</g>
</g>
<!-- Node9&#45;&gt;Node15 -->
<g id="edge14_Node000009_Node000015" class="edge">
<title>Node9&#45;&gt;Node15</title>
<g id="a_edge14_Node000009_Node000015"><a xlink:title=" ">
<path fill="none" stroke="#63b8ff" d="M282.7,-138C296.18,-138 310.4,-138 323.66,-138"/>
<polygon fill="#63b8ff" stroke="#63b8ff" points="324.04,-141.5 334.04,-138 324.04,-134.5 324.04,-141.5"/>
</a>
</g>
</g>
<!-- Node12 -->
<g id="Node000012" class="node">
<title>Node12</title>
<g id="a_Node000012"><a xlink:href="update__objects_8c.html#a3953241e15c6372ac8944ba842148a9a" target="_top" xlink:title=" ">
<polygon fill="white" stroke="#666666" points="594.5,-276.5 495.5,-276.5 495.5,-257.5 594.5,-257.5 594.5,-276.5"/>
<text text-anchor="middle" x="545" y="-264.5" font-family="Helvetica,sans-Serif" font-size="10.00">clear_object_flag</text>
</a>
</g>
</g>
<!-- Node11&#45;&gt;Node12 -->
<g id="edge11_Node000011_Node000012" class="edge">
<title>Node11&#45;&gt;Node12</title>
<g id="a_edge11_Node000011_Node000012"><a xlink:title=" ">
<path fill="none" stroke="#63b8ff" d="M410.78,-227.53C429.7,-233.53 454.74,-241.37 477,-248 484.33,-250.18 492.13,-252.45 499.72,-254.62"/>
<polygon fill="#63b8ff" stroke="#63b8ff" points="498.94,-258.04 509.52,-257.41 500.86,-251.31 498.94,-258.04"/>
</a>
</g>
</g>
<!-- Node13 -->
<g id="Node000013" class="node">
<title>Node13</title>
<g id="a_Node000013"><a xlink:href="update__objects_8c.html#a2301a51a93a60f0382cdc7002e14f95a" target="_top" xlink:title=" ">
<polygon fill="white" stroke="#666666" points="613,-239 477,-239 477,-209 613,-209 613,-239"/>
<text text-anchor="start" x="485" y="-227" font-family="Helvetica,sans-Serif" font-size="10.00">is_obj_index_flag_status</text>
<text text-anchor="middle" x="545" y="-216" font-family="Helvetica,sans-Serif" font-size="10.00">_inactive</text>
</a>
</g>
</g>
<!-- Node11&#45;&gt;Node13 -->
<g id="edge12_Node000011_Node000013" class="edge">
<title>Node11&#45;&gt;Node13</title>
<g id="a_edge12_Node000011_Node000013"><a xlink:title=" ">
<path fill="none" stroke="#63b8ff" d="M425.54,-219.64C438.28,-220.11 452.56,-220.63 466.66,-221.15"/>
<polygon fill="#63b8ff" stroke="#63b8ff" points="466.76,-224.66 476.88,-221.53 467.01,-217.66 466.76,-224.66"/>
</a>
</g>
</g>
<!-- Node14 -->
<g id="Node000014" class="node">
<title>Node14</title>
<g id="a_Node000014"><a xlink:href="update__objects_8c.html#afe64f2394ee0deab6370b77609500bda" target="_top" xlink:title=" ">
<polygon fill="white" stroke="#666666" points="590,-190.5 500,-190.5 500,-171.5 590,-171.5 590,-190.5"/>
<text text-anchor="middle" x="545" y="-178.5" font-family="Helvetica,sans-Serif" font-size="10.00">set_object_flag</text>
</a>
</g>
</g>
<!-- Node11&#45;&gt;Node14 -->
<g id="edge13_Node000011_Node000014" class="edge">
<title>Node11&#45;&gt;Node14</title>
<g id="a_edge13_Node000011_Node000014"><a xlink:title=" ">
<path fill="none" stroke="#63b8ff" d="M422.98,-208.47C444,-203.7 469.65,-197.88 491.92,-192.82"/>
<polygon fill="#63b8ff" stroke="#63b8ff" points="492.91,-196.19 501.88,-190.56 491.36,-189.36 492.91,-196.19"/>
</a>
</g>
</g>
<!-- Node16 -->
<g id="Node000016" class="node">
<title>Node16</title>
<g id="a_Node000016"><a xlink:href="code__80086E70_8c.html#a8af65325de926c3e093f1ab4b1e3d3ce" target="_top" xlink:title=" ">
<polygon fill="white" stroke="#666666" points="591,-104.5 499,-104.5 499,-85.5 591,-85.5 591,-104.5"/>
<text text-anchor="middle" x="545" y="-92.5" font-family="Helvetica,sans-Serif" font-size="10.00">func_8008757C</text>
</a>
</g>
</g>
<!-- Node15&#45;&gt;Node16 -->
<g id="edge15_Node000015_Node000016" class="edge">
<title>Node15&#45;&gt;Node16</title>
<g id="a_edge15_Node000015_Node000016"><a xlink:title=" ">
<path fill="none" stroke="#63b8ff" d="M417.17,-128.46C441.02,-122.17 472.46,-113.87 498.07,-107.12"/>
<polygon fill="#63b8ff" stroke="#63b8ff" points="499.15,-110.45 507.93,-104.52 497.36,-103.68 499.15,-110.45"/>
</a>
</g>
</g>
<!-- Node17 -->
<g id="Node000017" class="node">
<title>Node17</title>
<g id="a_Node000017"><a xlink:href="code__80086E70_8c.html#a1d4593518e5153328388afb23bbc6902" target="_top" xlink:title=" ">
<polygon fill="white" stroke="#666666" points="602,-153 488,-153 488,-123 602,-123 602,-153"/>
<text text-anchor="start" x="496" y="-141" font-family="Helvetica,sans-Serif" font-size="10.00">object_add_velocity</text>
<text text-anchor="middle" x="545" y="-130" font-family="Helvetica,sans-Serif" font-size="10.00">_offset_xyz</text>
</a>
</g>
</g>
<!-- Node15&#45;&gt;Node17 -->
<g id="edge18_Node000015_Node000017" class="edge">
<title>Node15&#45;&gt;Node17</title>
<g id="a_edge18_Node000015_Node000017"><a xlink:title=" ">
<path fill="none" stroke="#63b8ff" d="M425.54,-138C441.61,-138 460.12,-138 477.66,-138"/>
<polygon fill="#63b8ff" stroke="#63b8ff" points="477.85,-141.5 487.85,-138 477.85,-134.5 477.85,-141.5"/>
</a>
</g>
</g>
<!-- Node16&#45;&gt;Node5 -->
<g id="edge16_Node000016_Node000005" class="edge">
<title>Node16&#45;&gt;Node5</title>
<g id="a_edge16_Node000016_Node000005"><a xlink:title=" ">
<path fill="none" stroke="#63b8ff" d="M591.06,-95C607.01,-95 624.5,-95 638.67,-95"/>
<polygon fill="#63b8ff" stroke="#63b8ff" points="638.78,-98.5 648.78,-95 638.78,-91.5 638.78,-98.5"/>
</a>
</g>
</g>
<!-- Node16&#45;&gt;Node6 -->
<g id="edge17_Node000016_Node000006" class="edge">
<title>Node16&#45;&gt;Node6</title>
<g id="a_edge17_Node000016_Node000006"><a xlink:title=" ">
<path fill="none" stroke="#63b8ff" d="M580.86,-85.44C591.23,-82.51 602.6,-79.21 613,-76 621.82,-73.28 631.4,-70.15 640,-67.27"/>
<polygon fill="#63b8ff" stroke="#63b8ff" points="641.2,-70.56 649.55,-64.04 638.96,-63.92 641.2,-70.56"/>
</a>
</g>
</g>
</g>
</svg>
