<?xml version="1.0" encoding="UTF-8" standalone="no"?>
<!DOCTYPE svg PUBLIC "-//W3C//DTD SVG 1.1//EN"
 "http://www.w3.org/Graphics/SVG/1.1/DTD/svg11.dtd">
<!-- Generated by graphviz version 2.43.0 (0)
 -->
<!-- Title: OSnowman::func_80073D0C Pages: 1 -->
<svg width="419pt" height="64pt"
 viewBox="0.00 0.00 419.00 64.00" xmlns="http://www.w3.org/2000/svg" xmlns:xlink="http://www.w3.org/1999/xlink">
<g id="graph0" class="graph" transform="scale(1 1) rotate(0) translate(4 60)">
<title>OSnowman::func_80073D0C</title>
<!-- Node1 -->
<g id="Node000001" class="node">
<title>Node1</title>
<g id="a_Node000001"><a xlink:title=" ">
<polygon fill="#999999" stroke="#666666" points="155,-37 0,-37 0,-18 155,-18 155,-37"/>
<text text-anchor="middle" x="77.5" y="-25" font-family="Helvetica,sans-Serif" font-size="10.00">OSnowman::func_80073D0C</text>
</a>
</g>
</g>
<!-- Node2 -->
<g id="Node000002" class="node">
<title>Node2</title>
<g id="a_Node000002"><a xlink:href="update__objects_8c.html#a394360d128db360e999e096566bffa94" target="_top" xlink:title=" ">
<polygon fill="white" stroke="#666666" points="283,-37 191,-37 191,-18 283,-18 283,-37"/>
<text text-anchor="middle" x="237" y="-25" font-family="Helvetica,sans-Serif" font-size="10.00">func_80073B78</text>
</a>
</g>
</g>
<!-- Node1&#45;&gt;Node2 -->
<g id="edge1_Node000001_Node000002" class="edge">
<title>Node1&#45;&gt;Node2</title>
<g id="a_edge1_Node000001_Node000002"><a xlink:title=" ">
<path fill="none" stroke="#63b8ff" d="M155.4,-27.5C163.97,-27.5 172.56,-27.5 180.78,-27.5"/>
<polygon fill="#63b8ff" stroke="#63b8ff" points="180.96,-31 190.96,-27.5 180.96,-24 180.96,-31"/>
</a>
</g>
</g>
<!-- Node3 -->
<g id="Node000003" class="node">
<title>Node3</title>
<g id="a_Node000003"><a xlink:href="update__objects_8c.html#a350ec2cc42f1fa42cda82e830e6dc1c6" target="_top" xlink:title=" ">
<polygon fill="white" stroke="#666666" points="410.5,-56 319.5,-56 319.5,-37 410.5,-37 410.5,-56"/>
<text text-anchor="middle" x="365" y="-44" font-family="Helvetica,sans-Serif" font-size="10.00">func_80073800</text>
</a>
</g>
</g>
<!-- Node2&#45;&gt;Node3 -->
<g id="edge2_Node000002_Node000003" class="edge">
<title>Node2&#45;&gt;Node3</title>
<g id="a_edge2_Node000002_Node000003"><a xlink:title=" ">
<path fill="none" stroke="#63b8ff" d="M283.13,-34.31C291.56,-35.58 300.45,-36.92 309.13,-38.23"/>
<polygon fill="#63b8ff" stroke="#63b8ff" points="308.77,-41.71 319.18,-39.74 309.82,-34.79 308.77,-41.71"/>
</a>
</g>
</g>
<!-- Node4 -->
<g id="Node000004" class="node">
<title>Node4</title>
<g id="a_Node000004"><a xlink:href="update__objects_8c.html#a95b88653b438ce0326cfae9fc910bb68" target="_top" xlink:title=" ">
<polygon fill="white" stroke="#666666" points="411,-19 319,-19 319,0 411,0 411,-19"/>
<text text-anchor="middle" x="365" y="-7" font-family="Helvetica,sans-Serif" font-size="10.00">func_8007381C</text>
</a>
</g>
</g>
<!-- Node2&#45;&gt;Node4 -->
<g id="edge3_Node000002_Node000004" class="edge">
<title>Node2&#45;&gt;Node4</title>
<g id="a_edge3_Node000002_Node000004"><a xlink:title=" ">
<path fill="none" stroke="#63b8ff" d="M283.13,-21.05C291.46,-19.86 300.23,-18.61 308.81,-17.38"/>
<polygon fill="#63b8ff" stroke="#63b8ff" points="309.35,-20.84 318.76,-15.96 308.36,-13.91 309.35,-20.84"/>
</a>
</g>
</g>
</g>
</svg>
