<?xml version="1.0" encoding="UTF-8" standalone="no"?>
<!DOCTYPE svg PUBLIC "-//W3C//DTD SVG 1.1//EN"
 "http://www.w3.org/Graphics/SVG/1.1/DTD/svg11.dtd">
<!-- Generated by graphviz version 2.43.0 (0)
 -->
<!-- Title: OBat::func_8007D8AC Pages: 1 -->
<svg width="395pt" height="27pt"
 viewBox="0.00 0.00 395.00 27.00" xmlns="http://www.w3.org/2000/svg" xmlns:xlink="http://www.w3.org/1999/xlink">
<g id="graph0" class="graph" transform="scale(1 1) rotate(0) translate(4 23)">
<title>OBat::func_8007D8AC</title>
<!-- Node1 -->
<g id="Node000001" class="node">
<title>Node1</title>
<g id="a_Node000001"><a xlink:title=" ">
<polygon fill="#999999" stroke="#666666" points="387,-19 263,-19 263,0 387,0 387,-19"/>
<text text-anchor="middle" x="325" y="-7" font-family="Helvetica,sans-Serif" font-size="10.00">OBat::func_8007D8AC</text>
</a>
</g>
</g>
<!-- Node2 -->
<g id="Node000002" class="node">
<title>Node2</title>
<g id="a_Node000002"><a xlink:href="classOBat.html#a739f8826fb4d37ad6ec2929a307ffe71" target="_top" xlink:title=" ">
<polygon fill="white" stroke="#666666" points="227,-19 103,-19 103,0 227,0 227,-19"/>
<text text-anchor="middle" x="165" y="-7" font-family="Helvetica,sans-Serif" font-size="10.00">OBat::func_8007D8D4</text>
</a>
</g>
</g>
<!-- Node1&#45;&gt;Node2 -->
<g id="edge1_Node000001_Node000002" class="edge">
<title>Node1&#45;&gt;Node2</title>
<g id="a_edge1_Node000001_Node000002"><a xlink:title=" ">
<path fill="none" stroke="#63b8ff" d="M252.63,-9.5C244.14,-9.5 235.52,-9.5 227.18,-9.5"/>
<polygon fill="#63b8ff" stroke="#63b8ff" points="252.91,-13 262.91,-9.5 252.91,-6 252.91,-13"/>
</a>
</g>
</g>
<!-- Node3 -->
<g id="Node000003" class="node">
<title>Node3</title>
<g id="a_Node000003"><a xlink:href="classOBat.html#ae20ad02992d817ca3c975e94cc6f1b26" target="_top" xlink:title=" ">
<polygon fill="white" stroke="#666666" points="67,-19 0,-19 0,0 67,0 67,-19"/>
<text text-anchor="middle" x="33.5" y="-7" font-family="Helvetica,sans-Serif" font-size="10.00">OBat::Tick</text>
</a>
</g>
</g>
<!-- Node2&#45;&gt;Node3 -->
<g id="edge2_Node000002_Node000003" class="edge">
<title>Node2&#45;&gt;Node3</title>
<g id="a_edge2_Node000002_Node000003"><a xlink:title=" ">
<path fill="none" stroke="#63b8ff" d="M92.58,-9.5C83.68,-9.5 74.95,-9.5 67.08,-9.5"/>
<polygon fill="#63b8ff" stroke="#63b8ff" points="92.66,-13 102.66,-9.5 92.66,-6 92.66,-13"/>
</a>
</g>
</g>
</g>
</svg>
