<?xml version="1.0" encoding="UTF-8" standalone="no"?>
<!DOCTYPE svg PUBLIC "-//W3C//DTD SVG 1.1//EN"
 "http://www.w3.org/Graphics/SVG/1.1/DTD/svg11.dtd">
<!-- Generated by graphviz version 2.43.0 (0)
 -->
<!-- Title: WarioStadium::BeginPlay Pages: 1 -->
<svg width="1818pt" height="555pt"
 viewBox="0.00 0.00 1818.00 554.50" xmlns="http://www.w3.org/2000/svg" xmlns:xlink="http://www.w3.org/1999/xlink">
<g id="graph0" class="graph" transform="scale(1 1) rotate(0) translate(4 550.5)">
<title>WarioStadium::BeginPlay</title>
<!-- Node1 -->
<g id="Node000001" class="node">
<title>Node1</title>
<g id="a_Node000001"><a xlink:title=" ">
<polygon fill="#999999" stroke="#666666" points="140,-123.5 0,-123.5 0,-104.5 140,-104.5 140,-123.5"/>
<text text-anchor="middle" x="70" y="-111.5" font-family="Helvetica,sans-Serif" font-size="10.00">WarioStadium::BeginPlay</text>
</a>
</g>
</g>
<!-- Node2 -->
<g id="Node000002" class="node">
<title>Node2</title>
<g id="a_Node000002"><a xlink:href="actors_8c.html#ac586c2534258d0f108e15fd88751b760" target="_top" xlink:title=" ">
<polygon fill="white" stroke="#666666" points="303,-123.5 176,-123.5 176,-104.5 303,-104.5 303,-123.5"/>
<text text-anchor="middle" x="239.5" y="-111.5" font-family="Helvetica,sans-Serif" font-size="10.00">spawn_all_item_boxes</text>
</a>
</g>
</g>
<!-- Node1&#45;&gt;Node2 -->
<g id="edge1_Node000001_Node000002" class="edge">
<title>Node1&#45;&gt;Node2</title>
<g id="a_edge1_Node000001_Node000002"><a xlink:title=" ">
<path fill="none" stroke="#63b8ff" d="M140.1,-114C148.49,-114 157.08,-114 165.53,-114"/>
<polygon fill="#63b8ff" stroke="#63b8ff" points="165.74,-117.5 175.74,-114 165.74,-110.5 165.74,-117.5"/>
</a>
</g>
</g>
<!-- Node3 -->
<g id="Node000003" class="node">
<title>Node3</title>
<g id="a_Node000003"><a xlink:href="actors_8c.html#a91fb2e4e37e7c72fea918fe2c1bb4eaf" target="_top" xlink:title=" ">
<polygon fill="white" stroke="#666666" points="479,-433.5 339,-433.5 339,-414.5 479,-414.5 479,-433.5"/>
<text text-anchor="middle" x="409" y="-421.5" font-family="Helvetica,sans-Serif" font-size="10.00">add_actor_to_empty_slot</text>
</a>
</g>
</g>
<!-- Node2&#45;&gt;Node3 -->
<g id="edge2_Node000002_Node000003" class="edge">
<title>Node2&#45;&gt;Node3</title>
<g id="a_edge2_Node000002_Node000003"><a xlink:title=" ">
<path fill="none" stroke="#63b8ff" d="M245.7,-123.62C269.29,-167.28 366.54,-347.27 398.08,-405.64"/>
<polygon fill="#63b8ff" stroke="#63b8ff" points="395.03,-407.36 402.86,-414.49 401.19,-404.03 395.03,-407.36"/>
</a>
</g>
</g>
<!-- Node10 -->
<g id="Node000010" class="node">
<title>Node10</title>
<g id="a_Node000010"><a xlink:href="Game_8cpp.html#a693de7d8b89fe291aafea86bc64a0a2e" target="_top" xlink:title=" ">
<polygon fill="white" stroke="#666666" points="984.5,-162.5 904.5,-162.5 904.5,-143.5 984.5,-143.5 984.5,-162.5"/>
<text text-anchor="middle" x="944.5" y="-150.5" font-family="Helvetica,sans-Serif" font-size="10.00">CM_GetActor</text>
</a>
</g>
</g>
<!-- Node2&#45;&gt;Node10 -->
<g id="edge39_Node000002_Node000010" class="edge">
<title>Node2&#45;&gt;Node10</title>
<g id="a_edge39_Node000002_Node000010"><a xlink:title=" ">
<path fill="none" stroke="#63b8ff" d="M300.55,-123.51C313.22,-125.24 326.53,-126.86 339,-128 544.54,-146.81 790.7,-151.47 894.03,-152.62"/>
<polygon fill="#63b8ff" stroke="#63b8ff" points="894.12,-156.13 904.16,-152.73 894.2,-149.13 894.12,-156.13"/>
</a>
</g>
</g>
<!-- Node24 -->
<g id="Node000024" class="node">
<title>Node24</title>
<g id="a_Node000024"><a xlink:href="math__util_8c.html#a79fd07a0971ec96a3ff0801963a2fa7f" target="_top" xlink:title=" ">
<polygon fill="white" stroke="#666666" points="976.5,-124.5 912.5,-124.5 912.5,-105.5 976.5,-105.5 976.5,-124.5"/>
<text text-anchor="middle" x="944.5" y="-112.5" font-family="Helvetica,sans-Serif" font-size="10.00">vec3f_set</text>
</a>
</g>
</g>
<!-- Node2&#45;&gt;Node24 -->
<g id="edge44_Node000002_Node000024" class="edge">
<title>Node2&#45;&gt;Node24</title>
<g id="a_edge44_Node000002_Node000024"><a xlink:title=" ">
<path fill="none" stroke="#63b8ff" d="M303.2,-114.09C444.32,-114.29 783.8,-114.77 902.05,-114.94"/>
<polygon fill="#63b8ff" stroke="#63b8ff" points="902.13,-118.44 912.14,-114.96 902.14,-111.44 902.13,-118.44"/>
</a>
</g>
</g>
<!-- Node36 -->
<g id="Node000036" class="node">
<title>Node36</title>
<g id="a_Node000036"><a xlink:href="math__util_8c.html#a062850863585005ad1d0a75d9ff70693" target="_top" xlink:title=" ">
<polygon fill="white" stroke="#666666" points="447.5,-85.5 370.5,-85.5 370.5,-66.5 447.5,-66.5 447.5,-85.5"/>
<text text-anchor="middle" x="409" y="-73.5" font-family="Helvetica,sans-Serif" font-size="10.00">random_u16</text>
</a>
</g>
</g>
<!-- Node2&#45;&gt;Node36 -->
<g id="edge40_Node000002_Node000036" class="edge">
<title>Node2&#45;&gt;Node36</title>
<g id="a_edge40_Node000002_Node000036"><a xlink:title=" ">
<path fill="none" stroke="#63b8ff" d="M282.77,-104.41C306.45,-99.04 336.05,-92.32 360.52,-86.77"/>
<polygon fill="#63b8ff" stroke="#63b8ff" points="361.34,-90.17 370.32,-84.55 359.79,-83.35 361.34,-90.17"/>
</a>
</g>
</g>
<!-- Node37 -->
<g id="Node000037" class="node">
<title>Node37</title>
<g id="a_Node000037"><a xlink:href="collision_8c.html#ad95e9ed2051529d5edee26109fa07427" target="_top" xlink:title=" ">
<polygon fill="white" stroke="#666666" points="477.5,-48.5 340.5,-48.5 340.5,-29.5 477.5,-29.5 477.5,-48.5"/>
<text text-anchor="middle" x="409" y="-36.5" font-family="Helvetica,sans-Serif" font-size="10.00">spawn_actor_on_surface</text>
</a>
</g>
</g>
<!-- Node2&#45;&gt;Node37 -->
<g id="edge41_Node000002_Node000037" class="edge">
<title>Node2&#45;&gt;Node37</title>
<g id="a_edge41_Node000002_Node000037"><a xlink:title=" ">
<path fill="none" stroke="#63b8ff" d="M254.61,-104.48C273.24,-92.26 307.38,-71.1 339,-58 344.8,-55.6 351,-53.4 357.21,-51.43"/>
<polygon fill="#63b8ff" stroke="#63b8ff" points="358.37,-54.74 366.94,-48.51 356.35,-48.03 358.37,-54.74"/>
</a>
</g>
</g>
<!-- Node4 -->
<g id="Node000004" class="node">
<title>Node4</title>
<g id="a_Node000004"><a xlink:href="actors_8c.html#a39c023177b5a7686cdd1fc65b8b953e1" target="_top" xlink:title=" ">
<polygon fill="white" stroke="#666666" points="615,-301.5 553,-301.5 553,-282.5 615,-282.5 615,-301.5"/>
<text text-anchor="middle" x="584" y="-289.5" font-family="Helvetica,sans-Serif" font-size="10.00">actor_init</text>
</a>
</g>
</g>
<!-- Node3&#45;&gt;Node4 -->
<g id="edge3_Node000003_Node000004" class="edge">
<title>Node3&#45;&gt;Node4</title>
<g id="a_edge3_Node000003_Node000004"><a xlink:title=" ">
<path fill="none" stroke="#63b8ff" d="M422.72,-414.29C452.21,-391.79 525.51,-335.87 561.86,-308.13"/>
<polygon fill="#63b8ff" stroke="#63b8ff" points="564.43,-310.57 570.26,-301.72 560.19,-305 564.43,-310.57"/>
</a>
</g>
</g>
<!-- Node27 -->
<g id="Node000027" class="node">
<title>Node27</title>
<g id="a_Node000027"><a xlink:href="Game_8cpp.html#acea5cfd9ab22f745bd6627869b95a62e" target="_top" xlink:title=" ">
<polygon fill="white" stroke="#666666" points="640,-433.5 528,-433.5 528,-414.5 640,-414.5 640,-433.5"/>
<text text-anchor="middle" x="584" y="-421.5" font-family="Helvetica,sans-Serif" font-size="10.00">CM_ActorBeginPlay</text>
</a>
</g>
</g>
<!-- Node3&#45;&gt;Node27 -->
<g id="edge26_Node000003_Node000027" class="edge">
<title>Node3&#45;&gt;Node27</title>
<g id="a_edge26_Node000003_Node000027"><a xlink:title=" ">
<path fill="none" stroke="#63b8ff" d="M479.37,-424C492,-424 505.14,-424 517.65,-424"/>
<polygon fill="#63b8ff" stroke="#63b8ff" points="517.99,-427.5 527.99,-424 517.99,-420.5 517.99,-427.5"/>
</a>
</g>
</g>
<!-- Node33 -->
<g id="Node000033" class="node">
<title>Node33</title>
<g id="a_Node000033"><a xlink:href="Game_8cpp.html#a42f23077aaa52cb3ea5c7803b7dd6816" target="_top" xlink:title=" ">
<polygon fill="white" stroke="#666666" points="637,-490.5 531,-490.5 531,-471.5 637,-471.5 637,-490.5"/>
<text text-anchor="middle" x="584" y="-478.5" font-family="Helvetica,sans-Serif" font-size="10.00">CM_AddBaseActor</text>
</a>
</g>
</g>
<!-- Node3&#45;&gt;Node33 -->
<g id="edge34_Node000003_Node000033" class="edge">
<title>Node3&#45;&gt;Node33</title>
<g id="a_edge34_Node000003_Node000033"><a xlink:title=" ">
<path fill="none" stroke="#63b8ff" d="M438.96,-433.54C467.77,-443.03 512.18,-457.67 544.07,-468.17"/>
<polygon fill="#63b8ff" stroke="#63b8ff" points="543.36,-471.62 553.95,-471.43 545.55,-464.97 543.36,-471.62"/>
</a>
</g>
</g>
<!-- Node35 -->
<g id="Node000035" class="node">
<title>Node35</title>
<g id="a_Node000035"><a xlink:href="Game_8cpp.html#a0841ffe9a66e95aca42438b9d8ffc3d3" target="_top" xlink:title=" ">
<polygon fill="white" stroke="#666666" points="634.5,-546.5 533.5,-546.5 533.5,-527.5 634.5,-527.5 634.5,-546.5"/>
<text text-anchor="middle" x="584" y="-534.5" font-family="Helvetica,sans-Serif" font-size="10.00">CM_GetActorSize</text>
</a>
</g>
</g>
<!-- Node3&#45;&gt;Node35 -->
<g id="edge37_Node000003_Node000035" class="edge">
<title>Node3&#45;&gt;Node35</title>
<g id="a_edge37_Node000003_Node000035"><a xlink:title=" ">
<path fill="none" stroke="#63b8ff" d="M422.25,-433.66C441.48,-448.64 480.16,-478.04 515,-500 527.78,-508.05 542.44,-516.16 554.87,-522.73"/>
<polygon fill="#63b8ff" stroke="#63b8ff" points="553.38,-525.91 563.87,-527.43 556.62,-519.7 553.38,-525.91"/>
</a>
</g>
</g>
<!-- Node5 -->
<g id="Node000005" class="node">
<title>Node5</title>
<g id="a_Node000005"><a xlink:href="collision_8c.html#a37aa55b3768d001533ad75e7f1b8388a" target="_top" xlink:title=" ">
<polygon fill="white" stroke="#666666" points="830,-322.5 689,-322.5 689,-303.5 830,-303.5 830,-322.5"/>
<text text-anchor="middle" x="759.5" y="-310.5" font-family="Helvetica,sans-Serif" font-size="10.00">check_bounding_collision</text>
</a>
</g>
</g>
<!-- Node4&#45;&gt;Node5 -->
<g id="edge4_Node000004_Node000005" class="edge">
<title>Node4&#45;&gt;Node5</title>
<g id="a_edge4_Node000004_Node000005"><a xlink:title=" ">
<path fill="none" stroke="#63b8ff" d="M615.22,-295.66C632.9,-297.8 656.12,-300.61 678.71,-303.34"/>
<polygon fill="#63b8ff" stroke="#63b8ff" points="678.32,-306.82 688.67,-304.55 679.17,-299.87 678.32,-306.82"/>
</a>
</g>
</g>
<!-- Node9 -->
<g id="Node000009" class="node">
<title>Node9</title>
<g id="a_Node000009"><a xlink:href="actors_8c.html#a1a9bccb586242555a9123ebd4ab70f2a" target="_top" xlink:title=" ">
<polygon fill="white" stroke="#666666" points="825.5,-285 693.5,-285 693.5,-255 825.5,-255 825.5,-285"/>
<text text-anchor="start" x="701.5" y="-273" font-family="Helvetica,sans-Serif" font-size="10.00">cleanup_red_and_green</text>
<text text-anchor="middle" x="759.5" y="-262" font-family="Helvetica,sans-Serif" font-size="10.00">_shells</text>
</a>
</g>
</g>
<!-- Node4&#45;&gt;Node9 -->
<g id="edge8_Node000004_Node000009" class="edge">
<title>Node4&#45;&gt;Node9</title>
<g id="a_edge8_Node000004_Node000009"><a xlink:title=" ">
<path fill="none" stroke="#63b8ff" d="M615.22,-288.17C634.08,-285.78 659.25,-282.58 683.23,-279.54"/>
<polygon fill="#63b8ff" stroke="#63b8ff" points="683.94,-282.98 693.42,-278.25 683.06,-276.04 683.94,-282.98"/>
</a>
</g>
</g>
<!-- Node23 -->
<g id="Node000023" class="node">
<title>Node23</title>
<g id="a_Node000023"><a xlink:href="collision_8c.html#ad72fef3ffe32191d73b1822f512ebf3f" target="_top" xlink:title=" ">
<polygon fill="white" stroke="#666666" points="807,-236.5 712,-236.5 712,-217.5 807,-217.5 807,-236.5"/>
<text text-anchor="middle" x="759.5" y="-224.5" font-family="Helvetica,sans-Serif" font-size="10.00">func_802AAAAC</text>
</a>
</g>
</g>
<!-- Node4&#45;&gt;Node23 -->
<g id="edge22_Node000004_Node000023" class="edge">
<title>Node4&#45;&gt;Node23</title>
<g id="a_edge22_Node000004_Node000023"><a xlink:title=" ">
<path fill="none" stroke="#63b8ff" d="M604.2,-282.47C624.81,-272.48 658.68,-256.78 689,-246 695.57,-243.66 702.58,-241.44 709.52,-239.4"/>
<polygon fill="#63b8ff" stroke="#63b8ff" points="710.92,-242.64 719.58,-236.54 709.01,-235.91 710.92,-242.64"/>
</a>
</g>
</g>
<!-- Node25 -->
<g id="Node000025" class="node">
<title>Node25</title>
<g id="a_Node000025"><a xlink:href="math__util_8c.html#af7b470ed76fce07b8042a47c96e5690b" target="_top" xlink:title=" ">
<polygon fill="white" stroke="#666666" points="813,-199.5 706,-199.5 706,-180.5 813,-180.5 813,-199.5"/>
<text text-anchor="middle" x="759.5" y="-187.5" font-family="Helvetica,sans-Serif" font-size="10.00">vec3f_copy_return</text>
</a>
</g>
</g>
<!-- Node4&#45;&gt;Node25 -->
<g id="edge24_Node000004_Node000025" class="edge">
<title>Node4&#45;&gt;Node25</title>
<g id="a_edge24_Node000004_Node000025"><a xlink:title=" ">
<path fill="none" stroke="#63b8ff" d="M594.37,-282.26C611.54,-264.97 649.87,-228.89 689,-209 693.55,-206.69 698.42,-204.63 703.39,-202.8"/>
<polygon fill="#63b8ff" stroke="#63b8ff" points="704.64,-206.07 713.01,-199.57 702.41,-199.44 704.64,-206.07"/>
</a>
</g>
</g>
<!-- Node26 -->
<g id="Node000026" class="node">
<title>Node26</title>
<g id="a_Node000026"><a xlink:href="math__util_8c.html#a0e270ee67600c8c9c2f140c647d008a1" target="_top" xlink:title=" ">
<polygon fill="white" stroke="#666666" points="796.5,-359.5 722.5,-359.5 722.5,-340.5 796.5,-340.5 796.5,-359.5"/>
<text text-anchor="middle" x="759.5" y="-347.5" font-family="Helvetica,sans-Serif" font-size="10.00">vec3s_copy</text>
</a>
</g>
</g>
<!-- Node4&#45;&gt;Node26 -->
<g id="edge25_Node000004_Node000026" class="edge">
<title>Node4&#45;&gt;Node26</title>
<g id="a_edge25_Node000004_Node000026"><a xlink:title=" ">
<path fill="none" stroke="#63b8ff" d="M607.86,-301.66C628.76,-310.28 660.63,-322.9 689,-332 696.51,-334.41 704.56,-336.73 712.41,-338.85"/>
<polygon fill="#63b8ff" stroke="#63b8ff" points="711.64,-342.27 722.2,-341.43 713.43,-335.5 711.64,-342.27"/>
</a>
</g>
</g>
<!-- Node6 -->
<g id="Node000006" class="node">
<title>Node6</title>
<g id="a_Node000006"><a xlink:href="collision_8c.html#ac312bf382cb40752f6b790a99e7cdcb6" target="_top" xlink:title=" ">
<polygon fill="white" stroke="#666666" points="998.5,-322.5 890.5,-322.5 890.5,-303.5 998.5,-303.5 998.5,-322.5"/>
<text text-anchor="middle" x="944.5" y="-310.5" font-family="Helvetica,sans-Serif" font-size="10.00">check_collision_yx</text>
</a>
</g>
</g>
<!-- Node5&#45;&gt;Node6 -->
<g id="edge5_Node000005_Node000006" class="edge">
<title>Node5&#45;&gt;Node6</title>
<g id="a_edge5_Node000005_Node000006"><a xlink:title=" ">
<path fill="none" stroke="#63b8ff" d="M830.21,-313C846.61,-313 864.01,-313 880.12,-313"/>
<polygon fill="#63b8ff" stroke="#63b8ff" points="880.5,-316.5 890.5,-313 880.5,-309.5 880.5,-316.5"/>
</a>
</g>
</g>
<!-- Node7 -->
<g id="Node000007" class="node">
<title>Node7</title>
<g id="a_Node000007"><a xlink:href="collision_8c.html#a4b48832a90e984536a0635a016ec4f28" target="_top" xlink:title=" ">
<polygon fill="white" stroke="#666666" points="998,-285.5 891,-285.5 891,-266.5 998,-266.5 998,-285.5"/>
<text text-anchor="middle" x="944.5" y="-273.5" font-family="Helvetica,sans-Serif" font-size="10.00">check_collision_zx</text>
</a>
</g>
</g>
<!-- Node5&#45;&gt;Node7 -->
<g id="edge6_Node000005_Node000007" class="edge">
<title>Node5&#45;&gt;Node7</title>
<g id="a_edge6_Node000005_Node000007"><a xlink:title=" ">
<path fill="none" stroke="#63b8ff" d="M807.63,-303.47C831.65,-298.61 861.07,-292.67 886.38,-287.55"/>
<polygon fill="#63b8ff" stroke="#63b8ff" points="887.11,-290.97 896.21,-285.56 885.72,-284.11 887.11,-290.97"/>
</a>
</g>
</g>
<!-- Node8 -->
<g id="Node000008" class="node">
<title>Node8</title>
<g id="a_Node000008"><a xlink:href="collision_8c.html#a21fef964ab48191a1c0341954ef27a40" target="_top" xlink:title=" ">
<polygon fill="white" stroke="#666666" points="998,-359.5 891,-359.5 891,-340.5 998,-340.5 998,-359.5"/>
<text text-anchor="middle" x="944.5" y="-347.5" font-family="Helvetica,sans-Serif" font-size="10.00">check_collision_zy</text>
</a>
</g>
</g>
<!-- Node5&#45;&gt;Node8 -->
<g id="edge7_Node000005_Node000008" class="edge">
<title>Node5&#45;&gt;Node8</title>
<g id="a_edge7_Node000005_Node000008"><a xlink:title=" ">
<path fill="none" stroke="#63b8ff" d="M807.63,-322.53C831.65,-327.39 861.07,-333.33 886.38,-338.45"/>
<polygon fill="#63b8ff" stroke="#63b8ff" points="885.72,-341.89 896.21,-340.44 887.11,-335.03 885.72,-341.89"/>
</a>
</g>
</g>
<!-- Node9&#45;&gt;Node10 -->
<g id="edge9_Node000009_Node000010" class="edge">
<title>Node9&#45;&gt;Node10</title>
<g id="a_edge9_Node000009_Node000010"><a xlink:title=" ">
<path fill="none" stroke="#63b8ff" d="M816.94,-255C821.64,-252.45 826.08,-249.47 830,-246 857.37,-221.74 837.54,-194.98 866,-172 874.17,-165.41 884.29,-161.05 894.5,-158.19"/>
<polygon fill="#63b8ff" stroke="#63b8ff" points="895.32,-161.59 904.25,-155.87 893.71,-154.78 895.32,-161.59"/>
</a>
</g>
</g>
<!-- Node12 -->
<g id="Node000012" class="node">
<title>Node12</title>
<g id="a_Node000012"><a xlink:href="code__80005FD0_8c.html#ad301b978cdd3c4cc190b10be050d51d8" target="_top" xlink:title=" ">
<polygon fill="white" stroke="#666666" points="1017.5,-248 871.5,-248 871.5,-218 1017.5,-218 1017.5,-248"/>
<text text-anchor="start" x="879.5" y="-236" font-family="Helvetica,sans-Serif" font-size="10.00">delete_actor_in_unexpired</text>
<text text-anchor="middle" x="944.5" y="-225" font-family="Helvetica,sans-Serif" font-size="10.00">_actor_list</text>
</a>
</g>
</g>
<!-- Node9&#45;&gt;Node12 -->
<g id="edge11_Node000009_Node000012" class="edge">
<title>Node9&#45;&gt;Node12</title>
<g id="a_edge11_Node000009_Node000012"><a xlink:title=" ">
<path fill="none" stroke="#63b8ff" d="M825.53,-256.85C837.09,-254.51 849.27,-252.05 861.23,-249.63"/>
<polygon fill="#63b8ff" stroke="#63b8ff" points="862.1,-253.03 871.21,-247.62 860.71,-246.17 862.1,-253.03"/>
</a>
</g>
</g>
<!-- Node13 -->
<g id="Node000013" class="node">
<title>Node13</title>
<g id="a_Node000013"><a xlink:href="actors_8c.html#a694ec6ef7548b8618aeb35c038d3a9b9" target="_top" xlink:title=" ">
<polygon fill="white" stroke="#666666" points="986,-199.5 903,-199.5 903,-180.5 986,-180.5 986,-199.5"/>
<text text-anchor="middle" x="944.5" y="-187.5" font-family="Helvetica,sans-Serif" font-size="10.00">destroy_actor</text>
</a>
</g>
</g>
<!-- Node9&#45;&gt;Node13 -->
<g id="edge12_Node000009_Node000013" class="edge">
<title>Node9&#45;&gt;Node13</title>
<g id="a_edge12_Node000009_Node000013"><a xlink:title=" ">
<path fill="none" stroke="#63b8ff" d="M812.98,-254.88C818.91,-252.3 824.72,-249.35 830,-246 849.37,-233.7 846.09,-220.4 866,-209 874.3,-204.25 883.76,-200.68 893.15,-198"/>
<polygon fill="#63b8ff" stroke="#63b8ff" points="894.03,-201.39 902.85,-195.52 892.3,-194.61 894.03,-201.39"/>
</a>
</g>
</g>
<!-- Node11 -->
<g id="Node000011" class="node">
<title>Node11</title>
<g id="a_Node000011"><a xlink:href="Game_8cpp.html#ae2fa844b3cb1021ecbc357f8ed2ad8cc" target="_top" xlink:title=" ">
<polygon fill="white" stroke="#666666" points="1185,-490.5 1123,-490.5 1123,-471.5 1185,-471.5 1185,-490.5"/>
<text text-anchor="middle" x="1154" y="-478.5" font-family="Helvetica,sans-Serif" font-size="10.00">GetWorld</text>
</a>
</g>
</g>
<!-- Node10&#45;&gt;Node11 -->
<g id="edge10_Node000010_Node000011" class="edge">
<title>Node10&#45;&gt;Node11</title>
<g id="a_edge10_Node000010_Node000011"><a xlink:title=" ">
<path fill="none" stroke="#63b8ff" d="M984.84,-153.8C998.78,-156.13 1013.38,-161.28 1023,-172 1103.86,-262.09 985.25,-345.99 1059,-442 1072.02,-458.94 1093.71,-468.58 1112.98,-474.04"/>
<polygon fill="#63b8ff" stroke="#63b8ff" points="1112.22,-477.45 1122.77,-476.52 1113.94,-470.67 1112.22,-477.45"/>
</a>
</g>
</g>
<!-- Node14 -->
<g id="Node000014" class="node">
<title>Node14</title>
<g id="a_Node000014"><a xlink:href="actors_8c.html#a12dc3ccac4c7d8569eadac0af4fd6f9f" target="_top" xlink:title=" ">
<polygon fill="white" stroke="#666666" points="1233,-199.5 1075,-199.5 1075,-180.5 1233,-180.5 1233,-199.5"/>
<text text-anchor="middle" x="1154" y="-187.5" font-family="Helvetica,sans-Serif" font-size="10.00">play_sound_before_despawn</text>
</a>
</g>
</g>
<!-- Node13&#45;&gt;Node14 -->
<g id="edge13_Node000013_Node000014" class="edge">
<title>Node13&#45;&gt;Node14</title>
<g id="a_edge13_Node000013_Node000014"><a xlink:title=" ">
<path fill="none" stroke="#63b8ff" d="M986,-190C1008.48,-190 1037.36,-190 1064.77,-190"/>
<polygon fill="#63b8ff" stroke="#63b8ff" points="1064.79,-193.5 1074.79,-190 1064.79,-186.5 1064.79,-193.5"/>
</a>
</g>
</g>
<!-- Node15 -->
<g id="Node000015" class="node">
<title>Node15</title>
<g id="a_Node000015"><a xlink:href="external_8c.html#ae72057869772019e4464c87d4e16c682" target="_top" xlink:title=" ">
<polygon fill="white" stroke="#666666" points="1377,-199.5 1285,-199.5 1285,-180.5 1377,-180.5 1377,-199.5"/>
<text text-anchor="middle" x="1331" y="-187.5" font-family="Helvetica,sans-Serif" font-size="10.00">func_800C99E0</text>
</a>
</g>
</g>
<!-- Node14&#45;&gt;Node15 -->
<g id="edge14_Node000014_Node000015" class="edge">
<title>Node14&#45;&gt;Node15</title>
<g id="a_edge14_Node000014_Node000015"><a xlink:title=" ">
<path fill="none" stroke="#63b8ff" d="M1233.03,-190C1246.98,-190 1261.26,-190 1274.42,-190"/>
<polygon fill="#63b8ff" stroke="#63b8ff" points="1274.71,-193.5 1284.71,-190 1274.71,-186.5 1274.71,-193.5"/>
</a>
</g>
</g>
<!-- Node16 -->
<g id="Node000016" class="node">
<title>Node16</title>
<g id="a_Node000016"><a xlink:href="external_8c.html#aeb87c527482a244173df36a1f3d4f446" target="_top" xlink:title=" ">
<polygon fill="white" stroke="#666666" points="1505,-218.5 1413,-218.5 1413,-199.5 1505,-199.5 1505,-218.5"/>
<text text-anchor="middle" x="1459" y="-206.5" font-family="Helvetica,sans-Serif" font-size="10.00">func_800C21E8</text>
</a>
</g>
</g>
<!-- Node15&#45;&gt;Node16 -->
<g id="edge15_Node000015_Node000016" class="edge">
<title>Node15&#45;&gt;Node16</title>
<g id="a_edge15_Node000015_Node000016"><a xlink:title=" ">
<path fill="none" stroke="#63b8ff" d="M1377.13,-196.81C1385.46,-198.06 1394.23,-199.38 1402.81,-200.68"/>
<polygon fill="#63b8ff" stroke="#63b8ff" points="1402.35,-204.15 1412.76,-202.18 1403.39,-197.23 1402.35,-204.15"/>
</a>
</g>
</g>
<!-- Node17 -->
<g id="Node000017" class="node">
<title>Node17</title>
<g id="a_Node000017"><a xlink:href="external_8c.html#a028d40421b90c38f68ebfd5acc626f2e" target="_top" xlink:title=" ">
<polygon fill="white" stroke="#666666" points="1505,-181.5 1413,-181.5 1413,-162.5 1505,-162.5 1505,-181.5"/>
<text text-anchor="middle" x="1459" y="-169.5" font-family="Helvetica,sans-Serif" font-size="10.00">func_800C5578</text>
</a>
</g>
</g>
<!-- Node15&#45;&gt;Node17 -->
<g id="edge16_Node000015_Node000017" class="edge">
<title>Node15&#45;&gt;Node17</title>
<g id="a_edge16_Node000015_Node000017"><a xlink:title=" ">
<path fill="none" stroke="#63b8ff" d="M1377.13,-183.55C1385.46,-182.36 1394.23,-181.11 1402.81,-179.88"/>
<polygon fill="#63b8ff" stroke="#63b8ff" points="1403.35,-183.34 1412.76,-178.46 1402.36,-176.41 1403.35,-183.34"/>
</a>
</g>
</g>
<!-- Node18 -->
<g id="Node000018" class="node">
<title>Node18</title>
<g id="a_Node000018"><a xlink:href="external_8c.html#ac0fb767de7e14a03f1bcfa53f0abd23b" target="_top" xlink:title=" ">
<polygon fill="white" stroke="#666666" points="1681,-218.5 1541,-218.5 1541,-199.5 1681,-199.5 1681,-218.5"/>
<text text-anchor="middle" x="1611" y="-206.5" font-family="Helvetica,sans-Serif" font-size="10.00">delete_sound_from_bank</text>
</a>
</g>
</g>
<!-- Node17&#45;&gt;Node18 -->
<g id="edge17_Node000017_Node000018" class="edge">
<title>Node17&#45;&gt;Node18</title>
<g id="a_edge17_Node000017_Node000018"><a xlink:title=" ">
<path fill="none" stroke="#63b8ff" d="M1498.63,-181.53C1517.8,-186.26 1541.16,-192.02 1561.52,-197.04"/>
<polygon fill="#63b8ff" stroke="#63b8ff" points="1560.69,-200.44 1571.24,-199.44 1562.37,-193.65 1560.69,-200.44"/>
</a>
</g>
</g>
<!-- Node20 -->
<g id="Node000020" class="node">
<title>Node20</title>
<g id="a_Node000020"><a xlink:href="external_8c.html#ab83bd36e63f0f1baddcb2482b5ad31b0" target="_top" xlink:title=" ">
<polygon fill="white" stroke="#666666" points="1657.5,-181.5 1564.5,-181.5 1564.5,-162.5 1657.5,-162.5 1657.5,-181.5"/>
<text text-anchor="middle" x="1611" y="-169.5" font-family="Helvetica,sans-Serif" font-size="10.00">func_800C41CC</text>
</a>
</g>
</g>
<!-- Node17&#45;&gt;Node20 -->
<g id="edge19_Node000017_Node000020" class="edge">
<title>Node17&#45;&gt;Node20</title>
<g id="a_edge19_Node000017_Node000020"><a xlink:title=" ">
<path fill="none" stroke="#63b8ff" d="M1505,-172C1520.37,-172 1537.74,-172 1553.86,-172"/>
<polygon fill="#63b8ff" stroke="#63b8ff" points="1554.25,-175.5 1564.25,-172 1554.25,-168.5 1554.25,-175.5"/>
</a>
</g>
</g>
<!-- Node21 -->
<g id="Node000021" class="node">
<title>Node21</title>
<g id="a_Node000021"><a xlink:href="port__eu_8c.html#aa89dfaecca46c6d071f08c1898d1f7c9" target="_top" xlink:title=" ">
<polygon fill="white" stroke="#666666" points="1657.5,-144.5 1564.5,-144.5 1564.5,-125.5 1657.5,-125.5 1657.5,-144.5"/>
<text text-anchor="middle" x="1611" y="-132.5" font-family="Helvetica,sans-Serif" font-size="10.00">func_800CBBE8</text>
</a>
</g>
</g>
<!-- Node17&#45;&gt;Node21 -->
<g id="edge20_Node000017_Node000021" class="edge">
<title>Node17&#45;&gt;Node21</title>
<g id="a_edge20_Node000017_Node000021"><a xlink:title=" ">
<path fill="none" stroke="#63b8ff" d="M1498.63,-162.47C1517.8,-157.74 1541.16,-151.98 1561.52,-146.96"/>
<polygon fill="#63b8ff" stroke="#63b8ff" points="1562.37,-150.35 1571.24,-144.56 1560.69,-143.56 1562.37,-150.35"/>
</a>
</g>
</g>
<!-- Node19 -->
<g id="Node000019" class="node">
<title>Node19</title>
<g id="a_Node000019"><a xlink:href="external_8c.html#a358ac55e8ab5262dcae8037334be06d7" target="_top" xlink:title=" ">
<polygon fill="white" stroke="#666666" points="1809.5,-218.5 1717.5,-218.5 1717.5,-199.5 1809.5,-199.5 1809.5,-218.5"/>
<text text-anchor="middle" x="1763.5" y="-206.5" font-family="Helvetica,sans-Serif" font-size="10.00">func_800C40F0</text>
</a>
</g>
</g>
<!-- Node18&#45;&gt;Node19 -->
<g id="edge18_Node000018_Node000019" class="edge">
<title>Node18&#45;&gt;Node19</title>
<g id="a_edge18_Node000018_Node000019"><a xlink:title=" ">
<path fill="none" stroke="#63b8ff" d="M1681.08,-209C1689.87,-209 1698.78,-209 1707.31,-209"/>
<polygon fill="#63b8ff" stroke="#63b8ff" points="1707.5,-212.5 1717.5,-209 1707.5,-205.5 1707.5,-212.5"/>
</a>
</g>
</g>
<!-- Node22 -->
<g id="Node000022" class="node">
<title>Node22</title>
<g id="a_Node000022"><a xlink:href="port__eu_8c.html#af361a20d2e08f30c53a237ca481ff734" target="_top" xlink:title=" ">
<polygon fill="white" stroke="#666666" points="1810,-144.5 1717,-144.5 1717,-125.5 1810,-125.5 1810,-144.5"/>
<text text-anchor="middle" x="1763.5" y="-132.5" font-family="Helvetica,sans-Serif" font-size="10.00">func_800CBB48</text>
</a>
</g>
</g>
<!-- Node21&#45;&gt;Node22 -->
<g id="edge21_Node000021_Node000022" class="edge">
<title>Node21&#45;&gt;Node22</title>
<g id="a_edge21_Node000021_Node000022"><a xlink:title=" ">
<path fill="none" stroke="#63b8ff" d="M1657.56,-135C1672.96,-135 1690.34,-135 1706.46,-135"/>
<polygon fill="#63b8ff" stroke="#63b8ff" points="1706.83,-138.5 1716.83,-135 1706.83,-131.5 1706.83,-138.5"/>
</a>
</g>
</g>
<!-- Node23&#45;&gt;Node24 -->
<g id="edge23_Node000023_Node000024" class="edge">
<title>Node23&#45;&gt;Node24</title>
<g id="a_edge23_Node000023_Node000024"><a xlink:title=" ">
<path fill="none" stroke="#63b8ff" d="M807.28,-220.82C815.46,-218.15 823.44,-214.37 830,-209 858.31,-185.84 837.68,-158.15 866,-135 876.27,-126.6 889.66,-121.69 902.42,-118.82"/>
<polygon fill="#63b8ff" stroke="#63b8ff" points="903.25,-122.23 912.43,-116.94 901.96,-115.35 903.25,-122.23"/>
</a>
</g>
</g>
<!-- Node27&#45;&gt;Node11 -->
<g id="edge33_Node000027_Node000011" class="edge">
<title>Node27&#45;&gt;Node11</title>
<g id="a_edge33_Node000027_Node000011"><a xlink:title=" ">
<path fill="none" stroke="#63b8ff" d="M640.24,-429.54C754.27,-440.99 1013.35,-466.99 1112.96,-476.98"/>
<polygon fill="#63b8ff" stroke="#63b8ff" points="1112.62,-480.47 1122.92,-477.98 1113.32,-473.5 1112.62,-480.47"/>
</a>
</g>
</g>
<!-- Node28 -->
<g id="Node000028" class="node">
<title>Node28</title>
<g id="a_Node000028"><a xlink:href="classWorld.html#a0f40d5f6f8bd3c76ad1e1ca4ccc4b74f" target="_top" xlink:title=" ">
<polygon fill="white" stroke="#666666" points="822,-414.5 697,-414.5 697,-395.5 822,-395.5 822,-414.5"/>
<text text-anchor="middle" x="759.5" y="-402.5" font-family="Helvetica,sans-Serif" font-size="10.00">World::ActorBeginPlay</text>
</a>
</g>
</g>
<!-- Node27&#45;&gt;Node28 -->
<g id="edge27_Node000027_Node000028" class="edge">
<title>Node27&#45;&gt;Node28</title>
<g id="a_edge27_Node000027_Node000028"><a xlink:title=" ">
<path fill="none" stroke="#63b8ff" d="M640.37,-417.94C655.1,-416.32 671.22,-414.56 686.68,-412.86"/>
<polygon fill="#63b8ff" stroke="#63b8ff" points="687.17,-416.33 696.73,-411.76 686.41,-409.37 687.17,-416.33"/>
</a>
</g>
</g>
<!-- Node29 -->
<g id="Node000029" class="node">
<title>Node29</title>
<g id="a_Node000029"><a xlink:href="classAActor.html#aa18a335c99d43d74ac46328df5c4918b" target="_top" xlink:title=" ">
<polygon fill="white" stroke="#666666" points="996.5,-396.5 892.5,-396.5 892.5,-377.5 996.5,-377.5 996.5,-396.5"/>
<text text-anchor="middle" x="944.5" y="-384.5" font-family="Helvetica,sans-Serif" font-size="10.00">AActor::BeginPlay</text>
</a>
</g>
</g>
<!-- Node28&#45;&gt;Node29 -->
<g id="edge28_Node000028_Node000029" class="edge">
<title>Node28&#45;&gt;Node29</title>
<g id="a_edge28_Node000028_Node000029"><a xlink:title=" ">
<path fill="none" stroke="#63b8ff" d="M822.2,-398.93C841.55,-397.03 862.9,-394.93 882.22,-393.03"/>
<polygon fill="#63b8ff" stroke="#63b8ff" points="882.81,-396.49 892.42,-392.02 882.12,-389.52 882.81,-396.49"/>
</a>
</g>
</g>
<!-- Node32 -->
<g id="Node000032" class="node">
<title>Node32</title>
<g id="a_Node000032"><a xlink:href="classWorld.html#a944244b32a2219826939859c6138f6ab" target="_top" xlink:title=" ">
<polygon fill="white" stroke="#666666" points="1023,-433.5 866,-433.5 866,-414.5 1023,-414.5 1023,-433.5"/>
<text text-anchor="middle" x="944.5" y="-421.5" font-family="Helvetica,sans-Serif" font-size="10.00">World::ConvertActorToAActor</text>
</a>
</g>
</g>
<!-- Node28&#45;&gt;Node32 -->
<g id="edge32_Node000028_Node000032" class="edge">
<title>Node28&#45;&gt;Node32</title>
<g id="a_edge32_Node000028_Node000032"><a xlink:title=" ">
<path fill="none" stroke="#63b8ff" d="M822.2,-411.41C833.03,-412.53 844.49,-413.72 855.87,-414.9"/>
<polygon fill="#63b8ff" stroke="#63b8ff" points="855.53,-418.39 865.84,-415.94 856.25,-411.42 855.53,-418.39"/>
</a>
</g>
</g>
<!-- Node30 -->
<g id="Node000030" class="node">
<title>Node30</title>
<g id="a_Node000030"><a xlink:href="Editor_8cpp.html#ad9cda86dc3eb2b6511a8c9a951945014" target="_top" xlink:title=" ">
<polygon fill="white" stroke="#666666" points="1203,-377.5 1105,-377.5 1105,-358.5 1203,-358.5 1203,-377.5"/>
<text text-anchor="middle" x="1154" y="-365.5" font-family="Helvetica,sans-Serif" font-size="10.00">Editor_IsEnabled</text>
</a>
</g>
</g>
<!-- Node29&#45;&gt;Node30 -->
<g id="edge29_Node000029_Node000030" class="edge">
<title>Node29&#45;&gt;Node30</title>
<g id="a_edge29_Node000029_Node000030"><a xlink:title=" ">
<path fill="none" stroke="#63b8ff" d="M996.53,-382.33C1026.17,-379.61 1063.65,-376.18 1094.49,-373.36"/>
<polygon fill="#63b8ff" stroke="#63b8ff" points="1095.03,-376.82 1104.67,-372.43 1094.39,-369.85 1095.03,-376.82"/>
</a>
</g>
</g>
<!-- Node31 -->
<g id="Node000031" class="node">
<title>Node31</title>
<g id="a_Node000031"><a xlink:href="namespaceTrackEditor.html#a79d25f3b85758b1d930e2eb429655ead" target="_top" xlink:title=" ">
<polygon fill="white" stroke="#666666" points="1249,-414.5 1059,-414.5 1059,-395.5 1249,-395.5 1249,-414.5"/>
<text text-anchor="middle" x="1154" y="-402.5" font-family="Helvetica,sans-Serif" font-size="10.00">TrackEditor::GenerateCollisionMesh</text>
</a>
</g>
</g>
<!-- Node29&#45;&gt;Node31 -->
<g id="edge30_Node000029_Node000031" class="edge">
<title>Node29&#45;&gt;Node31</title>
<g id="a_edge30_Node000029_Node000031"><a xlink:title=" ">
<path fill="none" stroke="#63b8ff" d="M996.53,-391.43C1012.42,-392.81 1030.57,-394.38 1048.73,-395.96"/>
<polygon fill="#63b8ff" stroke="#63b8ff" points="1048.55,-399.45 1058.81,-396.83 1049.15,-392.48 1048.55,-399.45"/>
</a>
</g>
</g>
<!-- Node31&#45;&gt;Node31 -->
<g id="edge31_Node000031_Node000031" class="edge">
<title>Node31&#45;&gt;Node31</title>
<g id="a_edge31_Node000031_Node000031"><a xlink:title=" ">
<path fill="none" stroke="#63b8ff" d="M1126.87,-414.58C1113.68,-423.23 1122.72,-432.5 1154,-432.5 1175.02,-432.5 1186,-428.32 1186.93,-422.95"/>
<polygon fill="#63b8ff" stroke="#63b8ff" points="1189.7,-420.8 1181.13,-414.58 1183.95,-424.79 1189.7,-420.8"/>
</a>
</g>
</g>
<!-- Node33&#45;&gt;Node11 -->
<g id="edge36_Node000033_Node000011" class="edge">
<title>Node33&#45;&gt;Node11</title>
<g id="a_edge36_Node000033_Node000011"><a xlink:title=" ">
<path fill="none" stroke="#63b8ff" d="M627.27,-490.51C646.06,-494.28 668.53,-498.15 689,-500 845.19,-514.15 1031.91,-495.83 1112.59,-486.21"/>
<polygon fill="#63b8ff" stroke="#63b8ff" points="1113.3,-489.65 1122.8,-484.97 1112.46,-482.7 1113.3,-489.65"/>
</a>
</g>
</g>
<!-- Node34 -->
<g id="Node000034" class="node">
<title>Node34</title>
<g id="a_Node000034"><a xlink:href="classWorld.html#a215117703aa8944483793767a0fb80ed" target="_top" xlink:title=" ">
<polygon fill="white" stroke="#666666" points="819,-490.5 700,-490.5 700,-471.5 819,-471.5 819,-490.5"/>
<text text-anchor="middle" x="759.5" y="-478.5" font-family="Helvetica,sans-Serif" font-size="10.00">World::AddBaseActor</text>
</a>
</g>
</g>
<!-- Node33&#45;&gt;Node34 -->
<g id="edge35_Node000033_Node000034" class="edge">
<title>Node33&#45;&gt;Node34</title>
<g id="a_edge35_Node000033_Node000034"><a xlink:title=" ">
<path fill="none" stroke="#63b8ff" d="M637.06,-481C653.58,-481 672.11,-481 689.62,-481"/>
<polygon fill="#63b8ff" stroke="#63b8ff" points="689.79,-484.5 699.79,-481 689.79,-477.5 689.79,-484.5"/>
</a>
</g>
</g>
<!-- Node35&#45;&gt;Node11 -->
<g id="edge38_Node000035_Node000011" class="edge">
<title>Node35&#45;&gt;Node11</title>
<g id="a_edge38_Node000035_Node000011"><a xlink:title=" ">
<path fill="none" stroke="#63b8ff" d="M634.57,-537.28C716.07,-537.08 883.28,-533.84 1023,-513 1053.65,-508.43 1087.62,-499.94 1113.16,-492.86"/>
<polygon fill="#63b8ff" stroke="#63b8ff" points="1114.18,-496.21 1122.85,-490.12 1112.28,-489.47 1114.18,-496.21"/>
</a>
</g>
</g>
<!-- Node38 -->
<g id="Node000038" class="node">
<title>Node38</title>
<g id="a_Node000038"><a xlink:href="collision_8c.html#a6527a2135a10909cdf9a1fd731be5628" target="_top" xlink:title=" ">
<polygon fill="white" stroke="#666666" points="653,-67.5 515,-67.5 515,-48.5 653,-48.5 653,-67.5"/>
<text text-anchor="middle" x="584" y="-55.5" font-family="Helvetica,sans-Serif" font-size="10.00">calculate_surface_height</text>
</a>
</g>
</g>
<!-- Node37&#45;&gt;Node38 -->
<g id="edge42_Node000037_Node000038" class="edge">
<title>Node37&#45;&gt;Node38</title>
<g id="a_edge42_Node000037_Node000038"><a xlink:title=" ">
<path fill="none" stroke="#63b8ff" d="M477.88,-46.45C486.68,-47.42 495.75,-48.42 504.71,-49.4"/>
<polygon fill="#63b8ff" stroke="#63b8ff" points="504.43,-52.89 514.75,-50.5 505.19,-45.93 504.43,-52.89"/>
</a>
</g>
</g>
<!-- Node39 -->
<g id="Node000039" class="node">
<title>Node39</title>
<g id="a_Node000039"><a xlink:href="collision_8c.html#a0fe340ccfe1d926a592ea9a0c84d7574" target="_top" xlink:title=" ">
<polygon fill="white" stroke="#666666" points="650,-30 518,-30 518,0 650,0 650,-30"/>
<text text-anchor="start" x="526" y="-18" font-family="Helvetica,sans-Serif" font-size="10.00">check_horizontally</text>
<text text-anchor="middle" x="584" y="-7" font-family="Helvetica,sans-Serif" font-size="10.00">_colliding_with_triangle</text>
</a>
</g>
</g>
<!-- Node37&#45;&gt;Node39 -->
<g id="edge43_Node000037_Node000039" class="edge">
<title>Node37&#45;&gt;Node39</title>
<g id="a_edge43_Node000037_Node000039"><a xlink:title=" ">
<path fill="none" stroke="#63b8ff" d="M477.88,-29.58C487.75,-28.21 497.95,-26.8 507.95,-25.41"/>
<polygon fill="#63b8ff" stroke="#63b8ff" points="508.44,-28.88 517.86,-24.04 507.48,-21.94 508.44,-28.88"/>
</a>
</g>
</g>
</g>
</svg>
