<?xml version="1.0" encoding="UTF-8" standalone="no"?>
<!DOCTYPE svg PUBLIC "-//W3C//DTD SVG 1.1//EN"
 "http://www.w3.org/Graphics/SVG/1.1/DTD/svg11.dtd">
<!-- Generated by graphviz version 2.43.0 (0)
 -->
<!-- Title: AShip::Spawn Pages: 1 -->
<svg width="357pt" height="101pt"
 viewBox="0.00 0.00 357.00 101.00" xmlns="http://www.w3.org/2000/svg" xmlns:xlink="http://www.w3.org/1999/xlink">
<g id="graph0" class="graph" transform="scale(1 1) rotate(0) translate(4 97)">
<title>AShip::Spawn</title>
<!-- Node1 -->
<g id="Node000001" class="node">
<title>Node1</title>
<g id="a_Node000001"><a xlink:title=" ">
<polygon fill="#999999" stroke="#666666" points="83,-37 0,-37 0,-18 83,-18 83,-37"/>
<text text-anchor="middle" x="41.5" y="-25" font-family="Helvetica,sans-Serif" font-size="10.00">AShip::Spawn</text>
</a>
</g>
</g>
<!-- Node2 -->
<g id="Node000002" class="node">
<title>Node2</title>
<g id="a_Node000002"><a xlink:href="RegisterContent_8h.html#aa90aab222b9cb6a7a75c2ed09379eb4e" target="_top" xlink:title=" ">
<polygon fill="white" stroke="#666666" points="218,-56 119,-56 119,-37 218,-37 218,-56"/>
<text text-anchor="middle" x="168.5" y="-44" font-family="Helvetica,sans-Serif" font-size="10.00">AddActorToWorld</text>
</a>
</g>
</g>
<!-- Node1&#45;&gt;Node2 -->
<g id="edge1_Node000001_Node000002" class="edge">
<title>Node1&#45;&gt;Node2</title>
<g id="a_edge1_Node000001_Node000002"><a xlink:title=" ">
<path fill="none" stroke="#63b8ff" d="M83.08,-33.67C91.28,-34.91 100.06,-36.25 108.73,-37.57"/>
<polygon fill="#63b8ff" stroke="#63b8ff" points="108.42,-41.06 118.84,-39.1 109.48,-34.14 108.42,-41.06"/>
</a>
</g>
</g>
<!-- Node5 -->
<g id="Node000005" class="node">
<title>Node5</title>
<g id="a_Node000005"><a xlink:href="classAShip.html#aa54a4eed162e1079237ca6bef019bacf" target="_top" xlink:title=" ">
<polygon fill="white" stroke="#666666" points="207.5,-19 129.5,-19 129.5,0 207.5,0 207.5,-19"/>
<text text-anchor="middle" x="168.5" y="-7" font-family="Helvetica,sans-Serif" font-size="10.00">AShip::AShip</text>
</a>
</g>
</g>
<!-- Node1&#45;&gt;Node5 -->
<g id="edge4_Node000001_Node000005" class="edge">
<title>Node1&#45;&gt;Node5</title>
<g id="a_edge4_Node000001_Node000005"><a xlink:title=" ">
<path fill="none" stroke="#63b8ff" d="M83.08,-21.66C94.55,-20 107.15,-18.19 119.03,-16.48"/>
<polygon fill="#63b8ff" stroke="#63b8ff" points="119.84,-19.9 129.24,-15.01 118.85,-12.97 119.84,-19.9"/>
</a>
</g>
</g>
<!-- Node3 -->
<g id="Node000003" class="node">
<title>Node3</title>
<g id="a_Node000003"><a xlink:href="classWorld.html#ad293502729ed5ecaf8aae97e10daf386" target="_top" xlink:title=" ">
<polygon fill="white" stroke="#666666" points="349,-93 254,-93 254,-74 349,-74 349,-93"/>
<text text-anchor="middle" x="301.5" y="-81" font-family="Helvetica,sans-Serif" font-size="10.00">World::AddActor</text>
</a>
</g>
</g>
<!-- Node2&#45;&gt;Node3 -->
<g id="edge2_Node000002_Node000003" class="edge">
<title>Node2&#45;&gt;Node3</title>
<g id="a_edge2_Node000002_Node000003"><a xlink:title=" ">
<path fill="none" stroke="#63b8ff" d="M203.24,-56.03C219.46,-60.61 239.11,-66.16 256.49,-71.07"/>
<polygon fill="#63b8ff" stroke="#63b8ff" points="255.85,-74.53 266.42,-73.88 257.75,-67.79 255.85,-74.53"/>
</a>
</g>
</g>
<!-- Node4 -->
<g id="Node000004" class="node">
<title>Node4</title>
<g id="a_Node000004"><a xlink:href="Game_8cpp.html#ae2fa844b3cb1021ecbc357f8ed2ad8cc" target="_top" xlink:title=" ">
<polygon fill="white" stroke="#666666" points="332.5,-56 270.5,-56 270.5,-37 332.5,-37 332.5,-56"/>
<text text-anchor="middle" x="301.5" y="-44" font-family="Helvetica,sans-Serif" font-size="10.00">GetWorld</text>
</a>
</g>
</g>
<!-- Node2&#45;&gt;Node4 -->
<g id="edge3_Node000002_Node000004" class="edge">
<title>Node2&#45;&gt;Node4</title>
<g id="a_edge3_Node000002_Node000004"><a xlink:title=" ">
<path fill="none" stroke="#63b8ff" d="M218.28,-46.5C232.06,-46.5 246.89,-46.5 260.11,-46.5"/>
<polygon fill="#63b8ff" stroke="#63b8ff" points="260.32,-50 270.32,-46.5 260.32,-43 260.32,-50"/>
</a>
</g>
</g>
<!-- Node6 -->
<g id="Node000006" class="node">
<title>Node6</title>
<g id="a_Node000006"><a xlink:href="classAActor.html#a679c43bacf3600fa2d7a6ab30e34a8a6" target="_top" xlink:title=" ">
<polygon fill="white" stroke="#666666" points="345,-19 258,-19 258,0 345,0 345,-19"/>
<text text-anchor="middle" x="301.5" y="-7" font-family="Helvetica,sans-Serif" font-size="10.00">AActor::AActor</text>
</a>
</g>
</g>
<!-- Node5&#45;&gt;Node6 -->
<g id="edge5_Node000005_Node000006" class="edge">
<title>Node5&#45;&gt;Node6</title>
<g id="a_edge5_Node000005_Node000006"><a xlink:title=" ">
<path fill="none" stroke="#63b8ff" d="M207.74,-9.5C220.26,-9.5 234.39,-9.5 247.79,-9.5"/>
<polygon fill="#63b8ff" stroke="#63b8ff" points="247.84,-13 257.84,-9.5 247.84,-6 247.84,-13"/>
</a>
</g>
</g>
</g>
</svg>
