<?xml version="1.0" encoding="UTF-8" standalone="no"?>
<!DOCTYPE svg PUBLIC "-//W3C//DTD SVG 1.1//EN"
 "http://www.w3.org/Graphics/SVG/1.1/DTD/svg11.dtd">
<!-- Generated by graphviz version 2.43.0 (0)
 -->
<!-- Title: pfd::select_folder::select_folder Pages: 1 -->
<!--zoomable 348 -->

<svg id="main" version="1.1" xmlns="http://www.w3.org/2000/svg" xmlns:xlink="http://www.w3.org/1999/xlink" xml:space="preserve" onload="init(evt)">

<style type="text/css"><![CDATA[
.node, .edge {opacity: 0.7;}
.node.selected, .edge.selected {opacity: 1;}
.edge:hover path { stroke: red; }
.edge:hover polygon { stroke: red; fill: red; }
]]></style>

<defs>
  <circle id="rim" cx="0" cy="0" r="7"/>
  <circle id="rim2" cx="0" cy="0" r="3.5"/>
  <g id="zoomPlus">
    <use xlink:href="#rim" fill="#404040"><set attributeName="fill" to="#808080" begin="zoomplus.mouseover" end="zoomplus.mouseout"/></use>
    <path d="M-4,0h8M0,-4v8" fill="none" stroke="white" stroke-width="1.5" pointer-events="none"/>
  </g>
  <g id="zoomMin">
    <use xlink:href="#rim" fill="#404040"><set attributeName="fill" to="#808080" begin="zoomminus.mouseover" end="zoomminus.mouseout"/></use>
    <path d="M-4,0h8" fill="none" stroke="white" stroke-width="1.5" pointer-events="none"/>
  </g>
  <g id="arrowUp" transform="translate(30 24)">
    <use xlink:href="#rim"/>
    <path pointer-events="none" fill="none" stroke="white" stroke-width="1.5" d="M0,-3.0v7 M-2.5,-0.5L0,-3.0L2.5,-0.5"/>
  </g>
  <g id="arrowRight" transform="rotate(90) translate(36 -43)">
    <use xlink:href="#rim"/>
    <path pointer-events="none" fill="none" stroke="white" stroke-width="1.5" d="M0,-3.0v7 M-2.5,-0.5L0,-3.0L2.5,-0.5"/>
  </g>
  <g id="arrowDown" transform="rotate(180) translate(-30 -48)">
    <use xlink:href="#rim"/>
    <path pointer-events="none" fill="none" stroke="white" stroke-width="1.5" d="M0,-3.0v7 M-2.5,-0.5L0,-3.0L2.5,-0.5"/>
  </g>
  <g id="arrowLeft" transform="rotate(270) translate(-36 17)">
    <use xlink:href="#rim"/>
    <path pointer-events="none" fill="none" stroke="white" stroke-width="1.5" d="M0,-3.0v7 M-2.5,-0.5L0,-3.0L2.5,-0.5"/>
  </g>
  <g id="resetDef">
    <use xlink:href="#rim2" fill="#404040"><set attributeName="fill" to="#808080" begin="reset.mouseover" end="reset.mouseout"/></use>
  </g>
</defs>
<script type="application/ecmascript">
var viewWidth = 573;
var viewHeight = 348;
var sectionId = 'dynsection-2';
</script>
<script type="application/ecmascript" xlink:href="svg.min.js"/>
<svg id="graph" class="graph">
<g id="viewport">
<title>pfd::select_folder::select_folder</title>
<!-- Node1 -->
<g id="Node000001" class="node">
<title>Node1</title>
<g id="a_Node000001"><a xlink:title=" ">
<polygon fill="#999999" stroke="#666666" points="101,-184.5 0,-184.5 0,-154.5 101,-154.5 101,-184.5"/>
<text text-anchor="start" x="8" y="-172.5" font-family="Helvetica,sans-Serif" font-size="10.00">pfd::select_folder</text>
<text text-anchor="middle" x="50.5" y="-161.5" font-family="Helvetica,sans-Serif" font-size="10.00">::select_folder</text>
</a>
</g>
</g>
<!-- Node2 -->
<g id="Node000002" class="node">
<title>Node2</title>
<g id="a_Node000002"><a xlink:href="classpfd_1_1internal_1_1file__dialog.html#a16f53945e61d23aa9b7fc373701dd13f" target="_top" xlink:title=" ">
<polygon fill="white" stroke="#666666" points="245,-184.5 137,-184.5 137,-154.5 245,-154.5 245,-184.5"/>
<text text-anchor="start" x="145" y="-172.5" font-family="Helvetica,sans-Serif" font-size="10.00">pfd::internal::file</text>
<text text-anchor="middle" x="191" y="-161.5" font-family="Helvetica,sans-Serif" font-size="10.00">_dialog::file_dialog</text>
</a>
</g>
</g>
<!-- Node1&#45;&gt;Node2 -->
<g id="edge1_Node000001_Node000002" class="edge">
<title>Node1&#45;&gt;Node2</title>
<g id="a_edge1_Node000001_Node000002"><a xlink:title=" ">
<path fill="none" stroke="#63b8ff" d="M101.11,-169.5C109.48,-169.5 118.26,-169.5 126.92,-169.5"/>
<polygon fill="#63b8ff" stroke="#63b8ff" points="126.99,-173 136.99,-169.5 126.99,-166 126.99,-173"/>
</a>
</g>
</g>
<!-- Node3 -->
<g id="Node000003" class="node">
<title>Node3</title>
<g id="a_Node000003"><a xlink:href="classpfd_1_1internal_1_1dialog.html#aadaf6cb30620c85f4b97993e3c819188" target="_top" xlink:title=" ">
<polygon fill="white" stroke="#666666" points="407.5,-339.5 295.5,-339.5 295.5,-309.5 407.5,-309.5 407.5,-339.5"/>
<text text-anchor="start" x="303.5" y="-327.5" font-family="Helvetica,sans-Serif" font-size="10.00">pfd::internal::dialog</text>
<text text-anchor="middle" x="351.5" y="-316.5" font-family="Helvetica,sans-Serif" font-size="10.00">::desktop_helper</text>
</a>
</g>
</g>
<!-- Node2&#45;&gt;Node3 -->
<g id="edge2_Node000002_Node000003" class="edge">
<title>Node2&#45;&gt;Node3</title>
<g id="a_edge2_Node000002_Node000003"><a xlink:title=" ">
<path fill="none" stroke="#63b8ff" d="M199.19,-184.78C212.13,-210.82 241.71,-264.01 281,-295.5 285.27,-298.92 290.01,-302 294.94,-304.76"/>
<polygon fill="#63b8ff" stroke="#63b8ff" points="293.47,-307.94 303.97,-309.38 296.66,-301.71 293.47,-307.94"/>
</a>
</g>
</g>
<!-- Node4 -->
<g id="Node000004" class="node">
<title>Node4</title>
<g id="a_Node000004"><a xlink:href="classpfd_1_1settings.html#a1445f3cf0311b15182d401f244b012d8" target="_top" xlink:title=" ">
<polygon fill="white" stroke="#666666" points="565,-235 458,-235 458,-216 565,-216 565,-235"/>
<text text-anchor="middle" x="511.5" y="-223" font-family="Helvetica,sans-Serif" font-size="10.00">pfd::settings::flags</text>
</a>
</g>
</g>
<!-- Node2&#45;&gt;Node4 -->
<g id="edge6_Node000002_Node000004" class="edge">
<title>Node2&#45;&gt;Node4</title>
<g id="a_edge6_Node000002_Node000004"><a xlink:title=" ">
<path fill="none" stroke="#63b8ff" d="M200.86,-184.68C214.71,-206.7 243.8,-246.61 281,-262.5 338.63,-287.12 360.56,-274.83 422,-262.5 443.7,-258.15 466.73,-248.34 483.85,-239.92"/>
<polygon fill="#63b8ff" stroke="#63b8ff" points="485.86,-242.82 493.19,-235.17 482.69,-236.58 485.86,-242.82"/>
</a>
</g>
</g>
<!-- Node5 -->
<g id="Node000005" class="node">
<title>Node5</title>
<g id="a_Node000005"><a xlink:href="namespacepfd_1_1internal.html#aaf263cbe957efd58a37827691b430371" target="_top" xlink:title=" ">
<polygon fill="white" stroke="#666666" points="417,-253 286,-253 286,-234 417,-234 417,-253"/>
<text text-anchor="middle" x="351.5" y="-241" font-family="Helvetica,sans-Serif" font-size="10.00">pfd::internal::ends_with</text>
</a>
</g>
</g>
<!-- Node2&#45;&gt;Node5 -->
<g id="edge5_Node000002_Node000005" class="edge">
<title>Node2&#45;&gt;Node5</title>
<g id="a_edge5_Node000002_Node000005"><a xlink:title=" ">
<path fill="none" stroke="#63b8ff" d="M211.86,-184.52C229.27,-197.05 255.69,-214.57 281,-225.5 285.67,-227.52 290.62,-229.35 295.64,-231"/>
<polygon fill="#63b8ff" stroke="#63b8ff" points="294.74,-234.39 305.33,-233.97 296.79,-227.69 294.74,-234.39"/>
</a>
</g>
</g>
<!-- Node6 -->
<g id="Node000006" class="node">
<title>Node6</title>
<g id="a_Node000006"><a xlink:href="namespacepfd_1_1internal.html#a48cc31ab291a956a29b0a23fb46a7d26" target="_top" xlink:title=" ">
<polygon fill="white" stroke="#666666" points="421,-216 282,-216 282,-197 421,-197 421,-216"/>
<text text-anchor="middle" x="351.5" y="-204" font-family="Helvetica,sans-Serif" font-size="10.00">pfd::internal::is_directory</text>
</a>
</g>
</g>
<!-- Node2&#45;&gt;Node6 -->
<g id="edge7_Node000002_Node000006" class="edge">
<title>Node2&#45;&gt;Node6</title>
<g id="a_edge7_Node000002_Node000006"><a xlink:title=" ">
<path fill="none" stroke="#63b8ff" d="M245.22,-181.92C262.81,-186.03 282.33,-190.59 299.73,-194.65"/>
<polygon fill="#63b8ff" stroke="#63b8ff" points="299.17,-198.11 309.7,-196.98 300.76,-191.29 299.17,-198.11"/>
</a>
</g>
</g>
<!-- Node7 -->
<g id="Node000007" class="node">
<title>Node7</title>
<g id="a_Node000007"><a xlink:href="classpfd_1_1settings.html#aa79fb10eee785f1acd8d1ff34e226c89" target="_top" xlink:title=" ">
<polygon fill="white" stroke="#666666" points="418,-179 285,-179 285,-160 418,-160 418,-179"/>
<text text-anchor="middle" x="351.5" y="-167" font-family="Helvetica,sans-Serif" font-size="10.00">pfd::settings::is_kdialog</text>
</a>
</g>
</g>
<!-- Node2&#45;&gt;Node7 -->
<g id="edge8_Node000002_Node000007" class="edge">
<title>Node2&#45;&gt;Node7</title>
<g id="a_edge8_Node000002_Node000007"><a xlink:title=" ">
<path fill="none" stroke="#63b8ff" d="M245.22,-169.5C254.63,-169.5 264.59,-169.5 274.49,-169.5"/>
<polygon fill="#63b8ff" stroke="#63b8ff" points="274.75,-173 284.75,-169.5 274.75,-166 274.75,-173"/>
</a>
</g>
</g>
<!-- Node8 -->
<g id="Node000008" class="node">
<title>Node8</title>
<g id="a_Node000008"><a xlink:href="classpfd_1_1settings.html#a4e22d6fb43d387ddc980bf6e2a6aad24" target="_top" xlink:title=" ">
<polygon fill="white" stroke="#666666" points="422,-142 281,-142 281,-123 422,-123 422,-142"/>
<text text-anchor="middle" x="351.5" y="-130" font-family="Helvetica,sans-Serif" font-size="10.00">pfd::settings::is_osascript</text>
</a>
</g>
</g>
<!-- Node2&#45;&gt;Node8 -->
<g id="edge10_Node000002_Node000008" class="edge">
<title>Node2&#45;&gt;Node8</title>
<g id="a_edge10_Node000002_Node000008"><a xlink:title=" ">
<path fill="none" stroke="#63b8ff" d="M245.22,-157.08C262.81,-152.97 282.33,-148.41 299.73,-144.35"/>
<polygon fill="#63b8ff" stroke="#63b8ff" points="300.76,-147.71 309.7,-142.02 299.17,-140.89 300.76,-147.71"/>
</a>
</g>
</g>
<!-- Node9 -->
<g id="Node000009" class="node">
<title>Node9</title>
<g id="a_Node000009"><a xlink:href="classpfd_1_1settings.html#a08e4a5b150186d77158a974cc8c2d4a2" target="_top" xlink:title=" ">
<polygon fill="white" stroke="#666666" points="415,-105 288,-105 288,-86 415,-86 415,-105"/>
<text text-anchor="middle" x="351.5" y="-93" font-family="Helvetica,sans-Serif" font-size="10.00">pfd::settings::is_zenity</text>
</a>
</g>
</g>
<!-- Node2&#45;&gt;Node9 -->
<g id="edge11_Node000002_Node000009" class="edge">
<title>Node2&#45;&gt;Node9</title>
<g id="a_edge11_Node000002_Node000009"><a xlink:title=" ">
<path fill="none" stroke="#63b8ff" d="M212.64,-154.36C230.1,-142.15 256.18,-125.29 281,-114.5 286.44,-112.14 292.25,-109.99 298.1,-108.08"/>
<polygon fill="#63b8ff" stroke="#63b8ff" points="299.4,-111.34 307.94,-105.06 297.35,-104.65 299.4,-111.34"/>
</a>
</g>
</g>
<!-- Node10 -->
<g id="Node000010" class="node">
<title>Node10</title>
<g id="a_Node000010"><a xlink:href="classpfd_1_1internal_1_1dialog.html#adc0ec6f5c8137cbdb0ea6669b5263a73" target="_top" xlink:title=" ">
<polygon fill="white" stroke="#666666" points="407.5,-67.5 295.5,-67.5 295.5,-37.5 407.5,-37.5 407.5,-67.5"/>
<text text-anchor="start" x="303.5" y="-55.5" font-family="Helvetica,sans-Serif" font-size="10.00">pfd::internal::dialog</text>
<text text-anchor="middle" x="351.5" y="-44.5" font-family="Helvetica,sans-Serif" font-size="10.00">::osascript_quote</text>
</a>
</g>
</g>
<!-- Node2&#45;&gt;Node10 -->
<g id="edge13_Node000002_Node000010" class="edge">
<title>Node2&#45;&gt;Node10</title>
<g id="a_edge13_Node000002_Node000010"><a xlink:title=" ">
<path fill="none" stroke="#63b8ff" d="M203.02,-154.38C218.4,-134.25 248.15,-98.73 281,-77.5 284.09,-75.5 287.36,-73.64 290.73,-71.91"/>
<polygon fill="#63b8ff" stroke="#63b8ff" points="292.28,-75.04 299.84,-67.61 289.3,-68.71 292.28,-75.04"/>
</a>
</g>
</g>
<!-- Node11 -->
<g id="Node000011" class="node">
<title>Node11</title>
<g id="a_Node000011"><a xlink:href="namespacepfd_1_1internal.html#a405a4127479d770e2b2fd48504c85f42" target="_top" xlink:title=" ">
<polygon fill="white" stroke="#666666" points="419.5,-19 283.5,-19 283.5,0 419.5,0 419.5,-19"/>
<text text-anchor="middle" x="351.5" y="-7" font-family="Helvetica,sans-Serif" font-size="10.00">pfd::internal::starts_with</text>
</a>
</g>
</g>
<!-- Node2&#45;&gt;Node11 -->
<g id="edge14_Node000002_Node000011" class="edge">
<title>Node2&#45;&gt;Node11</title>
<g id="a_edge14_Node000002_Node000011"><a xlink:title=" ">
<path fill="none" stroke="#63b8ff" d="M197.36,-154.13C208.31,-125 236.1,-61.74 281,-28.5 283.53,-26.63 286.24,-24.94 289.06,-23.41"/>
<polygon fill="#63b8ff" stroke="#63b8ff" points="290.79,-26.47 298.4,-19.09 287.85,-20.12 290.79,-26.47"/>
</a>
</g>
</g>
<!-- Node3&#45;&gt;Node4 -->
<g id="edge3_Node000003_Node000004" class="edge">
<title>Node3&#45;&gt;Node4</title>
<g id="a_edge3_Node000003_Node000004"><a xlink:title=" ">
<path fill="none" stroke="#63b8ff" d="M393.83,-309.44C403.33,-305.39 413.21,-300.68 422,-295.5 448.4,-279.95 475.58,-257.27 492.73,-241.98"/>
<polygon fill="#63b8ff" stroke="#63b8ff" points="495.23,-244.44 500.29,-235.13 490.53,-239.25 495.23,-244.44"/>
</a>
</g>
</g>
<!-- Node4&#45;&gt;Node4 -->
<g id="edge4_Node000004_Node000004" class="edge">
<title>Node4&#45;&gt;Node4</title>
<g id="a_edge4_Node000004_Node000004"><a xlink:title=" ">
<path fill="none" stroke="#63b8ff" d="M486.84,-235.08C474.84,-243.73 483.06,-253 511.5,-253 530.16,-253 540.12,-249.01 541.37,-243.82"/>
<polygon fill="#63b8ff" stroke="#63b8ff" points="544.29,-241.88 536.16,-235.08 538.27,-245.47 544.29,-241.88"/>
</a>
</g>
</g>
<!-- Node7&#45;&gt;Node4 -->
<g id="edge9_Node000007_Node000004" class="edge">
<title>Node7&#45;&gt;Node4</title>
<g id="a_edge9_Node000007_Node000004"><a xlink:title=" ">
<path fill="none" stroke="#63b8ff" d="M391.01,-179.08C401.17,-181.86 412.06,-185.08 422,-188.5 441.75,-195.29 463.38,-204.31 480.32,-211.74"/>
<polygon fill="#63b8ff" stroke="#63b8ff" points="479.13,-215.05 489.69,-215.9 481.97,-208.65 479.13,-215.05"/>
</a>
</g>
</g>
<!-- Node9&#45;&gt;Node4 -->
<g id="edge12_Node000009_Node000004" class="edge">
<title>Node9&#45;&gt;Node4</title>
<g id="a_edge12_Node000009_Node000004"><a xlink:title=" ">
<path fill="none" stroke="#63b8ff" d="M402.77,-105.12C409.53,-107.57 416.15,-110.65 422,-114.5 458.34,-138.43 486.65,-182.15 500.72,-206.98"/>
<polygon fill="#63b8ff" stroke="#63b8ff" points="497.67,-208.7 505.56,-215.78 503.81,-205.33 497.67,-208.7"/>
</a>
</g>
</g>
</g>
</svg>

<g id="navigator" transform="translate(0 0)" fill="#404254">
  <rect fill="#f2f5e9" fill-opacity="0.5" stroke="#606060" stroke-width=".5" x="0" y="0" width="60" height="60"/>
  <use id="zoomplus" xlink:href="#zoomPlus" x="17" y="9" onmousedown="handleZoom(evt,'in')"/>
  <use id="zoomminus" xlink:href="#zoomMin" x="42" y="9" onmousedown="handleZoom(evt,'out')"/>
  <use id="reset" xlink:href="#resetDef" x="30" y="36" onmousedown="handleReset()"/>
   <use id="arrowup" xlink:href="#arrowUp" x="0" y="0" onmousedown="handlePan(0,-1)"/>
  <use id="arrowright" xlink:href="#arrowRight" x="0" y="0" onmousedown="handlePan(1,0)"/>
  <use id="arrowdown" xlink:href="#arrowDown" x="0" y="0" onmousedown="handlePan(0,1)"/>
  <use id="arrowleft" xlink:href="#arrowLeft" x="0" y="0" onmousedown="handlePan(-1,0)"/>
</g>
<svg viewBox="0 0 15 15" width="100%" height="30px" preserveAspectRatio="xMaxYMin meet">
 <g id="arrow_out" transform="scale(0.3 0.3)">
  <a xlink:href="classpfd_1_1select__folder_ac6611de7b07e4366ffd2442d22ae1924_cgraph_org.svg" target="_base">
   <rect id="button" ry="5" rx="5" y="6" x="6" height="38" width="38"
        fill="#f2f5e9" fill-opacity="0.5" stroke="#606060" stroke-width="1.0"/>
   <path id="arrow"
     d="M 11.500037,31.436501 C 11.940474,20.09759 22.043105,11.32322 32.158766,21.979434 L 37.068811,17.246167 C 37.068811,17.246167 37.088388,32 37.088388,32 L 22.160133,31.978069 C 22.160133,31.978069 26.997745,27.140456 26.997745,27.140456 C 18.528582,18.264221 13.291696,25.230495 11.500037,31.436501 z"
     style="fill:#404040;"/>
  </a>
 </g>
</svg>

<style type='text/css'>
<![CDATA[
[data-mouse-over-selected='false'] { opacity: 0.7; }
[data-mouse-over-selected='true']  { opacity: 1.0; }
]]>
</style>
<script type="application/ecmascript"><![CDATA[
document.addEventListener('DOMContentLoaded', (event) => {
  highlightEdges();
  highlightAdjacentNodes();
});
]]></script>
</svg>
