<?xml version="1.0" encoding="UTF-8" standalone="no"?>
<!DOCTYPE svg PUBLIC "-//W3C//DTD SVG 1.1//EN"
 "http://www.w3.org/Graphics/SVG/1.1/DTD/svg11.dtd">
<!-- Generated by graphviz version 2.43.0 (0)
 -->
<!-- Title: OThwomp::func_8007F660 Pages: 1 -->
<svg width="417pt" height="64pt"
 viewBox="0.00 0.00 417.00 64.00" xmlns="http://www.w3.org/2000/svg" xmlns:xlink="http://www.w3.org/1999/xlink">
<g id="graph0" class="graph" transform="scale(1 1) rotate(0) translate(4 60)">
<title>OThwomp::func_8007F660</title>
<!-- Node1 -->
<g id="Node000001" class="node">
<title>Node1</title>
<g id="a_Node000001"><a xlink:title=" ">
<polygon fill="#999999" stroke="#666666" points="146,-37 0,-37 0,-18 146,-18 146,-37"/>
<text text-anchor="middle" x="73" y="-25" font-family="Helvetica,sans-Serif" font-size="10.00">OThwomp::func_8007F660</text>
</a>
</g>
</g>
<!-- Node2 -->
<g id="Node000002" class="node">
<title>Node2</title>
<g id="a_Node000002"><a xlink:href="update__objects_8c.html#a2c88cc32dff07c6af5fe74d00b9fa279" target="_top" xlink:title=" ">
<polygon fill="white" stroke="#666666" points="274,-56 182,-56 182,-37 274,-37 274,-56"/>
<text text-anchor="middle" x="228" y="-44" font-family="Helvetica,sans-Serif" font-size="10.00">func_800722A4</text>
</a>
</g>
</g>
<!-- Node1&#45;&gt;Node2 -->
<g id="edge1_Node000001_Node000002" class="edge">
<title>Node1&#45;&gt;Node2</title>
<g id="a_edge1_Node000001_Node000002"><a xlink:title=" ">
<path fill="none" stroke="#63b8ff" d="M146.02,-36.44C154.73,-37.52 163.51,-38.62 171.92,-39.66"/>
<polygon fill="#63b8ff" stroke="#63b8ff" points="171.6,-43.15 181.96,-40.91 172.47,-36.2 171.6,-43.15"/>
</a>
</g>
</g>
<!-- Node3 -->
<g id="Node000003" class="node">
<title>Node3</title>
<g id="a_Node000003"><a xlink:href="code__80086E70_8c.html#ad844d2fe27c3f0bb5979715fae72559a" target="_top" xlink:title=" ">
<polygon fill="white" stroke="#666666" points="273.5,-19 182.5,-19 182.5,0 273.5,0 273.5,-19"/>
<text text-anchor="middle" x="228" y="-7" font-family="Helvetica,sans-Serif" font-size="10.00">func_80086E70</text>
</a>
</g>
</g>
<!-- Node1&#45;&gt;Node3 -->
<g id="edge2_Node000001_Node000003" class="edge">
<title>Node1&#45;&gt;Node3</title>
<g id="a_edge2_Node000001_Node000003"><a xlink:title=" ">
<path fill="none" stroke="#63b8ff" d="M146.02,-19.03C154.84,-17.99 163.73,-16.94 172.24,-15.94"/>
<polygon fill="#63b8ff" stroke="#63b8ff" points="172.86,-19.39 182.39,-14.75 172.05,-12.44 172.86,-19.39"/>
</a>
</g>
</g>
<!-- Node4 -->
<g id="Node000004" class="node">
<title>Node4</title>
<g id="a_Node000004"><a xlink:href="update__objects_8c.html#a3953241e15c6372ac8944ba842148a9a" target="_top" xlink:title=" ">
<polygon fill="white" stroke="#666666" points="409,-19 310,-19 310,0 409,0 409,-19"/>
<text text-anchor="middle" x="359.5" y="-7" font-family="Helvetica,sans-Serif" font-size="10.00">clear_object_flag</text>
</a>
</g>
</g>
<!-- Node3&#45;&gt;Node4 -->
<g id="edge3_Node000003_Node000004" class="edge">
<title>Node3&#45;&gt;Node4</title>
<g id="a_edge3_Node000003_Node000004"><a xlink:title=" ">
<path fill="none" stroke="#63b8ff" d="M273.57,-9.5C281.98,-9.5 290.9,-9.5 299.67,-9.5"/>
<polygon fill="#63b8ff" stroke="#63b8ff" points="299.86,-13 309.86,-9.5 299.86,-6 299.86,-13"/>
</a>
</g>
</g>
</g>
</svg>
