<?xml version="1.0" encoding="UTF-8" standalone="no"?>
<!DOCTYPE svg PUBLIC "-//W3C//DTD SVG 1.1//EN"
 "http://www.w3.org/Graphics/SVG/1.1/DTD/svg11.dtd">
<!-- Generated by graphviz version 2.43.0 (0)
 -->
<!-- Title: AText::ValidateString Pages: 1 -->
<svg width="363pt" height="64pt"
 viewBox="0.00 0.00 363.00 64.00" xmlns="http://www.w3.org/2000/svg" xmlns:xlink="http://www.w3.org/1999/xlink">

<svg id="main" version="1.1" xmlns="http://www.w3.org/2000/svg" xmlns:xlink="http://www.w3.org/1999/xlink" xml:space="preserve">

<style type="text/css"><![CDATA[
.node, .edge {opacity: 0.7;}
.node.selected, .edge.selected {opacity: 1;}
.edge:hover path { stroke: red; }
.edge:hover polygon { stroke: red; fill: red; }
]]></style>
<script type="application/ecmascript" xlink:href="svg.min.js"/>
<svg id="graph" class="graph">
<g id="graph0" class="graph" transform="scale(1 1) rotate(0) translate(4 60)">
<title>AText::ValidateString</title>
<!-- Node1 -->
<g id="Node000001" class="node">
<title>Node1</title>
<g id="a_Node000001"><a xlink:title=" ">
<polygon fill="#999999" stroke="#666666" points="355,-37 238,-37 238,-18 355,-18 355,-37"/>
<text text-anchor="middle" x="296.5" y="-25" font-family="Helvetica,sans-Serif" font-size="10.00">AText::ValidateString</text>
</a>
</g>
</g>
<!-- Node2 -->
<g id="Node000002" class="node">
<title>Node2</title>
<g id="a_Node000002"><a xlink:href="classAText.html#ad1eb7d831c8cba5c851ec4b07c20e067" target="_top" xlink:title=" ">
<polygon fill="white" stroke="#666666" points="197,-56 122,-56 122,-37 197,-37 197,-56"/>
<text text-anchor="middle" x="159.5" y="-44" font-family="Helvetica,sans-Serif" font-size="10.00">AText::AText</text>
</a>
</g>
</g>
<!-- Node1&#45;&gt;Node2 -->
<g id="edge1_Node000001_Node000002" class="edge">
<title>Node1&#45;&gt;Node2</title>
<g id="a_edge1_Node000001_Node000002"><a xlink:title=" ">
<path fill="none" stroke="#63b8ff" d="M227.79,-37.03C217.27,-38.51 206.75,-39.99 197.26,-41.33"/>
<polygon fill="#63b8ff" stroke="#63b8ff" points="228.44,-40.47 237.86,-35.61 227.47,-33.54 228.44,-40.47"/>
</a>
</g>
</g>
<!-- Node4 -->
<g id="Node000004" class="node">
<title>Node4</title>
<g id="a_Node000004"><a xlink:href="classAText.html#a4126b6c7023fd999cda64a4c72da05a3" target="_top" xlink:title=" ">
<polygon fill="white" stroke="#666666" points="202,-19 117,-19 117,0 202,0 202,-19"/>
<text text-anchor="middle" x="159.5" y="-7" font-family="Helvetica,sans-Serif" font-size="10.00">AText::SetText</text>
</a>
</g>
</g>
<!-- Node1&#45;&gt;Node4 -->
<g id="edge3_Node000001_Node000004" class="edge">
<title>Node1&#45;&gt;Node4</title>
<g id="a_edge3_Node000001_Node000004"><a xlink:title=" ">
<path fill="none" stroke="#63b8ff" d="M227.92,-18.49C219.08,-17.31 210.25,-16.13 202.03,-15.04"/>
<polygon fill="#63b8ff" stroke="#63b8ff" points="227.48,-21.96 237.86,-19.81 228.41,-15.02 227.48,-21.96"/>
</a>
</g>
</g>
<!-- Node3 -->
<g id="Node000003" class="node">
<title>Node3</title>
<g id="a_Node000003"><a xlink:href="classAText.html#a2f38d1b087146f2510964124efc111f2" target="_top" xlink:title=" ">
<polygon fill="white" stroke="#666666" points="81,-56 0,-56 0,-37 81,-37 81,-56"/>
<text text-anchor="middle" x="40.5" y="-44" font-family="Helvetica,sans-Serif" font-size="10.00">AText::Spawn</text>
</a>
</g>
</g>
<!-- Node2&#45;&gt;Node3 -->
<g id="edge2_Node000002_Node000003" class="edge">
<title>Node2&#45;&gt;Node3</title>
<g id="a_edge2_Node000002_Node000003"><a xlink:title=" ">
<path fill="none" stroke="#63b8ff" d="M111.57,-46.5C101.55,-46.5 91.05,-46.5 81.31,-46.5"/>
<polygon fill="#63b8ff" stroke="#63b8ff" points="111.8,-50 121.8,-46.5 111.8,-43 111.8,-50"/>
</a>
</g>
</g>
</g>
</svg>
</svg>

<style type='text/css'>
<![CDATA[
[data-mouse-over-selected='false'] { opacity: 0.7; }
[data-mouse-over-selected='true']  { opacity: 1.0; }
]]>
</style>
<script type="application/ecmascript"><![CDATA[
document.addEventListener('DOMContentLoaded', (event) => {
  highlightEdges();
  highlightAdjacentNodes();
});
]]></script>
</svg>
