<?xml version="1.0" encoding="UTF-8" standalone="no"?>
<!DOCTYPE svg PUBLIC "-//W3C//DTD SVG 1.1//EN"
 "http://www.w3.org/Graphics/SVG/1.1/DTD/svg11.dtd">
<!-- Generated by graphviz version 2.43.0 (0)
 -->
<!-- Title: GameExtractor::SelectGameFromUI Pages: 1 -->
<svg width="1130pt" height="131pt"
 viewBox="0.00 0.00 1130.00 131.00" xmlns="http://www.w3.org/2000/svg" xmlns:xlink="http://www.w3.org/1999/xlink">
<g id="graph0" class="graph" transform="scale(1 1) rotate(0) translate(4 127)">
<title>GameExtractor::SelectGameFromUI</title>
<!-- Node1 -->
<g id="Node000001" class="node">
<title>Node1</title>
<g id="a_Node000001"><a xlink:title=" ">
<polygon fill="#999999" stroke="#666666" points="155,-69.5 0,-69.5 0,-39.5 155,-39.5 155,-69.5"/>
<text text-anchor="start" x="8" y="-57.5" font-family="Helvetica,sans-Serif" font-size="10.00">GameExtractor::SelectGame</text>
<text text-anchor="middle" x="77.5" y="-46.5" font-family="Helvetica,sans-Serif" font-size="10.00">FromUI</text>
</a>
</g>
</g>
<!-- Node2 -->
<g id="Node000002" class="node">
<title>Node2</title>
<g id="a_Node000002"><a xlink:href="classpfd_1_1settings.html#a54fb5598e7501ac38d17e3629190b2fe" target="_top" xlink:title=" ">
<polygon fill="white" stroke="#666666" points="325.5,-83 197.5,-83 197.5,-64 325.5,-64 325.5,-83"/>
<text text-anchor="middle" x="261.5" y="-71" font-family="Helvetica,sans-Serif" font-size="10.00">pfd::settings::available</text>
</a>
</g>
</g>
<!-- Node1&#45;&gt;Node2 -->
<g id="edge1_Node000001_Node000002" class="edge">
<title>Node1&#45;&gt;Node2</title>
<g id="a_edge1_Node000001_Node000002"><a xlink:title=" ">
<path fill="none" stroke="#63b8ff" d="M155.16,-62.5C165.83,-63.62 176.78,-64.76 187.38,-65.87"/>
<polygon fill="#63b8ff" stroke="#63b8ff" points="187.12,-69.36 197.43,-66.92 187.85,-62.4 187.12,-69.36"/>
</a>
</g>
</g>
<!-- Node11 -->
<g id="Node000011" class="node">
<title>Node11</title>
<g id="a_Node000011"><a xlink:href="classGameExtractor.html#a787a62ed41a6f9e69d355810b3c8fe78" target="_top" xlink:title=" ">
<polygon fill="white" stroke="#666666" points="332,-46 191,-46 191,-27 332,-27 332,-46"/>
<text text-anchor="middle" x="261.5" y="-34" font-family="Helvetica,sans-Serif" font-size="10.00">GameExtractor::GetRoms</text>
</a>
</g>
</g>
<!-- Node1&#45;&gt;Node11 -->
<g id="edge13_Node000001_Node000011" class="edge">
<title>Node1&#45;&gt;Node11</title>
<g id="a_edge13_Node000001_Node000011"><a xlink:title=" ">
<path fill="none" stroke="#63b8ff" d="M155.16,-46.92C163.68,-46.08 172.37,-45.22 180.92,-44.37"/>
<polygon fill="#63b8ff" stroke="#63b8ff" points="181.27,-47.85 190.88,-43.39 180.58,-40.89 181.27,-47.85"/>
</a>
</g>
</g>
<!-- Node3 -->
<g id="Node000003" class="node">
<title>Node3</title>
<g id="a_Node000003"><a xlink:href="classpfd_1_1settings.html#a1445f3cf0311b15182d401f244b012d8" target="_top" xlink:title=" ">
<polygon fill="white" stroke="#666666" points="637.5,-105 530.5,-105 530.5,-86 637.5,-86 637.5,-105"/>
<text text-anchor="middle" x="584" y="-93" font-family="Helvetica,sans-Serif" font-size="10.00">pfd::settings::flags</text>
</a>
</g>
</g>
<!-- Node2&#45;&gt;Node3 -->
<g id="edge2_Node000002_Node000003" class="edge">
<title>Node2&#45;&gt;Node3</title>
<g id="a_edge2_Node000002_Node000003"><a xlink:title=" ">
<path fill="none" stroke="#63b8ff" d="M325.82,-77.85C382.15,-81.71 464.08,-87.34 520.24,-91.19"/>
<polygon fill="#63b8ff" stroke="#63b8ff" points="520.2,-94.7 530.41,-91.89 520.68,-87.71 520.2,-94.7"/>
</a>
</g>
</g>
<!-- Node4 -->
<g id="Node000004" class="node">
<title>Node4</title>
<g id="a_Node000004"><a xlink:href="classpfd_1_1settings.html#a7190e52d512b1321acb78731a8cddf42" target="_top" xlink:title=" ">
<polygon fill="white" stroke="#666666" points="490,-64 368,-64 368,-45 490,-45 490,-64"/>
<text text-anchor="middle" x="429" y="-52" font-family="Helvetica,sans-Serif" font-size="10.00">pfd::settings::settings</text>
</a>
</g>
</g>
<!-- Node2&#45;&gt;Node4 -->
<g id="edge4_Node000002_Node000004" class="edge">
<title>Node2&#45;&gt;Node4</title>
<g id="a_edge4_Node000002_Node000004"><a xlink:title=" ">
<path fill="none" stroke="#63b8ff" d="M325.54,-66.26C336.06,-65.05 347.04,-63.79 357.73,-62.57"/>
<polygon fill="#63b8ff" stroke="#63b8ff" points="358.33,-66.02 367.86,-61.4 357.53,-59.07 358.33,-66.02"/>
</a>
</g>
</g>
<!-- Node3&#45;&gt;Node3 -->
<g id="edge3_Node000003_Node000003" class="edge">
<title>Node3&#45;&gt;Node3</title>
<g id="a_edge3_Node000003_Node000003"><a xlink:title=" ">
<path fill="none" stroke="#63b8ff" d="M560.26,-105.08C548.72,-113.73 556.63,-123 584,-123 601.96,-123 611.54,-119.01 612.75,-113.82"/>
<polygon fill="#63b8ff" stroke="#63b8ff" points="615.75,-112.02 607.74,-105.08 609.67,-115.5 615.75,-112.02"/>
</a>
</g>
</g>
<!-- Node4&#45;&gt;Node3 -->
<g id="edge11_Node000004_Node000003" class="edge">
<title>Node4&#45;&gt;Node3</title>
<g id="a_edge11_Node000004_Node000003"><a xlink:title=" ">
<path fill="none" stroke="#63b8ff" d="M465.49,-64.01C486.94,-69.76 514.5,-77.15 537.55,-83.32"/>
<polygon fill="#63b8ff" stroke="#63b8ff" points="536.88,-86.76 547.44,-85.97 538.69,-80 536.88,-86.76"/>
</a>
</g>
</g>
<!-- Node5 -->
<g id="Node000005" class="node">
<title>Node5</title>
<g id="a_Node000005"><a xlink:href="classpfd_1_1settings.html#af1c2f6e88ffafd59a2f7609631a9eade" target="_top" xlink:title=" ">
<polygon fill="white" stroke="#666666" points="640,-67.5 528,-67.5 528,-37.5 640,-37.5 640,-67.5"/>
<text text-anchor="start" x="536" y="-55.5" font-family="Helvetica,sans-Serif" font-size="10.00">pfd::settings::check</text>
<text text-anchor="middle" x="584" y="-44.5" font-family="Helvetica,sans-Serif" font-size="10.00">_program</text>
</a>
</g>
</g>
<!-- Node4&#45;&gt;Node5 -->
<g id="edge5_Node000004_Node000005" class="edge">
<title>Node4&#45;&gt;Node5</title>
<g id="a_edge5_Node000004_Node000005"><a xlink:title=" ">
<path fill="none" stroke="#63b8ff" d="M490.03,-53.72C499.03,-53.6 508.35,-53.48 517.46,-53.36"/>
<polygon fill="#63b8ff" stroke="#63b8ff" points="517.68,-56.85 527.63,-53.22 517.59,-49.85 517.68,-56.85"/>
</a>
</g>
</g>
<!-- Node10 -->
<g id="Node000010" class="node">
<title>Node10</title>
<g id="a_Node000010"><a xlink:href="namespacepfd_1_1internal.html#a491d4afd9c76bafd6011502082444461" target="_top" xlink:title=" ">
<polygon fill="white" stroke="#666666" points="642,-19 526,-19 526,0 642,0 642,-19"/>
<text text-anchor="middle" x="584" y="-7" font-family="Helvetica,sans-Serif" font-size="10.00">pfd::internal::getenv</text>
</a>
</g>
</g>
<!-- Node4&#45;&gt;Node10 -->
<g id="edge12_Node000004_Node000010" class="edge">
<title>Node4&#45;&gt;Node10</title>
<g id="a_edge12_Node000004_Node000010"><a xlink:title=" ">
<path fill="none" stroke="#63b8ff" d="M462.45,-44.96C485.27,-38.24 516.02,-29.2 540.76,-21.92"/>
<polygon fill="#63b8ff" stroke="#63b8ff" points="541.99,-25.21 550.6,-19.03 540.02,-18.49 541.99,-25.21"/>
</a>
</g>
</g>
<!-- Node6 -->
<g id="Node000006" class="node">
<title>Node6</title>
<g id="a_Node000006"><a xlink:href="classpfd_1_1internal_1_1executor.html#a07116b98b28332c42946e956f7edd2ae" target="_top" xlink:title=" ">
<polygon fill="white" stroke="#666666" points="802,-91.5 678,-91.5 678,-61.5 802,-61.5 802,-91.5"/>
<text text-anchor="start" x="686" y="-79.5" font-family="Helvetica,sans-Serif" font-size="10.00">pfd::internal::executor</text>
<text text-anchor="middle" x="740" y="-68.5" font-family="Helvetica,sans-Serif" font-size="10.00">::result</text>
</a>
</g>
</g>
<!-- Node5&#45;&gt;Node6 -->
<g id="edge6_Node000005_Node000006" class="edge">
<title>Node5&#45;&gt;Node6</title>
<g id="a_edge6_Node000005_Node000006"><a xlink:title=" ">
<path fill="none" stroke="#63b8ff" d="M640.16,-61.1C649.16,-62.5 658.6,-63.97 667.91,-65.42"/>
<polygon fill="#63b8ff" stroke="#63b8ff" points="667.53,-68.9 677.95,-66.99 668.61,-61.99 667.53,-68.9"/>
</a>
</g>
</g>
<!-- Node9 -->
<g id="Node000009" class="node">
<title>Node9</title>
<g id="a_Node000009"><a xlink:href="classpfd_1_1internal_1_1executor.html#adcb1fcd88381030ada3d8f6d07dd8d6e" target="_top" xlink:title=" ">
<polygon fill="white" stroke="#666666" points="802,-43.5 678,-43.5 678,-13.5 802,-13.5 802,-43.5"/>
<text text-anchor="start" x="686" y="-31.5" font-family="Helvetica,sans-Serif" font-size="10.00">pfd::internal::executor</text>
<text text-anchor="middle" x="740" y="-20.5" font-family="Helvetica,sans-Serif" font-size="10.00">::start_process</text>
</a>
</g>
</g>
<!-- Node5&#45;&gt;Node9 -->
<g id="edge9_Node000005_Node000009" class="edge">
<title>Node5&#45;&gt;Node9</title>
<g id="a_edge9_Node000005_Node000009"><a xlink:title=" ">
<path fill="none" stroke="#63b8ff" d="M640.16,-43.9C649.16,-42.5 658.6,-41.03 667.91,-39.58"/>
<polygon fill="#63b8ff" stroke="#63b8ff" points="668.61,-43.01 677.95,-38.01 667.53,-36.1 668.61,-43.01"/>
</a>
</g>
</g>
<!-- Node7 -->
<g id="Node000007" class="node">
<title>Node7</title>
<g id="a_Node000007"><a xlink:href="classpfd_1_1internal_1_1executor.html#a2e65a18556b3de93dafd6fabe3786277" target="_top" xlink:title=" ">
<polygon fill="white" stroke="#666666" points="962,-67.5 838,-67.5 838,-37.5 962,-37.5 962,-67.5"/>
<text text-anchor="start" x="846" y="-55.5" font-family="Helvetica,sans-Serif" font-size="10.00">pfd::internal::executor</text>
<text text-anchor="middle" x="900" y="-44.5" font-family="Helvetica,sans-Serif" font-size="10.00">::stop</text>
</a>
</g>
</g>
<!-- Node6&#45;&gt;Node7 -->
<g id="edge7_Node000006_Node000007" class="edge">
<title>Node6&#45;&gt;Node7</title>
<g id="a_edge7_Node000006_Node000007"><a xlink:title=" ">
<path fill="none" stroke="#63b8ff" d="M802.09,-67.22C810.51,-65.94 819.23,-64.62 827.81,-63.31"/>
<polygon fill="#63b8ff" stroke="#63b8ff" points="828.45,-66.76 837.82,-61.79 827.4,-59.84 828.45,-66.76"/>
</a>
</g>
</g>
<!-- Node8 -->
<g id="Node000008" class="node">
<title>Node8</title>
<g id="a_Node000008"><a xlink:href="classpfd_1_1internal_1_1executor.html#a7eb363f3dc9d6dc21f1a8b6ce6a33679" target="_top" xlink:title=" ">
<polygon fill="white" stroke="#666666" points="1122,-67.5 998,-67.5 998,-37.5 1122,-37.5 1122,-67.5"/>
<text text-anchor="start" x="1006" y="-55.5" font-family="Helvetica,sans-Serif" font-size="10.00">pfd::internal::executor</text>
<text text-anchor="middle" x="1060" y="-44.5" font-family="Helvetica,sans-Serif" font-size="10.00">::ready</text>
</a>
</g>
</g>
<!-- Node7&#45;&gt;Node8 -->
<g id="edge8_Node000007_Node000008" class="edge">
<title>Node7&#45;&gt;Node8</title>
<g id="a_edge8_Node000007_Node000008"><a xlink:title=" ">
<path fill="none" stroke="#63b8ff" d="M962.09,-52.5C970.51,-52.5 979.23,-52.5 987.81,-52.5"/>
<polygon fill="#63b8ff" stroke="#63b8ff" points="987.82,-56 997.82,-52.5 987.82,-49 987.82,-56"/>
</a>
</g>
</g>
<!-- Node9&#45;&gt;Node7 -->
<g id="edge10_Node000009_Node000007" class="edge">
<title>Node9&#45;&gt;Node7</title>
<g id="a_edge10_Node000009_Node000007"><a xlink:title=" ">
<path fill="none" stroke="#63b8ff" d="M802.09,-37.78C810.51,-39.06 819.23,-40.38 827.81,-41.69"/>
<polygon fill="#63b8ff" stroke="#63b8ff" points="827.4,-45.16 837.82,-43.21 828.45,-38.24 827.4,-45.16"/>
</a>
</g>
</g>
</g>
</svg>
