<?xml version="1.0" encoding="UTF-8" standalone="no"?>
<!DOCTYPE svg PUBLIC "-//W3C//DTD SVG 1.1//EN"
 "http://www.w3.org/Graphics/SVG/1.1/DTD/svg11.dtd">
<!-- Generated by graphviz version 2.43.0 (0)
 -->
<!-- Title: OHotAirBalloon::OHotAirBalloon Pages: 1 -->
<svg width="521pt" height="27pt"
 viewBox="0.00 0.00 521.00 27.00" xmlns="http://www.w3.org/2000/svg" xmlns:xlink="http://www.w3.org/1999/xlink">
<g id="graph0" class="graph" transform="scale(1 1) rotate(0) translate(4 23)">
<title>OHotAirBalloon::OHotAirBalloon</title>
<!-- Node1 -->
<g id="Node000001" class="node">
<title>Node1</title>
<g id="a_Node000001"><a xlink:title=" ">
<polygon fill="#999999" stroke="#666666" points="513,-19 340,-19 340,0 513,0 513,-19"/>
<text text-anchor="middle" x="426.5" y="-7" font-family="Helvetica,sans-Serif" font-size="10.00">OHotAirBalloon::OHotAirBalloon</text>
</a>
</g>
</g>
<!-- Node2 -->
<g id="Node000002" class="node">
<title>Node2</title>
<g id="a_Node000002"><a xlink:href="classOHotAirBalloon.html#a32b443047f84888dd4b4717e8f03920c" target="_top" xlink:title=" ">
<polygon fill="white" stroke="#666666" points="304,-19 174,-19 174,0 304,0 304,-19"/>
<text text-anchor="middle" x="239" y="-7" font-family="Helvetica,sans-Serif" font-size="10.00">OHotAirBalloon::Spawn</text>
</a>
</g>
</g>
<!-- Node1&#45;&gt;Node2 -->
<g id="edge1_Node000001_Node000002" class="edge">
<title>Node1&#45;&gt;Node2</title>
<g id="a_edge1_Node000001_Node000002"><a xlink:title=" ">
<path fill="none" stroke="#63b8ff" d="M329.7,-9.5C321.08,-9.5 312.5,-9.5 304.25,-9.5"/>
<polygon fill="#63b8ff" stroke="#63b8ff" points="329.81,-13 339.81,-9.5 329.81,-6 329.81,-13"/>
</a>
</g>
</g>
<!-- Node3 -->
<g id="Node000003" class="node">
<title>Node3</title>
<g id="a_Node000003"><a xlink:href="classLuigiRaceway.html#a00b59b5b947f751c540ecfe6483b7703" target="_top" xlink:title=" ">
<polygon fill="white" stroke="#666666" points="138,-19 0,-19 0,0 138,0 138,-19"/>
<text text-anchor="middle" x="69" y="-7" font-family="Helvetica,sans-Serif" font-size="10.00">LuigiRaceway::BeginPlay</text>
</a>
</g>
</g>
<!-- Node2&#45;&gt;Node3 -->
<g id="edge2_Node000002_Node000003" class="edge">
<title>Node2&#45;&gt;Node3</title>
<g id="a_edge2_Node000002_Node000003"><a xlink:title=" ">
<path fill="none" stroke="#63b8ff" d="M163.39,-9.5C155.01,-9.5 146.5,-9.5 138.2,-9.5"/>
<polygon fill="#63b8ff" stroke="#63b8ff" points="163.53,-13 173.53,-9.5 163.53,-6 163.53,-13"/>
</a>
</g>
</g>
</g>
</svg>
