<?xml version="1.0" encoding="UTF-8" standalone="no"?>
<!DOCTYPE svg PUBLIC "-//W3C//DTD SVG 1.1//EN"
 "http://www.w3.org/Graphics/SVG/1.1/DTD/svg11.dtd">
<!-- Generated by graphviz version 2.43.0 (0)
 -->
<!-- Title: AActor Pages: 1 -->
<svg width="468pt" height="547pt"
 viewBox="0.00 0.00 468.00 546.58" xmlns="http://www.w3.org/2000/svg" xmlns:xlink="http://www.w3.org/1999/xlink">
<g id="graph0" class="graph" transform="scale(1 1) rotate(0) translate(4 542.58)">
<title>AActor</title>
<!-- Node1 -->
<g id="Node000001" class="node">
<title>Node1</title>
<g id="a_Node000001"><a xlink:title=" ">
<polygon fill="#999999" stroke="#666666" points="460,-233.08 411,-233.08 411,-214.08 460,-214.08 460,-233.08"/>
<text text-anchor="middle" x="435.5" y="-221.08" font-family="Helvetica,sans-Serif" font-size="10.00">AActor</text>
</a>
</g>
</g>
<!-- Node2 -->
<g id="Node000002" class="node">
<title>Node2</title>
<g id="a_Node000002"><a xlink:title=" ">
<polygon fill="white" stroke="#666666" points="251,-493.08 217,-493.08 217,-474.08 251,-474.08 251,-493.08"/>
<text text-anchor="middle" x="234" y="-481.08" font-family="Helvetica,sans-Serif" font-size="10.00">s16</text>
</a>
</g>
</g>
<!-- Node2&#45;&gt;Node1 -->
<g id="edge1_Node000001_Node000002" class="edge">
<title>Node2&#45;&gt;Node1</title>
<g id="a_edge1_Node000001_Node000002"><a xlink:title=" ">
<path fill="none" stroke="#9a32cd" stroke-dasharray="5,2" d="M261.17,-485.68C296.38,-486.95 358.57,-483.45 393,-447.58 423.27,-416.06 432.2,-272.03 434.08,-233.23"/>
<polygon fill="#9a32cd" stroke="#9a32cd" points="261.33,-482.19 251.17,-485.17 260.97,-489.18 261.33,-482.19"/>
</a>
</g>
<text text-anchor="middle" x="349.5" y="-530.58" font-family="Helvetica,sans-Serif" font-size="10.00" fill="grey"> Flags</text>
<text text-anchor="middle" x="349.5" y="-519.58" font-family="Helvetica,sans-Serif" font-size="10.00" fill="grey">State</text>
<text text-anchor="middle" x="349.5" y="-508.58" font-family="Helvetica,sans-Serif" font-size="10.00" fill="grey">Type</text>
<text text-anchor="middle" x="349.5" y="-497.58" font-family="Helvetica,sans-Serif" font-size="10.00" fill="grey">Unk_04</text>
<text text-anchor="middle" x="349.5" y="-486.58" font-family="Helvetica,sans-Serif" font-size="10.00" fill="grey">Unk_16</text>
</g>
<!-- Node3 -->
<g id="Node000003" class="node">
<title>Node3</title>
<g id="a_Node000003"><a xlink:title=" ">
<polygon fill="white" stroke="#666666" points="44,-408.08 12,-408.08 12,-389.08 44,-389.08 44,-408.08"/>
<text text-anchor="middle" x="28" y="-396.08" font-family="Helvetica,sans-Serif" font-size="10.00">f32</text>
</a>
</g>
</g>
<!-- Node3&#45;&gt;Node1 -->
<g id="edge2_Node000001_Node000003" class="edge">
<title>Node3&#45;&gt;Node1</title>
<g id="a_edge2_Node000001_Node000003"><a xlink:title=" ">
<path fill="none" stroke="#9a32cd" stroke-dasharray="5,2" d="M53.23,-412.24C59.77,-415.26 66.99,-418.03 74,-419.58 158.15,-438.25 379.61,-406.33 393,-394.58 417.8,-372.82 430.29,-266.05 433.59,-233.21"/>
<polygon fill="#9a32cd" stroke="#9a32cd" points="54.74,-409.08 44.23,-407.73 51.61,-415.34 54.74,-409.08"/>
</a>
</g>
<text text-anchor="middle" x="234" y="-437.58" font-family="Helvetica,sans-Serif" font-size="10.00" fill="grey"> BoundingBoxSize</text>
<text text-anchor="middle" x="234" y="-426.58" font-family="Helvetica,sans-Serif" font-size="10.00" fill="grey">Unk_08</text>
</g>
<!-- Node6 -->
<g id="Node000006" class="node">
<title>Node6</title>
<g id="a_Node000006"><a xlink:href="structCollision.html" target="_top" xlink:title=" ">
<polygon fill="white" stroke="#666666" points="263.5,-385.08 204.5,-385.08 204.5,-366.08 263.5,-366.08 263.5,-385.08"/>
<text text-anchor="middle" x="234" y="-373.08" font-family="Helvetica,sans-Serif" font-size="10.00">Collision</text>
</a>
</g>
</g>
<!-- Node3&#45;&gt;Node6 -->
<g id="edge7_Node000006_Node000003" class="edge">
<title>Node3&#45;&gt;Node6</title>
<g id="a_edge7_Node000006_Node000003"><a xlink:title=" ">
<path fill="none" stroke="#9a32cd" stroke-dasharray="5,2" d="M45.35,-382.13C53.28,-375.3 63.39,-368.14 74,-364.58 117.68,-349.94 171.8,-359 204.3,-367.12"/>
<polygon fill="#9a32cd" stroke="#9a32cd" points="42.91,-379.62 37.93,-388.98 47.65,-384.77 42.91,-379.62"/>
</a>
</g>
<text text-anchor="middle" x="118" y="-411.58" font-family="Helvetica,sans-Serif" font-size="10.00" fill="grey"> orientationVector</text>
<text text-anchor="middle" x="118" y="-400.58" font-family="Helvetica,sans-Serif" font-size="10.00" fill="grey">surfaceDistance</text>
<text text-anchor="middle" x="118" y="-389.58" font-family="Helvetica,sans-Serif" font-size="10.00" fill="grey">unk48</text>
<text text-anchor="middle" x="118" y="-378.58" font-family="Helvetica,sans-Serif" font-size="10.00" fill="grey">unk54</text>
<text text-anchor="middle" x="118" y="-367.58" font-family="Helvetica,sans-Serif" font-size="10.00" fill="grey">unk6C</text>
</g>
<!-- Node4 -->
<g id="Node000004" class="node">
<title>Node4</title>
<g id="a_Node000004"><a xlink:title=" ">
<polygon fill="white" stroke="#666666" points="257.5,-348.08 210.5,-348.08 210.5,-329.08 257.5,-329.08 257.5,-348.08"/>
<text text-anchor="middle" x="234" y="-336.08" font-family="Helvetica,sans-Serif" font-size="10.00">s16[3]</text>
</a>
</g>
</g>
<!-- Node4&#45;&gt;Node1 -->
<g id="edge3_Node000001_Node000004" class="edge">
<title>Node4&#45;&gt;Node1</title>
<g id="a_edge3_Node000001_Node000004"><a xlink:title=" ">
<path fill="none" stroke="#9a32cd" stroke-dasharray="5,2" d="M267.67,-337.93C308.05,-336.51 373.8,-331.99 393,-317.58 420.97,-296.6 430.44,-252.65 433.34,-233.2"/>
<polygon fill="#9a32cd" stroke="#9a32cd" points="267.39,-334.44 257.5,-338.25 267.61,-341.44 267.39,-334.44"/>
</a>
</g>
<text text-anchor="middle" x="349.5" y="-338.58" font-family="Helvetica,sans-Serif" font-size="10.00" fill="grey"> Rot</text>
</g>
<!-- Node5 -->
<g id="Node000005" class="node">
<title>Node5</title>
<g id="a_Node000005"><a xlink:title=" ">
<polygon fill="white" stroke="#666666" points="257,-306.08 211,-306.08 211,-287.08 257,-287.08 257,-306.08"/>
<text text-anchor="middle" x="234" y="-294.08" font-family="Helvetica,sans-Serif" font-size="10.00">f32[3]</text>
</a>
</g>
</g>
<!-- Node5&#45;&gt;Node1 -->
<g id="edge4_Node000001_Node000005" class="edge">
<title>Node5&#45;&gt;Node1</title>
<g id="a_edge4_Node000001_Node000005"><a xlink:title=" ">
<path fill="none" stroke="#9a32cd" stroke-dasharray="5,2" d="M267.13,-294.88C306.94,-292.29 372.07,-286.38 393,-274.58 410.11,-264.95 422.96,-245.24 429.55,-233.34"/>
<polygon fill="#9a32cd" stroke="#9a32cd" points="266.88,-291.38 257.12,-295.49 267.31,-298.37 266.88,-291.38"/>
</a>
</g>
<text text-anchor="middle" x="349.5" y="-305.58" font-family="Helvetica,sans-Serif" font-size="10.00" fill="grey"> Pos</text>
<text text-anchor="middle" x="349.5" y="-294.58" font-family="Helvetica,sans-Serif" font-size="10.00" fill="grey">Velocity</text>
</g>
<!-- Node6&#45;&gt;Node1 -->
<g id="edge5_Node000001_Node000006" class="edge">
<title>Node6&#45;&gt;Node1</title>
<g id="a_edge5_Node000001_Node000006"><a xlink:title=" ">
<path fill="none" stroke="#9a32cd" stroke-dasharray="5,2" d="M274.1,-380.02C309.25,-381.78 360.25,-378.5 393,-350.58 429.01,-319.89 433.98,-257.47 434.52,-233.38"/>
<polygon fill="#9a32cd" stroke="#9a32cd" points="273.95,-376.5 263.74,-379.34 273.48,-383.49 273.95,-376.5"/>
</a>
</g>
<text text-anchor="middle" x="349.5" y="-382.58" font-family="Helvetica,sans-Serif" font-size="10.00" fill="grey"> Unk30</text>
</g>
<!-- Node7 -->
<g id="Node000007" class="node">
<title>Node7</title>
<g id="a_Node000007"><a xlink:title=" ">
<polygon fill="white" stroke="#666666" points="45.5,-284.08 10.5,-284.08 10.5,-265.08 45.5,-265.08 45.5,-284.08"/>
<text text-anchor="middle" x="28" y="-272.08" font-family="Helvetica,sans-Serif" font-size="10.00">u16</text>
</a>
</g>
</g>
<!-- Node7&#45;&gt;Node6 -->
<g id="edge6_Node000006_Node000007" class="edge">
<title>Node7&#45;&gt;Node6</title>
<g id="a_edge6_Node000006_Node000007"><a xlink:title=" ">
<path fill="none" stroke="#9a32cd" stroke-dasharray="5,2" d="M55.61,-268.78C85.18,-263.99 132.62,-261.53 162,-286.58 186.77,-307.71 157.91,-333.67 180,-357.58 186.4,-364.51 195.55,-368.77 204.46,-371.39"/>
<polygon fill="#9a32cd" stroke="#9a32cd" points="54.8,-265.37 45.59,-270.6 56.05,-272.25 54.8,-265.37"/>
</a>
</g>
<text text-anchor="middle" x="118" y="-344.58" font-family="Helvetica,sans-Serif" font-size="10.00" fill="grey"> meshIndexYX</text>
<text text-anchor="middle" x="118" y="-333.58" font-family="Helvetica,sans-Serif" font-size="10.00" fill="grey">meshIndexZX</text>
<text text-anchor="middle" x="118" y="-322.58" font-family="Helvetica,sans-Serif" font-size="10.00" fill="grey">meshIndexZY</text>
<text text-anchor="middle" x="118" y="-311.58" font-family="Helvetica,sans-Serif" font-size="10.00" fill="grey">unk30</text>
<text text-anchor="middle" x="118" y="-300.58" font-family="Helvetica,sans-Serif" font-size="10.00" fill="grey">unk32</text>
<text text-anchor="middle" x="118" y="-289.58" font-family="Helvetica,sans-Serif" font-size="10.00" fill="grey">unk34</text>
</g>
<!-- Node8 -->
<g id="Node000008" class="node">
<title>Node8</title>
<g id="a_Node000008"><a xlink:title=" ">
<polygon fill="white" stroke="#666666" points="271.5,-259.08 196.5,-259.08 196.5,-240.08 271.5,-240.08 271.5,-259.08"/>
<text text-anchor="middle" x="234" y="-247.08" font-family="Helvetica,sans-Serif" font-size="10.00">const char *</text>
</a>
</g>
</g>
<!-- Node8&#45;&gt;Node1 -->
<g id="edge8_Node000001_Node000008" class="edge">
<title>Node8&#45;&gt;Node1</title>
<g id="a_edge8_Node000001_Node000008"><a xlink:title=" ">
<path fill="none" stroke="#9a32cd" stroke-dasharray="5,2" d="M281.52,-243.52C322.07,-238.24 379.22,-230.79 410.95,-226.65"/>
<polygon fill="#9a32cd" stroke="#9a32cd" points="281.06,-240.05 271.59,-244.82 281.96,-246.99 281.06,-240.05"/>
</a>
</g>
<text text-anchor="middle" x="349.5" y="-264.58" font-family="Helvetica,sans-Serif" font-size="10.00" fill="grey"> Model</text>
<text text-anchor="middle" x="349.5" y="-253.58" font-family="Helvetica,sans-Serif" font-size="10.00" fill="grey">Name</text>
<text text-anchor="middle" x="349.5" y="-242.58" font-family="Helvetica,sans-Serif" font-size="10.00" fill="grey">ResourceName</text>
</g>
<!-- Node9 -->
<g id="Node000009" class="node">
<title>Node9</title>
<g id="a_Node000009"><a xlink:title=" ">
<polygon fill="white" stroke="#666666" points="259,-222.08 209,-222.08 209,-203.08 259,-203.08 259,-222.08"/>
<text text-anchor="middle" x="234" y="-210.08" font-family="Helvetica,sans-Serif" font-size="10.00">uint8_t</text>
</a>
</g>
</g>
<!-- Node9&#45;&gt;Node1 -->
<g id="edge9_Node000001_Node000009" class="edge">
<title>Node9&#45;&gt;Node1</title>
<g id="a_edge9_Node000001_Node000009"><a xlink:title=" ">
<path fill="none" stroke="#9a32cd" stroke-dasharray="5,2" d="M269.3,-207.3C301.52,-203.32 350.94,-199.76 393,-207.58 400.14,-208.91 407.63,-211.42 414.25,-214.07"/>
<polygon fill="#9a32cd" stroke="#9a32cd" points="268.52,-203.87 259.07,-208.65 269.44,-210.81 268.52,-203.87"/>
</a>
</g>
<text text-anchor="middle" x="349.5" y="-210.58" font-family="Helvetica,sans-Serif" font-size="10.00" fill="grey"> uuid</text>
</g>
<!-- Node10 -->
<g id="Node000010" class="node">
<title>Node10</title>
<g id="a_Node000010"><a xlink:href="structFVector.html" target="_top" xlink:title=" ">
<polygon fill="white" stroke="#666666" points="260.5,-136.08 207.5,-136.08 207.5,-117.08 260.5,-117.08 260.5,-136.08"/>
<text text-anchor="middle" x="234" y="-124.08" font-family="Helvetica,sans-Serif" font-size="10.00">FVector</text>
</a>
</g>
</g>
<!-- Node10&#45;&gt;Node1 -->
<g id="edge10_Node000001_Node000010" class="edge">
<title>Node10&#45;&gt;Node1</title>
<g id="a_edge10_Node000001_Node000010"><a xlink:title=" ">
<path fill="none" stroke="#9a32cd" stroke-dasharray="5,2" d="M270.74,-116.11C305.03,-108.32 356.79,-102.69 393,-126.58 423.27,-146.56 431.54,-193.66 433.74,-213.98"/>
<polygon fill="#9a32cd" stroke="#9a32cd" points="269.58,-112.79 260.7,-118.57 271.24,-119.59 269.58,-112.79"/>
</a>
</g>
<text text-anchor="middle" x="349.5" y="-151.58" font-family="Helvetica,sans-Serif" font-size="10.00" fill="grey"> Scale</text>
<text text-anchor="middle" x="349.5" y="-140.58" font-family="Helvetica,sans-Serif" font-size="10.00" fill="grey">SpawnPos</text>
<text text-anchor="middle" x="349.5" y="-129.58" font-family="Helvetica,sans-Serif" font-size="10.00" fill="grey">SpawnScale</text>
</g>
<!-- Node11 -->
<g id="Node000011" class="node">
<title>Node11</title>
<g id="a_Node000011"><a xlink:title=" ">
<polygon fill="white" stroke="#666666" points="47,-159.08 9,-159.08 9,-140.08 47,-140.08 47,-159.08"/>
<text text-anchor="middle" x="28" y="-147.08" font-family="Helvetica,sans-Serif" font-size="10.00">float</text>
</a>
</g>
</g>
<!-- Node11&#45;&gt;Node1 -->
<g id="edge14_Node000001_Node000011" class="edge">
<title>Node11&#45;&gt;Node1</title>
<g id="a_edge14_Node000001_Node000011"><a xlink:title=" ">
<path fill="none" stroke="#9a32cd" stroke-dasharray="5,2" d="M57.42,-156.38C62.9,-157.56 68.61,-158.69 74,-159.58 214.89,-183.07 258.44,-150.68 393,-198.58 403.3,-202.25 413.84,-208.64 421.72,-214.04"/>
<polygon fill="#9a32cd" stroke="#9a32cd" points="57.83,-152.89 47.3,-154.12 56.3,-159.72 57.83,-152.89"/>
</a>
</g>
<text text-anchor="middle" x="234" y="-175.58" font-family="Helvetica,sans-Serif" font-size="10.00" fill="grey"> Speed</text>
</g>
<!-- Node11&#45;&gt;Node10 -->
<g id="edge11_Node000010_Node000011" class="edge">
<title>Node11&#45;&gt;Node10</title>
<g id="a_edge11_Node000010_Node000011"><a xlink:title=" ">
<path fill="none" stroke="#9a32cd" stroke-dasharray="5,2" d="M52.47,-134.96C59.18,-131.53 66.66,-128.35 74,-126.58 119.89,-115.54 175.42,-119.25 207.23,-122.93"/>
<polygon fill="#9a32cd" stroke="#9a32cd" points="50.35,-132.14 43.31,-140.06 53.75,-138.26 50.35,-132.14"/>
</a>
</g>
<text text-anchor="middle" x="118" y="-151.58" font-family="Helvetica,sans-Serif" font-size="10.00" fill="grey"> x</text>
<text text-anchor="middle" x="118" y="-140.58" font-family="Helvetica,sans-Serif" font-size="10.00" fill="grey">y</text>
<text text-anchor="middle" x="118" y="-129.58" font-family="Helvetica,sans-Serif" font-size="10.00" fill="grey">z</text>
</g>
<!-- Node12 -->
<g id="Node000012" class="node">
<title>Node12</title>
<g id="a_Node000012"><a xlink:href="structIRotator.html" target="_top" xlink:title=" ">
<polygon fill="white" stroke="#666666" points="262,-99.08 206,-99.08 206,-80.08 262,-80.08 262,-99.08"/>
<text text-anchor="middle" x="234" y="-87.08" font-family="Helvetica,sans-Serif" font-size="10.00">IRotator</text>
</a>
</g>
</g>
<!-- Node12&#45;&gt;Node1 -->
<g id="edge12_Node000001_Node000012" class="edge">
<title>Node12&#45;&gt;Node1</title>
<g id="a_edge12_Node000001_Node000012"><a xlink:title=" ">
<path fill="none" stroke="#9a32cd" stroke-dasharray="5,2" d="M271.85,-79.38C306.62,-72.11 358.44,-67.66 393,-93.58 432.04,-122.87 435.12,-189.2 434.84,-214"/>
<polygon fill="#9a32cd" stroke="#9a32cd" points="271.06,-75.97 262.08,-81.59 272.61,-82.8 271.06,-75.97"/>
</a>
</g>
<text text-anchor="middle" x="349.5" y="-96.58" font-family="Helvetica,sans-Serif" font-size="10.00" fill="grey"> SpawnRot</text>
</g>
<!-- Node13 -->
<g id="Node000013" class="node">
<title>Node13</title>
<g id="a_Node000013"><a xlink:title=" ">
<polygon fill="white" stroke="#666666" points="56,-79.08 0,-79.08 0,-60.08 56,-60.08 56,-79.08"/>
<text text-anchor="middle" x="28" y="-67.08" font-family="Helvetica,sans-Serif" font-size="10.00">uint16_t</text>
</a>
</g>
</g>
<!-- Node13&#45;&gt;Node12 -->
<g id="edge13_Node000012_Node000013" class="edge">
<title>Node13&#45;&gt;Node12</title>
<g id="a_edge13_Node000012_Node000013"><a xlink:title=" ">
<path fill="none" stroke="#9a32cd" stroke-dasharray="5,2" d="M66.23,-67.35C93,-66.36 129.88,-66.24 162,-70.58 176.67,-72.57 192.62,-76.66 205.68,-80.53"/>
<polygon fill="#9a32cd" stroke="#9a32cd" points="65.98,-63.86 56.14,-67.79 66.28,-70.85 65.98,-63.86"/>
</a>
</g>
<text text-anchor="middle" x="118" y="-95.58" font-family="Helvetica,sans-Serif" font-size="10.00" fill="grey"> pitch</text>
<text text-anchor="middle" x="118" y="-84.58" font-family="Helvetica,sans-Serif" font-size="10.00" fill="grey">roll</text>
<text text-anchor="middle" x="118" y="-73.58" font-family="Helvetica,sans-Serif" font-size="10.00" fill="grey">yaw</text>
</g>
<!-- Node14 -->
<g id="Node000014" class="node">
<title>Node14</title>
<g id="a_Node000014"><a xlink:title=" ">
<polygon fill="white" stroke="#666666" points="288,-62.08 180,-62.08 180,-43.08 288,-43.08 288,-62.08"/>
<text text-anchor="middle" x="234" y="-50.08" font-family="Helvetica,sans-Serif" font-size="10.00">vector&lt; Triangle &gt;</text>
</a>
</g>
</g>
<!-- Node14&#45;&gt;Node1 -->
<g id="edge15_Node000001_Node000014" class="edge">
<title>Node14&#45;&gt;Node1</title>
<g id="a_edge15_Node000001_Node000014"><a xlink:title=" ">
<path fill="none" stroke="#9a32cd" stroke-dasharray="5,2" d="M279.5,-41.1C314.22,-34.97 361.66,-33.18 393,-58.58 417.67,-78.58 430.17,-181.37 433.55,-213.78"/>
<polygon fill="#9a32cd" stroke="#9a32cd" points="278.76,-37.68 269.62,-43.02 280.1,-44.55 278.76,-37.68"/>
</a>
</g>
<text text-anchor="middle" x="349.5" y="-61.58" font-family="Helvetica,sans-Serif" font-size="10.00" fill="grey"> Triangles</text>
</g>
<!-- Node15 -->
<g id="Node000015" class="node">
<title>Node15</title>
<g id="a_Node000015"><a xlink:title=" ">
<polygon fill="white" stroke="#666666" points="253,-25.08 215,-25.08 215,-6.08 253,-6.08 253,-25.08"/>
<text text-anchor="middle" x="234" y="-13.08" font-family="Helvetica,sans-Serif" font-size="10.00">bool</text>
</a>
</g>
</g>
<!-- Node15&#45;&gt;Node1 -->
<g id="edge16_Node000001_Node000015" class="edge">
<title>Node15&#45;&gt;Node1</title>
<g id="a_edge16_Node000001_Node000015"><a xlink:title=" ">
<path fill="none" stroke="#9a32cd" stroke-dasharray="5,2" d="M263.15,-7.48C297.96,0.66 357.01,8.08 393,-22.58 422.76,-47.95 432,-177.59 434.02,-214.04"/>
<polygon fill="#9a32cd" stroke="#9a32cd" points="262.02,-4.16 253.17,-9.99 263.72,-10.95 262.02,-4.16"/>
</a>
</g>
<text text-anchor="middle" x="349.5" y="-25.58" font-family="Helvetica,sans-Serif" font-size="10.00" fill="grey"> bPendingDestroy</text>
</g>
</g>
</svg>
