<?xml version="1.0" encoding="UTF-8" standalone="no"?>
<!DOCTYPE svg PUBLIC "-//W3C//DTD SVG 1.1//EN"
 "http://www.w3.org/Graphics/SVG/1.1/DTD/svg11.dtd">
<!-- Generated by graphviz version 2.43.0 (0)
 -->
<!-- Title: OBoos::func_8007C550 Pages: 1 -->
<svg width="438pt" height="119pt"
 viewBox="0.00 0.00 438.00 119.00" xmlns="http://www.w3.org/2000/svg" xmlns:xlink="http://www.w3.org/1999/xlink">
<g id="graph0" class="graph" transform="scale(1 1) rotate(0) translate(4 115)">
<title>OBoos::func_8007C550</title>
<!-- Node1 -->
<g id="Node000001" class="node">
<title>Node1</title>
<g id="a_Node000001"><a xlink:title=" ">
<polygon fill="#999999" stroke="#666666" points="129,-74 0,-74 0,-55 129,-55 129,-74"/>
<text text-anchor="middle" x="64.5" y="-62" font-family="Helvetica,sans-Serif" font-size="10.00">OBoos::func_8007C550</text>
</a>
</g>
</g>
<!-- Node2 -->
<g id="Node000002" class="node">
<title>Node2</title>
<g id="a_Node000002"><a xlink:href="math__util_8c.html#aaa39a297477f56051975259f4bddd829" target="_top" xlink:title=" ">
<polygon fill="white" stroke="#666666" points="255,-111 205,-111 205,-92 255,-92 255,-111"/>
<text text-anchor="middle" x="230" y="-99" font-family="Helvetica,sans-Serif" font-size="10.00">atan2s</text>
</a>
</g>
</g>
<!-- Node1&#45;&gt;Node2 -->
<g id="edge1_Node000001_Node000002" class="edge">
<title>Node1&#45;&gt;Node2</title>
<g id="a_edge1_Node000001_Node000002"><a xlink:title=" ">
<path fill="none" stroke="#63b8ff" d="M107.61,-74.03C134.72,-80.16 169.5,-88.04 194.88,-93.78"/>
<polygon fill="#63b8ff" stroke="#63b8ff" points="194.26,-97.23 204.79,-96.02 195.81,-90.4 194.26,-97.23"/>
</a>
</g>
</g>
<!-- Node4 -->
<g id="Node000004" class="node">
<title>Node4</title>
<g id="a_Node000004"><a xlink:href="math__util__2_8c.html#a0477eb3c05bafb2dd984658abd1e56e9" target="_top" xlink:title=" ">
<polygon fill="white" stroke="#666666" points="276,-74 184,-74 184,-55 276,-55 276,-74"/>
<text text-anchor="middle" x="230" y="-62" font-family="Helvetica,sans-Serif" font-size="10.00">func_800417B4</text>
</a>
</g>
</g>
<!-- Node1&#45;&gt;Node4 -->
<g id="edge3_Node000001_Node000004" class="edge">
<title>Node1&#45;&gt;Node4</title>
<g id="a_edge3_Node000001_Node000004"><a xlink:title=" ">
<path fill="none" stroke="#63b8ff" d="M129.18,-64.5C143.9,-64.5 159.44,-64.5 173.77,-64.5"/>
<polygon fill="#63b8ff" stroke="#63b8ff" points="173.95,-68 183.95,-64.5 173.95,-61 173.95,-68"/>
</a>
</g>
</g>
<!-- Node5 -->
<g id="Node000005" class="node">
<title>Node5</title>
<g id="a_Node000005"><a xlink:href="classOBoos.html#a0f55a08d009e8e79d1da684a2881c983" target="_top" xlink:title=" ">
<polygon fill="white" stroke="#666666" points="295,-37 165,-37 165,-18 295,-18 295,-37"/>
<text text-anchor="middle" x="230" y="-25" font-family="Helvetica,sans-Serif" font-size="10.00">OBoos::func_8007C4A4</text>
</a>
</g>
</g>
<!-- Node1&#45;&gt;Node5 -->
<g id="edge4_Node000001_Node000005" class="edge">
<title>Node1&#45;&gt;Node5</title>
<g id="a_edge4_Node000001_Node000005"><a xlink:title=" ">
<path fill="none" stroke="#63b8ff" d="M107.61,-54.97C128.69,-50.2 154.42,-44.38 176.76,-39.32"/>
<polygon fill="#63b8ff" stroke="#63b8ff" points="177.77,-42.68 186.75,-37.06 176.23,-35.85 177.77,-42.68"/>
</a>
</g>
</g>
<!-- Node3 -->
<g id="Node000003" class="node">
<title>Node3</title>
<g id="a_Node000003"><a xlink:href="math__util_8c.html#a0273b0ea0783a06996c28669a7438ed9" target="_top" xlink:title=" ">
<polygon fill="white" stroke="#666666" points="421.5,-111 339.5,-111 339.5,-92 421.5,-92 421.5,-111"/>
<text text-anchor="middle" x="380.5" y="-99" font-family="Helvetica,sans-Serif" font-size="10.00">atan2_lookup</text>
</a>
</g>
</g>
<!-- Node2&#45;&gt;Node3 -->
<g id="edge2_Node000002_Node000003" class="edge">
<title>Node2&#45;&gt;Node3</title>
<g id="a_edge2_Node000002_Node000003"><a xlink:title=" ">
<path fill="none" stroke="#63b8ff" d="M255.19,-101.5C275.2,-101.5 304.29,-101.5 329.29,-101.5"/>
<polygon fill="#63b8ff" stroke="#63b8ff" points="329.36,-105 339.36,-101.5 329.36,-98 329.36,-105"/>
</a>
</g>
</g>
<!-- Node6 -->
<g id="Node000006" class="node">
<title>Node6</title>
<g id="a_Node000006"><a xlink:href="update__objects_8c.html#a3953241e15c6372ac8944ba842148a9a" target="_top" xlink:title=" ">
<polygon fill="white" stroke="#666666" points="430,-56 331,-56 331,-37 430,-37 430,-56"/>
<text text-anchor="middle" x="380.5" y="-44" font-family="Helvetica,sans-Serif" font-size="10.00">clear_object_flag</text>
</a>
</g>
</g>
<!-- Node5&#45;&gt;Node6 -->
<g id="edge5_Node000005_Node000006" class="edge">
<title>Node5&#45;&gt;Node6</title>
<g id="a_edge5_Node000005_Node000006"><a xlink:title=" ">
<path fill="none" stroke="#63b8ff" d="M295.27,-35.72C303.74,-36.81 312.39,-37.91 320.76,-38.98"/>
<polygon fill="#63b8ff" stroke="#63b8ff" points="320.44,-42.47 330.8,-40.27 321.33,-35.53 320.44,-42.47"/>
</a>
</g>
</g>
<!-- Node7 -->
<g id="Node000007" class="node">
<title>Node7</title>
<g id="a_Node000007"><a xlink:href="update__objects_8c.html#afe64f2394ee0deab6370b77609500bda" target="_top" xlink:title=" ">
<polygon fill="white" stroke="#666666" points="425.5,-19 335.5,-19 335.5,0 425.5,0 425.5,-19"/>
<text text-anchor="middle" x="380.5" y="-7" font-family="Helvetica,sans-Serif" font-size="10.00">set_object_flag</text>
</a>
</g>
</g>
<!-- Node5&#45;&gt;Node7 -->
<g id="edge6_Node000005_Node000007" class="edge">
<title>Node5&#45;&gt;Node7</title>
<g id="a_edge6_Node000005_Node000007"><a xlink:title=" ">
<path fill="none" stroke="#63b8ff" d="M295.27,-19.71C305.28,-18.5 315.53,-17.25 325.28,-16.07"/>
<polygon fill="#63b8ff" stroke="#63b8ff" points="325.73,-19.54 335.24,-14.87 324.89,-12.59 325.73,-19.54"/>
</a>
</g>
</g>
</g>
</svg>
