<?xml version="1.0" encoding="UTF-8" standalone="no"?>
<!DOCTYPE svg PUBLIC "-//W3C//DTD SVG 1.1//EN"
 "http://www.w3.org/Graphics/SVG/1.1/DTD/svg11.dtd">
<!-- Generated by graphviz version 2.43.0 (0)
 -->
<!-- Title: Ship::Menu::UpdateWindowBackendObjects Pages: 1 -->
<svg width="1126pt" height="103pt"
 viewBox="0.00 0.00 1126.00 103.00" xmlns="http://www.w3.org/2000/svg" xmlns:xlink="http://www.w3.org/1999/xlink">
<g id="graph0" class="graph" transform="scale(1 1) rotate(0) translate(4 99)">
<title>Ship::Menu::UpdateWindowBackendObjects</title>
<!-- Node1 -->
<g id="Node000001" class="node">
<title>Node1</title>
<g id="a_Node000001"><a xlink:title=" ">
<polygon fill="#999999" stroke="#666666" points="1118,-61.5 967,-61.5 967,-31.5 1118,-31.5 1118,-61.5"/>
<text text-anchor="start" x="975" y="-49.5" font-family="Helvetica,sans-Serif" font-size="10.00">Ship::Menu::UpdateWindow</text>
<text text-anchor="middle" x="1042.5" y="-38.5" font-family="Helvetica,sans-Serif" font-size="10.00">BackendObjects</text>
</a>
</g>
</g>
<!-- Node2 -->
<g id="Node000002" class="node">
<title>Node2</title>
<g id="a_Node000002"><a xlink:href="classShip_1_1Menu.html#a953d120de56dfabc594b699e2ff68b23" target="_top" xlink:title=" ">
<polygon fill="white" stroke="#666666" points="921.5,-85 788.5,-85 788.5,-66 921.5,-66 921.5,-85"/>
<text text-anchor="middle" x="855" y="-73" font-family="Helvetica,sans-Serif" font-size="10.00">Ship::Menu::InitElement</text>
</a>
</g>
</g>
<!-- Node1&#45;&gt;Node2 -->
<g id="edge1_Node000001_Node000002" class="edge">
<title>Node1&#45;&gt;Node2</title>
<g id="a_edge1_Node000001_Node000002"><a xlink:title=" ">
<path fill="none" stroke="#63b8ff" d="M956.65,-59.77C943.22,-61.86 929.58,-64 916.84,-65.99"/>
<polygon fill="#63b8ff" stroke="#63b8ff" points="957.51,-63.17 966.85,-58.17 956.43,-56.26 957.51,-63.17"/>
</a>
</g>
</g>
<!-- Node4 -->
<g id="Node000004" class="node">
<title>Node4</title>
<g id="a_Node000004"><a xlink:href="classShip_1_1Menu.html#a260af6187999b8381769c55c122dc2ee" target="_top" xlink:title=" ">
<polygon fill="white" stroke="#666666" points="931,-38 779,-38 779,-19 931,-19 931,-38"/>
<text text-anchor="middle" x="855" y="-26" font-family="Helvetica,sans-Serif" font-size="10.00">Ship::Menu::MenuDrawItem</text>
</a>
</g>
</g>
<!-- Node1&#45;&gt;Node4 -->
<g id="edge3_Node000001_Node000004" class="edge">
<title>Node1&#45;&gt;Node4</title>
<g id="a_edge3_Node000001_Node000004"><a xlink:title=" ">
<path fill="none" stroke="#63b8ff" d="M956.84,-38.28C948.25,-37.45 939.57,-36.61 931.1,-35.79"/>
<polygon fill="#63b8ff" stroke="#63b8ff" points="956.56,-41.77 966.85,-39.26 957.24,-34.81 956.56,-41.77"/>
</a>
</g>
</g>
<!-- Node3 -->
<g id="Node000003" class="node">
<title>Node3</title>
<g id="a_Node000003"><a xlink:href="classGameUI_1_1PortMenu.html#a6107d5040943b730f00a96293d335e23" target="_top" xlink:title=" ">
<polygon fill="white" stroke="#666666" points="743,-95 572,-95 572,-76 743,-76 743,-95"/>
<text text-anchor="middle" x="657.5" y="-83" font-family="Helvetica,sans-Serif" font-size="10.00">GameUI::PortMenu::InitElement</text>
</a>
</g>
</g>
<!-- Node2&#45;&gt;Node3 -->
<g id="edge2_Node000002_Node000003" class="edge">
<title>Node2&#45;&gt;Node3</title>
<g id="a_edge2_Node000002_Node000003"><a xlink:title=" ">
<path fill="none" stroke="#63b8ff" d="M778.33,-79.37C766.78,-79.96 754.79,-80.57 743.06,-81.17"/>
<polygon fill="#63b8ff" stroke="#63b8ff" points="778.55,-82.86 788.36,-78.86 778.19,-75.87 778.55,-82.86"/>
</a>
</g>
</g>
<!-- Node5 -->
<g id="Node000005" class="node">
<title>Node5</title>
<g id="a_Node000005"><a xlink:href="classShip_1_1Menu.html#ae85312deebd68ce051243164a1831fae" target="_top" xlink:title=" ">
<polygon fill="white" stroke="#666666" points="536,-38 393,-38 393,-19 536,-19 536,-38"/>
<text text-anchor="middle" x="464.5" y="-26" font-family="Helvetica,sans-Serif" font-size="10.00">Ship::Menu::DrawElement</text>
</a>
</g>
</g>
<!-- Node4&#45;&gt;Node5 -->
<g id="edge4_Node000004_Node000005" class="edge">
<title>Node4&#45;&gt;Node5</title>
<g id="a_edge4_Node000004_Node000005"><a xlink:title=" ">
<path fill="none" stroke="#63b8ff" d="M768.55,-28.5C698.81,-28.5 601.45,-28.5 536.08,-28.5"/>
<polygon fill="#63b8ff" stroke="#63b8ff" points="768.63,-32 778.63,-28.5 768.63,-25 768.63,-32"/>
</a>
</g>
</g>
<!-- Node9 -->
<g id="Node000009" class="node">
<title>Node9</title>
<g id="a_Node000009"><a xlink:href="classShip_1_1Menu.html#a93c1cecb59051f4d9b31f1cab0b577f4" target="_top" xlink:title=" ">
<polygon fill="white" stroke="#666666" points="743,-19 572,-19 572,0 743,0 743,-19"/>
<text text-anchor="middle" x="657.5" y="-7" font-family="Helvetica,sans-Serif" font-size="10.00">Ship::Menu::DrawSearchResults</text>
</a>
</g>
</g>
<!-- Node4&#45;&gt;Node9 -->
<g id="edge8_Node000004_Node000009" class="edge">
<title>Node4&#45;&gt;Node9</title>
<g id="a_edge8_Node000004_Node000009"><a xlink:title=" ">
<path fill="none" stroke="#63b8ff" d="M803.34,-17.58C785.01,-15.16 763.76,-12.87 743.29,-11.04"/>
<polygon fill="#63b8ff" stroke="#63b8ff" points="803.11,-21.08 813.49,-18.97 804.06,-14.14 803.11,-21.08"/>
</a>
</g>
</g>
<!-- Node6 -->
<g id="Node000006" class="node">
<title>Node6</title>
<g id="a_Node000006"><a xlink:href="classShip_1_1Menu.html#aa7024f02fd268f45cf75fd69833c4d1c" target="_top" xlink:title=" ">
<polygon fill="white" stroke="#666666" points="317.5,-57 215.5,-57 215.5,-38 317.5,-38 317.5,-57"/>
<text text-anchor="middle" x="266.5" y="-45" font-family="Helvetica,sans-Serif" font-size="10.00">Ship::Menu::Draw</text>
</a>
</g>
</g>
<!-- Node5&#45;&gt;Node6 -->
<g id="edge5_Node000005_Node000006" class="edge">
<title>Node5&#45;&gt;Node6</title>
<g id="a_edge5_Node000005_Node000006"><a xlink:title=" ">
<path fill="none" stroke="#63b8ff" d="M382.7,-36.33C360.64,-38.47 337.38,-40.73 317.58,-42.65"/>
<polygon fill="#63b8ff" stroke="#63b8ff" points="383.12,-39.81 392.74,-35.36 382.45,-32.84 383.12,-39.81"/>
</a>
</g>
</g>
<!-- Node8 -->
<g id="Node000008" class="node">
<title>Node8</title>
<g id="a_Node000008"><a xlink:href="classGameUI_1_1PortMenu.html#a99e204a4bf92bc4e563547d8d5f2013a" target="_top" xlink:title=" ">
<polygon fill="white" stroke="#666666" points="357,-20 176,-20 176,-1 357,-1 357,-20"/>
<text text-anchor="middle" x="266.5" y="-8" font-family="Helvetica,sans-Serif" font-size="10.00">GameUI::PortMenu::DrawElement</text>
</a>
</g>
</g>
<!-- Node5&#45;&gt;Node8 -->
<g id="edge7_Node000005_Node000008" class="edge">
<title>Node5&#45;&gt;Node8</title>
<g id="a_edge7_Node000005_Node000008"><a xlink:title=" ">
<path fill="none" stroke="#63b8ff" d="M382.64,-21.07C374.27,-20.31 365.73,-19.52 357.27,-18.74"/>
<polygon fill="#63b8ff" stroke="#63b8ff" points="382.46,-24.57 392.74,-22 383.1,-17.6 382.46,-24.57"/>
</a>
</g>
</g>
<!-- Node7 -->
<g id="Node000007" class="node">
<title>Node7</title>
<g id="a_Node000007"><a xlink:href="classGameUI_1_1PortMenu.html#ad7cfc1475c5fb97f67e5007b82cc8d2e" target="_top" xlink:title=" ">
<polygon fill="white" stroke="#666666" points="140,-57 0,-57 0,-38 140,-38 140,-57"/>
<text text-anchor="middle" x="70" y="-45" font-family="Helvetica,sans-Serif" font-size="10.00">GameUI::PortMenu::Draw</text>
</a>
</g>
</g>
<!-- Node6&#45;&gt;Node7 -->
<g id="edge6_Node000006_Node000007" class="edge">
<title>Node6&#45;&gt;Node7</title>
<g id="a_edge6_Node000006_Node000007"><a xlink:title=" ">
<path fill="none" stroke="#63b8ff" d="M205.24,-47.5C184.69,-47.5 161.55,-47.5 140.34,-47.5"/>
<polygon fill="#63b8ff" stroke="#63b8ff" points="205.41,-51 215.41,-47.5 205.41,-44 205.41,-51"/>
</a>
</g>
</g>
<!-- Node9&#45;&gt;Node4 -->
<g id="edge10_Node000009_Node000004" class="edge">
<title>Node9&#45;&gt;Node4</title>
<g id="a_edge10_Node000009_Node000004"><a xlink:title=" ">
<path fill="none" stroke="#63b8ff" d="M709,-20.4C730.31,-23.21 755.56,-25.86 778.97,-27.79"/>
<polygon fill="#63b8ff" stroke="#63b8ff" points="709.27,-16.91 698.88,-19.01 708.31,-23.84 709.27,-16.91"/>
</a>
</g>
</g>
<!-- Node9&#45;&gt;Node5 -->
<g id="edge9_Node000009_Node000005" class="edge">
<title>Node9&#45;&gt;Node5</title>
<g id="a_edge9_Node000009_Node000005"><a xlink:title=" ">
<path fill="none" stroke="#63b8ff" d="M561.75,-18.93C553.09,-19.79 544.43,-20.65 536.04,-21.48"/>
<polygon fill="#63b8ff" stroke="#63b8ff" points="562.29,-22.39 571.89,-17.92 561.59,-15.42 562.29,-22.39"/>
</a>
</g>
</g>
</g>
</svg>
