<?xml version="1.0" encoding="UTF-8" standalone="no"?>
<!DOCTYPE svg PUBLIC "-//W3C//DTD SVG 1.1//EN"
 "http://www.w3.org/Graphics/SVG/1.1/DTD/svg11.dtd">
<!-- Generated by graphviz version 2.43.0 (0)
 -->
<!-- Title: LuigiRaceway::Load Pages: 1 -->
<svg width="1078pt" height="356pt"
 viewBox="0.00 0.00 1078.00 355.50" xmlns="http://www.w3.org/2000/svg" xmlns:xlink="http://www.w3.org/1999/xlink">
<g id="graph0" class="graph" transform="scale(1 1) rotate(0) translate(4 351.5)">
<title>LuigiRaceway::Load</title>
<!-- Node1 -->
<g id="Node000001" class="node">
<title>Node1</title>
<g id="a_Node000001"><a xlink:title=" ">
<polygon fill="#999999" stroke="#666666" points="113,-241 0,-241 0,-222 113,-222 113,-241"/>
<text text-anchor="middle" x="56.5" y="-229" font-family="Helvetica,sans-Serif" font-size="10.00">LuigiRaceway::Load</text>
</a>
</g>
</g>
<!-- Node2 -->
<g id="Node000002" class="node">
<title>Node2</title>
<g id="a_Node000002"><a xlink:href="render__courses_8c.html#ab02cdf6684f984a12e7388fe973bc89a" target="_top" xlink:title=" ">
<polygon fill="white" stroke="#666666" points="277.5,-287 185.5,-287 185.5,-268 277.5,-268 277.5,-287"/>
<text text-anchor="middle" x="231.5" y="-275" font-family="Helvetica,sans-Serif" font-size="10.00">func_80295C6C</text>
</a>
</g>
</g>
<!-- Node1&#45;&gt;Node2 -->
<g id="edge1_Node000001_Node000002" class="edge">
<title>Node1&#45;&gt;Node2</title>
<g id="a_edge1_Node000001_Node000002"><a xlink:title=" ">
<path fill="none" stroke="#63b8ff" d="M93.35,-241.03C119.91,-248.09 156.3,-257.77 184.93,-265.38"/>
<polygon fill="#63b8ff" stroke="#63b8ff" points="184.14,-268.79 194.7,-267.98 185.94,-262.03 184.14,-268.79"/>
</a>
</g>
</g>
<!-- Node7 -->
<g id="Node000007" class="node">
<title>Node7</title>
<g id="a_Node000007"><a xlink:href="Track_8cpp.html#a0406803b8f06bfcaf7e1bd3ad2ab2e12" target="_top" xlink:title=" ">
<polygon fill="white" stroke="#666666" points="314,-241 149,-241 149,-222 314,-222 314,-241"/>
<text text-anchor="middle" x="231.5" y="-229" font-family="Helvetica,sans-Serif" font-size="10.00">InvertTriangleWindingByName</text>
</a>
</g>
</g>
<!-- Node1&#45;&gt;Node7 -->
<g id="edge6_Node000001_Node000007" class="edge">
<title>Node1&#45;&gt;Node7</title>
<g id="a_edge6_Node000001_Node000007"><a xlink:title=" ">
<path fill="none" stroke="#63b8ff" d="M113.19,-231.5C121.36,-231.5 129.94,-231.5 138.6,-231.5"/>
<polygon fill="#63b8ff" stroke="#63b8ff" points="138.78,-235 148.78,-231.5 138.78,-228 138.78,-235"/>
</a>
</g>
</g>
<!-- Node13 -->
<g id="Node000013" class="node">
<title>Node13</title>
<g id="a_Node000013"><a xlink:href="render__courses_8c.html#ac97a07076b3e301db5da93c0fe8f0500" target="_top" xlink:title=" ">
<polygon fill="white" stroke="#666666" points="298.5,-167 164.5,-167 164.5,-148 298.5,-148 298.5,-167"/>
<text text-anchor="middle" x="231.5" y="-155" font-family="Helvetica,sans-Serif" font-size="10.00">parse_track_displaylists</text>
</a>
</g>
</g>
<!-- Node1&#45;&gt;Node13 -->
<g id="edge13_Node000001_Node000013" class="edge">
<title>Node1&#45;&gt;Node13</title>
<g id="a_edge13_Node000001_Node000013"><a xlink:title=" ">
<path fill="none" stroke="#63b8ff" d="M79.76,-221.98C109.91,-209.08 163.92,-185.98 198.44,-171.21"/>
<polygon fill="#63b8ff" stroke="#63b8ff" points="200.23,-174.25 208.05,-167.1 197.48,-167.82 200.23,-174.25"/>
</a>
</g>
</g>
<!-- Node3 -->
<g id="Node000003" class="node">
<title>Node3</title>
<g id="a_Node000003"><a xlink:href="collision_8c.html#aa1116ededb9ebc0ee976259f02fe2a4e" target="_top" xlink:title=" ">
<polygon fill="white" stroke="#666666" points="495.5,-308 365.5,-308 365.5,-289 495.5,-289 495.5,-308"/>
<text text-anchor="middle" x="430.5" y="-296" font-family="Helvetica,sans-Serif" font-size="10.00">generate_collision_grid</text>
</a>
</g>
</g>
<!-- Node2&#45;&gt;Node3 -->
<g id="edge2_Node000002_Node000003" class="edge">
<title>Node2&#45;&gt;Node3</title>
<g id="a_edge2_Node000002_Node000003"><a xlink:title=" ">
<path fill="none" stroke="#63b8ff" d="M277.7,-282.32C300.66,-284.77 329.16,-287.8 355.24,-290.58"/>
<polygon fill="#63b8ff" stroke="#63b8ff" points="355.16,-294.1 365.48,-291.68 355.9,-287.13 355.16,-294.1"/>
</a>
</g>
</g>
<!-- Node4 -->
<g id="Node000004" class="node">
<title>Node4</title>
<g id="a_Node000004"><a xlink:href="collision_8c.html#a4e4ec74302aec60828a8d271390f7631" target="_top" xlink:title=" ">
<polygon fill="white" stroke="#666666" points="687,-326.5 556,-326.5 556,-296.5 687,-296.5 687,-326.5"/>
<text text-anchor="start" x="564" y="-314.5" font-family="Helvetica,sans-Serif" font-size="10.00">is_triangle_intersecting</text>
<text text-anchor="middle" x="621.5" y="-303.5" font-family="Helvetica,sans-Serif" font-size="10.00">_bounding_box</text>
</a>
</g>
</g>
<!-- Node3&#45;&gt;Node4 -->
<g id="edge3_Node000003_Node000004" class="edge">
<title>Node3&#45;&gt;Node4</title>
<g id="a_edge3_Node000003_Node000004"><a xlink:title=" ">
<path fill="none" stroke="#63b8ff" d="M495.75,-302.92C511.79,-304.02 529.13,-305.22 545.64,-306.35"/>
<polygon fill="#63b8ff" stroke="#63b8ff" points="545.57,-309.85 555.78,-307.05 546.05,-302.87 545.57,-309.85"/>
</a>
</g>
</g>
<!-- Node5 -->
<g id="Node000005" class="node">
<title>Node5</title>
<g id="a_Node000005"><a xlink:href="collision_8c.html#a7ef4f800cb44ad39ca233d0c76ce039a" target="_top" xlink:title=" ">
<polygon fill="white" stroke="#666666" points="853.5,-347.5 742.5,-347.5 742.5,-317.5 853.5,-317.5 853.5,-347.5"/>
<text text-anchor="start" x="750.5" y="-335.5" font-family="Helvetica,sans-Serif" font-size="10.00">is_line_intersecting</text>
<text text-anchor="middle" x="798" y="-324.5" font-family="Helvetica,sans-Serif" font-size="10.00">_rectangle</text>
</a>
</g>
</g>
<!-- Node4&#45;&gt;Node5 -->
<g id="edge4_Node000004_Node000005" class="edge">
<title>Node4&#45;&gt;Node5</title>
<g id="a_edge4_Node000004_Node000005"><a xlink:title=" ">
<path fill="none" stroke="#63b8ff" d="M687.48,-319.32C702.12,-321.08 717.66,-322.95 732.3,-324.71"/>
<polygon fill="#63b8ff" stroke="#63b8ff" points="731.91,-328.19 742.26,-325.91 732.75,-321.24 731.91,-328.19"/>
</a>
</g>
</g>
<!-- Node6 -->
<g id="Node000006" class="node">
<title>Node6</title>
<g id="a_Node000006"><a xlink:href="collision_8c.html#a7edd3f38403de0388af87355d4daf611" target="_top" xlink:title=" ">
<polygon fill="white" stroke="#666666" points="864,-299 732,-299 732,-280 864,-280 864,-299"/>
<text text-anchor="middle" x="798" y="-287" font-family="Helvetica,sans-Serif" font-size="10.00">is_point_inside_triangle</text>
</a>
</g>
</g>
<!-- Node4&#45;&gt;Node6 -->
<g id="edge5_Node000004_Node000006" class="edge">
<title>Node4&#45;&gt;Node6</title>
<g id="a_edge5_Node000004_Node000006"><a xlink:title=" ">
<path fill="none" stroke="#63b8ff" d="M687.48,-303.31C698.72,-301.89 710.49,-300.41 721.97,-298.96"/>
<polygon fill="#63b8ff" stroke="#63b8ff" points="722.48,-302.42 731.97,-297.7 721.61,-295.48 722.48,-302.42"/>
</a>
</g>
</g>
<!-- Node8 -->
<g id="Node000008" class="node">
<title>Node8</title>
<g id="a_Node000008"><a xlink:href="Track_8cpp.html#ad29b2b4706dd79c5d6239851b61530d4" target="_top" xlink:title=" ">
<polygon fill="white" stroke="#666666" points="511,-241 350,-241 350,-222 511,-222 511,-241"/>
<text text-anchor="middle" x="430.5" y="-229" font-family="Helvetica,sans-Serif" font-size="10.00">InvertTriangleWindingInternal</text>
</a>
</g>
</g>
<!-- Node7&#45;&gt;Node8 -->
<g id="edge7_Node000007_Node000008" class="edge">
<title>Node7&#45;&gt;Node8</title>
<g id="a_edge7_Node000007_Node000008"><a xlink:title=" ">
<path fill="none" stroke="#63b8ff" d="M314.05,-231.5C322.57,-231.5 331.27,-231.5 339.87,-231.5"/>
<polygon fill="#63b8ff" stroke="#63b8ff" points="339.91,-235 349.91,-231.5 339.91,-228 339.91,-235"/>
</a>
</g>
</g>
<!-- Node8&#45;&gt;Node8 -->
<g id="edge10_Node000008_Node000008" class="edge">
<title>Node8&#45;&gt;Node8</title>
<g id="a_edge10_Node000008_Node000008"><a xlink:title=" ">
<path fill="none" stroke="#63b8ff" d="M401.22,-241.08C386.97,-249.73 396.73,-259 430.5,-259 453.72,-259 465.59,-254.62 466.11,-249.07"/>
<polygon fill="#63b8ff" stroke="#63b8ff" points="468.73,-246.75 459.78,-241.08 463.25,-251.1 468.73,-246.75"/>
</a>
</g>
</g>
<!-- Node9 -->
<g id="Node000009" class="node">
<title>Node9</title>
<g id="a_Node000009"><a xlink:href="Engine_8cpp.html#a223c8bc63f228dc11177515e38eff2db" target="_top" xlink:title=" ">
<polygon fill="white" stroke="#666666" points="696,-204 547,-204 547,-185 696,-185 696,-204"/>
<text text-anchor="middle" x="621.5" y="-192" font-family="Helvetica,sans-Serif" font-size="10.00">GameEngine_OTRSigCheck</text>
</a>
</g>
</g>
<!-- Node8&#45;&gt;Node9 -->
<g id="edge8_Node000008_Node000009" class="edge">
<title>Node8&#45;&gt;Node9</title>
<g id="a_edge8_Node000008_Node000009"><a xlink:title=" ">
<path fill="none" stroke="#63b8ff" d="M480.17,-221.97C505.1,-217.09 535.63,-211.11 561.85,-205.98"/>
<polygon fill="#63b8ff" stroke="#63b8ff" points="562.52,-209.42 571.66,-204.06 561.18,-202.55 562.52,-209.42"/>
</a>
</g>
</g>
<!-- Node11 -->
<g id="Node000011" class="node">
<title>Node11</title>
<g id="a_Node000011"><a xlink:href="Track_8cpp.html#ab01e041d195d4b8a1029c8b9532b0600" target="_top" xlink:title=" ">
<polygon fill="white" stroke="#666666" points="662.5,-278 580.5,-278 580.5,-259 662.5,-259 662.5,-278"/>
<text text-anchor="middle" x="621.5" y="-266" font-family="Helvetica,sans-Serif" font-size="10.00">StripOtrPrefix</text>
</a>
</g>
</g>
<!-- Node8&#45;&gt;Node11 -->
<g id="edge11_Node000008_Node000011" class="edge">
<title>Node8&#45;&gt;Node11</title>
<g id="a_edge11_Node000008_Node000011"><a xlink:title=" ">
<path fill="none" stroke="#63b8ff" d="M480.17,-241.03C507.84,-246.44 542.42,-253.21 570.33,-258.68"/>
<polygon fill="#63b8ff" stroke="#63b8ff" points="569.79,-262.14 580.28,-260.63 571.14,-255.27 569.79,-262.14"/>
</a>
</g>
</g>
<!-- Node12 -->
<g id="Node000012" class="node">
<title>Node12</title>
<g id="a_Node000012"><a xlink:href="Track_8cpp.html#a5bae290668f6b484d13626d67e16cc3f" target="_top" xlink:title=" ">
<polygon fill="white" stroke="#666666" points="681.5,-241 561.5,-241 561.5,-222 681.5,-222 681.5,-241"/>
<text text-anchor="middle" x="621.5" y="-229" font-family="Helvetica,sans-Serif" font-size="10.00">SwapTriangleVertices</text>
</a>
</g>
</g>
<!-- Node8&#45;&gt;Node12 -->
<g id="edge12_Node000008_Node000012" class="edge">
<title>Node8&#45;&gt;Node12</title>
<g id="a_edge12_Node000008_Node000012"><a xlink:title=" ">
<path fill="none" stroke="#63b8ff" d="M511.11,-231.5C524.4,-231.5 538.1,-231.5 551.11,-231.5"/>
<polygon fill="#63b8ff" stroke="#63b8ff" points="551.38,-235 561.38,-231.5 551.38,-228 551.38,-235"/>
</a>
</g>
</g>
<!-- Node10 -->
<g id="Node000010" class="node">
<title>Node10</title>
<g id="a_Node000010"><a xlink:href="string_8c.html#a008e171a518fe0e0352f31b245e03875" target="_top" xlink:title=" ">
<polygon fill="white" stroke="#666666" points="820,-185 776,-185 776,-166 820,-166 820,-185"/>
<text text-anchor="middle" x="798" y="-173" font-family="Helvetica,sans-Serif" font-size="10.00">strlen</text>
</a>
</g>
</g>
<!-- Node9&#45;&gt;Node10 -->
<g id="edge9_Node000009_Node000010" class="edge">
<title>Node9&#45;&gt;Node10</title>
<g id="a_edge9_Node000009_Node000010"><a xlink:title=" ">
<path fill="none" stroke="#63b8ff" d="M696.25,-186.47C720.58,-183.82 746.35,-181.02 765.73,-178.9"/>
<polygon fill="#63b8ff" stroke="#63b8ff" points="766.23,-182.37 775.79,-177.81 765.47,-175.41 766.23,-182.37"/>
</a>
</g>
</g>
<!-- Node14 -->
<g id="Node000014" class="node">
<title>Node14</title>
<g id="a_Node000014"><a xlink:href="collision_8c.html#a3081198f925be148fc9f05897a3bddd3" target="_top" xlink:title=" ">
<polygon fill="white" stroke="#666666" points="499.5,-130 361.5,-130 361.5,-111 499.5,-111 499.5,-130"/>
<text text-anchor="middle" x="430.5" y="-118" font-family="Helvetica,sans-Serif" font-size="10.00">generate_collision_mesh</text>
</a>
</g>
</g>
<!-- Node13&#45;&gt;Node14 -->
<g id="edge14_Node000013_Node000014" class="edge">
<title>Node13&#45;&gt;Node14</title>
<g id="a_edge14_Node000013_Node000014"><a xlink:title=" ">
<path fill="none" stroke="#63b8ff" d="M283.23,-147.97C309.33,-143.07 341.32,-137.06 368.73,-131.91"/>
<polygon fill="#63b8ff" stroke="#63b8ff" points="369.42,-135.35 378.6,-130.06 368.12,-128.47 369.42,-135.35"/>
</a>
</g>
</g>
<!-- Node14&#45;&gt;Node9 -->
<g id="edge15_Node000014_Node000009" class="edge">
<title>Node14&#45;&gt;Node9</title>
<g id="a_edge15_Node000014_Node000009"><a xlink:title=" ">
<path fill="none" stroke="#63b8ff" d="M448.23,-130.01C470.27,-142.21 510.52,-163.36 547,-176.5 552.84,-178.6 559.03,-180.54 565.24,-182.31"/>
<polygon fill="#63b8ff" stroke="#63b8ff" points="564.4,-185.71 574.96,-184.94 566.22,-178.95 564.4,-185.71"/>
</a>
</g>
</g>
<!-- Node14&#45;&gt;Node14 -->
<g id="edge16_Node000014_Node000014" class="edge">
<title>Node14&#45;&gt;Node14</title>
<g id="a_edge16_Node000014_Node000014"><a xlink:title=" ">
<path fill="none" stroke="#63b8ff" d="M401.22,-130.08C386.97,-138.73 396.73,-148 430.5,-148 453.72,-148 465.59,-143.62 466.11,-138.07"/>
<polygon fill="#63b8ff" stroke="#63b8ff" points="468.73,-135.75 459.78,-130.08 463.25,-140.1 468.73,-135.75"/>
</a>
</g>
</g>
<!-- Node15 -->
<g id="Node000015" class="node">
<title>Node15</title>
<g id="a_Node000015"><a xlink:href="collision_8c.html#a2419eefe1cdba5b280babacc4a15fc6c" target="_top" xlink:title=" ">
<polygon fill="white" stroke="#666666" points="657,-167 586,-167 586,-148 657,-148 657,-167"/>
<text text-anchor="middle" x="621.5" y="-155" font-family="Helvetica,sans-Serif" font-size="10.00">is_cull_box</text>
</a>
</g>
</g>
<!-- Node14&#45;&gt;Node15 -->
<g id="edge17_Node000014_Node000015" class="edge">
<title>Node14&#45;&gt;Node15</title>
<g id="a_edge17_Node000014_Node000015"><a xlink:title=" ">
<path fill="none" stroke="#63b8ff" d="M480.17,-130.03C509.59,-135.79 546.83,-143.08 575.55,-148.7"/>
<polygon fill="#63b8ff" stroke="#63b8ff" points="575.23,-152.2 585.71,-150.69 576.57,-145.33 575.23,-152.2"/>
</a>
</g>
</g>
<!-- Node16 -->
<g id="Node000016" class="node">
<title>Node16</title>
<g id="a_Node000016"><a xlink:href="collision_8c.html#a30eb531df39ba558cd733e1d1cd6aaa0" target="_top" xlink:title=" ">
<polygon fill="white" stroke="#666666" points="664.5,-130 578.5,-130 578.5,-111 664.5,-111 664.5,-130"/>
<text text-anchor="middle" x="621.5" y="-118" font-family="Helvetica,sans-Serif" font-size="10.00">set_vtx_buffer</text>
</a>
</g>
</g>
<!-- Node14&#45;&gt;Node16 -->
<g id="edge19_Node000014_Node000016" class="edge">
<title>Node14&#45;&gt;Node16</title>
<g id="a_edge19_Node000014_Node000016"><a xlink:title=" ">
<path fill="none" stroke="#63b8ff" d="M499.73,-120.5C522.36,-120.5 547.17,-120.5 568.38,-120.5"/>
<polygon fill="#63b8ff" stroke="#63b8ff" points="568.48,-124 578.48,-120.5 568.48,-117 568.48,-124"/>
</a>
</g>
</g>
<!-- Node17 -->
<g id="Node000017" class="node">
<title>Node17</title>
<g id="a_Node000017"><a xlink:href="collision_8c.html#a593833ca3f04f0c7d8f5dcabe6430115" target="_top" xlink:title=" ">
<polygon fill="white" stroke="#666666" points="692,-93 551,-93 551,-74 692,-74 692,-93"/>
<text text-anchor="middle" x="621.5" y="-81" font-family="Helvetica,sans-Serif" font-size="10.00">set_vtx_from_quadrangle</text>
</a>
</g>
</g>
<!-- Node14&#45;&gt;Node17 -->
<g id="edge20_Node000014_Node000017" class="edge">
<title>Node14&#45;&gt;Node17</title>
<g id="a_edge20_Node000014_Node000017"><a xlink:title=" ">
<path fill="none" stroke="#63b8ff" d="M480.17,-110.97C505.1,-106.09 535.63,-100.11 561.85,-94.98"/>
<polygon fill="#63b8ff" stroke="#63b8ff" points="562.52,-98.42 571.66,-93.06 561.18,-91.55 562.52,-98.42"/>
</a>
</g>
</g>
<!-- Node21 -->
<g id="Node000021" class="node">
<title>Node21</title>
<g id="a_Node000021"><a xlink:href="collision_8c.html#ac558a6e1314f154bbf53aaf15396ea1e" target="_top" xlink:title=" ">
<polygon fill="white" stroke="#666666" points="673,-56 570,-56 570,-37 673,-37 673,-56"/>
<text text-anchor="middle" x="621.5" y="-44" font-family="Helvetica,sans-Serif" font-size="10.00">set_vtx_from_tri2</text>
</a>
</g>
</g>
<!-- Node14&#45;&gt;Node21 -->
<g id="edge24_Node000014_Node000021" class="edge">
<title>Node14&#45;&gt;Node21</title>
<g id="a_edge24_Node000014_Node000021"><a xlink:title=" ">
<path fill="none" stroke="#63b8ff" d="M448.23,-110.99C470.27,-98.79 510.52,-77.64 547,-64.5 552.84,-62.4 559.03,-60.46 565.24,-58.69"/>
<polygon fill="#63b8ff" stroke="#63b8ff" points="566.22,-62.05 574.96,-56.06 564.4,-55.29 566.22,-62.05"/>
</a>
</g>
</g>
<!-- Node22 -->
<g id="Node000022" class="node">
<title>Node22</title>
<g id="a_Node000022"><a xlink:href="collision_8c.html#a335dc7fed8a2540ca0a5b0a466545845" target="_top" xlink:title=" ">
<polygon fill="white" stroke="#666666" points="683.5,-19 559.5,-19 559.5,0 683.5,0 683.5,-19"/>
<text text-anchor="middle" x="621.5" y="-7" font-family="Helvetica,sans-Serif" font-size="10.00">set_vtx_from_triangle</text>
</a>
</g>
</g>
<!-- Node14&#45;&gt;Node22 -->
<g id="edge26_Node000014_Node000022" class="edge">
<title>Node14&#45;&gt;Node22</title>
<g id="a_edge26_Node000014_Node000022"><a xlink:title=" ">
<path fill="none" stroke="#63b8ff" d="M440.38,-110.96C458.54,-92.06 502,-49.74 547,-27.5 550.84,-25.6 554.9,-23.89 559.05,-22.36"/>
<polygon fill="#63b8ff" stroke="#63b8ff" points="560.49,-25.57 568.87,-19.09 558.27,-18.93 560.49,-25.57"/>
</a>
</g>
</g>
<!-- Node15&#45;&gt;Node10 -->
<g id="edge18_Node000015_Node000010" class="edge">
<title>Node15&#45;&gt;Node10</title>
<g id="a_edge18_Node000015_Node000010"><a xlink:title=" ">
<path fill="none" stroke="#63b8ff" d="M657.39,-161.1C689.07,-164.37 735.35,-169.14 765.81,-172.28"/>
<polygon fill="#63b8ff" stroke="#63b8ff" points="765.57,-175.78 775.88,-173.32 766.29,-168.81 765.57,-175.78"/>
</a>
</g>
</g>
<!-- Node18 -->
<g id="Node000018" class="node">
<title>Node18</title>
<g id="a_Node000018"><a xlink:href="collision_8c.html#a8c516edee107b39b30bb3a4d3c54534a" target="_top" xlink:title=" ">
<polygon fill="white" stroke="#666666" points="859.5,-56 736.5,-56 736.5,-37 859.5,-37 859.5,-56"/>
<text text-anchor="middle" x="798" y="-44" font-family="Helvetica,sans-Serif" font-size="10.00">add_collision_triangle</text>
</a>
</g>
</g>
<!-- Node17&#45;&gt;Node18 -->
<g id="edge21_Node000017_Node000018" class="edge">
<title>Node17&#45;&gt;Node18</title>
<g id="a_edge21_Node000017_Node000018"><a xlink:title=" ">
<path fill="none" stroke="#63b8ff" d="M667.44,-73.97C690.15,-69.16 717.9,-63.27 741.89,-58.19"/>
<polygon fill="#63b8ff" stroke="#63b8ff" points="742.85,-61.56 751.91,-56.06 741.4,-54.71 742.85,-61.56"/>
</a>
</g>
</g>
<!-- Node19 -->
<g id="Node000019" class="node">
<title>Node19</title>
<g id="a_Node000019"><a xlink:href="RaceManager_8cpp.html#a693bf81394ee91ac6be58f7481471619" target="_top" xlink:title=" ">
<polygon fill="white" stroke="#666666" points="1070,-75 900,-75 900,-56 1070,-56 1070,-75"/>
<text text-anchor="middle" x="985" y="-63" font-family="Helvetica,sans-Serif" font-size="10.00">add_triangle_to_collision_mesh</text>
</a>
</g>
</g>
<!-- Node18&#45;&gt;Node19 -->
<g id="edge22_Node000018_Node000019" class="edge">
<title>Node18&#45;&gt;Node19</title>
<g id="a_edge22_Node000018_Node000019"><a xlink:title=" ">
<path fill="none" stroke="#63b8ff" d="M859.58,-52.72C869.22,-53.71 879.39,-54.76 889.59,-55.8"/>
<polygon fill="#63b8ff" stroke="#63b8ff" points="889.48,-59.31 899.78,-56.85 890.19,-52.35 889.48,-59.31"/>
</a>
</g>
</g>
<!-- Node20 -->
<g id="Node000020" class="node">
<title>Node20</title>
<g id="a_Node000020"><a xlink:href="math_8h.html#a37bde043e94a6f074c78f10518fb5d99" target="_top" xlink:title=" ">
<polygon fill="white" stroke="#666666" points="1004.5,-38 965.5,-38 965.5,-19 1004.5,-19 1004.5,-38"/>
<text text-anchor="middle" x="985" y="-26" font-family="Helvetica,sans-Serif" font-size="10.00">sqrtf</text>
</a>
</g>
</g>
<!-- Node18&#45;&gt;Node20 -->
<g id="edge23_Node000018_Node000020" class="edge">
<title>Node18&#45;&gt;Node20</title>
<g id="a_edge23_Node000018_Node000020"><a xlink:title=" ">
<path fill="none" stroke="#63b8ff" d="M859.58,-40.61C891.66,-37.48 929.59,-33.79 955.07,-31.32"/>
<polygon fill="#63b8ff" stroke="#63b8ff" points="955.55,-34.78 965.17,-30.33 954.88,-27.82 955.55,-34.78"/>
</a>
</g>
</g>
<!-- Node21&#45;&gt;Node18 -->
<g id="edge25_Node000021_Node000018" class="edge">
<title>Node21&#45;&gt;Node18</title>
<g id="a_edge25_Node000021_Node000018"><a xlink:title=" ">
<path fill="none" stroke="#63b8ff" d="M673.44,-46.5C689.92,-46.5 708.51,-46.5 726.17,-46.5"/>
<polygon fill="#63b8ff" stroke="#63b8ff" points="726.43,-50 736.43,-46.5 726.43,-43 726.43,-50"/>
</a>
</g>
</g>
<!-- Node22&#45;&gt;Node18 -->
<g id="edge27_Node000022_Node000018" class="edge">
<title>Node22&#45;&gt;Node18</title>
<g id="a_edge27_Node000022_Node000018"><a xlink:title=" ">
<path fill="none" stroke="#63b8ff" d="M667.44,-19.03C690.15,-23.84 717.9,-29.73 741.89,-34.81"/>
<polygon fill="#63b8ff" stroke="#63b8ff" points="741.4,-38.29 751.91,-36.94 742.85,-31.44 741.4,-38.29"/>
</a>
</g>
</g>
</g>
</svg>
