<?xml version="1.0" encoding="UTF-8" standalone="no"?>
<!DOCTYPE svg PUBLIC "-//W3C//DTD SVG 1.1//EN"
 "http://www.w3.org/Graphics/SVG/1.1/DTD/svg11.dtd">
<!-- Generated by graphviz version 2.43.0 (0)
 -->
<!-- Title: OThwomp::func_8007F75C Pages: 1 -->
<svg width="601pt" height="101pt"
 viewBox="0.00 0.00 601.00 101.00" xmlns="http://www.w3.org/2000/svg" xmlns:xlink="http://www.w3.org/1999/xlink">
<g id="graph0" class="graph" transform="scale(1 1) rotate(0) translate(4 97)">
<title>OThwomp::func_8007F75C</title>
<!-- Node1 -->
<g id="Node000001" class="node">
<title>Node1</title>
<g id="a_Node000001"><a xlink:title=" ">
<polygon fill="#999999" stroke="#666666" points="147,-56 0,-56 0,-37 147,-37 147,-56"/>
<text text-anchor="middle" x="73.5" y="-44" font-family="Helvetica,sans-Serif" font-size="10.00">OThwomp::func_8007F75C</text>
</a>
</g>
</g>
<!-- Node2 -->
<g id="Node000002" class="node">
<title>Node2</title>
<g id="a_Node000002"><a xlink:href="classOThwomp.html#a70a41d3a1ba171b14eed0f8a64689913" target="_top" xlink:title=" ">
<polygon fill="white" stroke="#666666" points="329.5,-56 183.5,-56 183.5,-37 329.5,-37 329.5,-56"/>
<text text-anchor="middle" x="256.5" y="-44" font-family="Helvetica,sans-Serif" font-size="10.00">OThwomp::func_8007F660</text>
</a>
</g>
</g>
<!-- Node1&#45;&gt;Node2 -->
<g id="edge1_Node000001_Node000002" class="edge">
<title>Node1&#45;&gt;Node2</title>
<g id="a_edge1_Node000001_Node000002"><a xlink:title=" ">
<path fill="none" stroke="#63b8ff" d="M147.08,-46.5C155.7,-46.5 164.55,-46.5 173.3,-46.5"/>
<polygon fill="#63b8ff" stroke="#63b8ff" points="173.5,-50 183.5,-46.5 173.5,-43 173.5,-50"/>
</a>
</g>
</g>
<!-- Node6 -->
<g id="Node000006" class="node">
<title>Node6</title>
<g id="a_Node000006"><a xlink:href="classOThwomp.html#a9db2e3d50ca43ecad66d13a2fc4a276f" target="_top" xlink:title=" ">
<polygon fill="white" stroke="#666666" points="330,-93 183,-93 183,-74 330,-74 330,-93"/>
<text text-anchor="middle" x="256.5" y="-81" font-family="Helvetica,sans-Serif" font-size="10.00">OThwomp::func_8007F6C4</text>
</a>
</g>
</g>
<!-- Node1&#45;&gt;Node6 -->
<g id="edge5_Node000001_Node000006" class="edge">
<title>Node1&#45;&gt;Node6</title>
<g id="a_edge5_Node000001_Node000006"><a xlink:title=" ">
<path fill="none" stroke="#63b8ff" d="M121.11,-56.03C144.77,-60.86 173.71,-66.78 198.67,-71.88"/>
<polygon fill="#63b8ff" stroke="#63b8ff" points="198.23,-75.37 208.73,-73.94 199.64,-68.51 198.23,-75.37"/>
</a>
</g>
</g>
<!-- Node7 -->
<g id="Node000007" class="node">
<title>Node7</title>
<g id="a_Node000007"><a xlink:href="math__util_8c.html#a151b63b8adf9af7e4054b3b84bd226dc" target="_top" xlink:title=" ">
<polygon fill="white" stroke="#666666" points="292.5,-19 220.5,-19 220.5,0 292.5,0 292.5,-19"/>
<text text-anchor="middle" x="256.5" y="-7" font-family="Helvetica,sans-Serif" font-size="10.00">random_int</text>
</a>
</g>
</g>
<!-- Node1&#45;&gt;Node7 -->
<g id="edge8_Node000001_Node000007" class="edge">
<title>Node1&#45;&gt;Node7</title>
<g id="a_edge8_Node000001_Node000007"><a xlink:title=" ">
<path fill="none" stroke="#63b8ff" d="M121.11,-36.97C148.6,-31.35 183.23,-24.27 210.44,-18.71"/>
<polygon fill="#63b8ff" stroke="#63b8ff" points="211.38,-22.09 220.48,-16.66 209.98,-15.23 211.38,-22.09"/>
</a>
</g>
</g>
<!-- Node3 -->
<g id="Node000003" class="node">
<title>Node3</title>
<g id="a_Node000003"><a xlink:href="update__objects_8c.html#a2c88cc32dff07c6af5fe74d00b9fa279" target="_top" xlink:title=" ">
<polygon fill="white" stroke="#666666" points="458,-56 366,-56 366,-37 458,-37 458,-56"/>
<text text-anchor="middle" x="412" y="-44" font-family="Helvetica,sans-Serif" font-size="10.00">func_800722A4</text>
</a>
</g>
</g>
<!-- Node2&#45;&gt;Node3 -->
<g id="edge2_Node000002_Node000003" class="edge">
<title>Node2&#45;&gt;Node3</title>
<g id="a_edge2_Node000002_Node000003"><a xlink:title=" ">
<path fill="none" stroke="#63b8ff" d="M329.76,-46.5C338.49,-46.5 347.3,-46.5 355.74,-46.5"/>
<polygon fill="#63b8ff" stroke="#63b8ff" points="355.81,-50 365.81,-46.5 355.81,-43 355.81,-50"/>
</a>
</g>
</g>
<!-- Node4 -->
<g id="Node000004" class="node">
<title>Node4</title>
<g id="a_Node000004"><a xlink:href="code__80086E70_8c.html#ad844d2fe27c3f0bb5979715fae72559a" target="_top" xlink:title=" ">
<polygon fill="white" stroke="#666666" points="457.5,-93 366.5,-93 366.5,-74 457.5,-74 457.5,-93"/>
<text text-anchor="middle" x="412" y="-81" font-family="Helvetica,sans-Serif" font-size="10.00">func_80086E70</text>
</a>
</g>
</g>
<!-- Node2&#45;&gt;Node4 -->
<g id="edge3_Node000002_Node000004" class="edge">
<title>Node2&#45;&gt;Node4</title>
<g id="a_edge3_Node000002_Node000004"><a xlink:title=" ">
<path fill="none" stroke="#63b8ff" d="M297.03,-56.03C316.65,-60.76 340.55,-66.52 361.39,-71.54"/>
<polygon fill="#63b8ff" stroke="#63b8ff" points="360.8,-75 371.34,-73.94 362.44,-68.19 360.8,-75"/>
</a>
</g>
</g>
<!-- Node5 -->
<g id="Node000005" class="node">
<title>Node5</title>
<g id="a_Node000005"><a xlink:href="update__objects_8c.html#a3953241e15c6372ac8944ba842148a9a" target="_top" xlink:title=" ">
<polygon fill="white" stroke="#666666" points="593,-93 494,-93 494,-74 593,-74 593,-93"/>
<text text-anchor="middle" x="543.5" y="-81" font-family="Helvetica,sans-Serif" font-size="10.00">clear_object_flag</text>
</a>
</g>
</g>
<!-- Node4&#45;&gt;Node5 -->
<g id="edge4_Node000004_Node000005" class="edge">
<title>Node4&#45;&gt;Node5</title>
<g id="a_edge4_Node000004_Node000005"><a xlink:title=" ">
<path fill="none" stroke="#63b8ff" d="M457.57,-83.5C465.98,-83.5 474.9,-83.5 483.67,-83.5"/>
<polygon fill="#63b8ff" stroke="#63b8ff" points="483.86,-87 493.86,-83.5 483.86,-80 483.86,-87"/>
</a>
</g>
</g>
<!-- Node6&#45;&gt;Node3 -->
<g id="edge6_Node000006_Node000003" class="edge">
<title>Node6&#45;&gt;Node3</title>
<g id="a_edge6_Node000006_Node000003"><a xlink:title=" ">
<path fill="none" stroke="#63b8ff" d="M297.03,-73.97C316.65,-69.24 340.55,-63.48 361.39,-58.46"/>
<polygon fill="#63b8ff" stroke="#63b8ff" points="362.44,-61.81 371.34,-56.06 360.8,-55 362.44,-61.81"/>
</a>
</g>
</g>
<!-- Node6&#45;&gt;Node4 -->
<g id="edge7_Node000006_Node000004" class="edge">
<title>Node6&#45;&gt;Node4</title>
<g id="a_edge7_Node000006_Node000004"><a xlink:title=" ">
<path fill="none" stroke="#63b8ff" d="M330.2,-83.5C338.91,-83.5 347.68,-83.5 356.08,-83.5"/>
<polygon fill="#63b8ff" stroke="#63b8ff" points="356.1,-87 366.1,-83.5 356.1,-80 356.1,-87"/>
</a>
</g>
</g>
<!-- Node8 -->
<g id="Node000008" class="node">
<title>Node8</title>
<g id="a_Node000008"><a xlink:href="math__util_8c.html#a062850863585005ad1d0a75d9ff70693" target="_top" xlink:title=" ">
<polygon fill="white" stroke="#666666" points="450.5,-19 373.5,-19 373.5,0 450.5,0 450.5,-19"/>
<text text-anchor="middle" x="412" y="-7" font-family="Helvetica,sans-Serif" font-size="10.00">random_u16</text>
</a>
</g>
</g>
<!-- Node7&#45;&gt;Node8 -->
<g id="edge9_Node000007_Node000008" class="edge">
<title>Node7&#45;&gt;Node8</title>
<g id="a_edge9_Node000007_Node000008"><a xlink:title=" ">
<path fill="none" stroke="#63b8ff" d="M292.72,-9.5C313.59,-9.5 340.34,-9.5 363.12,-9.5"/>
<polygon fill="#63b8ff" stroke="#63b8ff" points="363.27,-13 373.27,-9.5 363.27,-6 363.27,-13"/>
</a>
</g>
</g>
</g>
</svg>
