<?xml version="1.0" encoding="UTF-8" standalone="no"?>
<!DOCTYPE svg PUBLIC "-//W3C//DTD SVG 1.1//EN"
 "http://www.w3.org/Graphics/SVG/1.1/DTD/svg11.dtd">
<!-- Generated by graphviz version 2.43.0 (0)
 -->
<!-- Title: RandomItemTable Pages: 1 -->
<svg width="425pt" height="104pt"
 viewBox="0.00 0.00 424.50 104.00" xmlns="http://www.w3.org/2000/svg" xmlns:xlink="http://www.w3.org/1999/xlink">
<g id="graph0" class="graph" transform="scale(1 1) rotate(0) translate(4 100)">
<title>RandomItemTable</title>
<!-- Node1 -->
<g id="Node000001" class="node">
<title>Node1</title>
<g id="a_Node000001"><a xlink:title=" ">
<polygon fill="#999999" stroke="#666666" points="205.5,-19 100.5,-19 100.5,0 205.5,0 205.5,-19"/>
<text text-anchor="middle" x="153" y="-7" font-family="Helvetica,sans-Serif" font-size="10.00">RandomItemTable</text>
</a>
</g>
</g>
<!-- Node2 -->
<g id="Node000002" class="node">
<title>Node2</title>
<g id="a_Node000002"><a xlink:title=" ">
<polygon fill="white" stroke="#666666" points="38,-90.5 0,-90.5 0,-71.5 38,-71.5 38,-90.5"/>
<text text-anchor="middle" x="19" y="-78.5" font-family="Helvetica,sans-Serif" font-size="10.00">bool</text>
</a>
</g>
</g>
<!-- Node2&#45;&gt;Node1 -->
<g id="edge1_Node000001_Node000002" class="edge">
<title>Node2&#45;&gt;Node1</title>
<g id="a_edge1_Node000001_Node000002"><a xlink:title=" ">
<path fill="none" stroke="#9a32cd" stroke-dasharray="5,2" d="M29.23,-62.81C35.36,-53.89 43.93,-43.52 54,-37 67.82,-28.06 84.57,-22.11 100.34,-18.18"/>
<polygon fill="#9a32cd" stroke="#9a32cd" points="26.2,-61.06 23.75,-71.37 32.09,-64.83 26.2,-61.06"/>
</a>
</g>
<text text-anchor="middle" x="101.5" y="-40" font-family="Helvetica,sans-Serif" font-size="10.00" fill="grey"> mDistanceEnabled</text>
</g>
<!-- Node3 -->
<g id="Node000003" class="node">
<title>Node3</title>
<g id="a_Node000003"><a xlink:title=" ">
<polygon fill="white" stroke="#666666" points="249.5,-96 56.5,-96 56.5,-66 249.5,-66 249.5,-96"/>
<text text-anchor="start" x="64.5" y="-84" font-family="Helvetica,sans-Serif" font-size="10.00">vector&lt; std::vector</text>
<text text-anchor="middle" x="153" y="-73" font-family="Helvetica,sans-Serif" font-size="10.00">&lt; RandomItemTable::ItemEntry &gt; &gt;</text>
</a>
</g>
</g>
<!-- Node3&#45;&gt;Node1 -->
<g id="edge2_Node000001_Node000003" class="edge">
<title>Node3&#45;&gt;Node1</title>
<g id="a_edge2_Node000001_Node000003"><a xlink:title=" ">
<path fill="none" stroke="#9a32cd" stroke-dasharray="5,2" d="M153,-55.56C153,-42.95 153,-28.35 153,-19.27"/>
<polygon fill="#9a32cd" stroke="#9a32cd" points="149.5,-55.94 153,-65.94 156.5,-55.94 149.5,-55.94"/>
</a>
</g>
<text text-anchor="middle" x="172.5" y="-40" font-family="Helvetica,sans-Serif" font-size="10.00" fill="grey"> mTable</text>
</g>
<!-- Node4 -->
<g id="Node000004" class="node">
<title>Node4</title>
<g id="a_Node000004"><a xlink:title=" ">
<polygon fill="white" stroke="#666666" points="416.5,-90.5 267.5,-90.5 267.5,-71.5 416.5,-71.5 416.5,-90.5"/>
<text text-anchor="middle" x="342" y="-78.5" font-family="Helvetica,sans-Serif" font-size="10.00">unordered_set&lt; uint32_t &gt;</text>
</a>
</g>
</g>
<!-- Node4&#45;&gt;Node1 -->
<g id="edge3_Node000001_Node000004" class="edge">
<title>Node4&#45;&gt;Node1</title>
<g id="a_edge3_Node000001_Node000004"><a xlink:title=" ">
<path fill="none" stroke="#9a32cd" stroke-dasharray="5,2" d="M309.26,-67.96C271.32,-54.01 209.77,-31.38 176.36,-19.09"/>
<polygon fill="#9a32cd" stroke="#9a32cd" points="308.23,-71.31 318.82,-71.48 310.65,-64.74 308.23,-71.31"/>
</a>
</g>
<text text-anchor="middle" x="280.5" y="-40" font-family="Helvetica,sans-Serif" font-size="10.00" fill="grey"> mBlacklist</text>
</g>
</g>
</svg>
