<?xml version="1.0" encoding="UTF-8" standalone="no"?>
<!DOCTYPE svg PUBLIC "-//W3C//DTD SVG 1.1//EN"
 "http://www.w3.org/Graphics/SVG/1.1/DTD/svg11.dtd">
<!-- Generated by graphviz version 2.43.0 (0)
 -->
<!-- Title: LuigiRaceway::Draw Pages: 1 -->
<svg width="741pt" height="250pt"
 viewBox="0.00 0.00 741.00 250.00" xmlns="http://www.w3.org/2000/svg" xmlns:xlink="http://www.w3.org/1999/xlink">
<g id="graph0" class="graph" transform="scale(1 1) rotate(0) translate(4 246)">
<title>LuigiRaceway::Draw</title>
<!-- Node1 -->
<g id="Node000001" class="node">
<title>Node1</title>
<g id="a_Node000001"><a xlink:title=" ">
<polygon fill="#999999" stroke="#666666" points="115,-168 0,-168 0,-149 115,-149 115,-168"/>
<text text-anchor="middle" x="57.5" y="-156" font-family="Helvetica,sans-Serif" font-size="10.00">LuigiRaceway::Draw</text>
</a>
</g>
</g>
<!-- Node2 -->
<g id="Node000002" class="node">
<title>Node2</title>
<g id="a_Node000002"><a xlink:href="classLuigiRaceway.html#a099d1be5e54f51a388a02bd3ce7060ee" target="_top" xlink:title=" ">
<polygon fill="white" stroke="#666666" points="315,-242 151,-242 151,-223 315,-223 315,-242"/>
<text text-anchor="middle" x="233" y="-230" font-family="Helvetica,sans-Serif" font-size="10.00">LuigiRaceway::CopyJumbotron</text>
</a>
</g>
</g>
<!-- Node1&#45;&gt;Node2 -->
<g id="edge1_Node000001_Node000002" class="edge">
<title>Node1&#45;&gt;Node2</title>
<g id="a_edge1_Node000001_Node000002"><a xlink:title=" ">
<path fill="none" stroke="#63b8ff" d="M71.26,-168.1C88.48,-180.59 120.51,-202.27 151,-214.5 156.4,-216.66 162.1,-218.59 167.89,-220.31"/>
<polygon fill="#63b8ff" stroke="#63b8ff" points="167.09,-223.72 177.66,-223 168.95,-216.97 167.09,-223.72"/>
</a>
</g>
</g>
<!-- Node4 -->
<g id="Node000004" class="node">
<title>Node4</title>
<g id="a_Node000004"><a xlink:href="render__courses_8c.html#a9a9119b96bf015cf8b5a168485f67e3f" target="_top" xlink:title=" ">
<polygon fill="white" stroke="#666666" points="279,-205 187,-205 187,-186 279,-186 279,-205"/>
<text text-anchor="middle" x="233" y="-193" font-family="Helvetica,sans-Serif" font-size="10.00">func_80290C20</text>
</a>
</g>
</g>
<!-- Node1&#45;&gt;Node4 -->
<g id="edge3_Node000001_Node000004" class="edge">
<title>Node1&#45;&gt;Node4</title>
<g id="a_edge3_Node000001_Node000004"><a xlink:title=" ">
<path fill="none" stroke="#63b8ff" d="M103.18,-168.03C125.76,-172.84 153.35,-178.73 177.2,-183.81"/>
<polygon fill="#63b8ff" stroke="#63b8ff" points="176.66,-187.28 187.17,-185.94 178.12,-180.43 176.66,-187.28"/>
</a>
</g>
</g>
<!-- Node5 -->
<g id="Node000005" class="node">
<title>Node5</title>
<g id="a_Node000005"><a xlink:href="GBIMiddleware_8cpp.html#a4ecc44e3c6f1ca5a6b4a20c41d3bd2d2" target="_top" xlink:title=" ">
<polygon fill="white" stroke="#666666" points="454,-130 365,-130 365,-111 454,-111 454,-130"/>
<text text-anchor="middle" x="409.5" y="-118" font-family="Helvetica,sans-Serif" font-size="10.00">gSPDisplayList</text>
</a>
</g>
</g>
<!-- Node1&#45;&gt;Node5 -->
<g id="edge4_Node000001_Node000005" class="edge">
<title>Node1&#45;&gt;Node5</title>
<g id="a_edge4_Node000001_Node000005"><a xlink:title=" ">
<path fill="none" stroke="#63b8ff" d="M102.09,-148.95C117.48,-145.86 134.95,-142.68 151,-140.5 220.98,-131.01 302.32,-125.62 354.55,-122.89"/>
<polygon fill="#63b8ff" stroke="#63b8ff" points="354.79,-126.38 364.6,-122.37 354.43,-119.39 354.79,-126.38"/>
</a>
</g>
</g>
<!-- Node8 -->
<g id="Node000008" class="node">
<title>Node8</title>
<g id="a_Node000008"><a xlink:href="GBIMiddleware_8cpp.html#a0c0bce088ba2282e188ea5c8c8123e22" target="_top" xlink:title=" ">
<polygon fill="white" stroke="#666666" points="298,-168 168,-168 168,-149 298,-149 298,-168"/>
<text text-anchor="middle" x="233" y="-156" font-family="Helvetica,sans-Serif" font-size="10.00">gSPInvalidateTexCache</text>
</a>
</g>
</g>
<!-- Node1&#45;&gt;Node8 -->
<g id="edge7_Node000001_Node000008" class="edge">
<title>Node1&#45;&gt;Node8</title>
<g id="a_edge7_Node000001_Node000008"><a xlink:title=" ">
<path fill="none" stroke="#63b8ff" d="M115.31,-158.5C128.83,-158.5 143.45,-158.5 157.63,-158.5"/>
<polygon fill="#63b8ff" stroke="#63b8ff" points="157.85,-162 167.85,-158.5 157.85,-155 157.85,-162"/>
</a>
</g>
</g>
<!-- Node9 -->
<g id="Node000009" class="node">
<title>Node9</title>
<g id="a_Node000009"><a xlink:href="render__courses_8c.html#aa2d036c2083162fb6a9fe86ebd20386b" target="_top" xlink:title=" ">
<polygon fill="white" stroke="#666666" points="295,-92 171,-92 171,-73 295,-73 295,-92"/>
<text text-anchor="middle" x="233" y="-80" font-family="Helvetica,sans-Serif" font-size="10.00">render_track_sections</text>
</a>
</g>
</g>
<!-- Node1&#45;&gt;Node9 -->
<g id="edge9_Node000001_Node000009" class="edge">
<title>Node1&#45;&gt;Node9</title>
<g id="a_edge9_Node000001_Node000009"><a xlink:title=" ">
<path fill="none" stroke="#63b8ff" d="M73.04,-148.97C90.83,-137.63 122.15,-118.7 151,-106.5 161.34,-102.13 172.74,-98.22 183.65,-94.9"/>
<polygon fill="#63b8ff" stroke="#63b8ff" points="184.86,-98.19 193.47,-92.01 182.89,-91.47 184.86,-98.19"/>
</a>
</g>
</g>
<!-- Node3 -->
<g id="Node000003" class="node">
<title>Node3</title>
<g id="a_Node000003"><a xlink:href="skybox__and__splitscreen_8c.html#a97049ca439feed0c004c1d41f302189e" target="_top" xlink:title=" ">
<polygon fill="white" stroke="#666666" points="461,-242 358,-242 358,-223 461,-223 461,-242"/>
<text text-anchor="middle" x="409.5" y="-230" font-family="Helvetica,sans-Serif" font-size="10.00">copy_framebuffer</text>
</a>
</g>
</g>
<!-- Node2&#45;&gt;Node3 -->
<g id="edge2_Node000002_Node000003" class="edge">
<title>Node2&#45;&gt;Node3</title>
<g id="a_edge2_Node000002_Node000003"><a xlink:title=" ">
<path fill="none" stroke="#63b8ff" d="M315.12,-232.5C326.07,-232.5 337.14,-232.5 347.66,-232.5"/>
<polygon fill="#63b8ff" stroke="#63b8ff" points="347.95,-236 357.95,-232.5 347.95,-229 347.95,-236"/>
</a>
</g>
</g>
<!-- Node6 -->
<g id="Node000006" class="node">
<title>Node6</title>
<g id="a_Node000006"><a xlink:href="Engine_8cpp.html#a223c8bc63f228dc11177515e38eff2db" target="_top" xlink:title=" ">
<polygon fill="white" stroke="#666666" points="653,-149 504,-149 504,-130 653,-130 653,-149"/>
<text text-anchor="middle" x="578.5" y="-137" font-family="Helvetica,sans-Serif" font-size="10.00">GameEngine_OTRSigCheck</text>
</a>
</g>
</g>
<!-- Node5&#45;&gt;Node6 -->
<g id="edge5_Node000005_Node000006" class="edge">
<title>Node5&#45;&gt;Node6</title>
<g id="a_edge5_Node000005_Node000006"><a xlink:title=" ">
<path fill="none" stroke="#63b8ff" d="M454.38,-125.49C466.59,-126.88 480.27,-128.44 493.95,-129.99"/>
<polygon fill="#63b8ff" stroke="#63b8ff" points="493.56,-133.47 503.89,-131.13 494.35,-126.52 493.56,-133.47"/>
</a>
</g>
</g>
<!-- Node7 -->
<g id="Node000007" class="node">
<title>Node7</title>
<g id="a_Node000007"><a xlink:href="string_8c.html#a008e171a518fe0e0352f31b245e03875" target="_top" xlink:title=" ">
<polygon fill="white" stroke="#666666" points="733,-149 689,-149 689,-130 733,-130 733,-149"/>
<text text-anchor="middle" x="711" y="-137" font-family="Helvetica,sans-Serif" font-size="10.00">strlen</text>
</a>
</g>
</g>
<!-- Node6&#45;&gt;Node7 -->
<g id="edge6_Node000006_Node000007" class="edge">
<title>Node6&#45;&gt;Node7</title>
<g id="a_edge6_Node000006_Node000007"><a xlink:title=" ">
<path fill="none" stroke="#63b8ff" d="M653.14,-139.5C662.12,-139.5 670.89,-139.5 678.75,-139.5"/>
<polygon fill="#63b8ff" stroke="#63b8ff" points="678.83,-143 688.83,-139.5 678.83,-136 678.83,-143"/>
</a>
</g>
</g>
<!-- Node8&#45;&gt;Node6 -->
<g id="edge8_Node000008_Node000006" class="edge">
<title>Node8&#45;&gt;Node6</title>
<g id="a_edge8_Node000008_Node000006"><a xlink:title=" ">
<path fill="none" stroke="#63b8ff" d="M298.21,-154.95C353.37,-151.9 433.29,-147.48 493.52,-144.15"/>
<polygon fill="#63b8ff" stroke="#63b8ff" points="493.98,-147.63 503.77,-143.58 493.59,-140.64 493.98,-147.63"/>
</a>
</g>
</g>
<!-- Node9&#45;&gt;Node5 -->
<g id="edge11_Node000009_Node000005" class="edge">
<title>Node9&#45;&gt;Node5</title>
<g id="a_edge11_Node000009_Node000005"><a xlink:title=" ">
<path fill="none" stroke="#63b8ff" d="M278.03,-92.09C301.37,-97.17 330.23,-103.46 354.87,-108.82"/>
<polygon fill="#63b8ff" stroke="#63b8ff" points="354.27,-112.27 364.78,-110.98 355.76,-105.43 354.27,-112.27"/>
</a>
</g>
</g>
<!-- Node10 -->
<g id="Node000010" class="node">
<title>Node10</title>
<g id="a_Node000010"><a xlink:href="collision_8c.html#a053809031f467d0a6747788211e0ec69" target="_top" xlink:title=" ">
<polygon fill="white" stroke="#666666" points="468,-93 351,-93 351,-74 468,-74 468,-93"/>
<text text-anchor="middle" x="409.5" y="-81" font-family="Helvetica,sans-Serif" font-size="10.00">get_track_section_id</text>
</a>
</g>
</g>
<!-- Node9&#45;&gt;Node10 -->
<g id="edge10_Node000009_Node000010" class="edge">
<title>Node9&#45;&gt;Node10</title>
<g id="a_edge10_Node000009_Node000010"><a xlink:title=" ">
<path fill="none" stroke="#63b8ff" d="M295.03,-82.85C309.72,-82.93 325.51,-83.02 340.5,-83.11"/>
<polygon fill="#63b8ff" stroke="#63b8ff" points="340.71,-86.61 350.73,-83.17 340.75,-79.61 340.71,-86.61"/>
</a>
</g>
</g>
<!-- Node11 -->
<g id="Node000011" class="node">
<title>Node11</title>
<g id="a_Node000011"><a xlink:href="Game_8cpp.html#a8ebd6a4d970e4333ab5a9dd66c3d9c48" target="_top" xlink:title=" ">
<polygon fill="white" stroke="#666666" points="458,-56 361,-56 361,-37 458,-37 458,-56"/>
<text text-anchor="middle" x="409.5" y="-44" font-family="Helvetica,sans-Serif" font-size="10.00">IsBowsersCastle</text>
</a>
</g>
</g>
<!-- Node9&#45;&gt;Node11 -->
<g id="edge12_Node000009_Node000011" class="edge">
<title>Node9&#45;&gt;Node11</title>
<g id="a_edge12_Node000009_Node000011"><a xlink:title=" ">
<path fill="none" stroke="#63b8ff" d="M280.3,-72.95C302.38,-68.39 328.98,-62.91 352.21,-58.11"/>
<polygon fill="#63b8ff" stroke="#63b8ff" points="353.2,-61.48 362.28,-56.03 351.78,-54.63 353.2,-61.48"/>
</a>
</g>
</g>
<!-- Node14 -->
<g id="Node000014" class="node">
<title>Node14</title>
<g id="a_Node000014"><a xlink:href="Game_8cpp.html#a9f5c2ace915f66e850628695f297b1ff" target="_top" xlink:title=" ">
<polygon fill="white" stroke="#666666" points="460,-19 359,-19 359,0 460,0 460,-19"/>
<text text-anchor="middle" x="409.5" y="-7" font-family="Helvetica,sans-Serif" font-size="10.00">IsChocoMountain</text>
</a>
</g>
</g>
<!-- Node9&#45;&gt;Node14 -->
<g id="edge15_Node000009_Node000014" class="edge">
<title>Node9&#45;&gt;Node14</title>
<g id="a_edge15_Node000009_Node000014"><a xlink:title=" ">
<path fill="none" stroke="#63b8ff" d="M252.3,-72.94C275.05,-61.29 315.24,-41.43 351,-27.5 355.75,-25.65 360.78,-23.85 365.8,-22.15"/>
<polygon fill="#63b8ff" stroke="#63b8ff" points="366.97,-25.45 375.39,-19.02 364.8,-18.8 366.97,-25.45"/>
</a>
</g>
</g>
<!-- Node12 -->
<g id="Node000012" class="node">
<title>Node12</title>
<g id="a_Node000012"><a xlink:href="classWorld.html#a1a4dacc6aea0b846df998be0afc239f7" target="_top" xlink:title=" ">
<polygon fill="white" stroke="#666666" points="625,-19 532,-19 532,0 625,0 625,-19"/>
<text text-anchor="middle" x="578.5" y="-7" font-family="Helvetica,sans-Serif" font-size="10.00">World::GetTrack</text>
</a>
</g>
</g>
<!-- Node11&#45;&gt;Node12 -->
<g id="edge13_Node000011_Node000012" class="edge">
<title>Node11&#45;&gt;Node12</title>
<g id="a_edge13_Node000011_Node000012"><a xlink:title=" ">
<path fill="none" stroke="#63b8ff" d="M453.51,-36.97C475.14,-32.18 501.56,-26.32 524.45,-21.25"/>
<polygon fill="#63b8ff" stroke="#63b8ff" points="525.34,-24.64 534.35,-19.06 523.83,-17.81 525.34,-24.64"/>
</a>
</g>
</g>
<!-- Node13 -->
<g id="Node000013" class="node">
<title>Node13</title>
<g id="a_Node000013"><a xlink:href="Game_8cpp.html#ae2fa844b3cb1021ecbc357f8ed2ad8cc" target="_top" xlink:title=" ">
<polygon fill="white" stroke="#666666" points="609.5,-56 547.5,-56 547.5,-37 609.5,-37 609.5,-56"/>
<text text-anchor="middle" x="578.5" y="-44" font-family="Helvetica,sans-Serif" font-size="10.00">GetWorld</text>
</a>
</g>
</g>
<!-- Node11&#45;&gt;Node13 -->
<g id="edge14_Node000011_Node000013" class="edge">
<title>Node11&#45;&gt;Node13</title>
<g id="a_edge14_Node000011_Node000013"><a xlink:title=" ">
<path fill="none" stroke="#63b8ff" d="M458.36,-46.5C483.21,-46.5 513.25,-46.5 536.94,-46.5"/>
<polygon fill="#63b8ff" stroke="#63b8ff" points="537.01,-50 547.01,-46.5 537.01,-43 537.01,-50"/>
</a>
</g>
</g>
<!-- Node14&#45;&gt;Node12 -->
<g id="edge16_Node000014_Node000012" class="edge">
<title>Node14&#45;&gt;Node12</title>
<g id="a_edge16_Node000014_Node000012"><a xlink:title=" ">
<path fill="none" stroke="#63b8ff" d="M460.15,-9.5C479.48,-9.5 501.71,-9.5 521.59,-9.5"/>
<polygon fill="#63b8ff" stroke="#63b8ff" points="521.75,-13 531.75,-9.5 521.75,-6 521.75,-13"/>
</a>
</g>
</g>
<!-- Node14&#45;&gt;Node13 -->
<g id="edge17_Node000014_Node000013" class="edge">
<title>Node14&#45;&gt;Node13</title>
<g id="a_edge17_Node000014_Node000013"><a xlink:title=" ">
<path fill="none" stroke="#63b8ff" d="M453.51,-19.03C479.33,-24.75 511.97,-31.98 537.28,-37.59"/>
<polygon fill="#63b8ff" stroke="#63b8ff" points="536.76,-41.06 547.28,-39.8 538.28,-34.22 536.76,-41.06"/>
</a>
</g>
</g>
</g>
</svg>
