<?xml version="1.0" encoding="UTF-8" standalone="no"?>
<!DOCTYPE svg PUBLIC "-//W3C//DTD SVG 1.1//EN"
 "http://www.w3.org/Graphics/SVG/1.1/DTD/svg11.dtd">
<!-- Generated by graphviz version 2.43.0 (0)
 -->
<!-- Title: OLakitu::func_80079114 Pages: 1 -->
<svg width="430pt" height="27pt"
 viewBox="0.00 0.00 430.00 27.00" xmlns="http://www.w3.org/2000/svg" xmlns:xlink="http://www.w3.org/1999/xlink">
<g id="graph0" class="graph" transform="scale(1 1) rotate(0) translate(4 23)">
<title>OLakitu::func_80079114</title>
<!-- Node1 -->
<g id="Node000001" class="node">
<title>Node1</title>
<g id="a_Node000001"><a xlink:title=" ">
<polygon fill="#999999" stroke="#666666" points="422,-19 288,-19 288,0 422,0 422,-19"/>
<text text-anchor="middle" x="355" y="-7" font-family="Helvetica,sans-Serif" font-size="10.00">OLakitu::func_80079114</text>
</a>
</g>
</g>
<!-- Node2 -->
<g id="Node000002" class="node">
<title>Node2</title>
<g id="a_Node000002"><a xlink:href="classOLakitu.html#a4dc9a3b3cbfcd347669e9826c78bdee7" target="_top" xlink:title=" ">
<polygon fill="white" stroke="#666666" points="252,-19 116,-19 116,0 252,0 252,-19"/>
<text text-anchor="middle" x="184" y="-7" font-family="Helvetica,sans-Serif" font-size="10.00">OLakitu::func_8007AA44</text>
</a>
</g>
</g>
<!-- Node1&#45;&gt;Node2 -->
<g id="edge1_Node000001_Node000002" class="edge">
<title>Node1&#45;&gt;Node2</title>
<g id="a_edge1_Node000001_Node000002"><a xlink:title=" ">
<path fill="none" stroke="#63b8ff" d="M277.49,-9.5C269.06,-9.5 260.53,-9.5 252.23,-9.5"/>
<polygon fill="#63b8ff" stroke="#63b8ff" points="277.69,-13 287.69,-9.5 277.69,-6 277.69,-13"/>
</a>
</g>
</g>
<!-- Node3 -->
<g id="Node000003" class="node">
<title>Node3</title>
<g id="a_Node000003"><a xlink:href="classOLakitu.html#a71a081694b47eb17ad1093b512e815c9" target="_top" xlink:title=" ">
<polygon fill="white" stroke="#666666" points="80,-19 0,-19 0,0 80,0 80,-19"/>
<text text-anchor="middle" x="40" y="-7" font-family="Helvetica,sans-Serif" font-size="10.00">OLakitu::Tick</text>
</a>
</g>
</g>
<!-- Node2&#45;&gt;Node3 -->
<g id="edge2_Node000002_Node000003" class="edge">
<title>Node2&#45;&gt;Node3</title>
<g id="a_edge2_Node000002_Node000003"><a xlink:title=" ">
<path fill="none" stroke="#63b8ff" d="M105.74,-9.5C96.91,-9.5 88.2,-9.5 80.18,-9.5"/>
<polygon fill="#63b8ff" stroke="#63b8ff" points="105.74,-13 115.74,-9.5 105.74,-6 105.74,-13"/>
</a>
</g>
</g>
</g>
</svg>
