<?xml version="1.0" encoding="UTF-8" standalone="no"?>
<!DOCTYPE svg PUBLIC "-//W3C//DTD SVG 1.1//EN"
 "http://www.w3.org/Graphics/SVG/1.1/DTD/svg11.dtd">
<!-- Generated by graphviz version 2.43.0 (0)
 -->
<!-- Title: ABanana::Tick Pages: 1 -->
<svg width="1184pt" height="504pt"
 viewBox="0.00 0.00 1184.00 504.00" xmlns="http://www.w3.org/2000/svg" xmlns:xlink="http://www.w3.org/1999/xlink">
<g id="graph0" class="graph" transform="scale(1 1) rotate(0) translate(4 500)">
<title>ABanana::Tick</title>
<!-- Node1 -->
<g id="Node000001" class="node">
<title>Node1</title>
<g id="a_Node000001"><a xlink:title=" ">
<polygon fill="#999999" stroke="#666666" points="86,-148 0,-148 0,-129 86,-129 86,-148"/>
<text text-anchor="middle" x="43" y="-136" font-family="Helvetica,sans-Serif" font-size="10.00">ABanana::Tick</text>
</a>
</g>
</g>
<!-- Node2 -->
<g id="Node000002" class="node">
<title>Node2</title>
<g id="a_Node000002"><a xlink:href="banana_2update_8inc_8c.html#a1b699acb507ca2e080f46ea632573993" target="_top" xlink:title="Update the banana actor.">
<polygon fill="white" stroke="#666666" points="244,-148 122,-148 122,-129 244,-129 244,-148"/>
<text text-anchor="middle" x="183" y="-136" font-family="Helvetica,sans-Serif" font-size="10.00">update_actor_banana</text>
</a>
</g>
</g>
<!-- Node1&#45;&gt;Node2 -->
<g id="edge1_Node000001_Node000002" class="edge">
<title>Node1&#45;&gt;Node2</title>
<g id="a_edge1_Node000001_Node000002"><a xlink:title=" ">
<path fill="none" stroke="#63b8ff" d="M86.15,-138.5C94.24,-138.5 102.92,-138.5 111.62,-138.5"/>
<polygon fill="#63b8ff" stroke="#63b8ff" points="111.82,-142 121.82,-138.5 111.82,-135 111.82,-142"/>
</a>
</g>
</g>
<!-- Node3 -->
<g id="Node000003" class="node">
<title>Node3</title>
<g id="a_Node000003"><a xlink:href="collision_8c.html#a37aa55b3768d001533ad75e7f1b8388a" target="_top" xlink:title=" ">
<polygon fill="white" stroke="#666666" points="421,-440 280,-440 280,-421 421,-421 421,-440"/>
<text text-anchor="middle" x="350.5" y="-428" font-family="Helvetica,sans-Serif" font-size="10.00">check_bounding_collision</text>
</a>
</g>
</g>
<!-- Node2&#45;&gt;Node3 -->
<g id="edge2_Node000002_Node000003" class="edge">
<title>Node2&#45;&gt;Node3</title>
<g id="a_edge2_Node000002_Node000003"><a xlink:title=" ">
<path fill="none" stroke="#63b8ff" d="M187.25,-148.36C197.82,-179.65 233.2,-278.88 280,-351.5 295,-374.77 316.6,-398.18 331.73,-413.41"/>
<polygon fill="#63b8ff" stroke="#63b8ff" points="329.41,-416.04 338.98,-420.58 334.33,-411.06 329.41,-416.04"/>
</a>
</g>
</g>
<!-- Node7 -->
<g id="Node000007" class="node">
<title>Node7</title>
<g id="a_Node000007"><a xlink:href="actors_8c.html#a694ec6ef7548b8618aeb35c038d3a9b9" target="_top" xlink:title=" ">
<polygon fill="white" stroke="#666666" points="392,-167 309,-167 309,-148 392,-148 392,-167"/>
<text text-anchor="middle" x="350.5" y="-155" font-family="Helvetica,sans-Serif" font-size="10.00">destroy_actor</text>
</a>
</g>
</g>
<!-- Node2&#45;&gt;Node7 -->
<g id="edge6_Node000002_Node000007" class="edge">
<title>Node2&#45;&gt;Node7</title>
<g id="a_edge6_Node000002_Node000007"><a xlink:title=" ">
<path fill="none" stroke="#63b8ff" d="M244.22,-145.41C261.97,-147.45 281.23,-149.66 298.36,-151.63"/>
<polygon fill="#63b8ff" stroke="#63b8ff" points="298.38,-155.15 308.72,-152.82 299.18,-148.2 298.38,-155.15"/>
</a>
</g>
</g>
<!-- Node17 -->
<g id="Node000017" class="node">
<title>Node17</title>
<g id="a_Node000017"><a xlink:href="actors_8c.html#a53268aa601911d56424ff08fb3395bcb" target="_top" xlink:title=" ">
<polygon fill="white" stroke="#666666" points="410,-239.5 291,-239.5 291,-209.5 410,-209.5 410,-239.5"/>
<text text-anchor="start" x="299" y="-227.5" font-family="Helvetica,sans-Serif" font-size="10.00">destroy_destructable</text>
<text text-anchor="middle" x="350.5" y="-216.5" font-family="Helvetica,sans-Serif" font-size="10.00">_actor</text>
</a>
</g>
</g>
<!-- Node2&#45;&gt;Node17 -->
<g id="edge16_Node000002_Node000017" class="edge">
<title>Node2&#45;&gt;Node17</title>
<g id="a_edge16_Node000002_Node000017"><a xlink:title=" ">
<path fill="none" stroke="#63b8ff" d="M202.34,-148.03C228.5,-161.62 277.12,-186.89 311.3,-204.65"/>
<polygon fill="#63b8ff" stroke="#63b8ff" points="310.04,-207.94 320.52,-209.44 313.26,-201.73 310.04,-207.94"/>
</a>
</g>
</g>
<!-- Node22 -->
<g id="Node000022" class="node">
<title>Node22</title>
<g id="a_Node000022"><a xlink:href="external_8c.html#a2be9efc97a92e19d02aaee90d676acc1" target="_top" xlink:title=" ">
<polygon fill="white" stroke="#666666" points="743,-329 651,-329 651,-310 743,-310 743,-329"/>
<text text-anchor="middle" x="697" y="-317" font-family="Helvetica,sans-Serif" font-size="10.00">func_800C9060</text>
</a>
</g>
</g>
<!-- Node2&#45;&gt;Node22 -->
<g id="edge35_Node000002_Node000022" class="edge">
<title>Node2&#45;&gt;Node22</title>
<g id="a_edge35_Node000002_Node000022"><a xlink:title=" ">
<path fill="none" stroke="#63b8ff" d="M190.03,-148.1C203.64,-169.07 238.8,-219.4 280,-248.5 349.1,-297.3 373.93,-302.49 457,-318.5 519,-330.45 591.74,-328.55 640.55,-325.04"/>
<polygon fill="#63b8ff" stroke="#63b8ff" points="640.88,-328.52 650.59,-324.27 640.35,-321.54 640.88,-328.52"/>
</a>
</g>
</g>
<!-- Node31 -->
<g id="Node000031" class="node">
<title>Node31</title>
<g id="a_Node000031"><a xlink:href="actors__extended_8c.html#a78e98c146f1f4dd6e3608016486172a4" target="_top" xlink:title=" ">
<polygon fill="white" stroke="#666666" points="396.5,-130 304.5,-130 304.5,-111 396.5,-111 396.5,-130"/>
<text text-anchor="middle" x="350.5" y="-118" font-family="Helvetica,sans-Serif" font-size="10.00">func_802B4E30</text>
</a>
</g>
</g>
<!-- Node2&#45;&gt;Node31 -->
<g id="edge36_Node000002_Node000031" class="edge">
<title>Node2&#45;&gt;Node31</title>
<g id="a_edge36_Node000002_Node000031"><a xlink:title=" ">
<path fill="none" stroke="#63b8ff" d="M244.22,-131.95C260.52,-130.18 278.08,-128.27 294.1,-126.53"/>
<polygon fill="#63b8ff" stroke="#63b8ff" points="294.82,-129.97 304.38,-125.41 294.06,-123.01 294.82,-129.97"/>
</a>
</g>
</g>
<!-- Node32 -->
<g id="Node000032" class="node">
<title>Node32</title>
<g id="a_Node000032"><a xlink:href="math__util_8c.html#a6270d7eb2d38b9c093e61da43b7d51ff" target="_top" xlink:title=" ">
<polygon fill="white" stroke="#666666" points="396.5,-93 304.5,-93 304.5,-74 396.5,-74 396.5,-93"/>
<text text-anchor="middle" x="350.5" y="-81" font-family="Helvetica,sans-Serif" font-size="10.00">func_802B64C4</text>
</a>
</g>
</g>
<!-- Node2&#45;&gt;Node32 -->
<g id="edge37_Node000002_Node000032" class="edge">
<title>Node2&#45;&gt;Node32</title>
<g id="a_edge37_Node000002_Node000032"><a xlink:title=" ">
<path fill="none" stroke="#63b8ff" d="M207.85,-128.86C227.15,-121.23 255.1,-110.55 280,-102.5 287.2,-100.17 294.88,-97.88 302.41,-95.74"/>
<polygon fill="#63b8ff" stroke="#63b8ff" points="303.47,-99.08 312.16,-93.03 301.59,-92.34 303.47,-99.08"/>
</a>
</g>
</g>
<!-- Node35 -->
<g id="Node000035" class="node">
<title>Node35</title>
<g id="a_Node000035"><a xlink:href="math_8h.html#a37bde043e94a6f074c78f10518fb5d99" target="_top" xlink:title=" ">
<polygon fill="white" stroke="#666666" points="370,-56 331,-56 331,-37 370,-37 370,-56"/>
<text text-anchor="middle" x="350.5" y="-44" font-family="Helvetica,sans-Serif" font-size="10.00">sqrtf</text>
</a>
</g>
</g>
<!-- Node2&#45;&gt;Node35 -->
<g id="edge40_Node000002_Node000035" class="edge">
<title>Node2&#45;&gt;Node35</title>
<g id="a_edge40_Node000002_Node000035"><a xlink:title=" ">
<path fill="none" stroke="#63b8ff" d="M193.72,-128.79C210.1,-112.97 244.84,-81.7 280,-64.5 292.68,-58.29 307.75,-54.06 320.61,-51.26"/>
<polygon fill="#63b8ff" stroke="#63b8ff" points="321.66,-54.62 330.79,-49.24 320.3,-47.75 321.66,-54.62"/>
</a>
</g>
</g>
<!-- Node36 -->
<g id="Node000036" class="node">
<title>Node36</title>
<g id="a_Node000036"><a xlink:href="math__util_8c.html#a79fd07a0971ec96a3ff0801963a2fa7f" target="_top" xlink:title=" ">
<polygon fill="white" stroke="#666666" points="382.5,-19 318.5,-19 318.5,0 382.5,0 382.5,-19"/>
<text text-anchor="middle" x="350.5" y="-7" font-family="Helvetica,sans-Serif" font-size="10.00">vec3f_set</text>
</a>
</g>
</g>
<!-- Node2&#45;&gt;Node36 -->
<g id="edge41_Node000002_Node000036" class="edge">
<title>Node2&#45;&gt;Node36</title>
<g id="a_edge41_Node000002_Node000036"><a xlink:title=" ">
<path fill="none" stroke="#63b8ff" d="M189.56,-128.75C202.47,-107.01 236.71,-54.38 280,-27.5 288.57,-22.18 298.66,-18.43 308.46,-15.78"/>
<polygon fill="#63b8ff" stroke="#63b8ff" points="309.56,-19.11 318.49,-13.4 307.95,-12.3 309.56,-19.11"/>
</a>
</g>
</g>
<!-- Node4 -->
<g id="Node000004" class="node">
<title>Node4</title>
<g id="a_Node000004"><a xlink:href="collision_8c.html#ac312bf382cb40752f6b790a99e7cdcb6" target="_top" xlink:title=" ">
<polygon fill="white" stroke="#666666" points="590,-496 482,-496 482,-477 590,-477 590,-496"/>
<text text-anchor="middle" x="536" y="-484" font-family="Helvetica,sans-Serif" font-size="10.00">check_collision_yx</text>
</a>
</g>
</g>
<!-- Node3&#45;&gt;Node4 -->
<g id="edge3_Node000003_Node000004" class="edge">
<title>Node3&#45;&gt;Node4</title>
<g id="a_edge3_Node000003_Node000004"><a xlink:title=" ">
<path fill="none" stroke="#63b8ff" d="M375.53,-440.08C396.74,-448.31 428.61,-460.14 457,-468.5 464.23,-470.63 471.9,-472.66 479.49,-474.55"/>
<polygon fill="#63b8ff" stroke="#63b8ff" points="478.85,-477.99 489.39,-476.93 480.49,-471.19 478.85,-477.99"/>
</a>
</g>
</g>
<!-- Node5 -->
<g id="Node000005" class="node">
<title>Node5</title>
<g id="a_Node000005"><a xlink:href="collision_8c.html#a4b48832a90e984536a0635a016ec4f28" target="_top" xlink:title=" ">
<polygon fill="white" stroke="#666666" points="589.5,-459 482.5,-459 482.5,-440 589.5,-440 589.5,-459"/>
<text text-anchor="middle" x="536" y="-447" font-family="Helvetica,sans-Serif" font-size="10.00">check_collision_zx</text>
</a>
</g>
</g>
<!-- Node3&#45;&gt;Node5 -->
<g id="edge4_Node000003_Node000005" class="edge">
<title>Node3&#45;&gt;Node5</title>
<g id="a_edge4_Node000003_Node000005"><a xlink:title=" ">
<path fill="none" stroke="#63b8ff" d="M421.14,-437.71C437.93,-439.45 455.77,-441.3 472.23,-443"/>
<polygon fill="#63b8ff" stroke="#63b8ff" points="471.97,-446.49 482.27,-444.04 472.69,-439.53 471.97,-446.49"/>
</a>
</g>
</g>
<!-- Node6 -->
<g id="Node000006" class="node">
<title>Node6</title>
<g id="a_Node000006"><a xlink:href="collision_8c.html#a21fef964ab48191a1c0341954ef27a40" target="_top" xlink:title=" ">
<polygon fill="white" stroke="#666666" points="589.5,-422 482.5,-422 482.5,-403 589.5,-403 589.5,-422"/>
<text text-anchor="middle" x="536" y="-410" font-family="Helvetica,sans-Serif" font-size="10.00">check_collision_zy</text>
</a>
</g>
</g>
<!-- Node3&#45;&gt;Node6 -->
<g id="edge5_Node000003_Node000006" class="edge">
<title>Node3&#45;&gt;Node6</title>
<g id="a_edge5_Node000003_Node000006"><a xlink:title=" ">
<path fill="none" stroke="#63b8ff" d="M421.14,-423.67C437.93,-422.02 455.77,-420.27 472.23,-418.66"/>
<polygon fill="#63b8ff" stroke="#63b8ff" points="472.66,-422.13 482.27,-417.67 471.98,-415.17 472.66,-422.13"/>
</a>
</g>
</g>
<!-- Node8 -->
<g id="Node000008" class="node">
<title>Node8</title>
<g id="a_Node000008"><a xlink:href="actors_8c.html#a12dc3ccac4c7d8569eadac0af4fd6f9f" target="_top" xlink:title=" ">
<polygon fill="white" stroke="#666666" points="615,-127 457,-127 457,-108 615,-108 615,-127"/>
<text text-anchor="middle" x="536" y="-115" font-family="Helvetica,sans-Serif" font-size="10.00">play_sound_before_despawn</text>
</a>
</g>
</g>
<!-- Node7&#45;&gt;Node8 -->
<g id="edge7_Node000007_Node000008" class="edge">
<title>Node7&#45;&gt;Node8</title>
<g id="a_edge7_Node000007_Node000008"><a xlink:title=" ">
<path fill="none" stroke="#63b8ff" d="M392.22,-148.62C418.48,-142.9 452.91,-135.39 481.39,-129.19"/>
<polygon fill="#63b8ff" stroke="#63b8ff" points="482.16,-132.6 491.19,-127.05 480.67,-125.76 482.16,-132.6"/>
</a>
</g>
</g>
<!-- Node9 -->
<g id="Node000009" class="node">
<title>Node9</title>
<g id="a_Node000009"><a xlink:href="external_8c.html#ae72057869772019e4464c87d4e16c682" target="_top" xlink:title=" ">
<polygon fill="white" stroke="#666666" points="743,-132 651,-132 651,-113 743,-113 743,-132"/>
<text text-anchor="middle" x="697" y="-120" font-family="Helvetica,sans-Serif" font-size="10.00">func_800C99E0</text>
</a>
</g>
</g>
<!-- Node8&#45;&gt;Node9 -->
<g id="edge8_Node000008_Node000009" class="edge">
<title>Node8&#45;&gt;Node9</title>
<g id="a_edge8_Node000008_Node000009"><a xlink:title=" ">
<path fill="none" stroke="#63b8ff" d="M615.1,-119.96C623.72,-120.23 632.35,-120.5 640.61,-120.76"/>
<polygon fill="#63b8ff" stroke="#63b8ff" points="640.72,-124.26 650.83,-121.08 640.94,-117.27 640.72,-124.26"/>
</a>
</g>
</g>
<!-- Node10 -->
<g id="Node000010" class="node">
<title>Node10</title>
<g id="a_Node000010"><a xlink:href="external_8c.html#aeb87c527482a244173df36a1f3d4f446" target="_top" xlink:title=" ">
<polygon fill="white" stroke="#666666" points="871,-132 779,-132 779,-113 871,-113 871,-132"/>
<text text-anchor="middle" x="825" y="-120" font-family="Helvetica,sans-Serif" font-size="10.00">func_800C21E8</text>
</a>
</g>
</g>
<!-- Node9&#45;&gt;Node10 -->
<g id="edge9_Node000009_Node000010" class="edge">
<title>Node9&#45;&gt;Node10</title>
<g id="a_edge9_Node000009_Node000010"><a xlink:title=" ">
<path fill="none" stroke="#63b8ff" d="M743.13,-122.5C751.37,-122.5 760.04,-122.5 768.53,-122.5"/>
<polygon fill="#63b8ff" stroke="#63b8ff" points="768.76,-126 778.76,-122.5 768.76,-119 768.76,-126"/>
</a>
</g>
</g>
<!-- Node11 -->
<g id="Node000011" class="node">
<title>Node11</title>
<g id="a_Node000011"><a xlink:href="external_8c.html#a028d40421b90c38f68ebfd5acc626f2e" target="_top" xlink:title=" ">
<polygon fill="white" stroke="#666666" points="871,-169 779,-169 779,-150 871,-150 871,-169"/>
<text text-anchor="middle" x="825" y="-157" font-family="Helvetica,sans-Serif" font-size="10.00">func_800C5578</text>
</a>
</g>
</g>
<!-- Node9&#45;&gt;Node11 -->
<g id="edge10_Node000009_Node000011" class="edge">
<title>Node9&#45;&gt;Node11</title>
<g id="a_edge10_Node000009_Node000011"><a xlink:title=" ">
<path fill="none" stroke="#63b8ff" d="M730.45,-132.03C745.91,-136.57 764.6,-142.06 781.2,-146.93"/>
<polygon fill="#63b8ff" stroke="#63b8ff" points="780.64,-150.42 791.22,-149.88 782.62,-143.7 780.64,-150.42"/>
</a>
</g>
</g>
<!-- Node12 -->
<g id="Node000012" class="node">
<title>Node12</title>
<g id="a_Node000012"><a xlink:href="external_8c.html#ac0fb767de7e14a03f1bcfa53f0abd23b" target="_top" xlink:title=" ">
<polygon fill="white" stroke="#666666" points="1047,-132 907,-132 907,-113 1047,-113 1047,-132"/>
<text text-anchor="middle" x="977" y="-120" font-family="Helvetica,sans-Serif" font-size="10.00">delete_sound_from_bank</text>
</a>
</g>
</g>
<!-- Node11&#45;&gt;Node12 -->
<g id="edge11_Node000011_Node000012" class="edge">
<title>Node11&#45;&gt;Node12</title>
<g id="a_edge11_Node000011_Node000012"><a xlink:title=" ">
<path fill="none" stroke="#63b8ff" d="M864.63,-149.97C883.8,-145.24 907.16,-139.48 927.52,-134.46"/>
<polygon fill="#63b8ff" stroke="#63b8ff" points="928.37,-137.85 937.24,-132.06 926.69,-131.06 928.37,-137.85"/>
</a>
</g>
</g>
<!-- Node14 -->
<g id="Node000014" class="node">
<title>Node14</title>
<g id="a_Node000014"><a xlink:href="external_8c.html#ab83bd36e63f0f1baddcb2482b5ad31b0" target="_top" xlink:title=" ">
<polygon fill="white" stroke="#666666" points="1023.5,-206 930.5,-206 930.5,-187 1023.5,-187 1023.5,-206"/>
<text text-anchor="middle" x="977" y="-194" font-family="Helvetica,sans-Serif" font-size="10.00">func_800C41CC</text>
</a>
</g>
</g>
<!-- Node11&#45;&gt;Node14 -->
<g id="edge13_Node000011_Node000014" class="edge">
<title>Node11&#45;&gt;Node14</title>
<g id="a_edge13_Node000011_Node000014"><a xlink:title=" ">
<path fill="none" stroke="#63b8ff" d="M864.63,-169.03C883.8,-173.76 907.16,-179.52 927.52,-184.54"/>
<polygon fill="#63b8ff" stroke="#63b8ff" points="926.69,-187.94 937.24,-186.94 928.37,-181.15 926.69,-187.94"/>
</a>
</g>
</g>
<!-- Node15 -->
<g id="Node000015" class="node">
<title>Node15</title>
<g id="a_Node000015"><a xlink:href="port__eu_8c.html#aa89dfaecca46c6d071f08c1898d1f7c9" target="_top" xlink:title=" ">
<polygon fill="white" stroke="#666666" points="1023.5,-169 930.5,-169 930.5,-150 1023.5,-150 1023.5,-169"/>
<text text-anchor="middle" x="977" y="-157" font-family="Helvetica,sans-Serif" font-size="10.00">func_800CBBE8</text>
</a>
</g>
</g>
<!-- Node11&#45;&gt;Node15 -->
<g id="edge14_Node000011_Node000015" class="edge">
<title>Node11&#45;&gt;Node15</title>
<g id="a_edge14_Node000011_Node000015"><a xlink:title=" ">
<path fill="none" stroke="#63b8ff" d="M871,-159.5C886.37,-159.5 903.74,-159.5 919.86,-159.5"/>
<polygon fill="#63b8ff" stroke="#63b8ff" points="920.25,-163 930.25,-159.5 920.25,-156 920.25,-163"/>
</a>
</g>
</g>
<!-- Node13 -->
<g id="Node000013" class="node">
<title>Node13</title>
<g id="a_Node000013"><a xlink:href="external_8c.html#a358ac55e8ab5262dcae8037334be06d7" target="_top" xlink:title=" ">
<polygon fill="white" stroke="#666666" points="1175.5,-132 1083.5,-132 1083.5,-113 1175.5,-113 1175.5,-132"/>
<text text-anchor="middle" x="1129.5" y="-120" font-family="Helvetica,sans-Serif" font-size="10.00">func_800C40F0</text>
</a>
</g>
</g>
<!-- Node12&#45;&gt;Node13 -->
<g id="edge12_Node000012_Node000013" class="edge">
<title>Node12&#45;&gt;Node13</title>
<g id="a_edge12_Node000012_Node000013"><a xlink:title=" ">
<path fill="none" stroke="#63b8ff" d="M1047.08,-122.5C1055.87,-122.5 1064.78,-122.5 1073.31,-122.5"/>
<polygon fill="#63b8ff" stroke="#63b8ff" points="1073.5,-126 1083.5,-122.5 1073.5,-119 1073.5,-126"/>
</a>
</g>
</g>
<!-- Node16 -->
<g id="Node000016" class="node">
<title>Node16</title>
<g id="a_Node000016"><a xlink:href="port__eu_8c.html#af361a20d2e08f30c53a237ca481ff734" target="_top" xlink:title=" ">
<polygon fill="white" stroke="#666666" points="1176,-169 1083,-169 1083,-150 1176,-150 1176,-169"/>
<text text-anchor="middle" x="1129.5" y="-157" font-family="Helvetica,sans-Serif" font-size="10.00">func_800CBB48</text>
</a>
</g>
</g>
<!-- Node15&#45;&gt;Node16 -->
<g id="edge15_Node000015_Node000016" class="edge">
<title>Node15&#45;&gt;Node16</title>
<g id="a_edge15_Node000015_Node000016"><a xlink:title=" ">
<path fill="none" stroke="#63b8ff" d="M1023.56,-159.5C1038.96,-159.5 1056.34,-159.5 1072.46,-159.5"/>
<polygon fill="#63b8ff" stroke="#63b8ff" points="1072.83,-163 1082.83,-159.5 1072.83,-156 1072.83,-163"/>
</a>
</g>
</g>
<!-- Node18 -->
<g id="Node000018" class="node">
<title>Node18</title>
<g id="a_Node000018"><a xlink:href="Game_8cpp.html#a04c2e1c30af14b6e8354d7a9be00e39c" target="_top" xlink:title=" ">
<polygon fill="white" stroke="#666666" points="591,-385 481,-385 481,-366 591,-366 591,-385"/>
<text text-anchor="middle" x="536" y="-373" font-family="Helvetica,sans-Serif" font-size="10.00">CM_FindActorIndex</text>
</a>
</g>
</g>
<!-- Node17&#45;&gt;Node18 -->
<g id="edge17_Node000017_Node000018" class="edge">
<title>Node17&#45;&gt;Node18</title>
<g id="a_edge17_Node000017_Node000018"><a xlink:title=" ">
<path fill="none" stroke="#63b8ff" d="M367.52,-239.66C387.83,-258.67 424.18,-291.99 457,-318.5 475.11,-333.12 496.5,-348.64 512.3,-359.79"/>
<polygon fill="#63b8ff" stroke="#63b8ff" points="510.69,-362.93 520.89,-365.81 514.71,-357.2 510.69,-362.93"/>
</a>
</g>
</g>
<!-- Node20 -->
<g id="Node000020" class="node">
<title>Node20</title>
<g id="a_Node000020"><a xlink:href="code__80005FD0_8c.html#ad301b978cdd3c4cc190b10be050d51d8" target="_top" xlink:title=" ">
<polygon fill="white" stroke="#666666" points="609,-175.5 463,-175.5 463,-145.5 609,-145.5 609,-175.5"/>
<text text-anchor="start" x="471" y="-163.5" font-family="Helvetica,sans-Serif" font-size="10.00">delete_actor_in_unexpired</text>
<text text-anchor="middle" x="536" y="-152.5" font-family="Helvetica,sans-Serif" font-size="10.00">_actor_list</text>
</a>
</g>
</g>
<!-- Node17&#45;&gt;Node20 -->
<g id="edge19_Node000017_Node000020" class="edge">
<title>Node17&#45;&gt;Node20</title>
<g id="a_edge19_Node000017_Node000020"><a xlink:title=" ">
<path fill="none" stroke="#63b8ff" d="M394.52,-209.49C420.77,-200.34 454.51,-188.57 482.35,-178.86"/>
<polygon fill="#63b8ff" stroke="#63b8ff" points="483.64,-182.12 491.93,-175.52 481.33,-175.51 483.64,-182.12"/>
</a>
</g>
</g>
<!-- Node21 -->
<g id="Node000021" class="node">
<title>Node21</title>
<g id="a_Node000021"><a xlink:href="actors__extended_8c.html#ae4a15c57c04e2152938b23b9d2e2d328" target="_top" xlink:title=" ">
<polygon fill="white" stroke="#666666" points="611,-261.5 461,-261.5 461,-231.5 611,-231.5 611,-261.5"/>
<text text-anchor="start" x="469" y="-249.5" font-family="Helvetica,sans-Serif" font-size="10.00">destroy_banana_in_banana</text>
<text text-anchor="middle" x="536" y="-238.5" font-family="Helvetica,sans-Serif" font-size="10.00">_bunch</text>
</a>
</g>
</g>
<!-- Node17&#45;&gt;Node21 -->
<g id="edge20_Node000017_Node000021" class="edge">
<title>Node17&#45;&gt;Node21</title>
<g id="a_edge20_Node000017_Node000021"><a xlink:title=" ">
<path fill="none" stroke="#63b8ff" d="M410.07,-231.52C423.06,-233.08 437.09,-234.76 450.88,-236.41"/>
<polygon fill="#63b8ff" stroke="#63b8ff" points="450.52,-239.9 460.87,-237.61 451.35,-232.95 450.52,-239.9"/>
</a>
</g>
</g>
<!-- Node29 -->
<g id="Node000029" class="node">
<title>Node29</title>
<g id="a_Node000029"><a xlink:href="external_8c.html#a73831bcbe259500206651a0b4702be9f" target="_top" xlink:title=" ">
<polygon fill="white" stroke="#666666" points="743,-169 651,-169 651,-150 743,-150 743,-169"/>
<text text-anchor="middle" x="697" y="-157" font-family="Helvetica,sans-Serif" font-size="10.00">func_800C9EF4</text>
</a>
</g>
</g>
<!-- Node17&#45;&gt;Node29 -->
<g id="edge31_Node000017_Node000029" class="edge">
<title>Node17&#45;&gt;Node29</title>
<g id="a_edge31_Node000017_Node000029"><a xlink:title=" ">
<path fill="none" stroke="#63b8ff" d="M410.06,-218.14C463.77,-211.72 545.31,-200.45 615,-184.5 629.55,-181.17 645.28,-176.56 658.97,-172.2"/>
<polygon fill="#63b8ff" stroke="#63b8ff" points="660.1,-175.51 668.53,-169.09 657.94,-168.85 660.1,-175.51"/>
</a>
</g>
</g>
<!-- Node30 -->
<g id="Node000030" class="node">
<title>Node30</title>
<g id="a_Node000030"><a xlink:href="actors__extended_8c.html#a1edd6e4f2545082e3782c4ce50933c7c" target="_top" xlink:title=" ">
<polygon fill="white" stroke="#666666" points="594,-309.5 478,-309.5 478,-279.5 594,-279.5 594,-309.5"/>
<text text-anchor="start" x="486" y="-297.5" font-family="Helvetica,sans-Serif" font-size="10.00">triple_shell_actor</text>
<text text-anchor="middle" x="536" y="-286.5" font-family="Helvetica,sans-Serif" font-size="10.00">_collide_with_player</text>
</a>
</g>
</g>
<!-- Node17&#45;&gt;Node30 -->
<g id="edge34_Node000017_Node000030" class="edge">
<title>Node17&#45;&gt;Node30</title>
<g id="a_edge34_Node000017_Node000030"><a xlink:title=" ">
<path fill="none" stroke="#63b8ff" d="M383.44,-239.55C404.16,-249.03 431.89,-261.2 457,-270.5 462.23,-272.44 467.7,-274.35 473.21,-276.19"/>
<polygon fill="#63b8ff" stroke="#63b8ff" points="472.53,-279.65 483.12,-279.43 474.7,-273 472.53,-279.65"/>
</a>
</g>
</g>
<!-- Node19 -->
<g id="Node000019" class="node">
<title>Node19</title>
<g id="a_Node000019"><a xlink:href="Game_8cpp.html#ae2fa844b3cb1021ecbc357f8ed2ad8cc" target="_top" xlink:title=" ">
<polygon fill="white" stroke="#666666" points="728,-385 666,-385 666,-366 728,-366 728,-385"/>
<text text-anchor="middle" x="697" y="-373" font-family="Helvetica,sans-Serif" font-size="10.00">GetWorld</text>
</a>
</g>
</g>
<!-- Node18&#45;&gt;Node19 -->
<g id="edge18_Node000018_Node000019" class="edge">
<title>Node18&#45;&gt;Node19</title>
<g id="a_edge18_Node000018_Node000019"><a xlink:title=" ">
<path fill="none" stroke="#63b8ff" d="M591.27,-375.5C612.32,-375.5 636,-375.5 655.51,-375.5"/>
<polygon fill="#63b8ff" stroke="#63b8ff" points="655.59,-379 665.59,-375.5 655.59,-372 655.59,-379"/>
</a>
</g>
</g>
<!-- Node21&#45;&gt;Node22 -->
<g id="edge21_Node000021_Node000022" class="edge">
<title>Node21&#45;&gt;Node22</title>
<g id="a_edge21_Node000021_Node000022"><a xlink:title=" ">
<path fill="none" stroke="#63b8ff" d="M594.15,-261.56C601.32,-264.18 608.43,-267.16 615,-270.5 632.82,-279.58 633.94,-287.06 651,-297.5 655.43,-300.21 660.24,-302.85 665.02,-305.31"/>
<polygon fill="#63b8ff" stroke="#63b8ff" points="663.53,-308.48 674.04,-309.79 666.64,-302.21 663.53,-308.48"/>
</a>
</g>
</g>
<!-- Node24 -->
<g id="Node000024" class="node">
<title>Node24</title>
<g id="a_Node000024"><a xlink:href="actors__extended_8c.html#ab349562338ca47f2b524137864704d0e" target="_top" xlink:title=" ">
<polygon fill="white" stroke="#666666" points="743,-215 651,-215 651,-196 743,-196 743,-215"/>
<text text-anchor="middle" x="697" y="-203" font-family="Helvetica,sans-Serif" font-size="10.00">func_802B0464</text>
</a>
</g>
</g>
<!-- Node21&#45;&gt;Node24 -->
<g id="edge23_Node000021_Node000024" class="edge">
<title>Node21&#45;&gt;Node24</title>
<g id="a_edge23_Node000021_Node000024"><a xlink:title=" ">
<path fill="none" stroke="#63b8ff" d="M595.3,-231.47C612.92,-226.92 632.03,-222 648.82,-217.66"/>
<polygon fill="#63b8ff" stroke="#63b8ff" points="650.14,-220.94 658.95,-215.05 648.39,-214.16 650.14,-220.94"/>
</a>
</g>
</g>
<!-- Node28 -->
<g id="Node000028" class="node">
<title>Node28</title>
<g id="a_Node000028"><a xlink:href="actors__extended_8c.html#a2f342036a9e04bb583aa7cf9c08edae9" target="_top" xlink:title=" ">
<polygon fill="white" stroke="#666666" points="743,-270 651,-270 651,-251 743,-251 743,-270"/>
<text text-anchor="middle" x="697" y="-258" font-family="Helvetica,sans-Serif" font-size="10.00">func_802B04E8</text>
</a>
</g>
</g>
<!-- Node21&#45;&gt;Node28 -->
<g id="edge28_Node000021_Node000028" class="edge">
<title>Node21&#45;&gt;Node28</title>
<g id="a_edge28_Node000021_Node000028"><a xlink:title=" ">
<path fill="none" stroke="#63b8ff" d="M611.38,-253.05C621.23,-253.92 631.19,-254.79 640.64,-255.63"/>
<polygon fill="#63b8ff" stroke="#63b8ff" points="640.41,-259.12 650.68,-256.51 641.02,-252.15 640.41,-259.12"/>
</a>
</g>
</g>
<!-- Node23 -->
<g id="Node000023" class="node">
<title>Node23</title>
<g id="a_Node000023"><a xlink:href="external_8c.html#a475cff796211891556f52877cd8e9b9e" target="_top" xlink:title=" ">
<polygon fill="white" stroke="#666666" points="861,-329 789,-329 789,-310 861,-310 861,-329"/>
<text text-anchor="middle" x="825" y="-317" font-family="Helvetica,sans-Serif" font-size="10.00">play_sound</text>
</a>
</g>
</g>
<!-- Node22&#45;&gt;Node23 -->
<g id="edge22_Node000022_Node000023" class="edge">
<title>Node22&#45;&gt;Node23</title>
<g id="a_edge22_Node000022_Node000023"><a xlink:title=" ">
<path fill="none" stroke="#63b8ff" d="M743.13,-319.5C754.59,-319.5 766.92,-319.5 778.4,-319.5"/>
<polygon fill="#63b8ff" stroke="#63b8ff" points="778.66,-323 788.66,-319.5 778.66,-316 778.66,-323"/>
</a>
</g>
</g>
<!-- Node24&#45;&gt;Node24 -->
<g id="edge27_Node000024_Node000024" class="edge">
<title>Node24&#45;&gt;Node24</title>
<g id="a_edge27_Node000024_Node000024"><a xlink:title=" ">
<path fill="none" stroke="#63b8ff" d="M677.27,-215.08C667.67,-223.73 674.25,-233 697,-233 711.22,-233 719.12,-229.38 720.7,-224.55"/>
<polygon fill="#63b8ff" stroke="#63b8ff" points="723.83,-222.95 716.73,-215.08 717.37,-225.66 723.83,-222.95"/>
</a>
</g>
</g>
<!-- Node25 -->
<g id="Node000025" class="node">
<title>Node25</title>
<g id="a_Node000025"><a xlink:href="actors__extended_8c.html#a093f702b462b6657ba7ab789941ef800" target="_top" xlink:title=" ">
<polygon fill="white" stroke="#666666" points="871,-261 779,-261 779,-242 871,-242 871,-261"/>
<text text-anchor="middle" x="825" y="-249" font-family="Helvetica,sans-Serif" font-size="10.00">func_802B039C</text>
</a>
</g>
</g>
<!-- Node24&#45;&gt;Node25 -->
<g id="edge24_Node000024_Node000025" class="edge">
<title>Node24&#45;&gt;Node25</title>
<g id="a_edge24_Node000024_Node000025"><a xlink:title=" ">
<path fill="none" stroke="#63b8ff" d="M724.11,-215.03C742.69,-221.82 767.89,-231.01 788.33,-238.48"/>
<polygon fill="#63b8ff" stroke="#63b8ff" points="787.33,-241.84 797.93,-241.98 789.73,-235.26 787.33,-241.84"/>
</a>
</g>
</g>
<!-- Node26 -->
<g id="Node000026" class="node">
<title>Node26</title>
<g id="a_Node000026"><a xlink:href="math__util_8c.html#a151b63b8adf9af7e4054b3b84bd226dc" target="_top" xlink:title=" ">
<polygon fill="white" stroke="#666666" points="1013,-261 941,-261 941,-242 1013,-242 1013,-261"/>
<text text-anchor="middle" x="977" y="-249" font-family="Helvetica,sans-Serif" font-size="10.00">random_int</text>
</a>
</g>
</g>
<!-- Node25&#45;&gt;Node26 -->
<g id="edge25_Node000025_Node000026" class="edge">
<title>Node25&#45;&gt;Node26</title>
<g id="a_edge25_Node000025_Node000026"><a xlink:title=" ">
<path fill="none" stroke="#63b8ff" d="M871,-251.5C889.79,-251.5 911.58,-251.5 930.43,-251.5"/>
<polygon fill="#63b8ff" stroke="#63b8ff" points="930.56,-255 940.56,-251.5 930.56,-248 930.56,-255"/>
</a>
</g>
</g>
<!-- Node27 -->
<g id="Node000027" class="node">
<title>Node27</title>
<g id="a_Node000027"><a xlink:href="math__util_8c.html#a062850863585005ad1d0a75d9ff70693" target="_top" xlink:title=" ">
<polygon fill="white" stroke="#666666" points="1168,-261 1091,-261 1091,-242 1168,-242 1168,-261"/>
<text text-anchor="middle" x="1129.5" y="-249" font-family="Helvetica,sans-Serif" font-size="10.00">random_u16</text>
</a>
</g>
</g>
<!-- Node26&#45;&gt;Node27 -->
<g id="edge26_Node000026_Node000027" class="edge">
<title>Node26&#45;&gt;Node27</title>
<g id="a_edge26_Node000026_Node000027"><a xlink:title=" ">
<path fill="none" stroke="#63b8ff" d="M1013.29,-251.5C1033.39,-251.5 1058.85,-251.5 1080.72,-251.5"/>
<polygon fill="#63b8ff" stroke="#63b8ff" points="1080.8,-255 1090.8,-251.5 1080.8,-248 1080.8,-255"/>
</a>
</g>
</g>
<!-- Node28&#45;&gt;Node25 -->
<g id="edge29_Node000028_Node000025" class="edge">
<title>Node28&#45;&gt;Node25</title>
<g id="a_edge29_Node000028_Node000025"><a xlink:title=" ">
<path fill="none" stroke="#63b8ff" d="M743.13,-257.28C751.37,-256.69 760.04,-256.07 768.53,-255.46"/>
<polygon fill="#63b8ff" stroke="#63b8ff" points="769.03,-258.94 778.76,-254.73 768.53,-251.95 769.03,-258.94"/>
</a>
</g>
</g>
<!-- Node28&#45;&gt;Node28 -->
<g id="edge30_Node000028_Node000028" class="edge">
<title>Node28&#45;&gt;Node28</title>
<g id="a_edge30_Node000028_Node000028"><a xlink:title=" ">
<path fill="none" stroke="#63b8ff" d="M677.27,-270.08C667.67,-278.73 674.25,-288 697,-288 711.22,-288 719.12,-284.38 720.7,-279.55"/>
<polygon fill="#63b8ff" stroke="#63b8ff" points="723.83,-277.95 716.73,-270.08 717.37,-280.66 723.83,-277.95"/>
</a>
</g>
</g>
<!-- Node29&#45;&gt;Node10 -->
<g id="edge32_Node000029_Node000010" class="edge">
<title>Node29&#45;&gt;Node10</title>
<g id="a_edge32_Node000029_Node000010"><a xlink:title=" ">
<path fill="none" stroke="#63b8ff" d="M730.45,-149.97C745.91,-145.43 764.6,-139.94 781.2,-135.07"/>
<polygon fill="#63b8ff" stroke="#63b8ff" points="782.62,-138.3 791.22,-132.12 780.64,-131.58 782.62,-138.3"/>
</a>
</g>
</g>
<!-- Node29&#45;&gt;Node11 -->
<g id="edge33_Node000029_Node000011" class="edge">
<title>Node29&#45;&gt;Node11</title>
<g id="a_edge33_Node000029_Node000011"><a xlink:title=" ">
<path fill="none" stroke="#63b8ff" d="M743.13,-159.5C751.37,-159.5 760.04,-159.5 768.53,-159.5"/>
<polygon fill="#63b8ff" stroke="#63b8ff" points="768.76,-163 778.76,-159.5 768.76,-156 768.76,-163"/>
</a>
</g>
</g>
<!-- Node33 -->
<g id="Node000033" class="node">
<title>Node33</title>
<g id="a_Node000033"><a xlink:href="math__util_8c.html#ae69cbf5c8d4b3b0dba2d7b4d4673689f" target="_top" xlink:title=" ">
<polygon fill="white" stroke="#666666" points="555,-90 517,-90 517,-71 555,-71 555,-90"/>
<text text-anchor="middle" x="536" y="-78" font-family="Helvetica,sans-Serif" font-size="10.00">coss</text>
</a>
</g>
</g>
<!-- Node32&#45;&gt;Node33 -->
<g id="edge38_Node000032_Node000033" class="edge">
<title>Node32&#45;&gt;Node33</title>
<g id="a_edge38_Node000032_Node000033"><a xlink:title=" ">
<path fill="none" stroke="#63b8ff" d="M396.86,-82.76C431.12,-82.2 477.08,-81.45 506.38,-80.97"/>
<polygon fill="#63b8ff" stroke="#63b8ff" points="506.79,-84.46 516.73,-80.8 506.67,-77.46 506.79,-84.46"/>
</a>
</g>
</g>
<!-- Node34 -->
<g id="Node000034" class="node">
<title>Node34</title>
<g id="a_Node000034"><a xlink:href="math__util_8c.html#a19ed3bd78fd2d3e2bd0a29f6caf48545" target="_top" xlink:title=" ">
<polygon fill="white" stroke="#666666" points="554,-53 518,-53 518,-34 554,-34 554,-53"/>
<text text-anchor="middle" x="536" y="-41" font-family="Helvetica,sans-Serif" font-size="10.00">sins</text>
</a>
</g>
</g>
<!-- Node32&#45;&gt;Node34 -->
<g id="edge39_Node000032_Node000034" class="edge">
<title>Node32&#45;&gt;Node34</title>
<g id="a_edge39_Node000032_Node000034"><a xlink:title=" ">
<path fill="none" stroke="#63b8ff" d="M395.45,-73.92C430.39,-66.3 478.16,-55.89 507.77,-49.43"/>
<polygon fill="#63b8ff" stroke="#63b8ff" points="508.78,-52.8 517.81,-47.25 507.29,-45.96 508.78,-52.8"/>
</a>
</g>
</g>
</g>
</svg>
