<?xml version="1.0" encoding="UTF-8" standalone="no"?>
<!DOCTYPE svg PUBLIC "-//W3C//DTD SVG 1.1//EN"
 "http://www.w3.org/Graphics/SVG/1.1/DTD/svg11.dtd">
<!-- Generated by graphviz version 2.43.0 (0)
 -->
<!-- Title: OCheepCheep::func_8007BFB0 Pages: 1 -->
<svg width="640pt" height="462pt"
 viewBox="0.00 0.00 640.00 461.64" xmlns="http://www.w3.org/2000/svg" xmlns:xlink="http://www.w3.org/1999/xlink">
<g id="graph0" class="graph" transform="scale(1 1) rotate(0) translate(4 457.64)">
<title>OCheepCheep::func_8007BFB0</title>
<!-- Node1 -->
<g id="Node000001" class="node">
<title>Node1</title>
<g id="a_Node000001"><a xlink:title=" ">
<polygon fill="#999999" stroke="#666666" points="167,-209 0,-209 0,-190 167,-190 167,-209"/>
<text text-anchor="middle" x="83.5" y="-197" font-family="Helvetica,sans-Serif" font-size="10.00">OCheepCheep::func_8007BFB0</text>
</a>
</g>
</g>
<!-- Node2 -->
<g id="Node000002" class="node">
<title>Node2</title>
<g id="a_Node000002"><a xlink:href="update__objects_8c.html#a3953241e15c6372ac8944ba842148a9a" target="_top" xlink:title=" ">
<polygon fill="white" stroke="#666666" points="632,-304 533,-304 533,-285 632,-285 632,-304"/>
<text text-anchor="middle" x="582.5" y="-292" font-family="Helvetica,sans-Serif" font-size="10.00">clear_object_flag</text>
</a>
</g>
</g>
<!-- Node1&#45;&gt;Node2 -->
<g id="edge1_Node000001_Node000002" class="edge">
<title>Node1&#45;&gt;Node2</title>
<g id="a_edge1_Node000001_Node000002"><a xlink:title=" ">
<path fill="none" stroke="#63b8ff" d="M132.91,-209.01C154.37,-213.2 179.94,-218.14 203,-222.5 333.54,-247.16 366.69,-250.66 497,-276.5 506.93,-278.47 517.5,-280.65 527.68,-282.8"/>
<polygon fill="#63b8ff" stroke="#63b8ff" points="527.18,-286.27 537.69,-284.92 528.64,-279.42 527.18,-286.27"/>
</a>
</g>
</g>
<!-- Node3 -->
<g id="Node000003" class="node">
<title>Node3</title>
<g id="a_Node000003"><a xlink:href="update__objects_8c.html#a3d6e81d4571cd5c03e4ddd9d765c77bf" target="_top" xlink:title=" ">
<polygon fill="white" stroke="#666666" points="309.5,-190 218.5,-190 218.5,-171 309.5,-171 309.5,-190"/>
<text text-anchor="middle" x="264" y="-178" font-family="Helvetica,sans-Serif" font-size="10.00">func_80074344</text>
</a>
</g>
</g>
<!-- Node1&#45;&gt;Node3 -->
<g id="edge2_Node000001_Node000003" class="edge">
<title>Node1&#45;&gt;Node3</title>
<g id="a_edge2_Node000001_Node000003"><a xlink:title=" ">
<path fill="none" stroke="#63b8ff" d="M167.22,-190.7C181.03,-189.22 195.06,-187.73 207.96,-186.36"/>
<polygon fill="#63b8ff" stroke="#63b8ff" points="208.47,-189.82 218.04,-185.29 207.73,-182.86 208.47,-189.82"/>
</a>
</g>
</g>
<!-- Node6 -->
<g id="Node000006" class="node">
<title>Node6</title>
<g id="a_Node000006"><a xlink:href="code__80086E70_8c.html#acd186a6f592769b3e3db3da72fcf765f" target="_top" xlink:title=" ">
<polygon fill="white" stroke="#666666" points="474.5,-228 383.5,-228 383.5,-209 474.5,-209 474.5,-228"/>
<text text-anchor="middle" x="429" y="-216" font-family="Helvetica,sans-Serif" font-size="10.00">func_80086F60</text>
</a>
</g>
</g>
<!-- Node1&#45;&gt;Node6 -->
<g id="edge5_Node000001_Node000006" class="edge">
<title>Node1&#45;&gt;Node6</title>
<g id="a_edge5_Node000001_Node000006"><a xlink:title=" ">
<path fill="none" stroke="#63b8ff" d="M167.21,-204.08C231.13,-207.61 317.78,-212.4 373.3,-215.47"/>
<polygon fill="#63b8ff" stroke="#63b8ff" points="373.12,-218.97 383.3,-216.03 373.5,-211.98 373.12,-218.97"/>
</a>
</g>
</g>
<!-- Node7 -->
<g id="Node000007" class="node">
<title>Node7</title>
<g id="a_Node000007"><a xlink:href="code__80086E70_8c.html#a6eea48094f49bb346ce1170842d955b2" target="_top" xlink:title=" ">
<polygon fill="white" stroke="#666666" points="475,-304 383,-304 383,-285 475,-285 475,-304"/>
<text text-anchor="middle" x="429" y="-292" font-family="Helvetica,sans-Serif" font-size="10.00">func_80086FD4</text>
</a>
</g>
</g>
<!-- Node1&#45;&gt;Node7 -->
<g id="edge7_Node000001_Node000007" class="edge">
<title>Node1&#45;&gt;Node7</title>
<g id="a_edge7_Node000001_Node000007"><a xlink:title=" ">
<path fill="none" stroke="#63b8ff" d="M96.42,-209.09C116.84,-224.94 160.47,-256.26 203,-270.5 258.76,-289.17 326.23,-294.21 372.66,-295.18"/>
<polygon fill="#63b8ff" stroke="#63b8ff" points="372.77,-298.68 382.82,-295.33 372.87,-291.68 372.77,-298.68"/>
</a>
</g>
</g>
<!-- Node8 -->
<g id="Node000008" class="node">
<title>Node8</title>
<g id="a_Node000008"><a xlink:href="code__80086E70_8c.html#a64bb471d4676a52cdee8aa47e84880dd" target="_top" xlink:title=" ">
<polygon fill="white" stroke="#666666" points="309.5,-407 218.5,-407 218.5,-388 309.5,-388 309.5,-407"/>
<text text-anchor="middle" x="264" y="-395" font-family="Helvetica,sans-Serif" font-size="10.00">func_80087060</text>
</a>
</g>
</g>
<!-- Node1&#45;&gt;Node8 -->
<g id="edge9_Node000001_Node000008" class="edge">
<title>Node1&#45;&gt;Node8</title>
<g id="a_edge9_Node000001_Node000008"><a xlink:title=" ">
<path fill="none" stroke="#63b8ff" d="M90.7,-209.07C107.15,-234.11 154.06,-302.96 203,-351.5 214.29,-362.7 228.33,-373.6 239.98,-381.97"/>
<polygon fill="#63b8ff" stroke="#63b8ff" points="238.16,-384.97 248.35,-387.85 242.18,-379.24 238.16,-384.97"/>
</a>
</g>
</g>
<!-- Node11 -->
<g id="Node000011" class="node">
<title>Node11</title>
<g id="a_Node000011"><a xlink:href="code__80086E70_8c.html#a56f0505e98e37eda7af759554a41feee" target="_top" xlink:title=" ">
<polygon fill="white" stroke="#666666" points="310,-342 218,-342 218,-323 310,-323 310,-342"/>
<text text-anchor="middle" x="264" y="-330" font-family="Helvetica,sans-Serif" font-size="10.00">func_800871AC</text>
</a>
</g>
</g>
<!-- Node1&#45;&gt;Node11 -->
<g id="edge13_Node000001_Node000011" class="edge">
<title>Node1&#45;&gt;Node11</title>
<g id="a_edge13_Node000001_Node000011"><a xlink:title=" ">
<path fill="none" stroke="#63b8ff" d="M92.78,-209.21C110.89,-229.93 156.17,-279 203,-308.5 209.33,-312.49 216.43,-316.03 223.48,-319.08"/>
<polygon fill="#63b8ff" stroke="#63b8ff" points="222.39,-322.41 232.97,-322.94 225.03,-315.93 222.39,-322.41"/>
</a>
</g>
</g>
<!-- Node12 -->
<g id="Node000012" class="node">
<title>Node12</title>
<g id="a_Node000012"><a xlink:href="code__80086E70_8c.html#a04f1b5e2f622dbb93568f5cff8aaf3d5" target="_top" xlink:title=" ">
<polygon fill="white" stroke="#666666" points="321,-152.5 207,-152.5 207,-122.5 321,-122.5 321,-152.5"/>
<text text-anchor="start" x="215" y="-140.5" font-family="Helvetica,sans-Serif" font-size="10.00">object_add_velocity</text>
<text text-anchor="middle" x="264" y="-129.5" font-family="Helvetica,sans-Serif" font-size="10.00">_offset_y</text>
</a>
</g>
</g>
<!-- Node1&#45;&gt;Node12 -->
<g id="edge18_Node000001_Node000012" class="edge">
<title>Node1&#45;&gt;Node12</title>
<g id="a_edge18_Node000001_Node000012"><a xlink:title=" ">
<path fill="none" stroke="#63b8ff" d="M112,-189.95C137.97,-180.93 177.61,-167.16 209.77,-155.99"/>
<polygon fill="#63b8ff" stroke="#63b8ff" points="211.18,-159.2 219.48,-152.62 208.89,-152.59 211.18,-159.2"/>
</a>
</g>
</g>
<!-- Node13 -->
<g id="Node000013" class="node">
<title>Node13</title>
<g id="a_Node000013"><a xlink:href="code__80086E70_8c.html#a2f6ae8b384477efbc2654d6427d095f7" target="_top" xlink:title=" ">
<polygon fill="white" stroke="#666666" points="325,-104.5 203,-104.5 203,-74.5 325,-74.5 325,-104.5"/>
<text text-anchor="start" x="211" y="-92.5" font-family="Helvetica,sans-Serif" font-size="10.00">object_calculate_new</text>
<text text-anchor="middle" x="264" y="-81.5" font-family="Helvetica,sans-Serif" font-size="10.00">_pos_offset</text>
</a>
</g>
</g>
<!-- Node1&#45;&gt;Node13 -->
<g id="edge19_Node000001_Node000013" class="edge">
<title>Node1&#45;&gt;Node13</title>
<g id="a_edge19_Node000001_Node000013"><a xlink:title=" ">
<path fill="none" stroke="#63b8ff" d="M95.64,-189.95C115.92,-172.9 160.71,-136.83 203,-113.5 205.9,-111.9 208.92,-110.35 212.01,-108.86"/>
<polygon fill="#63b8ff" stroke="#63b8ff" points="213.74,-111.92 221.39,-104.58 210.84,-105.55 213.74,-111.92"/>
</a>
</g>
</g>
<!-- Node14 -->
<g id="Node000014" class="node">
<title>Node14</title>
<g id="a_Node000014"><a xlink:href="math__util__2_8c.html#a5f31a5342d28021d101edf7461a4a5e3" target="_top" xlink:title=" ">
<polygon fill="white" stroke="#666666" points="325,-56 203,-56 203,-37 325,-37 325,-56"/>
<text text-anchor="middle" x="264" y="-44" font-family="Helvetica,sans-Serif" font-size="10.00">s16_step_up_towards</text>
</a>
</g>
</g>
<!-- Node1&#45;&gt;Node14 -->
<g id="edge20_Node000001_Node000014" class="edge">
<title>Node1&#45;&gt;Node14</title>
<g id="a_edge20_Node000001_Node000014"><a xlink:title=" ">
<path fill="none" stroke="#63b8ff" d="M90.38,-189.8C105.75,-165.26 149.63,-100.21 203,-65.5 206.11,-63.47 209.46,-61.65 212.92,-60.01"/>
<polygon fill="#63b8ff" stroke="#63b8ff" points="214.4,-63.19 222.27,-56.1 211.69,-56.73 214.4,-63.19"/>
</a>
</g>
</g>
<!-- Node15 -->
<g id="Node000015" class="node">
<title>Node15</title>
<g id="a_Node000015"><a xlink:href="math__util__2_8c.html#a37da8b4baad8a893b5110622ecbeadfe" target="_top" xlink:title=" ">
<polygon fill="white" stroke="#666666" points="325,-19 203,-19 203,0 325,0 325,-19"/>
<text text-anchor="middle" x="264" y="-7" font-family="Helvetica,sans-Serif" font-size="10.00">u16_step_up_towards</text>
</a>
</g>
</g>
<!-- Node1&#45;&gt;Node15 -->
<g id="edge21_Node000001_Node000015" class="edge">
<title>Node1&#45;&gt;Node15</title>
<g id="a_edge21_Node000001_Node000015"><a xlink:title=" ">
<path fill="none" stroke="#63b8ff" d="M88.46,-189.6C100.76,-160.18 141.15,-72.55 203,-27.5 204.89,-26.12 206.89,-24.85 208.97,-23.67"/>
<polygon fill="#63b8ff" stroke="#63b8ff" points="210.95,-26.6 218.44,-19.1 207.91,-20.29 210.95,-26.6"/>
</a>
</g>
</g>
<!-- Node4 -->
<g id="Node000004" class="node">
<title>Node4</title>
<g id="a_Node000004"><a xlink:href="update__objects_8c.html#ac0f84fb76a5a0da9a3c5bfbc9d5e16b9" target="_top" xlink:title=" ">
<polygon fill="white" stroke="#666666" points="474.5,-153 383.5,-153 383.5,-134 474.5,-134 474.5,-153"/>
<text text-anchor="middle" x="429" y="-141" font-family="Helvetica,sans-Serif" font-size="10.00">func_80073F90</text>
</a>
</g>
</g>
<!-- Node3&#45;&gt;Node4 -->
<g id="edge3_Node000003_Node000004" class="edge">
<title>Node3&#45;&gt;Node4</title>
<g id="a_edge3_Node000003_Node000004"><a xlink:title=" ">
<path fill="none" stroke="#63b8ff" d="M306.98,-170.97C328,-166.2 353.65,-160.38 375.92,-155.32"/>
<polygon fill="#63b8ff" stroke="#63b8ff" points="376.91,-158.69 385.88,-153.06 375.36,-151.86 376.91,-158.69"/>
</a>
</g>
</g>
<!-- Node5 -->
<g id="Node000005" class="node">
<title>Node5</title>
<g id="a_Node000005"><a xlink:href="update__objects_8c.html#ab7e85cd0bcb0dadcf5927343374a9da9" target="_top" xlink:title=" ">
<polygon fill="white" stroke="#666666" points="474.5,-190 383.5,-190 383.5,-171 474.5,-171 474.5,-190"/>
<text text-anchor="middle" x="429" y="-178" font-family="Helvetica,sans-Serif" font-size="10.00">func_80073FAC</text>
</a>
</g>
</g>
<!-- Node3&#45;&gt;Node5 -->
<g id="edge4_Node000003_Node000005" class="edge">
<title>Node3&#45;&gt;Node5</title>
<g id="a_edge4_Node000003_Node000005"><a xlink:title=" ">
<path fill="none" stroke="#63b8ff" d="M309.54,-180.5C329.14,-180.5 352.35,-180.5 373.01,-180.5"/>
<polygon fill="#63b8ff" stroke="#63b8ff" points="373.23,-184 383.23,-180.5 373.23,-177 373.23,-184"/>
</a>
</g>
</g>
<!-- Node6&#45;&gt;Node2 -->
<g id="edge6_Node000006_Node000002" class="edge">
<title>Node6&#45;&gt;Node2</title>
<g id="a_edge6_Node000006_Node000002"><a xlink:title=" ">
<path fill="none" stroke="#63b8ff" d="M460.9,-228.07C472.44,-232.03 485.53,-236.99 497,-242.5 519.14,-253.14 542.83,-268.06 559.48,-279.19"/>
<polygon fill="#63b8ff" stroke="#63b8ff" points="557.71,-282.22 567.95,-284.93 561.64,-276.42 557.71,-282.22"/>
</a>
</g>
</g>
<!-- Node7&#45;&gt;Node2 -->
<g id="edge8_Node000007_Node000002" class="edge">
<title>Node7&#45;&gt;Node2</title>
<g id="a_edge8_Node000007_Node000002"><a xlink:title=" ">
<path fill="none" stroke="#63b8ff" d="M475.04,-294.5C490,-294.5 506.87,-294.5 522.71,-294.5"/>
<polygon fill="#63b8ff" stroke="#63b8ff" points="522.93,-298 532.93,-294.5 522.93,-291 522.93,-298"/>
</a>
</g>
</g>
<!-- Node8&#45;&gt;Node2 -->
<g id="edge10_Node000008_Node000002" class="edge">
<title>Node8&#45;&gt;Node2</title>
<g id="a_edge10_Node000008_Node000002"><a xlink:title=" ">
<path fill="none" stroke="#63b8ff" d="M281.16,-407.06C320.77,-429.13 424.76,-478.72 497,-437.5 544.03,-410.66 567.53,-346.26 576.71,-313.84"/>
<polygon fill="#63b8ff" stroke="#63b8ff" points="580.1,-314.73 579.29,-304.17 573.33,-312.93 580.1,-314.73"/>
</a>
</g>
</g>
<!-- Node9 -->
<g id="Node000009" class="node">
<title>Node9</title>
<g id="a_Node000009"><a xlink:href="update__objects_8c.html#a2301a51a93a60f0382cdc7002e14f95a" target="_top" xlink:title=" ">
<polygon fill="white" stroke="#666666" points="497,-390.5 361,-390.5 361,-360.5 497,-360.5 497,-390.5"/>
<text text-anchor="start" x="369" y="-378.5" font-family="Helvetica,sans-Serif" font-size="10.00">is_obj_index_flag_status</text>
<text text-anchor="middle" x="429" y="-367.5" font-family="Helvetica,sans-Serif" font-size="10.00">_inactive</text>
</a>
</g>
</g>
<!-- Node8&#45;&gt;Node9 -->
<g id="edge11_Node000008_Node000009" class="edge">
<title>Node8&#45;&gt;Node9</title>
<g id="a_edge11_Node000008_Node000009"><a xlink:title=" ">
<path fill="none" stroke="#63b8ff" d="M309.54,-391.49C322.28,-389.77 336.56,-387.84 350.66,-385.94"/>
<polygon fill="#63b8ff" stroke="#63b8ff" points="351.44,-389.37 360.88,-384.56 350.5,-382.43 351.44,-389.37"/>
</a>
</g>
</g>
<!-- Node10 -->
<g id="Node000010" class="node">
<title>Node10</title>
<g id="a_Node000010"><a xlink:href="update__objects_8c.html#afe64f2394ee0deab6370b77609500bda" target="_top" xlink:title=" ">
<polygon fill="white" stroke="#666666" points="474,-428 384,-428 384,-409 474,-409 474,-428"/>
<text text-anchor="middle" x="429" y="-416" font-family="Helvetica,sans-Serif" font-size="10.00">set_object_flag</text>
</a>
</g>
</g>
<!-- Node8&#45;&gt;Node10 -->
<g id="edge12_Node000008_Node000010" class="edge">
<title>Node8&#45;&gt;Node10</title>
<g id="a_edge12_Node000008_Node000010"><a xlink:title=" ">
<path fill="none" stroke="#63b8ff" d="M309.54,-403.24C329.39,-405.8 352.94,-408.83 373.8,-411.52"/>
<polygon fill="#63b8ff" stroke="#63b8ff" points="373.43,-415 383.8,-412.8 374.33,-408.06 373.43,-415"/>
</a>
</g>
</g>
<!-- Node11&#45;&gt;Node2 -->
<g id="edge14_Node000011_Node000002" class="edge">
<title>Node11&#45;&gt;Node2</title>
<g id="a_edge14_Node000011_Node000002"><a xlink:title=" ">
<path fill="none" stroke="#63b8ff" d="M310.13,-330.67C357.03,-328.33 432.48,-323.35 497,-313.5 509.19,-311.64 522.25,-309.02 534.36,-306.32"/>
<polygon fill="#63b8ff" stroke="#63b8ff" points="535.31,-309.69 544.28,-304.05 533.75,-302.87 535.31,-309.69"/>
</a>
</g>
</g>
<!-- Node11&#45;&gt;Node7 -->
<g id="edge15_Node000011_Node000007" class="edge">
<title>Node11&#45;&gt;Node7</title>
<g id="a_edge15_Node000011_Node000007"><a xlink:title=" ">
<path fill="none" stroke="#63b8ff" d="M306.13,-322.91C327.74,-317.87 354.41,-311.66 377.29,-306.32"/>
<polygon fill="#63b8ff" stroke="#63b8ff" points="378.22,-309.7 387.16,-304.02 376.63,-302.88 378.22,-309.7"/>
</a>
</g>
</g>
<!-- Node11&#45;&gt;Node9 -->
<g id="edge16_Node000011_Node000009" class="edge">
<title>Node11&#45;&gt;Node9</title>
<g id="a_edge16_Node000011_Node000009"><a xlink:title=" ">
<path fill="none" stroke="#63b8ff" d="M301.17,-342.04C318.91,-346.72 340.84,-352.51 361.45,-357.94"/>
<polygon fill="#63b8ff" stroke="#63b8ff" points="360.55,-361.33 371.12,-360.49 362.34,-354.56 360.55,-361.33"/>
</a>
</g>
</g>
<!-- Node11&#45;&gt;Node10 -->
<g id="edge17_Node000011_Node000010" class="edge">
<title>Node11&#45;&gt;Node10</title>
<g id="a_edge17_Node000011_Node000010"><a xlink:title=" ">
<path fill="none" stroke="#63b8ff" d="M276.05,-342.09C293.16,-356.47 327.58,-383.65 361,-399.5 365.92,-401.83 371.17,-403.93 376.5,-405.81"/>
<polygon fill="#63b8ff" stroke="#63b8ff" points="375.52,-409.17 386.11,-408.94 377.69,-402.51 375.52,-409.17"/>
</a>
</g>
</g>
</g>
</svg>
