<?xml version="1.0" encoding="UTF-8" standalone="no"?>
<!DOCTYPE svg PUBLIC "-//W3C//DTD SVG 1.1//EN"
 "http://www.w3.org/Graphics/SVG/1.1/DTD/svg11.dtd">
<!-- Generated by graphviz version 2.43.0 (0)
 -->
<!-- Title: OBoos::func_8007C684 Pages: 1 -->
<svg width="746pt" height="440pt"
 viewBox="0.00 0.00 746.00 440.30" xmlns="http://www.w3.org/2000/svg" xmlns:xlink="http://www.w3.org/1999/xlink">
<g id="graph0" class="graph" transform="scale(1 1) rotate(0) translate(4 436.3)">
<title>OBoos::func_8007C684</title>
<!-- Node1 -->
<g id="Node000001" class="node">
<title>Node1</title>
<g id="a_Node000001"><a xlink:title=" ">
<polygon fill="#999999" stroke="#666666" points="129,-150 0,-150 0,-131 129,-131 129,-150"/>
<text text-anchor="middle" x="64.5" y="-138" font-family="Helvetica,sans-Serif" font-size="10.00">OBoos::func_8007C684</text>
</a>
</g>
</g>
<!-- Node2 -->
<g id="Node000002" class="node">
<title>Node2</title>
<g id="a_Node000002"><a xlink:href="update__objects_8c.html#a5978ef1e35515c275f92eb79b8601d77" target="_top" xlink:title=" ">
<polygon fill="white" stroke="#666666" points="275.5,-391 184.5,-391 184.5,-372 275.5,-372 275.5,-391"/>
<text text-anchor="middle" x="230" y="-379" font-family="Helvetica,sans-Serif" font-size="10.00">func_80072428</text>
</a>
</g>
</g>
<!-- Node1&#45;&gt;Node2 -->
<g id="edge1_Node000001_Node000002" class="edge">
<title>Node1&#45;&gt;Node2</title>
<g id="a_edge1_Node000001_Node000002"><a xlink:title=" ">
<path fill="none" stroke="#63b8ff" d="M72.11,-150.25C96.87,-186.74 184.32,-315.63 216.76,-363.46"/>
<polygon fill="#63b8ff" stroke="#63b8ff" points="213.97,-365.59 222.48,-371.9 219.77,-361.66 213.97,-365.59"/>
</a>
</g>
</g>
<!-- Node3 -->
<g id="Node000003" class="node">
<title>Node3</title>
<g id="a_Node000003"><a xlink:href="code__80086E70_8c.html#acd186a6f592769b3e3db3da72fcf765f" target="_top" xlink:title=" ">
<polygon fill="white" stroke="#666666" points="430.5,-429 339.5,-429 339.5,-410 430.5,-410 430.5,-429"/>
<text text-anchor="middle" x="385" y="-417" font-family="Helvetica,sans-Serif" font-size="10.00">func_80086F60</text>
</a>
</g>
</g>
<!-- Node1&#45;&gt;Node3 -->
<g id="edge31_Node000001_Node000003" class="edge">
<title>Node1&#45;&gt;Node3</title>
<g id="a_edge31_Node000001_Node000003"><a xlink:title=" ">
<path fill="none" stroke="#63b8ff" d="M65.81,-150.1C67.63,-188.92 80.1,-335.28 165,-399.5 211.76,-434.87 281.24,-435 329.34,-429.44"/>
<polygon fill="#63b8ff" stroke="#63b8ff" points="329.79,-432.91 339.26,-428.18 328.9,-425.97 329.79,-432.91"/>
</a>
</g>
</g>
<!-- Node6 -->
<g id="Node000006" class="node">
<title>Node6</title>
<g id="a_Node000006"><a xlink:href="update__objects_8c.html#ab4348365b7e22b355e8aec1eb6f6dd9f" target="_top" xlink:title=" ">
<polygon fill="white" stroke="#666666" points="275.5,-56 184.5,-56 184.5,-37 275.5,-37 275.5,-56"/>
<text text-anchor="middle" x="230" y="-44" font-family="Helvetica,sans-Serif" font-size="10.00">func_80073514</text>
</a>
</g>
</g>
<!-- Node1&#45;&gt;Node6 -->
<g id="edge5_Node000001_Node000006" class="edge">
<title>Node1&#45;&gt;Node6</title>
<g id="a_edge5_Node000001_Node000006"><a xlink:title=" ">
<path fill="none" stroke="#63b8ff" d="M75.36,-130.87C92.31,-114.84 128.64,-82.66 165,-64.5 168.78,-62.61 172.78,-60.9 176.87,-59.35"/>
<polygon fill="#63b8ff" stroke="#63b8ff" points="178.19,-62.59 186.49,-56.01 175.9,-55.98 178.19,-62.59"/>
</a>
</g>
</g>
<!-- Node7 -->
<g id="Node000007" class="node">
<title>Node7</title>
<g id="a_Node000007"><a xlink:href="update__objects_8c.html#aed54d391817f6974dee2ebb1ecd8261f" target="_top" xlink:title=" ">
<polygon fill="white" stroke="#666666" points="275.5,-19 184.5,-19 184.5,0 275.5,0 275.5,-19"/>
<text text-anchor="middle" x="230" y="-7" font-family="Helvetica,sans-Serif" font-size="10.00">func_80073884</text>
</a>
</g>
</g>
<!-- Node1&#45;&gt;Node7 -->
<g id="edge6_Node000001_Node000007" class="edge">
<title>Node1&#45;&gt;Node7</title>
<g id="a_edge6_Node000001_Node000007"><a xlink:title=" ">
<path fill="none" stroke="#63b8ff" d="M71.15,-130.97C84.55,-109.18 120.53,-55.48 165,-27.5 168.11,-25.54 171.45,-23.79 174.89,-22.23"/>
<polygon fill="#63b8ff" stroke="#63b8ff" points="176.22,-25.47 184.21,-18.51 173.62,-18.97 176.22,-25.47"/>
</a>
</g>
</g>
<!-- Node8 -->
<g id="Node000008" class="node">
<title>Node8</title>
<g id="a_Node000008"><a xlink:href="update__objects_8c.html#a3424f0cd86ecd47a2234ff137e6f7099" target="_top" xlink:title=" ">
<polygon fill="white" stroke="#666666" points="275.5,-93 184.5,-93 184.5,-74 275.5,-74 275.5,-93"/>
<text text-anchor="middle" x="230" y="-81" font-family="Helvetica,sans-Serif" font-size="10.00">func_80073998</text>
</a>
</g>
</g>
<!-- Node1&#45;&gt;Node8 -->
<g id="edge7_Node000001_Node000008" class="edge">
<title>Node1&#45;&gt;Node8</title>
<g id="a_edge7_Node000001_Node000008"><a xlink:title=" ">
<path fill="none" stroke="#63b8ff" d="M92.87,-130.96C119.98,-121.51 161.71,-106.96 191.82,-96.46"/>
<polygon fill="#63b8ff" stroke="#63b8ff" points="193.25,-99.67 201.54,-93.07 190.95,-93.06 193.25,-99.67"/>
</a>
</g>
</g>
<!-- Node12 -->
<g id="Node000012" class="node">
<title>Node12</title>
<g id="a_Node000012"><a xlink:href="update__objects_8c.html#ac31769d6520eb620744212bb98a35c67" target="_top" xlink:title=" ">
<polygon fill="white" stroke="#666666" points="276,-169 184,-169 184,-150 276,-150 276,-169"/>
<text text-anchor="middle" x="230" y="-157" font-family="Helvetica,sans-Serif" font-size="10.00">func_80073CB0</text>
</a>
</g>
</g>
<!-- Node1&#45;&gt;Node12 -->
<g id="edge11_Node000001_Node000012" class="edge">
<title>Node1&#45;&gt;Node12</title>
<g id="a_edge11_Node000001_Node000012"><a xlink:title=" ">
<path fill="none" stroke="#63b8ff" d="M129.18,-147.9C143.9,-149.61 159.44,-151.42 173.77,-153.08"/>
<polygon fill="#63b8ff" stroke="#63b8ff" points="173.61,-156.59 183.95,-154.26 174.42,-149.63 173.61,-156.59"/>
</a>
</g>
</g>
<!-- Node14 -->
<g id="Node000014" class="node">
<title>Node14</title>
<g id="a_Node000014"><a xlink:href="update__objects_8c.html#a5ff4e49864e7c44e4b717c33c585b0bd" target="_top" xlink:title=" ">
<polygon fill="white" stroke="#666666" points="431.5,-94 338.5,-94 338.5,-75 431.5,-75 431.5,-94"/>
<text text-anchor="middle" x="385" y="-82" font-family="Helvetica,sans-Serif" font-size="10.00">func_80073DC0</text>
</a>
</g>
</g>
<!-- Node1&#45;&gt;Node14 -->
<g id="edge15_Node000001_Node000014" class="edge">
<title>Node1&#45;&gt;Node14</title>
<g id="a_edge15_Node000001_Node000014"><a xlink:title=" ">
<path fill="none" stroke="#63b8ff" d="M123.56,-130.97C170,-123.27 236.73,-112.01 295,-101.5 305.79,-99.55 317.29,-97.41 328.33,-95.31"/>
<polygon fill="#63b8ff" stroke="#63b8ff" points="329.13,-98.72 338.3,-93.41 327.82,-91.85 329.13,-98.72"/>
</a>
</g>
</g>
<!-- Node15 -->
<g id="Node000015" class="node">
<title>Node15</title>
<g id="a_Node000015"><a xlink:href="classOBoos.html#a186ed6315077567455c3f8cb258223c9" target="_top" xlink:title=" ">
<polygon fill="white" stroke="#666666" points="295,-242 165,-242 165,-223 295,-223 295,-242"/>
<text text-anchor="middle" x="230" y="-230" font-family="Helvetica,sans-Serif" font-size="10.00">OBoos::func_8007C5B4</text>
</a>
</g>
</g>
<!-- Node1&#45;&gt;Node15 -->
<g id="edge18_Node000001_Node000015" class="edge">
<title>Node1&#45;&gt;Node15</title>
<g id="a_edge18_Node000001_Node000015"><a xlink:title=" ">
<path fill="none" stroke="#63b8ff" d="M82.69,-150.17C111.47,-166.36 169.55,-199.05 203.23,-218"/>
<polygon fill="#63b8ff" stroke="#63b8ff" points="201.61,-221.1 212.04,-222.96 205.04,-215 201.61,-221.1"/>
</a>
</g>
</g>
<!-- Node2&#45;&gt;Node3 -->
<g id="edge2_Node000002_Node000003" class="edge">
<title>Node2&#45;&gt;Node3</title>
<g id="a_edge2_Node000002_Node000003"><a xlink:title=" ">
<path fill="none" stroke="#63b8ff" d="M269.61,-391.09C289.71,-396.08 314.48,-402.23 335.82,-407.53"/>
<polygon fill="#63b8ff" stroke="#63b8ff" points="335.12,-410.97 345.67,-409.98 336.81,-404.17 335.12,-410.97"/>
</a>
</g>
</g>
<!-- Node5 -->
<g id="Node000005" class="node">
<title>Node5</title>
<g id="a_Node000005"><a xlink:href="update__objects_8c.html#af20e3f3c403dd4fbea56e358997e515a" target="_top" xlink:title=" ">
<polygon fill="white" stroke="#666666" points="603,-391 475,-391 475,-372 603,-372 603,-391"/>
<text text-anchor="middle" x="539" y="-379" font-family="Helvetica,sans-Serif" font-size="10.00">set_object_timer_state</text>
</a>
</g>
</g>
<!-- Node2&#45;&gt;Node5 -->
<g id="edge4_Node000002_Node000005" class="edge">
<title>Node2&#45;&gt;Node5</title>
<g id="a_edge4_Node000002_Node000005"><a xlink:title=" ">
<path fill="none" stroke="#63b8ff" d="M275.64,-381.5C325.14,-381.5 405.74,-381.5 464.57,-381.5"/>
<polygon fill="#63b8ff" stroke="#63b8ff" points="464.91,-385 474.91,-381.5 464.91,-378 464.91,-385"/>
</a>
</g>
</g>
<!-- Node4 -->
<g id="Node000004" class="node">
<title>Node4</title>
<g id="a_Node000004"><a xlink:href="update__objects_8c.html#a3953241e15c6372ac8944ba842148a9a" target="_top" xlink:title=" ">
<polygon fill="white" stroke="#666666" points="738,-353 639,-353 639,-334 738,-334 738,-353"/>
<text text-anchor="middle" x="688.5" y="-341" font-family="Helvetica,sans-Serif" font-size="10.00">clear_object_flag</text>
</a>
</g>
</g>
<!-- Node3&#45;&gt;Node4 -->
<g id="edge3_Node000003_Node000004" class="edge">
<title>Node3&#45;&gt;Node4</title>
<g id="a_edge3_Node000003_Node000004"><a xlink:title=" ">
<path fill="none" stroke="#63b8ff" d="M430.57,-421.65C475.41,-422.39 545.9,-419.61 603,-399.5 627.93,-390.72 652.69,-372.97 668.9,-359.79"/>
<polygon fill="#63b8ff" stroke="#63b8ff" points="671.56,-362.13 676.98,-353.03 667.06,-356.77 671.56,-362.13"/>
</a>
</g>
</g>
<!-- Node9 -->
<g id="Node000009" class="node">
<title>Node9</title>
<g id="a_Node000009"><a xlink:href="update__objects_8c.html#a0f4949805141ff89ea7116729e80a7ec" target="_top" xlink:title=" ">
<polygon fill="white" stroke="#666666" points="431,-57 339,-57 339,-38 431,-38 431,-57"/>
<text text-anchor="middle" x="385" y="-45" font-family="Helvetica,sans-Serif" font-size="10.00">func_800738A8</text>
</a>
</g>
</g>
<!-- Node8&#45;&gt;Node9 -->
<g id="edge8_Node000008_Node000009" class="edge">
<title>Node8&#45;&gt;Node9</title>
<g id="a_edge8_Node000008_Node000009"><a xlink:title=" ">
<path fill="none" stroke="#63b8ff" d="M271.6,-73.95C290.61,-69.47 313.44,-64.1 333.55,-59.37"/>
<polygon fill="#63b8ff" stroke="#63b8ff" points="334.54,-62.73 343.48,-57.03 332.94,-55.92 334.54,-62.73"/>
</a>
</g>
</g>
<!-- Node10 -->
<g id="Node000010" class="node">
<title>Node10</title>
<g id="a_Node000010"><a xlink:href="update__objects_8c.html#a350ec2cc42f1fa42cda82e830e6dc1c6" target="_top" xlink:title=" ">
<polygon fill="white" stroke="#666666" points="584.5,-131 493.5,-131 493.5,-112 584.5,-112 584.5,-131"/>
<text text-anchor="middle" x="539" y="-119" font-family="Helvetica,sans-Serif" font-size="10.00">func_80073800</text>
</a>
</g>
</g>
<!-- Node9&#45;&gt;Node10 -->
<g id="edge9_Node000009_Node000010" class="edge">
<title>Node9&#45;&gt;Node10</title>
<g id="a_edge9_Node000009_Node000010"><a xlink:title=" ">
<path fill="none" stroke="#63b8ff" d="M421.84,-57.08C427.8,-59.39 433.74,-62.18 439,-65.5 458.4,-77.75 455.39,-90.59 475,-102.5 478.57,-104.67 482.4,-106.61 486.36,-108.33"/>
<polygon fill="#63b8ff" stroke="#63b8ff" points="485.13,-111.61 495.72,-111.99 487.68,-105.09 485.13,-111.61"/>
</a>
</g>
</g>
<!-- Node11 -->
<g id="Node000011" class="node">
<title>Node11</title>
<g id="a_Node000011"><a xlink:href="update__objects_8c.html#a95b88653b438ce0326cfae9fc910bb68" target="_top" xlink:title=" ">
<polygon fill="white" stroke="#666666" points="585,-94 493,-94 493,-75 585,-75 585,-94"/>
<text text-anchor="middle" x="539" y="-82" font-family="Helvetica,sans-Serif" font-size="10.00">func_8007381C</text>
</a>
</g>
</g>
<!-- Node9&#45;&gt;Node11 -->
<g id="edge10_Node000009_Node000011" class="edge">
<title>Node9&#45;&gt;Node11</title>
<g id="a_edge10_Node000009_Node000011"><a xlink:title=" ">
<path fill="none" stroke="#63b8ff" d="M425.14,-57.03C444.57,-61.76 468.24,-67.52 488.87,-72.54"/>
<polygon fill="#63b8ff" stroke="#63b8ff" points="488.18,-75.98 498.72,-74.94 489.84,-69.17 488.18,-75.98"/>
</a>
</g>
</g>
<!-- Node13 -->
<g id="Node000013" class="node">
<title>Node13</title>
<g id="a_Node000013"><a xlink:href="update__objects_8c.html#a394360d128db360e999e096566bffa94" target="_top" xlink:title=" ">
<polygon fill="white" stroke="#666666" points="431,-131 339,-131 339,-112 431,-112 431,-131"/>
<text text-anchor="middle" x="385" y="-119" font-family="Helvetica,sans-Serif" font-size="10.00">func_80073B78</text>
</a>
</g>
</g>
<!-- Node12&#45;&gt;Node13 -->
<g id="edge12_Node000012_Node000013" class="edge">
<title>Node12&#45;&gt;Node13</title>
<g id="a_edge12_Node000012_Node000013"><a xlink:title=" ">
<path fill="none" stroke="#63b8ff" d="M269.61,-149.91C289.71,-144.92 314.48,-138.77 335.82,-133.47"/>
<polygon fill="#63b8ff" stroke="#63b8ff" points="336.81,-136.83 345.67,-131.02 335.12,-130.03 336.81,-136.83"/>
</a>
</g>
</g>
<!-- Node13&#45;&gt;Node10 -->
<g id="edge13_Node000013_Node000010" class="edge">
<title>Node13&#45;&gt;Node10</title>
<g id="a_edge13_Node000013_Node000010"><a xlink:title=" ">
<path fill="none" stroke="#63b8ff" d="M431.19,-121.5C447.43,-121.5 465.92,-121.5 482.9,-121.5"/>
<polygon fill="#63b8ff" stroke="#63b8ff" points="483.24,-125 493.24,-121.5 483.24,-118 483.24,-125"/>
</a>
</g>
</g>
<!-- Node13&#45;&gt;Node11 -->
<g id="edge14_Node000013_Node000011" class="edge">
<title>Node13&#45;&gt;Node11</title>
<g id="a_edge14_Node000013_Node000011"><a xlink:title=" ">
<path fill="none" stroke="#63b8ff" d="M425.14,-111.97C444.57,-107.24 468.24,-101.48 488.87,-96.46"/>
<polygon fill="#63b8ff" stroke="#63b8ff" points="489.84,-99.83 498.72,-94.06 488.18,-93.02 489.84,-99.83"/>
</a>
</g>
</g>
<!-- Node14&#45;&gt;Node10 -->
<g id="edge16_Node000014_Node000010" class="edge">
<title>Node14&#45;&gt;Node10</title>
<g id="a_edge16_Node000014_Node000010"><a xlink:title=" ">
<path fill="none" stroke="#63b8ff" d="M425.14,-94.03C444.57,-98.76 468.24,-104.52 488.87,-109.54"/>
<polygon fill="#63b8ff" stroke="#63b8ff" points="488.18,-112.98 498.72,-111.94 489.84,-106.17 488.18,-112.98"/>
</a>
</g>
</g>
<!-- Node14&#45;&gt;Node11 -->
<g id="edge17_Node000014_Node000011" class="edge">
<title>Node14&#45;&gt;Node11</title>
<g id="a_edge17_Node000014_Node000011"><a xlink:title=" ">
<path fill="none" stroke="#63b8ff" d="M431.61,-84.5C447.68,-84.5 465.93,-84.5 482.72,-84.5"/>
<polygon fill="#63b8ff" stroke="#63b8ff" points="482.95,-88 492.95,-84.5 482.95,-81 482.95,-88"/>
</a>
</g>
</g>
<!-- Node16 -->
<g id="Node000016" class="node">
<title>Node16</title>
<g id="a_Node000016"><a xlink:href="update__objects_8c.html#a0aaa4739dd54cd55d7a899ba26205257" target="_top" xlink:title=" ">
<polygon fill="white" stroke="#666666" points="430.5,-168 339.5,-168 339.5,-149 430.5,-149 430.5,-168"/>
<text text-anchor="middle" x="385" y="-156" font-family="Helvetica,sans-Serif" font-size="10.00">func_80073844</text>
</a>
</g>
</g>
<!-- Node15&#45;&gt;Node16 -->
<g id="edge19_Node000015_Node000016" class="edge">
<title>Node15&#45;&gt;Node16</title>
<g id="a_edge19_Node000015_Node000016"><a xlink:title=" ">
<path fill="none" stroke="#63b8ff" d="M246.14,-222.87C265.34,-210.92 299.74,-190.42 331,-176.5 334.89,-174.77 339.01,-173.1 343.16,-171.52"/>
<polygon fill="#63b8ff" stroke="#63b8ff" points="344.59,-174.73 352.81,-168.03 342.21,-168.14 344.59,-174.73"/>
</a>
</g>
</g>
<!-- Node17 -->
<g id="Node000017" class="node">
<title>Node17</title>
<g id="a_Node000017"><a xlink:href="update__objects_8c.html#a366e3924d8c014db8aec3b3f128158f8" target="_top" xlink:title=" ">
<polygon fill="white" stroke="#666666" points="431,-205 339,-205 339,-186 431,-186 431,-205"/>
<text text-anchor="middle" x="385" y="-193" font-family="Helvetica,sans-Serif" font-size="10.00">func_80073FD4</text>
</a>
</g>
</g>
<!-- Node15&#45;&gt;Node17 -->
<g id="edge21_Node000015_Node000017" class="edge">
<title>Node15&#45;&gt;Node17</title>
<g id="a_edge21_Node000015_Node000017"><a xlink:title=" ">
<path fill="none" stroke="#63b8ff" d="M270.4,-222.97C289.96,-218.24 313.78,-212.48 334.55,-207.46"/>
<polygon fill="#63b8ff" stroke="#63b8ff" points="335.57,-210.81 344.47,-205.06 333.92,-204.01 335.57,-210.81"/>
</a>
</g>
</g>
<!-- Node19 -->
<g id="Node000019" class="node">
<title>Node19</title>
<g id="a_Node000019"><a xlink:href="code__80086E70_8c.html#a79b65858840f21f273d4c8fe80b56fe5" target="_top" xlink:title=" ">
<polygon fill="white" stroke="#666666" points="430.5,-242 339.5,-242 339.5,-223 430.5,-223 430.5,-242"/>
<text text-anchor="middle" x="385" y="-230" font-family="Helvetica,sans-Serif" font-size="10.00">func_80086EF0</text>
</a>
</g>
</g>
<!-- Node15&#45;&gt;Node19 -->
<g id="edge23_Node000015_Node000019" class="edge">
<title>Node15&#45;&gt;Node19</title>
<g id="a_edge23_Node000015_Node000019"><a xlink:title=" ">
<path fill="none" stroke="#63b8ff" d="M295.44,-232.5C306.58,-232.5 318.07,-232.5 328.93,-232.5"/>
<polygon fill="#63b8ff" stroke="#63b8ff" points="329.13,-236 339.13,-232.5 329.13,-229 329.13,-236"/>
</a>
</g>
</g>
<!-- Node21 -->
<g id="Node000021" class="node">
<title>Node21</title>
<g id="a_Node000021"><a xlink:href="update__objects_8c.html#add0bf98084e3359319c40487d800d428" target="_top" xlink:title=" ">
<polygon fill="white" stroke="#666666" points="439,-279 331,-279 331,-260 439,-260 439,-279"/>
<text text-anchor="middle" x="385" y="-267" font-family="Helvetica,sans-Serif" font-size="10.00">init_texture_object</text>
</a>
</g>
</g>
<!-- Node15&#45;&gt;Node21 -->
<g id="edge26_Node000015_Node000021" class="edge">
<title>Node15&#45;&gt;Node21</title>
<g id="a_edge26_Node000015_Node000021"><a xlink:title=" ">
<path fill="none" stroke="#63b8ff" d="M270.4,-242.03C289.96,-246.76 313.78,-252.52 334.55,-257.54"/>
<polygon fill="#63b8ff" stroke="#63b8ff" points="333.92,-260.99 344.47,-259.94 335.57,-254.19 333.92,-260.99"/>
</a>
</g>
</g>
<!-- Node22 -->
<g id="Node000022" class="node">
<title>Node22</title>
<g id="a_Node000022"><a xlink:href="update__objects_8c.html#a8bfc5f5c7034d61b534e14f325b6e399" target="_top" xlink:title=" ">
<polygon fill="white" stroke="#666666" points="437,-353 333,-353 333,-334 437,-334 437,-353"/>
<text text-anchor="middle" x="385" y="-341" font-family="Helvetica,sans-Serif" font-size="10.00">object_next_state</text>
</a>
</g>
</g>
<!-- Node15&#45;&gt;Node22 -->
<g id="edge27_Node000015_Node000022" class="edge">
<title>Node15&#45;&gt;Node22</title>
<g id="a_edge27_Node000015_Node000022"><a xlink:title=" ">
<path fill="none" stroke="#63b8ff" d="M239.11,-242.19C254.99,-260.61 292.04,-300.94 331,-324.5 334.34,-326.52 337.93,-328.37 341.6,-330.06"/>
<polygon fill="#63b8ff" stroke="#63b8ff" points="340.25,-333.29 350.83,-333.92 342.95,-326.83 340.25,-333.29"/>
</a>
</g>
</g>
<!-- Node23 -->
<g id="Node000023" class="node">
<title>Node23</title>
<g id="a_Node000023"><a xlink:href="update__objects_8c.html#afe64f2394ee0deab6370b77609500bda" target="_top" xlink:title=" ">
<polygon fill="white" stroke="#666666" points="430,-316 340,-316 340,-297 430,-297 430,-316"/>
<text text-anchor="middle" x="385" y="-304" font-family="Helvetica,sans-Serif" font-size="10.00">set_object_flag</text>
</a>
</g>
</g>
<!-- Node15&#45;&gt;Node23 -->
<g id="edge30_Node000015_Node000023" class="edge">
<title>Node15&#45;&gt;Node23</title>
<g id="a_edge30_Node000015_Node000023"><a xlink:title=" ">
<path fill="none" stroke="#63b8ff" d="M246.54,-242.06C265.87,-253.71 300.11,-273.58 331,-287.5 335.5,-289.53 340.28,-291.49 345.06,-293.34"/>
<polygon fill="#63b8ff" stroke="#63b8ff" points="344.19,-296.76 354.79,-296.96 346.64,-290.2 344.19,-296.76"/>
</a>
</g>
</g>
<!-- Node16&#45;&gt;Node10 -->
<g id="edge20_Node000016_Node000010" class="edge">
<title>Node16&#45;&gt;Node10</title>
<g id="a_edge20_Node000016_Node000010"><a xlink:title=" ">
<path fill="none" stroke="#63b8ff" d="M425.14,-148.97C444.57,-144.24 468.24,-138.48 488.87,-133.46"/>
<polygon fill="#63b8ff" stroke="#63b8ff" points="489.84,-136.83 498.72,-131.06 488.18,-130.02 489.84,-136.83"/>
</a>
</g>
</g>
<!-- Node18 -->
<g id="Node000018" class="node">
<title>Node18</title>
<g id="a_Node000018"><a xlink:href="update__objects_8c.html#ac0f84fb76a5a0da9a3c5bfbc9d5e16b9" target="_top" xlink:title=" ">
<polygon fill="white" stroke="#666666" points="584.5,-205 493.5,-205 493.5,-186 584.5,-186 584.5,-205"/>
<text text-anchor="middle" x="539" y="-193" font-family="Helvetica,sans-Serif" font-size="10.00">func_80073F90</text>
</a>
</g>
</g>
<!-- Node17&#45;&gt;Node18 -->
<g id="edge22_Node000017_Node000018" class="edge">
<title>Node17&#45;&gt;Node18</title>
<g id="a_edge22_Node000017_Node000018"><a xlink:title=" ">
<path fill="none" stroke="#63b8ff" d="M431.19,-195.5C447.43,-195.5 465.92,-195.5 482.9,-195.5"/>
<polygon fill="#63b8ff" stroke="#63b8ff" points="483.24,-199 493.24,-195.5 483.24,-192 483.24,-199"/>
</a>
</g>
</g>
<!-- Node20 -->
<g id="Node000020" class="node">
<title>Node20</title>
<g id="a_Node000020"><a xlink:href="code__80086E70_8c.html#ad844d2fe27c3f0bb5979715fae72559a" target="_top" xlink:title=" ">
<polygon fill="white" stroke="#666666" points="584.5,-279 493.5,-279 493.5,-260 584.5,-260 584.5,-279"/>
<text text-anchor="middle" x="539" y="-267" font-family="Helvetica,sans-Serif" font-size="10.00">func_80086E70</text>
</a>
</g>
</g>
<!-- Node19&#45;&gt;Node20 -->
<g id="edge24_Node000019_Node000020" class="edge">
<title>Node19&#45;&gt;Node20</title>
<g id="a_edge24_Node000019_Node000020"><a xlink:title=" ">
<path fill="none" stroke="#63b8ff" d="M425.14,-242.03C444.57,-246.76 468.24,-252.52 488.87,-257.54"/>
<polygon fill="#63b8ff" stroke="#63b8ff" points="488.18,-260.98 498.72,-259.94 489.84,-254.17 488.18,-260.98"/>
</a>
</g>
</g>
<!-- Node20&#45;&gt;Node4 -->
<g id="edge25_Node000020_Node000004" class="edge">
<title>Node20&#45;&gt;Node4</title>
<g id="a_edge25_Node000020_Node000004"><a xlink:title=" ">
<path fill="none" stroke="#63b8ff" d="M558.98,-279.02C584.4,-291.77 629.69,-314.5 659.16,-329.28"/>
<polygon fill="#63b8ff" stroke="#63b8ff" points="657.62,-332.42 668.12,-333.78 660.75,-326.17 657.62,-332.42"/>
</a>
</g>
</g>
<!-- Node22&#45;&gt;Node4 -->
<g id="edge28_Node000022_Node000004" class="edge">
<title>Node22&#45;&gt;Node4</title>
<g id="a_edge28_Node000022_Node000004"><a xlink:title=" ">
<path fill="none" stroke="#63b8ff" d="M437.15,-343.5C490.13,-343.5 572.83,-343.5 628.53,-343.5"/>
<polygon fill="#63b8ff" stroke="#63b8ff" points="628.61,-347 638.61,-343.5 628.61,-340 628.61,-347"/>
</a>
</g>
</g>
<!-- Node22&#45;&gt;Node5 -->
<g id="edge29_Node000022_Node000005" class="edge">
<title>Node22&#45;&gt;Node5</title>
<g id="a_edge29_Node000022_Node000005"><a xlink:title=" ">
<path fill="none" stroke="#63b8ff" d="M424.36,-353.09C444.32,-358.08 468.93,-364.23 490.13,-369.53"/>
<polygon fill="#63b8ff" stroke="#63b8ff" points="489.37,-372.95 499.92,-371.98 491.07,-366.16 489.37,-372.95"/>
</a>
</g>
</g>
</g>
</svg>
