<?xml version="1.0" encoding="UTF-8" standalone="no"?>
<!DOCTYPE svg PUBLIC "-//W3C//DTD SVG 1.1//EN"
 "http://www.w3.org/Graphics/SVG/1.1/DTD/svg11.dtd">
<!-- Generated by graphviz version 2.43.0 (0)
 -->
<!-- Title: KoopaTroopaBeach::Load Pages: 1 -->
<svg width="1103pt" height="387pt"
 viewBox="0.00 0.00 1103.00 387.00" xmlns="http://www.w3.org/2000/svg" xmlns:xlink="http://www.w3.org/1999/xlink">
<g id="graph0" class="graph" transform="scale(1 1) rotate(0) translate(4 383)">
<title>KoopaTroopaBeach::Load</title>
<!-- Node1 -->
<g id="Node000001" class="node">
<title>Node1</title>
<g id="a_Node000001"><a xlink:title=" ">
<polygon fill="#999999" stroke="#666666" points="138,-165 0,-165 0,-146 138,-146 138,-165"/>
<text text-anchor="middle" x="69" y="-153" font-family="Helvetica,sans-Serif" font-size="10.00">KoopaTroopaBeach::Load</text>
</a>
</g>
</g>
<!-- Node2 -->
<g id="Node000002" class="node">
<title>Node2</title>
<g id="a_Node000002"><a xlink:href="collision_8c.html#a7fe1ddc7a4c312ab8f9519229963450b" target="_top" xlink:title=" ">
<polygon fill="white" stroke="#666666" points="525.5,-323 385.5,-323 385.5,-304 525.5,-304 525.5,-323"/>
<text text-anchor="middle" x="455.5" y="-311" font-family="Helvetica,sans-Serif" font-size="10.00">find_vtx_and_set_colours</text>
</a>
</g>
</g>
<!-- Node1&#45;&gt;Node2 -->
<g id="edge1_Node000001_Node000002" class="edge">
<title>Node1&#45;&gt;Node2</title>
<g id="a_edge1_Node000001_Node000002"><a xlink:title=" ">
<path fill="none" stroke="#63b8ff" d="M80.74,-165.16C98.77,-180.93 136.83,-212.26 174,-230.5 246.08,-265.87 336.12,-289.21 394.44,-301.89"/>
<polygon fill="#63b8ff" stroke="#63b8ff" points="393.72,-305.32 404.23,-303.98 395.18,-298.47 393.72,-305.32"/>
</a>
</g>
</g>
<!-- Node7 -->
<g id="Node000007" class="node">
<title>Node7</title>
<g id="a_Node000007"><a xlink:href="render__courses_8c.html#ab02cdf6684f984a12e7388fe973bc89a" target="_top" xlink:title=" ">
<polygon fill="white" stroke="#666666" points="302.5,-110 210.5,-110 210.5,-91 302.5,-91 302.5,-110"/>
<text text-anchor="middle" x="256.5" y="-98" font-family="Helvetica,sans-Serif" font-size="10.00">func_80295C6C</text>
</a>
</g>
</g>
<!-- Node1&#45;&gt;Node7 -->
<g id="edge8_Node000001_Node000007" class="edge">
<title>Node1&#45;&gt;Node7</title>
<g id="a_edge8_Node000001_Node000007"><a xlink:title=" ">
<path fill="none" stroke="#63b8ff" d="M95.41,-145.87C116.32,-138.15 146.83,-127.35 174,-119.5 182.71,-116.98 192.02,-114.56 201.12,-112.35"/>
<polygon fill="#63b8ff" stroke="#63b8ff" points="201.95,-115.74 210.87,-110.02 200.33,-108.94 201.95,-115.74"/>
</a>
</g>
</g>
<!-- Node12 -->
<g id="Node000012" class="node">
<title>Node12</title>
<g id="a_Node000012"><a xlink:href="Track_8cpp.html#a0406803b8f06bfcaf7e1bd3ad2ab2e12" target="_top" xlink:title=" ">
<polygon fill="white" stroke="#666666" points="339,-147 174,-147 174,-128 339,-128 339,-147"/>
<text text-anchor="middle" x="256.5" y="-135" font-family="Helvetica,sans-Serif" font-size="10.00">InvertTriangleWindingByName</text>
</a>
</g>
</g>
<!-- Node1&#45;&gt;Node12 -->
<g id="edge13_Node000001_Node000012" class="edge">
<title>Node1&#45;&gt;Node12</title>
<g id="a_edge13_Node000001_Node000012"><a xlink:title=" ">
<path fill="none" stroke="#63b8ff" d="M138.02,-148.9C146.42,-148.08 155.11,-147.24 163.79,-146.4"/>
<polygon fill="#63b8ff" stroke="#63b8ff" points="164.33,-149.86 173.95,-145.41 163.66,-142.9 164.33,-149.86"/>
</a>
</g>
</g>
<!-- Node16 -->
<g id="Node000016" class="node">
<title>Node16</title>
<g id="a_Node000016"><a xlink:href="render__courses_8c.html#ac97a07076b3e301db5da93c0fe8f0500" target="_top" xlink:title=" ">
<polygon fill="white" stroke="#666666" points="323.5,-221 189.5,-221 189.5,-202 323.5,-202 323.5,-221"/>
<text text-anchor="middle" x="256.5" y="-209" font-family="Helvetica,sans-Serif" font-size="10.00">parse_track_displaylists</text>
</a>
</g>
</g>
<!-- Node1&#45;&gt;Node16 -->
<g id="edge19_Node000001_Node000016" class="edge">
<title>Node1&#45;&gt;Node16</title>
<g id="a_edge19_Node000001_Node000016"><a xlink:title=" ">
<path fill="none" stroke="#63b8ff" d="M101.89,-165.13C133,-174.52 180.47,-188.85 214.4,-199.09"/>
<polygon fill="#63b8ff" stroke="#63b8ff" points="213.44,-202.46 224.03,-202 215.47,-195.76 213.44,-202.46"/>
</a>
</g>
</g>
<!-- Node2&#45;&gt;Node2 -->
<g id="edge2_Node000002_Node000002" class="edge">
<title>Node2&#45;&gt;Node2</title>
<g id="a_edge2_Node000002_Node000002"><a xlink:title=" ">
<path fill="none" stroke="#63b8ff" d="M426.22,-323.08C411.97,-331.73 421.73,-341 455.5,-341 478.72,-341 490.59,-336.62 491.11,-331.07"/>
<polygon fill="#63b8ff" stroke="#63b8ff" points="493.73,-328.75 484.78,-323.08 488.25,-333.1 493.73,-328.75"/>
</a>
</g>
</g>
<!-- Node3 -->
<g id="Node000003" class="node">
<title>Node3</title>
<g id="a_Node000003"><a xlink:href="Engine_8cpp.html#a223c8bc63f228dc11177515e38eff2db" target="_top" xlink:title=" ">
<polygon fill="white" stroke="#666666" points="721,-305 572,-305 572,-286 721,-286 721,-305"/>
<text text-anchor="middle" x="646.5" y="-293" font-family="Helvetica,sans-Serif" font-size="10.00">GameEngine_OTRSigCheck</text>
</a>
</g>
</g>
<!-- Node2&#45;&gt;Node3 -->
<g id="edge3_Node000002_Node000003" class="edge">
<title>Node2&#45;&gt;Node3</title>
<g id="a_edge3_Node000002_Node000003"><a xlink:title=" ">
<path fill="none" stroke="#63b8ff" d="M525.54,-306.93C537.32,-305.8 549.67,-304.63 561.78,-303.47"/>
<polygon fill="#63b8ff" stroke="#63b8ff" points="562.26,-306.94 571.88,-302.51 561.59,-299.98 562.26,-306.94"/>
</a>
</g>
</g>
<!-- Node5 -->
<g id="Node000005" class="node">
<title>Node5</title>
<g id="a_Node000005"><a xlink:href="collision_8c.html#a2419eefe1cdba5b280babacc4a15fc6c" target="_top" xlink:title=" ">
<polygon fill="white" stroke="#666666" points="682,-342 611,-342 611,-323 682,-323 682,-342"/>
<text text-anchor="middle" x="646.5" y="-330" font-family="Helvetica,sans-Serif" font-size="10.00">is_cull_box</text>
</a>
</g>
</g>
<!-- Node2&#45;&gt;Node5 -->
<g id="edge5_Node000002_Node000005" class="edge">
<title>Node2&#45;&gt;Node5</title>
<g id="a_edge5_Node000002_Node000005"><a xlink:title=" ">
<path fill="none" stroke="#63b8ff" d="M525.54,-320.44C550.57,-322.96 578.18,-325.73 600.6,-327.99"/>
<polygon fill="#63b8ff" stroke="#63b8ff" points="600.52,-331.5 610.82,-329.01 601.22,-324.53 600.52,-331.5"/>
</a>
</g>
</g>
<!-- Node6 -->
<g id="Node000006" class="node">
<title>Node6</title>
<g id="a_Node000006"><a xlink:href="collision_8c.html#ae34213badc2dd781cab43c88b1e3fdce" target="_top" xlink:title=" ">
<polygon fill="white" stroke="#666666" points="701,-379 592,-379 592,-360 701,-360 701,-379"/>
<text text-anchor="middle" x="646.5" y="-367" font-family="Helvetica,sans-Serif" font-size="10.00">set_vertex_colours</text>
</a>
</g>
</g>
<!-- Node2&#45;&gt;Node6 -->
<g id="edge7_Node000002_Node000006" class="edge">
<title>Node2&#45;&gt;Node6</title>
<g id="a_edge7_Node000002_Node000006"><a xlink:title=" ">
<path fill="none" stroke="#63b8ff" d="M483.39,-323C506.68,-331.08 541.36,-342.72 572,-351.5 579.2,-353.56 586.84,-355.6 594.36,-357.52"/>
<polygon fill="#63b8ff" stroke="#63b8ff" points="593.59,-360.93 604.15,-359.97 595.29,-354.14 593.59,-360.93"/>
</a>
</g>
</g>
<!-- Node4 -->
<g id="Node000004" class="node">
<title>Node4</title>
<g id="a_Node000004"><a xlink:href="string_8c.html#a008e171a518fe0e0352f31b245e03875" target="_top" xlink:title=" ">
<polygon fill="white" stroke="#666666" points="845,-323 801,-323 801,-304 845,-304 845,-323"/>
<text text-anchor="middle" x="823" y="-311" font-family="Helvetica,sans-Serif" font-size="10.00">strlen</text>
</a>
</g>
</g>
<!-- Node3&#45;&gt;Node4 -->
<g id="edge4_Node000003_Node000004" class="edge">
<title>Node3&#45;&gt;Node4</title>
<g id="a_edge4_Node000003_Node000004"><a xlink:title=" ">
<path fill="none" stroke="#63b8ff" d="M721.25,-303.11C745.58,-305.62 771.35,-308.27 790.73,-310.27"/>
<polygon fill="#63b8ff" stroke="#63b8ff" points="790.49,-313.77 800.79,-311.31 791.2,-306.8 790.49,-313.77"/>
</a>
</g>
</g>
<!-- Node5&#45;&gt;Node4 -->
<g id="edge6_Node000005_Node000004" class="edge">
<title>Node5&#45;&gt;Node4</title>
<g id="a_edge6_Node000005_Node000004"><a xlink:title=" ">
<path fill="none" stroke="#63b8ff" d="M682.39,-328.7C714.07,-325.25 760.35,-320.21 790.81,-316.9"/>
<polygon fill="#63b8ff" stroke="#63b8ff" points="791.32,-320.36 800.88,-315.8 790.56,-313.4 791.32,-320.36"/>
</a>
</g>
</g>
<!-- Node8 -->
<g id="Node000008" class="node">
<title>Node8</title>
<g id="a_Node000008"><a xlink:href="collision_8c.html#aa1116ededb9ebc0ee976259f02fe2a4e" target="_top" xlink:title=" ">
<polygon fill="white" stroke="#666666" points="520.5,-71 390.5,-71 390.5,-52 520.5,-52 520.5,-71"/>
<text text-anchor="middle" x="455.5" y="-59" font-family="Helvetica,sans-Serif" font-size="10.00">generate_collision_grid</text>
</a>
</g>
</g>
<!-- Node7&#45;&gt;Node8 -->
<g id="edge9_Node000007_Node000008" class="edge">
<title>Node7&#45;&gt;Node8</title>
<g id="a_edge9_Node000007_Node000008"><a xlink:title=" ">
<path fill="none" stroke="#63b8ff" d="M302.7,-91.55C330.56,-86.04 366.56,-78.91 396.51,-72.98"/>
<polygon fill="#63b8ff" stroke="#63b8ff" points="397.29,-76.39 406.42,-71.02 395.93,-69.53 397.29,-76.39"/>
</a>
</g>
</g>
<!-- Node9 -->
<g id="Node000009" class="node">
<title>Node9</title>
<g id="a_Node000009"><a xlink:href="collision_8c.html#a4e4ec74302aec60828a8d271390f7631" target="_top" xlink:title=" ">
<polygon fill="white" stroke="#666666" points="712,-45.5 581,-45.5 581,-15.5 712,-15.5 712,-45.5"/>
<text text-anchor="start" x="589" y="-33.5" font-family="Helvetica,sans-Serif" font-size="10.00">is_triangle_intersecting</text>
<text text-anchor="middle" x="646.5" y="-22.5" font-family="Helvetica,sans-Serif" font-size="10.00">_bounding_box</text>
</a>
</g>
</g>
<!-- Node8&#45;&gt;Node9 -->
<g id="edge10_Node000008_Node000009" class="edge">
<title>Node8&#45;&gt;Node9</title>
<g id="a_edge10_Node000008_Node000009"><a xlink:title=" ">
<path fill="none" stroke="#63b8ff" d="M514.49,-51.99C532.24,-49.08 552.03,-45.83 570.73,-42.76"/>
<polygon fill="#63b8ff" stroke="#63b8ff" points="571.39,-46.2 580.69,-41.13 570.26,-39.29 571.39,-46.2"/>
</a>
</g>
</g>
<!-- Node10 -->
<g id="Node000010" class="node">
<title>Node10</title>
<g id="a_Node000010"><a xlink:href="collision_8c.html#a7ef4f800cb44ad39ca233d0c76ce039a" target="_top" xlink:title=" ">
<polygon fill="white" stroke="#666666" points="878.5,-67.5 767.5,-67.5 767.5,-37.5 878.5,-37.5 878.5,-67.5"/>
<text text-anchor="start" x="775.5" y="-55.5" font-family="Helvetica,sans-Serif" font-size="10.00">is_line_intersecting</text>
<text text-anchor="middle" x="823" y="-44.5" font-family="Helvetica,sans-Serif" font-size="10.00">_rectangle</text>
</a>
</g>
</g>
<!-- Node9&#45;&gt;Node10 -->
<g id="edge11_Node000009_Node000010" class="edge">
<title>Node9&#45;&gt;Node10</title>
<g id="a_edge11_Node000009_Node000010"><a xlink:title=" ">
<path fill="none" stroke="#63b8ff" d="M712.48,-38.69C727.12,-40.54 742.66,-42.5 757.3,-44.34"/>
<polygon fill="#63b8ff" stroke="#63b8ff" points="756.9,-47.82 767.26,-45.6 757.77,-40.88 756.9,-47.82"/>
</a>
</g>
</g>
<!-- Node11 -->
<g id="Node000011" class="node">
<title>Node11</title>
<g id="a_Node000011"><a xlink:href="collision_8c.html#a7edd3f38403de0388af87355d4daf611" target="_top" xlink:title=" ">
<polygon fill="white" stroke="#666666" points="889,-19 757,-19 757,0 889,0 889,-19"/>
<text text-anchor="middle" x="823" y="-7" font-family="Helvetica,sans-Serif" font-size="10.00">is_point_inside_triangle</text>
</a>
</g>
</g>
<!-- Node9&#45;&gt;Node11 -->
<g id="edge12_Node000009_Node000011" class="edge">
<title>Node9&#45;&gt;Node11</title>
<g id="a_edge12_Node000009_Node000011"><a xlink:title=" ">
<path fill="none" stroke="#63b8ff" d="M712.48,-22.68C723.72,-21.33 735.49,-19.91 746.97,-18.53"/>
<polygon fill="#63b8ff" stroke="#63b8ff" points="747.46,-22 756.97,-17.33 746.62,-15.05 747.46,-22"/>
</a>
</g>
</g>
<!-- Node13 -->
<g id="Node000013" class="node">
<title>Node13</title>
<g id="a_Node000013"><a xlink:href="Track_8cpp.html#ad29b2b4706dd79c5d6239851b61530d4" target="_top" xlink:title=" ">
<polygon fill="white" stroke="#666666" points="536,-129 375,-129 375,-110 536,-110 536,-129"/>
<text text-anchor="middle" x="455.5" y="-117" font-family="Helvetica,sans-Serif" font-size="10.00">InvertTriangleWindingInternal</text>
</a>
</g>
</g>
<!-- Node12&#45;&gt;Node13 -->
<g id="edge14_Node000012_Node000013" class="edge">
<title>Node12&#45;&gt;Node13</title>
<g id="a_edge14_Node000012_Node000013"><a xlink:title=" ">
<path fill="none" stroke="#63b8ff" d="M339.05,-130.05C347.57,-129.27 356.27,-128.48 364.87,-127.69"/>
<polygon fill="#63b8ff" stroke="#63b8ff" points="365.27,-131.17 374.91,-126.77 364.64,-124.2 365.27,-131.17"/>
</a>
</g>
</g>
<!-- Node13&#45;&gt;Node3 -->
<g id="edge15_Node000013_Node000003" class="edge">
<title>Node13&#45;&gt;Node3</title>
<g id="a_edge15_Node000013_Node000003"><a xlink:title=" ">
<path fill="none" stroke="#63b8ff" d="M467.65,-129.21C484.14,-144 515.32,-173.61 536,-203.5 556.81,-233.58 543.54,-254.53 572,-277.5 573.57,-278.77 575.22,-279.95 576.93,-281.05"/>
<polygon fill="#63b8ff" stroke="#63b8ff" points="575.46,-284.23 585.92,-285.9 578.78,-278.07 575.46,-284.23"/>
</a>
</g>
</g>
<!-- Node13&#45;&gt;Node13 -->
<g id="edge16_Node000013_Node000013" class="edge">
<title>Node13&#45;&gt;Node13</title>
<g id="a_edge16_Node000013_Node000013"><a xlink:title=" ">
<path fill="none" stroke="#63b8ff" d="M426.22,-129.08C411.97,-137.73 421.73,-147 455.5,-147 478.72,-147 490.59,-142.62 491.11,-137.07"/>
<polygon fill="#63b8ff" stroke="#63b8ff" points="493.73,-134.75 484.78,-129.08 488.25,-139.1 493.73,-134.75"/>
</a>
</g>
</g>
<!-- Node14 -->
<g id="Node000014" class="node">
<title>Node14</title>
<g id="a_Node000014"><a xlink:href="Track_8cpp.html#ab01e041d195d4b8a1029c8b9532b0600" target="_top" xlink:title=" ">
<polygon fill="white" stroke="#666666" points="687.5,-120 605.5,-120 605.5,-101 687.5,-101 687.5,-120"/>
<text text-anchor="middle" x="646.5" y="-108" font-family="Helvetica,sans-Serif" font-size="10.00">StripOtrPrefix</text>
</a>
</g>
</g>
<!-- Node13&#45;&gt;Node14 -->
<g id="edge17_Node000013_Node000014" class="edge">
<title>Node13&#45;&gt;Node14</title>
<g id="a_edge17_Node000013_Node000014"><a xlink:title=" ">
<path fill="none" stroke="#63b8ff" d="M536.11,-115.71C556.19,-114.75 577.19,-113.75 595.36,-112.89"/>
<polygon fill="#63b8ff" stroke="#63b8ff" points="595.59,-116.38 605.42,-112.41 595.26,-109.39 595.59,-116.38"/>
</a>
</g>
</g>
<!-- Node15 -->
<g id="Node000015" class="node">
<title>Node15</title>
<g id="a_Node000015"><a xlink:href="Track_8cpp.html#a5bae290668f6b484d13626d67e16cc3f" target="_top" xlink:title=" ">
<polygon fill="white" stroke="#666666" points="706.5,-83 586.5,-83 586.5,-64 706.5,-64 706.5,-83"/>
<text text-anchor="middle" x="646.5" y="-71" font-family="Helvetica,sans-Serif" font-size="10.00">SwapTriangleVertices</text>
</a>
</g>
</g>
<!-- Node13&#45;&gt;Node15 -->
<g id="edge18_Node000013_Node000015" class="edge">
<title>Node13&#45;&gt;Node15</title>
<g id="a_edge18_Node000013_Node000015"><a xlink:title=" ">
<path fill="none" stroke="#63b8ff" d="M495.66,-109.97C524.93,-102.85 565.14,-93.06 596.53,-85.42"/>
<polygon fill="#63b8ff" stroke="#63b8ff" points="597.5,-88.78 606.39,-83.02 595.85,-81.98 597.5,-88.78"/>
</a>
</g>
</g>
<!-- Node17 -->
<g id="Node000017" class="node">
<title>Node17</title>
<g id="a_Node000017"><a xlink:href="collision_8c.html#a3081198f925be148fc9f05897a3bddd3" target="_top" xlink:title=" ">
<polygon fill="white" stroke="#666666" points="524.5,-231 386.5,-231 386.5,-212 524.5,-212 524.5,-231"/>
<text text-anchor="middle" x="455.5" y="-219" font-family="Helvetica,sans-Serif" font-size="10.00">generate_collision_mesh</text>
</a>
</g>
</g>
<!-- Node16&#45;&gt;Node17 -->
<g id="edge20_Node000016_Node000017" class="edge">
<title>Node16&#45;&gt;Node17</title>
<g id="a_edge20_Node000016_Node000017"><a xlink:title=" ">
<path fill="none" stroke="#63b8ff" d="M323.65,-214.86C340.47,-215.71 358.7,-216.64 376.07,-217.52"/>
<polygon fill="#63b8ff" stroke="#63b8ff" points="376.01,-221.02 386.17,-218.03 376.36,-214.03 376.01,-221.02"/>
</a>
</g>
</g>
<!-- Node17&#45;&gt;Node3 -->
<g id="edge21_Node000017_Node000003" class="edge">
<title>Node17&#45;&gt;Node3</title>
<g id="a_edge21_Node000017_Node000003"><a xlink:title=" ">
<path fill="none" stroke="#63b8ff" d="M473.23,-231.01C495.27,-243.21 535.52,-264.36 572,-277.5 577.84,-279.6 584.03,-281.54 590.24,-283.31"/>
<polygon fill="#63b8ff" stroke="#63b8ff" points="589.4,-286.71 599.96,-285.94 591.22,-279.95 589.4,-286.71"/>
</a>
</g>
</g>
<!-- Node17&#45;&gt;Node5 -->
<g id="edge23_Node000017_Node000005" class="edge">
<title>Node17&#45;&gt;Node5</title>
<g id="a_edge23_Node000017_Node000005"><a xlink:title=" ">
<path fill="none" stroke="#63b8ff" d="M465.38,-231.04C483.54,-249.94 527,-292.26 572,-314.5 580.92,-318.91 590.99,-322.28 600.75,-324.85"/>
<polygon fill="#63b8ff" stroke="#63b8ff" points="600.21,-328.32 610.75,-327.24 601.84,-321.51 600.21,-328.32"/>
</a>
</g>
</g>
<!-- Node17&#45;&gt;Node17 -->
<g id="edge22_Node000017_Node000017" class="edge">
<title>Node17&#45;&gt;Node17</title>
<g id="a_edge22_Node000017_Node000017"><a xlink:title=" ">
<path fill="none" stroke="#63b8ff" d="M426.22,-231.08C411.97,-239.73 421.73,-249 455.5,-249 478.72,-249 490.59,-244.62 491.11,-239.07"/>
<polygon fill="#63b8ff" stroke="#63b8ff" points="493.73,-236.75 484.78,-231.08 488.25,-241.1 493.73,-236.75"/>
</a>
</g>
</g>
<!-- Node18 -->
<g id="Node000018" class="node">
<title>Node18</title>
<g id="a_Node000018"><a xlink:href="collision_8c.html#a30eb531df39ba558cd733e1d1cd6aaa0" target="_top" xlink:title=" ">
<polygon fill="white" stroke="#666666" points="689.5,-268 603.5,-268 603.5,-249 689.5,-249 689.5,-268"/>
<text text-anchor="middle" x="646.5" y="-256" font-family="Helvetica,sans-Serif" font-size="10.00">set_vtx_buffer</text>
</a>
</g>
</g>
<!-- Node17&#45;&gt;Node18 -->
<g id="edge24_Node000017_Node000018" class="edge">
<title>Node17&#45;&gt;Node18</title>
<g id="a_edge24_Node000017_Node000018"><a xlink:title=" ">
<path fill="none" stroke="#63b8ff" d="M505.17,-231.03C532.25,-236.33 565.96,-242.93 593.55,-248.33"/>
<polygon fill="#63b8ff" stroke="#63b8ff" points="592.93,-251.77 603.41,-250.26 594.27,-244.9 592.93,-251.77"/>
</a>
</g>
</g>
<!-- Node19 -->
<g id="Node000019" class="node">
<title>Node19</title>
<g id="a_Node000019"><a xlink:href="collision_8c.html#a593833ca3f04f0c7d8f5dcabe6430115" target="_top" xlink:title=" ">
<polygon fill="white" stroke="#666666" points="717,-231 576,-231 576,-212 717,-212 717,-231"/>
<text text-anchor="middle" x="646.5" y="-219" font-family="Helvetica,sans-Serif" font-size="10.00">set_vtx_from_quadrangle</text>
</a>
</g>
</g>
<!-- Node17&#45;&gt;Node19 -->
<g id="edge25_Node000017_Node000019" class="edge">
<title>Node17&#45;&gt;Node19</title>
<g id="a_edge25_Node000017_Node000019"><a xlink:title=" ">
<path fill="none" stroke="#63b8ff" d="M524.73,-221.5C537.96,-221.5 551.94,-221.5 565.5,-221.5"/>
<polygon fill="#63b8ff" stroke="#63b8ff" points="565.78,-225 575.78,-221.5 565.78,-218 565.78,-225"/>
</a>
</g>
</g>
<!-- Node23 -->
<g id="Node000023" class="node">
<title>Node23</title>
<g id="a_Node000023"><a xlink:href="collision_8c.html#ac558a6e1314f154bbf53aaf15396ea1e" target="_top" xlink:title=" ">
<polygon fill="white" stroke="#666666" points="698,-194 595,-194 595,-175 698,-175 698,-194"/>
<text text-anchor="middle" x="646.5" y="-182" font-family="Helvetica,sans-Serif" font-size="10.00">set_vtx_from_tri2</text>
</a>
</g>
</g>
<!-- Node17&#45;&gt;Node23 -->
<g id="edge29_Node000017_Node000023" class="edge">
<title>Node17&#45;&gt;Node23</title>
<g id="a_edge29_Node000017_Node000023"><a xlink:title=" ">
<path fill="none" stroke="#63b8ff" d="M505.17,-211.97C530.1,-207.09 560.63,-201.11 586.85,-195.98"/>
<polygon fill="#63b8ff" stroke="#63b8ff" points="587.52,-199.42 596.66,-194.06 586.18,-192.55 587.52,-199.42"/>
</a>
</g>
</g>
<!-- Node24 -->
<g id="Node000024" class="node">
<title>Node24</title>
<g id="a_Node000024"><a xlink:href="collision_8c.html#a335dc7fed8a2540ca0a5b0a466545845" target="_top" xlink:title=" ">
<polygon fill="white" stroke="#666666" points="708.5,-157 584.5,-157 584.5,-138 708.5,-138 708.5,-157"/>
<text text-anchor="middle" x="646.5" y="-145" font-family="Helvetica,sans-Serif" font-size="10.00">set_vtx_from_triangle</text>
</a>
</g>
</g>
<!-- Node17&#45;&gt;Node24 -->
<g id="edge31_Node000017_Node000024" class="edge">
<title>Node17&#45;&gt;Node24</title>
<g id="a_edge31_Node000017_Node000024"><a xlink:title=" ">
<path fill="none" stroke="#63b8ff" d="M474.05,-211.84C496.3,-199.89 536.1,-179.55 572,-166.5 578.73,-164.05 585.91,-161.79 593.05,-159.74"/>
<polygon fill="#63b8ff" stroke="#63b8ff" points="594,-163.11 602.71,-157.09 592.14,-156.36 594,-163.11"/>
</a>
</g>
</g>
<!-- Node20 -->
<g id="Node000020" class="node">
<title>Node20</title>
<g id="a_Node000020"><a xlink:href="collision_8c.html#a8c516edee107b39b30bb3a4d3c54534a" target="_top" xlink:title=" ">
<polygon fill="white" stroke="#666666" points="884.5,-194 761.5,-194 761.5,-175 884.5,-175 884.5,-194"/>
<text text-anchor="middle" x="823" y="-182" font-family="Helvetica,sans-Serif" font-size="10.00">add_collision_triangle</text>
</a>
</g>
</g>
<!-- Node19&#45;&gt;Node20 -->
<g id="edge26_Node000019_Node000020" class="edge">
<title>Node19&#45;&gt;Node20</title>
<g id="a_edge26_Node000019_Node000020"><a xlink:title=" ">
<path fill="none" stroke="#63b8ff" d="M692.44,-211.97C715.15,-207.16 742.9,-201.27 766.89,-196.19"/>
<polygon fill="#63b8ff" stroke="#63b8ff" points="767.85,-199.56 776.91,-194.06 766.4,-192.71 767.85,-199.56"/>
</a>
</g>
</g>
<!-- Node21 -->
<g id="Node000021" class="node">
<title>Node21</title>
<g id="a_Node000021"><a xlink:href="RaceManager_8cpp.html#a693bf81394ee91ac6be58f7481471619" target="_top" xlink:title=" ">
<polygon fill="white" stroke="#666666" points="1095,-212 925,-212 925,-193 1095,-193 1095,-212"/>
<text text-anchor="middle" x="1010" y="-200" font-family="Helvetica,sans-Serif" font-size="10.00">add_triangle_to_collision_mesh</text>
</a>
</g>
</g>
<!-- Node20&#45;&gt;Node21 -->
<g id="edge27_Node000020_Node000021" class="edge">
<title>Node20&#45;&gt;Node21</title>
<g id="a_edge27_Node000020_Node000021"><a xlink:title=" ">
<path fill="none" stroke="#63b8ff" d="M884.58,-190.39C894.22,-191.33 904.39,-192.32 914.59,-193.31"/>
<polygon fill="#63b8ff" stroke="#63b8ff" points="914.49,-196.82 924.78,-194.31 915.17,-189.85 914.49,-196.82"/>
</a>
</g>
</g>
<!-- Node22 -->
<g id="Node000022" class="node">
<title>Node22</title>
<g id="a_Node000022"><a xlink:href="math_8h.html#a37bde043e94a6f074c78f10518fb5d99" target="_top" xlink:title=" ">
<polygon fill="white" stroke="#666666" points="1029.5,-175 990.5,-175 990.5,-156 1029.5,-156 1029.5,-175"/>
<text text-anchor="middle" x="1010" y="-163" font-family="Helvetica,sans-Serif" font-size="10.00">sqrtf</text>
</a>
</g>
</g>
<!-- Node20&#45;&gt;Node22 -->
<g id="edge28_Node000020_Node000022" class="edge">
<title>Node20&#45;&gt;Node22</title>
<g id="a_edge28_Node000020_Node000022"><a xlink:title=" ">
<path fill="none" stroke="#63b8ff" d="M884.58,-178.28C916.66,-174.98 954.59,-171.09 980.07,-168.47"/>
<polygon fill="#63b8ff" stroke="#63b8ff" points="980.58,-171.94 990.17,-167.43 979.86,-164.97 980.58,-171.94"/>
</a>
</g>
</g>
<!-- Node23&#45;&gt;Node20 -->
<g id="edge30_Node000023_Node000020" class="edge">
<title>Node23&#45;&gt;Node20</title>
<g id="a_edge30_Node000023_Node000020"><a xlink:title=" ">
<path fill="none" stroke="#63b8ff" d="M698.44,-184.5C714.92,-184.5 733.51,-184.5 751.17,-184.5"/>
<polygon fill="#63b8ff" stroke="#63b8ff" points="751.43,-188 761.43,-184.5 751.43,-181 751.43,-188"/>
</a>
</g>
</g>
<!-- Node24&#45;&gt;Node20 -->
<g id="edge32_Node000024_Node000020" class="edge">
<title>Node24&#45;&gt;Node20</title>
<g id="a_edge32_Node000024_Node000020"><a xlink:title=" ">
<path fill="none" stroke="#63b8ff" d="M692.44,-157.03C715.15,-161.84 742.9,-167.73 766.89,-172.81"/>
<polygon fill="#63b8ff" stroke="#63b8ff" points="766.4,-176.29 776.91,-174.94 767.85,-169.44 766.4,-176.29"/>
</a>
</g>
</g>
</g>
</svg>
