<?xml version="1.0" encoding="UTF-8" standalone="no"?>
<!DOCTYPE svg PUBLIC "-//W3C//DTD SVG 1.1//EN"
 "http://www.w3.org/Graphics/SVG/1.1/DTD/svg11.dtd">
<!-- Generated by graphviz version 2.43.0 (0)
 -->
<!-- Title: OFlagpole::func_80055164 Pages: 1 -->
<svg width="1407pt" height="343pt"
 viewBox="0.00 0.00 1407.00 343.00" xmlns="http://www.w3.org/2000/svg" xmlns:xlink="http://www.w3.org/1999/xlink">
<g id="graph0" class="graph" transform="scale(1 1) rotate(0) translate(4 339)">
<title>OFlagpole::func_80055164</title>
<!-- Node1 -->
<g id="Node000001" class="node">
<title>Node1</title>
<g id="a_Node000001"><a xlink:title=" ">
<polygon fill="#999999" stroke="#666666" points="146,-255 0,-255 0,-236 146,-236 146,-255"/>
<text text-anchor="middle" x="73" y="-243" font-family="Helvetica,sans-Serif" font-size="10.00">OFlagpole::func_80055164</text>
</a>
</g>
</g>
<!-- Node2 -->
<g id="Node000002" class="node">
<title>Node2</title>
<g id="a_Node000002"><a xlink:href="GBIMiddleware_8cpp.html#a4ecc44e3c6f1ca5a6b4a20c41d3bd2d2" target="_top" xlink:title=" ">
<polygon fill="white" stroke="#666666" points="823.5,-331 734.5,-331 734.5,-312 823.5,-312 823.5,-331"/>
<text text-anchor="middle" x="779" y="-319" font-family="Helvetica,sans-Serif" font-size="10.00">gSPDisplayList</text>
</a>
</g>
</g>
<!-- Node1&#45;&gt;Node2 -->
<g id="edge1_Node000001_Node000002" class="edge">
<title>Node1&#45;&gt;Node2</title>
<g id="a_edge1_Node000001_Node000002"><a xlink:title=" ">
<path fill="none" stroke="#63b8ff" d="M123.34,-255.02C141.7,-258.35 162.76,-261.89 182,-264.5 381.37,-291.53 619.96,-310.27 724.5,-317.8"/>
<polygon fill="#63b8ff" stroke="#63b8ff" points="724.27,-321.3 734.49,-318.52 724.77,-314.31 724.27,-321.3"/>
</a>
</g>
</g>
<!-- Node5 -->
<g id="Node000005" class="node">
<title>Node5</title>
<g id="a_Node000005"><a xlink:href="animation_8c.html#add052983781b2a8bac8cdd8080d5eaa8" target="_top" xlink:title=" ">
<polygon fill="white" stroke="#666666" points="318,-255 182,-255 182,-236 318,-236 318,-255"/>
<text text-anchor="middle" x="250" y="-243" font-family="Helvetica,sans-Serif" font-size="10.00">render_animated_model</text>
</a>
</g>
</g>
<!-- Node1&#45;&gt;Node5 -->
<g id="edge4_Node000001_Node000005" class="edge">
<title>Node1&#45;&gt;Node5</title>
<g id="a_edge4_Node000001_Node000005"><a xlink:title=" ">
<path fill="none" stroke="#63b8ff" d="M146.19,-245.5C154.56,-245.5 163.12,-245.5 171.55,-245.5"/>
<polygon fill="#63b8ff" stroke="#63b8ff" points="171.75,-249 181.75,-245.5 171.75,-242 171.75,-249"/>
</a>
</g>
</g>
<!-- Node20 -->
<g id="Node000020" class="node">
<title>Node20</title>
<g id="a_Node000020"><a xlink:href="math__util__2_8c.html#a2eff0e02deb703653ee3230fbc02eb14" target="_top" xlink:title="set the matrix to a transformation matrix">
<polygon fill="white" stroke="#666666" points="655,-142 488,-142 488,-123 655,-123 655,-142"/>
<text text-anchor="middle" x="571.5" y="-130" font-family="Helvetica,sans-Serif" font-size="10.00">rsp_set_matrix_transformation</text>
</a>
</g>
</g>
<!-- Node1&#45;&gt;Node20 -->
<g id="edge23_Node000001_Node000020" class="edge">
<title>Node1&#45;&gt;Node20</title>
<g id="a_edge23_Node000001_Node000020"><a xlink:title=" ">
<path fill="none" stroke="#63b8ff" d="M115.9,-235.96C206.43,-215.36 420.03,-166.75 518.78,-144.27"/>
<polygon fill="#63b8ff" stroke="#63b8ff" points="519.56,-147.68 528.53,-142.05 518.01,-140.86 519.56,-147.68"/>
</a>
</g>
</g>
<!-- Node3 -->
<g id="Node000003" class="node">
<title>Node3</title>
<g id="a_Node000003"><a xlink:href="Engine_8cpp.html#a223c8bc63f228dc11177515e38eff2db" target="_top" xlink:title=" ">
<polygon fill="white" stroke="#666666" points="1065.5,-333 916.5,-333 916.5,-314 1065.5,-314 1065.5,-333"/>
<text text-anchor="middle" x="991" y="-321" font-family="Helvetica,sans-Serif" font-size="10.00">GameEngine_OTRSigCheck</text>
</a>
</g>
</g>
<!-- Node2&#45;&gt;Node3 -->
<g id="edge2_Node000002_Node000003" class="edge">
<title>Node2&#45;&gt;Node3</title>
<g id="a_edge2_Node000002_Node000003"><a xlink:title=" ">
<path fill="none" stroke="#63b8ff" d="M823.51,-321.91C847.37,-322.14 877.77,-322.43 906.05,-322.7"/>
<polygon fill="#63b8ff" stroke="#63b8ff" points="906.32,-326.2 916.36,-322.8 906.39,-319.2 906.32,-326.2"/>
</a>
</g>
</g>
<!-- Node4 -->
<g id="Node000004" class="node">
<title>Node4</title>
<g id="a_Node000004"><a xlink:href="string_8c.html#a008e171a518fe0e0352f31b245e03875" target="_top" xlink:title=" ">
<polygon fill="white" stroke="#666666" points="1207,-335 1163,-335 1163,-316 1207,-316 1207,-335"/>
<text text-anchor="middle" x="1185" y="-323" font-family="Helvetica,sans-Serif" font-size="10.00">strlen</text>
</a>
</g>
</g>
<!-- Node3&#45;&gt;Node4 -->
<g id="edge3_Node000003_Node000004" class="edge">
<title>Node3&#45;&gt;Node4</title>
<g id="a_edge3_Node000003_Node000004"><a xlink:title=" ">
<path fill="none" stroke="#63b8ff" d="M1065.68,-324.27C1095.76,-324.58 1128.94,-324.93 1152.48,-325.17"/>
<polygon fill="#63b8ff" stroke="#63b8ff" points="1152.54,-328.67 1162.58,-325.28 1152.62,-321.67 1152.54,-328.67"/>
</a>
</g>
</g>
<!-- Node6 -->
<g id="Node000006" class="node">
<title>Node6</title>
<g id="a_Node000006"><a xlink:href="animation_8c.html#a7da03cd272338cd10712ba10e097bd74" target="_top" xlink:title=" ">
<polygon fill="white" stroke="#666666" points="452,-255 354,-255 354,-236 452,-236 452,-255"/>
<text text-anchor="middle" x="403" y="-243" font-family="Helvetica,sans-Serif" font-size="10.00">render_armature</text>
</a>
</g>
</g>
<!-- Node5&#45;&gt;Node6 -->
<g id="edge5_Node000005_Node000006" class="edge">
<title>Node5&#45;&gt;Node6</title>
<g id="a_edge5_Node000005_Node000006"><a xlink:title=" ">
<path fill="none" stroke="#63b8ff" d="M318.11,-245.5C326.62,-245.5 335.28,-245.5 343.64,-245.5"/>
<polygon fill="#63b8ff" stroke="#63b8ff" points="343.66,-249 353.66,-245.5 343.66,-242 343.66,-249"/>
</a>
</g>
</g>
<!-- Node7 -->
<g id="Node000007" class="node">
<title>Node7</title>
<g id="a_Node000007"><a xlink:href="animation_8c.html#a735935d8f41d2fbdc617a41a92dfc371" target="_top" xlink:title=" ">
<polygon fill="white" stroke="#666666" points="640.5,-255 502.5,-255 502.5,-236 640.5,-236 640.5,-255"/>
<text text-anchor="middle" x="571.5" y="-243" font-family="Helvetica,sans-Serif" font-size="10.00">render_limb_or_add_mtx</text>
</a>
</g>
</g>
<!-- Node6&#45;&gt;Node7 -->
<g id="edge6_Node000006_Node000007" class="edge">
<title>Node6&#45;&gt;Node7</title>
<g id="a_edge6_Node000006_Node000007"><a xlink:title=" ">
<path fill="none" stroke="#63b8ff" d="M452.16,-245.5C464.63,-245.5 478.4,-245.5 491.99,-245.5"/>
<polygon fill="#63b8ff" stroke="#63b8ff" points="492.33,-249 502.33,-245.5 492.33,-242 492.33,-249"/>
</a>
</g>
</g>
<!-- Node7&#45;&gt;Node2 -->
<g id="edge17_Node000007_Node000002" class="edge">
<title>Node7&#45;&gt;Node2</title>
<g id="a_edge17_Node000007_Node000002"><a xlink:title=" ">
<path fill="none" stroke="#63b8ff" d="M591.86,-255.03C615.04,-266.2 655.22,-284.79 691,-297.5 703.12,-301.8 716.4,-305.82 728.87,-309.28"/>
<polygon fill="#63b8ff" stroke="#63b8ff" points="728.08,-312.69 738.65,-311.93 729.91,-305.94 728.08,-312.69"/>
</a>
</g>
</g>
<!-- Node8 -->
<g id="Node000008" class="node">
<title>Node8</title>
<g id="a_Node000008"><a xlink:href="Matrix_8cpp.html#a329d78c031733cf22ff7518f5d38fd74" target="_top" xlink:title=" ">
<polygon fill="white" stroke="#666666" points="822,-105 736,-105 736,-86 822,-86 822,-105"/>
<text text-anchor="middle" x="779" y="-93" font-family="Helvetica,sans-Serif" font-size="10.00">AddHudMatrix</text>
</a>
</g>
</g>
<!-- Node7&#45;&gt;Node8 -->
<g id="edge7_Node000007_Node000008" class="edge">
<title>Node7&#45;&gt;Node8</title>
<g id="a_edge7_Node000007_Node000008"><a xlink:title=" ">
<path fill="none" stroke="#63b8ff" d="M580.81,-235.92C606.58,-206.25 683.89,-117.59 691,-113.5 701.55,-107.44 713.86,-103.4 725.85,-100.72"/>
<polygon fill="#63b8ff" stroke="#63b8ff" points="726.65,-104.13 735.79,-98.77 725.31,-97.26 726.65,-104.13"/>
</a>
</g>
</g>
<!-- Node14 -->
<g id="Node000014" class="node">
<title>Node14</title>
<g id="a_Node000014"><a xlink:href="FrameInterpolation_8cpp.html#a3a036bc9d533e28a4e9697cd20dccf3e" target="_top" xlink:title=" ">
<polygon fill="white" stroke="#666666" points="1240,-297.5 1130,-297.5 1130,-267.5 1240,-267.5 1240,-297.5"/>
<text text-anchor="start" x="1138" y="-285.5" font-family="Helvetica,sans-Serif" font-size="10.00">FrameInterpolation</text>
<text text-anchor="middle" x="1185" y="-274.5" font-family="Helvetica,sans-Serif" font-size="10.00">_RecordCloseChild</text>
</a>
</g>
</g>
<!-- Node7&#45;&gt;Node14 -->
<g id="edge13_Node000007_Node000014" class="edge">
<title>Node7&#45;&gt;Node14</title>
<g id="a_edge13_Node000007_Node000014"><a xlink:title=" ">
<path fill="none" stroke="#63b8ff" d="M640.76,-252.31C657.2,-253.81 674.72,-255.32 691,-256.5 844.67,-267.68 1025.61,-275.98 1119.76,-279.93"/>
<polygon fill="#63b8ff" stroke="#63b8ff" points="1119.84,-283.44 1129.97,-280.36 1120.13,-276.44 1119.84,-283.44"/>
</a>
</g>
</g>
<!-- Node15 -->
<g id="Node000015" class="node">
<title>Node15</title>
<g id="a_Node000015"><a xlink:href="FrameInterpolation_8cpp.html#a0eda726b74eac815af4e874014e2727c" target="_top" xlink:title=" ">
<polygon fill="white" stroke="#666666" points="1240,-249.5 1130,-249.5 1130,-219.5 1240,-219.5 1240,-249.5"/>
<text text-anchor="start" x="1138" y="-237.5" font-family="Helvetica,sans-Serif" font-size="10.00">FrameInterpolation</text>
<text text-anchor="middle" x="1185" y="-226.5" font-family="Helvetica,sans-Serif" font-size="10.00">_RecordOpenChild</text>
</a>
</g>
</g>
<!-- Node7&#45;&gt;Node15 -->
<g id="edge15_Node000007_Node000015" class="edge">
<title>Node7&#45;&gt;Node15</title>
<g id="a_edge15_Node000007_Node000015"><a xlink:title=" ">
<path fill="none" stroke="#63b8ff" d="M640.57,-244.28C759.48,-242.14 1003.43,-237.75 1119.66,-235.66"/>
<polygon fill="#63b8ff" stroke="#63b8ff" points="1119.9,-239.15 1129.83,-235.47 1119.77,-232.15 1119.9,-239.15"/>
</a>
</g>
</g>
<!-- Node16 -->
<g id="Node000016" class="node">
<title>Node16</title>
<g id="a_Node000016"><a xlink:href="animation_8c.html#acfd85958c3b1020053c0810bbe96380e" target="_top" xlink:title=" ">
<polygon fill="white" stroke="#666666" points="843.5,-198 714.5,-198 714.5,-179 843.5,-179 843.5,-198"/>
<text text-anchor="middle" x="779" y="-186" font-family="Helvetica,sans-Serif" font-size="10.00">mtxf_translate_rotate2</text>
</a>
</g>
</g>
<!-- Node7&#45;&gt;Node16 -->
<g id="edge18_Node000007_Node000016" class="edge">
<title>Node7&#45;&gt;Node16</title>
<g id="a_edge18_Node000007_Node000016"><a xlink:title=" ">
<path fill="none" stroke="#63b8ff" d="M606.9,-235.96C641.72,-226.3 695.71,-211.32 733.71,-200.78"/>
<polygon fill="#63b8ff" stroke="#63b8ff" points="734.79,-204.12 743.49,-198.07 732.92,-197.37 734.79,-204.12"/>
</a>
</g>
</g>
<!-- Node9 -->
<g id="Node000009" class="node">
<title>Node9</title>
<g id="a_Node000009"><a xlink:href="Matrix_8cpp.html#a67401ed1d8de1f4d3a3e5a7b72842b6a" target="_top" xlink:title=" ">
<polygon fill="white" stroke="#666666" points="1024.5,-105 957.5,-105 957.5,-86 1024.5,-86 1024.5,-105"/>
<text text-anchor="middle" x="991" y="-93" font-family="Helvetica,sans-Serif" font-size="10.00">AddMatrix</text>
</a>
</g>
</g>
<!-- Node8&#45;&gt;Node9 -->
<g id="edge8_Node000008_Node000009" class="edge">
<title>Node8&#45;&gt;Node9</title>
<g id="a_edge8_Node000008_Node000009"><a xlink:title=" ">
<path fill="none" stroke="#63b8ff" d="M822.24,-95.5C858.54,-95.5 910.65,-95.5 947.13,-95.5"/>
<polygon fill="#63b8ff" stroke="#63b8ff" points="947.45,-99 957.45,-95.5 947.45,-92 947.45,-99"/>
</a>
</g>
</g>
<!-- Node13 -->
<g id="Node000013" class="node">
<title>Node13</title>
<g id="a_Node000013"><a xlink:href="Game_8cpp.html#ae2fa844b3cb1021ecbc357f8ed2ad8cc" target="_top" xlink:title=" ">
<polygon fill="white" stroke="#666666" points="1022,-19 960,-19 960,0 1022,0 1022,-19"/>
<text text-anchor="middle" x="991" y="-7" font-family="Helvetica,sans-Serif" font-size="10.00">GetWorld</text>
</a>
</g>
</g>
<!-- Node8&#45;&gt;Node13 -->
<g id="edge12_Node000008_Node000013" class="edge">
<title>Node8&#45;&gt;Node13</title>
<g id="a_edge12_Node000008_Node000013"><a xlink:title=" ">
<path fill="none" stroke="#63b8ff" d="M794.5,-85.82C816.86,-71.3 861.53,-43.96 903,-28.5 917.83,-22.97 934.71,-18.82 949.63,-15.84"/>
<polygon fill="#63b8ff" stroke="#63b8ff" points="950.42,-19.25 959.6,-13.96 949.12,-12.38 950.42,-19.25"/>
</a>
</g>
</g>
<!-- Node10 -->
<g id="Node000010" class="node">
<title>Node10</title>
<g id="a_Node000010"><a xlink:href="FrameInterpolation_8cpp.html#a8cf1f2d6fabc6925aa71a9515341b4aa" target="_top" xlink:title=" ">
<polygon fill="white" stroke="#666666" points="1255,-153.5 1115,-153.5 1115,-123.5 1255,-123.5 1255,-153.5"/>
<text text-anchor="start" x="1123" y="-141.5" font-family="Helvetica,sans-Serif" font-size="10.00">FrameInterpolation</text>
<text text-anchor="middle" x="1185" y="-130.5" font-family="Helvetica,sans-Serif" font-size="10.00">_RecordMatrixMtxFToMtx</text>
</a>
</g>
</g>
<!-- Node9&#45;&gt;Node10 -->
<g id="edge9_Node000009_Node000010" class="edge">
<title>Node9&#45;&gt;Node10</title>
<g id="a_edge9_Node000009_Node000010"><a xlink:title=" ">
<path fill="none" stroke="#63b8ff" d="M1024.69,-102.02C1041.02,-105.34 1061.08,-109.51 1079,-113.5 1089.82,-115.91 1101.25,-118.54 1112.43,-121.16"/>
<polygon fill="#63b8ff" stroke="#63b8ff" points="1111.63,-124.57 1122.16,-123.45 1113.23,-117.75 1111.63,-124.57"/>
</a>
</g>
</g>
<!-- Node12 -->
<g id="Node000012" class="node">
<title>Node12</title>
<g id="a_Node000012"><a xlink:href="guMtxF2L_8c.html#a40ab2d64c609839ff1e0ef0de2d0dcc4" target="_top" xlink:title=" ">
<polygon fill="white" stroke="#666666" points="1217.5,-105 1152.5,-105 1152.5,-86 1217.5,-86 1217.5,-105"/>
<text text-anchor="middle" x="1185" y="-93" font-family="Helvetica,sans-Serif" font-size="10.00">guMtxF2L</text>
</a>
</g>
</g>
<!-- Node9&#45;&gt;Node12 -->
<g id="edge11_Node000009_Node000012" class="edge">
<title>Node9&#45;&gt;Node12</title>
<g id="a_edge11_Node000009_Node000012"><a xlink:title=" ">
<path fill="none" stroke="#63b8ff" d="M1024.57,-95.5C1057,-95.5 1106.9,-95.5 1142.23,-95.5"/>
<polygon fill="#63b8ff" stroke="#63b8ff" points="1142.23,-99 1152.23,-95.5 1142.23,-92 1142.23,-99"/>
</a>
</g>
</g>
<!-- Node11 -->
<g id="Node000011" class="node">
<title>Node11</title>
<g id="a_Node000011"><a xlink:href="FrameInterpolation_8cpp.html#a02c7ac5342a4d376edee38f312b480bf" target="_top" xlink:title=" ">
<polygon fill="white" stroke="#666666" points="1399,-196 1291,-196 1291,-177 1399,-177 1399,-196"/>
<text text-anchor="middle" x="1345" y="-184" font-family="Helvetica,sans-Serif" font-size="10.00">check_if_recording</text>
</a>
</g>
</g>
<!-- Node10&#45;&gt;Node11 -->
<g id="edge10_Node000010_Node000011" class="edge">
<title>Node10&#45;&gt;Node11</title>
<g id="a_edge10_Node000010_Node000011"><a xlink:title=" ">
<path fill="none" stroke="#63b8ff" d="M1235.56,-153.56C1257.18,-160.12 1282.23,-167.74 1302.81,-173.99"/>
<polygon fill="#63b8ff" stroke="#63b8ff" points="1301.93,-177.38 1312.52,-176.94 1303.97,-170.68 1301.93,-177.38"/>
</a>
</g>
</g>
<!-- Node14&#45;&gt;Node11 -->
<g id="edge14_Node000014_Node000011" class="edge">
<title>Node14&#45;&gt;Node11</title>
<g id="a_edge14_Node000014_Node000011"><a xlink:title=" ">
<path fill="none" stroke="#63b8ff" d="M1235.9,-267.47C1242.48,-264.82 1249.01,-261.83 1255,-258.5 1282.47,-243.23 1309.96,-219.35 1326.96,-203.33"/>
<polygon fill="#63b8ff" stroke="#63b8ff" points="1329.64,-205.62 1334.42,-196.17 1324.79,-200.57 1329.64,-205.62"/>
</a>
</g>
</g>
<!-- Node15&#45;&gt;Node11 -->
<g id="edge16_Node000015_Node000011" class="edge">
<title>Node15&#45;&gt;Node11</title>
<g id="a_edge16_Node000015_Node000011"><a xlink:title=" ">
<path fill="none" stroke="#63b8ff" d="M1235.56,-219.44C1257.18,-212.88 1282.23,-205.26 1302.81,-199.01"/>
<polygon fill="#63b8ff" stroke="#63b8ff" points="1303.97,-202.32 1312.52,-196.06 1301.93,-195.62 1303.97,-202.32"/>
</a>
</g>
</g>
<!-- Node17 -->
<g id="Node000017" class="node">
<title>Node17</title>
<g id="a_Node000017"><a xlink:href="math__util_8c.html#ae69cbf5c8d4b3b0dba2d7b4d4673689f" target="_top" xlink:title=" ">
<polygon fill="white" stroke="#666666" points="1010,-142 972,-142 972,-123 1010,-123 1010,-142"/>
<text text-anchor="middle" x="991" y="-130" font-family="Helvetica,sans-Serif" font-size="10.00">coss</text>
</a>
</g>
</g>
<!-- Node16&#45;&gt;Node17 -->
<g id="edge19_Node000016_Node000017" class="edge">
<title>Node16&#45;&gt;Node17</title>
<g id="a_edge19_Node000016_Node000017"><a xlink:title=" ">
<path fill="none" stroke="#63b8ff" d="M808.12,-178.97C832.91,-170.77 870.1,-158.97 903,-150.5 922.54,-145.47 944.84,-140.88 961.96,-137.59"/>
<polygon fill="#63b8ff" stroke="#63b8ff" points="962.71,-141.02 971.89,-135.72 961.41,-134.14 962.71,-141.02"/>
</a>
</g>
</g>
<!-- Node18 -->
<g id="Node000018" class="node">
<title>Node18</title>
<g id="a_Node000018"><a xlink:href="FrameInterpolation_8cpp.html#a3a4250dd10535ebfad101196ec528f79" target="_top" xlink:title=" ">
<polygon fill="white" stroke="#666666" points="1255,-201.5 1115,-201.5 1115,-171.5 1255,-171.5 1255,-201.5"/>
<text text-anchor="start" x="1123" y="-189.5" font-family="Helvetica,sans-Serif" font-size="10.00">FrameInterpolation</text>
<text text-anchor="middle" x="1185" y="-178.5" font-family="Helvetica,sans-Serif" font-size="10.00">_RecordMatrixPosRotXYZ</text>
</a>
</g>
</g>
<!-- Node16&#45;&gt;Node18 -->
<g id="edge20_Node000016_Node000018" class="edge">
<title>Node16&#45;&gt;Node18</title>
<g id="a_edge20_Node000016_Node000018"><a xlink:title=" ">
<path fill="none" stroke="#63b8ff" d="M843.58,-188.4C904.11,-188.28 997.76,-188.02 1079,-187.5 1087.32,-187.45 1096.01,-187.38 1104.68,-187.31"/>
<polygon fill="#63b8ff" stroke="#63b8ff" points="1104.84,-190.81 1114.81,-187.22 1104.78,-183.81 1104.84,-190.81"/>
</a>
</g>
</g>
<!-- Node19 -->
<g id="Node000019" class="node">
<title>Node19</title>
<g id="a_Node000019"><a xlink:href="math__util_8c.html#a19ed3bd78fd2d3e2bd0a29f6caf48545" target="_top" xlink:title=" ">
<polygon fill="white" stroke="#666666" points="1009,-179 973,-179 973,-160 1009,-160 1009,-179"/>
<text text-anchor="middle" x="991" y="-167" font-family="Helvetica,sans-Serif" font-size="10.00">sins</text>
</a>
</g>
</g>
<!-- Node16&#45;&gt;Node19 -->
<g id="edge22_Node000016_Node000019" class="edge">
<title>Node16&#45;&gt;Node19</title>
<g id="a_edge22_Node000016_Node000019"><a xlink:title=" ">
<path fill="none" stroke="#63b8ff" d="M843.58,-182.75C883.36,-179.15 932.59,-174.69 962.62,-171.98"/>
<polygon fill="#63b8ff" stroke="#63b8ff" points="963.12,-175.45 972.77,-171.06 962.49,-168.47 963.12,-175.45"/>
</a>
</g>
</g>
<!-- Node18&#45;&gt;Node11 -->
<g id="edge21_Node000018_Node000011" class="edge">
<title>Node18&#45;&gt;Node11</title>
<g id="a_edge21_Node000018_Node000011"><a xlink:title=" ">
<path fill="none" stroke="#63b8ff" d="M1255.3,-186.5C1263.79,-186.5 1272.43,-186.5 1280.82,-186.5"/>
<polygon fill="#63b8ff" stroke="#63b8ff" points="1280.91,-190 1290.91,-186.5 1280.91,-183 1280.91,-190"/>
</a>
</g>
</g>
<!-- Node20&#45;&gt;Node8 -->
<g id="edge24_Node000020_Node000008" class="edge">
<title>Node20&#45;&gt;Node8</title>
<g id="a_edge24_Node000020_Node000008"><a xlink:title=" ">
<path fill="none" stroke="#63b8ff" d="M625.42,-122.97C656.3,-117.41 695.1,-110.43 725.84,-104.89"/>
<polygon fill="#63b8ff" stroke="#63b8ff" points="726.72,-108.29 735.94,-103.07 725.48,-101.4 726.72,-108.29"/>
</a>
</g>
</g>
<!-- Node21 -->
<g id="Node000021" class="node">
<title>Node21</title>
<g id="a_Node000021"><a xlink:href="math__util__2_8c.html#ae71383a9d7f97bcb240b23f68068ab30" target="_top" xlink:title=" ">
<polygon fill="white" stroke="#666666" points="867,-142 691,-142 691,-123 867,-123 867,-142"/>
<text text-anchor="middle" x="779" y="-130" font-family="Helvetica,sans-Serif" font-size="10.00">mtxf_set_matrix_transformation</text>
</a>
</g>
</g>
<!-- Node20&#45;&gt;Node21 -->
<g id="edge25_Node000020_Node000021" class="edge">
<title>Node20&#45;&gt;Node21</title>
<g id="a_edge25_Node000020_Node000021"><a xlink:title=" ">
<path fill="none" stroke="#63b8ff" d="M655.2,-132.5C663.61,-132.5 672.22,-132.5 680.77,-132.5"/>
<polygon fill="#63b8ff" stroke="#63b8ff" points="680.77,-136 690.77,-132.5 680.77,-129 680.77,-136"/>
</a>
</g>
</g>
<!-- Node21&#45;&gt;Node17 -->
<g id="edge26_Node000021_Node000017" class="edge">
<title>Node21&#45;&gt;Node17</title>
<g id="a_edge26_Node000021_Node000017"><a xlink:title=" ">
<path fill="none" stroke="#63b8ff" d="M867.23,-132.5C901.05,-132.5 937.39,-132.5 961.69,-132.5"/>
<polygon fill="#63b8ff" stroke="#63b8ff" points="961.95,-136 971.95,-132.5 961.95,-129 961.95,-136"/>
</a>
</g>
</g>
<!-- Node21&#45;&gt;Node19 -->
<g id="edge29_Node000021_Node000019" class="edge">
<title>Node21&#45;&gt;Node19</title>
<g id="a_edge29_Node000021_Node000019"><a xlink:title=" ">
<path fill="none" stroke="#63b8ff" d="M834.08,-142.03C875.35,-149.3 930.47,-159.01 962.91,-164.73"/>
<polygon fill="#63b8ff" stroke="#63b8ff" points="962.53,-168.21 972.99,-166.5 963.75,-161.32 962.53,-168.21"/>
</a>
</g>
</g>
<!-- Node22 -->
<g id="Node000022" class="node">
<title>Node22</title>
<g id="a_Node000022"><a xlink:href="FrameInterpolation_8cpp.html#af749df1a96bee5c78287b1845455ae2d" target="_top" xlink:title=" ">
<polygon fill="white" stroke="#666666" points="1079,-67.5 903,-67.5 903,-37.5 1079,-37.5 1079,-67.5"/>
<text text-anchor="start" x="911" y="-55.5" font-family="Helvetica,sans-Serif" font-size="10.00">FrameInterpolation</text>
<text text-anchor="middle" x="991" y="-44.5" font-family="Helvetica,sans-Serif" font-size="10.00">_RecordSetMatrixTransformation</text>
</a>
</g>
</g>
<!-- Node21&#45;&gt;Node22 -->
<g id="edge27_Node000021_Node000022" class="edge">
<title>Node21&#45;&gt;Node22</title>
<g id="a_edge27_Node000021_Node000022"><a xlink:title=" ">
<path fill="none" stroke="#63b8ff" d="M844.3,-122.97C852.21,-120.51 859.97,-117.4 867,-113.5 887.06,-102.36 883.25,-88.18 903,-76.5 905.99,-74.73 909.11,-73.09 912.33,-71.56"/>
<polygon fill="#63b8ff" stroke="#63b8ff" points="913.79,-74.75 921.58,-67.57 911.01,-68.32 913.79,-74.75"/>
</a>
</g>
</g>
<!-- Node22&#45;&gt;Node11 -->
<g id="edge28_Node000022_Node000011" class="edge">
<title>Node22&#45;&gt;Node11</title>
<g id="a_edge28_Node000022_Node000011"><a xlink:title=" ">
<path fill="none" stroke="#63b8ff" d="M1079.16,-43.88C1132.85,-42.45 1201.42,-47.87 1255,-76.5 1293.44,-97.04 1321.35,-141.96 1334.86,-167.59"/>
<polygon fill="#63b8ff" stroke="#63b8ff" points="1331.83,-169.34 1339.47,-176.67 1338.07,-166.17 1331.83,-169.34"/>
</a>
</g>
</g>
</g>
</svg>
