<?xml version="1.0" encoding="UTF-8" standalone="no"?>
<!DOCTYPE svg PUBLIC "-//W3C//DTD SVG 1.1//EN"
 "http://www.w3.org/Graphics/SVG/1.1/DTD/svg11.dtd">
<!-- Generated by graphviz version 2.43.0 (0)
 -->
<!-- Title: OSnowman::func_8008379C Pages: 1 -->
<svg width="626pt" height="353pt"
 viewBox="0.00 0.00 626.00 353.46" xmlns="http://www.w3.org/2000/svg" xmlns:xlink="http://www.w3.org/1999/xlink">
<g id="graph0" class="graph" transform="scale(1 1) rotate(0) translate(4 349.46)">
<title>OSnowman::func_8008379C</title>
<!-- Node1 -->
<g id="Node000001" class="node">
<title>Node1</title>
<g id="a_Node000001"><a xlink:title=" ">
<polygon fill="#999999" stroke="#666666" points="153,-246 0,-246 0,-227 153,-227 153,-246"/>
<text text-anchor="middle" x="76.5" y="-234" font-family="Helvetica,sans-Serif" font-size="10.00">OSnowman::func_8008379C</text>
</a>
</g>
</g>
<!-- Node2 -->
<g id="Node000002" class="node">
<title>Node2</title>
<g id="a_Node000002"><a xlink:href="update__objects_8c.html#a5978ef1e35515c275f92eb79b8601d77" target="_top" xlink:title=" ">
<polygon fill="white" stroke="#666666" points="295.5,-284 204.5,-284 204.5,-265 295.5,-265 295.5,-284"/>
<text text-anchor="middle" x="250" y="-272" font-family="Helvetica,sans-Serif" font-size="10.00">func_80072428</text>
</a>
</g>
</g>
<!-- Node1&#45;&gt;Node2 -->
<g id="edge1_Node000001_Node000002" class="edge">
<title>Node1&#45;&gt;Node2</title>
<g id="a_edge1_Node000001_Node000002"><a xlink:title=" ">
<path fill="none" stroke="#63b8ff" d="M120.78,-246.09C143.61,-251.15 171.82,-257.4 195.96,-262.75"/>
<polygon fill="#63b8ff" stroke="#63b8ff" points="195.51,-266.23 206.03,-264.98 197.03,-259.4 195.51,-266.23"/>
</a>
</g>
</g>
<!-- Node3 -->
<g id="Node000003" class="node">
<title>Node3</title>
<g id="a_Node000003"><a xlink:href="code__80086E70_8c.html#acd186a6f592769b3e3db3da72fcf765f" target="_top" xlink:title=" ">
<polygon fill="white" stroke="#666666" points="460.5,-284 369.5,-284 369.5,-265 460.5,-265 460.5,-284"/>
<text text-anchor="middle" x="415" y="-272" font-family="Helvetica,sans-Serif" font-size="10.00">func_80086F60</text>
</a>
</g>
</g>
<!-- Node1&#45;&gt;Node3 -->
<g id="edge5_Node000001_Node000003" class="edge">
<title>Node1&#45;&gt;Node3</title>
<g id="a_edge5_Node000001_Node000003"><a xlink:title=" ">
<path fill="none" stroke="#63b8ff" d="M153.16,-240.71C198.96,-243.74 258.48,-248.54 311,-255.5 326.75,-257.59 343.74,-260.46 359.3,-263.35"/>
<polygon fill="#63b8ff" stroke="#63b8ff" points="358.81,-266.82 369.29,-265.23 360.11,-259.94 358.81,-266.82"/>
</a>
</g>
</g>
<!-- Node6 -->
<g id="Node000006" class="node">
<title>Node6</title>
<g id="a_Node000006"><a xlink:href="code__80086E70_8c.html#a989c71b5530f8701df950f1d39a9259b" target="_top" xlink:title=" ">
<polygon fill="white" stroke="#666666" points="295.5,-190 204.5,-190 204.5,-171 295.5,-171 295.5,-190"/>
<text text-anchor="middle" x="250" y="-178" font-family="Helvetica,sans-Serif" font-size="10.00">func_80087E08</text>
</a>
</g>
</g>
<!-- Node1&#45;&gt;Node6 -->
<g id="edge6_Node000001_Node000006" class="edge">
<title>Node1&#45;&gt;Node6</title>
<g id="a_edge6_Node000001_Node000006"><a xlink:title=" ">
<path fill="none" stroke="#63b8ff" d="M106.98,-226.87C135.5,-217.56 178.88,-203.4 210.19,-193.17"/>
<polygon fill="#63b8ff" stroke="#63b8ff" points="211.48,-196.43 219.9,-190 209.31,-189.78 211.48,-196.43"/>
</a>
</g>
</g>
<!-- Node14 -->
<g id="Node000014" class="node">
<title>Node14</title>
<g id="a_Node000014"><a xlink:href="code__80086E70_8c.html#a2f6ae8b384477efbc2654d6427d095f7" target="_top" xlink:title=" ">
<polygon fill="white" stroke="#666666" points="311,-152.5 189,-152.5 189,-122.5 311,-122.5 311,-152.5"/>
<text text-anchor="start" x="197" y="-140.5" font-family="Helvetica,sans-Serif" font-size="10.00">object_calculate_new</text>
<text text-anchor="middle" x="250" y="-129.5" font-family="Helvetica,sans-Serif" font-size="10.00">_pos_offset</text>
</a>
</g>
</g>
<!-- Node1&#45;&gt;Node14 -->
<g id="edge16_Node000001_Node000014" class="edge">
<title>Node1&#45;&gt;Node14</title>
<g id="a_edge16_Node000001_Node000014"><a xlink:title=" ">
<path fill="none" stroke="#63b8ff" d="M89.99,-226.8C110.05,-211.53 151.05,-181.56 189,-161.5 192.07,-159.88 195.27,-158.3 198.53,-156.77"/>
<polygon fill="#63b8ff" stroke="#63b8ff" points="200.1,-159.9 207.81,-152.63 197.25,-153.51 200.1,-159.9"/>
</a>
</g>
</g>
<!-- Node15 -->
<g id="Node000015" class="node">
<title>Node15</title>
<g id="a_Node000015"><a xlink:href="update__objects_8c.html#a8bfc5f5c7034d61b534e14f325b6e399" target="_top" xlink:title=" ">
<polygon fill="white" stroke="#666666" points="302,-321 198,-321 198,-302 302,-302 302,-321"/>
<text text-anchor="middle" x="250" y="-309" font-family="Helvetica,sans-Serif" font-size="10.00">object_next_state</text>
</a>
</g>
</g>
<!-- Node1&#45;&gt;Node15 -->
<g id="edge17_Node000001_Node000015" class="edge">
<title>Node1&#45;&gt;Node15</title>
<g id="a_edge17_Node000001_Node000015"><a xlink:title=" ">
<path fill="none" stroke="#63b8ff" d="M94.49,-246.1C116.02,-258.01 154.48,-278.47 189,-292.5 194.45,-294.71 200.26,-296.84 206.03,-298.81"/>
<polygon fill="#63b8ff" stroke="#63b8ff" points="205.06,-302.17 215.66,-301.97 207.25,-295.52 205.06,-302.17"/>
</a>
</g>
</g>
<!-- Node2&#45;&gt;Node3 -->
<g id="edge2_Node000002_Node000003" class="edge">
<title>Node2&#45;&gt;Node3</title>
<g id="a_edge2_Node000002_Node000003"><a xlink:title=" ">
<path fill="none" stroke="#63b8ff" d="M295.54,-274.5C315.14,-274.5 338.35,-274.5 359.01,-274.5"/>
<polygon fill="#63b8ff" stroke="#63b8ff" points="359.23,-278 369.23,-274.5 359.23,-271 359.23,-278"/>
</a>
</g>
</g>
<!-- Node5 -->
<g id="Node000005" class="node">
<title>Node5</title>
<g id="a_Node000005"><a xlink:href="update__objects_8c.html#af20e3f3c403dd4fbea56e358997e515a" target="_top" xlink:title=" ">
<polygon fill="white" stroke="#666666" points="479,-321 351,-321 351,-302 479,-302 479,-321"/>
<text text-anchor="middle" x="415" y="-309" font-family="Helvetica,sans-Serif" font-size="10.00">set_object_timer_state</text>
</a>
</g>
</g>
<!-- Node2&#45;&gt;Node5 -->
<g id="edge4_Node000002_Node000005" class="edge">
<title>Node2&#45;&gt;Node5</title>
<g id="a_edge4_Node000002_Node000005"><a xlink:title=" ">
<path fill="none" stroke="#63b8ff" d="M292.98,-284.03C314,-288.8 339.65,-294.62 361.92,-299.68"/>
<polygon fill="#63b8ff" stroke="#63b8ff" points="361.36,-303.14 371.88,-301.94 362.91,-296.31 361.36,-303.14"/>
</a>
</g>
</g>
<!-- Node4 -->
<g id="Node000004" class="node">
<title>Node4</title>
<g id="a_Node000004"><a xlink:href="update__objects_8c.html#a3953241e15c6372ac8944ba842148a9a" target="_top" xlink:title=" ">
<polygon fill="white" stroke="#666666" points="618,-246 519,-246 519,-227 618,-227 618,-246"/>
<text text-anchor="middle" x="568.5" y="-234" font-family="Helvetica,sans-Serif" font-size="10.00">clear_object_flag</text>
</a>
</g>
</g>
<!-- Node3&#45;&gt;Node4 -->
<g id="edge3_Node000003_Node000004" class="edge">
<title>Node3&#45;&gt;Node4</title>
<g id="a_edge3_Node000003_Node000004"><a xlink:title=" ">
<path fill="none" stroke="#63b8ff" d="M454.23,-264.91C474.13,-259.92 498.66,-253.77 519.79,-248.47"/>
<polygon fill="#63b8ff" stroke="#63b8ff" points="520.7,-251.85 529.55,-246.02 518.99,-245.06 520.7,-251.85"/>
</a>
</g>
</g>
<!-- Node6&#45;&gt;Node4 -->
<g id="edge7_Node000006_Node000004" class="edge">
<title>Node6&#45;&gt;Node4</title>
<g id="a_edge7_Node000006_Node000004"><a xlink:title=" ">
<path fill="none" stroke="#63b8ff" d="M295.59,-187.16C342.38,-194.3 418.02,-206.27 483,-218.5 493.28,-220.44 504.22,-222.65 514.71,-224.85"/>
<polygon fill="#63b8ff" stroke="#63b8ff" points="514.08,-228.3 524.59,-226.95 515.54,-221.45 514.08,-228.3"/>
</a>
</g>
</g>
<!-- Node7 -->
<g id="Node000007" class="node">
<title>Node7</title>
<g id="a_Node000007"><a xlink:href="code__80086E70_8c.html#a6eea48094f49bb346ce1170842d955b2" target="_top" xlink:title=" ">
<polygon fill="white" stroke="#666666" points="461,-171 369,-171 369,-152 461,-152 461,-171"/>
<text text-anchor="middle" x="415" y="-159" font-family="Helvetica,sans-Serif" font-size="10.00">func_80086FD4</text>
</a>
</g>
</g>
<!-- Node6&#45;&gt;Node7 -->
<g id="edge8_Node000006_Node000007" class="edge">
<title>Node6&#45;&gt;Node7</title>
<g id="a_edge8_Node000006_Node000007"><a xlink:title=" ">
<path fill="none" stroke="#63b8ff" d="M295.54,-175.31C315.05,-173.03 338.16,-170.34 358.75,-167.94"/>
<polygon fill="#63b8ff" stroke="#63b8ff" points="359.42,-171.39 368.95,-166.75 358.61,-164.43 359.42,-171.39"/>
</a>
</g>
</g>
<!-- Node8 -->
<g id="Node000008" class="node">
<title>Node8</title>
<g id="a_Node000008"><a xlink:href="code__80086E70_8c.html#a1cd6a78cf091bd496e83739902c652a7" target="_top" xlink:title=" ">
<polygon fill="white" stroke="#666666" points="461,-37 369,-37 369,-18 461,-18 461,-37"/>
<text text-anchor="middle" x="415" y="-25" font-family="Helvetica,sans-Serif" font-size="10.00">func_8008751C</text>
</a>
</g>
</g>
<!-- Node6&#45;&gt;Node8 -->
<g id="edge10_Node000006_Node000008" class="edge">
<title>Node6&#45;&gt;Node8</title>
<g id="a_edge10_Node000006_Node000008"><a xlink:title=" ">
<path fill="none" stroke="#63b8ff" d="M295.73,-171.77C301.38,-169.18 306.68,-165.83 311,-161.5 348.81,-123.57 308.62,-83.85 347,-46.5 350.7,-42.9 355.02,-39.98 359.66,-37.6"/>
<polygon fill="#63b8ff" stroke="#63b8ff" points="361.06,-40.8 368.89,-33.67 358.32,-34.36 361.06,-40.8"/>
</a>
</g>
</g>
<!-- Node11 -->
<g id="Node000011" class="node">
<title>Node11</title>
<g id="a_Node000011"><a xlink:href="update__objects_8c.html#a2301a51a93a60f0382cdc7002e14f95a" target="_top" xlink:title=" ">
<polygon fill="white" stroke="#666666" points="483,-133.5 347,-133.5 347,-103.5 483,-103.5 483,-133.5"/>
<text text-anchor="start" x="355" y="-121.5" font-family="Helvetica,sans-Serif" font-size="10.00">is_obj_index_flag_status</text>
<text text-anchor="middle" x="415" y="-110.5" font-family="Helvetica,sans-Serif" font-size="10.00">_inactive</text>
</a>
</g>
</g>
<!-- Node6&#45;&gt;Node11 -->
<g id="edge13_Node000006_Node000011" class="edge">
<title>Node6&#45;&gt;Node11</title>
<g id="a_edge13_Node000006_Node000011"><a xlink:title=" ">
<path fill="none" stroke="#63b8ff" d="M284.71,-170.99C293.38,-168.23 302.63,-165 311,-161.5 327.69,-154.52 330.44,-149.79 347,-142.5 351.12,-140.69 355.42,-138.9 359.77,-137.18"/>
<polygon fill="#63b8ff" stroke="#63b8ff" points="361.25,-140.36 369.32,-133.51 358.73,-133.83 361.25,-140.36"/>
</a>
</g>
</g>
<!-- Node12 -->
<g id="Node000012" class="node">
<title>Node12</title>
<g id="a_Node000012"><a xlink:href="code__80086E70_8c.html#a1d4593518e5153328388afb23bbc6902" target="_top" xlink:title=" ">
<polygon fill="white" stroke="#666666" points="472,-85.5 358,-85.5 358,-55.5 472,-55.5 472,-85.5"/>
<text text-anchor="start" x="366" y="-73.5" font-family="Helvetica,sans-Serif" font-size="10.00">object_add_velocity</text>
<text text-anchor="middle" x="415" y="-62.5" font-family="Helvetica,sans-Serif" font-size="10.00">_offset_xyz</text>
</a>
</g>
</g>
<!-- Node6&#45;&gt;Node12 -->
<g id="edge14_Node000006_Node000012" class="edge">
<title>Node6&#45;&gt;Node12</title>
<g id="a_edge14_Node000006_Node000012"><a xlink:title=" ">
<path fill="none" stroke="#63b8ff" d="M295.02,-170.98C300.77,-168.51 306.29,-165.41 311,-161.5 337.02,-139.92 321.38,-116.56 347,-94.5 348.35,-93.34 349.76,-92.23 351.23,-91.17"/>
<polygon fill="#63b8ff" stroke="#63b8ff" points="353.42,-93.93 360.06,-85.68 349.72,-87.98 353.42,-93.93"/>
</a>
</g>
</g>
<!-- Node13 -->
<g id="Node000013" class="node">
<title>Node13</title>
<g id="a_Node000013"><a xlink:href="update__objects_8c.html#afe64f2394ee0deab6370b77609500bda" target="_top" xlink:title=" ">
<polygon fill="white" stroke="#666666" points="460,-247 370,-247 370,-228 460,-228 460,-247"/>
<text text-anchor="middle" x="415" y="-235" font-family="Helvetica,sans-Serif" font-size="10.00">set_object_flag</text>
</a>
</g>
</g>
<!-- Node6&#45;&gt;Node13 -->
<g id="edge15_Node000006_Node000013" class="edge">
<title>Node6&#45;&gt;Node13</title>
<g id="a_edge15_Node000006_Node000013"><a xlink:title=" ">
<path fill="none" stroke="#63b8ff" d="M278.28,-190.04C305.32,-199.49 346.91,-214.04 376.93,-224.54"/>
<polygon fill="#63b8ff" stroke="#63b8ff" points="376.03,-227.93 386.63,-227.93 378.34,-221.32 376.03,-227.93"/>
</a>
</g>
</g>
<!-- Node7&#45;&gt;Node4 -->
<g id="edge9_Node000007_Node000004" class="edge">
<title>Node7&#45;&gt;Node4</title>
<g id="a_edge9_Node000007_Node000004"><a xlink:title=" ">
<path fill="none" stroke="#63b8ff" d="M446.54,-171C458.16,-174.99 471.39,-179.99 483,-185.5 504.94,-195.92 528.49,-210.44 545.14,-221.32"/>
<polygon fill="#63b8ff" stroke="#63b8ff" points="543.36,-224.34 553.63,-226.94 547.22,-218.5 543.36,-224.34"/>
</a>
</g>
</g>
<!-- Node9 -->
<g id="Node000009" class="node">
<title>Node9</title>
<g id="a_Node000009"><a xlink:href="math__util_8c.html#ae69cbf5c8d4b3b0dba2d7b4d4673689f" target="_top" xlink:title=" ">
<polygon fill="white" stroke="#666666" points="587.5,-19 549.5,-19 549.5,0 587.5,0 587.5,-19"/>
<text text-anchor="middle" x="568.5" y="-7" font-family="Helvetica,sans-Serif" font-size="10.00">coss</text>
</a>
</g>
</g>
<!-- Node8&#45;&gt;Node9 -->
<g id="edge11_Node000008_Node000009" class="edge">
<title>Node8&#45;&gt;Node9</title>
<g id="a_edge11_Node000008_Node000009"><a xlink:title=" ">
<path fill="none" stroke="#63b8ff" d="M461.04,-22.15C486.38,-19.14 517.23,-15.47 539.19,-12.86"/>
<polygon fill="#63b8ff" stroke="#63b8ff" points="539.67,-16.33 549.19,-11.68 538.84,-9.38 539.67,-16.33"/>
</a>
</g>
</g>
<!-- Node10 -->
<g id="Node000010" class="node">
<title>Node10</title>
<g id="a_Node000010"><a xlink:href="math__util_8c.html#a19ed3bd78fd2d3e2bd0a29f6caf48545" target="_top" xlink:title=" ">
<polygon fill="white" stroke="#666666" points="586.5,-56 550.5,-56 550.5,-37 586.5,-37 586.5,-56"/>
<text text-anchor="middle" x="568.5" y="-44" font-family="Helvetica,sans-Serif" font-size="10.00">sins</text>
</a>
</g>
</g>
<!-- Node8&#45;&gt;Node10 -->
<g id="edge12_Node000008_Node000010" class="edge">
<title>Node8&#45;&gt;Node10</title>
<g id="a_edge12_Node000008_Node000010"><a xlink:title=" ">
<path fill="none" stroke="#63b8ff" d="M461.04,-33.15C486.83,-36.38 518.33,-40.33 540.35,-43.09"/>
<polygon fill="#63b8ff" stroke="#63b8ff" points="539.97,-46.57 550.33,-44.35 540.84,-39.63 539.97,-46.57"/>
</a>
</g>
</g>
<!-- Node15&#45;&gt;Node4 -->
<g id="edge18_Node000015_Node000004" class="edge">
<title>Node15&#45;&gt;Node4</title>
<g id="a_edge18_Node000015_Node000004"><a xlink:title=" ">
<path fill="none" stroke="#63b8ff" d="M276.02,-321.11C320.03,-336.42 413.24,-361.59 483,-330.5 517.72,-315.02 544.15,-277.44 557.61,-254.76"/>
<polygon fill="#63b8ff" stroke="#63b8ff" points="560.65,-256.49 562.56,-246.06 554.57,-253.02 560.65,-256.49"/>
</a>
</g>
</g>
<!-- Node15&#45;&gt;Node5 -->
<g id="edge19_Node000015_Node000005" class="edge">
<title>Node15&#45;&gt;Node5</title>
<g id="a_edge19_Node000015_Node000005"><a xlink:title=" ">
<path fill="none" stroke="#63b8ff" d="M302.13,-311.5C314.28,-311.5 327.49,-311.5 340.43,-311.5"/>
<polygon fill="#63b8ff" stroke="#63b8ff" points="340.72,-315 350.72,-311.5 340.72,-308 340.72,-315"/>
</a>
</g>
</g>
</g>
</svg>
