<?xml version="1.0" encoding="UTF-8" standalone="no"?>
<!DOCTYPE svg PUBLIC "-//W3C//DTD SVG 1.1//EN"
 "http://www.w3.org/Graphics/SVG/1.1/DTD/svg11.dtd">
<!-- Generated by graphviz version 2.43.0 (0)
 -->
<!-- Title: FreeCamera::FreeCamera Pages: 1 -->
<svg width="803pt" height="64pt"
 viewBox="0.00 0.00 803.00 64.00" xmlns="http://www.w3.org/2000/svg" xmlns:xlink="http://www.w3.org/1999/xlink">
<g id="graph0" class="graph" transform="scale(1 1) rotate(0) translate(4 60)">
<title>FreeCamera::FreeCamera</title>
<!-- Node1 -->
<g id="Node000001" class="node">
<title>Node1</title>
<g id="a_Node000001"><a xlink:title=" ">
<polygon fill="#999999" stroke="#666666" points="141,-37 0,-37 0,-18 141,-18 141,-37"/>
<text text-anchor="middle" x="70.5" y="-25" font-family="Helvetica,sans-Serif" font-size="10.00">FreeCamera::FreeCamera</text>
</a>
</g>
</g>
<!-- Node2 -->
<g id="Node000002" class="node">
<title>Node2</title>
<g id="a_Node000002"><a xlink:href="camera_8c.html#a1cdadb7f2a933305b209a30cdbe8c361" target="_top" xlink:title=" ">
<polygon fill="white" stroke="#666666" points="295,-56 217,-56 217,-37 295,-37 295,-56"/>
<text text-anchor="middle" x="256" y="-44" font-family="Helvetica,sans-Serif" font-size="10.00">freecam_init</text>
</a>
</g>
</g>
<!-- Node1&#45;&gt;Node2 -->
<g id="edge1_Node000001_Node000002" class="edge">
<title>Node1&#45;&gt;Node2</title>
<g id="a_edge1_Node000001_Node000002"><a xlink:title=" ">
<path fill="none" stroke="#63b8ff" d="M141.14,-34.71C162.98,-36.97 186.6,-39.42 206.64,-41.49"/>
<polygon fill="#63b8ff" stroke="#63b8ff" points="206.45,-44.99 216.76,-42.54 207.17,-38.03 206.45,-44.99"/>
</a>
</g>
</g>
<!-- Node7 -->
<g id="Node000007" class="node">
<title>Node7</title>
<g id="a_Node000007"><a xlink:href="classGameCamera.html#a45eb9969036234a820d89b1f271b126d" target="_top" xlink:title=" ">
<polygon fill="white" stroke="#666666" points="335,-19 177,-19 177,0 335,0 335,-19"/>
<text text-anchor="middle" x="256" y="-7" font-family="Helvetica,sans-Serif" font-size="10.00">GameCamera::GameCamera</text>
</a>
</g>
</g>
<!-- Node1&#45;&gt;Node7 -->
<g id="edge6_Node000001_Node000007" class="edge">
<title>Node1&#45;&gt;Node7</title>
<g id="a_edge6_Node000001_Node000007"><a xlink:title=" ">
<path fill="none" stroke="#63b8ff" d="M141.14,-20.67C149.52,-19.85 158.16,-19 166.76,-18.16"/>
<polygon fill="#63b8ff" stroke="#63b8ff" points="167.21,-21.63 176.82,-17.17 166.52,-14.66 167.21,-21.63"/>
</a>
</g>
</g>
<!-- Node3 -->
<g id="Node000003" class="node">
<title>Node3</title>
<g id="a_Node000003"><a xlink:href="math__util_8c.html#aad57b20a709b8ebe6b6c4d095a3007aa" target="_top" xlink:title=" ">
<polygon fill="white" stroke="#666666" points="463,-56 371,-56 371,-37 463,-37 463,-56"/>
<text text-anchor="middle" x="417" y="-44" font-family="Helvetica,sans-Serif" font-size="10.00">func_802B7F7C</text>
</a>
</g>
</g>
<!-- Node2&#45;&gt;Node3 -->
<g id="edge2_Node000002_Node000003" class="edge">
<title>Node2&#45;&gt;Node3</title>
<g id="a_edge2_Node000002_Node000003"><a xlink:title=" ">
<path fill="none" stroke="#63b8ff" d="M295.08,-46.5C314.75,-46.5 339.12,-46.5 360.81,-46.5"/>
<polygon fill="#63b8ff" stroke="#63b8ff" points="360.88,-50 370.88,-46.5 360.88,-43 360.88,-50"/>
</a>
</g>
</g>
<!-- Node4 -->
<g id="Node000004" class="node">
<title>Node4</title>
<g id="a_Node000004"><a xlink:href="math__util_8c.html#a7a733526eedafdec1d9e37b72771af7d" target="_top" xlink:title=" ">
<polygon fill="white" stroke="#666666" points="591,-56 499,-56 499,-37 591,-37 591,-56"/>
<text text-anchor="middle" x="545" y="-44" font-family="Helvetica,sans-Serif" font-size="10.00">func_802B7F34</text>
</a>
</g>
</g>
<!-- Node3&#45;&gt;Node4 -->
<g id="edge3_Node000003_Node000004" class="edge">
<title>Node3&#45;&gt;Node4</title>
<g id="a_edge3_Node000003_Node000004"><a xlink:title=" ">
<path fill="none" stroke="#63b8ff" d="M463.13,-46.5C471.37,-46.5 480.04,-46.5 488.53,-46.5"/>
<polygon fill="#63b8ff" stroke="#63b8ff" points="488.76,-50 498.76,-46.5 488.76,-43 488.76,-50"/>
</a>
</g>
</g>
<!-- Node5 -->
<g id="Node000005" class="node">
<title>Node5</title>
<g id="a_Node000005"><a xlink:href="math__util_8c.html#aaa39a297477f56051975259f4bddd829" target="_top" xlink:title=" ">
<polygon fill="white" stroke="#666666" points="677,-56 627,-56 627,-37 677,-37 677,-56"/>
<text text-anchor="middle" x="652" y="-44" font-family="Helvetica,sans-Serif" font-size="10.00">atan2s</text>
</a>
</g>
</g>
<!-- Node4&#45;&gt;Node5 -->
<g id="edge4_Node000004_Node000005" class="edge">
<title>Node4&#45;&gt;Node5</title>
<g id="a_edge4_Node000004_Node000005"><a xlink:title=" ">
<path fill="none" stroke="#63b8ff" d="M591.14,-46.5C599.64,-46.5 608.41,-46.5 616.52,-46.5"/>
<polygon fill="#63b8ff" stroke="#63b8ff" points="616.73,-50 626.73,-46.5 616.73,-43 616.73,-50"/>
</a>
</g>
</g>
<!-- Node6 -->
<g id="Node000006" class="node">
<title>Node6</title>
<g id="a_Node000006"><a xlink:href="math__util_8c.html#a0273b0ea0783a06996c28669a7438ed9" target="_top" xlink:title=" ">
<polygon fill="white" stroke="#666666" points="795,-56 713,-56 713,-37 795,-37 795,-56"/>
<text text-anchor="middle" x="754" y="-44" font-family="Helvetica,sans-Serif" font-size="10.00">atan2_lookup</text>
</a>
</g>
</g>
<!-- Node5&#45;&gt;Node6 -->
<g id="edge5_Node000005_Node000006" class="edge">
<title>Node5&#45;&gt;Node6</title>
<g id="a_edge5_Node000005_Node000006"><a xlink:title=" ">
<path fill="none" stroke="#63b8ff" d="M677.21,-46.5C684.85,-46.5 693.6,-46.5 702.38,-46.5"/>
<polygon fill="#63b8ff" stroke="#63b8ff" points="702.63,-50 712.63,-46.5 702.63,-43 702.63,-50"/>
</a>
</g>
</g>
</g>
</svg>
