<?xml version="1.0" encoding="UTF-8" standalone="no"?>
<!DOCTYPE svg PUBLIC "-//W3C//DTD SVG 1.1//EN"
 "http://www.w3.org/Graphics/SVG/1.1/DTD/svg11.dtd">
<!-- Generated by graphviz version 2.43.0 (0)
 -->
<!-- Title: PlayerBombKart::Draw Pages: 1 -->
<!--zoomable 541 -->

<svg id="main" version="1.1" xmlns="http://www.w3.org/2000/svg" xmlns:xlink="http://www.w3.org/1999/xlink" xml:space="preserve" onload="init(evt)">

<style type="text/css"><![CDATA[
.node, .edge {opacity: 0.7;}
.node.selected, .edge.selected {opacity: 1;}
.edge:hover path { stroke: red; }
.edge:hover polygon { stroke: red; fill: red; }
]]></style>

<defs>
  <circle id="rim" cx="0" cy="0" r="7"/>
  <circle id="rim2" cx="0" cy="0" r="3.5"/>
  <g id="zoomPlus">
    <use xlink:href="#rim" fill="#404040"><set attributeName="fill" to="#808080" begin="zoomplus.mouseover" end="zoomplus.mouseout"/></use>
    <path d="M-4,0h8M0,-4v8" fill="none" stroke="white" stroke-width="1.5" pointer-events="none"/>
  </g>
  <g id="zoomMin">
    <use xlink:href="#rim" fill="#404040"><set attributeName="fill" to="#808080" begin="zoomminus.mouseover" end="zoomminus.mouseout"/></use>
    <path d="M-4,0h8" fill="none" stroke="white" stroke-width="1.5" pointer-events="none"/>
  </g>
  <g id="arrowUp" transform="translate(30 24)">
    <use xlink:href="#rim"/>
    <path pointer-events="none" fill="none" stroke="white" stroke-width="1.5" d="M0,-3.0v7 M-2.5,-0.5L0,-3.0L2.5,-0.5"/>
  </g>
  <g id="arrowRight" transform="rotate(90) translate(36 -43)">
    <use xlink:href="#rim"/>
    <path pointer-events="none" fill="none" stroke="white" stroke-width="1.5" d="M0,-3.0v7 M-2.5,-0.5L0,-3.0L2.5,-0.5"/>
  </g>
  <g id="arrowDown" transform="rotate(180) translate(-30 -48)">
    <use xlink:href="#rim"/>
    <path pointer-events="none" fill="none" stroke="white" stroke-width="1.5" d="M0,-3.0v7 M-2.5,-0.5L0,-3.0L2.5,-0.5"/>
  </g>
  <g id="arrowLeft" transform="rotate(270) translate(-36 17)">
    <use xlink:href="#rim"/>
    <path pointer-events="none" fill="none" stroke="white" stroke-width="1.5" d="M0,-3.0v7 M-2.5,-0.5L0,-3.0L2.5,-0.5"/>
  </g>
  <g id="resetDef">
    <use xlink:href="#rim2" fill="#404040"><set attributeName="fill" to="#808080" begin="reset.mouseover" end="reset.mouseout"/></use>
  </g>
</defs>
<script type="application/ecmascript">
var viewWidth = 1377;
var viewHeight = 541;
var sectionId = 'dynsection-1';
</script>
<script type="application/ecmascript" xlink:href="svg.min.js"/>
<svg id="graph" class="graph">
<g id="viewport">
<title>PlayerBombKart::Draw</title>
<!-- Node1 -->
<g id="Node000001" class="node">
<title>Node1</title>
<g id="a_Node000001"><a xlink:title=" ">
<polygon fill="#999999" stroke="#666666" points="128,-214 0,-214 0,-195 128,-195 128,-214"/>
<text text-anchor="middle" x="64" y="-202" font-family="Helvetica,sans-Serif" font-size="10.00">PlayerBombKart::Draw</text>
</a>
</g>
</g>
<!-- Node2 -->
<g id="Node000002" class="node">
<title>Node2</title>
<g id="a_Node000002"><a xlink:href="classPlayerBombKart.html#ab3bf9332abcce97183126cb5a7bce075" target="_top" xlink:title=" ">
<polygon fill="white" stroke="#666666" points="287,-388.5 164,-388.5 164,-358.5 287,-358.5 287,-388.5"/>
<text text-anchor="start" x="172" y="-376.5" font-family="Helvetica,sans-Serif" font-size="10.00">PlayerBombKart::func</text>
<text text-anchor="middle" x="225.5" y="-365.5" font-family="Helvetica,sans-Serif" font-size="10.00">_800563DC</text>
</a>
</g>
</g>
<!-- Node1&#45;&gt;Node2 -->
<g id="edge1_Node000001_Node000002" class="edge">
<title>Node1&#45;&gt;Node2</title>
<g id="a_edge1_Node000001_Node000002"><a xlink:title=" ">
<path fill="none" stroke="#63b8ff" d="M74.03,-214.07C98.77,-240.28 168.09,-313.73 203.34,-351.08"/>
<polygon fill="#63b8ff" stroke="#63b8ff" points="200.91,-353.6 210.32,-358.47 206,-348.8 200.91,-353.6"/>
</a>
</g>
</g>
<!-- Node27 -->
<g id="Node000027" class="node">
<title>Node27</title>
<g id="a_Node000027"><a xlink:href="classPlayerBombKart.html#a2f53bd36c22062aef79e999e47d196af" target="_top" xlink:title=" ">
<polygon fill="white" stroke="#666666" points="287,-219.5 164,-219.5 164,-189.5 287,-189.5 287,-219.5"/>
<text text-anchor="start" x="172" y="-207.5" font-family="Helvetica,sans-Serif" font-size="10.00">PlayerBombKart::func</text>
<text text-anchor="middle" x="225.5" y="-196.5" font-family="Helvetica,sans-Serif" font-size="10.00">_8005669C</text>
</a>
</g>
</g>
<!-- Node1&#45;&gt;Node27 -->
<g id="edge31_Node000001_Node000027" class="edge">
<title>Node1&#45;&gt;Node27</title>
<g id="a_edge31_Node000001_Node000027"><a xlink:title=" ">
<path fill="none" stroke="#63b8ff" d="M128.04,-204.5C136.4,-204.5 145.01,-204.5 153.49,-204.5"/>
<polygon fill="#63b8ff" stroke="#63b8ff" points="153.74,-208 163.74,-204.5 153.74,-201 153.74,-208"/>
</a>
</g>
</g>
<!-- Node30 -->
<g id="Node000030" class="node">
<title>Node30</title>
<g id="a_Node000030"><a xlink:href="classPlayerBombKart.html#aa063b7ce63ddb80c6da7550630df531a" target="_top" xlink:title=" ">
<polygon fill="white" stroke="#666666" points="446,-109.5 323,-109.5 323,-79.5 446,-79.5 446,-109.5"/>
<text text-anchor="start" x="331" y="-97.5" font-family="Helvetica,sans-Serif" font-size="10.00">PlayerBombKart::func</text>
<text text-anchor="middle" x="384.5" y="-86.5" font-family="Helvetica,sans-Serif" font-size="10.00">_800568A0</text>
</a>
</g>
</g>
<!-- Node1&#45;&gt;Node30 -->
<g id="edge39_Node000001_Node000030" class="edge">
<title>Node1&#45;&gt;Node30</title>
<g id="a_edge39_Node000001_Node000030"><a xlink:title=" ">
<path fill="none" stroke="#63b8ff" d="M92.71,-194.93C145.58,-176.67 261.66,-136.58 330.1,-112.94"/>
<polygon fill="#63b8ff" stroke="#63b8ff" points="331.52,-116.15 339.83,-109.58 329.24,-109.54 331.52,-116.15"/>
</a>
</g>
</g>
<!-- Node3 -->
<g id="Node000003" class="node">
<title>Node3</title>
<g id="a_Node000003"><a xlink:href="math__util__2_8c.html#a99d173c040cb4a9d0184df2605d71e32" target="_top" xlink:title=" ">
<polygon fill="white" stroke="#666666" points="430.5,-533 338.5,-533 338.5,-514 430.5,-514 430.5,-533"/>
<text text-anchor="middle" x="384.5" y="-521" font-family="Helvetica,sans-Serif" font-size="10.00">func_800418AC</text>
</a>
</g>
</g>
<!-- Node2&#45;&gt;Node3 -->
<g id="edge2_Node000002_Node000003" class="edge">
<title>Node2&#45;&gt;Node3</title>
<g id="a_edge2_Node000002_Node000003"><a xlink:title=" ">
<path fill="none" stroke="#63b8ff" d="M233.44,-388.66C246.78,-416.15 278.69,-474.25 323,-505.5 325.12,-506.99 327.36,-508.36 329.68,-509.62"/>
<polygon fill="#63b8ff" stroke="#63b8ff" points="328.43,-512.9 338.97,-513.94 331.38,-506.55 328.43,-512.9"/>
</a>
</g>
</g>
<!-- Node6 -->
<g id="Node000006" class="node">
<title>Node6</title>
<g id="a_Node000006"><a xlink:href="render__objects_8c.html#a852c220b9eb9af78cce8e5b866dba9b2" target="_top" xlink:title=" ">
<polygon fill="white" stroke="#666666" points="430.5,-270 338.5,-270 338.5,-251 430.5,-251 430.5,-270"/>
<text text-anchor="middle" x="384.5" y="-258" font-family="Helvetica,sans-Serif" font-size="10.00">func_8004B310</text>
</a>
</g>
</g>
<!-- Node2&#45;&gt;Node6 -->
<g id="edge5_Node000002_Node000006" class="edge">
<title>Node2&#45;&gt;Node6</title>
<g id="a_edge5_Node000002_Node000006"><a xlink:title=" ">
<path fill="none" stroke="#63b8ff" d="M238.24,-358.23C254.93,-337.53 287.46,-300.72 323,-279.5 326.46,-277.43 330.17,-275.57 333.99,-273.89"/>
<polygon fill="#63b8ff" stroke="#63b8ff" points="335.6,-277.02 343.62,-270.09 333.03,-270.5 335.6,-277.02"/>
</a>
</g>
</g>
<!-- Node7 -->
<g id="Node000007" class="node">
<title>Node7</title>
<g id="a_Node000007"><a xlink:href="render__objects_8c.html#a9ea20c14c263ed864d8e02d082b6b18b" target="_top" xlink:title=" ">
<polygon fill="white" stroke="#666666" points="430.5,-496 338.5,-496 338.5,-477 430.5,-477 430.5,-496"/>
<text text-anchor="middle" x="384.5" y="-484" font-family="Helvetica,sans-Serif" font-size="10.00">func_8004B414</text>
</a>
</g>
</g>
<!-- Node2&#45;&gt;Node7 -->
<g id="edge6_Node000002_Node000007" class="edge">
<title>Node2&#45;&gt;Node7</title>
<g id="a_edge6_Node000002_Node000007"><a xlink:title=" ">
<path fill="none" stroke="#63b8ff" d="M237.88,-388.66C254.39,-409.61 286.97,-447.22 323,-468.5 325.97,-470.25 329.12,-471.85 332.37,-473.29"/>
<polygon fill="#63b8ff" stroke="#63b8ff" points="331.1,-476.56 341.69,-477 333.69,-470.05 331.1,-476.56"/>
</a>
</g>
</g>
<!-- Node8 -->
<g id="Node000008" class="node">
<title>Node8</title>
<g id="a_Node000008"><a xlink:href="render__objects_8c.html#a4f12cf578f0abd9e0aaa3f9adc4fe324" target="_top" xlink:title=" ">
<polygon fill="white" stroke="#666666" points="430,-459 339,-459 339,-440 430,-440 430,-459"/>
<text text-anchor="middle" x="384.5" y="-447" font-family="Helvetica,sans-Serif" font-size="10.00">func_800562E4</text>
</a>
</g>
</g>
<!-- Node2&#45;&gt;Node8 -->
<g id="edge7_Node000002_Node000008" class="edge">
<title>Node2&#45;&gt;Node8</title>
<g id="a_edge7_Node000002_Node000008"><a xlink:title=" ">
<path fill="none" stroke="#63b8ff" d="M252.7,-388.69C271.87,-399.54 298.68,-414.17 323,-425.5 331.02,-429.24 339.8,-432.94 348.12,-436.27"/>
<polygon fill="#63b8ff" stroke="#63b8ff" points="347.02,-439.6 357.61,-439.99 349.58,-433.08 347.02,-439.6"/>
</a>
</g>
</g>
<!-- Node11 -->
<g id="Node000011" class="node">
<title>Node11</title>
<g id="a_Node000011"><a xlink:href="GBIMiddleware_8cpp.html#a4ecc44e3c6f1ca5a6b4a20c41d3bd2d2" target="_top" xlink:title=" ">
<polygon fill="white" stroke="#666666" points="610,-239 521,-239 521,-220 610,-220 610,-239"/>
<text text-anchor="middle" x="565.5" y="-227" font-family="Helvetica,sans-Serif" font-size="10.00">gSPDisplayList</text>
</a>
</g>
</g>
<!-- Node2&#45;&gt;Node11 -->
<g id="edge27_Node000002_Node000011" class="edge">
<title>Node2&#45;&gt;Node11</title>
<g id="a_edge27_Node000002_Node000011"><a xlink:title=" ">
<path fill="none" stroke="#63b8ff" d="M286.75,-358.46C350.6,-342.42 442.74,-318.99 446,-316.5 471.62,-296.91 456.67,-273.46 482,-253.5 490.43,-246.85 500.65,-242.05 510.98,-238.57"/>
<polygon fill="#63b8ff" stroke="#63b8ff" points="512.27,-241.84 520.86,-235.63 510.28,-235.13 512.27,-241.84"/>
</a>
</g>
</g>
<!-- Node14 -->
<g id="Node000014" class="node">
<title>Node14</title>
<g id="a_Node000014"><a xlink:href="GBIMiddleware_8cpp.html#aeef79449a27a710d73576e4a4f7f7f99" target="_top" xlink:title=" ">
<polygon fill="white" stroke="#666666" points="598.5,-396 532.5,-396 532.5,-377 598.5,-377 598.5,-396"/>
<text text-anchor="middle" x="565.5" y="-384" font-family="Helvetica,sans-Serif" font-size="10.00">gSPVertex</text>
</a>
</g>
</g>
<!-- Node2&#45;&gt;Node14 -->
<g id="edge28_Node000002_Node000014" class="edge">
<title>Node2&#45;&gt;Node14</title>
<g id="a_edge28_Node000002_Node000014"><a xlink:title=" ">
<path fill="none" stroke="#63b8ff" d="M287.1,-383.65C298.97,-385.25 311.35,-386.66 323,-387.5 392.74,-392.53 474.1,-390.58 522.35,-388.61"/>
<polygon fill="#63b8ff" stroke="#63b8ff" points="522.57,-392.11 532.41,-388.18 522.27,-385.11 522.57,-392.11"/>
</a>
</g>
</g>
<!-- Node15 -->
<g id="Node000015" class="node">
<title>Node15</title>
<g id="a_Node000015"><a xlink:href="math__util__2_8c.html#a2eff0e02deb703653ee3230fbc02eb14" target="_top" xlink:title="set the matrix to a transformation matrix">
<polygon fill="white" stroke="#666666" points="649,-282 482,-282 482,-263 649,-263 649,-282"/>
<text text-anchor="middle" x="565.5" y="-270" font-family="Helvetica,sans-Serif" font-size="10.00">rsp_set_matrix_transformation</text>
</a>
</g>
</g>
<!-- Node2&#45;&gt;Node15 -->
<g id="edge30_Node000002_Node000015" class="edge">
<title>Node2&#45;&gt;Node15</title>
<g id="a_edge30_Node000002_Node000015"><a xlink:title=" ">
<path fill="none" stroke="#63b8ff" d="M287.34,-374.35C332.36,-373.21 394.55,-367.85 446,-349.5 484.76,-335.68 523.6,-306.91 545.78,-288.72"/>
<polygon fill="#63b8ff" stroke="#63b8ff" points="548.27,-291.2 553.69,-282.09 543.77,-285.83 548.27,-291.2"/>
</a>
</g>
</g>
<!-- Node26 -->
<g id="Node000026" class="node">
<title>Node26</title>
<g id="a_Node000026"><a xlink:href="render__objects_8c.html#a8a3e9d3da5a6ac97b84b553fdc5d7d59" target="_top" xlink:title=" ">
<polygon fill="white" stroke="#666666" points="433.5,-307 335.5,-307 335.5,-288 433.5,-288 433.5,-307"/>
<text text-anchor="middle" x="384.5" y="-295" font-family="Helvetica,sans-Serif" font-size="10.00">rsp_load_texture</text>
</a>
</g>
</g>
<!-- Node2&#45;&gt;Node26 -->
<g id="edge29_Node000002_Node000026" class="edge">
<title>Node2&#45;&gt;Node26</title>
<g id="a_edge29_Node000002_Node000026"><a xlink:title=" ">
<path fill="none" stroke="#63b8ff" d="M252.7,-358.31C271.87,-347.46 298.68,-332.83 323,-321.5 331.02,-317.76 339.8,-314.06 348.12,-310.73"/>
<polygon fill="#63b8ff" stroke="#63b8ff" points="349.58,-313.92 357.61,-307.01 347.02,-307.4 349.58,-313.92"/>
</a>
</g>
</g>
<!-- Node4 -->
<g id="Node000004" class="node">
<title>Node4</title>
<g id="a_Node000004"><a xlink:href="math__util_8c.html#aaa39a297477f56051975259f4bddd829" target="_top" xlink:title=" ">
<polygon fill="white" stroke="#666666" points="590.5,-533 540.5,-533 540.5,-514 590.5,-514 590.5,-533"/>
<text text-anchor="middle" x="565.5" y="-521" font-family="Helvetica,sans-Serif" font-size="10.00">atan2s</text>
</a>
</g>
</g>
<!-- Node3&#45;&gt;Node4 -->
<g id="edge3_Node000003_Node000004" class="edge">
<title>Node3&#45;&gt;Node4</title>
<g id="a_edge3_Node000003_Node000004"><a xlink:title=" ">
<path fill="none" stroke="#63b8ff" d="M430.67,-523.5C461.53,-523.5 501.79,-523.5 530.06,-523.5"/>
<polygon fill="#63b8ff" stroke="#63b8ff" points="530.27,-527 540.27,-523.5 530.27,-520 530.27,-527"/>
</a>
</g>
</g>
<!-- Node5 -->
<g id="Node000005" class="node">
<title>Node5</title>
<g id="a_Node000005"><a xlink:href="math__util_8c.html#a0273b0ea0783a06996c28669a7438ed9" target="_top" xlink:title=" ">
<polygon fill="white" stroke="#666666" points="814,-533 732,-533 732,-514 814,-514 814,-533"/>
<text text-anchor="middle" x="773" y="-521" font-family="Helvetica,sans-Serif" font-size="10.00">atan2_lookup</text>
</a>
</g>
</g>
<!-- Node4&#45;&gt;Node5 -->
<g id="edge4_Node000004_Node000005" class="edge">
<title>Node4&#45;&gt;Node5</title>
<g id="a_edge4_Node000004_Node000005"><a xlink:title=" ">
<path fill="none" stroke="#63b8ff" d="M590.88,-523.5C622.93,-523.5 680.03,-523.5 721.56,-523.5"/>
<polygon fill="#63b8ff" stroke="#63b8ff" points="721.77,-527 731.77,-523.5 721.77,-520 721.77,-527"/>
</a>
</g>
</g>
<!-- Node9 -->
<g id="Node000009" class="node">
<title>Node9</title>
<g id="a_Node000009"><a xlink:href="render__objects_8c.html#a01f1c93f475b407a8e57888c6a6dd45b" target="_top" xlink:title=" ">
<polygon fill="white" stroke="#666666" points="611.5,-477 519.5,-477 519.5,-458 611.5,-458 611.5,-477"/>
<text text-anchor="middle" x="565.5" y="-465" font-family="Helvetica,sans-Serif" font-size="10.00">func_80044BF8</text>
</a>
</g>
</g>
<!-- Node8&#45;&gt;Node9 -->
<g id="edge8_Node000008_Node000009" class="edge">
<title>Node8&#45;&gt;Node9</title>
<g id="a_edge8_Node000008_Node000009"><a xlink:title=" ">
<path fill="none" stroke="#63b8ff" d="M430.21,-454C454.14,-456.4 483.84,-459.39 509.21,-461.94"/>
<polygon fill="#63b8ff" stroke="#63b8ff" points="509.13,-465.45 519.43,-462.97 509.83,-458.48 509.13,-465.45"/>
</a>
</g>
</g>
<!-- Node10 -->
<g id="Node000010" class="node">
<title>Node10</title>
<g id="a_Node000010"><a xlink:href="render__objects_8c.html#a816f6d2e246056f98e788f34a8bd091a" target="_top" xlink:title=" ">
<polygon fill="white" stroke="#666666" points="611.5,-440 519.5,-440 519.5,-421 611.5,-421 611.5,-440"/>
<text text-anchor="middle" x="565.5" y="-428" font-family="Helvetica,sans-Serif" font-size="10.00">func_8004B138</text>
</a>
</g>
</g>
<!-- Node8&#45;&gt;Node10 -->
<g id="edge9_Node000008_Node000010" class="edge">
<title>Node8&#45;&gt;Node10</title>
<g id="a_edge9_Node000008_Node000010"><a xlink:title=" ">
<path fill="none" stroke="#63b8ff" d="M430.21,-444.75C454.14,-442.21 483.84,-439.06 509.21,-436.37"/>
<polygon fill="#63b8ff" stroke="#63b8ff" points="509.86,-439.82 519.43,-435.28 509.12,-432.86 509.86,-439.82"/>
</a>
</g>
</g>
<!-- Node8&#45;&gt;Node11 -->
<g id="edge10_Node000008_Node000011" class="edge">
<title>Node8&#45;&gt;Node11</title>
<g id="a_edge10_Node000008_Node000011"><a xlink:title=" ">
<path fill="none" stroke="#63b8ff" d="M392.14,-439.9C404,-422.47 429.18,-384.19 446,-349.5 465.88,-308.5 448.58,-284.48 482,-253.5 490.12,-245.97 500.48,-240.79 511.08,-237.23"/>
<polygon fill="#63b8ff" stroke="#63b8ff" points="512.21,-240.54 520.84,-234.39 510.26,-233.82 512.21,-240.54"/>
</a>
</g>
</g>
<!-- Node8&#45;&gt;Node14 -->
<g id="edge13_Node000008_Node000014" class="edge">
<title>Node8&#45;&gt;Node14</title>
<g id="a_edge13_Node000008_Node000014"><a xlink:title=" ">
<path fill="none" stroke="#63b8ff" d="M409.15,-439.97C428.59,-432.25 456.93,-421.25 482,-412.5 495.22,-407.89 509.75,-403.19 522.89,-399.07"/>
<polygon fill="#63b8ff" stroke="#63b8ff" points="524.11,-402.36 532.62,-396.05 522.03,-395.67 524.11,-402.36"/>
</a>
</g>
</g>
<!-- Node8&#45;&gt;Node15 -->
<g id="edge15_Node000008_Node000015" class="edge">
<title>Node8&#45;&gt;Node15</title>
<g id="a_edge15_Node000008_Node000015"><a xlink:title=" ">
<path fill="none" stroke="#63b8ff" d="M395.12,-439.98C424.02,-411.41 510.3,-326.09 547.32,-289.49"/>
<polygon fill="#63b8ff" stroke="#63b8ff" points="550.18,-291.58 554.83,-282.06 545.26,-286.61 550.18,-291.58"/>
</a>
</g>
</g>
<!-- Node12 -->
<g id="Node000012" class="node">
<title>Node12</title>
<g id="a_Node000012"><a xlink:href="Engine_8cpp.html#a223c8bc63f228dc11177515e38eff2db" target="_top" xlink:title=" ">
<polygon fill="white" stroke="#666666" points="847.5,-382 698.5,-382 698.5,-363 847.5,-363 847.5,-382"/>
<text text-anchor="middle" x="773" y="-370" font-family="Helvetica,sans-Serif" font-size="10.00">GameEngine_OTRSigCheck</text>
</a>
</g>
</g>
<!-- Node11&#45;&gt;Node12 -->
<g id="edge11_Node000011_Node000012" class="edge">
<title>Node11&#45;&gt;Node12</title>
<g id="a_edge11_Node000011_Node000012"><a xlink:title=" ">
<path fill="none" stroke="#63b8ff" d="M610.27,-237.63C623.33,-241.24 637.28,-246.35 649,-253.5 668.86,-265.62 668.48,-275.12 685,-291.5 708.26,-314.56 736.11,-340.15 753.93,-356.28"/>
<polygon fill="#63b8ff" stroke="#63b8ff" points="751.58,-358.88 761.35,-362.98 756.27,-353.69 751.58,-358.88"/>
</a>
</g>
</g>
<!-- Node13 -->
<g id="Node000013" class="node">
<title>Node13</title>
<g id="a_Node000013"><a xlink:href="string_8c.html#a008e171a518fe0e0352f31b245e03875" target="_top" xlink:title=" ">
<polygon fill="white" stroke="#666666" points="977,-382 933,-382 933,-363 977,-363 977,-382"/>
<text text-anchor="middle" x="955" y="-370" font-family="Helvetica,sans-Serif" font-size="10.00">strlen</text>
</a>
</g>
</g>
<!-- Node12&#45;&gt;Node13 -->
<g id="edge12_Node000012_Node000013" class="edge">
<title>Node12&#45;&gt;Node13</title>
<g id="a_edge12_Node000012_Node000013"><a xlink:title=" ">
<path fill="none" stroke="#63b8ff" d="M847.73,-372.5C873.86,-372.5 901.88,-372.5 922.58,-372.5"/>
<polygon fill="#63b8ff" stroke="#63b8ff" points="922.69,-376 932.69,-372.5 922.69,-369 922.69,-376"/>
</a>
</g>
</g>
<!-- Node14&#45;&gt;Node12 -->
<g id="edge14_Node000014_Node000012" class="edge">
<title>Node14&#45;&gt;Node12</title>
<g id="a_edge14_Node000014_Node000012"><a xlink:title=" ">
<path fill="none" stroke="#63b8ff" d="M598.61,-384.31C622.65,-382.67 656.69,-380.36 688.25,-378.21"/>
<polygon fill="#63b8ff" stroke="#63b8ff" points="688.65,-381.69 698.39,-377.51 688.18,-374.7 688.65,-381.69"/>
</a>
</g>
</g>
<!-- Node16 -->
<g id="Node000016" class="node">
<title>Node16</title>
<g id="a_Node000016"><a xlink:href="Matrix_8cpp.html#a329d78c031733cf22ff7518f5d38fd74" target="_top" xlink:title=" ">
<polygon fill="white" stroke="#666666" points="816,-282 730,-282 730,-263 816,-263 816,-282"/>
<text text-anchor="middle" x="773" y="-270" font-family="Helvetica,sans-Serif" font-size="10.00">AddHudMatrix</text>
</a>
</g>
</g>
<!-- Node15&#45;&gt;Node16 -->
<g id="edge16_Node000015_Node000016" class="edge">
<title>Node15&#45;&gt;Node16</title>
<g id="a_edge16_Node000015_Node000016"><a xlink:title=" ">
<path fill="none" stroke="#63b8ff" d="M649.2,-272.5C672.97,-272.5 698.23,-272.5 719.62,-272.5"/>
<polygon fill="#63b8ff" stroke="#63b8ff" points="719.78,-276 729.78,-272.5 719.78,-269 719.78,-276"/>
</a>
</g>
</g>
<!-- Node22 -->
<g id="Node000022" class="node">
<title>Node22</title>
<g id="a_Node000022"><a xlink:href="math__util__2_8c.html#ae71383a9d7f97bcb240b23f68068ab30" target="_top" xlink:title=" ">
<polygon fill="white" stroke="#666666" points="861,-225 685,-225 685,-206 861,-206 861,-225"/>
<text text-anchor="middle" x="773" y="-213" font-family="Helvetica,sans-Serif" font-size="10.00">mtxf_set_matrix_transformation</text>
</a>
</g>
</g>
<!-- Node15&#45;&gt;Node22 -->
<g id="edge22_Node000015_Node000022" class="edge">
<title>Node15&#45;&gt;Node22</title>
<g id="a_edge22_Node000015_Node000022"><a xlink:title=" ">
<path fill="none" stroke="#63b8ff" d="M600.9,-262.96C635.72,-253.3 689.71,-238.32 727.71,-227.78"/>
<polygon fill="#63b8ff" stroke="#63b8ff" points="728.79,-231.12 737.49,-225.07 726.92,-224.37 728.79,-231.12"/>
</a>
</g>
</g>
<!-- Node17 -->
<g id="Node000017" class="node">
<title>Node17</title>
<g id="a_Node000017"><a xlink:href="Matrix_8cpp.html#a67401ed1d8de1f4d3a3e5a7b72842b6a" target="_top" xlink:title=" ">
<polygon fill="white" stroke="#666666" points="988.5,-319 921.5,-319 921.5,-300 988.5,-300 988.5,-319"/>
<text text-anchor="middle" x="955" y="-307" font-family="Helvetica,sans-Serif" font-size="10.00">AddMatrix</text>
</a>
</g>
</g>
<!-- Node16&#45;&gt;Node17 -->
<g id="edge17_Node000016_Node000017" class="edge">
<title>Node16&#45;&gt;Node17</title>
<g id="a_edge17_Node000016_Node000017"><a xlink:title=" ">
<path fill="none" stroke="#63b8ff" d="M816.2,-281.17C844.8,-287.05 882.47,-294.8 911.19,-300.7"/>
<polygon fill="#63b8ff" stroke="#63b8ff" points="910.83,-304.2 921.33,-302.79 912.24,-297.34 910.83,-304.2"/>
</a>
</g>
</g>
<!-- Node21 -->
<g id="Node000021" class="node">
<title>Node21</title>
<g id="a_Node000021"><a xlink:href="Game_8cpp.html#ae2fa844b3cb1021ecbc357f8ed2ad8cc" target="_top" xlink:title=" ">
<polygon fill="white" stroke="#666666" points="986,-282 924,-282 924,-263 986,-263 986,-282"/>
<text text-anchor="middle" x="955" y="-270" font-family="Helvetica,sans-Serif" font-size="10.00">GetWorld</text>
</a>
</g>
</g>
<!-- Node16&#45;&gt;Node21 -->
<g id="edge21_Node000016_Node000021" class="edge">
<title>Node16&#45;&gt;Node21</title>
<g id="a_edge21_Node000016_Node000021"><a xlink:title=" ">
<path fill="none" stroke="#63b8ff" d="M816.2,-272.5C845.63,-272.5 884.67,-272.5 913.68,-272.5"/>
<polygon fill="#63b8ff" stroke="#63b8ff" points="913.87,-276 923.87,-272.5 913.87,-269 913.87,-276"/>
</a>
</g>
</g>
<!-- Node18 -->
<g id="Node000018" class="node">
<title>Node18</title>
<g id="a_Node000018"><a xlink:href="FrameInterpolation_8cpp.html#a8cf1f2d6fabc6925aa71a9515341b4aa" target="_top" xlink:title=" ">
<polygon fill="white" stroke="#666666" points="1207,-329.5 1067,-329.5 1067,-299.5 1207,-299.5 1207,-329.5"/>
<text text-anchor="start" x="1075" y="-317.5" font-family="Helvetica,sans-Serif" font-size="10.00">FrameInterpolation</text>
<text text-anchor="middle" x="1137" y="-306.5" font-family="Helvetica,sans-Serif" font-size="10.00">_RecordMatrixMtxFToMtx</text>
</a>
</g>
</g>
<!-- Node17&#45;&gt;Node18 -->
<g id="edge18_Node000017_Node000018" class="edge">
<title>Node17&#45;&gt;Node18</title>
<g id="a_edge18_Node000017_Node000018"><a xlink:title=" ">
<path fill="none" stroke="#63b8ff" d="M988.6,-310.41C1007.66,-310.93 1032.61,-311.63 1056.55,-312.29"/>
<polygon fill="#63b8ff" stroke="#63b8ff" points="1056.64,-315.8 1066.73,-312.58 1056.83,-308.8 1056.64,-315.8"/>
</a>
</g>
</g>
<!-- Node20 -->
<g id="Node000020" class="node">
<title>Node20</title>
<g id="a_Node000020"><a xlink:href="guMtxF2L_8c.html#a40ab2d64c609839ff1e0ef0de2d0dcc4" target="_top" xlink:title=" ">
<polygon fill="white" stroke="#666666" points="1169.5,-281 1104.5,-281 1104.5,-262 1169.5,-262 1169.5,-281"/>
<text text-anchor="middle" x="1137" y="-269" font-family="Helvetica,sans-Serif" font-size="10.00">guMtxF2L</text>
</a>
</g>
</g>
<!-- Node17&#45;&gt;Node20 -->
<g id="edge20_Node000017_Node000020" class="edge">
<title>Node17&#45;&gt;Node20</title>
<g id="a_edge20_Node000017_Node000020"><a xlink:title=" ">
<path fill="none" stroke="#63b8ff" d="M988.6,-302.62C1018.22,-296.37 1062.07,-287.11 1094.25,-280.31"/>
<polygon fill="#63b8ff" stroke="#63b8ff" points="1095.19,-283.69 1104.25,-278.2 1093.74,-276.84 1095.19,-283.69"/>
</a>
</g>
</g>
<!-- Node19 -->
<g id="Node000019" class="node">
<title>Node19</title>
<g id="a_Node000019"><a xlink:href="FrameInterpolation_8cpp.html#a02c7ac5342a4d376edee38f312b480bf" target="_top" xlink:title=" ">
<polygon fill="white" stroke="#666666" points="1369,-238 1261,-238 1261,-219 1369,-219 1369,-238"/>
<text text-anchor="middle" x="1315" y="-226" font-family="Helvetica,sans-Serif" font-size="10.00">check_if_recording</text>
</a>
</g>
</g>
<!-- Node18&#45;&gt;Node19 -->
<g id="edge19_Node000018_Node000019" class="edge">
<title>Node18&#45;&gt;Node19</title>
<g id="a_edge19_Node000018_Node000019"><a xlink:title=" ">
<path fill="none" stroke="#63b8ff" d="M1202.56,-299.35C1210.27,-296.77 1217.91,-293.83 1225,-290.5 1250.98,-278.3 1277.58,-258.65 1294.84,-244.74"/>
<polygon fill="#63b8ff" stroke="#63b8ff" points="1297.47,-247.12 1302.97,-238.07 1293.02,-241.71 1297.47,-247.12"/>
</a>
</g>
</g>
<!-- Node23 -->
<g id="Node000023" class="node">
<title>Node23</title>
<g id="a_Node000023"><a xlink:href="math__util_8c.html#ae69cbf5c8d4b3b0dba2d7b4d4673689f" target="_top" xlink:title=" ">
<polygon fill="white" stroke="#666666" points="974,-206 936,-206 936,-187 974,-187 974,-206"/>
<text text-anchor="middle" x="955" y="-194" font-family="Helvetica,sans-Serif" font-size="10.00">coss</text>
</a>
</g>
</g>
<!-- Node22&#45;&gt;Node23 -->
<g id="edge23_Node000022_Node000023" class="edge">
<title>Node22&#45;&gt;Node23</title>
<g id="a_edge23_Node000022_Node000023"><a xlink:title=" ">
<path fill="none" stroke="#63b8ff" d="M861.1,-206.31C884.43,-203.84 908.03,-201.35 925.6,-199.5"/>
<polygon fill="#63b8ff" stroke="#63b8ff" points="926.13,-202.96 935.71,-198.43 925.4,-196 926.13,-202.96"/>
</a>
</g>
</g>
<!-- Node24 -->
<g id="Node000024" class="node">
<title>Node24</title>
<g id="a_Node000024"><a xlink:href="FrameInterpolation_8cpp.html#af749df1a96bee5c78287b1845455ae2d" target="_top" xlink:title=" ">
<polygon fill="white" stroke="#666666" points="1225,-243.5 1049,-243.5 1049,-213.5 1225,-213.5 1225,-243.5"/>
<text text-anchor="start" x="1057" y="-231.5" font-family="Helvetica,sans-Serif" font-size="10.00">FrameInterpolation</text>
<text text-anchor="middle" x="1137" y="-220.5" font-family="Helvetica,sans-Serif" font-size="10.00">_RecordSetMatrixTransformation</text>
</a>
</g>
</g>
<!-- Node22&#45;&gt;Node24 -->
<g id="edge24_Node000022_Node000024" class="edge">
<title>Node22&#45;&gt;Node24</title>
<g id="a_edge24_Node000022_Node000024"><a xlink:title=" ">
<path fill="none" stroke="#63b8ff" d="M861.17,-218.63C914.74,-220.55 983.47,-223.02 1038.79,-225.01"/>
<polygon fill="#63b8ff" stroke="#63b8ff" points="1038.84,-228.51 1048.96,-225.37 1039.09,-221.52 1038.84,-228.51"/>
</a>
</g>
</g>
<!-- Node25 -->
<g id="Node000025" class="node">
<title>Node25</title>
<g id="a_Node000025"><a xlink:href="math__util_8c.html#a19ed3bd78fd2d3e2bd0a29f6caf48545" target="_top" xlink:title=" ">
<polygon fill="white" stroke="#666666" points="973,-169 937,-169 937,-150 973,-150 973,-169"/>
<text text-anchor="middle" x="955" y="-157" font-family="Helvetica,sans-Serif" font-size="10.00">sins</text>
</a>
</g>
</g>
<!-- Node22&#45;&gt;Node25 -->
<g id="edge26_Node000022_Node000025" class="edge">
<title>Node22&#45;&gt;Node25</title>
<g id="a_edge26_Node000022_Node000025"><a xlink:title=" ">
<path fill="none" stroke="#63b8ff" d="M804.94,-205.87C839.23,-195.21 893.98,-178.17 926.72,-167.99"/>
<polygon fill="#63b8ff" stroke="#63b8ff" points="928.01,-171.25 936.52,-164.94 925.93,-164.57 928.01,-171.25"/>
</a>
</g>
</g>
<!-- Node24&#45;&gt;Node19 -->
<g id="edge25_Node000024_Node000019" class="edge">
<title>Node24&#45;&gt;Node19</title>
<g id="a_edge25_Node000024_Node000019"><a xlink:title=" ">
<path fill="none" stroke="#63b8ff" d="M1225.23,-228.5C1233.74,-228.5 1242.25,-228.5 1250.46,-228.5"/>
<polygon fill="#63b8ff" stroke="#63b8ff" points="1250.67,-232 1260.67,-228.5 1250.67,-225 1250.67,-232"/>
</a>
</g>
</g>
<!-- Node27&#45;&gt;Node6 -->
<g id="edge36_Node000027_Node000006" class="edge">
<title>Node27&#45;&gt;Node6</title>
<g id="a_edge36_Node000027_Node000006"><a xlink:title=" ">
<path fill="none" stroke="#63b8ff" d="M264.34,-219.63C282.06,-226.56 303.51,-234.71 323,-241.5 329.07,-243.62 335.52,-245.75 341.86,-247.8"/>
<polygon fill="#63b8ff" stroke="#63b8ff" points="341.08,-251.22 351.67,-250.91 343.19,-244.55 341.08,-251.22"/>
</a>
</g>
</g>
<!-- Node27&#45;&gt;Node11 -->
<g id="edge37_Node000027_Node000011" class="edge">
<title>Node27&#45;&gt;Node11</title>
<g id="a_edge37_Node000027_Node000011"><a xlink:title=" ">
<path fill="none" stroke="#63b8ff" d="M287.23,-201.12C331.4,-199.49 392.56,-198.92 446,-204.5 470.37,-207.04 497.11,-212.45 519.01,-217.59"/>
<polygon fill="#63b8ff" stroke="#63b8ff" points="518.49,-221.06 529.03,-220 520.12,-214.26 518.49,-221.06"/>
</a>
</g>
</g>
<!-- Node28 -->
<g id="Node000028" class="node">
<title>Node28</title>
<g id="a_Node000028"><a xlink:href="render__objects_8c.html#abfc36be592b2cbf423febe66fa12ec34" target="_top" xlink:title=" ">
<polygon fill="white" stroke="#666666" points="430.5,-233 338.5,-233 338.5,-214 430.5,-214 430.5,-233"/>
<text text-anchor="middle" x="384.5" y="-221" font-family="Helvetica,sans-Serif" font-size="10.00">func_800431B0</text>
</a>
</g>
</g>
<!-- Node27&#45;&gt;Node28 -->
<g id="edge32_Node000027_Node000028" class="edge">
<title>Node27&#45;&gt;Node28</title>
<g id="a_edge32_Node000027_Node000028"><a xlink:title=" ">
<path fill="none" stroke="#63b8ff" d="M287.2,-211.85C300.55,-213.46 314.61,-215.16 327.75,-216.75"/>
<polygon fill="#63b8ff" stroke="#63b8ff" points="327.71,-220.27 338.06,-218 328.55,-213.32 327.71,-220.27"/>
</a>
</g>
</g>
<!-- Node29 -->
<g id="Node000029" class="node">
<title>Node29</title>
<g id="a_Node000029"><a xlink:href="render__objects_8c.html#abb8ae92ab6d9189d5851fdfad2ac7f91" target="_top" xlink:title=" ">
<polygon fill="white" stroke="#666666" points="439.5,-157.5 329.5,-157.5 329.5,-127.5 439.5,-127.5 439.5,-157.5"/>
<text text-anchor="start" x="337.5" y="-145.5" font-family="Helvetica,sans-Serif" font-size="10.00">load_texture_block</text>
<text text-anchor="middle" x="384.5" y="-134.5" font-family="Helvetica,sans-Serif" font-size="10.00">_rgba16_mirror</text>
</a>
</g>
</g>
<!-- Node27&#45;&gt;Node29 -->
<g id="edge38_Node000027_Node000029" class="edge">
<title>Node27&#45;&gt;Node29</title>
<g id="a_edge38_Node000027_Node000029"><a xlink:title=" ">
<path fill="none" stroke="#63b8ff" d="M264.51,-189.49C285.95,-181.02 312.93,-170.37 335.79,-161.34"/>
<polygon fill="#63b8ff" stroke="#63b8ff" points="337.29,-164.51 345.3,-157.59 334.71,-158 337.29,-164.51"/>
</a>
</g>
</g>
<!-- Node28&#45;&gt;Node11 -->
<g id="edge33_Node000028_Node000011" class="edge">
<title>Node28&#45;&gt;Node11</title>
<g id="a_edge33_Node000028_Node000011"><a xlink:title=" ">
<path fill="none" stroke="#63b8ff" d="M430.67,-225.01C454.97,-225.83 485.11,-226.84 510.63,-227.69"/>
<polygon fill="#63b8ff" stroke="#63b8ff" points="510.78,-231.2 520.89,-228.04 511.01,-224.21 510.78,-231.2"/>
</a>
</g>
</g>
<!-- Node28&#45;&gt;Node14 -->
<g id="edge34_Node000028_Node000014" class="edge">
<title>Node28&#45;&gt;Node14</title>
<g id="a_edge34_Node000028_Node000014"><a xlink:title=" ">
<path fill="none" stroke="#63b8ff" d="M430.05,-233.03C435.7,-235.29 441.18,-238.07 446,-241.5 468.32,-257.37 465.01,-270.03 482,-291.5 504.2,-319.55 531.76,-350.59 548.74,-369.31"/>
<polygon fill="#63b8ff" stroke="#63b8ff" points="546.2,-371.73 555.52,-376.77 551.38,-367.02 546.2,-371.73"/>
</a>
</g>
</g>
<!-- Node28&#45;&gt;Node15 -->
<g id="edge35_Node000028_Node000015" class="edge">
<title>Node28&#45;&gt;Node15</title>
<g id="a_edge35_Node000028_Node000015"><a xlink:title=" ">
<path fill="none" stroke="#63b8ff" d="M420.44,-233.06C448.77,-240.82 488.91,-251.81 519.63,-260.22"/>
<polygon fill="#63b8ff" stroke="#63b8ff" points="519.08,-263.7 529.65,-262.96 520.93,-256.94 519.08,-263.7"/>
</a>
</g>
</g>
<!-- Node30&#45;&gt;Node11 -->
<g id="edge41_Node000030_Node000011" class="edge">
<title>Node30&#45;&gt;Node11</title>
<g id="a_edge41_Node000030_Node000011"><a xlink:title=" ">
<path fill="none" stroke="#63b8ff" d="M432.87,-109.63C437.57,-112.18 442.05,-115.12 446,-118.5 469.92,-138.96 459.87,-157.11 482,-179.5 496.66,-194.34 516.59,-206.57 533.18,-215.23"/>
<polygon fill="#63b8ff" stroke="#63b8ff" points="532,-218.55 542.5,-219.9 535.13,-212.29 532,-218.55"/>
</a>
</g>
</g>
<!-- Node30&#45;&gt;Node16 -->
<g id="edge40_Node000030_Node000016" class="edge">
<title>Node30&#45;&gt;Node16</title>
<g id="a_edge40_Node000030_Node000016"><a xlink:title=" ">
<path fill="none" stroke="#63b8ff" d="M424.34,-109.59C431.57,-112.49 439.03,-115.54 446,-118.5 537.17,-157.22 561.93,-163.27 649,-210.5 665.69,-219.55 668.29,-224.48 685,-233.5 702.41,-242.9 722.53,-252.02 739.04,-259.08"/>
<polygon fill="#63b8ff" stroke="#63b8ff" points="737.71,-262.32 748.29,-262.98 740.43,-255.87 737.71,-262.32"/>
</a>
</g>
</g>
<!-- Node31 -->
<g id="Node000031" class="node">
<title>Node31</title>
<g id="a_Node000031"><a xlink:href="math__util__2_8c.html#aae502d60ed48e002c9bf17890477aebc" target="_top" xlink:title=" ">
<polygon fill="white" stroke="#666666" points="834,-104 712,-104 712,-85 834,-85 834,-104"/>
<text text-anchor="middle" x="773" y="-92" font-family="Helvetica,sans-Serif" font-size="10.00">set_transform_matrix</text>
</a>
</g>
</g>
<!-- Node30&#45;&gt;Node31 -->
<g id="edge42_Node000030_Node000031" class="edge">
<title>Node30&#45;&gt;Node31</title>
<g id="a_edge42_Node000030_Node000031"><a xlink:title=" ">
<path fill="none" stroke="#63b8ff" d="M446.32,-94.5C515.65,-94.5 628.81,-94.5 701.83,-94.5"/>
<polygon fill="#63b8ff" stroke="#63b8ff" points="701.86,-98 711.86,-94.5 701.86,-91 701.86,-98"/>
</a>
</g>
</g>
<!-- Node31&#45;&gt;Node23 -->
<g id="edge43_Node000031_Node000023" class="edge">
<title>Node31&#45;&gt;Node23</title>
<g id="a_edge43_Node000031_Node000023"><a xlink:title=" ">
<path fill="none" stroke="#63b8ff" d="M785.89,-104.16C807.1,-121 853.32,-155.99 897,-177.5 906.14,-182 916.6,-185.83 926.05,-188.85"/>
<polygon fill="#63b8ff" stroke="#63b8ff" points="925.2,-192.25 935.79,-191.8 927.23,-185.55 925.2,-192.25"/>
</a>
</g>
</g>
<!-- Node31&#45;&gt;Node25 -->
<g id="edge46_Node000031_Node000025" class="edge">
<title>Node31&#45;&gt;Node25</title>
<g id="a_edge46_Node000031_Node000025"><a xlink:title=" ">
<path fill="none" stroke="#63b8ff" d="M800.56,-104.09C834.41,-116.32 892.64,-137.34 926.8,-149.68"/>
<polygon fill="#63b8ff" stroke="#63b8ff" points="925.98,-153.1 936.57,-153.21 928.36,-146.52 925.98,-153.1"/>
</a>
</g>
</g>
<!-- Node32 -->
<g id="Node000032" class="node">
<title>Node32</title>
<g id="a_Node000032"><a xlink:href="FrameInterpolation_8cpp.html#adc4e082ac2a755e94aa8b4e8bbba9850" target="_top" xlink:title=" ">
<polygon fill="white" stroke="#666666" points="1213,-168.5 1061,-168.5 1061,-138.5 1213,-138.5 1213,-168.5"/>
<text text-anchor="start" x="1069" y="-156.5" font-family="Helvetica,sans-Serif" font-size="10.00">FrameInterpolation</text>
<text text-anchor="middle" x="1137" y="-145.5" font-family="Helvetica,sans-Serif" font-size="10.00">_RecordSetTransformMatrix</text>
</a>
</g>
</g>
<!-- Node31&#45;&gt;Node32 -->
<g id="edge44_Node000031_Node000032" class="edge">
<title>Node31&#45;&gt;Node32</title>
<g id="a_edge44_Node000031_Node000032"><a xlink:title=" ">
<path fill="none" stroke="#63b8ff" d="M832.56,-104.04C891.66,-113.68 983.55,-128.65 1050.73,-139.6"/>
<polygon fill="#63b8ff" stroke="#63b8ff" points="1050.44,-143.1 1060.87,-141.25 1051.56,-136.19 1050.44,-143.1"/>
</a>
</g>
</g>
<!-- Node33 -->
<g id="Node000033" class="node">
<title>Node33</title>
<g id="a_Node000033"><a xlink:href="math__util__2_8c.html#ab05a6d20123383498f07f82db7b6fb8d" target="_top" xlink:title=" ">
<polygon fill="white" stroke="#666666" points="1013,-93 897,-93 897,-74 1013,-74 1013,-93"/>
<text text-anchor="middle" x="955" y="-81" font-family="Helvetica,sans-Serif" font-size="10.00">vec3f_cross_product</text>
</a>
</g>
</g>
<!-- Node31&#45;&gt;Node33 -->
<g id="edge47_Node000031_Node000033" class="edge">
<title>Node31&#45;&gt;Node33</title>
<g id="a_edge47_Node000031_Node000033"><a xlink:title=" ">
<path fill="none" stroke="#63b8ff" d="M834.19,-90.82C851.1,-89.79 869.6,-88.66 886.9,-87.6"/>
<polygon fill="#63b8ff" stroke="#63b8ff" points="887.15,-91.09 896.92,-86.99 886.72,-84.11 887.15,-91.09"/>
</a>
</g>
</g>
<!-- Node34 -->
<g id="Node000034" class="node">
<title>Node34</title>
<g id="a_Node000034"><a xlink:href="math__util__2_8c.html#ad692d06c2c62cfc4e1b91e03cc0acf00" target="_top" xlink:title=" ">
<polygon fill="white" stroke="#666666" points="1004,-56 906,-56 906,-37 1004,-37 1004,-56"/>
<text text-anchor="middle" x="955" y="-44" font-family="Helvetica,sans-Serif" font-size="10.00">vec3f_normalize</text>
</a>
</g>
</g>
<!-- Node31&#45;&gt;Node34 -->
<g id="edge48_Node000031_Node000034" class="edge">
<title>Node31&#45;&gt;Node34</title>
<g id="a_edge48_Node000031_Node000034"><a xlink:title=" ">
<path fill="none" stroke="#63b8ff" d="M809.99,-84.9C838.2,-77.38 877.63,-66.86 908.11,-58.74"/>
<polygon fill="#63b8ff" stroke="#63b8ff" points="909.31,-62.04 918.07,-56.08 907.51,-55.28 909.31,-62.04"/>
</a>
</g>
</g>
<!-- Node36 -->
<g id="Node000036" class="node">
<title>Node36</title>
<g id="a_Node000036"><a xlink:href="math__util__2_8c.html#a03ebc759ba50db479384b0ad89225f1e" target="_top" xlink:title=" ">
<polygon fill="white" stroke="#666666" points="998,-19 912,-19 912,0 998,0 998,-19"/>
<text text-anchor="middle" x="955" y="-7" font-family="Helvetica,sans-Serif" font-size="10.00">vec3f_set_xyz</text>
</a>
</g>
</g>
<!-- Node31&#45;&gt;Node36 -->
<g id="edge50_Node000031_Node000036" class="edge">
<title>Node31&#45;&gt;Node36</title>
<g id="a_edge50_Node000031_Node000036"><a xlink:title=" ">
<path fill="none" stroke="#63b8ff" d="M789.44,-84.82C812.28,-70.8 856.72,-44.64 897,-27.5 901.37,-25.64 905.99,-23.87 910.64,-22.22"/>
<polygon fill="#63b8ff" stroke="#63b8ff" points="911.8,-25.52 920.15,-19.01 909.56,-18.89 911.8,-25.52"/>
</a>
</g>
</g>
<!-- Node32&#45;&gt;Node19 -->
<g id="edge45_Node000032_Node000019" class="edge">
<title>Node32&#45;&gt;Node19</title>
<g id="a_edge45_Node000032_Node000019"><a xlink:title=" ">
<path fill="none" stroke="#63b8ff" d="M1173.62,-168.68C1205.43,-182.23 1251.6,-201.91 1282.2,-214.95"/>
<polygon fill="#63b8ff" stroke="#63b8ff" points="1280.97,-218.23 1291.54,-218.93 1283.72,-211.79 1280.97,-218.23"/>
</a>
</g>
</g>
<!-- Node35 -->
<g id="Node000035" class="node">
<title>Node35</title>
<g id="a_Node000035"><a xlink:href="math_8h.html#a37bde043e94a6f074c78f10518fb5d99" target="_top" xlink:title=" ">
<polygon fill="white" stroke="#666666" points="1156.5,-56 1117.5,-56 1117.5,-37 1156.5,-37 1156.5,-56"/>
<text text-anchor="middle" x="1137" y="-44" font-family="Helvetica,sans-Serif" font-size="10.00">sqrtf</text>
</a>
</g>
</g>
<!-- Node34&#45;&gt;Node35 -->
<g id="edge49_Node000034_Node000035" class="edge">
<title>Node34&#45;&gt;Node35</title>
<g id="a_edge49_Node000034_Node000035"><a xlink:title=" ">
<path fill="none" stroke="#63b8ff" d="M1004.24,-46.5C1036.97,-46.5 1079.16,-46.5 1106.87,-46.5"/>
<polygon fill="#63b8ff" stroke="#63b8ff" points="1107.08,-50 1117.08,-46.5 1107.08,-43 1107.08,-50"/>
</a>
</g>
</g>
</g>
</svg>

<g id="navigator" transform="translate(0 0)" fill="#404254">
  <rect fill="#f2f5e9" fill-opacity="0.5" stroke="#606060" stroke-width=".5" x="0" y="0" width="60" height="60"/>
  <use id="zoomplus" xlink:href="#zoomPlus" x="17" y="9" onmousedown="handleZoom(evt,'in')"/>
  <use id="zoomminus" xlink:href="#zoomMin" x="42" y="9" onmousedown="handleZoom(evt,'out')"/>
  <use id="reset" xlink:href="#resetDef" x="30" y="36" onmousedown="handleReset()"/>
   <use id="arrowup" xlink:href="#arrowUp" x="0" y="0" onmousedown="handlePan(0,-1)"/>
  <use id="arrowright" xlink:href="#arrowRight" x="0" y="0" onmousedown="handlePan(1,0)"/>
  <use id="arrowdown" xlink:href="#arrowDown" x="0" y="0" onmousedown="handlePan(0,1)"/>
  <use id="arrowleft" xlink:href="#arrowLeft" x="0" y="0" onmousedown="handlePan(-1,0)"/>
</g>
<svg viewBox="0 0 15 15" width="100%" height="30px" preserveAspectRatio="xMaxYMin meet">
 <g id="arrow_out" transform="scale(0.3 0.3)">
  <a xlink:href="classPlayerBombKart_ae72600675ff81bcfcfe0b3e99b72fc10_cgraph_org.svg" target="_base">
   <rect id="button" ry="5" rx="5" y="6" x="6" height="38" width="38"
        fill="#f2f5e9" fill-opacity="0.5" stroke="#606060" stroke-width="1.0"/>
   <path id="arrow"
     d="M 11.500037,31.436501 C 11.940474,20.09759 22.043105,11.32322 32.158766,21.979434 L 37.068811,17.246167 C 37.068811,17.246167 37.088388,32 37.088388,32 L 22.160133,31.978069 C 22.160133,31.978069 26.997745,27.140456 26.997745,27.140456 C 18.528582,18.264221 13.291696,25.230495 11.500037,31.436501 z"
     style="fill:#404040;"/>
  </a>
 </g>
</svg>

<style type='text/css'>
<![CDATA[
[data-mouse-over-selected='false'] { opacity: 0.7; }
[data-mouse-over-selected='true']  { opacity: 1.0; }
]]>
</style>
<script type="application/ecmascript"><![CDATA[
document.addEventListener('DOMContentLoaded', (event) => {
  highlightEdges();
  highlightAdjacentNodes();
});
]]></script>
</svg>
