<?xml version="1.0" encoding="UTF-8" standalone="no"?>
<!DOCTYPE svg PUBLIC "-//W3C//DTD SVG 1.1//EN"
 "http://www.w3.org/Graphics/SVG/1.1/DTD/svg11.dtd">
<!-- Generated by graphviz version 2.43.0 (0)
 -->
<!-- Title: OPodium Pages: 1 -->
<svg width="1595pt" height="614pt"
 viewBox="0.00 0.00 1594.50 614.00" xmlns="http://www.w3.org/2000/svg" xmlns:xlink="http://www.w3.org/1999/xlink">
<g id="graph0" class="graph" transform="scale(1 1) rotate(0) translate(4 610)">
<title>OPodium</title>
<!-- Node1 -->
<g id="Node000001" class="node">
<title>Node1</title>
<g id="a_Node000001"><a xlink:title=" ">
<polygon fill="#999999" stroke="#666666" points="1219,-19 1158,-19 1158,0 1219,0 1219,-19"/>
<text text-anchor="middle" x="1188.5" y="-7" font-family="Helvetica,sans-Serif" font-size="10.00">OPodium</text>
</a>
</g>
</g>
<!-- Node2 -->
<g id="Node000002" class="node">
<title>Node2</title>
<g id="a_Node000002"><a xlink:href="classOObject.html" target="_top" xlink:title=" ">
<polygon fill="white" stroke="#666666" points="1216.5,-75 1160.5,-75 1160.5,-56 1216.5,-56 1216.5,-75"/>
<text text-anchor="middle" x="1188.5" y="-63" font-family="Helvetica,sans-Serif" font-size="10.00">OObject</text>
</a>
</g>
</g>
<!-- Node2&#45;&gt;Node1 -->
<g id="edge1_Node000001_Node000002" class="edge">
<title>Node2&#45;&gt;Node1</title>
<g id="a_edge1_Node000001_Node000002"><a xlink:title=" ">
<path fill="none" stroke="#63b8ff" d="M1188.5,-45.3C1188.5,-36.41 1188.5,-26.28 1188.5,-19.25"/>
<polygon fill="#63b8ff" stroke="#63b8ff" points="1185,-45.58 1188.5,-55.58 1192,-45.58 1185,-45.58"/>
</a>
</g>
</g>
<!-- Node3 -->
<g id="Node000003" class="node">
<title>Node3</title>
<g id="a_Node000003"><a xlink:title=" ">
<polygon fill="white" stroke="#666666" points="1138.5,-170 1088.5,-170 1088.5,-151 1138.5,-151 1138.5,-170"/>
<text text-anchor="middle" x="1113.5" y="-158" font-family="Helvetica,sans-Serif" font-size="10.00">uint8_t</text>
</a>
</g>
</g>
<!-- Node3&#45;&gt;Node2 -->
<g id="edge2_Node000002_Node000003" class="edge">
<title>Node3&#45;&gt;Node2</title>
<g id="a_edge2_Node000002_Node000003"><a xlink:title=" ">
<path fill="none" stroke="#9a32cd" stroke-dasharray="5,2" d="M1120.53,-141.28C1126.66,-127.02 1136.59,-107.28 1149.5,-93 1155.98,-85.83 1164.77,-79.64 1172.37,-75.05"/>
<polygon fill="#9a32cd" stroke="#9a32cd" points="1117.13,-140.35 1116.6,-150.93 1123.61,-142.99 1117.13,-140.35"/>
</a>
</g>
<text text-anchor="middle" x="1162" y="-107" font-family="Helvetica,sans-Serif" font-size="10.00" fill="grey"> uuid</text>
</g>
<!-- Node4 -->
<g id="Node000004" class="node">
<title>Node4</title>
<g id="a_Node000004"><a xlink:href="structObject.html" target="_top" xlink:title=" ">
<polygon fill="white" stroke="#666666" points="496.5,-170 448.5,-170 448.5,-151 496.5,-151 496.5,-170"/>
<text text-anchor="middle" x="472.5" y="-158" font-family="Helvetica,sans-Serif" font-size="10.00">Object</text>
</a>
</g>
</g>
<!-- Node4&#45;&gt;Node2 -->
<g id="edge3_Node000002_Node000004" class="edge">
<title>Node4&#45;&gt;Node2</title>
<g id="a_edge3_Node000002_Node000004"><a xlink:title=" ">
<path fill="none" stroke="#9a32cd" stroke-dasharray="5,2" d="M506.79,-153.51C579.76,-140.92 755.91,-111.35 904.5,-93 997.88,-81.47 1109.09,-72.46 1160.22,-68.58"/>
<polygon fill="#9a32cd" stroke="#9a32cd" points="506.04,-150.09 496.79,-155.24 507.24,-156.98 506.04,-150.09"/>
</a>
</g>
<text text-anchor="middle" x="909.5" y="-107" font-family="Helvetica,sans-Serif" font-size="10.00" fill="grey"> o</text>
</g>
<!-- Node5 -->
<g id="Node000005" class="node">
<title>Node5</title>
<g id="a_Node000005"><a xlink:title=" ">
<polygon fill="white" stroke="#666666" points="629.5,-353 597.5,-353 597.5,-334 629.5,-334 629.5,-353"/>
<text text-anchor="middle" x="613.5" y="-341" font-family="Helvetica,sans-Serif" font-size="10.00">f32</text>
</a>
</g>
</g>
<!-- Node5&#45;&gt;Node4 -->
<g id="edge4_Node000004_Node000005" class="edge">
<title>Node5&#45;&gt;Node4</title>
<g id="a_edge4_Node000004_Node000005"><a xlink:title=" ">
<path fill="none" stroke="#9a32cd" stroke-dasharray="5,2" d="M613.16,-323.59C612.14,-288.19 608.03,-213.76 591.5,-195 567.66,-167.94 523.86,-161.97 496.57,-161.06"/>
<polygon fill="#9a32cd" stroke="#9a32cd" points="609.67,-324.05 613.4,-333.97 616.67,-323.89 609.67,-324.05"/>
</a>
</g>
<text text-anchor="middle" x="648" y="-291.5" font-family="Helvetica,sans-Serif" font-size="10.00" fill="grey"> offset</text>
<text text-anchor="middle" x="648" y="-280.5" font-family="Helvetica,sans-Serif" font-size="10.00" fill="grey">origin_pos</text>
<text text-anchor="middle" x="648" y="-269.5" font-family="Helvetica,sans-Serif" font-size="10.00" fill="grey">pos</text>
<text text-anchor="middle" x="648" y="-258.5" font-family="Helvetica,sans-Serif" font-size="10.00" fill="grey">sizeScaling</text>
<text text-anchor="middle" x="648" y="-247.5" font-family="Helvetica,sans-Serif" font-size="10.00" fill="grey">surfaceHeight</text>
<text text-anchor="middle" x="648" y="-236.5" font-family="Helvetica,sans-Serif" font-size="10.00" fill="grey">unk_01C</text>
<text text-anchor="middle" x="648" y="-225.5" font-family="Helvetica,sans-Serif" font-size="10.00" fill="grey">unk_034</text>
<text text-anchor="middle" x="648" y="-214.5" font-family="Helvetica,sans-Serif" font-size="10.00" fill="grey">velocity</text>
</g>
<!-- Node6 -->
<g id="Node000006" class="node">
<title>Node6</title>
<g id="a_Node000006"><a xlink:title=" ">
<polygon fill="white" stroke="#666666" points="953.5,-353 919.5,-353 919.5,-334 953.5,-334 953.5,-353"/>
<text text-anchor="middle" x="936.5" y="-341" font-family="Helvetica,sans-Serif" font-size="10.00">s32</text>
</a>
</g>
</g>
<!-- Node6&#45;&gt;Node1 -->
<g id="edge28_Node000001_Node000006" class="edge">
<title>Node6&#45;&gt;Node1</title>
<g id="a_edge28_Node000001_Node000006"><a xlink:title=" ">
<path fill="none" stroke="#9a32cd" stroke-dasharray="5,2" d="M934.54,-323.82C929.54,-272.25 918.5,-129.29 945.5,-93 995.77,-25.45 1104.26,-12.67 1157.61,-10.61"/>
<polygon fill="#9a32cd" stroke="#9a32cd" points="931.07,-324.27 935.56,-333.87 938.04,-323.57 931.07,-324.27"/>
</a>
</g>
<text text-anchor="middle" x="985" y="-118" font-family="Helvetica,sans-Serif" font-size="10.00" fill="grey"> _podium1Index</text>
<text text-anchor="middle" x="985" y="-107" font-family="Helvetica,sans-Serif" font-size="10.00" fill="grey">_podium2Index</text>
<text text-anchor="middle" x="985" y="-96" font-family="Helvetica,sans-Serif" font-size="10.00" fill="grey">_podium3Index</text>
</g>
<!-- Node6&#45;&gt;Node2 -->
<g id="edge21_Node000002_Node000006" class="edge">
<title>Node6&#45;&gt;Node2</title>
<g id="a_edge21_Node000002_Node000006"><a xlink:title=" ">
<path fill="none" stroke="#9a32cd" stroke-dasharray="5,2" d="M959.95,-328.75C1001.91,-303.23 1090.73,-244.91 1147.5,-177 1173.88,-145.44 1184.11,-95.32 1187.29,-75.24"/>
<polygon fill="#9a32cd" stroke="#9a32cd" points="958.04,-325.82 951.27,-333.97 961.64,-331.82 958.04,-325.82"/>
</a>
</g>
<text text-anchor="middle" x="1199.5" y="-158" font-family="Helvetica,sans-Serif" font-size="10.00" fill="grey"> _objectIndex</text>
</g>
<!-- Node6&#45;&gt;Node4 -->
<g id="edge5_Node000004_Node000006" class="edge">
<title>Node6&#45;&gt;Node4</title>
<g id="a_edge5_Node000004_Node000006"><a xlink:title=" ">
<path fill="none" stroke="#9a32cd" stroke-dasharray="5,2" d="M909.75,-335.91C898.81,-331.9 887,-325.62 879.5,-316 845.86,-272.81 897.11,-231.71 856.5,-195 829.79,-170.85 576.52,-163.63 496.56,-161.94"/>
<polygon fill="#9a32cd" stroke="#9a32cd" points="908.8,-339.28 919.39,-338.99 910.93,-332.61 908.8,-339.28"/>
</a>
</g>
<text text-anchor="middle" x="901" y="-280.5" font-family="Helvetica,sans-Serif" font-size="10.00" fill="grey"> status</text>
<text text-anchor="middle" x="901" y="-269.5" font-family="Helvetica,sans-Serif" font-size="10.00" fill="grey">timer</text>
<text text-anchor="middle" x="901" y="-258.5" font-family="Helvetica,sans-Serif" font-size="10.00" fill="grey">unk_048</text>
<text text-anchor="middle" x="901" y="-247.5" font-family="Helvetica,sans-Serif" font-size="10.00" fill="grey">unk_04C</text>
<text text-anchor="middle" x="901" y="-236.5" font-family="Helvetica,sans-Serif" font-size="10.00" fill="grey">unk_058</text>
<text text-anchor="middle" x="901" y="-225.5" font-family="Helvetica,sans-Serif" font-size="10.00" fill="grey">unk_05C</text>
</g>
<!-- Node7 -->
<g id="Node000007" class="node">
<title>Node7</title>
<g id="a_Node000007"><a xlink:title=" ">
<polygon fill="white" stroke="#666666" points="75,-353 0,-353 0,-334 75,-334 75,-353"/>
<text text-anchor="middle" x="37.5" y="-341" font-family="Helvetica,sans-Serif" font-size="10.00">const char *</text>
</a>
</g>
</g>
<!-- Node7&#45;&gt;Node2 -->
<g id="edge19_Node000002_Node000007" class="edge">
<title>Node7&#45;&gt;Node2</title>
<g id="a_edge19_Node000002_Node000007"><a xlink:title=" ">
<path fill="none" stroke="#9a32cd" stroke-dasharray="5,2" d="M30.33,-324.49C19.48,-293.91 3.26,-231.59 34.5,-195 110.17,-106.36 990.78,-73.01 1160.35,-67.39"/>
<polygon fill="#9a32cd" stroke="#9a32cd" points="27.07,-325.75 33.86,-333.89 33.62,-323.29 27.07,-325.75"/>
</a>
</g>
<text text-anchor="middle" x="212" y="-169" font-family="Helvetica,sans-Serif" font-size="10.00" fill="grey"> Model</text>
<text text-anchor="middle" x="212" y="-158" font-family="Helvetica,sans-Serif" font-size="10.00" fill="grey">Name</text>
<text text-anchor="middle" x="212" y="-147" font-family="Helvetica,sans-Serif" font-size="10.00" fill="grey">ResourceName</text>
</g>
<!-- Node7&#45;&gt;Node4 -->
<g id="edge6_Node000004_Node000007" class="edge">
<title>Node7&#45;&gt;Node4</title>
<g id="a_edge6_Node000004_Node000007"><a xlink:title=" ">
<path fill="none" stroke="#9a32cd" stroke-dasharray="5,2" d="M36.57,-323.81C35.24,-288.17 34.65,-212.46 52.5,-195 80.9,-167.21 363.57,-162.46 448.5,-161.66"/>
<polygon fill="#9a32cd" stroke="#9a32cd" points="33.08,-324.01 37.01,-333.85 40.07,-323.71 33.08,-324.01"/>
</a>
</g>
<text text-anchor="middle" x="86" y="-258.5" font-family="Helvetica,sans-Serif" font-size="10.00" fill="grey"> activeTLUT</text>
<text text-anchor="middle" x="86" y="-247.5" font-family="Helvetica,sans-Serif" font-size="10.00" fill="grey">activeTexture</text>
</g>
<!-- Node8 -->
<g id="Node000008" class="node">
<title>Node8</title>
<g id="a_Node000008"><a xlink:title=" ">
<polygon fill="white" stroke="#666666" points="720,-353 691,-353 691,-334 720,-334 720,-353"/>
<text text-anchor="middle" x="705.5" y="-341" font-family="Helvetica,sans-Serif" font-size="10.00">u8</text>
</a>
</g>
</g>
<!-- Node8&#45;&gt;Node4 -->
<g id="edge7_Node000004_Node000008" class="edge">
<title>Node8&#45;&gt;Node4</title>
<g id="a_edge7_Node000004_Node000008"><a xlink:title=" ">
<path fill="none" stroke="#9a32cd" stroke-dasharray="5,2" d="M705.36,-323.88C704.7,-288.35 701.18,-212.84 683.5,-195 657.79,-169.05 546.7,-163.2 496.86,-161.88"/>
<polygon fill="#9a32cd" stroke="#9a32cd" points="701.86,-323.93 705.5,-333.88 708.86,-323.84 701.86,-323.93"/>
</a>
</g>
<text text-anchor="middle" x="741" y="-308" font-family="Helvetica,sans-Serif" font-size="10.00" fill="grey"> textureHeight</text>
<text text-anchor="middle" x="741" y="-297" font-family="Helvetica,sans-Serif" font-size="10.00" fill="grey">textureWidth</text>
<text text-anchor="middle" x="741" y="-286" font-family="Helvetica,sans-Serif" font-size="10.00" fill="grey">tlutList</text>
<text text-anchor="middle" x="741" y="-275" font-family="Helvetica,sans-Serif" font-size="10.00" fill="grey">unk_0D5</text>
<text text-anchor="middle" x="741" y="-264" font-family="Helvetica,sans-Serif" font-size="10.00" fill="grey">unk_0D6</text>
<text text-anchor="middle" x="741" y="-253" font-family="Helvetica,sans-Serif" font-size="10.00" fill="grey">unk_0D7</text>
<text text-anchor="middle" x="741" y="-242" font-family="Helvetica,sans-Serif" font-size="10.00" fill="grey">unk_0D8</text>
<text text-anchor="middle" x="741" y="-231" font-family="Helvetica,sans-Serif" font-size="10.00" fill="grey">unk_0DB</text>
<text text-anchor="middle" x="741" y="-220" font-family="Helvetica,sans-Serif" font-size="10.00" fill="grey">unk_0DC</text>
<text text-anchor="middle" x="741" y="-209" font-family="Helvetica,sans-Serif" font-size="10.00" fill="grey">unk_0DD</text>
<text text-anchor="middle" x="741" y="-198" font-family="Helvetica,sans-Serif" font-size="10.00" fill="grey">...</text>
</g>
<!-- Node9 -->
<g id="Node000009" class="node">
<title>Node9</title>
<g id="a_Node000009"><a xlink:title=" ">
<polygon fill="white" stroke="#666666" points="839.5,-353 759.5,-353 759.5,-334 839.5,-334 839.5,-353"/>
<text text-anchor="middle" x="799.5" y="-341" font-family="Helvetica,sans-Serif" font-size="10.00">const char **</text>
</a>
</g>
</g>
<!-- Node9&#45;&gt;Node4 -->
<g id="edge8_Node000004_Node000009" class="edge">
<title>Node9&#45;&gt;Node4</title>
<g id="a_edge8_Node000004_Node000009"><a xlink:title=" ">
<path fill="none" stroke="#9a32cd" stroke-dasharray="5,2" d="M799.44,-323.8C798.9,-288.14 795.6,-212.41 777.5,-195 757.35,-175.61 565.02,-165.49 496.55,-162.48"/>
<polygon fill="#9a32cd" stroke="#9a32cd" points="795.94,-323.88 799.53,-333.85 802.94,-323.81 795.94,-323.88"/>
</a>
</g>
<text text-anchor="middle" x="827.5" y="-253" font-family="Helvetica,sans-Serif" font-size="10.00" fill="grey"> textureList</text>
</g>
<!-- Node10 -->
<g id="Node000010" class="node">
<title>Node10</title>
<g id="a_Node000010"><a xlink:title=" ">
<polygon fill="white" stroke="#666666" points="160.5,-353 126.5,-353 126.5,-334 160.5,-334 160.5,-353"/>
<text text-anchor="middle" x="143.5" y="-341" font-family="Helvetica,sans-Serif" font-size="10.00">Gfx</text>
</a>
</g>
</g>
<!-- Node10&#45;&gt;Node4 -->
<g id="edge9_Node000004_Node000010" class="edge">
<title>Node10&#45;&gt;Node4</title>
<g id="a_edge9_Node000004_Node000010"><a xlink:title=" ">
<path fill="none" stroke="#9a32cd" stroke-dasharray="5,2" d="M136.47,-324.3C125.87,-293.42 110.25,-230.69 142.5,-195 162.96,-172.36 375.85,-164.24 448.42,-162.12"/>
<polygon fill="#9a32cd" stroke="#9a32cd" points="133.21,-325.59 139.92,-333.79 139.79,-323.2 133.21,-325.59"/>
</a>
</g>
<text text-anchor="middle" x="159.5" y="-253" font-family="Helvetica,sans-Serif" font-size="10.00" fill="grey"> model</text>
</g>
<!-- Node11 -->
<g id="Node000011" class="node">
<title>Node11</title>
<g id="a_Node000011"><a xlink:title=" ">
<polygon fill="white" stroke="#666666" points="217,-353 184,-353 184,-334 217,-334 217,-353"/>
<text text-anchor="middle" x="200.5" y="-341" font-family="Helvetica,sans-Serif" font-size="10.00">Vtx</text>
</a>
</g>
</g>
<!-- Node11&#45;&gt;Node4 -->
<g id="edge10_Node000004_Node000011" class="edge">
<title>Node11&#45;&gt;Node4</title>
<g id="a_edge10_Node000004_Node000011"><a xlink:title=" ">
<path fill="none" stroke="#9a32cd" stroke-dasharray="5,2" d="M193.55,-324.37C183.07,-293.6 167.62,-231.03 199.5,-195 215.87,-176.49 384.26,-166.01 448.12,-162.68"/>
<polygon fill="#9a32cd" stroke="#9a32cd" points="190.28,-325.61 196.96,-333.83 196.86,-323.23 190.28,-325.61"/>
</a>
</g>
<text text-anchor="middle" x="217" y="-253" font-family="Helvetica,sans-Serif" font-size="10.00" fill="grey"> vertex</text>
</g>
<!-- Node12 -->
<g id="Node000012" class="node">
<title>Node12</title>
<g id="a_Node000012"><a xlink:title=" ">
<polygon fill="white" stroke="#666666" points="268,-353 239,-353 239,-334 268,-334 268,-353"/>
<text text-anchor="middle" x="253.5" y="-341" font-family="Helvetica,sans-Serif" font-size="10.00">s8</text>
</a>
</g>
</g>
<!-- Node12&#45;&gt;Node4 -->
<g id="edge11_Node000004_Node000012" class="edge">
<title>Node12&#45;&gt;Node4</title>
<g id="a_edge11_Node000004_Node000012"><a xlink:title=" ">
<path fill="none" stroke="#9a32cd" stroke-dasharray="5,2" d="M247.63,-323.94C239.12,-293.02 227.62,-230.79 259.5,-195 284.15,-167.33 398.09,-162.42 448.45,-161.62"/>
<polygon fill="#9a32cd" stroke="#9a32cd" points="244.36,-325.22 250.54,-333.82 251.07,-323.24 244.36,-325.22"/>
</a>
</g>
<text text-anchor="middle" x="299.5" y="-308" font-family="Helvetica,sans-Serif" font-size="10.00" fill="grey"> isTimerActive</text>
<text text-anchor="middle" x="299.5" y="-297" font-family="Helvetica,sans-Serif" font-size="10.00" fill="grey">textureListIndex</text>
<text text-anchor="middle" x="299.5" y="-286" font-family="Helvetica,sans-Serif" font-size="10.00" fill="grey">unk_078</text>
<text text-anchor="middle" x="299.5" y="-275" font-family="Helvetica,sans-Serif" font-size="10.00" fill="grey">unk_0CA</text>
<text text-anchor="middle" x="299.5" y="-264" font-family="Helvetica,sans-Serif" font-size="10.00" fill="grey">unk_0CC</text>
<text text-anchor="middle" x="299.5" y="-253" font-family="Helvetica,sans-Serif" font-size="10.00" fill="grey">unk_0CD</text>
<text text-anchor="middle" x="299.5" y="-242" font-family="Helvetica,sans-Serif" font-size="10.00" fill="grey">unk_0CE</text>
<text text-anchor="middle" x="299.5" y="-231" font-family="Helvetica,sans-Serif" font-size="10.00" fill="grey">unk_0CF</text>
<text text-anchor="middle" x="299.5" y="-220" font-family="Helvetica,sans-Serif" font-size="10.00" fill="grey">unk_0D0</text>
<text text-anchor="middle" x="299.5" y="-209" font-family="Helvetica,sans-Serif" font-size="10.00" fill="grey">unk_0D1</text>
<text text-anchor="middle" x="299.5" y="-198" font-family="Helvetica,sans-Serif" font-size="10.00" fill="grey">...</text>
</g>
<!-- Node13 -->
<g id="Node000013" class="node">
<title>Node13</title>
<g id="a_Node000013"><a xlink:href="structSplineControlPoint.html" target="_top" xlink:title=" ">
<polygon fill="white" stroke="#666666" points="370,-529 263,-529 263,-510 370,-510 370,-529"/>
<text text-anchor="middle" x="316.5" y="-517" font-family="Helvetica,sans-Serif" font-size="10.00">SplineControlPoint</text>
</a>
</g>
</g>
<!-- Node13&#45;&gt;Node4 -->
<g id="edge12_Node000004_Node000013" class="edge">
<title>Node13&#45;&gt;Node4</title>
<g id="a_edge12_Node000004_Node000013"><a xlink:title=" ">
<path fill="none" stroke="#9a32cd" stroke-dasharray="5,2" d="M310.71,-500C300.95,-465.18 284.92,-388.54 313.5,-334 320.02,-321.55 330,-326.36 339.5,-316 381.32,-270.36 363.94,-237.98 408.5,-195 419.96,-183.94 435.8,-175.61 448.86,-170.02"/>
<polygon fill="#9a32cd" stroke="#9a32cd" points="307.4,-501.15 313.59,-509.75 314.11,-499.17 307.4,-501.15"/>
</a>
</g>
<text text-anchor="middle" x="347" y="-341" font-family="Helvetica,sans-Serif" font-size="10.00" fill="grey"> controlPoints</text>
</g>
<!-- Node15 -->
<g id="Node000015" class="node">
<title>Node15</title>
<g id="a_Node000015"><a xlink:href="structSplineData.html" target="_top" xlink:title=" ">
<polygon fill="white" stroke="#666666" points="459.5,-353 389.5,-353 389.5,-334 459.5,-334 459.5,-353"/>
<text text-anchor="middle" x="424.5" y="-341" font-family="Helvetica,sans-Serif" font-size="10.00">SplineData</text>
</a>
</g>
</g>
<!-- Node13&#45;&gt;Node15 -->
<g id="edge16_Node000015_Node000013" class="edge">
<title>Node13&#45;&gt;Node15</title>
<g id="a_edge16_Node000015_Node000013"><a xlink:title=" ">
<path fill="none" stroke="#9a32cd" stroke-dasharray="5,2" d="M316.88,-499.63C317.97,-464.29 322.2,-389.96 338.5,-371 345.32,-363.06 368.57,-356.17 389.17,-351.41"/>
<polygon fill="#9a32cd" stroke="#9a32cd" points="313.37,-499.9 316.62,-509.99 320.37,-500.08 313.37,-499.9"/>
</a>
</g>
<text text-anchor="middle" x="372" y="-429" font-family="Helvetica,sans-Serif" font-size="10.00" fill="grey"> controlPoints</text>
</g>
<!-- Node14 -->
<g id="Node000014" class="node">
<title>Node14</title>
<g id="a_Node000014"><a xlink:title=" ">
<polygon fill="white" stroke="#666666" points="423.5,-606 389.5,-606 389.5,-587 423.5,-587 423.5,-606"/>
<text text-anchor="middle" x="406.5" y="-594" font-family="Helvetica,sans-Serif" font-size="10.00">s16</text>
</a>
</g>
</g>
<!-- Node14&#45;&gt;Node4 -->
<g id="edge17_Node000004_Node000014" class="edge">
<title>Node14&#45;&gt;Node4</title>
<g id="a_edge17_Node000004_Node000014"><a xlink:title=" ">
<path fill="none" stroke="#9a32cd" stroke-dasharray="5,2" d="M433.22,-586.51C457.76,-576.66 492.66,-558.24 508.5,-529 512.52,-521.58 508.98,-518.43 508.5,-510 503.6,-423.36 495.3,-402.33 486.5,-316 480.84,-260.54 475.18,-193.75 473.22,-170.22"/>
<polygon fill="#9a32cd" stroke="#9a32cd" points="431.85,-583.28 423.74,-590.1 434.33,-589.83 431.85,-583.28"/>
</a>
</g>
<text text-anchor="middle" x="534.5" y="-484" font-family="Helvetica,sans-Serif" font-size="10.00" fill="grey"> primAlpha</text>
<text text-anchor="middle" x="534.5" y="-473" font-family="Helvetica,sans-Serif" font-size="10.00" fill="grey">state</text>
<text text-anchor="middle" x="534.5" y="-462" font-family="Helvetica,sans-Serif" font-size="10.00" fill="grey">type</text>
<text text-anchor="middle" x="534.5" y="-451" font-family="Helvetica,sans-Serif" font-size="10.00" fill="grey">unk_084</text>
<text text-anchor="middle" x="534.5" y="-440" font-family="Helvetica,sans-Serif" font-size="10.00" fill="grey">unk_09C</text>
<text text-anchor="middle" x="534.5" y="-429" font-family="Helvetica,sans-Serif" font-size="10.00" fill="grey">unk_09E</text>
<text text-anchor="middle" x="534.5" y="-418" font-family="Helvetica,sans-Serif" font-size="10.00" fill="grey">unk_0A2</text>
<text text-anchor="middle" x="534.5" y="-407" font-family="Helvetica,sans-Serif" font-size="10.00" fill="grey">unk_0A8</text>
<text text-anchor="middle" x="534.5" y="-396" font-family="Helvetica,sans-Serif" font-size="10.00" fill="grey">unk_0AA</text>
<text text-anchor="middle" x="534.5" y="-385" font-family="Helvetica,sans-Serif" font-size="10.00" fill="grey">unk_0AC</text>
<text text-anchor="middle" x="534.5" y="-374" font-family="Helvetica,sans-Serif" font-size="10.00" fill="grey">...</text>
</g>
<!-- Node14&#45;&gt;Node13 -->
<g id="edge13_Node000013_Node000014" class="edge">
<title>Node14&#45;&gt;Node13</title>
<g id="a_edge13_Node000013_Node000014"><a xlink:title=" ">
<path fill="none" stroke="#9a32cd" stroke-dasharray="5,2" d="M379.98,-585.53C370.71,-581.29 360.6,-575.74 352.5,-569 338.64,-557.46 327.15,-539.53 321.11,-529.01"/>
<polygon fill="#9a32cd" stroke="#9a32cd" points="378.65,-588.77 389.22,-589.48 381.4,-582.33 378.65,-588.77"/>
</a>
</g>
<text text-anchor="middle" x="372.5" y="-561" font-family="Helvetica,sans-Serif" font-size="10.00" fill="grey"> pos</text>
<text text-anchor="middle" x="372.5" y="-550" font-family="Helvetica,sans-Serif" font-size="10.00" fill="grey">velocity</text>
</g>
<!-- Node14&#45;&gt;Node15 -->
<g id="edge15_Node000015_Node000014" class="edge">
<title>Node14&#45;&gt;Node15</title>
<g id="a_edge15_Node000015_Node000014"><a xlink:title=" ">
<path fill="none" stroke="#9a32cd" stroke-dasharray="5,2" d="M407.85,-576.73C411.47,-526.23 421.32,-388.86 423.88,-353.1"/>
<polygon fill="#9a32cd" stroke="#9a32cd" points="404.34,-576.64 407.12,-586.86 411.33,-577.14 404.34,-576.64"/>
</a>
</g>
<text text-anchor="middle" x="459" y="-517" font-family="Helvetica,sans-Serif" font-size="10.00" fill="grey"> numControlPoints</text>
</g>
<!-- Node15&#45;&gt;Node4 -->
<g id="edge14_Node000004_Node000015" class="edge">
<title>Node15&#45;&gt;Node4</title>
<g id="a_edge14_Node000004_Node000015"><a xlink:title=" ">
<path fill="none" stroke="#9a32cd" stroke-dasharray="5,2" d="M419.5,-323.8C412.73,-294.48 403.82,-236.73 425.5,-195 431.23,-183.97 442.43,-175.77 452.47,-170.24"/>
<polygon fill="#9a32cd" stroke="#9a32cd" points="416.19,-325.01 422,-333.87 422.98,-323.32 416.19,-325.01"/>
</a>
</g>
<text text-anchor="middle" x="442" y="-253" font-family="Helvetica,sans-Serif" font-size="10.00" fill="grey"> spline</text>
</g>
<!-- Node16 -->
<g id="Node000016" class="node">
<title>Node16</title>
<g id="a_Node000016"><a xlink:title=" ">
<polygon fill="white" stroke="#666666" points="551,-353 516,-353 516,-334 551,-334 551,-353"/>
<text text-anchor="middle" x="533.5" y="-341" font-family="Helvetica,sans-Serif" font-size="10.00">u16</text>
</a>
</g>
</g>
<!-- Node16&#45;&gt;Node4 -->
<g id="edge18_Node000004_Node000016" class="edge">
<title>Node16&#45;&gt;Node4</title>
<g id="a_edge18_Node000004_Node000016"><a xlink:title=" ">
<path fill="none" stroke="#9a32cd" stroke-dasharray="5,2" d="M514.54,-326.91C511.46,-323.6 508.59,-319.91 506.5,-316 480.68,-267.73 497.18,-248 483.5,-195 481.3,-186.46 478.09,-176.93 475.71,-170.22"/>
<polygon fill="#9a32cd" stroke="#9a32cd" points="512.23,-329.54 521.88,-333.89 517.05,-324.47 512.23,-329.54"/>
</a>
</g>
<text text-anchor="middle" x="549" y="-291.5" font-family="Helvetica,sans-Serif" font-size="10.00" fill="grey"> animationTimer</text>
<text text-anchor="middle" x="549" y="-280.5" font-family="Helvetica,sans-Serif" font-size="10.00" fill="grey">boundingBoxSize</text>
<text text-anchor="middle" x="549" y="-269.5" font-family="Helvetica,sans-Serif" font-size="10.00" fill="grey">direction_angle</text>
<text text-anchor="middle" x="549" y="-258.5" font-family="Helvetica,sans-Serif" font-size="10.00" fill="grey">orientation</text>
<text text-anchor="middle" x="549" y="-247.5" font-family="Helvetica,sans-Serif" font-size="10.00" fill="grey">unk_09A</text>
<text text-anchor="middle" x="549" y="-236.5" font-family="Helvetica,sans-Serif" font-size="10.00" fill="grey">unk_0B8</text>
<text text-anchor="middle" x="549" y="-225.5" font-family="Helvetica,sans-Serif" font-size="10.00" fill="grey">unk_0C4</text>
<text text-anchor="middle" x="549" y="-214.5" font-family="Helvetica,sans-Serif" font-size="10.00" fill="grey">unk_0C6</text>
</g>
<!-- Node17 -->
<g id="Node000017" class="node">
<title>Node17</title>
<g id="a_Node000017"><a xlink:title=" ">
<polygon fill="white" stroke="#666666" points="1057.5,-170 1019.5,-170 1019.5,-151 1057.5,-151 1057.5,-170"/>
<text text-anchor="middle" x="1038.5" y="-158" font-family="Helvetica,sans-Serif" font-size="10.00">bool</text>
</a>
</g>
</g>
<!-- Node17&#45;&gt;Node2 -->
<g id="edge20_Node000002_Node000017" class="edge">
<title>Node17&#45;&gt;Node2</title>
<g id="a_edge20_Node000002_Node000017"><a xlink:title=" ">
<path fill="none" stroke="#9a32cd" stroke-dasharray="5,2" d="M1031.99,-141.46C1027.94,-126.72 1025.37,-106.23 1036.5,-93 1052.01,-74.55 1120.86,-68.94 1160.37,-67.24"/>
<polygon fill="#9a32cd" stroke="#9a32cd" points="1028.66,-142.53 1035.03,-150.99 1035.33,-140.4 1028.66,-142.53"/>
</a>
</g>
<text text-anchor="middle" x="1080" y="-107" font-family="Helvetica,sans-Serif" font-size="10.00" fill="grey"> bPendingDestroy</text>
</g>
<!-- Node18 -->
<g id="Node000018" class="node">
<title>Node18</title>
<g id="a_Node000018"><a xlink:href="structFVector.html" target="_top" xlink:title=" ">
<polygon fill="white" stroke="#666666" points="1508,-170 1455,-170 1455,-151 1508,-151 1508,-170"/>
<text text-anchor="middle" x="1481.5" y="-158" font-family="Helvetica,sans-Serif" font-size="10.00">FVector</text>
</a>
</g>
</g>
<!-- Node18&#45;&gt;Node1 -->
<g id="edge29_Node000001_Node000018" class="edge">
<title>Node18&#45;&gt;Node1</title>
<g id="a_edge29_Node000001_Node000018"><a xlink:title=" ">
<path fill="none" stroke="#9a32cd" stroke-dasharray="5,2" d="M1492.33,-141.82C1499.66,-127.33 1506.23,-107 1495.5,-93 1461.58,-48.76 1290.05,-22.97 1219.19,-14.06"/>
<polygon fill="#9a32cd" stroke="#9a32cd" points="1489.15,-140.33 1487.33,-150.77 1495.26,-143.74 1489.15,-140.33"/>
</a>
</g>
<text text-anchor="middle" x="1483.5" y="-63" font-family="Helvetica,sans-Serif" font-size="10.00" fill="grey"> _pos</text>
</g>
<!-- Node18&#45;&gt;Node2 -->
<g id="edge22_Node000002_Node000018" class="edge">
<title>Node18&#45;&gt;Node2</title>
<g id="a_edge22_Node000002_Node000018"><a xlink:title=" ">
<path fill="none" stroke="#9a32cd" stroke-dasharray="5,2" d="M1459.1,-145C1451.49,-139.53 1443.22,-132.94 1436.5,-126 1424.06,-113.16 1428.84,-102.19 1413.5,-93 1380.94,-73.5 1269.59,-68.34 1216.76,-66.98"/>
<polygon fill="#9a32cd" stroke="#9a32cd" points="1457.38,-148.06 1467.59,-150.86 1461.35,-142.3 1457.38,-148.06"/>
</a>
</g>
<text text-anchor="middle" x="1466" y="-112.5" font-family="Helvetica,sans-Serif" font-size="10.00" fill="grey"> SpawnPos</text>
<text text-anchor="middle" x="1466" y="-101.5" font-family="Helvetica,sans-Serif" font-size="10.00" fill="grey">SpawnScale</text>
</g>
<!-- Node19 -->
<g id="Node000019" class="node">
<title>Node19</title>
<g id="a_Node000019"><a xlink:title=" ">
<polygon fill="white" stroke="#666666" points="1449.5,-353 1411.5,-353 1411.5,-334 1449.5,-334 1449.5,-353"/>
<text text-anchor="middle" x="1430.5" y="-341" font-family="Helvetica,sans-Serif" font-size="10.00">float</text>
</a>
</g>
</g>
<!-- Node19&#45;&gt;Node2 -->
<g id="edge26_Node000002_Node000019" class="edge">
<title>Node19&#45;&gt;Node2</title>
<g id="a_edge26_Node000002_Node000019"><a xlink:title=" ">
<path fill="none" stroke="#9a32cd" stroke-dasharray="5,2" d="M1428.95,-323.5C1425.17,-286.32 1412.84,-202.47 1375.5,-144 1356.66,-114.5 1346.94,-108.38 1315.5,-93 1283.74,-77.46 1243.17,-71.01 1216.54,-68.35"/>
<polygon fill="#9a32cd" stroke="#9a32cd" points="1425.5,-324.2 1429.9,-333.84 1432.48,-323.56 1425.5,-324.2"/>
</a>
</g>
<text text-anchor="middle" x="1409.5" y="-158" font-family="Helvetica,sans-Serif" font-size="10.00" fill="grey"> Speed</text>
</g>
<!-- Node19&#45;&gt;Node18 -->
<g id="edge23_Node000018_Node000019" class="edge">
<title>Node19&#45;&gt;Node18</title>
<g id="a_edge23_Node000018_Node000019"><a xlink:title=" ">
<path fill="none" stroke="#9a32cd" stroke-dasharray="5,2" d="M1435.75,-323.87C1446.62,-285.29 1471.24,-197.91 1479.06,-170.14"/>
<polygon fill="#9a32cd" stroke="#9a32cd" points="1432.3,-323.2 1432.96,-333.77 1439.04,-325.09 1432.3,-323.2"/>
</a>
</g>
<text text-anchor="middle" x="1476.5" y="-264" font-family="Helvetica,sans-Serif" font-size="10.00" fill="grey"> x</text>
<text text-anchor="middle" x="1476.5" y="-253" font-family="Helvetica,sans-Serif" font-size="10.00" fill="grey">y</text>
<text text-anchor="middle" x="1476.5" y="-242" font-family="Helvetica,sans-Serif" font-size="10.00" fill="grey">z</text>
</g>
<!-- Node20 -->
<g id="Node000020" class="node">
<title>Node20</title>
<g id="a_Node000020"><a xlink:href="structIRotator.html" target="_top" xlink:title=" ">
<polygon fill="white" stroke="#666666" points="1582.5,-170 1526.5,-170 1526.5,-151 1582.5,-151 1582.5,-170"/>
<text text-anchor="middle" x="1554.5" y="-158" font-family="Helvetica,sans-Serif" font-size="10.00">IRotator</text>
</a>
</g>
</g>
<!-- Node20&#45;&gt;Node2 -->
<g id="edge24_Node000002_Node000020" class="edge">
<title>Node20&#45;&gt;Node2</title>
<g id="a_edge24_Node000002_Node000020"><a xlink:title=" ">
<path fill="none" stroke="#9a32cd" stroke-dasharray="5,2" d="M1545.3,-141.85C1536.04,-126.08 1520.16,-103.82 1499.5,-93 1450.77,-67.49 1283.77,-65.77 1216.71,-66.16"/>
<polygon fill="#9a32cd" stroke="#9a32cd" points="1542.29,-143.64 1550.2,-150.68 1548.41,-140.24 1542.29,-143.64"/>
</a>
</g>
<text text-anchor="middle" x="1560.5" y="-107" font-family="Helvetica,sans-Serif" font-size="10.00" fill="grey"> SpawnRot</text>
</g>
<!-- Node21 -->
<g id="Node000021" class="node">
<title>Node21</title>
<g id="a_Node000021"><a xlink:title=" ">
<polygon fill="white" stroke="#666666" points="1582.5,-353 1526.5,-353 1526.5,-334 1582.5,-334 1582.5,-353"/>
<text text-anchor="middle" x="1554.5" y="-341" font-family="Helvetica,sans-Serif" font-size="10.00">uint16_t</text>
</a>
</g>
</g>
<!-- Node21&#45;&gt;Node20 -->
<g id="edge25_Node000020_Node000021" class="edge">
<title>Node21&#45;&gt;Node20</title>
<g id="a_edge25_Node000020_Node000021"><a xlink:title=" ">
<path fill="none" stroke="#9a32cd" stroke-dasharray="5,2" d="M1554.5,-323.38C1554.5,-284.54 1554.5,-197.79 1554.5,-170.14"/>
<polygon fill="#9a32cd" stroke="#9a32cd" points="1551,-323.77 1554.5,-333.77 1558,-323.77 1551,-323.77"/>
</a>
</g>
<text text-anchor="middle" x="1568.5" y="-264" font-family="Helvetica,sans-Serif" font-size="10.00" fill="grey"> pitch</text>
<text text-anchor="middle" x="1568.5" y="-253" font-family="Helvetica,sans-Serif" font-size="10.00" fill="grey">roll</text>
<text text-anchor="middle" x="1568.5" y="-242" font-family="Helvetica,sans-Serif" font-size="10.00" fill="grey">yaw</text>
</g>
<!-- Node22 -->
<g id="Node000022" class="node">
<title>Node22</title>
<g id="a_Node000022"><a xlink:title=" ">
<polygon fill="white" stroke="#666666" points="1366.5,-170 1258.5,-170 1258.5,-151 1366.5,-151 1366.5,-170"/>
<text text-anchor="middle" x="1312.5" y="-158" font-family="Helvetica,sans-Serif" font-size="10.00">vector&lt; Triangle &gt;</text>
</a>
</g>
</g>
<!-- Node22&#45;&gt;Node2 -->
<g id="edge27_Node000002_Node000022" class="edge">
<title>Node22&#45;&gt;Node2</title>
<g id="a_edge27_Node000002_Node000022"><a xlink:title=" ">
<path fill="none" stroke="#9a32cd" stroke-dasharray="5,2" d="M1292.99,-144.86C1266.79,-125.22 1221.12,-90.96 1199.92,-75.06"/>
<polygon fill="#9a32cd" stroke="#9a32cd" points="1290.96,-147.72 1301.06,-150.92 1295.16,-142.12 1290.96,-147.72"/>
</a>
</g>
<text text-anchor="middle" x="1288" y="-107" font-family="Helvetica,sans-Serif" font-size="10.00" fill="grey"> Triangles</text>
</g>
</g>
</svg>
