<?xml version="1.0" encoding="UTF-8" standalone="no"?>
<!DOCTYPE svg PUBLIC "-//W3C//DTD SVG 1.1//EN"
 "http://www.w3.org/Graphics/SVG/1.1/DTD/svg11.dtd">
<!-- Generated by graphviz version 2.43.0 (0)
 -->
<!-- Title: WarioStadium::CreditsSpawnActors Pages: 1 -->
<svg width="1684pt" height="544pt"
 viewBox="0.00 0.00 1684.00 544.00" xmlns="http://www.w3.org/2000/svg" xmlns:xlink="http://www.w3.org/1999/xlink">
<g id="graph0" class="graph" transform="scale(1 1) rotate(0) translate(4 540)">
<title>WarioStadium::CreditsSpawnActors</title>
<!-- Node1 -->
<g id="Node000001" class="node">
<title>Node1</title>
<g id="a_Node000001"><a xlink:title=" ">
<polygon fill="#999999" stroke="#666666" points="158,-231.5 0,-231.5 0,-201.5 158,-201.5 158,-231.5"/>
<text text-anchor="start" x="8" y="-219.5" font-family="Helvetica,sans-Serif" font-size="10.00">WarioStadium::CreditsSpawn</text>
<text text-anchor="middle" x="79" y="-208.5" font-family="Helvetica,sans-Serif" font-size="10.00">Actors</text>
</a>
</g>
</g>
<!-- Node2 -->
<g id="Node000002" class="node">
<title>Node2</title>
<g id="a_Node000002"><a xlink:href="actors_8c.html#a91fb2e4e37e7c72fea918fe2c1bb4eaf" target="_top" xlink:title=" ">
<polygon fill="white" stroke="#666666" points="334,-226 194,-226 194,-207 334,-207 334,-226"/>
<text text-anchor="middle" x="264" y="-214" font-family="Helvetica,sans-Serif" font-size="10.00">add_actor_to_empty_slot</text>
</a>
</g>
</g>
<!-- Node1&#45;&gt;Node2 -->
<g id="edge1_Node000001_Node000002" class="edge">
<title>Node1&#45;&gt;Node2</title>
<g id="a_edge1_Node000001_Node000002"><a xlink:title=" ">
<path fill="none" stroke="#63b8ff" d="M158.14,-216.5C166.57,-216.5 175.15,-216.5 183.59,-216.5"/>
<polygon fill="#63b8ff" stroke="#63b8ff" points="183.79,-220 193.79,-216.5 183.79,-213 183.79,-220"/>
</a>
</g>
</g>
<!-- Node23 -->
<g id="Node000023" class="node">
<title>Node23</title>
<g id="a_Node000023"><a xlink:href="math__util_8c.html#a79fd07a0971ec96a3ff0801963a2fa7f" target="_top" xlink:title=" ">
<polygon fill="white" stroke="#666666" points="842.5,-394 778.5,-394 778.5,-375 842.5,-375 842.5,-394"/>
<text text-anchor="middle" x="810.5" y="-382" font-family="Helvetica,sans-Serif" font-size="10.00">vec3f_set</text>
</a>
</g>
</g>
<!-- Node1&#45;&gt;Node23 -->
<g id="edge45_Node000001_Node000023" class="edge">
<title>Node1&#45;&gt;Node23</title>
<g id="a_edge45_Node000001_Node000023"><a xlink:title=" ">
<path fill="none" stroke="#63b8ff" d="M105.85,-231.62C175.44,-271.21 373.74,-376.67 555,-403.5 629.83,-414.58 718.05,-402.43 768.52,-393.11"/>
<polygon fill="#63b8ff" stroke="#63b8ff" points="769.22,-396.53 778.39,-391.23 767.91,-389.66 769.22,-396.53"/>
</a>
</g>
</g>
<!-- Node35 -->
<g id="Node000035" class="node">
<title>Node35</title>
<g id="a_Node000035"><a xlink:href="collision_8c.html#a7fe1ddc7a4c312ab8f9519229963450b" target="_top" xlink:title=" ">
<polygon fill="white" stroke="#666666" points="334,-75 194,-75 194,-56 334,-56 334,-75"/>
<text text-anchor="middle" x="264" y="-63" font-family="Helvetica,sans-Serif" font-size="10.00">find_vtx_and_set_colours</text>
</a>
</g>
</g>
<!-- Node1&#45;&gt;Node35 -->
<g id="edge38_Node000001_Node000035" class="edge">
<title>Node1&#45;&gt;Node35</title>
<g id="a_edge38_Node000001_Node000035"><a xlink:title=" ">
<path fill="none" stroke="#63b8ff" d="M98.22,-201.47C132.87,-172.88 207.98,-110.9 243.56,-81.54"/>
<polygon fill="#63b8ff" stroke="#63b8ff" points="245.83,-84.21 251.31,-75.14 241.37,-78.81 245.83,-84.21"/>
</a>
</g>
</g>
<!-- Node3 -->
<g id="Node000003" class="node">
<title>Node3</title>
<g id="a_Node000003"><a xlink:href="actors_8c.html#a39c023177b5a7686cdd1fc65b8b953e1" target="_top" xlink:title=" ">
<polygon fill="white" stroke="#666666" points="475.5,-338 413.5,-338 413.5,-319 475.5,-319 475.5,-338"/>
<text text-anchor="middle" x="444.5" y="-326" font-family="Helvetica,sans-Serif" font-size="10.00">actor_init</text>
</a>
</g>
</g>
<!-- Node2&#45;&gt;Node3 -->
<g id="edge2_Node000002_Node000003" class="edge">
<title>Node2&#45;&gt;Node3</title>
<g id="a_edge2_Node000002_Node000003"><a xlink:title=" ">
<path fill="none" stroke="#63b8ff" d="M280.22,-226.05C311.31,-245.56 382.31,-290.11 419.61,-313.51"/>
<polygon fill="#63b8ff" stroke="#63b8ff" points="417.99,-316.62 428.32,-318.98 421.71,-310.7 417.99,-316.62"/>
</a>
</g>
</g>
<!-- Node26 -->
<g id="Node000026" class="node">
<title>Node26</title>
<g id="a_Node000026"><a xlink:href="Game_8cpp.html#acea5cfd9ab22f745bd6627869b95a62e" target="_top" xlink:title=" ">
<polygon fill="white" stroke="#666666" points="500.5,-131 388.5,-131 388.5,-112 500.5,-112 500.5,-131"/>
<text text-anchor="middle" x="444.5" y="-119" font-family="Helvetica,sans-Serif" font-size="10.00">CM_ActorBeginPlay</text>
</a>
</g>
</g>
<!-- Node2&#45;&gt;Node26 -->
<g id="edge25_Node000002_Node000026" class="edge">
<title>Node2&#45;&gt;Node26</title>
<g id="a_edge25_Node000002_Node000026"><a xlink:title=" ">
<path fill="none" stroke="#63b8ff" d="M283.1,-206.87C314.58,-190.11 379.6,-155.51 416.46,-135.89"/>
<polygon fill="#63b8ff" stroke="#63b8ff" points="418.44,-138.8 425.62,-131.02 415.15,-132.62 418.44,-138.8"/>
</a>
</g>
</g>
<!-- Node32 -->
<g id="Node000032" class="node">
<title>Node32</title>
<g id="a_Node000032"><a xlink:href="Game_8cpp.html#a42f23077aaa52cb3ea5c7803b7dd6816" target="_top" xlink:title=" ">
<polygon fill="white" stroke="#666666" points="497.5,-207 391.5,-207 391.5,-188 497.5,-188 497.5,-207"/>
<text text-anchor="middle" x="444.5" y="-195" font-family="Helvetica,sans-Serif" font-size="10.00">CM_AddBaseActor</text>
</a>
</g>
</g>
<!-- Node2&#45;&gt;Node32 -->
<g id="edge33_Node000002_Node000032" class="edge">
<title>Node2&#45;&gt;Node32</title>
<g id="a_edge33_Node000002_Node000032"><a xlink:title=" ">
<path fill="none" stroke="#63b8ff" d="M334.01,-209.15C349.48,-207.51 365.8,-205.77 380.98,-204.15"/>
<polygon fill="#63b8ff" stroke="#63b8ff" points="381.71,-207.6 391.28,-203.06 380.97,-200.64 381.71,-207.6"/>
</a>
</g>
</g>
<!-- Node34 -->
<g id="Node000034" class="node">
<title>Node34</title>
<g id="a_Node000034"><a xlink:href="Game_8cpp.html#a0841ffe9a66e95aca42438b9d8ffc3d3" target="_top" xlink:title=" ">
<polygon fill="white" stroke="#666666" points="495,-245 394,-245 394,-226 495,-226 495,-245"/>
<text text-anchor="middle" x="444.5" y="-233" font-family="Helvetica,sans-Serif" font-size="10.00">CM_GetActorSize</text>
</a>
</g>
</g>
<!-- Node2&#45;&gt;Node34 -->
<g id="edge36_Node000002_Node000034" class="edge">
<title>Node2&#45;&gt;Node34</title>
<g id="a_edge36_Node000002_Node000034"><a xlink:title=" ">
<path fill="none" stroke="#63b8ff" d="M334.01,-223.85C350.35,-225.58 367.64,-227.43 383.54,-229.12"/>
<polygon fill="#63b8ff" stroke="#63b8ff" points="383.45,-232.63 393.76,-230.21 384.19,-225.67 383.45,-232.63"/>
</a>
</g>
</g>
<!-- Node4 -->
<g id="Node000004" class="node">
<title>Node4</title>
<g id="a_Node000004"><a xlink:href="collision_8c.html#a37aa55b3768d001533ad75e7f1b8388a" target="_top" xlink:title=" ">
<polygon fill="white" stroke="#666666" points="696,-320 555,-320 555,-301 696,-301 696,-320"/>
<text text-anchor="middle" x="625.5" y="-308" font-family="Helvetica,sans-Serif" font-size="10.00">check_bounding_collision</text>
</a>
</g>
</g>
<!-- Node3&#45;&gt;Node4 -->
<g id="edge3_Node000003_Node000004" class="edge">
<title>Node3&#45;&gt;Node4</title>
<g id="a_edge3_Node000003_Node000004"><a xlink:title=" ">
<path fill="none" stroke="#63b8ff" d="M475.86,-325.45C494.89,-323.53 520.36,-320.97 544.84,-318.51"/>
<polygon fill="#63b8ff" stroke="#63b8ff" points="545.29,-321.98 554.89,-317.5 544.59,-315.02 545.29,-321.98"/>
</a>
</g>
</g>
<!-- Node8 -->
<g id="Node000008" class="node">
<title>Node8</title>
<g id="a_Node000008"><a xlink:href="actors_8c.html#a1a9bccb586242555a9123ebd4ab70f2a" target="_top" xlink:title=" ">
<polygon fill="white" stroke="#666666" points="691.5,-480.5 559.5,-480.5 559.5,-450.5 691.5,-450.5 691.5,-480.5"/>
<text text-anchor="start" x="567.5" y="-468.5" font-family="Helvetica,sans-Serif" font-size="10.00">cleanup_red_and_green</text>
<text text-anchor="middle" x="625.5" y="-457.5" font-family="Helvetica,sans-Serif" font-size="10.00">_shells</text>
</a>
</g>
</g>
<!-- Node3&#45;&gt;Node8 -->
<g id="edge7_Node000003_Node000008" class="edge">
<title>Node3&#45;&gt;Node8</title>
<g id="a_edge7_Node000003_Node000008"><a xlink:title=" ">
<path fill="none" stroke="#63b8ff" d="M458.09,-338.13C486.64,-359.99 556.92,-413.78 596.41,-444"/>
<polygon fill="#63b8ff" stroke="#63b8ff" points="594.74,-447.13 604.81,-450.43 598.99,-441.57 594.74,-447.13"/>
</a>
</g>
</g>
<!-- Node22 -->
<g id="Node000022" class="node">
<title>Node22</title>
<g id="a_Node000022"><a xlink:href="collision_8c.html#ad72fef3ffe32191d73b1822f512ebf3f" target="_top" xlink:title=" ">
<polygon fill="white" stroke="#666666" points="673,-357 578,-357 578,-338 673,-338 673,-357"/>
<text text-anchor="middle" x="625.5" y="-345" font-family="Helvetica,sans-Serif" font-size="10.00">func_802AAAAC</text>
</a>
</g>
</g>
<!-- Node3&#45;&gt;Node22 -->
<g id="edge21_Node000003_Node000022" class="edge">
<title>Node3&#45;&gt;Node22</title>
<g id="a_edge21_Node000003_Node000022"><a xlink:title=" ">
<path fill="none" stroke="#63b8ff" d="M475.86,-331.72C500.96,-334.39 537.27,-338.24 567.73,-341.47"/>
<polygon fill="#63b8ff" stroke="#63b8ff" points="567.49,-344.97 577.81,-342.54 568.23,-338.01 567.49,-344.97"/>
</a>
</g>
</g>
<!-- Node24 -->
<g id="Node000024" class="node">
<title>Node24</title>
<g id="a_Node000024"><a xlink:href="math__util_8c.html#af7b470ed76fce07b8042a47c96e5690b" target="_top" xlink:title=" ">
<polygon fill="white" stroke="#666666" points="679,-283 572,-283 572,-264 679,-264 679,-283"/>
<text text-anchor="middle" x="625.5" y="-271" font-family="Helvetica,sans-Serif" font-size="10.00">vec3f_copy_return</text>
</a>
</g>
</g>
<!-- Node3&#45;&gt;Node24 -->
<g id="edge23_Node000003_Node000024" class="edge">
<title>Node3&#45;&gt;Node24</title>
<g id="a_edge23_Node000003_Node000024"><a xlink:title=" ">
<path fill="none" stroke="#63b8ff" d="M473.28,-318.93C495.34,-311.44 527.02,-300.92 555,-292.5 562.58,-290.22 570.66,-287.91 578.53,-285.71"/>
<polygon fill="#63b8ff" stroke="#63b8ff" points="579.62,-289.04 588.33,-283.01 577.76,-282.3 579.62,-289.04"/>
</a>
</g>
</g>
<!-- Node25 -->
<g id="Node000025" class="node">
<title>Node25</title>
<g id="a_Node000025"><a xlink:href="math__util_8c.html#a0e270ee67600c8c9c2f140c647d008a1" target="_top" xlink:title=" ">
<polygon fill="white" stroke="#666666" points="662.5,-394 588.5,-394 588.5,-375 662.5,-375 662.5,-394"/>
<text text-anchor="middle" x="625.5" y="-382" font-family="Helvetica,sans-Serif" font-size="10.00">vec3s_copy</text>
</a>
</g>
</g>
<!-- Node3&#45;&gt;Node25 -->
<g id="edge24_Node000003_Node000025" class="edge">
<title>Node3&#45;&gt;Node25</title>
<g id="a_edge24_Node000003_Node000025"><a xlink:title=" ">
<path fill="none" stroke="#63b8ff" d="M471.41,-338.16C493.48,-346.22 526.11,-357.76 555,-366.5 562.55,-368.78 570.61,-371.04 578.48,-373.14"/>
<polygon fill="#63b8ff" stroke="#63b8ff" points="577.71,-376.56 588.27,-375.71 579.49,-369.79 577.71,-376.56"/>
</a>
</g>
</g>
<!-- Node5 -->
<g id="Node000005" class="node">
<title>Node5</title>
<g id="a_Node000005"><a xlink:href="collision_8c.html#ac312bf382cb40752f6b790a99e7cdcb6" target="_top" xlink:title=" ">
<polygon fill="white" stroke="#666666" points="864.5,-283 756.5,-283 756.5,-264 864.5,-264 864.5,-283"/>
<text text-anchor="middle" x="810.5" y="-271" font-family="Helvetica,sans-Serif" font-size="10.00">check_collision_yx</text>
</a>
</g>
</g>
<!-- Node4&#45;&gt;Node5 -->
<g id="edge4_Node000004_Node000005" class="edge">
<title>Node4&#45;&gt;Node5</title>
<g id="a_edge4_Node000004_Node000005"><a xlink:title=" ">
<path fill="none" stroke="#63b8ff" d="M673.63,-300.97C697.65,-296.11 727.07,-290.17 752.38,-285.05"/>
<polygon fill="#63b8ff" stroke="#63b8ff" points="753.11,-288.47 762.21,-283.06 751.72,-281.61 753.11,-288.47"/>
</a>
</g>
</g>
<!-- Node6 -->
<g id="Node000006" class="node">
<title>Node6</title>
<g id="a_Node000006"><a xlink:href="collision_8c.html#a4b48832a90e984536a0635a016ec4f28" target="_top" xlink:title=" ">
<polygon fill="white" stroke="#666666" points="864,-357 757,-357 757,-338 864,-338 864,-357"/>
<text text-anchor="middle" x="810.5" y="-345" font-family="Helvetica,sans-Serif" font-size="10.00">check_collision_zx</text>
</a>
</g>
</g>
<!-- Node4&#45;&gt;Node6 -->
<g id="edge5_Node000004_Node000006" class="edge">
<title>Node4&#45;&gt;Node6</title>
<g id="a_edge5_Node000004_Node000006"><a xlink:title=" ">
<path fill="none" stroke="#63b8ff" d="M673.63,-320.03C697.65,-324.89 727.07,-330.83 752.38,-335.95"/>
<polygon fill="#63b8ff" stroke="#63b8ff" points="751.72,-339.39 762.21,-337.94 753.11,-332.53 751.72,-339.39"/>
</a>
</g>
</g>
<!-- Node7 -->
<g id="Node000007" class="node">
<title>Node7</title>
<g id="a_Node000007"><a xlink:href="collision_8c.html#a21fef964ab48191a1c0341954ef27a40" target="_top" xlink:title=" ">
<polygon fill="white" stroke="#666666" points="864,-320 757,-320 757,-301 864,-301 864,-320"/>
<text text-anchor="middle" x="810.5" y="-308" font-family="Helvetica,sans-Serif" font-size="10.00">check_collision_zy</text>
</a>
</g>
</g>
<!-- Node4&#45;&gt;Node7 -->
<g id="edge6_Node000004_Node000007" class="edge">
<title>Node4&#45;&gt;Node7</title>
<g id="a_edge6_Node000004_Node000007"><a xlink:title=" ">
<path fill="none" stroke="#63b8ff" d="M696.21,-310.5C712.7,-310.5 730.19,-310.5 746.36,-310.5"/>
<polygon fill="#63b8ff" stroke="#63b8ff" points="746.78,-314 756.78,-310.5 746.78,-307 746.78,-314"/>
</a>
</g>
</g>
<!-- Node9 -->
<g id="Node000009" class="node">
<title>Node9</title>
<g id="a_Node000009"><a xlink:href="Game_8cpp.html#a693de7d8b89fe291aafea86bc64a0a2e" target="_top" xlink:title=" ">
<polygon fill="white" stroke="#666666" points="850.5,-431 770.5,-431 770.5,-412 850.5,-412 850.5,-431"/>
<text text-anchor="middle" x="810.5" y="-419" font-family="Helvetica,sans-Serif" font-size="10.00">CM_GetActor</text>
</a>
</g>
</g>
<!-- Node8&#45;&gt;Node9 -->
<g id="edge8_Node000008_Node000009" class="edge">
<title>Node8&#45;&gt;Node9</title>
<g id="a_edge8_Node000008_Node000009"><a xlink:title=" ">
<path fill="none" stroke="#63b8ff" d="M688.97,-450.48C712.4,-444.85 738.67,-438.53 760.69,-433.24"/>
<polygon fill="#63b8ff" stroke="#63b8ff" points="761.58,-436.62 770.48,-430.88 759.94,-429.82 761.58,-436.62"/>
</a>
</g>
</g>
<!-- Node11 -->
<g id="Node000011" class="node">
<title>Node11</title>
<g id="a_Node000011"><a xlink:href="code__80005FD0_8c.html#ad301b978cdd3c4cc190b10be050d51d8" target="_top" xlink:title=" ">
<polygon fill="white" stroke="#666666" points="883.5,-479.5 737.5,-479.5 737.5,-449.5 883.5,-449.5 883.5,-479.5"/>
<text text-anchor="start" x="745.5" y="-467.5" font-family="Helvetica,sans-Serif" font-size="10.00">delete_actor_in_unexpired</text>
<text text-anchor="middle" x="810.5" y="-456.5" font-family="Helvetica,sans-Serif" font-size="10.00">_actor_list</text>
</a>
</g>
</g>
<!-- Node8&#45;&gt;Node11 -->
<g id="edge10_Node000008_Node000011" class="edge">
<title>Node8&#45;&gt;Node11</title>
<g id="a_edge10_Node000008_Node000011"><a xlink:title=" ">
<path fill="none" stroke="#63b8ff" d="M691.53,-465.14C702.98,-465.08 715.02,-465.02 726.87,-464.95"/>
<polygon fill="#63b8ff" stroke="#63b8ff" points="727.23,-468.45 737.21,-464.9 727.19,-461.45 727.23,-468.45"/>
</a>
</g>
</g>
<!-- Node12 -->
<g id="Node000012" class="node">
<title>Node12</title>
<g id="a_Node000012"><a xlink:href="actors_8c.html#a694ec6ef7548b8618aeb35c038d3a9b9" target="_top" xlink:title=" ">
<polygon fill="white" stroke="#666666" points="852,-517 769,-517 769,-498 852,-498 852,-517"/>
<text text-anchor="middle" x="810.5" y="-505" font-family="Helvetica,sans-Serif" font-size="10.00">destroy_actor</text>
</a>
</g>
</g>
<!-- Node8&#45;&gt;Node12 -->
<g id="edge11_Node000008_Node000012" class="edge">
<title>Node8&#45;&gt;Node12</title>
<g id="a_edge11_Node000008_Node000012"><a xlink:title=" ">
<path fill="none" stroke="#63b8ff" d="M691.53,-480.43C713.69,-485.51 738.12,-491.12 758.97,-495.9"/>
<polygon fill="#63b8ff" stroke="#63b8ff" points="758.36,-499.35 768.89,-498.18 759.93,-492.53 758.36,-499.35"/>
</a>
</g>
</g>
<!-- Node10 -->
<g id="Node000010" class="node">
<title>Node10</title>
<g id="a_Node000010"><a xlink:href="Game_8cpp.html#ae2fa844b3cb1021ecbc357f8ed2ad8cc" target="_top" xlink:title=" ">
<polygon fill="white" stroke="#666666" points="1051,-207 989,-207 989,-188 1051,-188 1051,-207"/>
<text text-anchor="middle" x="1020" y="-195" font-family="Helvetica,sans-Serif" font-size="10.00">GetWorld</text>
</a>
</g>
</g>
<!-- Node9&#45;&gt;Node10 -->
<g id="edge9_Node000009_Node000010" class="edge">
<title>Node9&#45;&gt;Node10</title>
<g id="a_edge9_Node000009_Node000010"><a xlink:title=" ">
<path fill="none" stroke="#63b8ff" d="M850.62,-418.43C863.74,-415.91 877.85,-411.42 889,-403.5 957.34,-354.91 997.81,-258.01 1012.58,-216.78"/>
<polygon fill="#63b8ff" stroke="#63b8ff" points="1015.95,-217.73 1015.92,-207.14 1009.34,-215.44 1015.95,-217.73"/>
</a>
</g>
</g>
<!-- Node13 -->
<g id="Node000013" class="node">
<title>Node13</title>
<g id="a_Node000013"><a xlink:href="actors_8c.html#a12dc3ccac4c7d8569eadac0af4fd6f9f" target="_top" xlink:title=" ">
<polygon fill="white" stroke="#666666" points="1099,-517 941,-517 941,-498 1099,-498 1099,-517"/>
<text text-anchor="middle" x="1020" y="-505" font-family="Helvetica,sans-Serif" font-size="10.00">play_sound_before_despawn</text>
</a>
</g>
</g>
<!-- Node12&#45;&gt;Node13 -->
<g id="edge12_Node000012_Node000013" class="edge">
<title>Node12&#45;&gt;Node13</title>
<g id="a_edge12_Node000012_Node000013"><a xlink:title=" ">
<path fill="none" stroke="#63b8ff" d="M852,-507.5C874.48,-507.5 903.36,-507.5 930.77,-507.5"/>
<polygon fill="#63b8ff" stroke="#63b8ff" points="930.79,-511 940.79,-507.5 930.79,-504 930.79,-511"/>
</a>
</g>
</g>
<!-- Node14 -->
<g id="Node000014" class="node">
<title>Node14</title>
<g id="a_Node000014"><a xlink:href="external_8c.html#ae72057869772019e4464c87d4e16c682" target="_top" xlink:title=" ">
<polygon fill="white" stroke="#666666" points="1243,-517 1151,-517 1151,-498 1243,-498 1243,-517"/>
<text text-anchor="middle" x="1197" y="-505" font-family="Helvetica,sans-Serif" font-size="10.00">func_800C99E0</text>
</a>
</g>
</g>
<!-- Node13&#45;&gt;Node14 -->
<g id="edge13_Node000013_Node000014" class="edge">
<title>Node13&#45;&gt;Node14</title>
<g id="a_edge13_Node000013_Node000014"><a xlink:title=" ">
<path fill="none" stroke="#63b8ff" d="M1099.03,-507.5C1112.98,-507.5 1127.26,-507.5 1140.42,-507.5"/>
<polygon fill="#63b8ff" stroke="#63b8ff" points="1140.71,-511 1150.71,-507.5 1140.71,-504 1140.71,-511"/>
</a>
</g>
</g>
<!-- Node15 -->
<g id="Node000015" class="node">
<title>Node15</title>
<g id="a_Node000015"><a xlink:href="external_8c.html#aeb87c527482a244173df36a1f3d4f446" target="_top" xlink:title=" ">
<polygon fill="white" stroke="#666666" points="1371,-536 1279,-536 1279,-517 1371,-517 1371,-536"/>
<text text-anchor="middle" x="1325" y="-524" font-family="Helvetica,sans-Serif" font-size="10.00">func_800C21E8</text>
</a>
</g>
</g>
<!-- Node14&#45;&gt;Node15 -->
<g id="edge14_Node000014_Node000015" class="edge">
<title>Node14&#45;&gt;Node15</title>
<g id="a_edge14_Node000014_Node000015"><a xlink:title=" ">
<path fill="none" stroke="#63b8ff" d="M1243.13,-514.31C1251.46,-515.56 1260.23,-516.88 1268.81,-518.18"/>
<polygon fill="#63b8ff" stroke="#63b8ff" points="1268.35,-521.65 1278.76,-519.68 1269.39,-514.73 1268.35,-521.65"/>
</a>
</g>
</g>
<!-- Node16 -->
<g id="Node000016" class="node">
<title>Node16</title>
<g id="a_Node000016"><a xlink:href="external_8c.html#a028d40421b90c38f68ebfd5acc626f2e" target="_top" xlink:title=" ">
<polygon fill="white" stroke="#666666" points="1371,-499 1279,-499 1279,-480 1371,-480 1371,-499"/>
<text text-anchor="middle" x="1325" y="-487" font-family="Helvetica,sans-Serif" font-size="10.00">func_800C5578</text>
</a>
</g>
</g>
<!-- Node14&#45;&gt;Node16 -->
<g id="edge15_Node000014_Node000016" class="edge">
<title>Node14&#45;&gt;Node16</title>
<g id="a_edge15_Node000014_Node000016"><a xlink:title=" ">
<path fill="none" stroke="#63b8ff" d="M1243.13,-501.05C1251.46,-499.86 1260.23,-498.61 1268.81,-497.38"/>
<polygon fill="#63b8ff" stroke="#63b8ff" points="1269.35,-500.84 1278.76,-495.96 1268.36,-493.91 1269.35,-500.84"/>
</a>
</g>
</g>
<!-- Node17 -->
<g id="Node000017" class="node">
<title>Node17</title>
<g id="a_Node000017"><a xlink:href="external_8c.html#ac0fb767de7e14a03f1bcfa53f0abd23b" target="_top" xlink:title=" ">
<polygon fill="white" stroke="#666666" points="1547,-536 1407,-536 1407,-517 1547,-517 1547,-536"/>
<text text-anchor="middle" x="1477" y="-524" font-family="Helvetica,sans-Serif" font-size="10.00">delete_sound_from_bank</text>
</a>
</g>
</g>
<!-- Node16&#45;&gt;Node17 -->
<g id="edge16_Node000016_Node000017" class="edge">
<title>Node16&#45;&gt;Node17</title>
<g id="a_edge16_Node000016_Node000017"><a xlink:title=" ">
<path fill="none" stroke="#63b8ff" d="M1364.63,-499.03C1383.8,-503.76 1407.16,-509.52 1427.52,-514.54"/>
<polygon fill="#63b8ff" stroke="#63b8ff" points="1426.69,-517.94 1437.24,-516.94 1428.37,-511.15 1426.69,-517.94"/>
</a>
</g>
</g>
<!-- Node19 -->
<g id="Node000019" class="node">
<title>Node19</title>
<g id="a_Node000019"><a xlink:href="external_8c.html#ab83bd36e63f0f1baddcb2482b5ad31b0" target="_top" xlink:title=" ">
<polygon fill="white" stroke="#666666" points="1523.5,-499 1430.5,-499 1430.5,-480 1523.5,-480 1523.5,-499"/>
<text text-anchor="middle" x="1477" y="-487" font-family="Helvetica,sans-Serif" font-size="10.00">func_800C41CC</text>
</a>
</g>
</g>
<!-- Node16&#45;&gt;Node19 -->
<g id="edge18_Node000016_Node000019" class="edge">
<title>Node16&#45;&gt;Node19</title>
<g id="a_edge18_Node000016_Node000019"><a xlink:title=" ">
<path fill="none" stroke="#63b8ff" d="M1371,-489.5C1386.37,-489.5 1403.74,-489.5 1419.86,-489.5"/>
<polygon fill="#63b8ff" stroke="#63b8ff" points="1420.25,-493 1430.25,-489.5 1420.25,-486 1420.25,-493"/>
</a>
</g>
</g>
<!-- Node20 -->
<g id="Node000020" class="node">
<title>Node20</title>
<g id="a_Node000020"><a xlink:href="port__eu_8c.html#aa89dfaecca46c6d071f08c1898d1f7c9" target="_top" xlink:title=" ">
<polygon fill="white" stroke="#666666" points="1523.5,-462 1430.5,-462 1430.5,-443 1523.5,-443 1523.5,-462"/>
<text text-anchor="middle" x="1477" y="-450" font-family="Helvetica,sans-Serif" font-size="10.00">func_800CBBE8</text>
</a>
</g>
</g>
<!-- Node16&#45;&gt;Node20 -->
<g id="edge19_Node000016_Node000020" class="edge">
<title>Node16&#45;&gt;Node20</title>
<g id="a_edge19_Node000016_Node000020"><a xlink:title=" ">
<path fill="none" stroke="#63b8ff" d="M1364.63,-479.97C1383.8,-475.24 1407.16,-469.48 1427.52,-464.46"/>
<polygon fill="#63b8ff" stroke="#63b8ff" points="1428.37,-467.85 1437.24,-462.06 1426.69,-461.06 1428.37,-467.85"/>
</a>
</g>
</g>
<!-- Node18 -->
<g id="Node000018" class="node">
<title>Node18</title>
<g id="a_Node000018"><a xlink:href="external_8c.html#a358ac55e8ab5262dcae8037334be06d7" target="_top" xlink:title=" ">
<polygon fill="white" stroke="#666666" points="1675.5,-536 1583.5,-536 1583.5,-517 1675.5,-517 1675.5,-536"/>
<text text-anchor="middle" x="1629.5" y="-524" font-family="Helvetica,sans-Serif" font-size="10.00">func_800C40F0</text>
</a>
</g>
</g>
<!-- Node17&#45;&gt;Node18 -->
<g id="edge17_Node000017_Node000018" class="edge">
<title>Node17&#45;&gt;Node18</title>
<g id="a_edge17_Node000017_Node000018"><a xlink:title=" ">
<path fill="none" stroke="#63b8ff" d="M1547.08,-526.5C1555.87,-526.5 1564.78,-526.5 1573.31,-526.5"/>
<polygon fill="#63b8ff" stroke="#63b8ff" points="1573.5,-530 1583.5,-526.5 1573.5,-523 1573.5,-530"/>
</a>
</g>
</g>
<!-- Node21 -->
<g id="Node000021" class="node">
<title>Node21</title>
<g id="a_Node000021"><a xlink:href="port__eu_8c.html#af361a20d2e08f30c53a237ca481ff734" target="_top" xlink:title=" ">
<polygon fill="white" stroke="#666666" points="1676,-462 1583,-462 1583,-443 1676,-443 1676,-462"/>
<text text-anchor="middle" x="1629.5" y="-450" font-family="Helvetica,sans-Serif" font-size="10.00">func_800CBB48</text>
</a>
</g>
</g>
<!-- Node20&#45;&gt;Node21 -->
<g id="edge20_Node000020_Node000021" class="edge">
<title>Node20&#45;&gt;Node21</title>
<g id="a_edge20_Node000020_Node000021"><a xlink:title=" ">
<path fill="none" stroke="#63b8ff" d="M1523.56,-452.5C1538.96,-452.5 1556.34,-452.5 1572.46,-452.5"/>
<polygon fill="#63b8ff" stroke="#63b8ff" points="1572.83,-456 1582.83,-452.5 1572.83,-449 1572.83,-456"/>
</a>
</g>
</g>
<!-- Node22&#45;&gt;Node23 -->
<g id="edge22_Node000022_Node000023" class="edge">
<title>Node22&#45;&gt;Node23</title>
<g id="a_edge22_Node000022_Node000023"><a xlink:title=" ">
<path fill="none" stroke="#63b8ff" d="M673.15,-356.93C702.58,-362.88 740.22,-370.49 768.5,-376.21"/>
<polygon fill="#63b8ff" stroke="#63b8ff" points="767.97,-379.67 778.46,-378.22 769.35,-372.81 767.97,-379.67"/>
</a>
</g>
</g>
<!-- Node26&#45;&gt;Node10 -->
<g id="edge32_Node000026_Node000010" class="edge">
<title>Node26&#45;&gt;Node10</title>
<g id="a_edge32_Node000026_Node000010"><a xlink:title=" ">
<path fill="none" stroke="#63b8ff" d="M500.67,-126.2C584.74,-133.7 749.86,-149.78 889,-171.5 919.28,-176.23 953.23,-183.07 978.84,-188.55"/>
<polygon fill="#63b8ff" stroke="#63b8ff" points="978.41,-192.04 988.92,-190.73 979.89,-185.19 978.41,-192.04"/>
</a>
</g>
</g>
<!-- Node27 -->
<g id="Node000027" class="node">
<title>Node27</title>
<g id="a_Node000027"><a xlink:href="classWorld.html#a0f40d5f6f8bd3c76ad1e1ca4ccc4b74f" target="_top" xlink:title=" ">
<polygon fill="white" stroke="#666666" points="688,-93 563,-93 563,-74 688,-74 688,-93"/>
<text text-anchor="middle" x="625.5" y="-81" font-family="Helvetica,sans-Serif" font-size="10.00">World::ActorBeginPlay</text>
</a>
</g>
</g>
<!-- Node26&#45;&gt;Node27 -->
<g id="edge26_Node000026_Node000027" class="edge">
<title>Node26&#45;&gt;Node27</title>
<g id="a_edge26_Node000026_Node000027"><a xlink:title=" ">
<path fill="none" stroke="#63b8ff" d="M490.67,-111.91C514.72,-106.81 544.47,-100.49 569.82,-95.11"/>
<polygon fill="#63b8ff" stroke="#63b8ff" points="570.6,-98.52 579.66,-93.02 569.15,-91.67 570.6,-98.52"/>
</a>
</g>
</g>
<!-- Node28 -->
<g id="Node000028" class="node">
<title>Node28</title>
<g id="a_Node000028"><a xlink:href="classAActor.html#aa18a335c99d43d74ac46328df5c4918b" target="_top" xlink:title=" ">
<polygon fill="white" stroke="#666666" points="862.5,-56 758.5,-56 758.5,-37 862.5,-37 862.5,-56"/>
<text text-anchor="middle" x="810.5" y="-44" font-family="Helvetica,sans-Serif" font-size="10.00">AActor::BeginPlay</text>
</a>
</g>
</g>
<!-- Node27&#45;&gt;Node28 -->
<g id="edge27_Node000027_Node000028" class="edge">
<title>Node27&#45;&gt;Node28</title>
<g id="a_edge27_Node000027_Node000028"><a xlink:title=" ">
<path fill="none" stroke="#63b8ff" d="M673.63,-73.97C697.65,-69.11 727.07,-63.17 752.38,-58.05"/>
<polygon fill="#63b8ff" stroke="#63b8ff" points="753.11,-61.47 762.21,-56.06 751.72,-54.61 753.11,-61.47"/>
</a>
</g>
</g>
<!-- Node31 -->
<g id="Node000031" class="node">
<title>Node31</title>
<g id="a_Node000031"><a xlink:href="classWorld.html#a944244b32a2219826939859c6138f6ab" target="_top" xlink:title=" ">
<polygon fill="white" stroke="#666666" points="889,-93 732,-93 732,-74 889,-74 889,-93"/>
<text text-anchor="middle" x="810.5" y="-81" font-family="Helvetica,sans-Serif" font-size="10.00">World::ConvertActorToAActor</text>
</a>
</g>
</g>
<!-- Node27&#45;&gt;Node31 -->
<g id="edge31_Node000027_Node000031" class="edge">
<title>Node27&#45;&gt;Node31</title>
<g id="a_edge31_Node000027_Node000031"><a xlink:title=" ">
<path fill="none" stroke="#63b8ff" d="M688.2,-83.5C698.93,-83.5 710.26,-83.5 721.53,-83.5"/>
<polygon fill="#63b8ff" stroke="#63b8ff" points="721.84,-87 731.84,-83.5 721.84,-80 721.84,-87"/>
</a>
</g>
</g>
<!-- Node29 -->
<g id="Node000029" class="node">
<title>Node29</title>
<g id="a_Node000029"><a xlink:href="Editor_8cpp.html#ad9cda86dc3eb2b6511a8c9a951945014" target="_top" xlink:title=" ">
<polygon fill="white" stroke="#666666" points="1069,-38 971,-38 971,-19 1069,-19 1069,-38"/>
<text text-anchor="middle" x="1020" y="-26" font-family="Helvetica,sans-Serif" font-size="10.00">Editor_IsEnabled</text>
</a>
</g>
</g>
<!-- Node28&#45;&gt;Node29 -->
<g id="edge28_Node000028_Node000029" class="edge">
<title>Node28&#45;&gt;Node29</title>
<g id="a_edge28_Node000028_Node000029"><a xlink:title=" ">
<path fill="none" stroke="#63b8ff" d="M862.53,-42.07C892.17,-39.5 929.65,-36.25 960.49,-33.58"/>
<polygon fill="#63b8ff" stroke="#63b8ff" points="961.01,-37.04 970.67,-32.69 960.4,-30.07 961.01,-37.04"/>
</a>
</g>
</g>
<!-- Node30 -->
<g id="Node000030" class="node">
<title>Node30</title>
<g id="a_Node000030"><a xlink:href="namespaceTrackEditor.html#a79d25f3b85758b1d930e2eb429655ead" target="_top" xlink:title=" ">
<polygon fill="white" stroke="#666666" points="1115,-75 925,-75 925,-56 1115,-56 1115,-75"/>
<text text-anchor="middle" x="1020" y="-63" font-family="Helvetica,sans-Serif" font-size="10.00">TrackEditor::GenerateCollisionMesh</text>
</a>
</g>
</g>
<!-- Node28&#45;&gt;Node30 -->
<g id="edge29_Node000028_Node000030" class="edge">
<title>Node28&#45;&gt;Node30</title>
<g id="a_edge29_Node000028_Node000030"><a xlink:title=" ">
<path fill="none" stroke="#63b8ff" d="M862.53,-51.17C878.42,-52.63 896.57,-54.29 914.73,-55.95"/>
<polygon fill="#63b8ff" stroke="#63b8ff" points="914.54,-59.45 924.81,-56.88 915.17,-52.48 914.54,-59.45"/>
</a>
</g>
</g>
<!-- Node30&#45;&gt;Node30 -->
<g id="edge30_Node000030_Node000030" class="edge">
<title>Node30&#45;&gt;Node30</title>
<g id="a_edge30_Node000030_Node000030"><a xlink:title=" ">
<path fill="none" stroke="#63b8ff" d="M992.87,-75.08C979.68,-83.73 988.72,-93 1020,-93 1041.02,-93 1052,-88.82 1052.93,-83.45"/>
<polygon fill="#63b8ff" stroke="#63b8ff" points="1055.7,-81.3 1047.13,-75.08 1049.95,-85.29 1055.7,-81.3"/>
</a>
</g>
</g>
<!-- Node32&#45;&gt;Node10 -->
<g id="edge35_Node000032_Node000010" class="edge">
<title>Node32&#45;&gt;Node10</title>
<g id="a_edge35_Node000032_Node000010"><a xlink:title=" ">
<path fill="none" stroke="#63b8ff" d="M492.99,-187.96C512.16,-184.57 534.55,-181.17 555,-179.5 711.29,-166.74 897.96,-183.76 978.61,-192.68"/>
<polygon fill="#63b8ff" stroke="#63b8ff" points="978.49,-196.18 988.82,-193.82 979.27,-189.23 978.49,-196.18"/>
</a>
</g>
</g>
<!-- Node33 -->
<g id="Node000033" class="node">
<title>Node33</title>
<g id="a_Node000033"><a xlink:href="classWorld.html#a215117703aa8944483793767a0fb80ed" target="_top" xlink:title=" ">
<polygon fill="white" stroke="#666666" points="685,-207 566,-207 566,-188 685,-188 685,-207"/>
<text text-anchor="middle" x="625.5" y="-195" font-family="Helvetica,sans-Serif" font-size="10.00">World::AddBaseActor</text>
</a>
</g>
</g>
<!-- Node32&#45;&gt;Node33 -->
<g id="edge34_Node000032_Node000033" class="edge">
<title>Node32&#45;&gt;Node33</title>
<g id="a_edge34_Node000032_Node000033"><a xlink:title=" ">
<path fill="none" stroke="#63b8ff" d="M497.76,-197.5C515.86,-197.5 536.44,-197.5 555.68,-197.5"/>
<polygon fill="#63b8ff" stroke="#63b8ff" points="555.9,-201 565.9,-197.5 555.9,-194 555.9,-201"/>
</a>
</g>
</g>
<!-- Node34&#45;&gt;Node10 -->
<g id="edge37_Node000034_Node000010" class="edge">
<title>Node34&#45;&gt;Node10</title>
<g id="a_edge37_Node000034_Node000010"><a xlink:title=" ">
<path fill="none" stroke="#63b8ff" d="M495.39,-232.19C607.25,-224.78 876.29,-206.96 978.59,-200.18"/>
<polygon fill="#63b8ff" stroke="#63b8ff" points="979.07,-203.65 988.82,-199.5 978.61,-196.67 979.07,-203.65"/>
</a>
</g>
</g>
<!-- Node35&#45;&gt;Node35 -->
<g id="edge39_Node000035_Node000035" class="edge">
<title>Node35&#45;&gt;Node35</title>
<g id="a_edge39_Node000035_Node000035"><a xlink:title=" ">
<path fill="none" stroke="#63b8ff" d="M236.26,-75.08C222.76,-83.73 232.01,-93 264,-93 285.49,-93 296.72,-88.82 297.68,-83.45"/>
<polygon fill="#63b8ff" stroke="#63b8ff" points="300.39,-81.21 291.74,-75.08 294.68,-85.26 300.39,-81.21"/>
</a>
</g>
</g>
<!-- Node36 -->
<g id="Node000036" class="node">
<title>Node36</title>
<g id="a_Node000036"><a xlink:href="Engine_8cpp.html#a223c8bc63f228dc11177515e38eff2db" target="_top" xlink:title=" ">
<polygon fill="white" stroke="#666666" points="519,-93 370,-93 370,-74 519,-74 519,-93"/>
<text text-anchor="middle" x="444.5" y="-81" font-family="Helvetica,sans-Serif" font-size="10.00">GameEngine_OTRSigCheck</text>
</a>
</g>
</g>
<!-- Node35&#45;&gt;Node36 -->
<g id="edge40_Node000035_Node000036" class="edge">
<title>Node35&#45;&gt;Node36</title>
<g id="a_edge40_Node000035_Node000036"><a xlink:title=" ">
<path fill="none" stroke="#63b8ff" d="M334.01,-72.46C342.47,-73.31 351.19,-74.19 359.84,-75.06"/>
<polygon fill="#63b8ff" stroke="#63b8ff" points="359.64,-78.56 369.94,-76.08 360.34,-71.6 359.64,-78.56"/>
</a>
</g>
</g>
<!-- Node38 -->
<g id="Node000038" class="node">
<title>Node38</title>
<g id="a_Node000038"><a xlink:href="collision_8c.html#a2419eefe1cdba5b280babacc4a15fc6c" target="_top" xlink:title=" ">
<polygon fill="white" stroke="#666666" points="480,-56 409,-56 409,-37 480,-37 480,-56"/>
<text text-anchor="middle" x="444.5" y="-44" font-family="Helvetica,sans-Serif" font-size="10.00">is_cull_box</text>
</a>
</g>
</g>
<!-- Node35&#45;&gt;Node38 -->
<g id="edge42_Node000035_Node000038" class="edge">
<title>Node35&#45;&gt;Node38</title>
<g id="a_edge42_Node000035_Node000038"><a xlink:title=" ">
<path fill="none" stroke="#63b8ff" d="M334.01,-58.15C355.63,-55.85 378.93,-53.37 398.45,-51.3"/>
<polygon fill="#63b8ff" stroke="#63b8ff" points="399,-54.76 408.58,-50.22 398.26,-47.8 399,-54.76"/>
</a>
</g>
</g>
<!-- Node39 -->
<g id="Node000039" class="node">
<title>Node39</title>
<g id="a_Node000039"><a xlink:href="collision_8c.html#ae34213badc2dd781cab43c88b1e3fdce" target="_top" xlink:title=" ">
<polygon fill="white" stroke="#666666" points="499,-19 390,-19 390,0 499,0 499,-19"/>
<text text-anchor="middle" x="444.5" y="-7" font-family="Helvetica,sans-Serif" font-size="10.00">set_vertex_colours</text>
</a>
</g>
</g>
<!-- Node35&#45;&gt;Node39 -->
<g id="edge44_Node000035_Node000039" class="edge">
<title>Node35&#45;&gt;Node39</title>
<g id="a_edge44_Node000035_Node000039"><a xlink:title=" ">
<path fill="none" stroke="#63b8ff" d="M289.36,-55.84C310.48,-47.67 341.98,-35.97 370,-27.5 376.92,-25.41 384.25,-23.38 391.51,-21.5"/>
<polygon fill="#63b8ff" stroke="#63b8ff" points="392.48,-24.86 401.31,-19.01 390.76,-18.08 392.48,-24.86"/>
</a>
</g>
</g>
<!-- Node37 -->
<g id="Node000037" class="node">
<title>Node37</title>
<g id="a_Node000037"><a xlink:href="string_8c.html#a008e171a518fe0e0352f31b245e03875" target="_top" xlink:title=" ">
<polygon fill="white" stroke="#666666" points="647.5,-56 603.5,-56 603.5,-37 647.5,-37 647.5,-56"/>
<text text-anchor="middle" x="625.5" y="-44" font-family="Helvetica,sans-Serif" font-size="10.00">strlen</text>
</a>
</g>
</g>
<!-- Node36&#45;&gt;Node37 -->
<g id="edge41_Node000036_Node000037" class="edge">
<title>Node36&#45;&gt;Node37</title>
<g id="a_edge41_Node000036_Node000037"><a xlink:title=" ">
<path fill="none" stroke="#63b8ff" d="M491.6,-73.97C523.56,-67.36 565.27,-58.74 593.37,-52.93"/>
<polygon fill="#63b8ff" stroke="#63b8ff" points="594.34,-56.31 603.42,-50.86 592.92,-49.45 594.34,-56.31"/>
</a>
</g>
</g>
<!-- Node38&#45;&gt;Node37 -->
<g id="edge43_Node000038_Node000037" class="edge">
<title>Node38&#45;&gt;Node37</title>
<g id="a_edge43_Node000038_Node000037"><a xlink:title=" ">
<path fill="none" stroke="#63b8ff" d="M480.01,-46.5C512.78,-46.5 561.6,-46.5 593.25,-46.5"/>
<polygon fill="#63b8ff" stroke="#63b8ff" points="593.27,-50 603.27,-46.5 593.27,-43 593.27,-50"/>
</a>
</g>
</g>
</g>
</svg>
