<?xml version="1.0" encoding="UTF-8" standalone="no"?>
<!DOCTYPE svg PUBLIC "-//W3C//DTD SVG 1.1//EN"
 "http://www.w3.org/Graphics/SVG/1.1/DTD/svg11.dtd">
<!-- Generated by graphviz version 2.43.0 (0)
 -->
<!-- Title: OThwomp::func_8007F280 Pages: 1 -->
<svg width="488pt" height="249pt"
 viewBox="0.00 0.00 488.00 249.00" xmlns="http://www.w3.org/2000/svg" xmlns:xlink="http://www.w3.org/1999/xlink">
<g id="graph0" class="graph" transform="scale(1 1) rotate(0) translate(4 245)">
<title>OThwomp::func_8007F280</title>
<!-- Node1 -->
<g id="Node000001" class="node">
<title>Node1</title>
<g id="a_Node000001"><a xlink:title=" ">
<polygon fill="#999999" stroke="#666666" points="146,-130 0,-130 0,-111 146,-111 146,-130"/>
<text text-anchor="middle" x="73" y="-118" font-family="Helvetica,sans-Serif" font-size="10.00">OThwomp::func_8007F280</text>
</a>
</g>
</g>
<!-- Node2 -->
<g id="Node000002" class="node">
<title>Node2</title>
<g id="a_Node000002"><a xlink:href="math__util__2_8c.html#a99e6304891f46564f00965ce860d1c29" target="_top" xlink:title=" ">
<polygon fill="white" stroke="#666666" points="316,-241 182,-241 182,-222 316,-222 316,-241"/>
<text text-anchor="middle" x="249" y="-229" font-family="Helvetica,sans-Serif" font-size="10.00">f32_step_down_towards</text>
</a>
</g>
</g>
<!-- Node1&#45;&gt;Node2 -->
<g id="edge1_Node000001_Node000002" class="edge">
<title>Node1&#45;&gt;Node2</title>
<g id="a_edge1_Node000001_Node000002"><a xlink:title=" ">
<path fill="none" stroke="#63b8ff" d="M82.48,-130.26C99.45,-149.18 139.61,-190.97 182,-213.5 185.5,-215.36 189.21,-217.04 193.01,-218.56"/>
<polygon fill="#63b8ff" stroke="#63b8ff" points="192,-221.91 202.59,-222 194.36,-215.32 192,-221.91"/>
</a>
</g>
</g>
<!-- Node3 -->
<g id="Node000003" class="node">
<title>Node3</title>
<g id="a_Node000003"><a xlink:href="math__util__2_8c.html#a1f3982f853bea1b49c3733f209dbb903" target="_top" xlink:title=" ">
<polygon fill="white" stroke="#666666" points="300.5,-204 197.5,-204 197.5,-185 300.5,-185 300.5,-204"/>
<text text-anchor="middle" x="249" y="-192" font-family="Helvetica,sans-Serif" font-size="10.00">f32_step_towards</text>
</a>
</g>
</g>
<!-- Node1&#45;&gt;Node3 -->
<g id="edge2_Node000001_Node000003" class="edge">
<title>Node1&#45;&gt;Node3</title>
<g id="a_edge2_Node000001_Node000003"><a xlink:title=" ">
<path fill="none" stroke="#63b8ff" d="M89.96,-130.15C110.61,-142.31 147.96,-163.21 182,-176.5 187.12,-178.5 192.54,-180.36 197.99,-182.07"/>
<polygon fill="#63b8ff" stroke="#63b8ff" points="197.19,-185.49 207.77,-184.99 199.19,-178.78 197.19,-185.49"/>
</a>
</g>
</g>
<!-- Node4 -->
<g id="Node000004" class="node">
<title>Node4</title>
<g id="a_Node000004"><a xlink:href="math__util__2_8c.html#a561fab07d3a0b3c0be1ea5643179abb5" target="_top" xlink:title=" ">
<polygon fill="white" stroke="#666666" points="309,-167 189,-167 189,-148 309,-148 309,-167"/>
<text text-anchor="middle" x="249" y="-155" font-family="Helvetica,sans-Serif" font-size="10.00">f32_step_up_towards</text>
</a>
</g>
</g>
<!-- Node1&#45;&gt;Node4 -->
<g id="edge3_Node000001_Node000004" class="edge">
<title>Node1&#45;&gt;Node4</title>
<g id="a_edge3_Node000001_Node000004"><a xlink:title=" ">
<path fill="none" stroke="#63b8ff" d="M118.81,-130.03C141.45,-134.84 169.13,-140.73 193.05,-145.81"/>
<polygon fill="#63b8ff" stroke="#63b8ff" points="192.53,-149.28 203.04,-147.94 193.99,-142.44 192.53,-149.28"/>
</a>
</g>
</g>
<!-- Node5 -->
<g id="Node000005" class="node">
<title>Node5</title>
<g id="a_Node000005"><a xlink:href="update__objects_8c.html#a6433786e30fbe8c3dc83f83c9f2c35f9" target="_top" xlink:title=" ">
<polygon fill="white" stroke="#666666" points="295,-56 203,-56 203,-37 295,-37 295,-56"/>
<text text-anchor="middle" x="249" y="-44" font-family="Helvetica,sans-Serif" font-size="10.00">func_800726CC</text>
</a>
</g>
</g>
<!-- Node1&#45;&gt;Node5 -->
<g id="edge4_Node000001_Node000005" class="edge">
<title>Node1&#45;&gt;Node5</title>
<g id="a_edge4_Node000001_Node000005"><a xlink:title=" ">
<path fill="none" stroke="#63b8ff" d="M90.38,-110.91C111.15,-99.04 148.33,-78.78 182,-65.5 187.9,-63.17 194.19,-61 200.46,-59"/>
<polygon fill="#63b8ff" stroke="#63b8ff" points="201.69,-62.29 210.24,-56.03 199.65,-55.59 201.69,-62.29"/>
</a>
</g>
</g>
<!-- Node8 -->
<g id="Node000008" class="node">
<title>Node8</title>
<g id="a_Node000008"><a xlink:href="update__objects_8c.html#a40d0003b60ff68812ff7bb1a04100c24" target="_top" xlink:title=" ">
<polygon fill="white" stroke="#666666" points="294.5,-19 203.5,-19 203.5,0 294.5,0 294.5,-19"/>
<text text-anchor="middle" x="249" y="-7" font-family="Helvetica,sans-Serif" font-size="10.00">func_80073E18</text>
</a>
</g>
</g>
<!-- Node1&#45;&gt;Node8 -->
<g id="edge7_Node000001_Node000008" class="edge">
<title>Node1&#45;&gt;Node8</title>
<g id="a_edge7_Node000001_Node000008"><a xlink:title=" ">
<path fill="none" stroke="#63b8ff" d="M82.53,-110.9C99.59,-92.29 139.91,-51.11 182,-28.5 186.18,-26.26 190.65,-24.25 195.23,-22.46"/>
<polygon fill="#63b8ff" stroke="#63b8ff" points="196.45,-25.74 204.7,-19.1 194.11,-19.15 196.45,-25.74"/>
</a>
</g>
</g>
<!-- Node10 -->
<g id="Node000010" class="node">
<title>Node10</title>
<g id="a_Node000010"><a xlink:href="code__80086E70_8c.html#a6eea48094f49bb346ce1170842d955b2" target="_top" xlink:title=" ">
<polygon fill="white" stroke="#666666" points="295,-130 203,-130 203,-111 295,-111 295,-130"/>
<text text-anchor="middle" x="249" y="-118" font-family="Helvetica,sans-Serif" font-size="10.00">func_80086FD4</text>
</a>
</g>
</g>
<!-- Node1&#45;&gt;Node10 -->
<g id="edge9_Node000001_Node000010" class="edge">
<title>Node1&#45;&gt;Node10</title>
<g id="a_edge9_Node000001_Node000010"><a xlink:title=" ">
<path fill="none" stroke="#63b8ff" d="M146.03,-120.5C161.68,-120.5 177.99,-120.5 192.86,-120.5"/>
<polygon fill="#63b8ff" stroke="#63b8ff" points="192.91,-124 202.91,-120.5 192.91,-117 192.91,-124"/>
</a>
</g>
</g>
<!-- Node11 -->
<g id="Node000011" class="node">
<title>Node11</title>
<g id="a_Node000011"><a xlink:href="code__80086E70_8c.html#ae48e4fca508037771141413e29c2b764" target="_top" xlink:title=" ">
<polygon fill="white" stroke="#666666" points="295,-93 203,-93 203,-74 295,-74 295,-93"/>
<text text-anchor="middle" x="249" y="-81" font-family="Helvetica,sans-Serif" font-size="10.00">func_8008701C</text>
</a>
</g>
</g>
<!-- Node1&#45;&gt;Node11 -->
<g id="edge11_Node000001_Node000011" class="edge">
<title>Node1&#45;&gt;Node11</title>
<g id="a_edge11_Node000001_Node000011"><a xlink:title=" ">
<path fill="none" stroke="#63b8ff" d="M118.81,-110.97C141.45,-106.16 169.13,-100.27 193.05,-95.19"/>
<polygon fill="#63b8ff" stroke="#63b8ff" points="193.99,-98.56 203.04,-93.06 192.53,-91.72 193.99,-98.56"/>
</a>
</g>
</g>
<!-- Node6 -->
<g id="Node000006" class="node">
<title>Node6</title>
<g id="a_Node000006"><a xlink:href="update__objects_8c.html#a3953241e15c6372ac8944ba842148a9a" target="_top" xlink:title=" ">
<polygon fill="white" stroke="#666666" points="465.5,-93 366.5,-93 366.5,-74 465.5,-74 465.5,-93"/>
<text text-anchor="middle" x="416" y="-81" font-family="Helvetica,sans-Serif" font-size="10.00">clear_object_flag</text>
</a>
</g>
</g>
<!-- Node5&#45;&gt;Node6 -->
<g id="edge5_Node000005_Node000006" class="edge">
<title>Node5&#45;&gt;Node6</title>
<g id="a_edge5_Node000005_Node000006"><a xlink:title=" ">
<path fill="none" stroke="#63b8ff" d="M292.49,-56.03C313.87,-60.82 339.97,-66.68 362.58,-71.75"/>
<polygon fill="#63b8ff" stroke="#63b8ff" points="361.84,-75.17 372.37,-73.94 363.37,-68.34 361.84,-75.17"/>
</a>
</g>
</g>
<!-- Node7 -->
<g id="Node000007" class="node">
<title>Node7</title>
<g id="a_Node000007"><a xlink:href="update__objects_8c.html#af20e3f3c403dd4fbea56e358997e515a" target="_top" xlink:title=" ">
<polygon fill="white" stroke="#666666" points="480,-56 352,-56 352,-37 480,-37 480,-56"/>
<text text-anchor="middle" x="416" y="-44" font-family="Helvetica,sans-Serif" font-size="10.00">set_object_timer_state</text>
</a>
</g>
</g>
<!-- Node5&#45;&gt;Node7 -->
<g id="edge6_Node000005_Node000007" class="edge">
<title>Node5&#45;&gt;Node7</title>
<g id="a_edge6_Node000005_Node000007"><a xlink:title=" ">
<path fill="none" stroke="#63b8ff" d="M295.09,-46.5C309.41,-46.5 325.64,-46.5 341.43,-46.5"/>
<polygon fill="#63b8ff" stroke="#63b8ff" points="341.72,-50 351.72,-46.5 341.72,-43 341.72,-50"/>
</a>
</g>
</g>
<!-- Node9 -->
<g id="Node000009" class="node">
<title>Node9</title>
<g id="a_Node000009"><a xlink:href="update__objects_8c.html#a350ec2cc42f1fa42cda82e830e6dc1c6" target="_top" xlink:title=" ">
<polygon fill="white" stroke="#666666" points="461.5,-19 370.5,-19 370.5,0 461.5,0 461.5,-19"/>
<text text-anchor="middle" x="416" y="-7" font-family="Helvetica,sans-Serif" font-size="10.00">func_80073800</text>
</a>
</g>
</g>
<!-- Node8&#45;&gt;Node9 -->
<g id="edge8_Node000008_Node000009" class="edge">
<title>Node8&#45;&gt;Node9</title>
<g id="a_edge8_Node000008_Node000009"><a xlink:title=" ">
<path fill="none" stroke="#63b8ff" d="M294.65,-9.5C314.83,-9.5 338.86,-9.5 360.13,-9.5"/>
<polygon fill="#63b8ff" stroke="#63b8ff" points="360.31,-13 370.31,-9.5 360.31,-6 360.31,-13"/>
</a>
</g>
</g>
<!-- Node10&#45;&gt;Node6 -->
<g id="edge10_Node000010_Node000006" class="edge">
<title>Node10&#45;&gt;Node6</title>
<g id="a_edge10_Node000010_Node000006"><a xlink:title=" ">
<path fill="none" stroke="#63b8ff" d="M292.49,-110.97C313.87,-106.18 339.97,-100.32 362.58,-95.25"/>
<polygon fill="#63b8ff" stroke="#63b8ff" points="363.37,-98.66 372.37,-93.06 361.84,-91.83 363.37,-98.66"/>
</a>
</g>
</g>
<!-- Node11&#45;&gt;Node6 -->
<g id="edge12_Node000011_Node000006" class="edge">
<title>Node11&#45;&gt;Node6</title>
<g id="a_edge12_Node000011_Node000006"><a xlink:title=" ">
<path fill="none" stroke="#63b8ff" d="M295.09,-83.5C314.02,-83.5 336.3,-83.5 356.48,-83.5"/>
<polygon fill="#63b8ff" stroke="#63b8ff" points="356.5,-87 366.5,-83.5 356.5,-80 356.5,-87"/>
</a>
</g>
</g>
</g>
</svg>
