<?xml version="1.0" encoding="UTF-8" standalone="no"?>
<!DOCTYPE svg PUBLIC "-//W3C//DTD SVG 1.1//EN"
 "http://www.w3.org/Graphics/SVG/1.1/DTD/svg11.dtd">
<!-- Generated by graphviz version 2.43.0 (0)
 -->
<!-- Title: LookBehindCamera::LookBehindCamera Pages: 1 -->
<svg width="940pt" height="119pt"
 viewBox="0.00 0.00 940.00 119.00" xmlns="http://www.w3.org/2000/svg" xmlns:xlink="http://www.w3.org/1999/xlink">
<g id="graph0" class="graph" transform="scale(1 1) rotate(0) translate(4 115)">
<title>LookBehindCamera::LookBehindCamera</title>
<!-- Node1 -->
<g id="Node000001" class="node">
<title>Node1</title>
<g id="a_Node000001"><a xlink:title=" ">
<polygon fill="#999999" stroke="#666666" points="175,-42.5 0,-42.5 0,-12.5 175,-12.5 175,-42.5"/>
<text text-anchor="start" x="8" y="-30.5" font-family="Helvetica,sans-Serif" font-size="10.00">LookBehindCamera::LookBehind</text>
<text text-anchor="middle" x="87.5" y="-19.5" font-family="Helvetica,sans-Serif" font-size="10.00">Camera</text>
</a>
</g>
</g>
<!-- Node2 -->
<g id="Node000002" class="node">
<title>Node2</title>
<g id="a_Node000002"><a xlink:href="camera_8c.html#a2a461345e2d9714801f8ca9c05e25260" target="_top" xlink:title=" ">
<polygon fill="white" stroke="#666666" points="327,-56 253,-56 253,-37 327,-37 327,-56"/>
<text text-anchor="middle" x="290" y="-44" font-family="Helvetica,sans-Serif" font-size="10.00">camera_init</text>
</a>
</g>
</g>
<!-- Node1&#45;&gt;Node2 -->
<g id="edge1_Node000001_Node000002" class="edge">
<title>Node1&#45;&gt;Node2</title>
<g id="a_edge1_Node000001_Node000002"><a xlink:title=" ">
<path fill="none" stroke="#63b8ff" d="M175.28,-35.72C198.53,-37.93 222.77,-40.22 242.86,-42.13"/>
<polygon fill="#63b8ff" stroke="#63b8ff" points="242.68,-45.63 252.96,-43.09 243.34,-38.66 242.68,-45.63"/>
</a>
</g>
</g>
<!-- Node11 -->
<g id="Node000011" class="node">
<title>Node11</title>
<g id="a_Node000011"><a xlink:href="classGameCamera.html#a45eb9969036234a820d89b1f271b126d" target="_top" xlink:title=" ">
<polygon fill="white" stroke="#666666" points="369,-19 211,-19 211,0 369,0 369,-19"/>
<text text-anchor="middle" x="290" y="-7" font-family="Helvetica,sans-Serif" font-size="10.00">GameCamera::GameCamera</text>
</a>
</g>
</g>
<!-- Node1&#45;&gt;Node11 -->
<g id="edge10_Node000001_Node000011" class="edge">
<title>Node1&#45;&gt;Node11</title>
<g id="a_edge10_Node000001_Node000011"><a xlink:title=" ">
<path fill="none" stroke="#63b8ff" d="M175.28,-19.71C183.7,-18.95 192.26,-18.18 200.7,-17.43"/>
<polygon fill="#63b8ff" stroke="#63b8ff" points="201.28,-20.89 210.93,-16.51 200.65,-13.92 201.28,-20.89"/>
</a>
</g>
</g>
<!-- Node3 -->
<g id="Node000003" class="node">
<title>Node3</title>
<g id="a_Node000003"><a xlink:href="code__80005FD0_8c.html#a33f4e263ad7573063f17905299a90caf" target="_top" xlink:title=" ">
<polygon fill="white" stroke="#666666" points="497,-74 405,-74 405,-55 497,-55 497,-74"/>
<text text-anchor="middle" x="451" y="-62" font-family="Helvetica,sans-Serif" font-size="10.00">func_80014DE4</text>
</a>
</g>
</g>
<!-- Node2&#45;&gt;Node3 -->
<g id="edge2_Node000002_Node000003" class="edge">
<title>Node2&#45;&gt;Node3</title>
<g id="a_edge2_Node000002_Node000003"><a xlink:title=" ">
<path fill="none" stroke="#63b8ff" d="M327.08,-50.58C347.1,-52.85 372.43,-55.72 394.88,-58.26"/>
<polygon fill="#63b8ff" stroke="#63b8ff" points="394.63,-61.75 404.96,-59.4 395.42,-54.8 394.63,-61.75"/>
</a>
</g>
</g>
<!-- Node7 -->
<g id="Node000007" class="node">
<title>Node7</title>
<g id="a_Node000007"><a xlink:href="math__util_8c.html#aad57b20a709b8ebe6b6c4d095a3007aa" target="_top" xlink:title=" ">
<polygon fill="white" stroke="#666666" points="497,-37 405,-37 405,-18 497,-18 497,-37"/>
<text text-anchor="middle" x="451" y="-25" font-family="Helvetica,sans-Serif" font-size="10.00">func_802B7F7C</text>
</a>
</g>
</g>
<!-- Node2&#45;&gt;Node7 -->
<g id="edge6_Node000002_Node000007" class="edge">
<title>Node2&#45;&gt;Node7</title>
<g id="a_edge6_Node000002_Node000007"><a xlink:title=" ">
<path fill="none" stroke="#63b8ff" d="M327.08,-42.19C347.1,-39.8 372.43,-36.77 394.88,-34.09"/>
<polygon fill="#63b8ff" stroke="#63b8ff" points="395.45,-37.54 404.96,-32.88 394.62,-30.59 395.45,-37.54"/>
</a>
</g>
</g>
<!-- Node4 -->
<g id="Node000004" class="node">
<title>Node4</title>
<g id="a_Node000004"><a xlink:href="Game_8cpp.html#ae131a8b6906df364a68be4307caab750" target="_top" xlink:title=" ">
<polygon fill="white" stroke="#666666" points="656,-74 533,-74 533,-55 656,-55 656,-74"/>
<text text-anchor="middle" x="594.5" y="-62" font-family="Helvetica,sans-Serif" font-size="10.00">GetCupCursorPosition</text>
</a>
</g>
</g>
<!-- Node3&#45;&gt;Node4 -->
<g id="edge3_Node000003_Node000004" class="edge">
<title>Node3&#45;&gt;Node4</title>
<g id="a_edge3_Node000003_Node000004"><a xlink:title=" ">
<path fill="none" stroke="#63b8ff" d="M497.16,-64.5C505.3,-64.5 513.96,-64.5 522.62,-64.5"/>
<polygon fill="#63b8ff" stroke="#63b8ff" points="522.76,-68 532.76,-64.5 522.76,-61 522.76,-68"/>
</a>
</g>
</g>
<!-- Node5 -->
<g id="Node000005" class="node">
<title>Node5</title>
<g id="a_Node000005"><a xlink:href="classWorld.html#a37da13d556bec8e05d87b87942bdb19e" target="_top" xlink:title=" ">
<polygon fill="white" stroke="#666666" points="814,-111 692,-111 692,-92 814,-92 814,-111"/>
<text text-anchor="middle" x="753" y="-99" font-family="Helvetica,sans-Serif" font-size="10.00">World::GetCurrentCup</text>
</a>
</g>
</g>
<!-- Node4&#45;&gt;Node5 -->
<g id="edge4_Node000004_Node000005" class="edge">
<title>Node4&#45;&gt;Node5</title>
<g id="a_edge4_Node000004_Node000005"><a xlink:title=" ">
<path fill="none" stroke="#63b8ff" d="M635.8,-74.03C655.9,-78.78 680.39,-84.57 701.71,-89.61"/>
<polygon fill="#63b8ff" stroke="#63b8ff" points="701.03,-93.04 711.56,-91.94 702.64,-86.23 701.03,-93.04"/>
</a>
</g>
</g>
<!-- Node6 -->
<g id="Node000006" class="node">
<title>Node6</title>
<g id="a_Node000006"><a xlink:href="Game_8cpp.html#ae2fa844b3cb1021ecbc357f8ed2ad8cc" target="_top" xlink:title=" ">
<polygon fill="white" stroke="#666666" points="784,-74 722,-74 722,-55 784,-55 784,-74"/>
<text text-anchor="middle" x="753" y="-62" font-family="Helvetica,sans-Serif" font-size="10.00">GetWorld</text>
</a>
</g>
</g>
<!-- Node4&#45;&gt;Node6 -->
<g id="edge5_Node000004_Node000006" class="edge">
<title>Node4&#45;&gt;Node6</title>
<g id="a_edge5_Node000004_Node000006"><a xlink:title=" ">
<path fill="none" stroke="#63b8ff" d="M656.01,-64.5C674.67,-64.5 694.75,-64.5 711.7,-64.5"/>
<polygon fill="#63b8ff" stroke="#63b8ff" points="711.81,-68 721.81,-64.5 711.81,-61 711.81,-68"/>
</a>
</g>
</g>
<!-- Node8 -->
<g id="Node000008" class="node">
<title>Node8</title>
<g id="a_Node000008"><a xlink:href="math__util_8c.html#a7a733526eedafdec1d9e37b72771af7d" target="_top" xlink:title=" ">
<polygon fill="white" stroke="#666666" points="640.5,-37 548.5,-37 548.5,-18 640.5,-18 640.5,-37"/>
<text text-anchor="middle" x="594.5" y="-25" font-family="Helvetica,sans-Serif" font-size="10.00">func_802B7F34</text>
</a>
</g>
</g>
<!-- Node7&#45;&gt;Node8 -->
<g id="edge7_Node000007_Node000008" class="edge">
<title>Node7&#45;&gt;Node8</title>
<g id="a_edge7_Node000007_Node000008"><a xlink:title=" ">
<path fill="none" stroke="#63b8ff" d="M497.16,-27.5C510.18,-27.5 524.54,-27.5 538.1,-27.5"/>
<polygon fill="#63b8ff" stroke="#63b8ff" points="538.28,-31 548.28,-27.5 538.28,-24 538.28,-31"/>
</a>
</g>
</g>
<!-- Node9 -->
<g id="Node000009" class="node">
<title>Node9</title>
<g id="a_Node000009"><a xlink:href="math__util_8c.html#aaa39a297477f56051975259f4bddd829" target="_top" xlink:title=" ">
<polygon fill="white" stroke="#666666" points="778,-37 728,-37 728,-18 778,-18 778,-37"/>
<text text-anchor="middle" x="753" y="-25" font-family="Helvetica,sans-Serif" font-size="10.00">atan2s</text>
</a>
</g>
</g>
<!-- Node8&#45;&gt;Node9 -->
<g id="edge8_Node000008_Node000009" class="edge">
<title>Node8&#45;&gt;Node9</title>
<g id="a_edge8_Node000008_Node000009"><a xlink:title=" ">
<path fill="none" stroke="#63b8ff" d="M640.77,-27.5C665.24,-27.5 694.98,-27.5 717.54,-27.5"/>
<polygon fill="#63b8ff" stroke="#63b8ff" points="717.68,-31 727.68,-27.5 717.68,-24 717.68,-31"/>
</a>
</g>
</g>
<!-- Node10 -->
<g id="Node000010" class="node">
<title>Node10</title>
<g id="a_Node000010"><a xlink:href="math__util_8c.html#a0273b0ea0783a06996c28669a7438ed9" target="_top" xlink:title=" ">
<polygon fill="white" stroke="#666666" points="932,-37 850,-37 850,-18 932,-18 932,-37"/>
<text text-anchor="middle" x="891" y="-25" font-family="Helvetica,sans-Serif" font-size="10.00">atan2_lookup</text>
</a>
</g>
</g>
<!-- Node9&#45;&gt;Node10 -->
<g id="edge9_Node000009_Node000010" class="edge">
<title>Node9&#45;&gt;Node10</title>
<g id="a_edge9_Node000009_Node000010"><a xlink:title=" ">
<path fill="none" stroke="#63b8ff" d="M778,-27.5C795.1,-27.5 818.72,-27.5 839.85,-27.5"/>
<polygon fill="#63b8ff" stroke="#63b8ff" points="839.99,-31 849.99,-27.5 839.99,-24 839.99,-31"/>
</a>
</g>
</g>
</g>
</svg>
