<?xml version="1.0" encoding="UTF-8" standalone="no"?>
<!DOCTYPE svg PUBLIC "-//W3C//DTD SVG 1.1//EN"
 "http://www.w3.org/Graphics/SVG/1.1/DTD/svg11.dtd">
<!-- Generated by graphviz version 2.43.0 (0)
 -->
<!-- Title: OCheepCheep::Draw Pages: 1 -->
<svg width="999pt" height="257pt"
 viewBox="0.00 0.00 999.00 257.00" xmlns="http://www.w3.org/2000/svg" xmlns:xlink="http://www.w3.org/1999/xlink">
<g id="graph0" class="graph" transform="scale(1 1) rotate(0) translate(4 253)">
<title>OCheepCheep::Draw</title>
<!-- Node1 -->
<g id="Node000001" class="node">
<title>Node1</title>
<g id="a_Node000001"><a xlink:title=" ">
<polygon fill="#999999" stroke="#666666" points="117,-190 0,-190 0,-171 117,-171 117,-190"/>
<text text-anchor="middle" x="58.5" y="-178" font-family="Helvetica,sans-Serif" font-size="10.00">OCheepCheep::Draw</text>
</a>
</g>
</g>
<!-- Node2 -->
<g id="Node000002" class="node">
<title>Node2</title>
<g id="a_Node000002"><a xlink:href="render__objects_8c.html#ac7735a81a89d148e0546c7f424ced10f" target="_top" xlink:title=" ">
<polygon fill="white" stroke="#666666" points="282.5,-249 190.5,-249 190.5,-230 282.5,-230 282.5,-249"/>
<text text-anchor="middle" x="236.5" y="-237" font-family="Helvetica,sans-Serif" font-size="10.00">func_800520C0</text>
</a>
</g>
</g>
<!-- Node1&#45;&gt;Node2 -->
<g id="edge1_Node000001_Node000002" class="edge">
<title>Node1&#45;&gt;Node2</title>
<g id="a_edge1_Node000001_Node000002"><a xlink:title=" ">
<path fill="none" stroke="#63b8ff" d="M78.41,-190.12C96.99,-199.26 126.36,-212.85 153,-221.5 161.7,-224.33 171.07,-226.85 180.25,-229.04"/>
<polygon fill="#63b8ff" stroke="#63b8ff" points="179.58,-232.47 190.11,-231.29 181.14,-225.65 179.58,-232.47"/>
</a>
</g>
</g>
<!-- Node3 -->
<g id="Node000003" class="node">
<title>Node3</title>
<g id="a_Node000003"><a xlink:href="GBIMiddleware_8cpp.html#a4ecc44e3c6f1ca5a6b4a20c41d3bd2d2" target="_top" xlink:title=" ">
<polygon fill="white" stroke="#666666" points="281,-212 192,-212 192,-193 281,-193 281,-212"/>
<text text-anchor="middle" x="236.5" y="-200" font-family="Helvetica,sans-Serif" font-size="10.00">gSPDisplayList</text>
</a>
</g>
</g>
<!-- Node1&#45;&gt;Node3 -->
<g id="edge2_Node000001_Node000003" class="edge">
<title>Node1&#45;&gt;Node3</title>
<g id="a_edge2_Node000001_Node000003"><a xlink:title=" ">
<path fill="none" stroke="#63b8ff" d="M117.13,-187.7C137.97,-190.31 161.4,-193.24 181.88,-195.8"/>
<polygon fill="#63b8ff" stroke="#63b8ff" points="181.63,-199.29 191.98,-197.06 182.5,-192.35 181.63,-199.29"/>
</a>
</g>
</g>
<!-- Node6 -->
<g id="Node000006" class="node">
<title>Node6</title>
<g id="a_Node000006"><a xlink:href="update__objects_8c.html#ae85ab923e54f707801592c71f2a847cd" target="_top" xlink:title=" ">
<polygon fill="white" stroke="#666666" points="288.5,-174.5 184.5,-174.5 184.5,-144.5 288.5,-144.5 288.5,-174.5"/>
<text text-anchor="start" x="192.5" y="-162.5" font-family="Helvetica,sans-Serif" font-size="10.00">is_obj_flag_status</text>
<text text-anchor="middle" x="236.5" y="-151.5" font-family="Helvetica,sans-Serif" font-size="10.00">_active</text>
</a>
</g>
</g>
<!-- Node1&#45;&gt;Node6 -->
<g id="edge5_Node000001_Node000006" class="edge">
<title>Node1&#45;&gt;Node6</title>
<g id="a_edge5_Node000001_Node000006"><a xlink:title=" ">
<path fill="none" stroke="#63b8ff" d="M117.13,-173.62C135.4,-171.44 155.66,-169.03 174.18,-166.82"/>
<polygon fill="#63b8ff" stroke="#63b8ff" points="174.75,-170.27 184.27,-165.61 173.92,-163.32 174.75,-170.27"/>
</a>
</g>
</g>
<!-- Node7 -->
<g id="Node000007" class="node">
<title>Node7</title>
<g id="a_Node000007"><a xlink:href="math__util__2_8c.html#a2eff0e02deb703653ee3230fbc02eb14" target="_top" xlink:title="set the matrix to a transformation matrix">
<polygon fill="white" stroke="#666666" points="320,-126 153,-126 153,-107 320,-107 320,-126"/>
<text text-anchor="middle" x="236.5" y="-114" font-family="Helvetica,sans-Serif" font-size="10.00">rsp_set_matrix_transformation</text>
</a>
</g>
</g>
<!-- Node1&#45;&gt;Node7 -->
<g id="edge6_Node000001_Node000007" class="edge">
<title>Node1&#45;&gt;Node7</title>
<g id="a_edge6_Node000001_Node000007"><a xlink:title=" ">
<path fill="none" stroke="#63b8ff" d="M76.58,-170.85C94.96,-160.81 125.29,-145.22 153,-135.5 160.31,-132.93 168.11,-130.62 175.89,-128.56"/>
<polygon fill="#63b8ff" stroke="#63b8ff" points="176.85,-131.93 185.69,-126.09 175.14,-125.14 176.85,-131.93"/>
</a>
</g>
</g>
<!-- Node4 -->
<g id="Node000004" class="node">
<title>Node4</title>
<g id="a_Node000004"><a xlink:href="Engine_8cpp.html#a223c8bc63f228dc11177515e38eff2db" target="_top" xlink:title=" ">
<polygon fill="white" stroke="#666666" points="518.5,-212 369.5,-212 369.5,-193 518.5,-193 518.5,-212"/>
<text text-anchor="middle" x="444" y="-200" font-family="Helvetica,sans-Serif" font-size="10.00">GameEngine_OTRSigCheck</text>
</a>
</g>
</g>
<!-- Node3&#45;&gt;Node4 -->
<g id="edge3_Node000003_Node000004" class="edge">
<title>Node3&#45;&gt;Node4</title>
<g id="a_edge3_Node000003_Node000004"><a xlink:title=" ">
<path fill="none" stroke="#63b8ff" d="M281.08,-202.5C303.75,-202.5 332.25,-202.5 359,-202.5"/>
<polygon fill="#63b8ff" stroke="#63b8ff" points="359.15,-206 369.15,-202.5 359.15,-199 359.15,-206"/>
</a>
</g>
</g>
<!-- Node5 -->
<g id="Node000005" class="node">
<title>Node5</title>
<g id="a_Node000005"><a xlink:href="string_8c.html#a008e171a518fe0e0352f31b245e03875" target="_top" xlink:title=" ">
<polygon fill="white" stroke="#666666" points="623.5,-212 579.5,-212 579.5,-193 623.5,-193 623.5,-212"/>
<text text-anchor="middle" x="601.5" y="-200" font-family="Helvetica,sans-Serif" font-size="10.00">strlen</text>
</a>
</g>
</g>
<!-- Node4&#45;&gt;Node5 -->
<g id="edge4_Node000004_Node000005" class="edge">
<title>Node4&#45;&gt;Node5</title>
<g id="a_edge4_Node000004_Node000005"><a xlink:title=" ">
<path fill="none" stroke="#63b8ff" d="M518.65,-202.5C536.29,-202.5 554.21,-202.5 568.77,-202.5"/>
<polygon fill="#63b8ff" stroke="#63b8ff" points="569.19,-206 579.19,-202.5 569.19,-199 569.19,-206"/>
</a>
</g>
</g>
<!-- Node8 -->
<g id="Node000008" class="node">
<title>Node8</title>
<g id="a_Node000008"><a xlink:href="Matrix_8cpp.html#a329d78c031733cf22ff7518f5d38fd74" target="_top" xlink:title=" ">
<polygon fill="white" stroke="#666666" points="487,-132 401,-132 401,-113 487,-113 487,-132"/>
<text text-anchor="middle" x="444" y="-120" font-family="Helvetica,sans-Serif" font-size="10.00">AddHudMatrix</text>
</a>
</g>
</g>
<!-- Node7&#45;&gt;Node8 -->
<g id="edge7_Node000007_Node000008" class="edge">
<title>Node7&#45;&gt;Node8</title>
<g id="a_edge7_Node000007_Node000008"><a xlink:title=" ">
<path fill="none" stroke="#63b8ff" d="M320.2,-118.91C343.97,-119.61 369.23,-120.35 390.62,-120.97"/>
<polygon fill="#63b8ff" stroke="#63b8ff" points="390.68,-124.47 400.78,-121.27 390.89,-117.48 390.68,-124.47"/>
</a>
</g>
</g>
<!-- Node14 -->
<g id="Node000014" class="node">
<title>Node14</title>
<g id="a_Node000014"><a xlink:href="math__util__2_8c.html#ae71383a9d7f97bcb240b23f68068ab30" target="_top" xlink:title=" ">
<polygon fill="white" stroke="#666666" points="532,-76 356,-76 356,-57 532,-57 532,-76"/>
<text text-anchor="middle" x="444" y="-64" font-family="Helvetica,sans-Serif" font-size="10.00">mtxf_set_matrix_transformation</text>
</a>
</g>
</g>
<!-- Node7&#45;&gt;Node14 -->
<g id="edge13_Node000007_Node000014" class="edge">
<title>Node7&#45;&gt;Node14</title>
<g id="a_edge13_Node000007_Node000014"><a xlink:title=" ">
<path fill="none" stroke="#63b8ff" d="M276.64,-106.98C309.95,-98.87 357.98,-87.19 393.88,-78.45"/>
<polygon fill="#63b8ff" stroke="#63b8ff" points="394.77,-81.84 403.66,-76.07 393.12,-75.04 394.77,-81.84"/>
</a>
</g>
</g>
<!-- Node9 -->
<g id="Node000009" class="node">
<title>Node9</title>
<g id="a_Node000009"><a xlink:href="Matrix_8cpp.html#a67401ed1d8de1f4d3a3e5a7b72842b6a" target="_top" xlink:title=" ">
<polygon fill="white" stroke="#666666" points="635,-169 568,-169 568,-150 635,-150 635,-169"/>
<text text-anchor="middle" x="601.5" y="-157" font-family="Helvetica,sans-Serif" font-size="10.00">AddMatrix</text>
</a>
</g>
</g>
<!-- Node8&#45;&gt;Node9 -->
<g id="edge8_Node000008_Node000009" class="edge">
<title>Node8&#45;&gt;Node9</title>
<g id="a_edge8_Node000008_Node000009"><a xlink:title=" ">
<path fill="none" stroke="#63b8ff" d="M485.05,-132.03C507.46,-137.36 535.4,-144.01 558.18,-149.43"/>
<polygon fill="#63b8ff" stroke="#63b8ff" points="557.38,-152.84 567.92,-151.75 559,-146.03 557.38,-152.84"/>
</a>
</g>
</g>
<!-- Node13 -->
<g id="Node000013" class="node">
<title>Node13</title>
<g id="a_Node000013"><a xlink:href="Game_8cpp.html#ae2fa844b3cb1021ecbc357f8ed2ad8cc" target="_top" xlink:title=" ">
<polygon fill="white" stroke="#666666" points="632.5,-132 570.5,-132 570.5,-113 632.5,-113 632.5,-132"/>
<text text-anchor="middle" x="601.5" y="-120" font-family="Helvetica,sans-Serif" font-size="10.00">GetWorld</text>
</a>
</g>
</g>
<!-- Node8&#45;&gt;Node13 -->
<g id="edge12_Node000008_Node000013" class="edge">
<title>Node8&#45;&gt;Node13</title>
<g id="a_edge12_Node000008_Node000013"><a xlink:title=" ">
<path fill="none" stroke="#63b8ff" d="M487.08,-122.5C509.75,-122.5 537.59,-122.5 560.02,-122.5"/>
<polygon fill="#63b8ff" stroke="#63b8ff" points="560.22,-126 570.22,-122.5 560.22,-119 560.22,-126"/>
</a>
</g>
</g>
<!-- Node10 -->
<g id="Node000010" class="node">
<title>Node10</title>
<g id="a_Node000010"><a xlink:href="FrameInterpolation_8cpp.html#a8cf1f2d6fabc6925aa71a9515341b4aa" target="_top" xlink:title=" ">
<polygon fill="white" stroke="#666666" points="829,-174.5 689,-174.5 689,-144.5 829,-144.5 829,-174.5"/>
<text text-anchor="start" x="697" y="-162.5" font-family="Helvetica,sans-Serif" font-size="10.00">FrameInterpolation</text>
<text text-anchor="middle" x="759" y="-151.5" font-family="Helvetica,sans-Serif" font-size="10.00">_RecordMatrixMtxFToMtx</text>
</a>
</g>
</g>
<!-- Node9&#45;&gt;Node10 -->
<g id="edge9_Node000009_Node000010" class="edge">
<title>Node9&#45;&gt;Node10</title>
<g id="a_edge9_Node000009_Node000010"><a xlink:title=" ">
<path fill="none" stroke="#63b8ff" d="M635.1,-159.5C647.96,-159.5 663.33,-159.5 678.79,-159.5"/>
<polygon fill="#63b8ff" stroke="#63b8ff" points="678.93,-163 688.93,-159.5 678.93,-156 678.93,-163"/>
</a>
</g>
</g>
<!-- Node12 -->
<g id="Node000012" class="node">
<title>Node12</title>
<g id="a_Node000012"><a xlink:href="guMtxF2L_8c.html#a40ab2d64c609839ff1e0ef0de2d0dcc4" target="_top" xlink:title=" ">
<polygon fill="white" stroke="#666666" points="791.5,-126 726.5,-126 726.5,-107 791.5,-107 791.5,-126"/>
<text text-anchor="middle" x="759" y="-114" font-family="Helvetica,sans-Serif" font-size="10.00">guMtxF2L</text>
</a>
</g>
</g>
<!-- Node9&#45;&gt;Node12 -->
<g id="edge11_Node000009_Node000012" class="edge">
<title>Node9&#45;&gt;Node12</title>
<g id="a_edge11_Node000009_Node000012"><a xlink:title=" ">
<path fill="none" stroke="#63b8ff" d="M627.32,-149.98C640.22,-145.24 656.33,-139.66 671,-135.5 685.6,-131.36 701.8,-127.61 716.22,-124.54"/>
<polygon fill="#63b8ff" stroke="#63b8ff" points="717.28,-127.9 726.36,-122.44 715.86,-121.05 717.28,-127.9"/>
</a>
</g>
</g>
<!-- Node11 -->
<g id="Node000011" class="node">
<title>Node11</title>
<g id="a_Node000011"><a xlink:href="FrameInterpolation_8cpp.html#a02c7ac5342a4d376edee38f312b480bf" target="_top" xlink:title=" ">
<polygon fill="white" stroke="#666666" points="991,-113 883,-113 883,-94 991,-94 991,-113"/>
<text text-anchor="middle" x="937" y="-101" font-family="Helvetica,sans-Serif" font-size="10.00">check_if_recording</text>
</a>
</g>
</g>
<!-- Node10&#45;&gt;Node11 -->
<g id="edge10_Node000010_Node000011" class="edge">
<title>Node10&#45;&gt;Node11</title>
<g id="a_edge10_Node000010_Node000011"><a xlink:title=" ">
<path fill="none" stroke="#63b8ff" d="M816.81,-144.5C826.91,-141.64 837.29,-138.58 847,-135.5 865.02,-129.79 884.82,-122.74 901.17,-116.72"/>
<polygon fill="#63b8ff" stroke="#63b8ff" points="902.7,-119.88 910.85,-113.12 900.26,-113.32 902.7,-119.88"/>
</a>
</g>
</g>
<!-- Node15 -->
<g id="Node000015" class="node">
<title>Node15</title>
<g id="a_Node000015"><a xlink:href="math__util_8c.html#ae69cbf5c8d4b3b0dba2d7b4d4673689f" target="_top" xlink:title=" ">
<polygon fill="white" stroke="#666666" points="620.5,-95 582.5,-95 582.5,-76 620.5,-76 620.5,-95"/>
<text text-anchor="middle" x="601.5" y="-83" font-family="Helvetica,sans-Serif" font-size="10.00">coss</text>
</a>
</g>
</g>
<!-- Node14&#45;&gt;Node15 -->
<g id="edge14_Node000014_Node000015" class="edge">
<title>Node14&#45;&gt;Node15</title>
<g id="a_edge14_Node000014_Node000015"><a xlink:title=" ">
<path fill="none" stroke="#63b8ff" d="M523.21,-76.06C540.75,-78.2 558.26,-80.34 572.17,-82.04"/>
<polygon fill="#63b8ff" stroke="#63b8ff" points="572.14,-85.56 582.49,-83.3 572.99,-78.61 572.14,-85.56"/>
</a>
</g>
</g>
<!-- Node16 -->
<g id="Node000016" class="node">
<title>Node16</title>
<g id="a_Node000016"><a xlink:href="FrameInterpolation_8cpp.html#af749df1a96bee5c78287b1845455ae2d" target="_top" xlink:title=" ">
<polygon fill="white" stroke="#666666" points="847,-75.5 671,-75.5 671,-45.5 847,-45.5 847,-75.5"/>
<text text-anchor="start" x="679" y="-63.5" font-family="Helvetica,sans-Serif" font-size="10.00">FrameInterpolation</text>
<text text-anchor="middle" x="759" y="-52.5" font-family="Helvetica,sans-Serif" font-size="10.00">_RecordSetMatrixTransformation</text>
</a>
</g>
</g>
<!-- Node14&#45;&gt;Node16 -->
<g id="edge15_Node000014_Node000016" class="edge">
<title>Node14&#45;&gt;Node16</title>
<g id="a_edge15_Node000014_Node000016"><a xlink:title=" ">
<path fill="none" stroke="#63b8ff" d="M532.19,-64.83C572.13,-64.06 619.61,-63.15 660.71,-62.36"/>
<polygon fill="#63b8ff" stroke="#63b8ff" points="660.81,-65.86 670.74,-62.17 660.67,-58.87 660.81,-65.86"/>
</a>
</g>
</g>
<!-- Node17 -->
<g id="Node000017" class="node">
<title>Node17</title>
<g id="a_Node000017"><a xlink:href="math__util_8c.html#a19ed3bd78fd2d3e2bd0a29f6caf48545" target="_top" xlink:title=" ">
<polygon fill="white" stroke="#666666" points="619.5,-19 583.5,-19 583.5,0 619.5,0 619.5,-19"/>
<text text-anchor="middle" x="601.5" y="-7" font-family="Helvetica,sans-Serif" font-size="10.00">sins</text>
</a>
</g>
</g>
<!-- Node14&#45;&gt;Node17 -->
<g id="edge17_Node000014_Node000017" class="edge">
<title>Node14&#45;&gt;Node17</title>
<g id="a_edge17_Node000014_Node000017"><a xlink:title=" ">
<path fill="none" stroke="#63b8ff" d="M471.03,-56.96C499.49,-46.53 544.87,-29.89 573.65,-19.34"/>
<polygon fill="#63b8ff" stroke="#63b8ff" points="574.9,-22.61 583.09,-15.88 572.49,-16.04 574.9,-22.61"/>
</a>
</g>
</g>
<!-- Node16&#45;&gt;Node11 -->
<g id="edge16_Node000016_Node000011" class="edge">
<title>Node16&#45;&gt;Node11</title>
<g id="a_edge16_Node000016_Node000011"><a xlink:title=" ">
<path fill="none" stroke="#63b8ff" d="M821.56,-75.54C843.01,-80.78 866.78,-86.59 887.07,-91.54"/>
<polygon fill="#63b8ff" stroke="#63b8ff" points="886.48,-95 897.03,-93.98 888.14,-88.2 886.48,-95"/>
</a>
</g>
</g>
</g>
</svg>
