<?xml version="1.0" encoding="UTF-8" standalone="no"?>
<!DOCTYPE svg PUBLIC "-//W3C//DTD SVG 1.1//EN"
 "http://www.w3.org/Graphics/SVG/1.1/DTD/svg11.dtd">
<!-- Generated by graphviz version 2.43.0 (0)
 -->
<!-- Title: OThwomp::func_8007FEA4 Pages: 1 -->
<svg width="458pt" height="138pt"
 viewBox="0.00 0.00 458.00 138.00" xmlns="http://www.w3.org/2000/svg" xmlns:xlink="http://www.w3.org/1999/xlink">
<g id="graph0" class="graph" transform="scale(1 1) rotate(0) translate(4 134)">
<title>OThwomp::func_8007FEA4</title>
<!-- Node1 -->
<g id="Node000001" class="node">
<title>Node1</title>
<g id="a_Node000001"><a xlink:title=" ">
<polygon fill="#999999" stroke="#666666" points="147,-74 0,-74 0,-55 147,-55 147,-74"/>
<text text-anchor="middle" x="73.5" y="-62" font-family="Helvetica,sans-Serif" font-size="10.00">OThwomp::func_8007FEA4</text>
</a>
</g>
</g>
<!-- Node2 -->
<g id="Node000002" class="node">
<title>Node2</title>
<g id="a_Node000002"><a xlink:href="math__util__2_8c.html#a1f3982f853bea1b49c3733f209dbb903" target="_top" xlink:title=" ">
<polygon fill="white" stroke="#666666" points="286,-130 183,-130 183,-111 286,-111 286,-130"/>
<text text-anchor="middle" x="234.5" y="-118" font-family="Helvetica,sans-Serif" font-size="10.00">f32_step_towards</text>
</a>
</g>
</g>
<!-- Node1&#45;&gt;Node2 -->
<g id="edge1_Node000001_Node000002" class="edge">
<title>Node1&#45;&gt;Node2</title>
<g id="a_edge1_Node000001_Node000002"><a xlink:title=" ">
<path fill="none" stroke="#63b8ff" d="M101.83,-74.13C128.04,-83.36 167.8,-97.36 196.77,-107.56"/>
<polygon fill="#63b8ff" stroke="#63b8ff" points="195.93,-110.98 206.52,-111 198.25,-104.38 195.93,-110.98"/>
</a>
</g>
</g>
<!-- Node3 -->
<g id="Node000003" class="node">
<title>Node3</title>
<g id="a_Node000003"><a xlink:href="update__objects_8c.html#aaece45bd6baf5aaf797c872a6e105604" target="_top" xlink:title=" ">
<polygon fill="white" stroke="#666666" points="280.5,-93 188.5,-93 188.5,-74 280.5,-74 280.5,-93"/>
<text text-anchor="middle" x="234.5" y="-81" font-family="Helvetica,sans-Serif" font-size="10.00">func_800722CC</text>
</a>
</g>
</g>
<!-- Node1&#45;&gt;Node3 -->
<g id="edge2_Node000001_Node000003" class="edge">
<title>Node1&#45;&gt;Node3</title>
<g id="a_edge2_Node000001_Node000003"><a xlink:title=" ">
<path fill="none" stroke="#63b8ff" d="M147.02,-73.17C157.48,-74.42 168.09,-75.68 178.14,-76.89"/>
<polygon fill="#63b8ff" stroke="#63b8ff" points="178.03,-80.4 188.38,-78.11 178.86,-73.45 178.03,-80.4"/>
</a>
</g>
</g>
<!-- Node4 -->
<g id="Node000004" class="node">
<title>Node4</title>
<g id="a_Node000004"><a xlink:href="update__objects_8c.html#a6433786e30fbe8c3dc83f83c9f2c35f9" target="_top" xlink:title=" ">
<polygon fill="white" stroke="#666666" points="280.5,-19 188.5,-19 188.5,0 280.5,0 280.5,-19"/>
<text text-anchor="middle" x="234.5" y="-7" font-family="Helvetica,sans-Serif" font-size="10.00">func_800726CC</text>
</a>
</g>
</g>
<!-- Node1&#45;&gt;Node4 -->
<g id="edge3_Node000001_Node000004" class="edge">
<title>Node1&#45;&gt;Node4</title>
<g id="a_edge3_Node000001_Node000004"><a xlink:title=" ">
<path fill="none" stroke="#63b8ff" d="M102.2,-54.92C128.22,-45.92 167.37,-32.38 196.15,-22.42"/>
<polygon fill="#63b8ff" stroke="#63b8ff" points="197.55,-25.64 205.86,-19.06 195.26,-19.02 197.55,-25.64"/>
</a>
</g>
</g>
<!-- Node7 -->
<g id="Node000007" class="node">
<title>Node7</title>
<g id="a_Node000007"><a xlink:href="code__80086E70_8c.html#a6eea48094f49bb346ce1170842d955b2" target="_top" xlink:title=" ">
<polygon fill="white" stroke="#666666" points="280.5,-56 188.5,-56 188.5,-37 280.5,-37 280.5,-56"/>
<text text-anchor="middle" x="234.5" y="-44" font-family="Helvetica,sans-Serif" font-size="10.00">func_80086FD4</text>
</a>
</g>
</g>
<!-- Node1&#45;&gt;Node7 -->
<g id="edge6_Node000001_Node000007" class="edge">
<title>Node1&#45;&gt;Node7</title>
<g id="a_edge6_Node000001_Node000007"><a xlink:title=" ">
<path fill="none" stroke="#63b8ff" d="M147.02,-56.29C157.48,-55.11 168.09,-53.9 178.14,-52.77"/>
<polygon fill="#63b8ff" stroke="#63b8ff" points="178.84,-56.21 188.38,-51.61 178.05,-49.26 178.84,-56.21"/>
</a>
</g>
</g>
<!-- Node5 -->
<g id="Node000005" class="node">
<title>Node5</title>
<g id="a_Node000005"><a xlink:href="update__objects_8c.html#a3953241e15c6372ac8944ba842148a9a" target="_top" xlink:title=" ">
<polygon fill="white" stroke="#666666" points="435.5,-56 336.5,-56 336.5,-37 435.5,-37 435.5,-56"/>
<text text-anchor="middle" x="386" y="-44" font-family="Helvetica,sans-Serif" font-size="10.00">clear_object_flag</text>
</a>
</g>
</g>
<!-- Node4&#45;&gt;Node5 -->
<g id="edge4_Node000004_Node000005" class="edge">
<title>Node4&#45;&gt;Node5</title>
<g id="a_edge4_Node000004_Node000005"><a xlink:title=" ">
<path fill="none" stroke="#63b8ff" d="M274,-19.03C293.02,-23.74 316.17,-29.47 336.4,-34.47"/>
<polygon fill="#63b8ff" stroke="#63b8ff" points="335.82,-37.93 346.37,-36.94 337.5,-31.14 335.82,-37.93"/>
</a>
</g>
</g>
<!-- Node6 -->
<g id="Node000006" class="node">
<title>Node6</title>
<g id="a_Node000006"><a xlink:href="update__objects_8c.html#af20e3f3c403dd4fbea56e358997e515a" target="_top" xlink:title=" ">
<polygon fill="white" stroke="#666666" points="450,-19 322,-19 322,0 450,0 450,-19"/>
<text text-anchor="middle" x="386" y="-7" font-family="Helvetica,sans-Serif" font-size="10.00">set_object_timer_state</text>
</a>
</g>
</g>
<!-- Node4&#45;&gt;Node6 -->
<g id="edge5_Node000004_Node000006" class="edge">
<title>Node4&#45;&gt;Node6</title>
<g id="a_edge5_Node000004_Node000006"><a xlink:title=" ">
<path fill="none" stroke="#63b8ff" d="M280.76,-9.5C290.59,-9.5 301.24,-9.5 311.84,-9.5"/>
<polygon fill="#63b8ff" stroke="#63b8ff" points="311.97,-13 321.97,-9.5 311.97,-6 311.97,-13"/>
</a>
</g>
</g>
<!-- Node7&#45;&gt;Node5 -->
<g id="edge7_Node000007_Node000005" class="edge">
<title>Node7&#45;&gt;Node5</title>
<g id="a_edge7_Node000007_Node000005"><a xlink:title=" ">
<path fill="none" stroke="#63b8ff" d="M280.76,-46.5C295.01,-46.5 310.95,-46.5 326,-46.5"/>
<polygon fill="#63b8ff" stroke="#63b8ff" points="326.25,-50 336.25,-46.5 326.25,-43 326.25,-50"/>
</a>
</g>
</g>
</g>
</svg>
