<?xml version="1.0" encoding="UTF-8" standalone="no"?>
<!DOCTYPE svg PUBLIC "-//W3C//DTD SVG 1.1//EN"
 "http://www.w3.org/Graphics/SVG/1.1/DTD/svg11.dtd">
<!-- Generated by graphviz version 2.43.0 (0)
 -->
<!-- Title: ABoat::Tick Pages: 1 -->
<svg width="912pt" height="446pt"
 viewBox="0.00 0.00 912.00 446.00" xmlns="http://www.w3.org/2000/svg" xmlns:xlink="http://www.w3.org/1999/xlink">
<g id="graph0" class="graph" transform="scale(1 1) rotate(0) translate(4 442)">
<title>ABoat::Tick</title>
<!-- Node1 -->
<g id="Node000001" class="node">
<title>Node1</title>
<g id="a_Node000001"><a xlink:title=" ">
<polygon fill="#999999" stroke="#666666" points="72,-215 0,-215 0,-196 72,-196 72,-215"/>
<text text-anchor="middle" x="36" y="-203" font-family="Helvetica,sans-Serif" font-size="10.00">ABoat::Tick</text>
</a>
</g>
</g>
<!-- Node2 -->
<g id="Node000002" class="node">
<title>Node2</title>
<g id="a_Node000002"><a xlink:href="classABoat.html#a3bf4384ddc2a42e84bef6c6ca038bd7e" target="_top" xlink:title=" ">
<polygon fill="white" stroke="#666666" points="244,-401 140,-401 140,-382 244,-382 244,-401"/>
<text text-anchor="middle" x="192" y="-389" font-family="Helvetica,sans-Serif" font-size="10.00">ABoat::AddSmoke</text>
</a>
</g>
</g>
<!-- Node1&#45;&gt;Node2 -->
<g id="edge1_Node000001_Node000002" class="edge">
<title>Node1&#45;&gt;Node2</title>
<g id="a_edge1_Node000001_Node000002"><a xlink:title=" ">
<path fill="none" stroke="#63b8ff" d="M39.99,-215.16C47.79,-239.06 70.77,-301.92 108,-341.5 122.26,-356.66 142.12,-368.84 158.84,-377.39"/>
<polygon fill="#63b8ff" stroke="#63b8ff" points="157.74,-380.74 168.26,-381.99 160.81,-374.46 157.74,-380.74"/>
</a>
</g>
</g>
<!-- Node8 -->
<g id="Node000008" class="node">
<title>Node8</title>
<g id="a_Node000008"><a xlink:href="code__80005FD0_8c.html#a4d94bc63f7aa18a802624ea904548946" target="_top" xlink:title=" ">
<polygon fill="white" stroke="#666666" points="246,-332.5 138,-332.5 138,-302.5 246,-302.5 246,-332.5"/>
<text text-anchor="start" x="146" y="-320.5" font-family="Helvetica,sans-Serif" font-size="10.00">adjust_position_by</text>
<text text-anchor="middle" x="192" y="-309.5" font-family="Helvetica,sans-Serif" font-size="10.00">_angle</text>
</a>
</g>
</g>
<!-- Node1&#45;&gt;Node8 -->
<g id="edge7_Node000001_Node000008" class="edge">
<title>Node1&#45;&gt;Node8</title>
<g id="a_edge7_Node000001_Node000008"><a xlink:title=" ">
<path fill="none" stroke="#63b8ff" d="M48.31,-215.11C62.11,-226.72 86.3,-246.65 108,-262.5 124.22,-274.35 142.82,-286.77 158.29,-296.81"/>
<polygon fill="#63b8ff" stroke="#63b8ff" points="156.69,-299.94 167,-302.42 160.48,-294.06 156.69,-299.94"/>
</a>
</g>
</g>
<!-- Node11 -->
<g id="Node000011" class="node">
<title>Node11</title>
<g id="a_Node000011"><a xlink:href="external_8c.html#acb60983213d09ee795e80ca3c8b5975e" target="_top" xlink:title=" ">
<polygon fill="white" stroke="#666666" points="238,-253 146,-253 146,-234 238,-234 238,-253"/>
<text text-anchor="middle" x="192" y="-241" font-family="Helvetica,sans-Serif" font-size="10.00">func_800C98B8</text>
</a>
</g>
</g>
<!-- Node1&#45;&gt;Node11 -->
<g id="edge10_Node000001_Node000011" class="edge">
<title>Node1&#45;&gt;Node11</title>
<g id="a_edge10_Node000001_Node000011"><a xlink:title=" ">
<path fill="none" stroke="#63b8ff" d="M72.33,-214.22C93.14,-219.35 119.76,-225.92 142.51,-231.53"/>
<polygon fill="#63b8ff" stroke="#63b8ff" points="141.78,-234.96 152.32,-233.96 143.45,-228.16 141.78,-234.96"/>
</a>
</g>
</g>
<!-- Node14 -->
<g id="Node000014" class="node">
<title>Node14</title>
<g id="a_Node000014"><a xlink:href="code__80005FD0_8c.html#a79cd9c001e0a06c9cab23fe2cf070abf" target="_top" xlink:title=" ">
<polygon fill="white" stroke="#666666" points="451,-216 312,-216 312,-197 451,-197 451,-216"/>
<text text-anchor="middle" x="381.5" y="-204" font-family="Helvetica,sans-Serif" font-size="10.00">get_angle_between_path</text>
</a>
</g>
</g>
<!-- Node1&#45;&gt;Node14 -->
<g id="edge13_Node000001_Node000014" class="edge">
<title>Node1&#45;&gt;Node14</title>
<g id="a_edge13_Node000001_Node000014"><a xlink:title=" ">
<path fill="none" stroke="#63b8ff" d="M72.15,-205.6C125.68,-205.76 229.06,-206.06 301.29,-206.27"/>
<polygon fill="#63b8ff" stroke="#63b8ff" points="301.7,-209.77 311.71,-206.3 301.72,-202.77 301.7,-209.77"/>
</a>
</g>
</g>
<!-- Node18 -->
<g id="Node000018" class="node">
<title>Node18</title>
<g id="a_Node000018"><a xlink:href="math__util_8c.html#a151b63b8adf9af7e4054b3b84bd226dc" target="_top" xlink:title=" ">
<polygon fill="white" stroke="#666666" points="228,-136 156,-136 156,-117 228,-117 228,-136"/>
<text text-anchor="middle" x="192" y="-124" font-family="Helvetica,sans-Serif" font-size="10.00">random_int</text>
</a>
</g>
</g>
<!-- Node1&#45;&gt;Node18 -->
<g id="edge17_Node000001_Node000018" class="edge">
<title>Node1&#45;&gt;Node18</title>
<g id="a_edge17_Node000001_Node000018"><a xlink:title=" ">
<path fill="none" stroke="#63b8ff" d="M45.6,-195.76C58.01,-182.33 82.3,-158.34 108,-145.5 119.69,-139.66 133.2,-135.59 145.88,-132.76"/>
<polygon fill="#63b8ff" stroke="#63b8ff" points="146.71,-136.16 155.82,-130.75 145.32,-129.3 146.71,-136.16"/>
</a>
</g>
</g>
<!-- Node20 -->
<g id="Node000020" class="node">
<title>Node20</title>
<g id="a_Node000020"><a xlink:href="code__80005FD0_8c.html#a6f8c9c39fb2e2613ec57cd1bda073e1d" target="_top" xlink:title=" ">
<polygon fill="white" stroke="#666666" points="246.5,-98.5 137.5,-98.5 137.5,-68.5 246.5,-68.5 246.5,-98.5"/>
<text text-anchor="start" x="145.5" y="-86.5" font-family="Helvetica,sans-Serif" font-size="10.00">set_vehicle_render</text>
<text text-anchor="middle" x="192" y="-75.5" font-family="Helvetica,sans-Serif" font-size="10.00">_distance_flags</text>
</a>
</g>
</g>
<!-- Node1&#45;&gt;Node20 -->
<g id="edge19_Node000001_Node000020" class="edge">
<title>Node1&#45;&gt;Node20</title>
<g id="a_edge19_Node000001_Node000020"><a xlink:title=" ">
<path fill="none" stroke="#63b8ff" d="M41.37,-195.91C50.73,-176.43 74.61,-132.13 108,-108.5 114,-104.26 120.72,-100.72 127.69,-97.78"/>
<polygon fill="#63b8ff" stroke="#63b8ff" points="129.18,-100.96 137.28,-94.13 126.69,-94.42 129.18,-100.96"/>
</a>
</g>
</g>
<!-- Node21 -->
<g id="Node000021" class="node">
<title>Node21</title>
<g id="a_Node000021"><a xlink:href="code__80005FD0_8c.html#a777de4239351e9266f8b367ce46cb936" target="_top" xlink:title=" ">
<polygon fill="white" stroke="#666666" points="276,-173 108,-173 108,-154 276,-154 276,-173"/>
<text text-anchor="middle" x="192" y="-161" font-family="Helvetica,sans-Serif" font-size="10.00">update_vehicle_following_path</text>
</a>
</g>
</g>
<!-- Node1&#45;&gt;Node21 -->
<g id="edge20_Node000001_Node000021" class="edge">
<title>Node1&#45;&gt;Node21</title>
<g id="a_edge20_Node000001_Node000021"><a xlink:title=" ">
<path fill="none" stroke="#63b8ff" d="M71.94,-195.97C93.92,-189.98 122.49,-182.19 146.13,-175.74"/>
<polygon fill="#63b8ff" stroke="#63b8ff" points="147.2,-179.07 155.93,-173.07 145.36,-172.32 147.2,-179.07"/>
</a>
</g>
</g>
<!-- Node3 -->
<g id="Node000003" class="node">
<title>Node3</title>
<g id="a_Node000003"><a xlink:href="update__objects_8c.html#a6e56a43ec98e81db05f2410893efa437" target="_top" xlink:title=" ">
<polygon fill="white" stroke="#666666" points="445.5,-438 317.5,-438 317.5,-419 445.5,-419 445.5,-438"/>
<text text-anchor="middle" x="381.5" y="-426" font-family="Helvetica,sans-Serif" font-size="10.00">add_unused_obj_index</text>
</a>
</g>
</g>
<!-- Node2&#45;&gt;Node3 -->
<g id="edge2_Node000002_Node000003" class="edge">
<title>Node2&#45;&gt;Node3</title>
<g id="a_edge2_Node000002_Node000003"><a xlink:title=" ">
<path fill="none" stroke="#63b8ff" d="M241.29,-401.03C265.9,-405.89 296.04,-411.83 321.97,-416.95"/>
<polygon fill="#63b8ff" stroke="#63b8ff" points="321.56,-420.44 332.05,-418.94 322.92,-413.57 321.56,-420.44"/>
</a>
</g>
</g>
<!-- Node5 -->
<g id="Node000005" class="node">
<title>Node5</title>
<g id="a_Node000005"><a xlink:href="update__objects_8c.html#a0b8b409c069a5db09c88c870e23260ab" target="_top" xlink:title=" ">
<polygon fill="white" stroke="#666666" points="430.5,-401 332.5,-401 332.5,-382 430.5,-382 430.5,-401"/>
<text text-anchor="middle" x="381.5" y="-389" font-family="Helvetica,sans-Serif" font-size="10.00">init_ferry_smoke</text>
</a>
</g>
</g>
<!-- Node2&#45;&gt;Node5 -->
<g id="edge4_Node000002_Node000005" class="edge">
<title>Node2&#45;&gt;Node5</title>
<g id="a_edge4_Node000002_Node000005"><a xlink:title=" ">
<path fill="none" stroke="#63b8ff" d="M244.24,-391.5C268.35,-391.5 297.22,-391.5 322.16,-391.5"/>
<polygon fill="#63b8ff" stroke="#63b8ff" points="322.23,-395 332.23,-391.5 322.23,-388 322.23,-395"/>
</a>
</g>
</g>
<!-- Node4 -->
<g id="Node000004" class="node">
<title>Node4</title>
<g id="a_Node000004"><a xlink:href="update__objects_8c.html#a92856990c4ca5fba1b8e0c61ca832c27" target="_top" xlink:title=" ">
<polygon fill="white" stroke="#666666" points="618.5,-438 490.5,-438 490.5,-419 618.5,-419 618.5,-438"/>
<text text-anchor="middle" x="554.5" y="-426" font-family="Helvetica,sans-Serif" font-size="10.00">find_unused_obj_index</text>
</a>
</g>
</g>
<!-- Node3&#45;&gt;Node4 -->
<g id="edge3_Node000003_Node000004" class="edge">
<title>Node3&#45;&gt;Node4</title>
<g id="a_edge3_Node000003_Node000004"><a xlink:title=" ">
<path fill="none" stroke="#63b8ff" d="M445.69,-428.5C456.95,-428.5 468.76,-428.5 480.27,-428.5"/>
<polygon fill="#63b8ff" stroke="#63b8ff" points="480.29,-432 490.29,-428.5 480.29,-425 480.29,-432"/>
</a>
</g>
</g>
<!-- Node6 -->
<g id="Node000006" class="node">
<title>Node6</title>
<g id="a_Node000006"><a xlink:href="update__objects_8c.html#abdebd086b5ff081f83af3d9205f39cd3" target="_top" xlink:title=" ">
<polygon fill="white" stroke="#666666" points="588.5,-401 520.5,-401 520.5,-382 588.5,-382 588.5,-401"/>
<text text-anchor="middle" x="554.5" y="-389" font-family="Helvetica,sans-Serif" font-size="10.00">init_object</text>
</a>
</g>
</g>
<!-- Node5&#45;&gt;Node6 -->
<g id="edge5_Node000005_Node000006" class="edge">
<title>Node5&#45;&gt;Node6</title>
<g id="a_edge5_Node000005_Node000006"><a xlink:title=" ">
<path fill="none" stroke="#63b8ff" d="M430.59,-391.5C455.65,-391.5 486.07,-391.5 510.37,-391.5"/>
<polygon fill="#63b8ff" stroke="#63b8ff" points="510.37,-395 520.37,-391.5 510.37,-388 510.37,-395"/>
</a>
</g>
</g>
<!-- Node7 -->
<g id="Node000007" class="node">
<title>Node7</title>
<g id="a_Node000007"><a xlink:href="update__objects_8c.html#af20e3f3c403dd4fbea56e358997e515a" target="_top" xlink:title=" ">
<polygon fill="white" stroke="#666666" points="786,-401 658,-401 658,-382 786,-382 786,-401"/>
<text text-anchor="middle" x="722" y="-389" font-family="Helvetica,sans-Serif" font-size="10.00">set_object_timer_state</text>
</a>
</g>
</g>
<!-- Node6&#45;&gt;Node7 -->
<g id="edge6_Node000006_Node000007" class="edge">
<title>Node6&#45;&gt;Node7</title>
<g id="a_edge6_Node000006_Node000007"><a xlink:title=" ">
<path fill="none" stroke="#63b8ff" d="M588.59,-391.5C605.62,-391.5 627.09,-391.5 647.76,-391.5"/>
<polygon fill="#63b8ff" stroke="#63b8ff" points="647.82,-395 657.82,-391.5 647.82,-388 647.82,-395"/>
</a>
</g>
</g>
<!-- Node9 -->
<g id="Node000009" class="node">
<title>Node9</title>
<g id="a_Node000009"><a xlink:href="math__util_8c.html#ae69cbf5c8d4b3b0dba2d7b4d4673689f" target="_top" xlink:title=" ">
<polygon fill="white" stroke="#666666" points="400.5,-364 362.5,-364 362.5,-345 400.5,-345 400.5,-364"/>
<text text-anchor="middle" x="381.5" y="-352" font-family="Helvetica,sans-Serif" font-size="10.00">coss</text>
</a>
</g>
</g>
<!-- Node8&#45;&gt;Node9 -->
<g id="edge8_Node000008_Node000009" class="edge">
<title>Node8&#45;&gt;Node9</title>
<g id="a_edge8_Node000008_Node000009"><a xlink:title=" ">
<path fill="none" stroke="#63b8ff" d="M246.23,-328C280.79,-334.82 324.45,-343.44 352.43,-348.96"/>
<polygon fill="#63b8ff" stroke="#63b8ff" points="351.84,-352.41 362.33,-350.91 353.2,-345.54 351.84,-352.41"/>
</a>
</g>
</g>
<!-- Node10 -->
<g id="Node000010" class="node">
<title>Node10</title>
<g id="a_Node000010"><a xlink:href="math__util_8c.html#a19ed3bd78fd2d3e2bd0a29f6caf48545" target="_top" xlink:title=" ">
<polygon fill="white" stroke="#666666" points="399.5,-327 363.5,-327 363.5,-308 399.5,-308 399.5,-327"/>
<text text-anchor="middle" x="381.5" y="-315" font-family="Helvetica,sans-Serif" font-size="10.00">sins</text>
</a>
</g>
</g>
<!-- Node8&#45;&gt;Node10 -->
<g id="edge9_Node000008_Node000010" class="edge">
<title>Node8&#45;&gt;Node10</title>
<g id="a_edge9_Node000008_Node000010"><a xlink:title=" ">
<path fill="none" stroke="#63b8ff" d="M246.23,-317.5C281.02,-317.5 325.03,-317.5 352.98,-317.5"/>
<polygon fill="#63b8ff" stroke="#63b8ff" points="353.21,-321 363.21,-317.5 353.21,-314 353.21,-321"/>
</a>
</g>
</g>
<!-- Node12 -->
<g id="Node000012" class="node">
<title>Node12</title>
<g id="a_Node000012"><a xlink:href="external_8c.html#a747de0be4005b4b29150d5c068564b7d" target="_top" xlink:title=" ">
<polygon fill="white" stroke="#666666" points="427.5,-290 335.5,-290 335.5,-271 427.5,-271 427.5,-290"/>
<text text-anchor="middle" x="381.5" y="-278" font-family="Helvetica,sans-Serif" font-size="10.00">func_800C1C88</text>
</a>
</g>
</g>
<!-- Node11&#45;&gt;Node12 -->
<g id="edge11_Node000011_Node000012" class="edge">
<title>Node11&#45;&gt;Node12</title>
<g id="a_edge11_Node000011_Node000012"><a xlink:title=" ">
<path fill="none" stroke="#63b8ff" d="M238.39,-252.46C264.55,-257.62 297.62,-264.15 325.28,-269.6"/>
<polygon fill="#63b8ff" stroke="#63b8ff" points="324.72,-273.06 335.2,-271.56 326.07,-266.19 324.72,-273.06"/>
</a>
</g>
</g>
<!-- Node13 -->
<g id="Node000013" class="node">
<title>Node13</title>
<g id="a_Node000013"><a xlink:href="external_8c.html#a475cff796211891556f52877cd8e9b9e" target="_top" xlink:title=" ">
<polygon fill="white" stroke="#666666" points="417.5,-253 345.5,-253 345.5,-234 417.5,-234 417.5,-253"/>
<text text-anchor="middle" x="381.5" y="-241" font-family="Helvetica,sans-Serif" font-size="10.00">play_sound</text>
</a>
</g>
</g>
<!-- Node11&#45;&gt;Node13 -->
<g id="edge12_Node000011_Node000013" class="edge">
<title>Node11&#45;&gt;Node13</title>
<g id="a_edge12_Node000011_Node000013"><a xlink:title=" ">
<path fill="none" stroke="#63b8ff" d="M238.39,-243.5C267.64,-243.5 305.53,-243.5 334.83,-243.5"/>
<polygon fill="#63b8ff" stroke="#63b8ff" points="335.21,-247 345.21,-243.5 335.21,-240 335.21,-247"/>
</a>
</g>
</g>
<!-- Node15 -->
<g id="Node000015" class="node">
<title>Node15</title>
<g id="a_Node000015"><a xlink:href="math__util_8c.html#a84cf9d4ec33146a64c230ed4cec56632" target="_top" xlink:title=" ">
<polygon fill="white" stroke="#666666" points="622,-221.5 487,-221.5 487,-191.5 622,-191.5 622,-221.5"/>
<text text-anchor="start" x="495" y="-209.5" font-family="Helvetica,sans-Serif" font-size="10.00">get_angle_between_two</text>
<text text-anchor="middle" x="554.5" y="-198.5" font-family="Helvetica,sans-Serif" font-size="10.00">_vectors</text>
</a>
</g>
</g>
<!-- Node14&#45;&gt;Node15 -->
<g id="edge14_Node000014_Node000015" class="edge">
<title>Node14&#45;&gt;Node15</title>
<g id="a_edge14_Node000014_Node000015"><a xlink:title=" ">
<path fill="none" stroke="#63b8ff" d="M451.07,-206.5C459.55,-206.5 468.26,-206.5 476.85,-206.5"/>
<polygon fill="#63b8ff" stroke="#63b8ff" points="476.86,-210 486.86,-206.5 476.86,-203 476.86,-210"/>
</a>
</g>
</g>
<!-- Node16 -->
<g id="Node000016" class="node">
<title>Node16</title>
<g id="a_Node000016"><a xlink:href="math__util_8c.html#aaa39a297477f56051975259f4bddd829" target="_top" xlink:title=" ">
<polygon fill="white" stroke="#666666" points="747,-216 697,-216 697,-197 747,-197 747,-216"/>
<text text-anchor="middle" x="722" y="-204" font-family="Helvetica,sans-Serif" font-size="10.00">atan2s</text>
</a>
</g>
</g>
<!-- Node15&#45;&gt;Node16 -->
<g id="edge15_Node000015_Node000016" class="edge">
<title>Node15&#45;&gt;Node16</title>
<g id="a_edge15_Node000015_Node000016"><a xlink:title=" ">
<path fill="none" stroke="#63b8ff" d="M622.34,-206.5C644.49,-206.5 668.22,-206.5 686.86,-206.5"/>
<polygon fill="#63b8ff" stroke="#63b8ff" points="686.92,-210 696.92,-206.5 686.92,-203 686.92,-210"/>
</a>
</g>
</g>
<!-- Node17 -->
<g id="Node000017" class="node">
<title>Node17</title>
<g id="a_Node000017"><a xlink:href="math__util_8c.html#a0273b0ea0783a06996c28669a7438ed9" target="_top" xlink:title=" ">
<polygon fill="white" stroke="#666666" points="904,-216 822,-216 822,-197 904,-197 904,-216"/>
<text text-anchor="middle" x="863" y="-204" font-family="Helvetica,sans-Serif" font-size="10.00">atan2_lookup</text>
</a>
</g>
</g>
<!-- Node16&#45;&gt;Node17 -->
<g id="edge16_Node000016_Node000017" class="edge">
<title>Node16&#45;&gt;Node17</title>
<g id="a_edge16_Node000016_Node000017"><a xlink:title=" ">
<path fill="none" stroke="#63b8ff" d="M747.21,-206.5C764.94,-206.5 789.63,-206.5 811.57,-206.5"/>
<polygon fill="#63b8ff" stroke="#63b8ff" points="811.75,-210 821.75,-206.5 811.75,-203 811.75,-210"/>
</a>
</g>
</g>
<!-- Node19 -->
<g id="Node000019" class="node">
<title>Node19</title>
<g id="a_Node000019"><a xlink:href="math__util_8c.html#a062850863585005ad1d0a75d9ff70693" target="_top" xlink:title=" ">
<polygon fill="white" stroke="#666666" points="420,-19 343,-19 343,0 420,0 420,-19"/>
<text text-anchor="middle" x="381.5" y="-7" font-family="Helvetica,sans-Serif" font-size="10.00">random_u16</text>
</a>
</g>
</g>
<!-- Node18&#45;&gt;Node19 -->
<g id="edge18_Node000018_Node000019" class="edge">
<title>Node18&#45;&gt;Node19</title>
<g id="a_edge18_Node000018_Node000019"><a xlink:title=" ">
<path fill="none" stroke="#63b8ff" d="M228,-125.47C244.14,-123.37 262.62,-118.46 276,-107.5 306.16,-82.79 282.24,-52.69 312,-27.5 318.07,-22.36 325.45,-18.67 333.08,-16.02"/>
<polygon fill="#63b8ff" stroke="#63b8ff" points="334.18,-19.35 342.81,-13.2 332.23,-12.62 334.18,-19.35"/>
</a>
</g>
</g>
<!-- Node21&#45;&gt;Node14 -->
<g id="edge22_Node000021_Node000014" class="edge">
<title>Node21&#45;&gt;Node14</title>
<g id="a_edge22_Node000021_Node000014"><a xlink:title=" ">
<path fill="none" stroke="#63b8ff" d="M234.61,-173.04C262.53,-179.45 299.49,-187.92 329.22,-194.74"/>
<polygon fill="#63b8ff" stroke="#63b8ff" points="328.47,-198.16 339,-196.98 330.04,-191.34 328.47,-198.16"/>
</a>
</g>
</g>
<!-- Node22 -->
<g id="Node000022" class="node">
<title>Node22</title>
<g id="a_Node000022"><a xlink:href="code__80005FD0_8c.html#ade9dca16c41c3d924b84f32a203ba823" target="_top" xlink:title=" ">
<polygon fill="white" stroke="#666666" points="441.5,-178.5 321.5,-178.5 321.5,-148.5 441.5,-148.5 441.5,-178.5"/>
<text text-anchor="start" x="329.5" y="-166.5" font-family="Helvetica,sans-Serif" font-size="10.00">find_closest_vehicles</text>
<text text-anchor="middle" x="381.5" y="-155.5" font-family="Helvetica,sans-Serif" font-size="10.00">_path_point</text>
</a>
</g>
</g>
<!-- Node21&#45;&gt;Node22 -->
<g id="edge21_Node000021_Node000022" class="edge">
<title>Node21&#45;&gt;Node22</title>
<g id="a_edge21_Node000021_Node000022"><a xlink:title=" ">
<path fill="none" stroke="#63b8ff" d="M276.06,-163.5C287.76,-163.5 299.68,-163.5 311.09,-163.5"/>
<polygon fill="#63b8ff" stroke="#63b8ff" points="311.4,-167 321.4,-163.5 311.4,-160 311.4,-167"/>
</a>
</g>
</g>
<!-- Node23 -->
<g id="Node000023" class="node">
<title>Node23</title>
<g id="a_Node000023"><a xlink:href="Game_8cpp.html#a545c1a384e93cc7b616dfee707f5d962" target="_top" xlink:title=" ">
<polygon fill="white" stroke="#666666" points="415.5,-130 347.5,-130 347.5,-111 415.5,-111 415.5,-130"/>
<text text-anchor="middle" x="381.5" y="-118" font-family="Helvetica,sans-Serif" font-size="10.00">IsDkJungle</text>
</a>
</g>
</g>
<!-- Node21&#45;&gt;Node23 -->
<g id="edge23_Node000021_Node000023" class="edge">
<title>Node21&#45;&gt;Node23</title>
<g id="a_edge23_Node000021_Node000023"><a xlink:title=" ">
<path fill="none" stroke="#63b8ff" d="M237.84,-153.96C250.21,-151.28 263.64,-148.32 276,-145.5 296.2,-140.89 318.53,-135.58 337.35,-131.04"/>
<polygon fill="#63b8ff" stroke="#63b8ff" points="338.23,-134.43 347.13,-128.67 336.59,-127.62 338.23,-134.43"/>
</a>
</g>
</g>
<!-- Node26 -->
<g id="Node000026" class="node">
<title>Node26</title>
<g id="a_Node000026"><a xlink:href="Game_8cpp.html#ad474b8b257813cceeae25ab5205273c4" target="_top" xlink:title=" ">
<polygon fill="white" stroke="#666666" points="430.5,-93 332.5,-93 332.5,-74 430.5,-74 430.5,-93"/>
<text text-anchor="middle" x="381.5" y="-81" font-family="Helvetica,sans-Serif" font-size="10.00">IsKalimariDesert</text>
</a>
</g>
</g>
<!-- Node21&#45;&gt;Node26 -->
<g id="edge26_Node000021_Node000026" class="edge">
<title>Node21&#45;&gt;Node26</title>
<g id="a_edge26_Node000021_Node000026"><a xlink:title=" ">
<path fill="none" stroke="#63b8ff" d="M257.64,-153.97C264.07,-151.71 270.32,-148.93 276,-145.5 297.33,-132.61 291.05,-116 312,-102.5 315.5,-100.24 319.27,-98.25 323.18,-96.5"/>
<polygon fill="#63b8ff" stroke="#63b8ff" points="324.47,-99.75 332.47,-92.81 321.89,-93.24 324.47,-99.75"/>
</a>
</g>
</g>
<!-- Node27 -->
<g id="Node000027" class="node">
<title>Node27</title>
<g id="a_Node000027"><a xlink:href="math_8h.html#a37bde043e94a6f074c78f10518fb5d99" target="_top" xlink:title=" ">
<polygon fill="white" stroke="#666666" points="401,-56 362,-56 362,-37 401,-37 401,-56"/>
<text text-anchor="middle" x="381.5" y="-44" font-family="Helvetica,sans-Serif" font-size="10.00">sqrtf</text>
</a>
</g>
</g>
<!-- Node21&#45;&gt;Node27 -->
<g id="edge29_Node000021_Node000027" class="edge">
<title>Node21&#45;&gt;Node27</title>
<g id="a_edge29_Node000021_Node000027"><a xlink:title=" ">
<path fill="none" stroke="#63b8ff" d="M262.42,-153.89C267.28,-151.61 271.88,-148.85 276,-145.5 306.56,-120.63 281.99,-90.02 312,-64.5 323.01,-55.13 338.36,-50.57 351.73,-48.38"/>
<polygon fill="#63b8ff" stroke="#63b8ff" points="352.44,-51.82 361.92,-47.08 351.56,-44.88 352.44,-51.82"/>
</a>
</g>
</g>
<!-- Node24 -->
<g id="Node000024" class="node">
<title>Node24</title>
<g id="a_Node000024"><a xlink:href="classWorld.html#a1a4dacc6aea0b846df998be0afc239f7" target="_top" xlink:title=" ">
<polygon fill="white" stroke="#666666" points="601,-93 508,-93 508,-74 601,-74 601,-93"/>
<text text-anchor="middle" x="554.5" y="-81" font-family="Helvetica,sans-Serif" font-size="10.00">World::GetTrack</text>
</a>
</g>
</g>
<!-- Node23&#45;&gt;Node24 -->
<g id="edge24_Node000023_Node000024" class="edge">
<title>Node23&#45;&gt;Node24</title>
<g id="a_edge24_Node000023_Node000024"><a xlink:title=" ">
<path fill="none" stroke="#63b8ff" d="M415.88,-113.28C439.68,-108.13 472.2,-101.09 499.66,-95.15"/>
<polygon fill="#63b8ff" stroke="#63b8ff" points="500.48,-98.55 509.52,-93.02 499,-91.71 500.48,-98.55"/>
</a>
</g>
</g>
<!-- Node25 -->
<g id="Node000025" class="node">
<title>Node25</title>
<g id="a_Node000025"><a xlink:href="Game_8cpp.html#ae2fa844b3cb1021ecbc357f8ed2ad8cc" target="_top" xlink:title=" ">
<polygon fill="white" stroke="#666666" points="585.5,-130 523.5,-130 523.5,-111 585.5,-111 585.5,-130"/>
<text text-anchor="middle" x="554.5" y="-118" font-family="Helvetica,sans-Serif" font-size="10.00">GetWorld</text>
</a>
</g>
</g>
<!-- Node23&#45;&gt;Node25 -->
<g id="edge25_Node000023_Node000025" class="edge">
<title>Node23&#45;&gt;Node25</title>
<g id="a_edge25_Node000023_Node000025"><a xlink:title=" ">
<path fill="none" stroke="#63b8ff" d="M415.88,-120.5C443.79,-120.5 483.68,-120.5 513.33,-120.5"/>
<polygon fill="#63b8ff" stroke="#63b8ff" points="513.36,-124 523.36,-120.5 513.36,-117 513.36,-124"/>
</a>
</g>
</g>
<!-- Node26&#45;&gt;Node24 -->
<g id="edge27_Node000026_Node000024" class="edge">
<title>Node26&#45;&gt;Node24</title>
<g id="a_edge27_Node000026_Node000024"><a xlink:title=" ">
<path fill="none" stroke="#63b8ff" d="M430.59,-83.5C451.48,-83.5 476.09,-83.5 497.77,-83.5"/>
<polygon fill="#63b8ff" stroke="#63b8ff" points="497.83,-87 507.83,-83.5 497.83,-80 497.83,-87"/>
</a>
</g>
</g>
<!-- Node26&#45;&gt;Node25 -->
<g id="edge28_Node000026_Node000025" class="edge">
<title>Node26&#45;&gt;Node25</title>
<g id="a_edge28_Node000026_Node000025"><a xlink:title=" ">
<path fill="none" stroke="#63b8ff" d="M426.54,-93.03C453.36,-98.83 487.36,-106.19 513.42,-111.83"/>
<polygon fill="#63b8ff" stroke="#63b8ff" points="512.83,-115.28 523.35,-113.98 514.31,-108.44 512.83,-115.28"/>
</a>
</g>
</g>
</g>
</svg>
