<?xml version="1.0" encoding="UTF-8" standalone="no"?>
<!DOCTYPE svg PUBLIC "-//W3C//DTD SVG 1.1//EN"
 "http://www.w3.org/Graphics/SVG/1.1/DTD/svg11.dtd">
<!-- Generated by graphviz version 2.43.0 (0)
 -->
<!-- Title: pfd::settings::available Pages: 1 -->
<svg width="926pt" height="131pt"
 viewBox="0.00 0.00 926.00 131.00" xmlns="http://www.w3.org/2000/svg" xmlns:xlink="http://www.w3.org/1999/xlink">
<g id="graph0" class="graph" transform="scale(1 1) rotate(0) translate(4 127)">
<title>pfd::settings::available</title>
<!-- Node1 -->
<g id="Node000001" class="node">
<title>Node1</title>
<g id="a_Node000001"><a xlink:title=" ">
<polygon fill="#999999" stroke="#666666" points="128,-83 0,-83 0,-64 128,-64 128,-83"/>
<text text-anchor="middle" x="64" y="-71" font-family="Helvetica,sans-Serif" font-size="10.00">pfd::settings::available</text>
</a>
</g>
</g>
<!-- Node2 -->
<g id="Node000002" class="node">
<title>Node2</title>
<g id="a_Node000002"><a xlink:href="classpfd_1_1settings.html#a1445f3cf0311b15182d401f244b012d8" target="_top" xlink:title=" ">
<polygon fill="white" stroke="#666666" points="433.5,-105 326.5,-105 326.5,-86 433.5,-86 433.5,-105"/>
<text text-anchor="middle" x="380" y="-93" font-family="Helvetica,sans-Serif" font-size="10.00">pfd::settings::flags</text>
</a>
</g>
</g>
<!-- Node1&#45;&gt;Node2 -->
<g id="edge1_Node000001_Node000002" class="edge">
<title>Node1&#45;&gt;Node2</title>
<g id="a_edge1_Node000001_Node000002"><a xlink:title=" ">
<path fill="none" stroke="#63b8ff" d="M128.16,-77.93C182.84,-81.76 261.51,-87.27 316.11,-91.09"/>
<polygon fill="#63b8ff" stroke="#63b8ff" points="316.13,-94.6 326.35,-91.81 316.62,-87.62 316.13,-94.6"/>
</a>
</g>
</g>
<!-- Node3 -->
<g id="Node000003" class="node">
<title>Node3</title>
<g id="a_Node000003"><a xlink:href="classpfd_1_1settings.html#a7190e52d512b1321acb78731a8cddf42" target="_top" xlink:title=" ">
<polygon fill="white" stroke="#666666" points="286,-64 164,-64 164,-45 286,-45 286,-64"/>
<text text-anchor="middle" x="225" y="-52" font-family="Helvetica,sans-Serif" font-size="10.00">pfd::settings::settings</text>
</a>
</g>
</g>
<!-- Node1&#45;&gt;Node3 -->
<g id="edge3_Node000001_Node000003" class="edge">
<title>Node1&#45;&gt;Node3</title>
<g id="a_edge3_Node000001_Node000003"><a xlink:title=" ">
<path fill="none" stroke="#63b8ff" d="M128.3,-65.94C136.61,-64.94 145.17,-63.92 153.59,-62.91"/>
<polygon fill="#63b8ff" stroke="#63b8ff" points="154.25,-66.36 163.77,-61.7 153.42,-59.41 154.25,-66.36"/>
</a>
</g>
</g>
<!-- Node2&#45;&gt;Node2 -->
<g id="edge2_Node000002_Node000002" class="edge">
<title>Node2&#45;&gt;Node2</title>
<g id="a_edge2_Node000002_Node000002"><a xlink:title=" ">
<path fill="none" stroke="#63b8ff" d="M356.26,-105.08C344.72,-113.73 352.63,-123 380,-123 397.96,-123 407.54,-119.01 408.75,-113.82"/>
<polygon fill="#63b8ff" stroke="#63b8ff" points="411.75,-112.02 403.74,-105.08 405.67,-115.5 411.75,-112.02"/>
</a>
</g>
</g>
<!-- Node3&#45;&gt;Node2 -->
<g id="edge10_Node000003_Node000002" class="edge">
<title>Node3&#45;&gt;Node2</title>
<g id="a_edge10_Node000003_Node000002"><a xlink:title=" ">
<path fill="none" stroke="#63b8ff" d="M261.49,-64.01C282.94,-69.76 310.5,-77.15 333.55,-83.32"/>
<polygon fill="#63b8ff" stroke="#63b8ff" points="332.88,-86.76 343.44,-85.97 334.69,-80 332.88,-86.76"/>
</a>
</g>
</g>
<!-- Node4 -->
<g id="Node000004" class="node">
<title>Node4</title>
<g id="a_Node000004"><a xlink:href="classpfd_1_1settings.html#af1c2f6e88ffafd59a2f7609631a9eade" target="_top" xlink:title=" ">
<polygon fill="white" stroke="#666666" points="436,-67.5 324,-67.5 324,-37.5 436,-37.5 436,-67.5"/>
<text text-anchor="start" x="332" y="-55.5" font-family="Helvetica,sans-Serif" font-size="10.00">pfd::settings::check</text>
<text text-anchor="middle" x="380" y="-44.5" font-family="Helvetica,sans-Serif" font-size="10.00">_program</text>
</a>
</g>
</g>
<!-- Node3&#45;&gt;Node4 -->
<g id="edge4_Node000003_Node000004" class="edge">
<title>Node3&#45;&gt;Node4</title>
<g id="a_edge4_Node000003_Node000004"><a xlink:title=" ">
<path fill="none" stroke="#63b8ff" d="M286.03,-53.72C295.03,-53.6 304.35,-53.48 313.46,-53.36"/>
<polygon fill="#63b8ff" stroke="#63b8ff" points="313.68,-56.85 323.63,-53.22 313.59,-49.85 313.68,-56.85"/>
</a>
</g>
</g>
<!-- Node9 -->
<g id="Node000009" class="node">
<title>Node9</title>
<g id="a_Node000009"><a xlink:href="namespacepfd_1_1internal.html#a491d4afd9c76bafd6011502082444461" target="_top" xlink:title=" ">
<polygon fill="white" stroke="#666666" points="438,-19 322,-19 322,0 438,0 438,-19"/>
<text text-anchor="middle" x="380" y="-7" font-family="Helvetica,sans-Serif" font-size="10.00">pfd::internal::getenv</text>
</a>
</g>
</g>
<!-- Node3&#45;&gt;Node9 -->
<g id="edge11_Node000003_Node000009" class="edge">
<title>Node3&#45;&gt;Node9</title>
<g id="a_edge11_Node000003_Node000009"><a xlink:title=" ">
<path fill="none" stroke="#63b8ff" d="M258.45,-44.96C281.27,-38.24 312.02,-29.2 336.76,-21.92"/>
<polygon fill="#63b8ff" stroke="#63b8ff" points="337.99,-25.21 346.6,-19.03 336.02,-18.49 337.99,-25.21"/>
</a>
</g>
</g>
<!-- Node5 -->
<g id="Node000005" class="node">
<title>Node5</title>
<g id="a_Node000005"><a xlink:href="classpfd_1_1internal_1_1executor.html#a07116b98b28332c42946e956f7edd2ae" target="_top" xlink:title=" ">
<polygon fill="white" stroke="#666666" points="598,-91.5 474,-91.5 474,-61.5 598,-61.5 598,-91.5"/>
<text text-anchor="start" x="482" y="-79.5" font-family="Helvetica,sans-Serif" font-size="10.00">pfd::internal::executor</text>
<text text-anchor="middle" x="536" y="-68.5" font-family="Helvetica,sans-Serif" font-size="10.00">::result</text>
</a>
</g>
</g>
<!-- Node4&#45;&gt;Node5 -->
<g id="edge5_Node000004_Node000005" class="edge">
<title>Node4&#45;&gt;Node5</title>
<g id="a_edge5_Node000004_Node000005"><a xlink:title=" ">
<path fill="none" stroke="#63b8ff" d="M436.16,-61.1C445.16,-62.5 454.6,-63.97 463.91,-65.42"/>
<polygon fill="#63b8ff" stroke="#63b8ff" points="463.53,-68.9 473.95,-66.99 464.61,-61.99 463.53,-68.9"/>
</a>
</g>
</g>
<!-- Node8 -->
<g id="Node000008" class="node">
<title>Node8</title>
<g id="a_Node000008"><a xlink:href="classpfd_1_1internal_1_1executor.html#adcb1fcd88381030ada3d8f6d07dd8d6e" target="_top" xlink:title=" ">
<polygon fill="white" stroke="#666666" points="598,-43.5 474,-43.5 474,-13.5 598,-13.5 598,-43.5"/>
<text text-anchor="start" x="482" y="-31.5" font-family="Helvetica,sans-Serif" font-size="10.00">pfd::internal::executor</text>
<text text-anchor="middle" x="536" y="-20.5" font-family="Helvetica,sans-Serif" font-size="10.00">::start_process</text>
</a>
</g>
</g>
<!-- Node4&#45;&gt;Node8 -->
<g id="edge8_Node000004_Node000008" class="edge">
<title>Node4&#45;&gt;Node8</title>
<g id="a_edge8_Node000004_Node000008"><a xlink:title=" ">
<path fill="none" stroke="#63b8ff" d="M436.16,-43.9C445.16,-42.5 454.6,-41.03 463.91,-39.58"/>
<polygon fill="#63b8ff" stroke="#63b8ff" points="464.61,-43.01 473.95,-38.01 463.53,-36.1 464.61,-43.01"/>
</a>
</g>
</g>
<!-- Node6 -->
<g id="Node000006" class="node">
<title>Node6</title>
<g id="a_Node000006"><a xlink:href="classpfd_1_1internal_1_1executor.html#a2e65a18556b3de93dafd6fabe3786277" target="_top" xlink:title=" ">
<polygon fill="white" stroke="#666666" points="758,-67.5 634,-67.5 634,-37.5 758,-37.5 758,-67.5"/>
<text text-anchor="start" x="642" y="-55.5" font-family="Helvetica,sans-Serif" font-size="10.00">pfd::internal::executor</text>
<text text-anchor="middle" x="696" y="-44.5" font-family="Helvetica,sans-Serif" font-size="10.00">::stop</text>
</a>
</g>
</g>
<!-- Node5&#45;&gt;Node6 -->
<g id="edge6_Node000005_Node000006" class="edge">
<title>Node5&#45;&gt;Node6</title>
<g id="a_edge6_Node000005_Node000006"><a xlink:title=" ">
<path fill="none" stroke="#63b8ff" d="M598.09,-67.22C606.51,-65.94 615.23,-64.62 623.81,-63.31"/>
<polygon fill="#63b8ff" stroke="#63b8ff" points="624.45,-66.76 633.82,-61.79 623.4,-59.84 624.45,-66.76"/>
</a>
</g>
</g>
<!-- Node7 -->
<g id="Node000007" class="node">
<title>Node7</title>
<g id="a_Node000007"><a xlink:href="classpfd_1_1internal_1_1executor.html#a7eb363f3dc9d6dc21f1a8b6ce6a33679" target="_top" xlink:title=" ">
<polygon fill="white" stroke="#666666" points="918,-67.5 794,-67.5 794,-37.5 918,-37.5 918,-67.5"/>
<text text-anchor="start" x="802" y="-55.5" font-family="Helvetica,sans-Serif" font-size="10.00">pfd::internal::executor</text>
<text text-anchor="middle" x="856" y="-44.5" font-family="Helvetica,sans-Serif" font-size="10.00">::ready</text>
</a>
</g>
</g>
<!-- Node6&#45;&gt;Node7 -->
<g id="edge7_Node000006_Node000007" class="edge">
<title>Node6&#45;&gt;Node7</title>
<g id="a_edge7_Node000006_Node000007"><a xlink:title=" ">
<path fill="none" stroke="#63b8ff" d="M758.09,-52.5C766.51,-52.5 775.23,-52.5 783.81,-52.5"/>
<polygon fill="#63b8ff" stroke="#63b8ff" points="783.82,-56 793.82,-52.5 783.82,-49 783.82,-56"/>
</a>
</g>
</g>
<!-- Node8&#45;&gt;Node6 -->
<g id="edge9_Node000008_Node000006" class="edge">
<title>Node8&#45;&gt;Node6</title>
<g id="a_edge9_Node000008_Node000006"><a xlink:title=" ">
<path fill="none" stroke="#63b8ff" d="M598.09,-37.78C606.51,-39.06 615.23,-40.38 623.81,-41.69"/>
<polygon fill="#63b8ff" stroke="#63b8ff" points="623.4,-45.16 633.82,-43.21 624.45,-38.24 623.4,-45.16"/>
</a>
</g>
</g>
</g>
</svg>
