<?xml version="1.0" encoding="UTF-8" standalone="no"?>
<!DOCTYPE svg PUBLIC "-//W3C//DTD SVG 1.1//EN"
 "http://www.w3.org/Graphics/SVG/1.1/DTD/svg11.dtd">
<!-- Generated by graphviz version 2.43.0 (0)
 -->
<!-- Title: OMole::func_80081924 Pages: 1 -->
<svg width="613pt" height="382pt"
 viewBox="0.00 0.00 613.00 382.00" xmlns="http://www.w3.org/2000/svg" xmlns:xlink="http://www.w3.org/1999/xlink">
<g id="graph0" class="graph" transform="scale(1 1) rotate(0) translate(4 378)">
<title>OMole::func_80081924</title>
<!-- Node1 -->
<g id="Node000001" class="node">
<title>Node1</title>
<g id="a_Node000001"><a xlink:title=" ">
<polygon fill="#999999" stroke="#666666" points="128,-242 0,-242 0,-223 128,-223 128,-242"/>
<text text-anchor="middle" x="64" y="-230" font-family="Helvetica,sans-Serif" font-size="10.00">OMole::func_80081924</text>
</a>
</g>
</g>
<!-- Node2 -->
<g id="Node000002" class="node">
<title>Node2</title>
<g id="a_Node000002"><a xlink:href="math__util__2_8c.html#a99e6304891f46564f00965ce860d1c29" target="_top" xlink:title=" ">
<polygon fill="white" stroke="#666666" points="298,-374 164,-374 164,-355 298,-355 298,-374"/>
<text text-anchor="middle" x="231" y="-362" font-family="Helvetica,sans-Serif" font-size="10.00">f32_step_down_towards</text>
</a>
</g>
</g>
<!-- Node1&#45;&gt;Node2 -->
<g id="edge1_Node000001_Node000002" class="edge">
<title>Node1&#45;&gt;Node2</title>
<g id="a_edge1_Node000001_Node000002"><a xlink:title=" ">
<path fill="none" stroke="#63b8ff" d="M70.57,-242.14C83.8,-264.18 119.39,-318.47 164,-346.5 166.63,-348.15 169.41,-349.66 172.29,-351.02"/>
<polygon fill="#63b8ff" stroke="#63b8ff" points="171.14,-354.33 181.71,-354.94 173.82,-347.87 171.14,-354.33"/>
</a>
</g>
</g>
<!-- Node3 -->
<g id="Node000003" class="node">
<title>Node3</title>
<g id="a_Node000003"><a xlink:href="math__util__2_8c.html#a561fab07d3a0b3c0be1ea5643179abb5" target="_top" xlink:title=" ">
<polygon fill="white" stroke="#666666" points="291,-337 171,-337 171,-318 291,-318 291,-337"/>
<text text-anchor="middle" x="231" y="-325" font-family="Helvetica,sans-Serif" font-size="10.00">f32_step_up_towards</text>
</a>
</g>
</g>
<!-- Node1&#45;&gt;Node3 -->
<g id="edge2_Node000001_Node000003" class="edge">
<title>Node1&#45;&gt;Node3</title>
<g id="a_edge2_Node000001_Node000003"><a xlink:title=" ">
<path fill="none" stroke="#63b8ff" d="M76.21,-242.12C93.89,-256.92 129.77,-285.44 164,-303.5 171.75,-307.59 180.35,-311.27 188.71,-314.46"/>
<polygon fill="#63b8ff" stroke="#63b8ff" points="187.76,-317.84 198.36,-317.96 190.15,-311.26 187.76,-317.84"/>
</a>
</g>
</g>
<!-- Node4 -->
<g id="Node000004" class="node">
<title>Node4</title>
<g id="a_Node000004"><a xlink:href="code__80086E70_8c.html#acd186a6f592769b3e3db3da72fcf765f" target="_top" xlink:title=" ">
<polygon fill="white" stroke="#666666" points="447.5,-341 356.5,-341 356.5,-322 447.5,-322 447.5,-341"/>
<text text-anchor="middle" x="402" y="-329" font-family="Helvetica,sans-Serif" font-size="10.00">func_80086F60</text>
</a>
</g>
</g>
<!-- Node1&#45;&gt;Node4 -->
<g id="edge3_Node000001_Node000004" class="edge">
<title>Node1&#45;&gt;Node4</title>
<g id="a_edge3_Node000001_Node000004"><a xlink:title=" ">
<path fill="none" stroke="#63b8ff" d="M84.32,-242.12C103.99,-251.61 135.55,-266.04 164,-275.5 197.38,-286.59 287.47,-306.92 346.47,-319.79"/>
<polygon fill="#63b8ff" stroke="#63b8ff" points="345.86,-323.24 356.38,-321.95 347.35,-316.4 345.86,-323.24"/>
</a>
</g>
</g>
<!-- Node6 -->
<g id="Node000006" class="node">
<title>Node6</title>
<g id="a_Node000006"><a xlink:href="code__80086E70_8c.html#a6eea48094f49bb346ce1170842d955b2" target="_top" xlink:title=" ">
<polygon fill="white" stroke="#666666" points="448,-304 356,-304 356,-285 448,-285 448,-304"/>
<text text-anchor="middle" x="402" y="-292" font-family="Helvetica,sans-Serif" font-size="10.00">func_80086FD4</text>
</a>
</g>
</g>
<!-- Node1&#45;&gt;Node6 -->
<g id="edge5_Node000001_Node000006" class="edge">
<title>Node1&#45;&gt;Node6</title>
<g id="a_edge5_Node000001_Node000006"><a xlink:title=" ">
<path fill="none" stroke="#63b8ff" d="M116.76,-242.05C178.75,-253.49 282.16,-272.57 345.68,-284.29"/>
<polygon fill="#63b8ff" stroke="#63b8ff" points="345.44,-287.81 355.91,-286.18 346.71,-280.92 345.44,-287.81"/>
</a>
</g>
</g>
<!-- Node7 -->
<g id="Node000007" class="node">
<title>Node7</title>
<g id="a_Node000007"><a xlink:href="code__80086E70_8c.html#a56f0505e98e37eda7af759554a41feee" target="_top" xlink:title=" ">
<polygon fill="white" stroke="#666666" points="277,-223 185,-223 185,-204 277,-204 277,-223"/>
<text text-anchor="middle" x="231" y="-211" font-family="Helvetica,sans-Serif" font-size="10.00">func_800871AC</text>
</a>
</g>
</g>
<!-- Node1&#45;&gt;Node7 -->
<g id="edge7_Node000001_Node000007" class="edge">
<title>Node1&#45;&gt;Node7</title>
<g id="a_edge7_Node000001_Node000007"><a xlink:title=" ">
<path fill="none" stroke="#63b8ff" d="M128.32,-225.21C143.61,-223.45 159.82,-221.58 174.71,-219.87"/>
<polygon fill="#63b8ff" stroke="#63b8ff" points="175.24,-223.33 184.77,-218.71 174.44,-216.38 175.24,-223.33"/>
</a>
</g>
</g>
<!-- Node10 -->
<g id="Node000010" class="node">
<title>Node10</title>
<g id="a_Node000010"><a xlink:href="code__80086E70_8c.html#a1cd6a78cf091bd496e83739902c652a7" target="_top" xlink:title=" ">
<polygon fill="white" stroke="#666666" points="277,-103 185,-103 185,-84 277,-84 277,-103"/>
<text text-anchor="middle" x="231" y="-91" font-family="Helvetica,sans-Serif" font-size="10.00">func_8008751C</text>
</a>
</g>
</g>
<!-- Node1&#45;&gt;Node10 -->
<g id="edge12_Node000001_Node000010" class="edge">
<title>Node1&#45;&gt;Node10</title>
<g id="a_edge12_Node000001_Node000010"><a xlink:title=" ">
<path fill="none" stroke="#63b8ff" d="M76.34,-222.95C104.13,-199.54 175.87,-139.1 210.6,-109.85"/>
<polygon fill="#63b8ff" stroke="#63b8ff" points="213.19,-112.24 218.58,-103.12 208.68,-106.89 213.19,-112.24"/>
</a>
</g>
</g>
<!-- Node13 -->
<g id="Node000013" class="node">
<title>Node13</title>
<g id="a_Node000013"><a xlink:href="code__80086E70_8c.html#ac4c0808f380085196c14ce1a71abb447" target="_top" xlink:title=" ">
<polygon fill="white" stroke="#666666" points="277,-183 185,-183 185,-164 277,-164 277,-183"/>
<text text-anchor="middle" x="231" y="-171" font-family="Helvetica,sans-Serif" font-size="10.00">func_80087D24</text>
</a>
</g>
</g>
<!-- Node1&#45;&gt;Node13 -->
<g id="edge15_Node000001_Node000013" class="edge">
<title>Node1&#45;&gt;Node13</title>
<g id="a_edge15_Node000001_Node000013"><a xlink:title=" ">
<path fill="none" stroke="#63b8ff" d="M89.73,-222.98C109.7,-215.35 138.57,-204.49 164,-195.5 172.69,-192.43 182.06,-189.24 190.93,-186.26"/>
<polygon fill="#63b8ff" stroke="#63b8ff" points="192.3,-189.5 200.68,-183.02 190.09,-182.86 192.3,-189.5"/>
</a>
</g>
</g>
<!-- Node15 -->
<g id="Node000015" class="node">
<title>Node15</title>
<g id="a_Node000015"><a xlink:href="code__80086E70_8c.html#a1d4593518e5153328388afb23bbc6902" target="_top" xlink:title=" ">
<polygon fill="white" stroke="#666666" points="288,-65.5 174,-65.5 174,-35.5 288,-35.5 288,-65.5"/>
<text text-anchor="start" x="182" y="-53.5" font-family="Helvetica,sans-Serif" font-size="10.00">object_add_velocity</text>
<text text-anchor="middle" x="231" y="-42.5" font-family="Helvetica,sans-Serif" font-size="10.00">_offset_xyz</text>
</a>
</g>
</g>
<!-- Node1&#45;&gt;Node15 -->
<g id="edge21_Node000001_Node000015" class="edge">
<title>Node1&#45;&gt;Node15</title>
<g id="a_edge21_Node000001_Node000015"><a xlink:title=" ">
<path fill="none" stroke="#63b8ff" d="M68.51,-222.88C78.87,-195.79 111.85,-118.12 164,-75.5 166.03,-73.84 168.19,-72.28 170.43,-70.82"/>
<polygon fill="#63b8ff" stroke="#63b8ff" points="172.51,-73.66 179.45,-65.65 169.03,-67.59 172.51,-73.66"/>
</a>
</g>
</g>
<!-- Node5 -->
<g id="Node000005" class="node">
<title>Node5</title>
<g id="a_Node000005"><a xlink:href="update__objects_8c.html#a3953241e15c6372ac8944ba842148a9a" target="_top" xlink:title=" ">
<polygon fill="white" stroke="#666666" points="605,-285 506,-285 506,-266 605,-266 605,-285"/>
<text text-anchor="middle" x="555.5" y="-273" font-family="Helvetica,sans-Serif" font-size="10.00">clear_object_flag</text>
</a>
</g>
</g>
<!-- Node4&#45;&gt;Node5 -->
<g id="edge4_Node000004_Node000005" class="edge">
<title>Node4&#45;&gt;Node5</title>
<g id="a_edge4_Node000004_Node000005"><a xlink:title=" ">
<path fill="none" stroke="#63b8ff" d="M442.65,-321.97C451.72,-319.48 461.26,-316.61 470,-313.5 489.07,-306.7 509.82,-297.4 525.98,-289.7"/>
<polygon fill="#63b8ff" stroke="#63b8ff" points="527.91,-292.65 535.4,-285.15 524.87,-286.35 527.91,-292.65"/>
</a>
</g>
</g>
<!-- Node6&#45;&gt;Node5 -->
<g id="edge6_Node000006_Node000005" class="edge">
<title>Node6&#45;&gt;Node5</title>
<g id="a_edge6_Node000006_Node000005"><a xlink:title=" ">
<path fill="none" stroke="#63b8ff" d="M448.04,-288.85C463,-286.98 479.87,-284.86 495.71,-282.87"/>
<polygon fill="#63b8ff" stroke="#63b8ff" points="496.45,-286.31 505.93,-281.59 495.57,-279.36 496.45,-286.31"/>
</a>
</g>
</g>
<!-- Node7&#45;&gt;Node5 -->
<g id="edge8_Node000007_Node000005" class="edge">
<title>Node7&#45;&gt;Node5</title>
<g id="a_edge8_Node000007_Node000005"><a xlink:title=" ">
<path fill="none" stroke="#63b8ff" d="M270.14,-223.05C289.26,-227.69 312.79,-233.18 334,-237.5 388.56,-248.61 451.15,-259.19 495.67,-266.35"/>
<polygon fill="#63b8ff" stroke="#63b8ff" points="495.31,-269.84 505.73,-267.96 496.41,-262.93 495.31,-269.84"/>
</a>
</g>
</g>
<!-- Node7&#45;&gt;Node6 -->
<g id="edge9_Node000007_Node000006" class="edge">
<title>Node7&#45;&gt;Node6</title>
<g id="a_edge9_Node000007_Node000006"><a xlink:title=" ">
<path fill="none" stroke="#63b8ff" d="M266.07,-223.03C276.7,-226.74 288.2,-231.55 298,-237.5 316.56,-248.76 315.42,-259.29 334,-270.5 340.99,-274.72 348.85,-278.36 356.64,-281.44"/>
<polygon fill="#63b8ff" stroke="#63b8ff" points="355.47,-284.74 366.07,-284.92 357.9,-278.17 355.47,-284.74"/>
</a>
</g>
</g>
<!-- Node8 -->
<g id="Node000008" class="node">
<title>Node8</title>
<g id="a_Node000008"><a xlink:href="update__objects_8c.html#a2301a51a93a60f0382cdc7002e14f95a" target="_top" xlink:title=" ">
<polygon fill="white" stroke="#666666" points="470,-228.5 334,-228.5 334,-198.5 470,-198.5 470,-228.5"/>
<text text-anchor="start" x="342" y="-216.5" font-family="Helvetica,sans-Serif" font-size="10.00">is_obj_index_flag_status</text>
<text text-anchor="middle" x="402" y="-205.5" font-family="Helvetica,sans-Serif" font-size="10.00">_inactive</text>
</a>
</g>
</g>
<!-- Node7&#45;&gt;Node8 -->
<g id="edge10_Node000007_Node000008" class="edge">
<title>Node7&#45;&gt;Node8</title>
<g id="a_edge10_Node000007_Node000008"><a xlink:title=" ">
<path fill="none" stroke="#63b8ff" d="M277.29,-213.5C291.57,-213.5 307.76,-213.5 323.62,-213.5"/>
<polygon fill="#63b8ff" stroke="#63b8ff" points="323.97,-217 333.97,-213.5 323.97,-210 323.97,-217"/>
</a>
</g>
</g>
<!-- Node9 -->
<g id="Node000009" class="node">
<title>Node9</title>
<g id="a_Node000009"><a xlink:href="update__objects_8c.html#afe64f2394ee0deab6370b77609500bda" target="_top" xlink:title=" ">
<polygon fill="white" stroke="#666666" points="447,-180 357,-180 357,-161 447,-161 447,-180"/>
<text text-anchor="middle" x="402" y="-168" font-family="Helvetica,sans-Serif" font-size="10.00">set_object_flag</text>
</a>
</g>
</g>
<!-- Node7&#45;&gt;Node9 -->
<g id="edge11_Node000007_Node000009" class="edge">
<title>Node7&#45;&gt;Node9</title>
<g id="a_edge11_Node000007_Node000009"><a xlink:title=" ">
<path fill="none" stroke="#63b8ff" d="M269.51,-203.96C294.34,-197.64 327.11,-189.3 353.73,-182.53"/>
<polygon fill="#63b8ff" stroke="#63b8ff" points="354.77,-185.87 363.6,-180.02 353.04,-179.09 354.77,-185.87"/>
</a>
</g>
</g>
<!-- Node11 -->
<g id="Node000011" class="node">
<title>Node11</title>
<g id="a_Node000011"><a xlink:href="math__util_8c.html#ae69cbf5c8d4b3b0dba2d7b4d4673689f" target="_top" xlink:title=" ">
<polygon fill="white" stroke="#666666" points="421,-56 383,-56 383,-37 421,-37 421,-56"/>
<text text-anchor="middle" x="402" y="-44" font-family="Helvetica,sans-Serif" font-size="10.00">coss</text>
</a>
</g>
</g>
<!-- Node10&#45;&gt;Node11 -->
<g id="edge13_Node000010_Node000011" class="edge">
<title>Node10&#45;&gt;Node11</title>
<g id="a_edge13_Node000010_Node000011"><a xlink:title=" ">
<path fill="none" stroke="#63b8ff" d="M266.2,-83.99C297.64,-75.25 343.69,-62.44 373,-54.29"/>
<polygon fill="#63b8ff" stroke="#63b8ff" points="374.28,-57.56 382.98,-51.51 372.41,-50.82 374.28,-57.56"/>
</a>
</g>
</g>
<!-- Node12 -->
<g id="Node000012" class="node">
<title>Node12</title>
<g id="a_Node000012"><a xlink:href="math__util_8c.html#a19ed3bd78fd2d3e2bd0a29f6caf48545" target="_top" xlink:title=" ">
<polygon fill="white" stroke="#666666" points="420,-19 384,-19 384,0 420,0 420,-19"/>
<text text-anchor="middle" x="402" y="-7" font-family="Helvetica,sans-Serif" font-size="10.00">sins</text>
</a>
</g>
</g>
<!-- Node10&#45;&gt;Node12 -->
<g id="edge14_Node000010_Node000012" class="edge">
<title>Node10&#45;&gt;Node12</title>
<g id="a_edge14_Node000010_Node000012"><a xlink:title=" ">
<path fill="none" stroke="#63b8ff" d="M277.05,-84.73C284.42,-82.14 291.7,-78.8 298,-74.5 319.74,-59.67 312.13,-42.14 334,-27.5 345.73,-19.65 360.76,-15.21 373.61,-12.71"/>
<polygon fill="#63b8ff" stroke="#63b8ff" points="374.48,-16.12 383.77,-11.03 373.34,-9.21 374.48,-16.12"/>
</a>
</g>
</g>
<!-- Node13&#45;&gt;Node5 -->
<g id="edge16_Node000013_Node000005" class="edge">
<title>Node13&#45;&gt;Node5</title>
<g id="a_edge16_Node000013_Node000005"><a xlink:title=" ">
<path fill="none" stroke="#63b8ff" d="M254.25,-163.94C298.31,-146.57 398.6,-114.93 470,-152.5 511.68,-174.43 536.77,-227.23 547.82,-256.01"/>
<polygon fill="#63b8ff" stroke="#63b8ff" points="544.66,-257.55 551.37,-265.75 551.23,-255.15 544.66,-257.55"/>
</a>
</g>
</g>
<!-- Node13&#45;&gt;Node6 -->
<g id="edge17_Node000013_Node000006" class="edge">
<title>Node13&#45;&gt;Node6</title>
<g id="a_edge17_Node000013_Node000006"><a xlink:title=" ">
<path fill="none" stroke="#63b8ff" d="M272.36,-183.11C281.24,-186.25 290.28,-190.31 298,-195.5 318.4,-209.22 316.58,-220.15 334,-237.5 348.87,-252.32 367.09,-267.66 380.78,-278.69"/>
<polygon fill="#63b8ff" stroke="#63b8ff" points="378.64,-281.46 388.64,-284.95 383,-275.98 378.64,-281.46"/>
</a>
</g>
</g>
<!-- Node13&#45;&gt;Node8 -->
<g id="edge18_Node000013_Node000008" class="edge">
<title>Node13&#45;&gt;Node8</title>
<g id="a_edge18_Node000013_Node000008"><a xlink:title=" ">
<path fill="none" stroke="#63b8ff" d="M272.48,-183.08C289.03,-187 308.7,-191.65 327.62,-196.13"/>
<polygon fill="#63b8ff" stroke="#63b8ff" points="326.88,-199.55 337.42,-198.45 328.49,-192.74 326.88,-199.55"/>
</a>
</g>
</g>
<!-- Node13&#45;&gt;Node9 -->
<g id="edge20_Node000013_Node000009" class="edge">
<title>Node13&#45;&gt;Node9</title>
<g id="a_edge20_Node000013_Node000009"><a xlink:title=" ">
<path fill="none" stroke="#63b8ff" d="M277.29,-172.7C298.66,-172.32 324.32,-171.86 346.72,-171.46"/>
<polygon fill="#63b8ff" stroke="#63b8ff" points="346.82,-174.96 356.76,-171.29 346.7,-167.96 346.82,-174.96"/>
</a>
</g>
</g>
<!-- Node14 -->
<g id="Node000014" class="node">
<title>Node14</title>
<g id="a_Node000014"><a xlink:href="code__80086E70_8c.html#a04f1b5e2f622dbb93568f5cff8aaf3d5" target="_top" xlink:title=" ">
<polygon fill="white" stroke="#666666" points="459,-104.5 345,-104.5 345,-74.5 459,-74.5 459,-104.5"/>
<text text-anchor="start" x="353" y="-92.5" font-family="Helvetica,sans-Serif" font-size="10.00">object_add_velocity</text>
<text text-anchor="middle" x="402" y="-81.5" font-family="Helvetica,sans-Serif" font-size="10.00">_offset_y</text>
</a>
</g>
</g>
<!-- Node13&#45;&gt;Node14 -->
<g id="edge19_Node000013_Node000014" class="edge">
<title>Node13&#45;&gt;Node14</title>
<g id="a_edge19_Node000013_Node000014"><a xlink:title=" ">
<path fill="none" stroke="#63b8ff" d="M248.73,-163.9C268.75,-152.55 303.41,-133.34 334,-118.5 340.74,-115.23 347.95,-111.92 355.03,-108.77"/>
<polygon fill="#63b8ff" stroke="#63b8ff" points="356.83,-111.81 364.58,-104.59 354.01,-105.4 356.83,-111.81"/>
</a>
</g>
</g>
</g>
</svg>
