<?xml version="1.0" encoding="UTF-8" standalone="no"?>
<!DOCTYPE svg PUBLIC "-//W3C//DTD SVG 1.1//EN"
 "http://www.w3.org/Graphics/SVG/1.1/DTD/svg11.dtd">
<!-- Generated by graphviz version 2.43.0 (0)
 -->
<!-- Title: TrackEditor::ContentBrowserWindow::AddCustomContent Pages: 1 -->
<svg width="427pt" height="150pt"
 viewBox="0.00 0.00 427.00 149.50" xmlns="http://www.w3.org/2000/svg" xmlns:xlink="http://www.w3.org/1999/xlink">
<g id="graph0" class="graph" transform="scale(1 1) rotate(0) translate(4 145.5)">
<title>TrackEditor::ContentBrowserWindow::AddCustomContent</title>
<!-- Node1 -->
<g id="Node000001" class="node">
<title>Node1</title>
<g id="a_Node000001"><a xlink:title=" ">
<polygon fill="#999999" stroke="#666666" points="155,-91 0,-91 0,-61 155,-61 155,-91"/>
<text text-anchor="start" x="8" y="-79" font-family="Helvetica,sans-Serif" font-size="10.00">TrackEditor::ContentBrowser</text>
<text text-anchor="middle" x="77.5" y="-68" font-family="Helvetica,sans-Serif" font-size="10.00">Window::AddCustomContent</text>
</a>
</g>
</g>
<!-- Node2 -->
<g id="Node000002" class="node">
<title>Node2</title>
<g id="a_Node000002"><a xlink:href="classWorld.html#a3aae64ec4571ac8870d606dc1b0bd9be" target="_top" xlink:title=" ">
<polygon fill="white" stroke="#666666" points="343,-141.5 194,-141.5 194,-122.5 343,-122.5 343,-141.5"/>
<text text-anchor="middle" x="268.5" y="-129.5" font-family="Helvetica,sans-Serif" font-size="10.00">World::AddStaticMeshActor</text>
</a>
</g>
</g>
<!-- Node1&#45;&gt;Node2 -->
<g id="edge1_Node000001_Node000002" class="edge">
<title>Node1&#45;&gt;Node2</title>
<g id="a_edge1_Node000001_Node000002"><a xlink:title=" ">
<path fill="none" stroke="#63b8ff" d="M119.88,-91.02C141.01,-98.43 167.21,-107.2 191,-114 198.3,-116.09 206.04,-118.12 213.68,-120.01"/>
<polygon fill="#63b8ff" stroke="#63b8ff" points="213.08,-123.47 223.62,-122.43 214.73,-116.67 213.08,-123.47"/>
</a>
</g>
</g>
<!-- Node3 -->
<g id="Node000003" class="node">
<title>Node3</title>
<g id="a_Node000003"><a xlink:href="EditorMath_8cpp.html#a707962eeb418c5eae5161502b49da8e4" target="_top" xlink:title=" ">
<polygon fill="white" stroke="#666666" points="345,-104.5 192,-104.5 192,-85.5 345,-85.5 345,-104.5"/>
<text text-anchor="middle" x="268.5" y="-92.5" font-family="Helvetica,sans-Serif" font-size="10.00">GetPositionAheadOfCamera</text>
</a>
</g>
</g>
<!-- Node1&#45;&gt;Node3 -->
<g id="edge2_Node000001_Node000003" class="edge">
<title>Node1&#45;&gt;Node3</title>
<g id="a_edge2_Node000001_Node000003"><a xlink:title=" ">
<path fill="none" stroke="#63b8ff" d="M155.1,-83.7C163.87,-84.58 172.86,-85.49 181.74,-86.38"/>
<polygon fill="#63b8ff" stroke="#63b8ff" points="181.41,-89.86 191.71,-87.38 182.11,-82.9 181.41,-89.86"/>
</a>
</g>
</g>
<!-- Node6 -->
<g id="Node000006" class="node">
<title>Node6</title>
<g id="a_Node000006"><a xlink:href="Game_8cpp.html#ae2fa844b3cb1021ecbc357f8ed2ad8cc" target="_top" xlink:title=" ">
<polygon fill="white" stroke="#666666" points="299.5,-67.5 237.5,-67.5 237.5,-48.5 299.5,-48.5 299.5,-67.5"/>
<text text-anchor="middle" x="268.5" y="-55.5" font-family="Helvetica,sans-Serif" font-size="10.00">GetWorld</text>
</a>
</g>
</g>
<!-- Node1&#45;&gt;Node6 -->
<g id="edge5_Node000001_Node000006" class="edge">
<title>Node1&#45;&gt;Node6</title>
<g id="a_edge5_Node000001_Node000006"><a xlink:title=" ">
<path fill="none" stroke="#63b8ff" d="M155.1,-68.7C179.79,-66.35 206.16,-63.84 227.16,-61.84"/>
<polygon fill="#63b8ff" stroke="#63b8ff" points="227.68,-65.31 237.3,-60.88 227.01,-58.34 227.68,-65.31"/>
</a>
</g>
</g>
<!-- Node7 -->
<g id="Node000007" class="node">
<title>Node7</title>
<g id="a_Node000007"><a xlink:href="classTrackEditor_1_1ContentBrowserWindow.html#aee0daffd1c8f9d32731c04d95f672053" target="_top" xlink:title=" ">
<polygon fill="white" stroke="#666666" points="346,-30 191,-30 191,0 346,0 346,-30"/>
<text text-anchor="start" x="199" y="-18" font-family="Helvetica,sans-Serif" font-size="10.00">TrackEditor::ContentBrowser</text>
<text text-anchor="middle" x="268.5" y="-7" font-family="Helvetica,sans-Serif" font-size="10.00">Window::ToLower</text>
</a>
</g>
</g>
<!-- Node1&#45;&gt;Node7 -->
<g id="edge6_Node000001_Node000007" class="edge">
<title>Node1&#45;&gt;Node7</title>
<g id="a_edge6_Node000001_Node000007"><a xlink:title=" ">
<path fill="none" stroke="#63b8ff" d="M123.89,-60.92C144.37,-54.15 168.88,-46.11 191,-39 197,-37.07 203.27,-35.08 209.53,-33.09"/>
<polygon fill="#63b8ff" stroke="#63b8ff" points="210.83,-36.35 219.31,-30.01 208.72,-29.68 210.83,-36.35"/>
</a>
</g>
</g>
<!-- Node4 -->
<g id="Node000004" class="node">
<title>Node4</title>
<g id="a_Node000004"><a xlink:href="cosf_8c.html#a7b126b2344591e649c21c9ab0b8adb40" target="_top" xlink:title=" ">
<polygon fill="white" stroke="#666666" points="419,-122.5 382,-122.5 382,-103.5 419,-103.5 419,-122.5"/>
<text text-anchor="middle" x="400.5" y="-110.5" font-family="Helvetica,sans-Serif" font-size="10.00">cosf</text>
</a>
</g>
</g>
<!-- Node3&#45;&gt;Node4 -->
<g id="edge3_Node000003_Node000004" class="edge">
<title>Node3&#45;&gt;Node4</title>
<g id="a_edge3_Node000003_Node000004"><a xlink:title=" ">
<path fill="none" stroke="#63b8ff" d="M338.31,-104.53C350.2,-106.17 361.93,-107.8 371.88,-109.18"/>
<polygon fill="#63b8ff" stroke="#63b8ff" points="371.53,-112.66 381.91,-110.57 372.49,-105.73 371.53,-112.66"/>
</a>
</g>
</g>
<!-- Node5 -->
<g id="Node000005" class="node">
<title>Node5</title>
<g id="a_Node000005"><a xlink:href="sinf_8c.html#a8a7dc2a88e109f4e15b661247665709a" target="_top" xlink:title=" ">
<polygon fill="white" stroke="#666666" points="418,-85.5 383,-85.5 383,-66.5 418,-66.5 418,-85.5"/>
<text text-anchor="middle" x="400.5" y="-73.5" font-family="Helvetica,sans-Serif" font-size="10.00">sinf</text>
</a>
</g>
</g>
<!-- Node3&#45;&gt;Node5 -->
<g id="edge4_Node000003_Node000005" class="edge">
<title>Node3&#45;&gt;Node5</title>
<g id="a_edge4_Node000003_Node000005"><a xlink:title=" ">
<path fill="none" stroke="#63b8ff" d="M334.88,-85.44C348.25,-83.49 361.6,-81.54 372.67,-79.92"/>
<polygon fill="#63b8ff" stroke="#63b8ff" points="373.5,-83.34 382.89,-78.43 372.49,-76.41 373.5,-83.34"/>
</a>
</g>
</g>
</g>
</svg>
