<?xml version="1.0" encoding="UTF-8" standalone="no"?>
<!DOCTYPE svg PUBLIC "-//W3C//DTD SVG 1.1//EN"
 "http://www.w3.org/Graphics/SVG/1.1/DTD/svg11.dtd">
<!-- Generated by graphviz version 2.43.0 (0)
 -->
<!-- Title: OThwomp::func_80080078 Pages: 1 -->
<svg width="486pt" height="249pt"
 viewBox="0.00 0.00 486.00 249.00" xmlns="http://www.w3.org/2000/svg" xmlns:xlink="http://www.w3.org/1999/xlink">
<g id="graph0" class="graph" transform="scale(1 1) rotate(0) translate(4 245)">
<title>OThwomp::func_80080078</title>
<!-- Node1 -->
<g id="Node000001" class="node">
<title>Node1</title>
<g id="a_Node000001"><a xlink:title=" ">
<polygon fill="#999999" stroke="#666666" points="146,-130 0,-130 0,-111 146,-111 146,-130"/>
<text text-anchor="middle" x="73" y="-118" font-family="Helvetica,sans-Serif" font-size="10.00">OThwomp::func_80080078</text>
</a>
</g>
</g>
<!-- Node2 -->
<g id="Node000002" class="node">
<title>Node2</title>
<g id="a_Node000002"><a xlink:href="update__objects_8c.html#af6a634e5a07f3b79f745c7146b89e971" target="_top" xlink:title=" ">
<polygon fill="white" stroke="#666666" points="294.5,-241 201.5,-241 201.5,-222 294.5,-222 294.5,-241"/>
<text text-anchor="middle" x="248" y="-229" font-family="Helvetica,sans-Serif" font-size="10.00">func_800724DC</text>
</a>
</g>
</g>
<!-- Node1&#45;&gt;Node2 -->
<g id="edge1_Node000001_Node000002" class="edge">
<title>Node1&#45;&gt;Node2</title>
<g id="a_edge1_Node000001_Node000002"><a xlink:title=" ">
<path fill="none" stroke="#63b8ff" d="M82.49,-130.24C99.47,-149.14 139.66,-190.89 182,-213.5 185.45,-215.34 189.1,-217.01 192.84,-218.51"/>
<polygon fill="#63b8ff" stroke="#63b8ff" points="191.69,-221.82 202.28,-221.94 194.07,-215.24 191.69,-221.82"/>
</a>
</g>
</g>
<!-- Node3 -->
<g id="Node000003" class="node">
<title>Node3</title>
<g id="a_Node000003"><a xlink:href="update__objects_8c.html#add0bf98084e3359319c40487d800d428" target="_top" xlink:title=" ">
<polygon fill="white" stroke="#666666" points="302,-204 194,-204 194,-185 302,-185 302,-204"/>
<text text-anchor="middle" x="248" y="-192" font-family="Helvetica,sans-Serif" font-size="10.00">init_texture_object</text>
</a>
</g>
</g>
<!-- Node1&#45;&gt;Node3 -->
<g id="edge2_Node000001_Node000003" class="edge">
<title>Node1&#45;&gt;Node3</title>
<g id="a_edge2_Node000001_Node000003"><a xlink:title=" ">
<path fill="none" stroke="#63b8ff" d="M89.97,-130.13C110.63,-142.26 147.99,-163.14 182,-176.5 187.04,-178.48 192.38,-180.33 197.75,-182.04"/>
<polygon fill="#63b8ff" stroke="#63b8ff" points="196.8,-185.41 207.38,-184.95 198.82,-178.7 196.8,-185.41"/>
</a>
</g>
</g>
<!-- Node4 -->
<g id="Node000004" class="node">
<title>Node4</title>
<g id="a_Node000004"><a xlink:href="update__objects_8c.html#a8bfc5f5c7034d61b534e14f325b6e399" target="_top" xlink:title=" ">
<polygon fill="white" stroke="#666666" points="300,-167 196,-167 196,-148 300,-148 300,-167"/>
<text text-anchor="middle" x="248" y="-155" font-family="Helvetica,sans-Serif" font-size="10.00">object_next_state</text>
</a>
</g>
</g>
<!-- Node1&#45;&gt;Node4 -->
<g id="edge3_Node000001_Node000004" class="edge">
<title>Node1&#45;&gt;Node4</title>
<g id="a_edge3_Node000001_Node000004"><a xlink:title=" ">
<path fill="none" stroke="#63b8ff" d="M118.55,-130.03C141.07,-134.84 168.58,-140.73 192.36,-145.81"/>
<polygon fill="#63b8ff" stroke="#63b8ff" points="191.79,-149.27 202.3,-147.94 193.25,-142.43 191.79,-149.27"/>
</a>
</g>
</g>
<!-- Node7 -->
<g id="Node000007" class="node">
<title>Node7</title>
<g id="a_Node000007"><a xlink:href="code__80086E70_8c.html#af0e1570f9594db6104157d24386b80cb" target="_top" xlink:title=" ">
<polygon fill="white" stroke="#666666" points="314,-130 182,-130 182,-111 314,-111 314,-130"/>
<text text-anchor="middle" x="248" y="-118" font-family="Helvetica,sans-Serif" font-size="10.00">set_obj_direction_angle</text>
</a>
</g>
</g>
<!-- Node1&#45;&gt;Node7 -->
<g id="edge6_Node000001_Node000007" class="edge">
<title>Node1&#45;&gt;Node7</title>
<g id="a_edge6_Node000001_Node000007"><a xlink:title=" ">
<path fill="none" stroke="#63b8ff" d="M146.11,-120.5C154.55,-120.5 163.18,-120.5 171.66,-120.5"/>
<polygon fill="#63b8ff" stroke="#63b8ff" points="171.9,-124 181.9,-120.5 171.9,-117 171.9,-124"/>
</a>
</g>
</g>
<!-- Node8 -->
<g id="Node000008" class="node">
<title>Node8</title>
<g id="a_Node000008"><a xlink:href="code__80086E70_8c.html#ad745ffd7b6ecd50c57336a484979b258" target="_top" xlink:title=" ">
<polygon fill="white" stroke="#666666" points="303,-93 193,-93 193,-74 303,-74 303,-93"/>
<text text-anchor="middle" x="248" y="-81" font-family="Helvetica,sans-Serif" font-size="10.00">set_obj_orientation</text>
</a>
</g>
</g>
<!-- Node1&#45;&gt;Node8 -->
<g id="edge7_Node000001_Node000008" class="edge">
<title>Node1&#45;&gt;Node8</title>
<g id="a_edge7_Node000001_Node000008"><a xlink:title=" ">
<path fill="none" stroke="#63b8ff" d="M118.55,-110.97C141.07,-106.16 168.58,-100.27 192.36,-95.19"/>
<polygon fill="#63b8ff" stroke="#63b8ff" points="193.25,-98.57 202.3,-93.06 191.79,-91.73 193.25,-98.57"/>
</a>
</g>
</g>
<!-- Node9 -->
<g id="Node000009" class="node">
<title>Node9</title>
<g id="a_Node000009"><a xlink:href="code__80086E70_8c.html#ac9171108201f29dda52974a4a5c68a04" target="_top" xlink:title=" ">
<polygon fill="white" stroke="#666666" points="307,-56 189,-56 189,-37 307,-37 307,-56"/>
<text text-anchor="middle" x="248" y="-44" font-family="Helvetica,sans-Serif" font-size="10.00">set_obj_origin_offset</text>
</a>
</g>
</g>
<!-- Node1&#45;&gt;Node9 -->
<g id="edge8_Node000001_Node000009" class="edge">
<title>Node1&#45;&gt;Node9</title>
<g id="a_edge8_Node000001_Node000009"><a xlink:title=" ">
<path fill="none" stroke="#63b8ff" d="M90.39,-110.93C111.17,-99.09 148.36,-78.85 182,-65.5 187.81,-63.2 194.01,-61.03 200.18,-59.04"/>
<polygon fill="#63b8ff" stroke="#63b8ff" points="201.29,-62.36 209.81,-56.07 199.23,-55.67 201.29,-62.36"/>
</a>
</g>
</g>
<!-- Node10 -->
<g id="Node000010" class="node">
<title>Node10</title>
<g id="a_Node000010"><a xlink:href="update__objects_8c.html#afe64f2394ee0deab6370b77609500bda" target="_top" xlink:title=" ">
<polygon fill="white" stroke="#666666" points="293,-19 203,-19 203,0 293,0 293,-19"/>
<text text-anchor="middle" x="248" y="-7" font-family="Helvetica,sans-Serif" font-size="10.00">set_object_flag</text>
</a>
</g>
</g>
<!-- Node1&#45;&gt;Node10 -->
<g id="edge9_Node000001_Node000010" class="edge">
<title>Node1&#45;&gt;Node10</title>
<g id="a_edge9_Node000001_Node000010"><a xlink:title=" ">
<path fill="none" stroke="#63b8ff" d="M82.54,-110.92C99.61,-92.33 139.95,-51.2 182,-28.5 186.18,-26.25 190.65,-24.23 195.23,-22.43"/>
<polygon fill="#63b8ff" stroke="#63b8ff" points="196.47,-25.71 204.7,-19.05 194.11,-19.12 196.47,-25.71"/>
</a>
</g>
</g>
<!-- Node5 -->
<g id="Node000005" class="node">
<title>Node5</title>
<g id="a_Node000005"><a xlink:href="update__objects_8c.html#a3953241e15c6372ac8944ba842148a9a" target="_top" xlink:title=" ">
<polygon fill="white" stroke="#666666" points="463.5,-185 364.5,-185 364.5,-166 463.5,-166 463.5,-185"/>
<text text-anchor="middle" x="414" y="-173" font-family="Helvetica,sans-Serif" font-size="10.00">clear_object_flag</text>
</a>
</g>
</g>
<!-- Node4&#45;&gt;Node5 -->
<g id="edge4_Node000004_Node000005" class="edge">
<title>Node4&#45;&gt;Node5</title>
<g id="a_edge4_Node000004_Node000005"><a xlink:title=" ">
<path fill="none" stroke="#63b8ff" d="M300.44,-163.15C317.48,-165.02 336.58,-167.11 354.13,-169.04"/>
<polygon fill="#63b8ff" stroke="#63b8ff" points="353.94,-172.54 364.26,-170.15 354.7,-165.58 353.94,-172.54"/>
</a>
</g>
</g>
<!-- Node6 -->
<g id="Node000006" class="node">
<title>Node6</title>
<g id="a_Node000006"><a xlink:href="update__objects_8c.html#af20e3f3c403dd4fbea56e358997e515a" target="_top" xlink:title=" ">
<polygon fill="white" stroke="#666666" points="478,-148 350,-148 350,-129 478,-129 478,-148"/>
<text text-anchor="middle" x="414" y="-136" font-family="Helvetica,sans-Serif" font-size="10.00">set_object_timer_state</text>
</a>
</g>
</g>
<!-- Node4&#45;&gt;Node6 -->
<g id="edge5_Node000004_Node000006" class="edge">
<title>Node4&#45;&gt;Node6</title>
<g id="a_edge5_Node000004_Node000006"><a xlink:title=" ">
<path fill="none" stroke="#63b8ff" d="M300.44,-151.54C312.94,-150.09 326.55,-148.52 339.84,-146.98"/>
<polygon fill="#63b8ff" stroke="#63b8ff" points="340.39,-150.44 349.92,-145.81 339.59,-143.48 340.39,-150.44"/>
</a>
</g>
</g>
</g>
</svg>
