<?xml version="1.0" encoding="UTF-8" standalone="no"?>
<!DOCTYPE svg PUBLIC "-//W3C//DTD SVG 1.1//EN"
 "http://www.w3.org/Graphics/SVG/1.1/DTD/svg11.dtd">
<!-- Generated by graphviz version 2.43.0 (0)
 -->
<!-- Title: BlockFort::Load Pages: 1 -->
<svg width="1062pt" height="356pt"
 viewBox="0.00 0.00 1062.00 355.50" xmlns="http://www.w3.org/2000/svg" xmlns:xlink="http://www.w3.org/1999/xlink">
<g id="graph0" class="graph" transform="scale(1 1) rotate(0) translate(4 351.5)">
<title>BlockFort::Load</title>
<!-- Node1 -->
<g id="Node000001" class="node">
<title>Node1</title>
<g id="a_Node000001"><a xlink:title=" ">
<polygon fill="#999999" stroke="#666666" points="92,-185 0,-185 0,-166 92,-166 92,-185"/>
<text text-anchor="middle" x="46" y="-173" font-family="Helvetica,sans-Serif" font-size="10.00">BlockFort::Load</text>
</a>
</g>
</g>
<!-- Node2 -->
<g id="Node000002" class="node">
<title>Node2</title>
<g id="a_Node000002"><a xlink:href="render__courses_8c.html#ab02cdf6684f984a12e7388fe973bc89a" target="_top" xlink:title=" ">
<polygon fill="white" stroke="#666666" points="259,-234 167,-234 167,-215 259,-215 259,-234"/>
<text text-anchor="middle" x="213" y="-222" font-family="Helvetica,sans-Serif" font-size="10.00">func_80295C6C</text>
</a>
</g>
</g>
<!-- Node1&#45;&gt;Node2 -->
<g id="edge1_Node000001_Node000002" class="edge">
<title>Node1&#45;&gt;Node2</title>
<g id="a_edge1_Node000001_Node000002"><a xlink:title=" ">
<path fill="none" stroke="#63b8ff" d="M79.21,-185.06C105.21,-192.79 142,-203.71 170.27,-212.11"/>
<polygon fill="#63b8ff" stroke="#63b8ff" points="169.29,-215.47 179.88,-214.96 171.29,-208.76 169.29,-215.47"/>
</a>
</g>
</g>
<!-- Node7 -->
<g id="Node000007" class="node">
<title>Node7</title>
<g id="a_Node000007"><a xlink:href="collision_8c.html#a0c0f33fa7f0e76fa9cd556c9f1401b36" target="_top" xlink:title=" ">
<polygon fill="white" stroke="#666666" points="298,-190.5 128,-190.5 128,-160.5 298,-160.5 298,-190.5"/>
<text text-anchor="start" x="136" y="-178.5" font-family="Helvetica,sans-Serif" font-size="10.00">generate_collision</text>
<text text-anchor="middle" x="213" y="-167.5" font-family="Helvetica,sans-Serif" font-size="10.00">_mesh_with_default_section_id</text>
</a>
</g>
</g>
<!-- Node1&#45;&gt;Node7 -->
<g id="edge6_Node000001_Node000007" class="edge">
<title>Node1&#45;&gt;Node7</title>
<g id="a_edge6_Node000001_Node000007"><a xlink:title=" ">
<path fill="none" stroke="#63b8ff" d="M92.09,-175.5C100.2,-175.5 108.92,-175.5 117.83,-175.5"/>
<polygon fill="#63b8ff" stroke="#63b8ff" points="117.94,-179 127.94,-175.5 117.94,-172 117.94,-179"/>
</a>
</g>
</g>
<!-- Node19 -->
<g id="Node000019" class="node">
<title>Node19</title>
<g id="a_Node000019"><a xlink:href="Track_8cpp.html#a0406803b8f06bfcaf7e1bd3ad2ab2e12" target="_top" xlink:title=" ">
<polygon fill="white" stroke="#666666" points="295.5,-127 130.5,-127 130.5,-108 295.5,-108 295.5,-127"/>
<text text-anchor="middle" x="213" y="-115" font-family="Helvetica,sans-Serif" font-size="10.00">InvertTriangleWindingByName</text>
</a>
</g>
</g>
<!-- Node1&#45;&gt;Node19 -->
<g id="edge22_Node000001_Node000019" class="edge">
<title>Node1&#45;&gt;Node19</title>
<g id="a_edge22_Node000001_Node000019"><a xlink:title=" ">
<path fill="none" stroke="#63b8ff" d="M74.25,-165.92C101.83,-156.23 144.67,-141.17 175.25,-130.42"/>
<polygon fill="#63b8ff" stroke="#63b8ff" points="176.44,-133.71 184.71,-127.09 174.12,-127.11 176.44,-133.71"/>
</a>
</g>
</g>
<!-- Node3 -->
<g id="Node000003" class="node">
<title>Node3</title>
<g id="a_Node000003"><a xlink:href="collision_8c.html#aa1116ededb9ebc0ee976259f02fe2a4e" target="_top" xlink:title=" ">
<polygon fill="white" stroke="#666666" points="479.5,-289 349.5,-289 349.5,-270 479.5,-270 479.5,-289"/>
<text text-anchor="middle" x="414.5" y="-277" font-family="Helvetica,sans-Serif" font-size="10.00">generate_collision_grid</text>
</a>
</g>
</g>
<!-- Node2&#45;&gt;Node3 -->
<g id="edge2_Node000002_Node000003" class="edge">
<title>Node2&#45;&gt;Node3</title>
<g id="a_edge2_Node000002_Node000003"><a xlink:title=" ">
<path fill="none" stroke="#63b8ff" d="M248.75,-234.08C282.12,-243.28 332.67,-257.22 368.98,-267.23"/>
<polygon fill="#63b8ff" stroke="#63b8ff" points="368.24,-270.65 378.81,-269.94 370.1,-263.91 368.24,-270.65"/>
</a>
</g>
</g>
<!-- Node4 -->
<g id="Node000004" class="node">
<title>Node4</title>
<g id="a_Node000004"><a xlink:href="collision_8c.html#a4e4ec74302aec60828a8d271390f7631" target="_top" xlink:title=" ">
<polygon fill="white" stroke="#666666" points="671,-326.5 540,-326.5 540,-296.5 671,-296.5 671,-326.5"/>
<text text-anchor="start" x="548" y="-314.5" font-family="Helvetica,sans-Serif" font-size="10.00">is_triangle_intersecting</text>
<text text-anchor="middle" x="605.5" y="-303.5" font-family="Helvetica,sans-Serif" font-size="10.00">_bounding_box</text>
</a>
</g>
</g>
<!-- Node3&#45;&gt;Node4 -->
<g id="edge3_Node000003_Node000004" class="edge">
<title>Node3&#45;&gt;Node4</title>
<g id="a_edge3_Node000003_Node000004"><a xlink:title=" ">
<path fill="none" stroke="#63b8ff" d="M471.69,-289.01C489.95,-292.11 510.5,-295.58 529.88,-298.87"/>
<polygon fill="#63b8ff" stroke="#63b8ff" points="529.45,-302.34 539.89,-300.56 530.61,-295.44 529.45,-302.34"/>
</a>
</g>
</g>
<!-- Node5 -->
<g id="Node000005" class="node">
<title>Node5</title>
<g id="a_Node000005"><a xlink:href="collision_8c.html#a7ef4f800cb44ad39ca233d0c76ce039a" target="_top" xlink:title=" ">
<polygon fill="white" stroke="#666666" points="837.5,-347.5 726.5,-347.5 726.5,-317.5 837.5,-317.5 837.5,-347.5"/>
<text text-anchor="start" x="734.5" y="-335.5" font-family="Helvetica,sans-Serif" font-size="10.00">is_line_intersecting</text>
<text text-anchor="middle" x="782" y="-324.5" font-family="Helvetica,sans-Serif" font-size="10.00">_rectangle</text>
</a>
</g>
</g>
<!-- Node4&#45;&gt;Node5 -->
<g id="edge4_Node000004_Node000005" class="edge">
<title>Node4&#45;&gt;Node5</title>
<g id="a_edge4_Node000004_Node000005"><a xlink:title=" ">
<path fill="none" stroke="#63b8ff" d="M671.48,-319.32C686.12,-321.08 701.66,-322.95 716.3,-324.71"/>
<polygon fill="#63b8ff" stroke="#63b8ff" points="715.91,-328.19 726.26,-325.91 716.75,-321.24 715.91,-328.19"/>
</a>
</g>
</g>
<!-- Node6 -->
<g id="Node000006" class="node">
<title>Node6</title>
<g id="a_Node000006"><a xlink:href="collision_8c.html#a7edd3f38403de0388af87355d4daf611" target="_top" xlink:title=" ">
<polygon fill="white" stroke="#666666" points="848,-299 716,-299 716,-280 848,-280 848,-299"/>
<text text-anchor="middle" x="782" y="-287" font-family="Helvetica,sans-Serif" font-size="10.00">is_point_inside_triangle</text>
</a>
</g>
</g>
<!-- Node4&#45;&gt;Node6 -->
<g id="edge5_Node000004_Node000006" class="edge">
<title>Node4&#45;&gt;Node6</title>
<g id="a_edge5_Node000004_Node000006"><a xlink:title=" ">
<path fill="none" stroke="#63b8ff" d="M671.48,-303.31C682.72,-301.89 694.49,-300.41 705.97,-298.96"/>
<polygon fill="#63b8ff" stroke="#63b8ff" points="706.48,-302.42 715.97,-297.7 705.61,-295.48 706.48,-302.42"/>
</a>
</g>
</g>
<!-- Node8 -->
<g id="Node000008" class="node">
<title>Node8</title>
<g id="a_Node000008"><a xlink:href="collision_8c.html#a3081198f925be148fc9f05897a3bddd3" target="_top" xlink:title=" ">
<polygon fill="white" stroke="#666666" points="483.5,-185 345.5,-185 345.5,-166 483.5,-166 483.5,-185"/>
<text text-anchor="middle" x="414.5" y="-173" font-family="Helvetica,sans-Serif" font-size="10.00">generate_collision_mesh</text>
</a>
</g>
</g>
<!-- Node7&#45;&gt;Node8 -->
<g id="edge7_Node000007_Node000008" class="edge">
<title>Node7&#45;&gt;Node8</title>
<g id="a_edge7_Node000007_Node000008"><a xlink:title=" ">
<path fill="none" stroke="#63b8ff" d="M298.03,-175.5C310.34,-175.5 322.98,-175.5 335.17,-175.5"/>
<polygon fill="#63b8ff" stroke="#63b8ff" points="335.29,-179 345.29,-175.5 335.29,-172 335.29,-179"/>
</a>
</g>
</g>
<!-- Node8&#45;&gt;Node8 -->
<g id="edge10_Node000008_Node000008" class="edge">
<title>Node8&#45;&gt;Node8</title>
<g id="a_edge10_Node000008_Node000008"><a xlink:title=" ">
<path fill="none" stroke="#63b8ff" d="M385.22,-185.08C370.97,-193.73 380.73,-203 414.5,-203 437.72,-203 449.59,-198.62 450.11,-193.07"/>
<polygon fill="#63b8ff" stroke="#63b8ff" points="452.73,-190.75 443.78,-185.08 447.25,-195.1 452.73,-190.75"/>
</a>
</g>
</g>
<!-- Node9 -->
<g id="Node000009" class="node">
<title>Node9</title>
<g id="a_Node000009"><a xlink:href="Engine_8cpp.html#a223c8bc63f228dc11177515e38eff2db" target="_top" xlink:title=" ">
<polygon fill="white" stroke="#666666" points="680,-93 531,-93 531,-74 680,-74 680,-93"/>
<text text-anchor="middle" x="605.5" y="-81" font-family="Helvetica,sans-Serif" font-size="10.00">GameEngine_OTRSigCheck</text>
</a>
</g>
</g>
<!-- Node8&#45;&gt;Node9 -->
<g id="edge8_Node000008_Node000009" class="edge">
<title>Node8&#45;&gt;Node9</title>
<g id="a_edge8_Node000008_Node000009"><a xlink:title=" ">
<path fill="none" stroke="#63b8ff" d="M427.55,-165.84C447.76,-150.11 490.29,-118.95 531,-101.5 535.71,-99.48 540.69,-97.66 545.75,-96.02"/>
<polygon fill="#63b8ff" stroke="#63b8ff" points="546.95,-99.32 555.53,-93.1 544.94,-92.61 546.95,-99.32"/>
</a>
</g>
</g>
<!-- Node11 -->
<g id="Node000011" class="node">
<title>Node11</title>
<g id="a_Node000011"><a xlink:href="collision_8c.html#a2419eefe1cdba5b280babacc4a15fc6c" target="_top" xlink:title=" ">
<polygon fill="white" stroke="#666666" points="641,-130 570,-130 570,-111 641,-111 641,-130"/>
<text text-anchor="middle" x="605.5" y="-118" font-family="Helvetica,sans-Serif" font-size="10.00">is_cull_box</text>
</a>
</g>
</g>
<!-- Node8&#45;&gt;Node11 -->
<g id="edge11_Node000008_Node000011" class="edge">
<title>Node8&#45;&gt;Node11</title>
<g id="a_edge11_Node000008_Node000011"><a xlink:title=" ">
<path fill="none" stroke="#63b8ff" d="M443.34,-165.98C466.63,-158.16 500.81,-147.02 531,-138.5 540.38,-135.85 550.5,-133.23 560.15,-130.83"/>
<polygon fill="#63b8ff" stroke="#63b8ff" points="561.09,-134.21 569.97,-128.43 559.42,-127.41 561.09,-134.21"/>
</a>
</g>
</g>
<!-- Node12 -->
<g id="Node000012" class="node">
<title>Node12</title>
<g id="a_Node000012"><a xlink:href="collision_8c.html#a30eb531df39ba558cd733e1d1cd6aaa0" target="_top" xlink:title=" ">
<polygon fill="white" stroke="#666666" points="648.5,-278 562.5,-278 562.5,-259 648.5,-259 648.5,-278"/>
<text text-anchor="middle" x="605.5" y="-266" font-family="Helvetica,sans-Serif" font-size="10.00">set_vtx_buffer</text>
</a>
</g>
</g>
<!-- Node8&#45;&gt;Node12 -->
<g id="edge13_Node000008_Node000012" class="edge">
<title>Node8&#45;&gt;Node12</title>
<g id="a_edge13_Node000008_Node000012"><a xlink:title=" ">
<path fill="none" stroke="#63b8ff" d="M427.21,-185.04C447.25,-200.92 489.96,-232.76 531,-250.5 537.88,-253.47 545.33,-256.01 552.78,-258.17"/>
<polygon fill="#63b8ff" stroke="#63b8ff" points="551.93,-261.57 562.5,-260.78 553.75,-254.81 551.93,-261.57"/>
</a>
</g>
</g>
<!-- Node13 -->
<g id="Node000013" class="node">
<title>Node13</title>
<g id="a_Node000013"><a xlink:href="collision_8c.html#a593833ca3f04f0c7d8f5dcabe6430115" target="_top" xlink:title=" ">
<polygon fill="white" stroke="#666666" points="676,-241 535,-241 535,-222 676,-222 676,-241"/>
<text text-anchor="middle" x="605.5" y="-229" font-family="Helvetica,sans-Serif" font-size="10.00">set_vtx_from_quadrangle</text>
</a>
</g>
</g>
<!-- Node8&#45;&gt;Node13 -->
<g id="edge14_Node000008_Node000013" class="edge">
<title>Node8&#45;&gt;Node13</title>
<g id="a_edge14_Node000008_Node000013"><a xlink:title=" ">
<path fill="none" stroke="#63b8ff" d="M442.39,-185C465.68,-193.08 500.36,-204.72 531,-213.5 538.2,-215.56 545.84,-217.6 553.36,-219.52"/>
<polygon fill="#63b8ff" stroke="#63b8ff" points="552.59,-222.93 563.15,-221.97 554.29,-216.14 552.59,-222.93"/>
</a>
</g>
</g>
<!-- Node17 -->
<g id="Node000017" class="node">
<title>Node17</title>
<g id="a_Node000017"><a xlink:href="collision_8c.html#ac558a6e1314f154bbf53aaf15396ea1e" target="_top" xlink:title=" ">
<polygon fill="white" stroke="#666666" points="657,-204 554,-204 554,-185 657,-185 657,-204"/>
<text text-anchor="middle" x="605.5" y="-192" font-family="Helvetica,sans-Serif" font-size="10.00">set_vtx_from_tri2</text>
</a>
</g>
</g>
<!-- Node8&#45;&gt;Node17 -->
<g id="edge18_Node000008_Node000017" class="edge">
<title>Node8&#45;&gt;Node17</title>
<g id="a_edge18_Node000008_Node000017"><a xlink:title=" ">
<path fill="none" stroke="#63b8ff" d="M483.73,-182.36C503.36,-184.33 524.63,-186.47 543.77,-188.4"/>
<polygon fill="#63b8ff" stroke="#63b8ff" points="543.57,-191.89 553.87,-189.41 544.27,-184.93 543.57,-191.89"/>
</a>
</g>
</g>
<!-- Node18 -->
<g id="Node000018" class="node">
<title>Node18</title>
<g id="a_Node000018"><a xlink:href="collision_8c.html#a335dc7fed8a2540ca0a5b0a466545845" target="_top" xlink:title=" ">
<polygon fill="white" stroke="#666666" points="667.5,-167 543.5,-167 543.5,-148 667.5,-148 667.5,-167"/>
<text text-anchor="middle" x="605.5" y="-155" font-family="Helvetica,sans-Serif" font-size="10.00">set_vtx_from_triangle</text>
</a>
</g>
</g>
<!-- Node8&#45;&gt;Node18 -->
<g id="edge20_Node000008_Node000018" class="edge">
<title>Node8&#45;&gt;Node18</title>
<g id="a_edge20_Node000008_Node000018"><a xlink:title=" ">
<path fill="none" stroke="#63b8ff" d="M483.73,-169C499.84,-167.47 517.06,-165.83 533.3,-164.28"/>
<polygon fill="#63b8ff" stroke="#63b8ff" points="533.64,-167.76 543.27,-163.33 532.98,-160.8 533.64,-167.76"/>
</a>
</g>
</g>
<!-- Node10 -->
<g id="Node000010" class="node">
<title>Node10</title>
<g id="a_Node000010"><a xlink:href="string_8c.html#a008e171a518fe0e0352f31b245e03875" target="_top" xlink:title=" ">
<polygon fill="white" stroke="#666666" points="804,-112 760,-112 760,-93 804,-93 804,-112"/>
<text text-anchor="middle" x="782" y="-100" font-family="Helvetica,sans-Serif" font-size="10.00">strlen</text>
</a>
</g>
</g>
<!-- Node9&#45;&gt;Node10 -->
<g id="edge9_Node000009_Node000010" class="edge">
<title>Node9&#45;&gt;Node10</title>
<g id="a_edge9_Node000009_Node000010"><a xlink:title=" ">
<path fill="none" stroke="#63b8ff" d="M680.25,-91.53C704.58,-94.18 730.35,-96.98 749.73,-99.1"/>
<polygon fill="#63b8ff" stroke="#63b8ff" points="749.47,-102.59 759.79,-100.19 750.23,-95.63 749.47,-102.59"/>
</a>
</g>
</g>
<!-- Node11&#45;&gt;Node10 -->
<g id="edge12_Node000011_Node000010" class="edge">
<title>Node11&#45;&gt;Node10</title>
<g id="a_edge12_Node000011_Node000010"><a xlink:title=" ">
<path fill="none" stroke="#63b8ff" d="M641.39,-116.9C673.07,-113.63 719.35,-108.86 749.81,-105.72"/>
<polygon fill="#63b8ff" stroke="#63b8ff" points="750.29,-109.19 759.88,-104.68 749.57,-102.22 750.29,-109.19"/>
</a>
</g>
</g>
<!-- Node14 -->
<g id="Node000014" class="node">
<title>Node14</title>
<g id="a_Node000014"><a xlink:href="collision_8c.html#a8c516edee107b39b30bb3a4d3c54534a" target="_top" xlink:title=" ">
<polygon fill="white" stroke="#666666" points="843.5,-204 720.5,-204 720.5,-185 843.5,-185 843.5,-204"/>
<text text-anchor="middle" x="782" y="-192" font-family="Helvetica,sans-Serif" font-size="10.00">add_collision_triangle</text>
</a>
</g>
</g>
<!-- Node13&#45;&gt;Node14 -->
<g id="edge15_Node000013_Node000014" class="edge">
<title>Node13&#45;&gt;Node14</title>
<g id="a_edge15_Node000013_Node000014"><a xlink:title=" ">
<path fill="none" stroke="#63b8ff" d="M651.44,-221.97C674.15,-217.16 701.9,-211.27 725.89,-206.19"/>
<polygon fill="#63b8ff" stroke="#63b8ff" points="726.85,-209.56 735.91,-204.06 725.4,-202.71 726.85,-209.56"/>
</a>
</g>
</g>
<!-- Node15 -->
<g id="Node000015" class="node">
<title>Node15</title>
<g id="a_Node000015"><a xlink:href="RaceManager_8cpp.html#a693bf81394ee91ac6be58f7481471619" target="_top" xlink:title=" ">
<polygon fill="white" stroke="#666666" points="1054,-223 884,-223 884,-204 1054,-204 1054,-223"/>
<text text-anchor="middle" x="969" y="-211" font-family="Helvetica,sans-Serif" font-size="10.00">add_triangle_to_collision_mesh</text>
</a>
</g>
</g>
<!-- Node14&#45;&gt;Node15 -->
<g id="edge16_Node000014_Node000015" class="edge">
<title>Node14&#45;&gt;Node15</title>
<g id="a_edge16_Node000014_Node000015"><a xlink:title=" ">
<path fill="none" stroke="#63b8ff" d="M843.58,-200.72C853.22,-201.71 863.39,-202.76 873.59,-203.8"/>
<polygon fill="#63b8ff" stroke="#63b8ff" points="873.48,-207.31 883.78,-204.85 874.19,-200.35 873.48,-207.31"/>
</a>
</g>
</g>
<!-- Node16 -->
<g id="Node000016" class="node">
<title>Node16</title>
<g id="a_Node000016"><a xlink:href="math_8h.html#a37bde043e94a6f074c78f10518fb5d99" target="_top" xlink:title=" ">
<polygon fill="white" stroke="#666666" points="988.5,-186 949.5,-186 949.5,-167 988.5,-167 988.5,-186"/>
<text text-anchor="middle" x="969" y="-174" font-family="Helvetica,sans-Serif" font-size="10.00">sqrtf</text>
</a>
</g>
</g>
<!-- Node14&#45;&gt;Node16 -->
<g id="edge17_Node000014_Node000016" class="edge">
<title>Node14&#45;&gt;Node16</title>
<g id="a_edge17_Node000014_Node000016"><a xlink:title=" ">
<path fill="none" stroke="#63b8ff" d="M843.58,-188.61C875.66,-185.48 913.59,-181.79 939.07,-179.32"/>
<polygon fill="#63b8ff" stroke="#63b8ff" points="939.55,-182.78 949.17,-178.33 938.88,-175.82 939.55,-182.78"/>
</a>
</g>
</g>
<!-- Node17&#45;&gt;Node14 -->
<g id="edge19_Node000017_Node000014" class="edge">
<title>Node17&#45;&gt;Node14</title>
<g id="a_edge19_Node000017_Node000014"><a xlink:title=" ">
<path fill="none" stroke="#63b8ff" d="M657.44,-194.5C673.92,-194.5 692.51,-194.5 710.17,-194.5"/>
<polygon fill="#63b8ff" stroke="#63b8ff" points="710.43,-198 720.43,-194.5 710.43,-191 710.43,-198"/>
</a>
</g>
</g>
<!-- Node18&#45;&gt;Node14 -->
<g id="edge21_Node000018_Node000014" class="edge">
<title>Node18&#45;&gt;Node14</title>
<g id="a_edge21_Node000018_Node000014"><a xlink:title=" ">
<path fill="none" stroke="#63b8ff" d="M651.44,-167.03C674.15,-171.84 701.9,-177.73 725.89,-182.81"/>
<polygon fill="#63b8ff" stroke="#63b8ff" points="725.4,-186.29 735.91,-184.94 726.85,-179.44 725.4,-186.29"/>
</a>
</g>
</g>
<!-- Node20 -->
<g id="Node000020" class="node">
<title>Node20</title>
<g id="a_Node000020"><a xlink:href="Track_8cpp.html#ad29b2b4706dd79c5d6239851b61530d4" target="_top" xlink:title=" ">
<polygon fill="white" stroke="#666666" points="495,-75 334,-75 334,-56 495,-56 495,-75"/>
<text text-anchor="middle" x="414.5" y="-63" font-family="Helvetica,sans-Serif" font-size="10.00">InvertTriangleWindingInternal</text>
</a>
</g>
</g>
<!-- Node19&#45;&gt;Node20 -->
<g id="edge23_Node000019_Node000020" class="edge">
<title>Node19&#45;&gt;Node20</title>
<g id="a_edge23_Node000019_Node000020"><a xlink:title=" ">
<path fill="none" stroke="#63b8ff" d="M250.59,-107.96C283.25,-99.45 331.26,-86.94 366.7,-77.7"/>
<polygon fill="#63b8ff" stroke="#63b8ff" points="368.01,-80.97 376.8,-75.07 366.24,-74.2 368.01,-80.97"/>
</a>
</g>
</g>
<!-- Node20&#45;&gt;Node9 -->
<g id="edge24_Node000020_Node000009" class="edge">
<title>Node20&#45;&gt;Node9</title>
<g id="a_edge24_Node000020_Node000009"><a xlink:title=" ">
<path fill="none" stroke="#63b8ff" d="M495.11,-73.08C503.5,-73.88 512.05,-74.7 520.49,-75.5"/>
<polygon fill="#63b8ff" stroke="#63b8ff" points="520.42,-79.01 530.71,-76.47 521.08,-72.04 520.42,-79.01"/>
</a>
</g>
</g>
<!-- Node20&#45;&gt;Node20 -->
<g id="edge25_Node000020_Node000020" class="edge">
<title>Node20&#45;&gt;Node20</title>
<g id="a_edge25_Node000020_Node000020"><a xlink:title=" ">
<path fill="none" stroke="#63b8ff" d="M385.22,-75.08C370.97,-83.73 380.73,-93 414.5,-93 437.72,-93 449.59,-88.62 450.11,-83.07"/>
<polygon fill="#63b8ff" stroke="#63b8ff" points="452.73,-80.75 443.78,-75.08 447.25,-85.1 452.73,-80.75"/>
</a>
</g>
</g>
<!-- Node21 -->
<g id="Node000021" class="node">
<title>Node21</title>
<g id="a_Node000021"><a xlink:href="Track_8cpp.html#ab01e041d195d4b8a1029c8b9532b0600" target="_top" xlink:title=" ">
<polygon fill="white" stroke="#666666" points="646.5,-19 564.5,-19 564.5,0 646.5,0 646.5,-19"/>
<text text-anchor="middle" x="605.5" y="-7" font-family="Helvetica,sans-Serif" font-size="10.00">StripOtrPrefix</text>
</a>
</g>
</g>
<!-- Node20&#45;&gt;Node21 -->
<g id="edge26_Node000020_Node000021" class="edge">
<title>Node20&#45;&gt;Node21</title>
<g id="a_edge26_Node000020_Node000021"><a xlink:title=" ">
<path fill="none" stroke="#63b8ff" d="M442.39,-56C465.68,-47.92 500.36,-36.28 531,-27.5 538.55,-25.34 546.58,-23.2 554.45,-21.2"/>
<polygon fill="#63b8ff" stroke="#63b8ff" points="555.44,-24.56 564.3,-18.75 553.75,-17.77 555.44,-24.56"/>
</a>
</g>
</g>
<!-- Node22 -->
<g id="Node000022" class="node">
<title>Node22</title>
<g id="a_Node000022"><a xlink:href="Track_8cpp.html#a5bae290668f6b484d13626d67e16cc3f" target="_top" xlink:title=" ">
<polygon fill="white" stroke="#666666" points="665.5,-56 545.5,-56 545.5,-37 665.5,-37 665.5,-56"/>
<text text-anchor="middle" x="605.5" y="-44" font-family="Helvetica,sans-Serif" font-size="10.00">SwapTriangleVertices</text>
</a>
</g>
</g>
<!-- Node20&#45;&gt;Node22 -->
<g id="edge27_Node000020_Node000022" class="edge">
<title>Node20&#45;&gt;Node22</title>
<g id="a_edge27_Node000020_Node000022"><a xlink:title=" ">
<path fill="none" stroke="#63b8ff" d="M495.11,-57.5C508.4,-56.16 522.1,-54.78 535.11,-53.48"/>
<polygon fill="#63b8ff" stroke="#63b8ff" points="535.78,-56.93 545.38,-52.44 535.08,-49.96 535.78,-56.93"/>
</a>
</g>
</g>
</g>
</svg>
