<?xml version="1.0" encoding="UTF-8" standalone="no"?>
<!DOCTYPE svg PUBLIC "-//W3C//DTD SVG 1.1//EN"
 "http://www.w3.org/Graphics/SVG/1.1/DTD/svg11.dtd">
<!-- Generated by graphviz version 2.43.0 (0)
 -->
<!-- Title: OPodium::Draw Pages: 1 -->
<svg width="974pt" height="214pt"
 viewBox="0.00 0.00 974.00 214.00" xmlns="http://www.w3.org/2000/svg" xmlns:xlink="http://www.w3.org/1999/xlink">
<g id="graph0" class="graph" transform="scale(1 1) rotate(0) translate(4 210)">
<title>OPodium::Draw</title>
<!-- Node1 -->
<g id="Node000001" class="node">
<title>Node1</title>
<g id="a_Node000001"><a xlink:title=" ">
<polygon fill="#999999" stroke="#666666" points="92,-155 0,-155 0,-136 92,-136 92,-155"/>
<text text-anchor="middle" x="46" y="-143" font-family="Helvetica,sans-Serif" font-size="10.00">OPodium::Draw</text>
</a>
</g>
</g>
<!-- Node2 -->
<g id="Node000002" class="node">
<title>Node2</title>
<g id="a_Node000002"><a xlink:href="GBIMiddleware_8cpp.html#a4ecc44e3c6f1ca5a6b4a20c41d3bd2d2" target="_top" xlink:title=" ">
<polygon fill="white" stroke="#666666" points="256,-183 167,-183 167,-164 256,-164 256,-183"/>
<text text-anchor="middle" x="211.5" y="-171" font-family="Helvetica,sans-Serif" font-size="10.00">gSPDisplayList</text>
</a>
</g>
</g>
<!-- Node1&#45;&gt;Node2 -->
<g id="edge1_Node000001_Node000002" class="edge">
<title>Node1&#45;&gt;Node2</title>
<g id="a_edge1_Node000001_Node000002"><a xlink:title=" ">
<path fill="none" stroke="#63b8ff" d="M92.11,-153.23C112.17,-156.66 135.95,-160.73 156.91,-164.32"/>
<polygon fill="#63b8ff" stroke="#63b8ff" points="156.5,-167.8 166.95,-166.04 157.68,-160.9 156.5,-167.8"/>
</a>
</g>
</g>
<!-- Node5 -->
<g id="Node000005" class="node">
<title>Node5</title>
<g id="a_Node000005"><a xlink:href="math__util__2_8c.html#a2eff0e02deb703653ee3230fbc02eb14" target="_top" xlink:title="set the matrix to a transformation matrix">
<polygon fill="white" stroke="#666666" points="295,-137 128,-137 128,-118 295,-118 295,-137"/>
<text text-anchor="middle" x="211.5" y="-125" font-family="Helvetica,sans-Serif" font-size="10.00">rsp_set_matrix_transformation</text>
</a>
</g>
</g>
<!-- Node1&#45;&gt;Node5 -->
<g id="edge4_Node000001_Node000005" class="edge">
<title>Node1&#45;&gt;Node5</title>
<g id="a_edge4_Node000001_Node000005"><a xlink:title=" ">
<path fill="none" stroke="#63b8ff" d="M92.11,-140.53C100.21,-139.64 108.92,-138.68 117.81,-137.7"/>
<polygon fill="#63b8ff" stroke="#63b8ff" points="118.33,-141.17 127.89,-136.59 117.57,-134.21 118.33,-141.17"/>
</a>
</g>
</g>
<!-- Node3 -->
<g id="Node000003" class="node">
<title>Node3</title>
<g id="a_Node000003"><a xlink:href="Engine_8cpp.html#a223c8bc63f228dc11177515e38eff2db" target="_top" xlink:title=" ">
<polygon fill="white" stroke="#666666" points="493.5,-201 344.5,-201 344.5,-182 493.5,-182 493.5,-201"/>
<text text-anchor="middle" x="419" y="-189" font-family="Helvetica,sans-Serif" font-size="10.00">GameEngine_OTRSigCheck</text>
</a>
</g>
</g>
<!-- Node2&#45;&gt;Node3 -->
<g id="edge2_Node000002_Node000003" class="edge">
<title>Node2&#45;&gt;Node3</title>
<g id="a_edge2_Node000002_Node000003"><a xlink:title=" ">
<path fill="none" stroke="#63b8ff" d="M256.08,-177.32C278.75,-179.3 307.25,-181.8 334,-184.14"/>
<polygon fill="#63b8ff" stroke="#63b8ff" points="333.88,-187.64 344.15,-185.03 334.49,-180.67 333.88,-187.64"/>
</a>
</g>
</g>
<!-- Node4 -->
<g id="Node000004" class="node">
<title>Node4</title>
<g id="a_Node000004"><a xlink:href="string_8c.html#a008e171a518fe0e0352f31b245e03875" target="_top" xlink:title=" ">
<polygon fill="white" stroke="#666666" points="598.5,-206 554.5,-206 554.5,-187 598.5,-187 598.5,-206"/>
<text text-anchor="middle" x="576.5" y="-194" font-family="Helvetica,sans-Serif" font-size="10.00">strlen</text>
</a>
</g>
</g>
<!-- Node3&#45;&gt;Node4 -->
<g id="edge3_Node000003_Node000004" class="edge">
<title>Node3&#45;&gt;Node4</title>
<g id="a_edge3_Node000003_Node000004"><a xlink:title=" ">
<path fill="none" stroke="#63b8ff" d="M493.65,-193.87C511.29,-194.44 529.21,-195.01 543.77,-195.48"/>
<polygon fill="#63b8ff" stroke="#63b8ff" points="544.08,-198.99 554.19,-195.81 544.31,-192 544.08,-198.99"/>
</a>
</g>
</g>
<!-- Node6 -->
<g id="Node000006" class="node">
<title>Node6</title>
<g id="a_Node000006"><a xlink:href="Matrix_8cpp.html#a329d78c031733cf22ff7518f5d38fd74" target="_top" xlink:title=" ">
<polygon fill="white" stroke="#666666" points="462,-137 376,-137 376,-118 462,-118 462,-137"/>
<text text-anchor="middle" x="419" y="-125" font-family="Helvetica,sans-Serif" font-size="10.00">AddHudMatrix</text>
</a>
</g>
</g>
<!-- Node5&#45;&gt;Node6 -->
<g id="edge5_Node000005_Node000006" class="edge">
<title>Node5&#45;&gt;Node6</title>
<g id="a_edge5_Node000005_Node000006"><a xlink:title=" ">
<path fill="none" stroke="#63b8ff" d="M295.2,-127.5C318.97,-127.5 344.23,-127.5 365.62,-127.5"/>
<polygon fill="#63b8ff" stroke="#63b8ff" points="365.78,-131 375.78,-127.5 365.78,-124 365.78,-131"/>
</a>
</g>
</g>
<!-- Node12 -->
<g id="Node000012" class="node">
<title>Node12</title>
<g id="a_Node000012"><a xlink:href="math__util__2_8c.html#ae71383a9d7f97bcb240b23f68068ab30" target="_top" xlink:title=" ">
<polygon fill="white" stroke="#666666" points="507,-81 331,-81 331,-62 507,-62 507,-81"/>
<text text-anchor="middle" x="419" y="-69" font-family="Helvetica,sans-Serif" font-size="10.00">mtxf_set_matrix_transformation</text>
</a>
</g>
</g>
<!-- Node5&#45;&gt;Node12 -->
<g id="edge11_Node000005_Node000012" class="edge">
<title>Node5&#45;&gt;Node12</title>
<g id="a_edge11_Node000005_Node000012"><a xlink:title=" ">
<path fill="none" stroke="#63b8ff" d="M247.83,-117.87C282.59,-108.4 335.79,-93.9 373.44,-83.64"/>
<polygon fill="#63b8ff" stroke="#63b8ff" points="374.41,-87.01 383.13,-81 372.57,-80.25 374.41,-87.01"/>
</a>
</g>
</g>
<!-- Node7 -->
<g id="Node000007" class="node">
<title>Node7</title>
<g id="a_Node000007"><a xlink:href="Matrix_8cpp.html#a67401ed1d8de1f4d3a3e5a7b72842b6a" target="_top" xlink:title=" ">
<polygon fill="white" stroke="#666666" points="610,-169 543,-169 543,-150 610,-150 610,-169"/>
<text text-anchor="middle" x="576.5" y="-157" font-family="Helvetica,sans-Serif" font-size="10.00">AddMatrix</text>
</a>
</g>
</g>
<!-- Node6&#45;&gt;Node7 -->
<g id="edge6_Node000006_Node000007" class="edge">
<title>Node6&#45;&gt;Node7</title>
<g id="a_edge6_Node000006_Node000007"><a xlink:title=" ">
<path fill="none" stroke="#63b8ff" d="M462.08,-136.16C483.98,-140.67 510.69,-146.16 532.69,-150.69"/>
<polygon fill="#63b8ff" stroke="#63b8ff" points="532.26,-154.17 542.76,-152.76 533.67,-147.32 532.26,-154.17"/>
</a>
</g>
</g>
<!-- Node11 -->
<g id="Node000011" class="node">
<title>Node11</title>
<g id="a_Node000011"><a xlink:href="Game_8cpp.html#ae2fa844b3cb1021ecbc357f8ed2ad8cc" target="_top" xlink:title=" ">
<polygon fill="white" stroke="#666666" points="607.5,-132 545.5,-132 545.5,-113 607.5,-113 607.5,-132"/>
<text text-anchor="middle" x="576.5" y="-120" font-family="Helvetica,sans-Serif" font-size="10.00">GetWorld</text>
</a>
</g>
</g>
<!-- Node6&#45;&gt;Node11 -->
<g id="edge10_Node000006_Node000011" class="edge">
<title>Node6&#45;&gt;Node11</title>
<g id="a_edge10_Node000006_Node000011"><a xlink:title=" ">
<path fill="none" stroke="#63b8ff" d="M462.08,-126.15C484.75,-125.42 512.59,-124.52 535.02,-123.8"/>
<polygon fill="#63b8ff" stroke="#63b8ff" points="535.34,-127.29 545.22,-123.47 535.11,-120.3 535.34,-127.29"/>
</a>
</g>
</g>
<!-- Node8 -->
<g id="Node000008" class="node">
<title>Node8</title>
<g id="a_Node000008"><a xlink:href="FrameInterpolation_8cpp.html#a8cf1f2d6fabc6925aa71a9515341b4aa" target="_top" xlink:title=" ">
<polygon fill="white" stroke="#666666" points="804,-174.5 664,-174.5 664,-144.5 804,-144.5 804,-174.5"/>
<text text-anchor="start" x="672" y="-162.5" font-family="Helvetica,sans-Serif" font-size="10.00">FrameInterpolation</text>
<text text-anchor="middle" x="734" y="-151.5" font-family="Helvetica,sans-Serif" font-size="10.00">_RecordMatrixMtxFToMtx</text>
</a>
</g>
</g>
<!-- Node7&#45;&gt;Node8 -->
<g id="edge7_Node000007_Node000008" class="edge">
<title>Node7&#45;&gt;Node8</title>
<g id="a_edge7_Node000007_Node000008"><a xlink:title=" ">
<path fill="none" stroke="#63b8ff" d="M610.1,-159.5C622.96,-159.5 638.33,-159.5 653.79,-159.5"/>
<polygon fill="#63b8ff" stroke="#63b8ff" points="653.93,-163 663.93,-159.5 653.93,-156 653.93,-163"/>
</a>
</g>
</g>
<!-- Node10 -->
<g id="Node000010" class="node">
<title>Node10</title>
<g id="a_Node000010"><a xlink:href="guMtxF2L_8c.html#a40ab2d64c609839ff1e0ef0de2d0dcc4" target="_top" xlink:title=" ">
<polygon fill="white" stroke="#666666" points="766.5,-126 701.5,-126 701.5,-107 766.5,-107 766.5,-126"/>
<text text-anchor="middle" x="734" y="-114" font-family="Helvetica,sans-Serif" font-size="10.00">guMtxF2L</text>
</a>
</g>
</g>
<!-- Node7&#45;&gt;Node10 -->
<g id="edge9_Node000007_Node000010" class="edge">
<title>Node7&#45;&gt;Node10</title>
<g id="a_edge9_Node000007_Node000010"><a xlink:title=" ">
<path fill="none" stroke="#63b8ff" d="M602.32,-149.98C615.22,-145.24 631.33,-139.66 646,-135.5 660.6,-131.36 676.8,-127.61 691.22,-124.54"/>
<polygon fill="#63b8ff" stroke="#63b8ff" points="692.28,-127.9 701.36,-122.44 690.86,-121.05 692.28,-127.9"/>
</a>
</g>
</g>
<!-- Node9 -->
<g id="Node000009" class="node">
<title>Node9</title>
<g id="a_Node000009"><a xlink:href="FrameInterpolation_8cpp.html#a02c7ac5342a4d376edee38f312b480bf" target="_top" xlink:title=" ">
<polygon fill="white" stroke="#666666" points="966,-113 858,-113 858,-94 966,-94 966,-113"/>
<text text-anchor="middle" x="912" y="-101" font-family="Helvetica,sans-Serif" font-size="10.00">check_if_recording</text>
</a>
</g>
</g>
<!-- Node8&#45;&gt;Node9 -->
<g id="edge8_Node000008_Node000009" class="edge">
<title>Node8&#45;&gt;Node9</title>
<g id="a_edge8_Node000008_Node000009"><a xlink:title=" ">
<path fill="none" stroke="#63b8ff" d="M791.81,-144.5C801.91,-141.64 812.29,-138.58 822,-135.5 840.02,-129.79 859.82,-122.74 876.17,-116.72"/>
<polygon fill="#63b8ff" stroke="#63b8ff" points="877.7,-119.88 885.85,-113.12 875.26,-113.32 877.7,-119.88"/>
</a>
</g>
</g>
<!-- Node13 -->
<g id="Node000013" class="node">
<title>Node13</title>
<g id="a_Node000013"><a xlink:href="math__util_8c.html#ae69cbf5c8d4b3b0dba2d7b4d4673689f" target="_top" xlink:title=" ">
<polygon fill="white" stroke="#666666" points="595.5,-95 557.5,-95 557.5,-76 595.5,-76 595.5,-95"/>
<text text-anchor="middle" x="576.5" y="-83" font-family="Helvetica,sans-Serif" font-size="10.00">coss</text>
</a>
</g>
</g>
<!-- Node12&#45;&gt;Node13 -->
<g id="edge12_Node000012_Node000013" class="edge">
<title>Node12&#45;&gt;Node13</title>
<g id="a_edge12_Node000012_Node000013"><a xlink:title=" ">
<path fill="none" stroke="#63b8ff" d="M507.3,-79.36C521.67,-80.65 535.6,-81.91 547.09,-82.94"/>
<polygon fill="#63b8ff" stroke="#63b8ff" points="547.01,-86.45 557.29,-83.86 547.64,-79.48 547.01,-86.45"/>
</a>
</g>
</g>
<!-- Node14 -->
<g id="Node000014" class="node">
<title>Node14</title>
<g id="a_Node000014"><a xlink:href="FrameInterpolation_8cpp.html#af749df1a96bee5c78287b1845455ae2d" target="_top" xlink:title=" ">
<polygon fill="white" stroke="#666666" points="822,-75.5 646,-75.5 646,-45.5 822,-45.5 822,-75.5"/>
<text text-anchor="start" x="654" y="-63.5" font-family="Helvetica,sans-Serif" font-size="10.00">FrameInterpolation</text>
<text text-anchor="middle" x="734" y="-52.5" font-family="Helvetica,sans-Serif" font-size="10.00">_RecordSetMatrixTransformation</text>
</a>
</g>
</g>
<!-- Node12&#45;&gt;Node14 -->
<g id="edge13_Node000012_Node000014" class="edge">
<title>Node12&#45;&gt;Node14</title>
<g id="a_edge13_Node000012_Node000014"><a xlink:title=" ">
<path fill="none" stroke="#63b8ff" d="M507.19,-68.44C547.13,-67.03 594.61,-65.36 635.71,-63.92"/>
<polygon fill="#63b8ff" stroke="#63b8ff" points="635.87,-67.42 645.74,-63.57 635.62,-60.42 635.87,-67.42"/>
</a>
</g>
</g>
<!-- Node15 -->
<g id="Node000015" class="node">
<title>Node15</title>
<g id="a_Node000015"><a xlink:href="math__util_8c.html#a19ed3bd78fd2d3e2bd0a29f6caf48545" target="_top" xlink:title=" ">
<polygon fill="white" stroke="#666666" points="594.5,-19 558.5,-19 558.5,0 594.5,0 594.5,-19"/>
<text text-anchor="middle" x="576.5" y="-7" font-family="Helvetica,sans-Serif" font-size="10.00">sins</text>
</a>
</g>
</g>
<!-- Node12&#45;&gt;Node15 -->
<g id="edge15_Node000012_Node000015" class="edge">
<title>Node12&#45;&gt;Node15</title>
<g id="a_edge15_Node000012_Node000015"><a xlink:title=" ">
<path fill="none" stroke="#63b8ff" d="M443.96,-61.95C472.31,-50.65 519.37,-31.88 548.85,-20.13"/>
<polygon fill="#63b8ff" stroke="#63b8ff" points="550.49,-23.24 558.48,-16.29 547.9,-16.74 550.49,-23.24"/>
</a>
</g>
</g>
<!-- Node14&#45;&gt;Node9 -->
<g id="edge14_Node000014_Node000009" class="edge">
<title>Node14&#45;&gt;Node9</title>
<g id="a_edge14_Node000014_Node000009"><a xlink:title=" ">
<path fill="none" stroke="#63b8ff" d="M796.56,-75.54C818.01,-80.78 841.78,-86.59 862.07,-91.54"/>
<polygon fill="#63b8ff" stroke="#63b8ff" points="861.48,-95 872.03,-93.98 863.14,-88.2 861.48,-95"/>
</a>
</g>
</g>
</g>
</svg>
