<?xml version="1.0" encoding="UTF-8" standalone="no"?>
<!DOCTYPE svg PUBLIC "-//W3C//DTD SVG 1.1//EN"
 "http://www.w3.org/Graphics/SVG/1.1/DTD/svg11.dtd">
<!-- Generated by graphviz version 2.43.0 (0)
 -->
<!-- Title: ChocoMountain::Draw Pages: 1 -->
<svg width="710pt" height="176pt"
 viewBox="0.00 0.00 710.00 176.00" xmlns="http://www.w3.org/2000/svg" xmlns:xlink="http://www.w3.org/1999/xlink">
<g id="graph0" class="graph" transform="scale(1 1) rotate(0) translate(4 172)">
<title>ChocoMountain::Draw</title>
<!-- Node1 -->
<g id="Node000001" class="node">
<title>Node1</title>
<g id="a_Node000001"><a xlink:title=" ">
<polygon fill="#999999" stroke="#666666" points="124,-130 0,-130 0,-111 124,-111 124,-130"/>
<text text-anchor="middle" x="62" y="-118" font-family="Helvetica,sans-Serif" font-size="10.00">ChocoMountain::Draw</text>
</a>
</g>
</g>
<!-- Node2 -->
<g id="Node000002" class="node">
<title>Node2</title>
<g id="a_Node000002"><a xlink:href="render__courses_8c.html#a9a9119b96bf015cf8b5a168485f67e3f" target="_top" xlink:title=" ">
<polygon fill="white" stroke="#666666" points="268,-168 176,-168 176,-149 268,-149 268,-168"/>
<text text-anchor="middle" x="222" y="-156" font-family="Helvetica,sans-Serif" font-size="10.00">func_80290C20</text>
</a>
</g>
</g>
<!-- Node1&#45;&gt;Node2 -->
<g id="edge1_Node000001_Node000002" class="edge">
<title>Node1&#45;&gt;Node2</title>
<g id="a_edge1_Node000001_Node000002"><a xlink:title=" ">
<path fill="none" stroke="#63b8ff" d="M102.87,-130.09C123.72,-135.1 149.43,-141.29 171.54,-146.61"/>
<polygon fill="#63b8ff" stroke="#63b8ff" points="170.88,-150.04 181.42,-148.98 172.51,-143.24 170.88,-150.04"/>
</a>
</g>
</g>
<!-- Node3 -->
<g id="Node000003" class="node">
<title>Node3</title>
<g id="a_Node000003"><a xlink:href="GBIMiddleware_8cpp.html#a4ecc44e3c6f1ca5a6b4a20c41d3bd2d2" target="_top" xlink:title=" ">
<polygon fill="white" stroke="#666666" points="423,-130 334,-130 334,-111 423,-111 423,-130"/>
<text text-anchor="middle" x="378.5" y="-118" font-family="Helvetica,sans-Serif" font-size="10.00">gSPDisplayList</text>
</a>
</g>
</g>
<!-- Node1&#45;&gt;Node3 -->
<g id="edge2_Node000001_Node000003" class="edge">
<title>Node1&#45;&gt;Node3</title>
<g id="a_edge2_Node000001_Node000003"><a xlink:title=" ">
<path fill="none" stroke="#63b8ff" d="M124.01,-120.5C181.91,-120.5 268.08,-120.5 323.53,-120.5"/>
<polygon fill="#63b8ff" stroke="#63b8ff" points="323.86,-124 333.86,-120.5 323.86,-117 323.86,-124"/>
</a>
</g>
</g>
<!-- Node6 -->
<g id="Node000006" class="node">
<title>Node6</title>
<g id="a_Node000006"><a xlink:href="render__courses_8c.html#aa2d036c2083162fb6a9fe86ebd20386b" target="_top" xlink:title=" ">
<polygon fill="white" stroke="#666666" points="284,-92 160,-92 160,-73 284,-73 284,-92"/>
<text text-anchor="middle" x="222" y="-80" font-family="Helvetica,sans-Serif" font-size="10.00">render_track_sections</text>
</a>
</g>
</g>
<!-- Node1&#45;&gt;Node6 -->
<g id="edge5_Node000001_Node000006" class="edge">
<title>Node1&#45;&gt;Node6</title>
<g id="a_edge5_Node000001_Node000006"><a xlink:title=" ">
<path fill="none" stroke="#63b8ff" d="M102.87,-110.91C123.72,-105.9 149.43,-99.71 171.54,-94.39"/>
<polygon fill="#63b8ff" stroke="#63b8ff" points="172.51,-97.76 181.42,-92.02 170.88,-90.96 172.51,-97.76"/>
</a>
</g>
</g>
<!-- Node4 -->
<g id="Node000004" class="node">
<title>Node4</title>
<g id="a_Node000004"><a xlink:href="Engine_8cpp.html#a223c8bc63f228dc11177515e38eff2db" target="_top" xlink:title=" ">
<polygon fill="white" stroke="#666666" points="622,-130 473,-130 473,-111 622,-111 622,-130"/>
<text text-anchor="middle" x="547.5" y="-118" font-family="Helvetica,sans-Serif" font-size="10.00">GameEngine_OTRSigCheck</text>
</a>
</g>
</g>
<!-- Node3&#45;&gt;Node4 -->
<g id="edge3_Node000003_Node000004" class="edge">
<title>Node3&#45;&gt;Node4</title>
<g id="a_edge3_Node000003_Node000004"><a xlink:title=" ">
<path fill="none" stroke="#63b8ff" d="M423.38,-120.5C435.47,-120.5 449,-120.5 462.55,-120.5"/>
<polygon fill="#63b8ff" stroke="#63b8ff" points="462.89,-124 472.89,-120.5 462.89,-117 462.89,-124"/>
</a>
</g>
</g>
<!-- Node5 -->
<g id="Node000005" class="node">
<title>Node5</title>
<g id="a_Node000005"><a xlink:href="string_8c.html#a008e171a518fe0e0352f31b245e03875" target="_top" xlink:title=" ">
<polygon fill="white" stroke="#666666" points="702,-130 658,-130 658,-111 702,-111 702,-130"/>
<text text-anchor="middle" x="680" y="-118" font-family="Helvetica,sans-Serif" font-size="10.00">strlen</text>
</a>
</g>
</g>
<!-- Node4&#45;&gt;Node5 -->
<g id="edge4_Node000004_Node000005" class="edge">
<title>Node4&#45;&gt;Node5</title>
<g id="a_edge4_Node000004_Node000005"><a xlink:title=" ">
<path fill="none" stroke="#63b8ff" d="M622.14,-120.5C631.12,-120.5 639.89,-120.5 647.75,-120.5"/>
<polygon fill="#63b8ff" stroke="#63b8ff" points="647.83,-124 657.83,-120.5 647.83,-117 647.83,-124"/>
</a>
</g>
</g>
<!-- Node6&#45;&gt;Node3 -->
<g id="edge7_Node000006_Node000003" class="edge">
<title>Node6&#45;&gt;Node3</title>
<g id="a_edge7_Node000006_Node000003"><a xlink:title=" ">
<path fill="none" stroke="#63b8ff" d="M261.99,-92.09C282.28,-97.08 307.29,-103.23 328.85,-108.53"/>
<polygon fill="#63b8ff" stroke="#63b8ff" points="328.25,-111.99 338.79,-110.98 329.92,-105.19 328.25,-111.99"/>
</a>
</g>
</g>
<!-- Node7 -->
<g id="Node000007" class="node">
<title>Node7</title>
<g id="a_Node000007"><a xlink:href="collision_8c.html#a053809031f467d0a6747788211e0ec69" target="_top" xlink:title=" ">
<polygon fill="white" stroke="#666666" points="437,-93 320,-93 320,-74 437,-74 437,-93"/>
<text text-anchor="middle" x="378.5" y="-81" font-family="Helvetica,sans-Serif" font-size="10.00">get_track_section_id</text>
</a>
</g>
</g>
<!-- Node6&#45;&gt;Node7 -->
<g id="edge6_Node000006_Node000007" class="edge">
<title>Node6&#45;&gt;Node7</title>
<g id="a_edge6_Node000006_Node000007"><a xlink:title=" ">
<path fill="none" stroke="#63b8ff" d="M284.06,-82.9C292.46,-82.95 301.12,-83.01 309.63,-83.06"/>
<polygon fill="#63b8ff" stroke="#63b8ff" points="309.88,-86.56 319.9,-83.13 309.92,-79.56 309.88,-86.56"/>
</a>
</g>
</g>
<!-- Node8 -->
<g id="Node000008" class="node">
<title>Node8</title>
<g id="a_Node000008"><a xlink:href="Game_8cpp.html#a8ebd6a4d970e4333ab5a9dd66c3d9c48" target="_top" xlink:title=" ">
<polygon fill="white" stroke="#666666" points="427,-56 330,-56 330,-37 427,-37 427,-56"/>
<text text-anchor="middle" x="378.5" y="-44" font-family="Helvetica,sans-Serif" font-size="10.00">IsBowsersCastle</text>
</a>
</g>
</g>
<!-- Node6&#45;&gt;Node8 -->
<g id="edge8_Node000006_Node000008" class="edge">
<title>Node6&#45;&gt;Node8</title>
<g id="a_edge8_Node000006_Node000008"><a xlink:title=" ">
<path fill="none" stroke="#63b8ff" d="M264,-72.95C283.28,-68.45 306.46,-63.05 326.83,-58.31"/>
<polygon fill="#63b8ff" stroke="#63b8ff" points="327.63,-61.71 336.58,-56.03 326.05,-54.9 327.63,-61.71"/>
</a>
</g>
</g>
<!-- Node11 -->
<g id="Node000011" class="node">
<title>Node11</title>
<g id="a_Node000011"><a xlink:href="Game_8cpp.html#a9f5c2ace915f66e850628695f297b1ff" target="_top" xlink:title=" ">
<polygon fill="white" stroke="#666666" points="429,-19 328,-19 328,0 429,0 429,-19"/>
<text text-anchor="middle" x="378.5" y="-7" font-family="Helvetica,sans-Serif" font-size="10.00">IsChocoMountain</text>
</a>
</g>
</g>
<!-- Node6&#45;&gt;Node11 -->
<g id="edge11_Node000006_Node000011" class="edge">
<title>Node6&#45;&gt;Node11</title>
<g id="a_edge11_Node000006_Node000011"><a xlink:title=" ">
<path fill="none" stroke="#63b8ff" d="M237.61,-72.9C256.17,-61.03 289.46,-40.76 320,-27.5 324.16,-25.69 328.56,-23.98 333,-22.39"/>
<polygon fill="#63b8ff" stroke="#63b8ff" points="334.37,-25.62 342.71,-19.08 332.11,-18.99 334.37,-25.62"/>
</a>
</g>
</g>
<!-- Node9 -->
<g id="Node000009" class="node">
<title>Node9</title>
<g id="a_Node000009"><a xlink:href="classWorld.html#a1a4dacc6aea0b846df998be0afc239f7" target="_top" xlink:title=" ">
<polygon fill="white" stroke="#666666" points="594,-19 501,-19 501,0 594,0 594,-19"/>
<text text-anchor="middle" x="547.5" y="-7" font-family="Helvetica,sans-Serif" font-size="10.00">World::GetTrack</text>
</a>
</g>
</g>
<!-- Node8&#45;&gt;Node9 -->
<g id="edge9_Node000008_Node000009" class="edge">
<title>Node8&#45;&gt;Node9</title>
<g id="a_edge9_Node000008_Node000009"><a xlink:title=" ">
<path fill="none" stroke="#63b8ff" d="M422.51,-36.97C444.14,-32.18 470.56,-26.32 493.45,-21.25"/>
<polygon fill="#63b8ff" stroke="#63b8ff" points="494.34,-24.64 503.35,-19.06 492.83,-17.81 494.34,-24.64"/>
</a>
</g>
</g>
<!-- Node10 -->
<g id="Node000010" class="node">
<title>Node10</title>
<g id="a_Node000010"><a xlink:href="Game_8cpp.html#ae2fa844b3cb1021ecbc357f8ed2ad8cc" target="_top" xlink:title=" ">
<polygon fill="white" stroke="#666666" points="578.5,-56 516.5,-56 516.5,-37 578.5,-37 578.5,-56"/>
<text text-anchor="middle" x="547.5" y="-44" font-family="Helvetica,sans-Serif" font-size="10.00">GetWorld</text>
</a>
</g>
</g>
<!-- Node8&#45;&gt;Node10 -->
<g id="edge10_Node000008_Node000010" class="edge">
<title>Node8&#45;&gt;Node10</title>
<g id="a_edge10_Node000008_Node000010"><a xlink:title=" ">
<path fill="none" stroke="#63b8ff" d="M427.36,-46.5C452.21,-46.5 482.25,-46.5 505.94,-46.5"/>
<polygon fill="#63b8ff" stroke="#63b8ff" points="506.01,-50 516.01,-46.5 506.01,-43 506.01,-50"/>
</a>
</g>
</g>
<!-- Node11&#45;&gt;Node9 -->
<g id="edge12_Node000011_Node000009" class="edge">
<title>Node11&#45;&gt;Node9</title>
<g id="a_edge12_Node000011_Node000009"><a xlink:title=" ">
<path fill="none" stroke="#63b8ff" d="M429.15,-9.5C448.48,-9.5 470.71,-9.5 490.59,-9.5"/>
<polygon fill="#63b8ff" stroke="#63b8ff" points="490.75,-13 500.75,-9.5 490.75,-6 490.75,-13"/>
</a>
</g>
</g>
<!-- Node11&#45;&gt;Node10 -->
<g id="edge13_Node000011_Node000010" class="edge">
<title>Node11&#45;&gt;Node10</title>
<g id="a_edge13_Node000011_Node000010"><a xlink:title=" ">
<path fill="none" stroke="#63b8ff" d="M422.51,-19.03C448.33,-24.75 480.97,-31.98 506.28,-37.59"/>
<polygon fill="#63b8ff" stroke="#63b8ff" points="505.76,-41.06 516.28,-39.8 507.28,-34.22 505.76,-41.06"/>
</a>
</g>
</g>
</g>
</svg>
