<?xml version="1.0" encoding="UTF-8" standalone="no"?>
<!DOCTYPE svg PUBLIC "-//W3C//DTD SVG 1.1//EN"
 "http://www.w3.org/Graphics/SVG/1.1/DTD/svg11.dtd">
<!-- Generated by graphviz version 2.43.0 (0)
 -->
<!-- Title: func_80089820 Pages: 1 -->
<svg width="383pt" height="272pt"
 viewBox="0.00 0.00 383.00 272.00" xmlns="http://www.w3.org/2000/svg" xmlns:xlink="http://www.w3.org/1999/xlink">
<g id="graph0" class="graph" transform="scale(1 1) rotate(0) translate(4 268)">
<title>func_80089820</title>
<!-- Node1 -->
<g id="Node000001" class="node">
<title>Node1</title>
<g id="a_Node000001"><a xlink:title=" ">
<polygon fill="#999999" stroke="#666666" points="91,-153 0,-153 0,-134 91,-134 91,-153"/>
<text text-anchor="middle" x="45.5" y="-141" font-family="Helvetica,sans-Serif" font-size="10.00">func_80089820</text>
</a>
</g>
</g>
<!-- Node2 -->
<g id="Node000002" class="node">
<title>Node2</title>
<g id="a_Node000002"><a xlink:href="update__objects_8c.html#a3953241e15c6372ac8944ba842148a9a" target="_top" xlink:title=" ">
<polygon fill="white" stroke="#666666" points="246.5,-264 147.5,-264 147.5,-245 246.5,-245 246.5,-264"/>
<text text-anchor="middle" x="197" y="-252" font-family="Helvetica,sans-Serif" font-size="10.00">clear_object_flag</text>
</a>
</g>
</g>
<!-- Node1&#45;&gt;Node2 -->
<g id="edge1_Node000001_Node000002" class="edge">
<title>Node1&#45;&gt;Node2</title>
<g id="a_edge1_Node000001_Node000002"><a xlink:title=" ">
<path fill="none" stroke="#63b8ff" d="M52.01,-153.08C63.44,-172.06 91.64,-214.51 127,-236.5 130.39,-238.61 134.03,-240.47 137.79,-242.12"/>
<polygon fill="#63b8ff" stroke="#63b8ff" points="136.74,-245.46 147.33,-245.78 139.24,-238.93 136.74,-245.46"/>
</a>
</g>
</g>
<!-- Node3 -->
<g id="Node000003" class="node">
<title>Node3</title>
<g id="a_Node000003"><a xlink:href="update__objects_8c.html#ae57757eefbb9b9d12420ed66ad408175" target="_top" xlink:title=" ">
<polygon fill="white" stroke="#666666" points="242.5,-227 151.5,-227 151.5,-208 242.5,-208 242.5,-227"/>
<text text-anchor="middle" x="197" y="-215" font-family="Helvetica,sans-Serif" font-size="10.00">func_80072180</text>
</a>
</g>
</g>
<!-- Node1&#45;&gt;Node3 -->
<g id="edge2_Node000001_Node000003" class="edge">
<title>Node1&#45;&gt;Node3</title>
<g id="a_edge2_Node000001_Node000003"><a xlink:title=" ">
<path fill="none" stroke="#63b8ff" d="M57.45,-153.03C72.26,-165.45 99.94,-187.04 127,-199.5 131.66,-201.65 136.62,-203.57 141.66,-205.28"/>
<polygon fill="#63b8ff" stroke="#63b8ff" points="140.8,-208.68 151.39,-208.33 142.89,-202 140.8,-208.68"/>
</a>
</g>
</g>
<!-- Node4 -->
<g id="Node000004" class="node">
<title>Node4</title>
<g id="a_Node000004"><a xlink:href="code__80086E70_8c.html#a89d2ee49e7cccb69972483f2f8dcb214" target="_top" xlink:title=" ">
<polygon fill="white" stroke="#666666" points="243,-190 151,-190 151,-171 243,-171 243,-190"/>
<text text-anchor="middle" x="197" y="-178" font-family="Helvetica,sans-Serif" font-size="10.00">func_8008933C</text>
</a>
</g>
</g>
<!-- Node1&#45;&gt;Node4 -->
<g id="edge3_Node000001_Node000004" class="edge">
<title>Node1&#45;&gt;Node4</title>
<g id="a_edge3_Node000001_Node000004"><a xlink:title=" ">
<path fill="none" stroke="#63b8ff" d="M85,-153.03C104.02,-157.74 127.17,-163.47 147.4,-168.47"/>
<polygon fill="#63b8ff" stroke="#63b8ff" points="146.82,-171.93 157.37,-170.94 148.5,-165.14 146.82,-171.93"/>
</a>
</g>
</g>
<!-- Node5 -->
<g id="Node000005" class="node">
<title>Node5</title>
<g id="a_Node000005"><a xlink:href="external_8c.html#a2be9efc97a92e19d02aaee90d676acc1" target="_top" xlink:title=" ">
<polygon fill="white" stroke="#666666" points="243,-153 151,-153 151,-134 243,-134 243,-153"/>
<text text-anchor="middle" x="197" y="-141" font-family="Helvetica,sans-Serif" font-size="10.00">func_800C9060</text>
</a>
</g>
</g>
<!-- Node1&#45;&gt;Node5 -->
<g id="edge4_Node000001_Node000005" class="edge">
<title>Node1&#45;&gt;Node5</title>
<g id="a_edge4_Node000001_Node000005"><a xlink:title=" ">
<path fill="none" stroke="#63b8ff" d="M91.35,-143.5C106.81,-143.5 124.3,-143.5 140.5,-143.5"/>
<polygon fill="#63b8ff" stroke="#63b8ff" points="140.92,-147 150.92,-143.5 140.92,-140 140.92,-147"/>
</a>
</g>
</g>
<!-- Node7 -->
<g id="Node000007" class="node">
<title>Node7</title>
<g id="a_Node000007"><a xlink:href="code__80086E70_8c.html#a3c54cb4036c93218b440fc6eb1cf88a9" target="_top" xlink:title="Returns if the object collided with the player.">
<polygon fill="white" stroke="#666666" points="267,-115.5 127,-115.5 127,-85.5 267,-85.5 267,-115.5"/>
<text text-anchor="start" x="135" y="-103.5" font-family="Helvetica,sans-Serif" font-size="10.00">has_collided_horizontally</text>
<text text-anchor="middle" x="197" y="-92.5" font-family="Helvetica,sans-Serif" font-size="10.00">_with_player</text>
</a>
</g>
</g>
<!-- Node1&#45;&gt;Node7 -->
<g id="edge6_Node000001_Node000007" class="edge">
<title>Node1&#45;&gt;Node7</title>
<g id="a_edge6_Node000001_Node000007"><a xlink:title=" ">
<path fill="none" stroke="#63b8ff" d="M79.68,-133.96C95.72,-129.34 115.51,-123.65 134.19,-118.28"/>
<polygon fill="#63b8ff" stroke="#63b8ff" points="135.18,-121.63 143.83,-115.51 133.25,-114.91 135.18,-121.63"/>
</a>
</g>
</g>
<!-- Node8 -->
<g id="Node000008" class="node">
<title>Node8</title>
<g id="a_Node000008"><a xlink:href="update__objects_8c.html#ae85ab923e54f707801592c71f2a847cd" target="_top" xlink:title=" ">
<polygon fill="white" stroke="#666666" points="249,-67.5 145,-67.5 145,-37.5 249,-37.5 249,-67.5"/>
<text text-anchor="start" x="153" y="-55.5" font-family="Helvetica,sans-Serif" font-size="10.00">is_obj_flag_status</text>
<text text-anchor="middle" x="197" y="-44.5" font-family="Helvetica,sans-Serif" font-size="10.00">_active</text>
</a>
</g>
</g>
<!-- Node1&#45;&gt;Node8 -->
<g id="edge7_Node000001_Node000008" class="edge">
<title>Node1&#45;&gt;Node8</title>
<g id="a_edge7_Node000001_Node000008"><a xlink:title=" ">
<path fill="none" stroke="#63b8ff" d="M56.04,-133.55C70.28,-119.19 98.51,-92.6 127,-76.5 130.02,-74.79 133.18,-73.18 136.41,-71.66"/>
<polygon fill="#63b8ff" stroke="#63b8ff" points="137.93,-74.81 145.69,-67.6 135.12,-68.4 137.93,-74.81"/>
</a>
</g>
</g>
<!-- Node9 -->
<g id="Node000009" class="node">
<title>Node9</title>
<g id="a_Node000009"><a xlink:href="update__objects_8c.html#afe64f2394ee0deab6370b77609500bda" target="_top" xlink:title=" ">
<polygon fill="white" stroke="#666666" points="242,-19 152,-19 152,0 242,0 242,-19"/>
<text text-anchor="middle" x="197" y="-7" font-family="Helvetica,sans-Serif" font-size="10.00">set_object_flag</text>
</a>
</g>
</g>
<!-- Node1&#45;&gt;Node9 -->
<g id="edge8_Node000001_Node000009" class="edge">
<title>Node1&#45;&gt;Node9</title>
<g id="a_edge8_Node000001_Node000009"><a xlink:title=" ">
<path fill="none" stroke="#63b8ff" d="M50.51,-133.77C60.17,-111.53 86.97,-56.74 127,-28.5 131.75,-25.15 137.06,-22.39 142.58,-20.12"/>
<polygon fill="#63b8ff" stroke="#63b8ff" points="143.77,-23.41 151.99,-16.73 141.4,-16.82 143.77,-23.41"/>
</a>
</g>
</g>
<!-- Node6 -->
<g id="Node000006" class="node">
<title>Node6</title>
<g id="a_Node000006"><a xlink:href="external_8c.html#a475cff796211891556f52877cd8e9b9e" target="_top" xlink:title=" ">
<polygon fill="white" stroke="#666666" points="375,-153 303,-153 303,-134 375,-134 375,-153"/>
<text text-anchor="middle" x="339" y="-141" font-family="Helvetica,sans-Serif" font-size="10.00">play_sound</text>
</a>
</g>
</g>
<!-- Node5&#45;&gt;Node6 -->
<g id="edge5_Node000005_Node000006" class="edge">
<title>Node5&#45;&gt;Node6</title>
<g id="a_edge5_Node000005_Node000006"><a xlink:title=" ">
<path fill="none" stroke="#63b8ff" d="M243.07,-143.5C258.94,-143.5 276.77,-143.5 292.66,-143.5"/>
<polygon fill="#63b8ff" stroke="#63b8ff" points="292.78,-147 302.78,-143.5 292.78,-140 292.78,-147"/>
</a>
</g>
</g>
</g>
</svg>
