<?xml version="1.0" encoding="UTF-8" standalone="no"?>
<!DOCTYPE svg PUBLIC "-//W3C//DTD SVG 1.1//EN"
 "http://www.w3.org/Graphics/SVG/1.1/DTD/svg11.dtd">
<!-- Generated by graphviz version 2.43.0 (0)
 -->
<!-- Title: func_80086F10 Pages: 1 -->
<svg width="578pt" height="232pt"
 viewBox="0.00 0.00 578.00 232.00" xmlns="http://www.w3.org/2000/svg" xmlns:xlink="http://www.w3.org/1999/xlink">
<g id="graph0" class="graph" transform="scale(1 1) rotate(0) translate(4 228)">
<title>func_80086F10</title>
<!-- Node1 -->
<g id="Node000001" class="node">
<title>Node1</title>
<g id="a_Node000001"><a xlink:title=" ">
<polygon fill="#999999" stroke="#666666" points="570,-126.5 479,-126.5 479,-107.5 570,-107.5 570,-126.5"/>
<text text-anchor="middle" x="524.5" y="-114.5" font-family="Helvetica,sans-Serif" font-size="10.00">func_80086F10</text>
</a>
</g>
</g>
<!-- Node2 -->
<g id="Node000002" class="node">
<title>Node2</title>
<g id="a_Node000002"><a xlink:href="classOLakitu.html#a5dd2b8e546048528931a05efe4f2112c" target="_top" xlink:title=" ">
<polygon fill="white" stroke="#666666" points="443,-219.5 308,-219.5 308,-200.5 443,-200.5 443,-219.5"/>
<text text-anchor="middle" x="375.5" y="-207.5" font-family="Helvetica,sans-Serif" font-size="10.00">OLakitu::func_8007A060</text>
</a>
</g>
</g>
<!-- Node1&#45;&gt;Node2 -->
<g id="edge1_Node000001_Node000002" class="edge">
<title>Node1&#45;&gt;Node2</title>
<g id="a_edge1_Node000001_Node000002"><a xlink:title=" ">
<path fill="none" stroke="#63b8ff" d="M509.09,-134.71C494.25,-151.81 469.59,-177.23 443,-192 436.94,-195.37 430.21,-198.14 423.42,-200.4"/>
<polygon fill="#63b8ff" stroke="#63b8ff" points="512.14,-136.53 515.91,-126.63 506.79,-132.01 512.14,-136.53"/>
</a>
</g>
</g>
<!-- Node5 -->
<g id="Node000005" class="node">
<title>Node5</title>
<g id="a_Node000005"><a xlink:href="classOLakitu.html#a42e19b4d8c362a5d0ba176cefca65302" target="_top" xlink:title=" ">
<polygon fill="white" stroke="#666666" points="443,-182.5 308,-182.5 308,-163.5 443,-163.5 443,-182.5"/>
<text text-anchor="middle" x="375.5" y="-170.5" font-family="Helvetica,sans-Serif" font-size="10.00">OLakitu::func_8007A228</text>
</a>
</g>
</g>
<!-- Node1&#45;&gt;Node5 -->
<g id="edge4_Node000001_Node000005" class="edge">
<title>Node1&#45;&gt;Node5</title>
<g id="a_edge4_Node000001_Node000005"><a xlink:title=" ">
<path fill="none" stroke="#63b8ff" d="M496.7,-131.11C481.28,-138.86 461.38,-148.24 443,-155 434.47,-158.14 425.14,-161 416.24,-163.47"/>
<polygon fill="#63b8ff" stroke="#63b8ff" points="498.35,-134.2 505.67,-126.54 495.17,-127.96 498.35,-134.2"/>
</a>
</g>
</g>
<!-- Node7 -->
<g id="Node000007" class="node">
<title>Node7</title>
<g id="a_Node000007"><a xlink:href="classOLakitu.html#a017981056bc084fd044f78fc30141d1a" target="_top" xlink:title=" ">
<polygon fill="white" stroke="#666666" points="443,-145.5 308,-145.5 308,-126.5 443,-126.5 443,-145.5"/>
<text text-anchor="middle" x="375.5" y="-133.5" font-family="Helvetica,sans-Serif" font-size="10.00">OLakitu::func_8007A3F0</text>
</a>
</g>
</g>
<!-- Node1&#45;&gt;Node7 -->
<g id="edge7_Node000001_Node000007" class="edge">
<title>Node1&#45;&gt;Node7</title>
<g id="a_edge7_Node000001_Node000007"><a xlink:title=" ">
<path fill="none" stroke="#63b8ff" d="M468.94,-124.05C460.52,-125.14 451.74,-126.28 443.09,-127.39"/>
<polygon fill="#63b8ff" stroke="#63b8ff" points="469.53,-127.51 479,-122.75 468.63,-120.56 469.53,-127.51"/>
</a>
</g>
</g>
<!-- Node8 -->
<g id="Node000008" class="node">
<title>Node8</title>
<g id="a_Node000008"><a xlink:href="classOLakitu.html#a01c6e5ebe6c63ad17b9210af932880de" target="_top" xlink:title=" ">
<polygon fill="white" stroke="#666666" points="272,-128 143,-128 143,-98 272,-98 272,-128"/>
<text text-anchor="start" x="151" y="-116" font-family="Helvetica,sans-Serif" font-size="10.00">OLakitu::update_object</text>
<text text-anchor="middle" x="207.5" y="-105" font-family="Helvetica,sans-Serif" font-size="10.00">_lakitu_reverse</text>
</a>
</g>
</g>
<!-- Node1&#45;&gt;Node8 -->
<g id="edge13_Node000001_Node000008" class="edge">
<title>Node1&#45;&gt;Node8</title>
<g id="a_edge13_Node000001_Node000008"><a xlink:title=" ">
<path fill="none" stroke="#63b8ff" d="M468.5,-116.3C413.76,-115.61 329.82,-114.54 272.22,-113.81"/>
<polygon fill="#63b8ff" stroke="#63b8ff" points="468.66,-119.8 478.7,-116.43 468.75,-112.8 468.66,-119.8"/>
</a>
</g>
</g>
<!-- Node9 -->
<g id="Node000009" class="node">
<title>Node9</title>
<g id="a_Node000009"><a xlink:href="classOLakitu.html#ad04ac097ba3f1d4ba670c4cd8db4a5e3" target="_top" xlink:title=" ">
<polygon fill="white" stroke="#666666" points="440,-70 311,-70 311,-40 440,-40 440,-70"/>
<text text-anchor="start" x="319" y="-58" font-family="Helvetica,sans-Serif" font-size="10.00">OLakitu::init_obj_lakitu</text>
<text text-anchor="middle" x="375.5" y="-47" font-family="Helvetica,sans-Serif" font-size="10.00">_checkered_flag</text>
</a>
</g>
</g>
<!-- Node1&#45;&gt;Node9 -->
<g id="edge10_Node000001_Node000009" class="edge">
<title>Node1&#45;&gt;Node9</title>
<g id="a_edge10_Node000001_Node000009"><a xlink:title=" ">
<path fill="none" stroke="#63b8ff" d="M491.41,-103.46C468.08,-93.63 436.49,-80.3 412.34,-70.12"/>
<polygon fill="#63b8ff" stroke="#63b8ff" points="490.28,-106.79 500.85,-107.45 493,-100.34 490.28,-106.79"/>
</a>
</g>
</g>
<!-- Node11 -->
<g id="Node000011" class="node">
<title>Node11</title>
<g id="a_Node000011"><a xlink:href="classOLakitu.html#aef9bf9e2cb4783624b766105deb9aa87" target="_top" xlink:title=" ">
<polygon fill="white" stroke="#666666" points="272,-30 143,-30 143,0 272,0 272,-30"/>
<text text-anchor="start" x="151" y="-18" font-family="Helvetica,sans-Serif" font-size="10.00">OLakitu::update_object</text>
<text text-anchor="middle" x="207.5" y="-7" font-family="Helvetica,sans-Serif" font-size="10.00">_lakitu_starter</text>
</a>
</g>
</g>
<!-- Node1&#45;&gt;Node11 -->
<g id="edge14_Node000001_Node000011" class="edge">
<title>Node1&#45;&gt;Node11</title>
<g id="a_edge14_Node000001_Node000011"><a xlink:title=" ">
<path fill="none" stroke="#63b8ff" d="M512.56,-98.81C499.08,-78.26 474.08,-45.76 443,-31 389.46,-5.58 321.18,-3.85 272.13,-7.12"/>
<polygon fill="#63b8ff" stroke="#63b8ff" points="509.63,-100.72 517.93,-107.3 515.55,-96.98 509.63,-100.72"/>
</a>
</g>
</g>
<!-- Node3 -->
<g id="Node000003" class="node">
<title>Node3</title>
<g id="a_Node000003"><a xlink:href="classOLakitu.html#abfdaa3abf8ef74e63651c56934d0a346" target="_top" xlink:title=" ">
<polygon fill="white" stroke="#666666" points="272,-224 143,-224 143,-194 272,-194 272,-224"/>
<text text-anchor="start" x="151" y="-212" font-family="Helvetica,sans-Serif" font-size="10.00">OLakitu::update_object</text>
<text text-anchor="middle" x="207.5" y="-201" font-family="Helvetica,sans-Serif" font-size="10.00">_lakitu_second_lap</text>
</a>
</g>
</g>
<!-- Node2&#45;&gt;Node3 -->
<g id="edge2_Node000002_Node000003" class="edge">
<title>Node2&#45;&gt;Node3</title>
<g id="a_edge2_Node000002_Node000003"><a xlink:title=" ">
<path fill="none" stroke="#63b8ff" d="M297.88,-209.54C289.26,-209.49 280.54,-209.43 272.11,-209.38"/>
<polygon fill="#63b8ff" stroke="#63b8ff" points="297.92,-213.04 307.94,-209.6 297.96,-206.04 297.92,-213.04"/>
</a>
</g>
</g>
<!-- Node4 -->
<g id="Node000004" class="node">
<title>Node4</title>
<g id="a_Node000004"><a xlink:href="classOLakitu.html#a756134fe7caa2efdd9744c6c3134697f" target="_top" xlink:title=" ">
<polygon fill="white" stroke="#666666" points="107,-122.5 0,-122.5 0,-103.5 107,-103.5 107,-122.5"/>
<text text-anchor="middle" x="53.5" y="-110.5" font-family="Helvetica,sans-Serif" font-size="10.00">OLakitu::Tick60fps</text>
</a>
</g>
</g>
<!-- Node3&#45;&gt;Node4 -->
<g id="edge3_Node000003_Node000004" class="edge">
<title>Node3&#45;&gt;Node4</title>
<g id="a_edge3_Node000003_Node000004"><a xlink:title=" ">
<path fill="none" stroke="#63b8ff" d="M151.92,-189.72C148.85,-188.22 145.86,-186.65 143,-185 111.41,-166.82 79.51,-137.58 64.07,-122.57"/>
<polygon fill="#63b8ff" stroke="#63b8ff" points="150.71,-193.01 161.26,-193.97 153.61,-186.64 150.71,-193.01"/>
</a>
</g>
</g>
<!-- Node6 -->
<g id="Node000006" class="node">
<title>Node6</title>
<g id="a_Node000006"><a xlink:href="classOLakitu.html#a7fd95245254dbcd2be4c7980cd76f0c8" target="_top" xlink:title=" ">
<polygon fill="white" stroke="#666666" points="272,-176 143,-176 143,-146 272,-146 272,-176"/>
<text text-anchor="start" x="151" y="-164" font-family="Helvetica,sans-Serif" font-size="10.00">OLakitu::update_object</text>
<text text-anchor="middle" x="207.5" y="-153" font-family="Helvetica,sans-Serif" font-size="10.00">_lakitu_final_lap</text>
</a>
</g>
</g>
<!-- Node5&#45;&gt;Node6 -->
<g id="edge5_Node000005_Node000006" class="edge">
<title>Node5&#45;&gt;Node6</title>
<g id="a_edge5_Node000005_Node000006"><a xlink:title=" ">
<path fill="none" stroke="#63b8ff" d="M297.88,-167.46C289.26,-166.84 280.54,-166.21 272.11,-165.6"/>
<polygon fill="#63b8ff" stroke="#63b8ff" points="297.71,-170.96 307.94,-168.19 298.22,-163.98 297.71,-170.96"/>
</a>
</g>
</g>
<!-- Node6&#45;&gt;Node4 -->
<g id="edge6_Node000006_Node000004" class="edge">
<title>Node6&#45;&gt;Node4</title>
<g id="a_edge6_Node000006_Node000004"><a xlink:title=" ">
<path fill="none" stroke="#63b8ff" d="M149.27,-142.93C127.35,-136.01 103.22,-128.38 84.79,-122.56"/>
<polygon fill="#63b8ff" stroke="#63b8ff" points="148.23,-146.27 158.82,-145.94 150.34,-139.6 148.23,-146.27"/>
</a>
</g>
</g>
<!-- Node7&#45;&gt;Node8 -->
<g id="edge8_Node000007_Node000008" class="edge">
<title>Node7&#45;&gt;Node8</title>
<g id="a_edge8_Node000007_Node000008"><a xlink:title=" ">
<path fill="none" stroke="#63b8ff" d="M297.88,-125.38C289.26,-124.19 280.54,-122.98 272.11,-121.81"/>
<polygon fill="#63b8ff" stroke="#63b8ff" points="297.55,-128.87 307.94,-126.78 298.51,-121.94 297.55,-128.87"/>
</a>
</g>
</g>
<!-- Node8&#45;&gt;Node4 -->
<g id="edge9_Node000008_Node000004" class="edge">
<title>Node8&#45;&gt;Node4</title>
<g id="a_edge9_Node000008_Node000004"><a xlink:title=" ">
<path fill="none" stroke="#63b8ff" d="M132.83,-113C124.19,-113 115.51,-113 107.24,-113"/>
<polygon fill="#63b8ff" stroke="#63b8ff" points="132.92,-116.5 142.92,-113 132.92,-109.5 132.92,-116.5"/>
</a>
</g>
</g>
<!-- Node10 -->
<g id="Node000010" class="node">
<title>Node10</title>
<g id="a_Node000010"><a xlink:href="classOLakitu.html#aa7082bd935d7b7f41298c456e6173534" target="_top" xlink:title=" ">
<polygon fill="white" stroke="#666666" points="272,-79 143,-79 143,-49 272,-49 272,-79"/>
<text text-anchor="start" x="151" y="-67" font-family="Helvetica,sans-Serif" font-size="10.00">OLakitu::update_object</text>
<text text-anchor="middle" x="207.5" y="-56" font-family="Helvetica,sans-Serif" font-size="10.00">_lakitu_checkered_flag</text>
</a>
</g>
</g>
<!-- Node9&#45;&gt;Node10 -->
<g id="edge11_Node000009_Node000010" class="edge">
<title>Node9&#45;&gt;Node10</title>
<g id="a_edge11_Node000009_Node000010"><a xlink:title=" ">
<path fill="none" stroke="#63b8ff" d="M300.56,-59.01C291.04,-59.52 281.36,-60.05 272.03,-60.56"/>
<polygon fill="#63b8ff" stroke="#63b8ff" points="301,-62.49 310.79,-58.45 300.62,-55.5 301,-62.49"/>
</a>
</g>
</g>
<!-- Node10&#45;&gt;Node4 -->
<g id="edge12_Node000010_Node000004" class="edge">
<title>Node10&#45;&gt;Node4</title>
<g id="a_edge12_Node000010_Node000004"><a xlink:title=" ">
<path fill="none" stroke="#63b8ff" d="M149.93,-82.24C127.61,-89.43 102.89,-97.4 84.2,-103.42"/>
<polygon fill="#63b8ff" stroke="#63b8ff" points="151.21,-85.5 159.65,-79.1 149.06,-78.84 151.21,-85.5"/>
</a>
</g>
</g>
<!-- Node11&#45;&gt;Node4 -->
<g id="edge15_Node000011_Node000004" class="edge">
<title>Node11&#45;&gt;Node4</title>
<g id="a_edge15_Node000011_Node000004"><a xlink:title=" ">
<path fill="none" stroke="#63b8ff" d="M153.68,-34.28C150,-36.09 146.41,-37.99 143,-40 111.42,-58.6 79.52,-88.18 64.07,-103.34"/>
<polygon fill="#63b8ff" stroke="#63b8ff" points="155.31,-37.39 162.94,-30.03 152.39,-31.03 155.31,-37.39"/>
</a>
</g>
</g>
</g>
</svg>
