<?xml version="1.0" encoding="UTF-8" standalone="no"?>
<!DOCTYPE svg PUBLIC "-//W3C//DTD SVG 1.1//EN"
 "http://www.w3.org/Graphics/SVG/1.1/DTD/svg11.dtd">
<!-- Generated by graphviz version 2.43.0 (0)
 -->
<!-- Title: func_8008A454 Pages: 1 -->
<svg width="269pt" height="113pt"
 viewBox="0.00 0.00 269.00 113.00" xmlns="http://www.w3.org/2000/svg" xmlns:xlink="http://www.w3.org/1999/xlink">
<g id="graph0" class="graph" transform="scale(1 1) rotate(0) translate(4 109)">
<title>func_8008A454</title>
<!-- Node1 -->
<g id="Node000001" class="node">
<title>Node1</title>
<g id="a_Node000001"><a xlink:title=" ">
<polygon fill="#999999" stroke="#666666" points="92,-62 0,-62 0,-43 92,-43 92,-62"/>
<text text-anchor="middle" x="46" y="-50" font-family="Helvetica,sans-Serif" font-size="10.00">func_8008A454</text>
</a>
</g>
</g>
<!-- Node2 -->
<g id="Node000002" class="node">
<title>Node2</title>
<g id="a_Node000002"><a xlink:href="update__objects_8c.html#a3953241e15c6372ac8944ba842148a9a" target="_top" xlink:title=" ">
<polygon fill="white" stroke="#666666" points="244,-105 145,-105 145,-86 244,-86 244,-105"/>
<text text-anchor="middle" x="194.5" y="-93" font-family="Helvetica,sans-Serif" font-size="10.00">clear_object_flag</text>
</a>
</g>
</g>
<!-- Node1&#45;&gt;Node2 -->
<g id="edge1_Node000001_Node000002" class="edge">
<title>Node1&#45;&gt;Node2</title>
<g id="a_edge1_Node000001_Node000002"><a xlink:title=" ">
<path fill="none" stroke="#63b8ff" d="M78.92,-62C93.83,-66.43 111.81,-71.75 128,-76.5 135.35,-78.65 143.16,-80.93 150.74,-83.13"/>
<polygon fill="#63b8ff" stroke="#63b8ff" points="149.92,-86.54 160.5,-85.97 151.88,-79.82 149.92,-86.54"/>
</a>
</g>
</g>
<!-- Node3 -->
<g id="Node000003" class="node">
<title>Node3</title>
<g id="a_Node000003"><a xlink:href="code__80086E70_8c.html#abee4ac0bf830479754bf7a3054719714" target="_top" xlink:title="Returns the distance between the object and the camera.">
<polygon fill="white" stroke="#666666" points="261,-67.5 128,-67.5 128,-37.5 261,-37.5 261,-67.5"/>
<text text-anchor="start" x="136" y="-55.5" font-family="Helvetica,sans-Serif" font-size="10.00">get_horizontal_distance</text>
<text text-anchor="middle" x="194.5" y="-44.5" font-family="Helvetica,sans-Serif" font-size="10.00">_to_camera</text>
</a>
</g>
</g>
<!-- Node1&#45;&gt;Node3 -->
<g id="edge2_Node000001_Node000003" class="edge">
<title>Node1&#45;&gt;Node3</title>
<g id="a_edge2_Node000001_Node000003"><a xlink:title=" ">
<path fill="none" stroke="#63b8ff" d="M92.15,-52.5C100.25,-52.5 108.88,-52.5 117.57,-52.5"/>
<polygon fill="#63b8ff" stroke="#63b8ff" points="117.76,-56 127.76,-52.5 117.76,-49 117.76,-56"/>
</a>
</g>
</g>
<!-- Node4 -->
<g id="Node000004" class="node">
<title>Node4</title>
<g id="a_Node000004"><a xlink:href="update__objects_8c.html#afe64f2394ee0deab6370b77609500bda" target="_top" xlink:title=" ">
<polygon fill="white" stroke="#666666" points="239.5,-19 149.5,-19 149.5,0 239.5,0 239.5,-19"/>
<text text-anchor="middle" x="194.5" y="-7" font-family="Helvetica,sans-Serif" font-size="10.00">set_object_flag</text>
</a>
</g>
</g>
<!-- Node1&#45;&gt;Node4 -->
<g id="edge3_Node000001_Node000004" class="edge">
<title>Node1&#45;&gt;Node4</title>
<g id="a_edge3_Node000001_Node000004"><a xlink:title=" ">
<path fill="none" stroke="#63b8ff" d="M78.92,-43C93.83,-38.57 111.81,-33.25 128,-28.5 135.35,-26.35 143.16,-24.07 150.74,-21.87"/>
<polygon fill="#63b8ff" stroke="#63b8ff" points="151.88,-25.18 160.5,-19.03 149.92,-18.46 151.88,-25.18"/>
</a>
</g>
</g>
</g>
</svg>
