<?xml version="1.0" encoding="UTF-8" standalone="no"?>
<!DOCTYPE svg PUBLIC "-//W3C//DTD SVG 1.1//EN"
 "http://www.w3.org/Graphics/SVG/1.1/DTD/svg11.dtd">
<!-- Generated by graphviz version 2.43.0 (0)
 -->
<!-- Title: render_player_onomatopoeia_whrrrr Pages: 1 -->
<svg width="904pt" height="264pt"
 viewBox="0.00 0.00 904.00 263.50" xmlns="http://www.w3.org/2000/svg" xmlns:xlink="http://www.w3.org/1999/xlink">
<g id="graph0" class="graph" transform="scale(1 1) rotate(0) translate(4 259.5)">
<title>render_player_onomatopoeia_whrrrr</title>
<!-- Node1 -->
<g id="Node000001" class="node">
<title>Node1</title>
<g id="a_Node000001"><a xlink:title=" ">
<polygon fill="#999999" stroke="#666666" points="160,-90.5 0,-90.5 0,-60.5 160,-60.5 160,-90.5"/>
<text text-anchor="start" x="8" y="-78.5" font-family="Helvetica,sans-Serif" font-size="10.00">render_player_onomatopoeia</text>
<text text-anchor="middle" x="80" y="-67.5" font-family="Helvetica,sans-Serif" font-size="10.00">_whrrrr</text>
</a>
</g>
</g>
<!-- Node2 -->
<g id="Node000002" class="node">
<title>Node2</title>
<g id="a_Node000002"><a xlink:href="code__80057C60_8c.html#afe48d8fb3ea987ea8782c445f30eb8c3" target="_top" xlink:title=" ">
<polygon fill="white" stroke="#666666" points="288,-141 196,-141 196,-122 288,-122 288,-141"/>
<text text-anchor="middle" x="242" y="-129" font-family="Helvetica,sans-Serif" font-size="10.00">func_800652D4</text>
</a>
</g>
</g>
<!-- Node1&#45;&gt;Node2 -->
<g id="edge1_Node000001_Node000002" class="edge">
<title>Node1&#45;&gt;Node2</title>
<g id="a_edge1_Node000001_Node000002"><a xlink:title=" ">
<path fill="none" stroke="#63b8ff" d="M123.88,-90.51C148.94,-99.28 180.24,-110.23 204.17,-118.61"/>
<polygon fill="#63b8ff" stroke="#63b8ff" points="203.02,-121.91 213.61,-121.92 205.33,-115.31 203.02,-121.91"/>
</a>
</g>
</g>
<!-- Node15 -->
<g id="Node000015" class="node">
<title>Node15</title>
<g id="a_Node000015"><a xlink:href="GBIMiddleware_8cpp.html#a4ecc44e3c6f1ca5a6b4a20c41d3bd2d2" target="_top" xlink:title=" ">
<polygon fill="white" stroke="#666666" points="286.5,-85 197.5,-85 197.5,-66 286.5,-66 286.5,-85"/>
<text text-anchor="middle" x="242" y="-73" font-family="Helvetica,sans-Serif" font-size="10.00">gSPDisplayList</text>
</a>
</g>
</g>
<!-- Node1&#45;&gt;Node15 -->
<g id="edge16_Node000001_Node000015" class="edge">
<title>Node1&#45;&gt;Node15</title>
<g id="a_edge16_Node000001_Node000015"><a xlink:title=" ">
<path fill="none" stroke="#63b8ff" d="M160.06,-75.5C169.13,-75.5 178.21,-75.5 186.85,-75.5"/>
<polygon fill="#63b8ff" stroke="#63b8ff" points="187.12,-79 197.12,-75.5 187.12,-72 187.12,-79"/>
</a>
</g>
</g>
<!-- Node18 -->
<g id="Node000018" class="node">
<title>Node18</title>
<g id="a_Node000018"><a xlink:href="GBIMiddleware_8cpp.html#aeef79449a27a710d73576e4a4f7f7f99" target="_top" xlink:title=" ">
<polygon fill="white" stroke="#666666" points="275,-48 209,-48 209,-29 275,-29 275,-48"/>
<text text-anchor="middle" x="242" y="-36" font-family="Helvetica,sans-Serif" font-size="10.00">gSPVertex</text>
</a>
</g>
</g>
<!-- Node1&#45;&gt;Node18 -->
<g id="edge19_Node000001_Node000018" class="edge">
<title>Node1&#45;&gt;Node18</title>
<g id="a_edge19_Node000001_Node000018"><a xlink:title=" ">
<path fill="none" stroke="#63b8ff" d="M146.08,-60.45C163.82,-56.35 182.58,-52.01 198.69,-48.28"/>
<polygon fill="#63b8ff" stroke="#63b8ff" points="199.91,-51.6 208.86,-45.93 198.33,-44.77 199.91,-51.6"/>
</a>
</g>
</g>
<!-- Node3 -->
<g id="Node000003" class="node">
<title>Node3</title>
<g id="a_Node000003"><a xlink:href="Matrix_8cpp.html#abcc586bf25e812a2fcaea1cd869a626b" target="_top" xlink:title=" ">
<polygon fill="white" stroke="#666666" points="446,-208 351,-208 351,-189 446,-189 446,-208"/>
<text text-anchor="middle" x="398.5" y="-196" font-family="Helvetica,sans-Serif" font-size="10.00">AddEffectMatrix</text>
</a>
</g>
</g>
<!-- Node2&#45;&gt;Node3 -->
<g id="edge2_Node000002_Node000003" class="edge">
<title>Node2&#45;&gt;Node3</title>
<g id="a_edge2_Node000002_Node000003"><a xlink:title=" ">
<path fill="none" stroke="#63b8ff" d="M265.14,-141.1C291.64,-152.59 336.2,-171.92 366.21,-184.93"/>
<polygon fill="#63b8ff" stroke="#63b8ff" points="364.84,-188.15 375.4,-188.92 367.62,-181.73 364.84,-188.15"/>
</a>
</g>
</g>
<!-- Node9 -->
<g id="Node000009" class="node">
<title>Node9</title>
<g id="a_Node000009"><a xlink:href="math__util_8c.html#aca95a220db79fe028b35270f35a4a7b3" target="_top" xlink:title=" ">
<polygon fill="white" stroke="#666666" points="434,-151 363,-151 363,-132 434,-132 434,-151"/>
<text text-anchor="middle" x="398.5" y="-139" font-family="Helvetica,sans-Serif" font-size="10.00">mtxf_scale</text>
</a>
</g>
</g>
<!-- Node2&#45;&gt;Node9 -->
<g id="edge8_Node000002_Node000009" class="edge">
<title>Node2&#45;&gt;Node9</title>
<g id="a_edge8_Node000002_Node000009"><a xlink:title=" ">
<path fill="none" stroke="#63b8ff" d="M288.1,-134.42C308.43,-135.73 332.37,-137.28 352.67,-138.6"/>
<polygon fill="#63b8ff" stroke="#63b8ff" points="352.7,-142.11 362.91,-139.26 353.16,-135.12 352.7,-142.11"/>
</a>
</g>
</g>
<!-- Node11 -->
<g id="Node000011" class="node">
<title>Node11</title>
<g id="a_Node000011"><a xlink:href="render__player_8c.html#a565e21fd6aa0dacea58fb8a0e4304772" target="_top" xlink:title=" ">
<polygon fill="white" stroke="#666666" points="460,-104 337,-104 337,-85 460,-85 460,-104"/>
<text text-anchor="middle" x="398.5" y="-92" font-family="Helvetica,sans-Serif" font-size="10.00">mtxf_translate_rotate</text>
</a>
</g>
</g>
<!-- Node2&#45;&gt;Node11 -->
<g id="edge11_Node000002_Node000011" class="edge">
<title>Node2&#45;&gt;Node11</title>
<g id="a_edge11_Node000002_Node000011"><a xlink:title=" ">
<path fill="none" stroke="#63b8ff" d="M282.79,-121.97C302.62,-117.22 326.81,-111.43 347.85,-106.39"/>
<polygon fill="#63b8ff" stroke="#63b8ff" points="348.67,-109.79 357.58,-104.06 347.04,-102.99 348.67,-109.79"/>
</a>
</g>
</g>
<!-- Node4 -->
<g id="Node000004" class="node">
<title>Node4</title>
<g id="a_Node000004"><a xlink:href="Matrix_8cpp.html#a67401ed1d8de1f4d3a3e5a7b72842b6a" target="_top" xlink:title=" ">
<polygon fill="white" stroke="#666666" points="576,-245 509,-245 509,-226 576,-226 576,-245"/>
<text text-anchor="middle" x="542.5" y="-233" font-family="Helvetica,sans-Serif" font-size="10.00">AddMatrix</text>
</a>
</g>
</g>
<!-- Node3&#45;&gt;Node4 -->
<g id="edge3_Node000003_Node000004" class="edge">
<title>Node3&#45;&gt;Node4</title>
<g id="a_edge3_Node000003_Node000004"><a xlink:title=" ">
<path fill="none" stroke="#63b8ff" d="M436.07,-208.03C455.33,-213.05 479.05,-219.23 499.11,-224.46"/>
<polygon fill="#63b8ff" stroke="#63b8ff" points="498.37,-227.88 508.93,-227.01 500.14,-221.11 498.37,-227.88"/>
</a>
</g>
</g>
<!-- Node8 -->
<g id="Node000008" class="node">
<title>Node8</title>
<g id="a_Node000008"><a xlink:href="Game_8cpp.html#ae2fa844b3cb1021ecbc357f8ed2ad8cc" target="_top" xlink:title=" ">
<polygon fill="white" stroke="#666666" points="573.5,-208 511.5,-208 511.5,-189 573.5,-189 573.5,-208"/>
<text text-anchor="middle" x="542.5" y="-196" font-family="Helvetica,sans-Serif" font-size="10.00">GetWorld</text>
</a>
</g>
</g>
<!-- Node3&#45;&gt;Node8 -->
<g id="edge7_Node000003_Node000008" class="edge">
<title>Node3&#45;&gt;Node8</title>
<g id="a_edge7_Node000003_Node000008"><a xlink:title=" ">
<path fill="none" stroke="#63b8ff" d="M446.39,-198.5C464.05,-198.5 483.97,-198.5 501,-198.5"/>
<polygon fill="#63b8ff" stroke="#63b8ff" points="501.18,-202 511.18,-198.5 501.18,-195 501.18,-202"/>
</a>
</g>
</g>
<!-- Node5 -->
<g id="Node000005" class="node">
<title>Node5</title>
<g id="a_Node000005"><a xlink:href="FrameInterpolation_8cpp.html#a8cf1f2d6fabc6925aa71a9515341b4aa" target="_top" xlink:title=" ">
<polygon fill="white" stroke="#666666" points="752,-255.5 612,-255.5 612,-225.5 752,-225.5 752,-255.5"/>
<text text-anchor="start" x="620" y="-243.5" font-family="Helvetica,sans-Serif" font-size="10.00">FrameInterpolation</text>
<text text-anchor="middle" x="682" y="-232.5" font-family="Helvetica,sans-Serif" font-size="10.00">_RecordMatrixMtxFToMtx</text>
</a>
</g>
</g>
<!-- Node4&#45;&gt;Node5 -->
<g id="edge4_Node000004_Node000005" class="edge">
<title>Node4&#45;&gt;Node5</title>
<g id="a_edge4_Node000004_Node000005"><a xlink:title=" ">
<path fill="none" stroke="#63b8ff" d="M576.09,-236.68C583.93,-236.97 592.66,-237.29 601.63,-237.61"/>
<polygon fill="#63b8ff" stroke="#63b8ff" points="601.71,-241.12 611.83,-237.98 601.97,-234.12 601.71,-241.12"/>
</a>
</g>
</g>
<!-- Node7 -->
<g id="Node000007" class="node">
<title>Node7</title>
<g id="a_Node000007"><a xlink:href="guMtxF2L_8c.html#a40ab2d64c609839ff1e0ef0de2d0dcc4" target="_top" xlink:title=" ">
<polygon fill="white" stroke="#666666" points="714.5,-207 649.5,-207 649.5,-188 714.5,-188 714.5,-207"/>
<text text-anchor="middle" x="682" y="-195" font-family="Helvetica,sans-Serif" font-size="10.00">guMtxF2L</text>
</a>
</g>
</g>
<!-- Node4&#45;&gt;Node7 -->
<g id="edge6_Node000004_Node000007" class="edge">
<title>Node4&#45;&gt;Node7</title>
<g id="a_edge6_Node000004_Node000007"><a xlink:title=" ">
<path fill="none" stroke="#63b8ff" d="M576.25,-226.4C587.57,-223.26 600.34,-219.72 612,-216.5 620.97,-214.02 630.6,-211.37 639.73,-208.85"/>
<polygon fill="#63b8ff" stroke="#63b8ff" points="640.68,-212.22 649.39,-206.19 638.82,-205.47 640.68,-212.22"/>
</a>
</g>
</g>
<!-- Node6 -->
<g id="Node000006" class="node">
<title>Node6</title>
<g id="a_Node000006"><a xlink:href="FrameInterpolation_8cpp.html#a02c7ac5342a4d376edee38f312b480bf" target="_top" xlink:title=" ">
<polygon fill="white" stroke="#666666" points="896,-164 788,-164 788,-145 896,-145 896,-164"/>
<text text-anchor="middle" x="842" y="-152" font-family="Helvetica,sans-Serif" font-size="10.00">check_if_recording</text>
</a>
</g>
</g>
<!-- Node5&#45;&gt;Node6 -->
<g id="edge5_Node000005_Node000006" class="edge">
<title>Node5&#45;&gt;Node6</title>
<g id="a_edge5_Node000005_Node000006"><a xlink:title=" ">
<path fill="none" stroke="#63b8ff" d="M731.59,-225.49C738.57,-222.8 745.56,-219.78 752,-216.5 777.43,-203.53 803.95,-184.18 821.35,-170.56"/>
<polygon fill="#63b8ff" stroke="#63b8ff" points="823.92,-172.99 829.56,-164.02 819.56,-167.51 823.92,-172.99"/>
</a>
</g>
</g>
<!-- Node10 -->
<g id="Node000010" class="node">
<title>Node10</title>
<g id="a_Node000010"><a xlink:href="FrameInterpolation_8cpp.html#ad8eff15a52471a7a9c4801f2f23124e6" target="_top" xlink:title=" ">
<polygon fill="white" stroke="#666666" points="738.5,-169.5 625.5,-169.5 625.5,-139.5 738.5,-139.5 738.5,-169.5"/>
<text text-anchor="start" x="633.5" y="-157.5" font-family="Helvetica,sans-Serif" font-size="10.00">FrameInterpolation</text>
<text text-anchor="middle" x="682" y="-146.5" font-family="Helvetica,sans-Serif" font-size="10.00">_RecordMatrixScale</text>
</a>
</g>
</g>
<!-- Node9&#45;&gt;Node10 -->
<g id="edge9_Node000009_Node000010" class="edge">
<title>Node9&#45;&gt;Node10</title>
<g id="a_edge9_Node000009_Node000010"><a xlink:title=" ">
<path fill="none" stroke="#63b8ff" d="M434.02,-143.09C478.94,-145.17 558.37,-148.84 615.02,-151.45"/>
<polygon fill="#63b8ff" stroke="#63b8ff" points="615.17,-154.96 625.32,-151.93 615.49,-147.97 615.17,-154.96"/>
</a>
</g>
</g>
<!-- Node10&#45;&gt;Node6 -->
<g id="edge10_Node000010_Node000006" class="edge">
<title>Node10&#45;&gt;Node6</title>
<g id="a_edge10_Node000010_Node000006"><a xlink:title=" ">
<path fill="none" stroke="#63b8ff" d="M738.7,-154.5C751.32,-154.5 764.81,-154.5 777.72,-154.5"/>
<polygon fill="#63b8ff" stroke="#63b8ff" points="777.92,-158 787.92,-154.5 777.92,-151 777.92,-158"/>
</a>
</g>
</g>
<!-- Node12 -->
<g id="Node000012" class="node">
<title>Node12</title>
<g id="a_Node000012"><a xlink:href="math__util_8c.html#ae69cbf5c8d4b3b0dba2d7b4d4673689f" target="_top" xlink:title=" ">
<polygon fill="white" stroke="#666666" points="561.5,-132 523.5,-132 523.5,-113 561.5,-113 561.5,-132"/>
<text text-anchor="middle" x="542.5" y="-120" font-family="Helvetica,sans-Serif" font-size="10.00">coss</text>
</a>
</g>
</g>
<!-- Node11&#45;&gt;Node12 -->
<g id="edge12_Node000011_Node000012" class="edge">
<title>Node11&#45;&gt;Node12</title>
<g id="a_edge12_Node000011_Node000012"><a xlink:title=" ">
<path fill="none" stroke="#63b8ff" d="M447.97,-104.06C469.83,-108.37 494.88,-113.31 513.54,-116.99"/>
<polygon fill="#63b8ff" stroke="#63b8ff" points="512.97,-120.44 523.46,-118.94 514.33,-113.57 512.97,-120.44"/>
</a>
</g>
</g>
<!-- Node13 -->
<g id="Node000013" class="node">
<title>Node13</title>
<g id="a_Node000013"><a xlink:href="FrameInterpolation_8cpp.html#aafa8768b46143c8110779aa8afdfe41c" target="_top" xlink:title=" ">
<polygon fill="white" stroke="#666666" points="748,-113.5 616,-113.5 616,-83.5 748,-83.5 748,-113.5"/>
<text text-anchor="start" x="624" y="-101.5" font-family="Helvetica,sans-Serif" font-size="10.00">FrameInterpolation</text>
<text text-anchor="middle" x="682" y="-90.5" font-family="Helvetica,sans-Serif" font-size="10.00">_RecordTranslateRotate</text>
</a>
</g>
</g>
<!-- Node11&#45;&gt;Node13 -->
<g id="edge13_Node000011_Node000013" class="edge">
<title>Node11&#45;&gt;Node13</title>
<g id="a_edge13_Node000011_Node000013"><a xlink:title=" ">
<path fill="none" stroke="#63b8ff" d="M460.23,-95.36C502.91,-95.97 560.28,-96.78 605.84,-97.43"/>
<polygon fill="#63b8ff" stroke="#63b8ff" points="605.91,-100.93 615.96,-97.58 606.01,-93.93 605.91,-100.93"/>
</a>
</g>
</g>
<!-- Node14 -->
<g id="Node000014" class="node">
<title>Node14</title>
<g id="a_Node000014"><a xlink:href="math__util_8c.html#a19ed3bd78fd2d3e2bd0a29f6caf48545" target="_top" xlink:title=" ">
<polygon fill="white" stroke="#666666" points="560.5,-56 524.5,-56 524.5,-37 560.5,-37 560.5,-56"/>
<text text-anchor="middle" x="542.5" y="-44" font-family="Helvetica,sans-Serif" font-size="10.00">sins</text>
</a>
</g>
</g>
<!-- Node11&#45;&gt;Node14 -->
<g id="edge15_Node000011_Node000014" class="edge">
<title>Node11&#45;&gt;Node14</title>
<g id="a_edge15_Node000011_Node000014"><a xlink:title=" ">
<path fill="none" stroke="#63b8ff" d="M427.89,-84.9C453.22,-76.34 490.02,-63.9 514.81,-55.52"/>
<polygon fill="#63b8ff" stroke="#63b8ff" points="515.96,-58.83 524.31,-52.31 513.72,-52.2 515.96,-58.83"/>
</a>
</g>
</g>
<!-- Node13&#45;&gt;Node6 -->
<g id="edge14_Node000013_Node000006" class="edge">
<title>Node13&#45;&gt;Node6</title>
<g id="a_edge14_Node000013_Node000006"><a xlink:title=" ">
<path fill="none" stroke="#63b8ff" d="M725.34,-113.51C749.98,-122.24 780.72,-133.14 804.32,-141.5"/>
<polygon fill="#63b8ff" stroke="#63b8ff" points="803.36,-144.87 813.96,-144.92 805.7,-138.28 803.36,-144.87"/>
</a>
</g>
</g>
<!-- Node16 -->
<g id="Node000016" class="node">
<title>Node16</title>
<g id="a_Node000016"><a xlink:href="Engine_8cpp.html#a223c8bc63f228dc11177515e38eff2db" target="_top" xlink:title=" ">
<polygon fill="white" stroke="#666666" points="473,-48 324,-48 324,-29 473,-29 473,-48"/>
<text text-anchor="middle" x="398.5" y="-36" font-family="Helvetica,sans-Serif" font-size="10.00">GameEngine_OTRSigCheck</text>
</a>
</g>
</g>
<!-- Node15&#45;&gt;Node16 -->
<g id="edge17_Node000015_Node000016" class="edge">
<title>Node15&#45;&gt;Node16</title>
<g id="a_edge17_Node000015_Node000016"><a xlink:title=" ">
<path fill="none" stroke="#63b8ff" d="M282.79,-65.97C302.62,-61.22 326.81,-55.43 347.85,-50.39"/>
<polygon fill="#63b8ff" stroke="#63b8ff" points="348.67,-53.79 357.58,-48.06 347.04,-46.99 348.67,-53.79"/>
</a>
</g>
</g>
<!-- Node17 -->
<g id="Node000017" class="node">
<title>Node17</title>
<g id="a_Node000017"><a xlink:href="string_8c.html#a008e171a518fe0e0352f31b245e03875" target="_top" xlink:title=" ">
<polygon fill="white" stroke="#666666" points="564.5,-19 520.5,-19 520.5,0 564.5,0 564.5,-19"/>
<text text-anchor="middle" x="542.5" y="-7" font-family="Helvetica,sans-Serif" font-size="10.00">strlen</text>
</a>
</g>
</g>
<!-- Node16&#45;&gt;Node17 -->
<g id="edge18_Node000016_Node000017" class="edge">
<title>Node16&#45;&gt;Node17</title>
<g id="a_edge18_Node000016_Node000017"><a xlink:title=" ">
<path fill="none" stroke="#63b8ff" d="M446.39,-28.92C467.52,-24.61 491.88,-19.63 510.66,-15.8"/>
<polygon fill="#63b8ff" stroke="#63b8ff" points="511.37,-19.23 520.46,-13.8 509.96,-12.37 511.37,-19.23"/>
</a>
</g>
</g>
<!-- Node18&#45;&gt;Node16 -->
<g id="edge20_Node000018_Node000016" class="edge">
<title>Node18&#45;&gt;Node16</title>
<g id="a_edge20_Node000018_Node000016"><a xlink:title=" ">
<path fill="none" stroke="#63b8ff" d="M275.01,-38.5C286.46,-38.5 299.96,-38.5 313.74,-38.5"/>
<polygon fill="#63b8ff" stroke="#63b8ff" points="313.79,-42 323.79,-38.5 313.79,-35 313.79,-42"/>
</a>
</g>
</g>
</g>
</svg>
