<?xml version="1.0" encoding="UTF-8" standalone="no"?>
<!DOCTYPE svg PUBLIC "-//W3C//DTD SVG 1.1//EN"
 "http://www.w3.org/Graphics/SVG/1.1/DTD/svg11.dtd">
<!-- Generated by graphviz version 2.43.0 (0)
 -->
<!-- Title: func_8005A14C Pages: 1 -->
<svg width="580pt" height="189pt"
 viewBox="0.00 0.00 580.00 189.20" xmlns="http://www.w3.org/2000/svg" xmlns:xlink="http://www.w3.org/1999/xlink">
<g id="graph0" class="graph" transform="scale(1 1) rotate(0) translate(4 185.2)">
<title>func_8005A14C</title>
<!-- Node1 -->
<g id="Node000001" class="node">
<title>Node1</title>
<g id="a_Node000001"><a xlink:title=" ">
<polygon fill="#999999" stroke="#666666" points="92,-91 0,-91 0,-72 92,-72 92,-91"/>
<text text-anchor="middle" x="46" y="-79" font-family="Helvetica,sans-Serif" font-size="10.00">func_8005A14C</text>
</a>
</g>
</g>
<!-- Node2 -->
<g id="Node000002" class="node">
<title>Node2</title>
<g id="a_Node000002"><a xlink:href="math__util__2_8c.html#a1f3982f853bea1b49c3733f209dbb903" target="_top" xlink:title=" ">
<polygon fill="white" stroke="#666666" points="248,-147 145,-147 145,-128 248,-128 248,-147"/>
<text text-anchor="middle" x="196.5" y="-135" font-family="Helvetica,sans-Serif" font-size="10.00">f32_step_towards</text>
</a>
</g>
</g>
<!-- Node1&#45;&gt;Node2 -->
<g id="edge1_Node000001_Node000002" class="edge">
<title>Node1&#45;&gt;Node2</title>
<g id="a_edge1_Node000001_Node000002"><a xlink:title=" ">
<path fill="none" stroke="#63b8ff" d="M64.94,-91.05C81.1,-99.38 105.67,-111.36 128,-119.5 133.47,-121.5 139.27,-123.38 145.08,-125.12"/>
<polygon fill="#63b8ff" stroke="#63b8ff" points="144.22,-128.51 154.8,-127.9 146.15,-121.78 144.22,-128.51"/>
</a>
</g>
</g>
<!-- Node3 -->
<g id="Node000003" class="node">
<title>Node3</title>
<g id="a_Node000003"><a xlink:href="code__80086E70_8c.html#ac4c0808f380085196c14ce1a71abb447" target="_top" xlink:title=" ">
<polygon fill="white" stroke="#666666" points="242.5,-110 150.5,-110 150.5,-91 242.5,-91 242.5,-110"/>
<text text-anchor="middle" x="196.5" y="-98" font-family="Helvetica,sans-Serif" font-size="10.00">func_80087D24</text>
</a>
</g>
</g>
<!-- Node1&#45;&gt;Node3 -->
<g id="edge2_Node000001_Node000003" class="edge">
<title>Node1&#45;&gt;Node3</title>
<g id="a_edge2_Node000001_Node000003"><a xlink:title=" ">
<path fill="none" stroke="#63b8ff" d="M92.36,-87.3C107.48,-89.24 124.48,-91.41 140.26,-93.43"/>
<polygon fill="#63b8ff" stroke="#63b8ff" points="140.05,-96.93 150.42,-94.73 140.94,-89.99 140.05,-96.93"/>
</a>
</g>
</g>
<!-- Node9 -->
<g id="Node000009" class="node">
<title>Node9</title>
<g id="a_Node000009"><a xlink:href="math__util__2_8c.html#a1c0c67231cf4fe9230d20d951708f008" target="_top" xlink:title=" ">
<polygon fill="white" stroke="#666666" points="265,-73 128,-73 128,-54 265,-54 265,-73"/>
<text text-anchor="middle" x="196.5" y="-61" font-family="Helvetica,sans-Serif" font-size="10.00">u16_step_down_towards</text>
</a>
</g>
</g>
<!-- Node1&#45;&gt;Node9 -->
<g id="edge9_Node000001_Node000009" class="edge">
<title>Node1&#45;&gt;Node9</title>
<g id="a_edge9_Node000001_Node000009"><a xlink:title=" ">
<path fill="none" stroke="#63b8ff" d="M92.36,-76C100.54,-75.01 109.28,-73.95 118.07,-72.89"/>
<polygon fill="#63b8ff" stroke="#63b8ff" points="118.49,-76.36 128,-71.68 117.65,-69.41 118.49,-76.36"/>
</a>
</g>
</g>
<!-- Node10 -->
<g id="Node000010" class="node">
<title>Node10</title>
<g id="a_Node000010"><a xlink:href="math__util__2_8c.html#a37da8b4baad8a893b5110622ecbeadfe" target="_top" xlink:title=" ">
<polygon fill="white" stroke="#666666" points="257.5,-36 135.5,-36 135.5,-17 257.5,-17 257.5,-36"/>
<text text-anchor="middle" x="196.5" y="-24" font-family="Helvetica,sans-Serif" font-size="10.00">u16_step_up_towards</text>
</a>
</g>
</g>
<!-- Node1&#45;&gt;Node10 -->
<g id="edge10_Node000001_Node000010" class="edge">
<title>Node1&#45;&gt;Node10</title>
<g id="a_edge10_Node000001_Node000010"><a xlink:title=" ">
<path fill="none" stroke="#63b8ff" d="M66.32,-71.97C82.53,-64.2 106.43,-53.28 128,-45.5 134.46,-43.17 141.36,-40.94 148.18,-38.89"/>
<polygon fill="#63b8ff" stroke="#63b8ff" points="149.44,-42.16 158.06,-36 147.48,-35.44 149.44,-42.16"/>
</a>
</g>
</g>
<!-- Node4 -->
<g id="Node000004" class="node">
<title>Node4</title>
<g id="a_Node000004"><a xlink:href="update__objects_8c.html#a3953241e15c6372ac8944ba842148a9a" target="_top" xlink:title=" ">
<polygon fill="white" stroke="#666666" points="572,-172 473,-172 473,-153 572,-153 572,-172"/>
<text text-anchor="middle" x="522.5" y="-160" font-family="Helvetica,sans-Serif" font-size="10.00">clear_object_flag</text>
</a>
</g>
</g>
<!-- Node3&#45;&gt;Node4 -->
<g id="edge3_Node000003_Node000004" class="edge">
<title>Node3&#45;&gt;Node4</title>
<g id="a_edge3_Node000003_Node000004"><a xlink:title=" ">
<path fill="none" stroke="#63b8ff" d="M242.7,-109.15C250.5,-111.76 258.25,-115.14 265,-119.5 285.93,-133.04 278.42,-151.95 301,-162.5 355.34,-187.87 425.74,-182.19 472.2,-173.96"/>
<polygon fill="#63b8ff" stroke="#63b8ff" points="473.13,-177.35 482.31,-172.07 471.84,-170.47 473.13,-177.35"/>
</a>
</g>
</g>
<!-- Node5 -->
<g id="Node000005" class="node">
<title>Node5</title>
<g id="a_Node000005"><a xlink:href="code__80086E70_8c.html#a6eea48094f49bb346ce1170842d955b2" target="_top" xlink:title=" ">
<polygon fill="white" stroke="#666666" points="415,-153 323,-153 323,-134 415,-134 415,-153"/>
<text text-anchor="middle" x="369" y="-141" font-family="Helvetica,sans-Serif" font-size="10.00">func_80086FD4</text>
</a>
</g>
</g>
<!-- Node3&#45;&gt;Node5 -->
<g id="edge4_Node000003_Node000005" class="edge">
<title>Node3&#45;&gt;Node5</title>
<g id="a_edge4_Node000003_Node000005"><a xlink:title=" ">
<path fill="none" stroke="#63b8ff" d="M235.34,-110.04C260.39,-116.36 293.46,-124.7 320.31,-131.47"/>
<polygon fill="#63b8ff" stroke="#63b8ff" points="319.71,-134.93 330.27,-133.98 321.43,-128.14 319.71,-134.93"/>
</a>
</g>
</g>
<!-- Node6 -->
<g id="Node000006" class="node">
<title>Node6</title>
<g id="a_Node000006"><a xlink:href="update__objects_8c.html#a2301a51a93a60f0382cdc7002e14f95a" target="_top" xlink:title=" ">
<polygon fill="white" stroke="#666666" points="437,-115.5 301,-115.5 301,-85.5 437,-85.5 437,-115.5"/>
<text text-anchor="start" x="309" y="-103.5" font-family="Helvetica,sans-Serif" font-size="10.00">is_obj_index_flag_status</text>
<text text-anchor="middle" x="369" y="-92.5" font-family="Helvetica,sans-Serif" font-size="10.00">_inactive</text>
</a>
</g>
</g>
<!-- Node3&#45;&gt;Node6 -->
<g id="edge6_Node000003_Node000006" class="edge">
<title>Node3&#45;&gt;Node6</title>
<g id="a_edge6_Node000003_Node000006"><a xlink:title=" ">
<path fill="none" stroke="#63b8ff" d="M242.74,-100.5C257.45,-100.5 274.21,-100.5 290.58,-100.5"/>
<polygon fill="#63b8ff" stroke="#63b8ff" points="290.7,-104 300.7,-100.5 290.7,-97 290.7,-104"/>
</a>
</g>
</g>
<!-- Node7 -->
<g id="Node000007" class="node">
<title>Node7</title>
<g id="a_Node000007"><a xlink:href="code__80086E70_8c.html#a04f1b5e2f622dbb93568f5cff8aaf3d5" target="_top" xlink:title=" ">
<polygon fill="white" stroke="#666666" points="426,-67.5 312,-67.5 312,-37.5 426,-37.5 426,-67.5"/>
<text text-anchor="start" x="320" y="-55.5" font-family="Helvetica,sans-Serif" font-size="10.00">object_add_velocity</text>
<text text-anchor="middle" x="369" y="-44.5" font-family="Helvetica,sans-Serif" font-size="10.00">_offset_y</text>
</a>
</g>
</g>
<!-- Node3&#45;&gt;Node7 -->
<g id="edge7_Node000003_Node000007" class="edge">
<title>Node3&#45;&gt;Node7</title>
<g id="a_edge7_Node000003_Node000007"><a xlink:title=" ">
<path fill="none" stroke="#63b8ff" d="M233.97,-90.94C244.04,-88.25 254.95,-85.3 265,-82.5 278.71,-78.67 293.42,-74.46 307.31,-70.43"/>
<polygon fill="#63b8ff" stroke="#63b8ff" points="308.63,-73.69 317.25,-67.53 306.67,-66.97 308.63,-73.69"/>
</a>
</g>
</g>
<!-- Node8 -->
<g id="Node000008" class="node">
<title>Node8</title>
<g id="a_Node000008"><a xlink:href="update__objects_8c.html#afe64f2394ee0deab6370b77609500bda" target="_top" xlink:title=" ">
<polygon fill="white" stroke="#666666" points="414,-19 324,-19 324,0 414,0 414,-19"/>
<text text-anchor="middle" x="369" y="-7" font-family="Helvetica,sans-Serif" font-size="10.00">set_object_flag</text>
</a>
</g>
</g>
<!-- Node3&#45;&gt;Node8 -->
<g id="edge8_Node000003_Node000008" class="edge">
<title>Node3&#45;&gt;Node8</title>
<g id="a_edge8_Node000003_Node000008"><a xlink:title=" ">
<path fill="none" stroke="#63b8ff" d="M242.75,-93.29C250.62,-90.72 258.39,-87.23 265,-82.5 288.45,-65.7 277.69,-45.48 301,-28.5 305.11,-25.51 309.68,-22.98 314.44,-20.86"/>
<polygon fill="#63b8ff" stroke="#63b8ff" points="315.71,-24.12 323.77,-17.24 313.18,-17.59 315.71,-24.12"/>
</a>
</g>
</g>
<!-- Node5&#45;&gt;Node4 -->
<g id="edge5_Node000005_Node000004" class="edge">
<title>Node5&#45;&gt;Node4</title>
<g id="a_edge5_Node000005_Node000004"><a xlink:title=" ">
<path fill="none" stroke="#63b8ff" d="M415.04,-149.15C430,-151.02 446.87,-153.14 462.71,-155.13"/>
<polygon fill="#63b8ff" stroke="#63b8ff" points="462.57,-158.64 472.93,-156.41 463.45,-151.69 462.57,-158.64"/>
</a>
</g>
</g>
</g>
</svg>
