<?xml version="1.0" encoding="UTF-8" standalone="no"?>
<!DOCTYPE svg PUBLIC "-//W3C//DTD SVG 1.1//EN"
 "http://www.w3.org/Graphics/SVG/1.1/DTD/svg11.dtd">
<!-- Generated by graphviz version 2.43.0 (0)
 -->
<!-- Title: init_course_path_point Pages: 1 -->
<!--zoomable 595 -->

<svg id="main" version="1.1" xmlns="http://www.w3.org/2000/svg" xmlns:xlink="http://www.w3.org/1999/xlink" xml:space="preserve" onload="init(evt)">

<style type="text/css"><![CDATA[
.node, .edge {opacity: 0.7;}
.node.selected, .edge.selected {opacity: 1;}
.edge:hover path { stroke: red; }
.edge:hover polygon { stroke: red; fill: red; }
]]></style>

<defs>
  <circle id="rim" cx="0" cy="0" r="7"/>
  <circle id="rim2" cx="0" cy="0" r="3.5"/>
  <g id="zoomPlus">
    <use xlink:href="#rim" fill="#404040"><set attributeName="fill" to="#808080" begin="zoomplus.mouseover" end="zoomplus.mouseout"/></use>
    <path d="M-4,0h8M0,-4v8" fill="none" stroke="white" stroke-width="1.5" pointer-events="none"/>
  </g>
  <g id="zoomMin">
    <use xlink:href="#rim" fill="#404040"><set attributeName="fill" to="#808080" begin="zoomminus.mouseover" end="zoomminus.mouseout"/></use>
    <path d="M-4,0h8" fill="none" stroke="white" stroke-width="1.5" pointer-events="none"/>
  </g>
  <g id="arrowUp" transform="translate(30 24)">
    <use xlink:href="#rim"/>
    <path pointer-events="none" fill="none" stroke="white" stroke-width="1.5" d="M0,-3.0v7 M-2.5,-0.5L0,-3.0L2.5,-0.5"/>
  </g>
  <g id="arrowRight" transform="rotate(90) translate(36 -43)">
    <use xlink:href="#rim"/>
    <path pointer-events="none" fill="none" stroke="white" stroke-width="1.5" d="M0,-3.0v7 M-2.5,-0.5L0,-3.0L2.5,-0.5"/>
  </g>
  <g id="arrowDown" transform="rotate(180) translate(-30 -48)">
    <use xlink:href="#rim"/>
    <path pointer-events="none" fill="none" stroke="white" stroke-width="1.5" d="M0,-3.0v7 M-2.5,-0.5L0,-3.0L2.5,-0.5"/>
  </g>
  <g id="arrowLeft" transform="rotate(270) translate(-36 17)">
    <use xlink:href="#rim"/>
    <path pointer-events="none" fill="none" stroke="white" stroke-width="1.5" d="M0,-3.0v7 M-2.5,-0.5L0,-3.0L2.5,-0.5"/>
  </g>
  <g id="resetDef">
    <use xlink:href="#rim2" fill="#404040"><set attributeName="fill" to="#808080" begin="reset.mouseover" end="reset.mouseout"/></use>
  </g>
</defs>
<script type="application/ecmascript">
var viewWidth = 1157;
var viewHeight = 595;
var sectionId = 'dynsection-140';
</script>
<script type="application/ecmascript" xlink:href="svg.min.js"/>
<svg id="graph" class="graph">
<g id="viewport">
<title>init_course_path_point</title>
<!-- Node1 -->
<g id="Node000001" class="node">
<title>Node1</title>
<g id="a_Node000001"><a xlink:title=" ">
<polygon fill="#999999" stroke="#666666" points="127,-335 0,-335 0,-316 127,-316 127,-335"/>
<text text-anchor="middle" x="63.5" y="-323" font-family="Helvetica,sans-Serif" font-size="10.00">init_course_path_point</text>
</a>
</g>
</g>
<!-- Node2 -->
<g id="Node000002" class="node">
<title>Node2</title>
<g id="a_Node000002"><a xlink:href="code__80005FD0_8c.html#afea6c2109ebb5063725c4ad25fb59280" target="_top" xlink:title=" ">
<polygon fill="white" stroke="#666666" points="282.5,-543 168.5,-543 168.5,-524 282.5,-524 282.5,-543"/>
<text text-anchor="middle" x="225.5" y="-531" font-family="Helvetica,sans-Serif" font-size="10.00">analyse_angle_path</text>
</a>
</g>
</g>
<!-- Node1&#45;&gt;Node2 -->
<g id="edge1_Node000001_Node000002" class="edge">
<title>Node1&#45;&gt;Node2</title>
<g id="a_edge1_Node000001_Node000002"><a xlink:title=" ">
<path fill="none" stroke="#63b8ff" d="M67.14,-335.42C75.7,-365.79 105.54,-458.52 163,-509.5 167.5,-513.5 172.75,-516.86 178.24,-519.69"/>
<polygon fill="#63b8ff" stroke="#63b8ff" points="177.08,-523.01 187.63,-523.95 179.97,-516.63 177.08,-523.01"/>
</a>
</g>
</g>
<!-- Node7 -->
<g id="Node000007" class="node">
<title>Node7</title>
<g id="a_Node000007"><a xlink:href="Game_8cpp.html#a3416a195a0c7be6ec3783bbf4842dc3e" target="_top" xlink:title=" ">
<polygon fill="white" stroke="#666666" points="618.5,-468 536.5,-468 536.5,-449 618.5,-449 618.5,-468"/>
<text text-anchor="middle" x="577.5" y="-456" font-family="Helvetica,sans-Serif" font-size="10.00">CM_GetProps</text>
</a>
</g>
</g>
<!-- Node1&#45;&gt;Node7 -->
<g id="edge28_Node000001_Node000007" class="edge">
<title>Node1&#45;&gt;Node7</title>
<g id="a_edge28_Node000001_Node000007"><a xlink:title=" ">
<path fill="none" stroke="#63b8ff" d="M69.61,-335.15C82.12,-357.67 116.66,-413.68 163,-438.5 280.41,-501.39 444.53,-483.71 526.2,-469.15"/>
<polygon fill="#63b8ff" stroke="#63b8ff" points="527.01,-472.56 536.22,-467.31 525.75,-465.67 527.01,-472.56"/>
</a>
</g>
</g>
<!-- Node11 -->
<g id="Node000011" class="node">
<title>Node11</title>
<g id="a_Node000011"><a xlink:href="code__80005FD0_8c.html#a951fa5641a19ff332341ce056f7ea0a7" target="_top" xlink:title=" ">
<polygon fill="white" stroke="#666666" points="285.5,-316 165.5,-316 165.5,-297 285.5,-297 285.5,-316"/>
<text text-anchor="middle" x="225.5" y="-304" font-family="Helvetica,sans-Serif" font-size="10.00">analyze_curved_path</text>
</a>
</g>
</g>
<!-- Node1&#45;&gt;Node11 -->
<g id="edge12_Node000001_Node000011" class="edge">
<title>Node1&#45;&gt;Node11</title>
<g id="a_edge12_Node000001_Node000011"><a xlink:title=" ">
<path fill="none" stroke="#63b8ff" d="M127.28,-318.05C136.47,-316.95 145.98,-315.82 155.3,-314.72"/>
<polygon fill="#63b8ff" stroke="#63b8ff" points="155.78,-318.18 165.3,-313.53 154.96,-311.23 155.78,-318.18"/>
</a>
</g>
</g>
<!-- Node13 -->
<g id="Node000013" class="node">
<title>Node13</title>
<g id="a_Node000013"><a xlink:href="code__80005FD0_8c.html#af2f5c3f028965e86705c66f6cd51c680" target="_top" xlink:title=" ">
<polygon fill="white" stroke="#666666" points="288,-430 163,-430 163,-411 288,-411 288,-430"/>
<text text-anchor="middle" x="225.5" y="-418" font-family="Helvetica,sans-Serif" font-size="10.00">analyze_track_section</text>
</a>
</g>
</g>
<!-- Node1&#45;&gt;Node13 -->
<g id="edge16_Node000001_Node000013" class="edge">
<title>Node1&#45;&gt;Node13</title>
<g id="a_edge16_Node000001_Node000013"><a xlink:title=" ">
<path fill="none" stroke="#63b8ff" d="M75.69,-335.03C93.34,-349.7 129.11,-378.06 163,-396.5 170.3,-400.47 178.4,-404.12 186.26,-407.31"/>
<polygon fill="#63b8ff" stroke="#63b8ff" points="185.07,-410.6 195.66,-410.96 187.6,-404.08 185.07,-410.6"/>
</a>
</g>
</g>
<!-- Node16 -->
<g id="Node000016" class="node">
<title>Node16</title>
<g id="a_Node000016"><a xlink:href="code__80005FD0_8c.html#a6fd29dd95ab41d9aa3f4a08ac98c9df4" target="_top" xlink:title=" ">
<polygon fill="white" stroke="#666666" points="474,-392 324,-392 324,-373 474,-373 474,-392"/>
<text text-anchor="middle" x="399" y="-380" font-family="Helvetica,sans-Serif" font-size="10.00">calculate_track_boundaries</text>
</a>
</g>
</g>
<!-- Node1&#45;&gt;Node16 -->
<g id="edge21_Node000001_Node000016" class="edge">
<title>Node1&#45;&gt;Node16</title>
<g id="a_edge21_Node000001_Node000016"><a xlink:title=" ">
<path fill="none" stroke="#63b8ff" d="M102.23,-335.11C120.5,-339.56 142.81,-344.69 163,-348.5 212.81,-357.9 268.98,-366.11 313.91,-372.11"/>
<polygon fill="#63b8ff" stroke="#63b8ff" points="313.53,-375.59 323.91,-373.43 314.45,-368.65 313.53,-375.59"/>
</a>
</g>
</g>
<!-- Node17 -->
<g id="Node000017" class="node">
<title>Node17</title>
<g id="a_Node000017"><a xlink:href="code__80005FD0_8c.html#a1d577f6ac2cae56acf36da0dcc5e21f8" target="_top" xlink:title=" ">
<polygon fill="white" stroke="#666666" points="274.5,-240 176.5,-240 176.5,-221 274.5,-221 274.5,-240"/>
<text text-anchor="middle" x="225.5" y="-228" font-family="Helvetica,sans-Serif" font-size="10.00">clear_path_point</text>
</a>
</g>
</g>
<!-- Node1&#45;&gt;Node17 -->
<g id="edge24_Node000001_Node000017" class="edge">
<title>Node1&#45;&gt;Node17</title>
<g id="a_edge24_Node000001_Node000017"><a xlink:title=" ">
<path fill="none" stroke="#63b8ff" d="M75.69,-315.97C93.34,-301.3 129.11,-272.94 163,-254.5 170.3,-250.53 178.4,-246.88 186.26,-243.69"/>
<polygon fill="#63b8ff" stroke="#63b8ff" points="187.6,-246.92 195.66,-240.04 185.07,-240.4 187.6,-246.92"/>
</a>
</g>
</g>
<!-- Node19 -->
<g id="Node000019" class="node">
<title>Node19</title>
<g id="a_Node000019"><a xlink:href="Game_8cpp.html#a5ec70de650576eadd39003e075efbdc8" target="_top" xlink:title=" ">
<polygon fill="white" stroke="#666666" points="629.5,-206 525.5,-206 525.5,-187 629.5,-187 629.5,-206"/>
<text text-anchor="middle" x="577.5" y="-194" font-family="Helvetica,sans-Serif" font-size="10.00">CM_ClearVehicles</text>
</a>
</g>
</g>
<!-- Node1&#45;&gt;Node19 -->
<g id="edge26_Node000001_Node000019" class="edge">
<title>Node1&#45;&gt;Node19</title>
<g id="a_edge26_Node000001_Node000019"><a xlink:title=" ">
<path fill="none" stroke="#63b8ff" d="M84.78,-316C104.37,-307.22 135.09,-294.52 163,-287.5 298.09,-253.51 340.8,-289.28 474,-248.5 489.23,-243.84 525.31,-224.78 550.32,-211.08"/>
<polygon fill="#63b8ff" stroke="#63b8ff" points="552.23,-214.03 559.3,-206.14 548.85,-207.9 552.23,-214.03"/>
</a>
</g>
</g>
<!-- Node20 -->
<g id="Node000020" class="node">
<title>Node20</title>
<g id="a_Node000020"><a xlink:href="code__80005FD0_8c.html#a0355a63eb89c8a358744c372aa1ad12a" target="_top" xlink:title=" ">
<polygon fill="white" stroke="#666666" points="272,-203 179,-203 179,-184 272,-184 272,-203"/>
<text text-anchor="middle" x="225.5" y="-191" font-family="Helvetica,sans-Serif" font-size="10.00">func_8000EEDC</text>
</a>
</g>
</g>
<!-- Node1&#45;&gt;Node20 -->
<g id="edge29_Node000001_Node000020" class="edge">
<title>Node1&#45;&gt;Node20</title>
<g id="a_edge29_Node000001_Node000020"><a xlink:title=" ">
<path fill="none" stroke="#63b8ff" d="M70.06,-315.91C83.28,-294 118.78,-239.94 163,-211.5 165.58,-209.84 168.33,-208.33 171.16,-206.95"/>
<polygon fill="#63b8ff" stroke="#63b8ff" points="172.62,-210.13 180.46,-203 169.89,-203.69 172.62,-210.13"/>
</a>
</g>
</g>
<!-- Node21 -->
<g id="Node000021" class="node">
<title>Node21</title>
<g id="a_Node000021"><a xlink:href="memory_8c.html#a7e6e89972c484db957ddbd70ba07ed92" target="_top" xlink:title="Returns the address of the next available memory location and updates the memory pointer to reference...">
<polygon fill="white" stroke="#666666" points="280.5,-165.5 170.5,-165.5 170.5,-135.5 280.5,-135.5 280.5,-165.5"/>
<text text-anchor="start" x="178.5" y="-153.5" font-family="Helvetica,sans-Serif" font-size="10.00">get_next_available</text>
<text text-anchor="middle" x="225.5" y="-142.5" font-family="Helvetica,sans-Serif" font-size="10.00">_memory_addr</text>
</a>
</g>
</g>
<!-- Node1&#45;&gt;Node21 -->
<g id="edge30_Node000001_Node000021" class="edge">
<title>Node1&#45;&gt;Node21</title>
<g id="a_edge30_Node000001_Node000021"><a xlink:title=" ">
<path fill="none" stroke="#63b8ff" d="M68.26,-315.9C79.03,-289.58 112.48,-215.56 163,-174.5 164.57,-173.23 166.21,-172.01 167.91,-170.86"/>
<polygon fill="#63b8ff" stroke="#63b8ff" points="170,-173.69 176.82,-165.58 166.43,-167.67 170,-173.69"/>
</a>
</g>
</g>
<!-- Node22 -->
<g id="Node000022" class="node">
<title>Node22</title>
<g id="a_Node000022"><a xlink:href="code__80005FD0_8c.html#ae18f6f7140f2ee549963a3bc404b159e" target="_top" xlink:title=" ">
<polygon fill="white" stroke="#666666" points="446.5,-354 351.5,-354 351.5,-335 446.5,-335 446.5,-354"/>
<text text-anchor="middle" x="399" y="-342" font-family="Helvetica,sans-Serif" font-size="10.00">load_track_path</text>
</a>
</g>
</g>
<!-- Node1&#45;&gt;Node22 -->
<g id="edge31_Node000001_Node000022" class="edge">
<title>Node1&#45;&gt;Node22</title>
<g id="a_edge31_Node000001_Node000022"><a xlink:title=" ">
<path fill="none" stroke="#63b8ff" d="M127.23,-329.07C188.73,-332.58 281.65,-337.87 341.08,-341.26"/>
<polygon fill="#63b8ff" stroke="#63b8ff" points="341.22,-344.77 351.4,-341.85 341.62,-337.78 341.22,-344.77"/>
</a>
</g>
</g>
<!-- Node3 -->
<g id="Node000003" class="node">
<title>Node3</title>
<g id="a_Node000003"><a xlink:href="code__80005FD0_8c.html#aff5ef775c3371f5520ef2c4690634e45" target="_top" xlink:title=" ">
<polygon fill="white" stroke="#666666" points="459,-581 339,-581 339,-562 459,-562 459,-581"/>
<text text-anchor="middle" x="399" y="-569" font-family="Helvetica,sans-Serif" font-size="10.00">calculate_angle_path</text>
</a>
</g>
</g>
<!-- Node2&#45;&gt;Node3 -->
<g id="edge2_Node000002_Node000003" class="edge">
<title>Node2&#45;&gt;Node3</title>
<g id="a_edge2_Node000002_Node000003"><a xlink:title=" ">
<path fill="none" stroke="#63b8ff" d="M269.78,-543.09C292.61,-548.15 320.82,-554.4 344.96,-559.75"/>
<polygon fill="#63b8ff" stroke="#63b8ff" points="344.51,-563.23 355.03,-561.98 346.03,-556.4 344.51,-563.23"/>
</a>
</g>
</g>
<!-- Node2&#45;&gt;Node7 -->
<g id="edge6_Node000002_Node000007" class="edge">
<title>Node2&#45;&gt;Node7</title>
<g id="a_edge6_Node000002_Node000007"><a xlink:title=" ">
<path fill="none" stroke="#63b8ff" d="M282.63,-533.83C333.51,-532.78 410.09,-527.82 474,-509.5 502.54,-501.32 532.66,-485.33 552.81,-473.42"/>
<polygon fill="#63b8ff" stroke="#63b8ff" points="554.84,-476.29 561.59,-468.12 551.22,-470.29 554.84,-476.29"/>
</a>
</g>
</g>
<!-- Node4 -->
<g id="Node000004" class="node">
<title>Node4</title>
<g id="a_Node000004"><a xlink:href="math__util_8c.html#a84cf9d4ec33146a64c230ed4cec56632" target="_top" xlink:title=" ">
<polygon fill="white" stroke="#666666" points="645,-586.5 510,-586.5 510,-556.5 645,-556.5 645,-586.5"/>
<text text-anchor="start" x="518" y="-574.5" font-family="Helvetica,sans-Serif" font-size="10.00">get_angle_between_two</text>
<text text-anchor="middle" x="577.5" y="-563.5" font-family="Helvetica,sans-Serif" font-size="10.00">_vectors</text>
</a>
</g>
</g>
<!-- Node3&#45;&gt;Node4 -->
<g id="edge3_Node000003_Node000004" class="edge">
<title>Node3&#45;&gt;Node4</title>
<g id="a_edge3_Node000003_Node000004"><a xlink:title=" ">
<path fill="none" stroke="#63b8ff" d="M459.26,-571.5C472.19,-571.5 486.05,-571.5 499.56,-571.5"/>
<polygon fill="#63b8ff" stroke="#63b8ff" points="499.79,-575 509.79,-571.5 499.79,-568 499.79,-575"/>
</a>
</g>
</g>
<!-- Node5 -->
<g id="Node000005" class="node">
<title>Node5</title>
<g id="a_Node000005"><a xlink:href="math__util_8c.html#aaa39a297477f56051975259f4bddd829" target="_top" xlink:title=" ">
<polygon fill="white" stroke="#666666" points="764.5,-582 714.5,-582 714.5,-563 764.5,-563 764.5,-582"/>
<text text-anchor="middle" x="739.5" y="-570" font-family="Helvetica,sans-Serif" font-size="10.00">atan2s</text>
</a>
</g>
</g>
<!-- Node4&#45;&gt;Node5 -->
<g id="edge4_Node000004_Node000005" class="edge">
<title>Node4&#45;&gt;Node5</title>
<g id="a_edge4_Node000004_Node000005"><a xlink:title=" ">
<path fill="none" stroke="#63b8ff" d="M645.43,-571.92C665.71,-572.05 687.14,-572.18 704.32,-572.29"/>
<polygon fill="#63b8ff" stroke="#63b8ff" points="704.4,-575.79 714.42,-572.35 704.44,-568.79 704.4,-575.79"/>
</a>
</g>
</g>
<!-- Node6 -->
<g id="Node000006" class="node">
<title>Node6</title>
<g id="a_Node000006"><a xlink:href="math__util_8c.html#a0273b0ea0783a06996c28669a7438ed9" target="_top" xlink:title=" ">
<polygon fill="white" stroke="#666666" points="945.5,-582 863.5,-582 863.5,-563 945.5,-563 945.5,-582"/>
<text text-anchor="middle" x="904.5" y="-570" font-family="Helvetica,sans-Serif" font-size="10.00">atan2_lookup</text>
</a>
</g>
</g>
<!-- Node5&#45;&gt;Node6 -->
<g id="edge5_Node000005_Node000006" class="edge">
<title>Node5&#45;&gt;Node6</title>
<g id="a_edge5_Node000005_Node000006"><a xlink:title=" ">
<path fill="none" stroke="#63b8ff" d="M764.55,-572.5C787.76,-572.5 823.62,-572.5 853.1,-572.5"/>
<polygon fill="#63b8ff" stroke="#63b8ff" points="853.22,-576 863.22,-572.5 853.22,-569 853.22,-576"/>
</a>
</g>
</g>
<!-- Node8 -->
<g id="Node000008" class="node">
<title>Node8</title>
<g id="a_Node000008"><a xlink:href="Game_8cpp.html#a0967ca61e9f768c9e278fef7b8030085" target="_top" xlink:title=" ">
<polygon fill="white" stroke="#666666" points="769,-506 710,-506 710,-487 769,-487 769,-506"/>
<text text-anchor="middle" x="739.5" y="-494" font-family="Helvetica,sans-Serif" font-size="10.00">GetTrack</text>
</a>
</g>
</g>
<!-- Node7&#45;&gt;Node8 -->
<g id="edge7_Node000007_Node000008" class="edge">
<title>Node7&#45;&gt;Node8</title>
<g id="a_edge7_Node000007_Node000008"><a xlink:title=" ">
<path fill="none" stroke="#63b8ff" d="M618.87,-468.09C643.66,-473.98 675.24,-481.48 699.73,-487.29"/>
<polygon fill="#63b8ff" stroke="#63b8ff" points="699.21,-490.77 709.75,-489.67 700.82,-483.95 699.21,-490.77"/>
</a>
</g>
</g>
<!-- Node9 -->
<g id="Node000009" class="node">
<title>Node9</title>
<g id="a_Node000009"><a xlink:href="classWorld.html#a1a4dacc6aea0b846df998be0afc239f7" target="_top" xlink:title=" ">
<polygon fill="white" stroke="#666666" points="951,-393 858,-393 858,-374 951,-374 951,-393"/>
<text text-anchor="middle" x="904.5" y="-381" font-family="Helvetica,sans-Serif" font-size="10.00">World::GetTrack</text>
</a>
</g>
</g>
<!-- Node7&#45;&gt;Node9 -->
<g id="edge10_Node000007_Node000009" class="edge">
<title>Node7&#45;&gt;Node9</title>
<g id="a_edge10_Node000007_Node000009"><a xlink:title=" ">
<path fill="none" stroke="#63b8ff" d="M590.86,-468.16C609.26,-481.86 645.52,-506.3 681,-515.5 731.33,-528.55 751.14,-538.04 798,-515.5 847.17,-491.85 880.58,-432.9 895.17,-402.42"/>
<polygon fill="#63b8ff" stroke="#63b8ff" points="898.39,-403.81 899.4,-393.26 892.03,-400.88 898.39,-403.81"/>
</a>
</g>
</g>
<!-- Node10 -->
<g id="Node000010" class="node">
<title>Node10</title>
<g id="a_Node000010"><a xlink:href="Game_8cpp.html#ae2fa844b3cb1021ecbc357f8ed2ad8cc" target="_top" xlink:title=" ">
<polygon fill="white" stroke="#666666" points="935.5,-356 873.5,-356 873.5,-337 935.5,-337 935.5,-356"/>
<text text-anchor="middle" x="904.5" y="-344" font-family="Helvetica,sans-Serif" font-size="10.00">GetWorld</text>
</a>
</g>
</g>
<!-- Node7&#45;&gt;Node10 -->
<g id="edge11_Node000007_Node000010" class="edge">
<title>Node7&#45;&gt;Node10</title>
<g id="a_edge11_Node000007_Node000010"><a xlink:title=" ">
<path fill="none" stroke="#63b8ff" d="M618.89,-465.87C666.17,-472.2 744.79,-475.25 798,-438.5 828.09,-417.71 805.69,-387.66 834,-364.5 842.33,-357.68 852.96,-353.42 863.38,-350.75"/>
<polygon fill="#63b8ff" stroke="#63b8ff" points="864.17,-354.17 873.22,-348.67 862.71,-347.32 864.17,-354.17"/>
</a>
</g>
</g>
<!-- Node8&#45;&gt;Node9 -->
<g id="edge8_Node000008_Node000009" class="edge">
<title>Node8&#45;&gt;Node9</title>
<g id="a_edge8_Node000008_Node000009"><a xlink:title=" ">
<path fill="none" stroke="#63b8ff" d="M768.25,-486.9C777.97,-483.03 788.77,-478.14 798,-472.5 832.33,-451.54 867,-419.8 886.81,-400.43"/>
<polygon fill="#63b8ff" stroke="#63b8ff" points="889.47,-402.71 894.1,-393.19 884.54,-397.75 889.47,-402.71"/>
</a>
</g>
</g>
<!-- Node8&#45;&gt;Node10 -->
<g id="edge9_Node000008_Node000010" class="edge">
<title>Node8&#45;&gt;Node10</title>
<g id="a_edge9_Node000008_Node000010"><a xlink:title=" ">
<path fill="none" stroke="#63b8ff" d="M769.14,-489.88C779.42,-486.25 790.34,-480.74 798,-472.5 832.44,-435.43 797.02,-399.03 834,-364.5 842.01,-357.02 852.71,-352.56 863.31,-349.92"/>
<polygon fill="#63b8ff" stroke="#63b8ff" points="864.24,-353.3 873.36,-347.91 862.87,-346.44 864.24,-353.3"/>
</a>
</g>
</g>
<!-- Node12 -->
<g id="Node000012" class="node">
<title>Node12</title>
<g id="a_Node000012"><a xlink:href="Game_8cpp.html#aab0dcf46f6e6e4516bf79ea3f519c765" target="_top" xlink:title=" ">
<polygon fill="white" stroke="#666666" points="633.5,-262 521.5,-262 521.5,-243 633.5,-243 633.5,-262"/>
<text text-anchor="middle" x="577.5" y="-250" font-family="Helvetica,sans-Serif" font-size="10.00">IsPodiumCeremony</text>
</a>
</g>
</g>
<!-- Node11&#45;&gt;Node12 -->
<g id="edge13_Node000011_Node000012" class="edge">
<title>Node11&#45;&gt;Node12</title>
<g id="a_edge13_Node000011_Node000012"><a xlink:title=" ">
<path fill="none" stroke="#63b8ff" d="M285.71,-303.89C336.13,-300.92 410.31,-294.79 474,-282.5 496.01,-278.25 520.1,-271.32 539.39,-265.19"/>
<polygon fill="#63b8ff" stroke="#63b8ff" points="540.57,-268.49 549,-262.08 538.41,-261.83 540.57,-268.49"/>
</a>
</g>
</g>
<!-- Node12&#45;&gt;Node9 -->
<g id="edge14_Node000012_Node000009" class="edge">
<title>Node12&#45;&gt;Node9</title>
<g id="a_edge14_Node000012_Node000009"><a xlink:title=" ">
<path fill="none" stroke="#63b8ff" d="M607.02,-242.99C652.27,-229.81 741.22,-212.03 798,-253.5 839.88,-284.09 796.48,-328.69 834,-364.5 838.13,-368.44 842.99,-371.58 848.2,-374.08"/>
<polygon fill="#63b8ff" stroke="#63b8ff" points="847.27,-377.48 857.86,-377.92 849.86,-370.97 847.27,-377.48"/>
</a>
</g>
</g>
<!-- Node12&#45;&gt;Node10 -->
<g id="edge15_Node000012_Node000010" class="edge">
<title>Node12&#45;&gt;Node10</title>
<g id="a_edge15_Node000012_Node000010"><a xlink:title=" ">
<path fill="none" stroke="#63b8ff" d="M597.45,-242.93C636.8,-224.47 729.43,-188.48 798,-220.5 845.64,-242.74 879.36,-298.25 894.51,-327.61"/>
<polygon fill="#63b8ff" stroke="#63b8ff" points="891.5,-329.41 899.09,-336.8 897.77,-326.29 891.5,-329.41"/>
</a>
</g>
</g>
<!-- Node13&#45;&gt;Node7 -->
<g id="edge20_Node000013_Node000007" class="edge">
<title>Node13&#45;&gt;Node7</title>
<g id="a_edge20_Node000013_Node000007"><a xlink:title=" ">
<path fill="none" stroke="#63b8ff" d="M275.97,-430.01C291.32,-432.72 308.32,-435.49 324,-437.5 393.8,-446.47 474.97,-452.43 526.04,-455.64"/>
<polygon fill="#63b8ff" stroke="#63b8ff" points="525.95,-459.14 536.15,-456.26 526.38,-452.15 525.95,-459.14"/>
</a>
</g>
</g>
<!-- Node14 -->
<g id="Node000014" class="node">
<title>Node14</title>
<g id="a_Node000014"><a xlink:href="code__80005FD0_8c.html#adf13615f04cfae72d01ad23f33a4e4aa" target="_top" xlink:title=" ">
<polygon fill="white" stroke="#666666" points="470.5,-429 327.5,-429 327.5,-410 470.5,-410 470.5,-429"/>
<text text-anchor="middle" x="399" y="-417" font-family="Helvetica,sans-Serif" font-size="10.00">calculate_track_curvature</text>
</a>
</g>
</g>
<!-- Node13&#45;&gt;Node14 -->
<g id="edge17_Node000013_Node000014" class="edge">
<title>Node13&#45;&gt;Node14</title>
<g id="a_edge17_Node000013_Node000014"><a xlink:title=" ">
<path fill="none" stroke="#63b8ff" d="M288.42,-420.14C297.82,-420.08 307.63,-420.03 317.36,-419.97"/>
<polygon fill="#63b8ff" stroke="#63b8ff" points="317.46,-423.47 327.44,-419.91 317.42,-416.47 317.46,-423.47"/>
</a>
</g>
</g>
<!-- Node14&#45;&gt;Node7 -->
<g id="edge18_Node000014_Node000007" class="edge">
<title>Node14&#45;&gt;Node7</title>
<g id="a_edge18_Node000014_Node000007"><a xlink:title=" ">
<path fill="none" stroke="#63b8ff" d="M443.18,-429.04C468.42,-434.62 500.4,-441.68 526.71,-447.5"/>
<polygon fill="#63b8ff" stroke="#63b8ff" points="525.97,-450.92 536.49,-449.66 527.48,-444.08 525.97,-450.92"/>
</a>
</g>
</g>
<!-- Node15 -->
<g id="Node000015" class="node">
<title>Node15</title>
<g id="a_Node000015"><a xlink:href="math_8h.html#a37bde043e94a6f074c78f10518fb5d99" target="_top" xlink:title=" ">
<polygon fill="white" stroke="#666666" points="759,-430 720,-430 720,-411 759,-411 759,-430"/>
<text text-anchor="middle" x="739.5" y="-418" font-family="Helvetica,sans-Serif" font-size="10.00">sqrtf</text>
</a>
</g>
</g>
<!-- Node14&#45;&gt;Node15 -->
<g id="edge19_Node000014_Node000015" class="edge">
<title>Node14&#45;&gt;Node15</title>
<g id="a_edge19_Node000014_Node000015"><a xlink:title=" ">
<path fill="none" stroke="#63b8ff" d="M470.55,-419.71C544.53,-419.93 657.2,-420.26 709.7,-420.41"/>
<polygon fill="#63b8ff" stroke="#63b8ff" points="709.94,-423.92 719.95,-420.45 709.96,-416.92 709.94,-423.92"/>
</a>
</g>
</g>
<!-- Node16&#45;&gt;Node7 -->
<g id="edge22_Node000016_Node000007" class="edge">
<title>Node16&#45;&gt;Node7</title>
<g id="a_edge22_Node000016_Node000007"><a xlink:title=" ">
<path fill="none" stroke="#63b8ff" d="M447.58,-392.01C456.5,-394.37 465.64,-397.19 474,-400.5 503.02,-411.98 533.87,-430.39 554.05,-443.38"/>
<polygon fill="#63b8ff" stroke="#63b8ff" points="552.25,-446.38 562.53,-448.93 556.08,-440.52 552.25,-446.38"/>
</a>
</g>
</g>
<!-- Node16&#45;&gt;Node15 -->
<g id="edge23_Node000016_Node000015" class="edge">
<title>Node16&#45;&gt;Node15</title>
<g id="a_edge23_Node000016_Node000015"><a xlink:title=" ">
<path fill="none" stroke="#63b8ff" d="M474.29,-390.84C548.23,-399.14 657.94,-411.46 709.61,-417.26"/>
<polygon fill="#63b8ff" stroke="#63b8ff" points="709.39,-420.75 719.72,-418.39 710.17,-413.8 709.39,-420.75"/>
</a>
</g>
</g>
<!-- Node18 -->
<g id="Node000018" class="node">
<title>Node18</title>
<g id="a_Node000018"><a xlink:href="bstring_8h.html#ab828ad07c8ebf898973f27778c543651" target="_top" xlink:title=" ">
<polygon fill="white" stroke="#666666" points="421,-240 377,-240 377,-221 421,-221 421,-240"/>
<text text-anchor="middle" x="399" y="-228" font-family="Helvetica,sans-Serif" font-size="10.00">bzero</text>
</a>
</g>
</g>
<!-- Node17&#45;&gt;Node18 -->
<g id="edge25_Node000017_Node000018" class="edge">
<title>Node17&#45;&gt;Node18</title>
<g id="a_edge25_Node000017_Node000018"><a xlink:title=" ">
<path fill="none" stroke="#63b8ff" d="M274.73,-230.5C304.03,-230.5 340.61,-230.5 366.29,-230.5"/>
<polygon fill="#63b8ff" stroke="#63b8ff" points="366.57,-234 376.57,-230.5 366.57,-227 366.57,-234"/>
</a>
</g>
</g>
<!-- Node19&#45;&gt;Node10 -->
<g id="edge27_Node000019_Node000010" class="edge">
<title>Node19&#45;&gt;Node10</title>
<g id="a_edge27_Node000019_Node000010"><a xlink:title=" ">
<path fill="none" stroke="#63b8ff" d="M625.61,-186.99C672.21,-180.05 744.17,-176.19 798,-204.5 849.04,-231.34 881.97,-295.2 895.89,-327.34"/>
<polygon fill="#63b8ff" stroke="#63b8ff" points="892.81,-329.03 899.88,-336.92 899.27,-326.34 892.81,-329.03"/>
</a>
</g>
</g>
<!-- Node22&#45;&gt;Node7 -->
<g id="edge32_Node000022_Node000007" class="edge">
<title>Node22&#45;&gt;Node7</title>
<g id="a_edge32_Node000022_Node000007"><a xlink:title=" ">
<path fill="none" stroke="#63b8ff" d="M446.74,-352.75C456.09,-355.42 465.62,-358.93 474,-363.5 510.67,-383.5 544.37,-419.56 562.52,-441.04"/>
<polygon fill="#63b8ff" stroke="#63b8ff" points="559.82,-443.27 568.89,-448.75 565.21,-438.81 559.82,-443.27"/>
</a>
</g>
</g>
<!-- Node22&#45;&gt;Node12 -->
<g id="edge56_Node000022_Node000012" class="edge">
<title>Node22&#45;&gt;Node12</title>
<g id="a_edge56_Node000022_Node000012"><a xlink:title=" ">
<path fill="none" stroke="#63b8ff" d="M439.69,-334.93C451.17,-331.3 463.45,-326.54 474,-320.5 492.58,-309.86 492.47,-300.79 510,-288.5 521.54,-280.41 535.09,-272.78 546.93,-266.64"/>
<polygon fill="#63b8ff" stroke="#63b8ff" points="548.65,-269.69 556,-262.06 545.5,-263.45 548.65,-269.69"/>
</a>
</g>
</g>
<!-- Node23 -->
<g id="Node000023" class="node">
<title>Node23</title>
<g id="a_Node000023"><a xlink:href="code__80005FD0_8c.html#ac09cdba0d303bd516359b9ae117e59e6" target="_top" xlink:title=" ">
<polygon fill="white" stroke="#666666" points="623,-354 532,-354 532,-335 623,-335 623,-354"/>
<text text-anchor="middle" x="577.5" y="-342" font-family="Helvetica,sans-Serif" font-size="10.00">func_80011014</text>
</a>
</g>
</g>
<!-- Node22&#45;&gt;Node23 -->
<g id="edge33_Node000022_Node000023" class="edge">
<title>Node22&#45;&gt;Node23</title>
<g id="a_edge33_Node000022_Node000023"><a xlink:title=" ">
<path fill="none" stroke="#63b8ff" d="M446.84,-344.5C469.89,-344.5 497.82,-344.5 521.85,-344.5"/>
<polygon fill="#63b8ff" stroke="#63b8ff" points="521.88,-348 531.88,-344.5 521.88,-341 521.88,-348"/>
</a>
</g>
</g>
<!-- Node37 -->
<g id="Node000037" class="node">
<title>Node37</title>
<g id="a_Node000037"><a xlink:href="code__80005FD0_8c.html#a63ad6d0756cdc4682b0032051cc628ce" target="_top" xlink:title=" ">
<polygon fill="white" stroke="#666666" points="631.5,-317 523.5,-317 523.5,-298 631.5,-298 631.5,-317"/>
<text text-anchor="middle" x="577.5" y="-305" font-family="Helvetica,sans-Serif" font-size="10.00">process_path_data</text>
</a>
</g>
</g>
<!-- Node22&#45;&gt;Node37 -->
<g id="edge57_Node000022_Node000037" class="edge">
<title>Node22&#45;&gt;Node37</title>
<g id="a_edge57_Node000022_Node000037"><a xlink:title=" ">
<path fill="none" stroke="#63b8ff" d="M445.45,-334.97C468.52,-330.14 496.74,-324.22 521.08,-319.12"/>
<polygon fill="#63b8ff" stroke="#63b8ff" points="521.83,-322.54 530.89,-317.06 520.39,-315.69 521.83,-322.54"/>
</a>
</g>
</g>
<!-- Node23&#45;&gt;Node15 -->
<g id="edge55_Node000023_Node000015" class="edge">
<title>Node23&#45;&gt;Node15</title>
<g id="a_edge55_Node000023_Node000015"><a xlink:title=" ">
<path fill="none" stroke="#63b8ff" d="M613.17,-354.11C623.79,-357.81 635.23,-362.59 645,-368.5 663.57,-379.74 662.28,-390.52 681,-401.5 689.86,-406.7 700.33,-410.69 709.89,-413.65"/>
<polygon fill="#63b8ff" stroke="#63b8ff" points="709.21,-417.1 719.79,-416.46 711.12,-410.36 709.21,-417.1"/>
</a>
</g>
</g>
<!-- Node24 -->
<g id="Node000024" class="node">
<title>Node24</title>
<g id="a_Node000024"><a xlink:href="code__80005FD0_8c.html#aa4f95e13ae04a8719510680bb59a3ba0" target="_top" xlink:title=" ">
<polygon fill="white" stroke="#666666" points="785,-130 694,-130 694,-111 785,-111 785,-130"/>
<text text-anchor="middle" x="739.5" y="-118" font-family="Helvetica,sans-Serif" font-size="10.00">func_80010F40</text>
</a>
</g>
</g>
<!-- Node23&#45;&gt;Node24 -->
<g id="edge34_Node000023_Node000024" class="edge">
<title>Node23&#45;&gt;Node24</title>
<g id="a_edge34_Node000023_Node000024"><a xlink:title=" ">
<path fill="none" stroke="#63b8ff" d="M623.06,-337.55C630.99,-334.78 638.72,-330.9 645,-325.5 652.68,-318.89 709.21,-188.61 730.46,-139.25"/>
<polygon fill="#63b8ff" stroke="#63b8ff" points="733.69,-140.58 734.43,-130.01 727.26,-137.82 733.69,-140.58"/>
</a>
</g>
</g>
<!-- Node32 -->
<g id="Node000032" class="node">
<title>Node32</title>
<g id="a_Node000032"><a xlink:href="code__80005FD0_8c.html#ad22ec1d3413eebae418d5d0a1bbbe6a8" target="_top" xlink:title=" ">
<polygon fill="white" stroke="#666666" points="784.5,-93 694.5,-93 694.5,-74 784.5,-74 784.5,-93"/>
<text text-anchor="middle" x="739.5" y="-81" font-family="Helvetica,sans-Serif" font-size="10.00">func_80010FA0</text>
</a>
</g>
</g>
<!-- Node23&#45;&gt;Node32 -->
<g id="edge42_Node000023_Node000032" class="edge">
<title>Node23&#45;&gt;Node32</title>
<g id="a_edge42_Node000023_Node000032"><a xlink:title=" ">
<path fill="none" stroke="#63b8ff" d="M623.28,-339.18C631.49,-336.3 639.26,-331.97 645,-325.5 711.94,-250.09 615.02,-177.75 681,-101.5 682.36,-99.93 683.86,-98.49 685.46,-97.18"/>
<polygon fill="#63b8ff" stroke="#63b8ff" points="687.67,-99.92 694.22,-91.6 683.9,-94.02 687.67,-99.92"/>
</a>
</g>
</g>
<!-- Node33 -->
<g id="Node000033" class="node">
<title>Node33</title>
<g id="a_Node000033"><a xlink:href="collision_8c.html#a053809031f467d0a6747788211e0ec69" target="_top" xlink:title=" ">
<polygon fill="white" stroke="#666666" points="798,-282 681,-282 681,-263 798,-263 798,-282"/>
<text text-anchor="middle" x="739.5" y="-270" font-family="Helvetica,sans-Serif" font-size="10.00">get_track_section_id</text>
</a>
</g>
</g>
<!-- Node23&#45;&gt;Node33 -->
<g id="edge45_Node000023_Node000033" class="edge">
<title>Node23&#45;&gt;Node33</title>
<g id="a_edge45_Node000023_Node000033"><a xlink:title=" ">
<path fill="none" stroke="#63b8ff" d="M623.04,-335.08C630.63,-332.56 638.25,-329.41 645,-325.5 664.31,-314.32 661.83,-301.92 681,-290.5 683.83,-288.81 686.84,-287.27 689.93,-285.86"/>
<polygon fill="#63b8ff" stroke="#63b8ff" points="691.44,-289.02 699.39,-282.01 688.8,-282.54 691.44,-289.02"/>
</a>
</g>
</g>
<!-- Node34 -->
<g id="Node000034" class="node">
<title>Node34</title>
<g id="a_Node000034"><a xlink:href="Game_8cpp.html#a545c1a384e93cc7b616dfee707f5d962" target="_top" xlink:title=" ">
<polygon fill="white" stroke="#666666" points="773.5,-393 705.5,-393 705.5,-374 773.5,-374 773.5,-393"/>
<text text-anchor="middle" x="739.5" y="-381" font-family="Helvetica,sans-Serif" font-size="10.00">IsDkJungle</text>
</a>
</g>
</g>
<!-- Node23&#45;&gt;Node34 -->
<g id="edge46_Node000023_Node000034" class="edge">
<title>Node23&#45;&gt;Node34</title>
<g id="a_edge46_Node000023_Node000034"><a xlink:title=" ">
<path fill="none" stroke="#63b8ff" d="M617.64,-354.04C641.2,-359.78 671.21,-367.1 695.44,-373"/>
<polygon fill="#63b8ff" stroke="#63b8ff" points="694.89,-376.47 705.43,-375.44 696.55,-369.67 694.89,-376.47"/>
</a>
</g>
</g>
<!-- Node35 -->
<g id="Node000035" class="node">
<title>Node35</title>
<g id="a_Node000035"><a xlink:href="Game_8cpp.html#a5c843dc61d3b9ca430e4926c4b8018ef" target="_top" xlink:title=" ">
<polygon fill="white" stroke="#666666" points="785.5,-356 693.5,-356 693.5,-337 785.5,-337 785.5,-356"/>
<text text-anchor="middle" x="739.5" y="-344" font-family="Helvetica,sans-Serif" font-size="10.00">IsRainbowRoad</text>
</a>
</g>
</g>
<!-- Node23&#45;&gt;Node35 -->
<g id="edge49_Node000023_Node000035" class="edge">
<title>Node23&#45;&gt;Node35</title>
<g id="a_edge49_Node000023_Node000035"><a xlink:title=" ">
<path fill="none" stroke="#63b8ff" d="M623.07,-345.06C641.73,-345.29 663.62,-345.56 683.28,-345.81"/>
<polygon fill="#63b8ff" stroke="#63b8ff" points="683.29,-349.31 693.34,-345.94 683.38,-342.31 683.29,-349.31"/>
</a>
</g>
</g>
<!-- Node36 -->
<g id="Node000036" class="node">
<title>Node36</title>
<g id="a_Node000036"><a xlink:href="Game_8cpp.html#a1c60552e0107dfda214cbc9e83695321" target="_top" xlink:title=" ">
<polygon fill="white" stroke="#666666" points="786,-319 693,-319 693,-300 786,-300 786,-319"/>
<text text-anchor="middle" x="739.5" y="-307" font-family="Helvetica,sans-Serif" font-size="10.00">IsWarioStadium</text>
</a>
</g>
</g>
<!-- Node23&#45;&gt;Node36 -->
<g id="edge52_Node000023_Node000036" class="edge">
<title>Node23&#45;&gt;Node36</title>
<g id="a_edge52_Node000023_Node000036"><a xlink:title=" ">
<path fill="none" stroke="#63b8ff" d="M622.22,-334.94C641.62,-330.69 664.64,-325.66 685.05,-321.19"/>
<polygon fill="#63b8ff" stroke="#63b8ff" points="685.81,-324.61 694.83,-319.05 684.32,-317.77 685.81,-324.61"/>
</a>
</g>
</g>
<!-- Node25 -->
<g id="Node000025" class="node">
<title>Node25</title>
<g id="a_Node000025"><a xlink:href="collision_8c.html#a37aa55b3768d001533ad75e7f1b8388a" target="_top" xlink:title=" ">
<polygon fill="white" stroke="#666666" points="975,-93 834,-93 834,-74 975,-74 975,-93"/>
<text text-anchor="middle" x="904.5" y="-81" font-family="Helvetica,sans-Serif" font-size="10.00">check_bounding_collision</text>
</a>
</g>
</g>
<!-- Node24&#45;&gt;Node25 -->
<g id="edge35_Node000024_Node000025" class="edge">
<title>Node24&#45;&gt;Node25</title>
<g id="a_edge35_Node000024_Node000025"><a xlink:title=" ">
<path fill="none" stroke="#63b8ff" d="M782.48,-110.97C803.5,-106.2 829.15,-100.38 851.42,-95.32"/>
<polygon fill="#63b8ff" stroke="#63b8ff" points="852.41,-98.69 861.38,-93.06 850.86,-91.86 852.41,-98.69"/>
</a>
</g>
</g>
<!-- Node29 -->
<g id="Node000029" class="node">
<title>Node29</title>
<g id="a_Node000029"><a xlink:href="collision_8c.html#ad95e9ed2051529d5edee26109fa07427" target="_top" xlink:title=" ">
<polygon fill="white" stroke="#666666" points="973,-130 836,-130 836,-111 973,-111 973,-130"/>
<text text-anchor="middle" x="904.5" y="-118" font-family="Helvetica,sans-Serif" font-size="10.00">spawn_actor_on_surface</text>
</a>
</g>
</g>
<!-- Node24&#45;&gt;Node29 -->
<g id="edge39_Node000024_Node000029" class="edge">
<title>Node24&#45;&gt;Node29</title>
<g id="a_edge39_Node000024_Node000029"><a xlink:title=" ">
<path fill="none" stroke="#63b8ff" d="M785.04,-120.5C797.63,-120.5 811.72,-120.5 825.66,-120.5"/>
<polygon fill="#63b8ff" stroke="#63b8ff" points="825.76,-124 835.76,-120.5 825.76,-117 825.76,-124"/>
</a>
</g>
</g>
<!-- Node26 -->
<g id="Node000026" class="node">
<title>Node26</title>
<g id="a_Node000026"><a xlink:href="collision_8c.html#ac312bf382cb40752f6b790a99e7cdcb6" target="_top" xlink:title=" ">
<polygon fill="white" stroke="#666666" points="1134,-93 1026,-93 1026,-74 1134,-74 1134,-93"/>
<text text-anchor="middle" x="1080" y="-81" font-family="Helvetica,sans-Serif" font-size="10.00">check_collision_yx</text>
</a>
</g>
</g>
<!-- Node25&#45;&gt;Node26 -->
<g id="edge36_Node000025_Node000026" class="edge">
<title>Node25&#45;&gt;Node26</title>
<g id="a_edge36_Node000025_Node000026"><a xlink:title=" ">
<path fill="none" stroke="#63b8ff" d="M975.07,-83.5C988.46,-83.5 1002.42,-83.5 1015.6,-83.5"/>
<polygon fill="#63b8ff" stroke="#63b8ff" points="1015.98,-87 1025.98,-83.5 1015.98,-80 1015.98,-87"/>
</a>
</g>
</g>
<!-- Node27 -->
<g id="Node000027" class="node">
<title>Node27</title>
<g id="a_Node000027"><a xlink:href="collision_8c.html#a4b48832a90e984536a0635a016ec4f28" target="_top" xlink:title=" ">
<polygon fill="white" stroke="#666666" points="1133.5,-56 1026.5,-56 1026.5,-37 1133.5,-37 1133.5,-56"/>
<text text-anchor="middle" x="1080" y="-44" font-family="Helvetica,sans-Serif" font-size="10.00">check_collision_zx</text>
</a>
</g>
</g>
<!-- Node25&#45;&gt;Node27 -->
<g id="edge37_Node000025_Node000027" class="edge">
<title>Node25&#45;&gt;Node27</title>
<g id="a_edge37_Node000025_Node000027"><a xlink:title=" ">
<path fill="none" stroke="#63b8ff" d="M950.18,-73.97C972.76,-69.16 1000.35,-63.27 1024.2,-58.19"/>
<polygon fill="#63b8ff" stroke="#63b8ff" points="1025.12,-61.57 1034.17,-56.06 1023.66,-54.72 1025.12,-61.57"/>
</a>
</g>
</g>
<!-- Node28 -->
<g id="Node000028" class="node">
<title>Node28</title>
<g id="a_Node000028"><a xlink:href="collision_8c.html#a21fef964ab48191a1c0341954ef27a40" target="_top" xlink:title=" ">
<polygon fill="white" stroke="#666666" points="1133.5,-19 1026.5,-19 1026.5,0 1133.5,0 1133.5,-19"/>
<text text-anchor="middle" x="1080" y="-7" font-family="Helvetica,sans-Serif" font-size="10.00">check_collision_zy</text>
</a>
</g>
</g>
<!-- Node25&#45;&gt;Node28 -->
<g id="edge38_Node000025_Node000028" class="edge">
<title>Node25&#45;&gt;Node28</title>
<g id="a_edge38_Node000025_Node000028"><a xlink:title=" ">
<path fill="none" stroke="#63b8ff" d="M920.7,-73.99C940.74,-61.8 977.4,-40.66 1011,-27.5 1016.12,-25.5 1021.54,-23.64 1026.99,-21.94"/>
<polygon fill="#63b8ff" stroke="#63b8ff" points="1028.19,-25.24 1036.8,-19.06 1026.22,-18.52 1028.19,-25.24"/>
</a>
</g>
</g>
<!-- Node30 -->
<g id="Node000030" class="node">
<title>Node30</title>
<g id="a_Node000030"><a xlink:href="collision_8c.html#a6527a2135a10909cdf9a1fd731be5628" target="_top" xlink:title=" ">
<polygon fill="white" stroke="#666666" points="1149,-130 1011,-130 1011,-111 1149,-111 1149,-130"/>
<text text-anchor="middle" x="1080" y="-118" font-family="Helvetica,sans-Serif" font-size="10.00">calculate_surface_height</text>
</a>
</g>
</g>
<!-- Node29&#45;&gt;Node30 -->
<g id="edge40_Node000029_Node000030" class="edge">
<title>Node29&#45;&gt;Node30</title>
<g id="a_edge40_Node000029_Node000030"><a xlink:title=" ">
<path fill="none" stroke="#63b8ff" d="M973.08,-120.5C982.06,-120.5 991.34,-120.5 1000.49,-120.5"/>
<polygon fill="#63b8ff" stroke="#63b8ff" points="1000.75,-124 1010.75,-120.5 1000.75,-117 1000.75,-124"/>
</a>
</g>
</g>
<!-- Node31 -->
<g id="Node000031" class="node">
<title>Node31</title>
<g id="a_Node000031"><a xlink:href="collision_8c.html#a0fe340ccfe1d926a592ea9a0c84d7574" target="_top" xlink:title=" ">
<polygon fill="white" stroke="#666666" points="1146,-178.5 1014,-178.5 1014,-148.5 1146,-148.5 1146,-178.5"/>
<text text-anchor="start" x="1022" y="-166.5" font-family="Helvetica,sans-Serif" font-size="10.00">check_horizontally</text>
<text text-anchor="middle" x="1080" y="-155.5" font-family="Helvetica,sans-Serif" font-size="10.00">_colliding_with_triangle</text>
</a>
</g>
</g>
<!-- Node29&#45;&gt;Node31 -->
<g id="edge41_Node000029_Node000031" class="edge">
<title>Node29&#45;&gt;Node31</title>
<g id="a_edge41_Node000029_Node000031"><a xlink:title=" ">
<path fill="none" stroke="#63b8ff" d="M944.01,-130.04C962.96,-134.74 986.43,-140.56 1008.46,-146.02"/>
<polygon fill="#63b8ff" stroke="#63b8ff" points="1007.9,-149.49 1018.45,-148.49 1009.59,-142.69 1007.9,-149.49"/>
</a>
</g>
</g>
<!-- Node32&#45;&gt;Node25 -->
<g id="edge43_Node000032_Node000025" class="edge">
<title>Node32&#45;&gt;Node25</title>
<g id="a_edge43_Node000032_Node000025"><a xlink:title=" ">
<path fill="none" stroke="#63b8ff" d="M784.61,-83.5C796.71,-83.5 810.21,-83.5 823.65,-83.5"/>
<polygon fill="#63b8ff" stroke="#63b8ff" points="823.89,-87 833.89,-83.5 823.89,-80 823.89,-87"/>
</a>
</g>
</g>
<!-- Node32&#45;&gt;Node29 -->
<g id="edge44_Node000032_Node000029" class="edge">
<title>Node32&#45;&gt;Node29</title>
<g id="a_edge44_Node000032_Node000029"><a xlink:title=" ">
<path fill="none" stroke="#63b8ff" d="M782.48,-93.03C803.5,-97.8 829.15,-103.62 851.42,-108.68"/>
<polygon fill="#63b8ff" stroke="#63b8ff" points="850.86,-112.14 861.38,-110.94 852.41,-105.31 850.86,-112.14"/>
</a>
</g>
</g>
<!-- Node34&#45;&gt;Node9 -->
<g id="edge47_Node000034_Node000009" class="edge">
<title>Node34&#45;&gt;Node9</title>
<g id="a_edge47_Node000034_Node000009"><a xlink:title=" ">
<path fill="none" stroke="#63b8ff" d="M773.88,-383.5C795.07,-383.5 823.02,-383.5 847.54,-383.5"/>
<polygon fill="#63b8ff" stroke="#63b8ff" points="847.81,-387 857.81,-383.5 847.81,-380 847.81,-387"/>
</a>
</g>
</g>
<!-- Node34&#45;&gt;Node10 -->
<g id="edge48_Node000034_Node000010" class="edge">
<title>Node34&#45;&gt;Node10</title>
<g id="a_edge48_Node000034_Node000010"><a xlink:title=" ">
<path fill="none" stroke="#63b8ff" d="M773.88,-375.92C799.81,-370.04 835.87,-361.85 863.38,-355.61"/>
<polygon fill="#63b8ff" stroke="#63b8ff" points="864.48,-358.95 873.46,-353.32 862.93,-352.12 864.48,-358.95"/>
</a>
</g>
</g>
<!-- Node35&#45;&gt;Node9 -->
<g id="edge50_Node000035_Node000009" class="edge">
<title>Node35&#45;&gt;Node9</title>
<g id="a_edge50_Node000035_Node000009"><a xlink:title=" ">
<path fill="none" stroke="#63b8ff" d="M782.48,-356.03C803.5,-360.8 829.15,-366.62 851.42,-371.68"/>
<polygon fill="#63b8ff" stroke="#63b8ff" points="850.86,-375.14 861.38,-373.94 852.41,-368.31 850.86,-375.14"/>
</a>
</g>
</g>
<!-- Node35&#45;&gt;Node10 -->
<g id="edge51_Node000035_Node000010" class="edge">
<title>Node35&#45;&gt;Node10</title>
<g id="a_edge51_Node000035_Node000010"><a xlink:title=" ">
<path fill="none" stroke="#63b8ff" d="M785.9,-346.5C810.08,-346.5 839.58,-346.5 862.98,-346.5"/>
<polygon fill="#63b8ff" stroke="#63b8ff" points="863.26,-350 873.26,-346.5 863.26,-343 863.26,-350"/>
</a>
</g>
</g>
<!-- Node36&#45;&gt;Node9 -->
<g id="edge53_Node000036_Node000009" class="edge">
<title>Node36&#45;&gt;Node9</title>
<g id="a_edge53_Node000036_Node000009"><a xlink:title=" ">
<path fill="none" stroke="#63b8ff" d="M780.3,-319.1C786.45,-321.39 792.56,-324.16 798,-327.5 817.55,-339.52 814.24,-352.84 834,-364.5 838.46,-367.13 843.3,-369.41 848.28,-371.38"/>
<polygon fill="#63b8ff" stroke="#63b8ff" points="847.36,-374.77 857.96,-374.8 849.7,-368.17 847.36,-374.77"/>
</a>
</g>
</g>
<!-- Node36&#45;&gt;Node10 -->
<g id="edge54_Node000036_Node000010" class="edge">
<title>Node36&#45;&gt;Node10</title>
<g id="a_edge54_Node000036_Node000010"><a xlink:title=" ">
<path fill="none" stroke="#63b8ff" d="M782.48,-319.03C807.4,-324.69 838.84,-331.82 863.42,-337.4"/>
<polygon fill="#63b8ff" stroke="#63b8ff" points="862.97,-340.89 873.5,-339.69 864.52,-334.06 862.97,-340.89"/>
</a>
</g>
</g>
</g>
</svg>

<g id="navigator" transform="translate(0 0)" fill="#404254">
  <rect fill="#f2f5e9" fill-opacity="0.5" stroke="#606060" stroke-width=".5" x="0" y="0" width="60" height="60"/>
  <use id="zoomplus" xlink:href="#zoomPlus" x="17" y="9" onmousedown="handleZoom(evt,'in')"/>
  <use id="zoomminus" xlink:href="#zoomMin" x="42" y="9" onmousedown="handleZoom(evt,'out')"/>
  <use id="reset" xlink:href="#resetDef" x="30" y="36" onmousedown="handleReset()"/>
   <use id="arrowup" xlink:href="#arrowUp" x="0" y="0" onmousedown="handlePan(0,-1)"/>
  <use id="arrowright" xlink:href="#arrowRight" x="0" y="0" onmousedown="handlePan(1,0)"/>
  <use id="arrowdown" xlink:href="#arrowDown" x="0" y="0" onmousedown="handlePan(0,1)"/>
  <use id="arrowleft" xlink:href="#arrowLeft" x="0" y="0" onmousedown="handlePan(-1,0)"/>
</g>
<svg viewBox="0 0 15 15" width="100%" height="30px" preserveAspectRatio="xMaxYMin meet">
 <g id="arrow_out" transform="scale(0.3 0.3)">
  <a xlink:href="code__80005FD0_8h_a77709d8cbf7a0b88d0f3cb3f5efca3be_cgraph_org.svg" target="_base">
   <rect id="button" ry="5" rx="5" y="6" x="6" height="38" width="38"
        fill="#f2f5e9" fill-opacity="0.5" stroke="#606060" stroke-width="1.0"/>
   <path id="arrow"
     d="M 11.500037,31.436501 C 11.940474,20.09759 22.043105,11.32322 32.158766,21.979434 L 37.068811,17.246167 C 37.068811,17.246167 37.088388,32 37.088388,32 L 22.160133,31.978069 C 22.160133,31.978069 26.997745,27.140456 26.997745,27.140456 C 18.528582,18.264221 13.291696,25.230495 11.500037,31.436501 z"
     style="fill:#404040;"/>
  </a>
 </g>
</svg>

<style type='text/css'>
<![CDATA[
[data-mouse-over-selected='false'] { opacity: 0.7; }
[data-mouse-over-selected='true']  { opacity: 1.0; }
]]>
</style>
<script type="application/ecmascript"><![CDATA[
document.addEventListener('DOMContentLoaded', (event) => {
  highlightEdges();
  highlightAdjacentNodes();
});
]]></script>
</svg>
