<?xml version="1.0" encoding="UTF-8" standalone="no"?>
<!DOCTYPE svg PUBLIC "-//W3C//DTD SVG 1.1//EN"
 "http://www.w3.org/Graphics/SVG/1.1/DTD/svg11.dtd">
<!-- Generated by graphviz version 2.43.0 (0)
 -->
<!-- Title: func_80089020 Pages: 1 -->
<svg width="367pt" height="82pt"
 viewBox="0.00 0.00 367.00 82.00" xmlns="http://www.w3.org/2000/svg" xmlns:xlink="http://www.w3.org/1999/xlink">
<g id="graph0" class="graph" transform="scale(1 1) rotate(0) translate(4 78)">
<title>func_80089020</title>
<!-- Node1 -->
<g id="Node000001" class="node">
<title>Node1</title>
<g id="a_Node000001"><a xlink:title=" ">
<polygon fill="#999999" stroke="#666666" points="91,-55 0,-55 0,-36 91,-36 91,-55"/>
<text text-anchor="middle" x="45.5" y="-43" font-family="Helvetica,sans-Serif" font-size="10.00">func_80089020</text>
</a>
</g>
</g>
<!-- Node2 -->
<g id="Node000002" class="node">
<title>Node2</title>
<g id="a_Node000002"><a xlink:href="math__util__2_8c.html#a1f3982f853bea1b49c3733f209dbb903" target="_top" xlink:title=" ">
<polygon fill="white" stroke="#666666" points="230,-74 127,-74 127,-55 230,-55 230,-74"/>
<text text-anchor="middle" x="178.5" y="-62" font-family="Helvetica,sans-Serif" font-size="10.00">f32_step_towards</text>
</a>
</g>
</g>
<!-- Node1&#45;&gt;Node2 -->
<g id="edge1_Node000001_Node000002" class="edge">
<title>Node1&#45;&gt;Node2</title>
<g id="a_edge1_Node000001_Node000002"><a xlink:title=" ">
<path fill="none" stroke="#63b8ff" d="M91.22,-51.99C99.42,-53.18 108.11,-54.44 116.69,-55.68"/>
<polygon fill="#63b8ff" stroke="#63b8ff" points="116.28,-59.16 126.68,-57.13 117.29,-52.23 116.28,-59.16"/>
</a>
</g>
</g>
<!-- Node3 -->
<g id="Node000003" class="node">
<title>Node3</title>
<g id="a_Node000003"><a xlink:href="Game_8cpp.html#a50e0248e5c26af68912796d9397e6599" target="_top" xlink:title=" ">
<polygon fill="white" stroke="#666666" points="221.5,-37 135.5,-37 135.5,-18 221.5,-18 221.5,-37"/>
<text text-anchor="middle" x="178.5" y="-25" font-family="Helvetica,sans-Serif" font-size="10.00">IsSherbetLand</text>
</a>
</g>
</g>
<!-- Node1&#45;&gt;Node3 -->
<g id="edge2_Node000001_Node000003" class="edge">
<title>Node1&#45;&gt;Node3</title>
<g id="a_edge2_Node000001_Node000003"><a xlink:title=" ">
<path fill="none" stroke="#63b8ff" d="M91.22,-39.36C102.11,-37.86 113.86,-36.24 125.08,-34.7"/>
<polygon fill="#63b8ff" stroke="#63b8ff" points="125.76,-38.14 135.19,-33.31 124.81,-31.21 125.76,-38.14"/>
</a>
</g>
</g>
<!-- Node4 -->
<g id="Node000004" class="node">
<title>Node4</title>
<g id="a_Node000004"><a xlink:href="classWorld.html#a1a4dacc6aea0b846df998be0afc239f7" target="_top" xlink:title=" ">
<polygon fill="white" stroke="#666666" points="359,-56 266,-56 266,-37 359,-37 359,-56"/>
<text text-anchor="middle" x="312.5" y="-44" font-family="Helvetica,sans-Serif" font-size="10.00">World::GetTrack</text>
</a>
</g>
</g>
<!-- Node3&#45;&gt;Node4 -->
<g id="edge3_Node000003_Node000004" class="edge">
<title>Node3&#45;&gt;Node4</title>
<g id="a_edge3_Node000003_Node000004"><a xlink:title=" ">
<path fill="none" stroke="#63b8ff" d="M221.63,-33.56C232.48,-35.13 244.33,-36.83 255.76,-38.48"/>
<polygon fill="#63b8ff" stroke="#63b8ff" points="255.26,-41.94 265.66,-39.9 256.26,-35.01 255.26,-41.94"/>
</a>
</g>
</g>
<!-- Node5 -->
<g id="Node000005" class="node">
<title>Node5</title>
<g id="a_Node000005"><a xlink:href="Game_8cpp.html#ae2fa844b3cb1021ecbc357f8ed2ad8cc" target="_top" xlink:title=" ">
<polygon fill="white" stroke="#666666" points="343.5,-19 281.5,-19 281.5,0 343.5,0 343.5,-19"/>
<text text-anchor="middle" x="312.5" y="-7" font-family="Helvetica,sans-Serif" font-size="10.00">GetWorld</text>
</a>
</g>
</g>
<!-- Node3&#45;&gt;Node5 -->
<g id="edge4_Node000003_Node000005" class="edge">
<title>Node3&#45;&gt;Node5</title>
<g id="a_edge4_Node000003_Node000005"><a xlink:title=" ">
<path fill="none" stroke="#63b8ff" d="M221.63,-21.76C237.6,-19.58 255.72,-17.11 271.49,-14.96"/>
<polygon fill="#63b8ff" stroke="#63b8ff" points="272.03,-18.42 281.46,-13.6 271.08,-11.48 272.03,-18.42"/>
</a>
</g>
</g>
</g>
</svg>
