<?xml version="1.0" encoding="UTF-8" standalone="no"?>
<!DOCTYPE svg PUBLIC "-//W3C//DTD SVG 1.1//EN"
 "http://www.w3.org/Graphics/SVG/1.1/DTD/svg11.dtd">
<!-- Generated by graphviz version 2.43.0 (0)
 -->
<!-- Title: init_hud_two_player_horizontal Pages: 1 -->
<!--zoomable 177 -->

<svg id="main" version="1.1" xmlns="http://www.w3.org/2000/svg" xmlns:xlink="http://www.w3.org/1999/xlink" xml:space="preserve" onload="init(evt)">

<style type="text/css"><![CDATA[
.node, .edge {opacity: 0.7;}
.node.selected, .edge.selected {opacity: 1;}
.edge:hover path { stroke: red; }
.edge:hover polygon { stroke: red; fill: red; }
]]></style>

<defs>
  <circle id="rim" cx="0" cy="0" r="7"/>
  <circle id="rim2" cx="0" cy="0" r="3.5"/>
  <g id="zoomPlus">
    <use xlink:href="#rim" fill="#404040"><set attributeName="fill" to="#808080" begin="zoomplus.mouseover" end="zoomplus.mouseout"/></use>
    <path d="M-4,0h8M0,-4v8" fill="none" stroke="white" stroke-width="1.5" pointer-events="none"/>
  </g>
  <g id="zoomMin">
    <use xlink:href="#rim" fill="#404040"><set attributeName="fill" to="#808080" begin="zoomminus.mouseover" end="zoomminus.mouseout"/></use>
    <path d="M-4,0h8" fill="none" stroke="white" stroke-width="1.5" pointer-events="none"/>
  </g>
  <g id="arrowUp" transform="translate(30 24)">
    <use xlink:href="#rim"/>
    <path pointer-events="none" fill="none" stroke="white" stroke-width="1.5" d="M0,-3.0v7 M-2.5,-0.5L0,-3.0L2.5,-0.5"/>
  </g>
  <g id="arrowRight" transform="rotate(90) translate(36 -43)">
    <use xlink:href="#rim"/>
    <path pointer-events="none" fill="none" stroke="white" stroke-width="1.5" d="M0,-3.0v7 M-2.5,-0.5L0,-3.0L2.5,-0.5"/>
  </g>
  <g id="arrowDown" transform="rotate(180) translate(-30 -48)">
    <use xlink:href="#rim"/>
    <path pointer-events="none" fill="none" stroke="white" stroke-width="1.5" d="M0,-3.0v7 M-2.5,-0.5L0,-3.0L2.5,-0.5"/>
  </g>
  <g id="arrowLeft" transform="rotate(270) translate(-36 17)">
    <use xlink:href="#rim"/>
    <path pointer-events="none" fill="none" stroke="white" stroke-width="1.5" d="M0,-3.0v7 M-2.5,-0.5L0,-3.0L2.5,-0.5"/>
  </g>
  <g id="resetDef">
    <use xlink:href="#rim2" fill="#404040"><set attributeName="fill" to="#808080" begin="reset.mouseover" end="reset.mouseout"/></use>
  </g>
</defs>
<script type="application/ecmascript">
var viewWidth = 667;
var viewHeight = 177;
var sectionId = 'dynsection-27';
</script>
<script type="application/ecmascript" xlink:href="svg.min.js"/>
<svg id="graph" class="graph">
<g id="viewport">
<title>init_hud_two_player_horizontal</title>
<!-- Node1 -->
<g id="Node000001" class="node">
<title>Node1</title>
<g id="a_Node000001"><a xlink:title=" ">
<polygon fill="#999999" stroke="#666666" points="115,-98.5 0,-98.5 0,-68.5 115,-68.5 115,-98.5"/>
<text text-anchor="start" x="8" y="-86.5" font-family="Helvetica,sans-Serif" font-size="10.00">init_hud_two_player</text>
<text text-anchor="middle" x="57.5" y="-75.5" font-family="Helvetica,sans-Serif" font-size="10.00">_horizontal</text>
</a>
</g>
</g>
<!-- Node2 -->
<g id="Node000002" class="node">
<title>Node2</title>
<g id="a_Node000002"><a xlink:href="update__objects_8c.html#a92856990c4ca5fba1b8e0c61ca832c27" target="_top" xlink:title=" ">
<polygon fill="white" stroke="#666666" points="435,-168 307,-168 307,-149 435,-149 435,-168"/>
<text text-anchor="middle" x="371" y="-156" font-family="Helvetica,sans-Serif" font-size="10.00">find_unused_obj_index</text>
</a>
</g>
</g>
<!-- Node1&#45;&gt;Node2 -->
<g id="edge1_Node000001_Node000002" class="edge">
<title>Node1&#45;&gt;Node2</title>
<g id="a_edge1_Node000001_Node000002"><a xlink:title=" ">
<path fill="none" stroke="#63b8ff" d="M115.27,-97.17C173.92,-111.29 264.53,-133.11 320.4,-146.56"/>
<polygon fill="#63b8ff" stroke="#63b8ff" points="319.87,-150.03 330.41,-148.97 321.5,-143.22 319.87,-150.03"/>
</a>
</g>
</g>
<!-- Node3 -->
<g id="Node000003" class="node">
<title>Node3</title>
<g id="a_Node000003"><a xlink:href="code__8006E9C0_8c.html#afef0314f6f435d008ed32c2aa1e2fed0" target="_top" xlink:title=" ">
<polygon fill="white" stroke="#666666" points="257,-93 165,-93 165,-74 257,-74 257,-93"/>
<text text-anchor="middle" x="211" y="-81" font-family="Helvetica,sans-Serif" font-size="10.00">func_8007055C</text>
</a>
</g>
</g>
<!-- Node1&#45;&gt;Node3 -->
<g id="edge2_Node000001_Node000003" class="edge">
<title>Node1&#45;&gt;Node3</title>
<g id="a_edge2_Node000001_Node000003"><a xlink:title=" ">
<path fill="none" stroke="#63b8ff" d="M115.34,-83.5C128.2,-83.5 141.83,-83.5 154.62,-83.5"/>
<polygon fill="#63b8ff" stroke="#63b8ff" points="154.67,-87 164.67,-83.5 154.67,-80 154.67,-87"/>
</a>
</g>
</g>
<!-- Node9 -->
<g id="Node000009" class="node">
<title>Node9</title>
<g id="a_Node000009"><a xlink:href="code__8006E9C0_8c.html#a95bd792f4507dd26cf251c980bd9214b" target="_top" xlink:title=" ">
<polygon fill="white" stroke="#666666" points="263.5,-56 158.5,-56 158.5,-37 263.5,-37 263.5,-56"/>
<text text-anchor="middle" x="211" y="-44" font-family="Helvetica,sans-Serif" font-size="10.00">init_course_object</text>
</a>
</g>
</g>
<!-- Node1&#45;&gt;Node9 -->
<g id="edge10_Node000001_Node000009" class="edge">
<title>Node1&#45;&gt;Node9</title>
<g id="a_edge10_Node000001_Node000009"><a xlink:title=" ">
<path fill="none" stroke="#63b8ff" d="M115.34,-69.62C130.35,-65.95 146.42,-62.03 160.97,-58.47"/>
<polygon fill="#63b8ff" stroke="#63b8ff" points="161.89,-61.85 170.78,-56.08 160.23,-55.05 161.89,-61.85"/>
</a>
</g>
</g>
<!-- Node11 -->
<g id="Node000011" class="node">
<title>Node11</title>
<g id="a_Node000011"><a xlink:href="code__8006E9C0_8c.html#a7fd371a62513a311ab8903e23511dc9b" target="_top" xlink:title=" ">
<polygon fill="white" stroke="#666666" points="262.5,-19 159.5,-19 159.5,0 262.5,0 262.5,-19"/>
<text text-anchor="middle" x="211" y="-7" font-family="Helvetica,sans-Serif" font-size="10.00">init_item_window</text>
</a>
</g>
</g>
<!-- Node1&#45;&gt;Node11 -->
<g id="edge15_Node000001_Node000011" class="edge">
<title>Node1&#45;&gt;Node11</title>
<g id="a_edge15_Node000001_Node000011"><a xlink:title=" ">
<path fill="none" stroke="#63b8ff" d="M80.09,-68.31C98.32,-56.01 125.46,-38.91 151,-27.5 155.13,-25.66 159.5,-23.93 163.92,-22.34"/>
<polygon fill="#63b8ff" stroke="#63b8ff" points="165.25,-25.58 173.6,-19.05 163,-18.95 165.25,-25.58"/>
</a>
</g>
</g>
<!-- Node12 -->
<g id="Node000012" class="node">
<title>Node12</title>
<g id="a_Node000012"><a xlink:href="code__8006E9C0_8c.html#ac9869b321dfbda91715daf48a65b2075" target="_top" xlink:title=" ">
<polygon fill="white" stroke="#666666" points="271,-169 151,-169 151,-150 271,-150 271,-169"/>
<text text-anchor="middle" x="211" y="-157" font-family="Helvetica,sans-Serif" font-size="10.00">init_object_list_index</text>
</a>
</g>
</g>
<!-- Node1&#45;&gt;Node12 -->
<g id="edge16_Node000001_Node000012" class="edge">
<title>Node1&#45;&gt;Node12</title>
<g id="a_edge16_Node000001_Node000012"><a xlink:title=" ">
<path fill="none" stroke="#63b8ff" d="M83.56,-98.72C101.92,-109.59 127.6,-124.22 151,-135.5 158.65,-139.19 167.02,-142.82 174.98,-146.1"/>
<polygon fill="#63b8ff" stroke="#63b8ff" points="173.85,-149.42 184.43,-149.91 176.46,-142.93 173.85,-149.42"/>
</a>
</g>
</g>
<!-- Node4 -->
<g id="Node000004" class="node">
<title>Node4</title>
<g id="a_Node000004"><a xlink:href="Game_8cpp.html#a011d7e2f1ff6949f70023c2f53091010" target="_top" xlink:title=" ">
<polygon fill="white" stroke="#666666" points="414,-130 328,-130 328,-111 414,-111 414,-130"/>
<text text-anchor="middle" x="371" y="-118" font-family="Helvetica,sans-Serif" font-size="10.00">CM_InitClouds</text>
</a>
</g>
</g>
<!-- Node3&#45;&gt;Node4 -->
<g id="edge3_Node000003_Node000004" class="edge">
<title>Node3&#45;&gt;Node4</title>
<g id="a_edge3_Node000003_Node000004"><a xlink:title=" ">
<path fill="none" stroke="#63b8ff" d="M252.69,-93.03C272.97,-97.78 297.71,-103.57 319.22,-108.61"/>
<polygon fill="#63b8ff" stroke="#63b8ff" points="318.64,-112.07 329.17,-110.94 320.24,-105.25 318.64,-112.07"/>
</a>
</g>
</g>
<!-- Node8 -->
<g id="Node000008" class="node">
<title>Node8</title>
<g id="a_Node000008"><a xlink:href="effects_8c.html#a39f746571de71a6f7dc193320afc377c" target="_top" xlink:title=" ">
<polygon fill="white" stroke="#666666" points="417,-93 325,-93 325,-74 417,-74 417,-93"/>
<text text-anchor="middle" x="371" y="-81" font-family="Helvetica,sans-Serif" font-size="10.00">func_8008C23C</text>
</a>
</g>
</g>
<!-- Node3&#45;&gt;Node8 -->
<g id="edge9_Node000003_Node000008" class="edge">
<title>Node3&#45;&gt;Node8</title>
<g id="a_edge9_Node000003_Node000008"><a xlink:title=" ">
<path fill="none" stroke="#63b8ff" d="M257.28,-83.5C275.2,-83.5 295.98,-83.5 314.78,-83.5"/>
<polygon fill="#63b8ff" stroke="#63b8ff" points="314.99,-87 324.99,-83.5 314.99,-80 314.99,-87"/>
</a>
</g>
</g>
<!-- Node5 -->
<g id="Node000005" class="node">
<title>Node5</title>
<g id="a_Node000005"><a xlink:href="Game_8cpp.html#a0967ca61e9f768c9e278fef7b8030085" target="_top" xlink:title=" ">
<polygon fill="white" stroke="#666666" points="530,-55 471,-55 471,-36 530,-36 530,-55"/>
<text text-anchor="middle" x="500.5" y="-43" font-family="Helvetica,sans-Serif" font-size="10.00">GetTrack</text>
</a>
</g>
</g>
<!-- Node4&#45;&gt;Node5 -->
<g id="edge4_Node000004_Node000005" class="edge">
<title>Node4&#45;&gt;Node5</title>
<g id="a_edge4_Node000004_Node000005"><a xlink:title=" ">
<path fill="none" stroke="#63b8ff" d="M414.05,-111.32C421.26,-108.96 428.51,-106.05 435,-102.5 453.92,-92.14 472.02,-75.33 484.2,-62.65"/>
<polygon fill="#63b8ff" stroke="#63b8ff" points="487.05,-64.72 491.3,-55.02 481.92,-59.96 487.05,-64.72"/>
</a>
</g>
</g>
<!-- Node6 -->
<g id="Node000006" class="node">
<title>Node6</title>
<g id="a_Node000006"><a xlink:href="classWorld.html#a1a4dacc6aea0b846df998be0afc239f7" target="_top" xlink:title=" ">
<polygon fill="white" stroke="#666666" points="659,-93 566,-93 566,-74 659,-74 659,-93"/>
<text text-anchor="middle" x="612.5" y="-81" font-family="Helvetica,sans-Serif" font-size="10.00">World::GetTrack</text>
</a>
</g>
</g>
<!-- Node4&#45;&gt;Node6 -->
<g id="edge7_Node000004_Node000006" class="edge">
<title>Node4&#45;&gt;Node6</title>
<g id="a_edge7_Node000004_Node000006"><a xlink:title=" ">
<path fill="none" stroke="#63b8ff" d="M402.63,-130.06C434.94,-138.62 487.02,-148.04 530,-135.5 553.93,-128.52 577.52,-112.14 593.11,-99.61"/>
<polygon fill="#63b8ff" stroke="#63b8ff" points="595.45,-102.22 600.91,-93.14 590.98,-96.84 595.45,-102.22"/>
</a>
</g>
</g>
<!-- Node7 -->
<g id="Node000007" class="node">
<title>Node7</title>
<g id="a_Node000007"><a xlink:href="Game_8cpp.html#ae2fa844b3cb1021ecbc357f8ed2ad8cc" target="_top" xlink:title=" ">
<polygon fill="white" stroke="#666666" points="643.5,-55 581.5,-55 581.5,-36 643.5,-36 643.5,-55"/>
<text text-anchor="middle" x="612.5" y="-43" font-family="Helvetica,sans-Serif" font-size="10.00">GetWorld</text>
</a>
</g>
</g>
<!-- Node4&#45;&gt;Node7 -->
<g id="edge8_Node000004_Node000007" class="edge">
<title>Node4&#45;&gt;Node7</title>
<g id="a_edge8_Node000004_Node000007"><a xlink:title=" ">
<path fill="none" stroke="#63b8ff" d="M406.07,-111C415.46,-108.31 425.64,-105.35 435,-102.5 482.87,-87.94 537.66,-70.05 573.33,-58.24"/>
<polygon fill="#63b8ff" stroke="#63b8ff" points="574.47,-61.55 582.86,-55.08 572.26,-54.91 574.47,-61.55"/>
</a>
</g>
</g>
<!-- Node5&#45;&gt;Node6 -->
<g id="edge5_Node000005_Node000006" class="edge">
<title>Node5&#45;&gt;Node6</title>
<g id="a_edge5_Node000005_Node000006"><a xlink:title=" ">
<path fill="none" stroke="#63b8ff" d="M529.26,-55.09C542.81,-59.77 559.31,-65.47 573.96,-70.53"/>
<polygon fill="#63b8ff" stroke="#63b8ff" points="573.16,-73.96 583.75,-73.91 575.44,-67.34 573.16,-73.96"/>
</a>
</g>
</g>
<!-- Node5&#45;&gt;Node7 -->
<g id="edge6_Node000005_Node000007" class="edge">
<title>Node5&#45;&gt;Node7</title>
<g id="a_edge6_Node000005_Node000007"><a xlink:title=" ">
<path fill="none" stroke="#63b8ff" d="M530.11,-45.5C542.69,-45.5 557.69,-45.5 571.36,-45.5"/>
<polygon fill="#63b8ff" stroke="#63b8ff" points="571.49,-49 581.49,-45.5 571.49,-42 571.49,-49"/>
</a>
</g>
</g>
<!-- Node10 -->
<g id="Node000010" class="node">
<title>Node10</title>
<g id="a_Node000010"><a xlink:href="Game_8cpp.html#a872b3eafef96f83081b83794fb4681e5" target="_top" xlink:title=" ">
<polygon fill="white" stroke="#666666" points="429,-56 313,-56 313,-37 429,-37 429,-56"/>
<text text-anchor="middle" x="371" y="-44" font-family="Helvetica,sans-Serif" font-size="10.00">CM_InitTrackObjects</text>
</a>
</g>
</g>
<!-- Node9&#45;&gt;Node10 -->
<g id="edge11_Node000009_Node000010" class="edge">
<title>Node9&#45;&gt;Node10</title>
<g id="a_edge11_Node000009_Node000010"><a xlink:title=" ">
<path fill="none" stroke="#63b8ff" d="M263.74,-46.5C276.16,-46.5 289.62,-46.5 302.64,-46.5"/>
<polygon fill="#63b8ff" stroke="#63b8ff" points="302.96,-50 312.96,-46.5 302.96,-43 302.96,-50"/>
</a>
</g>
</g>
<!-- Node10&#45;&gt;Node5 -->
<g id="edge12_Node000010_Node000005" class="edge">
<title>Node10&#45;&gt;Node5</title>
<g id="a_edge12_Node000010_Node000005"><a xlink:title=" ">
<path fill="none" stroke="#63b8ff" d="M429.04,-46.05C439.77,-45.97 450.75,-45.88 460.76,-45.8"/>
<polygon fill="#63b8ff" stroke="#63b8ff" points="460.81,-49.3 470.78,-45.73 460.75,-42.3 460.81,-49.3"/>
</a>
</g>
</g>
<!-- Node10&#45;&gt;Node6 -->
<g id="edge13_Node000010_Node000006" class="edge">
<title>Node10&#45;&gt;Node6</title>
<g id="a_edge13_Node000010_Node000006"><a xlink:title=" ">
<path fill="none" stroke="#63b8ff" d="M425.65,-56C440.34,-58.52 456.27,-61.19 471,-63.5 498.93,-67.89 530.06,-72.36 555.9,-75.96"/>
<polygon fill="#63b8ff" stroke="#63b8ff" points="555.51,-79.44 565.89,-77.34 556.47,-72.5 555.51,-79.44"/>
</a>
</g>
</g>
<!-- Node10&#45;&gt;Node7 -->
<g id="edge14_Node000010_Node000007" class="edge">
<title>Node10&#45;&gt;Node7</title>
<g id="a_edge14_Node000010_Node000007"><a xlink:title=" ">
<path fill="none" stroke="#63b8ff" d="M410.28,-36.91C428.54,-32.82 450.76,-28.52 471,-26.5 497.09,-23.89 503.95,-23.5 530,-26.5 543.55,-28.06 558.13,-31.03 571.15,-34.17"/>
<polygon fill="#63b8ff" stroke="#63b8ff" points="570.66,-37.65 581.22,-36.7 572.37,-30.87 570.66,-37.65"/>
</a>
</g>
</g>
<!-- Node12&#45;&gt;Node2 -->
<g id="edge17_Node000012_Node000002" class="edge">
<title>Node12&#45;&gt;Node2</title>
<g id="a_edge17_Node000012_Node000002"><a xlink:title=" ">
<path fill="none" stroke="#63b8ff" d="M271.28,-159.12C279.65,-159.07 288.34,-159.02 296.93,-158.96"/>
<polygon fill="#63b8ff" stroke="#63b8ff" points="296.97,-162.46 306.95,-158.9 296.93,-155.46 296.97,-162.46"/>
</a>
</g>
</g>
</g>
</svg>

<g id="navigator" transform="translate(0 0)" fill="#404254">
  <rect fill="#f2f5e9" fill-opacity="0.5" stroke="#606060" stroke-width=".5" x="0" y="0" width="60" height="60"/>
  <use id="zoomplus" xlink:href="#zoomPlus" x="17" y="9" onmousedown="handleZoom(evt,'in')"/>
  <use id="zoomminus" xlink:href="#zoomMin" x="42" y="9" onmousedown="handleZoom(evt,'out')"/>
  <use id="reset" xlink:href="#resetDef" x="30" y="36" onmousedown="handleReset()"/>
   <use id="arrowup" xlink:href="#arrowUp" x="0" y="0" onmousedown="handlePan(0,-1)"/>
  <use id="arrowright" xlink:href="#arrowRight" x="0" y="0" onmousedown="handlePan(1,0)"/>
  <use id="arrowdown" xlink:href="#arrowDown" x="0" y="0" onmousedown="handlePan(0,1)"/>
  <use id="arrowleft" xlink:href="#arrowLeft" x="0" y="0" onmousedown="handlePan(-1,0)"/>
</g>
<svg viewBox="0 0 15 15" width="100%" height="30px" preserveAspectRatio="xMaxYMin meet">
 <g id="arrow_out" transform="scale(0.3 0.3)">
  <a xlink:href="code__8006E9C0_8c_ae0bbfee0194d6a21ab9c2133af28ae16_cgraph_org.svg" target="_base">
   <rect id="button" ry="5" rx="5" y="6" x="6" height="38" width="38"
        fill="#f2f5e9" fill-opacity="0.5" stroke="#606060" stroke-width="1.0"/>
   <path id="arrow"
     d="M 11.500037,31.436501 C 11.940474,20.09759 22.043105,11.32322 32.158766,21.979434 L 37.068811,17.246167 C 37.068811,17.246167 37.088388,32 37.088388,32 L 22.160133,31.978069 C 22.160133,31.978069 26.997745,27.140456 26.997745,27.140456 C 18.528582,18.264221 13.291696,25.230495 11.500037,31.436501 z"
     style="fill:#404040;"/>
  </a>
 </g>
</svg>

<style type='text/css'>
<![CDATA[
[data-mouse-over-selected='false'] { opacity: 0.7; }
[data-mouse-over-selected='true']  { opacity: 1.0; }
]]>
</style>
<script type="application/ecmascript"><![CDATA[
document.addEventListener('DOMContentLoaded', (event) => {
  highlightEdges();
  highlightAdjacentNodes();
});
]]></script>
</svg>
