<?xml version="1.0" encoding="UTF-8" standalone="no"?>
<!DOCTYPE svg PUBLIC "-//W3C//DTD SVG 1.1//EN"
 "http://www.w3.org/Graphics/SVG/1.1/DTD/svg11.dtd">
<!-- Generated by graphviz version 2.43.0 (0)
 -->
<!-- Title: init_vehicles_cars Pages: 1 -->
<svg width="1219pt" height="254pt"
 viewBox="0.00 0.00 1219.00 254.00" xmlns="http://www.w3.org/2000/svg" xmlns:xlink="http://www.w3.org/1999/xlink">
<g id="graph0" class="graph" transform="scale(1 1) rotate(0) translate(4 250)">
<title>init_vehicles_cars</title>
<!-- Node1 -->
<g id="Node000001" class="node">
<title>Node1</title>
<g id="a_Node000001"><a xlink:title=" ">
<polygon fill="#999999" stroke="#666666" points="104,-93 0,-93 0,-74 104,-74 104,-93"/>
<text text-anchor="middle" x="52" y="-81" font-family="Helvetica,sans-Serif" font-size="10.00">init_vehicles_cars</text>
</a>
</g>
</g>
<!-- Node2 -->
<g id="Node000002" class="node">
<title>Node2</title>
<g id="a_Node000002"><a xlink:href="code__80005FD0_8c.html#af8068c46ce72dbd5b61790d355728cff" target="_top" xlink:title=" ">
<polygon fill="white" stroke="#666666" points="276,-98.5 140,-98.5 140,-68.5 276,-68.5 276,-98.5"/>
<text text-anchor="start" x="148" y="-86.5" font-family="Helvetica,sans-Serif" font-size="10.00">initialize_toads_turnpike</text>
<text text-anchor="middle" x="208" y="-75.5" font-family="Helvetica,sans-Serif" font-size="10.00">_vehicle</text>
</a>
</g>
</g>
<!-- Node1&#45;&gt;Node2 -->
<g id="edge1_Node000001_Node000002" class="edge">
<title>Node1&#45;&gt;Node2</title>
<g id="a_edge1_Node000001_Node000002"><a xlink:title=" ">
<path fill="none" stroke="#63b8ff" d="M104.28,-83.5C112.46,-83.5 121.07,-83.5 129.69,-83.5"/>
<polygon fill="#63b8ff" stroke="#63b8ff" points="129.78,-87 139.78,-83.5 129.78,-80 129.78,-87"/>
</a>
</g>
</g>
<!-- Node3 -->
<g id="Node000003" class="node">
<title>Node3</title>
<g id="a_Node000003"><a xlink:href="code__80005FD0_8c.html#a45fa364fbae557a3d2025ebdc0846cd2" target="_top" xlink:title=" ">
<polygon fill="white" stroke="#666666" points="406,-93 312,-93 312,-74 406,-74 406,-93"/>
<text text-anchor="middle" x="359" y="-81" font-family="Helvetica,sans-Serif" font-size="10.00">func_8000D6D0</text>
</a>
</g>
</g>
<!-- Node2&#45;&gt;Node3 -->
<g id="edge2_Node000002_Node000003" class="edge">
<title>Node2&#45;&gt;Node3</title>
<g id="a_edge2_Node000002_Node000003"><a xlink:title=" ">
<path fill="none" stroke="#63b8ff" d="M276.09,-83.5C284.66,-83.5 293.36,-83.5 301.73,-83.5"/>
<polygon fill="#63b8ff" stroke="#63b8ff" points="301.75,-87 311.75,-83.5 301.75,-80 301.75,-87"/>
</a>
</g>
</g>
<!-- Node23 -->
<g id="Node000023" class="node">
<title>Node23</title>
<g id="a_Node000023"><a xlink:href="code__80005FD0_8c.html#a124bae511133f507498b19842362feeb" target="_top" xlink:title=" ">
<polygon fill="white" stroke="#666666" points="405,-130 313,-130 313,-111 405,-111 405,-130"/>
<text text-anchor="middle" x="359" y="-118" font-family="Helvetica,sans-Serif" font-size="10.00">func_8000D940</text>
</a>
</g>
</g>
<!-- Node2&#45;&gt;Node23 -->
<g id="edge22_Node000002_Node000023" class="edge">
<title>Node2&#45;&gt;Node23</title>
<g id="a_edge22_Node000002_Node000023"><a xlink:title=" ">
<path fill="none" stroke="#63b8ff" d="M269.6,-98.55C282.95,-101.86 296.92,-105.33 309.71,-108.51"/>
<polygon fill="#63b8ff" stroke="#63b8ff" points="309.13,-111.97 319.68,-110.98 310.82,-105.18 309.13,-111.97"/>
</a>
</g>
</g>
<!-- Node24 -->
<g id="Node000024" class="node">
<title>Node24</title>
<g id="a_Node000024"><a xlink:href="math__util_8c.html#a151b63b8adf9af7e4054b3b84bd226dc" target="_top" xlink:title=" ">
<polygon fill="white" stroke="#666666" points="395,-38 323,-38 323,-19 395,-19 395,-38"/>
<text text-anchor="middle" x="359" y="-26" font-family="Helvetica,sans-Serif" font-size="10.00">random_int</text>
</a>
</g>
</g>
<!-- Node2&#45;&gt;Node24 -->
<g id="edge27_Node000002_Node000024" class="edge">
<title>Node2&#45;&gt;Node24</title>
<g id="a_edge27_Node000002_Node000024"><a xlink:title=" ">
<path fill="none" stroke="#63b8ff" d="M249.71,-68.47C272.43,-60.09 300.46,-49.74 322.31,-41.67"/>
<polygon fill="#63b8ff" stroke="#63b8ff" points="323.71,-44.89 331.88,-38.14 321.28,-38.32 323.71,-44.89"/>
</a>
</g>
</g>
<!-- Node4 -->
<g id="Node000004" class="node">
<title>Node4</title>
<g id="a_Node000004"><a xlink:href="code__80005FD0_8c.html#aff1ba4b22fc22c38fcf28007ccaaa752" target="_top" xlink:title=" ">
<polygon fill="white" stroke="#666666" points="558,-130 465,-130 465,-111 558,-111 558,-130"/>
<text text-anchor="middle" x="511.5" y="-118" font-family="Helvetica,sans-Serif" font-size="10.00">func_8000D2B4</text>
</a>
</g>
</g>
<!-- Node3&#45;&gt;Node4 -->
<g id="edge3_Node000003_Node000004" class="edge">
<title>Node3&#45;&gt;Node4</title>
<g id="a_edge3_Node000003_Node000004"><a xlink:title=" ">
<path fill="none" stroke="#63b8ff" d="M398.76,-93.03C417.99,-97.76 441.43,-103.52 461.86,-108.54"/>
<polygon fill="#63b8ff" stroke="#63b8ff" points="461.07,-111.95 471.61,-110.94 462.74,-105.15 461.07,-111.95"/>
</a>
</g>
</g>
<!-- Node17 -->
<g id="Node000017" class="node">
<title>Node17</title>
<g id="a_Node000017"><a xlink:href="code__80005FD0_8c.html#a79cd9c001e0a06c9cab23fe2cf070abf" target="_top" xlink:title=" ">
<polygon fill="white" stroke="#666666" points="581,-93 442,-93 442,-74 581,-74 581,-93"/>
<text text-anchor="middle" x="511.5" y="-81" font-family="Helvetica,sans-Serif" font-size="10.00">get_angle_between_path</text>
</a>
</g>
</g>
<!-- Node3&#45;&gt;Node17 -->
<g id="edge16_Node000003_Node000017" class="edge">
<title>Node3&#45;&gt;Node17</title>
<g id="a_edge16_Node000003_Node000017"><a xlink:title=" ">
<path fill="none" stroke="#63b8ff" d="M406.38,-83.5C414.45,-83.5 423.05,-83.5 431.7,-83.5"/>
<polygon fill="#63b8ff" stroke="#63b8ff" points="431.86,-87 441.86,-83.5 431.86,-80 431.86,-87"/>
</a>
</g>
</g>
<!-- Node21 -->
<g id="Node000021" class="node">
<title>Node21</title>
<g id="a_Node000021"><a xlink:href="code__80005FD0_8c.html#a83974499a323e99b007956bf9c0e25ff" target="_top" xlink:title=" ">
<polygon fill="white" stroke="#666666" points="581,-56 442,-56 442,-37 581,-37 581,-56"/>
<text text-anchor="middle" x="511.5" y="-44" font-family="Helvetica,sans-Serif" font-size="10.00">set_track_offset_position</text>
</a>
</g>
</g>
<!-- Node3&#45;&gt;Node21 -->
<g id="edge20_Node000003_Node000021" class="edge">
<title>Node3&#45;&gt;Node21</title>
<g id="a_edge20_Node000003_Node000021"><a xlink:title=" ">
<path fill="none" stroke="#63b8ff" d="M398.76,-73.97C417.99,-69.24 441.43,-63.48 461.86,-58.46"/>
<polygon fill="#63b8ff" stroke="#63b8ff" points="462.74,-61.85 471.61,-56.06 461.07,-55.05 462.74,-61.85"/>
</a>
</g>
</g>
<!-- Node22 -->
<g id="Node000022" class="node">
<title>Node22</title>
<g id="a_Node000022"><a xlink:href="math_8h.html#a37bde043e94a6f074c78f10518fb5d99" target="_top" xlink:title=" ">
<polygon fill="white" stroke="#666666" points="531,-167 492,-167 492,-148 531,-148 531,-167"/>
<text text-anchor="middle" x="511.5" y="-155" font-family="Helvetica,sans-Serif" font-size="10.00">sqrtf</text>
</a>
</g>
</g>
<!-- Node3&#45;&gt;Node22 -->
<g id="edge21_Node000003_Node000022" class="edge">
<title>Node3&#45;&gt;Node22</title>
<g id="a_edge21_Node000003_Node000022"><a xlink:title=" ">
<path fill="none" stroke="#63b8ff" d="M388.18,-93.01C394.3,-95.65 400.56,-98.82 406,-102.5 425,-115.37 422.18,-127.94 442,-139.5 454.03,-146.52 468.83,-150.85 481.59,-153.5"/>
<polygon fill="#63b8ff" stroke="#63b8ff" points="481.25,-156.99 491.72,-155.35 482.51,-150.11 481.25,-156.99"/>
</a>
</g>
</g>
<!-- Node5 -->
<g id="Node000005" class="node">
<title>Node5</title>
<g id="a_Node000005"><a xlink:href="code__80005FD0_8c.html#a52b991f7bfc8a37a05bbb3ede096fb6a" target="_top" xlink:title=" ">
<polygon fill="white" stroke="#666666" points="757,-111 617,-111 617,-92 757,-92 757,-111"/>
<text text-anchor="middle" x="687" y="-99" font-family="Helvetica,sans-Serif" font-size="10.00">adjust_path_at_start_line</text>
</a>
</g>
</g>
<!-- Node4&#45;&gt;Node5 -->
<g id="edge4_Node000004_Node000005" class="edge">
<title>Node4&#45;&gt;Node5</title>
<g id="a_edge4_Node000004_Node000005"><a xlink:title=" ">
<path fill="none" stroke="#63b8ff" d="M558.09,-115.51C572.97,-113.88 589.96,-112.02 606.58,-110.2"/>
<polygon fill="#63b8ff" stroke="#63b8ff" points="607.3,-113.64 616.86,-109.07 606.54,-106.68 607.3,-113.64"/>
</a>
</g>
</g>
<!-- Node6 -->
<g id="Node000006" class="node">
<title>Node6</title>
<g id="a_Node000006"><a xlink:href="code__80005FD0_8c.html#aae3d2d6e27d79a30dfe68c64e771b5b1" target="_top" xlink:title=" ">
<polygon fill="white" stroke="#666666" points="733.5,-185 640.5,-185 640.5,-166 733.5,-166 733.5,-185"/>
<text text-anchor="middle" x="687" y="-173" font-family="Helvetica,sans-Serif" font-size="10.00">func_8000D24C</text>
</a>
</g>
</g>
<!-- Node4&#45;&gt;Node6 -->
<g id="edge5_Node000004_Node000006" class="edge">
<title>Node4&#45;&gt;Node6</title>
<g id="a_edge5_Node000004_Node000006"><a xlink:title=" ">
<path fill="none" stroke="#63b8ff" d="M552.05,-130.07C561.64,-132.77 571.78,-135.96 581,-139.5 597.7,-145.92 600.25,-151.21 617,-157.5 622.42,-159.54 628.16,-161.43 633.93,-163.16"/>
<polygon fill="#63b8ff" stroke="#63b8ff" points="633.02,-166.55 643.6,-165.93 634.95,-159.82 633.02,-166.55"/>
</a>
</g>
</g>
<!-- Node16 -->
<g id="Node000016" class="node">
<title>Node16</title>
<g id="a_Node000016"><a xlink:href="code__80005FD0_8c.html#a041b53794d8d64878d2cf5e0dea65b80" target="_top" xlink:title=" ">
<polygon fill="white" stroke="#666666" points="742,-148 632,-148 632,-129 742,-129 742,-148"/>
<text text-anchor="middle" x="687" y="-136" font-family="Helvetica,sans-Serif" font-size="10.00">update_path_index</text>
</a>
</g>
</g>
<!-- Node4&#45;&gt;Node16 -->
<g id="edge15_Node000004_Node000016" class="edge">
<title>Node4&#45;&gt;Node16</title>
<g id="a_edge15_Node000004_Node000016"><a xlink:title=" ">
<path fill="none" stroke="#63b8ff" d="M558.09,-125.23C577.5,-127.24 600.49,-129.63 621.59,-131.82"/>
<polygon fill="#63b8ff" stroke="#63b8ff" points="621.47,-135.32 631.78,-132.87 622.19,-128.36 621.47,-135.32"/>
</a>
</g>
</g>
<!-- Node7 -->
<g id="Node000007" class="node">
<title>Node7</title>
<g id="a_Node000007"><a xlink:href="collision_8c.html#a37aa55b3768d001533ad75e7f1b8388a" target="_top" xlink:title=" ">
<polygon fill="white" stroke="#666666" points="934,-148 793,-148 793,-129 934,-129 934,-148"/>
<text text-anchor="middle" x="863.5" y="-136" font-family="Helvetica,sans-Serif" font-size="10.00">check_bounding_collision</text>
</a>
</g>
</g>
<!-- Node6&#45;&gt;Node7 -->
<g id="edge6_Node000006_Node000007" class="edge">
<title>Node6&#45;&gt;Node7</title>
<g id="a_edge6_Node000006_Node000007"><a xlink:title=" ">
<path fill="none" stroke="#63b8ff" d="M732.94,-165.97C755.65,-161.16 783.4,-155.27 807.39,-150.19"/>
<polygon fill="#63b8ff" stroke="#63b8ff" points="808.35,-153.56 817.41,-148.06 806.9,-146.71 808.35,-153.56"/>
</a>
</g>
</g>
<!-- Node11 -->
<g id="Node000011" class="node">
<title>Node11</title>
<g id="a_Node000011"><a xlink:href="code__80005FD0_8c.html#a64865cf2565ef9f4215c5fa73b04233f" target="_top" xlink:title=" ">
<polygon fill="white" stroke="#666666" points="929,-233.5 798,-233.5 798,-203.5 929,-203.5 929,-233.5"/>
<text text-anchor="start" x="806" y="-221.5" font-family="Helvetica,sans-Serif" font-size="10.00">find_closest_path_point</text>
<text text-anchor="middle" x="863.5" y="-210.5" font-family="Helvetica,sans-Serif" font-size="10.00">_track_section</text>
</a>
</g>
</g>
<!-- Node6&#45;&gt;Node11 -->
<g id="edge10_Node000006_Node000011" class="edge">
<title>Node6&#45;&gt;Node11</title>
<g id="a_edge10_Node000006_Node000011"><a xlink:title=" ">
<path fill="none" stroke="#63b8ff" d="M726.73,-185.04C745.88,-189.76 769.61,-195.61 791.85,-201.09"/>
<polygon fill="#63b8ff" stroke="#63b8ff" points="791.06,-204.5 801.6,-203.49 792.73,-197.7 791.06,-204.5"/>
</a>
</g>
</g>
<!-- Node15 -->
<g id="Node000015" class="node">
<title>Node15</title>
<g id="a_Node000015"><a xlink:href="collision_8c.html#a053809031f467d0a6747788211e0ec69" target="_top" xlink:title=" ">
<polygon fill="white" stroke="#666666" points="922,-185 805,-185 805,-166 922,-166 922,-185"/>
<text text-anchor="middle" x="863.5" y="-173" font-family="Helvetica,sans-Serif" font-size="10.00">get_track_section_id</text>
</a>
</g>
</g>
<!-- Node6&#45;&gt;Node15 -->
<g id="edge14_Node000006_Node000015" class="edge">
<title>Node6&#45;&gt;Node15</title>
<g id="a_edge14_Node000006_Node000015"><a xlink:title=" ">
<path fill="none" stroke="#63b8ff" d="M733.85,-175.5C752.42,-175.5 774.25,-175.5 794.6,-175.5"/>
<polygon fill="#63b8ff" stroke="#63b8ff" points="794.77,-179 804.77,-175.5 794.77,-172 794.77,-179"/>
</a>
</g>
</g>
<!-- Node8 -->
<g id="Node000008" class="node">
<title>Node8</title>
<g id="a_Node000008"><a xlink:href="collision_8c.html#ac312bf382cb40752f6b790a99e7cdcb6" target="_top" xlink:title=" ">
<polygon fill="white" stroke="#666666" points="1080,-148 972,-148 972,-129 1080,-129 1080,-148"/>
<text text-anchor="middle" x="1026" y="-136" font-family="Helvetica,sans-Serif" font-size="10.00">check_collision_yx</text>
</a>
</g>
</g>
<!-- Node7&#45;&gt;Node8 -->
<g id="edge7_Node000007_Node000008" class="edge">
<title>Node7&#45;&gt;Node8</title>
<g id="a_edge7_Node000007_Node000008"><a xlink:title=" ">
<path fill="none" stroke="#63b8ff" d="M934.43,-138.5C943.42,-138.5 952.58,-138.5 961.45,-138.5"/>
<polygon fill="#63b8ff" stroke="#63b8ff" points="961.72,-142 971.72,-138.5 961.72,-135 961.72,-142"/>
</a>
</g>
</g>
<!-- Node9 -->
<g id="Node000009" class="node">
<title>Node9</title>
<g id="a_Node000009"><a xlink:href="collision_8c.html#a4b48832a90e984536a0635a016ec4f28" target="_top" xlink:title=" ">
<polygon fill="white" stroke="#666666" points="1079.5,-111 972.5,-111 972.5,-92 1079.5,-92 1079.5,-111"/>
<text text-anchor="middle" x="1026" y="-99" font-family="Helvetica,sans-Serif" font-size="10.00">check_collision_zx</text>
</a>
</g>
</g>
<!-- Node7&#45;&gt;Node9 -->
<g id="edge8_Node000007_Node000009" class="edge">
<title>Node7&#45;&gt;Node9</title>
<g id="a_edge8_Node000007_Node000009"><a xlink:title=" ">
<path fill="none" stroke="#63b8ff" d="M905.83,-128.97C926.53,-124.2 951.79,-118.38 973.72,-113.32"/>
<polygon fill="#63b8ff" stroke="#63b8ff" points="974.57,-116.72 983.53,-111.06 973,-109.9 974.57,-116.72"/>
</a>
</g>
</g>
<!-- Node10 -->
<g id="Node000010" class="node">
<title>Node10</title>
<g id="a_Node000010"><a xlink:href="collision_8c.html#a21fef964ab48191a1c0341954ef27a40" target="_top" xlink:title=" ">
<polygon fill="white" stroke="#666666" points="1079.5,-185 972.5,-185 972.5,-166 1079.5,-166 1079.5,-185"/>
<text text-anchor="middle" x="1026" y="-173" font-family="Helvetica,sans-Serif" font-size="10.00">check_collision_zy</text>
</a>
</g>
</g>
<!-- Node7&#45;&gt;Node10 -->
<g id="edge9_Node000007_Node000010" class="edge">
<title>Node7&#45;&gt;Node10</title>
<g id="a_edge9_Node000007_Node000010"><a xlink:title=" ">
<path fill="none" stroke="#63b8ff" d="M905.83,-148.03C926.53,-152.8 951.79,-158.62 973.72,-163.68"/>
<polygon fill="#63b8ff" stroke="#63b8ff" points="973,-167.1 983.53,-165.94 974.57,-160.28 973,-167.1"/>
</a>
</g>
</g>
<!-- Node12 -->
<g id="Node000012" class="node">
<title>Node12</title>
<g id="a_Node000012"><a xlink:href="Game_8cpp.html#aab0dcf46f6e6e4516bf79ea3f519c765" target="_top" xlink:title=" ">
<polygon fill="white" stroke="#666666" points="1082,-228 970,-228 970,-209 1082,-209 1082,-228"/>
<text text-anchor="middle" x="1026" y="-216" font-family="Helvetica,sans-Serif" font-size="10.00">IsPodiumCeremony</text>
</a>
</g>
</g>
<!-- Node11&#45;&gt;Node12 -->
<g id="edge11_Node000011_Node000012" class="edge">
<title>Node11&#45;&gt;Node12</title>
<g id="a_edge11_Node000011_Node000012"><a xlink:title=" ">
<path fill="none" stroke="#63b8ff" d="M929.32,-218.5C939.33,-218.5 949.67,-218.5 959.69,-218.5"/>
<polygon fill="#63b8ff" stroke="#63b8ff" points="959.99,-222 969.99,-218.5 959.99,-215 959.99,-222"/>
</a>
</g>
</g>
<!-- Node13 -->
<g id="Node000013" class="node">
<title>Node13</title>
<g id="a_Node000013"><a xlink:href="classWorld.html#a1a4dacc6aea0b846df998be0afc239f7" target="_top" xlink:title=" ">
<polygon fill="white" stroke="#666666" points="1211,-246 1118,-246 1118,-227 1211,-227 1211,-246"/>
<text text-anchor="middle" x="1164.5" y="-234" font-family="Helvetica,sans-Serif" font-size="10.00">World::GetTrack</text>
</a>
</g>
</g>
<!-- Node12&#45;&gt;Node13 -->
<g id="edge12_Node000012_Node000013" class="edge">
<title>Node12&#45;&gt;Node13</title>
<g id="a_edge12_Node000012_Node000013"><a xlink:title=" ">
<path fill="none" stroke="#63b8ff" d="M1082.13,-225.77C1090.54,-226.88 1099.24,-228.03 1107.67,-229.14"/>
<polygon fill="#63b8ff" stroke="#63b8ff" points="1107.41,-232.63 1117.79,-230.47 1108.33,-225.69 1107.41,-232.63"/>
</a>
</g>
</g>
<!-- Node14 -->
<g id="Node000014" class="node">
<title>Node14</title>
<g id="a_Node000014"><a xlink:href="Game_8cpp.html#ae2fa844b3cb1021ecbc357f8ed2ad8cc" target="_top" xlink:title=" ">
<polygon fill="white" stroke="#666666" points="1195.5,-209 1133.5,-209 1133.5,-190 1195.5,-190 1195.5,-209"/>
<text text-anchor="middle" x="1164.5" y="-197" font-family="Helvetica,sans-Serif" font-size="10.00">GetWorld</text>
</a>
</g>
</g>
<!-- Node12&#45;&gt;Node14 -->
<g id="edge13_Node000012_Node000014" class="edge">
<title>Node12&#45;&gt;Node14</title>
<g id="a_edge13_Node000012_Node000014"><a xlink:title=" ">
<path fill="none" stroke="#63b8ff" d="M1082.13,-210.83C1095.9,-208.91 1110.43,-206.89 1123.32,-205.09"/>
<polygon fill="#63b8ff" stroke="#63b8ff" points="1123.86,-208.55 1133.28,-203.71 1122.89,-201.62 1123.86,-208.55"/>
</a>
</g>
</g>
<!-- Node18 -->
<g id="Node000018" class="node">
<title>Node18</title>
<g id="a_Node000018"><a xlink:href="math__util_8c.html#a84cf9d4ec33146a64c230ed4cec56632" target="_top" xlink:title=" ">
<polygon fill="white" stroke="#666666" points="754.5,-73.5 619.5,-73.5 619.5,-43.5 754.5,-43.5 754.5,-73.5"/>
<text text-anchor="start" x="627.5" y="-61.5" font-family="Helvetica,sans-Serif" font-size="10.00">get_angle_between_two</text>
<text text-anchor="middle" x="687" y="-50.5" font-family="Helvetica,sans-Serif" font-size="10.00">_vectors</text>
</a>
</g>
</g>
<!-- Node17&#45;&gt;Node18 -->
<g id="edge17_Node000017_Node000018" class="edge">
<title>Node17&#45;&gt;Node18</title>
<g id="a_edge17_Node000017_Node000018"><a xlink:title=" ">
<path fill="none" stroke="#63b8ff" d="M578.59,-73.98C588.57,-72.54 598.94,-71.04 609.13,-69.58"/>
<polygon fill="#63b8ff" stroke="#63b8ff" points="609.83,-73.01 619.23,-68.12 608.84,-66.08 609.83,-73.01"/>
</a>
</g>
</g>
<!-- Node19 -->
<g id="Node000019" class="node">
<title>Node19</title>
<g id="a_Node000019"><a xlink:href="math__util_8c.html#aaa39a297477f56051975259f4bddd829" target="_top" xlink:title=" ">
<polygon fill="white" stroke="#666666" points="888.5,-68 838.5,-68 838.5,-49 888.5,-49 888.5,-68"/>
<text text-anchor="middle" x="863.5" y="-56" font-family="Helvetica,sans-Serif" font-size="10.00">atan2s</text>
</a>
</g>
</g>
<!-- Node18&#45;&gt;Node19 -->
<g id="edge18_Node000018_Node000019" class="edge">
<title>Node18&#45;&gt;Node19</title>
<g id="a_edge18_Node000018_Node000019"><a xlink:title=" ">
<path fill="none" stroke="#63b8ff" d="M754.97,-58.5C779.85,-58.5 807.06,-58.5 827.88,-58.5"/>
<polygon fill="#63b8ff" stroke="#63b8ff" points="828.14,-62 838.14,-58.5 828.14,-55 828.14,-62"/>
</a>
</g>
</g>
<!-- Node20 -->
<g id="Node000020" class="node">
<title>Node20</title>
<g id="a_Node000020"><a xlink:href="math__util_8c.html#a0273b0ea0783a06996c28669a7438ed9" target="_top" xlink:title=" ">
<polygon fill="white" stroke="#666666" points="1067,-68 985,-68 985,-49 1067,-49 1067,-68"/>
<text text-anchor="middle" x="1026" y="-56" font-family="Helvetica,sans-Serif" font-size="10.00">atan2_lookup</text>
</a>
</g>
</g>
<!-- Node19&#45;&gt;Node20 -->
<g id="edge19_Node000019_Node000020" class="edge">
<title>Node19&#45;&gt;Node20</title>
<g id="a_edge19_Node000019_Node000020"><a xlink:title=" ">
<path fill="none" stroke="#63b8ff" d="M888.53,-58.5C911.19,-58.5 945.88,-58.5 974.61,-58.5"/>
<polygon fill="#63b8ff" stroke="#63b8ff" points="974.89,-62 984.89,-58.5 974.89,-55 974.89,-62"/>
</a>
</g>
</g>
<!-- Node23&#45;&gt;Node4 -->
<g id="edge23_Node000023_Node000004" class="edge">
<title>Node23&#45;&gt;Node4</title>
<g id="a_edge23_Node000023_Node000004"><a xlink:title=" ">
<path fill="none" stroke="#63b8ff" d="M405.15,-120.5C420.64,-120.5 438.16,-120.5 454.4,-120.5"/>
<polygon fill="#63b8ff" stroke="#63b8ff" points="454.86,-124 464.86,-120.5 454.86,-117 454.86,-124"/>
</a>
</g>
</g>
<!-- Node23&#45;&gt;Node17 -->
<g id="edge24_Node000023_Node000017" class="edge">
<title>Node23&#45;&gt;Node17</title>
<g id="a_edge24_Node000023_Node000017"><a xlink:title=" ">
<path fill="none" stroke="#63b8ff" d="M398.76,-110.97C417.99,-106.24 441.43,-100.48 461.86,-95.46"/>
<polygon fill="#63b8ff" stroke="#63b8ff" points="462.74,-98.85 471.61,-93.06 461.07,-92.05 462.74,-98.85"/>
</a>
</g>
</g>
<!-- Node23&#45;&gt;Node21 -->
<g id="edge25_Node000023_Node000021" class="edge">
<title>Node23&#45;&gt;Node21</title>
<g id="a_edge25_Node000023_Node000021"><a xlink:title=" ">
<path fill="none" stroke="#63b8ff" d="M390.13,-110.85C395.62,-108.51 401.14,-105.73 406,-102.5 425.12,-89.81 422.26,-77.19 442,-65.5 445.64,-63.34 449.54,-61.42 453.56,-59.71"/>
<polygon fill="#63b8ff" stroke="#63b8ff" points="454.98,-62.92 463.09,-56.1 452.5,-56.37 454.98,-62.92"/>
</a>
</g>
</g>
<!-- Node23&#45;&gt;Node22 -->
<g id="edge26_Node000023_Node000022" class="edge">
<title>Node23&#45;&gt;Node22</title>
<g id="a_edge26_Node000023_Node000022"><a xlink:title=" ">
<path fill="none" stroke="#63b8ff" d="M398.76,-130.03C424.86,-136.44 458.68,-144.76 482.25,-150.55"/>
<polygon fill="#63b8ff" stroke="#63b8ff" points="481.43,-153.96 491.98,-152.95 483.1,-147.16 481.43,-153.96"/>
</a>
</g>
</g>
<!-- Node25 -->
<g id="Node000025" class="node">
<title>Node25</title>
<g id="a_Node000025"><a xlink:href="math__util_8c.html#a062850863585005ad1d0a75d9ff70693" target="_top" xlink:title=" ">
<polygon fill="white" stroke="#666666" points="550,-19 473,-19 473,0 550,0 550,-19"/>
<text text-anchor="middle" x="511.5" y="-7" font-family="Helvetica,sans-Serif" font-size="10.00">random_u16</text>
</a>
</g>
</g>
<!-- Node24&#45;&gt;Node25 -->
<g id="edge28_Node000024_Node000025" class="edge">
<title>Node24&#45;&gt;Node25</title>
<g id="a_edge28_Node000024_Node000025"><a xlink:title=" ">
<path fill="none" stroke="#63b8ff" d="M395.29,-24.05C415.39,-21.51 440.85,-18.29 462.72,-15.53"/>
<polygon fill="#63b8ff" stroke="#63b8ff" points="463.32,-18.98 472.8,-14.26 462.45,-12.04 463.32,-18.98"/>
</a>
</g>
</g>
</g>
</svg>
