<?xml version="1.0" encoding="UTF-8" standalone="no"?>
<!DOCTYPE svg PUBLIC "-//W3C//DTD SVG 1.1//EN"
 "http://www.w3.org/Graphics/SVG/1.1/DTD/svg11.dtd">
<!-- Generated by graphviz version 2.43.0 (0)
 -->
<!-- Title: func_80087D24 Pages: 1 -->
<svg width="407pt" height="185pt"
 viewBox="0.00 0.00 407.00 184.71" xmlns="http://www.w3.org/2000/svg" xmlns:xlink="http://www.w3.org/1999/xlink">
<g id="graph0" class="graph" transform="scale(1 1) rotate(0) translate(4 180.71)">
<title>func_80087D24</title>
<!-- Node1 -->
<g id="Node000001" class="node">
<title>Node1</title>
<g id="a_Node000001"><a xlink:title=" ">
<polygon fill="#999999" stroke="#666666" points="92,-110 0,-110 0,-91 92,-91 92,-110"/>
<text text-anchor="middle" x="46" y="-98" font-family="Helvetica,sans-Serif" font-size="10.00">func_80087D24</text>
</a>
</g>
</g>
<!-- Node2 -->
<g id="Node000002" class="node">
<title>Node2</title>
<g id="a_Node000002"><a xlink:href="update__objects_8c.html#a3953241e15c6372ac8944ba842148a9a" target="_top" xlink:title=" ">
<polygon fill="white" stroke="#666666" points="399,-172 300,-172 300,-153 399,-153 399,-172"/>
<text text-anchor="middle" x="349.5" y="-160" font-family="Helvetica,sans-Serif" font-size="10.00">clear_object_flag</text>
</a>
</g>
</g>
<!-- Node1&#45;&gt;Node2 -->
<g id="edge1_Node000001_Node000002" class="edge">
<title>Node1&#45;&gt;Node2</title>
<g id="a_edge1_Node000001_Node000002"><a xlink:title=" ">
<path fill="none" stroke="#63b8ff" d="M55.74,-110.45C69.41,-125.18 97.47,-152.16 128,-162.5 180.58,-180.31 244.36,-177.94 289.77,-172.54"/>
<polygon fill="#63b8ff" stroke="#63b8ff" points="290.26,-176.01 299.74,-171.27 289.38,-169.06 290.26,-176.01"/>
</a>
</g>
</g>
<!-- Node3 -->
<g id="Node000003" class="node">
<title>Node3</title>
<g id="a_Node000003"><a xlink:href="code__80086E70_8c.html#a6eea48094f49bb346ce1170842d955b2" target="_top" xlink:title=" ">
<polygon fill="white" stroke="#666666" points="242,-153 150,-153 150,-134 242,-134 242,-153"/>
<text text-anchor="middle" x="196" y="-141" font-family="Helvetica,sans-Serif" font-size="10.00">func_80086FD4</text>
</a>
</g>
</g>
<!-- Node1&#45;&gt;Node3 -->
<g id="edge2_Node000001_Node000003" class="edge">
<title>Node1&#45;&gt;Node3</title>
<g id="a_edge2_Node000001_Node000003"><a xlink:title=" ">
<path fill="none" stroke="#63b8ff" d="M78.91,-110.05C93.81,-114.48 111.8,-119.8 128,-124.5 135.51,-126.68 143.51,-128.97 151.26,-131.18"/>
<polygon fill="#63b8ff" stroke="#63b8ff" points="150.32,-134.55 160.89,-133.91 152.23,-127.81 150.32,-134.55"/>
</a>
</g>
</g>
<!-- Node4 -->
<g id="Node000004" class="node">
<title>Node4</title>
<g id="a_Node000004"><a xlink:href="update__objects_8c.html#a2301a51a93a60f0382cdc7002e14f95a" target="_top" xlink:title=" ">
<polygon fill="white" stroke="#666666" points="264,-115.5 128,-115.5 128,-85.5 264,-85.5 264,-115.5"/>
<text text-anchor="start" x="136" y="-103.5" font-family="Helvetica,sans-Serif" font-size="10.00">is_obj_index_flag_status</text>
<text text-anchor="middle" x="196" y="-92.5" font-family="Helvetica,sans-Serif" font-size="10.00">_inactive</text>
</a>
</g>
</g>
<!-- Node1&#45;&gt;Node4 -->
<g id="edge4_Node000001_Node000004" class="edge">
<title>Node1&#45;&gt;Node4</title>
<g id="a_edge4_Node000001_Node000004"><a xlink:title=" ">
<path fill="none" stroke="#63b8ff" d="M92.21,-100.5C100.34,-100.5 109.01,-100.5 117.75,-100.5"/>
<polygon fill="#63b8ff" stroke="#63b8ff" points="118,-104 128,-100.5 118,-97 118,-104"/>
</a>
</g>
</g>
<!-- Node5 -->
<g id="Node000005" class="node">
<title>Node5</title>
<g id="a_Node000005"><a xlink:href="code__80086E70_8c.html#a04f1b5e2f622dbb93568f5cff8aaf3d5" target="_top" xlink:title=" ">
<polygon fill="white" stroke="#666666" points="253,-67.5 139,-67.5 139,-37.5 253,-37.5 253,-67.5"/>
<text text-anchor="start" x="147" y="-55.5" font-family="Helvetica,sans-Serif" font-size="10.00">object_add_velocity</text>
<text text-anchor="middle" x="196" y="-44.5" font-family="Helvetica,sans-Serif" font-size="10.00">_offset_y</text>
</a>
</g>
</g>
<!-- Node1&#45;&gt;Node5 -->
<g id="edge5_Node000001_Node000005" class="edge">
<title>Node1&#45;&gt;Node5</title>
<g id="a_edge5_Node000001_Node000005"><a xlink:title=" ">
<path fill="none" stroke="#63b8ff" d="M76.59,-90.9C94.44,-85.11 117.76,-77.55 138.98,-70.67"/>
<polygon fill="#63b8ff" stroke="#63b8ff" points="140.12,-73.98 148.56,-67.56 137.96,-67.32 140.12,-73.98"/>
</a>
</g>
</g>
<!-- Node6 -->
<g id="Node000006" class="node">
<title>Node6</title>
<g id="a_Node000006"><a xlink:href="update__objects_8c.html#afe64f2394ee0deab6370b77609500bda" target="_top" xlink:title=" ">
<polygon fill="white" stroke="#666666" points="241,-19 151,-19 151,0 241,0 241,-19"/>
<text text-anchor="middle" x="196" y="-7" font-family="Helvetica,sans-Serif" font-size="10.00">set_object_flag</text>
</a>
</g>
</g>
<!-- Node1&#45;&gt;Node6 -->
<g id="edge6_Node000001_Node000006" class="edge">
<title>Node1&#45;&gt;Node6</title>
<g id="a_edge6_Node000001_Node000006"><a xlink:title=" ">
<path fill="none" stroke="#63b8ff" d="M55.41,-90.57C69.08,-75.06 97.64,-45.14 128,-28.5 132.22,-26.19 136.74,-24.14 141.38,-22.32"/>
<polygon fill="#63b8ff" stroke="#63b8ff" points="142.73,-25.55 150.98,-18.91 140.39,-18.96 142.73,-25.55"/>
</a>
</g>
</g>
<!-- Node3&#45;&gt;Node2 -->
<g id="edge3_Node000003_Node000002" class="edge">
<title>Node3&#45;&gt;Node2</title>
<g id="a_edge3_Node000003_Node000002"><a xlink:title=" ">
<path fill="none" stroke="#63b8ff" d="M242.04,-149.15C257,-151.02 273.87,-153.14 289.71,-155.13"/>
<polygon fill="#63b8ff" stroke="#63b8ff" points="289.57,-158.64 299.93,-156.41 290.45,-151.69 289.57,-158.64"/>
</a>
</g>
</g>
</g>
</svg>
