<?xml version="1.0" encoding="UTF-8" standalone="no"?>
<!DOCTYPE svg PUBLIC "-//W3C//DTD SVG 1.1//EN"
 "http://www.w3.org/Graphics/SVG/1.1/DTD/svg11.dtd">
<!-- Generated by graphviz version 2.43.0 (0)
 -->
<!-- Title: get_y_direction_angle Pages: 1 -->
<svg width="725pt" height="101pt"
 viewBox="0.00 0.00 725.00 101.00" xmlns="http://www.w3.org/2000/svg" xmlns:xlink="http://www.w3.org/1999/xlink">
<g id="graph0" class="graph" transform="scale(1 1) rotate(0) translate(4 97)">
<title>get_y_direction_angle</title>
<!-- Node1 -->
<g id="Node000001" class="node">
<title>Node1</title>
<g id="a_Node000001"><a xlink:title=" ">
<polygon fill="#999999" stroke="#666666" points="717,-37 593,-37 593,-18 717,-18 717,-37"/>
<text text-anchor="middle" x="655" y="-25" font-family="Helvetica,sans-Serif" font-size="10.00">get_y_direction_angle</text>
</a>
</g>
</g>
<!-- Node2 -->
<g id="Node000002" class="node">
<title>Node2</title>
<g id="a_Node000002"><a xlink:href="code__80086E70_8c.html#aca46a8535163fddb77f5b6e90812d17f" target="_top" xlink:title=" ">
<polygon fill="white" stroke="#666666" points="556.5,-56 465.5,-56 465.5,-37 556.5,-37 556.5,-56"/>
<text text-anchor="middle" x="511" y="-44" font-family="Helvetica,sans-Serif" font-size="10.00">func_800873F4</text>
</a>
</g>
</g>
<!-- Node1&#45;&gt;Node2 -->
<g id="edge1_Node000001_Node000002" class="edge">
<title>Node1&#45;&gt;Node2</title>
<g id="a_edge1_Node000001_Node000002"><a xlink:title=" ">
<path fill="none" stroke="#63b8ff" d="M582.91,-37.01C573.98,-38.21 565.06,-39.4 556.7,-40.52"/>
<polygon fill="#63b8ff" stroke="#63b8ff" points="583.51,-40.46 592.96,-35.67 582.58,-33.53 583.51,-40.46"/>
</a>
</g>
</g>
<!-- Node9 -->
<g id="Node000009" class="node">
<title>Node9</title>
<g id="a_Node000009"><a xlink:href="code__80086E70_8c.html#a450f8601bb53f51d22df3fb749cb9bf8" target="_top" xlink:title=" ">
<polygon fill="white" stroke="#666666" points="557,-19 465,-19 465,0 557,0 557,-19"/>
<text text-anchor="middle" x="511" y="-7" font-family="Helvetica,sans-Serif" font-size="10.00">func_8008B928</text>
</a>
</g>
</g>
<!-- Node1&#45;&gt;Node9 -->
<g id="edge9_Node000001_Node000009" class="edge">
<title>Node1&#45;&gt;Node9</title>
<g id="a_edge9_Node000001_Node000009"><a xlink:title=" ">
<path fill="none" stroke="#63b8ff" d="M583.03,-18.5C574.21,-17.39 565.4,-16.27 557.12,-15.22"/>
<polygon fill="#63b8ff" stroke="#63b8ff" points="582.59,-21.98 592.96,-19.76 583.47,-15.03 582.59,-21.98"/>
</a>
</g>
</g>
<!-- Node3 -->
<g id="Node000003" class="node">
<title>Node3</title>
<g id="a_Node000003"><a xlink:href="classOSeagull.html#afb8d3fd824adf5e5edbf698c94f59111" target="_top" xlink:title=" ">
<polygon fill="white" stroke="#666666" points="427.5,-93 286.5,-93 286.5,-74 427.5,-74 427.5,-93"/>
<text text-anchor="middle" x="357" y="-81" font-family="Helvetica,sans-Serif" font-size="10.00">OSeagull::func_8008275C</text>
</a>
</g>
</g>
<!-- Node2&#45;&gt;Node3 -->
<g id="edge2_Node000002_Node000003" class="edge">
<title>Node2&#45;&gt;Node3</title>
<g id="a_edge2_Node000002_Node000003"><a xlink:title=" ">
<path fill="none" stroke="#63b8ff" d="M461.01,-58.43C440.39,-63.44 416.72,-69.21 397.28,-73.94"/>
<polygon fill="#63b8ff" stroke="#63b8ff" points="461.97,-61.79 470.86,-56.03 460.31,-54.99 461.97,-61.79"/>
</a>
</g>
</g>
<!-- Node5 -->
<g id="Node000005" class="node">
<title>Node5</title>
<g id="a_Node000005"><a xlink:href="classOPenguin.html#ae59e73f97269e3a70fc0e1d189dc711b" target="_top" xlink:title=" ">
<polygon fill="white" stroke="#666666" points="429,-56 285,-56 285,-37 429,-37 429,-56"/>
<text text-anchor="middle" x="357" y="-44" font-family="Helvetica,sans-Serif" font-size="10.00">OPenguin::func_8008502C</text>
</a>
</g>
</g>
<!-- Node2&#45;&gt;Node5 -->
<g id="edge4_Node000002_Node000005" class="edge">
<title>Node2&#45;&gt;Node5</title>
<g id="a_edge4_Node000002_Node000005"><a xlink:title=" ">
<path fill="none" stroke="#63b8ff" d="M455.17,-46.5C446.76,-46.5 437.97,-46.5 429.26,-46.5"/>
<polygon fill="#63b8ff" stroke="#63b8ff" points="455.22,-50 465.22,-46.5 455.22,-43 455.22,-50"/>
</a>
</g>
</g>
<!-- Node8 -->
<g id="Node000008" class="node">
<title>Node8</title>
<g id="a_Node000008"><a xlink:href="classOPenguin.html#ae825129927de318ff6c770b915273764" target="_top" xlink:title=" ">
<polygon fill="white" stroke="#666666" points="428.5,-19 285.5,-19 285.5,0 428.5,0 428.5,-19"/>
<text text-anchor="middle" x="357" y="-7" font-family="Helvetica,sans-Serif" font-size="10.00">OPenguin::func_80085080</text>
</a>
</g>
</g>
<!-- Node2&#45;&gt;Node8 -->
<g id="edge7_Node000002_Node000008" class="edge">
<title>Node2&#45;&gt;Node8</title>
<g id="a_edge7_Node000002_Node000008"><a xlink:title=" ">
<path fill="none" stroke="#63b8ff" d="M461.01,-34.57C440.39,-29.56 416.72,-23.79 397.28,-19.06"/>
<polygon fill="#63b8ff" stroke="#63b8ff" points="460.31,-38.01 470.86,-36.97 461.97,-31.21 460.31,-38.01"/>
</a>
</g>
</g>
<!-- Node4 -->
<g id="Node000004" class="node">
<title>Node4</title>
<g id="a_Node000004"><a xlink:href="classOSeagull.html#a86b5da4447db382837540ab7dc34c95a" target="_top" xlink:title=" ">
<polygon fill="white" stroke="#666666" points="230,-93 144,-93 144,-74 230,-74 230,-93"/>
<text text-anchor="middle" x="187" y="-81" font-family="Helvetica,sans-Serif" font-size="10.00">OSeagull::Tick</text>
</a>
</g>
</g>
<!-- Node3&#45;&gt;Node4 -->
<g id="edge3_Node000003_Node000004" class="edge">
<title>Node3&#45;&gt;Node4</title>
<g id="a_edge3_Node000003_Node000004"><a xlink:title=" ">
<path fill="none" stroke="#63b8ff" d="M275.93,-83.5C260.22,-83.5 244.32,-83.5 230.44,-83.5"/>
<polygon fill="#63b8ff" stroke="#63b8ff" points="276.21,-87 286.21,-83.5 276.21,-80 276.21,-87"/>
</a>
</g>
</g>
<!-- Node6 -->
<g id="Node000006" class="node">
<title>Node6</title>
<g id="a_Node000006"><a xlink:href="classOPenguin.html#a600f9bc1e20f79d59fcdc02009124588" target="_top" xlink:title=" ">
<polygon fill="white" stroke="#666666" points="249,-38 125,-38 125,-19 249,-19 249,-38"/>
<text text-anchor="middle" x="187" y="-26" font-family="Helvetica,sans-Serif" font-size="10.00">OPenguin::Behaviours</text>
</a>
</g>
</g>
<!-- Node5&#45;&gt;Node6 -->
<g id="edge5_Node000005_Node000006" class="edge">
<title>Node5&#45;&gt;Node6</title>
<g id="a_edge5_Node000005_Node000006"><a xlink:title=" ">
<path fill="none" stroke="#63b8ff" d="M274.66,-37.78C266.02,-36.86 257.35,-35.93 249.01,-35.04"/>
<polygon fill="#63b8ff" stroke="#63b8ff" points="274.44,-41.28 284.75,-38.87 275.18,-34.32 274.44,-41.28"/>
</a>
</g>
</g>
<!-- Node7 -->
<g id="Node000007" class="node">
<title>Node7</title>
<g id="a_Node000007"><a xlink:href="classOPenguin.html#aac1264338aa7ced7c78ec7ff987a1ef7" target="_top" xlink:title=" ">
<polygon fill="white" stroke="#666666" points="89,-38 0,-38 0,-19 89,-19 89,-38"/>
<text text-anchor="middle" x="44.5" y="-26" font-family="Helvetica,sans-Serif" font-size="10.00">OPenguin::Tick</text>
</a>
</g>
</g>
<!-- Node6&#45;&gt;Node7 -->
<g id="edge6_Node000006_Node000007" class="edge">
<title>Node6&#45;&gt;Node7</title>
<g id="a_edge6_Node000006_Node000007"><a xlink:title=" ">
<path fill="none" stroke="#63b8ff" d="M114.62,-28.5C105.95,-28.5 97.3,-28.5 89.2,-28.5"/>
<polygon fill="#63b8ff" stroke="#63b8ff" points="114.78,-32 124.78,-28.5 114.78,-25 114.78,-32"/>
</a>
</g>
</g>
<!-- Node8&#45;&gt;Node6 -->
<g id="edge8_Node000008_Node000006" class="edge">
<title>Node8&#45;&gt;Node6</title>
<g id="a_edge8_Node000008_Node000006"><a xlink:title=" ">
<path fill="none" stroke="#63b8ff" d="M275.04,-18.66C266.31,-19.64 257.53,-20.64 249.1,-21.59"/>
<polygon fill="#63b8ff" stroke="#63b8ff" points="275.7,-22.1 285.24,-17.5 274.91,-15.15 275.7,-22.1"/>
</a>
</g>
</g>
</g>
</svg>
