<?xml version="1.0" encoding="UTF-8" standalone="no"?>
<!DOCTYPE svg PUBLIC "-//W3C//DTD SVG 1.1//EN"
 "http://www.w3.org/Graphics/SVG/1.1/DTD/svg11.dtd">
<!-- Generated by graphviz version 2.43.0 (0)
 -->
<!-- Title: func_80011014 Pages: 1 -->
<svg width="603pt" height="324pt"
 viewBox="0.00 0.00 603.00 324.00" xmlns="http://www.w3.org/2000/svg" xmlns:xlink="http://www.w3.org/1999/xlink">
<g id="graph0" class="graph" transform="scale(1 1) rotate(0) translate(4 320)">
<title>func_80011014</title>
<!-- Node1 -->
<g id="Node000001" class="node">
<title>Node1</title>
<g id="a_Node000001"><a xlink:title=" ">
<polygon fill="#999999" stroke="#666666" points="91,-130 0,-130 0,-111 91,-111 91,-130"/>
<text text-anchor="middle" x="45.5" y="-118" font-family="Helvetica,sans-Serif" font-size="10.00">func_80011014</text>
</a>
</g>
</g>
<!-- Node2 -->
<g id="Node000002" class="node">
<title>Node2</title>
<g id="a_Node000002"><a xlink:href="code__80005FD0_8c.html#aa4f95e13ae04a8719510680bb59a3ba0" target="_top" xlink:title=" ">
<polygon fill="white" stroke="#666666" points="231,-204 140,-204 140,-185 231,-185 231,-204"/>
<text text-anchor="middle" x="185.5" y="-192" font-family="Helvetica,sans-Serif" font-size="10.00">func_80010F40</text>
</a>
</g>
</g>
<!-- Node1&#45;&gt;Node2 -->
<g id="edge1_Node000001_Node000002" class="edge">
<title>Node1&#45;&gt;Node2</title>
<g id="a_edge1_Node000001_Node000002"><a xlink:title=" ">
<path fill="none" stroke="#63b8ff" d="M57.8,-130.04C72.77,-142.28 100.4,-163.47 127,-176.5 130.6,-178.26 134.4,-179.9 138.28,-181.41"/>
<polygon fill="#63b8ff" stroke="#63b8ff" points="137.37,-184.8 147.96,-184.9 139.74,-178.22 137.37,-184.8"/>
</a>
</g>
</g>
<!-- Node10 -->
<g id="Node000010" class="node">
<title>Node10</title>
<g id="a_Node000010"><a xlink:href="code__80005FD0_8c.html#ad22ec1d3413eebae418d5d0a1bbbe6a8" target="_top" xlink:title=" ">
<polygon fill="white" stroke="#666666" points="230.5,-241 140.5,-241 140.5,-222 230.5,-222 230.5,-241"/>
<text text-anchor="middle" x="185.5" y="-229" font-family="Helvetica,sans-Serif" font-size="10.00">func_80010FA0</text>
</a>
</g>
</g>
<!-- Node1&#45;&gt;Node10 -->
<g id="edge9_Node000001_Node000010" class="edge">
<title>Node1&#45;&gt;Node10</title>
<g id="a_edge9_Node000001_Node000010"><a xlink:title=" ">
<path fill="none" stroke="#63b8ff" d="M52.28,-130.23C63.99,-149.09 92.36,-190.78 127,-213.5 129.42,-215.09 131.99,-216.54 134.64,-217.87"/>
<polygon fill="#63b8ff" stroke="#63b8ff" points="133.36,-221.13 143.92,-221.94 136.17,-214.72 133.36,-221.13"/>
</a>
</g>
</g>
<!-- Node11 -->
<g id="Node000011" class="node">
<title>Node11</title>
<g id="a_Node000011"><a xlink:href="collision_8c.html#a053809031f467d0a6747788211e0ec69" target="_top" xlink:title=" ">
<polygon fill="white" stroke="#666666" points="244,-167 127,-167 127,-148 244,-148 244,-167"/>
<text text-anchor="middle" x="185.5" y="-155" font-family="Helvetica,sans-Serif" font-size="10.00">get_track_section_id</text>
</a>
</g>
</g>
<!-- Node1&#45;&gt;Node11 -->
<g id="edge12_Node000001_Node000011" class="edge">
<title>Node1&#45;&gt;Node11</title>
<g id="a_edge12_Node000001_Node000011"><a xlink:title=" ">
<path fill="none" stroke="#63b8ff" d="M82.04,-130.03C99.37,-134.67 120.41,-140.32 138.91,-145.28"/>
<polygon fill="#63b8ff" stroke="#63b8ff" points="138.04,-148.67 148.6,-147.88 139.85,-141.9 138.04,-148.67"/>
</a>
</g>
</g>
<!-- Node12 -->
<g id="Node000012" class="node">
<title>Node12</title>
<g id="a_Node000012"><a xlink:href="Game_8cpp.html#a545c1a384e93cc7b616dfee707f5d962" target="_top" xlink:title=" ">
<polygon fill="white" stroke="#666666" points="219.5,-130 151.5,-130 151.5,-111 219.5,-111 219.5,-130"/>
<text text-anchor="middle" x="185.5" y="-118" font-family="Helvetica,sans-Serif" font-size="10.00">IsDkJungle</text>
</a>
</g>
</g>
<!-- Node1&#45;&gt;Node12 -->
<g id="edge13_Node000001_Node000012" class="edge">
<title>Node1&#45;&gt;Node12</title>
<g id="a_edge13_Node000001_Node000012"><a xlink:title=" ">
<path fill="none" stroke="#63b8ff" d="M91.3,-120.5C107.32,-120.5 125.32,-120.5 141.2,-120.5"/>
<polygon fill="#63b8ff" stroke="#63b8ff" points="141.29,-124 151.29,-120.5 141.29,-117 141.29,-124"/>
</a>
</g>
</g>
<!-- Node15 -->
<g id="Node000015" class="node">
<title>Node15</title>
<g id="a_Node000015"><a xlink:href="Game_8cpp.html#a5c843dc61d3b9ca430e4926c4b8018ef" target="_top" xlink:title=" ">
<polygon fill="white" stroke="#666666" points="231.5,-93 139.5,-93 139.5,-74 231.5,-74 231.5,-93"/>
<text text-anchor="middle" x="185.5" y="-81" font-family="Helvetica,sans-Serif" font-size="10.00">IsRainbowRoad</text>
</a>
</g>
</g>
<!-- Node1&#45;&gt;Node15 -->
<g id="edge16_Node000001_Node000015" class="edge">
<title>Node1&#45;&gt;Node15</title>
<g id="a_edge16_Node000001_Node000015"><a xlink:title=" ">
<path fill="none" stroke="#63b8ff" d="M82.04,-110.97C99.37,-106.33 120.41,-100.68 138.91,-95.72"/>
<polygon fill="#63b8ff" stroke="#63b8ff" points="139.85,-99.1 148.6,-93.12 138.04,-92.33 139.85,-99.1"/>
</a>
</g>
</g>
<!-- Node16 -->
<g id="Node000016" class="node">
<title>Node16</title>
<g id="a_Node000016"><a xlink:href="Game_8cpp.html#a1c60552e0107dfda214cbc9e83695321" target="_top" xlink:title=" ">
<polygon fill="white" stroke="#666666" points="232,-56 139,-56 139,-37 232,-37 232,-56"/>
<text text-anchor="middle" x="185.5" y="-44" font-family="Helvetica,sans-Serif" font-size="10.00">IsWarioStadium</text>
</a>
</g>
</g>
<!-- Node1&#45;&gt;Node16 -->
<g id="edge19_Node000001_Node000016" class="edge">
<title>Node1&#45;&gt;Node16</title>
<g id="a_edge19_Node000001_Node000016"><a xlink:title=" ">
<path fill="none" stroke="#63b8ff" d="M58.12,-111C73.22,-99.03 100.75,-78.48 127,-65.5 131.36,-63.34 136.03,-61.34 140.75,-59.52"/>
<polygon fill="#63b8ff" stroke="#63b8ff" points="142.21,-62.71 150.42,-56.01 139.83,-56.13 142.21,-62.71"/>
</a>
</g>
</g>
<!-- Node17 -->
<g id="Node000017" class="node">
<title>Node17</title>
<g id="a_Node000017"><a xlink:href="math_8h.html#a37bde043e94a6f074c78f10518fb5d99" target="_top" xlink:title=" ">
<polygon fill="white" stroke="#666666" points="205,-19 166,-19 166,0 205,0 205,-19"/>
<text text-anchor="middle" x="185.5" y="-7" font-family="Helvetica,sans-Serif" font-size="10.00">sqrtf</text>
</a>
</g>
</g>
<!-- Node1&#45;&gt;Node17 -->
<g id="edge22_Node000001_Node000017" class="edge">
<title>Node1&#45;&gt;Node17</title>
<g id="a_edge22_Node000001_Node000017"><a xlink:title=" ">
<path fill="none" stroke="#63b8ff" d="M52.28,-110.77C63.99,-91.91 92.36,-50.22 127,-27.5 135.7,-21.8 146.32,-17.81 156.05,-15.06"/>
<polygon fill="#63b8ff" stroke="#63b8ff" points="156.91,-18.46 165.76,-12.63 155.21,-11.67 156.91,-18.46"/>
</a>
</g>
</g>
<!-- Node3 -->
<g id="Node000003" class="node">
<title>Node3</title>
<g id="a_Node000003"><a xlink:href="collision_8c.html#a37aa55b3768d001533ad75e7f1b8388a" target="_top" xlink:title=" ">
<polygon fill="white" stroke="#666666" points="421,-242 280,-242 280,-223 421,-223 421,-242"/>
<text text-anchor="middle" x="350.5" y="-230" font-family="Helvetica,sans-Serif" font-size="10.00">check_bounding_collision</text>
</a>
</g>
</g>
<!-- Node2&#45;&gt;Node3 -->
<g id="edge2_Node000002_Node000003" class="edge">
<title>Node2&#45;&gt;Node3</title>
<g id="a_edge2_Node000002_Node000003"><a xlink:title=" ">
<path fill="none" stroke="#63b8ff" d="M227.63,-204.09C249.24,-209.13 275.91,-215.34 298.79,-220.68"/>
<polygon fill="#63b8ff" stroke="#63b8ff" points="298.13,-224.12 308.66,-222.98 299.72,-217.3 298.13,-224.12"/>
</a>
</g>
</g>
<!-- Node7 -->
<g id="Node000007" class="node">
<title>Node7</title>
<g id="a_Node000007"><a xlink:href="collision_8c.html#ad95e9ed2051529d5edee26109fa07427" target="_top" xlink:title=" ">
<polygon fill="white" stroke="#666666" points="419,-202 282,-202 282,-183 419,-183 419,-202"/>
<text text-anchor="middle" x="350.5" y="-190" font-family="Helvetica,sans-Serif" font-size="10.00">spawn_actor_on_surface</text>
</a>
</g>
</g>
<!-- Node2&#45;&gt;Node7 -->
<g id="edge6_Node000002_Node000007" class="edge">
<title>Node2&#45;&gt;Node7</title>
<g id="a_edge6_Node000002_Node000007"><a xlink:title=" ">
<path fill="none" stroke="#63b8ff" d="M231.04,-193.95C243.63,-193.8 257.72,-193.63 271.66,-193.46"/>
<polygon fill="#63b8ff" stroke="#63b8ff" points="271.8,-196.95 281.76,-193.33 271.72,-189.95 271.8,-196.95"/>
</a>
</g>
</g>
<!-- Node4 -->
<g id="Node000004" class="node">
<title>Node4</title>
<g id="a_Node000004"><a xlink:href="collision_8c.html#ac312bf382cb40752f6b790a99e7cdcb6" target="_top" xlink:title=" ">
<polygon fill="white" stroke="#666666" points="580,-316 472,-316 472,-297 580,-297 580,-316"/>
<text text-anchor="middle" x="526" y="-304" font-family="Helvetica,sans-Serif" font-size="10.00">check_collision_yx</text>
</a>
</g>
</g>
<!-- Node3&#45;&gt;Node4 -->
<g id="edge3_Node000003_Node000004" class="edge">
<title>Node3&#45;&gt;Node4</title>
<g id="a_edge3_Node000003_Node000004"><a xlink:title=" ">
<path fill="none" stroke="#63b8ff" d="M366.7,-242.01C386.74,-254.2 423.4,-275.34 457,-288.5 462.12,-290.5 467.54,-292.36 472.99,-294.06"/>
<polygon fill="#63b8ff" stroke="#63b8ff" points="472.22,-297.48 482.8,-296.94 474.19,-290.76 472.22,-297.48"/>
</a>
</g>
</g>
<!-- Node5 -->
<g id="Node000005" class="node">
<title>Node5</title>
<g id="a_Node000005"><a xlink:href="collision_8c.html#a4b48832a90e984536a0635a016ec4f28" target="_top" xlink:title=" ">
<polygon fill="white" stroke="#666666" points="579.5,-279 472.5,-279 472.5,-260 579.5,-260 579.5,-279"/>
<text text-anchor="middle" x="526" y="-267" font-family="Helvetica,sans-Serif" font-size="10.00">check_collision_zx</text>
</a>
</g>
</g>
<!-- Node3&#45;&gt;Node5 -->
<g id="edge4_Node000003_Node000005" class="edge">
<title>Node3&#45;&gt;Node5</title>
<g id="a_edge4_Node000003_Node000005"><a xlink:title=" ">
<path fill="none" stroke="#63b8ff" d="M396.18,-242.03C418.76,-246.84 446.35,-252.73 470.2,-257.81"/>
<polygon fill="#63b8ff" stroke="#63b8ff" points="469.66,-261.28 480.17,-259.94 471.12,-254.43 469.66,-261.28"/>
</a>
</g>
</g>
<!-- Node6 -->
<g id="Node000006" class="node">
<title>Node6</title>
<g id="a_Node000006"><a xlink:href="collision_8c.html#a21fef964ab48191a1c0341954ef27a40" target="_top" xlink:title=" ">
<polygon fill="white" stroke="#666666" points="579.5,-242 472.5,-242 472.5,-223 579.5,-223 579.5,-242"/>
<text text-anchor="middle" x="526" y="-230" font-family="Helvetica,sans-Serif" font-size="10.00">check_collision_zy</text>
</a>
</g>
</g>
<!-- Node3&#45;&gt;Node6 -->
<g id="edge5_Node000003_Node000006" class="edge">
<title>Node3&#45;&gt;Node6</title>
<g id="a_edge5_Node000003_Node000006"><a xlink:title=" ">
<path fill="none" stroke="#63b8ff" d="M421.07,-232.5C434.67,-232.5 448.85,-232.5 462.21,-232.5"/>
<polygon fill="#63b8ff" stroke="#63b8ff" points="462.25,-236 472.25,-232.5 462.25,-229 462.25,-236"/>
</a>
</g>
</g>
<!-- Node8 -->
<g id="Node000008" class="node">
<title>Node8</title>
<g id="a_Node000008"><a xlink:href="collision_8c.html#a6527a2135a10909cdf9a1fd731be5628" target="_top" xlink:title=" ">
<polygon fill="white" stroke="#666666" points="595,-156 457,-156 457,-137 595,-137 595,-156"/>
<text text-anchor="middle" x="526" y="-144" font-family="Helvetica,sans-Serif" font-size="10.00">calculate_surface_height</text>
</a>
</g>
</g>
<!-- Node7&#45;&gt;Node8 -->
<g id="edge7_Node000007_Node000008" class="edge">
<title>Node7&#45;&gt;Node8</title>
<g id="a_edge7_Node000007_Node000008"><a xlink:title=" ">
<path fill="none" stroke="#63b8ff" d="M387.45,-182.97C414.09,-175.91 450.59,-166.23 479.3,-158.62"/>
<polygon fill="#63b8ff" stroke="#63b8ff" points="480.33,-161.96 489.1,-156.02 478.53,-155.2 480.33,-161.96"/>
</a>
</g>
</g>
<!-- Node9 -->
<g id="Node000009" class="node">
<title>Node9</title>
<g id="a_Node000009"><a xlink:href="collision_8c.html#a0fe340ccfe1d926a592ea9a0c84d7574" target="_top" xlink:title=" ">
<polygon fill="white" stroke="#666666" points="592,-204.5 460,-204.5 460,-174.5 592,-174.5 592,-204.5"/>
<text text-anchor="start" x="468" y="-192.5" font-family="Helvetica,sans-Serif" font-size="10.00">check_horizontally</text>
<text text-anchor="middle" x="526" y="-181.5" font-family="Helvetica,sans-Serif" font-size="10.00">_colliding_with_triangle</text>
</a>
</g>
</g>
<!-- Node7&#45;&gt;Node9 -->
<g id="edge8_Node000007_Node000009" class="edge">
<title>Node7&#45;&gt;Node9</title>
<g id="a_edge8_Node000007_Node000009"><a xlink:title=" ">
<path fill="none" stroke="#63b8ff" d="M419.08,-191.33C429.14,-191.16 439.56,-190.98 449.77,-190.8"/>
<polygon fill="#63b8ff" stroke="#63b8ff" points="449.95,-194.3 459.88,-190.63 449.82,-187.3 449.95,-194.3"/>
</a>
</g>
</g>
<!-- Node10&#45;&gt;Node3 -->
<g id="edge10_Node000010_Node000003" class="edge">
<title>Node10&#45;&gt;Node3</title>
<g id="a_edge10_Node000010_Node000003"><a xlink:title=" ">
<path fill="none" stroke="#63b8ff" d="M230.61,-231.77C242.71,-231.84 256.21,-231.93 269.65,-232.01"/>
<polygon fill="#63b8ff" stroke="#63b8ff" points="269.87,-235.51 279.89,-232.07 269.91,-228.51 269.87,-235.51"/>
</a>
</g>
</g>
<!-- Node10&#45;&gt;Node7 -->
<g id="edge11_Node000010_Node000007" class="edge">
<title>Node10&#45;&gt;Node7</title>
<g id="a_edge11_Node000010_Node000007"><a xlink:title=" ">
<path fill="none" stroke="#63b8ff" d="M226.37,-221.96C248.56,-216.65 276.37,-210 299.94,-204.36"/>
<polygon fill="#63b8ff" stroke="#63b8ff" points="300.84,-207.74 309.76,-202.01 299.22,-200.93 300.84,-207.74"/>
</a>
</g>
</g>
<!-- Node13 -->
<g id="Node000013" class="node">
<title>Node13</title>
<g id="a_Node000013"><a xlink:href="classWorld.html#a1a4dacc6aea0b846df998be0afc239f7" target="_top" xlink:title=" ">
<polygon fill="white" stroke="#666666" points="397,-112 304,-112 304,-93 397,-93 397,-112"/>
<text text-anchor="middle" x="350.5" y="-100" font-family="Helvetica,sans-Serif" font-size="10.00">World::GetTrack</text>
</a>
</g>
</g>
<!-- Node12&#45;&gt;Node13 -->
<g id="edge14_Node000012_Node000013" class="edge">
<title>Node12&#45;&gt;Node13</title>
<g id="a_edge14_Node000012_Node000013"><a xlink:title=" ">
<path fill="none" stroke="#63b8ff" d="M219.88,-116.81C241.16,-114.46 269.27,-111.36 293.87,-108.64"/>
<polygon fill="#63b8ff" stroke="#63b8ff" points="294.25,-112.12 303.81,-107.55 293.48,-105.16 294.25,-112.12"/>
</a>
</g>
</g>
<!-- Node14 -->
<g id="Node000014" class="node">
<title>Node14</title>
<g id="a_Node000014"><a xlink:href="Game_8cpp.html#ae2fa844b3cb1021ecbc357f8ed2ad8cc" target="_top" xlink:title=" ">
<polygon fill="white" stroke="#666666" points="381.5,-75 319.5,-75 319.5,-56 381.5,-56 381.5,-75"/>
<text text-anchor="middle" x="350.5" y="-63" font-family="Helvetica,sans-Serif" font-size="10.00">GetWorld</text>
</a>
</g>
</g>
<!-- Node12&#45;&gt;Node14 -->
<g id="edge15_Node000012_Node000014" class="edge">
<title>Node12&#45;&gt;Node14</title>
<g id="a_edge15_Node000012_Node000014"><a xlink:title=" ">
<path fill="none" stroke="#63b8ff" d="M219.66,-111.11C227.71,-108.56 236.24,-105.63 244,-102.5 260.59,-95.81 263.29,-90.89 280,-84.5 289.37,-80.92 299.68,-77.72 309.43,-75.01"/>
<polygon fill="#63b8ff" stroke="#63b8ff" points="310.56,-78.33 319.32,-72.37 308.76,-71.57 310.56,-78.33"/>
</a>
</g>
</g>
<!-- Node15&#45;&gt;Node13 -->
<g id="edge17_Node000015_Node000013" class="edge">
<title>Node15&#45;&gt;Node13</title>
<g id="a_edge17_Node000015_Node000013"><a xlink:title=" ">
<path fill="none" stroke="#63b8ff" d="M231.9,-88.79C251.08,-91.03 273.61,-93.65 293.78,-96"/>
<polygon fill="#63b8ff" stroke="#63b8ff" points="293.44,-99.49 303.77,-97.17 294.25,-92.54 293.44,-99.49"/>
</a>
</g>
</g>
<!-- Node15&#45;&gt;Node14 -->
<g id="edge18_Node000015_Node000014" class="edge">
<title>Node15&#45;&gt;Node14</title>
<g id="a_edge18_Node000015_Node000014"><a xlink:title=" ">
<path fill="none" stroke="#63b8ff" d="M231.9,-78.49C256.19,-75.8 285.84,-72.53 309.29,-69.94"/>
<polygon fill="#63b8ff" stroke="#63b8ff" points="309.7,-73.42 319.26,-68.84 308.93,-66.46 309.7,-73.42"/>
</a>
</g>
</g>
<!-- Node16&#45;&gt;Node13 -->
<g id="edge20_Node000016_Node000013" class="edge">
<title>Node16&#45;&gt;Node13</title>
<g id="a_edge20_Node000016_Node000013"><a xlink:title=" ">
<path fill="none" stroke="#63b8ff" d="M218.49,-56.02C226.89,-58.81 235.87,-62.04 244,-65.5 260.65,-72.58 263.13,-77.97 280,-84.5 285.23,-86.53 290.77,-88.4 296.35,-90.1"/>
<polygon fill="#63b8ff" stroke="#63b8ff" points="295.79,-93.58 306.37,-92.99 297.73,-86.86 295.79,-93.58"/>
</a>
</g>
</g>
<!-- Node16&#45;&gt;Node14 -->
<g id="edge21_Node000016_Node000014" class="edge">
<title>Node16&#45;&gt;Node14</title>
<g id="a_edge21_Node000016_Node000014"><a xlink:title=" ">
<path fill="none" stroke="#63b8ff" d="M232.34,-51.84C256.51,-54.66 285.89,-58.09 309.19,-60.8"/>
<polygon fill="#63b8ff" stroke="#63b8ff" points="309.08,-64.31 319.42,-61.99 309.89,-57.36 309.08,-64.31"/>
</a>
</g>
</g>
</g>
</svg>
