<?xml version="1.0" encoding="UTF-8" standalone="no"?>
<!DOCTYPE svg PUBLIC "-//W3C//DTD SVG 1.1//EN"
 "http://www.w3.org/Graphics/SVG/1.1/DTD/svg11.dtd">
<!-- Generated by graphviz version 2.43.0 (0)
 -->
<!-- Title: func_80087A0C Pages: 1 -->
<svg width="390pt" height="272pt"
 viewBox="0.00 0.00 390.00 272.00" xmlns="http://www.w3.org/2000/svg" xmlns:xlink="http://www.w3.org/1999/xlink">
<g id="graph0" class="graph" transform="scale(1 1) rotate(0) translate(4 268)">
<title>func_80087A0C</title>
<!-- Node1 -->
<g id="Node000001" class="node">
<title>Node1</title>
<g id="a_Node000001"><a xlink:title=" ">
<polygon fill="#999999" stroke="#666666" points="92,-147 0,-147 0,-128 92,-128 92,-147"/>
<text text-anchor="middle" x="46" y="-135" font-family="Helvetica,sans-Serif" font-size="10.00">func_80087A0C</text>
</a>
</g>
</g>
<!-- Node2 -->
<g id="Node000002" class="node">
<title>Node2</title>
<g id="a_Node000002"><a xlink:href="math__util_8c.html#aaa39a297477f56051975259f4bddd829" target="_top" xlink:title=" ">
<polygon fill="white" stroke="#666666" points="221,-264 171,-264 171,-245 221,-245 221,-264"/>
<text text-anchor="middle" x="196" y="-252" font-family="Helvetica,sans-Serif" font-size="10.00">atan2s</text>
</a>
</g>
</g>
<!-- Node1&#45;&gt;Node2 -->
<g id="edge1_Node000001_Node000002" class="edge">
<title>Node1&#45;&gt;Node2</title>
<g id="a_edge1_Node000001_Node000002"><a xlink:title=" ">
<path fill="none" stroke="#63b8ff" d="M52.07,-147.07C63.1,-166.93 91.26,-212.75 128,-236.5 137.84,-242.86 149.87,-246.98 161,-249.65"/>
<polygon fill="#63b8ff" stroke="#63b8ff" points="160.39,-253.1 170.89,-251.72 161.82,-246.25 160.39,-253.1"/>
</a>
</g>
</g>
<!-- Node4 -->
<g id="Node000004" class="node">
<title>Node4</title>
<g id="a_Node000004"><a xlink:href="update__objects_8c.html#a3953241e15c6372ac8944ba842148a9a" target="_top" xlink:title=" ">
<polygon fill="white" stroke="#666666" points="245.5,-227 146.5,-227 146.5,-208 245.5,-208 245.5,-227"/>
<text text-anchor="middle" x="196" y="-215" font-family="Helvetica,sans-Serif" font-size="10.00">clear_object_flag</text>
</a>
</g>
</g>
<!-- Node1&#45;&gt;Node4 -->
<g id="edge3_Node000001_Node000004" class="edge">
<title>Node1&#45;&gt;Node4</title>
<g id="a_edge3_Node000001_Node000004"><a xlink:title=" ">
<path fill="none" stroke="#63b8ff" d="M57.1,-147.38C71.61,-161.03 99.72,-185.57 128,-199.5 131.83,-201.39 135.88,-203.1 140.02,-204.64"/>
<polygon fill="#63b8ff" stroke="#63b8ff" points="139.19,-208.05 149.78,-207.95 141.44,-201.42 139.19,-208.05"/>
</a>
</g>
</g>
<!-- Node5 -->
<g id="Node000005" class="node">
<title>Node5</title>
<g id="a_Node000005"><a xlink:href="code__80086E70_8c.html#a1cd6a78cf091bd496e83739902c652a7" target="_top" xlink:title=" ">
<polygon fill="white" stroke="#666666" points="242,-190 150,-190 150,-171 242,-171 242,-190"/>
<text text-anchor="middle" x="196" y="-178" font-family="Helvetica,sans-Serif" font-size="10.00">func_8008751C</text>
</a>
</g>
</g>
<!-- Node1&#45;&gt;Node5 -->
<g id="edge4_Node000001_Node000005" class="edge">
<title>Node1&#45;&gt;Node5</title>
<g id="a_edge4_Node000001_Node000005"><a xlink:title=" ">
<path fill="none" stroke="#63b8ff" d="M78.91,-147.05C93.81,-151.48 111.8,-156.8 128,-161.5 135.51,-163.68 143.51,-165.97 151.26,-168.18"/>
<polygon fill="#63b8ff" stroke="#63b8ff" points="150.32,-171.55 160.89,-170.91 152.23,-164.81 150.32,-171.55"/>
</a>
</g>
</g>
<!-- Node8 -->
<g id="Node000008" class="node">
<title>Node8</title>
<g id="a_Node000008"><a xlink:href="update__objects_8c.html#a2301a51a93a60f0382cdc7002e14f95a" target="_top" xlink:title=" ">
<polygon fill="white" stroke="#666666" points="264,-152.5 128,-152.5 128,-122.5 264,-122.5 264,-152.5"/>
<text text-anchor="start" x="136" y="-140.5" font-family="Helvetica,sans-Serif" font-size="10.00">is_obj_index_flag_status</text>
<text text-anchor="middle" x="196" y="-129.5" font-family="Helvetica,sans-Serif" font-size="10.00">_inactive</text>
</a>
</g>
</g>
<!-- Node1&#45;&gt;Node8 -->
<g id="edge7_Node000001_Node000008" class="edge">
<title>Node1&#45;&gt;Node8</title>
<g id="a_edge7_Node000001_Node000008"><a xlink:title=" ">
<path fill="none" stroke="#63b8ff" d="M92.21,-137.5C100.34,-137.5 109.01,-137.5 117.75,-137.5"/>
<polygon fill="#63b8ff" stroke="#63b8ff" points="118,-141 128,-137.5 118,-134 118,-141"/>
</a>
</g>
</g>
<!-- Node9 -->
<g id="Node000009" class="node">
<title>Node9</title>
<g id="a_Node000009"><a xlink:href="code__80086E70_8c.html#ad7b4c375db18ad21adab51801dba6092" target="_top" xlink:title=" ">
<polygon fill="white" stroke="#666666" points="253,-104.5 139,-104.5 139,-74.5 253,-74.5 253,-104.5"/>
<text text-anchor="start" x="147" y="-92.5" font-family="Helvetica,sans-Serif" font-size="10.00">object_add_velocity</text>
<text text-anchor="middle" x="196" y="-81.5" font-family="Helvetica,sans-Serif" font-size="10.00">_offset_xz</text>
</a>
</g>
</g>
<!-- Node1&#45;&gt;Node9 -->
<g id="edge8_Node000001_Node000009" class="edge">
<title>Node1&#45;&gt;Node9</title>
<g id="a_edge8_Node000001_Node000009"><a xlink:title=" ">
<path fill="none" stroke="#63b8ff" d="M76.59,-127.9C94.44,-122.11 117.76,-114.55 138.98,-107.67"/>
<polygon fill="#63b8ff" stroke="#63b8ff" points="140.12,-110.98 148.56,-104.56 137.96,-104.32 140.12,-110.98"/>
</a>
</g>
</g>
<!-- Node10 -->
<g id="Node000010" class="node">
<title>Node10</title>
<g id="a_Node000010"><a xlink:href="update__objects_8c.html#afe64f2394ee0deab6370b77609500bda" target="_top" xlink:title=" ">
<polygon fill="white" stroke="#666666" points="241,-56 151,-56 151,-37 241,-37 241,-56"/>
<text text-anchor="middle" x="196" y="-44" font-family="Helvetica,sans-Serif" font-size="10.00">set_object_flag</text>
</a>
</g>
</g>
<!-- Node1&#45;&gt;Node10 -->
<g id="edge9_Node000001_Node000010" class="edge">
<title>Node1&#45;&gt;Node10</title>
<g id="a_edge9_Node000001_Node000010"><a xlink:title=" ">
<path fill="none" stroke="#63b8ff" d="M55.41,-127.57C69.08,-112.06 97.64,-82.14 128,-65.5 132.22,-63.19 136.74,-61.14 141.38,-59.32"/>
<polygon fill="#63b8ff" stroke="#63b8ff" points="142.73,-62.55 150.98,-55.91 140.39,-55.96 142.73,-62.55"/>
</a>
</g>
</g>
<!-- Node11 -->
<g id="Node000011" class="node">
<title>Node11</title>
<g id="a_Node000011"><a xlink:href="math_8h.html#a37bde043e94a6f074c78f10518fb5d99" target="_top" xlink:title=" ">
<polygon fill="white" stroke="#666666" points="215.5,-19 176.5,-19 176.5,0 215.5,0 215.5,-19"/>
<text text-anchor="middle" x="196" y="-7" font-family="Helvetica,sans-Serif" font-size="10.00">sqrtf</text>
</a>
</g>
</g>
<!-- Node1&#45;&gt;Node11 -->
<g id="edge10_Node000001_Node000011" class="edge">
<title>Node1&#45;&gt;Node11</title>
<g id="a_edge10_Node000001_Node000011"><a xlink:title=" ">
<path fill="none" stroke="#63b8ff" d="M51.31,-127.85C61.43,-106.34 88.83,-54.25 128,-27.5 139.27,-19.8 153.68,-15.39 166.25,-12.87"/>
<polygon fill="#63b8ff" stroke="#63b8ff" points="167,-16.29 176.27,-11.16 165.82,-9.39 167,-16.29"/>
</a>
</g>
</g>
<!-- Node3 -->
<g id="Node000003" class="node">
<title>Node3</title>
<g id="a_Node000003"><a xlink:href="math__util_8c.html#a0273b0ea0783a06996c28669a7438ed9" target="_top" xlink:title=" ">
<polygon fill="white" stroke="#666666" points="382,-264 300,-264 300,-245 382,-245 382,-264"/>
<text text-anchor="middle" x="341" y="-252" font-family="Helvetica,sans-Serif" font-size="10.00">atan2_lookup</text>
</a>
</g>
</g>
<!-- Node2&#45;&gt;Node3 -->
<g id="edge2_Node000002_Node000003" class="edge">
<title>Node2&#45;&gt;Node3</title>
<g id="a_edge2_Node000002_Node000003"><a xlink:title=" ">
<path fill="none" stroke="#63b8ff" d="M221.26,-254.5C240,-254.5 266.58,-254.5 289.84,-254.5"/>
<polygon fill="#63b8ff" stroke="#63b8ff" points="289.91,-258 299.91,-254.5 289.91,-251 289.91,-258"/>
</a>
</g>
</g>
<!-- Node6 -->
<g id="Node000006" class="node">
<title>Node6</title>
<g id="a_Node000006"><a xlink:href="math__util_8c.html#ae69cbf5c8d4b3b0dba2d7b4d4673689f" target="_top" xlink:title=" ">
<polygon fill="white" stroke="#666666" points="360,-208 322,-208 322,-189 360,-189 360,-208"/>
<text text-anchor="middle" x="341" y="-196" font-family="Helvetica,sans-Serif" font-size="10.00">coss</text>
</a>
</g>
</g>
<!-- Node5&#45;&gt;Node6 -->
<g id="edge5_Node000005_Node000006" class="edge">
<title>Node5&#45;&gt;Node6</title>
<g id="a_edge5_Node000005_Node000006"><a xlink:title=" ">
<path fill="none" stroke="#63b8ff" d="M242.25,-186.2C265.13,-189.08 292.19,-192.48 312.03,-194.98"/>
<polygon fill="#63b8ff" stroke="#63b8ff" points="311.6,-198.45 321.96,-196.23 312.48,-191.51 311.6,-198.45"/>
</a>
</g>
</g>
<!-- Node7 -->
<g id="Node000007" class="node">
<title>Node7</title>
<g id="a_Node000007"><a xlink:href="math__util_8c.html#a19ed3bd78fd2d3e2bd0a29f6caf48545" target="_top" xlink:title=" ">
<polygon fill="white" stroke="#666666" points="359,-171 323,-171 323,-152 359,-152 359,-171"/>
<text text-anchor="middle" x="341" y="-159" font-family="Helvetica,sans-Serif" font-size="10.00">sins</text>
</a>
</g>
</g>
<!-- Node5&#45;&gt;Node7 -->
<g id="edge6_Node000005_Node000007" class="edge">
<title>Node5&#45;&gt;Node7</title>
<g id="a_edge6_Node000005_Node000007"><a xlink:title=" ">
<path fill="none" stroke="#63b8ff" d="M242.25,-174.49C265.41,-171.41 292.85,-167.76 312.75,-165.12"/>
<polygon fill="#63b8ff" stroke="#63b8ff" points="313.23,-168.59 322.68,-163.8 312.31,-161.65 313.23,-168.59"/>
</a>
</g>
</g>
</g>
</svg>
