<?xml version="1.0" encoding="UTF-8" standalone="no"?>
<!DOCTYPE svg PUBLIC "-//W3C//DTD SVG 1.1//EN"
 "http://www.w3.org/Graphics/SVG/1.1/DTD/svg11.dtd">
<!-- Generated by graphviz version 2.43.0 (0)
 -->
<!-- Title: src/engine/editor/Collision.h Pages: 1 -->
<svg width="863pt" height="214pt"
 viewBox="0.00 0.00 863.00 214.00" xmlns="http://www.w3.org/2000/svg" xmlns:xlink="http://www.w3.org/1999/xlink">
<g id="graph0" class="graph" transform="scale(1 1) rotate(0) translate(4 210)">
<title>src/engine/editor/Collision.h</title>
<!-- Node1 -->
<g id="Node000001" class="node">
<title>Node1</title>
<g id="a_Node000001"><a xlink:title=" ">
<polygon fill="#999999" stroke="#666666" points="496.5,-206 344.5,-206 344.5,-187 496.5,-187 496.5,-206"/>
<text text-anchor="middle" x="420.5" y="-194" font-family="Helvetica,sans-Serif" font-size="10.00">src/engine/editor/Collision.h</text>
</a>
</g>
</g>
<!-- Node2 -->
<g id="Node000002" class="node">
<title>Node2</title>
<g id="a_Node000002"><a xlink:href="Actor_8cpp.html" target="_top" xlink:title=" ">
<polygon fill="white" stroke="#666666" points="115,-151 0,-151 0,-132 115,-132 115,-151"/>
<text text-anchor="middle" x="57.5" y="-139" font-family="Helvetica,sans-Serif" font-size="10.00">src/engine/Actor.cpp</text>
</a>
</g>
</g>
<!-- Node1&#45;&gt;Node2 -->
<g id="edge1_Node000001_Node000002" class="edge">
<title>Node1&#45;&gt;Node2</title>
<g id="a_edge1_Node000001_Node000002"><a xlink:title=" ">
<path fill="none" stroke="#63b8ff" d="M351.92,-185.49C283.45,-175.49 179.4,-160.3 115.08,-150.91"/>
<polygon fill="#63b8ff" stroke="#63b8ff" points="351.78,-189 362.18,-186.98 352.79,-182.08 351.78,-189"/>
</a>
</g>
</g>
<!-- Node3 -->
<g id="Node000003" class="node">
<title>Node3</title>
<g id="a_Node000003"><a xlink:href="Collision_8cpp.html" target="_top" xlink:title=" ">
<polygon fill="white" stroke="#666666" points="297.5,-151 133.5,-151 133.5,-132 297.5,-132 297.5,-151"/>
<text text-anchor="middle" x="215.5" y="-139" font-family="Helvetica,sans-Serif" font-size="10.00">src/engine/editor/Collision.cpp</text>
</a>
</g>
</g>
<!-- Node1&#45;&gt;Node3 -->
<g id="edge2_Node000001_Node000003" class="edge">
<title>Node1&#45;&gt;Node3</title>
<g id="a_edge2_Node000001_Node000003"><a xlink:title=" ">
<path fill="none" stroke="#63b8ff" d="M377.71,-184.44C339.33,-174.52 283.81,-160.16 248.69,-151.08"/>
<polygon fill="#63b8ff" stroke="#63b8ff" points="377.01,-187.87 387.56,-186.98 378.76,-181.09 377.01,-187.87"/>
</a>
</g>
</g>
<!-- Node4 -->
<g id="Node000004" class="node">
<title>Node4</title>
<g id="a_Node000004"><a xlink:href="Editor_8cpp.html" target="_top" xlink:title=" ">
<polygon fill="white" stroke="#666666" points="329,-90.5 180,-90.5 180,-71.5 329,-71.5 329,-90.5"/>
<text text-anchor="middle" x="254.5" y="-78.5" font-family="Helvetica,sans-Serif" font-size="10.00">src/engine/editor/Editor.cpp</text>
</a>
</g>
</g>
<!-- Node1&#45;&gt;Node4 -->
<g id="edge3_Node000001_Node000004" class="edge">
<title>Node1&#45;&gt;Node4</title>
<g id="a_edge3_Node000001_Node000004"><a xlink:title=" ">
<path fill="none" stroke="#63b8ff" d="M395.67,-181.99C380.59,-173.54 361.1,-162.16 344.5,-151 314.44,-130.79 281.09,-103.99 264.72,-90.51"/>
<polygon fill="#63b8ff" stroke="#63b8ff" points="393.99,-185.06 404.43,-186.85 397.38,-178.94 393.99,-185.06"/>
</a>
</g>
</g>
<!-- Node5 -->
<g id="Node000005" class="node">
<title>Node5</title>
<g id="a_Node000005"><a xlink:href="Gizmo_8cpp.html" target="_top" xlink:title=" ">
<polygon fill="white" stroke="#666666" points="665,-90.5 512,-90.5 512,-71.5 665,-71.5 665,-90.5"/>
<text text-anchor="middle" x="588.5" y="-78.5" font-family="Helvetica,sans-Serif" font-size="10.00">src/engine/editor/Gizmo.cpp</text>
</a>
</g>
</g>
<!-- Node1&#45;&gt;Node5 -->
<g id="edge4_Node000001_Node000005" class="edge">
<title>Node1&#45;&gt;Node5</title>
<g id="a_edge4_Node000001_Node000005"><a xlink:title=" ">
<path fill="none" stroke="#63b8ff" d="M445,-182.09C460.11,-173.6 479.73,-162.14 496.5,-151 526.93,-130.78 560.87,-104.21 577.75,-90.7"/>
<polygon fill="#63b8ff" stroke="#63b8ff" points="443.28,-179.05 436.24,-186.97 446.68,-185.16 443.28,-179.05"/>
</a>
</g>
</g>
<!-- Node6 -->
<g id="Node000006" class="node">
<title>Node6</title>
<g id="a_Node000006"><a xlink:href="Gizmo_8h.html" target="_top" xlink:title=" ">
<polygon fill="white" stroke="#666666" points="685.5,-151 543.5,-151 543.5,-132 685.5,-132 685.5,-151"/>
<text text-anchor="middle" x="614.5" y="-139" font-family="Helvetica,sans-Serif" font-size="10.00">src/engine/editor/Gizmo.h</text>
</a>
</g>
</g>
<!-- Node1&#45;&gt;Node6 -->
<g id="edge5_Node000001_Node000006" class="edge">
<title>Node1&#45;&gt;Node6</title>
<g id="a_edge5_Node000001_Node000006"><a xlink:title=" ">
<path fill="none" stroke="#63b8ff" d="M461.46,-184.31C497.76,-174.39 550,-160.12 583.09,-151.08"/>
<polygon fill="#63b8ff" stroke="#63b8ff" points="460.39,-180.97 451.67,-186.98 462.24,-187.73 460.39,-180.97"/>
</a>
</g>
</g>
<!-- Node9 -->
<g id="Node000009" class="node">
<title>Node9</title>
<g id="a_Node000009"><a xlink:href="ObjectPicker_8h.html" target="_top" xlink:title=" ">
<polygon fill="white" stroke="#666666" points="855,-96 722,-96 722,-66 855,-66 855,-96"/>
<text text-anchor="start" x="730" y="-84" font-family="Helvetica,sans-Serif" font-size="10.00">src/engine/editor/Object</text>
<text text-anchor="middle" x="788.5" y="-73" font-family="Helvetica,sans-Serif" font-size="10.00">Picker.h</text>
</a>
</g>
</g>
<!-- Node1&#45;&gt;Node9 -->
<g id="edge14_Node000001_Node000009" class="edge">
<title>Node1&#45;&gt;Node9</title>
<g id="a_edge14_Node000001_Node000009"><a xlink:title=" ">
<path fill="none" stroke="#63b8ff" d="M506.82,-191.87C562.25,-187.06 634.78,-176.05 694.5,-151 725.86,-137.85 756.54,-112.24 773.93,-96.19"/>
<polygon fill="#63b8ff" stroke="#63b8ff" points="506.36,-188.4 496.68,-192.7 506.93,-195.37 506.36,-188.4"/>
</a>
</g>
</g>
<!-- Node10 -->
<g id="Node000010" class="node">
<title>Node10</title>
<g id="a_Node000010"><a xlink:href="Light_8h.html" target="_top" xlink:title=" ">
<polygon fill="white" stroke="#666666" points="487.5,-151 353.5,-151 353.5,-132 487.5,-132 487.5,-151"/>
<text text-anchor="middle" x="420.5" y="-139" font-family="Helvetica,sans-Serif" font-size="10.00">src/engine/editor/Light.h</text>
</a>
</g>
</g>
<!-- Node1&#45;&gt;Node10 -->
<g id="edge11_Node000001_Node000010" class="edge">
<title>Node1&#45;&gt;Node10</title>
<g id="a_edge11_Node000001_Node000010"><a xlink:title=" ">
<path fill="none" stroke="#63b8ff" d="M420.5,-176.66C420.5,-167.93 420.5,-157.99 420.5,-151.09"/>
<polygon fill="#63b8ff" stroke="#63b8ff" points="417,-176.75 420.5,-186.75 424,-176.75 417,-176.75"/>
</a>
</g>
</g>
<!-- Node6&#45;&gt;Node5 -->
<g id="edge6_Node000006_Node000005" class="edge">
<title>Node6&#45;&gt;Node5</title>
<g id="a_edge6_Node000006_Node000005"><a xlink:title=" ">
<path fill="none" stroke="#63b8ff" d="M606.57,-122.65C601.85,-112.04 596.08,-99.06 592.35,-90.67"/>
<polygon fill="#63b8ff" stroke="#63b8ff" points="603.4,-124.15 610.66,-131.87 609.8,-121.31 603.4,-124.15"/>
</a>
</g>
</g>
<!-- Node7 -->
<g id="Node000007" class="node">
<title>Node7</title>
<g id="a_Node000007"><a xlink:href="Light_8cpp.html" target="_top" xlink:title=" ">
<polygon fill="white" stroke="#666666" points="493.5,-90.5 347.5,-90.5 347.5,-71.5 493.5,-71.5 493.5,-90.5"/>
<text text-anchor="middle" x="420.5" y="-78.5" font-family="Helvetica,sans-Serif" font-size="10.00">src/engine/editor/Light.cpp</text>
</a>
</g>
</g>
<!-- Node6&#45;&gt;Node7 -->
<g id="edge7_Node000006_Node000007" class="edge">
<title>Node6&#45;&gt;Node7</title>
<g id="a_edge7_Node000006_Node000007"><a xlink:title=" ">
<path fill="none" stroke="#63b8ff" d="M576.24,-128.96C538.72,-117.65 482.38,-100.66 448.74,-90.52"/>
<polygon fill="#63b8ff" stroke="#63b8ff" points="575.71,-132.46 586.29,-131.99 577.73,-125.76 575.71,-132.46"/>
</a>
</g>
</g>
<!-- Node8 -->
<g id="Node000008" class="node">
<title>Node8</title>
<g id="a_Node000008"><a xlink:href="ObjectPicker_8cpp.html" target="_top" xlink:title=" ">
<polygon fill="white" stroke="#666666" points="807,-30 674,-30 674,0 807,0 807,-30"/>
<text text-anchor="start" x="682" y="-18" font-family="Helvetica,sans-Serif" font-size="10.00">src/engine/editor/Object</text>
<text text-anchor="middle" x="740.5" y="-7" font-family="Helvetica,sans-Serif" font-size="10.00">Picker.cpp</text>
</a>
</g>
</g>
<!-- Node6&#45;&gt;Node8 -->
<g id="edge8_Node000006_Node000008" class="edge">
<title>Node6&#45;&gt;Node8</title>
<g id="a_edge8_Node000006_Node000008"><a xlink:title=" ">
<path fill="none" stroke="#63b8ff" d="M636.52,-126.1C648.32,-117.91 662.81,-107.1 674.5,-96 696.57,-75.05 718.26,-46.89 730.46,-30.18"/>
<polygon fill="#63b8ff" stroke="#63b8ff" points="634.41,-123.3 628.1,-131.81 638.34,-129.09 634.41,-123.3"/>
</a>
</g>
</g>
<!-- Node6&#45;&gt;Node9 -->
<g id="edge9_Node000006_Node000009" class="edge">
<title>Node6&#45;&gt;Node9</title>
<g id="a_edge9_Node000006_Node000009"><a xlink:title=" ">
<path fill="none" stroke="#63b8ff" d="M649.58,-128.71C677.61,-119.28 716.99,-106.04 746.67,-96.06"/>
<polygon fill="#63b8ff" stroke="#63b8ff" points="648.16,-125.49 639.8,-131.99 650.4,-132.12 648.16,-125.49"/>
</a>
</g>
</g>
<!-- Node9&#45;&gt;Node8 -->
<g id="edge10_Node000009_Node000008" class="edge">
<title>Node9&#45;&gt;Node8</title>
<g id="a_edge10_Node000009_Node000008"><a xlink:title=" ">
<path fill="none" stroke="#63b8ff" d="M771.64,-57.53C764.82,-48.43 757.15,-38.19 751.12,-30.16"/>
<polygon fill="#63b8ff" stroke="#63b8ff" points="769.05,-59.9 777.85,-65.8 774.65,-55.7 769.05,-59.9"/>
</a>
</g>
</g>
<!-- Node10&#45;&gt;Node4 -->
<g id="edge12_Node000010_Node000004" class="edge">
<title>Node10&#45;&gt;Node4</title>
<g id="a_edge12_Node000010_Node000004"><a xlink:title=" ">
<path fill="none" stroke="#63b8ff" d="M386.52,-128.52C354.42,-117.21 307.08,-100.53 278.67,-90.52"/>
<polygon fill="#63b8ff" stroke="#63b8ff" points="385.77,-131.97 396.36,-131.99 388.09,-125.37 385.77,-131.97"/>
</a>
</g>
</g>
<!-- Node10&#45;&gt;Node7 -->
<g id="edge13_Node000010_Node000007" class="edge">
<title>Node10&#45;&gt;Node7</title>
<g id="a_edge13_Node000010_Node000007"><a xlink:title=" ">
<path fill="none" stroke="#63b8ff" d="M420.5,-121.66C420.5,-111.24 420.5,-98.8 420.5,-90.67"/>
<polygon fill="#63b8ff" stroke="#63b8ff" points="417,-121.87 420.5,-131.87 424,-121.87 417,-121.87"/>
</a>
</g>
</g>
</g>
</svg>
