<?xml version="1.0" encoding="UTF-8" standalone="no"?>
<!DOCTYPE svg PUBLIC "-//W3C//DTD SVG 1.1//EN"
 "http://www.w3.org/Graphics/SVG/1.1/DTD/svg11.dtd">
<!-- Generated by graphviz version 2.43.0 (0)
 -->
<!-- Title: src/port/ui/DefaultProperties.cpp Pages: 1 -->
<svg width="1190pt" height="423pt"
 viewBox="0.00 0.00 1190.00 423.00" xmlns="http://www.w3.org/2000/svg" xmlns:xlink="http://www.w3.org/1999/xlink">
<g id="graph0" class="graph" transform="scale(1 1) rotate(0) translate(4 419)">
<title>src/port/ui/DefaultProperties.cpp</title>
<!-- Node1 -->
<g id="Node000001" class="node">
<title>Node1</title>
<g id="a_Node000001"><a xlink:title=" ">
<polygon fill="#999999" stroke="#666666" points="1050,-415 876,-415 876,-396 1050,-396 1050,-415"/>
<text text-anchor="middle" x="963" y="-403" font-family="Helvetica,sans-Serif" font-size="10.00">src/port/ui/DefaultProperties.cpp</text>
</a>
</g>
</g>
<!-- Node2 -->
<g id="Node000002" class="node">
<title>Node2</title>
<g id="a_Node000002"><a xlink:title=" ">
<polygon fill="#e0e0e0" stroke="#999999" points="947.5,-360 896.5,-360 896.5,-341 947.5,-341 947.5,-360"/>
<text text-anchor="middle" x="922" y="-348" font-family="Helvetica,sans-Serif" font-size="10.00">variant</text>
</a>
</g>
</g>
<!-- Node1&#45;&gt;Node2 -->
<g id="edge1_Node000001_Node000002" class="edge">
<title>Node1&#45;&gt;Node2</title>
<g id="a_edge1_Node000001_Node000002"><a xlink:title=" ">
<path fill="none" stroke="#63b8ff" d="M956.23,-395.75C950.44,-388.26 941.94,-377.28 934.86,-368.13"/>
<polygon fill="#63b8ff" stroke="#63b8ff" points="937.53,-365.86 928.64,-360.09 931.99,-370.14 937.53,-365.86"/>
</a>
</g>
</g>
<!-- Node3 -->
<g id="Node000003" class="node">
<title>Node3</title>
<g id="a_Node000003"><a xlink:href="Game_8h.html" target="_top" xlink:title=" ">
<polygon fill="white" stroke="#666666" points="1042.5,-360 965.5,-360 965.5,-341 1042.5,-341 1042.5,-360"/>
<text text-anchor="middle" x="1004" y="-348" font-family="Helvetica,sans-Serif" font-size="10.00">port/Game.h</text>
</a>
</g>
</g>
<!-- Node1&#45;&gt;Node3 -->
<g id="edge2_Node000001_Node000003" class="edge">
<title>Node1&#45;&gt;Node3</title>
<g id="a_edge2_Node000001_Node000003"><a xlink:title=" ">
<path fill="none" stroke="#63b8ff" d="M969.77,-395.75C975.56,-388.26 984.06,-377.28 991.14,-368.13"/>
<polygon fill="#63b8ff" stroke="#63b8ff" points="994.01,-370.14 997.36,-360.09 988.47,-365.86 994.01,-370.14"/>
</a>
</g>
</g>
<!-- Node4 -->
<g id="Node000004" class="node">
<title>Node4</title>
<g id="a_Node000004"><a xlink:title=" ">
<polygon fill="#e0e0e0" stroke="#999999" points="825,-19 745,-19 745,0 825,0 825,-19"/>
<text text-anchor="middle" x="785" y="-7" font-family="Helvetica,sans-Serif" font-size="10.00">libultraship.h</text>
</a>
</g>
</g>
<!-- Node3&#45;&gt;Node4 -->
<g id="edge3_Node000003_Node000004" class="edge">
<title>Node3&#45;&gt;Node4</title>
<g id="a_edge3_Node000003_Node000004"><a xlink:title=" ">
<path fill="none" stroke="#63b8ff" d="M1009.64,-340.91C1025.8,-315.13 1069.61,-236.49 1045,-176 1037.92,-158.61 943,-64.83 927,-55 898.96,-37.78 863.68,-26.68 835.29,-19.87"/>
<polygon fill="#63b8ff" stroke="#63b8ff" points="835.71,-16.38 825.18,-17.55 834.14,-23.2 835.71,-16.38"/>
</a>
</g>
</g>
<!-- Node5 -->
<g id="Node000005" class="node">
<title>Node5</title>
<g id="a_Node000005"><a xlink:href="Track_8h.html" target="_top" xlink:title=" ">
<polygon fill="white" stroke="#666666" points="690,-305 570,-305 570,-286 690,-286 690,-305"/>
<text text-anchor="middle" x="630" y="-293" font-family="Helvetica,sans-Serif" font-size="10.00">engine/tracks/Track.h</text>
</a>
</g>
</g>
<!-- Node3&#45;&gt;Node5 -->
<g id="edge4_Node000003_Node000005" class="edge">
<title>Node3&#45;&gt;Node5</title>
<g id="a_edge4_Node000003_Node000005"><a xlink:title=" ">
<path fill="none" stroke="#63b8ff" d="M965.25,-342.5C962.12,-341.98 959.01,-341.47 956,-341 868.15,-327.23 766.59,-313.75 700.49,-305.3"/>
<polygon fill="#63b8ff" stroke="#63b8ff" points="700.55,-301.78 690.19,-303.99 699.67,-308.73 700.55,-301.78"/>
</a>
</g>
</g>
<!-- Node9 -->
<g id="Node000009" class="node">
<title>Node9</title>
<g id="a_Node000009"><a xlink:href="camera_8h.html" target="_top" xlink:title=" ">
<polygon fill="white" stroke="#666666" points="714,-134.5 652,-134.5 652,-115.5 714,-115.5 714,-134.5"/>
<text text-anchor="middle" x="683" y="-122.5" font-family="Helvetica,sans-Serif" font-size="10.00">camera.h</text>
</a>
</g>
</g>
<!-- Node3&#45;&gt;Node9 -->
<g id="edge60_Node000003_Node000009" class="edge">
<title>Node3&#45;&gt;Node9</title>
<g id="a_edge60_Node000003_Node000009"><a xlink:title=" ">
<path fill="none" stroke="#63b8ff" d="M965.27,-342.35C962.14,-341.86 959.02,-341.4 956,-341 912.32,-335.15 590.71,-337.55 561,-305 520.53,-260.67 559.59,-219.46 601,-176 615.81,-160.46 636.46,-147.91 653.33,-139.26"/>
<polygon fill="#63b8ff" stroke="#63b8ff" points="655.32,-142.18 662.76,-134.63 652.24,-135.9 655.32,-142.18"/>
</a>
</g>
</g>
<!-- Node25 -->
<g id="Node000025" class="node">
<title>Node25</title>
<g id="a_Node000025"><a xlink:href="code__800029B0_8h.html" target="_top" xlink:title=" ">
<polygon fill="white" stroke="#666666" points="1035.5,-195 932.5,-195 932.5,-176 1035.5,-176 1035.5,-195"/>
<text text-anchor="middle" x="984" y="-183" font-family="Helvetica,sans-Serif" font-size="10.00">code_800029B0.h</text>
</a>
</g>
</g>
<!-- Node3&#45;&gt;Node25 -->
<g id="edge62_Node000003_Node000025" class="edge">
<title>Node3&#45;&gt;Node25</title>
<g id="a_edge62_Node000003_Node000025"><a xlink:title=" ">
<path fill="none" stroke="#63b8ff" d="M1004.47,-340.78C1005.34,-321.04 1006.52,-271.49 999,-231 997.34,-222.08 994.29,-212.51 991.38,-204.54"/>
<polygon fill="#63b8ff" stroke="#63b8ff" points="994.62,-203.23 987.74,-195.17 988.09,-205.76 994.62,-203.23"/>
</a>
</g>
</g>
<!-- Node28 -->
<g id="Node000028" class="node">
<title>Node28</title>
<g id="a_Node000028"><a xlink:href="actor__types_8h.html" target="_top" xlink:title=" ">
<polygon fill="white" stroke="#666666" points="1109.5,-134.5 1026.5,-134.5 1026.5,-115.5 1109.5,-115.5 1109.5,-134.5"/>
<text text-anchor="middle" x="1068" y="-122.5" font-family="Helvetica,sans-Serif" font-size="10.00">actor_types.h</text>
</a>
</g>
</g>
<!-- Node3&#45;&gt;Node28 -->
<g id="edge61_Node000003_Node000028" class="edge">
<title>Node3&#45;&gt;Node28</title>
<g id="a_edge61_Node000003_Node000028"><a xlink:title=" ">
<path fill="none" stroke="#63b8ff" d="M1031.29,-340.88C1048,-334.03 1068.04,-322.62 1078,-305 1107.45,-252.93 1087.04,-178.15 1075.04,-144.11"/>
<polygon fill="#63b8ff" stroke="#63b8ff" points="1078.26,-142.74 1071.51,-134.57 1071.7,-145.16 1078.26,-142.74"/>
</a>
</g>
</g>
<!-- Node30 -->
<g id="Node000030" class="node">
<title>Node30</title>
<g id="a_Node000030"><a xlink:href="HM__Intro_8h.html" target="_top" xlink:title=" ">
<polygon fill="white" stroke="#666666" points="838,-134.5 732,-134.5 732,-115.5 838,-115.5 838,-134.5"/>
<text text-anchor="middle" x="785" y="-122.5" font-family="Helvetica,sans-Serif" font-size="10.00">engine/HM_Intro.h</text>
</a>
</g>
</g>
<!-- Node3&#45;&gt;Node30 -->
<g id="edge55_Node000003_Node000030" class="edge">
<title>Node3&#45;&gt;Node30</title>
<g id="a_edge55_Node000003_Node000030"><a xlink:title=" ">
<path fill="none" stroke="#63b8ff" d="M995.76,-340.82C977.07,-321.16 929.98,-271.76 890,-231 858.76,-199.15 821.78,-162.39 801.1,-141.9"/>
<polygon fill="#63b8ff" stroke="#63b8ff" points="803.34,-139.2 793.77,-134.66 798.42,-144.18 803.34,-139.2"/>
</a>
</g>
</g>
<!-- Node6 -->
<g id="Node000006" class="node">
<title>Node6</title>
<g id="a_Node000006"><a xlink:title=" ">
<polygon fill="#e0e0e0" stroke="#999999" points="723,-250 585,-250 585,-231 723,-231 723,-250"/>
<text text-anchor="middle" x="654" y="-238" font-family="Helvetica,sans-Serif" font-size="10.00">libultraship/libultraship.h</text>
</a>
</g>
</g>
<!-- Node5&#45;&gt;Node6 -->
<g id="edge5_Node000005_Node000006" class="edge">
<title>Node5&#45;&gt;Node6</title>
<g id="a_edge5_Node000005_Node000006"><a xlink:title=" ">
<path fill="none" stroke="#63b8ff" d="M633.96,-285.75C637.21,-278.57 641.92,-268.18 645.95,-259.27"/>
<polygon fill="#63b8ff" stroke="#63b8ff" points="649.17,-260.64 650.11,-250.09 642.8,-257.75 649.17,-260.64"/>
</a>
</g>
</g>
<!-- Node7 -->
<g id="Node000007" class="node">
<title>Node7</title>
<g id="a_Node000007"><a xlink:href="CoreMath_8h.html" target="_top" xlink:title=" ">
<polygon fill="white" stroke="#666666" points="894.5,-74 821.5,-74 821.5,-55 894.5,-55 894.5,-74"/>
<text text-anchor="middle" x="858" y="-62" font-family="Helvetica,sans-Serif" font-size="10.00">CoreMath.h</text>
</a>
</g>
</g>
<!-- Node5&#45;&gt;Node7 -->
<g id="edge6_Node000005_Node000007" class="edge">
<title>Node5&#45;&gt;Node7</title>
<g id="a_edge6_Node000005_Node000007"><a xlink:title=" ">
<path fill="none" stroke="#63b8ff" d="M690.12,-292.87C758.8,-289.59 864.94,-279.71 890,-250 911.07,-225.02 879.31,-125.49 864.71,-83.91"/>
<polygon fill="#63b8ff" stroke="#63b8ff" points="867.91,-82.48 861.25,-74.24 861.32,-84.84 867.91,-82.48"/>
</a>
</g>
</g>
<!-- Node8 -->
<g id="Node000008" class="node">
<title>Node8</title>
<g id="a_Node000008"><a xlink:href="defines_8h.html" target="_top" xlink:title=" ">
<polygon fill="white" stroke="#666666" points="802.5,-250 741.5,-250 741.5,-231 802.5,-231 802.5,-250"/>
<text text-anchor="middle" x="772" y="-238" font-family="Helvetica,sans-Serif" font-size="10.00">defines.h</text>
</a>
</g>
</g>
<!-- Node5&#45;&gt;Node8 -->
<g id="edge8_Node000005_Node000008" class="edge">
<title>Node5&#45;&gt;Node8</title>
<g id="a_edge8_Node000005_Node000008"><a xlink:title=" ">
<path fill="none" stroke="#63b8ff" d="M652.81,-285.98C676.17,-277.27 712.7,-263.63 739.17,-253.75"/>
<polygon fill="#63b8ff" stroke="#63b8ff" points="740.63,-256.95 748.77,-250.17 738.18,-250.39 740.63,-256.95"/>
</a>
</g>
</g>
<!-- Node5&#45;&gt;Node9 -->
<g id="edge9_Node000005_Node000009" class="edge">
<title>Node5&#45;&gt;Node9</title>
<g id="a_edge9_Node000005_Node000009"><a xlink:title=" ">
<path fill="none" stroke="#63b8ff" d="M613.26,-285.89C594.05,-274.73 566.37,-253.95 576,-231 585.27,-208.93 636.47,-164.35 664.55,-141.02"/>
<polygon fill="#63b8ff" stroke="#63b8ff" points="666.96,-143.57 672.46,-134.51 662.51,-138.17 666.96,-143.57"/>
</a>
</g>
</g>
<!-- Node10 -->
<g id="Node000010" class="node">
<title>Node10</title>
<g id="a_Node000010"><a xlink:href="common__structs_8h.html" target="_top" xlink:title=" ">
<polygon fill="white" stroke="#666666" points="373.5,-74 266.5,-74 266.5,-55 373.5,-55 373.5,-74"/>
<text text-anchor="middle" x="320" y="-62" font-family="Helvetica,sans-Serif" font-size="10.00">common_structs.h</text>
</a>
</g>
</g>
<!-- Node5&#45;&gt;Node10 -->
<g id="edge42_Node000005_Node000010" class="edge">
<title>Node5&#45;&gt;Node10</title>
<g id="a_edge42_Node000005_Node000010"><a xlink:title=" ">
<path fill="none" stroke="#63b8ff" d="M569.7,-291.78C453.28,-286.09 206.15,-271.59 174,-250 144.68,-230.31 133.91,-209.54 145,-176 156.47,-141.31 164.61,-131.7 194,-110 215.4,-94.21 242.89,-83.64 266.74,-76.78"/>
<polygon fill="#63b8ff" stroke="#63b8ff" points="267.98,-80.07 276.7,-74.06 266.14,-73.31 267.98,-80.07"/>
</a>
</g>
</g>
<!-- Node11 -->
<g id="Node000011" class="node">
<title>Node11</title>
<g id="a_Node000011"><a xlink:href="src_2data_2some__data_8h.html" target="_top" xlink:title=" ">
<polygon fill="white" stroke="#666666" points="453,-250 349,-250 349,-231 453,-231 453,-250"/>
<text text-anchor="middle" x="401" y="-238" font-family="Helvetica,sans-Serif" font-size="10.00">data/some_data.h</text>
</a>
</g>
</g>
<!-- Node5&#45;&gt;Node11 -->
<g id="edge13_Node000005_Node000011" class="edge">
<title>Node5&#45;&gt;Node11</title>
<g id="a_edge13_Node000005_Node000011"><a xlink:title=" ">
<path fill="none" stroke="#63b8ff" d="M593.21,-285.98C553.76,-276.86 491.02,-262.33 448.02,-252.38"/>
<polygon fill="#63b8ff" stroke="#63b8ff" points="448.61,-248.93 438.08,-250.08 447.03,-255.75 448.61,-248.93"/>
</a>
</g>
</g>
<!-- Node17 -->
<g id="Node000017" class="node">
<title>Node17</title>
<g id="a_Node000017"><a xlink:href="bomb__kart_8h.html" target="_top" xlink:title=" ">
<polygon fill="white" stroke="#666666" points="519.5,-195 442.5,-195 442.5,-176 519.5,-176 519.5,-195"/>
<text text-anchor="middle" x="481" y="-183" font-family="Helvetica,sans-Serif" font-size="10.00">bomb_kart.h</text>
</a>
</g>
</g>
<!-- Node5&#45;&gt;Node17 -->
<g id="edge23_Node000005_Node000017" class="edge">
<title>Node5&#45;&gt;Node17</title>
<g id="a_edge23_Node000005_Node000017"><a xlink:title=" ">
<path fill="none" stroke="#63b8ff" d="M608.51,-285.85C590.19,-277.95 563.62,-265.2 543,-250 524.31,-236.22 506.13,-216.66 494.35,-202.9"/>
<polygon fill="#63b8ff" stroke="#63b8ff" points="496.99,-200.6 487.89,-195.18 491.62,-205.09 496.99,-200.6"/>
</a>
</g>
</g>
<!-- Node21 -->
<g id="Node000021" class="node">
<title>Node21</title>
<g id="a_Node000021"><a xlink:href="path__spawn__metadata_8h.html" target="_top" xlink:title=" ">
<polygon fill="white" stroke="#666666" points="330.5,-250 193.5,-250 193.5,-231 330.5,-231 330.5,-250"/>
<text text-anchor="middle" x="262" y="-238" font-family="Helvetica,sans-Serif" font-size="10.00">path_spawn_metadata.h</text>
</a>
</g>
</g>
<!-- Node5&#45;&gt;Node21 -->
<g id="edge30_Node000005_Node000021" class="edge">
<title>Node5&#45;&gt;Node21</title>
<g id="a_edge30_Node000005_Node000021"><a xlink:title=" ">
<path fill="none" stroke="#63b8ff" d="M570.87,-285.98C505.52,-276.57 400.36,-261.43 331.22,-251.47"/>
<polygon fill="#63b8ff" stroke="#63b8ff" points="331.68,-248 321.28,-250.04 330.68,-254.93 331.68,-248"/>
</a>
</g>
</g>
<!-- Node22 -->
<g id="Node000022" class="node">
<title>Node22</title>
<g id="a_Node000022"><a xlink:href="waypoints_8h.html" target="_top" xlink:title=" ">
<polygon fill="white" stroke="#666666" points="230,-195 154,-195 154,-176 230,-176 230,-195"/>
<text text-anchor="middle" x="192" y="-183" font-family="Helvetica,sans-Serif" font-size="10.00">waypoints.h</text>
</a>
</g>
</g>
<!-- Node5&#45;&gt;Node22 -->
<g id="edge40_Node000005_Node000022" class="edge">
<title>Node5&#45;&gt;Node22</title>
<g id="a_edge40_Node000005_Node000022"><a xlink:title=" ">
<path fill="none" stroke="#63b8ff" d="M569.99,-292.9C454.28,-289.19 209.42,-278.09 184,-250 172.96,-237.8 177.37,-218.47 183.04,-204.34"/>
<polygon fill="#63b8ff" stroke="#63b8ff" points="186.27,-205.7 187.2,-195.15 179.89,-202.82 186.27,-205.7"/>
</a>
</g>
</g>
<!-- Node24 -->
<g id="Node000024" class="node">
<title>Node24</title>
<g id="a_Node000024"><a xlink:href="sounds_8h.html" target="_top" xlink:title=" ">
<polygon fill="white" stroke="#666666" points="881,-250 821,-250 821,-231 881,-231 881,-250"/>
<text text-anchor="middle" x="851" y="-238" font-family="Helvetica,sans-Serif" font-size="10.00">sounds.h</text>
</a>
</g>
</g>
<!-- Node5&#45;&gt;Node24 -->
<g id="edge41_Node000005_Node000024" class="edge">
<title>Node5&#45;&gt;Node24</title>
<g id="a_edge41_Node000005_Node000024"><a xlink:title=" ">
<path fill="none" stroke="#63b8ff" d="M665.51,-285.98C705.3,-276.44 769.65,-261.01 811.14,-251.06"/>
<polygon fill="#63b8ff" stroke="#63b8ff" points="812,-254.45 820.91,-248.72 810.37,-247.65 812,-254.45"/>
</a>
</g>
</g>
<!-- Node5&#45;&gt;Node25 -->
<g id="edge43_Node000005_Node000025" class="edge">
<title>Node5&#45;&gt;Node25</title>
<g id="a_edge43_Node000005_Node000025"><a xlink:title=" ">
<path fill="none" stroke="#63b8ff" d="M690.29,-289.93C763.92,-283.56 883.54,-270.45 923,-250 943.91,-239.17 961.74,-218.38 972.63,-203.54"/>
<polygon fill="#63b8ff" stroke="#63b8ff" points="975.59,-205.41 978.47,-195.21 969.86,-201.39 975.59,-205.41"/>
</a>
</g>
</g>
<!-- Node7&#45;&gt;Node4 -->
<g id="edge7_Node000007_Node000004" class="edge">
<title>Node7&#45;&gt;Node4</title>
<g id="a_edge7_Node000007_Node000004"><a xlink:title=" ">
<path fill="none" stroke="#63b8ff" d="M846.27,-54.98C835.27,-47 818.58,-34.88 805.4,-25.31"/>
<polygon fill="#63b8ff" stroke="#63b8ff" points="807.09,-22.21 796.94,-19.17 802.98,-27.88 807.09,-22.21"/>
</a>
</g>
</g>
<!-- Node9&#45;&gt;Node4 -->
<g id="edge10_Node000009_Node000004" class="edge">
<title>Node9&#45;&gt;Node4</title>
<g id="a_edge10_Node000009_Node000004"><a xlink:title=" ">
<path fill="none" stroke="#63b8ff" d="M690.67,-115.47C707.58,-96.65 748.31,-51.32 770.31,-26.84"/>
<polygon fill="#63b8ff" stroke="#63b8ff" points="773.16,-28.91 777.24,-19.13 767.96,-24.23 773.16,-28.91"/>
</a>
</g>
</g>
<!-- Node9&#45;&gt;Node10 -->
<g id="edge11_Node000009_Node000010" class="edge">
<title>Node9&#45;&gt;Node10</title>
<g id="a_edge11_Node000009_Node000010"><a xlink:title=" ">
<path fill="none" stroke="#63b8ff" d="M651.88,-118.34C637.35,-115.73 619.8,-112.64 604,-110 528.42,-97.38 441.35,-83.89 383.75,-75.12"/>
<polygon fill="#63b8ff" stroke="#63b8ff" points="384.12,-71.63 373.7,-73.59 383.06,-78.55 384.12,-71.63"/>
</a>
</g>
</g>
<!-- Node10&#45;&gt;Node4 -->
<g id="edge12_Node000010_Node000004" class="edge">
<title>Node10&#45;&gt;Node4</title>
<g id="a_edge12_Node000010_Node000004"><a xlink:title=" ">
<path fill="none" stroke="#63b8ff" d="M373.8,-57.37C464.52,-47.03 646.64,-26.27 734.85,-16.22"/>
<polygon fill="#63b8ff" stroke="#63b8ff" points="735.33,-19.68 744.87,-15.07 734.54,-12.73 735.33,-19.68"/>
</a>
</g>
</g>
<!-- Node12 -->
<g id="Node000012" class="node">
<title>Node12</title>
<g id="a_Node000012"><a xlink:title=" ">
<polygon fill="#e0e0e0" stroke="#999999" points="675,-74 597,-74 597,-55 675,-55 675,-74"/>
<text text-anchor="middle" x="636" y="-62" font-family="Helvetica,sans-Serif" font-size="10.00">libultra/gbi.h</text>
</a>
</g>
</g>
<!-- Node11&#45;&gt;Node12 -->
<g id="edge14_Node000011_Node000012" class="edge">
<title>Node11&#45;&gt;Node12</title>
<g id="a_edge14_Node000011_Node000012"><a xlink:title=" ">
<path fill="none" stroke="#63b8ff" d="M440.22,-230.99C486.47,-218.88 562.3,-192.09 604,-140 617.44,-123.21 626.23,-99.94 631.14,-83.89"/>
<polygon fill="#63b8ff" stroke="#63b8ff" points="634.55,-84.68 633.93,-74.1 627.82,-82.76 634.55,-84.68"/>
</a>
</g>
</g>
<!-- Node13 -->
<g id="Node000013" class="node">
<title>Node13</title>
<g id="a_Node000013"><a xlink:href="spline_8h.html" target="_top" xlink:title=" ">
<polygon fill="white" stroke="#666666" points="347.5,-134.5 292.5,-134.5 292.5,-115.5 347.5,-115.5 347.5,-134.5"/>
<text text-anchor="middle" x="320" y="-122.5" font-family="Helvetica,sans-Serif" font-size="10.00">spline.h</text>
</a>
</g>
</g>
<!-- Node11&#45;&gt;Node13 -->
<g id="edge15_Node000011_Node000013" class="edge">
<title>Node11&#45;&gt;Node13</title>
<g id="a_edge15_Node000011_Node000013"><a xlink:title=" ">
<path fill="none" stroke="#63b8ff" d="M394.91,-230.86C386.27,-218.63 369.98,-195.57 356,-176 348.18,-165.05 339.35,-152.79 332.4,-143.15"/>
<polygon fill="#63b8ff" stroke="#63b8ff" points="335.09,-140.89 326.39,-134.84 329.41,-144.99 335.09,-140.89"/>
</a>
</g>
</g>
<!-- Node14 -->
<g id="Node000014" class="node">
<title>Node14</title>
<g id="a_Node000014"><a xlink:href="other__textures_8h.html" target="_top" xlink:title=" ">
<polygon fill="white" stroke="#666666" points="486,-140 366,-140 366,-110 486,-110 486,-140"/>
<text text-anchor="start" x="374" y="-128" font-family="Helvetica,sans-Serif" font-size="10.00">assets/textures/other</text>
<text text-anchor="middle" x="426" y="-117" font-family="Helvetica,sans-Serif" font-size="10.00">_textures.h</text>
</a>
</g>
</g>
<!-- Node11&#45;&gt;Node14 -->
<g id="edge17_Node000011_Node000014" class="edge">
<title>Node11&#45;&gt;Node14</title>
<g id="a_edge17_Node000011_Node000014"><a xlink:title=" ">
<path fill="none" stroke="#63b8ff" d="M402.88,-230.97C406.62,-214.01 415.1,-175.5 420.68,-150.14"/>
<polygon fill="#63b8ff" stroke="#63b8ff" points="424.14,-150.7 422.88,-140.18 417.31,-149.19 424.14,-150.7"/>
</a>
</g>
</g>
<!-- Node16 -->
<g id="Node000016" class="node">
<title>Node16</title>
<g id="a_Node000016"><a xlink:href="objects_8h.html" target="_top" xlink:title=" ">
<polygon fill="white" stroke="#666666" points="347.5,-195 286.5,-195 286.5,-176 347.5,-176 347.5,-195"/>
<text text-anchor="middle" x="317" y="-183" font-family="Helvetica,sans-Serif" font-size="10.00">objects.h</text>
</a>
</g>
</g>
<!-- Node11&#45;&gt;Node16 -->
<g id="edge20_Node000011_Node000016" class="edge">
<title>Node11&#45;&gt;Node16</title>
<g id="a_edge20_Node000011_Node000016"><a xlink:title=" ">
<path fill="none" stroke="#63b8ff" d="M387.5,-230.98C374.6,-222.84 354.9,-210.41 339.6,-200.76"/>
<polygon fill="#63b8ff" stroke="#63b8ff" points="341.07,-197.55 330.74,-195.17 337.33,-203.47 341.07,-197.55"/>
</a>
</g>
</g>
<!-- Node13&#45;&gt;Node10 -->
<g id="edge16_Node000013_Node000010" class="edge">
<title>Node13&#45;&gt;Node10</title>
<g id="a_edge16_Node000013_Node000010"><a xlink:title=" ">
<path fill="none" stroke="#63b8ff" d="M320,-115.37C320,-107.25 320,-94.81 320,-84.39"/>
<polygon fill="#63b8ff" stroke="#63b8ff" points="323.5,-84.17 320,-74.17 316.5,-84.17 323.5,-84.17"/>
</a>
</g>
</g>
<!-- Node14&#45;&gt;Node4 -->
<g id="edge18_Node000014_Node000004" class="edge">
<title>Node14&#45;&gt;Node4</title>
<g id="a_edge18_Node000014_Node000004"><a xlink:title=" ">
<path fill="none" stroke="#63b8ff" d="M432.38,-109.98C440.51,-93.85 456.19,-67.91 478,-55 520.38,-29.91 658.91,-17.96 734.56,-13.18"/>
<polygon fill="#63b8ff" stroke="#63b8ff" points="735.04,-16.65 744.81,-12.55 734.61,-9.67 735.04,-16.65"/>
</a>
</g>
</g>
<!-- Node15 -->
<g id="Node000015" class="node">
<title>Node15</title>
<g id="a_Node000015"><a xlink:href="align__asset__macro_8h.html" target="_top" xlink:title=" ">
<polygon fill="white" stroke="#666666" points="238.5,-74 121.5,-74 121.5,-55 238.5,-55 238.5,-74"/>
<text text-anchor="middle" x="180" y="-62" font-family="Helvetica,sans-Serif" font-size="10.00">align_asset_macro.h</text>
</a>
</g>
</g>
<!-- Node14&#45;&gt;Node15 -->
<g id="edge19_Node000014_Node000015" class="edge">
<title>Node14&#45;&gt;Node15</title>
<g id="a_edge19_Node000014_Node000015"><a xlink:title=" ">
<path fill="none" stroke="#63b8ff" d="M367.08,-109.99C323.8,-99.7 265.83,-85.91 225.95,-76.43"/>
<polygon fill="#63b8ff" stroke="#63b8ff" points="226.51,-72.96 215.97,-74.05 224.89,-79.77 226.51,-72.96"/>
</a>
</g>
</g>
<!-- Node16&#45;&gt;Node10 -->
<g id="edge22_Node000016_Node000010" class="edge">
<title>Node16&#45;&gt;Node10</title>
<g id="a_edge22_Node000016_Node000010"><a xlink:title=" ">
<path fill="none" stroke="#63b8ff" d="M307.39,-175.69C299.13,-167.41 287.8,-154.18 283,-140 278.73,-127.37 278.47,-122.54 283,-110 286.94,-99.09 294.86,-88.96 302.36,-81.14"/>
<polygon fill="#63b8ff" stroke="#63b8ff" points="304.84,-83.61 309.56,-74.13 299.95,-78.6 304.84,-83.61"/>
</a>
</g>
</g>
<!-- Node16&#45;&gt;Node13 -->
<g id="edge21_Node000016_Node000013" class="edge">
<title>Node16&#45;&gt;Node13</title>
<g id="a_edge21_Node000016_Node000013"><a xlink:title=" ">
<path fill="none" stroke="#63b8ff" d="M317.44,-175.87C317.86,-167.75 318.5,-155.31 319.03,-144.89"/>
<polygon fill="#63b8ff" stroke="#63b8ff" points="322.54,-144.83 319.56,-134.67 315.55,-144.47 322.54,-144.83"/>
</a>
</g>
</g>
<!-- Node17&#45;&gt;Node10 -->
<g id="edge24_Node000017_Node000010" class="edge">
<title>Node17&#45;&gt;Node10</title>
<g id="a_edge24_Node000017_Node000010"><a xlink:title=" ">
<path fill="none" stroke="#63b8ff" d="M486.65,-175.66C495.52,-160.55 510.19,-129.53 495,-110 481.21,-92.26 428,-80.44 383.84,-73.46"/>
<polygon fill="#63b8ff" stroke="#63b8ff" points="384.12,-69.97 373.71,-71.92 383.06,-76.89 384.12,-69.97"/>
</a>
</g>
</g>
<!-- Node18 -->
<g id="Node000018" class="node">
<title>Node18</title>
<g id="a_Node000018"><a xlink:href="mk64_8h.html" target="_top" xlink:title=" ">
<polygon fill="white" stroke="#666666" points="595.5,-134.5 542.5,-134.5 542.5,-115.5 595.5,-115.5 595.5,-134.5"/>
<text text-anchor="middle" x="569" y="-122.5" font-family="Helvetica,sans-Serif" font-size="10.00">mk64.h</text>
</a>
</g>
</g>
<!-- Node17&#45;&gt;Node18 -->
<g id="edge25_Node000017_Node000018" class="edge">
<title>Node17&#45;&gt;Node18</title>
<g id="a_edge25_Node000017_Node000018"><a xlink:title=" ">
<path fill="none" stroke="#63b8ff" d="M493.98,-175.87C508.02,-166.54 530.63,-151.51 547.36,-140.38"/>
<polygon fill="#63b8ff" stroke="#63b8ff" points="549.57,-143.12 555.96,-134.67 545.7,-137.29 549.57,-143.12"/>
</a>
</g>
</g>
<!-- Node18&#45;&gt;Node4 -->
<g id="edge26_Node000018_Node000004" class="edge">
<title>Node18&#45;&gt;Node4</title>
<g id="a_edge26_Node000018_Node000004"><a xlink:title=" ">
<path fill="none" stroke="#63b8ff" d="M568.73,-115.4C568.78,-100.78 571.1,-71.13 588,-55 608.76,-35.18 683.54,-22.51 734.76,-15.95"/>
<polygon fill="#63b8ff" stroke="#63b8ff" points="735.49,-19.39 744.98,-14.68 734.62,-12.44 735.49,-19.39"/>
</a>
</g>
</g>
<!-- Node18&#45;&gt;Node12 -->
<g id="edge29_Node000018_Node000012" class="edge">
<title>Node18&#45;&gt;Node12</title>
<g id="a_edge29_Node000018_Node000012"><a xlink:title=" ">
<path fill="none" stroke="#63b8ff" d="M578.89,-115.37C589.28,-106.3 605.84,-91.84 618.45,-80.82"/>
<polygon fill="#63b8ff" stroke="#63b8ff" points="620.84,-83.38 626.07,-74.17 616.24,-78.11 620.84,-83.38"/>
</a>
</g>
</g>
<!-- Node19 -->
<g id="Node000019" class="node">
<title>Node19</title>
<g id="a_Node000019"><a xlink:href="string_8h.html" target="_top" xlink:title=" ">
<polygon fill="white" stroke="#666666" points="540.5,-74 487.5,-74 487.5,-55 540.5,-55 540.5,-74"/>
<text text-anchor="middle" x="514" y="-62" font-family="Helvetica,sans-Serif" font-size="10.00">string.h</text>
</a>
</g>
</g>
<!-- Node18&#45;&gt;Node19 -->
<g id="edge27_Node000018_Node000019" class="edge">
<title>Node18&#45;&gt;Node19</title>
<g id="a_edge27_Node000018_Node000019"><a xlink:title=" ">
<path fill="none" stroke="#63b8ff" d="M560.88,-115.37C552.6,-106.55 539.53,-92.66 529.3,-81.77"/>
<polygon fill="#63b8ff" stroke="#63b8ff" points="531.55,-79.06 522.15,-74.17 526.45,-83.85 531.55,-79.06"/>
</a>
</g>
</g>
<!-- Node20 -->
<g id="Node000020" class="node">
<title>Node20</title>
<g id="a_Node000020"><a xlink:title=" ">
<polygon fill="#e0e0e0" stroke="#999999" points="559,-19 469,-19 469,0 559,0 559,-19"/>
<text text-anchor="middle" x="514" y="-7" font-family="Helvetica,sans-Serif" font-size="10.00">libultra/types.h</text>
</a>
</g>
</g>
<!-- Node19&#45;&gt;Node20 -->
<g id="edge28_Node000019_Node000020" class="edge">
<title>Node19&#45;&gt;Node20</title>
<g id="a_edge28_Node000019_Node000020"><a xlink:title=" ">
<path fill="none" stroke="#63b8ff" d="M514,-54.75C514,-47.8 514,-37.85 514,-29.13"/>
<polygon fill="#63b8ff" stroke="#63b8ff" points="517.5,-29.09 514,-19.09 510.5,-29.09 517.5,-29.09"/>
</a>
</g>
</g>
<!-- Node21&#45;&gt;Node10 -->
<g id="edge33_Node000021_Node000010" class="edge">
<title>Node21&#45;&gt;Node10</title>
<g id="a_edge33_Node000021_Node000010"><a xlink:title=" ">
<path fill="none" stroke="#63b8ff" d="M261.05,-230.8C259.06,-209.16 256.2,-151.66 276,-110 281.43,-98.58 291.01,-88.35 299.86,-80.58"/>
<polygon fill="#63b8ff" stroke="#63b8ff" points="302.13,-83.24 307.63,-74.18 297.68,-77.84 302.13,-83.24"/>
</a>
</g>
</g>
<!-- Node21&#45;&gt;Node17 -->
<g id="edge39_Node000021_Node000017" class="edge">
<title>Node21&#45;&gt;Node17</title>
<g id="a_edge39_Node000021_Node000017"><a xlink:title=" ">
<path fill="none" stroke="#63b8ff" d="M297.19,-230.98C334.83,-221.87 394.66,-207.4 435.77,-197.45"/>
<polygon fill="#63b8ff" stroke="#63b8ff" points="436.64,-200.84 445.54,-195.08 435,-194.03 436.64,-200.84"/>
</a>
</g>
</g>
<!-- Node21&#45;&gt;Node22 -->
<g id="edge31_Node000021_Node000022" class="edge">
<title>Node21&#45;&gt;Node22</title>
<g id="a_edge31_Node000021_Node000022"><a xlink:title=" ">
<path fill="none" stroke="#63b8ff" d="M250.75,-230.98C240.2,-223 224.2,-210.88 211.56,-201.31"/>
<polygon fill="#63b8ff" stroke="#63b8ff" points="213.54,-198.42 203.45,-195.17 209.31,-204 213.54,-198.42"/>
</a>
</g>
</g>
<!-- Node23 -->
<g id="Node000023" class="node">
<title>Node23</title>
<g id="a_Node000023"><a xlink:href="other_2common__data_8h.html" target="_top" xlink:title=" ">
<polygon fill="white" stroke="#666666" points="122,-140 0,-140 0,-110 122,-110 122,-140"/>
<text text-anchor="start" x="8" y="-128" font-family="Helvetica,sans-Serif" font-size="10.00">assets/other/common</text>
<text text-anchor="middle" x="61" y="-117" font-family="Helvetica,sans-Serif" font-size="10.00">_data.h</text>
</a>
</g>
</g>
<!-- Node21&#45;&gt;Node23 -->
<g id="edge34_Node000021_Node000023" class="edge">
<title>Node21&#45;&gt;Node23</title>
<g id="a_edge34_Node000021_Node000023"><a xlink:title=" ">
<path fill="none" stroke="#63b8ff" d="M231.46,-230.88C207.11,-223.32 172.63,-211.03 145,-195 121.85,-181.57 98.57,-161.85 82.41,-146.93"/>
<polygon fill="#63b8ff" stroke="#63b8ff" points="84.77,-144.34 75.09,-140.04 79.97,-149.44 84.77,-144.34"/>
</a>
</g>
</g>
<!-- Node22&#45;&gt;Node10 -->
<g id="edge32_Node000022_Node000010" class="edge">
<title>Node22&#45;&gt;Node10</title>
<g id="a_edge32_Node000022_Node000010"><a xlink:title=" ">
<path fill="none" stroke="#63b8ff" d="M191.97,-175.53C192.38,-160.22 195.38,-128.91 212,-110 225.97,-94.1 246.5,-83.77 265.92,-77.11"/>
<polygon fill="#63b8ff" stroke="#63b8ff" points="267.15,-80.39 275.63,-74.04 265.04,-73.72 267.15,-80.39"/>
</a>
</g>
</g>
<!-- Node23&#45;&gt;Node4 -->
<g id="edge36_Node000023_Node000004" class="edge">
<title>Node23&#45;&gt;Node4</title>
<g id="a_edge36_Node000023_Node000004"><a xlink:title=" ">
<path fill="none" stroke="#63b8ff" d="M66.88,-109.98C74.58,-93.59 89.78,-67.14 112,-55 139.22,-40.13 582.54,-19.38 734.42,-12.68"/>
<polygon fill="#63b8ff" stroke="#63b8ff" points="735,-16.16 744.84,-12.22 734.7,-9.17 735,-16.16"/>
</a>
</g>
</g>
<!-- Node23&#45;&gt;Node10 -->
<g id="edge37_Node000023_Node000010" class="edge">
<title>Node23&#45;&gt;Node10</title>
<g id="a_edge37_Node000023_Node000010"><a xlink:title=" ">
<path fill="none" stroke="#63b8ff" d="M122.05,-110.21C168.02,-99.83 230.13,-85.8 272.44,-76.24"/>
<polygon fill="#63b8ff" stroke="#63b8ff" points="273.23,-79.65 282.22,-74.03 271.69,-72.82 273.23,-79.65"/>
</a>
</g>
</g>
<!-- Node23&#45;&gt;Node12 -->
<g id="edge35_Node000023_Node000012" class="edge">
<title>Node23&#45;&gt;Node12</title>
<g id="a_edge35_Node000023_Node000012"><a xlink:title=" ">
<path fill="none" stroke="#63b8ff" d="M122.26,-117.77C236.94,-106.1 481.88,-81.18 586.72,-70.51"/>
<polygon fill="#63b8ff" stroke="#63b8ff" points="587.13,-73.99 596.72,-69.5 586.42,-67.03 587.13,-73.99"/>
</a>
</g>
</g>
<!-- Node23&#45;&gt;Node15 -->
<g id="edge38_Node000023_Node000015" class="edge">
<title>Node23&#45;&gt;Node15</title>
<g id="a_edge38_Node000023_Node000015"><a xlink:title=" ">
<path fill="none" stroke="#63b8ff" d="M89.5,-109.99C108.91,-100.45 134.43,-87.9 153.42,-78.57"/>
<polygon fill="#63b8ff" stroke="#63b8ff" points="155,-81.69 162.43,-74.14 151.91,-75.41 155,-81.69"/>
</a>
</g>
</g>
<!-- Node25&#45;&gt;Node4 -->
<g id="edge47_Node000025_Node000004" class="edge">
<title>Node25&#45;&gt;Node4</title>
<g id="a_edge47_Node000025_Node000004"><a xlink:title=" ">
<path fill="none" stroke="#63b8ff" d="M980.9,-175.91C972.22,-152.99 945.47,-89.78 903,-55 883.45,-38.99 857.54,-28.37 834.98,-21.53"/>
<polygon fill="#63b8ff" stroke="#63b8ff" points="835.8,-18.13 825.22,-18.74 833.87,-24.86 835.8,-18.13"/>
</a>
</g>
</g>
<!-- Node25&#45;&gt;Node7 -->
<g id="edge54_Node000025_Node000007" class="edge">
<title>Node25&#45;&gt;Node7</title>
<g id="a_edge54_Node000025_Node000007"><a xlink:title=" ">
<path fill="none" stroke="#63b8ff" d="M972.01,-175.77C960.38,-167.12 942.44,-153.29 928,-140 907.51,-121.14 885.83,-97.4 872.13,-81.86"/>
<polygon fill="#63b8ff" stroke="#63b8ff" points="874.61,-79.38 865.39,-74.15 869.34,-83.98 874.61,-79.38"/>
</a>
</g>
</g>
<!-- Node25&#45;&gt;Node9 -->
<g id="edge53_Node000025_Node000009" class="edge">
<title>Node25&#45;&gt;Node9</title>
<g id="a_edge53_Node000025_Node000009"><a xlink:title=" ">
<path fill="none" stroke="#63b8ff" d="M932.45,-178.31C879.41,-171.34 794.65,-158.51 723,-140 720.35,-139.32 717.63,-138.54 714.91,-137.7"/>
<polygon fill="#63b8ff" stroke="#63b8ff" points="715.81,-134.31 705.22,-134.52 713.63,-140.96 715.81,-134.31"/>
</a>
</g>
</g>
<!-- Node26 -->
<g id="Node000026" class="node">
<title>Node26</title>
<g id="a_Node000026"><a xlink:href="macros_8h.html" target="_top" xlink:title=" ">
<polygon fill="white" stroke="#666666" points="1182,-74 1120,-74 1120,-55 1182,-55 1182,-74"/>
<text text-anchor="middle" x="1151" y="-62" font-family="Helvetica,sans-Serif" font-size="10.00">macros.h</text>
</a>
</g>
</g>
<!-- Node25&#45;&gt;Node26 -->
<g id="edge44_Node000025_Node000026" class="edge">
<title>Node25&#45;&gt;Node26</title>
<g id="a_edge44_Node000025_Node000026"><a xlink:title=" ">
<path fill="none" stroke="#63b8ff" d="M1035.68,-177.91C1063.28,-172.03 1096.17,-160.92 1119,-140 1135.02,-125.32 1143.36,-101.25 1147.45,-84.46"/>
<polygon fill="#63b8ff" stroke="#63b8ff" points="1150.98,-84.71 1149.65,-74.2 1144.13,-83.24 1150.98,-84.71"/>
</a>
</g>
</g>
<!-- Node25&#45;&gt;Node28 -->
<g id="edge48_Node000025_Node000028" class="edge">
<title>Node25&#45;&gt;Node28</title>
<g id="a_edge48_Node000025_Node000028"><a xlink:title=" ">
<path fill="none" stroke="#63b8ff" d="M996.39,-175.87C1009.79,-166.54 1031.38,-151.51 1047.35,-140.38"/>
<polygon fill="#63b8ff" stroke="#63b8ff" points="1049.35,-143.25 1055.55,-134.67 1045.35,-137.51 1049.35,-143.25"/>
</a>
</g>
</g>
<!-- Node26&#45;&gt;Node4 -->
<g id="edge46_Node000026_Node000004" class="edge">
<title>Node26&#45;&gt;Node4</title>
<g id="a_edge46_Node000026_Node000004"><a xlink:title=" ">
<path fill="none" stroke="#63b8ff" d="M1119.6,-56.6C1116.7,-56.03 1113.8,-55.49 1111,-55 1013.85,-38.07 899.47,-23.74 835.29,-16.2"/>
<polygon fill="#63b8ff" stroke="#63b8ff" points="835.38,-12.68 825.04,-15 834.57,-19.64 835.38,-12.68"/>
</a>
</g>
</g>
<!-- Node27 -->
<g id="Node000027" class="node">
<title>Node27</title>
<g id="a_Node000027"><a xlink:href="math_8h.html" target="_top" xlink:title=" ">
<polygon fill="white" stroke="#666666" points="1176.5,-19 1125.5,-19 1125.5,0 1176.5,0 1176.5,-19"/>
<text text-anchor="middle" x="1151" y="-7" font-family="Helvetica,sans-Serif" font-size="10.00">math.h</text>
</a>
</g>
</g>
<!-- Node26&#45;&gt;Node27 -->
<g id="edge45_Node000026_Node000027" class="edge">
<title>Node26&#45;&gt;Node27</title>
<g id="a_edge45_Node000026_Node000027"><a xlink:title=" ">
<path fill="none" stroke="#63b8ff" d="M1151,-54.75C1151,-47.8 1151,-37.85 1151,-29.13"/>
<polygon fill="#63b8ff" stroke="#63b8ff" points="1154.5,-29.09 1151,-19.09 1147.5,-29.09 1154.5,-29.09"/>
</a>
</g>
</g>
<!-- Node28&#45;&gt;Node4 -->
<g id="edge49_Node000028_Node000004" class="edge">
<title>Node28&#45;&gt;Node4</title>
<g id="a_edge49_Node000028_Node000004"><a xlink:title=" ">
<path fill="none" stroke="#63b8ff" d="M1061.31,-115.21C1049.47,-100.32 1023.29,-70.25 994,-55 943.89,-28.9 879.44,-18.11 835.44,-13.64"/>
<polygon fill="#63b8ff" stroke="#63b8ff" points="835.55,-10.14 825.27,-12.69 834.9,-17.11 835.55,-10.14"/>
</a>
</g>
</g>
<!-- Node28&#45;&gt;Node10 -->
<g id="edge51_Node000028_Node000010" class="edge">
<title>Node28&#45;&gt;Node10</title>
<g id="a_edge51_Node000028_Node000010"><a xlink:title=" ">
<path fill="none" stroke="#63b8ff" d="M1026.45,-120.75C902.27,-111.04 533.3,-82.18 383.88,-70.5"/>
<polygon fill="#63b8ff" stroke="#63b8ff" points="383.75,-66.98 373.51,-69.69 383.21,-73.95 383.75,-66.98"/>
</a>
</g>
</g>
<!-- Node28&#45;&gt;Node26 -->
<g id="edge50_Node000028_Node000026" class="edge">
<title>Node28&#45;&gt;Node26</title>
<g id="a_edge50_Node000028_Node000026"><a xlink:title=" ">
<path fill="none" stroke="#63b8ff" d="M1080.25,-115.37C1093.36,-106.12 1114.42,-91.28 1130.15,-80.19"/>
<polygon fill="#63b8ff" stroke="#63b8ff" points="1132.55,-82.79 1138.7,-74.17 1128.51,-77.07 1132.55,-82.79"/>
</a>
</g>
</g>
<!-- Node29 -->
<g id="Node000029" class="node">
<title>Node29</title>
<g id="a_Node000029"><a xlink:title=" ">
<polygon fill="#e0e0e0" stroke="#999999" points="1102,-74 1046,-74 1046,-55 1102,-55 1102,-74"/>
<text text-anchor="middle" x="1074" y="-62" font-family="Helvetica,sans-Serif" font-size="10.00">assert.h</text>
</a>
</g>
</g>
<!-- Node28&#45;&gt;Node29 -->
<g id="edge52_Node000028_Node000029" class="edge">
<title>Node28&#45;&gt;Node29</title>
<g id="a_edge52_Node000028_Node000029"><a xlink:title=" ">
<path fill="none" stroke="#63b8ff" d="M1068.89,-115.37C1069.72,-107.25 1070.99,-94.81 1072.06,-84.39"/>
<polygon fill="#63b8ff" stroke="#63b8ff" points="1075.57,-84.47 1073.11,-74.17 1068.61,-83.76 1075.57,-84.47"/>
</a>
</g>
</g>
<!-- Node30&#45;&gt;Node4 -->
<g id="edge56_Node000030_Node000004" class="edge">
<title>Node30&#45;&gt;Node4</title>
<g id="a_edge56_Node000030_Node000004"><a xlink:title=" ">
<path fill="none" stroke="#63b8ff" d="M785,-115.47C785,-97.23 785,-54.07 785,-29.14"/>
<polygon fill="#63b8ff" stroke="#63b8ff" points="788.5,-29.13 785,-19.13 781.5,-29.13 788.5,-29.13"/>
</a>
</g>
</g>
<!-- Node30&#45;&gt;Node7 -->
<g id="edge58_Node000030_Node000007" class="edge">
<title>Node30&#45;&gt;Node7</title>
<g id="a_edge58_Node000030_Node000007"><a xlink:title=" ">
<path fill="none" stroke="#63b8ff" d="M795.77,-115.37C807.2,-106.21 825.48,-91.56 839.28,-80.51"/>
<polygon fill="#63b8ff" stroke="#63b8ff" points="841.57,-83.15 847.18,-74.17 837.19,-77.69 841.57,-83.15"/>
</a>
</g>
</g>
<!-- Node30&#45;&gt;Node10 -->
<g id="edge59_Node000030_Node000010" class="edge">
<title>Node30&#45;&gt;Node10</title>
<g id="a_edge59_Node000030_Node000010"><a xlink:title=" ">
<path fill="none" stroke="#63b8ff" d="M750.38,-115.46C741.49,-113.47 731.92,-111.5 723,-110 604.07,-90.07 463.85,-76.89 384.09,-70.35"/>
<polygon fill="#63b8ff" stroke="#63b8ff" points="383.97,-66.82 373.72,-69.5 383.4,-73.8 383.97,-66.82"/>
</a>
</g>
</g>
<!-- Node30&#45;&gt;Node12 -->
<g id="edge57_Node000030_Node000012" class="edge">
<title>Node30&#45;&gt;Node12</title>
<g id="a_edge57_Node000030_Node000012"><a xlink:title=" ">
<path fill="none" stroke="#63b8ff" d="M763.33,-115.49C738.06,-105.57 696.09,-89.09 667.28,-77.78"/>
<polygon fill="#63b8ff" stroke="#63b8ff" points="668.28,-74.41 657.69,-74.02 665.72,-80.93 668.28,-74.41"/>
</a>
</g>
</g>
</g>
</svg>
