<?xml version="1.0" encoding="UTF-8" standalone="no"?>
<!DOCTYPE svg PUBLIC "-//W3C//DTD SVG 1.1//EN"
 "http://www.w3.org/Graphics/SVG/1.1/DTD/svg11.dtd">
<!-- Generated by graphviz version 2.43.0 (0)
 -->
<!-- Title: src/engine/tracks/DKJungle.h Pages: 1 -->
<svg width="1837pt" height="379pt"
 viewBox="0.00 0.00 1836.82 379.00" xmlns="http://www.w3.org/2000/svg" xmlns:xlink="http://www.w3.org/1999/xlink">
<g id="graph0" class="graph" transform="scale(1 1) rotate(0) translate(4 375)">
<title>src/engine/tracks/DKJungle.h</title>
<!-- Node1 -->
<g id="Node000001" class="node">
<title>Node1</title>
<g id="a_Node000001"><a xlink:title=" ">
<polygon fill="#999999" stroke="#666666" points="1012.82,-371 856.82,-371 856.82,-352 1012.82,-352 1012.82,-371"/>
<text text-anchor="middle" x="934.82" y="-359" font-family="Helvetica,sans-Serif" font-size="10.00">src/engine/tracks/DKJungle.h</text>
</a>
</g>
</g>
<!-- Node2 -->
<g id="Node000002" class="node">
<title>Node2</title>
<g id="a_Node000002"><a xlink:title=" ">
<polygon fill="#e0e0e0" stroke="#999999" points="753.82,-19 673.82,-19 673.82,0 753.82,0 753.82,-19"/>
<text text-anchor="middle" x="713.82" y="-7" font-family="Helvetica,sans-Serif" font-size="10.00">libultraship.h</text>
</a>
</g>
</g>
<!-- Node1&#45;&gt;Node2 -->
<g id="edge1_Node000001_Node000002" class="edge">
<title>Node1&#45;&gt;Node2</title>
<g id="a_edge1_Node000001_Node000002"><a xlink:title=" ">
<path fill="none" stroke="#63b8ff" d="M856.48,-359.6C631.9,-356 1.82,-338.26 1.82,-252.5 1.82,-252.5 1.82,-252.5 1.82,-129.5 1.82,-95.33 -5.47,-76.82 20.82,-55 69.92,-14.26 511.6,-10.47 663.1,-10.38"/>
<polygon fill="#63b8ff" stroke="#63b8ff" points="663.49,-13.88 673.49,-10.38 663.49,-6.88 663.49,-13.88"/>
</a>
</g>
</g>
<!-- Node3 -->
<g id="Node000003" class="node">
<title>Node3</title>
<g id="a_Node000003"><a xlink:href="Track_8h.html" target="_top" xlink:title=" ">
<polygon fill="white" stroke="#666666" points="598.32,-316 547.32,-316 547.32,-297 598.32,-297 598.32,-316"/>
<text text-anchor="middle" x="572.82" y="-304" font-family="Helvetica,sans-Serif" font-size="10.00">Track.h</text>
</a>
</g>
</g>
<!-- Node1&#45;&gt;Node3 -->
<g id="edge2_Node000001_Node000003" class="edge">
<title>Node1&#45;&gt;Node3</title>
<g id="a_edge2_Node000001_Node000003"><a xlink:title=" ">
<path fill="none" stroke="#63b8ff" d="M876.66,-351.98C801.09,-340.92 671.42,-321.94 608.78,-312.76"/>
<polygon fill="#63b8ff" stroke="#63b8ff" points="609.01,-309.26 598.6,-311.27 607.99,-316.19 609.01,-309.26"/>
</a>
</g>
</g>
<!-- Node7 -->
<g id="Node000007" class="node">
<title>Node7</title>
<g id="a_Node000007"><a xlink:href="camera_8h.html" target="_top" xlink:title=" ">
<polygon fill="white" stroke="#666666" points="563.82,-140 501.82,-140 501.82,-121 563.82,-121 563.82,-140"/>
<text text-anchor="middle" x="532.82" y="-128" font-family="Helvetica,sans-Serif" font-size="10.00">camera.h</text>
</a>
</g>
</g>
<!-- Node1&#45;&gt;Node7 -->
<g id="edge72_Node000001_Node000007" class="edge">
<title>Node1&#45;&gt;Node7</title>
<g id="a_edge72_Node000001_Node000007"><a xlink:title=" ">
<path fill="none" stroke="#63b8ff" d="M948.23,-351.77C977.62,-331.58 1042.69,-280.46 1011.82,-242 895.01,-96.42 782.82,-196.62 601.82,-151 591.87,-148.49 581.16,-145.57 571.22,-142.77"/>
<polygon fill="#63b8ff" stroke="#63b8ff" points="572.17,-139.4 561.6,-140.03 570.26,-146.13 572.17,-139.4"/>
</a>
</g>
</g>
<!-- Node9 -->
<g id="Node000009" class="node">
<title>Node9</title>
<g id="a_Node000009"><a xlink:href="src_2data_2some__data_8h.html" target="_top" xlink:title=" ">
<polygon fill="white" stroke="#666666" points="419.82,-261 315.82,-261 315.82,-242 419.82,-242 419.82,-261"/>
<text text-anchor="middle" x="367.82" y="-249" font-family="Helvetica,sans-Serif" font-size="10.00">data/some_data.h</text>
</a>
</g>
</g>
<!-- Node1&#45;&gt;Node9 -->
<g id="edge73_Node000001_Node000009" class="edge">
<title>Node1&#45;&gt;Node9</title>
<g id="a_edge73_Node000001_Node000009"><a xlink:title=" ">
<path fill="none" stroke="#63b8ff" d="M856.63,-357.41C775.85,-352.9 646.6,-341.99 537.82,-316 486.17,-303.66 428.84,-280.04 395.7,-265.34"/>
<polygon fill="#63b8ff" stroke="#63b8ff" points="396.78,-261.99 386.22,-261.09 393.91,-268.38 396.78,-261.99"/>
</a>
</g>
</g>
<!-- Node14 -->
<g id="Node000014" class="node">
<title>Node14</title>
<g id="a_Node000014"><a xlink:href="objects_8h.html" target="_top" xlink:title=" ">
<polygon fill="white" stroke="#666666" points="303.32,-206 242.32,-206 242.32,-187 303.32,-187 303.32,-206"/>
<text text-anchor="middle" x="272.82" y="-194" font-family="Helvetica,sans-Serif" font-size="10.00">objects.h</text>
</a>
</g>
</g>
<!-- Node1&#45;&gt;Node14 -->
<g id="edge74_Node000001_Node000014" class="edge">
<title>Node1&#45;&gt;Node14</title>
<g id="a_edge74_Node000001_Node000014"><a xlink:title=" ">
<path fill="none" stroke="#63b8ff" d="M856.6,-358.36C763.88,-354.59 605.13,-344.24 471.82,-316 396.2,-299.98 365.92,-310.83 306.82,-261 292.81,-249.18 283.69,-230.07 278.46,-215.9"/>
<polygon fill="#63b8ff" stroke="#63b8ff" points="281.71,-214.58 275.21,-206.22 275.08,-216.82 281.71,-214.58"/>
</a>
</g>
</g>
<!-- Node19 -->
<g id="Node000019" class="node">
<title>Node19</title>
<g id="a_Node000019"><a xlink:href="path__spawn__metadata_8h.html" target="_top" xlink:title=" ">
<polygon fill="white" stroke="#666666" points="1003.32,-261 866.32,-261 866.32,-242 1003.32,-242 1003.32,-261"/>
<text text-anchor="middle" x="934.82" y="-249" font-family="Helvetica,sans-Serif" font-size="10.00">path_spawn_metadata.h</text>
</a>
</g>
</g>
<!-- Node1&#45;&gt;Node19 -->
<g id="edge75_Node000001_Node000019" class="edge">
<title>Node1&#45;&gt;Node19</title>
<g id="a_edge75_Node000001_Node000019"><a xlink:title=" ">
<path fill="none" stroke="#63b8ff" d="M934.82,-351.66C934.82,-334.17 934.82,-294.8 934.82,-271.27"/>
<polygon fill="#63b8ff" stroke="#63b8ff" points="938.32,-271.16 934.82,-261.16 931.32,-271.16 938.32,-271.16"/>
</a>
</g>
</g>
<!-- Node23 -->
<g id="Node000023" class="node">
<title>Node23</title>
<g id="a_Node000023"><a xlink:href="code__800029B0_8h.html" target="_top" xlink:title=" ">
<polygon fill="white" stroke="#666666" points="185.32,-206 82.32,-206 82.32,-187 185.32,-187 185.32,-206"/>
<text text-anchor="middle" x="133.82" y="-194" font-family="Helvetica,sans-Serif" font-size="10.00">code_800029B0.h</text>
</a>
</g>
</g>
<!-- Node1&#45;&gt;Node23 -->
<g id="edge76_Node000001_Node000023" class="edge">
<title>Node1&#45;&gt;Node23</title>
<g id="a_edge76_Node000001_Node000023"><a xlink:title=" ">
<path fill="none" stroke="#63b8ff" d="M856.61,-360.1C746.05,-358.24 538.2,-350.01 364.82,-316 286.07,-300.55 260.57,-304.03 192.82,-261 173.65,-248.82 156.58,-228.93 145.79,-214.65"/>
<polygon fill="#63b8ff" stroke="#63b8ff" points="148.37,-212.25 139.65,-206.22 142.71,-216.37 148.37,-212.25"/>
</a>
</g>
</g>
<!-- Node28 -->
<g id="Node000028" class="node">
<title>Node28</title>
<g id="a_Node000028"><a xlink:href="dks__jungle__parkway__vertices_8h.html" target="_top" xlink:title=" ">
<polygon fill="white" stroke="#666666" points="1181.82,-151 1029.82,-151 1029.82,-110 1181.82,-110 1181.82,-151"/>
<text text-anchor="start" x="1037.82" y="-139" font-family="Helvetica,sans-Serif" font-size="10.00">assets/models/tracks</text>
<text text-anchor="start" x="1037.82" y="-128" font-family="Helvetica,sans-Serif" font-size="10.00">/dks_jungle_parkway/dks</text>
<text text-anchor="middle" x="1105.82" y="-117" font-family="Helvetica,sans-Serif" font-size="10.00">_jungle_parkway_vertices.h</text>
</a>
</g>
</g>
<!-- Node1&#45;&gt;Node28 -->
<g id="edge53_Node000001_Node000028" class="edge">
<title>Node1&#45;&gt;Node28</title>
<g id="a_edge53_Node000001_Node000028"><a xlink:title=" ">
<path fill="none" stroke="#63b8ff" d="M978.25,-351.92C1000.95,-345.46 1027.7,-334.43 1045.82,-316 1087.67,-273.46 1100.33,-201.43 1104.16,-161.11"/>
<polygon fill="#63b8ff" stroke="#63b8ff" points="1107.66,-161.36 1104.99,-151.1 1100.68,-160.78 1107.66,-161.36"/>
</a>
</g>
</g>
<!-- Node29 -->
<g id="Node000029" class="node">
<title>Node29</title>
<g id="a_Node000029"><a xlink:href="dks__jungle__parkway__displaylists_8h.html" target="_top" xlink:title=" ">
<polygon fill="white" stroke="#666666" points="1602.32,-151 1433.32,-151 1433.32,-110 1602.32,-110 1602.32,-151"/>
<text text-anchor="start" x="1441.32" y="-139" font-family="Helvetica,sans-Serif" font-size="10.00">assets/models/tracks</text>
<text text-anchor="start" x="1441.32" y="-128" font-family="Helvetica,sans-Serif" font-size="10.00">/dks_jungle_parkway/dks</text>
<text text-anchor="middle" x="1517.82" y="-117" font-family="Helvetica,sans-Serif" font-size="10.00">_jungle_parkway_displaylists.h</text>
</a>
</g>
</g>
<!-- Node1&#45;&gt;Node29 -->
<g id="edge57_Node000001_Node000029" class="edge">
<title>Node1&#45;&gt;Node29</title>
<g id="a_edge57_Node000001_Node000029"><a xlink:title=" ">
<path fill="none" stroke="#63b8ff" d="M1012.93,-359.55C1078.7,-356.43 1174.19,-346.37 1251.82,-316 1348.3,-278.25 1443.76,-199.2 1489.64,-157.91"/>
<polygon fill="#63b8ff" stroke="#63b8ff" points="1492.05,-160.45 1497.1,-151.13 1487.34,-155.27 1492.05,-160.45"/>
</a>
</g>
</g>
<!-- Node30 -->
<g id="Node000030" class="node">
<title>Node30</title>
<g id="a_Node000030"><a xlink:href="models_2tracks_2dks__jungle__parkway_2dks__jungle__parkway__data_8h.html" target="_top" xlink:title=" ">
<polygon fill="white" stroke="#666666" points="1339.82,-151 1199.82,-151 1199.82,-110 1339.82,-110 1339.82,-151"/>
<text text-anchor="start" x="1207.82" y="-139" font-family="Helvetica,sans-Serif" font-size="10.00">assets/models/tracks</text>
<text text-anchor="start" x="1207.82" y="-128" font-family="Helvetica,sans-Serif" font-size="10.00">/dks_jungle_parkway/dks</text>
<text text-anchor="middle" x="1269.82" y="-117" font-family="Helvetica,sans-Serif" font-size="10.00">_jungle_parkway_data.h</text>
</a>
</g>
</g>
<!-- Node1&#45;&gt;Node30 -->
<g id="edge61_Node000001_Node000030" class="edge">
<title>Node1&#45;&gt;Node30</title>
<g id="a_edge61_Node000001_Node000030"><a xlink:title=" ">
<path fill="none" stroke="#63b8ff" d="M974.2,-351.94C1001.68,-344.88 1038.54,-333.22 1067.82,-316 1141.75,-272.53 1211.88,-198.6 1246.8,-158.8"/>
<polygon fill="#63b8ff" stroke="#63b8ff" points="1249.59,-160.93 1253.5,-151.08 1244.3,-156.34 1249.59,-160.93"/>
</a>
</g>
</g>
<!-- Node31 -->
<g id="Node000031" class="node">
<title>Node31</title>
<g id="a_Node000031"><a xlink:href="course__offsets_8h.html" target="_top" xlink:title=" ">
<polygon fill="white" stroke="#666666" points="1393.82,-206 1297.82,-206 1297.82,-187 1393.82,-187 1393.82,-206"/>
<text text-anchor="middle" x="1345.82" y="-194" font-family="Helvetica,sans-Serif" font-size="10.00">course_offsets.h</text>
</a>
</g>
</g>
<!-- Node1&#45;&gt;Node31 -->
<g id="edge65_Node000001_Node000031" class="edge">
<title>Node1&#45;&gt;Node31</title>
<g id="a_edge65_Node000001_Node000031"><a xlink:title=" ">
<path fill="none" stroke="#63b8ff" d="M1013.04,-353.76C1085.38,-346.58 1186.95,-333.77 1222.82,-316 1271.78,-291.74 1313.99,-241.01 1333.8,-214.48"/>
<polygon fill="#63b8ff" stroke="#63b8ff" points="1336.78,-216.33 1339.84,-206.19 1331.12,-212.21 1336.78,-216.33"/>
</a>
</g>
</g>
<!-- Node4 -->
<g id="Node000004" class="node">
<title>Node4</title>
<g id="a_Node000004"><a xlink:title=" ">
<polygon fill="#e0e0e0" stroke="#999999" points="689.82,-261 551.82,-261 551.82,-242 689.82,-242 689.82,-261"/>
<text text-anchor="middle" x="620.82" y="-249" font-family="Helvetica,sans-Serif" font-size="10.00">libultraship/libultraship.h</text>
</a>
</g>
</g>
<!-- Node3&#45;&gt;Node4 -->
<g id="edge3_Node000003_Node000004" class="edge">
<title>Node3&#45;&gt;Node4</title>
<g id="a_edge3_Node000003_Node000004"><a xlink:title=" ">
<path fill="none" stroke="#63b8ff" d="M580.75,-296.75C587.67,-289.11 597.89,-277.82 606.28,-268.56"/>
<polygon fill="#63b8ff" stroke="#63b8ff" points="608.93,-270.85 613.05,-261.09 603.74,-266.15 608.93,-270.85"/>
</a>
</g>
</g>
<!-- Node5 -->
<g id="Node000005" class="node">
<title>Node5</title>
<g id="a_Node000005"><a xlink:href="CoreMath_8h.html" target="_top" xlink:title=" ">
<polygon fill="white" stroke="#666666" points="295.32,-140 222.32,-140 222.32,-121 295.32,-121 295.32,-140"/>
<text text-anchor="middle" x="258.82" y="-128" font-family="Helvetica,sans-Serif" font-size="10.00">CoreMath.h</text>
</a>
</g>
</g>
<!-- Node3&#45;&gt;Node5 -->
<g id="edge4_Node000003_Node000005" class="edge">
<title>Node3&#45;&gt;Node5</title>
<g id="a_edge4_Node000003_Node000005"><a xlink:title=" ">
<path fill="none" stroke="#63b8ff" d="M547.15,-305.16C498.37,-303.68 389.76,-296.3 306.82,-261 269.12,-244.95 251.23,-242.61 232.82,-206 223.26,-186.97 234.9,-163.57 245.52,-148.14"/>
<polygon fill="#63b8ff" stroke="#63b8ff" points="248.36,-150.18 251.49,-140.06 242.73,-146.02 248.36,-150.18"/>
</a>
</g>
</g>
<!-- Node6 -->
<g id="Node000006" class="node">
<title>Node6</title>
<g id="a_Node000006"><a xlink:href="defines_8h.html" target="_top" xlink:title=" ">
<polygon fill="white" stroke="#666666" points="769.32,-261 708.32,-261 708.32,-242 769.32,-242 769.32,-261"/>
<text text-anchor="middle" x="738.82" y="-249" font-family="Helvetica,sans-Serif" font-size="10.00">defines.h</text>
</a>
</g>
</g>
<!-- Node3&#45;&gt;Node6 -->
<g id="edge6_Node000003_Node000006" class="edge">
<title>Node3&#45;&gt;Node6</title>
<g id="a_edge6_Node000003_Node000006"><a xlink:title=" ">
<path fill="none" stroke="#63b8ff" d="M598.4,-297.33C626.22,-288.45 670.92,-274.18 702.4,-264.13"/>
<polygon fill="#63b8ff" stroke="#63b8ff" points="703.66,-267.4 712.12,-261.03 701.53,-260.73 703.66,-267.4"/>
</a>
</g>
</g>
<!-- Node3&#45;&gt;Node7 -->
<g id="edge7_Node000003_Node000007" class="edge">
<title>Node3&#45;&gt;Node7</title>
<g id="a_edge7_Node000003_Node000007"><a xlink:title=" ">
<path fill="none" stroke="#63b8ff" d="M564.86,-296.72C557.7,-288.25 547.6,-274.73 542.82,-261 529.77,-223.51 529.94,-176.35 531.32,-150.54"/>
<polygon fill="#63b8ff" stroke="#63b8ff" points="534.83,-150.5 532,-140.29 527.85,-150.04 534.83,-150.5"/>
</a>
</g>
</g>
<!-- Node8 -->
<g id="Node000008" class="node">
<title>Node8</title>
<g id="a_Node000008"><a xlink:href="common__structs_8h.html" target="_top" xlink:title=" ">
<polygon fill="white" stroke="#666666" points="586.32,-74 479.32,-74 479.32,-55 586.32,-55 586.32,-74"/>
<text text-anchor="middle" x="532.82" y="-62" font-family="Helvetica,sans-Serif" font-size="10.00">common_structs.h</text>
</a>
</g>
</g>
<!-- Node3&#45;&gt;Node8 -->
<g id="edge40_Node000003_Node000008" class="edge">
<title>Node3&#45;&gt;Node8</title>
<g id="a_edge40_Node000003_Node000008"><a xlink:title=" ">
<path fill="none" stroke="#63b8ff" d="M563.98,-297C555.57,-288.52 543.02,-274.8 534.82,-261 508.11,-216 502.32,-202.46 492.82,-151 489.52,-133.08 486.3,-127.01 492.82,-110 497.06,-98.94 505.46,-88.91 513.47,-81.18"/>
<polygon fill="#63b8ff" stroke="#63b8ff" points="516.07,-83.55 521.18,-74.27 511.4,-78.33 516.07,-83.55"/>
</a>
</g>
</g>
<!-- Node3&#45;&gt;Node9 -->
<g id="edge11_Node000003_Node000009" class="edge">
<title>Node3&#45;&gt;Node9</title>
<g id="a_edge11_Node000003_Node000009"><a xlink:title=" ">
<path fill="none" stroke="#63b8ff" d="M547.28,-298.89C513.07,-290.05 451.91,-274.24 410.61,-263.56"/>
<polygon fill="#63b8ff" stroke="#63b8ff" points="411.38,-260.15 400.83,-261.03 409.63,-266.92 411.38,-260.15"/>
</a>
</g>
</g>
<!-- Node15 -->
<g id="Node000015" class="node">
<title>Node15</title>
<g id="a_Node000015"><a xlink:href="bomb__kart_8h.html" target="_top" xlink:title=" ">
<polygon fill="white" stroke="#666666" points="1079.32,-206 1002.32,-206 1002.32,-187 1079.32,-187 1079.32,-206"/>
<text text-anchor="middle" x="1040.82" y="-194" font-family="Helvetica,sans-Serif" font-size="10.00">bomb_kart.h</text>
</a>
</g>
</g>
<!-- Node3&#45;&gt;Node15 -->
<g id="edge21_Node000003_Node000015" class="edge">
<title>Node3&#45;&gt;Node15</title>
<g id="a_edge21_Node000003_Node000015"><a xlink:title=" ">
<path fill="none" stroke="#63b8ff" d="M598.55,-304.37C687.44,-300.28 978.12,-285.15 1011.82,-261 1026.43,-250.54 1033.84,-230.9 1037.5,-216.23"/>
<polygon fill="#63b8ff" stroke="#63b8ff" points="1040.97,-216.71 1039.62,-206.2 1034.12,-215.26 1040.97,-216.71"/>
</a>
</g>
</g>
<!-- Node3&#45;&gt;Node19 -->
<g id="edge28_Node000003_Node000019" class="edge">
<title>Node3&#45;&gt;Node19</title>
<g id="a_edge28_Node000003_Node000019"><a xlink:title=" ">
<path fill="none" stroke="#63b8ff" d="M598.57,-301.73C653.79,-293.65 785.19,-274.41 866.41,-262.52"/>
<polygon fill="#63b8ff" stroke="#63b8ff" points="867.16,-265.94 876.55,-261.03 866.15,-259.02 867.16,-265.94"/>
</a>
</g>
</g>
<!-- Node20 -->
<g id="Node000020" class="node">
<title>Node20</title>
<g id="a_Node000020"><a xlink:href="waypoints_8h.html" target="_top" xlink:title=" ">
<polygon fill="white" stroke="#666666" points="473.82,-206 397.82,-206 397.82,-187 473.82,-187 473.82,-206"/>
<text text-anchor="middle" x="435.82" y="-194" font-family="Helvetica,sans-Serif" font-size="10.00">waypoints.h</text>
</a>
</g>
</g>
<!-- Node3&#45;&gt;Node20 -->
<g id="edge38_Node000003_Node000020" class="edge">
<title>Node3&#45;&gt;Node20</title>
<g id="a_edge38_Node000003_Node000020"><a xlink:title=" ">
<path fill="none" stroke="#63b8ff" d="M547.06,-299.1C524.99,-292.56 493.43,-280.53 471.82,-261 458.04,-248.54 448.24,-229.52 442.38,-215.55"/>
<polygon fill="#63b8ff" stroke="#63b8ff" points="445.56,-214.07 438.66,-206.03 439.04,-216.62 445.56,-214.07"/>
</a>
</g>
</g>
<!-- Node22 -->
<g id="Node000022" class="node">
<title>Node22</title>
<g id="a_Node000022"><a xlink:href="sounds_8h.html" target="_top" xlink:title=" ">
<polygon fill="white" stroke="#666666" points="847.82,-261 787.82,-261 787.82,-242 847.82,-242 847.82,-261"/>
<text text-anchor="middle" x="817.82" y="-249" font-family="Helvetica,sans-Serif" font-size="10.00">sounds.h</text>
</a>
</g>
</g>
<!-- Node3&#45;&gt;Node22 -->
<g id="edge39_Node000003_Node000022" class="edge">
<title>Node3&#45;&gt;Node22</title>
<g id="a_edge39_Node000003_Node000022"><a xlink:title=" ">
<path fill="none" stroke="#63b8ff" d="M598.58,-299.93C641.22,-290.7 726.81,-272.19 777.51,-261.22"/>
<polygon fill="#63b8ff" stroke="#63b8ff" points="778.44,-264.6 787.47,-259.07 776.96,-257.76 778.44,-264.6"/>
</a>
</g>
</g>
<!-- Node3&#45;&gt;Node23 -->
<g id="edge41_Node000003_Node000023" class="edge">
<title>Node3&#45;&gt;Node23</title>
<g id="a_edge41_Node000003_Node000023"><a xlink:title=" ">
<path fill="none" stroke="#63b8ff" d="M547.28,-305.86C489.56,-305.88 345.42,-301.5 233.82,-261 202.64,-249.68 171.06,-227.42 151.95,-212.49"/>
<polygon fill="#63b8ff" stroke="#63b8ff" points="154.1,-209.73 144.1,-206.22 149.73,-215.2 154.1,-209.73"/>
</a>
</g>
</g>
<!-- Node5&#45;&gt;Node2 -->
<g id="edge5_Node000005_Node000002" class="edge">
<title>Node5&#45;&gt;Node2</title>
<g id="a_edge5_Node000005_Node000002"><a xlink:title=" ">
<path fill="none" stroke="#63b8ff" d="M276.63,-120.9C284.3,-117.33 293.42,-113.27 301.82,-110 375.04,-81.51 393.67,-74.31 469.82,-55 536.07,-38.2 613.96,-25.13 663.59,-17.62"/>
<polygon fill="#63b8ff" stroke="#63b8ff" points="664.37,-21.04 673.74,-16.1 663.33,-14.12 664.37,-21.04"/>
</a>
</g>
</g>
<!-- Node7&#45;&gt;Node2 -->
<g id="edge8_Node000007_Node000002" class="edge">
<title>Node7&#45;&gt;Node2</title>
<g id="a_edge8_Node000007_Node000002"><a xlink:title=" ">
<path fill="none" stroke="#63b8ff" d="M545.84,-120.94C576.48,-100.8 653.43,-50.21 691.62,-25.1"/>
<polygon fill="#63b8ff" stroke="#63b8ff" points="694,-27.72 700.44,-19.3 690.16,-21.87 694,-27.72"/>
</a>
</g>
</g>
<!-- Node7&#45;&gt;Node8 -->
<g id="edge9_Node000007_Node000008" class="edge">
<title>Node7&#45;&gt;Node8</title>
<g id="a_edge9_Node000007_Node000008"><a xlink:title=" ">
<path fill="none" stroke="#63b8ff" d="M532.82,-120.87C532.82,-111.66 532.82,-96.79 532.82,-84.77"/>
<polygon fill="#63b8ff" stroke="#63b8ff" points="536.32,-84.41 532.82,-74.41 529.32,-84.41 536.32,-84.41"/>
</a>
</g>
</g>
<!-- Node8&#45;&gt;Node2 -->
<g id="edge10_Node000008_Node000002" class="edge">
<title>Node8&#45;&gt;Node2</title>
<g id="a_edge10_Node000008_Node000002"><a xlink:title=" ">
<path fill="none" stroke="#63b8ff" d="M561.91,-54.98C592.42,-46.05 640.59,-31.94 674.49,-22.02"/>
<polygon fill="#63b8ff" stroke="#63b8ff" points="675.9,-25.25 684.52,-19.08 673.94,-18.53 675.9,-25.25"/>
</a>
</g>
</g>
<!-- Node10 -->
<g id="Node000010" class="node">
<title>Node10</title>
<g id="a_Node000010"><a xlink:title=" ">
<polygon fill="#e0e0e0" stroke="#999999" points="1406.82,-74 1328.82,-74 1328.82,-55 1406.82,-55 1406.82,-74"/>
<text text-anchor="middle" x="1367.82" y="-62" font-family="Helvetica,sans-Serif" font-size="10.00">libultra/gbi.h</text>
</a>
</g>
</g>
<!-- Node9&#45;&gt;Node10 -->
<g id="edge12_Node000009_Node000010" class="edge">
<title>Node9&#45;&gt;Node10</title>
<g id="a_edge12_Node000009_Node000010"><a xlink:title=" ">
<path fill="none" stroke="#63b8ff" d="M420.09,-245.18C527.41,-234.26 780.42,-208.53 992.82,-187 1071.93,-178.98 1289.38,-203.82 1348.82,-151 1367.45,-134.45 1370.02,-104.06 1369.45,-84.33"/>
<polygon fill="#63b8ff" stroke="#63b8ff" points="1372.93,-83.9 1368.85,-74.13 1365.94,-84.31 1372.93,-83.9"/>
</a>
</g>
</g>
<!-- Node11 -->
<g id="Node000011" class="node">
<title>Node11</title>
<g id="a_Node000011"><a xlink:href="spline_8h.html" target="_top" xlink:title=" ">
<polygon fill="white" stroke="#666666" points="407.32,-140 352.32,-140 352.32,-121 407.32,-121 407.32,-140"/>
<text text-anchor="middle" x="379.82" y="-128" font-family="Helvetica,sans-Serif" font-size="10.00">spline.h</text>
</a>
</g>
</g>
<!-- Node9&#45;&gt;Node11 -->
<g id="edge13_Node000009_Node000011" class="edge">
<title>Node9&#45;&gt;Node11</title>
<g id="a_edge13_Node000009_Node000011"><a xlink:title=" ">
<path fill="none" stroke="#63b8ff" d="M364.03,-241.85C359.16,-229.62 351.78,-206.56 355.82,-187 358.57,-173.76 364.63,-159.79 369.97,-149.18"/>
<polygon fill="#63b8ff" stroke="#63b8ff" points="373.15,-150.64 374.74,-140.17 366.97,-147.36 373.15,-150.64"/>
</a>
</g>
</g>
<!-- Node12 -->
<g id="Node000012" class="node">
<title>Node12</title>
<g id="a_Node000012"><a xlink:href="other__textures_8h.html" target="_top" xlink:title=" ">
<polygon fill="white" stroke="#666666" points="1011.82,-145.5 891.82,-145.5 891.82,-115.5 1011.82,-115.5 1011.82,-145.5"/>
<text text-anchor="start" x="899.82" y="-133.5" font-family="Helvetica,sans-Serif" font-size="10.00">assets/textures/other</text>
<text text-anchor="middle" x="951.82" y="-122.5" font-family="Helvetica,sans-Serif" font-size="10.00">_textures.h</text>
</a>
</g>
</g>
<!-- Node9&#45;&gt;Node12 -->
<g id="edge15_Node000009_Node000012" class="edge">
<title>Node9&#45;&gt;Node12</title>
<g id="a_edge15_Node000009_Node000012"><a xlink:title=" ">
<path fill="none" stroke="#63b8ff" d="M367.86,-241.83C368.42,-227.78 371.79,-200.28 388.82,-187 432.23,-153.17 828.62,-160.53 882.82,-151 887.56,-150.17 892.43,-149.14 897.29,-148"/>
<polygon fill="#63b8ff" stroke="#63b8ff" points="898.36,-151.34 907.22,-145.53 896.67,-144.55 898.36,-151.34"/>
</a>
</g>
</g>
<!-- Node9&#45;&gt;Node14 -->
<g id="edge18_Node000009_Node000014" class="edge">
<title>Node9&#45;&gt;Node14</title>
<g id="a_edge18_Node000009_Node000014"><a xlink:title=" ">
<path fill="none" stroke="#63b8ff" d="M352.56,-241.98C337.69,-233.69 314.84,-220.94 297.41,-211.22"/>
<polygon fill="#63b8ff" stroke="#63b8ff" points="298.8,-207.99 288.37,-206.17 295.39,-214.1 298.8,-207.99"/>
</a>
</g>
</g>
<!-- Node11&#45;&gt;Node8 -->
<g id="edge14_Node000011_Node000008" class="edge">
<title>Node11&#45;&gt;Node8</title>
<g id="a_edge14_Node000011_Node000008"><a xlink:title=" ">
<path fill="none" stroke="#63b8ff" d="M397.71,-120.94C405.13,-117.45 413.85,-113.44 421.82,-110 448.39,-98.52 478.93,-86.35 501.24,-77.64"/>
<polygon fill="#63b8ff" stroke="#63b8ff" points="502.51,-80.9 510.57,-74.02 499.98,-74.38 502.51,-80.9"/>
</a>
</g>
</g>
<!-- Node12&#45;&gt;Node2 -->
<g id="edge16_Node000012_Node000002" class="edge">
<title>Node12&#45;&gt;Node2</title>
<g id="a_edge16_Node000012_Node000002"><a xlink:title=" ">
<path fill="none" stroke="#63b8ff" d="M923.59,-115.38C877.13,-92.15 785.23,-46.2 740.09,-23.63"/>
<polygon fill="#63b8ff" stroke="#63b8ff" points="741.45,-20.4 730.95,-19.06 738.32,-26.66 741.45,-20.4"/>
</a>
</g>
</g>
<!-- Node13 -->
<g id="Node000013" class="node">
<title>Node13</title>
<g id="a_Node000013"><a xlink:href="align__asset__macro_8h.html" target="_top" xlink:title=" ">
<polygon fill="white" stroke="#666666" points="1164.32,-74 1047.32,-74 1047.32,-55 1164.32,-55 1164.32,-74"/>
<text text-anchor="middle" x="1105.82" y="-62" font-family="Helvetica,sans-Serif" font-size="10.00">align_asset_macro.h</text>
</a>
</g>
</g>
<!-- Node12&#45;&gt;Node13 -->
<g id="edge17_Node000012_Node000013" class="edge">
<title>Node12&#45;&gt;Node13</title>
<g id="a_edge17_Node000012_Node000013"><a xlink:title=" ">
<path fill="none" stroke="#63b8ff" d="M985.62,-115.45C1012.63,-104.23 1050.12,-88.65 1076.02,-77.89"/>
<polygon fill="#63b8ff" stroke="#63b8ff" points="1077.44,-81.09 1085.33,-74.02 1074.75,-74.62 1077.44,-81.09"/>
</a>
</g>
</g>
<!-- Node14&#45;&gt;Node8 -->
<g id="edge20_Node000014_Node000008" class="edge">
<title>Node14&#45;&gt;Node8</title>
<g id="a_edge20_Node000014_Node000008"><a xlink:title=" ">
<path fill="none" stroke="#63b8ff" d="M278.86,-186.77C292.64,-167.09 326.46,-120.2 342.82,-110 380.83,-86.31 430.24,-75.22 469.15,-70.03"/>
<polygon fill="#63b8ff" stroke="#63b8ff" points="469.82,-73.48 479.32,-68.78 468.96,-66.53 469.82,-73.48"/>
</a>
</g>
</g>
<!-- Node14&#45;&gt;Node11 -->
<g id="edge19_Node000014_Node000011" class="edge">
<title>Node14&#45;&gt;Node11</title>
<g id="a_edge19_Node000014_Node000011"><a xlink:title=" ">
<path fill="none" stroke="#63b8ff" d="M287.25,-186.87C305.04,-176.23 335.5,-158.01 356.6,-145.39"/>
<polygon fill="#63b8ff" stroke="#63b8ff" points="358.5,-148.34 365.28,-140.2 354.9,-142.33 358.5,-148.34"/>
</a>
</g>
</g>
<!-- Node15&#45;&gt;Node8 -->
<g id="edge22_Node000015_Node000008" class="edge">
<title>Node15&#45;&gt;Node8</title>
<g id="a_edge22_Node000015_Node000008"><a xlink:title=" ">
<path fill="none" stroke="#63b8ff" d="M1002.31,-194.23C916.25,-190.91 711.03,-180.08 648.82,-151 624.9,-139.82 626.77,-126.08 605.82,-110 590.76,-98.44 572.51,-87.31 558.03,-79.08"/>
<polygon fill="#63b8ff" stroke="#63b8ff" points="559.57,-75.93 549.13,-74.11 556.16,-82.04 559.57,-75.93"/>
</a>
</g>
</g>
<!-- Node16 -->
<g id="Node000016" class="node">
<title>Node16</title>
<g id="a_Node000016"><a xlink:href="mk64_8h.html" target="_top" xlink:title=" ">
<polygon fill="white" stroke="#666666" points="1673.32,-140 1620.32,-140 1620.32,-121 1673.32,-121 1673.32,-140"/>
<text text-anchor="middle" x="1646.82" y="-128" font-family="Helvetica,sans-Serif" font-size="10.00">mk64.h</text>
</a>
</g>
</g>
<!-- Node15&#45;&gt;Node16 -->
<g id="edge23_Node000015_Node000016" class="edge">
<title>Node15&#45;&gt;Node16</title>
<g id="a_edge23_Node000015_Node000016"><a xlink:title=" ">
<path fill="none" stroke="#63b8ff" d="M1079.43,-194.64C1190.91,-191.81 1511.75,-181.19 1611.82,-151 1616.44,-149.61 1621.13,-147.54 1625.51,-145.26"/>
<polygon fill="#63b8ff" stroke="#63b8ff" points="1627.52,-148.14 1634.45,-140.12 1624.04,-142.07 1627.52,-148.14"/>
</a>
</g>
</g>
<!-- Node16&#45;&gt;Node2 -->
<g id="edge24_Node000016_Node000002" class="edge">
<title>Node16&#45;&gt;Node2</title>
<g id="a_edge24_Node000016_Node000002"><a xlink:title=" ">
<path fill="none" stroke="#63b8ff" d="M1632.82,-120.92C1626.54,-117.27 1618.95,-113.15 1611.82,-110 1541.5,-78.94 1523.29,-69.68 1447.82,-55 1316.4,-29.44 907.59,-15.89 764.17,-11.83"/>
<polygon fill="#63b8ff" stroke="#63b8ff" points="764,-8.32 753.91,-11.54 763.81,-15.32 764,-8.32"/>
</a>
</g>
</g>
<!-- Node16&#45;&gt;Node10 -->
<g id="edge27_Node000016_Node000010" class="edge">
<title>Node16&#45;&gt;Node10</title>
<g id="a_edge27_Node000016_Node000010"><a xlink:title=" ">
<path fill="none" stroke="#63b8ff" d="M1633.69,-120.83C1627.32,-116.98 1619.42,-112.72 1611.82,-110 1546.74,-86.66 1467.3,-75.09 1417.13,-69.71"/>
<polygon fill="#63b8ff" stroke="#63b8ff" points="1417.18,-66.2 1406.88,-68.65 1416.47,-73.16 1417.18,-66.2"/>
</a>
</g>
</g>
<!-- Node17 -->
<g id="Node000017" class="node">
<title>Node17</title>
<g id="a_Node000017"><a xlink:href="string_8h.html" target="_top" xlink:title=" ">
<polygon fill="white" stroke="#666666" points="1783.32,-74 1730.32,-74 1730.32,-55 1783.32,-55 1783.32,-74"/>
<text text-anchor="middle" x="1756.82" y="-62" font-family="Helvetica,sans-Serif" font-size="10.00">string.h</text>
</a>
</g>
</g>
<!-- Node16&#45;&gt;Node17 -->
<g id="edge25_Node000016_Node000017" class="edge">
<title>Node16&#45;&gt;Node17</title>
<g id="a_edge25_Node000016_Node000017"><a xlink:title=" ">
<path fill="none" stroke="#63b8ff" d="M1661.66,-120.87C1679.95,-110.23 1711.26,-92.01 1732.95,-79.39"/>
<polygon fill="#63b8ff" stroke="#63b8ff" points="1734.99,-82.25 1741.87,-74.2 1731.47,-76.2 1734.99,-82.25"/>
</a>
</g>
</g>
<!-- Node18 -->
<g id="Node000018" class="node">
<title>Node18</title>
<g id="a_Node000018"><a xlink:title=" ">
<polygon fill="#e0e0e0" stroke="#999999" points="1828.82,-19 1738.82,-19 1738.82,0 1828.82,0 1828.82,-19"/>
<text text-anchor="middle" x="1783.82" y="-7" font-family="Helvetica,sans-Serif" font-size="10.00">libultra/types.h</text>
</a>
</g>
</g>
<!-- Node17&#45;&gt;Node18 -->
<g id="edge26_Node000017_Node000018" class="edge">
<title>Node17&#45;&gt;Node18</title>
<g id="a_edge26_Node000017_Node000018"><a xlink:title=" ">
<path fill="none" stroke="#63b8ff" d="M1761.28,-54.75C1764.94,-47.57 1770.23,-37.18 1774.77,-28.27"/>
<polygon fill="#63b8ff" stroke="#63b8ff" points="1778.03,-29.59 1779.45,-19.09 1771.79,-26.41 1778.03,-29.59"/>
</a>
</g>
</g>
<!-- Node19&#45;&gt;Node8 -->
<g id="edge31_Node000019_Node000008" class="edge">
<title>Node19&#45;&gt;Node8</title>
<g id="a_edge31_Node000019_Node000008"><a xlink:title=" ">
<path fill="none" stroke="#63b8ff" d="M866.74,-241.97C796.43,-230.54 685.97,-205.06 605.82,-151 586.43,-137.92 587.98,-127.82 572.82,-110 564.75,-100.51 555.45,-90.13 547.86,-81.79"/>
<polygon fill="#63b8ff" stroke="#63b8ff" points="550.27,-79.25 540.94,-74.24 545.11,-83.98 550.27,-79.25"/>
</a>
</g>
</g>
<!-- Node19&#45;&gt;Node15 -->
<g id="edge37_Node000019_Node000015" class="edge">
<title>Node19&#45;&gt;Node15</title>
<g id="a_edge37_Node000019_Node000015"><a xlink:title=" ">
<path fill="none" stroke="#63b8ff" d="M951.86,-241.98C968.75,-233.54 994.89,-220.47 1014.47,-210.68"/>
<polygon fill="#63b8ff" stroke="#63b8ff" points="1016.1,-213.77 1023.48,-206.17 1012.97,-207.51 1016.1,-213.77"/>
</a>
</g>
</g>
<!-- Node19&#45;&gt;Node20 -->
<g id="edge29_Node000019_Node000020" class="edge">
<title>Node19&#45;&gt;Node20</title>
<g id="a_edge29_Node000019_Node000020"><a xlink:title=" ">
<path fill="none" stroke="#63b8ff" d="M865.92,-242.98C862.85,-242.65 859.8,-242.32 856.82,-242 721.67,-227.49 562.07,-210.72 483.88,-202.53"/>
<polygon fill="#63b8ff" stroke="#63b8ff" points="484.16,-199.04 473.85,-201.48 483.43,-206 484.16,-199.04"/>
</a>
</g>
</g>
<!-- Node21 -->
<g id="Node000021" class="node">
<title>Node21</title>
<g id="a_Node000021"><a xlink:href="other_2common__data_8h.html" target="_top" xlink:title=" ">
<polygon fill="white" stroke="#666666" points="873.82,-145.5 751.82,-145.5 751.82,-115.5 873.82,-115.5 873.82,-145.5"/>
<text text-anchor="start" x="759.82" y="-133.5" font-family="Helvetica,sans-Serif" font-size="10.00">assets/other/common</text>
<text text-anchor="middle" x="812.82" y="-122.5" font-family="Helvetica,sans-Serif" font-size="10.00">_data.h</text>
</a>
</g>
</g>
<!-- Node19&#45;&gt;Node21 -->
<g id="edge32_Node000019_Node000021" class="edge">
<title>Node19&#45;&gt;Node21</title>
<g id="a_edge32_Node000019_Node000021"><a xlink:title=" ">
<path fill="none" stroke="#63b8ff" d="M926.05,-241.94C907.15,-223.51 862.12,-179.58 834.88,-153.02"/>
<polygon fill="#63b8ff" stroke="#63b8ff" points="836.98,-150.18 827.38,-145.7 832.1,-155.19 836.98,-150.18"/>
</a>
</g>
</g>
<!-- Node20&#45;&gt;Node8 -->
<g id="edge30_Node000020_Node000008" class="edge">
<title>Node20&#45;&gt;Node8</title>
<g id="a_edge30_Node000020_Node000008"><a xlink:title=" ">
<path fill="none" stroke="#63b8ff" d="M436.2,-186.82C437.34,-170.27 441.85,-133.71 459.82,-110 470.27,-96.22 486.32,-85.77 500.72,-78.47"/>
<polygon fill="#63b8ff" stroke="#63b8ff" points="502.33,-81.57 509.86,-74.12 499.33,-75.25 502.33,-81.57"/>
</a>
</g>
</g>
<!-- Node21&#45;&gt;Node2 -->
<g id="edge34_Node000021_Node000002" class="edge">
<title>Node21&#45;&gt;Node2</title>
<g id="a_edge34_Node000021_Node000002"><a xlink:title=" ">
<path fill="none" stroke="#63b8ff" d="M801.08,-115.38C782.65,-93.23 747.03,-50.41 727.48,-26.92"/>
<polygon fill="#63b8ff" stroke="#63b8ff" points="730.16,-24.66 721.07,-19.21 724.78,-29.14 730.16,-24.66"/>
</a>
</g>
</g>
<!-- Node21&#45;&gt;Node8 -->
<g id="edge35_Node000021_Node000008" class="edge">
<title>Node21&#45;&gt;Node8</title>
<g id="a_edge35_Node000021_Node000008"><a xlink:title=" ">
<path fill="none" stroke="#63b8ff" d="M763.27,-115.49C756.09,-113.58 748.78,-111.69 741.82,-110 689.27,-97.2 628.78,-84.54 586.44,-76.02"/>
<polygon fill="#63b8ff" stroke="#63b8ff" points="587.12,-72.59 576.62,-74.05 585.74,-79.45 587.12,-72.59"/>
</a>
</g>
</g>
<!-- Node21&#45;&gt;Node10 -->
<g id="edge33_Node000021_Node000010" class="edge">
<title>Node21&#45;&gt;Node10</title>
<g id="a_edge33_Node000021_Node000010"><a xlink:title=" ">
<path fill="none" stroke="#63b8ff" d="M858.86,-115.41C866.8,-113.35 875.01,-111.44 882.82,-110 1040.26,-81.09 1230.06,-70.6 1318.28,-67.1"/>
<polygon fill="#63b8ff" stroke="#63b8ff" points="1318.66,-70.59 1328.52,-66.71 1318.39,-63.59 1318.66,-70.59"/>
</a>
</g>
</g>
<!-- Node21&#45;&gt;Node13 -->
<g id="edge36_Node000021_Node000013" class="edge">
<title>Node21&#45;&gt;Node13</title>
<g id="a_edge36_Node000021_Node000013"><a xlink:title=" ">
<path fill="none" stroke="#63b8ff" d="M861.28,-115.5C868.48,-113.56 875.83,-111.67 882.82,-110 938.52,-96.71 1002.68,-84.19 1047.84,-75.84"/>
<polygon fill="#63b8ff" stroke="#63b8ff" points="1048.55,-79.27 1057.75,-74.02 1047.28,-72.39 1048.55,-79.27"/>
</a>
</g>
</g>
<!-- Node23&#45;&gt;Node2 -->
<g id="edge45_Node000023_Node000002" class="edge">
<title>Node23&#45;&gt;Node2</title>
<g id="a_edge45_Node000023_Node000002"><a xlink:title=" ">
<path fill="none" stroke="#63b8ff" d="M127.99,-186.76C118.26,-171 100.8,-136.96 111.82,-110 124.79,-78.29 134.8,-69.52 165.82,-55 253.31,-14.05 544.98,-10.04 663.31,-10.15"/>
<polygon fill="#63b8ff" stroke="#63b8ff" points="663.53,-13.65 673.53,-10.17 663.54,-6.65 663.53,-13.65"/>
</a>
</g>
</g>
<!-- Node23&#45;&gt;Node5 -->
<g id="edge52_Node000023_Node000005" class="edge">
<title>Node23&#45;&gt;Node5</title>
<g id="a_edge52_Node000023_Node000005"><a xlink:title=" ">
<path fill="none" stroke="#63b8ff" d="M150.68,-186.87C171.74,-176.09 208.01,-157.52 232.68,-144.88"/>
<polygon fill="#63b8ff" stroke="#63b8ff" points="234.53,-147.87 241.83,-140.2 231.34,-141.64 234.53,-147.87"/>
</a>
</g>
</g>
<!-- Node23&#45;&gt;Node7 -->
<g id="edge51_Node000023_Node000007" class="edge">
<title>Node23&#45;&gt;Node7</title>
<g id="a_edge51_Node000023_Node000007"><a xlink:title=" ">
<path fill="none" stroke="#63b8ff" d="M185.56,-187.47C242.14,-178.66 335.47,-164.04 415.82,-151 440.92,-146.93 469.02,-142.25 491.39,-138.5"/>
<polygon fill="#63b8ff" stroke="#63b8ff" points="492.27,-141.9 501.55,-136.79 491.11,-134.99 492.27,-141.9"/>
</a>
</g>
</g>
<!-- Node24 -->
<g id="Node000024" class="node">
<title>Node24</title>
<g id="a_Node000024"><a xlink:href="macros_8h.html" target="_top" xlink:title=" ">
<polygon fill="white" stroke="#666666" points="91.82,-74 29.82,-74 29.82,-55 91.82,-55 91.82,-74"/>
<text text-anchor="middle" x="60.82" y="-62" font-family="Helvetica,sans-Serif" font-size="10.00">macros.h</text>
</a>
</g>
</g>
<!-- Node23&#45;&gt;Node24 -->
<g id="edge42_Node000023_Node000024" class="edge">
<title>Node23&#45;&gt;Node24</title>
<g id="a_edge42_Node000023_Node000024"><a xlink:title=" ">
<path fill="none" stroke="#63b8ff" d="M118.04,-186.86C105.44,-179.13 88.37,-166.61 78.82,-151 66.3,-130.52 62.38,-102.69 61.21,-84.42"/>
<polygon fill="#63b8ff" stroke="#63b8ff" points="64.7,-84.05 60.79,-74.2 57.71,-84.34 64.7,-84.05"/>
</a>
</g>
</g>
<!-- Node26 -->
<g id="Node000026" class="node">
<title>Node26</title>
<g id="a_Node000026"><a xlink:href="actor__types_8h.html" target="_top" xlink:title=" ">
<polygon fill="white" stroke="#666666" points="204.32,-140 121.32,-140 121.32,-121 204.32,-121 204.32,-140"/>
<text text-anchor="middle" x="162.82" y="-128" font-family="Helvetica,sans-Serif" font-size="10.00">actor_types.h</text>
</a>
</g>
</g>
<!-- Node23&#45;&gt;Node26 -->
<g id="edge46_Node000023_Node000026" class="edge">
<title>Node23&#45;&gt;Node26</title>
<g id="a_edge46_Node000023_Node000026"><a xlink:title=" ">
<path fill="none" stroke="#63b8ff" d="M137.74,-186.87C142.04,-177.38 149.07,-161.86 154.59,-149.66"/>
<polygon fill="#63b8ff" stroke="#63b8ff" points="157.85,-150.96 158.79,-140.41 151.47,-148.07 157.85,-150.96"/>
</a>
</g>
</g>
<!-- Node24&#45;&gt;Node2 -->
<g id="edge44_Node000024_Node000002" class="edge">
<title>Node24&#45;&gt;Node2</title>
<g id="a_edge44_Node000024_Node000002"><a xlink:title=" ">
<path fill="none" stroke="#63b8ff" d="M92.22,-57.1C96.77,-56.31 101.41,-55.58 105.82,-55 311.54,-28.13 558.69,-16.32 663.21,-12.26"/>
<polygon fill="#63b8ff" stroke="#63b8ff" points="663.61,-15.75 673.47,-11.87 663.34,-8.75 663.61,-15.75"/>
</a>
</g>
</g>
<!-- Node25 -->
<g id="Node000025" class="node">
<title>Node25</title>
<g id="a_Node000025"><a xlink:href="math_8h.html" target="_top" xlink:title=" ">
<polygon fill="white" stroke="#666666" points="86.32,-19 35.32,-19 35.32,0 86.32,0 86.32,-19"/>
<text text-anchor="middle" x="60.82" y="-7" font-family="Helvetica,sans-Serif" font-size="10.00">math.h</text>
</a>
</g>
</g>
<!-- Node24&#45;&gt;Node25 -->
<g id="edge43_Node000024_Node000025" class="edge">
<title>Node24&#45;&gt;Node25</title>
<g id="a_edge43_Node000024_Node000025"><a xlink:title=" ">
<path fill="none" stroke="#63b8ff" d="M60.82,-54.75C60.82,-47.8 60.82,-37.85 60.82,-29.13"/>
<polygon fill="#63b8ff" stroke="#63b8ff" points="64.32,-29.09 60.82,-19.09 57.32,-29.09 64.32,-29.09"/>
</a>
</g>
</g>
<!-- Node26&#45;&gt;Node2 -->
<g id="edge47_Node000026_Node000002" class="edge">
<title>Node26&#45;&gt;Node2</title>
<g id="a_edge47_Node000026_Node000002"><a xlink:title=" ">
<path fill="none" stroke="#63b8ff" d="M162.12,-120.96C161.35,-105.18 162.26,-71.55 181.82,-55 218.13,-24.28 538.14,-14.22 663.64,-11.43"/>
<polygon fill="#63b8ff" stroke="#63b8ff" points="663.83,-14.93 673.75,-11.21 663.68,-7.93 663.83,-14.93"/>
</a>
</g>
</g>
<!-- Node26&#45;&gt;Node8 -->
<g id="edge49_Node000026_Node000008" class="edge">
<title>Node26&#45;&gt;Node8</title>
<g id="a_edge49_Node000026_Node000008"><a xlink:title=" ">
<path fill="none" stroke="#63b8ff" d="M181.95,-120.83C191.12,-116.99 202.37,-112.73 212.82,-110 300.02,-87.27 403.8,-75.54 469.01,-69.96"/>
<polygon fill="#63b8ff" stroke="#63b8ff" points="469.46,-73.44 479.14,-69.12 468.88,-66.46 469.46,-73.44"/>
</a>
</g>
</g>
<!-- Node26&#45;&gt;Node24 -->
<g id="edge48_Node000026_Node000024" class="edge">
<title>Node26&#45;&gt;Node24</title>
<g id="a_edge48_Node000026_Node000024"><a xlink:title=" ">
<path fill="none" stroke="#63b8ff" d="M149.07,-120.87C132.19,-110.28 103.33,-92.17 83.23,-79.56"/>
<polygon fill="#63b8ff" stroke="#63b8ff" points="85.02,-76.55 74.69,-74.2 81.3,-82.48 85.02,-76.55"/>
</a>
</g>
</g>
<!-- Node27 -->
<g id="Node000027" class="node">
<title>Node27</title>
<g id="a_Node000027"><a xlink:title=" ">
<polygon fill="#e0e0e0" stroke="#999999" points="246.82,-74 190.82,-74 190.82,-55 246.82,-55 246.82,-74"/>
<text text-anchor="middle" x="218.82" y="-62" font-family="Helvetica,sans-Serif" font-size="10.00">assert.h</text>
</a>
</g>
</g>
<!-- Node26&#45;&gt;Node27 -->
<g id="edge50_Node000026_Node000027" class="edge">
<title>Node26&#45;&gt;Node27</title>
<g id="a_edge50_Node000026_Node000027"><a xlink:title=" ">
<path fill="none" stroke="#63b8ff" d="M170.38,-120.87C179.01,-111 193.35,-94.61 204.2,-82.22"/>
<polygon fill="#63b8ff" stroke="#63b8ff" points="207.08,-84.24 211.03,-74.41 201.81,-79.63 207.08,-84.24"/>
</a>
</g>
</g>
<!-- Node28&#45;&gt;Node2 -->
<g id="edge54_Node000028_Node000002" class="edge">
<title>Node28&#45;&gt;Node2</title>
<g id="a_edge54_Node000028_Node000002"><a xlink:title=" ">
<path fill="none" stroke="#63b8ff" d="M1041.53,-109.98C959.1,-84.96 818.81,-42.37 751.74,-22.01"/>
<polygon fill="#63b8ff" stroke="#63b8ff" points="752.59,-18.61 742,-19.05 750.55,-25.31 752.59,-18.61"/>
</a>
</g>
</g>
<!-- Node28&#45;&gt;Node10 -->
<g id="edge55_Node000028_Node000010" class="edge">
<title>Node28&#45;&gt;Node10</title>
<g id="a_edge55_Node000028_Node000010"><a xlink:title=" ">
<path fill="none" stroke="#63b8ff" d="M1181.96,-110.9C1227.73,-99.72 1284.4,-85.88 1323.05,-76.44"/>
<polygon fill="#63b8ff" stroke="#63b8ff" points="1324.08,-79.79 1332.96,-74.02 1322.42,-72.99 1324.08,-79.79"/>
</a>
</g>
</g>
<!-- Node28&#45;&gt;Node13 -->
<g id="edge56_Node000028_Node000013" class="edge">
<title>Node28&#45;&gt;Node13</title>
<g id="a_edge56_Node000028_Node000013"><a xlink:title=" ">
<path fill="none" stroke="#63b8ff" d="M1105.82,-109.95C1105.82,-101.85 1105.82,-92.5 1105.82,-84.47"/>
<polygon fill="#63b8ff" stroke="#63b8ff" points="1109.32,-84.26 1105.82,-74.26 1102.32,-84.26 1109.32,-84.26"/>
</a>
</g>
</g>
<!-- Node29&#45;&gt;Node2 -->
<g id="edge58_Node000029_Node000002" class="edge">
<title>Node29&#45;&gt;Node2</title>
<g id="a_edge58_Node000029_Node000002"><a xlink:title=" ">
<path fill="none" stroke="#63b8ff" d="M1498.39,-109.95C1479.23,-92.08 1448.2,-66.71 1415.82,-55 1295.81,-11.59 903.79,-9.4 763.95,-10.06"/>
<polygon fill="#63b8ff" stroke="#63b8ff" points="763.91,-6.56 753.93,-10.11 763.95,-13.56 763.91,-6.56"/>
</a>
</g>
</g>
<!-- Node29&#45;&gt;Node10 -->
<g id="edge59_Node000029_Node000010" class="edge">
<title>Node29&#45;&gt;Node10</title>
<g id="a_edge59_Node000029_Node000010"><a xlink:title=" ">
<path fill="none" stroke="#63b8ff" d="M1472,-109.95C1447.76,-99.6 1418.69,-87.2 1397.43,-78.13"/>
<polygon fill="#63b8ff" stroke="#63b8ff" points="1398.53,-74.8 1387.96,-74.09 1395.79,-81.24 1398.53,-74.8"/>
</a>
</g>
</g>
<!-- Node29&#45;&gt;Node13 -->
<g id="edge60_Node000029_Node000013" class="edge">
<title>Node29&#45;&gt;Node13</title>
<g id="a_edge60_Node000029_Node000013"><a xlink:title=" ">
<path fill="none" stroke="#63b8ff" d="M1432.96,-116.32C1355.16,-104.23 1241.62,-86.59 1170.81,-75.6"/>
<polygon fill="#63b8ff" stroke="#63b8ff" points="1171.1,-72.1 1160.68,-74.02 1170.03,-79.02 1171.1,-72.1"/>
</a>
</g>
</g>
<!-- Node30&#45;&gt;Node2 -->
<g id="edge62_Node000030_Node000002" class="edge">
<title>Node30&#45;&gt;Node2</title>
<g id="a_edge62_Node000030_Node000002"><a xlink:title=" ">
<path fill="none" stroke="#63b8ff" d="M1251.09,-109.84C1232.92,-92.16 1203.64,-67.16 1172.82,-55 1099.47,-26.06 867.24,-15.31 764.06,-11.89"/>
<polygon fill="#63b8ff" stroke="#63b8ff" points="764.01,-8.39 753.9,-11.56 763.78,-15.38 764.01,-8.39"/>
</a>
</g>
</g>
<!-- Node30&#45;&gt;Node10 -->
<g id="edge63_Node000030_Node000010" class="edge">
<title>Node30&#45;&gt;Node10</title>
<g id="a_edge63_Node000030_Node000010"><a xlink:title=" ">
<path fill="none" stroke="#63b8ff" d="M1299.76,-109.95C1314.67,-100.21 1332.37,-88.65 1345.98,-79.76"/>
<polygon fill="#63b8ff" stroke="#63b8ff" points="1348.21,-82.49 1354.67,-74.09 1344.38,-76.63 1348.21,-82.49"/>
</a>
</g>
</g>
<!-- Node30&#45;&gt;Node13 -->
<g id="edge64_Node000030_Node000013" class="edge">
<title>Node30&#45;&gt;Node13</title>
<g id="a_edge64_Node000030_Node000013"><a xlink:title=" ">
<path fill="none" stroke="#63b8ff" d="M1219.73,-109.95C1192.86,-99.46 1160.57,-86.87 1137.25,-77.76"/>
<polygon fill="#63b8ff" stroke="#63b8ff" points="1138.43,-74.47 1127.84,-74.09 1135.88,-80.99 1138.43,-74.47"/>
</a>
</g>
</g>
<!-- Node31&#45;&gt;Node2 -->
<g id="edge66_Node000031_Node000002" class="edge">
<title>Node31&#45;&gt;Node2</title>
<g id="a_edge66_Node000031_Node000002"><a xlink:title=" ">
<path fill="none" stroke="#63b8ff" d="M1393.94,-192.61C1482.51,-186.79 1664.08,-172.38 1682.82,-151 1694.84,-137.3 1693.71,-124.61 1682.82,-110 1631.84,-41.55 1582.9,-69.74 1498.82,-55 1356.85,-30.11 914.92,-16 764.53,-11.83"/>
<polygon fill="#63b8ff" stroke="#63b8ff" points="764.3,-8.32 754.21,-11.54 764.11,-15.32 764.3,-8.32"/>
</a>
</g>
</g>
<!-- Node31&#45;&gt;Node10 -->
<g id="edge68_Node000031_Node000010" class="edge">
<title>Node31&#45;&gt;Node10</title>
<g id="a_edge68_Node000031_Node000010"><a xlink:title=" ">
<path fill="none" stroke="#63b8ff" d="M1355.98,-186.81C1364.73,-178.6 1376.72,-165.43 1381.82,-151 1389.72,-128.69 1382.62,-101.5 1375.98,-83.87"/>
<polygon fill="#63b8ff" stroke="#63b8ff" points="1379.07,-82.17 1372.04,-74.25 1372.59,-84.83 1379.07,-82.17"/>
</a>
</g>
</g>
<!-- Node31&#45;&gt;Node12 -->
<g id="edge69_Node000031_Node000012" class="edge">
<title>Node31&#45;&gt;Node12</title>
<g id="a_edge69_Node000031_Node000012"><a xlink:title=" ">
<path fill="none" stroke="#63b8ff" d="M1297.56,-191.01C1233.77,-184.6 1118.11,-171.3 1020.82,-151 1016.64,-150.13 1012.34,-149.14 1008.03,-148.08"/>
<polygon fill="#63b8ff" stroke="#63b8ff" points="1008.56,-144.6 998,-145.51 1006.82,-151.38 1008.56,-144.6"/>
</a>
</g>
</g>
<!-- Node31&#45;&gt;Node18 -->
<g id="edge67_Node000031_Node000018" class="edge">
<title>Node31&#45;&gt;Node18</title>
<g id="a_edge67_Node000031_Node000018"><a xlink:title=" ">
<path fill="none" stroke="#63b8ff" d="M1393.84,-193.61C1480.71,-189.55 1660.11,-178.09 1715.82,-151 1759.35,-129.84 1774.3,-118.71 1792.82,-74 1798.82,-59.53 1795.51,-41.8 1791.31,-28.75"/>
<polygon fill="#63b8ff" stroke="#63b8ff" points="1794.49,-27.25 1787.76,-19.07 1787.92,-29.66 1794.49,-27.25"/>
</a>
</g>
</g>
<!-- Node32 -->
<g id="Node000032" class="node">
<title>Node32</title>
<g id="a_Node000032"><a xlink:href="animation_8h.html" target="_top" xlink:title=" ">
<polygon fill="white" stroke="#666666" points="733.32,-140 658.32,-140 658.32,-121 733.32,-121 733.32,-140"/>
<text text-anchor="middle" x="695.82" y="-128" font-family="Helvetica,sans-Serif" font-size="10.00">animation.h</text>
</a>
</g>
</g>
<!-- Node31&#45;&gt;Node32 -->
<g id="edge70_Node000031_Node000032" class="edge">
<title>Node31&#45;&gt;Node32</title>
<g id="a_edge70_Node000031_Node000032"><a xlink:title=" ">
<path fill="none" stroke="#63b8ff" d="M1297.39,-193.92C1173.58,-189.55 847.88,-175.98 742.82,-151 735.9,-149.35 728.67,-146.81 722.02,-144.1"/>
<polygon fill="#63b8ff" stroke="#63b8ff" points="723.36,-140.86 712.79,-140.09 720.57,-147.28 723.36,-140.86"/>
</a>
</g>
</g>
<!-- Node32&#45;&gt;Node8 -->
<g id="edge71_Node000032_Node000008" class="edge">
<title>Node32&#45;&gt;Node8</title>
<g id="a_edge71_Node000032_Node000008"><a xlink:title=" ">
<path fill="none" stroke="#63b8ff" d="M673.84,-120.87C645.57,-109.77 596.29,-90.42 564.11,-77.78"/>
<polygon fill="#63b8ff" stroke="#63b8ff" points="565.31,-74.49 554.72,-74.1 562.75,-81.01 565.31,-74.49"/>
</a>
</g>
</g>
</g>
</svg>
