<?xml version="1.0" encoding="UTF-8" standalone="no"?>
<!DOCTYPE svg PUBLIC "-//W3C//DTD SVG 1.1//EN"
 "http://www.w3.org/Graphics/SVG/1.1/DTD/svg11.dtd">
<!-- Generated by graphviz version 2.43.0 (0)
 -->
<!-- Title: include/assets/models/tracks/double_deck/double_deck_displaylists.h Pages: 1 -->
<svg width="747pt" height="302pt"
 viewBox="0.00 0.00 747.00 302.00" xmlns="http://www.w3.org/2000/svg" xmlns:xlink="http://www.w3.org/1999/xlink">
<g id="graph0" class="graph" transform="scale(1 1) rotate(0) translate(4 298)">
<title>include/assets/models/tracks/double_deck/double_deck_displaylists.h</title>
<!-- Node1 -->
<g id="Node000001" class="node">
<title>Node1</title>
<g id="a_Node000001"><a xlink:title=" ">
<polygon fill="#999999" stroke="#666666" points="439.5,-294 289.5,-294 289.5,-253 439.5,-253 439.5,-294"/>
<text text-anchor="start" x="297.5" y="-282" font-family="Helvetica,sans-Serif" font-size="10.00">include/assets/models</text>
<text text-anchor="start" x="297.5" y="-271" font-family="Helvetica,sans-Serif" font-size="10.00">/tracks/double_deck/double</text>
<text text-anchor="middle" x="364.5" y="-260" font-family="Helvetica,sans-Serif" font-size="10.00">_deck_displaylists.h</text>
</a>
</g>
</g>
<!-- Node2 -->
<g id="Node000002" class="node">
<title>Node2</title>
<g id="a_Node000002"><a xlink:href="all__course__packed_8h.html" target="_top" xlink:title=" ">
<polygon fill="white" stroke="#666666" points="341,-217 234,-217 234,-187 341,-187 341,-217"/>
<text text-anchor="start" x="242" y="-205" font-family="Helvetica,sans-Serif" font-size="10.00">courses/all_course</text>
<text text-anchor="middle" x="287.5" y="-194" font-family="Helvetica,sans-Serif" font-size="10.00">_packed.h</text>
</a>
</g>
</g>
<!-- Node1&#45;&gt;Node2 -->
<g id="edge1_Node000001_Node000002" class="edge">
<title>Node1&#45;&gt;Node2</title>
<g id="a_edge1_Node000001_Node000002"><a xlink:title=" ">
<path fill="none" stroke="#63b8ff" d="M334.96,-245.83C324.09,-236.02 312.21,-225.3 303.05,-217.04"/>
<polygon fill="#63b8ff" stroke="#63b8ff" points="332.87,-248.67 342.64,-252.77 337.56,-243.47 332.87,-248.67"/>
</a>
</g>
</g>
<!-- Node8 -->
<g id="Node000008" class="node">
<title>Node8</title>
<g id="a_Node000008"><a xlink:href="DoubleDeck_8h.html" target="_top" xlink:title=" ">
<polygon fill="white" stroke="#666666" points="591,-217 454,-217 454,-187 591,-187 591,-217"/>
<text text-anchor="start" x="462" y="-205" font-family="Helvetica,sans-Serif" font-size="10.00">src/engine/tracks/Double</text>
<text text-anchor="middle" x="522.5" y="-194" font-family="Helvetica,sans-Serif" font-size="10.00">Deck.h</text>
</a>
</g>
</g>
<!-- Node1&#45;&gt;Node8 -->
<g id="edge7_Node000001_Node000008" class="edge">
<title>Node1&#45;&gt;Node8</title>
<g id="a_edge7_Node000001_Node000008"><a xlink:title=" ">
<path fill="none" stroke="#63b8ff" d="M418.28,-248.85C442.26,-238.3 469.71,-226.22 490.42,-217.11"/>
<polygon fill="#63b8ff" stroke="#63b8ff" points="416.68,-245.73 408.93,-252.96 419.5,-252.13 416.68,-245.73"/>
</a>
</g>
</g>
<!-- Node3 -->
<g id="Node000003" class="node">
<title>Node3</title>
<g id="a_Node000003"><a xlink:href="code__800029B0_8c.html" target="_top" xlink:title=" ">
<polygon fill="white" stroke="#666666" points="119,-145.5 0,-145.5 0,-126.5 119,-126.5 119,-145.5"/>
<text text-anchor="middle" x="59.5" y="-133.5" font-family="Helvetica,sans-Serif" font-size="10.00">src/code_800029B0.c</text>
</a>
</g>
</g>
<!-- Node2&#45;&gt;Node3 -->
<g id="edge2_Node000002_Node000003" class="edge">
<title>Node2&#45;&gt;Node3</title>
<g id="a_edge2_Node000002_Node000003"><a xlink:title=" ">
<path fill="none" stroke="#63b8ff" d="M227.68,-184.21C183.39,-171.78 124.89,-155.35 89.84,-145.52"/>
<polygon fill="#63b8ff" stroke="#63b8ff" points="226.89,-187.62 237.46,-186.95 228.78,-180.88 226.89,-187.62"/>
</a>
</g>
</g>
<!-- Node4 -->
<g id="Node000004" class="node">
<title>Node4</title>
<g id="a_Node000004"><a xlink:href="all__variables_8h.html" target="_top" xlink:title=" ">
<polygon fill="white" stroke="#666666" points="275.5,-145.5 137.5,-145.5 137.5,-126.5 275.5,-126.5 275.5,-145.5"/>
<text text-anchor="middle" x="206.5" y="-133.5" font-family="Helvetica,sans-Serif" font-size="10.00">src/debug/all_variables.h</text>
</a>
</g>
</g>
<!-- Node2&#45;&gt;Node4 -->
<g id="edge3_Node000002_Node000004" class="edge">
<title>Node2&#45;&gt;Node4</title>
<g id="a_edge3_Node000002_Node000004"><a xlink:title=" ">
<path fill="none" stroke="#63b8ff" d="M261.66,-180.58C246.84,-168.87 228.99,-154.77 217.69,-145.84"/>
<polygon fill="#63b8ff" stroke="#63b8ff" points="259.51,-183.34 269.52,-186.8 263.85,-177.85 259.51,-183.34"/>
</a>
</g>
</g>
<!-- Node7 -->
<g id="Node000007" class="node">
<title>Node7</title>
<g id="a_Node000007"><a xlink:href="render__courses_8c.html" target="_top" xlink:title=" ">
<polygon fill="white" stroke="#666666" points="443,-145.5 294,-145.5 294,-126.5 443,-126.5 443,-145.5"/>
<text text-anchor="middle" x="368.5" y="-133.5" font-family="Helvetica,sans-Serif" font-size="10.00">src/racing/render_courses.c</text>
</a>
</g>
</g>
<!-- Node2&#45;&gt;Node7 -->
<g id="edge6_Node000002_Node000007" class="edge">
<title>Node2&#45;&gt;Node7</title>
<g id="a_edge6_Node000002_Node000007"><a xlink:title=" ">
<path fill="none" stroke="#63b8ff" d="M313.34,-180.58C328.16,-168.87 346.01,-154.77 357.31,-145.84"/>
<polygon fill="#63b8ff" stroke="#63b8ff" points="311.15,-177.85 305.48,-186.8 315.49,-183.34 311.15,-177.85"/>
</a>
</g>
</g>
<!-- Node5 -->
<g id="Node000005" class="node">
<title>Node5</title>
<g id="a_Node000005"><a xlink:href="debug_8inc_8c.html" target="_top" xlink:title=" ">
<polygon fill="white" stroke="#666666" points="267.5,-79.5 145.5,-79.5 145.5,-60.5 267.5,-60.5 267.5,-79.5"/>
<text text-anchor="middle" x="206.5" y="-67.5" font-family="Helvetica,sans-Serif" font-size="10.00">src/debug/debug.inc.c</text>
</a>
</g>
</g>
<!-- Node4&#45;&gt;Node5 -->
<g id="edge4_Node000004_Node000005" class="edge">
<title>Node4&#45;&gt;Node5</title>
<g id="a_edge4_Node000004_Node000005"><a xlink:title=" ">
<path fill="none" stroke="#63b8ff" d="M206.5,-116.08C206.5,-104.13 206.5,-89.22 206.5,-79.91"/>
<polygon fill="#63b8ff" stroke="#63b8ff" points="203,-116.37 206.5,-126.37 210,-116.37 203,-116.37"/>
</a>
</g>
</g>
<!-- Node6 -->
<g id="Node000006" class="node">
<title>Node6</title>
<g id="a_Node000006"><a xlink:href="debug_8c.html" target="_top" xlink:title=" ">
<polygon fill="white" stroke="#666666" points="259,-19 154,-19 154,0 259,0 259,-19"/>
<text text-anchor="middle" x="206.5" y="-7" font-family="Helvetica,sans-Serif" font-size="10.00">src/debug/debug.c</text>
</a>
</g>
</g>
<!-- Node5&#45;&gt;Node6 -->
<g id="edge5_Node000005_Node000006" class="edge">
<title>Node5&#45;&gt;Node6</title>
<g id="a_edge5_Node000005_Node000006"><a xlink:title=" ">
<path fill="none" stroke="#63b8ff" d="M206.5,-50.16C206.5,-39.74 206.5,-27.3 206.5,-19.17"/>
<polygon fill="#63b8ff" stroke="#63b8ff" points="203,-50.37 206.5,-60.37 210,-50.37 203,-50.37"/>
</a>
</g>
</g>
<!-- Node9 -->
<g id="Node000009" class="node">
<title>Node9</title>
<g id="a_Node000009"><a xlink:href="AllTracks_8h.html" target="_top" xlink:title=" ">
<polygon fill="white" stroke="#666666" points="583.5,-145.5 461.5,-145.5 461.5,-126.5 583.5,-126.5 583.5,-145.5"/>
<text text-anchor="middle" x="522.5" y="-133.5" font-family="Helvetica,sans-Serif" font-size="10.00">src/engine/AllTracks.h</text>
</a>
</g>
</g>
<!-- Node8&#45;&gt;Node9 -->
<g id="edge8_Node000008_Node000009" class="edge">
<title>Node8&#45;&gt;Node9</title>
<g id="a_edge8_Node000008_Node000009"><a xlink:title=" ">
<path fill="none" stroke="#63b8ff" d="M522.5,-176.6C522.5,-165.8 522.5,-153.78 522.5,-145.84"/>
<polygon fill="#63b8ff" stroke="#63b8ff" points="519,-176.8 522.5,-186.8 526,-176.8 519,-176.8"/>
</a>
</g>
</g>
<!-- Node12 -->
<g id="Node000012" class="node">
<title>Node12</title>
<g id="a_Node000012"><a xlink:href="DoubleDeck_8cpp.html" target="_top" xlink:title=" ">
<polygon fill="white" stroke="#666666" points="739,-151 602,-151 602,-121 739,-121 739,-151"/>
<text text-anchor="start" x="610" y="-139" font-family="Helvetica,sans-Serif" font-size="10.00">src/engine/tracks/Double</text>
<text text-anchor="middle" x="670.5" y="-128" font-family="Helvetica,sans-Serif" font-size="10.00">Deck.cpp</text>
</a>
</g>
</g>
<!-- Node8&#45;&gt;Node12 -->
<g id="edge11_Node000008_Node000012" class="edge">
<title>Node8&#45;&gt;Node12</title>
<g id="a_edge11_Node000008_Node000012"><a xlink:title=" ">
<path fill="none" stroke="#63b8ff" d="M564.31,-182.92C587.7,-172.8 616.42,-160.38 638.1,-151.01"/>
<polygon fill="#63b8ff" stroke="#63b8ff" points="562.77,-179.77 554.98,-186.95 565.55,-186.2 562.77,-179.77"/>
</a>
</g>
</g>
<!-- Node10 -->
<g id="Node000010" class="node">
<title>Node10</title>
<g id="a_Node000010"><a xlink:href="RegisterTracks_8cpp.html" target="_top" xlink:title=" ">
<polygon fill="white" stroke="#666666" points="514,-85 403,-85 403,-55 514,-55 514,-85"/>
<text text-anchor="start" x="411" y="-73" font-family="Helvetica,sans-Serif" font-size="10.00">src/engine/registry</text>
<text text-anchor="middle" x="458.5" y="-62" font-family="Helvetica,sans-Serif" font-size="10.00">/RegisterTracks.cpp</text>
</a>
</g>
</g>
<!-- Node9&#45;&gt;Node10 -->
<g id="edge9_Node000009_Node000010" class="edge">
<title>Node9&#45;&gt;Node10</title>
<g id="a_edge9_Node000009_Node000010"><a xlink:title=" ">
<path fill="none" stroke="#63b8ff" d="M506.66,-119.16C496.31,-108.81 482.9,-95.4 472.86,-85.36"/>
<polygon fill="#63b8ff" stroke="#63b8ff" points="504.32,-121.77 513.87,-126.37 509.27,-116.82 504.32,-121.77"/>
</a>
</g>
</g>
<!-- Node11 -->
<g id="Node000011" class="node">
<title>Node11</title>
<g id="a_Node000011"><a xlink:href="Game_8cpp.html" target="_top" xlink:title=" ">
<polygon fill="white" stroke="#666666" points="638.5,-79.5 532.5,-79.5 532.5,-60.5 638.5,-60.5 638.5,-79.5"/>
<text text-anchor="middle" x="585.5" y="-67.5" font-family="Helvetica,sans-Serif" font-size="10.00">src/port/Game.cpp</text>
</a>
</g>
</g>
<!-- Node9&#45;&gt;Node11 -->
<g id="edge10_Node000009_Node000011" class="edge">
<title>Node9&#45;&gt;Node11</title>
<g id="a_edge10_Node000009_Node000011"><a xlink:title=" ">
<path fill="none" stroke="#63b8ff" d="M538.27,-118.98C550.44,-106.62 566.81,-89.99 576.73,-79.91"/>
<polygon fill="#63b8ff" stroke="#63b8ff" points="535.52,-116.79 531,-126.37 540.51,-121.7 535.52,-116.79"/>
</a>
</g>
</g>
</g>
</svg>
