<?xml version="1.0" encoding="UTF-8" standalone="no"?>
<!DOCTYPE svg PUBLIC "-//W3C//DTD SVG 1.1//EN"
 "http://www.w3.org/Graphics/SVG/1.1/DTD/svg11.dtd">
<!-- Generated by graphviz version 2.43.0 (0)
 -->
<!-- Title: Editor_MatrixIdentity Pages: 1 -->
<svg width="439pt" height="86pt"
 viewBox="0.00 0.00 439.00 86.00" xmlns="http://www.w3.org/2000/svg" xmlns:xlink="http://www.w3.org/1999/xlink">
<g id="graph0" class="graph" transform="scale(1 1) rotate(0) translate(4 82)">
<title>Editor_MatrixIdentity</title>
<!-- Node1 -->
<g id="Node000001" class="node">
<title>Node1</title>
<g id="a_Node000001"><a xlink:title=" ">
<polygon fill="#999999" stroke="#666666" points="431,-48.5 312,-48.5 312,-29.5 431,-29.5 431,-48.5"/>
<text text-anchor="middle" x="371.5" y="-36.5" font-family="Helvetica,sans-Serif" font-size="10.00">Editor_MatrixIdentity</text>
</a>
</g>
</g>
<!-- Node2 -->
<g id="Node000002" class="node">
<title>Node2</title>
<g id="a_Node000002"><a xlink:href="classTrackEditor_1_1LightObject.html#a61b3a5910a00ffe5dfb5aff55566c638" target="_top" xlink:title=" ">
<polygon fill="white" stroke="#666666" points="276,-78 144,-78 144,-48 276,-48 276,-78"/>
<text text-anchor="start" x="152" y="-66" font-family="Helvetica,sans-Serif" font-size="10.00">TrackEditor::LightObject</text>
<text text-anchor="middle" x="210" y="-55" font-family="Helvetica,sans-Serif" font-size="10.00">::Draw</text>
</a>
</g>
</g>
<!-- Node1&#45;&gt;Node2 -->
<g id="edge1_Node000001_Node000002" class="edge">
<title>Node1&#45;&gt;Node2</title>
<g id="a_edge1_Node000001_Node000002"><a xlink:title=" ">
<path fill="none" stroke="#63b8ff" d="M301.43,-49.39C293.03,-50.66 284.47,-51.94 276.14,-53.2"/>
<polygon fill="#63b8ff" stroke="#63b8ff" points="302.19,-52.82 311.56,-47.87 301.15,-45.9 302.19,-52.82"/>
</a>
</g>
</g>
<!-- Node3 -->
<g id="Node000003" class="node">
<title>Node3</title>
<g id="a_Node000003"><a xlink:href="classTrackEditor_1_1Gizmo.html#a5f5509a37443442a1f9d6d80495b898b" target="_top" xlink:title=" ">
<polygon fill="white" stroke="#666666" points="264,-30 156,-30 156,0 264,0 264,-30"/>
<text text-anchor="start" x="164" y="-18" font-family="Helvetica,sans-Serif" font-size="10.00">TrackEditor::Gizmo</text>
<text text-anchor="middle" x="210" y="-7" font-family="Helvetica,sans-Serif" font-size="10.00">::DrawHandles</text>
</a>
</g>
</g>
<!-- Node1&#45;&gt;Node3 -->
<g id="edge2_Node000001_Node000003" class="edge">
<title>Node1&#45;&gt;Node3</title>
<g id="a_edge2_Node000001_Node000003"><a xlink:title=" ">
<path fill="none" stroke="#63b8ff" d="M301.61,-28.63C289.07,-26.75 276.16,-24.8 264.16,-23"/>
<polygon fill="#63b8ff" stroke="#63b8ff" points="301.15,-32.1 311.56,-30.13 302.19,-25.18 301.15,-32.1"/>
</a>
</g>
</g>
<!-- Node4 -->
<g id="Node000004" class="node">
<title>Node4</title>
<g id="a_Node000004"><a xlink:href="classTrackEditor_1_1Gizmo.html#a385576fd8da261ebe1d245905d825997" target="_top" xlink:title=" ">
<polygon fill="white" stroke="#666666" points="108,-30 0,-30 0,0 108,0 108,-30"/>
<text text-anchor="start" x="8" y="-18" font-family="Helvetica,sans-Serif" font-size="10.00">TrackEditor::Gizmo</text>
<text text-anchor="middle" x="54" y="-7" font-family="Helvetica,sans-Serif" font-size="10.00">::Draw</text>
</a>
</g>
</g>
<!-- Node3&#45;&gt;Node4 -->
<g id="edge3_Node000003_Node000004" class="edge">
<title>Node3&#45;&gt;Node4</title>
<g id="a_edge3_Node000003_Node000004"><a xlink:title=" ">
<path fill="none" stroke="#63b8ff" d="M145.31,-15C132.93,-15 120.07,-15 108.07,-15"/>
<polygon fill="#63b8ff" stroke="#63b8ff" points="145.57,-18.5 155.57,-15 145.57,-11.5 145.57,-18.5"/>
</a>
</g>
</g>
</g>
</svg>
