<?xml version="1.0" encoding="UTF-8" standalone="no"?>
<!DOCTYPE svg PUBLIC "-//W3C//DTD SVG 1.1//EN"
 "http://www.w3.org/Graphics/SVG/1.1/DTD/svg11.dtd">
<!-- Generated by graphviz version 2.43.0 (0)
 -->
<!-- Title: IntersectRayTriangleAndTransform Pages: 1 -->
<svg width="711pt" height="86pt"
 viewBox="0.00 0.00 711.00 86.00" xmlns="http://www.w3.org/2000/svg" xmlns:xlink="http://www.w3.org/1999/xlink">
<g id="graph0" class="graph" transform="scale(1 1) rotate(0) translate(4 82)">
<title>IntersectRayTriangleAndTransform</title>
<!-- Node1 -->
<g id="Node000001" class="node">
<title>Node1</title>
<g id="a_Node000001"><a xlink:title=" ">
<polygon fill="#999999" stroke="#666666" points="703,-48.5 519,-48.5 519,-29.5 703,-29.5 703,-48.5"/>
<text text-anchor="middle" x="611" y="-36.5" font-family="Helvetica,sans-Serif" font-size="10.00">IntersectRayTriangleAndTransform</text>
</a>
</g>
</g>
<!-- Node2 -->
<g id="Node000002" class="node">
<title>Node2</title>
<g id="a_Node000002"><a xlink:href="classTrackEditor_1_1ObjectPicker.html#afe34dcaf26feea939c7bbbc73345f73d" target="_top" xlink:title=" ">
<polygon fill="white" stroke="#666666" points="483,-78 346,-78 346,-48 483,-48 483,-78"/>
<text text-anchor="start" x="354" y="-66" font-family="Helvetica,sans-Serif" font-size="10.00">TrackEditor::ObjectPicker</text>
<text text-anchor="middle" x="414.5" y="-55" font-family="Helvetica,sans-Serif" font-size="10.00">::CheckAActorRay</text>
</a>
</g>
</g>
<!-- Node1&#45;&gt;Node2 -->
<g id="edge1_Node000001_Node000002" class="edge">
<title>Node1&#45;&gt;Node2</title>
<g id="a_edge1_Node000001_Node000002"><a xlink:title=" ">
<path fill="none" stroke="#63b8ff" d="M522.75,-49.77C509.45,-51.41 495.91,-53.08 483.12,-54.66"/>
<polygon fill="#63b8ff" stroke="#63b8ff" points="523.35,-53.22 532.85,-48.52 522.5,-46.27 523.35,-53.22"/>
</a>
</g>
</g>
<!-- Node5 -->
<g id="Node000005" class="node">
<title>Node5</title>
<g id="a_Node000005"><a xlink:href="classTrackEditor_1_1ObjectPicker.html#a1e0d218040deef6b7ec0412c33a03b54" target="_top" xlink:title=" ">
<polygon fill="white" stroke="#666666" points="483,-30 346,-30 346,0 483,0 483,-30"/>
<text text-anchor="start" x="354" y="-18" font-family="Helvetica,sans-Serif" font-size="10.00">TrackEditor::ObjectPicker</text>
<text text-anchor="middle" x="414.5" y="-7" font-family="Helvetica,sans-Serif" font-size="10.00">::CheckEditorObjectRay</text>
</a>
</g>
</g>
<!-- Node1&#45;&gt;Node5 -->
<g id="edge4_Node000001_Node000005" class="edge">
<title>Node1&#45;&gt;Node5</title>
<g id="a_edge4_Node000001_Node000005"><a xlink:title=" ">
<path fill="none" stroke="#63b8ff" d="M522.75,-28.23C509.45,-26.59 495.91,-24.92 483.12,-23.34"/>
<polygon fill="#63b8ff" stroke="#63b8ff" points="522.5,-31.73 532.85,-29.48 523.35,-24.78 522.5,-31.73"/>
</a>
</g>
</g>
<!-- Node3 -->
<g id="Node000003" class="node">
<title>Node3</title>
<g id="a_Node000003"><a xlink:href="classTrackEditor_1_1ObjectPicker.html#a8c8f0761caa475a71881a852d3a4beb2" target="_top" xlink:title=" ">
<polygon fill="white" stroke="#666666" points="310,-54 173,-54 173,-24 310,-24 310,-54"/>
<text text-anchor="start" x="181" y="-42" font-family="Helvetica,sans-Serif" font-size="10.00">TrackEditor::ObjectPicker</text>
<text text-anchor="middle" x="241.5" y="-31" font-family="Helvetica,sans-Serif" font-size="10.00">::FindObject</text>
</a>
</g>
</g>
<!-- Node2&#45;&gt;Node3 -->
<g id="edge2_Node000002_Node000003" class="edge">
<title>Node2&#45;&gt;Node3</title>
<g id="a_edge2_Node000002_Node000003"><a xlink:title=" ">
<path fill="none" stroke="#63b8ff" d="M335.9,-52.11C327.31,-50.9 318.61,-49.68 310.15,-48.5"/>
<polygon fill="#63b8ff" stroke="#63b8ff" points="335.53,-55.59 345.92,-53.51 336.5,-48.66 335.53,-55.59"/>
</a>
</g>
</g>
<!-- Node4 -->
<g id="Node000004" class="node">
<title>Node4</title>
<g id="a_Node000004"><a xlink:href="classTrackEditor_1_1ObjectPicker.html#ae50fde270612425fe6e2d6d10456e63d" target="_top" xlink:title=" ">
<polygon fill="white" stroke="#666666" points="137,-54 0,-54 0,-24 137,-24 137,-54"/>
<text text-anchor="start" x="8" y="-42" font-family="Helvetica,sans-Serif" font-size="10.00">TrackEditor::ObjectPicker</text>
<text text-anchor="middle" x="68.5" y="-31" font-family="Helvetica,sans-Serif" font-size="10.00">::SelectObject</text>
</a>
</g>
</g>
<!-- Node3&#45;&gt;Node4 -->
<g id="edge3_Node000003_Node000004" class="edge">
<title>Node3&#45;&gt;Node4</title>
<g id="a_edge3_Node000003_Node000004"><a xlink:title=" ">
<path fill="none" stroke="#63b8ff" d="M162.9,-39C154.31,-39 145.61,-39 137.15,-39"/>
<polygon fill="#63b8ff" stroke="#63b8ff" points="162.92,-42.5 172.92,-39 162.92,-35.5 162.92,-42.5"/>
</a>
</g>
</g>
<!-- Node5&#45;&gt;Node3 -->
<g id="edge5_Node000005_Node000003" class="edge">
<title>Node5&#45;&gt;Node3</title>
<g id="a_edge5_Node000005_Node000003"><a xlink:title=" ">
<path fill="none" stroke="#63b8ff" d="M335.9,-25.89C327.31,-27.1 318.61,-28.32 310.15,-29.5"/>
<polygon fill="#63b8ff" stroke="#63b8ff" points="336.5,-29.34 345.92,-24.49 335.53,-22.41 336.5,-29.34"/>
</a>
</g>
</g>
</g>
</svg>
