<?xml version="1.0" encoding="UTF-8" standalone="no"?>
<!DOCTYPE svg PUBLIC "-//W3C//DTD SVG 1.1//EN"
 "http://www.w3.org/Graphics/SVG/1.1/DTD/svg11.dtd">
<!-- Generated by graphviz version 2.43.0 (0)
 -->
<!-- Title: func_8008F86C Pages: 1 -->
<svg width="825pt" height="401pt"
 viewBox="0.00 0.00 825.00 401.00" xmlns="http://www.w3.org/2000/svg" xmlns:xlink="http://www.w3.org/1999/xlink">
<g id="graph0" class="graph" transform="scale(1 1) rotate(0) translate(4 397)">
<title>func_8008F86C</title>
<!-- Node1 -->
<g id="Node000001" class="node">
<title>Node1</title>
<g id="a_Node000001"><a xlink:title=" ">
<polygon fill="#999999" stroke="#666666" points="92,-131 0,-131 0,-112 92,-112 92,-131"/>
<text text-anchor="middle" x="46" y="-119" font-family="Helvetica,sans-Serif" font-size="10.00">func_8008F86C</text>
</a>
</g>
</g>
<!-- Node2 -->
<g id="Node000002" class="node">
<title>Node2</title>
<g id="a_Node000002"><a xlink:href="external_8c.html#ac32b332e8b9a73af543741393186060d" target="_top" xlink:title=" ">
<polygon fill="white" stroke="#666666" points="221.5,-206 129.5,-206 129.5,-187 221.5,-187 221.5,-206"/>
<text text-anchor="middle" x="175.5" y="-194" font-family="Helvetica,sans-Serif" font-size="10.00">func_800CA730</text>
</a>
</g>
</g>
<!-- Node1&#45;&gt;Node2 -->
<g id="edge1_Node000001_Node000002" class="edge">
<title>Node1&#45;&gt;Node2</title>
<g id="a_edge1_Node000001_Node000002"><a xlink:title=" ">
<path fill="none" stroke="#63b8ff" d="M63.41,-131.15C85.21,-143.98 123.94,-166.76 149.42,-181.75"/>
<polygon fill="#63b8ff" stroke="#63b8ff" points="147.76,-184.83 158.16,-186.89 151.31,-178.8 147.76,-184.83"/>
</a>
</g>
</g>
<!-- Node20 -->
<g id="Node000020" class="node">
<title>Node20</title>
<g id="a_Node000020"><a xlink:href="external_8c.html#a3138069310bbed5109964d607d51811f" target="_top" xlink:title=" ">
<polygon fill="white" stroke="#666666" points="223,-57 128,-57 128,-38 223,-38 223,-57"/>
<text text-anchor="middle" x="175.5" y="-45" font-family="Helvetica,sans-Serif" font-size="10.00">func_800CAACC</text>
</a>
</g>
</g>
<!-- Node1&#45;&gt;Node20 -->
<g id="edge20_Node000001_Node000020" class="edge">
<title>Node1&#45;&gt;Node20</title>
<g id="a_edge20_Node000001_Node000020"><a xlink:title=" ">
<path fill="none" stroke="#63b8ff" d="M63.41,-111.98C85.09,-99.39 123.52,-77.09 149,-62.3"/>
<polygon fill="#63b8ff" stroke="#63b8ff" points="150.86,-65.27 157.75,-57.22 147.34,-59.21 150.86,-65.27"/>
</a>
</g>
</g>
<!-- Node3 -->
<g id="Node000003" class="node">
<title>Node3</title>
<g id="a_Node000003"><a xlink:href="external_8c.html#ac48b7cbfcaa7737f892877ead85e4ba7" target="_top" xlink:title=" ">
<polygon fill="white" stroke="#666666" points="497,-281 405,-281 405,-262 497,-262 497,-281"/>
<text text-anchor="middle" x="451" y="-269" font-family="Helvetica,sans-Serif" font-size="10.00">func_800C3448</text>
</a>
</g>
</g>
<!-- Node2&#45;&gt;Node3 -->
<g id="edge2_Node000002_Node000003" class="edge">
<title>Node2&#45;&gt;Node3</title>
<g id="a_edge2_Node000002_Node000003"><a xlink:title=" ">
<path fill="none" stroke="#63b8ff" d="M186.74,-206C201.46,-219.03 230.03,-242 259,-252.5 302.71,-268.35 355.52,-272.56 394.51,-273.12"/>
<polygon fill="#63b8ff" stroke="#63b8ff" points="394.6,-276.62 404.62,-273.19 394.65,-269.62 394.6,-276.62"/>
</a>
</g>
</g>
<!-- Node4 -->
<g id="Node000004" class="node">
<title>Node4</title>
<g id="a_Node000004"><a xlink:href="external_8c.html#ab2ecda68e1fb6f957aafd4c5742e2f63" target="_top" xlink:title=" ">
<polygon fill="white" stroke="#666666" points="352.5,-243 260.5,-243 260.5,-224 352.5,-224 352.5,-243"/>
<text text-anchor="middle" x="306.5" y="-231" font-family="Helvetica,sans-Serif" font-size="10.00">func_800C3508</text>
</a>
</g>
</g>
<!-- Node2&#45;&gt;Node4 -->
<g id="edge3_Node000002_Node000004" class="edge">
<title>Node2&#45;&gt;Node4</title>
<g id="a_edge3_Node000002_Node000004"><a xlink:title=" ">
<path fill="none" stroke="#63b8ff" d="M209.72,-206.03C225.7,-210.61 245.05,-216.16 262.17,-221.07"/>
<polygon fill="#63b8ff" stroke="#63b8ff" points="261.37,-224.48 271.94,-223.88 263.3,-217.75 261.37,-224.48"/>
</a>
</g>
</g>
<!-- Node5 -->
<g id="Node000005" class="node">
<title>Node5</title>
<g id="a_Node000005"><a xlink:href="external_8c.html#a2aea7abf056e029f247b18edb62aa218" target="_top" xlink:title=" ">
<polygon fill="white" stroke="#666666" points="352.5,-206 260.5,-206 260.5,-187 352.5,-187 352.5,-206"/>
<text text-anchor="middle" x="306.5" y="-194" font-family="Helvetica,sans-Serif" font-size="10.00">func_800C357C</text>
</a>
</g>
</g>
<!-- Node2&#45;&gt;Node5 -->
<g id="edge4_Node000002_Node000005" class="edge">
<title>Node2&#45;&gt;Node5</title>
<g id="a_edge4_Node000002_Node000005"><a xlink:title=" ">
<path fill="none" stroke="#63b8ff" d="M221.62,-196.5C230.8,-196.5 240.55,-196.5 250.04,-196.5"/>
<polygon fill="#63b8ff" stroke="#63b8ff" points="250.19,-200 260.19,-196.5 250.19,-193 250.19,-200"/>
</a>
</g>
</g>
<!-- Node6 -->
<g id="Node000006" class="node">
<title>Node6</title>
<g id="a_Node000006"><a xlink:href="external_8c.html#aea29af4ab009f59caa57f45987b0ea86" target="_top" xlink:title=" ">
<polygon fill="white" stroke="#666666" points="352.5,-169 260.5,-169 260.5,-150 352.5,-150 352.5,-169"/>
<text text-anchor="middle" x="306.5" y="-157" font-family="Helvetica,sans-Serif" font-size="10.00">func_800C3608</text>
</a>
</g>
</g>
<!-- Node2&#45;&gt;Node6 -->
<g id="edge5_Node000002_Node000006" class="edge">
<title>Node2&#45;&gt;Node6</title>
<g id="a_edge5_Node000002_Node000006"><a xlink:title=" ">
<path fill="none" stroke="#63b8ff" d="M209.72,-186.97C225.7,-182.39 245.05,-176.84 262.17,-171.93"/>
<polygon fill="#63b8ff" stroke="#63b8ff" points="263.3,-175.25 271.94,-169.12 261.37,-168.52 263.3,-175.25"/>
</a>
</g>
</g>
<!-- Node7 -->
<g id="Node000007" class="node">
<title>Node7</title>
<g id="a_Node000007"><a xlink:href="external_8c.html#ad377fc55133176f069744a4bcb5e0364" target="_top" xlink:title=" ">
<polygon fill="white" stroke="#666666" points="352.5,-132 260.5,-132 260.5,-113 352.5,-113 352.5,-132"/>
<text text-anchor="middle" x="306.5" y="-120" font-family="Helvetica,sans-Serif" font-size="10.00">func_800C9018</text>
</a>
</g>
</g>
<!-- Node2&#45;&gt;Node7 -->
<g id="edge6_Node000002_Node000007" class="edge">
<title>Node2&#45;&gt;Node7</title>
<g id="a_edge6_Node000002_Node000007"><a xlink:title=" ">
<path fill="none" stroke="#63b8ff" d="M189.15,-186.9C204.92,-175.2 233,-155.3 259,-141.5 262.54,-139.62 266.3,-137.81 270.1,-136.09"/>
<polygon fill="#63b8ff" stroke="#63b8ff" points="271.69,-139.22 279.5,-132.05 268.93,-132.79 271.69,-139.22"/>
</a>
</g>
</g>
<!-- Node14 -->
<g id="Node000014" class="node">
<title>Node14</title>
<g id="a_Node000014"><a xlink:href="HMAS_8cpp.html#a73c414770e0086761854237b09428fcf" target="_top" xlink:title=" ">
<polygon fill="white" stroke="#666666" points="354,-95 259,-95 259,-76 354,-76 354,-95"/>
<text text-anchor="middle" x="306.5" y="-83" font-family="Helvetica,sans-Serif" font-size="10.00">HMAS_IsPlaying</text>
</a>
</g>
</g>
<!-- Node2&#45;&gt;Node14 -->
<g id="edge13_Node000002_Node000014" class="edge">
<title>Node2&#45;&gt;Node14</title>
<g id="a_edge13_Node000002_Node000014"><a xlink:title=" ">
<path fill="none" stroke="#63b8ff" d="M182.88,-186.86C195.45,-168.53 225.15,-128.35 259,-104.5 261.56,-102.7 264.31,-101.03 267.15,-99.49"/>
<polygon fill="#63b8ff" stroke="#63b8ff" points="268.93,-102.52 276.41,-95.02 265.88,-96.22 268.93,-102.52"/>
</a>
</g>
</g>
<!-- Node15 -->
<g id="Node000015" class="node">
<title>Node15</title>
<g id="a_Node000015"><a xlink:href="external_8c.html#a6584dbe6b07d52e25d5ca892468153a5" target="_top" xlink:title=" ">
<polygon fill="white" stroke="#666666" points="351,-356 262,-356 262,-337 351,-337 351,-356"/>
<text text-anchor="middle" x="306.5" y="-344" font-family="Helvetica,sans-Serif" font-size="10.00">play_sequence</text>
</a>
</g>
</g>
<!-- Node2&#45;&gt;Node15 -->
<g id="edge14_Node000002_Node000015" class="edge">
<title>Node2&#45;&gt;Node15</title>
<g id="a_edge14_Node000002_Node000015"><a xlink:title=" ">
<path fill="none" stroke="#63b8ff" d="M180.07,-206.28C189.35,-230.41 216.51,-293.38 259,-328.5 260.38,-329.64 261.83,-330.71 263.35,-331.72"/>
<polygon fill="#63b8ff" stroke="#63b8ff" points="262.07,-335.01 272.51,-336.82 265.48,-328.9 262.07,-335.01"/>
</a>
</g>
</g>
<!-- Node19 -->
<g id="Node000019" class="node">
<title>Node19</title>
<g id="a_Node000019"><a xlink:href="external_8c.html#a475cff796211891556f52877cd8e9b9e" target="_top" xlink:title=" ">
<polygon fill="white" stroke="#666666" points="342.5,-319 270.5,-319 270.5,-300 342.5,-300 342.5,-319"/>
<text text-anchor="middle" x="306.5" y="-307" font-family="Helvetica,sans-Serif" font-size="10.00">play_sound</text>
</a>
</g>
</g>
<!-- Node2&#45;&gt;Node19 -->
<g id="edge19_Node000002_Node000019" class="edge">
<title>Node2&#45;&gt;Node19</title>
<g id="a_edge19_Node000002_Node000019"><a xlink:title=" ">
<path fill="none" stroke="#63b8ff" d="M183.56,-206.09C196.81,-223.59 226.96,-261.15 259,-285.5 263.61,-289 268.81,-292.25 274.02,-295.15"/>
<polygon fill="#63b8ff" stroke="#63b8ff" points="272.79,-298.46 283.27,-299.98 276.03,-292.25 272.79,-298.46"/>
</a>
</g>
</g>
<!-- Node8 -->
<g id="Node000008" class="node">
<title>Node8</title>
<g id="a_Node000008"><a xlink:href="external_8c.html#a028d40421b90c38f68ebfd5acc626f2e" target="_top" xlink:title=" ">
<polygon fill="white" stroke="#666666" points="497,-95 405,-95 405,-76 497,-76 497,-95"/>
<text text-anchor="middle" x="451" y="-83" font-family="Helvetica,sans-Serif" font-size="10.00">func_800C5578</text>
</a>
</g>
</g>
<!-- Node7&#45;&gt;Node8 -->
<g id="edge7_Node000007_Node000008" class="edge">
<title>Node7&#45;&gt;Node8</title>
<g id="a_edge7_Node000007_Node000008"><a xlink:title=" ">
<path fill="none" stroke="#63b8ff" d="M344.2,-112.97C362.17,-108.3 384.02,-102.63 403.19,-97.65"/>
<polygon fill="#63b8ff" stroke="#63b8ff" points="404.13,-101.03 412.93,-95.12 402.37,-94.25 404.13,-101.03"/>
</a>
</g>
</g>
<!-- Node9 -->
<g id="Node000009" class="node">
<title>Node9</title>
<g id="a_Node000009"><a xlink:href="external_8c.html#ac0fb767de7e14a03f1bcfa53f0abd23b" target="_top" xlink:title=" ">
<polygon fill="white" stroke="#666666" points="688,-132 548,-132 548,-113 688,-113 688,-132"/>
<text text-anchor="middle" x="618" y="-120" font-family="Helvetica,sans-Serif" font-size="10.00">delete_sound_from_bank</text>
</a>
</g>
</g>
<!-- Node8&#45;&gt;Node9 -->
<g id="edge8_Node000008_Node000009" class="edge">
<title>Node8&#45;&gt;Node9</title>
<g id="a_edge8_Node000008_Node000009"><a xlink:title=" ">
<path fill="none" stroke="#63b8ff" d="M494.49,-95.03C515.87,-99.82 541.97,-105.68 564.58,-110.75"/>
<polygon fill="#63b8ff" stroke="#63b8ff" points="563.84,-114.17 574.37,-112.94 565.37,-107.34 563.84,-114.17"/>
</a>
</g>
</g>
<!-- Node11 -->
<g id="Node000011" class="node">
<title>Node11</title>
<g id="a_Node000011"><a xlink:href="external_8c.html#ab83bd36e63f0f1baddcb2482b5ad31b0" target="_top" xlink:title=" ">
<polygon fill="white" stroke="#666666" points="664.5,-95 571.5,-95 571.5,-76 664.5,-76 664.5,-95"/>
<text text-anchor="middle" x="618" y="-83" font-family="Helvetica,sans-Serif" font-size="10.00">func_800C41CC</text>
</a>
</g>
</g>
<!-- Node8&#45;&gt;Node11 -->
<g id="edge10_Node000008_Node000011" class="edge">
<title>Node8&#45;&gt;Node11</title>
<g id="a_edge10_Node000008_Node000011"><a xlink:title=" ">
<path fill="none" stroke="#63b8ff" d="M497.09,-85.5C516.93,-85.5 540.44,-85.5 561.36,-85.5"/>
<polygon fill="#63b8ff" stroke="#63b8ff" points="561.39,-89 571.39,-85.5 561.39,-82 561.39,-89"/>
</a>
</g>
</g>
<!-- Node12 -->
<g id="Node000012" class="node">
<title>Node12</title>
<g id="a_Node000012"><a xlink:href="port__eu_8c.html#aa89dfaecca46c6d071f08c1898d1f7c9" target="_top" xlink:title=" ">
<polygon fill="white" stroke="#666666" points="664.5,-58 571.5,-58 571.5,-39 664.5,-39 664.5,-58"/>
<text text-anchor="middle" x="618" y="-46" font-family="Helvetica,sans-Serif" font-size="10.00">func_800CBBE8</text>
</a>
</g>
</g>
<!-- Node8&#45;&gt;Node12 -->
<g id="edge11_Node000008_Node000012" class="edge">
<title>Node8&#45;&gt;Node12</title>
<g id="a_edge11_Node000008_Node000012"><a xlink:title=" ">
<path fill="none" stroke="#63b8ff" d="M494.49,-75.97C515.87,-71.18 541.97,-65.32 564.58,-60.25"/>
<polygon fill="#63b8ff" stroke="#63b8ff" points="565.37,-63.66 574.37,-58.06 563.84,-56.83 565.37,-63.66"/>
</a>
</g>
</g>
<!-- Node10 -->
<g id="Node000010" class="node">
<title>Node10</title>
<g id="a_Node000010"><a xlink:href="external_8c.html#a358ac55e8ab5262dcae8037334be06d7" target="_top" xlink:title=" ">
<polygon fill="white" stroke="#666666" points="816.5,-132 724.5,-132 724.5,-113 816.5,-113 816.5,-132"/>
<text text-anchor="middle" x="770.5" y="-120" font-family="Helvetica,sans-Serif" font-size="10.00">func_800C40F0</text>
</a>
</g>
</g>
<!-- Node9&#45;&gt;Node10 -->
<g id="edge9_Node000009_Node000010" class="edge">
<title>Node9&#45;&gt;Node10</title>
<g id="a_edge9_Node000009_Node000010"><a xlink:title=" ">
<path fill="none" stroke="#63b8ff" d="M688.08,-122.5C696.87,-122.5 705.78,-122.5 714.31,-122.5"/>
<polygon fill="#63b8ff" stroke="#63b8ff" points="714.5,-126 724.5,-122.5 714.5,-119 714.5,-126"/>
</a>
</g>
</g>
<!-- Node13 -->
<g id="Node000013" class="node">
<title>Node13</title>
<g id="a_Node000013"><a xlink:href="port__eu_8c.html#af361a20d2e08f30c53a237ca481ff734" target="_top" xlink:title=" ">
<polygon fill="white" stroke="#666666" points="817,-58 724,-58 724,-39 817,-39 817,-58"/>
<text text-anchor="middle" x="770.5" y="-46" font-family="Helvetica,sans-Serif" font-size="10.00">func_800CBB48</text>
</a>
</g>
</g>
<!-- Node12&#45;&gt;Node13 -->
<g id="edge12_Node000012_Node000013" class="edge">
<title>Node12&#45;&gt;Node13</title>
<g id="a_edge12_Node000012_Node000013"><a xlink:title=" ">
<path fill="none" stroke="#63b8ff" d="M664.56,-48.5C679.96,-48.5 697.34,-48.5 713.46,-48.5"/>
<polygon fill="#63b8ff" stroke="#63b8ff" points="713.83,-52 723.83,-48.5 713.83,-45 713.83,-52"/>
</a>
</g>
</g>
<!-- Node15&#45;&gt;Node3 -->
<g id="edge15_Node000015_Node000003" class="edge">
<title>Node15&#45;&gt;Node3</title>
<g id="a_edge15_Node000015_Node000003"><a xlink:title=" ">
<path fill="none" stroke="#63b8ff" d="M337.96,-336.89C343.51,-334.54 349.09,-331.75 354,-328.5 373.14,-315.85 370.57,-303.7 390,-291.5 394.03,-288.97 398.42,-286.72 402.92,-284.74"/>
<polygon fill="#63b8ff" stroke="#63b8ff" points="404.27,-287.97 412.26,-281.02 401.68,-281.47 404.27,-287.97"/>
</a>
</g>
</g>
<!-- Node16 -->
<g id="Node000016" class="node">
<title>Node16</title>
<g id="a_Node000016"><a xlink:href="HMAS_8cpp.html#a943f713ceca4307e6e1bb48253c6ad6c" target="_top" xlink:title=" ">
<polygon fill="white" stroke="#666666" points="512,-319 390,-319 390,-300 512,-300 512,-319"/>
<text text-anchor="middle" x="451" y="-307" font-family="Helvetica,sans-Serif" font-size="10.00">HMAS_IsIDRegistered</text>
</a>
</g>
</g>
<!-- Node15&#45;&gt;Node16 -->
<g id="edge16_Node000015_Node000016" class="edge">
<title>Node15&#45;&gt;Node16</title>
<g id="a_edge16_Node000015_Node000016"><a xlink:title=" ">
<path fill="none" stroke="#63b8ff" d="M344.2,-336.97C362.17,-332.3 384.02,-326.63 403.19,-321.65"/>
<polygon fill="#63b8ff" stroke="#63b8ff" points="404.13,-325.03 412.93,-319.12 402.37,-318.25 404.13,-325.03"/>
</a>
</g>
</g>
<!-- Node17 -->
<g id="Node000017" class="node">
<title>Node17</title>
<g id="a_Node000017"><a xlink:href="HMAS_8cpp.html#a704c0426d4f7027c277b28346062dff3" target="_top" xlink:title=" ">
<polygon fill="white" stroke="#666666" points="487,-393 415,-393 415,-374 487,-374 487,-393"/>
<text text-anchor="middle" x="451" y="-381" font-family="Helvetica,sans-Serif" font-size="10.00">HMAS_Play</text>
</a>
</g>
</g>
<!-- Node15&#45;&gt;Node17 -->
<g id="edge17_Node000015_Node000017" class="edge">
<title>Node15&#45;&gt;Node17</title>
<g id="a_edge17_Node000015_Node000017"><a xlink:title=" ">
<path fill="none" stroke="#63b8ff" d="M344.2,-356.03C362.74,-360.84 385.39,-366.72 404.98,-371.81"/>
<polygon fill="#63b8ff" stroke="#63b8ff" points="404.34,-375.26 414.9,-374.39 406.1,-368.49 404.34,-375.26"/>
</a>
</g>
</g>
<!-- Node18 -->
<g id="Node000018" class="node">
<title>Node18</title>
<g id="a_Node000018"><a xlink:href="HMAS_8cpp.html#aa651a0e94efa3ddb0a63e1b4233c0aab" target="_top" xlink:title=" ">
<polygon fill="white" stroke="#666666" points="487.5,-356 414.5,-356 414.5,-337 487.5,-337 487.5,-356"/>
<text text-anchor="middle" x="451" y="-344" font-family="Helvetica,sans-Serif" font-size="10.00">HMAS_Stop</text>
</a>
</g>
</g>
<!-- Node15&#45;&gt;Node18 -->
<g id="edge18_Node000015_Node000018" class="edge">
<title>Node15&#45;&gt;Node18</title>
<g id="a_edge18_Node000015_Node000018"><a xlink:title=" ">
<path fill="none" stroke="#63b8ff" d="M351.03,-346.5C367.84,-346.5 387.09,-346.5 404.11,-346.5"/>
<polygon fill="#63b8ff" stroke="#63b8ff" points="404.39,-350 414.39,-346.5 404.39,-343 404.39,-350"/>
</a>
</g>
</g>
<!-- Node20&#45;&gt;Node8 -->
<g id="edge22_Node000020_Node000008" class="edge">
<title>Node20&#45;&gt;Node8</title>
<g id="a_edge22_Node000020_Node000008"><a xlink:title=" ">
<path fill="none" stroke="#63b8ff" d="M223.34,-51.83C259.2,-55.38 309.84,-60.88 354,-67.5 367.23,-69.48 381.42,-71.95 394.73,-74.42"/>
<polygon fill="#63b8ff" stroke="#63b8ff" points="394.22,-77.89 404.7,-76.3 395.52,-71.01 394.22,-77.89"/>
</a>
</g>
</g>
<!-- Node21 -->
<g id="Node000021" class="node">
<title>Node21</title>
<g id="a_Node000021"><a xlink:href="external_8c.html#aeb87c527482a244173df36a1f3d4f446" target="_top" xlink:title=" ">
<polygon fill="white" stroke="#666666" points="352.5,-19 260.5,-19 260.5,0 352.5,0 352.5,-19"/>
<text text-anchor="middle" x="306.5" y="-7" font-family="Helvetica,sans-Serif" font-size="10.00">func_800C21E8</text>
</a>
</g>
</g>
<!-- Node20&#45;&gt;Node21 -->
<g id="edge21_Node000020_Node000021" class="edge">
<title>Node20&#45;&gt;Node21</title>
<g id="a_edge21_Node000020_Node000021"><a xlink:title=" ">
<path fill="none" stroke="#63b8ff" d="M209.05,-37.91C225.4,-33.1 245.41,-27.2 262.96,-22.03"/>
<polygon fill="#63b8ff" stroke="#63b8ff" points="264.35,-25.27 272.96,-19.09 262.38,-18.55 264.35,-25.27"/>
</a>
</g>
</g>
</g>
</svg>
