<?xml version="1.0" encoding="UTF-8" standalone="no"?>
<!DOCTYPE svg PUBLIC "-//W3C//DTD SVG 1.1//EN"
 "http://www.w3.org/Graphics/SVG/1.1/DTD/svg11.dtd">
<!-- Generated by graphviz version 2.43.0 (0)
 -->
<!-- Title: trigger_shroom Pages: 1 -->
<svg width="806pt" height="617pt"
 viewBox="0.00 0.00 806.00 617.00" xmlns="http://www.w3.org/2000/svg" xmlns:xlink="http://www.w3.org/1999/xlink">
<g id="graph0" class="graph" transform="scale(1 1) rotate(0) translate(4 613)">
<title>trigger_shroom</title>
<!-- Node1 -->
<g id="Node000001" class="node">
<title>Node1</title>
<g id="a_Node000001"><a xlink:title=" ">
<polygon fill="#999999" stroke="#666666" points="91,-57 0,-57 0,-38 91,-38 91,-57"/>
<text text-anchor="middle" x="45.5" y="-45" font-family="Helvetica,sans-Serif" font-size="10.00">trigger_shroom</text>
</a>
</g>
</g>
<!-- Node2 -->
<g id="Node000002" class="node">
<title>Node2</title>
<g id="a_Node000002"><a xlink:href="effects_8c.html#aeda67f98b2369b1c3952d9e4eb30b4d1" target="_top" xlink:title=" ">
<polygon fill="white" stroke="#666666" points="211,-350 135,-350 135,-331 211,-331 211,-350"/>
<text text-anchor="middle" x="173" y="-338" font-family="Helvetica,sans-Serif" font-size="10.00">clean_effect</text>
</a>
</g>
</g>
<!-- Node1&#45;&gt;Node2 -->
<g id="edge1_Node000001_Node000002" class="edge">
<title>Node1&#45;&gt;Node2</title>
<g id="a_edge1_Node000001_Node000002"><a xlink:title=" ">
<path fill="none" stroke="#63b8ff" d="M50.68,-57.25C68.65,-99.22 139.64,-264.95 163.85,-321.48"/>
<polygon fill="#63b8ff" stroke="#63b8ff" points="160.65,-322.9 167.81,-330.71 167.09,-320.14 160.65,-322.9"/>
</a>
</g>
</g>
<!-- Node14 -->
<g id="Node000014" class="node">
<title>Node14</title>
<g id="a_Node000014"><a xlink:href="external_8c.html#a2be9efc97a92e19d02aaee90d676acc1" target="_top" xlink:title=" ">
<polygon fill="white" stroke="#666666" points="689.5,-57 597.5,-57 597.5,-38 689.5,-38 689.5,-57"/>
<text text-anchor="middle" x="643.5" y="-45" font-family="Helvetica,sans-Serif" font-size="10.00">func_800C9060</text>
</a>
</g>
</g>
<!-- Node1&#45;&gt;Node14 -->
<g id="edge20_Node000001_Node000014" class="edge">
<title>Node1&#45;&gt;Node14</title>
<g id="a_edge20_Node000001_Node000014"><a xlink:title=" ">
<path fill="none" stroke="#63b8ff" d="M91.3,-47.5C198.51,-47.5 469.67,-47.5 586.99,-47.5"/>
<polygon fill="#63b8ff" stroke="#63b8ff" points="587.18,-51 597.18,-47.5 587.18,-44 587.18,-51"/>
</a>
</g>
</g>
<!-- Node21 -->
<g id="Node000021" class="node">
<title>Node21</title>
<g id="a_Node000021"><a xlink:href="external_8c.html#ac2ab84221b1c229980ad8d150475dbb6" target="_top" xlink:title=" ">
<polygon fill="white" stroke="#666666" points="219,-19 127,-19 127,0 219,0 219,-19"/>
<text text-anchor="middle" x="173" y="-7" font-family="Helvetica,sans-Serif" font-size="10.00">func_800C9250</text>
</a>
</g>
</g>
<!-- Node1&#45;&gt;Node21 -->
<g id="edge21_Node000001_Node000021" class="edge">
<title>Node1&#45;&gt;Node21</title>
<g id="a_edge21_Node000001_Node000021"><a xlink:title=" ">
<path fill="none" stroke="#63b8ff" d="M78.17,-37.91C94.07,-33.1 113.54,-27.2 130.61,-22.03"/>
<polygon fill="#63b8ff" stroke="#63b8ff" points="131.78,-25.33 140.34,-19.09 129.76,-18.63 131.78,-25.33"/>
</a>
</g>
</g>
<!-- Node3 -->
<g id="Node000003" class="node">
<title>Node3</title>
<g id="a_Node000003"><a xlink:href="effects_8c.html#ad164a912d7ef76f24e7b5cfb9169c16f" target="_top" xlink:title=" ">
<polygon fill="white" stroke="#666666" points="380.5,-609 287.5,-609 287.5,-590 380.5,-590 380.5,-609"/>
<text text-anchor="middle" x="334" y="-597" font-family="Helvetica,sans-Serif" font-size="10.00">func_8008C6D0</text>
</a>
</g>
</g>
<!-- Node2&#45;&gt;Node3 -->
<g id="edge2_Node000002_Node000003" class="edge">
<title>Node2&#45;&gt;Node3</title>
<g id="a_edge2_Node000002_Node000003"><a xlink:title=" ">
<path fill="none" stroke="#63b8ff" d="M174.1,-350.08C175.02,-386.36 183.4,-516.56 255,-581.5 261.36,-587.27 269.2,-591.31 277.43,-594.1"/>
<polygon fill="#63b8ff" stroke="#63b8ff" points="276.63,-597.51 287.21,-596.85 278.53,-590.78 276.63,-597.51"/>
</a>
</g>
</g>
<!-- Node4 -->
<g id="Node000004" class="node">
<title>Node4</title>
<g id="a_Node000004"><a xlink:href="effects_8c.html#a105203221e314be241a95e006b62ef80" target="_top" xlink:title=" ">
<polygon fill="white" stroke="#666666" points="380,-572 288,-572 288,-553 380,-553 380,-572"/>
<text text-anchor="middle" x="334" y="-560" font-family="Helvetica,sans-Serif" font-size="10.00">func_8008C8C4</text>
</a>
</g>
</g>
<!-- Node2&#45;&gt;Node4 -->
<g id="edge3_Node000002_Node000004" class="edge">
<title>Node2&#45;&gt;Node4</title>
<g id="a_edge3_Node000002_Node000004"><a xlink:title=" ">
<path fill="none" stroke="#63b8ff" d="M174.79,-350.41C177.96,-383.51 192.86,-491.11 255,-544.5 261.59,-550.16 269.62,-554.13 277.98,-556.9"/>
<polygon fill="#63b8ff" stroke="#63b8ff" points="277.32,-560.35 287.89,-559.63 279.18,-553.6 277.32,-560.35"/>
</a>
</g>
</g>
<!-- Node5 -->
<g id="Node000005" class="node">
<title>Node5</title>
<g id="a_Node000005"><a xlink:href="effects_8c.html#acab450a6af6eca812ad3987a292a5165" target="_top" xlink:title=" ">
<polygon fill="white" stroke="#666666" points="380,-535 288,-535 288,-516 380,-516 380,-535"/>
<text text-anchor="middle" x="334" y="-523" font-family="Helvetica,sans-Serif" font-size="10.00">func_8008D0E4</text>
</a>
</g>
</g>
<!-- Node2&#45;&gt;Node5 -->
<g id="edge4_Node000002_Node000005" class="edge">
<title>Node2&#45;&gt;Node5</title>
<g id="a_edge4_Node000002_Node000005"><a xlink:title=" ">
<path fill="none" stroke="#63b8ff" d="M175.7,-350.24C181.28,-379.15 201.83,-465.12 255,-507.5 261.72,-512.85 269.74,-516.67 278.04,-519.38"/>
<polygon fill="#63b8ff" stroke="#63b8ff" points="277.29,-522.81 287.86,-522.09 279.14,-516.06 277.29,-522.81"/>
</a>
</g>
</g>
<!-- Node6 -->
<g id="Node000006" class="node">
<title>Node6</title>
<g id="a_Node000006"><a xlink:href="effects_8c.html#a663cb8df8b606cf00e361977c9d6d834" target="_top" xlink:title=" ">
<polygon fill="white" stroke="#666666" points="380.5,-498 287.5,-498 287.5,-479 380.5,-479 380.5,-498"/>
<text text-anchor="middle" x="334" y="-486" font-family="Helvetica,sans-Serif" font-size="10.00">func_8008D3B0</text>
</a>
</g>
</g>
<!-- Node2&#45;&gt;Node6 -->
<g id="edge5_Node000002_Node000006" class="edge">
<title>Node2&#45;&gt;Node6</title>
<g id="a_edge5_Node000002_Node000006"><a xlink:title=" ">
<path fill="none" stroke="#63b8ff" d="M177.08,-350.15C185.38,-374.51 210.64,-438.82 255,-470.5 261.67,-475.27 269.41,-478.79 277.38,-481.39"/>
<polygon fill="#63b8ff" stroke="#63b8ff" points="276.57,-484.8 287.14,-484.13 278.46,-478.06 276.57,-484.8"/>
</a>
</g>
</g>
<!-- Node7 -->
<g id="Node000007" class="node">
<title>Node7</title>
<g id="a_Node000007"><a xlink:href="effects_8c.html#a5f19eaaa048055d292d02c717e635786" target="_top" xlink:title=" ">
<polygon fill="white" stroke="#666666" points="380,-461 288,-461 288,-442 380,-442 380,-461"/>
<text text-anchor="middle" x="334" y="-449" font-family="Helvetica,sans-Serif" font-size="10.00">func_8008D760</text>
</a>
</g>
</g>
<!-- Node2&#45;&gt;Node7 -->
<g id="edge6_Node000002_Node000007" class="edge">
<title>Node2&#45;&gt;Node7</title>
<g id="a_edge6_Node000002_Node000007"><a xlink:title=" ">
<path fill="none" stroke="#63b8ff" d="M179.51,-350.17C190.94,-369.3 219.2,-412.01 255,-433.5 262.03,-437.72 269.97,-440.95 278.01,-443.42"/>
<polygon fill="#63b8ff" stroke="#63b8ff" points="277.26,-446.85 287.83,-446.08 279.09,-440.09 277.26,-446.85"/>
</a>
</g>
</g>
<!-- Node8 -->
<g id="Node000008" class="node">
<title>Node8</title>
<g id="a_Node000008"><a xlink:href="effects_8c.html#a4ea2da0616ee3c475e4be217dc0bc71f" target="_top" xlink:title=" ">
<polygon fill="white" stroke="#666666" points="380.5,-424 287.5,-424 287.5,-405 380.5,-405 380.5,-424"/>
<text text-anchor="middle" x="334" y="-412" font-family="Helvetica,sans-Serif" font-size="10.00">func_8008D97C</text>
</a>
</g>
</g>
<!-- Node2&#45;&gt;Node8 -->
<g id="edge7_Node000002_Node000008" class="edge">
<title>Node2&#45;&gt;Node8</title>
<g id="a_edge7_Node000002_Node000008"><a xlink:title=" ">
<path fill="none" stroke="#63b8ff" d="M184.98,-350.14C199.83,-362.68 227.63,-384.41 255,-396.5 262.06,-399.62 269.73,-402.23 277.41,-404.41"/>
<polygon fill="#63b8ff" stroke="#63b8ff" points="276.54,-407.8 287.1,-406.95 278.31,-401.03 276.54,-407.8"/>
</a>
</g>
</g>
<!-- Node9 -->
<g id="Node000009" class="node">
<title>Node9</title>
<g id="a_Node000009"><a xlink:href="effects_8c.html#a4a437d6caeeaa794bcce43ec60c097e9" target="_top" xlink:title=" ">
<polygon fill="white" stroke="#666666" points="379.5,-387 288.5,-387 288.5,-368 379.5,-368 379.5,-387"/>
<text text-anchor="middle" x="334" y="-375" font-family="Helvetica,sans-Serif" font-size="10.00">func_8008E884</text>
</a>
</g>
</g>
<!-- Node2&#45;&gt;Node9 -->
<g id="edge8_Node000002_Node000009" class="edge">
<title>Node2&#45;&gt;Node9</title>
<g id="a_edge8_Node000002_Node000009"><a xlink:title=" ">
<path fill="none" stroke="#63b8ff" d="M211.09,-349.23C224.88,-352.47 240.65,-356.16 255,-359.5 263.65,-361.51 272.85,-363.64 281.78,-365.71"/>
<polygon fill="#63b8ff" stroke="#63b8ff" points="281.17,-369.16 291.7,-368 282.75,-362.34 281.17,-369.16"/>
</a>
</g>
</g>
<!-- Node10 -->
<g id="Node000010" class="node">
<title>Node10</title>
<g id="a_Node000010"><a xlink:href="effects_8c.html#ae02351b6bbb678b552ec8864b47fc56c" target="_top" xlink:title=" ">
<polygon fill="white" stroke="#666666" points="379.5,-350 288.5,-350 288.5,-331 379.5,-331 379.5,-350"/>
<text text-anchor="middle" x="334" y="-338" font-family="Helvetica,sans-Serif" font-size="10.00">func_8008F3E0</text>
</a>
</g>
</g>
<!-- Node2&#45;&gt;Node10 -->
<g id="edge9_Node000002_Node000010" class="edge">
<title>Node2&#45;&gt;Node10</title>
<g id="a_edge9_Node000002_Node000010"><a xlink:title=" ">
<path fill="none" stroke="#63b8ff" d="M211.28,-340.5C231.17,-340.5 256.02,-340.5 278.08,-340.5"/>
<polygon fill="#63b8ff" stroke="#63b8ff" points="278.32,-344 288.32,-340.5 278.32,-337 278.32,-344"/>
</a>
</g>
</g>
<!-- Node11 -->
<g id="Node000011" class="node">
<title>Node11</title>
<g id="a_Node000011"><a xlink:href="effects_8c.html#afcf39ca15166fb7561402462930cd979" target="_top" xlink:title=" ">
<polygon fill="white" stroke="#666666" points="380,-313 288,-313 288,-294 380,-294 380,-313"/>
<text text-anchor="middle" x="334" y="-301" font-family="Helvetica,sans-Serif" font-size="10.00">func_8008F5A4</text>
</a>
</g>
</g>
<!-- Node2&#45;&gt;Node11 -->
<g id="edge10_Node000002_Node000011" class="edge">
<title>Node2&#45;&gt;Node11</title>
<g id="a_edge10_Node000002_Node000011"><a xlink:title=" ">
<path fill="none" stroke="#63b8ff" d="M211.28,-331.83C232.39,-326.91 259.09,-320.7 282.1,-315.34"/>
<polygon fill="#63b8ff" stroke="#63b8ff" points="283.1,-318.71 292.05,-313.03 281.51,-311.89 283.1,-318.71"/>
</a>
</g>
</g>
<!-- Node16 -->
<g id="Node000016" class="node">
<title>Node16</title>
<g id="a_Node000016"><a xlink:href="effects_8c.html#ab6d84742231847170dd64267f0519cdf" target="_top" xlink:title=" ">
<polygon fill="white" stroke="#666666" points="380.5,-276 287.5,-276 287.5,-257 380.5,-257 380.5,-276"/>
<text text-anchor="middle" x="334" y="-264" font-family="Helvetica,sans-Serif" font-size="10.00">func_8008FEDC</text>
</a>
</g>
</g>
<!-- Node2&#45;&gt;Node16 -->
<g id="edge15_Node000002_Node000016" class="edge">
<title>Node2&#45;&gt;Node16</title>
<g id="a_edge15_Node000002_Node000016"><a xlink:title=" ">
<path fill="none" stroke="#63b8ff" d="M185.29,-330.88C200.26,-318.6 227.97,-297.5 255,-285.5 262.08,-282.36 269.75,-279.69 277.44,-277.43"/>
<polygon fill="#63b8ff" stroke="#63b8ff" points="278.41,-280.79 287.13,-274.78 276.56,-274.04 278.41,-280.79"/>
</a>
</g>
</g>
<!-- Node17 -->
<g id="Node000017" class="node">
<title>Node17</title>
<g id="a_Node000017"><a xlink:href="effects_8c.html#a5b9e2c886a5267f2cca1190984277a38" target="_top" xlink:title=" ">
<polygon fill="white" stroke="#666666" points="393.5,-239 274.5,-239 274.5,-220 393.5,-220 393.5,-239"/>
<text text-anchor="middle" x="334" y="-227" font-family="Helvetica,sans-Serif" font-size="10.00">remove_boost_effect</text>
</a>
</g>
</g>
<!-- Node2&#45;&gt;Node17 -->
<g id="edge16_Node000002_Node000017" class="edge">
<title>Node2&#45;&gt;Node17</title>
<g id="a_edge16_Node000002_Node000017"><a xlink:title=" ">
<path fill="none" stroke="#63b8ff" d="M179.56,-330.98C191.08,-312.11 219.49,-269.97 255,-248.5 258.62,-246.31 262.48,-244.37 266.48,-242.66"/>
<polygon fill="#63b8ff" stroke="#63b8ff" points="267.87,-245.87 275.98,-239.05 265.39,-239.33 267.87,-245.87"/>
</a>
</g>
</g>
<!-- Node18 -->
<g id="Node000018" class="node">
<title>Node18</title>
<g id="a_Node000018"><a xlink:href="effects_8c.html#a4768d56263e476d3bac47ee01bac3dc8" target="_top" xlink:title=" ">
<polygon fill="white" stroke="#666666" points="413,-201.5 255,-201.5 255,-171.5 413,-171.5 413,-201.5"/>
<text text-anchor="start" x="263" y="-189.5" font-family="Helvetica,sans-Serif" font-size="10.00">remove_boost_ramp_asphalt</text>
<text text-anchor="middle" x="334" y="-178.5" font-family="Helvetica,sans-Serif" font-size="10.00">_effect</text>
</a>
</g>
</g>
<!-- Node2&#45;&gt;Node18 -->
<g id="edge17_Node000002_Node000018" class="edge">
<title>Node2&#45;&gt;Node18</title>
<g id="a_edge17_Node000002_Node000018"><a xlink:title=" ">
<path fill="none" stroke="#63b8ff" d="M177.39,-330.79C186.25,-306.86 212.39,-244.58 255,-211.5 257.32,-209.7 259.77,-208.03 262.31,-206.48"/>
<polygon fill="#63b8ff" stroke="#63b8ff" points="264.14,-209.47 271.29,-201.64 260.82,-203.3 264.14,-209.47"/>
</a>
</g>
</g>
<!-- Node19 -->
<g id="Node000019" class="node">
<title>Node19</title>
<g id="a_Node000019"><a xlink:href="effects_8c.html#aafe14c45e9b91bb1d409ef2f2bfe5c53" target="_top" xlink:title=" ">
<polygon fill="white" stroke="#666666" points="408.5,-153.5 259.5,-153.5 259.5,-123.5 408.5,-123.5 408.5,-153.5"/>
<text text-anchor="start" x="267.5" y="-141.5" font-family="Helvetica,sans-Serif" font-size="10.00">remove_boost_ramp_wood</text>
<text text-anchor="middle" x="334" y="-130.5" font-family="Helvetica,sans-Serif" font-size="10.00">_effect</text>
</a>
</g>
</g>
<!-- Node2&#45;&gt;Node19 -->
<g id="edge18_Node000002_Node000019" class="edge">
<title>Node2&#45;&gt;Node19</title>
<g id="a_edge18_Node000002_Node000019"><a xlink:title=" ">
<path fill="none" stroke="#63b8ff" d="M175.56,-330.74C180.87,-300.91 200.94,-210.02 255,-162.5 256.35,-161.31 257.76,-160.18 259.23,-159.1"/>
<polygon fill="#63b8ff" stroke="#63b8ff" points="261.46,-161.83 268.06,-153.54 257.73,-155.91 261.46,-161.83"/>
</a>
</g>
</g>
<!-- Node20 -->
<g id="Node000020" class="node">
<title>Node20</title>
<g id="a_Node000020"><a xlink:href="effects_8c.html#a0d5728af3b320b88b01fadef778fcbff" target="_top" xlink:title=" ">
<polygon fill="white" stroke="#666666" points="392.5,-105.5 275.5,-105.5 275.5,-75.5 392.5,-75.5 392.5,-105.5"/>
<text text-anchor="start" x="283.5" y="-93.5" font-family="Helvetica,sans-Serif" font-size="10.00">remove_hit_by_item</text>
<text text-anchor="middle" x="334" y="-82.5" font-family="Helvetica,sans-Serif" font-size="10.00">_effect</text>
</a>
</g>
</g>
<!-- Node2&#45;&gt;Node20 -->
<g id="edge19_Node000002_Node000020" class="edge">
<title>Node2&#45;&gt;Node20</title>
<g id="a_edge19_Node000002_Node000020"><a xlink:title=" ">
<path fill="none" stroke="#63b8ff" d="M174.51,-330.71C176.87,-295.92 189.6,-176.98 255,-114.5 258.38,-111.27 262.18,-108.48 266.23,-106.06"/>
<polygon fill="#63b8ff" stroke="#63b8ff" points="268.15,-109.01 275.46,-101.35 264.97,-102.78 268.15,-109.01"/>
</a>
</g>
</g>
<!-- Node12 -->
<g id="Node000012" class="node">
<title>Node12</title>
<g id="a_Node000012"><a xlink:href="code__80057C60_8c.html#ae28b6eb556910087cea23f0cb7a322bd" target="_top" xlink:title=" ">
<polygon fill="white" stroke="#666666" points="561,-204 449,-204 449,-185 561,-185 561,-204"/>
<text text-anchor="middle" x="505" y="-192" font-family="Helvetica,sans-Serif" font-size="10.00">pop_player_balloon</text>
</a>
</g>
</g>
<!-- Node11&#45;&gt;Node12 -->
<g id="edge11_Node000011_Node000012" class="edge">
<title>Node11&#45;&gt;Node12</title>
<g id="a_edge11_Node000011_Node000012"><a xlink:title=" ">
<path fill="none" stroke="#63b8ff" d="M380.3,-297.51C391.45,-294.86 403.03,-291.02 413,-285.5 446.17,-267.11 475.36,-233.1 491.27,-212.27"/>
<polygon fill="#63b8ff" stroke="#63b8ff" points="494.09,-214.34 497.24,-204.23 488.47,-210.17 494.09,-214.34"/>
</a>
</g>
</g>
<!-- Node13 -->
<g id="Node000013" class="node">
<title>Node13</title>
<g id="a_Node000013"><a xlink:href="effects_8c.html#a1c7552c4a370cc015c2726e40f1fdb06" target="_top" xlink:title=" ">
<polygon fill="white" stroke="#666666" points="690,-204 597,-204 597,-185 690,-185 690,-204"/>
<text text-anchor="middle" x="643.5" y="-192" font-family="Helvetica,sans-Serif" font-size="10.00">func_8008FD4C</text>
</a>
</g>
</g>
<!-- Node12&#45;&gt;Node13 -->
<g id="edge12_Node000012_Node000013" class="edge">
<title>Node12&#45;&gt;Node13</title>
<g id="a_edge12_Node000012_Node000013"><a xlink:title=" ">
<path fill="none" stroke="#63b8ff" d="M561.13,-194.5C569.54,-194.5 578.24,-194.5 586.67,-194.5"/>
<polygon fill="#63b8ff" stroke="#63b8ff" points="586.79,-198 596.79,-194.5 586.79,-191 586.79,-198"/>
</a>
</g>
</g>
<!-- Node12&#45;&gt;Node14 -->
<g id="edge13_Node000012_Node000014" class="edge">
<title>Node12&#45;&gt;Node14</title>
<g id="a_edge13_Node000012_Node000014"><a xlink:title=" ">
<path fill="none" stroke="#63b8ff" d="M514.96,-184.85C537.61,-160.46 597.42,-96.05 626.36,-64.88"/>
<polygon fill="#63b8ff" stroke="#63b8ff" points="629.09,-67.08 633.33,-57.37 623.96,-62.32 629.09,-67.08"/>
</a>
</g>
</g>
<!-- Node15 -->
<g id="Node000015" class="node">
<title>Node15</title>
<g id="a_Node000015"><a xlink:href="external_8c.html#a475cff796211891556f52877cd8e9b9e" target="_top" xlink:title=" ">
<polygon fill="white" stroke="#666666" points="798,-38 726,-38 726,-19 798,-19 798,-38"/>
<text text-anchor="middle" x="762" y="-26" font-family="Helvetica,sans-Serif" font-size="10.00">play_sound</text>
</a>
</g>
</g>
<!-- Node14&#45;&gt;Node15 -->
<g id="edge14_Node000014_Node000015" class="edge">
<title>Node14&#45;&gt;Node15</title>
<g id="a_edge14_Node000014_Node000015"><a xlink:title=" ">
<path fill="none" stroke="#63b8ff" d="M689.54,-40.15C698.19,-38.74 707.26,-37.27 715.91,-35.85"/>
<polygon fill="#63b8ff" stroke="#63b8ff" points="716.53,-39.3 725.83,-34.24 715.4,-32.39 716.53,-39.3"/>
</a>
</g>
</g>
<!-- Node22 -->
<g id="Node000022" class="node">
<title>Node22</title>
<g id="a_Node000022"><a xlink:href="external_8c.html#a337fc3ab94ebb3293a85908229303ac8" target="_top" xlink:title=" ">
<polygon fill="white" stroke="#666666" points="551,-19 459,-19 459,0 551,0 551,-19"/>
<text text-anchor="middle" x="505" y="-7" font-family="Helvetica,sans-Serif" font-size="10.00">func_800C90F4</text>
</a>
</g>
</g>
<!-- Node21&#45;&gt;Node22 -->
<g id="edge22_Node000021_Node000022" class="edge">
<title>Node21&#45;&gt;Node22</title>
<g id="a_edge22_Node000021_Node000022"><a xlink:title=" ">
<path fill="none" stroke="#63b8ff" d="M219.19,-9.5C278.89,-9.5 383.97,-9.5 448.45,-9.5"/>
<polygon fill="#63b8ff" stroke="#63b8ff" points="448.82,-13 458.82,-9.5 448.82,-6 448.82,-13"/>
</a>
</g>
</g>
<!-- Node22&#45;&gt;Node15 -->
<g id="edge23_Node000022_Node000015" class="edge">
<title>Node22&#45;&gt;Node15</title>
<g id="a_edge23_Node000022_Node000015"><a xlink:title=" ">
<path fill="none" stroke="#63b8ff" d="M551,-12.85C597.39,-16.31 669.32,-21.67 715.79,-25.13"/>
<polygon fill="#63b8ff" stroke="#63b8ff" points="715.64,-28.63 725.87,-25.88 716.16,-21.65 715.64,-28.63"/>
</a>
</g>
</g>
</g>
</svg>
