<?xml version="1.0" encoding="UTF-8" standalone="no"?>
<!DOCTYPE svg PUBLIC "-//W3C//DTD SVG 1.1//EN"
 "http://www.w3.org/Graphics/SVG/1.1/DTD/svg11.dtd">
<!-- Generated by graphviz version 2.43.0 (0)
 -->
<!-- Title: func_800C9F90 Pages: 1 -->
<svg width="498pt" height="156pt"
 viewBox="0.00 0.00 498.00 156.00" xmlns="http://www.w3.org/2000/svg" xmlns:xlink="http://www.w3.org/1999/xlink">
<g id="graph0" class="graph" transform="scale(1 1) rotate(0) translate(4 152)">
<title>func_800C9F90</title>
<!-- Node1 -->
<g id="Node000001" class="node">
<title>Node1</title>
<g id="a_Node000001"><a xlink:title=" ">
<polygon fill="#999999" stroke="#666666" points="92,-92 0,-92 0,-73 92,-73 92,-92"/>
<text text-anchor="middle" x="46" y="-80" font-family="Helvetica,sans-Serif" font-size="10.00">func_800C9F90</text>
</a>
</g>
</g>
<!-- Node2 -->
<g id="Node000002" class="node">
<title>Node2</title>
<g id="a_Node000002"><a xlink:href="port__eu_8c.html#a2f381c1caef1bcf98f733bfc2cc8e272" target="_top" xlink:title=" ">
<polygon fill="white" stroke="#666666" points="227,-148 133,-148 133,-129 227,-129 227,-148"/>
<text text-anchor="middle" x="180" y="-136" font-family="Helvetica,sans-Serif" font-size="10.00">func_800CBBB8</text>
</a>
</g>
</g>
<!-- Node1&#45;&gt;Node2 -->
<g id="edge1_Node000001_Node000002" class="edge">
<title>Node1&#45;&gt;Node2</title>
<g id="a_edge1_Node000001_Node000002"><a xlink:title=" ">
<path fill="none" stroke="#63b8ff" d="M66.07,-92.11C82.34,-100.14 106.44,-111.66 128,-120.5 132.17,-122.21 136.57,-123.91 140.96,-125.54"/>
<polygon fill="#63b8ff" stroke="#63b8ff" points="139.89,-128.88 150.49,-129 142.28,-122.3 139.89,-128.88"/>
</a>
</g>
</g>
<!-- Node4 -->
<g id="Node000004" class="node">
<title>Node4</title>
<g id="a_Node000004"><a xlink:href="HMAS_8cpp.html#a73c414770e0086761854237b09428fcf" target="_top" xlink:title=" ">
<polygon fill="white" stroke="#666666" points="227.5,-111 132.5,-111 132.5,-92 227.5,-92 227.5,-111"/>
<text text-anchor="middle" x="180" y="-99" font-family="Helvetica,sans-Serif" font-size="10.00">HMAS_IsPlaying</text>
</a>
</g>
</g>
<!-- Node1&#45;&gt;Node4 -->
<g id="edge3_Node000001_Node000004" class="edge">
<title>Node1&#45;&gt;Node4</title>
<g id="a_edge3_Node000001_Node000004"><a xlink:title=" ">
<path fill="none" stroke="#63b8ff" d="M92.06,-88.99C101.8,-90.39 112.23,-91.89 122.36,-93.35"/>
<polygon fill="#63b8ff" stroke="#63b8ff" points="121.95,-96.82 132.35,-94.78 122.95,-89.9 121.95,-96.82"/>
</a>
</g>
</g>
<!-- Node5 -->
<g id="Node000005" class="node">
<title>Node5</title>
<g id="a_Node000005"><a xlink:href="HMAS_8cpp.html#aa2b5f40f8c35fc5b1ea562aea7be6cb0" target="_top" xlink:title=" ">
<polygon fill="white" stroke="#666666" points="232,-74 128,-74 128,-55 232,-55 232,-74"/>
<text text-anchor="middle" x="180" y="-62" font-family="Helvetica,sans-Serif" font-size="10.00">HMAS_SetVolume</text>
</a>
</g>
</g>
<!-- Node1&#45;&gt;Node5 -->
<g id="edge4_Node000001_Node000005" class="edge">
<title>Node1&#45;&gt;Node5</title>
<g id="a_edge4_Node000001_Node000005"><a xlink:title=" ">
<path fill="none" stroke="#63b8ff" d="M92.06,-76.36C100.32,-75.23 109.08,-74.03 117.73,-72.86"/>
<polygon fill="#63b8ff" stroke="#63b8ff" points="118.36,-76.3 127.79,-71.48 117.41,-69.37 118.36,-76.3"/>
</a>
</g>
</g>
<!-- Node6 -->
<g id="Node000006" class="node">
<title>Node6</title>
<g id="a_Node000006"><a xlink:href="external_8c.html#afadd9eacb33a057bc8c1caaab7ab5a84" target="_top" xlink:title=" ">
<polygon fill="white" stroke="#666666" points="219,-37 141,-37 141,-18 219,-18 219,-37"/>
<text text-anchor="middle" x="180" y="-25" font-family="Helvetica,sans-Serif" font-size="10.00">play_sound2</text>
</a>
</g>
</g>
<!-- Node1&#45;&gt;Node6 -->
<g id="edge5_Node000001_Node000006" class="edge">
<title>Node1&#45;&gt;Node6</title>
<g id="a_edge5_Node000001_Node000006"><a xlink:title=" ">
<path fill="none" stroke="#63b8ff" d="M67.49,-72.97C83.78,-65.5 107.2,-54.99 128,-46.5 132.8,-44.54 137.88,-42.55 142.91,-40.63"/>
<polygon fill="#63b8ff" stroke="#63b8ff" points="144.28,-43.85 152.41,-37.05 141.82,-37.3 144.28,-43.85"/>
</a>
</g>
</g>
<!-- Node3 -->
<g id="Node000003" class="node">
<title>Node3</title>
<g id="a_Node000003"><a xlink:href="port__eu_8c.html#af361a20d2e08f30c53a237ca481ff734" target="_top" xlink:title=" ">
<polygon fill="white" stroke="#666666" points="361,-148 268,-148 268,-129 361,-129 361,-148"/>
<text text-anchor="middle" x="314.5" y="-136" font-family="Helvetica,sans-Serif" font-size="10.00">func_800CBB48</text>
</a>
</g>
</g>
<!-- Node2&#45;&gt;Node3 -->
<g id="edge2_Node000002_Node000003" class="edge">
<title>Node2&#45;&gt;Node3</title>
<g id="a_edge2_Node000002_Node000003"><a xlink:title=" ">
<path fill="none" stroke="#63b8ff" d="M227.34,-138.5C237.19,-138.5 247.69,-138.5 257.85,-138.5"/>
<polygon fill="#63b8ff" stroke="#63b8ff" points="257.85,-142 267.85,-138.5 257.85,-135 257.85,-142"/>
</a>
</g>
</g>
<!-- Node7 -->
<g id="Node000007" class="node">
<title>Node7</title>
<g id="a_Node000007"><a xlink:href="Game_8cpp.html#a545c1a384e93cc7b616dfee707f5d962" target="_top" xlink:title=" ">
<polygon fill="white" stroke="#666666" points="348.5,-56 280.5,-56 280.5,-37 348.5,-37 348.5,-56"/>
<text text-anchor="middle" x="314.5" y="-44" font-family="Helvetica,sans-Serif" font-size="10.00">IsDkJungle</text>
</a>
</g>
</g>
<!-- Node6&#45;&gt;Node7 -->
<g id="edge6_Node000006_Node000007" class="edge">
<title>Node6&#45;&gt;Node7</title>
<g id="a_edge6_Node000006_Node000007"><a xlink:title=" ">
<path fill="none" stroke="#63b8ff" d="M219.32,-33C235.27,-35.28 253.87,-37.95 270.3,-40.31"/>
<polygon fill="#63b8ff" stroke="#63b8ff" points="269.81,-43.77 280.21,-41.73 270.81,-36.84 269.81,-43.77"/>
</a>
</g>
</g>
<!-- Node10 -->
<g id="Node000010" class="node">
<title>Node10</title>
<g id="a_Node000010"><a xlink:href="external_8c.html#a475cff796211891556f52877cd8e9b9e" target="_top" xlink:title=" ">
<polygon fill="white" stroke="#666666" points="350.5,-19 278.5,-19 278.5,0 350.5,0 350.5,-19"/>
<text text-anchor="middle" x="314.5" y="-7" font-family="Helvetica,sans-Serif" font-size="10.00">play_sound</text>
</a>
</g>
</g>
<!-- Node6&#45;&gt;Node10 -->
<g id="edge9_Node000006_Node000010" class="edge">
<title>Node6&#45;&gt;Node10</title>
<g id="a_edge9_Node000006_Node000010"><a xlink:title=" ">
<path fill="none" stroke="#63b8ff" d="M219.32,-22.29C234.62,-20.22 252.35,-17.81 268.27,-15.64"/>
<polygon fill="#63b8ff" stroke="#63b8ff" points="268.99,-19.08 278.43,-14.26 268.05,-12.14 268.99,-19.08"/>
</a>
</g>
</g>
<!-- Node8 -->
<g id="Node000008" class="node">
<title>Node8</title>
<g id="a_Node000008"><a xlink:href="classWorld.html#a1a4dacc6aea0b846df998be0afc239f7" target="_top" xlink:title=" ">
<polygon fill="white" stroke="#666666" points="490,-74 397,-74 397,-55 490,-55 490,-74"/>
<text text-anchor="middle" x="443.5" y="-62" font-family="Helvetica,sans-Serif" font-size="10.00">World::GetTrack</text>
</a>
</g>
</g>
<!-- Node7&#45;&gt;Node8 -->
<g id="edge7_Node000007_Node000008" class="edge">
<title>Node7&#45;&gt;Node8</title>
<g id="a_edge7_Node000007_Node000008"><a xlink:title=" ">
<path fill="none" stroke="#63b8ff" d="M348.54,-51.18C360.13,-52.83 373.51,-54.72 386.47,-56.56"/>
<polygon fill="#63b8ff" stroke="#63b8ff" points="386.33,-60.07 396.72,-58.01 387.31,-53.14 386.33,-60.07"/>
</a>
</g>
</g>
<!-- Node9 -->
<g id="Node000009" class="node">
<title>Node9</title>
<g id="a_Node000009"><a xlink:href="Game_8cpp.html#ae2fa844b3cb1021ecbc357f8ed2ad8cc" target="_top" xlink:title=" ">
<polygon fill="white" stroke="#666666" points="474.5,-37 412.5,-37 412.5,-18 474.5,-18 474.5,-37"/>
<text text-anchor="middle" x="443.5" y="-25" font-family="Helvetica,sans-Serif" font-size="10.00">GetWorld</text>
</a>
</g>
</g>
<!-- Node7&#45;&gt;Node9 -->
<g id="edge8_Node000007_Node000009" class="edge">
<title>Node7&#45;&gt;Node9</title>
<g id="a_edge8_Node000007_Node000009"><a xlink:title=" ">
<path fill="none" stroke="#63b8ff" d="M348.54,-41.56C364.85,-39.12 384.67,-36.15 401.9,-33.57"/>
<polygon fill="#63b8ff" stroke="#63b8ff" points="402.87,-36.97 412.24,-32.03 401.83,-30.05 402.87,-36.97"/>
</a>
</g>
</g>
</g>
</svg>
