<?xml version="1.0" encoding="UTF-8" standalone="no"?>
<!DOCTYPE svg PUBLIC "-//W3C//DTD SVG 1.1//EN"
 "http://www.w3.org/Graphics/SVG/1.1/DTD/svg11.dtd">
<!-- Generated by graphviz version 2.43.0 (0)
 -->
<!-- Title: func_800CA2B8 Pages: 1 -->
<svg width="319pt" height="458pt"
 viewBox="0.00 0.00 319.00 457.50" xmlns="http://www.w3.org/2000/svg" xmlns:xlink="http://www.w3.org/1999/xlink">
<g id="graph0" class="graph" transform="scale(1 1) rotate(0) translate(4 453.5)">
<title>func_800CA2B8</title>
<!-- Node1 -->
<g id="Node000001" class="node">
<title>Node1</title>
<g id="a_Node000001"><a xlink:title=" ">
<polygon fill="#999999" stroke="#666666" points="311,-234 218,-234 218,-215 311,-215 311,-234"/>
<text text-anchor="middle" x="264.5" y="-222" font-family="Helvetica,sans-Serif" font-size="10.00">func_800CA2B8</text>
</a>
</g>
</g>
<!-- Node2 -->
<g id="Node000002" class="node">
<title>Node2</title>
<g id="a_Node000002"><a xlink:href="classBansheeBoardwalk.html#a6d1ee34f6e04a55366766a3a23199040" target="_top" xlink:title=" ">
<polygon fill="white" stroke="#666666" points="174.5,-449.5 7.5,-449.5 7.5,-419.5 174.5,-419.5 174.5,-449.5"/>
<text text-anchor="start" x="15.5" y="-437.5" font-family="Helvetica,sans-Serif" font-size="10.00">BansheeBoardwalk::WhatDoes</text>
<text text-anchor="middle" x="91" y="-426.5" font-family="Helvetica,sans-Serif" font-size="10.00">ThisDo</text>
</a>
</g>
</g>
<!-- Node1&#45;&gt;Node2 -->
<g id="edge1_Node000001_Node000002" class="edge">
<title>Node1&#45;&gt;Node2</title>
<g id="a_edge1_Node000001_Node000002"><a xlink:title=" ">
<path fill="none" stroke="#63b8ff" d="M260.51,-244.68C253.74,-282.95 233.64,-366.18 182,-410.5 178.07,-413.87 173.72,-416.77 169.11,-419.27"/>
<polygon fill="#63b8ff" stroke="#63b8ff" points="264.04,-244.77 262.2,-234.34 257.13,-243.64 264.04,-244.77"/>
</a>
</g>
</g>
<!-- Node3 -->
<g id="Node000003" class="node">
<title>Node3</title>
<g id="a_Node000003"><a xlink:href="classBowsersCastle.html#a64b96045b886d276dd659657c8787be2" target="_top" xlink:title=" ">
<polygon fill="white" stroke="#666666" points="180.5,-401 1.5,-401 1.5,-382 180.5,-382 180.5,-401"/>
<text text-anchor="middle" x="91" y="-389" font-family="Helvetica,sans-Serif" font-size="10.00">BowsersCastle::WhatDoesThisDo</text>
</a>
</g>
</g>
<!-- Node1&#45;&gt;Node3 -->
<g id="edge2_Node000001_Node000003" class="edge">
<title>Node1&#45;&gt;Node3</title>
<g id="a_edge2_Node000001_Node000003"><a xlink:title=" ">
<path fill="none" stroke="#63b8ff" d="M258.61,-244.04C249.43,-276.42 226.42,-340.85 182,-373.5 177.38,-376.9 172.28,-379.7 166.92,-381.99"/>
<polygon fill="#63b8ff" stroke="#63b8ff" points="262.08,-244.6 261.29,-234.03 255.32,-242.79 262.08,-244.6"/>
</a>
</g>
</g>
<!-- Node4 -->
<g id="Node000004" class="node">
<title>Node4</title>
<g id="a_Node000004"><a xlink:href="classChocoMountain.html#a67cd35456871c83d6f7fc68b2fe830a7" target="_top" xlink:title=" ">
<polygon fill="white" stroke="#666666" points="182,-364 0,-364 0,-345 182,-345 182,-364"/>
<text text-anchor="middle" x="91" y="-352" font-family="Helvetica,sans-Serif" font-size="10.00">ChocoMountain::WhatDoesThisDo</text>
</a>
</g>
</g>
<!-- Node1&#45;&gt;Node4 -->
<g id="edge3_Node000001_Node000004" class="edge">
<title>Node1&#45;&gt;Node4</title>
<g id="a_edge3_Node000001_Node000004"><a xlink:title=" ">
<path fill="none" stroke="#63b8ff" d="M255.18,-243.5C242.99,-268.96 217.78,-313.59 182,-336.5 176.77,-339.85 171.04,-342.6 165.09,-344.85"/>
<polygon fill="#63b8ff" stroke="#63b8ff" points="258.47,-244.73 259.47,-234.18 252.11,-241.8 258.47,-244.73"/>
</a>
</g>
</g>
<!-- Node5 -->
<g id="Node000005" class="node">
<title>Node5</title>
<g id="a_Node000005"><a xlink:href="classDKJungle.html#af9fd634e4c942da1d8d2ae05f5493741" target="_top" xlink:title=" ">
<polygon fill="white" stroke="#666666" points="166.5,-327 15.5,-327 15.5,-308 166.5,-308 166.5,-327"/>
<text text-anchor="middle" x="91" y="-315" font-family="Helvetica,sans-Serif" font-size="10.00">DKJungle::WhatDoesThisDo</text>
</a>
</g>
</g>
<!-- Node1&#45;&gt;Node5 -->
<g id="edge4_Node000001_Node000005" class="edge">
<title>Node1&#45;&gt;Node5</title>
<g id="a_edge4_Node000001_Node000005"><a xlink:title=" ">
<path fill="none" stroke="#63b8ff" d="M249.71,-241.84C234.89,-259.23 209.69,-285.41 182,-299.5 175.33,-302.9 168.07,-305.65 160.67,-307.89"/>
<polygon fill="#63b8ff" stroke="#63b8ff" points="252.44,-244.03 256.12,-234.09 247.05,-239.57 252.44,-244.03"/>
</a>
</g>
</g>
<!-- Node6 -->
<g id="Node000006" class="node">
<title>Node6</title>
<g id="a_Node000006"><a xlink:href="classHarbour.html#a07e7854e97200d651e5ddf4683277491" target="_top" xlink:title=" ">
<polygon fill="white" stroke="#666666" points="164,-290 18,-290 18,-271 164,-271 164,-290"/>
<text text-anchor="middle" x="91" y="-278" font-family="Helvetica,sans-Serif" font-size="10.00">Harbour::WhatDoesThisDo</text>
</a>
</g>
</g>
<!-- Node1&#45;&gt;Node6 -->
<g id="edge5_Node000001_Node000006" class="edge">
<title>Node1&#45;&gt;Node6</title>
<g id="a_edge5_Node000001_Node000006"><a xlink:title=" ">
<path fill="none" stroke="#63b8ff" d="M237.12,-238.76C221.48,-246.72 201.04,-256.26 182,-262.5 171.86,-265.83 160.86,-268.64 150.14,-270.99"/>
<polygon fill="#63b8ff" stroke="#63b8ff" points="238.93,-241.77 246.19,-234.06 235.7,-235.56 238.93,-241.77"/>
</a>
</g>
</g>
<!-- Node7 -->
<g id="Node000007" class="node">
<title>Node7</title>
<g id="a_Node000007"><a xlink:href="classLuigiRaceway.html#a3a0a9c605d10a2174c5f796c8358fea8" target="_top" xlink:title=" ">
<polygon fill="white" stroke="#666666" points="177.5,-253 4.5,-253 4.5,-234 177.5,-234 177.5,-253"/>
<text text-anchor="middle" x="91" y="-241" font-family="Helvetica,sans-Serif" font-size="10.00">LuigiRaceway::WhatDoesThisDo</text>
</a>
</g>
</g>
<!-- Node1&#45;&gt;Node7 -->
<g id="edge6_Node000001_Node000007" class="edge">
<title>Node1&#45;&gt;Node7</title>
<g id="a_edge6_Node000001_Node000007"><a xlink:title=" ">
<path fill="none" stroke="#63b8ff" d="M208.05,-230.64C198.28,-231.73 187.91,-232.87 177.54,-234.02"/>
<polygon fill="#63b8ff" stroke="#63b8ff" points="208.44,-234.12 217.99,-229.54 207.67,-227.16 208.44,-234.12"/>
</a>
</g>
</g>
<!-- Node8 -->
<g id="Node000008" class="node">
<title>Node8</title>
<g id="a_Node000008"><a xlink:href="classMarioRaceway.html#a5826ab1c2cd78129cd7a35c3b4d38bb1" target="_top" xlink:title=" ">
<polygon fill="white" stroke="#666666" points="180,-216 2,-216 2,-197 180,-197 180,-216"/>
<text text-anchor="middle" x="91" y="-204" font-family="Helvetica,sans-Serif" font-size="10.00">MarioRaceway::WhatDoesThisDo</text>
</a>
</g>
</g>
<!-- Node1&#45;&gt;Node8 -->
<g id="edge7_Node000001_Node000008" class="edge">
<title>Node1&#45;&gt;Node8</title>
<g id="a_edge7_Node000001_Node000008"><a xlink:title=" ">
<path fill="none" stroke="#63b8ff" d="M207.83,-218.66C198.96,-217.73 189.6,-216.74 180.2,-215.76"/>
<polygon fill="#63b8ff" stroke="#63b8ff" points="207.68,-222.16 217.99,-219.72 208.41,-215.2 207.68,-222.16"/>
</a>
</g>
</g>
<!-- Node9 -->
<g id="Node000009" class="node">
<title>Node9</title>
<g id="a_Node000009"><a xlink:href="classMooMooFarm.html#a428558a75c45fdcc567551b83f9c0c84" target="_top" xlink:title=" ">
<polygon fill="white" stroke="#666666" points="177.5,-179 4.5,-179 4.5,-160 177.5,-160 177.5,-179"/>
<text text-anchor="middle" x="91" y="-167" font-family="Helvetica,sans-Serif" font-size="10.00">MooMooFarm::WhatDoesThisDo</text>
</a>
</g>
</g>
<!-- Node1&#45;&gt;Node9 -->
<g id="edge8_Node000001_Node000009" class="edge">
<title>Node1&#45;&gt;Node9</title>
<g id="a_edge8_Node000001_Node000009"><a xlink:title=" ">
<path fill="none" stroke="#63b8ff" d="M235.79,-210.54C220.28,-203.16 200.41,-194.44 182,-188.5 170.6,-184.82 158.16,-181.67 146.26,-179.05"/>
<polygon fill="#63b8ff" stroke="#63b8ff" points="234.31,-213.71 244.83,-214.92 237.36,-207.41 234.31,-213.71"/>
</a>
</g>
</g>
<!-- Node10 -->
<g id="Node000010" class="node">
<title>Node10</title>
<g id="a_Node000010"><a xlink:href="classPodiumCeremony.html#a91ee738929a067367a12b9d712669daf" target="_top" xlink:title=" ">
<polygon fill="white" stroke="#666666" points="170.5,-141.5 11.5,-141.5 11.5,-111.5 170.5,-111.5 170.5,-141.5"/>
<text text-anchor="start" x="19.5" y="-129.5" font-family="Helvetica,sans-Serif" font-size="10.00">PodiumCeremony::WhatDoes</text>
<text text-anchor="middle" x="91" y="-118.5" font-family="Helvetica,sans-Serif" font-size="10.00">ThisDo</text>
</a>
</g>
</g>
<!-- Node1&#45;&gt;Node10 -->
<g id="edge9_Node000001_Node000010" class="edge">
<title>Node1&#45;&gt;Node10</title>
<g id="a_edge9_Node000001_Node000010"><a xlink:title=" ">
<path fill="none" stroke="#63b8ff" d="M248.5,-207.05C233.33,-190.46 208.39,-165.94 182,-151.5 175.03,-147.69 167.43,-144.42 159.7,-141.62"/>
<polygon fill="#63b8ff" stroke="#63b8ff" points="246.24,-209.78 255.5,-214.91 251.47,-205.12 246.24,-209.78"/>
</a>
</g>
</g>
<!-- Node11 -->
<g id="Node000011" class="node">
<title>Node11</title>
<g id="a_Node000011"><a xlink:href="classRoyalRaceway.html#ac43100a475ef32ea65a746d8c851a5b7" target="_top" xlink:title=" ">
<polygon fill="white" stroke="#666666" points="180,-93 2,-93 2,-74 180,-74 180,-93"/>
<text text-anchor="middle" x="91" y="-81" font-family="Helvetica,sans-Serif" font-size="10.00">RoyalRaceway::WhatDoesThisDo</text>
</a>
</g>
</g>
<!-- Node1&#45;&gt;Node11 -->
<g id="edge10_Node000001_Node000011" class="edge">
<title>Node1&#45;&gt;Node11</title>
<g id="a_edge10_Node000001_Node000011"><a xlink:title=" ">
<path fill="none" stroke="#63b8ff" d="M256.1,-205.06C244.62,-177.64 219.8,-128.08 182,-102.5 176.31,-98.65 170,-95.56 163.42,-93.08"/>
<polygon fill="#63b8ff" stroke="#63b8ff" points="253,-206.73 259.97,-214.7 259.5,-204.12 253,-206.73"/>
</a>
</g>
</g>
<!-- Node12 -->
<g id="Node000012" class="node">
<title>Node12</title>
<g id="a_Node000012"><a xlink:href="classTestTrack.html#a742ed0923757f01299eabef80a481891" target="_top" xlink:title=" ">
<polygon fill="white" stroke="#666666" points="167,-56 15,-56 15,-37 167,-37 167,-56"/>
<text text-anchor="middle" x="91" y="-44" font-family="Helvetica,sans-Serif" font-size="10.00">TestTrack::WhatDoesThisDo</text>
</a>
</g>
</g>
<!-- Node1&#45;&gt;Node12 -->
<g id="edge11_Node000001_Node000012" class="edge">
<title>Node1&#45;&gt;Node12</title>
<g id="a_edge11_Node000001_Node000012"><a xlink:title=" ">
<path fill="none" stroke="#63b8ff" d="M259.2,-204.67C250.73,-170.56 228.5,-101.04 182,-65.5 177.05,-61.72 171.52,-58.65 165.7,-56.16"/>
<polygon fill="#63b8ff" stroke="#63b8ff" points="255.88,-205.83 261.56,-214.78 262.7,-204.24 255.88,-205.83"/>
</a>
</g>
</g>
<!-- Node13 -->
<g id="Node000013" class="node">
<title>Node13</title>
<g id="a_Node000013"><a xlink:href="classToadsTurnpike.html#a4e1f2cdcb97be5a74994e8d6fae249d3" target="_top" xlink:title=" ">
<polygon fill="white" stroke="#666666" points="178.5,-19 3.5,-19 3.5,0 178.5,0 178.5,-19"/>
<text text-anchor="middle" x="91" y="-7" font-family="Helvetica,sans-Serif" font-size="10.00">ToadsTurnpike::WhatDoesThisDo</text>
</a>
</g>
</g>
<!-- Node1&#45;&gt;Node13 -->
<g id="edge12_Node000001_Node000013" class="edge">
<title>Node1&#45;&gt;Node13</title>
<g id="a_edge12_Node000001_Node000013"><a xlink:title=" ">
<path fill="none" stroke="#63b8ff" d="M261.34,-204.91C255.85,-165.1 237.63,-74.63 182,-28.5 177.45,-24.73 172.34,-21.65 166.92,-19.14"/>
<polygon fill="#63b8ff" stroke="#63b8ff" points="257.88,-205.43 262.59,-214.92 264.82,-204.56 257.88,-205.43"/>
</a>
</g>
</g>
</g>
</svg>
