<?xml version="1.0" encoding="UTF-8" standalone="no"?>
<!DOCTYPE svg PUBLIC "-//W3C//DTD SVG 1.1//EN"
 "http://www.w3.org/Graphics/SVG/1.1/DTD/svg11.dtd">
<!-- Generated by graphviz version 2.43.0 (0)
 -->
<!-- Title: src/actors/fake_item_box/render.inc.c Pages: 1 -->
<svg width="788pt" height="324pt"
 viewBox="0.00 0.00 788.00 324.00" xmlns="http://www.w3.org/2000/svg" xmlns:xlink="http://www.w3.org/1999/xlink">
<g id="graph0" class="graph" transform="scale(1 1) rotate(0) translate(4 320)">
<title>src/actors/fake_item_box/render.inc.c</title>
<!-- Node1 -->
<g id="Node000001" class="node">
<title>Node1</title>
<g id="a_Node000001"><a xlink:title=" ">
<polygon fill="#999999" stroke="#666666" points="491,-316 375,-316 375,-286 491,-286 491,-316"/>
<text text-anchor="start" x="383" y="-304" font-family="Helvetica,sans-Serif" font-size="10.00">src/actors/fake_item</text>
<text text-anchor="middle" x="433" y="-293" font-family="Helvetica,sans-Serif" font-size="10.00">_box/render.inc.c</text>
</a>
</g>
</g>
<!-- Node2 -->
<g id="Node000002" class="node">
<title>Node2</title>
<g id="a_Node000002"><a xlink:href="actors_8h.html" target="_top" xlink:title=" ">
<polygon fill="white" stroke="#666666" points="378,-250 322,-250 322,-231 378,-231 378,-250"/>
<text text-anchor="middle" x="350" y="-238" font-family="Helvetica,sans-Serif" font-size="10.00">actors.h</text>
</a>
</g>
</g>
<!-- Node1&#45;&gt;Node2 -->
<g id="edge1_Node000001_Node000002" class="edge">
<title>Node1&#45;&gt;Node2</title>
<g id="a_edge1_Node000001_Node000002"><a xlink:title=" ">
<path fill="none" stroke="#63b8ff" d="M412.91,-285.84C400.12,-276.83 383.6,-265.18 370.7,-256.09"/>
<polygon fill="#63b8ff" stroke="#63b8ff" points="372.63,-253.17 362.44,-250.27 368.59,-258.89 372.63,-253.17"/>
</a>
</g>
</g>
<!-- Node9 -->
<g id="Node000009" class="node">
<title>Node9</title>
<g id="a_Node000009"><a xlink:href="code__800029B0_8h.html" target="_top" xlink:title=" ">
<polygon fill="white" stroke="#666666" points="298.5,-195 195.5,-195 195.5,-176 298.5,-176 298.5,-195"/>
<text text-anchor="middle" x="247" y="-183" font-family="Helvetica,sans-Serif" font-size="10.00">code_800029B0.h</text>
</a>
</g>
</g>
<!-- Node1&#45;&gt;Node9 -->
<g id="edge20_Node000001_Node000009" class="edge">
<title>Node1&#45;&gt;Node9</title>
<g id="a_edge20_Node000001_Node000009"><a xlink:title=" ">
<path fill="none" stroke="#63b8ff" d="M388.57,-285.97C365.06,-277.46 336.31,-265.29 313,-250 292.96,-236.86 273.64,-217.18 261.14,-203.22"/>
<polygon fill="#63b8ff" stroke="#63b8ff" points="263.5,-200.6 254.29,-195.37 258.23,-205.21 263.5,-200.6"/>
</a>
</g>
</g>
<!-- Node12 -->
<g id="Node000012" class="node">
<title>Node12</title>
<g id="a_Node000012"><a xlink:title=" ">
<polygon fill="#e0e0e0" stroke="#999999" points="780,-134.5 702,-134.5 702,-115.5 780,-115.5 780,-134.5"/>
<text text-anchor="middle" x="741" y="-122.5" font-family="Helvetica,sans-Serif" font-size="10.00">libultra/gbi.h</text>
</a>
</g>
</g>
<!-- Node1&#45;&gt;Node12 -->
<g id="edge21_Node000001_Node000012" class="edge">
<title>Node1&#45;&gt;Node12</title>
<g id="a_edge21_Node000001_Node000012"><a xlink:title=" ">
<path fill="none" stroke="#63b8ff" d="M470.97,-285.95C517.2,-268.05 596.79,-234.63 659,-195 683.59,-179.34 708.8,-157 724.65,-142.02"/>
<polygon fill="#63b8ff" stroke="#63b8ff" points="727.25,-144.39 732.04,-134.94 722.4,-139.33 727.25,-144.39"/>
</a>
</g>
</g>
<!-- Node13 -->
<g id="Node000013" class="node">
<title>Node13</title>
<g id="a_Node000013"><a xlink:href="main_8h.html" target="_top" xlink:title=" ">
<polygon fill="white" stroke="#666666" points="458,-250 408,-250 408,-231 458,-231 458,-250"/>
<text text-anchor="middle" x="433" y="-238" font-family="Helvetica,sans-Serif" font-size="10.00">main.h</text>
</a>
</g>
</g>
<!-- Node1&#45;&gt;Node13 -->
<g id="edge22_Node000001_Node000013" class="edge">
<title>Node1&#45;&gt;Node13</title>
<g id="a_edge22_Node000001_Node000013"><a xlink:title=" ">
<path fill="none" stroke="#63b8ff" d="M433,-285.84C433,-278.21 433,-268.7 433,-260.45"/>
<polygon fill="#63b8ff" stroke="#63b8ff" points="436.5,-260.27 433,-250.27 429.5,-260.27 436.5,-260.27"/>
</a>
</g>
</g>
<!-- Node17 -->
<g id="Node000017" class="node">
<title>Node17</title>
<g id="a_Node000017"><a xlink:href="FrameInterpolation_8h.html" target="_top" xlink:title=" ">
<polygon fill="white" stroke="#666666" points="574,-140 452,-140 452,-110 574,-110 574,-140"/>
<text text-anchor="start" x="460" y="-128" font-family="Helvetica,sans-Serif" font-size="10.00">port/interpolation</text>
<text text-anchor="middle" x="513" y="-117" font-family="Helvetica,sans-Serif" font-size="10.00">/FrameInterpolation.h</text>
</a>
</g>
</g>
<!-- Node1&#45;&gt;Node17 -->
<g id="edge29_Node000001_Node000017" class="edge">
<title>Node1&#45;&gt;Node17</title>
<g id="a_edge29_Node000001_Node000017"><a xlink:title=" ">
<path fill="none" stroke="#63b8ff" d="M444.09,-285.7C451.27,-276.01 460.46,-262.69 467,-250 484.21,-216.64 498.2,-175.32 506.06,-149.81"/>
<polygon fill="#63b8ff" stroke="#63b8ff" points="509.41,-150.81 508.95,-140.23 502.71,-148.79 509.41,-150.81"/>
</a>
</g>
</g>
<!-- Node3 -->
<g id="Node000003" class="node">
<title>Node3</title>
<g id="a_Node000003"><a xlink:href="actor__types_8h.html" target="_top" xlink:title=" ">
<polygon fill="white" stroke="#666666" points="315.5,-134.5 232.5,-134.5 232.5,-115.5 315.5,-115.5 315.5,-134.5"/>
<text text-anchor="middle" x="274" y="-122.5" font-family="Helvetica,sans-Serif" font-size="10.00">actor_types.h</text>
</a>
</g>
</g>
<!-- Node2&#45;&gt;Node3 -->
<g id="edge2_Node000002_Node000003" class="edge">
<title>Node2&#45;&gt;Node3</title>
<g id="a_edge2_Node000002_Node000003"><a xlink:title=" ">
<path fill="none" stroke="#63b8ff" d="M344.29,-230.97C331.8,-212.32 301.87,-167.61 285.38,-142.99"/>
<polygon fill="#63b8ff" stroke="#63b8ff" points="288.25,-140.99 279.78,-134.63 282.43,-144.89 288.25,-140.99"/>
</a>
</g>
</g>
<!-- Node2&#45;&gt;Node9 -->
<g id="edge10_Node000002_Node000009" class="edge">
<title>Node2&#45;&gt;Node9</title>
<g id="a_edge10_Node000002_Node000009"><a xlink:title=" ">
<path fill="none" stroke="#63b8ff" d="M333.45,-230.98C317.11,-222.57 291.87,-209.59 272.87,-199.81"/>
<polygon fill="#63b8ff" stroke="#63b8ff" points="274.34,-196.63 263.85,-195.17 271.14,-202.86 274.34,-196.63"/>
</a>
</g>
</g>
<!-- Node10 -->
<g id="Node000010" class="node">
<title>Node10</title>
<g id="a_Node000010"><a xlink:href="camera_8h.html" target="_top" xlink:title=" ">
<polygon fill="white" stroke="#666666" points="396,-134.5 334,-134.5 334,-115.5 396,-115.5 396,-134.5"/>
<text text-anchor="middle" x="365" y="-122.5" font-family="Helvetica,sans-Serif" font-size="10.00">camera.h</text>
</a>
</g>
</g>
<!-- Node2&#45;&gt;Node10 -->
<g id="edge19_Node000002_Node000010" class="edge">
<title>Node2&#45;&gt;Node10</title>
<g id="a_edge19_Node000002_Node000010"><a xlink:title=" ">
<path fill="none" stroke="#63b8ff" d="M351.13,-230.97C353.54,-212.73 359.24,-169.57 362.54,-144.64"/>
<polygon fill="#63b8ff" stroke="#63b8ff" points="366.02,-145 363.86,-134.63 359.08,-144.09 366.02,-145"/>
</a>
</g>
</g>
<!-- Node4 -->
<g id="Node000004" class="node">
<title>Node4</title>
<g id="a_Node000004"><a xlink:title=" ">
<polygon fill="#e0e0e0" stroke="#999999" points="389,-19 309,-19 309,0 389,0 389,-19"/>
<text text-anchor="middle" x="349" y="-7" font-family="Helvetica,sans-Serif" font-size="10.00">libultraship.h</text>
</a>
</g>
</g>
<!-- Node3&#45;&gt;Node4 -->
<g id="edge3_Node000003_Node000004" class="edge">
<title>Node3&#45;&gt;Node4</title>
<g id="a_edge3_Node000003_Node000004"><a xlink:title=" ">
<path fill="none" stroke="#63b8ff" d="M280.82,-115.34C288.45,-105.51 301.05,-88.91 311,-74 321.11,-58.84 331.68,-40.98 339.1,-28.07"/>
<polygon fill="#63b8ff" stroke="#63b8ff" points="342.2,-29.72 344.1,-19.29 336.11,-26.25 342.2,-29.72"/>
</a>
</g>
</g>
<!-- Node5 -->
<g id="Node000005" class="node">
<title>Node5</title>
<g id="a_Node000005"><a xlink:href="macros_8h.html" target="_top" xlink:title=" ">
<polygon fill="white" stroke="#666666" points="62,-74 0,-74 0,-55 62,-55 62,-74"/>
<text text-anchor="middle" x="31" y="-62" font-family="Helvetica,sans-Serif" font-size="10.00">macros.h</text>
</a>
</g>
</g>
<!-- Node3&#45;&gt;Node5 -->
<g id="edge4_Node000003_Node000005" class="edge">
<title>Node3&#45;&gt;Node5</title>
<g id="a_edge4_Node000003_Node000005"><a xlink:title=" ">
<path fill="none" stroke="#63b8ff" d="M238.67,-115.49C194.4,-104.84 118.68,-86.61 71.93,-75.35"/>
<polygon fill="#63b8ff" stroke="#63b8ff" points="72.68,-71.93 62.13,-73 71.04,-78.74 72.68,-71.93"/>
</a>
</g>
</g>
<!-- Node7 -->
<g id="Node000007" class="node">
<title>Node7</title>
<g id="a_Node000007"><a xlink:href="common__structs_8h.html" target="_top" xlink:title=" ">
<polygon fill="white" stroke="#666666" points="503.5,-74 396.5,-74 396.5,-55 503.5,-55 503.5,-74"/>
<text text-anchor="middle" x="450" y="-62" font-family="Helvetica,sans-Serif" font-size="10.00">common_structs.h</text>
</a>
</g>
</g>
<!-- Node3&#45;&gt;Node7 -->
<g id="edge7_Node000003_Node000007" class="edge">
<title>Node3&#45;&gt;Node7</title>
<g id="a_edge7_Node000003_Node000007"><a xlink:title=" ">
<path fill="none" stroke="#63b8ff" d="M299.59,-115.49C329.96,-105.4 380.76,-88.51 414.82,-77.19"/>
<polygon fill="#63b8ff" stroke="#63b8ff" points="415.99,-80.49 424.38,-74.02 413.78,-73.85 415.99,-80.49"/>
</a>
</g>
</g>
<!-- Node8 -->
<g id="Node000008" class="node">
<title>Node8</title>
<g id="a_Node000008"><a xlink:title=" ">
<polygon fill="#e0e0e0" stroke="#999999" points="302,-74 246,-74 246,-55 302,-55 302,-74"/>
<text text-anchor="middle" x="274" y="-62" font-family="Helvetica,sans-Serif" font-size="10.00">assert.h</text>
</a>
</g>
</g>
<!-- Node3&#45;&gt;Node8 -->
<g id="edge9_Node000003_Node000008" class="edge">
<title>Node3&#45;&gt;Node8</title>
<g id="a_edge9_Node000003_Node000008"><a xlink:title=" ">
<path fill="none" stroke="#63b8ff" d="M274,-115.37C274,-107.25 274,-94.81 274,-84.39"/>
<polygon fill="#63b8ff" stroke="#63b8ff" points="277.5,-84.17 274,-74.17 270.5,-84.17 277.5,-84.17"/>
</a>
</g>
</g>
<!-- Node5&#45;&gt;Node4 -->
<g id="edge6_Node000005_Node000004" class="edge">
<title>Node5&#45;&gt;Node4</title>
<g id="a_edge6_Node000005_Node000004"><a xlink:title=" ">
<path fill="none" stroke="#63b8ff" d="M62.45,-57.45C67,-56.61 71.61,-55.77 76,-55 153.53,-41.36 243.72,-26.94 298.55,-18.33"/>
<polygon fill="#63b8ff" stroke="#63b8ff" points="299.37,-21.75 308.7,-16.74 298.28,-14.83 299.37,-21.75"/>
</a>
</g>
</g>
<!-- Node6 -->
<g id="Node000006" class="node">
<title>Node6</title>
<g id="a_Node000006"><a xlink:href="math_8h.html" target="_top" xlink:title=" ">
<polygon fill="white" stroke="#666666" points="56.5,-19 5.5,-19 5.5,0 56.5,0 56.5,-19"/>
<text text-anchor="middle" x="31" y="-7" font-family="Helvetica,sans-Serif" font-size="10.00">math.h</text>
</a>
</g>
</g>
<!-- Node5&#45;&gt;Node6 -->
<g id="edge5_Node000005_Node000006" class="edge">
<title>Node5&#45;&gt;Node6</title>
<g id="a_edge5_Node000005_Node000006"><a xlink:title=" ">
<path fill="none" stroke="#63b8ff" d="M31,-54.75C31,-47.8 31,-37.85 31,-29.13"/>
<polygon fill="#63b8ff" stroke="#63b8ff" points="34.5,-29.09 31,-19.09 27.5,-29.09 34.5,-29.09"/>
</a>
</g>
</g>
<!-- Node7&#45;&gt;Node4 -->
<g id="edge8_Node000007_Node000004" class="edge">
<title>Node7&#45;&gt;Node4</title>
<g id="a_edge8_Node000007_Node000004"><a xlink:title=" ">
<path fill="none" stroke="#63b8ff" d="M433.77,-54.98C417.82,-46.61 393.22,-33.7 374.62,-23.95"/>
<polygon fill="#63b8ff" stroke="#63b8ff" points="376,-20.72 365.52,-19.17 372.75,-26.92 376,-20.72"/>
</a>
</g>
</g>
<!-- Node9&#45;&gt;Node3 -->
<g id="edge13_Node000009_Node000003" class="edge">
<title>Node9&#45;&gt;Node3</title>
<g id="a_edge13_Node000009_Node000003"><a xlink:title=" ">
<path fill="none" stroke="#63b8ff" d="M250.98,-175.87C254.85,-167.49 260.84,-154.51 265.74,-143.89"/>
<polygon fill="#63b8ff" stroke="#63b8ff" points="268.99,-145.21 270,-134.67 262.63,-142.28 268.99,-145.21"/>
</a>
</g>
</g>
<!-- Node9&#45;&gt;Node4 -->
<g id="edge12_Node000009_Node000004" class="edge">
<title>Node9&#45;&gt;Node4</title>
<g id="a_edge12_Node000009_Node000004"><a xlink:title=" ">
<path fill="none" stroke="#63b8ff" d="M224.05,-175.87C174.85,-156.14 66.98,-105.52 109,-55 132.61,-26.61 235.33,-16.25 298.48,-12.53"/>
<polygon fill="#63b8ff" stroke="#63b8ff" points="298.85,-16.01 308.64,-11.97 298.46,-9.02 298.85,-16.01"/>
</a>
</g>
</g>
<!-- Node9&#45;&gt;Node5 -->
<g id="edge11_Node000009_Node000005" class="edge">
<title>Node9&#45;&gt;Node5</title>
<g id="a_edge11_Node000009_Node000005"><a xlink:title=" ">
<path fill="none" stroke="#63b8ff" d="M195.47,-181.29C159.02,-176.74 110.67,-165.87 76,-140 56.84,-125.71 44.18,-100.64 37.3,-83.56"/>
<polygon fill="#63b8ff" stroke="#63b8ff" points="40.55,-82.26 33.76,-74.13 34,-84.72 40.55,-82.26"/>
</a>
</g>
</g>
<!-- Node9&#45;&gt;Node10 -->
<g id="edge14_Node000009_Node000010" class="edge">
<title>Node9&#45;&gt;Node10</title>
<g id="a_edge14_Node000009_Node000010"><a xlink:title=" ">
<path fill="none" stroke="#63b8ff" d="M264.16,-175.99C283.73,-166.29 315.97,-150.31 338.72,-139.03"/>
<polygon fill="#63b8ff" stroke="#63b8ff" points="340.42,-142.09 347.82,-134.52 337.31,-135.82 340.42,-142.09"/>
</a>
</g>
</g>
<!-- Node11 -->
<g id="Node000011" class="node">
<title>Node11</title>
<g id="a_Node000011"><a xlink:href="CoreMath_8h.html" target="_top" xlink:title=" ">
<polygon fill="white" stroke="#666666" points="227.5,-74 118.5,-74 118.5,-55 227.5,-55 227.5,-74"/>
<text text-anchor="middle" x="173" y="-62" font-family="Helvetica,sans-Serif" font-size="10.00">engine/CoreMath.h</text>
</a>
</g>
</g>
<!-- Node9&#45;&gt;Node11 -->
<g id="edge17_Node000009_Node000011" class="edge">
<title>Node9&#45;&gt;Node11</title>
<g id="a_edge17_Node000009_Node000011"><a xlink:title=" ">
<path fill="none" stroke="#63b8ff" d="M241.68,-175.94C229.63,-156.57 200.06,-109.02 183.93,-83.08"/>
<polygon fill="#63b8ff" stroke="#63b8ff" points="186.73,-80.95 178.47,-74.3 180.78,-84.64 186.73,-80.95"/>
</a>
</g>
</g>
<!-- Node10&#45;&gt;Node4 -->
<g id="edge15_Node000010_Node000004" class="edge">
<title>Node10&#45;&gt;Node4</title>
<g id="a_edge15_Node000010_Node000004"><a xlink:title=" ">
<path fill="none" stroke="#63b8ff" d="M363.8,-115.47C361.23,-97.23 355.14,-54.07 351.63,-29.14"/>
<polygon fill="#63b8ff" stroke="#63b8ff" points="355.08,-28.54 350.22,-19.13 348.15,-29.52 355.08,-28.54"/>
</a>
</g>
</g>
<!-- Node10&#45;&gt;Node7 -->
<g id="edge16_Node000010_Node000007" class="edge">
<title>Node10&#45;&gt;Node7</title>
<g id="a_edge16_Node000010_Node000007"><a xlink:title=" ">
<path fill="none" stroke="#63b8ff" d="M377.54,-115.37C391.1,-106.04 412.94,-91.01 429.1,-79.88"/>
<polygon fill="#63b8ff" stroke="#63b8ff" points="431.15,-82.72 437.41,-74.17 427.18,-76.95 431.15,-82.72"/>
</a>
</g>
</g>
<!-- Node11&#45;&gt;Node4 -->
<g id="edge18_Node000011_Node000004" class="edge">
<title>Node11&#45;&gt;Node4</title>
<g id="a_edge18_Node000011_Node000004"><a xlink:title=" ">
<path fill="none" stroke="#63b8ff" d="M201.28,-54.98C230.95,-46.05 277.79,-31.94 310.75,-22.02"/>
<polygon fill="#63b8ff" stroke="#63b8ff" points="311.93,-25.32 320.5,-19.08 309.92,-18.61 311.93,-25.32"/>
</a>
</g>
</g>
<!-- Node13&#45;&gt;Node7 -->
<g id="edge28_Node000013_Node000007" class="edge">
<title>Node13&#45;&gt;Node7</title>
<g id="a_edge28_Node000013_Node000007"><a xlink:title=" ">
<path fill="none" stroke="#63b8ff" d="M433.42,-230.99C434.51,-210.25 437.68,-155.47 443,-110 444,-101.45 445.44,-92.02 446.75,-84.05"/>
<polygon fill="#63b8ff" stroke="#63b8ff" points="450.23,-84.45 448.46,-74 443.33,-83.27 450.23,-84.45"/>
</a>
</g>
</g>
<!-- Node14 -->
<g id="Node000014" class="node">
<title>Node14</title>
<g id="a_Node000014"><a xlink:href="mk64_8h.html" target="_top" xlink:title=" ">
<polygon fill="white" stroke="#666666" points="649.5,-195 596.5,-195 596.5,-176 649.5,-176 649.5,-195"/>
<text text-anchor="middle" x="623" y="-183" font-family="Helvetica,sans-Serif" font-size="10.00">mk64.h</text>
</a>
</g>
</g>
<!-- Node13&#45;&gt;Node14 -->
<g id="edge23_Node000013_Node000014" class="edge">
<title>Node13&#45;&gt;Node14</title>
<g id="a_edge23_Node000013_Node000014"><a xlink:title=" ">
<path fill="none" stroke="#63b8ff" d="M458.23,-232.46C491.08,-223.3 548.73,-207.22 586.39,-196.71"/>
<polygon fill="#63b8ff" stroke="#63b8ff" points="587.75,-199.97 596.44,-193.91 585.87,-193.22 587.75,-199.97"/>
</a>
</g>
</g>
<!-- Node14&#45;&gt;Node4 -->
<g id="edge24_Node000014_Node000004" class="edge">
<title>Node14&#45;&gt;Node4</title>
<g id="a_edge24_Node000014_Node000004"><a xlink:title=" ">
<path fill="none" stroke="#63b8ff" d="M619.82,-175.93C610.39,-151.91 580.13,-83.87 530,-55 489.63,-31.75 437.42,-20.58 399.46,-15.25"/>
<polygon fill="#63b8ff" stroke="#63b8ff" points="399.52,-11.73 389.15,-13.9 398.61,-18.67 399.52,-11.73"/>
</a>
</g>
</g>
<!-- Node14&#45;&gt;Node12 -->
<g id="edge27_Node000014_Node000012" class="edge">
<title>Node14&#45;&gt;Node12</title>
<g id="a_edge27_Node000014_Node000012"><a xlink:title=" ">
<path fill="none" stroke="#63b8ff" d="M640.16,-175.99C659.73,-166.29 691.97,-150.31 714.72,-139.03"/>
<polygon fill="#63b8ff" stroke="#63b8ff" points="716.42,-142.09 723.82,-134.52 713.31,-135.82 716.42,-142.09"/>
</a>
</g>
</g>
<!-- Node15 -->
<g id="Node000015" class="node">
<title>Node15</title>
<g id="a_Node000015"><a xlink:href="string_8h.html" target="_top" xlink:title=" ">
<polygon fill="white" stroke="#666666" points="683.5,-134.5 630.5,-134.5 630.5,-115.5 683.5,-115.5 683.5,-134.5"/>
<text text-anchor="middle" x="657" y="-122.5" font-family="Helvetica,sans-Serif" font-size="10.00">string.h</text>
</a>
</g>
</g>
<!-- Node14&#45;&gt;Node15 -->
<g id="edge25_Node000014_Node000015" class="edge">
<title>Node14&#45;&gt;Node15</title>
<g id="a_edge25_Node000014_Node000015"><a xlink:title=" ">
<path fill="none" stroke="#63b8ff" d="M628.02,-175.87C632.94,-167.4 640.59,-154.24 646.79,-143.57"/>
<polygon fill="#63b8ff" stroke="#63b8ff" points="649.96,-145.07 651.96,-134.67 643.91,-141.55 649.96,-145.07"/>
</a>
</g>
</g>
<!-- Node16 -->
<g id="Node000016" class="node">
<title>Node16</title>
<g id="a_Node000016"><a xlink:title=" ">
<polygon fill="#e0e0e0" stroke="#999999" points="720,-74 630,-74 630,-55 720,-55 720,-74"/>
<text text-anchor="middle" x="675" y="-62" font-family="Helvetica,sans-Serif" font-size="10.00">libultra/types.h</text>
</a>
</g>
</g>
<!-- Node15&#45;&gt;Node16 -->
<g id="edge26_Node000015_Node000016" class="edge">
<title>Node15&#45;&gt;Node16</title>
<g id="a_edge26_Node000015_Node000016"><a xlink:title=" ">
<path fill="none" stroke="#63b8ff" d="M659.66,-115.37C662.18,-107.16 666.06,-94.54 669.29,-84.05"/>
<polygon fill="#63b8ff" stroke="#63b8ff" points="672.74,-84.75 672.33,-74.17 666.05,-82.7 672.74,-84.75"/>
</a>
</g>
</g>
<!-- Node17&#45;&gt;Node4 -->
<g id="edge30_Node000017_Node000004" class="edge">
<title>Node17&#45;&gt;Node4</title>
<g id="a_edge30_Node000017_Node000004"><a xlink:title=" ">
<path fill="none" stroke="#63b8ff" d="M517.55,-109.99C521.54,-94.83 525.01,-70.7 513,-55 499.15,-36.89 442.21,-24.42 399.28,-17.39"/>
<polygon fill="#63b8ff" stroke="#63b8ff" points="399.68,-13.91 389.26,-15.8 398.59,-20.82 399.68,-13.91"/>
</a>
</g>
</g>
<!-- Node17&#45;&gt;Node7 -->
<g id="edge31_Node000017_Node000007" class="edge">
<title>Node17&#45;&gt;Node7</title>
<g id="a_edge31_Node000017_Node000007"><a xlink:title=" ">
<path fill="none" stroke="#63b8ff" d="M497.75,-109.84C488.42,-101.17 476.47,-90.08 466.85,-81.15"/>
<polygon fill="#63b8ff" stroke="#63b8ff" points="469.15,-78.51 459.44,-74.27 464.39,-83.64 469.15,-78.51"/>
</a>
</g>
</g>
</g>
</svg>
