<?xml version="1.0" encoding="UTF-8" standalone="no"?>
<!DOCTYPE svg PUBLIC "-//W3C//DTD SVG 1.1//EN"
 "http://www.w3.org/Graphics/SVG/1.1/DTD/svg11.dtd">
<!-- Generated by graphviz version 2.43.0 (0)
 -->
<!-- Title: FB_DrawFromFramebufferScaled Pages: 1 -->
<svg width="948pt" height="140pt"
 viewBox="0.00 0.00 948.00 140.00" xmlns="http://www.w3.org/2000/svg" xmlns:xlink="http://www.w3.org/1999/xlink">
<g id="graph0" class="graph" transform="scale(1 1) rotate(0) translate(4 136)">
<title>FB_DrawFromFramebufferScaled</title>
<!-- Node1 -->
<g id="Node000001" class="node">
<title>Node1</title>
<g id="a_Node000001"><a xlink:title=" ">
<polygon fill="#999999" stroke="#666666" points="176,-75 0,-75 0,-56 176,-56 176,-75"/>
<text text-anchor="middle" x="88" y="-63" font-family="Helvetica,sans-Serif" font-size="10.00">FB_DrawFromFramebufferScaled</text>
</a>
</g>
</g>
<!-- Node2 -->
<g id="Node000002" class="node">
<title>Node2</title>
<g id="a_Node000002"><a xlink:href="Engine_8cpp.html#a74cff0dc9810ca52110d05e078ed8a53" target="_top" xlink:title=" ">
<polygon fill="white" stroke="#666666" points="818,-132 668,-132 668,-113 818,-113 818,-132"/>
<text text-anchor="middle" x="743" y="-120" font-family="Helvetica,sans-Serif" font-size="10.00">OTRGetGameRenderHeight</text>
</a>
</g>
</g>
<!-- Node1&#45;&gt;Node2 -->
<g id="edge1_Node000001_Node000002" class="edge">
<title>Node1&#45;&gt;Node2</title>
<g id="a_edge1_Node000001_Node000002"><a xlink:title=" ">
<path fill="none" stroke="#63b8ff" d="M132.92,-75.05C156.29,-79.79 185.59,-85.2 212,-88.5 368.72,-108.11 553,-116.7 657.8,-120.24"/>
<polygon fill="#63b8ff" stroke="#63b8ff" points="657.89,-123.74 668,-120.57 658.12,-116.74 657.89,-123.74"/>
</a>
</g>
</g>
<!-- Node4 -->
<g id="Node000004" class="node">
<title>Node4</title>
<g id="a_Node000004"><a xlink:href="Engine_8cpp.html#a0b2a0a6072d24bc155959292bc165961" target="_top" xlink:title=" ">
<polygon fill="white" stroke="#666666" points="614.5,-94 468.5,-94 468.5,-75 614.5,-75 614.5,-94"/>
<text text-anchor="middle" x="541.5" y="-82" font-family="Helvetica,sans-Serif" font-size="10.00">OTRGetGameRenderWidth</text>
</a>
</g>
</g>
<!-- Node1&#45;&gt;Node4 -->
<g id="edge3_Node000001_Node000004" class="edge">
<title>Node1&#45;&gt;Node4</title>
<g id="a_edge3_Node000001_Node000004"><a xlink:title=" ">
<path fill="none" stroke="#63b8ff" d="M176.05,-69.16C257.52,-72.59 378.32,-77.68 458.21,-81.04"/>
<polygon fill="#63b8ff" stroke="#63b8ff" points="458.09,-84.53 468.22,-81.46 458.38,-77.54 458.09,-84.53"/>
</a>
</g>
</g>
<!-- Node5 -->
<g id="Node000005" class="node">
<title>Node5</title>
<g id="a_Node000005"><a xlink:href="Engine_8cpp.html#af8ad96e953b60eb630f5261745844e45" target="_top" xlink:title=" ">
<polygon fill="white" stroke="#666666" points="411,-56 216,-56 216,-37 411,-37 411,-56"/>
<text text-anchor="middle" x="313.5" y="-44" font-family="Helvetica,sans-Serif" font-size="10.00">OTRGetRectDimensionFromLeftEdge</text>
</a>
</g>
</g>
<!-- Node1&#45;&gt;Node5 -->
<g id="edge5_Node000001_Node000005" class="edge">
<title>Node1&#45;&gt;Node5</title>
<g id="a_edge5_Node000001_Node000005"><a xlink:title=" ">
<path fill="none" stroke="#63b8ff" d="M176.05,-58.1C185.69,-57.28 195.59,-56.44 205.45,-55.6"/>
<polygon fill="#63b8ff" stroke="#63b8ff" points="206.02,-59.07 215.68,-54.73 205.42,-52.09 206.02,-59.07"/>
</a>
</g>
</g>
<!-- Node8 -->
<g id="Node000008" class="node">
<title>Node8</title>
<g id="a_Node000008"><a xlink:href="Engine_8cpp.html#a6a4636ed76942d3a15e97f85ff3196fb" target="_top" xlink:title=" ">
<polygon fill="white" stroke="#666666" points="415,-19 212,-19 212,0 415,0 415,-19"/>
<text text-anchor="middle" x="313.5" y="-7" font-family="Helvetica,sans-Serif" font-size="10.00">OTRGetRectDimensionFromRightEdge</text>
</a>
</g>
</g>
<!-- Node1&#45;&gt;Node8 -->
<g id="edge9_Node000001_Node000008" class="edge">
<title>Node1&#45;&gt;Node8</title>
<g id="a_edge9_Node000001_Node000008"><a xlink:title=" ">
<path fill="none" stroke="#63b8ff" d="M116.57,-55.92C141.33,-47.57 178.77,-35.58 212,-27.5 221.75,-25.13 232.11,-22.93 242.32,-20.93"/>
<polygon fill="#63b8ff" stroke="#63b8ff" points="243.29,-24.31 252.46,-19.01 241.99,-17.44 243.29,-24.31"/>
</a>
</g>
</g>
<!-- Node3 -->
<g id="Node000003" class="node">
<title>Node3</title>
<g id="a_Node000003"><a xlink:href="Engine_8cpp.html#a29357c424545be61af4bd28d84fd344a" target="_top" xlink:title=" ">
<polygon fill="white" stroke="#666666" points="940,-94 854,-94 854,-75 940,-75 940,-94"/>
<text text-anchor="middle" x="897" y="-82" font-family="Helvetica,sans-Serif" font-size="10.00">GetInterpreter</text>
</a>
</g>
</g>
<!-- Node2&#45;&gt;Node3 -->
<g id="edge2_Node000002_Node000003" class="edge">
<title>Node2&#45;&gt;Node3</title>
<g id="a_edge2_Node000002_Node000003"><a xlink:title=" ">
<path fill="none" stroke="#63b8ff" d="M782.36,-112.91C802.32,-107.92 826.93,-101.77 848.13,-96.47"/>
<polygon fill="#63b8ff" stroke="#63b8ff" points="849.07,-99.84 857.92,-94.02 847.37,-93.05 849.07,-99.84"/>
</a>
</g>
</g>
<!-- Node4&#45;&gt;Node3 -->
<g id="edge4_Node000004_Node000003" class="edge">
<title>Node4&#45;&gt;Node3</title>
<g id="a_edge4_Node000004_Node000003"><a xlink:title=" ">
<path fill="none" stroke="#63b8ff" d="M614.89,-84.5C682.87,-84.5 782.93,-84.5 843.53,-84.5"/>
<polygon fill="#63b8ff" stroke="#63b8ff" points="843.64,-88 853.64,-84.5 843.64,-81 843.64,-88"/>
</a>
</g>
</g>
<!-- Node6 -->
<g id="Node000006" class="node">
<title>Node6</title>
<g id="a_Node000006"><a xlink:href="Engine_8cpp.html#afc8b077c3a02d35419cae70c83942941" target="_top" xlink:title=" ">
<polygon fill="white" stroke="#666666" points="628,-56 455,-56 455,-37 628,-37 628,-56"/>
<text text-anchor="middle" x="541.5" y="-44" font-family="Helvetica,sans-Serif" font-size="10.00">OTRGetDimensionFromLeftEdge</text>
</a>
</g>
</g>
<!-- Node5&#45;&gt;Node6 -->
<g id="edge6_Node000005_Node000006" class="edge">
<title>Node5&#45;&gt;Node6</title>
<g id="a_edge6_Node000005_Node000006"><a xlink:title=" ">
<path fill="none" stroke="#63b8ff" d="M411.33,-46.5C422.43,-46.5 433.74,-46.5 444.82,-46.5"/>
<polygon fill="#63b8ff" stroke="#63b8ff" points="444.92,-50 454.92,-46.5 444.92,-43 444.92,-50"/>
</a>
</g>
</g>
<!-- Node7 -->
<g id="Node000007" class="node">
<title>Node7</title>
<g id="a_Node000007"><a xlink:href="Engine_8cpp.html#a130aa97f1c7fae24f3d23f8126e7506f" target="_top" xlink:title=" ">
<polygon fill="white" stroke="#666666" points="799.5,-56 686.5,-56 686.5,-37 799.5,-37 799.5,-56"/>
<text text-anchor="middle" x="743" y="-44" font-family="Helvetica,sans-Serif" font-size="10.00">OTRGetAspectRatio</text>
</a>
</g>
</g>
<!-- Node6&#45;&gt;Node7 -->
<g id="edge7_Node000006_Node000007" class="edge">
<title>Node6&#45;&gt;Node7</title>
<g id="a_edge7_Node000006_Node000007"><a xlink:title=" ">
<path fill="none" stroke="#63b8ff" d="M628.26,-46.5C644.22,-46.5 660.67,-46.5 675.93,-46.5"/>
<polygon fill="#63b8ff" stroke="#63b8ff" points="676.28,-50 686.28,-46.5 676.28,-43 676.28,-50"/>
</a>
</g>
</g>
<!-- Node7&#45;&gt;Node3 -->
<g id="edge8_Node000007_Node000003" class="edge">
<title>Node7&#45;&gt;Node3</title>
<g id="a_edge8_Node000007_Node000003"><a xlink:title=" ">
<path fill="none" stroke="#63b8ff" d="M782.36,-56.09C802.32,-61.08 826.93,-67.23 848.13,-72.53"/>
<polygon fill="#63b8ff" stroke="#63b8ff" points="847.37,-75.95 857.92,-74.98 849.07,-69.16 847.37,-75.95"/>
</a>
</g>
</g>
<!-- Node9 -->
<g id="Node000009" class="node">
<title>Node9</title>
<g id="a_Node000009"><a xlink:href="Engine_8cpp.html#a17495ab17d6e9c65b2a76e3c88a7f718" target="_top" xlink:title=" ">
<polygon fill="white" stroke="#666666" points="632,-19 451,-19 451,0 632,0 632,-19"/>
<text text-anchor="middle" x="541.5" y="-7" font-family="Helvetica,sans-Serif" font-size="10.00">OTRGetDimensionFromRightEdge</text>
</a>
</g>
</g>
<!-- Node8&#45;&gt;Node9 -->
<g id="edge10_Node000008_Node000009" class="edge">
<title>Node8&#45;&gt;Node9</title>
<g id="a_edge10_Node000008_Node000009"><a xlink:title=" ">
<path fill="none" stroke="#63b8ff" d="M415.27,-9.5C423.72,-9.5 432.27,-9.5 440.71,-9.5"/>
<polygon fill="#63b8ff" stroke="#63b8ff" points="440.95,-13 450.95,-9.5 440.95,-6 440.95,-13"/>
</a>
</g>
</g>
<!-- Node9&#45;&gt;Node7 -->
<g id="edge11_Node000009_Node000007" class="edge">
<title>Node9&#45;&gt;Node7</title>
<g id="a_edge11_Node000009_Node000007"><a xlink:title=" ">
<path fill="none" stroke="#63b8ff" d="M593.88,-19.03C620.3,-23.93 652.7,-29.94 680.46,-35.09"/>
<polygon fill="#63b8ff" stroke="#63b8ff" points="679.98,-38.56 690.45,-36.94 681.26,-31.67 679.98,-38.56"/>
</a>
</g>
</g>
</g>
</svg>
