<?xml version="1.0" encoding="UTF-8" standalone="no"?>
<!DOCTYPE svg PUBLIC "-//W3C//DTD SVG 1.1//EN"
 "http://www.w3.org/Graphics/SVG/1.1/DTD/svg11.dtd">
<!-- Generated by graphviz version 2.43.0 (0)
 -->
<!-- Title: FB_WriteFramebufferSliceToCPU Pages: 1 -->
<svg width="459pt" height="138pt"
 viewBox="0.00 0.00 459.00 138.00" xmlns="http://www.w3.org/2000/svg" xmlns:xlink="http://www.w3.org/1999/xlink">
<g id="graph0" class="graph" transform="scale(1 1) rotate(0) translate(4 134)">
<title>FB_WriteFramebufferSliceToCPU</title>
<!-- Node1 -->
<g id="Node000001" class="node">
<title>Node1</title>
<g id="a_Node000001"><a xlink:title=" ">
<polygon fill="#999999" stroke="#666666" points="143,-79.5 0,-79.5 0,-49.5 143,-49.5 143,-79.5"/>
<text text-anchor="start" x="8" y="-67.5" font-family="Helvetica,sans-Serif" font-size="10.00">FB_WriteFramebufferSlice</text>
<text text-anchor="middle" x="71.5" y="-56.5" font-family="Helvetica,sans-Serif" font-size="10.00">ToCPU</text>
</a>
</g>
</g>
<!-- Node2 -->
<g id="Node000002" class="node">
<title>Node2</title>
<g id="a_Node000002"><a xlink:href="framebuffer__effects_8c.html#a071a1a399ee05aa8ce9016470c0eb8a7" target="_top" xlink:title=" ">
<polygon fill="white" stroke="#666666" points="318.5,-130 189.5,-130 189.5,-111 318.5,-111 318.5,-130"/>
<text text-anchor="middle" x="254" y="-118" font-family="Helvetica,sans-Serif" font-size="10.00">FB_CopyToFramebuffer</text>
</a>
</g>
</g>
<!-- Node1&#45;&gt;Node2 -->
<g id="edge1_Node000001_Node000002" class="edge">
<title>Node1&#45;&gt;Node2</title>
<g id="a_edge1_Node000001_Node000002"><a xlink:title=" ">
<path fill="none" stroke="#63b8ff" d="M111.63,-79.56C131.62,-86.98 156.43,-95.75 179,-102.5 185.97,-104.58 193.36,-106.6 200.66,-108.49"/>
<polygon fill="#63b8ff" stroke="#63b8ff" points="199.98,-111.93 210.53,-110.97 201.69,-105.14 199.98,-111.93"/>
</a>
</g>
</g>
<!-- Node3 -->
<g id="Node000003" class="node">
<title>Node3</title>
<g id="a_Node000003"><a xlink:href="Engine_8cpp.html#a130aa97f1c7fae24f3d23f8126e7506f" target="_top" xlink:title=" ">
<polygon fill="white" stroke="#666666" points="310.5,-93 197.5,-93 197.5,-74 310.5,-74 310.5,-93"/>
<text text-anchor="middle" x="254" y="-81" font-family="Helvetica,sans-Serif" font-size="10.00">OTRGetAspectRatio</text>
</a>
</g>
</g>
<!-- Node1&#45;&gt;Node3 -->
<g id="edge2_Node000001_Node000003" class="edge">
<title>Node1&#45;&gt;Node3</title>
<g id="a_edge2_Node000001_Node000003"><a xlink:title=" ">
<path fill="none" stroke="#63b8ff" d="M143.06,-71.93C157.54,-73.45 172.73,-75.05 187.05,-76.56"/>
<polygon fill="#63b8ff" stroke="#63b8ff" points="186.98,-80.07 197.29,-77.64 187.71,-73.11 186.98,-80.07"/>
</a>
</g>
</g>
<!-- Node5 -->
<g id="Node000005" class="node">
<title>Node5</title>
<g id="a_Node000005"><a xlink:href="Engine_8cpp.html#a74cff0dc9810ca52110d05e078ed8a53" target="_top" xlink:title=" ">
<polygon fill="white" stroke="#666666" points="329,-56 179,-56 179,-37 329,-37 329,-56"/>
<text text-anchor="middle" x="254" y="-44" font-family="Helvetica,sans-Serif" font-size="10.00">OTRGetGameRenderHeight</text>
</a>
</g>
</g>
<!-- Node1&#45;&gt;Node5 -->
<g id="edge4_Node000001_Node000005" class="edge">
<title>Node1&#45;&gt;Node5</title>
<g id="a_edge4_Node000001_Node000005"><a xlink:title=" ">
<path fill="none" stroke="#63b8ff" d="M143.06,-57.46C151.52,-56.62 160.22,-55.75 168.84,-54.89"/>
<polygon fill="#63b8ff" stroke="#63b8ff" points="169.31,-58.36 178.91,-53.89 168.62,-51.4 169.31,-58.36"/>
</a>
</g>
</g>
<!-- Node6 -->
<g id="Node000006" class="node">
<title>Node6</title>
<g id="a_Node000006"><a xlink:href="Engine_8cpp.html#a0b2a0a6072d24bc155959292bc165961" target="_top" xlink:title=" ">
<polygon fill="white" stroke="#666666" points="327,-19 181,-19 181,0 327,0 327,-19"/>
<text text-anchor="middle" x="254" y="-7" font-family="Helvetica,sans-Serif" font-size="10.00">OTRGetGameRenderWidth</text>
</a>
</g>
</g>
<!-- Node1&#45;&gt;Node6 -->
<g id="edge6_Node000001_Node000006" class="edge">
<title>Node1&#45;&gt;Node6</title>
<g id="a_edge6_Node000001_Node000006"><a xlink:title=" ">
<path fill="none" stroke="#63b8ff" d="M114.51,-49.49C134.01,-42.73 157.58,-34.86 179,-28.5 187.04,-26.11 195.63,-23.74 204,-21.53"/>
<polygon fill="#63b8ff" stroke="#63b8ff" points="204.88,-24.92 213.68,-19.02 203.12,-18.14 204.88,-24.92"/>
</a>
</g>
</g>
<!-- Node4 -->
<g id="Node000004" class="node">
<title>Node4</title>
<g id="a_Node000004"><a xlink:href="Engine_8cpp.html#a29357c424545be61af4bd28d84fd344a" target="_top" xlink:title=" ">
<polygon fill="white" stroke="#666666" points="451,-56 365,-56 365,-37 451,-37 451,-56"/>
<text text-anchor="middle" x="408" y="-44" font-family="Helvetica,sans-Serif" font-size="10.00">GetInterpreter</text>
</a>
</g>
</g>
<!-- Node3&#45;&gt;Node4 -->
<g id="edge3_Node000003_Node000004" class="edge">
<title>Node3&#45;&gt;Node4</title>
<g id="a_edge3_Node000003_Node000004"><a xlink:title=" ">
<path fill="none" stroke="#63b8ff" d="M294.17,-73.97C305.42,-71.24 317.69,-68.25 329,-65.5 338.35,-63.22 348.32,-60.8 357.91,-58.46"/>
<polygon fill="#63b8ff" stroke="#63b8ff" points="358.83,-61.84 367.72,-56.07 357.18,-55.04 358.83,-61.84"/>
</a>
</g>
</g>
<!-- Node5&#45;&gt;Node4 -->
<g id="edge5_Node000005_Node000004" class="edge">
<title>Node5&#45;&gt;Node4</title>
<g id="a_edge5_Node000005_Node000004"><a xlink:title=" ">
<path fill="none" stroke="#63b8ff" d="M329.22,-46.5C337.8,-46.5 346.42,-46.5 354.62,-46.5"/>
<polygon fill="#63b8ff" stroke="#63b8ff" points="354.77,-50 364.77,-46.5 354.77,-43 354.77,-50"/>
</a>
</g>
</g>
<!-- Node6&#45;&gt;Node4 -->
<g id="edge7_Node000006_Node000004" class="edge">
<title>Node6&#45;&gt;Node4</title>
<g id="a_edge7_Node000006_Node000004"><a xlink:title=" ">
<path fill="none" stroke="#63b8ff" d="M294.14,-19.03C313.57,-23.76 337.24,-29.52 357.87,-34.54"/>
<polygon fill="#63b8ff" stroke="#63b8ff" points="357.18,-37.98 367.72,-36.94 358.84,-31.17 357.18,-37.98"/>
</a>
</g>
</g>
</g>
</svg>
