<?xml version="1.0" encoding="UTF-8" standalone="no"?>
<!DOCTYPE svg PUBLIC "-//W3C//DTD SVG 1.1//EN"
 "http://www.w3.org/Graphics/SVG/1.1/DTD/svg11.dtd">
<!-- Generated by graphviz version 2.43.0 (0)
 -->
<!-- Title: src/enhancements/freecam/freecam.h Pages: 1 -->
<svg width="809pt" height="104pt"
 viewBox="0.00 0.00 809.00 104.00" xmlns="http://www.w3.org/2000/svg" xmlns:xlink="http://www.w3.org/1999/xlink">
<g id="graph0" class="graph" transform="scale(1 1) rotate(0) translate(4 100)">
<title>src/enhancements/freecam/freecam.h</title>
<!-- Node1 -->
<g id="Node000001" class="node">
<title>Node1</title>
<g id="a_Node000001"><a xlink:title=" ">
<polygon fill="#999999" stroke="#666666" points="449,-96 300,-96 300,-66 449,-66 449,-96"/>
<text text-anchor="start" x="308" y="-84" font-family="Helvetica,sans-Serif" font-size="10.00">src/enhancements/freecam</text>
<text text-anchor="middle" x="374.5" y="-73" font-family="Helvetica,sans-Serif" font-size="10.00">/freecam.h</text>
</a>
</g>
</g>
<!-- Node2 -->
<g id="Node000002" class="node">
<title>Node2</title>
<g id="a_Node000002"><a xlink:href="camera_8c.html" target="_top" xlink:title=" ">
<polygon fill="white" stroke="#666666" points="79,-24.5 0,-24.5 0,-5.5 79,-5.5 79,-24.5"/>
<text text-anchor="middle" x="39.5" y="-12.5" font-family="Helvetica,sans-Serif" font-size="10.00">src/camera.c</text>
</a>
</g>
</g>
<!-- Node1&#45;&gt;Node2 -->
<g id="edge1_Node000001_Node000002" class="edge">
<title>Node1&#45;&gt;Node2</title>
<g id="a_edge1_Node000001_Node000002"><a xlink:title=" ">
<path fill="none" stroke="#63b8ff" d="M289.59,-67.75C232.2,-58.85 154.89,-45.65 87.5,-30 80.74,-28.43 73.51,-26.47 66.78,-24.53"/>
<polygon fill="#63b8ff" stroke="#63b8ff" points="289.29,-71.24 299.71,-69.31 290.36,-64.33 289.29,-71.24"/>
</a>
</g>
</g>
<!-- Node3 -->
<g id="Node000003" class="node">
<title>Node3</title>
<g id="a_Node000003"><a xlink:href="FreeCamera_8cpp.html" target="_top" xlink:title=" ">
<polygon fill="white" stroke="#666666" points="208.5,-30 96.5,-30 96.5,0 208.5,0 208.5,-30"/>
<text text-anchor="start" x="104.5" y="-18" font-family="Helvetica,sans-Serif" font-size="10.00">src/engine/cameras</text>
<text text-anchor="middle" x="152.5" y="-7" font-family="Helvetica,sans-Serif" font-size="10.00">/FreeCamera.cpp</text>
</a>
</g>
</g>
<!-- Node1&#45;&gt;Node3 -->
<g id="edge2_Node000001_Node000003" class="edge">
<title>Node1&#45;&gt;Node3</title>
<g id="a_edge2_Node000001_Node000003"><a xlink:title=" ">
<path fill="none" stroke="#63b8ff" d="M315.95,-63.12C280.16,-52.8 234.91,-39.76 201.11,-30.01"/>
<polygon fill="#63b8ff" stroke="#63b8ff" points="315.2,-66.55 325.78,-65.95 317.14,-59.82 315.2,-66.55"/>
</a>
</g>
</g>
<!-- Node4 -->
<g id="Node000004" class="node">
<title>Node4</title>
<g id="a_Node000004"><a xlink:href="LookBehindCamera_8cpp.html" target="_top" xlink:title=" ">
<polygon fill="white" stroke="#666666" points="362,-30 227,-30 227,0 362,0 362,-30"/>
<text text-anchor="start" x="235" y="-18" font-family="Helvetica,sans-Serif" font-size="10.00">src/engine/cameras</text>
<text text-anchor="middle" x="294.5" y="-7" font-family="Helvetica,sans-Serif" font-size="10.00">/LookBehindCamera.cpp</text>
</a>
</g>
</g>
<!-- Node1&#45;&gt;Node4 -->
<g id="edge3_Node000001_Node000004" class="edge">
<title>Node1&#45;&gt;Node4</title>
<g id="a_edge3_Node000001_Node000004"><a xlink:title=" ">
<path fill="none" stroke="#63b8ff" d="M348.85,-59.48C336.89,-49.91 322.97,-38.77 312.2,-30.16"/>
<polygon fill="#63b8ff" stroke="#63b8ff" points="346.75,-62.28 356.75,-65.8 351.12,-56.82 346.75,-62.28"/>
</a>
</g>
</g>
<!-- Node5 -->
<g id="Node000005" class="node">
<title>Node5</title>
<g id="a_Node000005"><a xlink:href="freecam_8cpp.html" target="_top" xlink:title=" ">
<polygon fill="white" stroke="#666666" points="529,-30 380,-30 380,0 529,0 529,-30"/>
<text text-anchor="start" x="388" y="-18" font-family="Helvetica,sans-Serif" font-size="10.00">src/enhancements/freecam</text>
<text text-anchor="middle" x="454.5" y="-7" font-family="Helvetica,sans-Serif" font-size="10.00">/freecam.cpp</text>
</a>
</g>
</g>
<!-- Node1&#45;&gt;Node5 -->
<g id="edge4_Node000001_Node000005" class="edge">
<title>Node1&#45;&gt;Node5</title>
<g id="a_edge4_Node000001_Node000005"><a xlink:title=" ">
<path fill="none" stroke="#63b8ff" d="M400.15,-59.48C412.11,-49.91 426.03,-38.77 436.8,-30.16"/>
<polygon fill="#63b8ff" stroke="#63b8ff" points="397.88,-56.82 392.25,-65.8 402.25,-62.28 397.88,-56.82"/>
</a>
</g>
</g>
<!-- Node6 -->
<g id="Node000006" class="node">
<title>Node6</title>
<g id="a_Node000006"><a xlink:href="main_8c.html" target="_top" xlink:title=" ">
<polygon fill="white" stroke="#666666" points="614,-24.5 547,-24.5 547,-5.5 614,-5.5 614,-24.5"/>
<text text-anchor="middle" x="580.5" y="-12.5" font-family="Helvetica,sans-Serif" font-size="10.00">src/main.c</text>
</a>
</g>
</g>
<!-- Node1&#45;&gt;Node6 -->
<g id="edge5_Node000001_Node000006" class="edge">
<title>Node1&#45;&gt;Node6</title>
<g id="a_edge5_Node000001_Node000006"><a xlink:title=" ">
<path fill="none" stroke="#63b8ff" d="M431.56,-63C463.14,-53.49 503.06,-41.31 538.5,-30 543.92,-28.27 549.71,-26.37 555.22,-24.55"/>
<polygon fill="#63b8ff" stroke="#63b8ff" points="430.18,-59.76 421.61,-65.99 432.19,-66.46 430.18,-59.76"/>
</a>
</g>
</g>
<!-- Node7 -->
<g id="Node000007" class="node">
<title>Node7</title>
<g id="a_Node000007"><a xlink:href="FreecamWindow_8cpp.html" target="_top" xlink:title=" ">
<polygon fill="white" stroke="#666666" points="801,-24.5 632,-24.5 632,-5.5 801,-5.5 801,-24.5"/>
<text text-anchor="middle" x="716.5" y="-12.5" font-family="Helvetica,sans-Serif" font-size="10.00">src/port/ui/FreecamWindow.cpp</text>
</a>
</g>
</g>
<!-- Node1&#45;&gt;Node7 -->
<g id="edge6_Node000001_Node000007" class="edge">
<title>Node1&#45;&gt;Node7</title>
<g id="a_edge6_Node000001_Node000007"><a xlink:title=" ">
<path fill="none" stroke="#63b8ff" d="M459.24,-64.14C526.16,-51.62 616.96,-34.63 670.87,-24.54"/>
<polygon fill="#63b8ff" stroke="#63b8ff" points="458.32,-60.75 449.13,-66.03 459.6,-67.63 458.32,-60.75"/>
</a>
</g>
</g>
</g>
</svg>
