<?xml version="1.0" encoding="UTF-8" standalone="no"?>
<!DOCTYPE svg PUBLIC "-//W3C//DTD SVG 1.1//EN"
 "http://www.w3.org/Graphics/SVG/1.1/DTD/svg11.dtd">
<!-- Generated by graphviz version 2.43.0 (0)
 -->
<!-- Title: CM_ResetAudio Pages: 1 -->
<svg width="235pt" height="101pt"
 viewBox="0.00 0.00 235.00 101.00" xmlns="http://www.w3.org/2000/svg" xmlns:xlink="http://www.w3.org/1999/xlink">
<g id="graph0" class="graph" transform="scale(1 1) rotate(0) translate(4 97)">
<title>CM_ResetAudio</title>
<!-- Node1 -->
<g id="Node000001" class="node">
<title>Node1</title>
<g id="a_Node000001"><a xlink:title=" ">
<polygon fill="#999999" stroke="#666666" points="93,-56 0,-56 0,-37 93,-37 93,-56"/>
<text text-anchor="middle" x="46.5" y="-44" font-family="Helvetica,sans-Serif" font-size="10.00">CM_ResetAudio</text>
</a>
</g>
</g>
<!-- Node2 -->
<g id="Node000002" class="node">
<title>Node2</title>
<g id="a_Node000002"><a xlink:href="external_8c.html#ac48b7cbfcaa7737f892877ead85e4ba7" target="_top" xlink:title=" ">
<polygon fill="white" stroke="#666666" points="224,-93 132,-93 132,-74 224,-74 224,-93"/>
<text text-anchor="middle" x="178" y="-81" font-family="Helvetica,sans-Serif" font-size="10.00">func_800C3448</text>
</a>
</g>
</g>
<!-- Node1&#45;&gt;Node2 -->
<g id="edge1_Node000001_Node000002" class="edge">
<title>Node1&#45;&gt;Node2</title>
<g id="a_edge1_Node000001_Node000002"><a xlink:title=" ">
<path fill="none" stroke="#63b8ff" d="M80.85,-56.03C96.89,-60.61 116.32,-66.16 133.5,-71.07"/>
<polygon fill="#63b8ff" stroke="#63b8ff" points="132.74,-74.49 143.31,-73.88 134.66,-67.76 132.74,-74.49"/>
</a>
</g>
</g>
<!-- Node3 -->
<g id="Node000003" class="node">
<title>Node3</title>
<g id="a_Node000003"><a xlink:href="HMAS_8cpp.html#ac2a77b78c5136dc216da6bf01f003060" target="_top" xlink:title=" ">
<polygon fill="white" stroke="#666666" points="227,-56 129,-56 129,-37 227,-37 227,-56"/>
<text text-anchor="middle" x="178" y="-44" font-family="Helvetica,sans-Serif" font-size="10.00">HMAS_AddEffect</text>
</a>
</g>
</g>
<!-- Node1&#45;&gt;Node3 -->
<g id="edge2_Node000001_Node000003" class="edge">
<title>Node1&#45;&gt;Node3</title>
<g id="a_edge2_Node000001_Node000003"><a xlink:title=" ">
<path fill="none" stroke="#63b8ff" d="M93.16,-46.5C101.34,-46.5 109.96,-46.5 118.45,-46.5"/>
<polygon fill="#63b8ff" stroke="#63b8ff" points="118.68,-50 128.68,-46.5 118.68,-43 118.68,-50"/>
</a>
</g>
</g>
<!-- Node4 -->
<g id="Node000004" class="node">
<title>Node4</title>
<g id="a_Node000004"><a xlink:href="HMAS_8cpp.html#a73c414770e0086761854237b09428fcf" target="_top" xlink:title=" ">
<polygon fill="white" stroke="#666666" points="225.5,-19 130.5,-19 130.5,0 225.5,0 225.5,-19"/>
<text text-anchor="middle" x="178" y="-7" font-family="Helvetica,sans-Serif" font-size="10.00">HMAS_IsPlaying</text>
</a>
</g>
</g>
<!-- Node1&#45;&gt;Node4 -->
<g id="edge3_Node000001_Node000004" class="edge">
<title>Node1&#45;&gt;Node4</title>
<g id="a_edge3_Node000001_Node000004"><a xlink:title=" ">
<path fill="none" stroke="#63b8ff" d="M80.85,-36.97C96.89,-32.39 116.32,-26.84 133.5,-21.93"/>
<polygon fill="#63b8ff" stroke="#63b8ff" points="134.66,-25.24 143.31,-19.12 132.74,-18.51 134.66,-25.24"/>
</a>
</g>
</g>
</g>
</svg>
