<?xml version="1.0" encoding="UTF-8" standalone="no"?>
<!DOCTYPE svg PUBLIC "-//W3C//DTD SVG 1.1//EN"
 "http://www.w3.org/Graphics/SVG/1.1/DTD/svg11.dtd">
<!-- Generated by graphviz version 2.43.0 (0)
 -->
<!-- Title: CM_TickClouds Pages: 1 -->
<svg width="323pt" height="64pt"
 viewBox="0.00 0.00 323.00 64.00" xmlns="http://www.w3.org/2000/svg" xmlns:xlink="http://www.w3.org/1999/xlink">
<g id="graph0" class="graph" transform="scale(1 1) rotate(0) translate(4 60)">
<title>CM_TickClouds</title>
<!-- Node1 -->
<g id="Node000001" class="node">
<title>Node1</title>
<g id="a_Node000001"><a xlink:title=" ">
<polygon fill="#999999" stroke="#666666" points="91,-38 0,-38 0,-19 91,-19 91,-38"/>
<text text-anchor="middle" x="45.5" y="-26" font-family="Helvetica,sans-Serif" font-size="10.00">CM_TickClouds</text>
</a>
</g>
</g>
<!-- Node2 -->
<g id="Node000002" class="node">
<title>Node2</title>
<g id="a_Node000002"><a xlink:href="Game_8cpp.html#a0967ca61e9f768c9e278fef7b8030085" target="_top" xlink:title=" ">
<polygon fill="white" stroke="#666666" points="186,-38 127,-38 127,-19 186,-19 186,-38"/>
<text text-anchor="middle" x="156.5" y="-26" font-family="Helvetica,sans-Serif" font-size="10.00">GetTrack</text>
</a>
</g>
</g>
<!-- Node1&#45;&gt;Node2 -->
<g id="edge1_Node000001_Node000002" class="edge">
<title>Node1&#45;&gt;Node2</title>
<g id="a_edge1_Node000001_Node000002"><a xlink:title=" ">
<path fill="none" stroke="#63b8ff" d="M91.15,-28.5C99.66,-28.5 108.51,-28.5 116.82,-28.5"/>
<polygon fill="#63b8ff" stroke="#63b8ff" points="117,-32 127,-28.5 117,-25 117,-32"/>
</a>
</g>
</g>
<!-- Node3 -->
<g id="Node000003" class="node">
<title>Node3</title>
<g id="a_Node000003"><a xlink:href="classWorld.html#a1a4dacc6aea0b846df998be0afc239f7" target="_top" xlink:title=" ">
<polygon fill="white" stroke="#666666" points="315,-56 222,-56 222,-37 315,-37 315,-56"/>
<text text-anchor="middle" x="268.5" y="-44" font-family="Helvetica,sans-Serif" font-size="10.00">World::GetTrack</text>
</a>
</g>
</g>
<!-- Node1&#45;&gt;Node3 -->
<g id="edge4_Node000001_Node000003" class="edge">
<title>Node1&#45;&gt;Node3</title>
<g id="a_edge4_Node000001_Node000003"><a xlink:title=" ">
<path fill="none" stroke="#63b8ff" d="M79.09,-38.01C93.62,-41.77 111.03,-45.64 127,-47.5 154.81,-50.74 185.92,-50.87 211.78,-50.03"/>
<polygon fill="#63b8ff" stroke="#63b8ff" points="211.93,-53.53 221.79,-49.65 211.66,-46.54 211.93,-53.53"/>
</a>
</g>
</g>
<!-- Node4 -->
<g id="Node000004" class="node">
<title>Node4</title>
<g id="a_Node000004"><a xlink:href="Game_8cpp.html#ae2fa844b3cb1021ecbc357f8ed2ad8cc" target="_top" xlink:title=" ">
<polygon fill="white" stroke="#666666" points="299.5,-19 237.5,-19 237.5,0 299.5,0 299.5,-19"/>
<text text-anchor="middle" x="268.5" y="-7" font-family="Helvetica,sans-Serif" font-size="10.00">GetWorld</text>
</a>
</g>
</g>
<!-- Node1&#45;&gt;Node4 -->
<g id="edge5_Node000001_Node000004" class="edge">
<title>Node1&#45;&gt;Node4</title>
<g id="a_edge5_Node000001_Node000004"><a xlink:title=" ">
<path fill="none" stroke="#63b8ff" d="M79.09,-18.99C93.62,-15.23 111.03,-11.36 127,-9.5 160.52,-5.6 198.83,-5.91 226.98,-7.03"/>
<polygon fill="#63b8ff" stroke="#63b8ff" points="227.09,-10.54 237.24,-7.49 227.4,-3.54 227.09,-10.54"/>
</a>
</g>
</g>
<!-- Node2&#45;&gt;Node3 -->
<g id="edge2_Node000002_Node000003" class="edge">
<title>Node2&#45;&gt;Node3</title>
<g id="a_edge2_Node000002_Node000003"><a xlink:title=" ">
<path fill="none" stroke="#63b8ff" d="M186.11,-33.18C194.07,-34.48 202.99,-35.94 211.93,-37.41"/>
<polygon fill="#63b8ff" stroke="#63b8ff" points="211.55,-40.89 221.98,-39.05 212.68,-33.98 211.55,-40.89"/>
</a>
</g>
</g>
<!-- Node2&#45;&gt;Node4 -->
<g id="edge3_Node000002_Node000004" class="edge">
<title>Node2&#45;&gt;Node4</title>
<g id="a_edge3_Node000002_Node000004"><a xlink:title=" ">
<path fill="none" stroke="#63b8ff" d="M186.11,-23.56C198.69,-21.38 213.69,-18.79 227.36,-16.43"/>
<polygon fill="#63b8ff" stroke="#63b8ff" points="228.23,-19.83 237.49,-14.68 227.04,-12.94 228.23,-19.83"/>
</a>
</g>
</g>
</g>
</svg>
