<?xml version="1.0" encoding="UTF-8" standalone="no"?>
<!DOCTYPE svg PUBLIC "-//W3C//DTD SVG 1.1//EN"
 "http://www.w3.org/Graphics/SVG/1.1/DTD/svg11.dtd">
<!-- Generated by graphviz version 2.43.0 (0)
 -->
<!-- Title: CM_DrawStaticMeshActors Pages: 1 -->
<svg width="353pt" height="64pt"
 viewBox="0.00 0.00 353.00 64.00" xmlns="http://www.w3.org/2000/svg" xmlns:xlink="http://www.w3.org/1999/xlink">
<g id="graph0" class="graph" transform="scale(1 1) rotate(0) translate(4 60)">
<title>CM_DrawStaticMeshActors</title>
<!-- Node1 -->
<g id="Node000001" class="node">
<title>Node1</title>
<g id="a_Node000001"><a xlink:title=" ">
<polygon fill="#999999" stroke="#666666" points="148,-37 0,-37 0,-18 148,-18 148,-37"/>
<text text-anchor="middle" x="74" y="-25" font-family="Helvetica,sans-Serif" font-size="10.00">CM_DrawStaticMeshActors</text>
</a>
</g>
</g>
<!-- Node2 -->
<g id="Node000002" class="node">
<title>Node2</title>
<g id="a_Node000002"><a xlink:href="classWorld.html#aea32ed8b9ceecf53a32d8634240f8705" target="_top" xlink:title=" ">
<polygon fill="white" stroke="#666666" points="345,-56 184,-56 184,-37 345,-37 345,-56"/>
<text text-anchor="middle" x="264.5" y="-44" font-family="Helvetica,sans-Serif" font-size="10.00">World::DrawStaticMeshActors</text>
</a>
</g>
</g>
<!-- Node1&#45;&gt;Node2 -->
<g id="edge1_Node000001_Node000002" class="edge">
<title>Node1&#45;&gt;Node2</title>
<g id="a_edge1_Node000001_Node000002"><a xlink:title=" ">
<path fill="none" stroke="#63b8ff" d="M148.15,-34.87C156.55,-35.72 165.2,-36.59 173.79,-37.46"/>
<polygon fill="#63b8ff" stroke="#63b8ff" points="173.53,-40.95 183.83,-38.47 174.23,-33.98 173.53,-40.95"/>
</a>
</g>
</g>
<!-- Node3 -->
<g id="Node000003" class="node">
<title>Node3</title>
<g id="a_Node000003"><a xlink:href="Game_8cpp.html#ae2fa844b3cb1021ecbc357f8ed2ad8cc" target="_top" xlink:title=" ">
<polygon fill="white" stroke="#666666" points="295.5,-19 233.5,-19 233.5,0 295.5,0 295.5,-19"/>
<text text-anchor="middle" x="264.5" y="-7" font-family="Helvetica,sans-Serif" font-size="10.00">GetWorld</text>
</a>
</g>
</g>
<!-- Node1&#45;&gt;Node3 -->
<g id="edge2_Node000001_Node000003" class="edge">
<title>Node1&#45;&gt;Node3</title>
<g id="a_edge2_Node000001_Node000003"><a xlink:title=" ">
<path fill="none" stroke="#63b8ff" d="M148.15,-20.51C173.58,-18.09 201.18,-15.45 223,-13.37"/>
<polygon fill="#63b8ff" stroke="#63b8ff" points="223.59,-16.83 233.22,-12.39 222.93,-9.86 223.59,-16.83"/>
</a>
</g>
</g>
</g>
</svg>
