<?xml version="1.0" encoding="UTF-8" standalone="no"?>
<!DOCTYPE svg PUBLIC "-//W3C//DTD SVG 1.1//EN"
 "http://www.w3.org/Graphics/SVG/1.1/DTD/svg11.dtd">
<!-- Generated by graphviz version 2.43.0 (0)
 -->
<!-- Title: GetTrack Pages: 1 -->
<svg width="639pt" height="1174pt"
 viewBox="0.00 0.00 639.00 1174.00" xmlns="http://www.w3.org/2000/svg" xmlns:xlink="http://www.w3.org/1999/xlink">
<g id="graph0" class="graph" transform="scale(1 1) rotate(0) translate(4 1170)">
<title>GetTrack</title>
<!-- Node1 -->
<g id="Node000001" class="node">
<title>Node1</title>
<g id="a_Node000001"><a xlink:title=" ">
<polygon fill="#999999" stroke="#666666" points="631,-609 572,-609 572,-590 631,-590 631,-609"/>
<text text-anchor="middle" x="601.5" y="-597" font-family="Helvetica,sans-Serif" font-size="10.00">GetTrack</text>
</a>
</g>
</g>
<!-- Node2 -->
<g id="Node000002" class="node">
<title>Node2</title>
<g id="a_Node000002"><a xlink:href="Game_8cpp.html#a1f50631d155dab971f42355e657e5c6c" target="_top" xlink:title=" ">
<polygon fill="white" stroke="#666666" points="504,-944 389,-944 389,-925 504,-925 504,-944"/>
<text text-anchor="middle" x="446.5" y="-932" font-family="Helvetica,sans-Serif" font-size="10.00">CM_AddTourCamera</text>
</a>
</g>
</g>
<!-- Node1&#45;&gt;Node2 -->
<g id="edge1_Node000001_Node000002" class="edge">
<title>Node1&#45;&gt;Node2</title>
<g id="a_edge1_Node000001_Node000002"><a xlink:title=" ">
<path fill="none" stroke="#63b8ff" d="M599.27,-619.13C594.97,-681.58 578.43,-874.07 536,-916.5 527.46,-925.04 516.05,-930.07 504.28,-932.93"/>
<polygon fill="#63b8ff" stroke="#63b8ff" points="602.77,-619.26 599.94,-609.05 595.79,-618.79 602.77,-619.26"/>
</a>
</g>
</g>
<!-- Node47 -->
<g id="Node000047" class="node">
<title>Node47</title>
<g id="a_Node000047"><a xlink:href="Game_8cpp.html#aaffb8b8bf0073d2bc3c2221a0d6e72ec" target="_top" xlink:title=" ">
<polygon fill="white" stroke="#666666" points="514,-1166 379,-1166 379,-1147 514,-1147 514,-1166"/>
<text text-anchor="middle" x="446.5" y="-1154" font-family="Helvetica,sans-Serif" font-size="10.00">CM_CreditsSpawnActors</text>
</a>
</g>
</g>
<!-- Node1&#45;&gt;Node47 -->
<g id="edge3_Node000001_Node000047" class="edge">
<title>Node1&#45;&gt;Node47</title>
<g id="a_edge3_Node000001_Node000047"><a xlink:title=" ">
<path fill="none" stroke="#63b8ff" d="M599.48,-619.44C594.55,-712.31 571.94,-1099.5 536,-1138.5 530.05,-1144.96 522.47,-1149.45 514.25,-1152.53"/>
<polygon fill="#63b8ff" stroke="#63b8ff" points="602.98,-619.58 600,-609.41 595.99,-619.21 602.98,-619.58"/>
</a>
</g>
</g>
<!-- Node50 -->
<g id="Node000050" class="node">
<title>Node50</title>
<g id="a_Node000050"><a xlink:href="Game_8cpp.html#a6457fbd0b62f3d39561654a3ee087e8d" target="_top" xlink:title=" ">
<polygon fill="white" stroke="#666666" points="496.5,-1092 396.5,-1092 396.5,-1073 496.5,-1073 496.5,-1092"/>
<text text-anchor="middle" x="446.5" y="-1080" font-family="Helvetica,sans-Serif" font-size="10.00">CM_DrawObjects</text>
</a>
</g>
</g>
<!-- Node1&#45;&gt;Node50 -->
<g id="edge5_Node000001_Node000050" class="edge">
<title>Node1&#45;&gt;Node50</title>
<g id="a_edge5_Node000001_Node000050"><a xlink:title=" ">
<path fill="none" stroke="#63b8ff" d="M600.67,-619.38C600.93,-699.67 597.69,-998.81 536,-1064.5 525.91,-1075.24 511.3,-1080.52 496.85,-1082.91"/>
<polygon fill="#63b8ff" stroke="#63b8ff" points="604.17,-619.16 600.61,-609.18 597.17,-619.2 604.17,-619.16"/>
</a>
</g>
</g>
<!-- Node53 -->
<g id="Node000053" class="node">
<title>Node53</title>
<g id="a_Node000053"><a xlink:href="Game_8cpp.html#a3839abae687326f79f10868edfd51b9e" target="_top" xlink:title=" ">
<polygon fill="white" stroke="#666666" points="498.5,-1055 394.5,-1055 394.5,-1036 498.5,-1036 498.5,-1055"/>
<text text-anchor="middle" x="446.5" y="-1043" font-family="Helvetica,sans-Serif" font-size="10.00">CM_DrawParticles</text>
</a>
</g>
</g>
<!-- Node1&#45;&gt;Node53 -->
<g id="edge7_Node000001_Node000053" class="edge">
<title>Node1&#45;&gt;Node53</title>
<g id="a_edge7_Node000001_Node000053"><a xlink:title=" ">
<path fill="none" stroke="#63b8ff" d="M600.41,-619.25C599.63,-695.25 592.86,-967.65 536,-1027.5 526.28,-1037.73 512.46,-1042.99 498.62,-1045.51"/>
<polygon fill="#63b8ff" stroke="#63b8ff" points="603.91,-619.17 600.49,-609.15 596.91,-619.12 603.91,-619.17"/>
</a>
</g>
</g>
<!-- Node54 -->
<g id="Node000054" class="node">
<title>Node54</title>
<g id="a_Node000054"><a xlink:href="Game_8cpp.html#a066e268f9d300f4fa433733dd636bc9d" target="_top" xlink:title=" ">
<polygon fill="white" stroke="#666666" points="491,-1018 402,-1018 402,-999 491,-999 491,-1018"/>
<text text-anchor="middle" x="446.5" y="-1006" font-family="Helvetica,sans-Serif" font-size="10.00">CM_DrawTrack</text>
</a>
</g>
</g>
<!-- Node1&#45;&gt;Node54 -->
<g id="edge9_Node000001_Node000054" class="edge">
<title>Node1&#45;&gt;Node54</title>
<g id="a_edge9_Node000001_Node000054"><a xlink:title=" ">
<path fill="none" stroke="#63b8ff" d="M600.09,-619.35C598.21,-691.22 588,-936.53 536,-990.5 524.47,-1002.47 507.31,-1007.61 491.17,-1009.53"/>
<polygon fill="#63b8ff" stroke="#63b8ff" points="603.6,-619.1 600.34,-609.02 596.6,-618.93 603.6,-619.1"/>
</a>
</g>
</g>
<!-- Node56 -->
<g id="Node000056" class="node">
<title>Node56</title>
<g id="a_Node000056"><a xlink:href="Game_8cpp.html#abfc61da343ef2b8055bea1ec869b6363" target="_top" xlink:title=" ">
<polygon fill="white" stroke="#666666" points="509,-1129 384,-1129 384,-1110 509,-1110 509,-1129"/>
<text text-anchor="middle" x="446.5" y="-1117" font-family="Helvetica,sans-Serif" font-size="10.00">CM_DrawTrackObjects</text>
</a>
</g>
</g>
<!-- Node1&#45;&gt;Node56 -->
<g id="edge11_Node000001_Node000056" class="edge">
<title>Node1&#45;&gt;Node56</title>
<g id="a_edge11_Node000001_Node000056"><a xlink:title=" ">
<path fill="none" stroke="#63b8ff" d="M600.89,-619.32C602.14,-703.45 602.57,-1029.89 536,-1101.5 528.85,-1109.19 519.38,-1114.09 509.29,-1117.13"/>
<polygon fill="#63b8ff" stroke="#63b8ff" points="604.39,-619.05 600.72,-609.11 597.39,-619.17 604.39,-619.05"/>
</a>
</g>
</g>
<!-- Node57 -->
<g id="Node000057" class="node">
<title>Node57</title>
<g id="a_Node000057"><a xlink:href="Game_8cpp.html#ad9d7dd4e4ce728a71dc68e2817a5b90d" target="_top" xlink:title=" ">
<polygon fill="white" stroke="#666666" points="492.5,-907 400.5,-907 400.5,-888 492.5,-888 492.5,-907"/>
<text text-anchor="middle" x="446.5" y="-895" font-family="Helvetica,sans-Serif" font-size="10.00">CM_DrawWater</text>
</a>
</g>
</g>
<!-- Node1&#45;&gt;Node57 -->
<g id="edge13_Node000001_Node000057" class="edge">
<title>Node1&#45;&gt;Node57</title>
<g id="a_edge13_Node000001_Node000057"><a xlink:title=" ">
<path fill="none" stroke="#63b8ff" d="M598.71,-619.06C593.06,-676.47 573.68,-842.78 536,-879.5 524.55,-890.66 508.17,-895.79 492.61,-897.91"/>
<polygon fill="#63b8ff" stroke="#63b8ff" points="602.19,-619.39 599.66,-609.1 595.23,-618.72 602.19,-619.39"/>
</a>
</g>
</g>
<!-- Node59 -->
<g id="Node000059" class="node">
<title>Node59</title>
<g id="a_Node000059"><a xlink:href="Game_8cpp.html#a3416a195a0c7be6ec3783bbf4842dc3e" target="_top" xlink:title=" ">
<polygon fill="#fff0f0" stroke="red" points="487.5,-870 405.5,-870 405.5,-851 487.5,-851 487.5,-870"/>
<text text-anchor="middle" x="446.5" y="-858" font-family="Helvetica,sans-Serif" font-size="10.00">CM_GetProps</text>
</a>
</g>
</g>
<!-- Node1&#45;&gt;Node59 -->
<g id="edge15_Node000001_Node000059" class="edge">
<title>Node1&#45;&gt;Node59</title>
<g id="a_edge15_Node000001_Node000059"><a xlink:title=" ">
<path fill="none" stroke="#63b8ff" d="M597.96,-619.17C590.82,-671.37 568.92,-811.47 536,-842.5 523.22,-854.55 504.69,-859.5 487.88,-861.26"/>
<polygon fill="#63b8ff" stroke="#63b8ff" points="601.44,-619.56 599.29,-609.18 594.5,-618.63 601.44,-619.56"/>
</a>
</g>
</g>
<!-- Node143 -->
<g id="Node000143" class="node">
<title>Node143</title>
<g id="a_Node000143"><a xlink:href="classTourCamera.html#ab193f552690234bb897e98cbda7c2da5" target="_top" xlink:title=" ">
<polygon fill="white" stroke="#666666" points="291.5,-498 190.5,-498 190.5,-479 291.5,-479 291.5,-498"/>
<text text-anchor="middle" x="241" y="-486" font-family="Helvetica,sans-Serif" font-size="10.00">TourCamera::Tick</text>
</a>
</g>
</g>
<!-- Node1&#45;&gt;Node143 -->
<g id="edge55_Node000001_Node000143" class="edge">
<title>Node1&#45;&gt;Node143</title>
<g id="a_edge55_Node000001_Node000143"><a xlink:title=" ">
<path fill="none" stroke="#63b8ff" d="M597.28,-619.42C591.25,-649.42 575.11,-705.24 536,-729.5 468.39,-771.43 417.59,-781.06 357,-729.5 280.87,-664.72 388.97,-580.79 321,-507.5 313.33,-499.23 302.73,-494.27 291.8,-491.36"/>
<polygon fill="#63b8ff" stroke="#63b8ff" points="600.78,-619.78 599.13,-609.31 593.89,-618.52 600.78,-619.78"/>
</a>
</g>
</g>
<!-- Node147 -->
<g id="Node000147" class="node">
<title>Node147</title>
<g id="a_Node000147"><a xlink:href="Game_8cpp.html#a011d7e2f1ff6949f70023c2f53091010" target="_top" xlink:title=" ">
<polygon fill="#fff0f0" stroke="red" points="489.5,-833 403.5,-833 403.5,-814 489.5,-814 489.5,-833"/>
<text text-anchor="middle" x="446.5" y="-821" font-family="Helvetica,sans-Serif" font-size="10.00">CM_InitClouds</text>
</a>
</g>
</g>
<!-- Node1&#45;&gt;Node147 -->
<g id="edge31_Node000001_Node000147" class="edge">
<title>Node1&#45;&gt;Node147</title>
<g id="a_edge31_Node000001_Node000147"><a xlink:title=" ">
<path fill="none" stroke="#63b8ff" d="M600.54,-619.13C599.5,-660.29 590.94,-755.94 536,-805.5 523.54,-816.74 506.04,-821.73 489.88,-823.73"/>
<polygon fill="#63b8ff" stroke="#63b8ff" points="604.04,-619.09 600.67,-609.04 597.04,-619 604.04,-619.09"/>
</a>
</g>
</g>
<!-- Node153 -->
<g id="Node000153" class="node">
<title>Node153</title>
<g id="a_Node000153"><a xlink:href="Game_8cpp.html#a872b3eafef96f83081b83794fb4681e5" target="_top" xlink:title=" ">
<polygon fill="#fff0f0" stroke="red" points="504.5,-796 388.5,-796 388.5,-777 504.5,-777 504.5,-796"/>
<text text-anchor="middle" x="446.5" y="-784" font-family="Helvetica,sans-Serif" font-size="10.00">CM_InitTrackObjects</text>
</a>
</g>
</g>
<!-- Node1&#45;&gt;Node153 -->
<g id="edge32_Node000001_Node000153" class="edge">
<title>Node1&#45;&gt;Node153</title>
<g id="a_edge32_Node000001_Node000153"><a xlink:title=" ">
<path fill="none" stroke="#63b8ff" d="M598.35,-619.45C593.55,-653.84 578.81,-724.23 536,-762.5 527.22,-770.35 516.12,-775.67 504.77,-779.26"/>
<polygon fill="#63b8ff" stroke="#63b8ff" points="601.85,-619.63 599.62,-609.27 594.9,-618.76 601.85,-619.63"/>
</a>
</g>
</g>
<!-- Node156 -->
<g id="Node000156" class="node">
<title>Node156</title>
<g id="a_Node000156"><a xlink:href="Game_8cpp.html#a7a5ca7cbd6c70c0ef872405d46503896" target="_top" xlink:title=" ">
<polygon fill="#fff0f0" stroke="red" points="499,-981 394,-981 394,-962 499,-962 499,-981"/>
<text text-anchor="middle" x="446.5" y="-969" font-family="Helvetica,sans-Serif" font-size="10.00">CM_IsTourEnabled</text>
</a>
</g>
</g>
<!-- Node1&#45;&gt;Node156 -->
<g id="edge33_Node000001_Node000156" class="edge">
<title>Node1&#45;&gt;Node156</title>
<g id="a_edge33_Node000001_Node000156"><a xlink:title=" ">
<path fill="none" stroke="#63b8ff" d="M599.73,-619.19C596.67,-686.41 583.22,-905.31 536,-953.5 526.34,-963.36 512.87,-968.56 499.34,-971.15"/>
<polygon fill="#63b8ff" stroke="#63b8ff" points="603.23,-619.25 600.16,-609.11 596.23,-618.95 603.23,-619.25"/>
</a>
</g>
</g>
<!-- Node162 -->
<g id="Node000162" class="node">
<title>Node162</title>
<g id="a_Node000162"><a xlink:href="Game_8cpp.html#ad83fb22a60760cab0498053877c28ca0" target="_top" xlink:title=" ">
<polygon fill="#fff0f0" stroke="red" points="507,-720 386,-720 386,-701 507,-701 507,-720"/>
<text text-anchor="middle" x="446.5" y="-708" font-family="Helvetica,sans-Serif" font-size="10.00">CM_ScrollingTextures</text>
</a>
</g>
</g>
<!-- Node1&#45;&gt;Node162 -->
<g id="edge35_Node000001_Node000162" class="edge">
<title>Node1&#45;&gt;Node162</title>
<g id="a_edge35_Node000001_Node000162"><a xlink:title=" ">
<path fill="none" stroke="#63b8ff" d="M592.57,-618.64C582.63,-640.14 563.5,-674.39 536,-692.5 527.36,-698.19 517.29,-702.15 507.11,-704.88"/>
<polygon fill="#63b8ff" stroke="#63b8ff" points="595.89,-619.8 596.71,-609.23 589.48,-616.98 595.89,-619.8"/>
</a>
</g>
</g>
<!-- Node165 -->
<g id="Node000165" class="node">
<title>Node165</title>
<g id="a_Node000165"><a xlink:href="Game_8cpp.html#a294eb7fe3045625053752c9e622a991f" target="_top" xlink:title=" ">
<polygon fill="#fff0f0" stroke="red" points="498.5,-683 394.5,-683 394.5,-664 498.5,-664 498.5,-683"/>
<text text-anchor="middle" x="446.5" y="-671" font-family="Helvetica,sans-Serif" font-size="10.00">CM_SetStaffGhost</text>
</a>
</g>
</g>
<!-- Node1&#45;&gt;Node165 -->
<g id="edge36_Node000001_Node000165" class="edge">
<title>Node1&#45;&gt;Node165</title>
<g id="a_edge36_Node000001_Node000165"><a xlink:title=" ">
<path fill="none" stroke="#63b8ff" d="M585.36,-616.76C573.26,-629.44 555.21,-646.04 536,-655.5 524.47,-661.18 511.24,-665.07 498.59,-667.73"/>
<polygon fill="#63b8ff" stroke="#63b8ff" points="588.2,-618.84 592.4,-609.11 583.05,-614.1 588.2,-618.84"/>
</a>
</g>
</g>
<!-- Node168 -->
<g id="Node000168" class="node">
<title>Node168</title>
<g id="a_Node000168"><a xlink:href="Game_8cpp.html#a8c040973097c16e82cb1738a5eb2fb55" target="_top" xlink:title=" ">
<polygon fill="#fff0f0" stroke="red" points="513.5,-646 379.5,-646 379.5,-627 513.5,-627 513.5,-646"/>
<text text-anchor="middle" x="446.5" y="-634" font-family="Helvetica,sans-Serif" font-size="10.00">CM_SomeCollisionThing</text>
</a>
</g>
</g>
<!-- Node1&#45;&gt;Node168 -->
<g id="edge37_Node000001_Node000168" class="edge">
<title>Node1&#45;&gt;Node168</title>
<g id="a_edge37_Node000001_Node000168"><a xlink:title=" ">
<path fill="none" stroke="#63b8ff" d="M562.02,-611.42C553.49,-613.9 544.47,-616.4 536,-618.5 523.83,-621.52 510.62,-624.42 498.21,-626.96"/>
<polygon fill="#63b8ff" stroke="#63b8ff" points="563.15,-614.74 571.75,-608.54 561.16,-608.03 563.15,-614.74"/>
</a>
</g>
</g>
<!-- Node181 -->
<g id="Node000181" class="node">
<title>Node181</title>
<g id="a_Node000181"><a xlink:href="Game_8cpp.html#a02c1b51d60911b41fb21349de5ecada2" target="_top" xlink:title=" ">
<polygon fill="#fff0f0" stroke="red" points="497,-609 396,-609 396,-590 497,-590 497,-609"/>
<text text-anchor="middle" x="446.5" y="-597" font-family="Helvetica,sans-Serif" font-size="10.00">CM_SomeSounds</text>
</a>
</g>
</g>
<!-- Node1&#45;&gt;Node181 -->
<g id="edge38_Node000001_Node000181" class="edge">
<title>Node1&#45;&gt;Node181</title>
<g id="a_edge38_Node000001_Node000181"><a xlink:title=" ">
<path fill="none" stroke="#63b8ff" d="M561.64,-599.5C542.07,-599.5 518.12,-599.5 497.22,-599.5"/>
<polygon fill="#63b8ff" stroke="#63b8ff" points="561.72,-603 571.72,-599.5 561.72,-596 561.72,-603"/>
</a>
</g>
</g>
<!-- Node183 -->
<g id="Node000183" class="node">
<title>Node183</title>
<g id="a_Node000183"><a xlink:href="Game_8cpp.html#ae181f7d71aa16b176abd7be2444a0299" target="_top" xlink:title=" ">
<polygon fill="#fff0f0" stroke="red" points="491,-572 402,-572 402,-553 491,-553 491,-572"/>
<text text-anchor="middle" x="446.5" y="-560" font-family="Helvetica,sans-Serif" font-size="10.00">CM_TickActors</text>
</a>
</g>
</g>
<!-- Node1&#45;&gt;Node183 -->
<g id="edge39_Node000001_Node000183" class="edge">
<title>Node1&#45;&gt;Node183</title>
<g id="a_edge39_Node000001_Node000183"><a xlink:title=" ">
<path fill="none" stroke="#63b8ff" d="M561.97,-588.34C553.45,-585.98 544.44,-583.58 536,-581.5 521.51,-577.93 505.58,-574.39 491.28,-571.35"/>
<polygon fill="#63b8ff" stroke="#63b8ff" points="561.13,-591.73 571.7,-591.06 563.02,-584.99 561.13,-591.73"/>
</a>
</g>
</g>
<!-- Node184 -->
<g id="Node000184" class="node">
<title>Node184</title>
<g id="a_Node000184"><a xlink:href="Game_8cpp.html#a11ebc0cdf2c06b647891e4d8a4a6471b" target="_top" xlink:title=" ">
<polygon fill="#fff0f0" stroke="red" points="492,-535 401,-535 401,-516 492,-516 492,-535"/>
<text text-anchor="middle" x="446.5" y="-523" font-family="Helvetica,sans-Serif" font-size="10.00">CM_TickClouds</text>
</a>
</g>
</g>
<!-- Node1&#45;&gt;Node184 -->
<g id="edge40_Node000001_Node000184" class="edge">
<title>Node1&#45;&gt;Node184</title>
<g id="a_edge40_Node000001_Node000184"><a xlink:title=" ">
<path fill="none" stroke="#63b8ff" d="M584.85,-582.19C572.72,-569.83 554.83,-553.8 536,-544.5 522.47,-537.82 506.65,-533.48 492.15,-530.66"/>
<polygon fill="#63b8ff" stroke="#63b8ff" points="582.53,-584.83 591.95,-589.68 587.61,-580.01 582.53,-584.83"/>
</a>
</g>
</g>
<!-- Node188 -->
<g id="Node000188" class="node">
<title>Node188</title>
<g id="a_Node000188"><a xlink:href="Game_8cpp.html#a76052dcdf19901299b26e38b1342aafc" target="_top" xlink:title=" ">
<polygon fill="#fff0f0" stroke="red" points="494,-498 399,-498 399,-479 494,-479 494,-498"/>
<text text-anchor="middle" x="446.5" y="-486" font-family="Helvetica,sans-Serif" font-size="10.00">CM_TickObjects</text>
</a>
</g>
</g>
<!-- Node1&#45;&gt;Node188 -->
<g id="edge41_Node000001_Node000188" class="edge">
<title>Node1&#45;&gt;Node188</title>
<g id="a_edge41_Node000001_Node000188"><a xlink:title=" ">
<path fill="none" stroke="#63b8ff" d="M592.48,-580.62C582.46,-559.4 563.25,-525.56 536,-507.5 523.69,-499.34 508.49,-494.61 494.18,-491.89"/>
<polygon fill="#63b8ff" stroke="#63b8ff" points="589.36,-582.22 596.66,-589.9 595.75,-579.34 589.36,-582.22"/>
</a>
</g>
</g>
<!-- Node189 -->
<g id="Node000189" class="node">
<title>Node189</title>
<g id="a_Node000189"><a xlink:href="Game_8cpp.html#ab6cbdd9c2b6b19c957e80cc48e9da523" target="_top" xlink:title=" ">
<polygon fill="#fff0f0" stroke="red" points="507.5,-461 385.5,-461 385.5,-442 507.5,-442 507.5,-461"/>
<text text-anchor="middle" x="446.5" y="-449" font-family="Helvetica,sans-Serif" font-size="10.00">CM_TickObjects60fps</text>
</a>
</g>
</g>
<!-- Node1&#45;&gt;Node189 -->
<g id="edge42_Node000001_Node000189" class="edge">
<title>Node1&#45;&gt;Node189</title>
<g id="a_edge42_Node000001_Node000189"><a xlink:title=" ">
<path fill="none" stroke="#63b8ff" d="M596.36,-579.91C589.23,-551.24 571.82,-498.26 536,-470.5 527.8,-464.15 517.95,-459.81 507.84,-456.86"/>
<polygon fill="#63b8ff" stroke="#63b8ff" points="593.01,-580.97 598.67,-589.92 599.83,-579.39 593.01,-580.97"/>
</a>
</g>
</g>
<!-- Node191 -->
<g id="Node000191" class="node">
<title>Node191</title>
<g id="a_Node000191"><a xlink:href="Game_8cpp.html#a02007628d0171593ccc991bf3a496d73" target="_top" xlink:title=" ">
<polygon fill="#fff0f0" stroke="red" points="496,-424 397,-424 397,-405 496,-405 496,-424"/>
<text text-anchor="middle" x="446.5" y="-412" font-family="Helvetica,sans-Serif" font-size="10.00">CM_TickParticles</text>
</a>
</g>
</g>
<!-- Node1&#45;&gt;Node191 -->
<g id="edge43_Node000001_Node000191" class="edge">
<title>Node1&#45;&gt;Node191</title>
<g id="a_edge43_Node000001_Node000191"><a xlink:title=" ">
<path fill="none" stroke="#63b8ff" d="M598.74,-579.45C594.52,-544.26 580.61,-471.52 536,-433.5 525,-424.12 510.47,-419.03 496.38,-416.36"/>
<polygon fill="#63b8ff" stroke="#63b8ff" points="595.3,-580.26 599.82,-589.84 602.26,-579.53 595.3,-580.26"/>
</a>
</g>
</g>
<!-- Node192 -->
<g id="Node000192" class="node">
<title>Node192</title>
<g id="a_Node000192"><a xlink:href="Game_8cpp.html#aa7aef6b733545609568083638a4bb38e" target="_top" xlink:title=" ">
<polygon fill="#fff0f0" stroke="red" points="506.5,-387 386.5,-387 386.5,-368 506.5,-368 506.5,-387"/>
<text text-anchor="middle" x="446.5" y="-375" font-family="Helvetica,sans-Serif" font-size="10.00">CM_TickTrackObjects</text>
</a>
</g>
</g>
<!-- Node1&#45;&gt;Node192 -->
<g id="edge44_Node000001_Node000192" class="edge">
<title>Node1&#45;&gt;Node192</title>
<g id="a_edge44_Node000001_Node000192"><a xlink:title=" ">
<path fill="none" stroke="#63b8ff" d="M600.38,-579.63C599.01,-538.83 589.8,-445.36 536,-396.5 527.86,-389.1 517.55,-384.33 506.87,-381.3"/>
<polygon fill="#63b8ff" stroke="#63b8ff" points="596.89,-579.74 600.6,-589.66 603.88,-579.59 596.89,-579.74"/>
</a>
</g>
</g>
<!-- Node194 -->
<g id="Node000194" class="node">
<title>Node194</title>
<g id="a_Node000194"><a xlink:href="Game_8cpp.html#a5fadc5850c8c407142a16da1f5508014" target="_top" xlink:title=" ">
<polygon fill="white" stroke="#666666" points="491,-350 402,-350 402,-331 491,-331 491,-350"/>
<text text-anchor="middle" x="446.5" y="-338" font-family="Helvetica,sans-Serif" font-size="10.00">CM_Waypoints</text>
</a>
</g>
</g>
<!-- Node1&#45;&gt;Node194 -->
<g id="edge45_Node000001_Node000194" class="edge">
<title>Node1&#45;&gt;Node194</title>
<g id="a_edge45_Node000001_Node000194"><a xlink:title=" ">
<path fill="none" stroke="#63b8ff" d="M597.86,-579.76C590.53,-528 568.35,-390.24 536,-359.5 524.04,-348.13 507,-342.9 491.06,-340.67"/>
<polygon fill="#63b8ff" stroke="#63b8ff" points="594.43,-580.52 599.26,-589.94 601.36,-579.56 594.43,-580.52"/>
</a>
</g>
</g>
<!-- Node195 -->
<g id="Node000195" class="node">
<title>Node195</title>
<g id="a_Node000195"><a xlink:href="Game_8cpp.html#a892acd610181b8a67f9bd4f74d242a4a" target="_top" xlink:title=" ">
<polygon fill="#fff0f0" stroke="red" points="507.5,-313 385.5,-313 385.5,-294 507.5,-294 507.5,-313"/>
<text text-anchor="middle" x="446.5" y="-301" font-family="Helvetica,sans-Serif" font-size="10.00">CM_WhatDoesThisDo</text>
</a>
</g>
</g>
<!-- Node1&#45;&gt;Node195 -->
<g id="edge46_Node000001_Node000195" class="edge">
<title>Node1&#45;&gt;Node195</title>
<g id="a_edge46_Node000001_Node000195"><a xlink:title=" ">
<path fill="none" stroke="#63b8ff" d="M598.58,-579.43C592.7,-522 572.98,-358.85 536,-322.5 528.27,-314.9 518.27,-310.02 507.8,-306.94"/>
<polygon fill="#63b8ff" stroke="#63b8ff" points="595.14,-580.11 599.61,-589.72 602.1,-579.42 595.14,-580.11"/>
</a>
</g>
</g>
<!-- Node197 -->
<g id="Node000197" class="node">
<title>Node197</title>
<g id="a_Node000197"><a xlink:href="Game_8cpp.html#ab53d812567e2e57a521af21e31688464" target="_top" xlink:title=" ">
<polygon fill="#fff0f0" stroke="red" points="512,-276 381,-276 381,-257 512,-257 512,-276"/>
<text text-anchor="middle" x="446.5" y="-264" font-family="Helvetica,sans-Serif" font-size="10.00">CM_WhatDoesThisDoAI</text>
</a>
</g>
</g>
<!-- Node1&#45;&gt;Node197 -->
<g id="edge47_Node000001_Node000197" class="edge">
<title>Node1&#45;&gt;Node197</title>
<g id="a_edge47_Node000001_Node000197"><a xlink:title=" ">
<path fill="none" stroke="#63b8ff" d="M599.2,-579.66C594.7,-517.42 577.77,-327.64 536,-285.5 529.36,-278.8 520.97,-274.2 512.02,-271.08"/>
<polygon fill="#63b8ff" stroke="#63b8ff" points="595.71,-580 599.9,-589.74 602.7,-579.52 595.71,-580"/>
</a>
</g>
</g>
<!-- Node198 -->
<g id="Node000198" class="node">
<title>Node198</title>
<g id="a_Node000198"><a xlink:href="classTrackEditor_1_1ToolsWindow.html#ae385cfb1d654a2e5be9373f7df9a16ef" target="_top" xlink:title=" ">
<polygon fill="white" stroke="#666666" points="516.5,-238.5 376.5,-238.5 376.5,-208.5 516.5,-208.5 516.5,-238.5"/>
<text text-anchor="start" x="384.5" y="-226.5" font-family="Helvetica,sans-Serif" font-size="10.00">TrackEditor::ToolsWindow</text>
<text text-anchor="middle" x="446.5" y="-215.5" font-family="Helvetica,sans-Serif" font-size="10.00">::DrawElement</text>
</a>
</g>
</g>
<!-- Node1&#45;&gt;Node198 -->
<g id="edge48_Node000001_Node000198" class="edge">
<title>Node1&#45;&gt;Node198</title>
<g id="a_edge48_Node000001_Node000198"><a xlink:title=" ">
<path fill="none" stroke="#63b8ff" d="M599.54,-579.66C595.93,-512.91 580.95,-297.87 536,-248.5 530.63,-242.6 523.97,-238.05 516.75,-234.55"/>
<polygon fill="#63b8ff" stroke="#63b8ff" points="596.05,-579.89 600.06,-589.7 603.04,-579.53 596.05,-579.89"/>
</a>
</g>
</g>
<!-- Node199 -->
<g id="Node000199" class="node">
<title>Node199</title>
<g id="a_Node000199"><a xlink:href="classTrackEditor_1_1TrackPropertiesWindow.html#af1576a7f38fb02dc87413b6e1213ec7c" target="_top" xlink:title=" ">
<polygon fill="white" stroke="#666666" points="317,-147.5 165,-147.5 165,-117.5 317,-117.5 317,-147.5"/>
<text text-anchor="start" x="173" y="-135.5" font-family="Helvetica,sans-Serif" font-size="10.00">TrackEditor::TrackProperties</text>
<text text-anchor="middle" x="241" y="-124.5" font-family="Helvetica,sans-Serif" font-size="10.00">Window::DrawElement</text>
</a>
</g>
</g>
<!-- Node1&#45;&gt;Node199 -->
<g id="edge49_Node000001_Node000199" class="edge">
<title>Node1&#45;&gt;Node199</title>
<g id="a_edge49_Node000001_Node000199"><a xlink:title=" ">
<path fill="none" stroke="#63b8ff" d="M600.79,-579.6C601.5,-500.57 599.66,-210.35 536,-151.5 505.25,-123.07 393.55,-123.24 317.04,-127.05"/>
<polygon fill="#63b8ff" stroke="#63b8ff" points="597.29,-579.63 600.68,-589.67 604.29,-579.71 597.29,-579.63"/>
</a>
</g>
</g>
<!-- Node200 -->
<g id="Node000200" class="node">
<title>Node200</title>
<g id="a_Node000200"><a xlink:href="classTrackEditor_1_1TrackPropertiesWindow.html#a1f07f748ac1c5b5120b40b468b3cf09e" target="_top" xlink:title=" ">
<polygon fill="white" stroke="#666666" points="522.5,-104.5 370.5,-104.5 370.5,-74.5 522.5,-74.5 522.5,-104.5"/>
<text text-anchor="start" x="378.5" y="-92.5" font-family="Helvetica,sans-Serif" font-size="10.00">TrackEditor::TrackProperties</text>
<text text-anchor="middle" x="446.5" y="-81.5" font-family="Helvetica,sans-Serif" font-size="10.00">Window::DrawMusic</text>
</a>
</g>
</g>
<!-- Node1&#45;&gt;Node200 -->
<g id="edge50_Node000001_Node000200" class="edge">
<title>Node1&#45;&gt;Node200</title>
<g id="a_edge50_Node000001_Node000200"><a xlink:title=" ">
<path fill="none" stroke="#63b8ff" d="M600.55,-579.67C600.37,-498.21 595.69,-190.28 536,-118.5 531.35,-112.91 525.6,-108.38 519.28,-104.73"/>
<polygon fill="#63b8ff" stroke="#63b8ff" points="597.05,-579.99 600.55,-589.99 604.05,-579.99 597.05,-579.99"/>
</a>
</g>
</g>
<!-- Node201 -->
<g id="Node000201" class="node">
<title>Node201</title>
<g id="a_Node000201"><a xlink:href="classTrackEditor_1_1TrackPropertiesWindow.html#a15da20f8d315aafe3c36fa71b2dd3bcc" target="_top" xlink:title=" ">
<polygon fill="white" stroke="#666666" points="536,-190.5 357,-190.5 357,-160.5 536,-160.5 536,-190.5"/>
<text text-anchor="start" x="365" y="-178.5" font-family="Helvetica,sans-Serif" font-size="10.00">TrackEditor::TrackProperties</text>
<text text-anchor="middle" x="446.5" y="-167.5" font-family="Helvetica,sans-Serif" font-size="10.00">Window::DrawResourceNameEdit</text>
</a>
</g>
</g>
<!-- Node1&#45;&gt;Node201 -->
<g id="edge52_Node000001_Node000201" class="edge">
<title>Node1&#45;&gt;Node201</title>
<g id="a_edge52_Node000001_Node000201"><a xlink:title=" ">
<path fill="none" stroke="#63b8ff" d="M600.06,-579.76C598.03,-507.22 587.37,-256.57 536,-199.5 532.91,-196.07 529.39,-193.11 525.56,-190.55"/>
<polygon fill="#63b8ff" stroke="#63b8ff" points="596.56,-579.91 600.31,-589.82 603.56,-579.73 596.56,-579.91"/>
</a>
</g>
</g>
<!-- Node167 -->
<g id="Node000167" class="node">
<title>Node167</title>
<g id="a_Node000167"><a xlink:href="replays_8c.html#ad3fe55bff348a8b6cfc02f327bda8544" target="_top" xlink:title=" ">
<polygon fill="#fff0f0" stroke="red" points="492,-56 401,-56 401,-37 492,-37 492,-56"/>
<text text-anchor="middle" x="446.5" y="-44" font-family="Helvetica,sans-Serif" font-size="10.00">func_80005310</text>
</a>
</g>
</g>
<!-- Node1&#45;&gt;Node167 -->
<g id="edge54_Node000001_Node000167" class="edge">
<title>Node1&#45;&gt;Node167</title>
<g id="a_edge54_Node000001_Node000167"><a xlink:title=" ">
<path fill="none" stroke="#63b8ff" d="M599.44,-579.47C594.38,-487 571.39,-104.28 536,-65.5 524.98,-53.43 508.31,-48.03 492.4,-45.87"/>
<polygon fill="#63b8ff" stroke="#63b8ff" points="595.96,-579.89 599.99,-589.69 602.95,-579.51 595.96,-579.89"/>
</a>
</g>
</g>
<!-- Node202 -->
<g id="Node000202" class="node">
<title>Node202</title>
<g id="a_Node000202"><a xlink:href="TrackBrowser_8cpp.html#a3029f0ebdfd5ce66693393dc2441baff" target="_top" xlink:title=" ">
<polygon fill="#fff0f0" stroke="red" points="532.5,-19 360.5,-19 360.5,0 532.5,0 532.5,-19"/>
<text text-anchor="middle" x="446.5" y="-7" font-family="Helvetica,sans-Serif" font-size="10.00">TrackBrowser_SetTrackFromCup</text>
</a>
</g>
</g>
<!-- Node1&#45;&gt;Node202 -->
<g id="edge56_Node000001_Node000202" class="edge">
<title>Node1&#45;&gt;Node202</title>
<g id="a_edge56_Node000001_Node000202"><a xlink:title=" ">
<path fill="none" stroke="#63b8ff" d="M599.64,-579.87C595.26,-484.16 574.17,-69.21 536,-27.5 533.04,-24.26 529.66,-21.52 526,-19.19"/>
<polygon fill="#63b8ff" stroke="#63b8ff" points="596.14,-580.09 600.09,-589.92 603.14,-579.77 596.14,-580.09"/>
</a>
</g>
</g>
<!-- Node3 -->
<g id="Node000003" class="node">
<title>Node3</title>
<g id="a_Node000003"><a xlink:href="spawn__players_8c.html#a4fa09e56e3c1d3a56b49a9fe1b628f34" target="_top" xlink:title=" ">
<polygon fill="#fff0f0" stroke="red" points="321,-1055 161,-1055 161,-1036 321,-1036 321,-1055"/>
<text text-anchor="middle" x="241" y="-1043" font-family="Helvetica,sans-Serif" font-size="10.00">spawn_players_and_cameras</text>
</a>
</g>
</g>
<!-- Node2&#45;&gt;Node3 -->
<g id="edge2_Node000002_Node000003" class="edge">
<title>Node2&#45;&gt;Node3</title>
<g id="a_edge2_Node000002_Node000003"><a xlink:title=" ">
<path fill="none" stroke="#63b8ff" d="M379,-941.77C371.08,-944.59 363.51,-948.4 357,-953.5 328.21,-976.06 349.64,-1004.76 321,-1027.5 316.7,-1030.91 311.88,-1033.7 306.8,-1035.98"/>
<polygon fill="#63b8ff" stroke="#63b8ff" points="380.24,-945.04 388.79,-938.78 378.2,-938.35 380.24,-945.04"/>
</a>
</g>
</g>
<!-- Node48 -->
<g id="Node000048" class="node">
<title>Node48</title>
<g id="a_Node000048"><a xlink:href="code__800029B0_8c.html#ac1299bd5ed61e2135db0c04683089c63" target="_top" xlink:title=" ">
<polygon fill="#fff0f0" stroke="red" points="302,-1166 180,-1166 180,-1147 302,-1147 302,-1166"/>
<text text-anchor="middle" x="241" y="-1154" font-family="Helvetica,sans-Serif" font-size="10.00">credits_spawn_actors</text>
</a>
</g>
</g>
<!-- Node47&#45;&gt;Node48 -->
<g id="edge4_Node000047_Node000048" class="edge">
<title>Node47&#45;&gt;Node48</title>
<g id="a_edge4_Node000047_Node000048"><a xlink:title=" ">
<path fill="none" stroke="#63b8ff" d="M368.58,-1156.5C346.64,-1156.5 323.05,-1156.5 302.25,-1156.5"/>
<polygon fill="#63b8ff" stroke="#63b8ff" points="368.87,-1160 378.87,-1156.5 368.87,-1153 368.87,-1160"/>
</a>
</g>
</g>
<!-- Node51 -->
<g id="Node000051" class="node">
<title>Node51</title>
<g id="a_Node000051"><a xlink:href="code__80057C60_8c.html#aa04f94d84853c32f977f9032cc021f39" target="_top" xlink:title=" ">
<polygon fill="#fff0f0" stroke="red" points="310,-1129 172,-1129 172,-1110 310,-1110 310,-1129"/>
<text text-anchor="middle" x="241" y="-1117" font-family="Helvetica,sans-Serif" font-size="10.00">render_object_for_player</text>
</a>
</g>
</g>
<!-- Node50&#45;&gt;Node51 -->
<g id="edge6_Node000050_Node000051" class="edge">
<title>Node50&#45;&gt;Node51</title>
<g id="a_edge6_Node000050_Node000051"><a xlink:title=" ">
<path fill="none" stroke="#63b8ff" d="M386.47,-1093.23C357.4,-1098.52 322.63,-1104.84 294.49,-1109.96"/>
<polygon fill="#63b8ff" stroke="#63b8ff" points="387.29,-1096.64 396.5,-1091.41 386.03,-1089.75 387.29,-1096.64"/>
</a>
</g>
</g>
<!-- Node53&#45;&gt;Node51 -->
<g id="edge8_Node000053_Node000051" class="edge">
<title>Node53&#45;&gt;Node51</title>
<g id="a_edge8_Node000053_Node000051"><a xlink:title=" ">
<path fill="none" stroke="#63b8ff" d="M384.21,-1053.72C374.76,-1056.37 365.37,-1059.87 357,-1064.5 336.92,-1075.61 341.01,-1090.27 321,-1101.5 314.87,-1104.94 308.12,-1107.73 301.22,-1109.98"/>
<polygon fill="#63b8ff" stroke="#63b8ff" points="385.2,-1057.08 394.05,-1051.26 383.5,-1050.29 385.2,-1057.08"/>
</a>
</g>
</g>
<!-- Node55 -->
<g id="Node000055" class="node">
<title>Node55</title>
<g id="a_Node000055"><a xlink:href="render__courses_8c.html#a7d24f6742649a89302bce107d4460779" target="_top" xlink:title=" ">
<polygon fill="#fff0f0" stroke="red" points="280,-1092 202,-1092 202,-1073 280,-1073 280,-1092"/>
<text text-anchor="middle" x="241" y="-1080" font-family="Helvetica,sans-Serif" font-size="10.00">render_track</text>
</a>
</g>
</g>
<!-- Node54&#45;&gt;Node55 -->
<g id="edge10_Node000054_Node000055" class="edge">
<title>Node54&#45;&gt;Node55</title>
<g id="a_edge10_Node000054_Node000055"><a xlink:title=" ">
<path fill="none" stroke="#63b8ff" d="M391.89,-1014.75C379.92,-1017.55 367.64,-1021.62 357,-1027.5 336.92,-1038.61 341.01,-1053.27 321,-1064.5 308.61,-1071.46 293.7,-1075.72 280.19,-1078.34"/>
<polygon fill="#63b8ff" stroke="#63b8ff" points="392.76,-1018.14 401.83,-1012.68 391.33,-1011.29 392.76,-1018.14"/>
</a>
</g>
</g>
<!-- Node56&#45;&gt;Node51 -->
<g id="edge12_Node000056_Node000051" class="edge">
<title>Node56&#45;&gt;Node51</title>
<g id="a_edge12_Node000056_Node000051"><a xlink:title=" ">
<path fill="none" stroke="#63b8ff" d="M373.89,-1119.5C353.18,-1119.5 330.64,-1119.5 310.15,-1119.5"/>
<polygon fill="#63b8ff" stroke="#63b8ff" points="373.89,-1123 383.89,-1119.5 373.89,-1116 373.89,-1123"/>
</a>
</g>
</g>
<!-- Node58 -->
<g id="Node000058" class="node">
<title>Node58</title>
<g id="a_Node000058"><a xlink:href="render__courses_8c.html#aed717b70ea311e1f2f85f7f2d14fca70" target="_top" xlink:title=" ">
<polygon fill="#fff0f0" stroke="red" points="287,-1018 195,-1018 195,-999 287,-999 287,-1018"/>
<text text-anchor="middle" x="241" y="-1006" font-family="Helvetica,sans-Serif" font-size="10.00">func_8029122C</text>
</a>
</g>
</g>
<!-- Node57&#45;&gt;Node58 -->
<g id="edge14_Node000057_Node000058" class="edge">
<title>Node57&#45;&gt;Node58</title>
<g id="a_edge14_Node000057_Node000058"><a xlink:title=" ">
<path fill="none" stroke="#63b8ff" d="M390.33,-901.39C378.43,-904.3 366.57,-909 357,-916.5 328.21,-939.06 349.64,-967.76 321,-990.5 311.42,-998.11 299.22,-1002.63 287.3,-1005.27"/>
<polygon fill="#63b8ff" stroke="#63b8ff" points="391.19,-904.79 400.29,-899.34 389.79,-897.93 391.19,-904.79"/>
</a>
</g>
</g>
<!-- Node60 -->
<g id="Node000060" class="node">
<title>Node60</title>
<g id="a_Node000060"><a xlink:href="code__80005FD0_8c.html#afea6c2109ebb5063725c4ad25fb59280" target="_top" xlink:title=" ">
<polygon fill="#fff0f0" stroke="red" points="298,-722 184,-722 184,-703 298,-703 298,-722"/>
<text text-anchor="middle" x="241" y="-710" font-family="Helvetica,sans-Serif" font-size="10.00">analyse_angle_path</text>
</a>
</g>
</g>
<!-- Node59&#45;&gt;Node60 -->
<g id="edge16_Node000059_Node000060" class="edge">
<title>Node59&#45;&gt;Node60</title>
<g id="a_edge16_Node000059_Node000060"><a xlink:title=" ">
<path fill="none" stroke="#63b8ff" d="M395.46,-859.48C381.63,-856.93 367.54,-851.91 357,-842.5 318.32,-807.96 359.07,-766.72 321,-731.5 314.58,-725.56 306.64,-721.38 298.28,-718.46"/>
<polygon fill="#63b8ff" stroke="#63b8ff" points="395.03,-862.95 405.43,-860.92 396.04,-856.02 395.03,-862.95"/>
</a>
</g>
</g>
<!-- Node64 -->
<g id="Node000064" class="node">
<title>Node64</title>
<g id="a_Node000064"><a xlink:href="code__80005FD0_8c.html#af2f5c3f028965e86705c66f6cd51c680" target="_top" xlink:title=" ">
<polygon fill="#fff0f0" stroke="red" points="125,-646 0,-646 0,-627 125,-627 125,-646"/>
<text text-anchor="middle" x="62.5" y="-634" font-family="Helvetica,sans-Serif" font-size="10.00">analyze_track_section</text>
</a>
</g>
</g>
<!-- Node59&#45;&gt;Node64 -->
<g id="edge17_Node000059_Node000064" class="edge">
<title>Node59&#45;&gt;Node64</title>
<g id="a_edge17_Node000059_Node000064"><a xlink:title=" ">
<path fill="none" stroke="#63b8ff" d="M395.38,-860.03C381.41,-857.52 367.27,-852.39 357,-842.5 308.23,-795.55 369.27,-741.96 321,-694.5 313.5,-687.13 184.45,-660.53 111.96,-646.05"/>
<polygon fill="#63b8ff" stroke="#63b8ff" points="395.07,-863.52 405.46,-861.43 396.03,-856.59 395.07,-863.52"/>
</a>
</g>
</g>
<!-- Node65 -->
<g id="Node000065" class="node">
<title>Node65</title>
<g id="a_Node000065"><a xlink:href="code__80005FD0_8c.html#a6fd29dd95ab41d9aa3f4a08ac98c9df4" target="_top" xlink:title=" ">
<polygon fill="#fff0f0" stroke="red" points="316,-646 166,-646 166,-627 316,-627 316,-646"/>
<text text-anchor="middle" x="241" y="-634" font-family="Helvetica,sans-Serif" font-size="10.00">calculate_track_boundaries</text>
</a>
</g>
</g>
<!-- Node59&#45;&gt;Node65 -->
<g id="edge18_Node000059_Node000065" class="edge">
<title>Node59&#45;&gt;Node65</title>
<g id="a_edge18_Node000059_Node000065"><a xlink:title=" ">
<path fill="none" stroke="#63b8ff" d="M395.11,-860.31C381.13,-857.81 367.05,-852.61 357,-842.5 298.85,-784.04 376.33,-721.64 321,-660.5 315.33,-654.23 308.07,-649.57 300.26,-646.12"/>
<polygon fill="#63b8ff" stroke="#63b8ff" points="394.82,-863.8 405.2,-861.68 395.77,-856.87 394.82,-863.8"/>
</a>
</g>
</g>
<!-- Node66 -->
<g id="Node000066" class="node">
<title>Node66</title>
<g id="a_Node000066"><a xlink:href="code__80005FD0_8c.html#adf13615f04cfae72d01ad23f33a4e4aa" target="_top" xlink:title=" ">
<polygon fill="white" stroke="#666666" points="312.5,-609 169.5,-609 169.5,-590 312.5,-590 312.5,-609"/>
<text text-anchor="middle" x="241" y="-597" font-family="Helvetica,sans-Serif" font-size="10.00">calculate_track_curvature</text>
</a>
</g>
</g>
<!-- Node59&#45;&gt;Node66 -->
<g id="edge19_Node000059_Node000066" class="edge">
<title>Node59&#45;&gt;Node66</title>
<g id="a_edge19_Node000059_Node000066"><a xlink:title=" ">
<path fill="none" stroke="#63b8ff" d="M395.25,-860.6C381.14,-858.13 366.96,-852.88 357,-842.5 287.19,-769.74 389.51,-692.48 321,-618.5 317.45,-614.67 313.28,-611.55 308.74,-609.02"/>
<polygon fill="#63b8ff" stroke="#63b8ff" points="395.07,-864.1 405.44,-861.93 395.98,-857.16 395.07,-864.1"/>
</a>
</g>
</g>
<!-- Node67 -->
<g id="Node000067" class="node">
<title>Node67</title>
<g id="a_Node000067"><a xlink:href="code__80005FD0_8c.html#ac842533b23b073d73ad370538493ac1c" target="_top" xlink:title=" ">
<polygon fill="#fff0f0" stroke="red" points="320.5,-572 161.5,-572 161.5,-553 320.5,-553 320.5,-572"/>
<text text-anchor="middle" x="241" y="-560" font-family="Helvetica,sans-Serif" font-size="10.00">copy_courses_cpu_behaviour</text>
</a>
</g>
</g>
<!-- Node59&#45;&gt;Node67 -->
<g id="edge21_Node000059_Node000067" class="edge">
<title>Node59&#45;&gt;Node67</title>
<g id="a_edge21_Node000059_Node000067"><a xlink:title=" ">
<path fill="none" stroke="#63b8ff" d="M395.1,-860.73C380.99,-858.27 366.84,-852.99 357,-842.5 276.87,-757.11 399.6,-668.29 321,-581.5 317.59,-577.74 313.58,-574.65 309.2,-572.14"/>
<polygon fill="#63b8ff" stroke="#63b8ff" points="394.94,-864.24 405.31,-862.06 395.84,-857.3 394.94,-864.24"/>
</a>
</g>
</g>
<!-- Node71 -->
<g id="Node000071" class="node">
<title>Node71</title>
<g id="a_Node000071"><a xlink:href="code__80005FD0_8c.html#a070706cc9cd2596af688aee1bc6008e3" target="_top" xlink:title=" ">
<polygon fill="#fff0f0" stroke="red" points="296.5,-535 185.5,-535 185.5,-516 296.5,-516 296.5,-535"/>
<text text-anchor="middle" x="241" y="-523" font-family="Helvetica,sans-Serif" font-size="10.00">cpu_behaviour_end</text>
</a>
</g>
</g>
<!-- Node59&#45;&gt;Node71 -->
<g id="edge22_Node000059_Node000071" class="edge">
<title>Node59&#45;&gt;Node71</title>
<g id="a_edge22_Node000059_Node000071"><a xlink:title=" ">
<path fill="none" stroke="#63b8ff" d="M394.99,-860.83C380.88,-858.38 366.75,-853.07 357,-842.5 266.54,-744.45 409.72,-644.13 321,-544.5 314.53,-537.23 305.8,-532.5 296.52,-529.47"/>
<polygon fill="#63b8ff" stroke="#63b8ff" points="394.84,-864.34 405.21,-862.16 395.74,-857.4 394.84,-864.34"/>
</a>
</g>
</g>
<!-- Node77 -->
<g id="Node000077" class="node">
<title>Node77</title>
<g id="a_Node000077"><a xlink:href="code__80005FD0_8c.html#a7d4379ffdd4db1e7806e0bc1afefb732" target="_top" xlink:title=" ">
<polygon fill="#fff0f0" stroke="red" points="299,-981 183,-981 183,-962 299,-962 299,-981"/>
<text text-anchor="middle" x="241" y="-969" font-family="Helvetica,sans-Serif" font-size="10.00">cpu_behaviour_start</text>
</a>
</g>
</g>
<!-- Node59&#45;&gt;Node77 -->
<g id="edge23_Node000059_Node000077" class="edge">
<title>Node59&#45;&gt;Node77</title>
<g id="a_edge23_Node000059_Node000077"><a xlink:title=" ">
<path fill="none" stroke="#63b8ff" d="M395.09,-863.32C381.64,-866.1 367.84,-871 357,-879.5 328.21,-902.06 349.64,-930.76 321,-953.5 314.61,-958.57 307.06,-962.27 299.2,-964.96"/>
<polygon fill="#63b8ff" stroke="#63b8ff" points="395.98,-866.72 405.25,-861.59 394.81,-859.82 395.98,-866.72"/>
</a>
</g>
</g>
<!-- Node78 -->
<g id="Node000078" class="node">
<title>Node78</title>
<g id="a_Node000078"><a xlink:href="code__80005FD0_8c.html#a0cfc9c8c29906a6f0984b40d752129ac" target="_top" xlink:title=" ">
<polygon fill="#fff0f0" stroke="red" points="287,-944 195,-944 195,-925 287,-925 287,-944"/>
<text text-anchor="middle" x="241" y="-932" font-family="Helvetica,sans-Serif" font-size="10.00">func_800088D8</text>
</a>
</g>
</g>
<!-- Node59&#45;&gt;Node78 -->
<g id="edge24_Node000059_Node000078" class="edge">
<title>Node59&#45;&gt;Node78</title>
<g id="a_edge24_Node000059_Node000078"><a xlink:title=" ">
<path fill="none" stroke="#63b8ff" d="M395.56,-865.93C382.46,-868.74 368.72,-873.01 357,-879.5 336.92,-890.61 341.01,-905.27 321,-916.5 310.7,-922.28 298.65,-926.21 287.11,-928.88"/>
<polygon fill="#63b8ff" stroke="#63b8ff" points="396.24,-869.36 405.41,-864.05 394.93,-862.48 396.24,-869.36"/>
</a>
</g>
</g>
<!-- Node80 -->
<g id="Node000080" class="node">
<title>Node80</title>
<g id="a_Node000080"><a xlink:href="render__objects_8c.html#a790ebc40448deb7ce1ab8fa298663f0d" target="_top" xlink:title=" ">
<polygon fill="#fff0f0" stroke="red" points="286.5,-907 195.5,-907 195.5,-888 286.5,-888 286.5,-907"/>
<text text-anchor="middle" x="241" y="-895" font-family="Helvetica,sans-Serif" font-size="10.00">func_8004EE54</text>
</a>
</g>
</g>
<!-- Node59&#45;&gt;Node80 -->
<g id="edge25_Node000059_Node000080" class="edge">
<title>Node59&#45;&gt;Node80</title>
<g id="a_edge25_Node000059_Node000080"><a xlink:title=" ">
<path fill="none" stroke="#63b8ff" d="M395.32,-869.62C362.06,-875.67 318.8,-883.54 286.72,-889.37"/>
<polygon fill="#63b8ff" stroke="#63b8ff" points="396.08,-873.04 405.29,-867.81 394.83,-866.16 396.08,-873.04"/>
</a>
</g>
</g>
<!-- Node82 -->
<g id="Node000082" class="node">
<title>Node82</title>
<g id="a_Node000082"><a xlink:href="code__8006E9C0_8c.html#addcb705e0abe102e25517666b6a1eb84" target="_top" xlink:title=" ">
<polygon fill="white" stroke="#666666" points="286.5,-870 195.5,-870 195.5,-851 286.5,-851 286.5,-870"/>
<text text-anchor="middle" x="241" y="-858" font-family="Helvetica,sans-Serif" font-size="10.00">func_8006F008</text>
</a>
</g>
</g>
<!-- Node59&#45;&gt;Node82 -->
<g id="edge26_Node000059_Node000082" class="edge">
<title>Node59&#45;&gt;Node82</title>
<g id="a_edge26_Node000059_Node000082"><a xlink:title=" ">
<path fill="none" stroke="#63b8ff" d="M394.89,-860.5C361.68,-860.5 318.66,-860.5 286.72,-860.5"/>
<polygon fill="#63b8ff" stroke="#63b8ff" points="395.29,-864 405.29,-860.5 395.29,-857 395.29,-864"/>
</a>
</g>
</g>
<!-- Node83 -->
<g id="Node000083" class="node">
<title>Node83</title>
<g id="a_Node000083"><a xlink:href="code__8006E9C0_8c.html#a22fb6641b6733568bce5847c9e1c8ae3" target="_top" xlink:title=" ">
<polygon fill="white" stroke="#666666" points="287,-833 195,-833 195,-814 287,-814 287,-833"/>
<text text-anchor="middle" x="241" y="-821" font-family="Helvetica,sans-Serif" font-size="10.00">func_8006F8CC</text>
</a>
</g>
</g>
<!-- Node59&#45;&gt;Node83 -->
<g id="edge27_Node000059_Node000083" class="edge">
<title>Node59&#45;&gt;Node83</title>
<g id="a_edge27_Node000059_Node000083"><a xlink:title=" ">
<path fill="none" stroke="#63b8ff" d="M395.35,-851.38C362.21,-845.36 319.14,-837.52 287.08,-831.7"/>
<polygon fill="#63b8ff" stroke="#63b8ff" points="394.83,-854.84 405.29,-853.19 396.08,-847.96 394.83,-854.84"/>
</a>
</g>
</g>
<!-- Node84 -->
<g id="Node000084" class="node">
<title>Node84</title>
<g id="a_Node000084"><a xlink:href="classOLakitu.html#a0cac83a1d61e692dbbaa42b846db238d" target="_top" xlink:title=" ">
<polygon fill="#fff0f0" stroke="red" points="308,-796 174,-796 174,-777 308,-777 308,-796"/>
<text text-anchor="middle" x="241" y="-784" font-family="Helvetica,sans-Serif" font-size="10.00">OLakitu::func_800791F0</text>
</a>
</g>
</g>
<!-- Node59&#45;&gt;Node84 -->
<g id="edge28_Node000059_Node000084" class="edge">
<title>Node59&#45;&gt;Node84</title>
<g id="a_edge28_Node000059_Node000084"><a xlink:title=" ">
<path fill="none" stroke="#63b8ff" d="M395.57,-855.71C382.47,-853.04 368.73,-848.91 357,-842.5 336.86,-831.5 340.94,-816.85 321,-805.5 314.14,-801.59 306.49,-798.48 298.74,-796.01"/>
<polygon fill="#63b8ff" stroke="#63b8ff" points="394.96,-859.16 405.42,-857.48 396.2,-852.27 394.96,-859.16"/>
</a>
</g>
</g>
<!-- Node97 -->
<g id="Node000097" class="node">
<title>Node97</title>
<g id="a_Node000097"><a xlink:href="classOLakitu.html#ae76d444a529be6c5991529e5d0ba6f15" target="_top" xlink:title=" ">
<polygon fill="#fff0f0" stroke="red" points="309,-759 173,-759 173,-740 309,-740 309,-759"/>
<text text-anchor="middle" x="241" y="-747" font-family="Helvetica,sans-Serif" font-size="10.00">OLakitu::func_800797AC</text>
</a>
</g>
</g>
<!-- Node59&#45;&gt;Node97 -->
<g id="edge29_Node000059_Node000097" class="edge">
<title>Node59&#45;&gt;Node97</title>
<g id="a_edge29_Node000059_Node000097"><a xlink:title=" ">
<path fill="none" stroke="#63b8ff" d="M395.11,-858.31C381.66,-855.68 367.86,-850.92 357,-842.5 328.09,-820.09 349.51,-791.41 321,-768.5 316.16,-764.61 310.65,-761.5 304.85,-759.01"/>
<polygon fill="#63b8ff" stroke="#63b8ff" points="394.85,-861.81 405.28,-859.92 395.95,-854.9 394.85,-861.81"/>
</a>
</g>
</g>
<!-- Node59&#45;&gt;Node143 -->
<g id="edge30_Node000059_Node000143" class="edge">
<title>Node59&#45;&gt;Node143</title>
<g id="a_edge30_Node000059_Node000143"><a xlink:title=" ">
<path fill="none" stroke="#63b8ff" d="M394.91,-860.91C380.79,-858.46 366.68,-853.14 357,-842.5 256.18,-731.78 419.84,-619.99 321,-507.5 313.46,-498.92 302.78,-493.86 291.7,-490.96"/>
<polygon fill="#63b8ff" stroke="#63b8ff" points="394.76,-864.42 405.13,-862.23 395.66,-857.48 394.76,-864.42"/>
</a>
</g>
</g>
<!-- Node66&#45;&gt;Node64 -->
<g id="edge20_Node000066_Node000064" class="edge">
<title>Node66&#45;&gt;Node64</title>
<g id="a_edge20_Node000066_Node000064"><a xlink:title=" ">
<path fill="none" stroke="#63b8ff" d="M184.74,-611.08C160.42,-616.18 132.2,-622.1 109.11,-626.94"/>
<polygon fill="#63b8ff" stroke="#63b8ff" points="185.48,-614.51 194.55,-609.03 184.04,-607.65 185.48,-614.51"/>
</a>
</g>
</g>
<!-- Node156&#45;&gt;Node3 -->
<g id="edge34_Node000156_Node000003" class="edge">
<title>Node156&#45;&gt;Node3</title>
<g id="a_edge34_Node000156_Node000003"><a xlink:title=" ">
<path fill="none" stroke="#63b8ff" d="M383.87,-979.82C374.53,-982.45 365.27,-985.93 357,-990.5 336.92,-1001.61 341.01,-1016.27 321,-1027.5 314.87,-1030.94 308.12,-1033.73 301.22,-1035.98"/>
<polygon fill="#63b8ff" stroke="#63b8ff" points="384.75,-983.2 393.59,-977.36 383.04,-976.42 384.75,-983.2"/>
</a>
</g>
</g>
<!-- Node200&#45;&gt;Node199 -->
<g id="edge51_Node000200_Node000199" class="edge">
<title>Node200&#45;&gt;Node199</title>
<g id="a_edge51_Node000200_Node000199"><a xlink:title=" ">
<path fill="none" stroke="#63b8ff" d="M364.44,-106.63C347.48,-110.21 329.71,-113.97 313.13,-117.47"/>
<polygon fill="#63b8ff" stroke="#63b8ff" points="365.27,-110.03 374.33,-104.54 363.82,-103.18 365.27,-110.03"/>
</a>
</g>
</g>
<!-- Node201&#45;&gt;Node199 -->
<g id="edge53_Node000201_Node000199" class="edge">
<title>Node201&#45;&gt;Node199</title>
<g id="a_edge53_Node000201_Node000199"><a xlink:title=" ">
<path fill="none" stroke="#63b8ff" d="M364.44,-158.37C347.48,-154.79 329.71,-151.03 313.13,-147.53"/>
<polygon fill="#63b8ff" stroke="#63b8ff" points="363.82,-161.82 374.33,-160.46 365.27,-154.97 363.82,-161.82"/>
</a>
</g>
</g>
</g>
</svg>
