<?xml version="1.0" encoding="UTF-8" standalone="no"?>
<!DOCTYPE svg PUBLIC "-//W3C//DTD SVG 1.1//EN"
 "http://www.w3.org/Graphics/SVG/1.1/DTD/svg11.dtd">
<!-- Generated by graphviz version 2.43.0 (0)
 -->
<!-- Title: GetCupName Pages: 1 -->
<svg width="248pt" height="64pt"
 viewBox="0.00 0.00 248.00 64.00" xmlns="http://www.w3.org/2000/svg" xmlns:xlink="http://www.w3.org/1999/xlink">
<g id="graph0" class="graph" transform="scale(1 1) rotate(0) translate(4 60)">
<title>GetCupName</title>
<!-- Node1 -->
<g id="Node000001" class="node">
<title>Node1</title>
<g id="a_Node000001"><a xlink:title=" ">
<polygon fill="#999999" stroke="#666666" points="82,-37 0,-37 0,-18 82,-18 82,-37"/>
<text text-anchor="middle" x="41" y="-25" font-family="Helvetica,sans-Serif" font-size="10.00">GetCupName</text>
</a>
</g>
</g>
<!-- Node2 -->
<g id="Node000002" class="node">
<title>Node2</title>
<g id="a_Node000002"><a xlink:href="classWorld.html#a37da13d556bec8e05d87b87942bdb19e" target="_top" xlink:title=" ">
<polygon fill="white" stroke="#666666" points="240,-56 118,-56 118,-37 240,-37 240,-56"/>
<text text-anchor="middle" x="179" y="-44" font-family="Helvetica,sans-Serif" font-size="10.00">World::GetCurrentCup</text>
</a>
</g>
</g>
<!-- Node1&#45;&gt;Node2 -->
<g id="edge1_Node000001_Node000002" class="edge">
<title>Node1&#45;&gt;Node2</title>
<g id="a_edge1_Node000001_Node000002"><a xlink:title=" ">
<path fill="none" stroke="#63b8ff" d="M82.07,-33.1C90.21,-34.24 99,-35.46 107.83,-36.7"/>
<polygon fill="#63b8ff" stroke="#63b8ff" points="107.41,-40.17 117.8,-38.09 108.38,-33.24 107.41,-40.17"/>
</a>
</g>
</g>
<!-- Node3 -->
<g id="Node000003" class="node">
<title>Node3</title>
<g id="a_Node000003"><a xlink:href="Game_8cpp.html#ae2fa844b3cb1021ecbc357f8ed2ad8cc" target="_top" xlink:title=" ">
<polygon fill="white" stroke="#666666" points="210,-19 148,-19 148,0 210,0 210,-19"/>
<text text-anchor="middle" x="179" y="-7" font-family="Helvetica,sans-Serif" font-size="10.00">GetWorld</text>
</a>
</g>
</g>
<!-- Node1&#45;&gt;Node3 -->
<g id="edge2_Node000001_Node000003" class="edge">
<title>Node1&#45;&gt;Node3</title>
<g id="a_edge2_Node000001_Node000003"><a xlink:title=" ">
<path fill="none" stroke="#63b8ff" d="M82.07,-22.2C99.62,-19.87 120.18,-17.15 137.75,-14.83"/>
<polygon fill="#63b8ff" stroke="#63b8ff" points="138.26,-18.29 147.71,-13.51 137.34,-11.35 138.26,-18.29"/>
</a>
</g>
</g>
</g>
</svg>
