<?xml version="1.0" encoding="UTF-8" standalone="no"?>
<!DOCTYPE svg PUBLIC "-//W3C//DTD SVG 1.1//EN"
 "http://www.w3.org/Graphics/SVG/1.1/DTD/svg11.dtd">
<!-- Generated by graphviz version 2.43.0 (0)
 -->
<!-- Title: LoadTrack Pages: 1 -->
<svg width="243pt" height="64pt"
 viewBox="0.00 0.00 243.00 64.00" xmlns="http://www.w3.org/2000/svg" xmlns:xlink="http://www.w3.org/1999/xlink">
<g id="graph0" class="graph" transform="scale(1 1) rotate(0) translate(4 60)">
<title>LoadTrack</title>
<!-- Node1 -->
<g id="Node000001" class="node">
<title>Node1</title>
<g id="a_Node000001"><a xlink:title=" ">
<polygon fill="#999999" stroke="#666666" points="65,-37 0,-37 0,-18 65,-18 65,-37"/>
<text text-anchor="middle" x="32.5" y="-25" font-family="Helvetica,sans-Serif" font-size="10.00">LoadTrack</text>
</a>
</g>
</g>
<!-- Node2 -->
<g id="Node000002" class="node">
<title>Node2</title>
<g id="a_Node000002"><a xlink:href="classWorld.html#afa31aec713e3a54e22e4406e4442107d" target="_top" xlink:title=" ">
<polygon fill="white" stroke="#666666" points="235,-56 101,-56 101,-37 235,-37 235,-56"/>
<text text-anchor="middle" x="168" y="-44" font-family="Helvetica,sans-Serif" font-size="10.00">World::GetRaceManager</text>
</a>
</g>
</g>
<!-- Node1&#45;&gt;Node2 -->
<g id="edge1_Node000001_Node000002" class="edge">
<title>Node1&#45;&gt;Node2</title>
<g id="a_edge1_Node000001_Node000002"><a xlink:title=" ">
<path fill="none" stroke="#63b8ff" d="M65.14,-32C73.06,-33.13 81.92,-34.39 91,-35.68"/>
<polygon fill="#63b8ff" stroke="#63b8ff" points="90.52,-39.15 100.92,-37.09 91.51,-32.22 90.52,-39.15"/>
</a>
</g>
</g>
<!-- Node3 -->
<g id="Node000003" class="node">
<title>Node3</title>
<g id="a_Node000003"><a xlink:href="Game_8cpp.html#ae2fa844b3cb1021ecbc357f8ed2ad8cc" target="_top" xlink:title=" ">
<polygon fill="white" stroke="#666666" points="199,-19 137,-19 137,0 199,0 199,-19"/>
<text text-anchor="middle" x="168" y="-7" font-family="Helvetica,sans-Serif" font-size="10.00">GetWorld</text>
</a>
</g>
</g>
<!-- Node1&#45;&gt;Node3 -->
<g id="edge2_Node000001_Node000003" class="edge">
<title>Node1&#45;&gt;Node3</title>
<g id="a_edge2_Node000001_Node000003"><a xlink:title=" ">
<path fill="none" stroke="#63b8ff" d="M65.14,-23.23C83.65,-20.74 107.21,-17.56 127,-14.89"/>
<polygon fill="#63b8ff" stroke="#63b8ff" points="127.52,-18.35 136.96,-13.55 126.59,-11.42 127.52,-18.35"/>
</a>
</g>
</g>
</g>
</svg>
