<?xml version="1.0" encoding="UTF-8" standalone="no"?>
<!DOCTYPE svg PUBLIC "-//W3C//DTD SVG 1.1//EN"
 "http://www.w3.org/Graphics/SVG/1.1/DTD/svg11.dtd">
<!-- Generated by graphviz version 2.43.0 (0)
 -->
<!-- Title: src/port/GBIMiddleware.cpp Pages: 1 -->
<svg width="923pt" height="148pt"
 viewBox="0.00 0.00 922.50 148.00" xmlns="http://www.w3.org/2000/svg" xmlns:xlink="http://www.w3.org/1999/xlink">
<g id="graph0" class="graph" transform="scale(1 1) rotate(0) translate(4 144)">
<title>src/port/GBIMiddleware.cpp</title>
<!-- Node1 -->
<g id="Node000001" class="node">
<title>Node1</title>
<g id="a_Node000001"><a xlink:title=" ">
<polygon fill="#999999" stroke="#666666" points="454.5,-140 303.5,-140 303.5,-121 454.5,-121 454.5,-140"/>
<text text-anchor="middle" x="379" y="-128" font-family="Helvetica,sans-Serif" font-size="10.00">src/port/GBIMiddleware.cpp</text>
</a>
</g>
</g>
<!-- Node2 -->
<g id="Node000002" class="node">
<title>Node2</title>
<g id="a_Node000002"><a xlink:title=" ">
<polygon fill="#e0e0e0" stroke="#999999" points="80,-79.5 0,-79.5 0,-60.5 80,-60.5 80,-79.5"/>
<text text-anchor="middle" x="40" y="-67.5" font-family="Helvetica,sans-Serif" font-size="10.00">libultraship.h</text>
</a>
</g>
</g>
<!-- Node1&#45;&gt;Node2 -->
<g id="edge1_Node000001_Node000002" class="edge">
<title>Node1&#45;&gt;Node2</title>
<g id="a_edge1_Node000001_Node000002"><a xlink:title=" ">
<path fill="none" stroke="#63b8ff" d="M306.73,-120.98C247.78,-113.42 162.52,-101.08 89,-85 85.17,-84.16 81.2,-83.2 77.25,-82.17"/>
<polygon fill="#63b8ff" stroke="#63b8ff" points="78.14,-78.78 67.57,-79.54 76.3,-85.54 78.14,-78.78"/>
</a>
</g>
</g>
<!-- Node3 -->
<g id="Node000003" class="node">
<title>Node3</title>
<g id="a_Node000003"><a xlink:href="Engine_8h.html" target="_top" xlink:title=" ">
<polygon fill="white" stroke="#666666" points="157.5,-79.5 98.5,-79.5 98.5,-60.5 157.5,-60.5 157.5,-79.5"/>
<text text-anchor="middle" x="128" y="-67.5" font-family="Helvetica,sans-Serif" font-size="10.00">Engine.h</text>
</a>
</g>
</g>
<!-- Node1&#45;&gt;Node3 -->
<g id="edge2_Node000001_Node000003" class="edge">
<title>Node1&#45;&gt;Node3</title>
<g id="a_edge2_Node000001_Node000003"><a xlink:title=" ">
<path fill="none" stroke="#63b8ff" d="M327.7,-120.97C284.23,-113.22 220.47,-100.63 166,-85 163.72,-84.35 161.38,-83.62 159.04,-82.85"/>
<polygon fill="#63b8ff" stroke="#63b8ff" points="160.12,-79.52 149.52,-79.55 157.82,-86.14 160.12,-79.52"/>
</a>
</g>
</g>
<!-- Node5 -->
<g id="Node000005" class="node">
<title>Node5</title>
<g id="a_Node000005"><a xlink:title=" ">
<polygon fill="#e0e0e0" stroke="#999999" points="280.5,-85 175.5,-85 175.5,-55 280.5,-55 280.5,-85"/>
<text text-anchor="start" x="183.5" y="-73" font-family="Helvetica,sans-Serif" font-size="10.00">fast/resource/type</text>
<text text-anchor="middle" x="228" y="-62" font-family="Helvetica,sans-Serif" font-size="10.00">/DisplayList.h</text>
</a>
</g>
</g>
<!-- Node1&#45;&gt;Node5 -->
<g id="edge4_Node000001_Node000005" class="edge">
<title>Node1&#45;&gt;Node5</title>
<g id="a_edge4_Node000001_Node000005"><a xlink:title=" ">
<path fill="none" stroke="#63b8ff" d="M357.04,-120.99C335.31,-112.57 301.39,-99.43 273.78,-88.73"/>
<polygon fill="#63b8ff" stroke="#63b8ff" points="274.89,-85.41 264.3,-85.06 272.36,-91.94 274.89,-85.41"/>
</a>
</g>
</g>
<!-- Node6 -->
<g id="Node000006" class="node">
<title>Node6</title>
<g id="a_Node000006"><a xlink:title=" ">
<polygon fill="#e0e0e0" stroke="#999999" points="459,-79.5 299,-79.5 299,-60.5 459,-60.5 459,-79.5"/>
<text text-anchor="middle" x="379" y="-67.5" font-family="Helvetica,sans-Serif" font-size="10.00">fast/resource/ResourceType.h</text>
</a>
</g>
</g>
<!-- Node1&#45;&gt;Node6 -->
<g id="edge5_Node000001_Node000006" class="edge">
<title>Node1&#45;&gt;Node6</title>
<g id="a_edge5_Node000001_Node000006"><a xlink:title=" ">
<path fill="none" stroke="#63b8ff" d="M379,-120.87C379,-112.75 379,-100.31 379,-89.89"/>
<polygon fill="#63b8ff" stroke="#63b8ff" points="382.5,-89.67 379,-79.67 375.5,-89.67 382.5,-89.67"/>
</a>
</g>
</g>
<!-- Node7 -->
<g id="Node000007" class="node">
<title>Node7</title>
<g id="a_Node000007"><a xlink:href="ResourceType_8h.html" target="_top" xlink:title=" ">
<polygon fill="white" stroke="#666666" points="640.5,-79.5 477.5,-79.5 477.5,-60.5 640.5,-60.5 640.5,-79.5"/>
<text text-anchor="middle" x="559" y="-67.5" font-family="Helvetica,sans-Serif" font-size="10.00">resource/type/ResourceType.h</text>
</a>
</g>
</g>
<!-- Node1&#45;&gt;Node7 -->
<g id="edge6_Node000001_Node000007" class="edge">
<title>Node1&#45;&gt;Node7</title>
<g id="a_edge6_Node000001_Node000007"><a xlink:title=" ">
<path fill="none" stroke="#63b8ff" d="M405.17,-120.99C436.23,-110.9 488.19,-94.01 523.02,-82.69"/>
<polygon fill="#63b8ff" stroke="#63b8ff" points="524.37,-85.94 532.79,-79.52 522.2,-79.28 524.37,-85.94"/>
</a>
</g>
</g>
<!-- Node8 -->
<g id="Node000008" class="node">
<title>Node8</title>
<g id="a_Node000008"><a xlink:href="Array_8h.html" target="_top" xlink:title=" ">
<polygon fill="white" stroke="#666666" points="779,-79.5 659,-79.5 659,-60.5 779,-60.5 779,-79.5"/>
<text text-anchor="middle" x="719" y="-67.5" font-family="Helvetica,sans-Serif" font-size="10.00">resource/type/Array.h</text>
</a>
</g>
</g>
<!-- Node1&#45;&gt;Node8 -->
<g id="edge7_Node000001_Node000008" class="edge">
<title>Node1&#45;&gt;Node8</title>
<g id="a_edge7_Node000001_Node000008"><a xlink:title=" ">
<path fill="none" stroke="#63b8ff" d="M434.64,-120.99C489.5,-112.45 575.67,-98.64 650,-85 655.85,-83.93 661.98,-82.75 668.05,-81.56"/>
<polygon fill="#63b8ff" stroke="#63b8ff" points="669.06,-84.93 678.18,-79.54 667.69,-78.06 669.06,-84.93"/>
</a>
</g>
</g>
<!-- Node10 -->
<g id="Node000010" class="node">
<title>Node10</title>
<g id="a_Node000010"><a xlink:href="align__asset__macro_8h.html" target="_top" xlink:title=" ">
<polygon fill="white" stroke="#666666" points="914.5,-79.5 797.5,-79.5 797.5,-60.5 914.5,-60.5 914.5,-79.5"/>
<text text-anchor="middle" x="856" y="-67.5" font-family="Helvetica,sans-Serif" font-size="10.00">align_asset_macro.h</text>
</a>
</g>
</g>
<!-- Node1&#45;&gt;Node10 -->
<g id="edge9_Node000001_Node000010" class="edge">
<title>Node1&#45;&gt;Node10</title>
<g id="a_edge9_Node000001_Node000010"><a xlink:title=" ">
<path fill="none" stroke="#63b8ff" d="M454.66,-123.43C536.97,-116.32 672.28,-103.17 788,-85 794.33,-84.01 800.96,-82.82 807.5,-81.57"/>
<polygon fill="#63b8ff" stroke="#63b8ff" points="808.51,-84.94 817.64,-79.56 807.15,-78.07 808.51,-84.94"/>
</a>
</g>
</g>
<!-- Node4 -->
<g id="Node000004" class="node">
<title>Node4</title>
<g id="a_Node000004"><a xlink:href="HMAS_8h.html" target="_top" xlink:title=" ">
<polygon fill="white" stroke="#666666" points="181.5,-19 74.5,-19 74.5,0 181.5,0 181.5,-19"/>
<text text-anchor="middle" x="128" y="-7" font-family="Helvetica,sans-Serif" font-size="10.00">port/audio/HMAS.h</text>
</a>
</g>
</g>
<!-- Node3&#45;&gt;Node4 -->
<g id="edge3_Node000003_Node000004" class="edge">
<title>Node3&#45;&gt;Node4</title>
<g id="a_edge3_Node000003_Node000004"><a xlink:title=" ">
<path fill="none" stroke="#63b8ff" d="M128,-60.37C128,-52.25 128,-39.81 128,-29.39"/>
<polygon fill="#63b8ff" stroke="#63b8ff" points="131.5,-29.17 128,-19.17 124.5,-29.17 131.5,-29.17"/>
</a>
</g>
</g>
<!-- Node9 -->
<g id="Node000009" class="node">
<title>Node9</title>
<g id="a_Node000009"><a xlink:title=" ">
<polygon fill="#e0e0e0" stroke="#999999" points="788.5,-19 649.5,-19 649.5,0 788.5,0 788.5,-19"/>
<text text-anchor="middle" x="719" y="-7" font-family="Helvetica,sans-Serif" font-size="10.00">ship/resource/Resource.h</text>
</a>
</g>
</g>
<!-- Node8&#45;&gt;Node9 -->
<g id="edge8_Node000008_Node000009" class="edge">
<title>Node8&#45;&gt;Node9</title>
<g id="a_edge8_Node000008_Node000009"><a xlink:title=" ">
<path fill="none" stroke="#63b8ff" d="M719,-60.37C719,-52.25 719,-39.81 719,-29.39"/>
<polygon fill="#63b8ff" stroke="#63b8ff" points="722.5,-29.17 719,-19.17 715.5,-29.17 722.5,-29.17"/>
</a>
</g>
</g>
</g>
</svg>
