<?xml version="1.0" encoding="UTF-8" standalone="no"?>
<!DOCTYPE svg PUBLIC "-//W3C//DTD SVG 1.1//EN"
 "http://www.w3.org/Graphics/SVG/1.1/DTD/svg11.dtd">
<!-- Generated by graphviz version 2.43.0 (0)
 -->
<!-- Title: src/buffers/gfx_output_buffer.c Pages: 1 -->
<svg width="275pt" height="148pt"
 viewBox="0.00 0.00 274.50 148.00" xmlns="http://www.w3.org/2000/svg" xmlns:xlink="http://www.w3.org/1999/xlink">
<g id="graph0" class="graph" transform="scale(1 1) rotate(0) translate(4 144)">
<title>src/buffers/gfx_output_buffer.c</title>
<!-- Node1 -->
<g id="Node000001" class="node">
<title>Node1</title>
<g id="a_Node000001"><a xlink:title=" ">
<polygon fill="#999999" stroke="#666666" points="166.5,-140 43.5,-140 43.5,-110 166.5,-110 166.5,-140"/>
<text text-anchor="start" x="51.5" y="-128" font-family="Helvetica,sans-Serif" font-size="10.00">src/buffers/gfx_output</text>
<text text-anchor="middle" x="105" y="-117" font-family="Helvetica,sans-Serif" font-size="10.00">_buffer.c</text>
</a>
</g>
</g>
<!-- Node2 -->
<g id="Node000002" class="node">
<title>Node2</title>
<g id="a_Node000002"><a xlink:title=" ">
<polygon fill="#e0e0e0" stroke="#999999" points="80,-19 0,-19 0,0 80,0 80,-19"/>
<text text-anchor="middle" x="40" y="-7" font-family="Helvetica,sans-Serif" font-size="10.00">libultraship.h</text>
</a>
</g>
</g>
<!-- Node1&#45;&gt;Node2 -->
<g id="edge1_Node000001_Node000002" class="edge">
<title>Node1&#45;&gt;Node2</title>
<g id="a_edge1_Node000001_Node000002"><a xlink:title=" ">
<path fill="none" stroke="#63b8ff" d="M91.87,-109.96C83.39,-100.38 72.58,-87.08 65,-74 56.65,-59.58 49.93,-41.84 45.57,-28.78"/>
<polygon fill="#63b8ff" stroke="#63b8ff" points="48.85,-27.55 42.48,-19.09 42.18,-29.68 48.85,-27.55"/>
</a>
</g>
</g>
<!-- Node3 -->
<g id="Node000003" class="node">
<title>Node3</title>
<g id="a_Node000003"><a xlink:href="macros_8h.html" target="_top" xlink:title=" ">
<polygon fill="white" stroke="#666666" points="136,-74 74,-74 74,-55 136,-55 136,-74"/>
<text text-anchor="middle" x="105" y="-62" font-family="Helvetica,sans-Serif" font-size="10.00">macros.h</text>
</a>
</g>
</g>
<!-- Node1&#45;&gt;Node3 -->
<g id="edge2_Node000001_Node000003" class="edge">
<title>Node1&#45;&gt;Node3</title>
<g id="a_edge2_Node000001_Node000003"><a xlink:title=" ">
<path fill="none" stroke="#63b8ff" d="M105,-109.84C105,-102.21 105,-92.7 105,-84.45"/>
<polygon fill="#63b8ff" stroke="#63b8ff" points="108.5,-84.27 105,-74.27 101.5,-84.27 108.5,-84.27"/>
</a>
</g>
</g>
<!-- Node5 -->
<g id="Node000005" class="node">
<title>Node5</title>
<g id="a_Node000005"><a xlink:href="gfx__output__buffer_8h.html" target="_top" xlink:title=" ">
<polygon fill="white" stroke="#666666" points="266.5,-74 155.5,-74 155.5,-55 266.5,-55 266.5,-74"/>
<text text-anchor="middle" x="211" y="-62" font-family="Helvetica,sans-Serif" font-size="10.00">gfx_output_buffer.h</text>
</a>
</g>
</g>
<!-- Node1&#45;&gt;Node5 -->
<g id="edge5_Node000001_Node000005" class="edge">
<title>Node1&#45;&gt;Node5</title>
<g id="a_edge5_Node000001_Node000005"><a xlink:title=" ">
<path fill="none" stroke="#63b8ff" d="M130.39,-109.99C147.29,-100.66 169.38,-88.47 186.16,-79.21"/>
<polygon fill="#63b8ff" stroke="#63b8ff" points="188.28,-82.04 195.35,-74.14 184.9,-75.91 188.28,-82.04"/>
</a>
</g>
</g>
<!-- Node3&#45;&gt;Node2 -->
<g id="edge4_Node000003_Node000002" class="edge">
<title>Node3&#45;&gt;Node2</title>
<g id="a_edge4_Node000003_Node000002"><a xlink:title=" ">
<path fill="none" stroke="#63b8ff" d="M94.56,-54.98C84.85,-47.07 70.18,-35.11 58.5,-25.58"/>
<polygon fill="#63b8ff" stroke="#63b8ff" points="60.6,-22.78 50.63,-19.17 56.17,-28.2 60.6,-22.78"/>
</a>
</g>
</g>
<!-- Node4 -->
<g id="Node000004" class="node">
<title>Node4</title>
<g id="a_Node000004"><a xlink:href="math_8h.html" target="_top" xlink:title=" ">
<polygon fill="white" stroke="#666666" points="149.5,-19 98.5,-19 98.5,0 149.5,0 149.5,-19"/>
<text text-anchor="middle" x="124" y="-7" font-family="Helvetica,sans-Serif" font-size="10.00">math.h</text>
</a>
</g>
</g>
<!-- Node3&#45;&gt;Node4 -->
<g id="edge3_Node000003_Node000004" class="edge">
<title>Node3&#45;&gt;Node4</title>
<g id="a_edge3_Node000003_Node000004"><a xlink:title=" ">
<path fill="none" stroke="#63b8ff" d="M108.14,-54.75C110.68,-47.65 114.36,-37.4 117.53,-28.56"/>
<polygon fill="#63b8ff" stroke="#63b8ff" points="120.84,-29.68 120.92,-19.09 114.25,-27.32 120.84,-29.68"/>
</a>
</g>
</g>
<!-- Node6 -->
<g id="Node000006" class="node">
<title>Node6</title>
<g id="a_Node000006"><a xlink:title=" ">
<polygon fill="#e0e0e0" stroke="#999999" points="258,-19 168,-19 168,0 258,0 258,-19"/>
<text text-anchor="middle" x="213" y="-7" font-family="Helvetica,sans-Serif" font-size="10.00">libultra/types.h</text>
</a>
</g>
</g>
<!-- Node5&#45;&gt;Node6 -->
<g id="edge6_Node000005_Node000006" class="edge">
<title>Node5&#45;&gt;Node6</title>
<g id="a_edge6_Node000005_Node000006"><a xlink:title=" ">
<path fill="none" stroke="#63b8ff" d="M211.33,-54.75C211.59,-47.8 211.97,-37.85 212.3,-29.13"/>
<polygon fill="#63b8ff" stroke="#63b8ff" points="215.8,-29.21 212.68,-19.09 208.8,-28.95 215.8,-29.21"/>
</a>
</g>
</g>
</g>
</svg>
