<?xml version="1.0" encoding="UTF-8" standalone="no"?>
<!DOCTYPE svg PUBLIC "-//W3C//DTD SVG 1.1//EN"
 "http://www.w3.org/Graphics/SVG/1.1/DTD/svg11.dtd">
<!-- Generated by graphviz version 2.43.0 (0)
 -->
<!-- Title: src/engine/editor/Gizmo.h Pages: 1 -->
<svg width="515pt" height="159pt"
 viewBox="0.00 0.00 515.00 159.00" xmlns="http://www.w3.org/2000/svg" xmlns:xlink="http://www.w3.org/1999/xlink">
<g id="graph0" class="graph" transform="scale(1 1) rotate(0) translate(4 155)">
<title>src/engine/editor/Gizmo.h</title>
<!-- Node1 -->
<g id="Node000001" class="node">
<title>Node1</title>
<g id="a_Node000001"><a xlink:title=" ">
<polygon fill="#999999" stroke="#666666" points="365.5,-151 223.5,-151 223.5,-132 365.5,-132 365.5,-151"/>
<text text-anchor="middle" x="294.5" y="-139" font-family="Helvetica,sans-Serif" font-size="10.00">src/engine/editor/Gizmo.h</text>
</a>
</g>
</g>
<!-- Node2 -->
<g id="Node000002" class="node">
<title>Node2</title>
<g id="a_Node000002"><a xlink:href="Gizmo_8cpp.html" target="_top" xlink:title=" ">
<polygon fill="white" stroke="#666666" points="153,-90.5 0,-90.5 0,-71.5 153,-71.5 153,-90.5"/>
<text text-anchor="middle" x="76.5" y="-78.5" font-family="Helvetica,sans-Serif" font-size="10.00">src/engine/editor/Gizmo.cpp</text>
</a>
</g>
</g>
<!-- Node1&#45;&gt;Node2 -->
<g id="edge1_Node000001_Node000002" class="edge">
<title>Node1&#45;&gt;Node2</title>
<g id="a_edge1_Node000001_Node000002"><a xlink:title=" ">
<path fill="none" stroke="#63b8ff" d="M253.12,-129.4C210.97,-118.08 146.52,-100.79 108.24,-90.52"/>
<polygon fill="#63b8ff" stroke="#63b8ff" points="252.24,-132.78 262.8,-131.99 254.05,-126.02 252.24,-132.78"/>
</a>
</g>
</g>
<!-- Node3 -->
<g id="Node000003" class="node">
<title>Node3</title>
<g id="a_Node000003"><a xlink:href="Light_8cpp.html" target="_top" xlink:title=" ">
<polygon fill="white" stroke="#666666" points="317.5,-90.5 171.5,-90.5 171.5,-71.5 317.5,-71.5 317.5,-90.5"/>
<text text-anchor="middle" x="244.5" y="-78.5" font-family="Helvetica,sans-Serif" font-size="10.00">src/engine/editor/Light.cpp</text>
</a>
</g>
</g>
<!-- Node1&#45;&gt;Node3 -->
<g id="edge2_Node000001_Node000003" class="edge">
<title>Node1&#45;&gt;Node3</title>
<g id="a_edge2_Node000001_Node000003"><a xlink:title=" ">
<path fill="none" stroke="#63b8ff" d="M280.36,-123.95C271.1,-113.12 259.38,-99.41 251.91,-90.67"/>
<polygon fill="#63b8ff" stroke="#63b8ff" points="277.96,-126.54 287.12,-131.87 283.29,-121.99 277.96,-126.54"/>
</a>
</g>
</g>
<!-- Node4 -->
<g id="Node000004" class="node">
<title>Node4</title>
<g id="a_Node000004"><a xlink:href="ObjectPicker_8cpp.html" target="_top" xlink:title=" ">
<polygon fill="white" stroke="#666666" points="459,-30 326,-30 326,0 459,0 459,-30"/>
<text text-anchor="start" x="334" y="-18" font-family="Helvetica,sans-Serif" font-size="10.00">src/engine/editor/Object</text>
<text text-anchor="middle" x="392.5" y="-7" font-family="Helvetica,sans-Serif" font-size="10.00">Picker.cpp</text>
</a>
</g>
</g>
<!-- Node1&#45;&gt;Node4 -->
<g id="edge3_Node000001_Node000004" class="edge">
<title>Node1&#45;&gt;Node4</title>
<g id="a_edge3_Node000001_Node000004"><a xlink:title=" ">
<path fill="none" stroke="#63b8ff" d="M307.57,-123.9C326.99,-99.23 363.11,-53.33 381.35,-30.16"/>
<polygon fill="#63b8ff" stroke="#63b8ff" points="304.67,-121.92 301.24,-131.94 310.17,-126.25 304.67,-121.92"/>
</a>
</g>
</g>
<!-- Node5 -->
<g id="Node000005" class="node">
<title>Node5</title>
<g id="a_Node000005"><a xlink:href="ObjectPicker_8h.html" target="_top" xlink:title=" ">
<polygon fill="white" stroke="#666666" points="507,-96 374,-96 374,-66 507,-66 507,-96"/>
<text text-anchor="start" x="382" y="-84" font-family="Helvetica,sans-Serif" font-size="10.00">src/engine/editor/Object</text>
<text text-anchor="middle" x="440.5" y="-73" font-family="Helvetica,sans-Serif" font-size="10.00">Picker.h</text>
</a>
</g>
</g>
<!-- Node1&#45;&gt;Node5 -->
<g id="edge4_Node000001_Node000005" class="edge">
<title>Node1&#45;&gt;Node5</title>
<g id="a_edge4_Node000001_Node000005"><a xlink:title=" ">
<path fill="none" stroke="#63b8ff" d="M325.18,-128.21C348.61,-118.82 380.94,-105.87 405.4,-96.06"/>
<polygon fill="#63b8ff" stroke="#63b8ff" points="323.71,-125.03 315.73,-131.99 326.31,-131.52 323.71,-125.03"/>
</a>
</g>
</g>
<!-- Node5&#45;&gt;Node4 -->
<g id="edge5_Node000005_Node000004" class="edge">
<title>Node5&#45;&gt;Node4</title>
<g id="a_edge5_Node000005_Node000004"><a xlink:title=" ">
<path fill="none" stroke="#63b8ff" d="M423.64,-57.53C416.82,-48.43 409.15,-38.19 403.12,-30.16"/>
<polygon fill="#63b8ff" stroke="#63b8ff" points="421.05,-59.9 429.85,-65.8 426.65,-55.7 421.05,-59.9"/>
</a>
</g>
</g>
</g>
</svg>
