<?xml version="1.0" encoding="UTF-8" standalone="no"?>
<!DOCTYPE svg PUBLIC "-//W3C//DTD SVG 1.1//EN"
 "http://www.w3.org/Graphics/SVG/1.1/DTD/svg11.dtd">
<!-- Generated by graphviz version 2.43.0 (0)
 -->
<!-- Title: src/engine/editor/Gizmo.h Pages: 1 -->
<svg width="1680pt" height="357pt"
 viewBox="0.00 0.00 1679.50 357.00" xmlns="http://www.w3.org/2000/svg" xmlns:xlink="http://www.w3.org/1999/xlink">
<g id="graph0" class="graph" transform="scale(1 1) rotate(0) translate(4 353)">
<title>src/engine/editor/Gizmo.h</title>
<!-- Node1 -->
<g id="Node000001" class="node">
<title>Node1</title>
<g id="a_Node000001"><a xlink:title=" ">
<polygon fill="#999999" stroke="#666666" points="620,-349 478,-349 478,-330 620,-330 620,-349"/>
<text text-anchor="middle" x="549" y="-337" font-family="Helvetica,sans-Serif" font-size="10.00">src/engine/editor/Gizmo.h</text>
</a>
</g>
</g>
<!-- Node2 -->
<g id="Node000002" class="node">
<title>Node2</title>
<g id="a_Node000002"><a xlink:title=" ">
<polygon fill="#e0e0e0" stroke="#999999" points="280,-129 142,-129 142,-110 280,-110 280,-129"/>
<text text-anchor="middle" x="211" y="-117" font-family="Helvetica,sans-Serif" font-size="10.00">libultraship/libultraship.h</text>
</a>
</g>
</g>
<!-- Node1&#45;&gt;Node2 -->
<g id="edge1_Node000001_Node000002" class="edge">
<title>Node1&#45;&gt;Node2</title>
<g id="a_edge1_Node000001_Node000002"><a xlink:title=" ">
<path fill="none" stroke="#63b8ff" d="M507.22,-329.92C449.79,-316.8 344.74,-287.99 267,-239 237.75,-220.57 225.48,-215.83 212,-184 206.01,-169.87 206.24,-152.32 207.7,-139.26"/>
<polygon fill="#63b8ff" stroke="#63b8ff" points="211.19,-139.53 209.17,-129.13 204.27,-138.53 211.19,-139.53"/>
</a>
</g>
</g>
<!-- Node3 -->
<g id="Node000003" class="node">
<title>Node3</title>
<g id="a_Node000003"><a xlink:title=" ">
<polygon fill="#e0e0e0" stroke="#999999" points="182,-74 104,-74 104,-55 182,-55 182,-74"/>
<text text-anchor="middle" x="143" y="-62" font-family="Helvetica,sans-Serif" font-size="10.00">libultra/gbi.h</text>
</a>
</g>
</g>
<!-- Node1&#45;&gt;Node3 -->
<g id="edge2_Node000001_Node000003" class="edge">
<title>Node1&#45;&gt;Node3</title>
<g id="a_edge2_Node000001_Node000003"><a xlink:title=" ">
<path fill="none" stroke="#63b8ff" d="M477.79,-339.19C329.24,-338.71 0,-326.79 0,-230.5 0,-230.5 0,-230.5 0,-173.5 0,-122.12 59.5,-92.09 101.74,-77.24"/>
<polygon fill="#63b8ff" stroke="#63b8ff" points="102.9,-80.55 111.26,-74.05 100.67,-73.91 102.9,-80.55"/>
</a>
</g>
</g>
<!-- Node4 -->
<g id="Node000004" class="node">
<title>Node4</title>
<g id="a_Node000004"><a xlink:href="Collision_8h.html" target="_top" xlink:title=" ">
<polygon fill="white" stroke="#666666" points="583,-294 515,-294 515,-275 583,-275 583,-294"/>
<text text-anchor="middle" x="549" y="-282" font-family="Helvetica,sans-Serif" font-size="10.00">Collision.h</text>
</a>
</g>
</g>
<!-- Node1&#45;&gt;Node4 -->
<g id="edge3_Node000001_Node000004" class="edge">
<title>Node1&#45;&gt;Node4</title>
<g id="a_edge3_Node000001_Node000004"><a xlink:title=" ">
<path fill="none" stroke="#63b8ff" d="M549,-329.75C549,-322.8 549,-312.85 549,-304.13"/>
<polygon fill="#63b8ff" stroke="#63b8ff" points="552.5,-304.09 549,-294.09 545.5,-304.09 552.5,-304.09"/>
</a>
</g>
</g>
<!-- Node5 -->
<g id="Node000005" class="node">
<title>Node5</title>
<g id="a_Node000005"><a xlink:href="GameObject_8h.html" target="_top" xlink:title=" ">
<polygon fill="white" stroke="#666666" points="530,-239 444,-239 444,-220 530,-220 530,-239"/>
<text text-anchor="middle" x="487" y="-227" font-family="Helvetica,sans-Serif" font-size="10.00">GameObject.h</text>
</a>
</g>
</g>
<!-- Node1&#45;&gt;Node5 -->
<g id="edge62_Node000001_Node000005" class="edge">
<title>Node1&#45;&gt;Node5</title>
<g id="a_edge62_Node000001_Node000005"><a xlink:title=" ">
<path fill="none" stroke="#63b8ff" d="M537.94,-329.74C528.22,-321.48 514.36,-308.28 506,-294 497.91,-280.17 493,-262.61 490.2,-249.45"/>
<polygon fill="#63b8ff" stroke="#63b8ff" points="493.57,-248.41 488.26,-239.24 486.69,-249.72 493.57,-248.41"/>
</a>
</g>
</g>
<!-- Node19 -->
<g id="Node000019" class="node">
<title>Node19</title>
<g id="a_Node000019"><a xlink:href="Actor_8h.html" target="_top" xlink:title=" ">
<polygon fill="white" stroke="#666666" points="1352,-239 1266,-239 1266,-220 1352,-220 1352,-239"/>
<text text-anchor="middle" x="1309" y="-227" font-family="Helvetica,sans-Serif" font-size="10.00">engine/Actor.h</text>
</a>
</g>
</g>
<!-- Node1&#45;&gt;Node19 -->
<g id="edge63_Node000001_Node000019" class="edge">
<title>Node1&#45;&gt;Node19</title>
<g id="a_edge63_Node000001_Node000019"><a xlink:title=" ">
<path fill="none" stroke="#63b8ff" d="M565.13,-329.95C597.78,-312.65 668.65,-275.1 669,-275 778.62,-243.71 1122.15,-234.01 1255.42,-231.37"/>
<polygon fill="#63b8ff" stroke="#63b8ff" points="1255.84,-234.87 1265.77,-231.18 1255.71,-227.87 1255.84,-234.87"/>
</a>
</g>
</g>
<!-- Node26 -->
<g id="Node000026" class="node">
<title>Node26</title>
<g id="a_Node000026"><a xlink:href="Object_8h.html" target="_top" xlink:title=" ">
<polygon fill="white" stroke="#666666" points="943.5,-239 812.5,-239 812.5,-220 943.5,-220 943.5,-239"/>
<text text-anchor="middle" x="878" y="-227" font-family="Helvetica,sans-Serif" font-size="10.00">engine/objects/Object.h</text>
</a>
</g>
</g>
<!-- Node1&#45;&gt;Node26 -->
<g id="edge64_Node000001_Node000026" class="edge">
<title>Node1&#45;&gt;Node26</title>
<g id="a_edge64_Node000001_Node000026"><a xlink:title=" ">
<path fill="none" stroke="#63b8ff" d="M557.67,-329.93C572.28,-316.02 603.32,-288.71 635,-275 688.3,-251.92 753.21,-240.81 802.53,-235.46"/>
<polygon fill="#63b8ff" stroke="#63b8ff" points="802.9,-238.94 812.49,-234.43 802.18,-231.98 802.9,-238.94"/>
</a>
</g>
</g>
<!-- Node29 -->
<g id="Node000029" class="node">
<title>Node29</title>
<g id="a_Node000029"><a xlink:title=" ">
<polygon fill="#e0e0e0" stroke="#999999" points="728.5,-294 677.5,-294 677.5,-275 728.5,-275 728.5,-294"/>
<text text-anchor="middle" x="703" y="-282" font-family="Helvetica,sans-Serif" font-size="10.00">variant</text>
</a>
</g>
</g>
<!-- Node1&#45;&gt;Node29 -->
<g id="edge65_Node000001_Node000029" class="edge">
<title>Node1&#45;&gt;Node29</title>
<g id="a_edge65_Node000001_Node000029"><a xlink:title=" ">
<path fill="none" stroke="#63b8ff" d="M573.74,-329.98C599.37,-321.16 639.63,-307.31 668.41,-297.41"/>
<polygon fill="#63b8ff" stroke="#63b8ff" points="669.75,-300.65 678.06,-294.08 667.47,-294.03 669.75,-300.65"/>
</a>
</g>
</g>
<!-- Node4&#45;&gt;Node2 -->
<g id="edge4_Node000004_Node000002" class="edge">
<title>Node4&#45;&gt;Node2</title>
<g id="a_edge4_Node000004_Node000002"><a xlink:title=" ">
<path fill="none" stroke="#63b8ff" d="M514.77,-283.44C448.78,-281.37 303.66,-267.03 226,-184 214.77,-171.99 211.45,-153.18 210.68,-139.14"/>
<polygon fill="#63b8ff" stroke="#63b8ff" points="214.18,-139.07 210.51,-129.13 207.18,-139.19 214.18,-139.07"/>
</a>
</g>
</g>
<!-- Node4&#45;&gt;Node3 -->
<g id="edge5_Node000004_Node000003" class="edge">
<title>Node4&#45;&gt;Node3</title>
<g id="a_edge5_Node000004_Node000003"><a xlink:title=" ">
<path fill="none" stroke="#63b8ff" d="M514.94,-283.51C460.37,-282.37 350.95,-275.27 267,-239 193.71,-207.34 160.14,-200.68 125,-129 117.76,-114.24 124.29,-96.09 131.42,-82.97"/>
<polygon fill="#63b8ff" stroke="#63b8ff" points="134.62,-84.44 136.78,-74.07 128.63,-80.83 134.62,-84.44"/>
</a>
</g>
</g>
<!-- Node4&#45;&gt;Node5 -->
<g id="edge6_Node000004_Node000005" class="edge">
<title>Node4&#45;&gt;Node5</title>
<g id="a_edge6_Node000004_Node000005"><a xlink:title=" ">
<path fill="none" stroke="#63b8ff" d="M539.04,-274.98C529.87,-267.15 516.06,-255.34 504.97,-245.86"/>
<polygon fill="#63b8ff" stroke="#63b8ff" points="507.02,-243.01 497.14,-239.17 502.47,-248.33 507.02,-243.01"/>
</a>
</g>
</g>
<!-- Node9 -->
<g id="Node000009" class="node">
<title>Node9</title>
<g id="a_Node000009"><a xlink:href="EditorMath_8h.html" target="_top" xlink:title=" ">
<polygon fill="white" stroke="#666666" points="597.5,-184 518.5,-184 518.5,-165 597.5,-165 597.5,-184"/>
<text text-anchor="middle" x="558" y="-172" font-family="Helvetica,sans-Serif" font-size="10.00">EditorMath.h</text>
</a>
</g>
</g>
<!-- Node4&#45;&gt;Node9 -->
<g id="edge61_Node000004_Node000009" class="edge">
<title>Node4&#45;&gt;Node9</title>
<g id="a_edge61_Node000004_Node000009"><a xlink:title=" ">
<path fill="none" stroke="#63b8ff" d="M549.74,-274.66C551.19,-257.17 554.47,-217.8 556.44,-194.27"/>
<polygon fill="#63b8ff" stroke="#63b8ff" points="559.94,-194.41 557.28,-184.16 552.96,-193.83 559.94,-194.41"/>
</a>
</g>
</g>
<!-- Node4&#45;&gt;Node19 -->
<g id="edge34_Node000004_Node000019" class="edge">
<title>Node4&#45;&gt;Node19</title>
<g id="a_edge34_Node000004_Node000019"><a xlink:title=" ">
<path fill="none" stroke="#63b8ff" d="M583.29,-279.85C599.04,-278.24 617.95,-276.4 635,-275 865.92,-255.97 1141.88,-239.81 1255.8,-233.42"/>
<polygon fill="#63b8ff" stroke="#63b8ff" points="1256.2,-236.9 1265.99,-232.85 1255.81,-229.92 1256.2,-236.9"/>
</a>
</g>
</g>
<!-- Node4&#45;&gt;Node26 -->
<g id="edge52_Node000004_Node000026" class="edge">
<title>Node4&#45;&gt;Node26</title>
<g id="a_edge52_Node000004_Node000026"><a xlink:title=" ">
<path fill="none" stroke="#63b8ff" d="M583.08,-277.39C587.75,-276.57 592.49,-275.76 597,-275 670.64,-262.65 755.3,-249.37 812.28,-240.56"/>
<polygon fill="#63b8ff" stroke="#63b8ff" points="812.89,-244.01 822.24,-239.02 811.82,-237.09 812.89,-244.01"/>
</a>
</g>
</g>
<!-- Node5&#45;&gt;Node2 -->
<g id="edge7_Node000005_Node000002" class="edge">
<title>Node5&#45;&gt;Node2</title>
<g id="a_edge7_Node000005_Node000002"><a xlink:title=" ">
<path fill="none" stroke="#63b8ff" d="M443.81,-224.87C383.5,-219.07 277.97,-206.07 247,-184 231.55,-172.99 221.86,-153.15 216.48,-138.57"/>
<polygon fill="#63b8ff" stroke="#63b8ff" points="219.79,-137.45 213.3,-129.08 213.16,-139.67 219.79,-137.45"/>
</a>
</g>
</g>
<!-- Node5&#45;&gt;Node3 -->
<g id="edge8_Node000005_Node000003" class="edge">
<title>Node5&#45;&gt;Node3</title>
<g id="a_edge8_Node000005_Node000003"><a xlink:title=" ">
<path fill="none" stroke="#63b8ff" d="M443.73,-225.95C390.92,-221.76 299.58,-210.98 226,-184 180.92,-167.47 156.79,-170.71 133,-129 125.15,-115.23 129.09,-97.19 134.15,-83.86"/>
<polygon fill="#63b8ff" stroke="#63b8ff" points="137.5,-84.92 138.25,-74.35 131.08,-82.15 137.5,-84.92"/>
</a>
</g>
</g>
<!-- Node6 -->
<g id="Node000006" class="node">
<title>Node6</title>
<g id="a_Node000006"><a xlink:title=" ">
<polygon fill="#e0e0e0" stroke="#999999" points="391,-19 301,-19 301,0 391,0 391,-19"/>
<text text-anchor="middle" x="346" y="-7" font-family="Helvetica,sans-Serif" font-size="10.00">libultra/types.h</text>
</a>
</g>
</g>
<!-- Node5&#45;&gt;Node6 -->
<g id="edge9_Node000005_Node000006" class="edge">
<title>Node5&#45;&gt;Node6</title>
<g id="a_edge9_Node000005_Node000006"><a xlink:title=" ">
<path fill="none" stroke="#63b8ff" d="M443.94,-226.54C367.81,-222.42 213.14,-210.93 167,-184 116.54,-154.54 109.44,-130.62 95,-74 92.91,-65.82 89.58,-61.47 95,-55 119.46,-25.83 224.41,-15.77 290.61,-12.31"/>
<polygon fill="#63b8ff" stroke="#63b8ff" points="291.07,-15.79 300.89,-11.8 290.73,-8.8 291.07,-15.79"/>
</a>
</g>
</g>
<!-- Node7 -->
<g id="Node000007" class="node">
<title>Node7</title>
<g id="a_Node000007"><a xlink:href="CoreMath_8h.html" target="_top" xlink:title=" ">
<polygon fill="white" stroke="#666666" points="850,-129 768,-129 768,-110 850,-110 850,-129"/>
<text text-anchor="middle" x="809" y="-117" font-family="Helvetica,sans-Serif" font-size="10.00">../CoreMath.h</text>
</a>
</g>
</g>
<!-- Node5&#45;&gt;Node7 -->
<g id="edge10_Node000005_Node000007" class="edge">
<title>Node5&#45;&gt;Node7</title>
<g id="a_edge10_Node000005_Node000007"><a xlink:title=" ">
<path fill="none" stroke="#63b8ff" d="M518.43,-219.92C549.11,-211.38 597.03,-197.63 638,-184 687.37,-167.58 743.79,-146.08 777.89,-132.79"/>
<polygon fill="#63b8ff" stroke="#63b8ff" points="779.27,-136.01 787.31,-129.1 776.72,-129.49 779.27,-136.01"/>
</a>
</g>
</g>
<!-- Node5&#45;&gt;Node9 -->
<g id="edge12_Node000005_Node000009" class="edge">
<title>Node5&#45;&gt;Node9</title>
<g id="a_edge12_Node000005_Node000009"><a xlink:title=" ">
<path fill="none" stroke="#63b8ff" d="M493.29,-219.98C502.4,-211.84 518.74,-199.41 532.83,-189.76"/>
<polygon fill="#63b8ff" stroke="#63b8ff" points="534.85,-192.62 541.24,-184.17 530.97,-186.79 534.85,-192.62"/>
</a>
</g>
</g>
<!-- Node10 -->
<g id="Node000010" class="node">
<title>Node10</title>
<g id="a_Node000010"><a xlink:title=" ">
<polygon fill="#e0e0e0" stroke="#999999" points="749.5,-129 702.5,-129 702.5,-110 749.5,-110 749.5,-129"/>
<text text-anchor="middle" x="726" y="-117" font-family="Helvetica,sans-Serif" font-size="10.00">vector</text>
</a>
</g>
</g>
<!-- Node5&#45;&gt;Node10 -->
<g id="edge23_Node000005_Node000010" class="edge">
<title>Node5&#45;&gt;Node10</title>
<g id="a_edge23_Node000005_Node000010"><a xlink:title=" ">
<path fill="none" stroke="#63b8ff" d="M512.92,-219.89C537.29,-211.54 574.61,-198.1 606,-184 640.35,-168.56 678.57,-147.66 702.45,-134.12"/>
<polygon fill="#63b8ff" stroke="#63b8ff" points="704.21,-137.15 711.16,-129.16 700.74,-131.07 704.21,-137.15"/>
</a>
</g>
</g>
<!-- Node13 -->
<g id="Node000013" class="node">
<title>Node13</title>
<g id="a_Node000013"><a xlink:href="common__structs_8h.html" target="_top" xlink:title=" ">
<polygon fill="white" stroke="#666666" points="1345.5,-74 1238.5,-74 1238.5,-55 1345.5,-55 1345.5,-74"/>
<text text-anchor="middle" x="1292" y="-62" font-family="Helvetica,sans-Serif" font-size="10.00">common_structs.h</text>
</a>
</g>
</g>
<!-- Node5&#45;&gt;Node13 -->
<g id="edge33_Node000005_Node000013" class="edge">
<title>Node5&#45;&gt;Node13</title>
<g id="a_edge33_Node000005_Node000013"><a xlink:title=" ">
<path fill="none" stroke="#63b8ff" d="M479.1,-219.85C458.95,-197.7 407,-139.93 403,-129 400.1,-121.07 397.18,-116.12 403,-110 431.4,-80.15 1029.59,-69.15 1228.4,-66.31"/>
<polygon fill="#63b8ff" stroke="#63b8ff" points="1228.45,-69.81 1238.4,-66.17 1228.35,-62.81 1228.45,-69.81"/>
</a>
</g>
</g>
<!-- Node14 -->
<g id="Node000014" class="node">
<title>Node14</title>
<g id="a_Node000014"><a xlink:href="SpawnParams_8h.html" target="_top" xlink:title=" ">
<polygon fill="white" stroke="#666666" points="1036,-184 906,-184 906,-165 1036,-165 1036,-184"/>
<text text-anchor="middle" x="971" y="-172" font-family="Helvetica,sans-Serif" font-size="10.00">engine/SpawnParams.h</text>
</a>
</g>
</g>
<!-- Node5&#45;&gt;Node14 -->
<g id="edge24_Node000005_Node000014" class="edge">
<title>Node5&#45;&gt;Node14</title>
<g id="a_edge24_Node000005_Node000014"><a xlink:title=" ">
<path fill="none" stroke="#63b8ff" d="M530.38,-223.75C612.9,-214.71 793.39,-194.95 895.92,-183.72"/>
<polygon fill="#63b8ff" stroke="#63b8ff" points="896.34,-187.2 905.9,-182.63 895.58,-180.24 896.34,-187.2"/>
</a>
</g>
</g>
<!-- Node18 -->
<g id="Node000018" class="node">
<title>Node18</title>
<g id="a_Node000018"><a xlink:href="DefaultProperties_8h.html" target="_top" xlink:title=" ">
<polygon fill="white" stroke="#666666" points="419.5,-184 256.5,-184 256.5,-165 419.5,-165 419.5,-184"/>
<text text-anchor="middle" x="338" y="-172" font-family="Helvetica,sans-Serif" font-size="10.00">src/port/ui/DefaultProperties.h</text>
</a>
</g>
</g>
<!-- Node5&#45;&gt;Node18 -->
<g id="edge31_Node000005_Node000018" class="edge">
<title>Node5&#45;&gt;Node18</title>
<g id="a_edge31_Node000005_Node000018"><a xlink:title=" ">
<path fill="none" stroke="#63b8ff" d="M463.06,-219.98C438.44,-211.23 399.88,-197.51 372.08,-187.62"/>
<polygon fill="#63b8ff" stroke="#63b8ff" points="372.97,-184.22 362.38,-184.17 370.62,-190.82 372.97,-184.22"/>
</a>
</g>
</g>
<!-- Node8 -->
<g id="Node000008" class="node">
<title>Node8</title>
<g id="a_Node000008"><a xlink:title=" ">
<polygon fill="#e0e0e0" stroke="#999999" points="1501,-19 1421,-19 1421,0 1501,0 1501,-19"/>
<text text-anchor="middle" x="1461" y="-7" font-family="Helvetica,sans-Serif" font-size="10.00">libultraship.h</text>
</a>
</g>
</g>
<!-- Node7&#45;&gt;Node8 -->
<g id="edge11_Node000007_Node000008" class="edge">
<title>Node7&#45;&gt;Node8</title>
<g id="a_edge11_Node000007_Node000008"><a xlink:title=" ">
<path fill="none" stroke="#63b8ff" d="M813.65,-109.59C821.71,-95.18 839.76,-67.18 864,-55 912.25,-30.75 1275.65,-16.54 1410.68,-12.06"/>
<polygon fill="#63b8ff" stroke="#63b8ff" points="1410.88,-15.55 1420.76,-11.73 1410.65,-8.56 1410.88,-15.55"/>
</a>
</g>
</g>
<!-- Node9&#45;&gt;Node2 -->
<g id="edge13_Node000009_Node000002" class="edge">
<title>Node9&#45;&gt;Node2</title>
<g id="a_edge13_Node000009_Node000002"><a xlink:title=" ">
<path fill="none" stroke="#63b8ff" d="M518.19,-167.42C459.32,-158.43 348.32,-141.47 277.11,-130.6"/>
<polygon fill="#63b8ff" stroke="#63b8ff" points="277.32,-127.09 266.9,-129.04 276.26,-134.01 277.32,-127.09"/>
</a>
</g>
</g>
<!-- Node9&#45;&gt;Node3 -->
<g id="edge14_Node000009_Node000003" class="edge">
<title>Node9&#45;&gt;Node3</title>
<g id="a_edge14_Node000009_Node000003"><a xlink:title=" ">
<path fill="none" stroke="#63b8ff" d="M518.14,-168.38C472.46,-161.89 395.7,-149.07 332,-129 312.07,-122.72 308.58,-117.28 289,-110 254.45,-97.16 214.34,-85.13 184.92,-76.83"/>
<polygon fill="#63b8ff" stroke="#63b8ff" points="185.55,-73.37 174.98,-74.05 183.67,-80.11 185.55,-73.37"/>
</a>
</g>
</g>
<!-- Node9&#45;&gt;Node5 -->
<g id="edge18_Node000009_Node000005" class="edge">
<title>Node9&#45;&gt;Node5</title>
<g id="a_edge18_Node000009_Node000005"><a xlink:title=" ">
<path fill="none" stroke="#63b8ff" d="M551.53,-184.17C542.33,-192.37 525.96,-204.81 511.9,-214.42"/>
<polygon fill="#63b8ff" stroke="#63b8ff" points="509.92,-211.54 503.52,-219.98 513.79,-217.37 509.92,-211.54"/>
</a>
</g>
</g>
<!-- Node9&#45;&gt;Node6 -->
<g id="edge15_Node000009_Node000006" class="edge">
<title>Node9&#45;&gt;Node6</title>
<g id="a_edge15_Node000009_Node000006"><a xlink:title=" ">
<path fill="none" stroke="#63b8ff" d="M518.48,-171.06C484.39,-167.06 435.63,-156.54 403,-129 371.71,-102.59 356.28,-55.01 349.85,-28.9"/>
<polygon fill="#63b8ff" stroke="#63b8ff" points="353.26,-28.11 347.63,-19.14 346.44,-29.67 353.26,-28.11"/>
</a>
</g>
</g>
<!-- Node9&#45;&gt;Node7 -->
<g id="edge16_Node000009_Node000007" class="edge">
<title>Node9&#45;&gt;Node7</title>
<g id="a_edge16_Node000009_Node000007"><a xlink:title=" ">
<path fill="none" stroke="#63b8ff" d="M597.77,-165.1C641.3,-155.91 711.19,-141.15 758.54,-131.15"/>
<polygon fill="#63b8ff" stroke="#63b8ff" points="759.52,-134.52 768.58,-129.03 758.08,-127.68 759.52,-134.52"/>
</a>
</g>
</g>
<!-- Node9&#45;&gt;Node10 -->
<g id="edge17_Node000009_Node000010" class="edge">
<title>Node9&#45;&gt;Node10</title>
<g id="a_edge17_Node000009_Node000010"><a xlink:title=" ">
<path fill="none" stroke="#63b8ff" d="M584.99,-164.98C614.29,-155.74 661.09,-140.98 692.66,-131.02"/>
<polygon fill="#63b8ff" stroke="#63b8ff" points="693.85,-134.31 702.33,-127.97 691.74,-127.64 693.85,-134.31"/>
</a>
</g>
</g>
<!-- Node11 -->
<g id="Node000011" class="node">
<title>Node11</title>
<g id="a_Node000011"><a xlink:title=" ">
<polygon fill="#e0e0e0" stroke="#999999" points="529.5,-129 412.5,-129 412.5,-110 529.5,-110 529.5,-129"/>
<text text-anchor="middle" x="471" y="-117" font-family="Helvetica,sans-Serif" font-size="10.00">fast/Fast3dWindow.h</text>
</a>
</g>
</g>
<!-- Node9&#45;&gt;Node11 -->
<g id="edge19_Node000009_Node000011" class="edge">
<title>Node9&#45;&gt;Node11</title>
<g id="a_edge19_Node000009_Node000011"><a xlink:title=" ">
<path fill="none" stroke="#63b8ff" d="M544.02,-164.98C530.53,-156.77 509.87,-144.18 493.96,-134.49"/>
<polygon fill="#63b8ff" stroke="#63b8ff" points="495.59,-131.38 485.23,-129.17 491.95,-137.36 495.59,-131.38"/>
</a>
</g>
</g>
<!-- Node12 -->
<g id="Node000012" class="node">
<title>Node12</title>
<g id="a_Node000012"><a xlink:title=" ">
<polygon fill="#e0e0e0" stroke="#999999" points="646,-129 548,-129 548,-110 646,-110 646,-129"/>
<text text-anchor="middle" x="597" y="-117" font-family="Helvetica,sans-Serif" font-size="10.00">fast/interpreter.h</text>
</a>
</g>
</g>
<!-- Node9&#45;&gt;Node12 -->
<g id="edge20_Node000009_Node000012" class="edge">
<title>Node9&#45;&gt;Node12</title>
<g id="a_edge20_Node000009_Node000012"><a xlink:title=" ">
<path fill="none" stroke="#63b8ff" d="M564.44,-164.75C569.89,-157.34 577.86,-146.5 584.56,-137.41"/>
<polygon fill="#63b8ff" stroke="#63b8ff" points="587.57,-139.22 590.68,-129.09 581.93,-135.07 587.57,-139.22"/>
</a>
</g>
</g>
<!-- Node9&#45;&gt;Node13 -->
<g id="edge21_Node000009_Node000013" class="edge">
<title>Node9&#45;&gt;Node13</title>
<g id="a_edge21_Node000009_Node000013"><a xlink:title=" ">
<path fill="none" stroke="#63b8ff" d="M577.02,-164.93C596.62,-156.07 628.03,-141.75 655,-129 672.43,-120.76 675.39,-115.03 694,-110 793.3,-83.18 1095.59,-71.25 1228.34,-67.2"/>
<polygon fill="#63b8ff" stroke="#63b8ff" points="1228.48,-70.7 1238.37,-66.9 1228.27,-63.7 1228.48,-70.7"/>
</a>
</g>
</g>
<!-- Node13&#45;&gt;Node8 -->
<g id="edge22_Node000013_Node000008" class="edge">
<title>Node13&#45;&gt;Node8</title>
<g id="a_edge22_Node000013_Node000008"><a xlink:title=" ">
<path fill="none" stroke="#63b8ff" d="M1319.15,-54.98C1347.53,-46.09 1392.23,-32.07 1423.86,-22.15"/>
<polygon fill="#63b8ff" stroke="#63b8ff" points="1425.14,-25.41 1433.63,-19.08 1423.05,-18.73 1425.14,-25.41"/>
</a>
</g>
</g>
<!-- Node14&#45;&gt;Node7 -->
<g id="edge29_Node000014_Node000007" class="edge">
<title>Node14&#45;&gt;Node7</title>
<g id="a_edge29_Node000014_Node000007"><a xlink:title=" ">
<path fill="none" stroke="#63b8ff" d="M944.97,-164.98C917.89,-156.13 875.29,-142.19 844.99,-132.28"/>
<polygon fill="#63b8ff" stroke="#63b8ff" points="845.82,-128.87 835.23,-129.08 843.65,-135.52 845.82,-128.87"/>
</a>
</g>
</g>
<!-- Node14&#45;&gt;Node10 -->
<g id="edge25_Node000014_Node000010" class="edge">
<title>Node14&#45;&gt;Node10</title>
<g id="a_edge25_Node000014_Node000010"><a xlink:title=" ">
<path fill="none" stroke="#63b8ff" d="M927.43,-164.95C886.58,-156.81 823.57,-143.9 759.62,-129.06"/>
<polygon fill="#63b8ff" stroke="#63b8ff" points="760.3,-125.62 749.76,-126.76 758.7,-132.44 760.3,-125.62"/>
</a>
</g>
</g>
<!-- Node14&#45;&gt;Node13 -->
<g id="edge30_Node000014_Node000013" class="edge">
<title>Node14&#45;&gt;Node13</title>
<g id="a_edge30_Node000014_Node000013"><a xlink:title=" ">
<path fill="none" stroke="#63b8ff" d="M1021.08,-164.94C1059.91,-157.55 1114.72,-145.46 1161,-129 1179.17,-122.54 1182.65,-118.42 1200,-110 1221.92,-99.36 1246.79,-87.33 1265.15,-78.46"/>
<polygon fill="#63b8ff" stroke="#63b8ff" points="1266.87,-81.52 1274.36,-74.02 1263.83,-75.21 1266.87,-81.52"/>
</a>
</g>
</g>
<!-- Node15 -->
<g id="Node000015" class="node">
<title>Node15</title>
<g id="a_Node000015"><a xlink:title=" ">
<polygon fill="#e0e0e0" stroke="#999999" points="1090,-129 1034,-129 1034,-110 1090,-110 1090,-129"/>
<text text-anchor="middle" x="1062" y="-117" font-family="Helvetica,sans-Serif" font-size="10.00">optional</text>
</a>
</g>
</g>
<!-- Node14&#45;&gt;Node15 -->
<g id="edge26_Node000014_Node000015" class="edge">
<title>Node14&#45;&gt;Node15</title>
<g id="a_edge26_Node000014_Node000015"><a xlink:title=" ">
<path fill="none" stroke="#63b8ff" d="M985.62,-164.98C999.86,-156.69 1021.75,-143.94 1038.45,-134.22"/>
<polygon fill="#63b8ff" stroke="#63b8ff" points="1040.23,-137.23 1047.11,-129.17 1036.71,-131.18 1040.23,-137.23"/>
</a>
</g>
</g>
<!-- Node16 -->
<g id="Node000016" class="node">
<title>Node16</title>
<g id="a_Node000016"><a xlink:title=" ">
<polygon fill="#e0e0e0" stroke="#999999" points="1152,-129 1108,-129 1108,-110 1152,-110 1152,-129"/>
<text text-anchor="middle" x="1130" y="-117" font-family="Helvetica,sans-Serif" font-size="10.00">string</text>
</a>
</g>
</g>
<!-- Node14&#45;&gt;Node16 -->
<g id="edge27_Node000014_Node000016" class="edge">
<title>Node14&#45;&gt;Node16</title>
<g id="a_edge27_Node000014_Node000016"><a xlink:title=" ">
<path fill="none" stroke="#63b8ff" d="M996.55,-164.98C1024.23,-155.76 1068.44,-141.02 1098.31,-131.06"/>
<polygon fill="#63b8ff" stroke="#63b8ff" points="1099.47,-134.37 1107.85,-127.88 1097.26,-127.72 1099.47,-134.37"/>
</a>
</g>
</g>
<!-- Node17 -->
<g id="Node000017" class="node">
<title>Node17</title>
<g id="a_Node000017"><a xlink:title=" ">
<polygon fill="#e0e0e0" stroke="#999999" points="1016,-129 906,-129 906,-110 1016,-110 1016,-129"/>
<text text-anchor="middle" x="961" y="-117" font-family="Helvetica,sans-Serif" font-size="10.00">nlohmann/json.hpp</text>
</a>
</g>
</g>
<!-- Node14&#45;&gt;Node17 -->
<g id="edge28_Node000014_Node000017" class="edge">
<title>Node14&#45;&gt;Node17</title>
<g id="a_edge28_Node000014_Node000017"><a xlink:title=" ">
<path fill="none" stroke="#63b8ff" d="M969.35,-164.75C968.04,-157.8 966.16,-147.85 964.52,-139.13"/>
<polygon fill="#63b8ff" stroke="#63b8ff" points="967.91,-138.27 962.62,-129.09 961.04,-139.56 967.91,-138.27"/>
</a>
</g>
</g>
<!-- Node18&#45;&gt;Node2 -->
<g id="edge32_Node000018_Node000002" class="edge">
<title>Node18&#45;&gt;Node2</title>
<g id="a_edge32_Node000018_Node000002"><a xlink:title=" ">
<path fill="none" stroke="#63b8ff" d="M317.6,-164.98C296.98,-156.38 264.89,-142.99 241.31,-133.15"/>
<polygon fill="#63b8ff" stroke="#63b8ff" points="242.35,-129.79 231.78,-129.17 239.66,-136.25 242.35,-129.79"/>
</a>
</g>
</g>
<!-- Node19&#45;&gt;Node8 -->
<g id="edge35_Node000019_Node000008" class="edge">
<title>Node19&#45;&gt;Node8</title>
<g id="a_edge35_Node000019_Node000008"><a xlink:title=" ">
<path fill="none" stroke="#63b8ff" d="M1352.1,-223.59C1403.96,-214.95 1487.49,-191.53 1515,-129 1521.28,-114.72 1520.83,-76.74 1510,-55 1504.06,-43.07 1493.44,-32.81 1483.6,-25.16"/>
<polygon fill="#63b8ff" stroke="#63b8ff" points="1485.44,-22.17 1475.29,-19.13 1481.33,-27.84 1485.44,-22.17"/>
</a>
</g>
</g>
<!-- Node19&#45;&gt;Node9 -->
<g id="edge37_Node000019_Node000009" class="edge">
<title>Node19&#45;&gt;Node9</title>
<g id="a_edge37_Node000019_Node000009"><a xlink:title=" ">
<path fill="none" stroke="#63b8ff" d="M1265.93,-225.46C1135.76,-216.27 746.95,-188.83 608.03,-179.03"/>
<polygon fill="#63b8ff" stroke="#63b8ff" points="607.91,-175.51 597.69,-178.3 607.42,-182.5 607.91,-175.51"/>
</a>
</g>
</g>
<!-- Node19&#45;&gt;Node13 -->
<g id="edge51_Node000019_Node000013" class="edge">
<title>Node19&#45;&gt;Node13</title>
<g id="a_edge51_Node000019_Node000013"><a xlink:title=" ">
<path fill="none" stroke="#63b8ff" d="M1320.64,-219.73C1330.31,-211.67 1343.35,-198.74 1349,-184 1352.02,-176.12 1350.97,-173.21 1349,-165 1341.34,-133.06 1319.87,-100.96 1305.58,-82.17"/>
<polygon fill="#63b8ff" stroke="#63b8ff" points="1308.16,-79.79 1299.23,-74.08 1302.65,-84.11 1308.16,-79.79"/>
</a>
</g>
</g>
<!-- Node19&#45;&gt;Node14 -->
<g id="edge36_Node000019_Node000014" class="edge">
<title>Node19&#45;&gt;Node14</title>
<g id="a_edge36_Node000019_Node000014"><a xlink:title=" ">
<path fill="none" stroke="#63b8ff" d="M1265.85,-221.73C1207.53,-212.59 1103.09,-196.21 1035.45,-185.61"/>
<polygon fill="#63b8ff" stroke="#63b8ff" points="1035.76,-182.11 1025.34,-184.02 1034.67,-189.03 1035.76,-182.11"/>
</a>
</g>
</g>
<!-- Node20 -->
<g id="Node000020" class="node">
<title>Node20</title>
<g id="a_Node000020"><a xlink:href="macros_8h.html" target="_top" xlink:title=" ">
<polygon fill="white" stroke="#666666" points="1644,-184 1582,-184 1582,-165 1644,-165 1644,-184"/>
<text text-anchor="middle" x="1613" y="-172" font-family="Helvetica,sans-Serif" font-size="10.00">macros.h</text>
</a>
</g>
</g>
<!-- Node19&#45;&gt;Node20 -->
<g id="edge38_Node000019_Node000020" class="edge">
<title>Node19&#45;&gt;Node20</title>
<g id="a_edge38_Node000019_Node000020"><a xlink:title=" ">
<path fill="none" stroke="#63b8ff" d="M1352.12,-221.32C1403.55,-212.69 1492.12,-197.68 1568,-184 1569.1,-183.8 1570.21,-183.6 1571.33,-183.4"/>
<polygon fill="#63b8ff" stroke="#63b8ff" points="1572.34,-186.77 1581.54,-181.51 1571.07,-179.88 1572.34,-186.77"/>
</a>
</g>
</g>
<!-- Node22 -->
<g id="Node000022" class="node">
<title>Node22</title>
<g id="a_Node000022"><a xlink:href="main_8h.html" target="_top" xlink:title=" ">
<polygon fill="white" stroke="#666666" points="1446,-184 1396,-184 1396,-165 1446,-165 1446,-184"/>
<text text-anchor="middle" x="1421" y="-172" font-family="Helvetica,sans-Serif" font-size="10.00">main.h</text>
</a>
</g>
</g>
<!-- Node19&#45;&gt;Node22 -->
<g id="edge41_Node000019_Node000022" class="edge">
<title>Node19&#45;&gt;Node22</title>
<g id="a_edge41_Node000019_Node000022"><a xlink:title=" ">
<path fill="none" stroke="#63b8ff" d="M1326.99,-219.98C1344.93,-211.5 1372.72,-198.35 1393.43,-188.54"/>
<polygon fill="#63b8ff" stroke="#63b8ff" points="1395.14,-191.61 1402.68,-184.17 1392.14,-185.28 1395.14,-191.61"/>
</a>
</g>
</g>
<!-- Node25 -->
<g id="Node000025" class="node">
<title>Node25</title>
<g id="a_Node000025"><a xlink:href="camera_8h.html" target="_top" xlink:title=" ">
<polygon fill="white" stroke="#666666" points="1340,-184 1278,-184 1278,-165 1340,-165 1340,-184"/>
<text text-anchor="middle" x="1309" y="-172" font-family="Helvetica,sans-Serif" font-size="10.00">camera.h</text>
</a>
</g>
</g>
<!-- Node19&#45;&gt;Node25 -->
<g id="edge48_Node000019_Node000025" class="edge">
<title>Node19&#45;&gt;Node25</title>
<g id="a_edge48_Node000019_Node000025"><a xlink:title=" ">
<path fill="none" stroke="#63b8ff" d="M1309,-219.75C1309,-212.8 1309,-202.85 1309,-194.13"/>
<polygon fill="#63b8ff" stroke="#63b8ff" points="1312.5,-194.09 1309,-184.09 1305.5,-194.09 1312.5,-194.09"/>
</a>
</g>
</g>
<!-- Node20&#45;&gt;Node8 -->
<g id="edge40_Node000020_Node000008" class="edge">
<title>Node20&#45;&gt;Node8</title>
<g id="a_edge40_Node000020_Node000008"><a xlink:title=" ">
<path fill="none" stroke="#63b8ff" d="M1612.05,-164.81C1609.27,-143.34 1599.25,-87.24 1568,-55 1552.6,-39.11 1530.68,-28.66 1510.68,-21.91"/>
<polygon fill="#63b8ff" stroke="#63b8ff" points="1511.65,-18.54 1501.06,-18.88 1509.55,-25.22 1511.65,-18.54"/>
</a>
</g>
</g>
<!-- Node21 -->
<g id="Node000021" class="node">
<title>Node21</title>
<g id="a_Node000021"><a xlink:href="math_8h.html" target="_top" xlink:title=" ">
<polygon fill="white" stroke="#666666" points="1671.5,-129 1620.5,-129 1620.5,-110 1671.5,-110 1671.5,-129"/>
<text text-anchor="middle" x="1646" y="-117" font-family="Helvetica,sans-Serif" font-size="10.00">math.h</text>
</a>
</g>
</g>
<!-- Node20&#45;&gt;Node21 -->
<g id="edge39_Node000020_Node000021" class="edge">
<title>Node20&#45;&gt;Node21</title>
<g id="a_edge39_Node000020_Node000021"><a xlink:title=" ">
<path fill="none" stroke="#63b8ff" d="M1618.45,-164.75C1623.01,-157.42 1629.67,-146.73 1635.29,-137.7"/>
<polygon fill="#63b8ff" stroke="#63b8ff" points="1638.34,-139.43 1640.65,-129.09 1632.4,-135.73 1638.34,-139.43"/>
</a>
</g>
</g>
<!-- Node22&#45;&gt;Node13 -->
<g id="edge47_Node000022_Node000013" class="edge">
<title>Node22&#45;&gt;Node13</title>
<g id="a_edge47_Node000022_Node000013"><a xlink:title=" ">
<path fill="none" stroke="#63b8ff" d="M1417.47,-164.63C1411.77,-151.27 1399.39,-125.87 1382,-110 1366.46,-95.83 1345.58,-85.13 1327.84,-77.78"/>
<polygon fill="#63b8ff" stroke="#63b8ff" points="1328.95,-74.45 1318.36,-74.04 1326.38,-80.96 1328.95,-74.45"/>
</a>
</g>
</g>
<!-- Node23 -->
<g id="Node000023" class="node">
<title>Node23</title>
<g id="a_Node000023"><a xlink:href="mk64_8h.html" target="_top" xlink:title=" ">
<polygon fill="white" stroke="#666666" points="1487.5,-129 1434.5,-129 1434.5,-110 1487.5,-110 1487.5,-129"/>
<text text-anchor="middle" x="1461" y="-117" font-family="Helvetica,sans-Serif" font-size="10.00">mk64.h</text>
</a>
</g>
</g>
<!-- Node22&#45;&gt;Node23 -->
<g id="edge42_Node000022_Node000023" class="edge">
<title>Node22&#45;&gt;Node23</title>
<g id="a_edge42_Node000022_Node000023"><a xlink:title=" ">
<path fill="none" stroke="#63b8ff" d="M1427.61,-164.75C1433.26,-157.26 1441.54,-146.28 1448.45,-137.13"/>
<polygon fill="#63b8ff" stroke="#63b8ff" points="1451.29,-139.18 1454.52,-129.09 1445.7,-134.96 1451.29,-139.18"/>
</a>
</g>
</g>
<!-- Node23&#45;&gt;Node3 -->
<g id="edge46_Node000023_Node000003" class="edge">
<title>Node23&#45;&gt;Node3</title>
<g id="a_edge46_Node000023_Node000003"><a xlink:title=" ">
<path fill="none" stroke="#63b8ff" d="M1434.23,-117.24C1397.77,-115.54 1330.45,-112.43 1273,-110 854.98,-92.32 349.88,-73.24 192.34,-67.34"/>
<polygon fill="#63b8ff" stroke="#63b8ff" points="192.16,-63.83 182.04,-66.95 191.9,-70.83 192.16,-63.83"/>
</a>
</g>
</g>
<!-- Node23&#45;&gt;Node8 -->
<g id="edge43_Node000023_Node000008" class="edge">
<title>Node23&#45;&gt;Node8</title>
<g id="a_edge43_Node000023_Node000008"><a xlink:title=" ">
<path fill="none" stroke="#63b8ff" d="M1461,-109.66C1461,-92.17 1461,-52.8 1461,-29.27"/>
<polygon fill="#63b8ff" stroke="#63b8ff" points="1464.5,-29.16 1461,-19.16 1457.5,-29.16 1464.5,-29.16"/>
</a>
</g>
</g>
<!-- Node24 -->
<g id="Node000024" class="node">
<title>Node24</title>
<g id="a_Node000024"><a xlink:href="string_8h.html" target="_top" xlink:title=" ">
<polygon fill="white" stroke="#666666" points="1424.5,-74 1371.5,-74 1371.5,-55 1424.5,-55 1424.5,-74"/>
<text text-anchor="middle" x="1398" y="-62" font-family="Helvetica,sans-Serif" font-size="10.00">string.h</text>
</a>
</g>
</g>
<!-- Node23&#45;&gt;Node24 -->
<g id="edge44_Node000023_Node000024" class="edge">
<title>Node23&#45;&gt;Node24</title>
<g id="a_edge44_Node000023_Node000024"><a xlink:title=" ">
<path fill="none" stroke="#63b8ff" d="M1450.88,-109.98C1441.56,-102.15 1427.53,-90.34 1416.26,-80.86"/>
<polygon fill="#63b8ff" stroke="#63b8ff" points="1418.21,-77.93 1408.31,-74.17 1413.71,-83.29 1418.21,-77.93"/>
</a>
</g>
</g>
<!-- Node24&#45;&gt;Node6 -->
<g id="edge45_Node000024_Node000006" class="edge">
<title>Node24&#45;&gt;Node6</title>
<g id="a_edge45_Node000024_Node000006"><a xlink:title=" ">
<path fill="none" stroke="#63b8ff" d="M1371.26,-57.57C1365.9,-56.56 1360.29,-55.64 1355,-55 993.15,-11.51 553.75,-9.31 401.26,-10.01"/>
<polygon fill="#63b8ff" stroke="#63b8ff" points="401.18,-6.52 391.2,-10.07 401.22,-13.52 401.18,-6.52"/>
</a>
</g>
</g>
<!-- Node25&#45;&gt;Node8 -->
<g id="edge49_Node000025_Node000008" class="edge">
<title>Node25&#45;&gt;Node8</title>
<g id="a_edge49_Node000025_Node000008"><a xlink:title=" ">
<path fill="none" stroke="#63b8ff" d="M1340.31,-170.7C1388.63,-165.67 1477.81,-153.27 1497,-129 1521.12,-98.51 1493.21,-51.98 1474.74,-27.28"/>
<polygon fill="#63b8ff" stroke="#63b8ff" points="1477.38,-24.97 1468.47,-19.23 1471.86,-29.27 1477.38,-24.97"/>
</a>
</g>
</g>
<!-- Node25&#45;&gt;Node13 -->
<g id="edge50_Node000025_Node000013" class="edge">
<title>Node25&#45;&gt;Node13</title>
<g id="a_edge50_Node000025_Node000013"><a xlink:title=" ">
<path fill="none" stroke="#63b8ff" d="M1309.29,-164.79C1309.55,-152.49 1309.44,-129.34 1306,-110 1304.44,-101.23 1301.64,-91.78 1298.94,-83.85"/>
<polygon fill="#63b8ff" stroke="#63b8ff" points="1302.15,-82.42 1295.47,-74.2 1295.56,-84.79 1302.15,-82.42"/>
</a>
</g>
</g>
<!-- Node26&#45;&gt;Node8 -->
<g id="edge53_Node000026_Node000008" class="edge">
<title>Node26&#45;&gt;Node8</title>
<g id="a_edge53_Node000026_Node000008"><a xlink:title=" ">
<path fill="none" stroke="#63b8ff" d="M876.39,-219.89C872.88,-198.12 867.03,-140.44 897,-110 968.41,-37.46 1286.36,-17.31 1410.81,-12.15"/>
<polygon fill="#63b8ff" stroke="#63b8ff" points="1410.99,-15.64 1420.84,-11.74 1410.71,-8.65 1410.99,-15.64"/>
</a>
</g>
</g>
<!-- Node26&#45;&gt;Node9 -->
<g id="edge55_Node000026_Node000009" class="edge">
<title>Node26&#45;&gt;Node9</title>
<g id="a_edge55_Node000026_Node000009"><a xlink:title=" ">
<path fill="none" stroke="#63b8ff" d="M826.59,-219.98C766.3,-210 667.06,-193.56 607.57,-183.71"/>
<polygon fill="#63b8ff" stroke="#63b8ff" points="608.1,-180.25 597.66,-182.07 606.96,-187.16 608.1,-180.25"/>
</a>
</g>
</g>
<!-- Node26&#45;&gt;Node14 -->
<g id="edge54_Node000026_Node000014" class="edge">
<title>Node26&#45;&gt;Node14</title>
<g id="a_edge54_Node000026_Node000014"><a xlink:title=" ">
<path fill="none" stroke="#63b8ff" d="M892.94,-219.98C907.5,-211.69 929.87,-198.94 946.93,-189.22"/>
<polygon fill="#63b8ff" stroke="#63b8ff" points="948.83,-192.16 955.79,-184.17 945.36,-186.08 948.83,-192.16"/>
</a>
</g>
</g>
<!-- Node26&#45;&gt;Node25 -->
<g id="edge56_Node000026_Node000025" class="edge">
<title>Node26&#45;&gt;Node25</title>
<g id="a_edge56_Node000026_Node000025"><a xlink:title=" ">
<path fill="none" stroke="#63b8ff" d="M943.64,-222.97C1019.41,-216.15 1147.94,-203.25 1267.55,-184.1"/>
<polygon fill="#63b8ff" stroke="#63b8ff" points="1268.3,-187.52 1277.61,-182.47 1267.18,-180.61 1268.3,-187.52"/>
</a>
</g>
</g>
<!-- Node27 -->
<g id="Node000027" class="node">
<title>Node27</title>
<g id="a_Node000027"><a xlink:href="objects_8h.html" target="_top" xlink:title=" ">
<polygon fill="white" stroke="#666666" points="1259.5,-184 1198.5,-184 1198.5,-165 1259.5,-165 1259.5,-184"/>
<text text-anchor="middle" x="1229" y="-172" font-family="Helvetica,sans-Serif" font-size="10.00">objects.h</text>
</a>
</g>
</g>
<!-- Node26&#45;&gt;Node27 -->
<g id="edge57_Node000026_Node000027" class="edge">
<title>Node26&#45;&gt;Node27</title>
<g id="a_edge57_Node000026_Node000027"><a xlink:title=" ">
<path fill="none" stroke="#63b8ff" d="M934.39,-219.98C1005.44,-209.26 1125.78,-191.09 1188.4,-181.63"/>
<polygon fill="#63b8ff" stroke="#63b8ff" points="1188.94,-185.09 1198.3,-180.13 1187.89,-178.17 1188.94,-185.09"/>
</a>
</g>
</g>
<!-- Node27&#45;&gt;Node13 -->
<g id="edge60_Node000027_Node000013" class="edge">
<title>Node27&#45;&gt;Node13</title>
<g id="a_edge60_Node000027_Node000013"><a xlink:title=" ">
<path fill="none" stroke="#63b8ff" d="M1240.32,-164.79C1250.28,-156.57 1264.47,-143.39 1273,-129 1281.17,-115.22 1286.07,-97.65 1288.85,-84.48"/>
<polygon fill="#63b8ff" stroke="#63b8ff" points="1292.36,-84.73 1290.76,-74.26 1285.48,-83.44 1292.36,-84.73"/>
</a>
</g>
</g>
<!-- Node28 -->
<g id="Node000028" class="node">
<title>Node28</title>
<g id="a_Node000028"><a xlink:href="spline_8h.html" target="_top" xlink:title=" ">
<polygon fill="white" stroke="#666666" points="1263.5,-129 1208.5,-129 1208.5,-110 1263.5,-110 1263.5,-129"/>
<text text-anchor="middle" x="1236" y="-117" font-family="Helvetica,sans-Serif" font-size="10.00">spline.h</text>
</a>
</g>
</g>
<!-- Node27&#45;&gt;Node28 -->
<g id="edge58_Node000027_Node000028" class="edge">
<title>Node27&#45;&gt;Node28</title>
<g id="a_edge58_Node000027_Node000028"><a xlink:title=" ">
<path fill="none" stroke="#63b8ff" d="M1230.16,-164.75C1231.07,-157.8 1232.39,-147.85 1233.54,-139.13"/>
<polygon fill="#63b8ff" stroke="#63b8ff" points="1237.03,-139.46 1234.87,-129.09 1230.09,-138.54 1237.03,-139.46"/>
</a>
</g>
</g>
<!-- Node28&#45;&gt;Node13 -->
<g id="edge59_Node000028_Node000013" class="edge">
<title>Node28&#45;&gt;Node13</title>
<g id="a_edge59_Node000028_Node000013"><a xlink:title=" ">
<path fill="none" stroke="#63b8ff" d="M1245,-109.98C1253.19,-102.23 1265.51,-90.58 1275.47,-81.14"/>
<polygon fill="#63b8ff" stroke="#63b8ff" points="1277.98,-83.59 1282.84,-74.17 1273.17,-78.5 1277.98,-83.59"/>
</a>
</g>
</g>
</g>
</svg>
