<?xml version="1.0" encoding="UTF-8" standalone="no"?>
<!DOCTYPE svg PUBLIC "-//W3C//DTD SVG 1.1//EN"
 "http://www.w3.org/Graphics/SVG/1.1/DTD/svg11.dtd">
<!-- Generated by graphviz version 2.43.0 (0)
 -->
<!-- Title: src/engine/tracks/Harbour.h Pages: 1 -->
<svg width="1671pt" height="379pt"
 viewBox="0.00 0.00 1671.12 379.00" xmlns="http://www.w3.org/2000/svg" xmlns:xlink="http://www.w3.org/1999/xlink">
<g id="graph0" class="graph" transform="scale(1 1) rotate(0) translate(4 375)">
<title>src/engine/tracks/Harbour.h</title>
<!-- Node1 -->
<g id="Node000001" class="node">
<title>Node1</title>
<g id="a_Node000001"><a xlink:title=" ">
<polygon fill="#999999" stroke="#666666" points="1010.77,-371 860.77,-371 860.77,-352 1010.77,-352 1010.77,-371"/>
<text text-anchor="middle" x="935.77" y="-359" font-family="Helvetica,sans-Serif" font-size="10.00">src/engine/tracks/Harbour.h</text>
</a>
</g>
</g>
<!-- Node2 -->
<g id="Node000002" class="node">
<title>Node2</title>
<g id="a_Node000002"><a xlink:title=" ">
<polygon fill="#e0e0e0" stroke="#999999" points="590.77,-19 510.77,-19 510.77,0 590.77,0 590.77,-19"/>
<text text-anchor="middle" x="550.77" y="-7" font-family="Helvetica,sans-Serif" font-size="10.00">libultraship.h</text>
</a>
</g>
</g>
<!-- Node1&#45;&gt;Node2 -->
<g id="edge1_Node000001_Node000002" class="edge">
<title>Node1&#45;&gt;Node2</title>
<g id="a_edge1_Node000001_Node000002"><a xlink:title=" ">
<path fill="none" stroke="#63b8ff" d="M860.52,-359.66C638.53,-356.2 1.77,-338.76 1.77,-252.5 1.77,-252.5 1.77,-252.5 1.77,-129.5 1.77,-95.33 -5.31,-77.08 20.77,-55 56.89,-24.43 374.99,-14.28 500.32,-11.45"/>
<polygon fill="#63b8ff" stroke="#63b8ff" points="500.51,-14.95 510.43,-11.23 500.35,-7.95 500.51,-14.95"/>
</a>
</g>
</g>
<!-- Node3 -->
<g id="Node000003" class="node">
<title>Node3</title>
<g id="a_Node000003"><a xlink:href="Track_8h.html" target="_top" xlink:title=" ">
<polygon fill="white" stroke="#666666" points="461.27,-316 410.27,-316 410.27,-297 461.27,-297 461.27,-316"/>
<text text-anchor="middle" x="435.77" y="-304" font-family="Helvetica,sans-Serif" font-size="10.00">Track.h</text>
</a>
</g>
</g>
<!-- Node1&#45;&gt;Node3 -->
<g id="edge2_Node000001_Node000003" class="edge">
<title>Node1&#45;&gt;Node3</title>
<g id="a_edge2_Node000001_Node000003"><a xlink:title=" ">
<path fill="none" stroke="#63b8ff" d="M860.64,-352.54C751.33,-340.95 552.63,-319.89 471.61,-311.3"/>
<polygon fill="#63b8ff" stroke="#63b8ff" points="471.74,-307.79 461.43,-310.22 471,-314.75 471.74,-307.79"/>
</a>
</g>
</g>
<!-- Node7 -->
<g id="Node000007" class="node">
<title>Node7</title>
<g id="a_Node000007"><a xlink:href="camera_8h.html" target="_top" xlink:title=" ">
<polygon fill="white" stroke="#666666" points="375.77,-140 313.77,-140 313.77,-121 375.77,-121 375.77,-140"/>
<text text-anchor="middle" x="344.77" y="-128" font-family="Helvetica,sans-Serif" font-size="10.00">camera.h</text>
</a>
</g>
</g>
<!-- Node1&#45;&gt;Node7 -->
<g id="edge72_Node000001_Node000007" class="edge">
<title>Node1&#45;&gt;Node7</title>
<g id="a_edge72_Node000001_Node000007"><a xlink:title=" ">
<path fill="none" stroke="#63b8ff" d="M934.67,-351.86C930.23,-321.35 910.58,-218.79 843.77,-187 766.58,-150.27 545.53,-162.09 460.77,-151 435.95,-147.75 408.3,-143.14 386.22,-139.22"/>
<polygon fill="#63b8ff" stroke="#63b8ff" points="386.65,-135.74 376.19,-137.42 385.41,-142.63 386.65,-135.74"/>
</a>
</g>
</g>
<!-- Node9 -->
<g id="Node000009" class="node">
<title>Node9</title>
<g id="a_Node000009"><a xlink:href="src_2data_2some__data_8h.html" target="_top" xlink:title=" ">
<polygon fill="white" stroke="#666666" points="888.77,-261 784.77,-261 784.77,-242 888.77,-242 888.77,-261"/>
<text text-anchor="middle" x="836.77" y="-249" font-family="Helvetica,sans-Serif" font-size="10.00">data/some_data.h</text>
</a>
</g>
</g>
<!-- Node1&#45;&gt;Node9 -->
<g id="edge73_Node000001_Node000009" class="edge">
<title>Node1&#45;&gt;Node9</title>
<g id="a_edge73_Node000001_Node000009"><a xlink:title=" ">
<path fill="none" stroke="#63b8ff" d="M927.67,-351.66C911.05,-333.54 872.9,-291.91 851.69,-268.77"/>
<polygon fill="#63b8ff" stroke="#63b8ff" points="854.04,-266.16 844.71,-261.16 848.88,-270.89 854.04,-266.16"/>
</a>
</g>
</g>
<!-- Node14 -->
<g id="Node000014" class="node">
<title>Node14</title>
<g id="a_Node000014"><a xlink:href="objects_8h.html" target="_top" xlink:title=" ">
<polygon fill="white" stroke="#666666" points="835.27,-206 774.27,-206 774.27,-187 835.27,-187 835.27,-206"/>
<text text-anchor="middle" x="804.77" y="-194" font-family="Helvetica,sans-Serif" font-size="10.00">objects.h</text>
</a>
</g>
</g>
<!-- Node1&#45;&gt;Node14 -->
<g id="edge74_Node000001_Node000014" class="edge">
<title>Node1&#45;&gt;Node14</title>
<g id="a_edge74_Node000001_Node000014"><a xlink:title=" ">
<path fill="none" stroke="#63b8ff" d="M935.29,-351.93C933.67,-330.74 926.75,-275.21 897.77,-242 884.01,-226.22 863.4,-215.57 845.08,-208.66"/>
<polygon fill="#63b8ff" stroke="#63b8ff" points="846.08,-205.3 835.48,-205.28 843.76,-211.9 846.08,-205.3"/>
</a>
</g>
</g>
<!-- Node19 -->
<g id="Node000019" class="node">
<title>Node19</title>
<g id="a_Node000019"><a xlink:href="path__spawn__metadata_8h.html" target="_top" xlink:title=" ">
<polygon fill="white" stroke="#666666" points="766.27,-261 629.27,-261 629.27,-242 766.27,-242 766.27,-261"/>
<text text-anchor="middle" x="697.77" y="-249" font-family="Helvetica,sans-Serif" font-size="10.00">path_spawn_metadata.h</text>
</a>
</g>
</g>
<!-- Node1&#45;&gt;Node19 -->
<g id="edge75_Node000001_Node000019" class="edge">
<title>Node1&#45;&gt;Node19</title>
<g id="a_edge75_Node000001_Node000019"><a xlink:title=" ">
<path fill="none" stroke="#63b8ff" d="M916.7,-351.84C874.9,-332.88 775.07,-287.58 725.99,-265.31"/>
<polygon fill="#63b8ff" stroke="#63b8ff" points="727.16,-261.99 716.61,-261.05 724.27,-268.37 727.16,-261.99"/>
</a>
</g>
</g>
<!-- Node28 -->
<g id="Node000028" class="node">
<title>Node28</title>
<g id="a_Node000028"><a xlink:href="mario__raceway__vertices_8h.html" target="_top" xlink:title=" ">
<polygon fill="white" stroke="#666666" points="1265.77,-151 1139.77,-151 1139.77,-110 1265.77,-110 1265.77,-151"/>
<text text-anchor="start" x="1147.77" y="-139" font-family="Helvetica,sans-Serif" font-size="10.00">assets/models/tracks</text>
<text text-anchor="start" x="1147.77" y="-128" font-family="Helvetica,sans-Serif" font-size="10.00">/mario_raceway/mario</text>
<text text-anchor="middle" x="1202.77" y="-117" font-family="Helvetica,sans-Serif" font-size="10.00">_raceway_vertices.h</text>
</a>
</g>
</g>
<!-- Node1&#45;&gt;Node28 -->
<g id="edge53_Node000001_Node000028" class="edge">
<title>Node1&#45;&gt;Node28</title>
<g id="a_edge53_Node000001_Node000028"><a xlink:title=" ">
<path fill="none" stroke="#63b8ff" d="M940.57,-351.66C956.12,-323.79 1007.84,-236.67 1072.77,-187 1089.93,-173.87 1110.67,-163.21 1130.49,-154.87"/>
<polygon fill="#63b8ff" stroke="#63b8ff" points="1131.87,-158.08 1139.82,-151.08 1129.24,-151.6 1131.87,-158.08"/>
</a>
</g>
</g>
<!-- Node29 -->
<g id="Node000029" class="node">
<title>Node29</title>
<g id="a_Node000029"><a xlink:href="mario__raceway__displaylists_8h.html" target="_top" xlink:title=" ">
<polygon fill="white" stroke="#666666" points="1455.27,-151 1322.27,-151 1322.27,-110 1455.27,-110 1455.27,-151"/>
<text text-anchor="start" x="1330.27" y="-139" font-family="Helvetica,sans-Serif" font-size="10.00">assets/models/tracks</text>
<text text-anchor="start" x="1330.27" y="-128" font-family="Helvetica,sans-Serif" font-size="10.00">/mario_raceway/mario</text>
<text text-anchor="middle" x="1388.77" y="-117" font-family="Helvetica,sans-Serif" font-size="10.00">_raceway_displaylists.h</text>
</a>
</g>
</g>
<!-- Node1&#45;&gt;Node29 -->
<g id="edge57_Node000001_Node000029" class="edge">
<title>Node1&#45;&gt;Node29</title>
<g id="a_edge57_Node000001_Node000029"><a xlink:title=" ">
<path fill="none" stroke="#63b8ff" d="M945.43,-351.88C977.25,-323.9 1082.62,-234.73 1184.77,-187 1225.08,-168.16 1272.96,-154.72 1312.2,-145.79"/>
<polygon fill="#63b8ff" stroke="#63b8ff" points="1312.98,-149.2 1321.98,-143.62 1311.46,-142.37 1312.98,-149.2"/>
</a>
</g>
</g>
<!-- Node30 -->
<g id="Node000030" class="node">
<title>Node30</title>
<g id="a_Node000030"><a xlink:href="models_2tracks_2mario__raceway_2mario__raceway__data_8h.html" target="_top" xlink:title=" ">
<polygon fill="white" stroke="#666666" points="1599.77,-151 1473.77,-151 1473.77,-110 1599.77,-110 1599.77,-151"/>
<text text-anchor="start" x="1481.77" y="-139" font-family="Helvetica,sans-Serif" font-size="10.00">assets/models/tracks</text>
<text text-anchor="start" x="1481.77" y="-128" font-family="Helvetica,sans-Serif" font-size="10.00">/mario_raceway/mario</text>
<text text-anchor="middle" x="1536.77" y="-117" font-family="Helvetica,sans-Serif" font-size="10.00">_raceway_data.h</text>
</a>
</g>
</g>
<!-- Node1&#45;&gt;Node30 -->
<g id="edge61_Node000001_Node000030" class="edge">
<title>Node1&#45;&gt;Node30</title>
<g id="a_edge61_Node000001_Node000030"><a xlink:title=" ">
<path fill="none" stroke="#63b8ff" d="M951.3,-351.96C967.29,-343.11 992.9,-328.81 1014.77,-316 1109.94,-260.26 1123.11,-224.68 1226.77,-187 1326.9,-150.6 1359.48,-172.78 1463.77,-151 1463.87,-150.98 1463.97,-150.96 1464.07,-150.94"/>
<polygon fill="#63b8ff" stroke="#63b8ff" points="1464.55,-154.41 1473.56,-148.84 1463.05,-147.58 1464.55,-154.41"/>
</a>
</g>
</g>
<!-- Node31 -->
<g id="Node000031" class="node">
<title>Node31</title>
<g id="a_Node000031"><a xlink:href="course__offsets_8h.html" target="_top" xlink:title=" ">
<polygon fill="white" stroke="#666666" points="1331.77,-206 1235.77,-206 1235.77,-187 1331.77,-187 1331.77,-206"/>
<text text-anchor="middle" x="1283.77" y="-194" font-family="Helvetica,sans-Serif" font-size="10.00">course_offsets.h</text>
</a>
</g>
</g>
<!-- Node1&#45;&gt;Node31 -->
<g id="edge65_Node000001_Node000031" class="edge">
<title>Node1&#45;&gt;Node31</title>
<g id="a_edge65_Node000001_Node000031"><a xlink:title=" ">
<path fill="none" stroke="#63b8ff" d="M1010.8,-355.55C1081.31,-349.65 1180.66,-337.74 1212.77,-316 1248.73,-291.66 1269.34,-242.47 1278.32,-215.76"/>
<polygon fill="#63b8ff" stroke="#63b8ff" points="1281.69,-216.72 1281.39,-206.13 1275.02,-214.6 1281.69,-216.72"/>
</a>
</g>
</g>
<!-- Node4 -->
<g id="Node000004" class="node">
<title>Node4</title>
<g id="a_Node000004"><a xlink:title=" ">
<polygon fill="#e0e0e0" stroke="#999999" points="456.77,-261 318.77,-261 318.77,-242 456.77,-242 456.77,-261"/>
<text text-anchor="middle" x="387.77" y="-249" font-family="Helvetica,sans-Serif" font-size="10.00">libultraship/libultraship.h</text>
</a>
</g>
</g>
<!-- Node3&#45;&gt;Node4 -->
<g id="edge3_Node000003_Node000004" class="edge">
<title>Node3&#45;&gt;Node4</title>
<g id="a_edge3_Node000003_Node000004"><a xlink:title=" ">
<path fill="none" stroke="#63b8ff" d="M427.84,-296.75C420.92,-289.11 410.71,-277.82 402.32,-268.56"/>
<polygon fill="#63b8ff" stroke="#63b8ff" points="404.86,-266.15 395.55,-261.09 399.67,-270.85 404.86,-266.15"/>
</a>
</g>
</g>
<!-- Node5 -->
<g id="Node000005" class="node">
<title>Node5</title>
<g id="a_Node000005"><a xlink:href="CoreMath_8h.html" target="_top" xlink:title=" ">
<polygon fill="white" stroke="#666666" points="295.27,-140 222.27,-140 222.27,-121 295.27,-121 295.27,-140"/>
<text text-anchor="middle" x="258.77" y="-128" font-family="Helvetica,sans-Serif" font-size="10.00">CoreMath.h</text>
</a>
</g>
</g>
<!-- Node3&#45;&gt;Node5 -->
<g id="edge4_Node000003_Node000005" class="edge">
<title>Node3&#45;&gt;Node5</title>
<g id="a_edge4_Node000003_Node000005"><a xlink:title=" ">
<path fill="none" stroke="#63b8ff" d="M445.34,-296.87C458.14,-284.26 477.89,-260.3 465.77,-242 443.11,-207.8 417.27,-224.74 380.77,-206 344.33,-187.28 304.15,-161.73 280.21,-145.93"/>
<polygon fill="#63b8ff" stroke="#63b8ff" points="281.85,-142.82 271.58,-140.2 277.98,-148.65 281.85,-142.82"/>
</a>
</g>
</g>
<!-- Node6 -->
<g id="Node000006" class="node">
<title>Node6</title>
<g id="a_Node000006"><a xlink:href="defines_8h.html" target="_top" xlink:title=" ">
<polygon fill="white" stroke="#666666" points="224.27,-261 163.27,-261 163.27,-242 224.27,-242 224.27,-261"/>
<text text-anchor="middle" x="193.77" y="-249" font-family="Helvetica,sans-Serif" font-size="10.00">defines.h</text>
</a>
</g>
</g>
<!-- Node3&#45;&gt;Node6 -->
<g id="edge6_Node000003_Node000006" class="edge">
<title>Node3&#45;&gt;Node6</title>
<g id="a_edge6_Node000003_Node000006"><a xlink:title=" ">
<path fill="none" stroke="#63b8ff" d="M409.87,-299.83C367.78,-290.61 284.21,-272.31 234.22,-261.36"/>
<polygon fill="#63b8ff" stroke="#63b8ff" points="234.91,-257.93 224.4,-259.21 233.42,-264.77 234.91,-257.93"/>
</a>
</g>
</g>
<!-- Node3&#45;&gt;Node7 -->
<g id="edge7_Node000003_Node000007" class="edge">
<title>Node3&#45;&gt;Node7</title>
<g id="a_edge7_Node000003_Node000007"><a xlink:title=" ">
<path fill="none" stroke="#63b8ff" d="M410.22,-302.1C369.52,-296.11 292.88,-282.24 276.77,-261 248.28,-223.44 296.88,-172.24 325.74,-146.95"/>
<polygon fill="#63b8ff" stroke="#63b8ff" points="328.27,-149.39 333.62,-140.25 323.73,-144.06 328.27,-149.39"/>
</a>
</g>
</g>
<!-- Node8 -->
<g id="Node000008" class="node">
<title>Node8</title>
<g id="a_Node000008"><a xlink:href="common__structs_8h.html" target="_top" xlink:title=" ">
<polygon fill="white" stroke="#666666" points="681.27,-74 574.27,-74 574.27,-55 681.27,-55 681.27,-74"/>
<text text-anchor="middle" x="627.77" y="-62" font-family="Helvetica,sans-Serif" font-size="10.00">common_structs.h</text>
</a>
</g>
</g>
<!-- Node3&#45;&gt;Node8 -->
<g id="edge40_Node000003_Node000008" class="edge">
<title>Node3&#45;&gt;Node8</title>
<g id="a_edge40_Node000003_Node000008"><a xlink:title=" ">
<path fill="none" stroke="#63b8ff" d="M410.23,-303.5C368.71,-298.99 292.81,-284.82 309.77,-242 317.18,-223.29 416.32,-120.02 433.77,-110 455.94,-97.27 517.3,-84.39 565.14,-75.79"/>
<polygon fill="#63b8ff" stroke="#63b8ff" points="565.88,-79.21 575.12,-74.02 564.66,-72.32 565.88,-79.21"/>
</a>
</g>
</g>
<!-- Node3&#45;&gt;Node9 -->
<g id="edge11_Node000003_Node000009" class="edge">
<title>Node3&#45;&gt;Node9</title>
<g id="a_edge11_Node000003_Node000009"><a xlink:title=" ">
<path fill="none" stroke="#63b8ff" d="M461.29,-302.2C516.3,-295.08 650.38,-277.66 774.61,-261.01"/>
<polygon fill="#63b8ff" stroke="#63b8ff" points="775.23,-264.46 784.68,-259.66 774.3,-257.52 775.23,-264.46"/>
</a>
</g>
</g>
<!-- Node15 -->
<g id="Node000015" class="node">
<title>Node15</title>
<g id="a_Node000015"><a xlink:href="bomb__kart_8h.html" target="_top" xlink:title=" ">
<polygon fill="white" stroke="#666666" points="561.27,-206 484.27,-206 484.27,-187 561.27,-187 561.27,-206"/>
<text text-anchor="middle" x="522.77" y="-194" font-family="Helvetica,sans-Serif" font-size="10.00">bomb_kart.h</text>
</a>
</g>
</g>
<!-- Node3&#45;&gt;Node15 -->
<g id="edge21_Node000003_Node000015" class="edge">
<title>Node3&#45;&gt;Node15</title>
<g id="a_edge21_Node000003_Node000015"><a xlink:title=" ">
<path fill="none" stroke="#63b8ff" d="M453.19,-296.95C467.22,-289.27 486.56,-276.78 498.77,-261 509.03,-247.75 515.29,-229.63 518.84,-216.13"/>
<polygon fill="#63b8ff" stroke="#63b8ff" points="522.32,-216.63 521.2,-206.1 515.5,-215.03 522.32,-216.63"/>
</a>
</g>
</g>
<!-- Node3&#45;&gt;Node19 -->
<g id="edge28_Node000003_Node000019" class="edge">
<title>Node3&#45;&gt;Node19</title>
<g id="a_edge28_Node000003_Node000019"><a xlink:title=" ">
<path fill="none" stroke="#63b8ff" d="M461.37,-300.32C503.8,-291.74 589.52,-274.4 645.24,-263.13"/>
<polygon fill="#63b8ff" stroke="#63b8ff" points="646.17,-266.51 655.28,-261.1 644.79,-259.65 646.17,-266.51"/>
</a>
</g>
</g>
<!-- Node20 -->
<g id="Node000020" class="node">
<title>Node20</title>
<g id="a_Node000020"><a xlink:href="waypoints_8h.html" target="_top" xlink:title=" ">
<polygon fill="white" stroke="#666666" points="465.77,-206 389.77,-206 389.77,-187 465.77,-187 465.77,-206"/>
<text text-anchor="middle" x="427.77" y="-194" font-family="Helvetica,sans-Serif" font-size="10.00">waypoints.h</text>
</a>
</g>
</g>
<!-- Node3&#45;&gt;Node20 -->
<g id="edge38_Node000003_Node000020" class="edge">
<title>Node3&#45;&gt;Node20</title>
<g id="a_edge38_Node000003_Node000020"><a xlink:title=" ">
<path fill="none" stroke="#63b8ff" d="M410.12,-305.5C346.97,-304.9 186.7,-299.53 153.77,-261 148.28,-254.58 148.3,-248.43 153.77,-242 182.19,-208.59 308.75,-200.19 379.5,-198.13"/>
<polygon fill="#63b8ff" stroke="#63b8ff" points="379.61,-201.63 389.52,-197.87 379.43,-194.63 379.61,-201.63"/>
</a>
</g>
</g>
<!-- Node22 -->
<g id="Node000022" class="node">
<title>Node22</title>
<g id="a_Node000022"><a xlink:href="sounds_8h.html" target="_top" xlink:title=" ">
<polygon fill="white" stroke="#666666" points="610.77,-261 550.77,-261 550.77,-242 610.77,-242 610.77,-261"/>
<text text-anchor="middle" x="580.77" y="-249" font-family="Helvetica,sans-Serif" font-size="10.00">sounds.h</text>
</a>
</g>
</g>
<!-- Node3&#45;&gt;Node22 -->
<g id="edge39_Node000003_Node000022" class="edge">
<title>Node3&#45;&gt;Node22</title>
<g id="a_edge39_Node000003_Node000022"><a xlink:title=" ">
<path fill="none" stroke="#63b8ff" d="M459.07,-296.98C483.02,-288.23 520.55,-274.51 547.6,-264.62"/>
<polygon fill="#63b8ff" stroke="#63b8ff" points="548.86,-267.89 557.05,-261.17 546.46,-261.32 548.86,-267.89"/>
</a>
</g>
</g>
<!-- Node23 -->
<g id="Node000023" class="node">
<title>Node23</title>
<g id="a_Node000023"><a xlink:href="code__800029B0_8h.html" target="_top" xlink:title=" ">
<polygon fill="white" stroke="#666666" points="181.27,-206 78.27,-206 78.27,-187 181.27,-187 181.27,-206"/>
<text text-anchor="middle" x="129.77" y="-194" font-family="Helvetica,sans-Serif" font-size="10.00">code_800029B0.h</text>
</a>
</g>
</g>
<!-- Node3&#45;&gt;Node23 -->
<g id="edge41_Node000003_Node000023" class="edge">
<title>Node3&#45;&gt;Node23</title>
<g id="a_edge41_Node000003_Node000023"><a xlink:title=" ">
<path fill="none" stroke="#63b8ff" d="M409.96,-305.08C346.33,-303.5 184.3,-296.05 145.77,-261 133.56,-249.89 130.05,-230.96 129.31,-216.65"/>
<polygon fill="#63b8ff" stroke="#63b8ff" points="132.8,-216.36 129.18,-206.4 125.8,-216.44 132.8,-216.36"/>
</a>
</g>
</g>
<!-- Node5&#45;&gt;Node2 -->
<g id="edge5_Node000005_Node000002" class="edge">
<title>Node5&#45;&gt;Node2</title>
<g id="a_edge5_Node000005_Node000002"><a xlink:title=" ">
<path fill="none" stroke="#63b8ff" d="M278.91,-120.92C286.95,-117.5 296.29,-113.55 304.77,-110 363.77,-85.29 378.45,-78.94 437.77,-55 465.19,-43.93 496.48,-31.64 519.17,-22.78"/>
<polygon fill="#63b8ff" stroke="#63b8ff" points="520.59,-25.98 528.64,-19.09 518.05,-19.46 520.59,-25.98"/>
</a>
</g>
</g>
<!-- Node7&#45;&gt;Node2 -->
<g id="edge8_Node000007_Node000002" class="edge">
<title>Node7&#45;&gt;Node2</title>
<g id="a_edge8_Node000007_Node000002"><a xlink:title=" ">
<path fill="none" stroke="#63b8ff" d="M359.59,-120.94C394.84,-100.58 483.95,-49.1 526.9,-24.29"/>
<polygon fill="#63b8ff" stroke="#63b8ff" points="528.9,-27.17 535.81,-19.14 525.4,-21.11 528.9,-27.17"/>
</a>
</g>
</g>
<!-- Node7&#45;&gt;Node8 -->
<g id="edge9_Node000007_Node000008" class="edge">
<title>Node7&#45;&gt;Node8</title>
<g id="a_edge9_Node000007_Node000008"><a xlink:title=" ">
<path fill="none" stroke="#63b8ff" d="M361.95,-120.98C370.2,-117.16 380.33,-112.89 389.77,-110 421.64,-100.25 505.35,-85.5 564.45,-75.69"/>
<polygon fill="#63b8ff" stroke="#63b8ff" points="565.15,-79.13 574.44,-74.04 564,-72.22 565.15,-79.13"/>
</a>
</g>
</g>
<!-- Node8&#45;&gt;Node2 -->
<g id="edge10_Node000008_Node000002" class="edge">
<title>Node8&#45;&gt;Node2</title>
<g id="a_edge10_Node000008_Node000002"><a xlink:title=" ">
<path fill="none" stroke="#63b8ff" d="M615.4,-54.98C603.68,-46.92 585.85,-34.65 571.88,-25.03"/>
<polygon fill="#63b8ff" stroke="#63b8ff" points="573.59,-21.96 563.37,-19.17 569.62,-27.72 573.59,-21.96"/>
</a>
</g>
</g>
<!-- Node10 -->
<g id="Node000010" class="node">
<title>Node10</title>
<g id="a_Node000010"><a xlink:title=" ">
<polygon fill="#e0e0e0" stroke="#999999" points="1150.77,-74 1072.77,-74 1072.77,-55 1150.77,-55 1150.77,-74"/>
<text text-anchor="middle" x="1111.77" y="-62" font-family="Helvetica,sans-Serif" font-size="10.00">libultra/gbi.h</text>
</a>
</g>
</g>
<!-- Node9&#45;&gt;Node10 -->
<g id="edge12_Node000009_Node000010" class="edge">
<title>Node9&#45;&gt;Node10</title>
<g id="a_edge12_Node000009_Node000010"><a xlink:title=" ">
<path fill="none" stroke="#63b8ff" d="M805.55,-241.99C738.59,-222.32 591.58,-170.72 646.77,-110 674.34,-79.66 948.42,-69.49 1062.42,-66.55"/>
<polygon fill="#63b8ff" stroke="#63b8ff" points="1062.71,-70.04 1072.62,-66.3 1062.54,-63.05 1062.71,-70.04"/>
</a>
</g>
</g>
<!-- Node11 -->
<g id="Node000011" class="node">
<title>Node11</title>
<g id="a_Node000011"><a xlink:href="spline_8h.html" target="_top" xlink:title=" ">
<polygon fill="white" stroke="#666666" points="711.27,-140 656.27,-140 656.27,-121 711.27,-121 711.27,-140"/>
<text text-anchor="middle" x="683.77" y="-128" font-family="Helvetica,sans-Serif" font-size="10.00">spline.h</text>
</a>
</g>
</g>
<!-- Node9&#45;&gt;Node11 -->
<g id="edge13_Node000009_Node000011" class="edge">
<title>Node9&#45;&gt;Node11</title>
<g id="a_edge13_Node000009_Node000011"><a xlink:title=" ">
<path fill="none" stroke="#63b8ff" d="M821.04,-241.93C806.07,-233.52 783.16,-219.94 764.77,-206 740.65,-187.72 715.37,-163.54 699.6,-147.76"/>
<polygon fill="#63b8ff" stroke="#63b8ff" points="701.79,-145 692.27,-140.35 696.82,-149.92 701.79,-145"/>
</a>
</g>
</g>
<!-- Node12 -->
<g id="Node000012" class="node">
<title>Node12</title>
<g id="a_Node000012"><a xlink:href="other__textures_8h.html" target="_top" xlink:title=" ">
<polygon fill="white" stroke="#666666" points="1121.77,-145.5 1001.77,-145.5 1001.77,-115.5 1121.77,-115.5 1121.77,-145.5"/>
<text text-anchor="start" x="1009.77" y="-133.5" font-family="Helvetica,sans-Serif" font-size="10.00">assets/textures/other</text>
<text text-anchor="middle" x="1061.77" y="-122.5" font-family="Helvetica,sans-Serif" font-size="10.00">_textures.h</text>
</a>
</g>
</g>
<!-- Node9&#45;&gt;Node12 -->
<g id="edge15_Node000009_Node000012" class="edge">
<title>Node9&#45;&gt;Node12</title>
<g id="a_edge15_Node000009_Node000012"><a xlink:title=" ">
<path fill="none" stroke="#63b8ff" d="M852.95,-241.94C889.02,-222.87 976.71,-176.49 1026.22,-150.3"/>
<polygon fill="#63b8ff" stroke="#63b8ff" points="1028.09,-153.27 1035.3,-145.5 1024.82,-147.08 1028.09,-153.27"/>
</a>
</g>
</g>
<!-- Node9&#45;&gt;Node14 -->
<g id="edge18_Node000009_Node000014" class="edge">
<title>Node9&#45;&gt;Node14</title>
<g id="a_edge18_Node000009_Node000014"><a xlink:title=" ">
<path fill="none" stroke="#63b8ff" d="M831.49,-241.75C827.06,-234.42 820.61,-223.73 815.15,-214.7"/>
<polygon fill="#63b8ff" stroke="#63b8ff" points="818.12,-212.84 809.96,-206.09 812.13,-216.46 818.12,-212.84"/>
</a>
</g>
</g>
<!-- Node11&#45;&gt;Node8 -->
<g id="edge14_Node000011_Node000008" class="edge">
<title>Node11&#45;&gt;Node8</title>
<g id="a_edge14_Node000011_Node000008"><a xlink:title=" ">
<path fill="none" stroke="#63b8ff" d="M676.22,-120.87C667.58,-111 653.24,-94.61 642.4,-82.22"/>
<polygon fill="#63b8ff" stroke="#63b8ff" points="644.78,-79.63 635.56,-74.41 639.51,-84.24 644.78,-79.63"/>
</a>
</g>
</g>
<!-- Node12&#45;&gt;Node2 -->
<g id="edge16_Node000012_Node000002" class="edge">
<title>Node12&#45;&gt;Node2</title>
<g id="a_edge16_Node000012_Node000002"><a xlink:title=" ">
<path fill="none" stroke="#63b8ff" d="M1013.23,-115.43C1006.38,-113.54 999.41,-111.68 992.77,-110 851.33,-74.12 682.78,-37.99 600.68,-20.82"/>
<polygon fill="#63b8ff" stroke="#63b8ff" points="601.37,-17.39 590.86,-18.77 599.94,-24.24 601.37,-17.39"/>
</a>
</g>
</g>
<!-- Node13 -->
<g id="Node000013" class="node">
<title>Node13</title>
<g id="a_Node000013"><a xlink:href="align__asset__macro_8h.html" target="_top" xlink:title=" ">
<polygon fill="white" stroke="#666666" points="1286.27,-74 1169.27,-74 1169.27,-55 1286.27,-55 1286.27,-74"/>
<text text-anchor="middle" x="1227.77" y="-62" font-family="Helvetica,sans-Serif" font-size="10.00">align_asset_macro.h</text>
</a>
</g>
</g>
<!-- Node12&#45;&gt;Node13 -->
<g id="edge17_Node000012_Node000013" class="edge">
<title>Node12&#45;&gt;Node13</title>
<g id="a_edge17_Node000012_Node000013"><a xlink:title=" ">
<path fill="none" stroke="#63b8ff" d="M1098.2,-115.45C1127.44,-104.18 1168.08,-88.51 1196.01,-77.75"/>
<polygon fill="#63b8ff" stroke="#63b8ff" points="1197.61,-80.88 1205.68,-74.02 1195.09,-74.35 1197.61,-80.88"/>
</a>
</g>
</g>
<!-- Node14&#45;&gt;Node8 -->
<g id="edge20_Node000014_Node000008" class="edge">
<title>Node14&#45;&gt;Node8</title>
<g id="a_edge20_Node000014_Node000008"><a xlink:title=" ">
<path fill="none" stroke="#63b8ff" d="M795.5,-186.75C786.13,-177.85 771.29,-163.62 758.77,-151 741.06,-133.14 740.09,-124.83 719.77,-110 701.55,-96.7 678.73,-85.64 660.38,-77.86"/>
<polygon fill="#63b8ff" stroke="#63b8ff" points="661.55,-74.56 650.97,-74 658.89,-81.04 661.55,-74.56"/>
</a>
</g>
</g>
<!-- Node14&#45;&gt;Node11 -->
<g id="edge19_Node000014_Node000011" class="edge">
<title>Node14&#45;&gt;Node11</title>
<g id="a_edge19_Node000014_Node000011"><a xlink:title=" ">
<path fill="none" stroke="#63b8ff" d="M788.45,-186.87C768.06,-176.09 732.96,-157.52 709.07,-144.88"/>
<polygon fill="#63b8ff" stroke="#63b8ff" points="710.69,-141.78 700.22,-140.2 707.42,-147.97 710.69,-141.78"/>
</a>
</g>
</g>
<!-- Node15&#45;&gt;Node8 -->
<g id="edge22_Node000015_Node000008" class="edge">
<title>Node15&#45;&gt;Node8</title>
<g id="a_edge22_Node000015_Node000008"><a xlink:title=" ">
<path fill="none" stroke="#63b8ff" d="M526.96,-186.91C535.04,-170.82 553.94,-135.45 575.77,-110 585.2,-99.01 597.44,-88.4 607.67,-80.29"/>
<polygon fill="#63b8ff" stroke="#63b8ff" points="609.9,-83 615.69,-74.12 605.63,-77.45 609.9,-83"/>
</a>
</g>
</g>
<!-- Node16 -->
<g id="Node000016" class="node">
<title>Node16</title>
<g id="a_Node000016"><a xlink:href="mk64_8h.html" target="_top" xlink:title=" ">
<polygon fill="white" stroke="#666666" points="523.27,-140 470.27,-140 470.27,-121 523.27,-121 523.27,-140"/>
<text text-anchor="middle" x="496.77" y="-128" font-family="Helvetica,sans-Serif" font-size="10.00">mk64.h</text>
</a>
</g>
</g>
<!-- Node15&#45;&gt;Node16 -->
<g id="edge23_Node000015_Node000016" class="edge">
<title>Node15&#45;&gt;Node16</title>
<g id="a_edge23_Node000015_Node000016"><a xlink:title=" ">
<path fill="none" stroke="#63b8ff" d="M519.26,-186.87C515.45,-177.47 509.23,-162.17 504.3,-150.03"/>
<polygon fill="#63b8ff" stroke="#63b8ff" points="507.39,-148.35 500.39,-140.41 500.91,-150.99 507.39,-148.35"/>
</a>
</g>
</g>
<!-- Node16&#45;&gt;Node2 -->
<g id="edge24_Node000016_Node000002" class="edge">
<title>Node16&#45;&gt;Node2</title>
<g id="a_edge24_Node000016_Node000002"><a xlink:title=" ">
<path fill="none" stroke="#63b8ff" d="M493.85,-120.69C489.58,-106.16 483.21,-76.64 493.77,-55 500.07,-42.09 512.12,-31.83 523.53,-24.43"/>
<polygon fill="#63b8ff" stroke="#63b8ff" points="525.63,-27.25 532.42,-19.12 522.04,-21.25 525.63,-27.25"/>
</a>
</g>
</g>
<!-- Node16&#45;&gt;Node10 -->
<g id="edge27_Node000016_Node000010" class="edge">
<title>Node16&#45;&gt;Node10</title>
<g id="a_edge27_Node000016_Node000010"><a xlink:title=" ">
<path fill="none" stroke="#63b8ff" d="M523.61,-121.75C538.79,-117.65 558.2,-112.88 575.77,-110 753.41,-80.89 967.45,-70.39 1062.34,-66.98"/>
<polygon fill="#63b8ff" stroke="#63b8ff" points="1062.63,-70.47 1072.5,-66.62 1062.39,-63.47 1062.63,-70.47"/>
</a>
</g>
</g>
<!-- Node17 -->
<g id="Node000017" class="node">
<title>Node17</title>
<g id="a_Node000017"><a xlink:href="string_8h.html" target="_top" xlink:title=" ">
<polygon fill="white" stroke="#666666" points="556.27,-74 503.27,-74 503.27,-55 556.27,-55 556.27,-74"/>
<text text-anchor="middle" x="529.77" y="-62" font-family="Helvetica,sans-Serif" font-size="10.00">string.h</text>
</a>
</g>
</g>
<!-- Node16&#45;&gt;Node17 -->
<g id="edge25_Node000016_Node000017" class="edge">
<title>Node16&#45;&gt;Node17</title>
<g id="a_edge25_Node000016_Node000017"><a xlink:title=" ">
<path fill="none" stroke="#63b8ff" d="M501.22,-120.87C506.16,-111.28 514.28,-95.55 520.59,-83.3"/>
<polygon fill="#63b8ff" stroke="#63b8ff" points="523.71,-84.9 525.18,-74.41 517.48,-81.69 523.71,-84.9"/>
</a>
</g>
</g>
<!-- Node18 -->
<g id="Node000018" class="node">
<title>Node18</title>
<g id="a_Node000018"><a xlink:title=" ">
<polygon fill="#e0e0e0" stroke="#999999" points="1242.77,-19 1152.77,-19 1152.77,0 1242.77,0 1242.77,-19"/>
<text text-anchor="middle" x="1197.77" y="-7" font-family="Helvetica,sans-Serif" font-size="10.00">libultra/types.h</text>
</a>
</g>
</g>
<!-- Node17&#45;&gt;Node18 -->
<g id="edge26_Node000017_Node000018" class="edge">
<title>Node17&#45;&gt;Node18</title>
<g id="a_edge26_Node000017_Node000018"><a xlink:title=" ">
<path fill="none" stroke="#63b8ff" d="M556.43,-56.54C559.23,-55.95 562.05,-55.42 564.77,-55 776.48,-22.09 1031.83,-13.5 1142.35,-11.27"/>
<polygon fill="#63b8ff" stroke="#63b8ff" points="1142.65,-14.77 1152.58,-11.08 1142.52,-7.77 1142.65,-14.77"/>
</a>
</g>
</g>
<!-- Node19&#45;&gt;Node8 -->
<g id="edge31_Node000019_Node000008" class="edge">
<title>Node19&#45;&gt;Node8</title>
<g id="a_edge31_Node000019_Node000008"><a xlink:title=" ">
<path fill="none" stroke="#63b8ff" d="M692.33,-241.79C682.01,-224.9 659.48,-186.24 646.77,-151 638.73,-128.71 633.44,-101.87 630.53,-84.28"/>
<polygon fill="#63b8ff" stroke="#63b8ff" points="633.95,-83.54 628.95,-74.2 627.04,-84.62 633.95,-83.54"/>
</a>
</g>
</g>
<!-- Node19&#45;&gt;Node15 -->
<g id="edge37_Node000019_Node000015" class="edge">
<title>Node19&#45;&gt;Node15</title>
<g id="a_edge37_Node000019_Node000015"><a xlink:title=" ">
<path fill="none" stroke="#63b8ff" d="M669.65,-241.98C640.15,-233.05 593.58,-218.94 560.8,-209.02"/>
<polygon fill="#63b8ff" stroke="#63b8ff" points="561.69,-205.63 551.11,-206.08 559.66,-212.33 561.69,-205.63"/>
</a>
</g>
</g>
<!-- Node19&#45;&gt;Node20 -->
<g id="edge29_Node000019_Node000020" class="edge">
<title>Node19&#45;&gt;Node20</title>
<g id="a_edge29_Node000019_Node000020"><a xlink:title=" ">
<path fill="none" stroke="#63b8ff" d="M654.39,-241.98C605.58,-232.4 526.51,-216.88 475.85,-206.94"/>
<polygon fill="#63b8ff" stroke="#63b8ff" points="476.29,-203.46 465.81,-204.97 474.94,-210.33 476.29,-203.46"/>
</a>
</g>
</g>
<!-- Node21 -->
<g id="Node000021" class="node">
<title>Node21</title>
<g id="a_Node000021"><a xlink:href="other_2common__data_8h.html" target="_top" xlink:title=" ">
<polygon fill="white" stroke="#666666" points="983.77,-145.5 861.77,-145.5 861.77,-115.5 983.77,-115.5 983.77,-145.5"/>
<text text-anchor="start" x="869.77" y="-133.5" font-family="Helvetica,sans-Serif" font-size="10.00">assets/other/common</text>
<text text-anchor="middle" x="922.77" y="-122.5" font-family="Helvetica,sans-Serif" font-size="10.00">_data.h</text>
</a>
</g>
</g>
<!-- Node19&#45;&gt;Node21 -->
<g id="edge32_Node000019_Node000021" class="edge">
<title>Node19&#45;&gt;Node21</title>
<g id="a_edge32_Node000019_Node000021"><a xlink:title=" ">
<path fill="none" stroke="#63b8ff" d="M704.72,-241.9C716,-228.45 739.6,-202.37 764.77,-187 782.2,-176.36 828.06,-160.69 865.91,-148.71"/>
<polygon fill="#63b8ff" stroke="#63b8ff" points="867.35,-151.93 875.84,-145.59 865.25,-145.25 867.35,-151.93"/>
</a>
</g>
</g>
<!-- Node20&#45;&gt;Node8 -->
<g id="edge30_Node000020_Node000008" class="edge">
<title>Node20&#45;&gt;Node8</title>
<g id="a_edge30_Node000020_Node000008"><a xlink:title=" ">
<path fill="none" stroke="#63b8ff" d="M428.57,-186.78C430.62,-169.48 437.68,-130.72 460.77,-110 476.45,-95.93 525.17,-83.91 565.97,-75.92"/>
<polygon fill="#63b8ff" stroke="#63b8ff" points="566.72,-79.34 575.88,-74.02 565.4,-72.46 566.72,-79.34"/>
</a>
</g>
</g>
<!-- Node21&#45;&gt;Node2 -->
<g id="edge34_Node000021_Node000002" class="edge">
<title>Node21&#45;&gt;Node2</title>
<g id="a_edge34_Node000021_Node000002"><a xlink:title=" ">
<path fill="none" stroke="#63b8ff" d="M879,-115.5C804.86,-91.78 655.94,-44.14 587.14,-22.14"/>
<polygon fill="#63b8ff" stroke="#63b8ff" points="588.18,-18.79 577.59,-19.08 586.05,-25.46 588.18,-18.79"/>
</a>
</g>
</g>
<!-- Node21&#45;&gt;Node8 -->
<g id="edge35_Node000021_Node000008" class="edge">
<title>Node21&#45;&gt;Node8</title>
<g id="a_edge35_Node000021_Node000008"><a xlink:title=" ">
<path fill="none" stroke="#63b8ff" d="M873.23,-115.41C866.05,-113.51 858.74,-111.65 851.77,-110 795.81,-96.77 731.36,-84.25 686,-75.88"/>
<polygon fill="#63b8ff" stroke="#63b8ff" points="686.52,-72.42 676.05,-74.05 685.26,-79.3 686.52,-72.42"/>
</a>
</g>
</g>
<!-- Node21&#45;&gt;Node10 -->
<g id="edge33_Node000021_Node000010" class="edge">
<title>Node21&#45;&gt;Node10</title>
<g id="a_edge33_Node000021_Node000010"><a xlink:title=" ">
<path fill="none" stroke="#63b8ff" d="M964.25,-115.45C997.98,-104.03 1045.03,-88.1 1076.86,-77.32"/>
<polygon fill="#63b8ff" stroke="#63b8ff" points="1078.27,-80.54 1086.62,-74.02 1076.02,-73.91 1078.27,-80.54"/>
</a>
</g>
</g>
<!-- Node21&#45;&gt;Node13 -->
<g id="edge36_Node000021_Node000013" class="edge">
<title>Node21&#45;&gt;Node13</title>
<g id="a_edge36_Node000021_Node000013"><a xlink:title=" ">
<path fill="none" stroke="#63b8ff" d="M971.21,-115.43C978.41,-113.51 985.77,-111.64 992.77,-110 1050.97,-96.41 1118.02,-84.03 1165.56,-75.8"/>
<polygon fill="#63b8ff" stroke="#63b8ff" points="1166.44,-79.2 1175.7,-74.06 1165.25,-72.3 1166.44,-79.2"/>
</a>
</g>
</g>
<!-- Node23&#45;&gt;Node2 -->
<g id="edge45_Node000023_Node000002" class="edge">
<title>Node23&#45;&gt;Node2</title>
<g id="a_edge45_Node000023_Node000002"><a xlink:title=" ">
<path fill="none" stroke="#63b8ff" d="M124.76,-186.95C116.22,-171.21 100.81,-136.82 111.77,-110 124.73,-78.29 135,-70.05 165.77,-55 223.61,-26.72 410.13,-15.85 500.61,-12.17"/>
<polygon fill="#63b8ff" stroke="#63b8ff" points="500.78,-15.66 510.63,-11.77 500.5,-8.67 500.78,-15.66"/>
</a>
</g>
</g>
<!-- Node23&#45;&gt;Node5 -->
<g id="edge52_Node000023_Node000005" class="edge">
<title>Node23&#45;&gt;Node5</title>
<g id="a_edge52_Node000023_Node000005"><a xlink:title=" ">
<path fill="none" stroke="#63b8ff" d="M147.17,-186.87C169,-176.04 206.66,-157.35 232.13,-144.72"/>
<polygon fill="#63b8ff" stroke="#63b8ff" points="233.83,-147.78 241.24,-140.2 230.72,-141.51 233.83,-147.78"/>
</a>
</g>
</g>
<!-- Node23&#45;&gt;Node7 -->
<g id="edge51_Node000023_Node000007" class="edge">
<title>Node23&#45;&gt;Node7</title>
<g id="a_edge51_Node000023_Node000007"><a xlink:title=" ">
<path fill="none" stroke="#63b8ff" d="M172.66,-186.96C208.31,-179.29 260.08,-166.81 303.77,-151 308.92,-149.14 314.29,-146.85 319.39,-144.5"/>
<polygon fill="#63b8ff" stroke="#63b8ff" points="321.22,-147.51 328.72,-140.02 318.19,-141.2 321.22,-147.51"/>
</a>
</g>
</g>
<!-- Node24 -->
<g id="Node000024" class="node">
<title>Node24</title>
<g id="a_Node000024"><a xlink:href="macros_8h.html" target="_top" xlink:title=" ">
<polygon fill="white" stroke="#666666" points="91.77,-74 29.77,-74 29.77,-55 91.77,-55 91.77,-74"/>
<text text-anchor="middle" x="60.77" y="-62" font-family="Helvetica,sans-Serif" font-size="10.00">macros.h</text>
</a>
</g>
</g>
<!-- Node23&#45;&gt;Node24 -->
<g id="edge42_Node000023_Node000024" class="edge">
<title>Node23&#45;&gt;Node24</title>
<g id="a_edge42_Node000023_Node000024"><a xlink:title=" ">
<path fill="none" stroke="#63b8ff" d="M115.37,-186.75C103.66,-178.87 87.69,-166.2 78.77,-151 66.63,-130.29 62.62,-102.52 61.33,-84.32"/>
<polygon fill="#63b8ff" stroke="#63b8ff" points="64.81,-83.96 60.82,-74.15 57.82,-84.31 64.81,-83.96"/>
</a>
</g>
</g>
<!-- Node26 -->
<g id="Node000026" class="node">
<title>Node26</title>
<g id="a_Node000026"><a xlink:href="actor__types_8h.html" target="_top" xlink:title=" ">
<polygon fill="white" stroke="#666666" points="204.27,-140 121.27,-140 121.27,-121 204.27,-121 204.27,-140"/>
<text text-anchor="middle" x="162.77" y="-128" font-family="Helvetica,sans-Serif" font-size="10.00">actor_types.h</text>
</a>
</g>
</g>
<!-- Node23&#45;&gt;Node26 -->
<g id="edge46_Node000023_Node000026" class="edge">
<title>Node23&#45;&gt;Node26</title>
<g id="a_edge46_Node000023_Node000026"><a xlink:title=" ">
<path fill="none" stroke="#63b8ff" d="M134.22,-186.87C139.16,-177.28 147.28,-161.55 153.59,-149.3"/>
<polygon fill="#63b8ff" stroke="#63b8ff" points="156.71,-150.9 158.18,-140.41 150.48,-147.69 156.71,-150.9"/>
</a>
</g>
</g>
<!-- Node24&#45;&gt;Node2 -->
<g id="edge44_Node000024_Node000002" class="edge">
<title>Node24&#45;&gt;Node2</title>
<g id="a_edge44_Node000024_Node000002"><a xlink:title=" ">
<path fill="none" stroke="#63b8ff" d="M92.18,-57.21C96.73,-56.4 101.36,-55.64 105.77,-55 248.37,-34.44 418.05,-20.31 500.63,-14.08"/>
<polygon fill="#63b8ff" stroke="#63b8ff" points="501.03,-17.56 510.74,-13.33 500.51,-10.58 501.03,-17.56"/>
</a>
</g>
</g>
<!-- Node25 -->
<g id="Node000025" class="node">
<title>Node25</title>
<g id="a_Node000025"><a xlink:href="math_8h.html" target="_top" xlink:title=" ">
<polygon fill="white" stroke="#666666" points="86.27,-19 35.27,-19 35.27,0 86.27,0 86.27,-19"/>
<text text-anchor="middle" x="60.77" y="-7" font-family="Helvetica,sans-Serif" font-size="10.00">math.h</text>
</a>
</g>
</g>
<!-- Node24&#45;&gt;Node25 -->
<g id="edge43_Node000024_Node000025" class="edge">
<title>Node24&#45;&gt;Node25</title>
<g id="a_edge43_Node000024_Node000025"><a xlink:title=" ">
<path fill="none" stroke="#63b8ff" d="M60.77,-54.75C60.77,-47.8 60.77,-37.85 60.77,-29.13"/>
<polygon fill="#63b8ff" stroke="#63b8ff" points="64.27,-29.09 60.77,-19.09 57.27,-29.09 64.27,-29.09"/>
</a>
</g>
</g>
<!-- Node26&#45;&gt;Node2 -->
<g id="edge47_Node000026_Node000002" class="edge">
<title>Node26&#45;&gt;Node2</title>
<g id="a_edge47_Node000026_Node000002"><a xlink:title=" ">
<path fill="none" stroke="#63b8ff" d="M162.12,-120.78C161.47,-105.01 162.61,-71.82 181.77,-55 228.06,-14.35 410.58,-9.58 500.36,-9.79"/>
<polygon fill="#63b8ff" stroke="#63b8ff" points="500.55,-13.29 510.57,-9.83 500.58,-6.29 500.55,-13.29"/>
</a>
</g>
</g>
<!-- Node26&#45;&gt;Node8 -->
<g id="edge49_Node000026_Node000008" class="edge">
<title>Node26&#45;&gt;Node8</title>
<g id="a_edge49_Node000026_Node000008"><a xlink:title=" ">
<path fill="none" stroke="#63b8ff" d="M181.38,-120.86C190.62,-116.92 202.08,-112.58 212.77,-110 362.5,-73.85 406.8,-91.74 564.14,-74.01"/>
<polygon fill="#63b8ff" stroke="#63b8ff" points="564.64,-77.48 574.17,-72.85 563.83,-70.52 564.64,-77.48"/>
</a>
</g>
</g>
<!-- Node26&#45;&gt;Node24 -->
<g id="edge48_Node000026_Node000024" class="edge">
<title>Node26&#45;&gt;Node24</title>
<g id="a_edge48_Node000026_Node000024"><a xlink:title=" ">
<path fill="none" stroke="#63b8ff" d="M149.01,-120.87C132.13,-110.28 103.28,-92.17 83.18,-79.56"/>
<polygon fill="#63b8ff" stroke="#63b8ff" points="84.97,-76.55 74.63,-74.2 81.24,-82.48 84.97,-76.55"/>
</a>
</g>
</g>
<!-- Node27 -->
<g id="Node000027" class="node">
<title>Node27</title>
<g id="a_Node000027"><a xlink:title=" ">
<polygon fill="#e0e0e0" stroke="#999999" points="246.77,-74 190.77,-74 190.77,-55 246.77,-55 246.77,-74"/>
<text text-anchor="middle" x="218.77" y="-62" font-family="Helvetica,sans-Serif" font-size="10.00">assert.h</text>
</a>
</g>
</g>
<!-- Node26&#45;&gt;Node27 -->
<g id="edge50_Node000026_Node000027" class="edge">
<title>Node26&#45;&gt;Node27</title>
<g id="a_edge50_Node000026_Node000027"><a xlink:title=" ">
<path fill="none" stroke="#63b8ff" d="M170.32,-120.87C178.96,-111 193.3,-94.61 204.14,-82.22"/>
<polygon fill="#63b8ff" stroke="#63b8ff" points="207.03,-84.24 210.98,-74.41 201.76,-79.63 207.03,-84.24"/>
</a>
</g>
</g>
<!-- Node28&#45;&gt;Node2 -->
<g id="edge54_Node000028_Node000002" class="edge">
<title>Node28&#45;&gt;Node2</title>
<g id="a_edge54_Node000028_Node000002"><a xlink:title=" ">
<path fill="none" stroke="#63b8ff" d="M1139.64,-112.05C1136.64,-111.33 1133.68,-110.65 1130.77,-110 936.47,-66.88 702.02,-31.77 601.04,-17.45"/>
<polygon fill="#63b8ff" stroke="#63b8ff" points="601.5,-13.98 591.11,-16.04 600.53,-20.91 601.5,-13.98"/>
</a>
</g>
</g>
<!-- Node28&#45;&gt;Node10 -->
<g id="edge55_Node000028_Node000010" class="edge">
<title>Node28&#45;&gt;Node10</title>
<g id="a_edge55_Node000028_Node000010"><a xlink:title=" ">
<path fill="none" stroke="#63b8ff" d="M1174.97,-109.95C1161.35,-100.37 1145.21,-89.02 1132.65,-80.19"/>
<polygon fill="#63b8ff" stroke="#63b8ff" points="1134.42,-77.15 1124.23,-74.26 1130.39,-82.88 1134.42,-77.15"/>
</a>
</g>
</g>
<!-- Node28&#45;&gt;Node13 -->
<g id="edge56_Node000028_Node000013" class="edge">
<title>Node28&#45;&gt;Node13</title>
<g id="a_edge56_Node000028_Node000013"><a xlink:title=" ">
<path fill="none" stroke="#63b8ff" d="M1210.41,-109.95C1213.68,-101.58 1217.48,-91.85 1220.68,-83.64"/>
<polygon fill="#63b8ff" stroke="#63b8ff" points="1223.97,-84.85 1224.35,-74.26 1217.45,-82.3 1223.97,-84.85"/>
</a>
</g>
</g>
<!-- Node29&#45;&gt;Node2 -->
<g id="edge58_Node000029_Node000002" class="edge">
<title>Node29&#45;&gt;Node2</title>
<g id="a_edge58_Node000029_Node000002"><a xlink:title=" ">
<path fill="none" stroke="#63b8ff" d="M1371.17,-109.93C1353.75,-92.05 1325.31,-66.67 1294.77,-55 1230.41,-30.41 758.18,-15.93 601.28,-11.76"/>
<polygon fill="#63b8ff" stroke="#63b8ff" points="601.07,-8.26 590.98,-11.49 600.88,-15.26 601.07,-8.26"/>
</a>
</g>
</g>
<!-- Node29&#45;&gt;Node10 -->
<g id="edge59_Node000029_Node000010" class="edge">
<title>Node29&#45;&gt;Node10</title>
<g id="a_edge59_Node000029_Node000010"><a xlink:title=" ">
<path fill="none" stroke="#63b8ff" d="M1322.04,-113.36C1317.21,-112.22 1312.42,-111.09 1307.77,-110 1257.45,-98.23 1199.75,-85.18 1160.05,-76.28"/>
<polygon fill="#63b8ff" stroke="#63b8ff" points="1160.64,-72.82 1150.11,-74.05 1159.1,-79.65 1160.64,-72.82"/>
</a>
</g>
</g>
<!-- Node29&#45;&gt;Node13 -->
<g id="edge60_Node000029_Node000013" class="edge">
<title>Node29&#45;&gt;Node13</title>
<g id="a_edge60_Node000029_Node000013"><a xlink:title=" ">
<path fill="none" stroke="#63b8ff" d="M1339.59,-109.95C1313.33,-99.51 1281.8,-86.98 1258.93,-77.88"/>
<polygon fill="#63b8ff" stroke="#63b8ff" points="1259.97,-74.53 1249.38,-74.09 1257.38,-81.04 1259.97,-74.53"/>
</a>
</g>
</g>
<!-- Node30&#45;&gt;Node2 -->
<g id="edge62_Node000030_Node000002" class="edge">
<title>Node30&#45;&gt;Node2</title>
<g id="a_edge62_Node000030_Node000002"><a xlink:title=" ">
<path fill="none" stroke="#63b8ff" d="M1493.15,-109.91C1451.38,-92.15 1386.12,-66.97 1326.77,-55 1187.26,-26.85 750.8,-14.88 601.47,-11.53"/>
<polygon fill="#63b8ff" stroke="#63b8ff" points="601.3,-8.03 591.22,-11.31 601.14,-15.03 601.3,-8.03"/>
</a>
</g>
</g>
<!-- Node30&#45;&gt;Node10 -->
<g id="edge63_Node000030_Node000010" class="edge">
<title>Node30&#45;&gt;Node10</title>
<g id="a_edge63_Node000030_Node000010"><a xlink:title=" ">
<path fill="none" stroke="#63b8ff" d="M1473.59,-112.03C1470.28,-111.3 1466.99,-110.62 1463.77,-110 1333.28,-84.98 1296.1,-93.44 1160.69,-74.05"/>
<polygon fill="#63b8ff" stroke="#63b8ff" points="1161.17,-70.58 1150.77,-72.6 1160.16,-77.51 1161.17,-70.58"/>
</a>
</g>
</g>
<!-- Node30&#45;&gt;Node13 -->
<g id="edge64_Node000030_Node000013" class="edge">
<title>Node30&#45;&gt;Node13</title>
<g id="a_edge64_Node000030_Node000013"><a xlink:title=" ">
<path fill="none" stroke="#63b8ff" d="M1473.53,-112.3C1470.24,-111.5 1466.97,-110.73 1463.77,-110 1404.75,-96.57 1336.77,-84.06 1288.98,-75.75"/>
<polygon fill="#63b8ff" stroke="#63b8ff" points="1289.55,-72.3 1279.1,-74.04 1288.36,-79.19 1289.55,-72.3"/>
</a>
</g>
</g>
<!-- Node31&#45;&gt;Node2 -->
<g id="edge66_Node000031_Node000002" class="edge">
<title>Node31&#45;&gt;Node2</title>
<g id="a_edge66_Node000031_Node000002"><a xlink:title=" ">
<path fill="none" stroke="#63b8ff" d="M1331.96,-196.29C1413.53,-196.47 1573.44,-191.5 1608.77,-151 1620.75,-137.27 1620.07,-124.29 1608.77,-110 1545.54,-30.03 802.79,-13.98 601.06,-11.09"/>
<polygon fill="#63b8ff" stroke="#63b8ff" points="601.08,-7.59 591.03,-10.95 600.98,-14.59 601.08,-7.59"/>
</a>
</g>
</g>
<!-- Node31&#45;&gt;Node10 -->
<g id="edge68_Node000031_Node000010" class="edge">
<title>Node31&#45;&gt;Node10</title>
<g id="a_edge68_Node000031_Node000010"><a xlink:title=" ">
<path fill="none" stroke="#63b8ff" d="M1285.74,-186.77C1289.02,-169.79 1293.53,-132.06 1274.77,-110 1267.22,-101.12 1206.19,-86.11 1161.01,-76"/>
<polygon fill="#63b8ff" stroke="#63b8ff" points="1161.58,-72.55 1151.06,-73.8 1160.07,-79.38 1161.58,-72.55"/>
</a>
</g>
</g>
<!-- Node31&#45;&gt;Node12 -->
<g id="edge69_Node000031_Node000012" class="edge">
<title>Node31&#45;&gt;Node12</title>
<g id="a_edge69_Node000031_Node000012"><a xlink:title=" ">
<path fill="none" stroke="#63b8ff" d="M1253.83,-186.87C1219.79,-177.06 1163.39,-160.8 1120.5,-148.43"/>
<polygon fill="#63b8ff" stroke="#63b8ff" points="1121.31,-145.02 1110.73,-145.62 1119.37,-151.75 1121.31,-145.02"/>
</a>
</g>
</g>
<!-- Node31&#45;&gt;Node18 -->
<g id="edge67_Node000031_Node000018" class="edge">
<title>Node31&#45;&gt;Node18</title>
<g id="a_edge67_Node000031_Node000018"><a xlink:title=" ">
<path fill="none" stroke="#63b8ff" d="M1331.98,-193C1424.93,-187.69 1621.58,-173.85 1641.77,-151 1670.02,-119.02 1670.4,-86.64 1641.77,-55 1616.13,-26.66 1366.19,-15.57 1252.99,-11.97"/>
<polygon fill="#63b8ff" stroke="#63b8ff" points="1252.9,-8.47 1242.8,-11.66 1252.68,-15.47 1252.9,-8.47"/>
</a>
</g>
</g>
<!-- Node32 -->
<g id="Node000032" class="node">
<title>Node32</title>
<g id="a_Node000032"><a xlink:href="animation_8h.html" target="_top" xlink:title=" ">
<polygon fill="white" stroke="#666666" points="843.27,-140 768.27,-140 768.27,-121 843.27,-121 843.27,-140"/>
<text text-anchor="middle" x="805.77" y="-128" font-family="Helvetica,sans-Serif" font-size="10.00">animation.h</text>
</a>
</g>
</g>
<!-- Node31&#45;&gt;Node32 -->
<g id="edge70_Node000031_Node000032" class="edge">
<title>Node31&#45;&gt;Node32</title>
<g id="a_edge70_Node000031_Node000032"><a xlink:title=" ">
<path fill="none" stroke="#63b8ff" d="M1235.47,-195.05C1154.91,-193.3 988.59,-185.4 852.77,-151 846.14,-149.32 839.22,-146.87 832.79,-144.27"/>
<polygon fill="#63b8ff" stroke="#63b8ff" points="833.78,-140.89 823.21,-140.16 831.02,-147.32 833.78,-140.89"/>
</a>
</g>
</g>
<!-- Node32&#45;&gt;Node8 -->
<g id="edge71_Node000032_Node000008" class="edge">
<title>Node32&#45;&gt;Node8</title>
<g id="a_edge71_Node000032_Node000008"><a xlink:title=" ">
<path fill="none" stroke="#63b8ff" d="M783.28,-120.96C774.14,-117.51 763.46,-113.53 753.77,-110 722.79,-98.72 687.37,-86.25 661.99,-77.39"/>
<polygon fill="#63b8ff" stroke="#63b8ff" points="663.04,-74.05 652.45,-74.06 660.74,-80.66 663.04,-74.05"/>
</a>
</g>
</g>
</g>
</svg>
