<?xml version="1.0" encoding="UTF-8" standalone="no"?>
<!DOCTYPE svg PUBLIC "-//W3C//DTD SVG 1.1//EN"
 "http://www.w3.org/Graphics/SVG/1.1/DTD/svg11.dtd">
<!-- Generated by graphviz version 2.43.0 (0)
 -->
<!-- Title: audio_shut_down_and_reset_step Pages: 1 -->
<svg width="1551pt" height="536pt"
 viewBox="0.00 0.00 1551.00 536.00" xmlns="http://www.w3.org/2000/svg" xmlns:xlink="http://www.w3.org/1999/xlink">
<g id="graph0" class="graph" transform="scale(1 1) rotate(0) translate(4 532)">
<title>audio_shut_down_and_reset_step</title>
<!-- Node1 -->
<g id="Node000001" class="node">
<title>Node1</title>
<g id="a_Node000001"><a xlink:title=" ">
<polygon fill="#999999" stroke="#666666" points="125,-110.5 0,-110.5 0,-80.5 125,-80.5 125,-110.5"/>
<text text-anchor="start" x="8" y="-98.5" font-family="Helvetica,sans-Serif" font-size="10.00">audio_shut_down_and</text>
<text text-anchor="middle" x="62.5" y="-87.5" font-family="Helvetica,sans-Serif" font-size="10.00">_reset_step</text>
</a>
</g>
</g>
<!-- Node2 -->
<g id="Node000002" class="node">
<title>Node2</title>
<g id="a_Node000002"><a xlink:href="heap_8c.html#ad912aa8d2254ac558365a915931c2512" target="_top" xlink:title=" ">
<polygon fill="white" stroke="#666666" points="289,-342 173,-342 173,-323 289,-323 289,-342"/>
<text text-anchor="middle" x="231" y="-330" font-family="Helvetica,sans-Serif" font-size="10.00">audio_reset_session</text>
</a>
</g>
</g>
<!-- Node1&#45;&gt;Node2 -->
<g id="edge1_Node000001_Node000002" class="edge">
<title>Node1&#45;&gt;Node2</title>
<g id="a_edge1_Node000001_Node000002"><a xlink:title=" ">
<path fill="none" stroke="#63b8ff" d="M74.17,-110.69C103.59,-152.56 185.76,-269.53 217.38,-314.53"/>
<polygon fill="#63b8ff" stroke="#63b8ff" points="214.71,-316.82 223.32,-322.99 220.44,-312.8 214.71,-316.82"/>
</a>
</g>
</g>
<!-- Node19 -->
<g id="Node000019" class="node">
<title>Node19</title>
<g id="a_Node000019"><a xlink:href="heap_8c.html#ab8d4a0abb63641a36559bf0a0ad013f9" target="_top" xlink:title=" ">
<polygon fill="white" stroke="#666666" points="293,-68 169,-68 169,-49 293,-49 293,-68"/>
<text text-anchor="middle" x="231" y="-56" font-family="Helvetica,sans-Serif" font-size="10.00">decrease_reverb_gain</text>
</a>
</g>
</g>
<!-- Node1&#45;&gt;Node19 -->
<g id="edge27_Node000001_Node000019" class="edge">
<title>Node1&#45;&gt;Node19</title>
<g id="a_edge27_Node000001_Node000019"><a xlink:title=" ">
<path fill="none" stroke="#63b8ff" d="M125.03,-81.83C142.13,-78.03 160.56,-73.93 177.12,-70.25"/>
<polygon fill="#63b8ff" stroke="#63b8ff" points="178.16,-73.6 187.17,-68.02 176.64,-66.77 178.16,-73.6"/>
</a>
</g>
</g>
<!-- Node20 -->
<g id="Node000020" class="node">
<title>Node20</title>
<g id="a_Node000020"><a xlink:href="seqplayer_8c.html#a6de04cc97964a6560cc4f3e5a01426c1" target="_top" xlink:title=" ">
<polygon fill="white" stroke="#666666" points="301,-105 161,-105 161,-86 301,-86 301,-105"/>
<text text-anchor="middle" x="231" y="-93" font-family="Helvetica,sans-Serif" font-size="10.00">sequence_player_disable</text>
</a>
</g>
</g>
<!-- Node1&#45;&gt;Node20 -->
<g id="edge28_Node000001_Node000020" class="edge">
<title>Node1&#45;&gt;Node20</title>
<g id="a_edge28_Node000001_Node000020"><a xlink:title=" ">
<path fill="none" stroke="#63b8ff" d="M125.03,-95.5C133.41,-95.5 142.12,-95.5 150.77,-95.5"/>
<polygon fill="#63b8ff" stroke="#63b8ff" points="150.87,-99 160.87,-95.5 150.87,-92 150.87,-99"/>
</a>
</g>
</g>
<!-- Node3 -->
<g id="Node000003" class="node">
<title>Node3</title>
<g id="a_Node000003"><a xlink:href="heap_8c.html#a48faacfdc2f40c8752604117d04b1ad5" target="_top" xlink:title=" ">
<polygon fill="white" stroke="#666666" points="466,-454 374,-454 374,-435 466,-435 466,-454"/>
<text text-anchor="middle" x="420" y="-442" font-family="Helvetica,sans-Serif" font-size="10.00">func_800B914C</text>
</a>
</g>
</g>
<!-- Node2&#45;&gt;Node3 -->
<g id="edge2_Node000002_Node000003" class="edge">
<title>Node2&#45;&gt;Node3</title>
<g id="a_edge2_Node000002_Node000003"><a xlink:title=" ">
<path fill="none" stroke="#63b8ff" d="M239.81,-342.26C255.84,-361.6 294.53,-404.76 337,-426.5 345.29,-430.74 354.55,-433.99 363.78,-436.47"/>
<polygon fill="#63b8ff" stroke="#63b8ff" points="363.19,-439.93 373.73,-438.88 364.83,-433.13 363.19,-439.93"/>
</a>
</g>
</g>
<!-- Node5 -->
<g id="Node000005" class="node">
<title>Node5</title>
<g id="a_Node000005"><a xlink:href="heap_8c.html#a3b61627e0936bb88a3e8466e4f3f48f0" target="_top" xlink:title=" ">
<polygon fill="white" stroke="#666666" points="647.5,-417 577.5,-417 577.5,-398 647.5,-398 647.5,-417"/>
<text text-anchor="middle" x="612.5" y="-405" font-family="Helvetica,sans-Serif" font-size="10.00">soundAlloc</text>
</a>
</g>
</g>
<!-- Node2&#45;&gt;Node5 -->
<g id="edge22_Node000002_Node000005" class="edge">
<title>Node2&#45;&gt;Node5</title>
<g id="a_edge22_Node000002_Node000005"><a xlink:title=" ">
<path fill="none" stroke="#63b8ff" d="M289.17,-330.26C344.79,-329.58 431.19,-332.52 503,-352.5 534.37,-361.23 567.31,-379.39 588.55,-392.46"/>
<polygon fill="#63b8ff" stroke="#63b8ff" points="586.84,-395.52 597.17,-397.88 590.57,-389.6 586.84,-395.52"/>
</a>
</g>
</g>
<!-- Node6 -->
<g id="Node000006" class="node">
<title>Node6</title>
<g id="a_Node000006"><a xlink:href="load_8c.html#a964962cd1a7c0ad6d0b9c8e67a762049" target="_top" xlink:title=" ">
<polygon fill="white" stroke="#666666" points="466,-304 374,-304 374,-285 466,-285 466,-304"/>
<text text-anchor="middle" x="420" y="-292" font-family="Helvetica,sans-Serif" font-size="10.00">func_800BB030</text>
</a>
</g>
</g>
<!-- Node2&#45;&gt;Node6 -->
<g id="edge5_Node000002_Node000006" class="edge">
<title>Node2&#45;&gt;Node6</title>
<g id="a_edge5_Node000002_Node000006"><a xlink:title=" ">
<path fill="none" stroke="#63b8ff" d="M279.19,-322.91C304.9,-317.69 336.86,-311.19 363.74,-305.73"/>
<polygon fill="#63b8ff" stroke="#63b8ff" points="364.66,-309.11 373.76,-303.69 363.27,-302.25 364.66,-309.11"/>
</a>
</g>
</g>
<!-- Node7 -->
<g id="Node000007" class="node">
<title>Node7</title>
<g id="a_Node000007"><a xlink:href="playback_8c.html#ac5a1883479a1e40ad448fe8dc18fb7d8" target="_top" xlink:title=" ">
<polygon fill="white" stroke="#666666" points="472,-181 368,-181 368,-162 472,-162 472,-181"/>
<text text-anchor="middle" x="420" y="-169" font-family="Helvetica,sans-Serif" font-size="10.00">init_note_free_list</text>
</a>
</g>
</g>
<!-- Node2&#45;&gt;Node7 -->
<g id="edge7_Node000002_Node000007" class="edge">
<title>Node2&#45;&gt;Node7</title>
<g id="a_edge7_Node000002_Node000007"><a xlink:title=" ">
<path fill="none" stroke="#63b8ff" d="M236.24,-322.71C248.04,-296.68 283.94,-225.33 337,-190.5 343.3,-186.37 350.39,-183.12 357.69,-180.59"/>
<polygon fill="#63b8ff" stroke="#63b8ff" points="359.18,-183.79 367.73,-177.54 357.15,-177.1 359.18,-183.79"/>
</a>
</g>
</g>
<!-- Node11 -->
<g id="Node000011" class="node">
<title>Node11</title>
<g id="a_Node000011"><a xlink:href="playback_8c.html#aa672d08c8c0b3af7be9a7ecc37e85852" target="_top" xlink:title=" ">
<polygon fill="white" stroke="#666666" points="458.5,-380 381.5,-380 381.5,-361 458.5,-361 458.5,-380"/>
<text text-anchor="middle" x="420" y="-368" font-family="Helvetica,sans-Serif" font-size="10.00">note_init_all</text>
</a>
</g>
</g>
<!-- Node2&#45;&gt;Node11 -->
<g id="edge11_Node000002_Node000011" class="edge">
<title>Node2&#45;&gt;Node11</title>
<g id="a_edge11_Node000002_Node000011"><a xlink:title=" ">
<path fill="none" stroke="#63b8ff" d="M279.19,-342.09C307.33,-347.81 342.95,-355.05 371.2,-360.79"/>
<polygon fill="#63b8ff" stroke="#63b8ff" points="370.75,-364.27 381.24,-362.83 372.14,-357.41 370.75,-364.27"/>
</a>
</g>
</g>
<!-- Node12 -->
<g id="Node000012" class="node">
<title>Node12</title>
<g id="a_Node000012"><a xlink:href="stubs_8c.html#a9e52bbdd047be9c1af82a9b1aeff305c" target="_top" xlink:title=" ">
<polygon fill="white" stroke="#666666" points="472,-267 368,-267 368,-248 472,-248 472,-267"/>
<text text-anchor="middle" x="420" y="-255" font-family="Helvetica,sans-Serif" font-size="10.00">osAiSetFrequency</text>
</a>
</g>
</g>
<!-- Node2&#45;&gt;Node12 -->
<g id="edge13_Node000002_Node000012" class="edge">
<title>Node2&#45;&gt;Node12</title>
<g id="a_edge13_Node000002_Node000012"><a xlink:title=" ">
<path fill="none" stroke="#63b8ff" d="M247.06,-322.83C266.93,-310.46 303.34,-289.12 337,-276.5 343.94,-273.9 351.36,-271.58 358.78,-269.53"/>
<polygon fill="#63b8ff" stroke="#63b8ff" points="359.72,-272.91 368.51,-267 357.95,-266.13 359.72,-272.91"/>
</a>
</g>
</g>
<!-- Node13 -->
<g id="Node000013" class="node">
<title>Node13</title>
<g id="a_Node000013"><a xlink:href="heap_8c.html#a268e83fe68540e500b0e14f16f035097" target="_top" xlink:title=" ">
<polygon fill="white" stroke="#666666" points="479,-528 361,-528 361,-509 479,-509 479,-528"/>
<text text-anchor="middle" x="420" y="-516" font-family="Helvetica,sans-Serif" font-size="10.00">persistent_pools_init</text>
</a>
</g>
</g>
<!-- Node2&#45;&gt;Node13 -->
<g id="edge14_Node000002_Node000013" class="edge">
<title>Node2&#45;&gt;Node13</title>
<g id="a_edge14_Node000002_Node000013"><a xlink:title=" ">
<path fill="none" stroke="#63b8ff" d="M235.09,-342.37C244.82,-371.67 277.69,-458.68 337,-500.5 341.47,-503.65 346.38,-506.26 351.53,-508.43"/>
<polygon fill="#63b8ff" stroke="#63b8ff" points="350.38,-511.74 360.97,-511.86 352.77,-505.16 350.38,-511.74"/>
</a>
</g>
</g>
<!-- Node15 -->
<g id="Node000015" class="node">
<title>Node15</title>
<g id="a_Node000015"><a xlink:href="heap_8c.html#a24ec6a2bab2ef31e118353700a0daadd" target="_top" xlink:title=" ">
<polygon fill="white" stroke="#666666" points="478,-229.5 362,-229.5 362,-199.5 478,-199.5 478,-229.5"/>
<text text-anchor="start" x="370" y="-217.5" font-family="Helvetica,sans-Serif" font-size="10.00">reset_bank_and_seq</text>
<text text-anchor="middle" x="420" y="-206.5" font-family="Helvetica,sans-Serif" font-size="10.00">_load_status</text>
</a>
</g>
</g>
<!-- Node2&#45;&gt;Node15 -->
<g id="edge18_Node000002_Node000015" class="edge">
<title>Node2&#45;&gt;Node15</title>
<g id="a_edge18_Node000002_Node000015"><a xlink:title=" ">
<path fill="none" stroke="#63b8ff" d="M240.24,-322.84C256.73,-304.09 295.78,-262.58 337,-239.5 341.79,-236.82 346.9,-234.39 352.14,-232.2"/>
<polygon fill="#63b8ff" stroke="#63b8ff" points="353.61,-235.38 361.67,-228.51 351.08,-228.86 353.61,-235.38"/>
</a>
</g>
</g>
<!-- Node16 -->
<g id="Node000016" class="node">
<title>Node16</title>
<g id="a_Node000016"><a xlink:href="heap_8c.html#aa766a491062591b1a1ca8db36e891e03" target="_top" xlink:title=" ">
<polygon fill="white" stroke="#666666" points="487,-417 353,-417 353,-398 487,-398 487,-417"/>
<text text-anchor="middle" x="420" y="-405" font-family="Helvetica,sans-Serif" font-size="10.00">seq_and_bank_pool_init</text>
</a>
</g>
</g>
<!-- Node2&#45;&gt;Node16 -->
<g id="edge19_Node000002_Node000016" class="edge">
<title>Node2&#45;&gt;Node16</title>
<g id="a_edge19_Node000002_Node000016"><a xlink:title=" ">
<path fill="none" stroke="#63b8ff" d="M246.67,-342.2C266.41,-354.84 302.99,-376.82 337,-389.5 342.83,-391.67 348.99,-393.62 355.21,-395.36"/>
<polygon fill="#63b8ff" stroke="#63b8ff" points="354.44,-398.77 365,-397.92 356.21,-392 354.44,-398.77"/>
</a>
</g>
</g>
<!-- Node17 -->
<g id="Node000017" class="node">
<title>Node17</title>
<g id="a_Node000017"><a xlink:href="heap_8c.html#ac928878c0e20b7870283b160eb37a252" target="_top" xlink:title=" ">
<polygon fill="white" stroke="#666666" points="480,-491 360,-491 360,-472 480,-472 480,-491"/>
<text text-anchor="middle" x="420" y="-479" font-family="Helvetica,sans-Serif" font-size="10.00">temporary_pools_init</text>
</a>
</g>
</g>
<!-- Node2&#45;&gt;Node17 -->
<g id="edge23_Node000002_Node000017" class="edge">
<title>Node2&#45;&gt;Node17</title>
<g id="a_edge23_Node000002_Node000017"><a xlink:title=" ">
<path fill="none" stroke="#63b8ff" d="M236.8,-342.27C249.44,-366.94 286.24,-431.98 337,-463.5 341.12,-466.06 345.55,-468.25 350.14,-470.14"/>
<polygon fill="#63b8ff" stroke="#63b8ff" points="349.16,-473.5 359.75,-473.59 351.52,-466.92 349.16,-473.5"/>
</a>
</g>
</g>
<!-- Node4 -->
<g id="Node000004" class="node">
<title>Node4</title>
<g id="a_Node000004"><a xlink:href="heap_8c.html#af42e078f70fa8da3fb944c1f8115acee" target="_top" xlink:title=" ">
<polygon fill="white" stroke="#666666" points="673.5,-454 551.5,-454 551.5,-435 673.5,-435 673.5,-454"/>
<text text-anchor="middle" x="612.5" y="-442" font-family="Helvetica,sans-Serif" font-size="10.00">sound_alloc_pool_init</text>
</a>
</g>
</g>
<!-- Node3&#45;&gt;Node4 -->
<g id="edge3_Node000003_Node000004" class="edge">
<title>Node3&#45;&gt;Node4</title>
<g id="a_edge3_Node000003_Node000004"><a xlink:title=" ">
<path fill="none" stroke="#63b8ff" d="M466.15,-444.5C488.48,-444.5 515.96,-444.5 540.99,-444.5"/>
<polygon fill="#63b8ff" stroke="#63b8ff" points="541.18,-448 551.18,-444.5 541.18,-441 541.18,-448"/>
</a>
</g>
</g>
<!-- Node3&#45;&gt;Node5 -->
<g id="edge4_Node000003_Node000005" class="edge">
<title>Node3&#45;&gt;Node5</title>
<g id="a_edge4_Node000003_Node000005"><a xlink:title=" ">
<path fill="none" stroke="#63b8ff" d="M466.15,-435.73C496.79,-429.78 537.11,-421.95 567.5,-416.05"/>
<polygon fill="#63b8ff" stroke="#63b8ff" points="568.26,-419.46 577.4,-414.12 566.92,-412.59 568.26,-419.46"/>
</a>
</g>
</g>
<!-- Node6&#45;&gt;Node5 -->
<g id="edge6_Node000006_Node000005" class="edge">
<title>Node6&#45;&gt;Node5</title>
<g id="a_edge6_Node000006_Node000005"><a xlink:title=" ">
<path fill="none" stroke="#63b8ff" d="M465.68,-304.07C478.16,-307.66 491.46,-312.4 503,-318.5 539.71,-337.88 575.61,-370.89 595.53,-390.8"/>
<polygon fill="#63b8ff" stroke="#63b8ff" points="593.07,-393.29 602.58,-397.97 598.06,-388.39 593.07,-393.29"/>
</a>
</g>
</g>
<!-- Node8 -->
<g id="Node000008" class="node">
<title>Node8</title>
<g id="a_Node000008"><a xlink:href="seqplayer_8c.html#ad6bdf40a669a4ec92be6fb203b2abf0a" target="_top" xlink:title=" ">
<polygon fill="white" stroke="#666666" points="1024.5,-143 903.5,-143 903.5,-124 1024.5,-124 1024.5,-143"/>
<text text-anchor="middle" x="964" y="-131" font-family="Helvetica,sans-Serif" font-size="10.00">audio_list_push_back</text>
</a>
</g>
</g>
<!-- Node7&#45;&gt;Node8 -->
<g id="edge8_Node000007_Node000008" class="edge">
<title>Node7&#45;&gt;Node8</title>
<g id="a_edge8_Node000007_Node000008"><a xlink:title=" ">
<path fill="none" stroke="#63b8ff" d="M472.15,-171.38C553.33,-170.72 716.54,-167.43 854,-152.5 871,-150.65 889.36,-147.79 906.07,-144.85"/>
<polygon fill="#63b8ff" stroke="#63b8ff" points="907.02,-148.23 916.24,-143.01 905.78,-141.34 907.02,-148.23"/>
</a>
</g>
</g>
<!-- Node9 -->
<g id="Node000009" class="node">
<title>Node9</title>
<g id="a_Node000009"><a xlink:href="playback_8c.html#acd59fb0284ed814274e41b89fac21c20" target="_top" xlink:title=" ">
<polygon fill="white" stroke="#666666" points="655,-219 570,-219 570,-200 655,-200 655,-219"/>
<text text-anchor="middle" x="612.5" y="-207" font-family="Helvetica,sans-Serif" font-size="10.00">init_note_lists</text>
</a>
</g>
</g>
<!-- Node7&#45;&gt;Node9 -->
<g id="edge9_Node000007_Node000009" class="edge">
<title>Node7&#45;&gt;Node9</title>
<g id="a_edge9_Node000007_Node000009"><a xlink:title=" ">
<path fill="none" stroke="#63b8ff" d="M469.07,-181.09C496.75,-186.61 531.55,-193.55 559.82,-199.19"/>
<polygon fill="#63b8ff" stroke="#63b8ff" points="559.42,-202.68 569.91,-201.2 560.79,-195.82 559.42,-202.68"/>
</a>
</g>
</g>
<!-- Node10 -->
<g id="Node000010" class="node">
<title>Node10</title>
<g id="a_Node000010"><a xlink:href="playback_8c.html#af2c50034d061fb61593fc5e7969a4b59" target="_top" xlink:title=" ">
<polygon fill="white" stroke="#666666" points="828,-219 748,-219 748,-200 828,-200 828,-219"/>
<text text-anchor="middle" x="788" y="-207" font-family="Helvetica,sans-Serif" font-size="10.00">init_note_list</text>
</a>
</g>
</g>
<!-- Node9&#45;&gt;Node10 -->
<g id="edge10_Node000009_Node000010" class="edge">
<title>Node9&#45;&gt;Node10</title>
<g id="a_edge10_Node000009_Node000010"><a xlink:title=" ">
<path fill="none" stroke="#63b8ff" d="M655.06,-209.5C679.93,-209.5 711.67,-209.5 737.79,-209.5"/>
<polygon fill="#63b8ff" stroke="#63b8ff" points="737.86,-213 747.86,-209.5 737.86,-206 737.86,-213"/>
</a>
</g>
</g>
<!-- Node11&#45;&gt;Node5 -->
<g id="edge12_Node000011_Node000005" class="edge">
<title>Node11&#45;&gt;Node5</title>
<g id="a_edge12_Node000011_Node000005"><a xlink:title=" ">
<path fill="none" stroke="#63b8ff" d="M458.64,-377.81C489.98,-383.9 534.67,-392.58 567.63,-398.98"/>
<polygon fill="#63b8ff" stroke="#63b8ff" points="566.97,-402.42 577.46,-400.89 568.31,-395.55 566.97,-402.42"/>
</a>
</g>
</g>
<!-- Node13&#45;&gt;Node4 -->
<g id="edge16_Node000013_Node000004" class="edge">
<title>Node13&#45;&gt;Node4</title>
<g id="a_edge16_Node000013_Node000004"><a xlink:title=" ">
<path fill="none" stroke="#63b8ff" d="M479.02,-510.23C487.36,-507.78 495.61,-504.61 503,-500.5 523.05,-489.35 519.18,-475.05 539,-463.5 542.83,-461.27 546.93,-459.29 551.16,-457.54"/>
<polygon fill="#63b8ff" stroke="#63b8ff" points="552.39,-460.82 560.56,-454.07 549.97,-454.25 552.39,-460.82"/>
</a>
</g>
</g>
<!-- Node13&#45;&gt;Node5 -->
<g id="edge17_Node000013_Node000005" class="edge">
<title>Node13&#45;&gt;Node5</title>
<g id="a_edge17_Node000013_Node000005"><a xlink:title=" ">
<path fill="none" stroke="#63b8ff" d="M479.09,-512.65C487.7,-509.9 496.01,-506 503,-500.5 531.73,-477.87 510.73,-449.7 539,-426.5 547.07,-419.88 557.21,-415.54 567.32,-412.7"/>
<polygon fill="#63b8ff" stroke="#63b8ff" points="568.42,-416.04 577.35,-410.34 566.81,-409.23 568.42,-416.04"/>
</a>
</g>
</g>
<!-- Node14 -->
<g id="Node000014" class="node">
<title>Node14</title>
<g id="a_Node000014"><a xlink:href="heap_8c.html#a1e84414986c84176008e53d3705e9d78" target="_top" xlink:title=" ">
<polygon fill="white" stroke="#666666" points="673,-528 552,-528 552,-509 673,-509 673,-528"/>
<text text-anchor="middle" x="612.5" y="-516" font-family="Helvetica,sans-Serif" font-size="10.00">persistent_pool_clear</text>
</a>
</g>
</g>
<!-- Node13&#45;&gt;Node14 -->
<g id="edge15_Node000013_Node000014" class="edge">
<title>Node13&#45;&gt;Node14</title>
<g id="a_edge15_Node000013_Node000014"><a xlink:title=" ">
<path fill="none" stroke="#63b8ff" d="M479.19,-518.5C498.85,-518.5 521,-518.5 541.48,-518.5"/>
<polygon fill="#63b8ff" stroke="#63b8ff" points="541.69,-522 551.69,-518.5 541.69,-515 541.69,-522"/>
</a>
</g>
</g>
<!-- Node16&#45;&gt;Node4 -->
<g id="edge20_Node000016_Node000004" class="edge">
<title>Node16&#45;&gt;Node4</title>
<g id="a_edge20_Node000016_Node000004"><a xlink:title=" ">
<path fill="none" stroke="#63b8ff" d="M470.06,-417.03C495.18,-421.91 525.96,-427.89 552.38,-433.02"/>
<polygon fill="#63b8ff" stroke="#63b8ff" points="551.79,-436.47 562.28,-434.94 553.13,-429.6 551.79,-436.47"/>
</a>
</g>
</g>
<!-- Node16&#45;&gt;Node5 -->
<g id="edge21_Node000016_Node000005" class="edge">
<title>Node16&#45;&gt;Node5</title>
<g id="a_edge21_Node000016_Node000005"><a xlink:title=" ">
<path fill="none" stroke="#63b8ff" d="M487.09,-407.5C513.58,-407.5 543.41,-407.5 567.21,-407.5"/>
<polygon fill="#63b8ff" stroke="#63b8ff" points="567.35,-411 577.35,-407.5 567.35,-404 567.35,-411"/>
</a>
</g>
</g>
<!-- Node17&#45;&gt;Node4 -->
<g id="edge24_Node000017_Node000004" class="edge">
<title>Node17&#45;&gt;Node4</title>
<g id="a_edge24_Node000017_Node000004"><a xlink:title=" ">
<path fill="none" stroke="#63b8ff" d="M470.06,-471.97C495.18,-467.09 525.96,-461.11 552.38,-455.98"/>
<polygon fill="#63b8ff" stroke="#63b8ff" points="553.13,-459.4 562.28,-454.06 551.79,-452.53 553.13,-459.4"/>
</a>
</g>
</g>
<!-- Node17&#45;&gt;Node5 -->
<g id="edge25_Node000017_Node000005" class="edge">
<title>Node17&#45;&gt;Node5</title>
<g id="a_edge25_Node000017_Node000005"><a xlink:title=" ">
<path fill="none" stroke="#63b8ff" d="M480.32,-472.84C488.21,-470.45 495.99,-467.4 503,-463.5 523.05,-452.35 519.18,-438.05 539,-426.5 547.59,-421.49 557.52,-417.78 567.22,-415.04"/>
<polygon fill="#63b8ff" stroke="#63b8ff" points="568.34,-418.36 577.17,-412.52 566.62,-411.58 568.34,-418.36"/>
</a>
</g>
</g>
<!-- Node18 -->
<g id="Node000018" class="node">
<title>Node18</title>
<g id="a_Node000018"><a xlink:href="heap_8c.html#abe90d76dabdd7e8808cb1d520607888c" target="_top" xlink:title=" ">
<polygon fill="white" stroke="#666666" points="674,-491 551,-491 551,-472 674,-472 674,-491"/>
<text text-anchor="middle" x="612.5" y="-479" font-family="Helvetica,sans-Serif" font-size="10.00">temporary_pool_clear</text>
</a>
</g>
</g>
<!-- Node17&#45;&gt;Node18 -->
<g id="edge26_Node000017_Node000018" class="edge">
<title>Node17&#45;&gt;Node18</title>
<g id="a_edge26_Node000017_Node000018"><a xlink:title=" ">
<path fill="none" stroke="#63b8ff" d="M480.23,-481.5C499.39,-481.5 520.83,-481.5 540.74,-481.5"/>
<polygon fill="#63b8ff" stroke="#63b8ff" points="540.99,-485 550.99,-481.5 540.99,-478 540.99,-485"/>
</a>
</g>
</g>
<!-- Node21 -->
<g id="Node000021" class="node">
<title>Node21</title>
<g id="a_Node000021"><a xlink:href="Engine_8cpp.html#a2344ca2afab428e3d87032587e876a49" target="_top" xlink:title=" ">
<polygon fill="white" stroke="#666666" points="491.5,-105 348.5,-105 348.5,-86 491.5,-86 491.5,-105"/>
<text text-anchor="middle" x="420" y="-93" font-family="Helvetica,sans-Serif" font-size="10.00">GameEngine_UnloadBank</text>
</a>
</g>
</g>
<!-- Node20&#45;&gt;Node21 -->
<g id="edge29_Node000020_Node000021" class="edge">
<title>Node20&#45;&gt;Node21</title>
<g id="a_edge29_Node000020_Node000021"><a xlink:title=" ">
<path fill="none" stroke="#63b8ff" d="M301.1,-95.5C313.13,-95.5 325.74,-95.5 338.05,-95.5"/>
<polygon fill="#63b8ff" stroke="#63b8ff" points="338.31,-99 348.31,-95.5 338.31,-92 338.31,-99"/>
</a>
</g>
</g>
<!-- Node22 -->
<g id="Node000022" class="node">
<title>Node22</title>
<g id="a_Node000022"><a xlink:href="Engine_8cpp.html#af677f368019255777dade173129aa10a" target="_top" xlink:title=" ">
<polygon fill="white" stroke="#666666" points="503,-19 337,-19 337,0 503,0 503,-19"/>
<text text-anchor="middle" x="420" y="-7" font-family="Helvetica,sans-Serif" font-size="10.00">GameEngine_UnloadSequence</text>
</a>
</g>
</g>
<!-- Node20&#45;&gt;Node22 -->
<g id="edge30_Node000020_Node000022" class="edge">
<title>Node20&#45;&gt;Node22</title>
<g id="a_edge30_Node000020_Node000022"><a xlink:title=" ">
<path fill="none" stroke="#63b8ff" d="M282.37,-85.87C288.95,-83.42 295.35,-80.35 301,-76.5 323.04,-61.49 314.66,-43.06 337,-28.5 340.19,-26.42 343.57,-24.57 347.09,-22.92"/>
<polygon fill="#63b8ff" stroke="#63b8ff" points="348.71,-26.04 356.63,-19.01 346.05,-19.57 348.71,-26.04"/>
</a>
</g>
</g>
<!-- Node23 -->
<g id="Node000023" class="node">
<title>Node23</title>
<g id="a_Node000023"><a xlink:href="playback_8c.html#ab7a932f7c71e6b0511e3dbff42208251" target="_top" xlink:title=" ">
<polygon fill="white" stroke="#666666" points="835,-143 741,-143 741,-124 835,-124 835,-143"/>
<text text-anchor="middle" x="788" y="-131" font-family="Helvetica,sans-Serif" font-size="10.00">note_pool_clear</text>
</a>
</g>
</g>
<!-- Node20&#45;&gt;Node23 -->
<g id="edge31_Node000020_Node000023" class="edge">
<title>Node20&#45;&gt;Node23</title>
<g id="a_edge31_Node000020_Node000023"><a xlink:title=" ">
<path fill="none" stroke="#63b8ff" d="M279.91,-105.02C297.76,-108.22 318.24,-111.48 337,-113.5 478.07,-128.67 645.21,-132.38 730.61,-133.26"/>
<polygon fill="#63b8ff" stroke="#63b8ff" points="730.83,-136.76 740.86,-133.35 730.89,-129.76 730.83,-136.76"/>
</a>
</g>
</g>
<!-- Node25 -->
<g id="Node000025" class="node">
<title>Node25</title>
<g id="a_Node000025"><a xlink:href="seqplayer_8c.html#afd6333d150711e68b7e4ccc3806a84b1" target="_top" xlink:title=" ">
<polygon fill="white" stroke="#666666" points="490,-67.5 350,-67.5 350,-37.5 490,-37.5 490,-67.5"/>
<text text-anchor="start" x="358" y="-55.5" font-family="Helvetica,sans-Serif" font-size="10.00">sequence_player_disable</text>
<text text-anchor="middle" x="420" y="-44.5" font-family="Helvetica,sans-Serif" font-size="10.00">_channels</text>
</a>
</g>
</g>
<!-- Node20&#45;&gt;Node25 -->
<g id="edge34_Node000020_Node000025" class="edge">
<title>Node20&#45;&gt;Node25</title>
<g id="a_edge34_Node000020_Node000025"><a xlink:title=" ">
<path fill="none" stroke="#63b8ff" d="M273.5,-85.96C294.21,-81.19 319.91,-75.28 343.93,-69.76"/>
<polygon fill="#63b8ff" stroke="#63b8ff" points="344.78,-73.16 353.74,-67.51 343.21,-66.34 344.78,-73.16"/>
</a>
</g>
</g>
<!-- Node23&#45;&gt;Node8 -->
<g id="edge32_Node000023_Node000008" class="edge">
<title>Node23&#45;&gt;Node8</title>
<g id="a_edge32_Node000023_Node000008"><a xlink:title=" ">
<path fill="none" stroke="#63b8ff" d="M835.17,-133.5C853,-133.5 873.8,-133.5 893.37,-133.5"/>
<polygon fill="#63b8ff" stroke="#63b8ff" points="893.47,-137 903.47,-133.5 893.47,-130 893.47,-137"/>
</a>
</g>
</g>
<!-- Node24 -->
<g id="Node000024" class="node">
<title>Node24</title>
<g id="a_Node000024"><a xlink:href="playback_8c.html#a1a384aa226aef66cdab12750f1fde133" target="_top" xlink:title=" ">
<polygon fill="white" stroke="#666666" points="1536,-170 1429,-170 1429,-151 1536,-151 1536,-170"/>
<text text-anchor="middle" x="1482.5" y="-158" font-family="Helvetica,sans-Serif" font-size="10.00">audio_list_remove</text>
</a>
</g>
</g>
<!-- Node23&#45;&gt;Node24 -->
<g id="edge33_Node000023_Node000024" class="edge">
<title>Node23&#45;&gt;Node24</title>
<g id="a_edge33_Node000023_Node000024"><a xlink:title=" ">
<path fill="none" stroke="#63b8ff" d="M831.03,-143.08C849.08,-146.76 870.47,-150.55 890,-152.5 1081.81,-171.69 1310.32,-167.04 1418.61,-163.19"/>
<polygon fill="#63b8ff" stroke="#63b8ff" points="1418.84,-166.69 1428.71,-162.83 1418.59,-159.69 1418.84,-166.69"/>
</a>
</g>
</g>
<!-- Node26 -->
<g id="Node000026" class="node">
<title>Node26</title>
<g id="a_Node000026"><a xlink:href="seqplayer_8c.html#a5ea2292b93a79a70bfcf940ca16cd2c5" target="_top" xlink:title=" ">
<polygon fill="white" stroke="#666666" points="686,-105 539,-105 539,-86 686,-86 686,-105"/>
<text text-anchor="middle" x="612.5" y="-93" font-family="Helvetica,sans-Serif" font-size="10.00">sequence_channel_disable</text>
</a>
</g>
</g>
<!-- Node25&#45;&gt;Node26 -->
<g id="edge35_Node000025_Node000026" class="edge">
<title>Node25&#45;&gt;Node26</title>
<g id="a_edge35_Node000025_Node000026"><a xlink:title=" ">
<path fill="none" stroke="#63b8ff" d="M487.63,-67.54C511.17,-72.85 537.28,-78.75 559.44,-83.75"/>
<polygon fill="#63b8ff" stroke="#63b8ff" points="558.79,-87.19 569.31,-85.98 560.33,-80.36 558.79,-87.19"/>
</a>
</g>
</g>
<!-- Node26&#45;&gt;Node23 -->
<g id="edge36_Node000026_Node000023" class="edge">
<title>Node26&#45;&gt;Node23</title>
<g id="a_edge36_Node000026_Node000023"><a xlink:title=" ">
<path fill="none" stroke="#63b8ff" d="M657.28,-105.09C680.49,-110.17 709.18,-116.46 733.67,-121.82"/>
<polygon fill="#63b8ff" stroke="#63b8ff" points="733.02,-125.26 743.53,-123.98 734.51,-118.42 733.02,-125.26"/>
</a>
</g>
</g>
<!-- Node27 -->
<g id="Node000027" class="node">
<title>Node27</title>
<g id="a_Node000027"><a xlink:href="seqplayer_8c.html#a032b7f92199457fe1ce3dd8811305349" target="_top" xlink:title=" ">
<polygon fill="white" stroke="#666666" points="854,-106 722,-106 722,-87 854,-87 854,-106"/>
<text text-anchor="middle" x="788" y="-94" font-family="Helvetica,sans-Serif" font-size="10.00">seq_channel_layer_free</text>
</a>
</g>
</g>
<!-- Node26&#45;&gt;Node27 -->
<g id="edge37_Node000026_Node000027" class="edge">
<title>Node26&#45;&gt;Node27</title>
<g id="a_edge37_Node000026_Node000027"><a xlink:title=" ">
<path fill="none" stroke="#63b8ff" d="M686.07,-95.92C694.52,-95.97 703.16,-96.02 711.65,-96.07"/>
<polygon fill="#63b8ff" stroke="#63b8ff" points="711.88,-99.57 721.9,-96.12 711.92,-92.57 711.88,-99.57"/>
</a>
</g>
</g>
<!-- Node27&#45;&gt;Node8 -->
<g id="edge38_Node000027_Node000008" class="edge">
<title>Node27&#45;&gt;Node8</title>
<g id="a_edge38_Node000027_Node000008"><a xlink:title=" ">
<path fill="none" stroke="#63b8ff" d="M833.81,-106.03C856.45,-110.84 884.13,-116.73 908.05,-121.81"/>
<polygon fill="#63b8ff" stroke="#63b8ff" points="907.53,-125.28 918.04,-123.94 908.99,-118.44 907.53,-125.28"/>
</a>
</g>
</g>
<!-- Node28 -->
<g id="Node000028" class="node">
<title>Node28</title>
<g id="a_Node000028"><a xlink:href="seqplayer_8c.html#a656b06579fc7235de0a9ead95b4aeb29" target="_top" xlink:title=" ">
<polygon fill="white" stroke="#666666" points="1038,-106 890,-106 890,-87 1038,-87 1038,-106"/>
<text text-anchor="middle" x="964" y="-94" font-family="Helvetica,sans-Serif" font-size="10.00">seq_channel_layer_disable</text>
</a>
</g>
</g>
<!-- Node27&#45;&gt;Node28 -->
<g id="edge39_Node000027_Node000028" class="edge">
<title>Node27&#45;&gt;Node28</title>
<g id="a_edge39_Node000027_Node000028"><a xlink:title=" ">
<path fill="none" stroke="#63b8ff" d="M854.29,-96.5C862.51,-96.5 871.02,-96.5 879.48,-96.5"/>
<polygon fill="#63b8ff" stroke="#63b8ff" points="879.75,-100 889.75,-96.5 879.75,-93 879.75,-100"/>
</a>
</g>
</g>
<!-- Node29 -->
<g id="Node000029" class="node">
<title>Node29</title>
<g id="a_Node000029"><a xlink:href="playback_8c.html#a5a8c503b0091f9054e70f88feb90a603" target="_top" xlink:title=" ">
<polygon fill="white" stroke="#666666" points="1208,-119.5 1074,-119.5 1074,-89.5 1208,-89.5 1208,-119.5"/>
<text text-anchor="start" x="1082" y="-107.5" font-family="Helvetica,sans-Serif" font-size="10.00">seq_channel_layer_note</text>
<text text-anchor="middle" x="1141" y="-96.5" font-family="Helvetica,sans-Serif" font-size="10.00">_decay</text>
</a>
</g>
</g>
<!-- Node28&#45;&gt;Node29 -->
<g id="edge40_Node000028_Node000029" class="edge">
<title>Node28&#45;&gt;Node29</title>
<g id="a_edge40_Node000028_Node000029"><a xlink:title=" ">
<path fill="none" stroke="#63b8ff" d="M1038.2,-99.85C1046.59,-100.23 1055.16,-100.62 1063.59,-101.01"/>
<polygon fill="#63b8ff" stroke="#63b8ff" points="1063.64,-104.51 1073.79,-101.47 1063.96,-97.52 1063.64,-104.51"/>
</a>
</g>
</g>
<!-- Node30 -->
<g id="Node000030" class="node">
<title>Node30</title>
<g id="a_Node000030"><a xlink:href="playback_8c.html#a689ccfe046fe63da331758ee7eec972a" target="_top" xlink:title=" ">
<polygon fill="white" stroke="#666666" points="1386,-135.5 1244,-135.5 1244,-105.5 1386,-105.5 1386,-135.5"/>
<text text-anchor="start" x="1252" y="-123.5" font-family="Helvetica,sans-Serif" font-size="10.00">seq_channel_layer_decay</text>
<text text-anchor="middle" x="1315" y="-112.5" font-family="Helvetica,sans-Serif" font-size="10.00">_release_internal</text>
</a>
</g>
</g>
<!-- Node29&#45;&gt;Node30 -->
<g id="edge41_Node000029_Node000030" class="edge">
<title>Node29&#45;&gt;Node30</title>
<g id="a_edge41_Node000029_Node000030"><a xlink:title=" ">
<path fill="none" stroke="#63b8ff" d="M1208.01,-110.64C1216.45,-111.43 1225.17,-112.24 1233.8,-113.04"/>
<polygon fill="#63b8ff" stroke="#63b8ff" points="1233.6,-116.54 1243.89,-113.98 1234.25,-109.57 1233.6,-116.54"/>
</a>
</g>
</g>
<!-- Node30&#45;&gt;Node24 -->
<g id="edge43_Node000030_Node000024" class="edge">
<title>Node30&#45;&gt;Node24</title>
<g id="a_edge43_Node000030_Node000024"><a xlink:title=" ">
<path fill="none" stroke="#63b8ff" d="M1378.1,-135.51C1396.04,-139.84 1415.36,-144.52 1432.4,-148.63"/>
<polygon fill="#63b8ff" stroke="#63b8ff" points="1431.59,-152.04 1442.13,-150.99 1433.24,-145.23 1431.59,-152.04"/>
</a>
</g>
</g>
<!-- Node31 -->
<g id="Node000031" class="node">
<title>Node31</title>
<g id="a_Node000031"><a xlink:href="playback_8c.html#aaa06908b1c008a03b28ed11241c45b19" target="_top" xlink:title=" ">
<polygon fill="white" stroke="#666666" points="1543,-130 1422,-130 1422,-111 1543,-111 1543,-130"/>
<text text-anchor="middle" x="1482.5" y="-118" font-family="Helvetica,sans-Serif" font-size="10.00">audio_list_push_front</text>
</a>
</g>
</g>
<!-- Node30&#45;&gt;Node31 -->
<g id="edge42_Node000030_Node000031" class="edge">
<title>Node30&#45;&gt;Node31</title>
<g id="a_edge42_Node000030_Node000031"><a xlink:title=" ">
<path fill="none" stroke="#63b8ff" d="M1386.19,-120.5C1394.64,-120.5 1403.28,-120.5 1411.73,-120.5"/>
<polygon fill="#63b8ff" stroke="#63b8ff" points="1411.92,-124 1421.92,-120.5 1411.92,-117 1411.92,-124"/>
</a>
</g>
</g>
</g>
</svg>
