<?xml version="1.0" encoding="UTF-8" standalone="no"?>
<!DOCTYPE svg PUBLIC "-//W3C//DTD SVG 1.1//EN"
 "http://www.w3.org/Graphics/SVG/1.1/DTD/svg11.dtd">
<!-- Generated by graphviz version 2.43.0 (0)
 -->
<!-- Title: sound_alloc_pool_init Pages: 1 -->
<svg width="1277pt" height="175pt"
 viewBox="0.00 0.00 1277.00 175.00" xmlns="http://www.w3.org/2000/svg" xmlns:xlink="http://www.w3.org/1999/xlink">
<g id="graph0" class="graph" transform="scale(1 1) rotate(0) translate(4 171)">
<title>sound_alloc_pool_init</title>
<!-- Node1 -->
<g id="Node000001" class="node">
<title>Node1</title>
<g id="a_Node000001"><a xlink:title=" ">
<polygon fill="#999999" stroke="#666666" points="1269,-93 1147,-93 1147,-74 1269,-74 1269,-93"/>
<text text-anchor="middle" x="1208" y="-81" font-family="Helvetica,sans-Serif" font-size="10.00">sound_alloc_pool_init</text>
</a>
</g>
</g>
<!-- Node2 -->
<g id="Node000002" class="node">
<title>Node2</title>
<g id="a_Node000002"><a xlink:href="heap_8c.html#a48faacfdc2f40c8752604117d04b1ad5" target="_top" xlink:title=" ">
<polygon fill="white" stroke="#666666" points="1090,-167 998,-167 998,-148 1090,-148 1090,-167"/>
<text text-anchor="middle" x="1044" y="-155" font-family="Helvetica,sans-Serif" font-size="10.00">func_800B914C</text>
</a>
</g>
</g>
<!-- Node1&#45;&gt;Node2 -->
<g id="edge1_Node000001_Node000002" class="edge">
<title>Node1&#45;&gt;Node2</title>
<g id="a_edge1_Node000001_Node000002"><a xlink:title=" ">
<path fill="none" stroke="#63b8ff" d="M1184.8,-98.71C1165.88,-111.11 1137.61,-128.34 1111,-139.5 1103.22,-142.76 1094.68,-145.6 1086.4,-148"/>
<polygon fill="#63b8ff" stroke="#63b8ff" points="1186.91,-101.51 1193.29,-93.06 1183.03,-95.69 1186.91,-101.51"/>
</a>
</g>
</g>
<!-- Node11 -->
<g id="Node000011" class="node">
<title>Node11</title>
<g id="a_Node000011"><a xlink:href="heap_8c.html#a268e83fe68540e500b0e14f16f035097" target="_top" xlink:title=" ">
<polygon fill="white" stroke="#666666" points="1103,-130 985,-130 985,-111 1103,-111 1103,-130"/>
<text text-anchor="middle" x="1044" y="-118" font-family="Helvetica,sans-Serif" font-size="10.00">persistent_pools_init</text>
</a>
</g>
</g>
<!-- Node1&#45;&gt;Node11 -->
<g id="edge10_Node000001_Node000011" class="edge">
<title>Node1&#45;&gt;Node11</title>
<g id="a_edge10_Node000001_Node000011"><a xlink:title=" ">
<path fill="none" stroke="#63b8ff" d="M1155.39,-95.29C1133.27,-100.34 1107.77,-106.16 1086.86,-110.94"/>
<polygon fill="#63b8ff" stroke="#63b8ff" points="1156.31,-98.67 1165.28,-93.03 1154.75,-91.84 1156.31,-98.67"/>
</a>
</g>
</g>
<!-- Node12 -->
<g id="Node000012" class="node">
<title>Node12</title>
<g id="a_Node000012"><a xlink:href="heap_8c.html#aa766a491062591b1a1ca8db36e891e03" target="_top" xlink:title=" ">
<polygon fill="white" stroke="#666666" points="1111,-93 977,-93 977,-74 1111,-74 1111,-93"/>
<text text-anchor="middle" x="1044" y="-81" font-family="Helvetica,sans-Serif" font-size="10.00">seq_and_bank_pool_init</text>
</a>
</g>
</g>
<!-- Node1&#45;&gt;Node12 -->
<g id="edge12_Node000001_Node000012" class="edge">
<title>Node1&#45;&gt;Node12</title>
<g id="a_edge12_Node000001_Node000012"><a xlink:title=" ">
<path fill="none" stroke="#63b8ff" d="M1136.49,-83.5C1128.05,-83.5 1119.46,-83.5 1111.09,-83.5"/>
<polygon fill="#63b8ff" stroke="#63b8ff" points="1136.68,-87 1146.68,-83.5 1136.68,-80 1136.68,-87"/>
</a>
</g>
</g>
<!-- Node13 -->
<g id="Node000013" class="node">
<title>Node13</title>
<g id="a_Node000013"><a xlink:href="heap_8c.html#adfb1592ae00e532804f2fb467f018a16" target="_top" xlink:title=" ">
<polygon fill="white" stroke="#666666" points="1108,-56 980,-56 980,-37 1108,-37 1108,-56"/>
<text text-anchor="middle" x="1044" y="-44" font-family="Helvetica,sans-Serif" font-size="10.00">sound_init_main_pools</text>
</a>
</g>
</g>
<!-- Node1&#45;&gt;Node13 -->
<g id="edge14_Node000001_Node000013" class="edge">
<title>Node1&#45;&gt;Node13</title>
<g id="a_edge14_Node000001_Node000013"><a xlink:title=" ">
<path fill="none" stroke="#63b8ff" d="M1155.39,-71.71C1133.27,-66.66 1107.77,-60.84 1086.86,-56.06"/>
<polygon fill="#63b8ff" stroke="#63b8ff" points="1154.75,-75.16 1165.28,-73.97 1156.31,-68.33 1154.75,-75.16"/>
</a>
</g>
</g>
<!-- Node14 -->
<g id="Node000014" class="node">
<title>Node14</title>
<g id="a_Node000014"><a xlink:href="heap_8c.html#ac928878c0e20b7870283b160eb37a252" target="_top" xlink:title=" ">
<polygon fill="white" stroke="#666666" points="1104,-19 984,-19 984,0 1104,0 1104,-19"/>
<text text-anchor="middle" x="1044" y="-7" font-family="Helvetica,sans-Serif" font-size="10.00">temporary_pools_init</text>
</a>
</g>
</g>
<!-- Node1&#45;&gt;Node14 -->
<g id="edge15_Node000001_Node000014" class="edge">
<title>Node1&#45;&gt;Node14</title>
<g id="a_edge15_Node000001_Node000014"><a xlink:title=" ">
<path fill="none" stroke="#63b8ff" d="M1184.4,-68.47C1165.43,-56.38 1137.3,-39.63 1111,-28.5 1102.43,-24.88 1092.96,-21.7 1083.93,-19.03"/>
<polygon fill="#63b8ff" stroke="#63b8ff" points="1182.62,-71.49 1192.92,-73.99 1186.43,-65.62 1182.62,-71.49"/>
</a>
</g>
</g>
<!-- Node3 -->
<g id="Node000003" class="node">
<title>Node3</title>
<g id="a_Node000003"><a xlink:href="heap_8c.html#ad912aa8d2254ac558365a915931c2512" target="_top" xlink:title=" ">
<polygon fill="white" stroke="#666666" points="941,-111 825,-111 825,-92 941,-92 941,-111"/>
<text text-anchor="middle" x="883" y="-99" font-family="Helvetica,sans-Serif" font-size="10.00">audio_reset_session</text>
</a>
</g>
</g>
<!-- Node2&#45;&gt;Node3 -->
<g id="edge2_Node000002_Node000003" class="edge">
<title>Node2&#45;&gt;Node3</title>
<g id="a_edge2_Node000002_Node000003"><a xlink:title=" ">
<path fill="none" stroke="#63b8ff" d="M994.71,-145.06C988.71,-143.3 982.69,-141.43 977,-139.5 951.89,-130.98 923.82,-119.18 905.14,-111"/>
<polygon fill="#63b8ff" stroke="#63b8ff" points="994.14,-148.54 1004.72,-147.91 996.06,-141.81 994.14,-148.54"/>
</a>
</g>
</g>
<!-- Node4 -->
<g id="Node000004" class="node">
<title>Node4</title>
<g id="a_Node000004"><a xlink:href="heap_8c.html#a1e60f925c18306c62090305c9248e8b3" target="_top" xlink:title=" ">
<polygon fill="white" stroke="#666666" points="789,-116.5 664,-116.5 664,-86.5 789,-86.5 789,-116.5"/>
<text text-anchor="start" x="672" y="-104.5" font-family="Helvetica,sans-Serif" font-size="10.00">audio_shut_down_and</text>
<text text-anchor="middle" x="726.5" y="-93.5" font-family="Helvetica,sans-Serif" font-size="10.00">_reset_step</text>
</a>
</g>
</g>
<!-- Node3&#45;&gt;Node4 -->
<g id="edge3_Node000003_Node000004" class="edge">
<title>Node3&#45;&gt;Node4</title>
<g id="a_edge3_Node000003_Node000004"><a xlink:title=" ">
<path fill="none" stroke="#63b8ff" d="M814.63,-101.5C806.12,-101.5 797.44,-101.5 789.03,-101.5"/>
<polygon fill="#63b8ff" stroke="#63b8ff" points="814.91,-105 824.91,-101.5 814.91,-98 814.91,-105"/>
</a>
</g>
</g>
<!-- Node5 -->
<g id="Node000005" class="node">
<title>Node5</title>
<g id="a_Node000005"><a xlink:href="port__eu_8c.html#a1d9119a2b49700e0bac6c9faabc7991b" target="_top" xlink:title=" ">
<polygon fill="white" stroke="#666666" points="614.5,-130 474.5,-130 474.5,-111 614.5,-111 614.5,-130"/>
<text text-anchor="middle" x="544.5" y="-118" font-family="Helvetica,sans-Serif" font-size="10.00">create_next_audio_buffer</text>
</a>
</g>
</g>
<!-- Node4&#45;&gt;Node5 -->
<g id="edge4_Node000004_Node000005" class="edge">
<title>Node4&#45;&gt;Node5</title>
<g id="a_edge4_Node000004_Node000005"><a xlink:title=" ">
<path fill="none" stroke="#63b8ff" d="M653.61,-109.09C640.72,-110.45 627.32,-111.86 614.52,-113.21"/>
<polygon fill="#63b8ff" stroke="#63b8ff" points="654.23,-112.54 663.81,-108.01 653.49,-105.58 654.23,-112.54"/>
</a>
</g>
</g>
<!-- Node6 -->
<g id="Node000006" class="node">
<title>Node6</title>
<g id="a_Node000006"><a xlink:href="port__eu_8c.html#a17e6cb53d677ce7a809303aa122cb4cf" target="_top" xlink:title=" ">
<polygon fill="white" stroke="#666666" points="628,-93 461,-93 461,-74 628,-74 628,-93"/>
<text text-anchor="middle" x="544.5" y="-81" font-family="Helvetica,sans-Serif" font-size="10.00">create_next_audio_frame_task</text>
</a>
</g>
</g>
<!-- Node4&#45;&gt;Node6 -->
<g id="edge5_Node000004_Node000006" class="edge">
<title>Node4&#45;&gt;Node6</title>
<g id="a_edge5_Node000004_Node000006"><a xlink:title=" ">
<path fill="none" stroke="#63b8ff" d="M653.68,-94.32C645.28,-93.48 636.65,-92.61 628.11,-91.76"/>
<polygon fill="#63b8ff" stroke="#63b8ff" points="653.51,-97.82 663.81,-95.33 654.2,-90.85 653.51,-97.82"/>
</a>
</g>
</g>
<!-- Node7 -->
<g id="Node000007" class="node">
<title>Node7</title>
<g id="a_Node000007"><a xlink:href="main_8c.html#adc4ddc4dba28c4eebe8a7c28e5559b11" target="_top" xlink:title=" ">
<polygon fill="white" stroke="#666666" points="425,-93 339,-93 339,-74 425,-74 425,-93"/>
<text text-anchor="middle" x="382" y="-81" font-family="Helvetica,sans-Serif" font-size="10.00">thread4_audio</text>
</a>
</g>
</g>
<!-- Node6&#45;&gt;Node7 -->
<g id="edge6_Node000006_Node000007" class="edge">
<title>Node6&#45;&gt;Node7</title>
<g id="a_edge6_Node000006_Node000007"><a xlink:title=" ">
<path fill="none" stroke="#63b8ff" d="M450.86,-83.5C442.02,-83.5 433.39,-83.5 425.41,-83.5"/>
<polygon fill="#63b8ff" stroke="#63b8ff" points="450.9,-87 460.9,-83.5 450.9,-80 450.9,-87"/>
</a>
</g>
</g>
<!-- Node8 -->
<g id="Node000008" class="node">
<title>Node8</title>
<g id="a_Node000008"><a xlink:href="main_8c.html#a023b8f272e4efbd33f371e91ffff6b30" target="_top" xlink:title=" ">
<polygon fill="white" stroke="#666666" points="303,-93 217,-93 217,-74 303,-74 303,-93"/>
<text text-anchor="middle" x="260" y="-81" font-family="Helvetica,sans-Serif" font-size="10.00">thread3_video</text>
</a>
</g>
</g>
<!-- Node7&#45;&gt;Node8 -->
<g id="edge7_Node000007_Node000008" class="edge">
<title>Node7&#45;&gt;Node8</title>
<g id="a_edge7_Node000007_Node000008"><a xlink:title=" ">
<path fill="none" stroke="#63b8ff" d="M328.55,-83.5C320.12,-83.5 311.49,-83.5 303.33,-83.5"/>
<polygon fill="#63b8ff" stroke="#63b8ff" points="328.69,-87 338.69,-83.5 328.69,-80 328.69,-87"/>
</a>
</g>
</g>
<!-- Node9 -->
<g id="Node000009" class="node">
<title>Node9</title>
<g id="a_Node000009"><a xlink:href="main_8c.html#a1e35d2b842121e6aea373f09381616e5" target="_top" xlink:title=" ">
<polygon fill="white" stroke="#666666" points="181,-93 104,-93 104,-74 181,-74 181,-93"/>
<text text-anchor="middle" x="142.5" y="-81" font-family="Helvetica,sans-Serif" font-size="10.00">thread1_idle</text>
</a>
</g>
</g>
<!-- Node8&#45;&gt;Node9 -->
<g id="edge8_Node000008_Node000009" class="edge">
<title>Node8&#45;&gt;Node9</title>
<g id="a_edge8_Node000008_Node000009"><a xlink:title=" ">
<path fill="none" stroke="#63b8ff" d="M206.9,-83.5C198.2,-83.5 189.33,-83.5 181.09,-83.5"/>
<polygon fill="#63b8ff" stroke="#63b8ff" points="206.98,-87 216.98,-83.5 206.98,-80 206.98,-87"/>
</a>
</g>
</g>
<!-- Node10 -->
<g id="Node000010" class="node">
<title>Node10</title>
<g id="a_Node000010"><a xlink:href="main_8c.html#a4f87d43525fe95f60ea92bc8a3b70e62" target="_top" xlink:title=" ">
<polygon fill="white" stroke="#666666" points="68,-93 0,-93 0,-74 68,-74 68,-93"/>
<text text-anchor="middle" x="34" y="-81" font-family="Helvetica,sans-Serif" font-size="10.00">main_func</text>
</a>
</g>
</g>
<!-- Node9&#45;&gt;Node10 -->
<g id="edge9_Node000009_Node000010" class="edge">
<title>Node9&#45;&gt;Node10</title>
<g id="a_edge9_Node000009_Node000010"><a xlink:title=" ">
<path fill="none" stroke="#63b8ff" d="M93.95,-83.5C85.29,-83.5 76.44,-83.5 68.31,-83.5"/>
<polygon fill="#63b8ff" stroke="#63b8ff" points="93.95,-87 103.95,-83.5 93.95,-80 93.95,-87"/>
</a>
</g>
</g>
<!-- Node11&#45;&gt;Node3 -->
<g id="edge11_Node000011_Node000003" class="edge">
<title>Node11&#45;&gt;Node3</title>
<g id="a_edge11_Node000011_Node000003"><a xlink:title=" ">
<path fill="none" stroke="#63b8ff" d="M974.59,-112.33C963.47,-111 952.05,-109.63 941.23,-108.34"/>
<polygon fill="#63b8ff" stroke="#63b8ff" points="974.35,-115.82 984.7,-113.53 975.18,-108.87 974.35,-115.82"/>
</a>
</g>
</g>
<!-- Node12&#45;&gt;Node3 -->
<g id="edge13_Node000012_Node000003" class="edge">
<title>Node12&#45;&gt;Node3</title>
<g id="a_edge13_Node000012_Node000003"><a xlink:title=" ">
<path fill="none" stroke="#63b8ff" d="M966.87,-92.12C958.24,-93.1 949.56,-94.08 941.24,-95.02"/>
<polygon fill="#63b8ff" stroke="#63b8ff" points="967.41,-95.58 976.95,-90.98 966.62,-88.62 967.41,-95.58"/>
</a>
</g>
</g>
<!-- Node14&#45;&gt;Node3 -->
<g id="edge16_Node000014_Node000003" class="edge">
<title>Node14&#45;&gt;Node3</title>
<g id="a_edge16_Node000014_Node000003"><a xlink:title=" ">
<path fill="none" stroke="#63b8ff" d="M990.73,-22.49C986,-24.28 981.35,-26.28 977,-28.5 943.19,-45.8 909.68,-76.22 893.69,-91.76"/>
<polygon fill="#63b8ff" stroke="#63b8ff" points="992.22,-25.68 1000.52,-19.1 989.93,-19.06 992.22,-25.68"/>
</a>
</g>
</g>
</g>
</svg>
