<?xml version="1.0" encoding="UTF-8" standalone="no"?>
<!DOCTYPE svg PUBLIC "-//W3C//DTD SVG 1.1//EN"
 "http://www.w3.org/Graphics/SVG/1.1/DTD/svg11.dtd">
<!-- Generated by graphviz version 2.43.0 (0)
 -->
<!-- Title: src/audio/heap.h Pages: 1 -->
<svg width="873pt" height="82pt"
 viewBox="0.00 0.00 872.50 82.00" xmlns="http://www.w3.org/2000/svg" xmlns:xlink="http://www.w3.org/1999/xlink">
<g id="graph0" class="graph" transform="scale(1 1) rotate(0) translate(4 78)">
<title>src/audio/heap.h</title>
<!-- Node1 -->
<g id="Node000001" class="node">
<title>Node1</title>
<g id="a_Node000001"><a xlink:title=" ">
<polygon fill="#999999" stroke="#666666" points="463.5,-74 366.5,-74 366.5,-55 463.5,-55 463.5,-74"/>
<text text-anchor="middle" x="415" y="-62" font-family="Helvetica,sans-Serif" font-size="10.00">src/audio/heap.h</text>
</a>
</g>
</g>
<!-- Node2 -->
<g id="Node000002" class="node">
<title>Node2</title>
<g id="a_Node000002"><a xlink:href="heap_8c.html" target="_top" xlink:title=" ">
<polygon fill="white" stroke="#666666" points="96,-19 0,-19 0,0 96,0 96,-19"/>
<text text-anchor="middle" x="48" y="-7" font-family="Helvetica,sans-Serif" font-size="10.00">src/audio/heap.c</text>
</a>
</g>
</g>
<!-- Node1&#45;&gt;Node2 -->
<g id="edge1_Node000001_Node000002" class="edge">
<title>Node1&#45;&gt;Node2</title>
<g id="a_edge1_Node000001_Node000002"><a xlink:title=" ">
<path fill="none" stroke="#63b8ff" d="M356.36,-55.18C294.01,-46.31 192.53,-31.81 105,-19 102.13,-18.58 99.18,-18.15 96.2,-17.71"/>
<polygon fill="#63b8ff" stroke="#63b8ff" points="356,-58.66 366.4,-56.61 356.99,-51.73 356,-58.66"/>
</a>
</g>
</g>
<!-- Node3 -->
<g id="Node000003" class="node">
<title>Node3</title>
<g id="a_Node000003"><a xlink:href="load_8c.html" target="_top" xlink:title=" ">
<polygon fill="white" stroke="#666666" points="207.5,-19 114.5,-19 114.5,0 207.5,0 207.5,-19"/>
<text text-anchor="middle" x="161" y="-7" font-family="Helvetica,sans-Serif" font-size="10.00">src/audio/load.c</text>
</a>
</g>
</g>
<!-- Node1&#45;&gt;Node3 -->
<g id="edge2_Node000001_Node000003" class="edge">
<title>Node1&#45;&gt;Node3</title>
<g id="a_edge2_Node000001_Node000003"><a xlink:title=" ">
<path fill="none" stroke="#63b8ff" d="M364.39,-52.94C316.78,-43.01 246.38,-28.31 202.13,-19.08"/>
<polygon fill="#63b8ff" stroke="#63b8ff" points="363.69,-56.37 374.19,-54.98 365.12,-49.52 363.69,-56.37"/>
</a>
</g>
</g>
<!-- Node4 -->
<g id="Node000004" class="node">
<title>Node4</title>
<g id="a_Node000004"><a xlink:href="playback_8c.html" target="_top" xlink:title=" ">
<polygon fill="white" stroke="#666666" points="342,-19 226,-19 226,0 342,0 342,-19"/>
<text text-anchor="middle" x="284" y="-7" font-family="Helvetica,sans-Serif" font-size="10.00">src/audio/playback.c</text>
</a>
</g>
</g>
<!-- Node1&#45;&gt;Node4 -->
<g id="edge3_Node000001_Node000004" class="edge">
<title>Node1&#45;&gt;Node4</title>
<g id="a_edge3_Node000001_Node000004"><a xlink:title=" ">
<path fill="none" stroke="#63b8ff" d="M384.5,-51.16C360.25,-41.35 326.93,-27.87 305.43,-19.17"/>
<polygon fill="#63b8ff" stroke="#63b8ff" points="383.37,-54.48 393.95,-54.98 386,-47.99 383.37,-54.48"/>
</a>
</g>
</g>
<!-- Node5 -->
<g id="Node000005" class="node">
<title>Node5</title>
<g id="a_Node000005"><a xlink:href="port__eu_8c.html" target="_top" xlink:title=" ">
<polygon fill="white" stroke="#666666" points="469.5,-19 360.5,-19 360.5,0 469.5,0 469.5,-19"/>
<text text-anchor="middle" x="415" y="-7" font-family="Helvetica,sans-Serif" font-size="10.00">src/audio/port_eu.c</text>
</a>
</g>
</g>
<!-- Node1&#45;&gt;Node5 -->
<g id="edge4_Node000001_Node000005" class="edge">
<title>Node1&#45;&gt;Node5</title>
<g id="a_edge4_Node000001_Node000005"><a xlink:title=" ">
<path fill="none" stroke="#63b8ff" d="M415,-44.66C415,-35.93 415,-25.99 415,-19.09"/>
<polygon fill="#63b8ff" stroke="#63b8ff" points="411.5,-44.75 415,-54.75 418.5,-44.75 411.5,-44.75"/>
</a>
</g>
</g>
<!-- Node6 -->
<g id="Node000006" class="node">
<title>Node6</title>
<g id="a_Node000006"><a xlink:href="seqplayer_8c.html" target="_top" xlink:title=" ">
<polygon fill="white" stroke="#666666" points="606.5,-19 487.5,-19 487.5,0 606.5,0 606.5,-19"/>
<text text-anchor="middle" x="547" y="-7" font-family="Helvetica,sans-Serif" font-size="10.00">src/audio/seqplayer.c</text>
</a>
</g>
</g>
<!-- Node1&#45;&gt;Node6 -->
<g id="edge5_Node000001_Node000006" class="edge">
<title>Node1&#45;&gt;Node6</title>
<g id="a_edge5_Node000001_Node000006"><a xlink:title=" ">
<path fill="none" stroke="#63b8ff" d="M445.73,-51.16C470.17,-41.35 503.74,-27.87 525.41,-19.17"/>
<polygon fill="#63b8ff" stroke="#63b8ff" points="444.18,-48.01 436.21,-54.98 446.79,-54.51 444.18,-48.01"/>
</a>
</g>
</g>
<!-- Node7 -->
<g id="Node000007" class="node">
<title>Node7</title>
<g id="a_Node000007"><a xlink:href="synthesis_8c.html" target="_top" xlink:title=" ">
<polygon fill="white" stroke="#666666" points="743.5,-19 624.5,-19 624.5,0 743.5,0 743.5,-19"/>
<text text-anchor="middle" x="684" y="-7" font-family="Helvetica,sans-Serif" font-size="10.00">src/audio/synthesis.c</text>
</a>
</g>
</g>
<!-- Node1&#45;&gt;Node7 -->
<g id="edge6_Node000001_Node000007" class="edge">
<title>Node1&#45;&gt;Node7</title>
<g id="a_edge6_Node000001_Node000007"><a xlink:title=" ">
<path fill="none" stroke="#63b8ff" d="M468.28,-53C518.7,-43.07 593.48,-28.33 640.44,-19.08"/>
<polygon fill="#63b8ff" stroke="#63b8ff" points="467.35,-49.62 458.22,-54.98 468.71,-56.49 467.35,-49.62"/>
</a>
</g>
</g>
<!-- Node8 -->
<g id="Node000008" class="node">
<title>Node8</title>
<g id="a_Node000008"><a xlink:href="menu__items_8c.html" target="_top" xlink:title=" ">
<polygon fill="white" stroke="#666666" points="864.5,-19 761.5,-19 761.5,0 864.5,0 864.5,-19"/>
<text text-anchor="middle" x="813" y="-7" font-family="Helvetica,sans-Serif" font-size="10.00">src/menu_items.c</text>
</a>
</g>
</g>
<!-- Node1&#45;&gt;Node8 -->
<g id="edge7_Node000001_Node000008" class="edge">
<title>Node1&#45;&gt;Node8</title>
<g id="a_edge7_Node000001_Node000008"><a xlink:title=" ">
<path fill="none" stroke="#63b8ff" d="M473.73,-55.95C541.16,-47.23 655.11,-32.38 753,-19 755.71,-18.63 758.49,-18.25 761.29,-17.86"/>
<polygon fill="#63b8ff" stroke="#63b8ff" points="473.19,-52.49 463.72,-57.24 474.08,-59.43 473.19,-52.49"/>
</a>
</g>
</g>
</g>
</svg>
