<?xml version="1.0" encoding="UTF-8" standalone="no"?>
<!DOCTYPE svg PUBLIC "-//W3C//DTD SVG 1.1//EN"
 "http://www.w3.org/Graphics/SVG/1.1/DTD/svg11.dtd">
<!-- Generated by graphviz version 2.43.0 (0)
 -->
<!-- Title: Graphical Class Hierarchy Pages: 1 -->
<svg width="240pt" height="101pt"
 viewBox="0.00 0.00 240.00 101.00" xmlns="http://www.w3.org/2000/svg" xmlns:xlink="http://www.w3.org/1999/xlink">
<g id="graph0" class="graph" transform="scale(1 1) rotate(0) translate(4 97)">
<title>Graphical Class Hierarchy</title>
<!-- Node0 -->
<g id="Node000000" class="node">
<title>Node0</title>
<g id="a_Node000000"><a xlink:href="classGameCamera.html" target="_top" xlink:title=" ">
<polygon fill="white" stroke="#666666" points="84,-56 0,-56 0,-37 84,-37 84,-56"/>
<text text-anchor="middle" x="42" y="-44" font-family="Helvetica,sans-Serif" font-size="10.00">GameCamera</text>
</a>
</g>
</g>
<!-- Node1 -->
<g id="Node000001" class="node">
<title>Node1</title>
<g id="a_Node000001"><a xlink:href="classFreeCamera.html" target="_top" xlink:title=" ">
<polygon fill="white" stroke="#666666" points="214,-93 138,-93 138,-74 214,-74 214,-93"/>
<text text-anchor="middle" x="176" y="-81" font-family="Helvetica,sans-Serif" font-size="10.00">FreeCamera</text>
</a>
</g>
</g>
<!-- Node0&#45;&gt;Node1 -->
<g id="edge19_Node000000_Node000001" class="edge">
<title>Node0&#45;&gt;Node1</title>
<g id="a_edge19_Node000000_Node000001"><a xlink:title=" ">
<path fill="none" stroke="#63b8ff" d="M86.97,-58.83C104.46,-63.73 124.27,-69.28 140.66,-73.88"/>
<polygon fill="#63b8ff" stroke="#63b8ff" points="87.57,-55.36 76.99,-56.03 85.68,-62.1 87.57,-55.36"/>
</a>
</g>
</g>
<!-- Node2 -->
<g id="Node000002" class="node">
<title>Node2</title>
<g id="a_Node000002"><a xlink:href="classLookBehindCamera.html" target="_top" xlink:title=" ">
<polygon fill="white" stroke="#666666" points="232,-56 120,-56 120,-37 232,-37 232,-56"/>
<text text-anchor="middle" x="176" y="-44" font-family="Helvetica,sans-Serif" font-size="10.00">LookBehindCamera</text>
</a>
</g>
</g>
<!-- Node0&#45;&gt;Node2 -->
<g id="edge20_Node000000_Node000002" class="edge">
<title>Node0&#45;&gt;Node2</title>
<g id="a_edge20_Node000000_Node000002"><a xlink:title=" ">
<path fill="none" stroke="#63b8ff" d="M94.14,-46.5C102.58,-46.5 111.37,-46.5 119.91,-46.5"/>
<polygon fill="#63b8ff" stroke="#63b8ff" points="94.04,-43 84.04,-46.5 94.04,-50 94.04,-43"/>
</a>
</g>
</g>
<!-- Node3 -->
<g id="Node000003" class="node">
<title>Node3</title>
<g id="a_Node000003"><a xlink:href="classTourCamera.html" target="_top" xlink:title=" ">
<polygon fill="white" stroke="#666666" points="213.5,-19 138.5,-19 138.5,0 213.5,0 213.5,-19"/>
<text text-anchor="middle" x="176" y="-7" font-family="Helvetica,sans-Serif" font-size="10.00">TourCamera</text>
</a>
</g>
</g>
<!-- Node0&#45;&gt;Node3 -->
<g id="edge21_Node000000_Node000003" class="edge">
<title>Node0&#45;&gt;Node3</title>
<g id="a_edge21_Node000000_Node000003"><a xlink:title=" ">
<path fill="none" stroke="#63b8ff" d="M86.97,-34.17C104.46,-29.27 124.27,-23.72 140.66,-19.12"/>
<polygon fill="#63b8ff" stroke="#63b8ff" points="85.68,-30.9 76.99,-36.97 87.57,-37.64 85.68,-30.9"/>
</a>
</g>
</g>
</g>
</svg>
