<?xml version="1.0" encoding="UTF-8" standalone="no"?>
<!DOCTYPE svg PUBLIC "-//W3C//DTD SVG 1.1//EN"
 "http://www.w3.org/Graphics/SVG/1.1/DTD/svg11.dtd">
<!-- Generated by graphviz version 2.43.0 (0)
 -->
<!-- Title: include/assets/models/tracks/kalimari_desert/kalimari_desert_vertices.h Pages: 1 -->
<svg width="503pt" height="247pt"
 viewBox="0.00 0.00 503.00 247.00" xmlns="http://www.w3.org/2000/svg" xmlns:xlink="http://www.w3.org/1999/xlink">
<g id="graph0" class="graph" transform="scale(1 1) rotate(0) translate(4 243)">
<title>include/assets/models/tracks/kalimari_desert/kalimari_desert_vertices.h</title>
<!-- Node1 -->
<g id="Node000001" class="node">
<title>Node1</title>
<g id="a_Node000001"><a xlink:title=" ">
<polygon fill="#999999" stroke="#666666" points="272,-239 123,-239 123,-198 272,-198 272,-239"/>
<text text-anchor="start" x="131" y="-227" font-family="Helvetica,sans-Serif" font-size="10.00">include/assets/models</text>
<text text-anchor="start" x="131" y="-216" font-family="Helvetica,sans-Serif" font-size="10.00">/tracks/kalimari_desert</text>
<text text-anchor="middle" x="197.5" y="-205" font-family="Helvetica,sans-Serif" font-size="10.00">/kalimari_desert_vertices.h</text>
</a>
</g>
</g>
<!-- Node2 -->
<g id="Node000002" class="node">
<title>Node2</title>
<g id="a_Node000002"><a xlink:href="all__course__model_8h.html" target="_top" xlink:title=" ">
<polygon fill="white" stroke="#666666" points="179,-162 72,-162 72,-132 179,-132 179,-162"/>
<text text-anchor="start" x="80" y="-150" font-family="Helvetica,sans-Serif" font-size="10.00">courses/all_course</text>
<text text-anchor="middle" x="125.5" y="-139" font-family="Helvetica,sans-Serif" font-size="10.00">_model.h</text>
</a>
</g>
</g>
<!-- Node1&#45;&gt;Node2 -->
<g id="edge1_Node000001_Node000002" class="edge">
<title>Node1&#45;&gt;Node2</title>
<g id="a_edge1_Node000001_Node000002"><a xlink:title=" ">
<path fill="none" stroke="#63b8ff" d="M169.58,-190.55C159.5,-180.81 148.52,-170.22 140.04,-162.04"/>
<polygon fill="#63b8ff" stroke="#63b8ff" points="167.43,-193.34 177.06,-197.77 172.3,-188.31 167.43,-193.34"/>
</a>
</g>
</g>
<!-- Node3 -->
<g id="Node000003" class="node">
<title>Node3</title>
<g id="a_Node000003"><a xlink:href="KalimariDesert_8h.html" target="_top" xlink:title=" ">
<polygon fill="white" stroke="#666666" points="341.5,-162 197.5,-162 197.5,-132 341.5,-132 341.5,-162"/>
<text text-anchor="start" x="205.5" y="-150" font-family="Helvetica,sans-Serif" font-size="10.00">src/engine/tracks/Kalimari</text>
<text text-anchor="middle" x="269.5" y="-139" font-family="Helvetica,sans-Serif" font-size="10.00">Desert.h</text>
</a>
</g>
</g>
<!-- Node1&#45;&gt;Node3 -->
<g id="edge2_Node000001_Node000003" class="edge">
<title>Node1&#45;&gt;Node3</title>
<g id="a_edge2_Node000001_Node000003"><a xlink:title=" ">
<path fill="none" stroke="#63b8ff" d="M225.42,-190.55C235.5,-180.81 246.48,-170.22 254.96,-162.04"/>
<polygon fill="#63b8ff" stroke="#63b8ff" points="222.7,-188.31 217.94,-197.77 227.57,-193.34 222.7,-188.31"/>
</a>
</g>
</g>
<!-- Node4 -->
<g id="Node000004" class="node">
<title>Node4</title>
<g id="a_Node000004"><a xlink:href="AllTracks_8h.html" target="_top" xlink:title=" ">
<polygon fill="white" stroke="#666666" points="179.5,-90.5 57.5,-90.5 57.5,-71.5 179.5,-71.5 179.5,-90.5"/>
<text text-anchor="middle" x="118.5" y="-78.5" font-family="Helvetica,sans-Serif" font-size="10.00">src/engine/AllTracks.h</text>
</a>
</g>
</g>
<!-- Node3&#45;&gt;Node4 -->
<g id="edge3_Node000003_Node000004" class="edge">
<title>Node3&#45;&gt;Node4</title>
<g id="a_edge3_Node000003_Node000004"><a xlink:title=" ">
<path fill="none" stroke="#63b8ff" d="M226.89,-127.94C197.96,-115.68 161.02,-100.02 138.6,-90.52"/>
<polygon fill="#63b8ff" stroke="#63b8ff" points="225.79,-131.28 236.36,-131.95 228.52,-124.83 225.79,-131.28"/>
</a>
</g>
</g>
<!-- Node7 -->
<g id="Node000007" class="node">
<title>Node7</title>
<g id="a_Node000007"><a xlink:href="KalimariDesert_8cpp.html" target="_top" xlink:title=" ">
<polygon fill="white" stroke="#666666" points="341.5,-96 197.5,-96 197.5,-66 341.5,-66 341.5,-96"/>
<text text-anchor="start" x="205.5" y="-84" font-family="Helvetica,sans-Serif" font-size="10.00">src/engine/tracks/Kalimari</text>
<text text-anchor="middle" x="269.5" y="-73" font-family="Helvetica,sans-Serif" font-size="10.00">Desert.cpp</text>
</a>
</g>
</g>
<!-- Node3&#45;&gt;Node7 -->
<g id="edge6_Node000003_Node000007" class="edge">
<title>Node3&#45;&gt;Node7</title>
<g id="a_edge6_Node000003_Node000007"><a xlink:title=" ">
<path fill="none" stroke="#63b8ff" d="M269.5,-121.54C269.5,-112.96 269.5,-103.61 269.5,-96.16"/>
<polygon fill="#63b8ff" stroke="#63b8ff" points="266,-121.8 269.5,-131.8 273,-121.8 266,-121.8"/>
</a>
</g>
</g>
<!-- Node8 -->
<g id="Node000008" class="node">
<title>Node8</title>
<g id="a_Node000008"><a xlink:href="PortMenu_8cpp.html" target="_top" xlink:title=" ">
<polygon fill="white" stroke="#666666" points="495,-90.5 360,-90.5 360,-71.5 495,-71.5 495,-90.5"/>
<text text-anchor="middle" x="427.5" y="-78.5" font-family="Helvetica,sans-Serif" font-size="10.00">src/port/ui/PortMenu.cpp</text>
</a>
</g>
</g>
<!-- Node3&#45;&gt;Node8 -->
<g id="edge7_Node000003_Node000008" class="edge">
<title>Node3&#45;&gt;Node8</title>
<g id="a_edge7_Node000003_Node000008"><a xlink:title=" ">
<path fill="none" stroke="#63b8ff" d="M313.69,-128.1C344.02,-115.82 382.9,-100.06 406.47,-90.52"/>
<polygon fill="#63b8ff" stroke="#63b8ff" points="312.13,-124.96 304.17,-131.95 314.76,-131.44 312.13,-124.96"/>
</a>
</g>
</g>
<!-- Node5 -->
<g id="Node000005" class="node">
<title>Node5</title>
<g id="a_Node000005"><a xlink:href="RegisterTracks_8cpp.html" target="_top" xlink:title=" ">
<polygon fill="white" stroke="#666666" points="111,-30 0,-30 0,0 111,0 111,-30"/>
<text text-anchor="start" x="8" y="-18" font-family="Helvetica,sans-Serif" font-size="10.00">src/engine/registry</text>
<text text-anchor="middle" x="55.5" y="-7" font-family="Helvetica,sans-Serif" font-size="10.00">/RegisterTracks.cpp</text>
</a>
</g>
</g>
<!-- Node4&#45;&gt;Node5 -->
<g id="edge4_Node000004_Node000005" class="edge">
<title>Node4&#45;&gt;Node5</title>
<g id="a_edge4_Node000004_Node000005"><a xlink:title=" ">
<path fill="none" stroke="#63b8ff" d="M102.9,-64.16C92.72,-53.81 79.52,-40.4 69.64,-30.36"/>
<polygon fill="#63b8ff" stroke="#63b8ff" points="100.49,-66.7 110,-71.37 105.48,-61.79 100.49,-66.7"/>
</a>
</g>
</g>
<!-- Node6 -->
<g id="Node000006" class="node">
<title>Node6</title>
<g id="a_Node000006"><a xlink:href="Game_8cpp.html" target="_top" xlink:title=" ">
<polygon fill="white" stroke="#666666" points="235.5,-24.5 129.5,-24.5 129.5,-5.5 235.5,-5.5 235.5,-24.5"/>
<text text-anchor="middle" x="182.5" y="-12.5" font-family="Helvetica,sans-Serif" font-size="10.00">src/port/Game.cpp</text>
</a>
</g>
</g>
<!-- Node4&#45;&gt;Node6 -->
<g id="edge5_Node000004_Node000006" class="edge">
<title>Node4&#45;&gt;Node6</title>
<g id="a_edge5_Node000004_Node000006"><a xlink:title=" ">
<path fill="none" stroke="#63b8ff" d="M134.52,-63.98C146.88,-51.62 163.51,-34.99 173.59,-24.91"/>
<polygon fill="#63b8ff" stroke="#63b8ff" points="131.73,-61.82 127.13,-71.37 136.68,-66.77 131.73,-61.82"/>
</a>
</g>
</g>
</g>
</svg>
