<?xml version="1.0" encoding="UTF-8" standalone="no"?>
<!DOCTYPE svg PUBLIC "-//W3C//DTD SVG 1.1//EN"
 "http://www.w3.org/Graphics/SVG/1.1/DTD/svg11.dtd">
<!-- Generated by graphviz version 2.43.0 (0)
 -->
<!-- Title: sequence_dma_immediate Pages: 1 -->
<svg width="1258pt" height="64pt"
 viewBox="0.00 0.00 1258.00 64.00" xmlns="http://www.w3.org/2000/svg" xmlns:xlink="http://www.w3.org/1999/xlink">
<g id="graph0" class="graph" transform="scale(1 1) rotate(0) translate(4 60)">
<title>sequence_dma_immediate</title>
<!-- Node1 -->
<g id="Node000001" class="node">
<title>Node1</title>
<g id="a_Node000001"><a xlink:title=" ">
<polygon fill="#999999" stroke="#666666" points="1250,-37 1101,-37 1101,-18 1250,-18 1250,-37"/>
<text text-anchor="middle" x="1175.5" y="-25" font-family="Helvetica,sans-Serif" font-size="10.00">sequence_dma_immediate</text>
</a>
</g>
</g>
<!-- Node2 -->
<g id="Node000002" class="node">
<title>Node2</title>
<g id="a_Node000002"><a xlink:href="load_8c.html#a87296581b8da4a2d19e2886665e12bef" target="_top" xlink:title=" ">
<polygon fill="white" stroke="#666666" points="1065,-37 960,-37 960,-18 1065,-18 1065,-37"/>
<text text-anchor="middle" x="1012.5" y="-25" font-family="Helvetica,sans-Serif" font-size="10.00">preload_sequence</text>
</a>
</g>
</g>
<!-- Node1&#45;&gt;Node2 -->
<g id="edge1_Node000001_Node000002" class="edge">
<title>Node1&#45;&gt;Node2</title>
<g id="a_edge1_Node000001_Node000002"><a xlink:title=" ">
<path fill="none" stroke="#63b8ff" d="M1090.53,-27.5C1081.96,-27.5 1073.43,-27.5 1065.36,-27.5"/>
<polygon fill="#63b8ff" stroke="#63b8ff" points="1090.6,-31 1100.6,-27.5 1090.6,-24 1090.6,-31"/>
</a>
</g>
</g>
<!-- Node3 -->
<g id="Node000003" class="node">
<title>Node3</title>
<g id="a_Node000003"><a xlink:href="port__eu_8c.html#af9631ae86d86a13a1cbdb83aec196fc3" target="_top" xlink:title=" ">
<polygon fill="white" stroke="#666666" points="924,-37 794,-37 794,-18 924,-18 924,-37"/>
<text text-anchor="middle" x="859" y="-25" font-family="Helvetica,sans-Serif" font-size="10.00">eu_process_audio_cmd</text>
</a>
</g>
</g>
<!-- Node2&#45;&gt;Node3 -->
<g id="edge2_Node000002_Node000003" class="edge">
<title>Node2&#45;&gt;Node3</title>
<g id="a_edge2_Node000002_Node000003"><a xlink:title=" ">
<path fill="none" stroke="#63b8ff" d="M949.65,-27.5C941.22,-27.5 932.55,-27.5 924.08,-27.5"/>
<polygon fill="#63b8ff" stroke="#63b8ff" points="949.79,-31 959.79,-27.5 949.79,-24 949.79,-31"/>
</a>
</g>
</g>
<!-- Node4 -->
<g id="Node000004" class="node">
<title>Node4</title>
<g id="a_Node000004"><a xlink:href="port__eu_8c.html#adbb164f6ad02d89aead401d442b75ce5" target="_top" xlink:title=" ">
<polygon fill="white" stroke="#666666" points="758,-37 664,-37 664,-18 758,-18 758,-37"/>
<text text-anchor="middle" x="711" y="-25" font-family="Helvetica,sans-Serif" font-size="10.00">func_800CBCB0</text>
</a>
</g>
</g>
<!-- Node3&#45;&gt;Node4 -->
<g id="edge3_Node000003_Node000004" class="edge">
<title>Node3&#45;&gt;Node4</title>
<g id="a_edge3_Node000003_Node000004"><a xlink:title=" ">
<path fill="none" stroke="#63b8ff" d="M783.7,-27.5C774.94,-27.5 766.21,-27.5 758,-27.5"/>
<polygon fill="#63b8ff" stroke="#63b8ff" points="783.96,-31 793.96,-27.5 783.96,-24 783.96,-31"/>
</a>
</g>
</g>
<!-- Node5 -->
<g id="Node000005" class="node">
<title>Node5</title>
<g id="a_Node000005"><a xlink:href="port__eu_8c.html#a1d9119a2b49700e0bac6c9faabc7991b" target="_top" xlink:title=" ">
<polygon fill="white" stroke="#666666" points="614.5,-56 474.5,-56 474.5,-37 614.5,-37 614.5,-56"/>
<text text-anchor="middle" x="544.5" y="-44" font-family="Helvetica,sans-Serif" font-size="10.00">create_next_audio_buffer</text>
</a>
</g>
</g>
<!-- Node4&#45;&gt;Node5 -->
<g id="edge4_Node000004_Node000005" class="edge">
<title>Node4&#45;&gt;Node5</title>
<g id="a_edge4_Node000004_Node000005"><a xlink:title=" ">
<path fill="none" stroke="#63b8ff" d="M653.5,-34.03C641.02,-35.47 627.67,-37.01 614.76,-38.5"/>
<polygon fill="#63b8ff" stroke="#63b8ff" points="654.21,-37.47 663.74,-32.84 653.4,-30.51 654.21,-37.47"/>
</a>
</g>
</g>
<!-- Node6 -->
<g id="Node000006" class="node">
<title>Node6</title>
<g id="a_Node000006"><a xlink:href="port__eu_8c.html#a17e6cb53d677ce7a809303aa122cb4cf" target="_top" xlink:title=" ">
<polygon fill="white" stroke="#666666" points="628,-19 461,-19 461,0 628,0 628,-19"/>
<text text-anchor="middle" x="544.5" y="-7" font-family="Helvetica,sans-Serif" font-size="10.00">create_next_audio_frame_task</text>
</a>
</g>
</g>
<!-- Node4&#45;&gt;Node6 -->
<g id="edge5_Node000004_Node000006" class="edge">
<title>Node4&#45;&gt;Node6</title>
<g id="a_edge5_Node000004_Node000006"><a xlink:title=" ">
<path fill="none" stroke="#63b8ff" d="M653.58,-21.33C645.37,-20.43 636.78,-19.49 628.19,-18.55"/>
<polygon fill="#63b8ff" stroke="#63b8ff" points="653.42,-24.83 663.74,-22.44 654.18,-17.87 653.42,-24.83"/>
</a>
</g>
</g>
<!-- Node7 -->
<g id="Node000007" class="node">
<title>Node7</title>
<g id="a_Node000007"><a xlink:href="main_8c.html#adc4ddc4dba28c4eebe8a7c28e5559b11" target="_top" xlink:title=" ">
<polygon fill="white" stroke="#666666" points="425,-19 339,-19 339,0 425,0 425,-19"/>
<text text-anchor="middle" x="382" y="-7" font-family="Helvetica,sans-Serif" font-size="10.00">thread4_audio</text>
</a>
</g>
</g>
<!-- Node6&#45;&gt;Node7 -->
<g id="edge6_Node000006_Node000007" class="edge">
<title>Node6&#45;&gt;Node7</title>
<g id="a_edge6_Node000006_Node000007"><a xlink:title=" ">
<path fill="none" stroke="#63b8ff" d="M450.86,-9.5C442.02,-9.5 433.39,-9.5 425.41,-9.5"/>
<polygon fill="#63b8ff" stroke="#63b8ff" points="450.9,-13 460.9,-9.5 450.9,-6 450.9,-13"/>
</a>
</g>
</g>
<!-- Node8 -->
<g id="Node000008" class="node">
<title>Node8</title>
<g id="a_Node000008"><a xlink:href="main_8c.html#a023b8f272e4efbd33f371e91ffff6b30" target="_top" xlink:title=" ">
<polygon fill="white" stroke="#666666" points="303,-19 217,-19 217,0 303,0 303,-19"/>
<text text-anchor="middle" x="260" y="-7" font-family="Helvetica,sans-Serif" font-size="10.00">thread3_video</text>
</a>
</g>
</g>
<!-- Node7&#45;&gt;Node8 -->
<g id="edge7_Node000007_Node000008" class="edge">
<title>Node7&#45;&gt;Node8</title>
<g id="a_edge7_Node000007_Node000008"><a xlink:title=" ">
<path fill="none" stroke="#63b8ff" d="M328.55,-9.5C320.12,-9.5 311.49,-9.5 303.33,-9.5"/>
<polygon fill="#63b8ff" stroke="#63b8ff" points="328.69,-13 338.69,-9.5 328.69,-6 328.69,-13"/>
</a>
</g>
</g>
<!-- Node9 -->
<g id="Node000009" class="node">
<title>Node9</title>
<g id="a_Node000009"><a xlink:href="main_8c.html#a1e35d2b842121e6aea373f09381616e5" target="_top" xlink:title=" ">
<polygon fill="white" stroke="#666666" points="181,-19 104,-19 104,0 181,0 181,-19"/>
<text text-anchor="middle" x="142.5" y="-7" font-family="Helvetica,sans-Serif" font-size="10.00">thread1_idle</text>
</a>
</g>
</g>
<!-- Node8&#45;&gt;Node9 -->
<g id="edge8_Node000008_Node000009" class="edge">
<title>Node8&#45;&gt;Node9</title>
<g id="a_edge8_Node000008_Node000009"><a xlink:title=" ">
<path fill="none" stroke="#63b8ff" d="M206.9,-9.5C198.2,-9.5 189.33,-9.5 181.09,-9.5"/>
<polygon fill="#63b8ff" stroke="#63b8ff" points="206.98,-13 216.98,-9.5 206.98,-6 206.98,-13"/>
</a>
</g>
</g>
<!-- Node10 -->
<g id="Node000010" class="node">
<title>Node10</title>
<g id="a_Node000010"><a xlink:href="main_8c.html#a4f87d43525fe95f60ea92bc8a3b70e62" target="_top" xlink:title=" ">
<polygon fill="white" stroke="#666666" points="68,-19 0,-19 0,0 68,0 68,-19"/>
<text text-anchor="middle" x="34" y="-7" font-family="Helvetica,sans-Serif" font-size="10.00">main_func</text>
</a>
</g>
</g>
<!-- Node9&#45;&gt;Node10 -->
<g id="edge9_Node000009_Node000010" class="edge">
<title>Node9&#45;&gt;Node10</title>
<g id="a_edge9_Node000009_Node000010"><a xlink:title=" ">
<path fill="none" stroke="#63b8ff" d="M93.95,-9.5C85.29,-9.5 76.44,-9.5 68.31,-9.5"/>
<polygon fill="#63b8ff" stroke="#63b8ff" points="93.95,-13 103.95,-9.5 93.95,-6 93.95,-13"/>
</a>
</g>
</g>
</g>
</svg>
