<?xml version="1.0" encoding="UTF-8" standalone="no"?>
<!DOCTYPE svg PUBLIC "-//W3C//DTD SVG 1.1//EN"
 "http://www.w3.org/Graphics/SVG/1.1/DTD/svg11.dtd">
<!-- Generated by graphviz version 2.43.0 (0)
 -->
<!-- Title: display_debug_info Pages: 1 -->
<svg width="874pt" height="212pt"
 viewBox="0.00 0.00 874.00 212.00" xmlns="http://www.w3.org/2000/svg" xmlns:xlink="http://www.w3.org/1999/xlink">
<g id="graph0" class="graph" transform="scale(1 1) rotate(0) translate(4 208)">
<title>display_debug_info</title>
<!-- Node1 -->
<g id="Node000001" class="node">
<title>Node1</title>
<g id="a_Node000001"><a xlink:title=" ">
<polygon fill="#999999" stroke="#666666" points="111,-93 0,-93 0,-74 111,-74 111,-93"/>
<text text-anchor="middle" x="55.5" y="-81" font-family="Helvetica,sans-Serif" font-size="10.00">display_debug_info</text>
</a>
</g>
</g>
<!-- Node2 -->
<g id="Node000002" class="node">
<title>Node2</title>
<g id="a_Node000002"><a xlink:href="render__objects_8c.html#aff3ef06841914727f4be7cc7bec453dc" target="_top" xlink:title=" ">
<polygon fill="white" stroke="#666666" points="242.5,-130 150.5,-130 150.5,-111 242.5,-111 242.5,-130"/>
<text text-anchor="middle" x="196.5" y="-118" font-family="Helvetica,sans-Serif" font-size="10.00">func_80057A50</text>
</a>
</g>
</g>
<!-- Node1&#45;&gt;Node2 -->
<g id="edge1_Node000001_Node000002" class="edge">
<title>Node1&#45;&gt;Node2</title>
<g id="a_edge1_Node000001_Node000002"><a xlink:title=" ">
<path fill="none" stroke="#63b8ff" d="M92.3,-93.03C109.75,-97.67 130.95,-103.32 149.58,-108.28"/>
<polygon fill="#63b8ff" stroke="#63b8ff" points="148.78,-111.69 159.34,-110.88 150.58,-104.92 148.78,-111.69"/>
</a>
</g>
</g>
<!-- Node13 -->
<g id="Node000013" class="node">
<title>Node13</title>
<g id="a_Node000013"><a xlink:href="profiler_8c.html#ab7b1e6773ce3f388fa683d69fb70944f" target="_top" xlink:title=" ">
<polygon fill="white" stroke="#666666" points="246,-75 147,-75 147,-56 246,-56 246,-75"/>
<text text-anchor="middle" x="196.5" y="-63" font-family="Helvetica,sans-Serif" font-size="10.00">resource_display</text>
</a>
</g>
</g>
<!-- Node1&#45;&gt;Node13 -->
<g id="edge15_Node000001_Node000013" class="edge">
<title>Node1&#45;&gt;Node13</title>
<g id="a_edge15_Node000001_Node000013"><a xlink:title=" ">
<path fill="none" stroke="#63b8ff" d="M111.04,-76.44C119.57,-75.33 128.41,-74.19 137.02,-73.07"/>
<polygon fill="#63b8ff" stroke="#63b8ff" points="137.52,-76.54 146.99,-71.78 136.62,-69.6 137.52,-76.54"/>
</a>
</g>
</g>
<!-- Node3 -->
<g id="Node000003" class="node">
<title>Node3</title>
<g id="a_Node000003"><a xlink:href="render__objects_8c.html#a62d81547caa98603255ae2ed6eb8ef2c" target="_top" xlink:title=" ">
<polygon fill="white" stroke="#666666" points="398,-130 291,-130 291,-111 398,-111 398,-130"/>
<text text-anchor="middle" x="344.5" y="-118" font-family="Helvetica,sans-Serif" font-size="10.00">debug_print_string</text>
</a>
</g>
</g>
<!-- Node2&#45;&gt;Node3 -->
<g id="edge2_Node000002_Node000003" class="edge">
<title>Node2&#45;&gt;Node3</title>
<g id="a_edge2_Node000002_Node000003"><a xlink:title=" ">
<path fill="none" stroke="#63b8ff" d="M242.89,-120.5C254.92,-120.5 268.11,-120.5 280.87,-120.5"/>
<polygon fill="#63b8ff" stroke="#63b8ff" points="280.98,-124 290.98,-120.5 280.98,-117 280.98,-124"/>
</a>
</g>
</g>
<!-- Node7 -->
<g id="Node000007" class="node">
<title>Node7</title>
<g id="a_Node000007"><a xlink:href="render__objects_8c.html#a66487fbfc24f49eba78d5fb266933c57" target="_top" xlink:title=" ">
<polygon fill="white" stroke="#666666" points="390.5,-93 298.5,-93 298.5,-74 390.5,-74 390.5,-93"/>
<text text-anchor="middle" x="344.5" y="-81" font-family="Helvetica,sans-Serif" font-size="10.00">func_8005762C</text>
</a>
</g>
</g>
<!-- Node2&#45;&gt;Node7 -->
<g id="edge6_Node000002_Node000007" class="edge">
<title>Node2&#45;&gt;Node7</title>
<g id="a_edge6_Node000002_Node000007"><a xlink:title=" ">
<path fill="none" stroke="#63b8ff" d="M235.1,-110.97C253.67,-106.26 276.28,-100.53 296.04,-95.53"/>
<polygon fill="#63b8ff" stroke="#63b8ff" points="296.94,-98.91 305.78,-93.06 295.22,-92.12 296.94,-98.91"/>
</a>
</g>
</g>
<!-- Node8 -->
<g id="Node000008" class="node">
<title>Node8</title>
<g id="a_Node000008"><a xlink:href="render__objects_8c.html#ab0e3aea9fb9c76755b7df72a7d9a5cf6" target="_top" xlink:title=" ">
<polygon fill="white" stroke="#666666" points="390,-167 299,-167 299,-148 390,-148 390,-167"/>
<text text-anchor="middle" x="344.5" y="-155" font-family="Helvetica,sans-Serif" font-size="10.00">func_80057778</text>
</a>
</g>
</g>
<!-- Node2&#45;&gt;Node8 -->
<g id="edge9_Node000002_Node000008" class="edge">
<title>Node2&#45;&gt;Node8</title>
<g id="a_edge9_Node000002_Node000008"><a xlink:title=" ">
<path fill="none" stroke="#63b8ff" d="M235.1,-130.03C253.67,-134.74 276.28,-140.47 296.04,-145.47"/>
<polygon fill="#63b8ff" stroke="#63b8ff" points="295.22,-148.88 305.78,-147.94 296.94,-142.09 295.22,-148.88"/>
</a>
</g>
</g>
<!-- Node12 -->
<g id="Node000012" class="node">
<title>Node12</title>
<g id="a_Node000012"><a xlink:href="render__objects_8c.html#acaaf2f93b14e85c81188505f1372741e" target="_top" xlink:title=" ">
<polygon fill="white" stroke="#666666" points="393.5,-204 295.5,-204 295.5,-185 393.5,-185 393.5,-204"/>
<text text-anchor="middle" x="344.5" y="-192" font-family="Helvetica,sans-Serif" font-size="10.00">load_debug_font</text>
</a>
</g>
</g>
<!-- Node2&#45;&gt;Node12 -->
<g id="edge13_Node000002_Node000012" class="edge">
<title>Node2&#45;&gt;Node12</title>
<g id="a_edge13_Node000002_Node000012"><a xlink:title=" ">
<path fill="none" stroke="#63b8ff" d="M209.41,-130.08C225.17,-142.36 254.23,-163.6 282,-176.5 286.08,-178.4 290.41,-180.14 294.81,-181.74"/>
<polygon fill="#63b8ff" stroke="#63b8ff" points="293.87,-185.12 304.46,-185 296.11,-178.49 293.87,-185.12"/>
</a>
</g>
</g>
<!-- Node4 -->
<g id="Node000004" class="node">
<title>Node4</title>
<g id="a_Node000004"><a xlink:href="render__objects_8c.html#ac65015c8c4cb9f586b55bba6caec40e1" target="_top" xlink:title=" ">
<polygon fill="white" stroke="#666666" points="572.5,-130 471.5,-130 471.5,-111 572.5,-111 572.5,-130"/>
<text text-anchor="middle" x="522" y="-118" font-family="Helvetica,sans-Serif" font-size="10.00">debug_wrap_text</text>
</a>
</g>
</g>
<!-- Node3&#45;&gt;Node4 -->
<g id="edge3_Node000003_Node000004" class="edge">
<title>Node3&#45;&gt;Node4</title>
<g id="a_edge3_Node000003_Node000004"><a xlink:title=" ">
<path fill="none" stroke="#63b8ff" d="M398.16,-120.5C418.02,-120.5 440.76,-120.5 461.23,-120.5"/>
<polygon fill="#63b8ff" stroke="#63b8ff" points="461.39,-124 471.39,-120.5 461.39,-117 461.39,-124"/>
</a>
</g>
</g>
<!-- Node5 -->
<g id="Node000005" class="node">
<title>Node5</title>
<g id="a_Node000005"><a xlink:href="render__objects_8c.html#a65760e3e635799078e6ef7b04a2685e0" target="_top" xlink:title=" ">
<polygon fill="white" stroke="#666666" points="567.5,-93 476.5,-93 476.5,-74 567.5,-74 567.5,-93"/>
<text text-anchor="middle" x="522" y="-81" font-family="Helvetica,sans-Serif" font-size="10.00">func_800573E4</text>
</a>
</g>
</g>
<!-- Node3&#45;&gt;Node5 -->
<g id="edge4_Node000003_Node000005" class="edge">
<title>Node3&#45;&gt;Node5</title>
<g id="a_edge4_Node000003_Node000005"><a xlink:title=" ">
<path fill="none" stroke="#63b8ff" d="M390.7,-110.97C413.81,-106.1 442.13,-100.13 466.46,-95"/>
<polygon fill="#63b8ff" stroke="#63b8ff" points="467.2,-98.42 476.26,-92.93 465.75,-91.57 467.2,-98.42"/>
</a>
</g>
</g>
<!-- Node6 -->
<g id="Node000006" class="node">
<title>Node6</title>
<g id="a_Node000006"><a xlink:href="render__objects_8c.html#a33684f0745ad1366fef89d3fd5ef598e" target="_top" xlink:title=" ">
<polygon fill="white" stroke="#666666" points="781.5,-93 641.5,-93 641.5,-74 781.5,-74 781.5,-93"/>
<text text-anchor="middle" x="711.5" y="-81" font-family="Helvetica,sans-Serif" font-size="10.00">render_texture_rectangle</text>
</a>
</g>
</g>
<!-- Node5&#45;&gt;Node6 -->
<g id="edge5_Node000005_Node000006" class="edge">
<title>Node5&#45;&gt;Node6</title>
<g id="a_edge5_Node000005_Node000006"><a xlink:title=" ">
<path fill="none" stroke="#63b8ff" d="M567.91,-83.5C586.9,-83.5 609.59,-83.5 631.23,-83.5"/>
<polygon fill="#63b8ff" stroke="#63b8ff" points="631.41,-87 641.41,-83.5 631.41,-80 631.41,-87"/>
</a>
</g>
</g>
<!-- Node7&#45;&gt;Node4 -->
<g id="edge7_Node000007_Node000004" class="edge">
<title>Node7&#45;&gt;Node4</title>
<g id="a_edge7_Node000007_Node000004"><a xlink:title=" ">
<path fill="none" stroke="#63b8ff" d="M390.7,-93.03C413.53,-97.84 441.45,-103.73 465.57,-108.81"/>
<polygon fill="#63b8ff" stroke="#63b8ff" points="465.15,-112.3 475.65,-110.94 466.59,-105.45 465.15,-112.3"/>
</a>
</g>
</g>
<!-- Node7&#45;&gt;Node5 -->
<g id="edge8_Node000007_Node000005" class="edge">
<title>Node7&#45;&gt;Node5</title>
<g id="a_edge8_Node000007_Node000005"><a xlink:title=" ">
<path fill="none" stroke="#63b8ff" d="M390.7,-83.5C413.71,-83.5 441.88,-83.5 466.13,-83.5"/>
<polygon fill="#63b8ff" stroke="#63b8ff" points="466.26,-87 476.26,-83.5 466.26,-80 466.26,-87"/>
</a>
</g>
</g>
<!-- Node9 -->
<g id="Node000009" class="node">
<title>Node9</title>
<g id="a_Node000009"><a xlink:href="GBIMiddleware_8cpp.html#a4ecc44e3c6f1ca5a6b4a20c41d3bd2d2" target="_top" xlink:title=" ">
<polygon fill="white" stroke="#666666" points="566.5,-185 477.5,-185 477.5,-166 566.5,-166 566.5,-185"/>
<text text-anchor="middle" x="522" y="-173" font-family="Helvetica,sans-Serif" font-size="10.00">gSPDisplayList</text>
</a>
</g>
</g>
<!-- Node8&#45;&gt;Node9 -->
<g id="edge10_Node000008_Node000009" class="edge">
<title>Node8&#45;&gt;Node9</title>
<g id="a_edge10_Node000008_Node000009"><a xlink:title=" ">
<path fill="none" stroke="#63b8ff" d="M390.24,-162.09C413.61,-164.49 442.39,-167.44 466.99,-169.96"/>
<polygon fill="#63b8ff" stroke="#63b8ff" points="466.95,-173.47 477.25,-171.01 467.66,-166.51 466.95,-173.47"/>
</a>
</g>
</g>
<!-- Node10 -->
<g id="Node000010" class="node">
<title>Node10</title>
<g id="a_Node000010"><a xlink:href="Engine_8cpp.html#a223c8bc63f228dc11177515e38eff2db" target="_top" xlink:title=" ">
<polygon fill="white" stroke="#666666" points="786,-185 637,-185 637,-166 786,-166 786,-185"/>
<text text-anchor="middle" x="711.5" y="-173" font-family="Helvetica,sans-Serif" font-size="10.00">GameEngine_OTRSigCheck</text>
</a>
</g>
</g>
<!-- Node9&#45;&gt;Node10 -->
<g id="edge11_Node000009_Node000010" class="edge">
<title>Node9&#45;&gt;Node10</title>
<g id="a_edge11_Node000009_Node000010"><a xlink:title=" ">
<path fill="none" stroke="#63b8ff" d="M566.96,-175.5C584.82,-175.5 606.08,-175.5 626.68,-175.5"/>
<polygon fill="#63b8ff" stroke="#63b8ff" points="626.73,-179 636.73,-175.5 626.73,-172 626.73,-179"/>
</a>
</g>
</g>
<!-- Node11 -->
<g id="Node000011" class="node">
<title>Node11</title>
<g id="a_Node000011"><a xlink:href="string_8c.html#a008e171a518fe0e0352f31b245e03875" target="_top" xlink:title=" ">
<polygon fill="white" stroke="#666666" points="866,-185 822,-185 822,-166 866,-166 866,-185"/>
<text text-anchor="middle" x="844" y="-173" font-family="Helvetica,sans-Serif" font-size="10.00">strlen</text>
</a>
</g>
</g>
<!-- Node10&#45;&gt;Node11 -->
<g id="edge12_Node000010_Node000011" class="edge">
<title>Node10&#45;&gt;Node11</title>
<g id="a_edge12_Node000010_Node000011"><a xlink:title=" ">
<path fill="none" stroke="#63b8ff" d="M786.14,-175.5C795.12,-175.5 803.89,-175.5 811.75,-175.5"/>
<polygon fill="#63b8ff" stroke="#63b8ff" points="811.83,-179 821.83,-175.5 811.83,-172 811.83,-179"/>
</a>
</g>
</g>
<!-- Node12&#45;&gt;Node9 -->
<g id="edge14_Node000012_Node000009" class="edge">
<title>Node12&#45;&gt;Node9</title>
<g id="a_edge14_Node000012_Node000009"><a xlink:title=" ">
<path fill="none" stroke="#63b8ff" d="M393.92,-189.26C416.63,-186.8 443.78,-183.86 467.14,-181.33"/>
<polygon fill="#63b8ff" stroke="#63b8ff" points="467.67,-184.79 477.24,-180.24 466.92,-177.83 467.67,-184.79"/>
</a>
</g>
</g>
<!-- Node14 -->
<g id="Node000014" class="node">
<title>Node14</title>
<g id="a_Node000014"><a xlink:href="profiler_8c.html#a8fa248cbfa2814628c14198dfb97602a" target="_top" xlink:title=" ">
<polygon fill="white" stroke="#666666" points="407,-56 282,-56 282,-37 407,-37 407,-56"/>
<text text-anchor="middle" x="344.5" y="-44" font-family="Helvetica,sans-Serif" font-size="10.00">draw_profiler_mode_0</text>
</a>
</g>
</g>
<!-- Node13&#45;&gt;Node14 -->
<g id="edge16_Node000013_Node000014" class="edge">
<title>Node13&#45;&gt;Node14</title>
<g id="a_edge16_Node000013_Node000014"><a xlink:title=" ">
<path fill="none" stroke="#63b8ff" d="M246.12,-59.17C254.34,-58.1 263.04,-56.97 271.71,-55.84"/>
<polygon fill="#63b8ff" stroke="#63b8ff" points="272.39,-59.28 281.85,-54.52 271.48,-52.34 272.39,-59.28"/>
</a>
</g>
</g>
<!-- Node15 -->
<g id="Node000015" class="node">
<title>Node15</title>
<g id="a_Node000015"><a xlink:href="profiler_8c.html#a6ccbcacd3a0082d450e5a6c94af2c928" target="_top" xlink:title=" ">
<polygon fill="white" stroke="#666666" points="572.5,-19 471.5,-19 471.5,0 572.5,0 572.5,-19"/>
<text text-anchor="middle" x="522" y="-7" font-family="Helvetica,sans-Serif" font-size="10.00">draw_profiler_bar</text>
</a>
</g>
</g>
<!-- Node14&#45;&gt;Node15 -->
<g id="edge17_Node000014_Node000015" class="edge">
<title>Node14&#45;&gt;Node15</title>
<g id="a_edge17_Node000014_Node000015"><a xlink:title=" ">
<path fill="none" stroke="#63b8ff" d="M390.7,-36.97C413.53,-32.16 441.45,-26.27 465.57,-21.19"/>
<polygon fill="#63b8ff" stroke="#63b8ff" points="466.59,-24.55 475.65,-19.06 465.15,-17.7 466.59,-24.55"/>
</a>
</g>
</g>
<!-- Node16 -->
<g id="Node000016" class="node">
<title>Node16</title>
<g id="a_Node000016"><a xlink:href="profiler_8c.html#a4633c7695a2c15f3bbef2f83eefd9168" target="_top" xlink:title=" ">
<polygon fill="white" stroke="#666666" points="601,-56 443,-56 443,-37 601,-37 601,-56"/>
<text text-anchor="middle" x="522" y="-44" font-family="Helvetica,sans-Serif" font-size="10.00">draw_reference_profiler_bars</text>
</a>
</g>
</g>
<!-- Node14&#45;&gt;Node16 -->
<g id="edge18_Node000014_Node000016" class="edge">
<title>Node14&#45;&gt;Node16</title>
<g id="a_edge18_Node000014_Node000016"><a xlink:title=" ">
<path fill="none" stroke="#63b8ff" d="M407.37,-46.5C415.6,-46.5 424.16,-46.5 432.73,-46.5"/>
<polygon fill="#63b8ff" stroke="#63b8ff" points="432.77,-50 442.77,-46.5 432.77,-43 432.77,-50"/>
</a>
</g>
</g>
</g>
</svg>
