<?xml version="1.0" encoding="UTF-8" standalone="no"?>
<!DOCTYPE svg PUBLIC "-//W3C//DTD SVG 1.1//EN"
 "http://www.w3.org/Graphics/SVG/1.1/DTD/svg11.dtd">
<!-- Generated by graphviz version 2.43.0 (0)
 -->
<!-- Title: rendering_init Pages: 1 -->
<!--zoomable 307 -->

<svg id="main" version="1.1" xmlns="http://www.w3.org/2000/svg" xmlns:xlink="http://www.w3.org/1999/xlink" xml:space="preserve" onload="init(evt)">

<style type="text/css"><![CDATA[
.node, .edge {opacity: 0.7;}
.node.selected, .edge.selected {opacity: 1;}
.edge:hover path { stroke: red; }
.edge:hover polygon { stroke: red; fill: red; }
]]></style>

<defs>
  <circle id="rim" cx="0" cy="0" r="7"/>
  <circle id="rim2" cx="0" cy="0" r="3.5"/>
  <g id="zoomPlus">
    <use xlink:href="#rim" fill="#404040"><set attributeName="fill" to="#808080" begin="zoomplus.mouseover" end="zoomplus.mouseout"/></use>
    <path d="M-4,0h8M0,-4v8" fill="none" stroke="white" stroke-width="1.5" pointer-events="none"/>
  </g>
  <g id="zoomMin">
    <use xlink:href="#rim" fill="#404040"><set attributeName="fill" to="#808080" begin="zoomminus.mouseover" end="zoomminus.mouseout"/></use>
    <path d="M-4,0h8" fill="none" stroke="white" stroke-width="1.5" pointer-events="none"/>
  </g>
  <g id="arrowUp" transform="translate(30 24)">
    <use xlink:href="#rim"/>
    <path pointer-events="none" fill="none" stroke="white" stroke-width="1.5" d="M0,-3.0v7 M-2.5,-0.5L0,-3.0L2.5,-0.5"/>
  </g>
  <g id="arrowRight" transform="rotate(90) translate(36 -43)">
    <use xlink:href="#rim"/>
    <path pointer-events="none" fill="none" stroke="white" stroke-width="1.5" d="M0,-3.0v7 M-2.5,-0.5L0,-3.0L2.5,-0.5"/>
  </g>
  <g id="arrowDown" transform="rotate(180) translate(-30 -48)">
    <use xlink:href="#rim"/>
    <path pointer-events="none" fill="none" stroke="white" stroke-width="1.5" d="M0,-3.0v7 M-2.5,-0.5L0,-3.0L2.5,-0.5"/>
  </g>
  <g id="arrowLeft" transform="rotate(270) translate(-36 17)">
    <use xlink:href="#rim"/>
    <path pointer-events="none" fill="none" stroke="white" stroke-width="1.5" d="M0,-3.0v7 M-2.5,-0.5L0,-3.0L2.5,-0.5"/>
  </g>
  <g id="resetDef">
    <use xlink:href="#rim2" fill="#404040"><set attributeName="fill" to="#808080" begin="reset.mouseover" end="reset.mouseout"/></use>
  </g>
</defs>
<script type="application/ecmascript">
var viewWidth = 756;
var viewHeight = 307;
var sectionId = 'dynsection-53';
</script>
<script type="application/ecmascript" xlink:href="svg.min.js"/>
<svg id="graph" class="graph">
<g id="viewport">
<title>rendering_init</title>
<!-- Node1 -->
<g id="Node000001" class="node">
<title>Node1</title>
<g id="a_Node000001"><a xlink:title=" ">
<polygon fill="#999999" stroke="#666666" points="84,-185 0,-185 0,-166 84,-166 84,-185"/>
<text text-anchor="middle" x="42" y="-173" font-family="Helvetica,sans-Serif" font-size="10.00">rendering_init</text>
</a>
</g>
</g>
<!-- Node2 -->
<g id="Node000002" class="node">
<title>Node2</title>
<g id="a_Node000002"><a xlink:href="main_8c.html#ac6df158ad2a863eb16f6b82e12ea26e4" target="_top" xlink:title=" ">
<polygon fill="white" stroke="#666666" points="239.5,-241 135.5,-241 135.5,-222 239.5,-222 239.5,-241"/>
<text text-anchor="middle" x="187.5" y="-229" font-family="Helvetica,sans-Serif" font-size="10.00">clear_framebuffer</text>
</a>
</g>
</g>
<!-- Node1&#45;&gt;Node2 -->
<g id="edge1_Node000001_Node000002" class="edge">
<title>Node1&#45;&gt;Node2</title>
<g id="a_edge1_Node000001_Node000002"><a xlink:title=" ">
<path fill="none" stroke="#63b8ff" d="M60,-185.09C75.33,-193.44 98.67,-205.44 120,-213.5 125.24,-215.48 130.8,-217.34 136.37,-219.06"/>
<polygon fill="#63b8ff" stroke="#63b8ff" points="135.78,-222.53 146.36,-221.99 137.75,-215.81 135.78,-222.53"/>
</a>
</g>
</g>
<!-- Node3 -->
<g id="Node000003" class="node">
<title>Node3</title>
<g id="a_Node000003"><a xlink:href="main_8c.html#a6ac5e1df596c8c0b12e3ffac501eaa4d" target="_top" xlink:title=" ">
<polygon fill="white" stroke="#666666" points="255,-204 120,-204 120,-185 255,-185 255,-204"/>
<text text-anchor="middle" x="187.5" y="-192" font-family="Helvetica,sans-Serif" font-size="10.00">end_master_display_list</text>
</a>
</g>
</g>
<!-- Node1&#45;&gt;Node3 -->
<g id="edge2_Node000001_Node000003" class="edge">
<title>Node1&#45;&gt;Node3</title>
<g id="a_edge2_Node000001_Node000003"><a xlink:title=" ">
<path fill="none" stroke="#63b8ff" d="M84.12,-180.94C92.24,-182.02 101.01,-183.18 109.88,-184.36"/>
<polygon fill="#63b8ff" stroke="#63b8ff" points="109.53,-187.84 119.91,-185.68 110.45,-180.9 109.53,-187.84"/>
</a>
</g>
</g>
<!-- Node7 -->
<g id="Node000007" class="node">
<title>Node7</title>
<g id="a_Node000007"><a xlink:href="main_8c.html#a6dfb2e914880b246ffe72d37f975d658" target="_top" xlink:title=" ">
<polygon fill="white" stroke="#666666" points="237.5,-167 137.5,-167 137.5,-148 237.5,-148 237.5,-167"/>
<text text-anchor="middle" x="187.5" y="-155" font-family="Helvetica,sans-Serif" font-size="10.00">exec_display_list</text>
</a>
</g>
</g>
<!-- Node1&#45;&gt;Node7 -->
<g id="edge6_Node000001_Node000007" class="edge">
<title>Node1&#45;&gt;Node7</title>
<g id="a_edge6_Node000001_Node000007"><a xlink:title=" ">
<path fill="none" stroke="#63b8ff" d="M84.12,-170.34C97.65,-168.65 112.96,-166.72 127.54,-164.9"/>
<polygon fill="#63b8ff" stroke="#63b8ff" points="128.01,-168.36 137.49,-163.65 127.14,-161.42 128.01,-168.36"/>
</a>
</g>
</g>
<!-- Node16 -->
<g id="Node000016" class="node">
<title>Node16</title>
<g id="a_Node000016"><a xlink:href="main_8c.html#afcdb6706e90ae13e8b1442fc0f8847b9" target="_top" xlink:title=" ">
<polygon fill="white" stroke="#666666" points="214,-93 161,-93 161,-74 214,-74 214,-93"/>
<text text-anchor="middle" x="187.5" y="-81" font-family="Helvetica,sans-Serif" font-size="10.00">init_rcp</text>
</a>
</g>
</g>
<!-- Node1&#45;&gt;Node16 -->
<g id="edge19_Node000001_Node000016" class="edge">
<title>Node1&#45;&gt;Node16</title>
<g id="a_edge19_Node000001_Node000016"><a xlink:title=" ">
<path fill="none" stroke="#63b8ff" d="M58.09,-165.83C83.13,-149.77 133.45,-117.51 163.12,-98.49"/>
<polygon fill="#63b8ff" stroke="#63b8ff" points="165.09,-101.39 171.62,-93.04 161.31,-95.49 165.09,-101.39"/>
</a>
</g>
</g>
<!-- Node4 -->
<g id="Node000004" class="node">
<title>Node4</title>
<g id="a_Node000004"><a xlink:href="main_8c.html#ac1eb673d52197b3566bdd06480dd5a7b" target="_top" xlink:title=" ">
<polygon fill="white" stroke="#666666" points="434,-262 291,-262 291,-243 434,-243 434,-262"/>
<text text-anchor="middle" x="362.5" y="-250" font-family="Helvetica,sans-Serif" font-size="10.00">create_gfx_task_structure</text>
</a>
</g>
</g>
<!-- Node3&#45;&gt;Node4 -->
<g id="edge3_Node000003_Node000004" class="edge">
<title>Node3&#45;&gt;Node4</title>
<g id="a_edge3_Node000003_Node000004"><a xlink:title=" ">
<path fill="none" stroke="#63b8ff" d="M223.85,-204.08C233.95,-206.96 244.95,-210.23 255,-213.5 279.41,-221.44 306.57,-231.41 327.36,-239.28"/>
<polygon fill="#63b8ff" stroke="#63b8ff" points="326.13,-242.56 336.72,-242.84 328.62,-236.01 326.13,-242.56"/>
</a>
</g>
</g>
<!-- Node5 -->
<g id="Node000005" class="node">
<title>Node5</title>
<g id="a_Node000005"><a xlink:href="effects_8c.html#a9600f0f40af746c185f4121a3b04c55d" target="_top" xlink:title=" ">
<polygon fill="white" stroke="#666666" points="575.5,-299 483.5,-299 483.5,-280 575.5,-280 575.5,-299"/>
<text text-anchor="middle" x="529.5" y="-287" font-family="Helvetica,sans-Serif" font-size="10.00">func_8008C214</text>
</a>
</g>
</g>
<!-- Node4&#45;&gt;Node5 -->
<g id="edge4_Node000004_Node000005" class="edge">
<title>Node4&#45;&gt;Node5</title>
<g id="a_edge4_Node000004_Node000005"><a xlink:title=" ">
<path fill="none" stroke="#63b8ff" d="M405.99,-262.03C427.37,-266.82 453.47,-272.68 476.08,-277.75"/>
<polygon fill="#63b8ff" stroke="#63b8ff" points="475.34,-281.17 485.87,-279.94 476.87,-274.34 475.34,-281.17"/>
</a>
</g>
</g>
<!-- Node6 -->
<g id="Node000006" class="node">
<title>Node6</title>
<g id="a_Node000006"><a xlink:href="Game_8cpp.html#a2172bcebf986571a5a9d3053a6ae7713" target="_top" xlink:title=" ">
<polygon fill="white" stroke="#666666" points="589,-262 470,-262 470,-243 589,-243 589,-262"/>
<text text-anchor="middle" x="529.5" y="-250" font-family="Helvetica,sans-Serif" font-size="10.00">Graphics_PushFrame</text>
</a>
</g>
</g>
<!-- Node4&#45;&gt;Node6 -->
<g id="edge5_Node000004_Node000006" class="edge">
<title>Node4&#45;&gt;Node6</title>
<g id="a_edge5_Node000004_Node000006"><a xlink:title=" ">
<path fill="none" stroke="#63b8ff" d="M434.43,-252.5C442.82,-252.5 451.36,-252.5 459.71,-252.5"/>
<polygon fill="#63b8ff" stroke="#63b8ff" points="459.78,-256 469.78,-252.5 459.78,-249 459.78,-256"/>
</a>
</g>
</g>
<!-- Node8 -->
<g id="Node000008" class="node">
<title>Node8</title>
<g id="a_Node000008"><a xlink:href="osSendMesg_8c.html#a413bd1b0a16c54dcc9e59c48b3d7f142" target="_top" xlink:title=" ">
<polygon fill="white" stroke="#666666" points="401.5,-167 323.5,-167 323.5,-148 401.5,-148 401.5,-167"/>
<text text-anchor="middle" x="362.5" y="-155" font-family="Helvetica,sans-Serif" font-size="10.00">osSendMesg</text>
</a>
</g>
</g>
<!-- Node7&#45;&gt;Node8 -->
<g id="edge7_Node000007_Node000008" class="edge">
<title>Node7&#45;&gt;Node8</title>
<g id="a_edge7_Node000007_Node000008"><a xlink:title=" ">
<path fill="none" stroke="#63b8ff" d="M237.61,-157.5C261.28,-157.5 289.57,-157.5 313.14,-157.5"/>
<polygon fill="#63b8ff" stroke="#63b8ff" points="313.27,-161 323.27,-157.5 313.27,-154 313.27,-161"/>
</a>
</g>
</g>
<!-- Node9 -->
<g id="Node000009" class="node">
<title>Node9</title>
<g id="a_Node000009"><a xlink:href="libultra__internal_8h.html#a8ad9db8aa6bfc4437abdd0363b663b16" target="_top" xlink:title=" ">
<polygon fill="white" stroke="#666666" points="730.5,-229 642.5,-229 642.5,-210 730.5,-210 730.5,-229"/>
<text text-anchor="middle" x="686.5" y="-217" font-family="Helvetica,sans-Serif" font-size="10.00">__osDisableInt</text>
</a>
</g>
</g>
<!-- Node8&#45;&gt;Node9 -->
<g id="edge8_Node000008_Node000009" class="edge">
<title>Node8&#45;&gt;Node9</title>
<g id="a_edge8_Node000008_Node000009"><a xlink:title=" ">
<path fill="none" stroke="#63b8ff" d="M399.82,-167.07C420.34,-172.3 446.51,-178.68 470,-183.5 525.04,-194.8 588.53,-205.08 632.27,-211.73"/>
<polygon fill="#63b8ff" stroke="#63b8ff" points="631.98,-215.23 642.4,-213.26 633.03,-208.3 631.98,-215.23"/>
</a>
</g>
</g>
<!-- Node10 -->
<g id="Node000010" class="node">
<title>Node10</title>
<g id="a_Node000010"><a xlink:href="libultra__internal_8h.html#afe9c3abc4ca93d9fe18a87d9f108d5cb" target="_top" xlink:title=" ">
<polygon fill="white" stroke="#666666" points="748,-192 625,-192 625,-173 748,-173 748,-192"/>
<text text-anchor="middle" x="686.5" y="-180" font-family="Helvetica,sans-Serif" font-size="10.00">__osEnqueueAndYield</text>
</a>
</g>
</g>
<!-- Node8&#45;&gt;Node10 -->
<g id="edge9_Node000008_Node000010" class="edge">
<title>Node8&#45;&gt;Node10</title>
<g id="a_edge9_Node000008_Node000010"><a xlink:title=" ">
<path fill="none" stroke="#63b8ff" d="M401.7,-160.47C454.04,-164.53 549.02,-171.9 614.59,-176.99"/>
<polygon fill="#63b8ff" stroke="#63b8ff" points="614.61,-180.51 624.85,-177.79 615.15,-173.53 614.61,-180.51"/>
</a>
</g>
</g>
<!-- Node11 -->
<g id="Node000011" class="node">
<title>Node11</title>
<g id="a_Node000011"><a xlink:href="libultra__internal_8h.html#aaadded63bebce6cfdda5ecda193fc9ea" target="_top" xlink:title=" ">
<polygon fill="white" stroke="#666666" points="731.5,-81 641.5,-81 641.5,-62 731.5,-62 731.5,-81"/>
<text text-anchor="middle" x="686.5" y="-69" font-family="Helvetica,sans-Serif" font-size="10.00">__osPopThread</text>
</a>
</g>
</g>
<!-- Node8&#45;&gt;Node11 -->
<g id="edge10_Node000008_Node000011" class="edge">
<title>Node8&#45;&gt;Node11</title>
<g id="a_edge10_Node000008_Node000011"><a xlink:title=" ">
<path fill="none" stroke="#63b8ff" d="M401.7,-149.49C412.32,-146.8 423.74,-143.45 434,-139.5 450.88,-132.99 453.03,-126.78 470,-120.5 523.24,-100.79 586.93,-87.49 631.21,-79.78"/>
<polygon fill="#63b8ff" stroke="#63b8ff" points="631.92,-83.21 641.19,-78.08 630.74,-76.31 631.92,-83.21"/>
</a>
</g>
</g>
<!-- Node12 -->
<g id="Node000012" class="node">
<title>Node12</title>
<g id="a_Node000012"><a xlink:href="libultra__internal_8h.html#aecafa57b85fd739d6033705808194def" target="_top" xlink:title=" ">
<polygon fill="white" stroke="#666666" points="731,-44 642,-44 642,-25 731,-25 731,-44"/>
<text text-anchor="middle" x="686.5" y="-32" font-family="Helvetica,sans-Serif" font-size="10.00">__osRestoreInt</text>
</a>
</g>
</g>
<!-- Node8&#45;&gt;Node12 -->
<g id="edge11_Node000008_Node000012" class="edge">
<title>Node8&#45;&gt;Node12</title>
<g id="a_edge11_Node000008_Node000012"><a xlink:title=" ">
<path fill="none" stroke="#63b8ff" d="M401.59,-153.12C412.78,-150.48 424.55,-146.26 434,-139.5 457.77,-122.51 446.05,-101.23 470,-84.5 517.86,-51.07 584.86,-39.72 631.4,-36"/>
<polygon fill="#63b8ff" stroke="#63b8ff" points="631.86,-39.48 641.59,-35.28 631.37,-32.5 631.86,-39.48"/>
</a>
</g>
</g>
<!-- Node13 -->
<g id="Node000013" class="node">
<title>Node13</title>
<g id="a_Node000013"><a xlink:href="osStartThread_8c.html#a3b144e814933e16a2fbf2642ad098ed3" target="_top" xlink:title=" ">
<polygon fill="white" stroke="#666666" points="572,-148 487,-148 487,-129 572,-129 572,-148"/>
<text text-anchor="middle" x="529.5" y="-136" font-family="Helvetica,sans-Serif" font-size="10.00">osStartThread</text>
</a>
</g>
</g>
<!-- Node8&#45;&gt;Node13 -->
<g id="edge12_Node000008_Node000013" class="edge">
<title>Node8&#45;&gt;Node13</title>
<g id="a_edge12_Node000008_Node000013"><a xlink:title=" ">
<path fill="none" stroke="#63b8ff" d="M401.77,-153.09C424.09,-150.52 452.55,-147.25 476.84,-144.45"/>
<polygon fill="#63b8ff" stroke="#63b8ff" points="477.44,-147.9 486.97,-143.28 476.64,-140.95 477.44,-147.9"/>
</a>
</g>
</g>
<!-- Node13&#45;&gt;Node9 -->
<g id="edge13_Node000013_Node000009" class="edge">
<title>Node13&#45;&gt;Node9</title>
<g id="a_edge13_Node000013_Node000009"><a xlink:title=" ">
<path fill="none" stroke="#63b8ff" d="M542.33,-148.1C559.58,-161.68 593.05,-186.51 625,-201.5 629.02,-203.38 633.27,-205.12 637.6,-206.71"/>
<polygon fill="#63b8ff" stroke="#63b8ff" points="636.5,-210.04 647.1,-209.96 638.77,-203.41 636.5,-210.04"/>
</a>
</g>
</g>
<!-- Node13&#45;&gt;Node10 -->
<g id="edge15_Node000013_Node000010" class="edge">
<title>Node13&#45;&gt;Node10</title>
<g id="a_edge15_Node000013_Node000010"><a xlink:title=" ">
<path fill="none" stroke="#63b8ff" d="M564.13,-148.05C586.98,-154.53 617.42,-163.17 642.1,-170.18"/>
<polygon fill="#63b8ff" stroke="#63b8ff" points="641.36,-173.61 651.93,-172.97 643.27,-166.87 641.36,-173.61"/>
</a>
</g>
</g>
<!-- Node13&#45;&gt;Node11 -->
<g id="edge17_Node000013_Node000011" class="edge">
<title>Node13&#45;&gt;Node11</title>
<g id="a_edge17_Node000013_Node000011"><a xlink:title=" ">
<path fill="none" stroke="#63b8ff" d="M551.23,-128.95C562.48,-123.68 576.59,-116.91 589,-110.5 605.26,-102.1 608.18,-97.72 625,-90.5 630.12,-88.3 635.58,-86.23 641.05,-84.32"/>
<polygon fill="#63b8ff" stroke="#63b8ff" points="642.44,-87.54 650.82,-81.06 640.23,-80.9 642.44,-87.54"/>
</a>
</g>
</g>
<!-- Node13&#45;&gt;Node12 -->
<g id="edge18_Node000013_Node000012" class="edge">
<title>Node13&#45;&gt;Node12</title>
<g id="a_edge18_Node000013_Node000012"><a xlink:title=" ">
<path fill="none" stroke="#63b8ff" d="M538.6,-128.88C553.81,-111.42 588.39,-74.38 625,-53.5 628.71,-51.38 632.69,-49.47 636.76,-47.75"/>
<polygon fill="#63b8ff" stroke="#63b8ff" points="638.29,-50.92 646.38,-44.08 635.79,-44.38 638.29,-50.92"/>
</a>
</g>
</g>
<!-- Node14 -->
<g id="Node000014" class="node">
<title>Node14</title>
<g id="a_Node000014"><a xlink:href="libultra__internal_8h.html#a650b788ebd5efde9c8cbccc1ee832445" target="_top" xlink:title=" ">
<polygon fill="white" stroke="#666666" points="744,-155 629,-155 629,-136 744,-136 744,-155"/>
<text text-anchor="middle" x="686.5" y="-143" font-family="Helvetica,sans-Serif" font-size="10.00">__osDispatchThread</text>
</a>
</g>
</g>
<!-- Node13&#45;&gt;Node14 -->
<g id="edge14_Node000013_Node000014" class="edge">
<title>Node13&#45;&gt;Node14</title>
<g id="a_edge14_Node000013_Node000014"><a xlink:title=" ">
<path fill="none" stroke="#63b8ff" d="M572.04,-140.38C586.38,-141.02 602.84,-141.77 618.69,-142.48"/>
<polygon fill="#63b8ff" stroke="#63b8ff" points="618.84,-145.99 628.98,-142.95 619.15,-139 618.84,-145.99"/>
</a>
</g>
</g>
<!-- Node15 -->
<g id="Node000015" class="node">
<title>Node15</title>
<g id="a_Node000015"><a xlink:href="libultra__internal_8h.html#ac9d6cfd19de5565e74f1d74a14e9092d" target="_top" xlink:title=" ">
<polygon fill="white" stroke="#666666" points="743.5,-118 629.5,-118 629.5,-99 743.5,-99 743.5,-118"/>
<text text-anchor="middle" x="686.5" y="-106" font-family="Helvetica,sans-Serif" font-size="10.00">__osEnqueueThread</text>
</a>
</g>
</g>
<!-- Node13&#45;&gt;Node15 -->
<g id="edge16_Node000013_Node000015" class="edge">
<title>Node13&#45;&gt;Node15</title>
<g id="a_edge16_Node000013_Node000015"><a xlink:title=" ">
<path fill="none" stroke="#63b8ff" d="M572.04,-130.46C588.76,-127.22 608.35,-123.43 626.5,-119.92"/>
<polygon fill="#63b8ff" stroke="#63b8ff" points="627.26,-123.34 636.41,-118 625.93,-116.46 627.26,-123.34"/>
</a>
</g>
</g>
<!-- Node17 -->
<g id="Node000017" class="node">
<title>Node17</title>
<g id="a_Node000017"><a xlink:href="skybox__and__splitscreen_8c.html#a1ff551b00275f32a4c52eb741006cbc2" target="_top" xlink:title=" ">
<polygon fill="white" stroke="#666666" points="389,-130 336,-130 336,-111 389,-111 389,-130"/>
<text text-anchor="middle" x="362.5" y="-118" font-family="Helvetica,sans-Serif" font-size="10.00">init_rdp</text>
</a>
</g>
</g>
<!-- Node16&#45;&gt;Node17 -->
<g id="edge20_Node000016_Node000017" class="edge">
<title>Node16&#45;&gt;Node17</title>
<g id="a_edge20_Node000016_Node000017"><a xlink:title=" ">
<path fill="none" stroke="#63b8ff" d="M214.03,-88.96C243.67,-95.3 292.75,-105.8 326.07,-112.92"/>
<polygon fill="#63b8ff" stroke="#63b8ff" points="325.36,-116.35 335.87,-115.02 326.82,-109.5 325.36,-116.35"/>
</a>
</g>
</g>
<!-- Node18 -->
<g id="Node000018" class="node">
<title>Node18</title>
<g id="a_Node000018"><a xlink:href="skybox__and__splitscreen_8c.html#af301b54a848553e5cbefdeaecc5dd67b" target="_top" xlink:title=" ">
<polygon fill="white" stroke="#666666" points="401,-93 324,-93 324,-74 401,-74 401,-93"/>
<text text-anchor="middle" x="362.5" y="-81" font-family="Helvetica,sans-Serif" font-size="10.00">init_z_buffer</text>
</a>
</g>
</g>
<!-- Node16&#45;&gt;Node18 -->
<g id="edge21_Node000016_Node000018" class="edge">
<title>Node16&#45;&gt;Node18</title>
<g id="a_edge21_Node000016_Node000018"><a xlink:title=" ">
<path fill="none" stroke="#63b8ff" d="M214.03,-83.5C240.15,-83.5 281.36,-83.5 313.59,-83.5"/>
<polygon fill="#63b8ff" stroke="#63b8ff" points="313.71,-87 323.71,-83.5 313.71,-80 313.71,-87"/>
</a>
</g>
</g>
<!-- Node19 -->
<g id="Node000019" class="node">
<title>Node19</title>
<g id="a_Node000019"><a xlink:href="skybox__and__splitscreen_8c.html#ab481a35d4548245b2a89ab574f460a14" target="_top" xlink:title=" ">
<polygon fill="white" stroke="#666666" points="417,-56 308,-56 308,-37 417,-37 417,-56"/>
<text text-anchor="middle" x="362.5" y="-44" font-family="Helvetica,sans-Serif" font-size="10.00">select_framebuffer</text>
</a>
</g>
</g>
<!-- Node16&#45;&gt;Node19 -->
<g id="edge22_Node000016_Node000019" class="edge">
<title>Node16&#45;&gt;Node19</title>
<g id="a_edge22_Node000016_Node000019"><a xlink:title=" ">
<path fill="none" stroke="#63b8ff" d="M214.03,-78.04C238.45,-72.82 276.08,-64.77 307.21,-58.11"/>
<polygon fill="#63b8ff" stroke="#63b8ff" points="308.01,-61.52 317.06,-56 306.55,-54.67 308.01,-61.52"/>
</a>
</g>
</g>
<!-- Node20 -->
<g id="Node000020" class="node">
<title>Node20</title>
<g id="a_Node000020"><a xlink:href="skybox__and__splitscreen_8c.html#aa627a5166fe0e9f01475246065b6923c" target="_top" xlink:title=" ">
<polygon fill="white" stroke="#666666" points="402.5,-19 322.5,-19 322.5,0 402.5,0 402.5,-19"/>
<text text-anchor="middle" x="362.5" y="-7" font-family="Helvetica,sans-Serif" font-size="10.00">set_viewport</text>
</a>
</g>
</g>
<!-- Node16&#45;&gt;Node20 -->
<g id="edge23_Node000016_Node000020" class="edge">
<title>Node16&#45;&gt;Node20</title>
<g id="a_edge23_Node000016_Node000020"><a xlink:title=" ">
<path fill="none" stroke="#63b8ff" d="M203.6,-73.97C223.13,-61.98 258.53,-41.39 291,-28.5 297.8,-25.8 305.13,-23.35 312.39,-21.18"/>
<polygon fill="#63b8ff" stroke="#63b8ff" points="313.53,-24.49 322.19,-18.39 311.62,-17.76 313.53,-24.49"/>
</a>
</g>
</g>
</g>
</svg>

<g id="navigator" transform="translate(0 0)" fill="#404254">
  <rect fill="#f2f5e9" fill-opacity="0.5" stroke="#606060" stroke-width=".5" x="0" y="0" width="60" height="60"/>
  <use id="zoomplus" xlink:href="#zoomPlus" x="17" y="9" onmousedown="handleZoom(evt,'in')"/>
  <use id="zoomminus" xlink:href="#zoomMin" x="42" y="9" onmousedown="handleZoom(evt,'out')"/>
  <use id="reset" xlink:href="#resetDef" x="30" y="36" onmousedown="handleReset()"/>
   <use id="arrowup" xlink:href="#arrowUp" x="0" y="0" onmousedown="handlePan(0,-1)"/>
  <use id="arrowright" xlink:href="#arrowRight" x="0" y="0" onmousedown="handlePan(1,0)"/>
  <use id="arrowdown" xlink:href="#arrowDown" x="0" y="0" onmousedown="handlePan(0,1)"/>
  <use id="arrowleft" xlink:href="#arrowLeft" x="0" y="0" onmousedown="handlePan(-1,0)"/>
</g>
<svg viewBox="0 0 15 15" width="100%" height="30px" preserveAspectRatio="xMaxYMin meet">
 <g id="arrow_out" transform="scale(0.3 0.3)">
  <a xlink:href="main_8h_ab6de5c4a438055408ee2c63f8a86464a_cgraph_org.svg" target="_base">
   <rect id="button" ry="5" rx="5" y="6" x="6" height="38" width="38"
        fill="#f2f5e9" fill-opacity="0.5" stroke="#606060" stroke-width="1.0"/>
   <path id="arrow"
     d="M 11.500037,31.436501 C 11.940474,20.09759 22.043105,11.32322 32.158766,21.979434 L 37.068811,17.246167 C 37.068811,17.246167 37.088388,32 37.088388,32 L 22.160133,31.978069 C 22.160133,31.978069 26.997745,27.140456 26.997745,27.140456 C 18.528582,18.264221 13.291696,25.230495 11.500037,31.436501 z"
     style="fill:#404040;"/>
  </a>
 </g>
</svg>

<style type='text/css'>
<![CDATA[
[data-mouse-over-selected='false'] { opacity: 0.7; }
[data-mouse-over-selected='true']  { opacity: 1.0; }
]]>
</style>
<script type="application/ecmascript"><![CDATA[
document.addEventListener('DOMContentLoaded', (event) => {
  highlightEdges();
  highlightAdjacentNodes();
});
]]></script>
</svg>
