<?xml version="1.0" encoding="UTF-8" standalone="no"?>
<!DOCTYPE svg PUBLIC "-//W3C//DTD SVG 1.1//EN"
 "http://www.w3.org/Graphics/SVG/1.1/DTD/svg11.dtd">
<!-- Generated by graphviz version 2.43.0 (0)
 -->
<!-- Title: handle_sp_complete Pages: 1 -->
<svg width="862pt" height="442pt"
 viewBox="0.00 0.00 862.00 442.00" xmlns="http://www.w3.org/2000/svg" xmlns:xlink="http://www.w3.org/1999/xlink">
<g id="graph0" class="graph" transform="scale(1 1) rotate(0) translate(4 438)">
<title>handle_sp_complete</title>
<!-- Node1 -->
<g id="Node000001" class="node">
<title>Node1</title>
<g id="a_Node000001"><a xlink:title=" ">
<polygon fill="#999999" stroke="#666666" points="117,-320 0,-320 0,-301 117,-301 117,-320"/>
<text text-anchor="middle" x="58.5" y="-308" font-family="Helvetica,sans-Serif" font-size="10.00">handle_sp_complete</text>
</a>
</g>
</g>
<!-- Node2 -->
<g id="Node000002" class="node">
<title>Node2</title>
<g id="a_Node000002"><a xlink:href="osSendMesg_8c.html#a413bd1b0a16c54dcc9e59c48b3d7f142" target="_top" xlink:title=" ">
<polygon fill="white" stroke="#666666" points="260.5,-320 182.5,-320 182.5,-301 260.5,-301 260.5,-320"/>
<text text-anchor="middle" x="221.5" y="-308" font-family="Helvetica,sans-Serif" font-size="10.00">osSendMesg</text>
</a>
</g>
</g>
<!-- Node1&#45;&gt;Node2 -->
<g id="edge1_Node000001_Node000002" class="edge">
<title>Node1&#45;&gt;Node2</title>
<g id="a_edge1_Node000001_Node000002"><a xlink:title=" ">
<path fill="none" stroke="#63b8ff" d="M117.17,-310.5C135.1,-310.5 154.68,-310.5 171.93,-310.5"/>
<polygon fill="#63b8ff" stroke="#63b8ff" points="172.33,-314 182.33,-310.5 172.33,-307 172.33,-314"/>
</a>
</g>
</g>
<!-- Node10 -->
<g id="Node000010" class="node">
<title>Node10</title>
<g id="a_Node000010"><a xlink:href="osSpTaskYielded_8c.html#ab8f1191f687a4eb639b60c394e364ec2" target="_top" xlink:title=" ">
<polygon fill="white" stroke="#666666" points="270.5,-245 172.5,-245 172.5,-226 270.5,-226 270.5,-245"/>
<text text-anchor="middle" x="221.5" y="-233" font-family="Helvetica,sans-Serif" font-size="10.00">osSpTaskYielded</text>
</a>
</g>
</g>
<!-- Node1&#45;&gt;Node10 -->
<g id="edge13_Node000001_Node000010" class="edge">
<title>Node1&#45;&gt;Node10</title>
<g id="a_edge13_Node000001_Node000010"><a xlink:title=" ">
<path fill="none" stroke="#63b8ff" d="M80.22,-300.85C108.23,-287.8 158.38,-264.44 190.51,-249.47"/>
<polygon fill="#63b8ff" stroke="#63b8ff" points="192.27,-252.51 199.86,-245.11 189.32,-246.16 192.27,-252.51"/>
</a>
</g>
</g>
<!-- Node12 -->
<g id="Node000012" class="node">
<title>Node12</title>
<g id="a_Node000012"><a xlink:href="profiler_8c.html#aeaf40013d69c152d0134b0cec1a6cb4c" target="_top" xlink:title=" ">
<polygon fill="white" stroke="#666666" points="281.5,-377 161.5,-377 161.5,-358 281.5,-358 281.5,-377"/>
<text text-anchor="middle" x="221.5" y="-365" font-family="Helvetica,sans-Serif" font-size="10.00">profiler_log_gfx_time</text>
</a>
</g>
</g>
<!-- Node1&#45;&gt;Node12 -->
<g id="edge15_Node000001_Node000012" class="edge">
<title>Node1&#45;&gt;Node12</title>
<g id="a_edge15_Node000001_Node000012"><a xlink:title=" ">
<path fill="none" stroke="#63b8ff" d="M86.45,-320.04C113.15,-329.49 154.24,-344.04 183.89,-354.54"/>
<polygon fill="#63b8ff" stroke="#63b8ff" points="182.87,-357.89 193.46,-357.93 185.21,-351.29 182.87,-357.89"/>
</a>
</g>
</g>
<!-- Node14 -->
<g id="Node000014" class="node">
<title>Node14</title>
<g id="a_Node000014"><a xlink:href="profiler_8c.html#aec1c4e42709135dc4359c7d062627ee5" target="_top" xlink:title=" ">
<polygon fill="white" stroke="#666666" points="290,-424 153,-424 153,-405 290,-405 290,-424"/>
<text text-anchor="middle" x="221.5" y="-412" font-family="Helvetica,sans-Serif" font-size="10.00">profiler_log_vblank_time</text>
</a>
</g>
</g>
<!-- Node1&#45;&gt;Node14 -->
<g id="edge19_Node000001_Node000014" class="edge">
<title>Node1&#45;&gt;Node14</title>
<g id="a_edge19_Node000001_Node000014"><a xlink:title=" ">
<path fill="none" stroke="#63b8ff" d="M69.42,-320.22C85.74,-335.81 119.76,-366.67 153,-386.5 162.33,-392.07 172.97,-397.04 183,-401.2"/>
<polygon fill="#63b8ff" stroke="#63b8ff" points="181.78,-404.48 192.37,-404.93 184.37,-397.98 181.78,-404.48"/>
</a>
</g>
</g>
<!-- Node15 -->
<g id="Node000015" class="node">
<title>Node15</title>
<g id="a_Node000015"><a xlink:href="main_8c.html#aad8e1bffd4b596136b4b9ebbe974b696" target="_top" xlink:title=" ">
<polygon fill="white" stroke="#666666" points="260,-169 183,-169 183,-150 260,-150 260,-169"/>
<text text-anchor="middle" x="221.5" y="-157" font-family="Helvetica,sans-Serif" font-size="10.00">start_sptask</text>
</a>
</g>
</g>
<!-- Node1&#45;&gt;Node15 -->
<g id="edge21_Node000001_Node000015" class="edge">
<title>Node1&#45;&gt;Node15</title>
<g id="a_edge21_Node000001_Node000015"><a xlink:title=" ">
<path fill="none" stroke="#63b8ff" d="M68.83,-300.76C85.41,-283.57 121.23,-246.88 153,-217.5 168.78,-202.91 187.35,-187.04 201.01,-175.6"/>
<polygon fill="#63b8ff" stroke="#63b8ff" points="203.37,-178.19 208.81,-169.1 198.89,-172.81 203.37,-178.19"/>
</a>
</g>
</g>
<!-- Node3 -->
<g id="Node000003" class="node">
<title>Node3</title>
<g id="a_Node000003"><a xlink:href="libultra__internal_8h.html#a8ad9db8aa6bfc4437abdd0363b663b16" target="_top" xlink:title=" ">
<polygon fill="white" stroke="#666666" points="567.5,-393 479.5,-393 479.5,-374 567.5,-374 567.5,-393"/>
<text text-anchor="middle" x="523.5" y="-381" font-family="Helvetica,sans-Serif" font-size="10.00">__osDisableInt</text>
</a>
</g>
</g>
<!-- Node2&#45;&gt;Node3 -->
<g id="edge2_Node000002_Node000003" class="edge">
<title>Node2&#45;&gt;Node3</title>
<g id="a_edge2_Node000002_Node000003"><a xlink:title=" ">
<path fill="none" stroke="#63b8ff" d="M260.8,-319.82C314.85,-332.97 413.56,-356.99 473.08,-371.47"/>
<polygon fill="#63b8ff" stroke="#63b8ff" points="472.46,-374.92 483,-373.89 474.11,-368.12 472.46,-374.92"/>
</a>
</g>
</g>
<!-- Node4 -->
<g id="Node000004" class="node">
<title>Node4</title>
<g id="a_Node000004"><a xlink:href="libultra__internal_8h.html#afe9c3abc4ca93d9fe18a87d9f108d5cb" target="_top" xlink:title=" ">
<polygon fill="white" stroke="#666666" points="585,-282 462,-282 462,-263 585,-263 585,-282"/>
<text text-anchor="middle" x="523.5" y="-270" font-family="Helvetica,sans-Serif" font-size="10.00">__osEnqueueAndYield</text>
</a>
</g>
</g>
<!-- Node2&#45;&gt;Node4 -->
<g id="edge3_Node000002_Node000004" class="edge">
<title>Node2&#45;&gt;Node4</title>
<g id="a_edge3_Node000002_Node000004"><a xlink:title=" ">
<path fill="none" stroke="#63b8ff" d="M260.74,-303.18C280.22,-299.63 304.32,-295.48 326,-292.5 367.45,-286.79 414.03,-281.98 451.44,-278.51"/>
<polygon fill="#63b8ff" stroke="#63b8ff" points="452.09,-281.97 461.73,-277.57 451.45,-274.99 452.09,-281.97"/>
</a>
</g>
</g>
<!-- Node5 -->
<g id="Node000005" class="node">
<title>Node5</title>
<g id="a_Node000005"><a xlink:href="libultra__internal_8h.html#aaadded63bebce6cfdda5ecda193fc9ea" target="_top" xlink:title=" ">
<polygon fill="white" stroke="#666666" points="568.5,-245 478.5,-245 478.5,-226 568.5,-226 568.5,-245"/>
<text text-anchor="middle" x="523.5" y="-233" font-family="Helvetica,sans-Serif" font-size="10.00">__osPopThread</text>
</a>
</g>
</g>
<!-- Node2&#45;&gt;Node5 -->
<g id="edge4_Node000002_Node000005" class="edge">
<title>Node2&#45;&gt;Node5</title>
<g id="a_edge4_Node000002_Node000005"><a xlink:title=" ">
<path fill="none" stroke="#63b8ff" d="M249.06,-300.87C269.82,-293.56 299.51,-283.59 326,-276.5 373.69,-263.73 428.78,-252.54 468.46,-245.09"/>
<polygon fill="#63b8ff" stroke="#63b8ff" points="469.27,-248.5 478.46,-243.23 467.99,-241.62 469.27,-248.5"/>
</a>
</g>
</g>
<!-- Node6 -->
<g id="Node000006" class="node">
<title>Node6</title>
<g id="a_Node000006"><a xlink:href="libultra__internal_8h.html#aecafa57b85fd739d6033705808194def" target="_top" xlink:title=" ">
<polygon fill="white" stroke="#666666" points="568,-430 479,-430 479,-411 568,-411 568,-430"/>
<text text-anchor="middle" x="523.5" y="-418" font-family="Helvetica,sans-Serif" font-size="10.00">__osRestoreInt</text>
</a>
</g>
</g>
<!-- Node2&#45;&gt;Node6 -->
<g id="edge5_Node000002_Node000006" class="edge">
<title>Node2&#45;&gt;Node6</title>
<g id="a_edge5_Node000002_Node000006"><a xlink:title=" ">
<path fill="none" stroke="#63b8ff" d="M240.46,-320.17C260.82,-330.9 295.2,-348.31 326,-360.5 384.03,-383.47 400.23,-384.53 460,-402.5 466.1,-404.33 472.55,-406.24 478.9,-408.08"/>
<polygon fill="#63b8ff" stroke="#63b8ff" points="478.15,-411.51 488.72,-410.93 480.09,-404.79 478.15,-411.51"/>
</a>
</g>
</g>
<!-- Node7 -->
<g id="Node000007" class="node">
<title>Node7</title>
<g id="a_Node000007"><a xlink:href="osStartThread_8c.html#a3b144e814933e16a2fbf2642ad098ed3" target="_top" xlink:title=" ">
<polygon fill="white" stroke="#666666" points="417.5,-320 332.5,-320 332.5,-301 417.5,-301 417.5,-320"/>
<text text-anchor="middle" x="375" y="-308" font-family="Helvetica,sans-Serif" font-size="10.00">osStartThread</text>
</a>
</g>
</g>
<!-- Node2&#45;&gt;Node7 -->
<g id="edge6_Node000002_Node000007" class="edge">
<title>Node2&#45;&gt;Node7</title>
<g id="a_edge6_Node000002_Node000007"><a xlink:title=" ">
<path fill="none" stroke="#63b8ff" d="M260.73,-310.5C279.32,-310.5 301.94,-310.5 322.06,-310.5"/>
<polygon fill="#63b8ff" stroke="#63b8ff" points="322.32,-314 332.32,-310.5 322.32,-307 322.32,-314"/>
</a>
</g>
</g>
<!-- Node7&#45;&gt;Node3 -->
<g id="edge7_Node000007_Node000003" class="edge">
<title>Node7&#45;&gt;Node3</title>
<g id="a_edge7_Node000007_Node000003"><a xlink:title=" ">
<path fill="none" stroke="#63b8ff" d="M398.14,-320.16C406.5,-324.16 415.93,-329.13 424,-334.5 441.58,-346.2 441.43,-355.46 460,-365.5 463.27,-367.27 466.74,-368.88 470.29,-370.35"/>
<polygon fill="#63b8ff" stroke="#63b8ff" points="469.24,-373.69 479.83,-373.89 471.68,-367.13 469.24,-373.69"/>
</a>
</g>
</g>
<!-- Node7&#45;&gt;Node4 -->
<g id="edge9_Node000007_Node000004" class="edge">
<title>Node7&#45;&gt;Node4</title>
<g id="a_edge9_Node000007_Node000004"><a xlink:title=" ">
<path fill="none" stroke="#63b8ff" d="M412.97,-300.91C432.13,-295.94 455.71,-289.82 476.09,-284.54"/>
<polygon fill="#63b8ff" stroke="#63b8ff" points="477,-287.92 485.8,-282.02 475.24,-281.14 477,-287.92"/>
</a>
</g>
</g>
<!-- Node7&#45;&gt;Node5 -->
<g id="edge11_Node000007_Node000005" class="edge">
<title>Node7&#45;&gt;Node5</title>
<g id="a_edge11_Node000007_Node000005"><a xlink:title=" ">
<path fill="none" stroke="#63b8ff" d="M387.85,-300.96C403.53,-288.72 432.43,-267.53 460,-254.5 464.75,-252.26 469.82,-250.2 474.95,-248.34"/>
<polygon fill="#63b8ff" stroke="#63b8ff" points="476.46,-251.53 484.81,-245.01 474.22,-244.9 476.46,-251.53"/>
</a>
</g>
</g>
<!-- Node7&#45;&gt;Node6 -->
<g id="edge12_Node000007_Node000006" class="edge">
<title>Node7&#45;&gt;Node6</title>
<g id="a_edge12_Node000007_Node000006"><a xlink:title=" ">
<path fill="none" stroke="#63b8ff" d="M383.66,-320.14C400.69,-341.36 441.63,-391.09 460,-402.5 462.97,-404.34 466.13,-406 469.4,-407.5"/>
<polygon fill="#63b8ff" stroke="#63b8ff" points="468.23,-410.8 478.81,-411.29 470.84,-404.31 468.23,-410.8"/>
</a>
</g>
</g>
<!-- Node8 -->
<g id="Node000008" class="node">
<title>Node8</title>
<g id="a_Node000008"><a xlink:href="libultra__internal_8h.html#a650b788ebd5efde9c8cbccc1ee832445" target="_top" xlink:title=" ">
<polygon fill="white" stroke="#666666" points="581,-319 466,-319 466,-300 581,-300 581,-319"/>
<text text-anchor="middle" x="523.5" y="-307" font-family="Helvetica,sans-Serif" font-size="10.00">__osDispatchThread</text>
</a>
</g>
</g>
<!-- Node7&#45;&gt;Node8 -->
<g id="edge8_Node000007_Node000008" class="edge">
<title>Node7&#45;&gt;Node8</title>
<g id="a_edge8_Node000007_Node000008"><a xlink:title=" ">
<path fill="none" stroke="#63b8ff" d="M417.59,-310.22C429.4,-310.14 442.58,-310.05 455.49,-309.96"/>
<polygon fill="#63b8ff" stroke="#63b8ff" points="455.79,-313.46 465.76,-309.89 455.74,-306.46 455.79,-313.46"/>
</a>
</g>
</g>
<!-- Node9 -->
<g id="Node000009" class="node">
<title>Node9</title>
<g id="a_Node000009"><a xlink:href="libultra__internal_8h.html#ac9d6cfd19de5565e74f1d74a14e9092d" target="_top" xlink:title=" ">
<polygon fill="white" stroke="#666666" points="580.5,-356 466.5,-356 466.5,-337 580.5,-337 580.5,-356"/>
<text text-anchor="middle" x="523.5" y="-344" font-family="Helvetica,sans-Serif" font-size="10.00">__osEnqueueThread</text>
</a>
</g>
</g>
<!-- Node7&#45;&gt;Node9 -->
<g id="edge10_Node000007_Node000009" class="edge">
<title>Node7&#45;&gt;Node9</title>
<g id="a_edge10_Node000007_Node000009"><a xlink:title=" ">
<path fill="none" stroke="#63b8ff" d="M414.87,-320.05C432.99,-324.51 454.74,-329.85 473.93,-334.56"/>
<polygon fill="#63b8ff" stroke="#63b8ff" points="473.15,-337.98 483.7,-336.97 474.82,-331.18 473.15,-337.98"/>
</a>
</g>
</g>
<!-- Node11 -->
<g id="Node000011" class="node">
<title>Node11</title>
<g id="a_Node000011"><a xlink:href="____osSpGetStatus_8c.html#a8585ba23e9e10798d7bfe72e3106f596" target="_top" xlink:title=" ">
<polygon fill="white" stroke="#666666" points="424,-206 326,-206 326,-187 424,-187 424,-206"/>
<text text-anchor="middle" x="375" y="-194" font-family="Helvetica,sans-Serif" font-size="10.00">__osSpGetStatus</text>
</a>
</g>
</g>
<!-- Node10&#45;&gt;Node11 -->
<g id="edge14_Node000010_Node000011" class="edge">
<title>Node10&#45;&gt;Node11</title>
<g id="a_edge14_Node000010_Node000011"><a xlink:title=" ">
<path fill="none" stroke="#63b8ff" d="M259.56,-225.96C280,-220.7 305.57,-214.12 327.35,-208.51"/>
<polygon fill="#63b8ff" stroke="#63b8ff" points="328.25,-211.89 337.06,-206.01 326.5,-205.11 328.25,-211.89"/>
</a>
</g>
</g>
<!-- Node13 -->
<g id="Node000013" class="node">
<title>Node13</title>
<g id="a_Node000013"><a xlink:href="osGetTime_8c.html#ac9a040dcda7f29a608413f5a5c8963bf" target="_top" xlink:title=" ">
<polygon fill="white" stroke="#666666" points="410,-434 340,-434 340,-415 410,-415 410,-434"/>
<text text-anchor="middle" x="375" y="-422" font-family="Helvetica,sans-Serif" font-size="10.00">osGetTime</text>
</a>
</g>
</g>
<!-- Node12&#45;&gt;Node13 -->
<g id="edge16_Node000012_Node000013" class="edge">
<title>Node12&#45;&gt;Node13</title>
<g id="a_edge16_Node000012_Node000013"><a xlink:title=" ">
<path fill="none" stroke="#63b8ff" d="M247.86,-377.04C272.87,-386.45 311.31,-400.91 339.18,-411.4"/>
<polygon fill="#63b8ff" stroke="#63b8ff" points="337.97,-414.68 348.56,-414.93 340.43,-408.13 337.97,-414.68"/>
</a>
</g>
</g>
<!-- Node13&#45;&gt;Node3 -->
<g id="edge17_Node000013_Node000003" class="edge">
<title>Node13&#45;&gt;Node3</title>
<g id="a_edge17_Node000013_Node000003"><a xlink:title=" ">
<path fill="none" stroke="#63b8ff" d="M409.98,-414.99C430.43,-409.27 456.68,-401.92 478.68,-395.76"/>
<polygon fill="#63b8ff" stroke="#63b8ff" points="479.77,-399.09 488.45,-393.03 477.88,-392.35 479.77,-399.09"/>
</a>
</g>
</g>
<!-- Node13&#45;&gt;Node6 -->
<g id="edge18_Node000013_Node000006" class="edge">
<title>Node13&#45;&gt;Node6</title>
<g id="a_edge18_Node000013_Node000006"><a xlink:title=" ">
<path fill="none" stroke="#63b8ff" d="M410.35,-423.56C427.78,-423.09 449.34,-422.5 468.9,-421.96"/>
<polygon fill="#63b8ff" stroke="#63b8ff" points="469,-425.46 478.9,-421.69 468.81,-418.46 469,-425.46"/>
</a>
</g>
</g>
<!-- Node14&#45;&gt;Node13 -->
<g id="edge20_Node000014_Node000013" class="edge">
<title>Node14&#45;&gt;Node13</title>
<g id="a_edge20_Node000014_Node000013"><a xlink:title=" ">
<path fill="none" stroke="#63b8ff" d="M290.27,-418.97C303.69,-419.86 317.45,-420.77 329.83,-421.58"/>
<polygon fill="#63b8ff" stroke="#63b8ff" points="329.66,-425.08 339.87,-422.25 330.13,-418.1 329.66,-425.08"/>
</a>
</g>
</g>
<!-- Node16 -->
<g id="Node000016" class="node">
<title>Node16</title>
<g id="a_Node000016"><a xlink:href="osSpTaskLoadGo_8c.html#a1a7e41a12f9ade8d32f68d637cd4a608" target="_top" xlink:title=" ">
<polygon fill="white" stroke="#666666" points="417.5,-113 332.5,-113 332.5,-94 417.5,-94 417.5,-113"/>
<text text-anchor="middle" x="375" y="-101" font-family="Helvetica,sans-Serif" font-size="10.00">osSpTaskLoad</text>
</a>
</g>
</g>
<!-- Node15&#45;&gt;Node16 -->
<g id="edge22_Node000015_Node000016" class="edge">
<title>Node15&#45;&gt;Node16</title>
<g id="a_edge22_Node000015_Node000016"><a xlink:title=" ">
<path fill="none" stroke="#63b8ff" d="M248.54,-149.87C273.41,-140.68 311.07,-126.76 338.64,-116.57"/>
<polygon fill="#63b8ff" stroke="#63b8ff" points="340.13,-119.75 348.3,-113 337.7,-113.19 340.13,-119.75"/>
</a>
</g>
</g>
<!-- Node24 -->
<g id="Node000024" class="node">
<title>Node24</title>
<g id="a_Node000024"><a xlink:href="osSpTaskLoadGo_8c.html#ad5b72d5132a9f85e6c02a18bd67f6c2c" target="_top" xlink:title=" ">
<polygon fill="white" stroke="#666666" points="424,-169 326,-169 326,-150 424,-150 424,-169"/>
<text text-anchor="middle" x="375" y="-157" font-family="Helvetica,sans-Serif" font-size="10.00">osSpTaskStartGo</text>
</a>
</g>
</g>
<!-- Node15&#45;&gt;Node24 -->
<g id="edge31_Node000015_Node000024" class="edge">
<title>Node15&#45;&gt;Node24</title>
<g id="a_edge31_Node000015_Node000024"><a xlink:title=" ">
<path fill="none" stroke="#63b8ff" d="M260.34,-159.5C277.05,-159.5 297.08,-159.5 315.64,-159.5"/>
<polygon fill="#63b8ff" stroke="#63b8ff" points="315.77,-163 325.77,-159.5 315.77,-156 315.77,-163"/>
</a>
</g>
</g>
<!-- Node17 -->
<g id="Node000017" class="node">
<title>Node17</title>
<g id="a_Node000017"><a xlink:href="____osSpDeviceBusy_8c.html#a21a4135251f586467a7805b70ec0b645" target="_top" xlink:title=" ">
<polygon fill="white" stroke="#666666" points="732.5,-94 624.5,-94 624.5,-75 732.5,-75 732.5,-94"/>
<text text-anchor="middle" x="678.5" y="-82" font-family="Helvetica,sans-Serif" font-size="10.00">__osSpDeviceBusy</text>
</a>
</g>
</g>
<!-- Node16&#45;&gt;Node17 -->
<g id="edge23_Node000016_Node000017" class="edge">
<title>Node16&#45;&gt;Node17</title>
<g id="a_edge23_Node000016_Node000017"><a xlink:title=" ">
<path fill="none" stroke="#63b8ff" d="M417.61,-100.88C468.43,-97.68 554.92,-92.22 614.06,-88.5"/>
<polygon fill="#63b8ff" stroke="#63b8ff" points="614.64,-91.97 624.4,-87.85 614.2,-84.98 614.64,-91.97"/>
</a>
</g>
</g>
<!-- Node18 -->
<g id="Node000018" class="node">
<title>Node18</title>
<g id="a_Node000018"><a xlink:href="____osSpRawStartDma_8c.html#af00271e6db83d4ce21ee26c0aa7a622d" target="_top" xlink:title=" ">
<polygon fill="white" stroke="#666666" points="582.5,-56 464.5,-56 464.5,-37 582.5,-37 582.5,-56"/>
<text text-anchor="middle" x="523.5" y="-44" font-family="Helvetica,sans-Serif" font-size="10.00">__osSpRawStartDma</text>
</a>
</g>
</g>
<!-- Node16&#45;&gt;Node18 -->
<g id="edge24_Node000016_Node000018" class="edge">
<title>Node16&#45;&gt;Node18</title>
<g id="a_edge24_Node000016_Node000018"><a xlink:title=" ">
<path fill="none" stroke="#63b8ff" d="M400.24,-93.92C417.01,-87.31 439.84,-78.33 460,-70.5 469.07,-66.98 478.89,-63.19 488,-59.69"/>
<polygon fill="#63b8ff" stroke="#63b8ff" points="489.46,-62.88 497.54,-56.03 486.95,-56.35 489.46,-62.88"/>
</a>
</g>
</g>
<!-- Node21 -->
<g id="Node000021" class="node">
<title>Node21</title>
<g id="a_Node000021"><a xlink:href="____osSpSetPc_8c.html#ab758ecffb0f9c905cdc7d044770535cb" target="_top" xlink:title=" ">
<polygon fill="white" stroke="#666666" points="562,-19 485,-19 485,0 562,0 562,-19"/>
<text text-anchor="middle" x="523.5" y="-7" font-family="Helvetica,sans-Serif" font-size="10.00">__osSpSetPc</text>
</a>
</g>
</g>
<!-- Node16&#45;&gt;Node21 -->
<g id="edge28_Node000016_Node000021" class="edge">
<title>Node16&#45;&gt;Node21</title>
<g id="a_edge28_Node000016_Node000021"><a xlink:title=" ">
<path fill="none" stroke="#63b8ff" d="M384.01,-93.81C397.86,-77.69 427.87,-45.39 460,-27.5 464.75,-24.86 469.92,-22.57 475.19,-20.6"/>
<polygon fill="#63b8ff" stroke="#63b8ff" points="476.35,-23.91 484.7,-17.39 474.11,-17.27 476.35,-23.91"/>
</a>
</g>
</g>
<!-- Node22 -->
<g id="Node000022" class="node">
<title>Node22</title>
<g id="a_Node000022"><a xlink:href="____osSpSetStatus_8c.html#a29b072707af89f28d1f34595c865b9ba" target="_top" xlink:title=" ">
<polygon fill="white" stroke="#666666" points="572,-169 475,-169 475,-150 572,-150 572,-169"/>
<text text-anchor="middle" x="523.5" y="-157" font-family="Helvetica,sans-Serif" font-size="10.00">__osSpSetStatus</text>
</a>
</g>
</g>
<!-- Node16&#45;&gt;Node22 -->
<g id="edge29_Node000016_Node000022" class="edge">
<title>Node16&#45;&gt;Node22</title>
<g id="a_edge29_Node000016_Node000022"><a xlink:title=" ">
<path fill="none" stroke="#63b8ff" d="M395.75,-113C412.6,-120.92 437.59,-132.19 460,-140.5 466,-142.72 472.39,-144.89 478.71,-146.92"/>
<polygon fill="#63b8ff" stroke="#63b8ff" points="477.93,-150.34 488.52,-149.98 480.02,-143.66 477.93,-150.34"/>
</a>
</g>
</g>
<!-- Node23 -->
<g id="Node000023" class="node">
<title>Node23</title>
<g id="a_Node000023"><a xlink:href="osSpTaskLoadGo_8c.html#accd51a65f4790f07ecb0371923455ffd" target="_top" xlink:title=" ">
<polygon fill="white" stroke="#666666" points="587,-132 460,-132 460,-113 587,-113 587,-132"/>
<text text-anchor="middle" x="523.5" y="-120" font-family="Helvetica,sans-Serif" font-size="10.00">_VirtualToPhysicalTask</text>
</a>
</g>
</g>
<!-- Node16&#45;&gt;Node23 -->
<g id="edge30_Node000016_Node000023" class="edge">
<title>Node16&#45;&gt;Node23</title>
<g id="a_edge30_Node000016_Node000023"><a xlink:title=" ">
<path fill="none" stroke="#63b8ff" d="M417.59,-108.89C427.63,-110.2 438.65,-111.63 449.66,-113.05"/>
<polygon fill="#63b8ff" stroke="#63b8ff" points="449.37,-116.54 459.74,-114.36 450.27,-109.6 449.37,-116.54"/>
</a>
</g>
</g>
<!-- Node18&#45;&gt;Node17 -->
<g id="edge25_Node000018_Node000017" class="edge">
<title>Node18&#45;&gt;Node17</title>
<g id="a_edge25_Node000018_Node000017"><a xlink:title=" ">
<path fill="none" stroke="#63b8ff" d="M563.11,-56.09C583.21,-61.08 607.98,-67.23 629.32,-72.53"/>
<polygon fill="#63b8ff" stroke="#63b8ff" points="628.62,-75.97 639.17,-74.98 630.31,-69.17 628.62,-75.97"/>
</a>
</g>
</g>
<!-- Node19 -->
<g id="Node000019" class="node">
<title>Node19</title>
<g id="a_Node000019"><a xlink:href="osVirtualToPhysical_8c.html#a87fb0b956b8effcecdf9585577895570" target="_top" xlink:title=" ">
<polygon fill="white" stroke="#666666" points="734,-56 623,-56 623,-37 734,-37 734,-56"/>
<text text-anchor="middle" x="678.5" y="-44" font-family="Helvetica,sans-Serif" font-size="10.00">osVirtualToPhysical</text>
</a>
</g>
</g>
<!-- Node18&#45;&gt;Node19 -->
<g id="edge26_Node000018_Node000019" class="edge">
<title>Node18&#45;&gt;Node19</title>
<g id="a_edge26_Node000018_Node000019"><a xlink:title=" ">
<path fill="none" stroke="#63b8ff" d="M582.78,-46.5C592.56,-46.5 602.76,-46.5 612.69,-46.5"/>
<polygon fill="#63b8ff" stroke="#63b8ff" points="612.91,-50 622.91,-46.5 612.91,-43 612.91,-50"/>
</a>
</g>
</g>
<!-- Node20 -->
<g id="Node000020" class="node">
<title>Node20</title>
<g id="a_Node000020"><a xlink:href="libultra__internal_8h.html#a4f7c83166c9481713d4b56defd0888c7" target="_top" xlink:title=" ">
<polygon fill="white" stroke="#666666" points="854,-56 770,-56 770,-37 854,-37 854,-56"/>
<text text-anchor="middle" x="812" y="-44" font-family="Helvetica,sans-Serif" font-size="10.00">__osProbeTLB</text>
</a>
</g>
</g>
<!-- Node19&#45;&gt;Node20 -->
<g id="edge27_Node000019_Node000020" class="edge">
<title>Node19&#45;&gt;Node20</title>
<g id="a_edge27_Node000019_Node000020"><a xlink:title=" ">
<path fill="none" stroke="#63b8ff" d="M734.13,-46.5C742.65,-46.5 751.44,-46.5 759.89,-46.5"/>
<polygon fill="#63b8ff" stroke="#63b8ff" points="759.98,-50 769.98,-46.5 759.98,-43 759.98,-50"/>
</a>
</g>
</g>
<!-- Node24&#45;&gt;Node17 -->
<g id="edge32_Node000024_Node000017" class="edge">
<title>Node24&#45;&gt;Node17</title>
<g id="a_edge32_Node000024_Node000017"><a xlink:title=" ">
<path fill="none" stroke="#63b8ff" d="M400.91,-169.11C441.63,-183.23 524.22,-205.21 587,-178.5 623.12,-163.14 651.8,-125.52 666.57,-102.8"/>
<polygon fill="#63b8ff" stroke="#63b8ff" points="669.68,-104.42 672.02,-94.09 663.75,-100.7 669.68,-104.42"/>
</a>
</g>
</g>
<!-- Node24&#45;&gt;Node22 -->
<g id="edge33_Node000024_Node000022" class="edge">
<title>Node24&#45;&gt;Node22</title>
<g id="a_edge33_Node000024_Node000022"><a xlink:title=" ">
<path fill="none" stroke="#63b8ff" d="M424.38,-159.5C437.26,-159.5 451.31,-159.5 464.65,-159.5"/>
<polygon fill="#63b8ff" stroke="#63b8ff" points="464.67,-163 474.67,-159.5 464.67,-156 464.67,-163"/>
</a>
</g>
</g>
</g>
</svg>
