<?xml version="1.0" encoding="UTF-8" standalone="no"?>
<!DOCTYPE svg PUBLIC "-//W3C//DTD SVG 1.1//EN"
 "http://www.w3.org/Graphics/SVG/1.1/DTD/svg11.dtd">
<!-- Generated by graphviz version 2.43.0 (0)
 -->
<!-- Title: func_80042000 Pages: 1 -->
<svg width="582pt" height="153pt"
 viewBox="0.00 0.00 582.00 152.50" xmlns="http://www.w3.org/2000/svg" xmlns:xlink="http://www.w3.org/1999/xlink">
<g id="graph0" class="graph" transform="scale(1 1) rotate(0) translate(4 148.5)">
<title>func_80042000</title>
<!-- Node1 -->
<g id="Node000001" class="node">
<title>Node1</title>
<g id="a_Node000001"><a xlink:title=" ">
<polygon fill="#999999" stroke="#666666" points="91,-75 0,-75 0,-56 91,-56 91,-75"/>
<text text-anchor="middle" x="45.5" y="-63" font-family="Helvetica,sans-Serif" font-size="10.00">func_80042000</text>
</a>
</g>
</g>
<!-- Node2 -->
<g id="Node000002" class="node">
<title>Node2</title>
<g id="a_Node000002"><a xlink:href="render__player_8c.html#ab7bf9484e155990f138e03ae5339fc84" target="_top" xlink:title=" ">
<polygon fill="white" stroke="#666666" points="254,-102.5 127,-102.5 127,-72.5 254,-72.5 254,-102.5"/>
<text text-anchor="start" x="135" y="-90.5" font-family="Helvetica,sans-Serif" font-size="10.00">convert_to_fixed_point</text>
<text text-anchor="middle" x="190.5" y="-79.5" font-family="Helvetica,sans-Serif" font-size="10.00">_matrix</text>
</a>
</g>
</g>
<!-- Node1&#45;&gt;Node2 -->
<g id="edge1_Node000001_Node000002" class="edge">
<title>Node1&#45;&gt;Node2</title>
<g id="a_edge1_Node000001_Node000002"><a xlink:title=" ">
<path fill="none" stroke="#63b8ff" d="M91.35,-72.4C99.57,-73.66 108.33,-75.01 117.1,-76.36"/>
<polygon fill="#63b8ff" stroke="#63b8ff" points="116.58,-79.82 126.99,-77.88 117.64,-72.9 116.58,-79.82"/>
</a>
</g>
</g>
<!-- Node6 -->
<g id="Node000006" class="node">
<title>Node6</title>
<g id="a_Node000006"><a xlink:href="math__util__2_8c.html#aca3e34a96d7735fc47c28d85cd2ac22c" target="_top" xlink:title=" ">
<polygon fill="white" stroke="#666666" points="244.5,-54 136.5,-54 136.5,-35 244.5,-35 244.5,-54"/>
<text text-anchor="middle" x="190.5" y="-42" font-family="Helvetica,sans-Serif" font-size="10.00">mtxf_u16_rotate_z</text>
</a>
</g>
</g>
<!-- Node1&#45;&gt;Node6 -->
<g id="edge5_Node000001_Node000006" class="edge">
<title>Node1&#45;&gt;Node6</title>
<g id="a_edge5_Node000001_Node000006"><a xlink:title=" ">
<path fill="none" stroke="#63b8ff" d="M91.35,-58.91C102.38,-57.29 114.39,-55.53 126.1,-53.81"/>
<polygon fill="#63b8ff" stroke="#63b8ff" points="126.9,-57.23 136.29,-52.31 125.89,-50.3 126.9,-57.23"/>
</a>
</g>
</g>
<!-- Node3 -->
<g id="Node000003" class="node">
<title>Node3</title>
<g id="a_Node000003"><a xlink:href="FrameInterpolation_8cpp.html#a8cf1f2d6fabc6925aa71a9515341b4aa" target="_top" xlink:title=" ">
<polygon fill="white" stroke="#666666" points="430,-144.5 290,-144.5 290,-114.5 430,-114.5 430,-144.5"/>
<text text-anchor="start" x="298" y="-132.5" font-family="Helvetica,sans-Serif" font-size="10.00">FrameInterpolation</text>
<text text-anchor="middle" x="360" y="-121.5" font-family="Helvetica,sans-Serif" font-size="10.00">_RecordMatrixMtxFToMtx</text>
</a>
</g>
</g>
<!-- Node2&#45;&gt;Node3 -->
<g id="edge2_Node000002_Node000003" class="edge">
<title>Node2&#45;&gt;Node3</title>
<g id="a_edge2_Node000002_Node000003"><a xlink:title=" ">
<path fill="none" stroke="#63b8ff" d="M251.5,-102.54C263.72,-105.61 276.68,-108.86 289.21,-112"/>
<polygon fill="#63b8ff" stroke="#63b8ff" points="288.59,-115.45 299.14,-114.49 290.29,-108.66 288.59,-115.45"/>
</a>
</g>
</g>
<!-- Node5 -->
<g id="Node000005" class="node">
<title>Node5</title>
<g id="a_Node000005"><a xlink:href="guMtxF2L_8c.html#a40ab2d64c609839ff1e0ef0de2d0dcc4" target="_top" xlink:title=" ">
<polygon fill="white" stroke="#666666" points="392.5,-96 327.5,-96 327.5,-77 392.5,-77 392.5,-96"/>
<text text-anchor="middle" x="360" y="-84" font-family="Helvetica,sans-Serif" font-size="10.00">guMtxF2L</text>
</a>
</g>
</g>
<!-- Node2&#45;&gt;Node5 -->
<g id="edge4_Node000002_Node000005" class="edge">
<title>Node2&#45;&gt;Node5</title>
<g id="a_edge4_Node000002_Node000005"><a xlink:title=" ">
<path fill="none" stroke="#63b8ff" d="M254.35,-87.12C275.34,-87 298.2,-86.86 317.19,-86.75"/>
<polygon fill="#63b8ff" stroke="#63b8ff" points="317.32,-90.25 327.3,-86.69 317.28,-83.25 317.32,-90.25"/>
</a>
</g>
</g>
<!-- Node4 -->
<g id="Node000004" class="node">
<title>Node4</title>
<g id="a_Node000004"><a xlink:href="FrameInterpolation_8cpp.html#a02c7ac5342a4d376edee38f312b480bf" target="_top" xlink:title=" ">
<polygon fill="white" stroke="#666666" points="574,-139 466,-139 466,-120 574,-120 574,-139"/>
<text text-anchor="middle" x="520" y="-127" font-family="Helvetica,sans-Serif" font-size="10.00">check_if_recording</text>
</a>
</g>
</g>
<!-- Node3&#45;&gt;Node4 -->
<g id="edge3_Node000003_Node000004" class="edge">
<title>Node3&#45;&gt;Node4</title>
<g id="a_edge3_Node000003_Node000004"><a xlink:title=" ">
<path fill="none" stroke="#63b8ff" d="M430.3,-129.5C438.79,-129.5 447.43,-129.5 455.82,-129.5"/>
<polygon fill="#63b8ff" stroke="#63b8ff" points="455.91,-133 465.91,-129.5 455.91,-126 455.91,-133"/>
</a>
</g>
</g>
<!-- Node7 -->
<g id="Node000007" class="node">
<title>Node7</title>
<g id="a_Node000007"><a xlink:href="math__util_8c.html#ae69cbf5c8d4b3b0dba2d7b4d4673689f" target="_top" xlink:title=" ">
<polygon fill="white" stroke="#666666" points="379,-56 341,-56 341,-37 379,-37 379,-56"/>
<text text-anchor="middle" x="360" y="-44" font-family="Helvetica,sans-Serif" font-size="10.00">coss</text>
</a>
</g>
</g>
<!-- Node6&#45;&gt;Node7 -->
<g id="edge6_Node000006_Node000007" class="edge">
<title>Node6&#45;&gt;Node7</title>
<g id="a_edge6_Node000006_Node000007"><a xlink:title=" ">
<path fill="none" stroke="#63b8ff" d="M244.96,-45.14C273.39,-45.48 307.21,-45.88 330.6,-46.16"/>
<polygon fill="#63b8ff" stroke="#63b8ff" points="330.82,-49.66 340.86,-46.28 330.9,-42.66 330.82,-49.66"/>
</a>
</g>
</g>
<!-- Node8 -->
<g id="Node000008" class="node">
<title>Node8</title>
<g id="a_Node000008"><a xlink:href="math__util_8c.html#a19ed3bd78fd2d3e2bd0a29f6caf48545" target="_top" xlink:title=" ">
<polygon fill="white" stroke="#666666" points="378,-19 342,-19 342,0 378,0 378,-19"/>
<text text-anchor="middle" x="360" y="-7" font-family="Helvetica,sans-Serif" font-size="10.00">sins</text>
</a>
</g>
</g>
<!-- Node6&#45;&gt;Node8 -->
<g id="edge7_Node000006_Node000008" class="edge">
<title>Node6&#45;&gt;Node8</title>
<g id="a_edge7_Node000006_Node000008"><a xlink:title=" ">
<path fill="none" stroke="#63b8ff" d="M237.27,-34.94C267.61,-28.6 306.39,-20.49 331.93,-15.16"/>
<polygon fill="#63b8ff" stroke="#63b8ff" points="332.93,-18.52 342,-13.05 331.49,-11.67 332.93,-18.52"/>
</a>
</g>
</g>
</g>
</svg>
