<?xml version="1.0" encoding="UTF-8" standalone="no"?>
<!DOCTYPE svg PUBLIC "-//W3C//DTD SVG 1.1//EN"
 "http://www.w3.org/Graphics/SVG/1.1/DTD/svg11.dtd">
<!-- Generated by graphviz version 2.43.0 (0)
 -->
<!-- Title: func_800417B4 Pages: 1 -->
<svg width="820pt" height="325pt"
 viewBox="0.00 0.00 820.00 325.00" xmlns="http://www.w3.org/2000/svg" xmlns:xlink="http://www.w3.org/1999/xlink">
<g id="graph0" class="graph" transform="scale(1 1) rotate(0) translate(4 321)">
<title>func_800417B4</title>
<!-- Node1 -->
<g id="Node000001" class="node">
<title>Node1</title>
<g id="a_Node000001"><a xlink:title=" ">
<polygon fill="#999999" stroke="#666666" points="812,-187 720,-187 720,-168 812,-168 812,-187"/>
<text text-anchor="middle" x="766" y="-175" font-family="Helvetica,sans-Serif" font-size="10.00">func_800417B4</text>
</a>
</g>
</g>
<!-- Node2 -->
<g id="Node000002" class="node">
<title>Node2</title>
<g id="a_Node000002"><a xlink:href="update__objects_8c.html#ad9ed099200f3dfa5dadc29b91dea90f9" target="_top" xlink:title=" ">
<polygon fill="white" stroke="#666666" points="656.5,-317 564.5,-317 564.5,-298 656.5,-298 656.5,-317"/>
<text text-anchor="middle" x="610.5" y="-305" font-family="Helvetica,sans-Serif" font-size="10.00">func_8007C420</text>
</a>
</g>
</g>
<!-- Node1&#45;&gt;Node2 -->
<g id="edge1_Node000001_Node000002" class="edge">
<title>Node1&#45;&gt;Node2</title>
<g id="a_edge1_Node000001_Node000002"><a xlink:title=" ">
<path fill="none" stroke="#63b8ff" d="M756.61,-196.27C744.35,-221.46 719.13,-265.77 684,-289.5 675.83,-295.02 666.12,-298.84 656.51,-301.5"/>
<polygon fill="#63b8ff" stroke="#63b8ff" points="759.85,-197.59 760.93,-187.05 753.51,-194.62 759.85,-197.59"/>
</a>
</g>
</g>
<!-- Node4 -->
<g id="Node000004" class="node">
<title>Node4</title>
<g id="a_Node000004"><a xlink:href="classOBoos.html#a3b36c7f54ce8cecb2e968dfa1481c31c" target="_top" xlink:title=" ">
<polygon fill="white" stroke="#666666" points="675,-280 546,-280 546,-261 675,-261 675,-280"/>
<text text-anchor="middle" x="610.5" y="-268" font-family="Helvetica,sans-Serif" font-size="10.00">OBoos::func_8007C550</text>
</a>
</g>
</g>
<!-- Node1&#45;&gt;Node4 -->
<g id="edge3_Node000001_Node000004" class="edge">
<title>Node1&#45;&gt;Node4</title>
<g id="a_edge3_Node000001_Node000004"><a xlink:title=" ">
<path fill="none" stroke="#63b8ff" d="M750.95,-194.86C736.1,-212.05 711.1,-237.87 684,-252.5 677.72,-255.89 670.8,-258.65 663.79,-260.9"/>
<polygon fill="#63b8ff" stroke="#63b8ff" points="753.63,-197.1 757.39,-187.2 748.28,-192.6 753.63,-197.1"/>
</a>
</g>
</g>
<!-- Node6 -->
<g id="Node000006" class="node">
<title>Node6</title>
<g id="a_Node000006"><a xlink:href="classOBat.html#abfcea8402750261c9abb041cb1784336" target="_top" xlink:title=" ">
<polygon fill="white" stroke="#666666" points="672,-243 549,-243 549,-224 672,-224 672,-243"/>
<text text-anchor="middle" x="610.5" y="-231" font-family="Helvetica,sans-Serif" font-size="10.00">OBat::func_8007DA74</text>
</a>
</g>
</g>
<!-- Node1&#45;&gt;Node6 -->
<g id="edge5_Node000001_Node000006" class="edge">
<title>Node1&#45;&gt;Node6</title>
<g id="a_edge5_Node000001_Node000006"><a xlink:title=" ">
<path fill="none" stroke="#63b8ff" d="M738.08,-191.75C722.58,-199.54 702.55,-208.92 684,-215.5 675.08,-218.67 665.35,-221.49 656,-223.91"/>
<polygon fill="#63b8ff" stroke="#63b8ff" points="739.78,-194.81 747.09,-187.14 736.59,-188.58 739.78,-194.81"/>
</a>
</g>
</g>
<!-- Node9 -->
<g id="Node000009" class="node">
<title>Node9</title>
<g id="a_Node000009"><a xlink:href="classOTrashBin.html#a3bfba89c86991d823fdbeb0cb0e65097" target="_top" xlink:title=" ">
<polygon fill="white" stroke="#666666" points="683.5,-206 537.5,-206 537.5,-187 683.5,-187 683.5,-206"/>
<text text-anchor="middle" x="610.5" y="-194" font-family="Helvetica,sans-Serif" font-size="10.00">OTrashBin::func_8007E00C</text>
</a>
</g>
</g>
<!-- Node1&#45;&gt;Node9 -->
<g id="edge8_Node000001_Node000009" class="edge">
<title>Node1&#45;&gt;Node9</title>
<g id="a_edge8_Node000001_Node000009"><a xlink:title=" ">
<path fill="none" stroke="#63b8ff" d="M709.71,-184.34C701.28,-185.39 692.48,-186.48 683.76,-187.56"/>
<polygon fill="#63b8ff" stroke="#63b8ff" points="710.28,-187.8 719.78,-183.1 709.42,-180.85 710.28,-187.8"/>
</a>
</g>
</g>
<!-- Node11 -->
<g id="Node000011" class="node">
<title>Node11</title>
<g id="a_Node000011"><a xlink:href="classOThwomp.html#a041bb7108d5a7706c95a1b28557b6b2c" target="_top" xlink:title=" ">
<polygon fill="white" stroke="#666666" points="684,-169 537,-169 537,-150 684,-150 684,-169"/>
<text text-anchor="middle" x="610.5" y="-157" font-family="Helvetica,sans-Serif" font-size="10.00">OThwomp::func_8007FB48</text>
</a>
</g>
</g>
<!-- Node1&#45;&gt;Node11 -->
<g id="edge10_Node000001_Node000011" class="edge">
<title>Node1&#45;&gt;Node11</title>
<g id="a_edge10_Node000001_Node000011"><a xlink:title=" ">
<path fill="none" stroke="#63b8ff" d="M709.79,-171.03C701.43,-170.05 692.7,-169.02 684.04,-168.01"/>
<polygon fill="#63b8ff" stroke="#63b8ff" points="709.44,-174.51 719.78,-172.2 710.25,-167.56 709.44,-174.51"/>
</a>
</g>
</g>
<!-- Node15 -->
<g id="Node000015" class="node">
<title>Node15</title>
<g id="a_Node000015"><a xlink:href="classOPenguin.html#a3cd5d92048c1a9ea031beea1ba88f1c7" target="_top" xlink:title=" ">
<polygon fill="white" stroke="#666666" points="683.5,-132 537.5,-132 537.5,-113 683.5,-113 683.5,-132"/>
<text text-anchor="middle" x="610.5" y="-120" font-family="Helvetica,sans-Serif" font-size="10.00">OPenguin::func_80084D2C</text>
</a>
</g>
</g>
<!-- Node1&#45;&gt;Node15 -->
<g id="edge14_Node000001_Node000015" class="edge">
<title>Node1&#45;&gt;Node15</title>
<g id="a_edge14_Node000001_Node000015"><a xlink:title=" ">
<path fill="none" stroke="#63b8ff" d="M736.3,-163.38C721.01,-156.21 701.75,-147.72 684,-141.5 673.93,-137.97 662.87,-134.75 652.5,-132.01"/>
<polygon fill="#63b8ff" stroke="#63b8ff" points="735.18,-166.73 745.72,-167.87 738.19,-160.41 735.18,-166.73"/>
</a>
</g>
</g>
<!-- Node18 -->
<g id="Node000018" class="node">
<title>Node18</title>
<g id="a_Node000018"><a xlink:href="code__80086E70_8c.html#a2a7d88090531c45ac05a41e45f20c74c" target="_top" xlink:title=" ">
<polygon fill="white" stroke="#666666" points="656.5,-95 564.5,-95 564.5,-76 656.5,-76 656.5,-95"/>
<text text-anchor="middle" x="610.5" y="-83" font-family="Helvetica,sans-Serif" font-size="10.00">func_800873A4</text>
</a>
</g>
</g>
<!-- Node1&#45;&gt;Node18 -->
<g id="edge17_Node000001_Node000018" class="edge">
<title>Node1&#45;&gt;Node18</title>
<g id="a_edge17_Node000001_Node000018"><a xlink:title=" ">
<path fill="none" stroke="#63b8ff" d="M750.16,-159.97C735.13,-143.3 710.39,-118.74 684,-104.5 675.64,-99.99 666.15,-96.51 656.86,-93.83"/>
<polygon fill="#63b8ff" stroke="#63b8ff" points="747.87,-162.66 757.09,-167.86 753.13,-158.04 747.87,-162.66"/>
</a>
</g>
</g>
<!-- Node19 -->
<g id="Node000019" class="node">
<title>Node19</title>
<g id="a_Node000019"><a xlink:href="code__80086E70_8c.html#aca46a8535163fddb77f5b6e90812d17f" target="_top" xlink:title=" ">
<polygon fill="white" stroke="#666666" points="656,-57 565,-57 565,-38 656,-38 656,-57"/>
<text text-anchor="middle" x="610.5" y="-45" font-family="Helvetica,sans-Serif" font-size="10.00">func_800873F4</text>
</a>
</g>
</g>
<!-- Node1&#45;&gt;Node19 -->
<g id="edge18_Node000001_Node000019" class="edge">
<title>Node1&#45;&gt;Node19</title>
<g id="a_edge18_Node000001_Node000019"><a xlink:title=" ">
<path fill="none" stroke="#63b8ff" d="M756.24,-158.83C743.71,-134.17 718.35,-91.13 684,-67.5 675.72,-61.8 665.86,-57.72 656.12,-54.8"/>
<polygon fill="#63b8ff" stroke="#63b8ff" points="753.13,-160.43 760.68,-167.87 759.42,-157.35 753.13,-160.43"/>
</a>
</g>
</g>
<!-- Node3 -->
<g id="Node000003" class="node">
<title>Node3</title>
<g id="a_Node000003"><a xlink:href="update__objects_8c.html#a0f87dba5711ff3586d5fc515bd6df6af" target="_top" xlink:title=" ">
<polygon fill="white" stroke="#666666" points="473.5,-317 381.5,-317 381.5,-298 473.5,-298 473.5,-317"/>
<text text-anchor="middle" x="427.5" y="-305" font-family="Helvetica,sans-Serif" font-size="10.00">func_8007D070</text>
</a>
</g>
</g>
<!-- Node2&#45;&gt;Node3 -->
<g id="edge2_Node000002_Node000003" class="edge">
<title>Node2&#45;&gt;Node3</title>
<g id="a_edge2_Node000002_Node000003"><a xlink:title=" ">
<path fill="none" stroke="#63b8ff" d="M554.29,-307.5C528.49,-307.5 498.17,-307.5 473.76,-307.5"/>
<polygon fill="#63b8ff" stroke="#63b8ff" points="554.29,-311 564.29,-307.5 554.29,-304 554.29,-311"/>
</a>
</g>
</g>
<!-- Node5 -->
<g id="Node000005" class="node">
<title>Node5</title>
<g id="a_Node000005"><a xlink:href="classOBoos.html#a12c6c9d602befe0bdc7383aa3f3530ed" target="_top" xlink:title=" ">
<polygon fill="white" stroke="#666666" points="464.5,-280 390.5,-280 390.5,-261 464.5,-261 464.5,-280"/>
<text text-anchor="middle" x="427.5" y="-268" font-family="Helvetica,sans-Serif" font-size="10.00">OBoos::Tick</text>
</a>
</g>
</g>
<!-- Node4&#45;&gt;Node5 -->
<g id="edge4_Node000004_Node000005" class="edge">
<title>Node4&#45;&gt;Node5</title>
<g id="a_edge4_Node000004_Node000005"><a xlink:title=" ">
<path fill="none" stroke="#63b8ff" d="M535.92,-270.5C511.4,-270.5 485.16,-270.5 464.76,-270.5"/>
<polygon fill="#63b8ff" stroke="#63b8ff" points="535.94,-274 545.94,-270.5 535.94,-267 535.94,-274"/>
</a>
</g>
</g>
<!-- Node7 -->
<g id="Node000007" class="node">
<title>Node7</title>
<g id="a_Node000007"><a xlink:href="classOBat.html#abe6fd1771280db492f7b91bc27c5a89d" target="_top" xlink:title=" ">
<polygon fill="white" stroke="#666666" points="489,-243 366,-243 366,-224 489,-224 489,-243"/>
<text text-anchor="middle" x="427.5" y="-231" font-family="Helvetica,sans-Serif" font-size="10.00">OBat::func_8007DAF8</text>
</a>
</g>
</g>
<!-- Node6&#45;&gt;Node7 -->
<g id="edge6_Node000006_Node000007" class="edge">
<title>Node6&#45;&gt;Node7</title>
<g id="a_edge6_Node000006_Node000007"><a xlink:title=" ">
<path fill="none" stroke="#63b8ff" d="M538.91,-233.5C522.51,-233.5 505.2,-233.5 489.27,-233.5"/>
<polygon fill="#63b8ff" stroke="#63b8ff" points="538.98,-237 548.98,-233.5 538.98,-230 538.98,-237"/>
</a>
</g>
</g>
<!-- Node8 -->
<g id="Node000008" class="node">
<title>Node8</title>
<g id="a_Node000008"><a xlink:href="classOBat.html#ae20ad02992d817ca3c975e94cc6f1b26" target="_top" xlink:title=" ">
<polygon fill="white" stroke="#666666" points="270,-243 203,-243 203,-224 270,-224 270,-243"/>
<text text-anchor="middle" x="236.5" y="-231" font-family="Helvetica,sans-Serif" font-size="10.00">OBat::Tick</text>
</a>
</g>
</g>
<!-- Node7&#45;&gt;Node8 -->
<g id="edge7_Node000007_Node000008" class="edge">
<title>Node7&#45;&gt;Node8</title>
<g id="a_edge7_Node000007_Node000008"><a xlink:title=" ">
<path fill="none" stroke="#63b8ff" d="M355.7,-233.5C326.36,-233.5 293.77,-233.5 270.25,-233.5"/>
<polygon fill="#63b8ff" stroke="#63b8ff" points="355.92,-237 365.92,-233.5 355.92,-230 355.92,-237"/>
</a>
</g>
</g>
<!-- Node10 -->
<g id="Node000010" class="node">
<title>Node10</title>
<g id="a_Node000010"><a xlink:href="classOTrashBin.html#af6d73933526741c82beebbed24515259" target="_top" xlink:title=" ">
<polygon fill="white" stroke="#666666" points="473.5,-206 381.5,-206 381.5,-187 473.5,-187 473.5,-206"/>
<text text-anchor="middle" x="427.5" y="-194" font-family="Helvetica,sans-Serif" font-size="10.00">OTrashBin::Tick</text>
</a>
</g>
</g>
<!-- Node9&#45;&gt;Node10 -->
<g id="edge9_Node000009_Node000010" class="edge">
<title>Node9&#45;&gt;Node10</title>
<g id="a_edge9_Node000009_Node000010"><a xlink:title=" ">
<path fill="none" stroke="#63b8ff" d="M527.28,-196.5C508.87,-196.5 490,-196.5 473.75,-196.5"/>
<polygon fill="#63b8ff" stroke="#63b8ff" points="527.44,-200 537.44,-196.5 527.44,-193 527.44,-200"/>
</a>
</g>
</g>
<!-- Node12 -->
<g id="Node000012" class="node">
<title>Node12</title>
<g id="a_Node000012"><a xlink:href="classOThwomp.html#aa081c17ef85f8cfac46a3dc5ee06c22a" target="_top" xlink:title=" ">
<polygon fill="white" stroke="#666666" points="501,-169 354,-169 354,-150 501,-150 501,-169"/>
<text text-anchor="middle" x="427.5" y="-157" font-family="Helvetica,sans-Serif" font-size="10.00">OThwomp::func_8007FF5C</text>
</a>
</g>
</g>
<!-- Node11&#45;&gt;Node12 -->
<g id="edge11_Node000011_Node000012" class="edge">
<title>Node11&#45;&gt;Node12</title>
<g id="a_edge11_Node000011_Node000012"><a xlink:title=" ">
<path fill="none" stroke="#63b8ff" d="M526.88,-159.5C518.28,-159.5 509.58,-159.5 501.09,-159.5"/>
<polygon fill="#63b8ff" stroke="#63b8ff" points="526.92,-163 536.92,-159.5 526.92,-156 526.92,-163"/>
</a>
</g>
</g>
<!-- Node13 -->
<g id="Node000013" class="node">
<title>Node13</title>
<g id="a_Node000013"><a xlink:href="classOThwomp.html#a9fc1fcf13109363c5f3125fe50f6bee9" target="_top" xlink:title=" ">
<polygon fill="white" stroke="#666666" points="318,-169 155,-169 155,-150 318,-150 318,-169"/>
<text text-anchor="middle" x="236.5" y="-157" font-family="Helvetica,sans-Serif" font-size="10.00">OThwomp::MoveFarBehaviour</text>
</a>
</g>
</g>
<!-- Node12&#45;&gt;Node13 -->
<g id="edge12_Node000012_Node000013" class="edge">
<title>Node12&#45;&gt;Node13</title>
<g id="a_edge12_Node000012_Node000013"><a xlink:title=" ">
<path fill="none" stroke="#63b8ff" d="M343.95,-159.5C335.34,-159.5 326.6,-159.5 318.02,-159.5"/>
<polygon fill="#63b8ff" stroke="#63b8ff" points="343.97,-163 353.97,-159.5 343.97,-156 343.97,-163"/>
</a>
</g>
</g>
<!-- Node14 -->
<g id="Node000014" class="node">
<title>Node14</title>
<g id="a_Node000014"><a xlink:href="classOThwomp.html#ade9abcb1581897ba5376f12e1c7ed1ca" target="_top" xlink:title=" ">
<polygon fill="white" stroke="#666666" points="119,-169 0,-169 0,-150 119,-150 119,-169"/>
<text text-anchor="middle" x="59.5" y="-157" font-family="Helvetica,sans-Serif" font-size="10.00">OThwomp::Tick60fps</text>
</a>
</g>
</g>
<!-- Node13&#45;&gt;Node14 -->
<g id="edge13_Node000013_Node000014" class="edge">
<title>Node13&#45;&gt;Node14</title>
<g id="a_edge13_Node000013_Node000014"><a xlink:title=" ">
<path fill="none" stroke="#63b8ff" d="M144.75,-159.5C136.09,-159.5 127.48,-159.5 119.24,-159.5"/>
<polygon fill="#63b8ff" stroke="#63b8ff" points="144.92,-163 154.91,-159.5 144.91,-156 144.92,-163"/>
</a>
</g>
</g>
<!-- Node16 -->
<g id="Node000016" class="node">
<title>Node16</title>
<g id="a_Node000016"><a xlink:href="classOPenguin.html#a600f9bc1e20f79d59fcdc02009124588" target="_top" xlink:title=" ">
<polygon fill="white" stroke="#666666" points="298.5,-93 174.5,-93 174.5,-74 298.5,-74 298.5,-93"/>
<text text-anchor="middle" x="236.5" y="-81" font-family="Helvetica,sans-Serif" font-size="10.00">OPenguin::Behaviours</text>
</a>
</g>
</g>
<!-- Node15&#45;&gt;Node16 -->
<g id="edge15_Node000015_Node000016" class="edge">
<title>Node15&#45;&gt;Node16</title>
<g id="a_edge15_Node000015_Node000016"><a xlink:title=" ">
<path fill="none" stroke="#63b8ff" d="M527.33,-117.82C477.16,-114.53 411.75,-109.46 354,-102.5 333.04,-99.98 310.09,-96.41 290.14,-93.04"/>
<polygon fill="#63b8ff" stroke="#63b8ff" points="527.28,-121.32 537.48,-118.47 527.73,-114.34 527.28,-121.32"/>
</a>
</g>
</g>
<!-- Node17 -->
<g id="Node000017" class="node">
<title>Node17</title>
<g id="a_Node000017"><a xlink:href="classOPenguin.html#aac1264338aa7ced7c78ec7ff987a1ef7" target="_top" xlink:title=" ">
<polygon fill="white" stroke="#666666" points="104,-93 15,-93 15,-74 104,-74 104,-93"/>
<text text-anchor="middle" x="59.5" y="-81" font-family="Helvetica,sans-Serif" font-size="10.00">OPenguin::Tick</text>
</a>
</g>
</g>
<!-- Node16&#45;&gt;Node17 -->
<g id="edge16_Node000016_Node000017" class="edge">
<title>Node16&#45;&gt;Node17</title>
<g id="a_edge16_Node000016_Node000017"><a xlink:title=" ">
<path fill="none" stroke="#63b8ff" d="M164.1,-83.5C143.75,-83.5 122.19,-83.5 104.04,-83.5"/>
<polygon fill="#63b8ff" stroke="#63b8ff" points="164.29,-87 174.29,-83.5 164.29,-80 164.29,-87"/>
</a>
</g>
</g>
<!-- Node20 -->
<g id="Node000020" class="node">
<title>Node20</title>
<g id="a_Node000020"><a xlink:href="classOSeagull.html#afb8d3fd824adf5e5edbf698c94f59111" target="_top" xlink:title=" ">
<polygon fill="white" stroke="#666666" points="498,-19 357,-19 357,0 498,0 498,-19"/>
<text text-anchor="middle" x="427.5" y="-7" font-family="Helvetica,sans-Serif" font-size="10.00">OSeagull::func_8008275C</text>
</a>
</g>
</g>
<!-- Node19&#45;&gt;Node20 -->
<g id="edge19_Node000019_Node000020" class="edge">
<title>Node19&#45;&gt;Node20</title>
<g id="a_edge19_Node000019_Node000020"><a xlink:title=" ">
<path fill="none" stroke="#63b8ff" d="M554.75,-36.01C528.94,-30.59 498.5,-24.2 473.98,-19.05"/>
<polygon fill="#63b8ff" stroke="#63b8ff" points="554.25,-39.48 564.76,-38.11 555.69,-32.63 554.25,-39.48"/>
</a>
</g>
</g>
<!-- Node22 -->
<g id="Node000022" class="node">
<title>Node22</title>
<g id="a_Node000022"><a xlink:href="classOPenguin.html#ae59e73f97269e3a70fc0e1d189dc711b" target="_top" xlink:title=" ">
<polygon fill="white" stroke="#666666" points="499.5,-93 355.5,-93 355.5,-74 499.5,-74 499.5,-93"/>
<text text-anchor="middle" x="427.5" y="-81" font-family="Helvetica,sans-Serif" font-size="10.00">OPenguin::func_8008502C</text>
</a>
</g>
</g>
<!-- Node19&#45;&gt;Node22 -->
<g id="edge21_Node000019_Node000022" class="edge">
<title>Node19&#45;&gt;Node22</title>
<g id="a_edge21_Node000019_Node000022"><a xlink:title=" ">
<path fill="none" stroke="#63b8ff" d="M554.73,-58.39C529.81,-63.35 500.58,-69.16 476.53,-73.95"/>
<polygon fill="#63b8ff" stroke="#63b8ff" points="555.63,-61.78 564.76,-56.4 554.27,-54.92 555.63,-61.78"/>
</a>
</g>
</g>
<!-- Node23 -->
<g id="Node000023" class="node">
<title>Node23</title>
<g id="a_Node000023"><a xlink:href="classOPenguin.html#ae825129927de318ff6c770b915273764" target="_top" xlink:title=" ">
<polygon fill="white" stroke="#666666" points="499,-56 356,-56 356,-37 499,-37 499,-56"/>
<text text-anchor="middle" x="427.5" y="-44" font-family="Helvetica,sans-Serif" font-size="10.00">OPenguin::func_80085080</text>
</a>
</g>
</g>
<!-- Node19&#45;&gt;Node23 -->
<g id="edge23_Node000019_Node000023" class="edge">
<title>Node19&#45;&gt;Node23</title>
<g id="a_edge23_Node000019_Node000023"><a xlink:title=" ">
<path fill="none" stroke="#63b8ff" d="M554.73,-47.2C537.23,-47.1 517.6,-46.99 499.14,-46.89"/>
<polygon fill="#63b8ff" stroke="#63b8ff" points="554.74,-50.7 564.76,-47.25 554.78,-43.7 554.74,-50.7"/>
</a>
</g>
</g>
<!-- Node21 -->
<g id="Node000021" class="node">
<title>Node21</title>
<g id="a_Node000021"><a xlink:href="classOSeagull.html#a86b5da4447db382837540ab7dc34c95a" target="_top" xlink:title=" ">
<polygon fill="white" stroke="#666666" points="279.5,-19 193.5,-19 193.5,0 279.5,0 279.5,-19"/>
<text text-anchor="middle" x="236.5" y="-7" font-family="Helvetica,sans-Serif" font-size="10.00">OSeagull::Tick</text>
</a>
</g>
</g>
<!-- Node20&#45;&gt;Node21 -->
<g id="edge20_Node000020_Node000021" class="edge">
<title>Node20&#45;&gt;Node21</title>
<g id="a_edge20_Node000020_Node000021"><a xlink:title=" ">
<path fill="none" stroke="#63b8ff" d="M346.8,-9.5C323.76,-9.5 299.53,-9.5 279.75,-9.5"/>
<polygon fill="#63b8ff" stroke="#63b8ff" points="346.93,-13 356.93,-9.5 346.93,-6 346.93,-13"/>
</a>
</g>
</g>
<!-- Node22&#45;&gt;Node16 -->
<g id="edge22_Node000022_Node000016" class="edge">
<title>Node22&#45;&gt;Node16</title>
<g id="a_edge22_Node000022_Node000016"><a xlink:title=" ">
<path fill="none" stroke="#63b8ff" d="M345.17,-83.5C329.59,-83.5 313.53,-83.5 298.72,-83.5"/>
<polygon fill="#63b8ff" stroke="#63b8ff" points="345.32,-87 355.32,-83.5 345.32,-80 345.32,-87"/>
</a>
</g>
</g>
<!-- Node23&#45;&gt;Node16 -->
<g id="edge24_Node000023_Node000016" class="edge">
<title>Node23&#45;&gt;Node16</title>
<g id="a_edge24_Node000023_Node000016"><a xlink:title=" ">
<path fill="none" stroke="#63b8ff" d="M367.67,-58.02C341.56,-63.13 311.17,-69.08 286.34,-73.94"/>
<polygon fill="#63b8ff" stroke="#63b8ff" points="368.69,-61.38 377.83,-56.03 367.34,-54.51 368.69,-61.38"/>
</a>
</g>
</g>
</g>
</svg>
