<?xml version="1.0" encoding="UTF-8" standalone="no"?>
<!DOCTYPE svg PUBLIC "-//W3C//DTD SVG 1.1//EN"
 "http://www.w3.org/Graphics/SVG/1.1/DTD/svg11.dtd">
<!-- Generated by graphviz version 2.43.0 (0)
 -->
<!-- Title: random_u16 Pages: 1 -->
<!--zoomable 1667 -->

<svg id="main" version="1.1" xmlns="http://www.w3.org/2000/svg" xmlns:xlink="http://www.w3.org/1999/xlink" xml:space="preserve" onload="init(evt)">

<style type="text/css"><![CDATA[
.node, .edge {opacity: 0.7;}
.node.selected, .edge.selected {opacity: 1;}
.edge:hover path { stroke: red; }
.edge:hover polygon { stroke: red; fill: red; }
]]></style>

<defs>
  <circle id="rim" cx="0" cy="0" r="7"/>
  <circle id="rim2" cx="0" cy="0" r="3.5"/>
  <g id="zoomPlus">
    <use xlink:href="#rim" fill="#404040"><set attributeName="fill" to="#808080" begin="zoomplus.mouseover" end="zoomplus.mouseout"/></use>
    <path d="M-4,0h8M0,-4v8" fill="none" stroke="white" stroke-width="1.5" pointer-events="none"/>
  </g>
  <g id="zoomMin">
    <use xlink:href="#rim" fill="#404040"><set attributeName="fill" to="#808080" begin="zoomminus.mouseover" end="zoomminus.mouseout"/></use>
    <path d="M-4,0h8" fill="none" stroke="white" stroke-width="1.5" pointer-events="none"/>
  </g>
  <g id="arrowUp" transform="translate(30 24)">
    <use xlink:href="#rim"/>
    <path pointer-events="none" fill="none" stroke="white" stroke-width="1.5" d="M0,-3.0v7 M-2.5,-0.5L0,-3.0L2.5,-0.5"/>
  </g>
  <g id="arrowRight" transform="rotate(90) translate(36 -43)">
    <use xlink:href="#rim"/>
    <path pointer-events="none" fill="none" stroke="white" stroke-width="1.5" d="M0,-3.0v7 M-2.5,-0.5L0,-3.0L2.5,-0.5"/>
  </g>
  <g id="arrowDown" transform="rotate(180) translate(-30 -48)">
    <use xlink:href="#rim"/>
    <path pointer-events="none" fill="none" stroke="white" stroke-width="1.5" d="M0,-3.0v7 M-2.5,-0.5L0,-3.0L2.5,-0.5"/>
  </g>
  <g id="arrowLeft" transform="rotate(270) translate(-36 17)">
    <use xlink:href="#rim"/>
    <path pointer-events="none" fill="none" stroke="white" stroke-width="1.5" d="M0,-3.0v7 M-2.5,-0.5L0,-3.0L2.5,-0.5"/>
  </g>
  <g id="resetDef">
    <use xlink:href="#rim2" fill="#404040"><set attributeName="fill" to="#808080" begin="reset.mouseover" end="reset.mouseout"/></use>
  </g>
</defs>
<script type="application/ecmascript">
var viewWidth = 442;
var viewHeight = 1667;
var sectionId = 'dynsection-56';
</script>
<script type="application/ecmascript" xlink:href="svg.min.js"/>
<svg id="graph" class="graph">
<g id="viewport">
<title>random_u16</title>
<!-- Node1 -->
<g id="Node000001" class="node">
<title>Node1</title>
<g id="a_Node000001"><a xlink:title=" ">
<polygon fill="#999999" stroke="#666666" points="434,-789 357,-789 357,-770 434,-770 434,-789"/>
<text text-anchor="middle" x="395.5" y="-777" font-family="Helvetica,sans-Serif" font-size="10.00">random_u16</text>
</a>
</g>
</g>
<!-- Node2 -->
<g id="Node000002" class="node">
<title>Node2</title>
<g id="a_Node000002"><a xlink:href="math__util_8c.html#a151b63b8adf9af7e4054b3b84bd226dc" target="_top" xlink:title=" ">
<polygon fill="#fff0f0" stroke="red" points="293.5,-845 221.5,-845 221.5,-826 293.5,-826 293.5,-845"/>
<text text-anchor="middle" x="257.5" y="-833" font-family="Helvetica,sans-Serif" font-size="10.00">random_int</text>
</a>
</g>
</g>
<!-- Node1&#45;&gt;Node2 -->
<g id="edge1_Node000001_Node000002" class="edge">
<title>Node1&#45;&gt;Node2</title>
<g id="a_edge1_Node000001_Node000002"><a xlink:title=" ">
<path fill="none" stroke="#63b8ff" d="M369.33,-794.08C355.4,-801.75 337.59,-810.9 321,-817.5 312.29,-820.97 302.66,-824.08 293.62,-826.7"/>
<polygon fill="#63b8ff" stroke="#63b8ff" points="371.28,-797 378.3,-789.06 367.86,-790.89 371.28,-797"/>
</a>
</g>
</g>
<!-- Node248 -->
<g id="Node000248" class="node">
<title>Node248</title>
<g id="a_Node000248"><a xlink:href="actors_8c.html#ac586c2534258d0f108e15fd88751b760" target="_top" xlink:title=" ">
<polygon fill="#fff0f0" stroke="red" points="321,-808 194,-808 194,-789 321,-789 321,-808"/>
<text text-anchor="middle" x="257.5" y="-796" font-family="Helvetica,sans-Serif" font-size="10.00">spawn_all_item_boxes</text>
</a>
</g>
</g>
<!-- Node1&#45;&gt;Node248 -->
<g id="edge47_Node000001_Node000248" class="edge">
<title>Node1&#45;&gt;Node248</title>
<g id="a_edge47_Node000001_Node000248"><a xlink:title=" ">
<path fill="none" stroke="#63b8ff" d="M347.06,-786.13C338.71,-787.29 329.91,-788.52 321.22,-789.74"/>
<polygon fill="#63b8ff" stroke="#63b8ff" points="347.56,-789.59 356.98,-784.74 346.59,-782.66 347.56,-789.59"/>
</a>
</g>
</g>
<!-- Node271 -->
<g id="Node000271" class="node">
<title>Node271</title>
<g id="a_Node000271"><a xlink:href="actors_8c.html#a4ea5c435e8d75c52a2551d3ff64fb212" target="_top" xlink:title=" ">
<polygon fill="#fff0f0" stroke="red" points="320,-771 195,-771 195,-752 320,-752 320,-771"/>
<text text-anchor="middle" x="257.5" y="-759" font-family="Helvetica,sans-Serif" font-size="10.00">spawn_fake_item_box</text>
</a>
</g>
</g>
<!-- Node1&#45;&gt;Node271 -->
<g id="edge48_Node000001_Node000271" class="edge">
<title>Node1&#45;&gt;Node271</title>
<g id="a_edge48_Node000001_Node000271"><a xlink:title=" ">
<path fill="none" stroke="#63b8ff" d="M347.05,-773.22C338.38,-772.07 329.21,-770.86 320.18,-769.66"/>
<polygon fill="#63b8ff" stroke="#63b8ff" points="346.6,-776.69 356.98,-774.53 347.52,-769.75 346.6,-776.69"/>
</a>
</g>
</g>
<!-- Node274 -->
<g id="Node000274" class="node">
<title>Node274</title>
<g id="a_Node000274"><a xlink:href="actors_8c.html#ab94b87f4f45d885770add5f4013a753a" target="_top" xlink:title=" ">
<polygon fill="#fff0f0" stroke="red" points="307,-734 208,-734 208,-715 307,-715 307,-734"/>
<text text-anchor="middle" x="257.5" y="-722" font-family="Helvetica,sans-Serif" font-size="10.00">spawn_item_box</text>
</a>
</g>
</g>
<!-- Node1&#45;&gt;Node274 -->
<g id="edge49_Node000001_Node000274" class="edge">
<title>Node1&#45;&gt;Node274</title>
<g id="a_edge49_Node000001_Node000274"><a xlink:title=" ">
<path fill="none" stroke="#63b8ff" d="M368.1,-765.29C354.31,-758.2 337,-749.81 321,-743.5 312.24,-740.05 302.59,-736.84 293.55,-734.08"/>
<polygon fill="#63b8ff" stroke="#63b8ff" points="366.55,-768.43 377.04,-769.96 369.79,-762.23 366.55,-768.43"/>
</a>
</g>
</g>
<!-- Node3 -->
<g id="Node000003" class="node">
<title>Node3</title>
<g id="a_Node000003"><a xlink:href="classABus.html#aabc43c4a5a7c5acc7daa5e89f9d42cdb" target="_top" xlink:title=" ">
<polygon fill="#fff0f0" stroke="red" points="115,-1659 43,-1659 43,-1640 115,-1640 115,-1659"/>
<text text-anchor="middle" x="79" y="-1647" font-family="Helvetica,sans-Serif" font-size="10.00">ABus::ABus</text>
</a>
</g>
</g>
<!-- Node2&#45;&gt;Node3 -->
<g id="edge2_Node000002_Node000003" class="edge">
<title>Node2&#45;&gt;Node3</title>
<g id="a_edge2_Node000002_Node000003"><a xlink:title=" ">
<path fill="none" stroke="#63b8ff" d="M255.39,-855.35C248.66,-972.63 211.8,-1571.81 158,-1631.5 147.3,-1643.37 130.47,-1648.21 115.18,-1649.94"/>
<polygon fill="#63b8ff" stroke="#63b8ff" points="258.9,-855.2 255.98,-845.01 251.92,-854.8 258.9,-855.2"/>
</a>
</g>
</g>
<!-- Node5 -->
<g id="Node000005" class="node">
<title>Node5</title>
<g id="a_Node000005"><a xlink:href="classACar.html#a7c537f8a1af7c93b57a6fbf2f52a894d" target="_top" xlink:title=" ">
<polygon fill="#fff0f0" stroke="red" points="113.5,-1622 44.5,-1622 44.5,-1603 113.5,-1603 113.5,-1622"/>
<text text-anchor="middle" x="79" y="-1610" font-family="Helvetica,sans-Serif" font-size="10.00">ACar::ACar</text>
</a>
</g>
</g>
<!-- Node2&#45;&gt;Node5 -->
<g id="edge3_Node000002_Node000005" class="edge">
<title>Node2&#45;&gt;Node5</title>
<g id="a_edge3_Node000002_Node000005"><a xlink:title=" ">
<path fill="none" stroke="#63b8ff" d="M256.86,-855.42C258.38,-963.8 260.16,-1481.84 158,-1594.5 146.89,-1606.75 129.26,-1611.5 113.56,-1613.08"/>
<polygon fill="#63b8ff" stroke="#63b8ff" points="260.35,-855.18 256.7,-845.24 253.35,-855.29 260.35,-855.18"/>
</a>
</g>
</g>
<!-- Node7 -->
<g id="Node000007" class="node">
<title>Node7</title>
<g id="a_Node000007"><a xlink:href="classATankerTruck.html#a09577845d0c017bc5845b1cac44b5078" target="_top" xlink:title=" ">
<polygon fill="#fff0f0" stroke="red" points="153.5,-1585 4.5,-1585 4.5,-1566 153.5,-1566 153.5,-1585"/>
<text text-anchor="middle" x="79" y="-1573" font-family="Helvetica,sans-Serif" font-size="10.00">ATankerTruck::ATankerTruck</text>
</a>
</g>
</g>
<!-- Node2&#45;&gt;Node7 -->
<g id="edge4_Node000002_Node000007" class="edge">
<title>Node2&#45;&gt;Node7</title>
<g id="a_edge4_Node000002_Node000007"><a xlink:title=" ">
<path fill="none" stroke="#63b8ff" d="M256.71,-855.1C257.41,-959.62 255.41,-1450.77 158,-1557.5 155,-1560.78 151.53,-1563.53 147.76,-1565.82"/>
<polygon fill="#63b8ff" stroke="#63b8ff" points="260.21,-854.98 256.62,-845.01 253.21,-855.04 260.21,-854.98"/>
</a>
</g>
</g>
<!-- Node9 -->
<g id="Node000009" class="node">
<title>Node9</title>
<g id="a_Node000009"><a xlink:href="classATruck.html#a8b5a611d66bd00a6ddf86eec0920a583" target="_top" xlink:title=" ">
<polygon fill="#fff0f0" stroke="red" points="122,-1548 36,-1548 36,-1529 122,-1529 122,-1548"/>
<text text-anchor="middle" x="79" y="-1536" font-family="Helvetica,sans-Serif" font-size="10.00">ATruck::ATruck</text>
</a>
</g>
</g>
<!-- Node2&#45;&gt;Node9 -->
<g id="edge5_Node000002_Node000009" class="edge">
<title>Node2&#45;&gt;Node9</title>
<g id="a_edge5_Node000002_Node000009"><a xlink:title=" ">
<path fill="none" stroke="#63b8ff" d="M256.55,-855.69C256.37,-958.18 250.39,-1420 158,-1520.5 148.88,-1530.42 135.47,-1535.41 122.33,-1537.78"/>
<polygon fill="#63b8ff" stroke="#63b8ff" points="260.05,-855.48 256.55,-845.48 253.05,-855.48 260.05,-855.48"/>
</a>
</g>
</g>
<!-- Node11 -->
<g id="Node000011" class="node">
<title>Node11</title>
<g id="a_Node000011"><a xlink:href="classOBoos.html#ae483fd8a41943142007f6cc050efe7d0" target="_top" xlink:title=" ">
<polygon fill="#fff0f0" stroke="red" points="127,-1511 31,-1511 31,-1492 127,-1492 127,-1511"/>
<text text-anchor="middle" x="79" y="-1499" font-family="Helvetica,sans-Serif" font-size="10.00">OBoos::BooStart</text>
</a>
</g>
</g>
<!-- Node2&#45;&gt;Node11 -->
<g id="edge6_Node000002_Node000011" class="edge">
<title>Node2&#45;&gt;Node11</title>
<g id="a_edge6_Node000002_Node000011"><a xlink:title=" ">
<path fill="none" stroke="#63b8ff" d="M256.37,-855.53C255.3,-954.34 245.61,-1388.97 158,-1483.5 149.97,-1492.16 138.67,-1497.06 127.16,-1499.73"/>
<polygon fill="#63b8ff" stroke="#63b8ff" points="259.87,-855.44 256.46,-845.41 252.87,-855.38 259.87,-855.44"/>
</a>
</g>
</g>
<!-- Node14 -->
<g id="Node000014" class="node">
<title>Node14</title>
<g id="a_Node000014"><a xlink:href="code__80005FD0_8c.html#a124643c54f6424c7d94fcf3fc7b150ea" target="_top" xlink:title=" ">
<polygon fill="#fff0f0" stroke="red" points="144,-1474 14,-1474 14,-1455 144,-1455 144,-1474"/>
<text text-anchor="middle" x="79" y="-1462" font-family="Helvetica,sans-Serif" font-size="10.00">cpu_use_item_strategy</text>
</a>
</g>
</g>
<!-- Node2&#45;&gt;Node14 -->
<g id="edge7_Node000002_Node000014" class="edge">
<title>Node2&#45;&gt;Node14</title>
<g id="a_edge7_Node000002_Node000014"><a xlink:title=" ">
<path fill="none" stroke="#63b8ff" d="M256.16,-855.57C254.16,-951.01 240.78,-1357.98 158,-1446.5 154.01,-1450.76 149.23,-1454.11 144.03,-1456.73"/>
<polygon fill="#63b8ff" stroke="#63b8ff" points="259.67,-855.36 256.36,-845.3 252.67,-855.23 259.67,-855.36"/>
</a>
</g>
</g>
<!-- Node59 -->
<g id="Node000059" class="node">
<title>Node59</title>
<g id="a_Node000059"><a xlink:href="classStarEmitter.html#aefc0e47ab167903bdd3826262a40104c" target="_top" xlink:title=" ">
<polygon fill="white" stroke="#666666" points="129.5,-1437 28.5,-1437 28.5,-1418 129.5,-1418 129.5,-1437"/>
<text text-anchor="middle" x="79" y="-1425" font-family="Helvetica,sans-Serif" font-size="10.00">StarEmitter::Emit</text>
</a>
</g>
</g>
<!-- Node2&#45;&gt;Node59 -->
<g id="edge8_Node000002_Node000059" class="edge">
<title>Node2&#45;&gt;Node59</title>
<g id="a_edge8_Node000002_Node000059"><a xlink:title=" ">
<path fill="none" stroke="#63b8ff" d="M255.95,-855.22C252.99,-946.47 236.07,-1326.86 158,-1409.5 150.56,-1417.38 140.41,-1422.13 129.89,-1424.92"/>
<polygon fill="#63b8ff" stroke="#63b8ff" points="259.45,-855.24 256.26,-845.14 252.45,-855.03 259.45,-855.24"/>
</a>
</g>
</g>
<!-- Node60 -->
<g id="Node000060" class="node">
<title>Node60</title>
<g id="a_Node000060"><a xlink:href="code__80005FD0_8c.html#a7fc44af1268e58cc195aeab08726c3cd" target="_top" xlink:title=" ">
<polygon fill="#fff0f0" stroke="red" points="124.5,-1400 33.5,-1400 33.5,-1381 124.5,-1381 124.5,-1400"/>
<text text-anchor="middle" x="79" y="-1388" font-family="Helvetica,sans-Serif" font-size="10.00">func_8000F124</text>
</a>
</g>
</g>
<!-- Node2&#45;&gt;Node60 -->
<g id="edge9_Node000002_Node000060" class="edge">
<title>Node2&#45;&gt;Node60</title>
<g id="a_edge9_Node000002_Node000060"><a xlink:title=" ">
<path fill="none" stroke="#63b8ff" d="M255.68,-855.6C251.65,-943.85 231.17,-1295.93 158,-1372.5 149.26,-1381.64 136.88,-1386.56 124.55,-1389.1"/>
<polygon fill="#63b8ff" stroke="#63b8ff" points="259.18,-855.5 256.12,-845.36 252.19,-855.2 259.18,-855.5"/>
</a>
</g>
</g>
<!-- Node71 -->
<g id="Node000071" class="node">
<title>Node71</title>
<g id="a_Node000071"><a xlink:href="code__80005FD0_8c.html#a1d584244982fdde545473a274f700c19" target="_top" xlink:title=" ">
<polygon fill="#fff0f0" stroke="red" points="125,-1363 33,-1363 33,-1344 125,-1344 125,-1363"/>
<text text-anchor="middle" x="79" y="-1351" font-family="Helvetica,sans-Serif" font-size="10.00">func_80016C3C</text>
</a>
</g>
</g>
<!-- Node2&#45;&gt;Node71 -->
<g id="edge10_Node000002_Node000071" class="edge">
<title>Node2&#45;&gt;Node71</title>
<g id="a_edge10_Node000002_Node000071"><a xlink:title=" ">
<path fill="none" stroke="#63b8ff" d="M255.4,-855.28C250.33,-939.19 226.48,-1264.78 158,-1335.5 149.4,-1344.39 137.35,-1349.27 125.29,-1351.86"/>
<polygon fill="#63b8ff" stroke="#63b8ff" points="258.91,-855.28 255.99,-845.09 251.92,-854.87 258.91,-855.28"/>
</a>
</g>
</g>
<!-- Node92 -->
<g id="Node000092" class="node">
<title>Node92</title>
<g id="a_Node000092"><a xlink:href="code__80005FD0_8c.html#a24f79b7815d902f0c40373c892d9241b" target="_top" xlink:title=" ">
<polygon fill="#fff0f0" stroke="red" points="124.5,-1326 33.5,-1326 33.5,-1307 124.5,-1307 124.5,-1326"/>
<text text-anchor="middle" x="79" y="-1314" font-family="Helvetica,sans-Serif" font-size="10.00">func_80017054</text>
</a>
</g>
</g>
<!-- Node2&#45;&gt;Node92 -->
<g id="edge11_Node000002_Node000092" class="edge">
<title>Node2&#45;&gt;Node92</title>
<g id="a_edge11_Node000002_Node000092"><a xlink:title=" ">
<path fill="none" stroke="#63b8ff" d="M255.06,-855.33C248.84,-935.4 221.69,-1233.7 158,-1298.5 149.23,-1307.42 136.99,-1312.29 124.8,-1314.86"/>
<polygon fill="#63b8ff" stroke="#63b8ff" points="258.57,-855.39 255.83,-845.15 251.59,-854.86 258.57,-855.39"/>
</a>
</g>
</g>
<!-- Node93 -->
<g id="Node000093" class="node">
<title>Node93</title>
<g id="a_Node000093"><a xlink:href="code__80005FD0_8c.html#aad6e3847b08d305b234ce56824c3ba43" target="_top" xlink:title=" ">
<polygon fill="#fff0f0" stroke="red" points="125,-1289 33,-1289 33,-1270 125,-1270 125,-1289"/>
<text text-anchor="middle" x="79" y="-1277" font-family="Helvetica,sans-Serif" font-size="10.00">func_8001A124</text>
</a>
</g>
</g>
<!-- Node2&#45;&gt;Node93 -->
<g id="edge12_Node000002_Node000093" class="edge">
<title>Node2&#45;&gt;Node93</title>
<g id="a_edge12_Node000002_Node000093"><a xlink:title=" ">
<path fill="none" stroke="#63b8ff" d="M254.68,-855.19C247.28,-930.98 216.98,-1202.54 158,-1261.5 149.25,-1270.24 137.16,-1275.08 125.1,-1277.68"/>
<polygon fill="#63b8ff" stroke="#63b8ff" points="258.17,-855.41 255.64,-845.12 251.21,-854.74 258.17,-855.41"/>
</a>
</g>
</g>
<!-- Node94 -->
<g id="Node000094" class="node">
<title>Node94</title>
<g id="a_Node000094"><a xlink:href="code__80005FD0_8c.html#aa07ace5756348e3544752155e4aa0a0d" target="_top" xlink:title=" ">
<polygon fill="#fff0f0" stroke="red" points="125,-1252 33,-1252 33,-1233 125,-1233 125,-1252"/>
<text text-anchor="middle" x="79" y="-1240" font-family="Helvetica,sans-Serif" font-size="10.00">func_8001A220</text>
</a>
</g>
</g>
<!-- Node2&#45;&gt;Node94 -->
<g id="edge13_Node000002_Node000094" class="edge">
<title>Node2&#45;&gt;Node94</title>
<g id="a_edge13_Node000002_Node000094"><a xlink:title=" ">
<path fill="none" stroke="#63b8ff" d="M254.2,-855.31C245.49,-926.99 212.22,-1171.41 158,-1224.5 149.26,-1233.06 137.31,-1237.86 125.4,-1240.47"/>
<polygon fill="#63b8ff" stroke="#63b8ff" points="257.68,-855.69 255.39,-845.34 250.73,-854.86 257.68,-855.69"/>
</a>
</g>
</g>
<!-- Node95 -->
<g id="Node000095" class="node">
<title>Node95</title>
<g id="a_Node000095"><a xlink:href="code__80057C60_8c.html#a0340925b0b34df93b0e6ba7f54b79c64" target="_top" xlink:title=" ">
<polygon fill="#fff0f0" stroke="red" points="125,-1215 33,-1215 33,-1196 125,-1196 125,-1215"/>
<text text-anchor="middle" x="79" y="-1203" font-family="Helvetica,sans-Serif" font-size="10.00">func_8005EA94</text>
</a>
</g>
</g>
<!-- Node2&#45;&gt;Node95 -->
<g id="edge14_Node000002_Node000095" class="edge">
<title>Node2&#45;&gt;Node95</title>
<g id="a_edge14_Node000002_Node000095"><a xlink:title=" ">
<path fill="none" stroke="#63b8ff" d="M253.67,-855.13C243.61,-922.11 207.57,-1140.17 158,-1187.5 149.16,-1195.95 137.17,-1200.71 125.26,-1203.33"/>
<polygon fill="#63b8ff" stroke="#63b8ff" points="257.15,-855.48 255.15,-845.08 250.23,-854.46 257.15,-855.48"/>
</a>
</g>
</g>
<!-- Node100 -->
<g id="Node000100" class="node">
<title>Node100</title>
<g id="a_Node000100"><a xlink:href="code__80057C60_8c.html#a6c5b5f3082b6f1ad8e98e2b040e24fcb" target="_top" xlink:title=" ">
<polygon fill="#fff0f0" stroke="red" points="125,-1178 33,-1178 33,-1159 125,-1159 125,-1178"/>
<text text-anchor="middle" x="79" y="-1166" font-family="Helvetica,sans-Serif" font-size="10.00">func_8005ED48</text>
</a>
</g>
</g>
<!-- Node2&#45;&gt;Node100 -->
<g id="edge15_Node000002_Node000100" class="edge">
<title>Node2&#45;&gt;Node100</title>
<g id="a_edge15_Node000002_Node000100"><a xlink:title=" ">
<path fill="none" stroke="#63b8ff" d="M256.64,-855.5C255.87,-911.18 245.7,-1069.24 158,-1150.5 149.03,-1158.81 137.01,-1163.54 125.1,-1166.16"/>
<polygon fill="#63b8ff" stroke="#63b8ff" points="260.14,-855.25 256.68,-845.23 253.14,-855.22 260.14,-855.25"/>
</a>
</g>
</g>
<!-- Node101 -->
<g id="Node000101" class="node">
<title>Node101</title>
<g id="a_Node000101"><a xlink:href="code__80057C60_8c.html#ad058651c431797dbc78b3298f8288832" target="_top" xlink:title=" ">
<polygon fill="#fff0f0" stroke="red" points="124.5,-1141 33.5,-1141 33.5,-1122 124.5,-1122 124.5,-1141"/>
<text text-anchor="middle" x="79" y="-1129" font-family="Helvetica,sans-Serif" font-size="10.00">func_80060504</text>
</a>
</g>
</g>
<!-- Node2&#45;&gt;Node101 -->
<g id="edge16_Node000002_Node000101" class="edge">
<title>Node2&#45;&gt;Node101</title>
<g id="a_edge16_Node000002_Node000101"><a xlink:title=" ">
<path fill="none" stroke="#63b8ff" d="M255.7,-855.19C252.51,-906.16 236.68,-1043.3 158,-1113.5 148.87,-1121.64 136.81,-1126.31 124.9,-1128.94"/>
<polygon fill="#63b8ff" stroke="#63b8ff" points="259.2,-855.34 256.23,-845.17 252.21,-854.97 259.2,-855.34"/>
</a>
</g>
</g>
<!-- Node103 -->
<g id="Node000103" class="node">
<title>Node103</title>
<g id="a_Node000103"><a xlink:href="code__80057C60_8c.html#aa757c13f270502997ae61fdd3c9ae6d5" target="_top" xlink:title=" ">
<polygon fill="#fff0f0" stroke="red" points="125.5,-1104 32.5,-1104 32.5,-1085 125.5,-1085 125.5,-1104"/>
<text text-anchor="middle" x="79" y="-1092" font-family="Helvetica,sans-Serif" font-size="10.00">func_80060BCC</text>
</a>
</g>
</g>
<!-- Node2&#45;&gt;Node103 -->
<g id="edge17_Node000002_Node000103" class="edge">
<title>Node2&#45;&gt;Node103</title>
<g id="a_edge17_Node000002_Node000103"><a xlink:title=" ">
<path fill="none" stroke="#63b8ff" d="M254.48,-855.32C248.65,-901.62 227.51,-1017.38 158,-1076.5 149,-1084.15 137.38,-1088.71 125.87,-1091.38"/>
<polygon fill="#63b8ff" stroke="#63b8ff" points="257.98,-855.46 255.65,-845.13 251.03,-854.66 257.98,-855.46"/>
</a>
</g>
</g>
<!-- Node104 -->
<g id="Node000104" class="node">
<title>Node104</title>
<g id="a_Node000104"><a xlink:href="code__80057C60_8c.html#aa4950b4b4553c3908843127990dc190f" target="_top" xlink:title=" ">
<polygon fill="#fff0f0" stroke="red" points="124.5,-1067 33.5,-1067 33.5,-1048 124.5,-1048 124.5,-1067"/>
<text text-anchor="middle" x="79" y="-1055" font-family="Helvetica,sans-Serif" font-size="10.00">func_800612F8</text>
</a>
</g>
</g>
<!-- Node2&#45;&gt;Node104 -->
<g id="edge18_Node000002_Node000104" class="edge">
<title>Node2&#45;&gt;Node104</title>
<g id="a_edge18_Node000002_Node000104"><a xlink:title=" ">
<path fill="none" stroke="#63b8ff" d="M252.92,-855.04C244.35,-895.99 218.68,-991.04 158,-1039.5 148.55,-1047.05 136.52,-1051.54 124.75,-1054.19"/>
<polygon fill="#63b8ff" stroke="#63b8ff" points="256.4,-855.49 254.9,-845 249.53,-854.14 256.4,-855.49"/>
</a>
</g>
</g>
<!-- Node106 -->
<g id="Node000106" class="node">
<title>Node106</title>
<g id="a_Node000106"><a xlink:href="code__80057C60_8c.html#ae73006b9d4e7e073306579765e68c695" target="_top" xlink:title=" ">
<polygon fill="#fff0f0" stroke="red" points="124.5,-1030 33.5,-1030 33.5,-1011 124.5,-1011 124.5,-1030"/>
<text text-anchor="middle" x="79" y="-1018" font-family="Helvetica,sans-Serif" font-size="10.00">func_80061430</text>
</a>
</g>
</g>
<!-- Node2&#45;&gt;Node106 -->
<g id="edge19_Node000002_Node000106" class="edge">
<title>Node2&#45;&gt;Node106</title>
<g id="a_edge19_Node000002_Node000106"><a xlink:title=" ">
<path fill="none" stroke="#63b8ff" d="M250.74,-854.86C239.23,-890.07 209.92,-964.46 158,-1002.5 148.36,-1009.56 136.39,-1013.91 124.75,-1016.57"/>
<polygon fill="#63b8ff" stroke="#63b8ff" points="254.1,-855.86 253.75,-845.28 247.42,-853.77 254.1,-855.86"/>
</a>
</g>
</g>
<!-- Node107 -->
<g id="Node000107" class="node">
<title>Node107</title>
<g id="a_Node000107"><a xlink:href="code__80057C60_8c.html#a4d9896118ef88dc01f72a600d8b0b1c4" target="_top" xlink:title=" ">
<polygon fill="#fff0f0" stroke="red" points="125,-993 33,-993 33,-974 125,-974 125,-993"/>
<text text-anchor="middle" x="79" y="-981" font-family="Helvetica,sans-Serif" font-size="10.00">func_800615AC</text>
</a>
</g>
</g>
<!-- Node2&#45;&gt;Node107 -->
<g id="edge20_Node000002_Node000107" class="edge">
<title>Node2&#45;&gt;Node107</title>
<g id="a_edge20_Node000002_Node000107"><a xlink:title=" ">
<path fill="none" stroke="#63b8ff" d="M247.55,-854.51C232.99,-883.26 201.4,-937.4 158,-965.5 148.2,-971.84 136.43,-975.96 125.05,-978.63"/>
<polygon fill="#63b8ff" stroke="#63b8ff" points="250.87,-855.69 252.13,-845.17 244.59,-852.6 250.87,-855.69"/>
</a>
</g>
</g>
<!-- Node108 -->
<g id="Node000108" class="node">
<title>Node108</title>
<g id="a_Node000108"><a xlink:href="code__80057C60_8c.html#a610c31fa275f90df73a77baf5c263cb7" target="_top" xlink:title=" ">
<polygon fill="#fff0f0" stroke="red" points="124.5,-956 33.5,-956 33.5,-937 124.5,-937 124.5,-956"/>
<text text-anchor="middle" x="79" y="-944" font-family="Helvetica,sans-Serif" font-size="10.00">func_80061754</text>
</a>
</g>
</g>
<!-- Node2&#45;&gt;Node108 -->
<g id="edge21_Node000002_Node000108" class="edge">
<title>Node2&#45;&gt;Node108</title>
<g id="a_edge21_Node000002_Node000108"><a xlink:title=" ">
<path fill="none" stroke="#63b8ff" d="M242.98,-853.03C225.64,-874.24 193.53,-909.47 158,-928.5 147.83,-933.95 136.06,-937.75 124.79,-940.41"/>
<polygon fill="#63b8ff" stroke="#63b8ff" points="245.77,-855.14 249.27,-845.14 240.3,-850.77 245.77,-855.14"/>
</a>
</g>
</g>
<!-- Node110 -->
<g id="Node000110" class="node">
<title>Node110</title>
<g id="a_Node000110"><a xlink:href="code__80057C60_8c.html#a7b43ccf8c4348fbd39c3612d425e8532" target="_top" xlink:title=" ">
<polygon fill="#fff0f0" stroke="red" points="125,-919 33,-919 33,-900 125,-900 125,-919"/>
<text text-anchor="middle" x="79" y="-907" font-family="Helvetica,sans-Serif" font-size="10.00">func_80061A34</text>
</a>
</g>
</g>
<!-- Node2&#45;&gt;Node110 -->
<g id="edge22_Node000002_Node000110" class="edge">
<title>Node2&#45;&gt;Node110</title>
<g id="a_edge22_Node000002_Node000110"><a xlink:title=" ">
<path fill="none" stroke="#63b8ff" d="M234.38,-850.57C215,-863.15 185.69,-880.7 158,-891.5 147.64,-895.54 136.14,-898.81 125.22,-901.4"/>
<polygon fill="#63b8ff" stroke="#63b8ff" points="236.37,-853.44 242.79,-845.01 232.52,-847.6 236.37,-853.44"/>
</a>
</g>
</g>
<!-- Node111 -->
<g id="Node000111" class="node">
<title>Node111</title>
<g id="a_Node000111"><a xlink:href="code__80057C60_8c.html#ad62a778845b216d787e23626957a87e3" target="_top" xlink:title=" ">
<polygon fill="#fff0f0" stroke="red" points="125.5,-882 32.5,-882 32.5,-863 125.5,-863 125.5,-882"/>
<text text-anchor="middle" x="79" y="-870" font-family="Helvetica,sans-Serif" font-size="10.00">func_80061D4C</text>
</a>
</g>
</g>
<!-- Node2&#45;&gt;Node111 -->
<g id="edge23_Node000002_Node000111" class="edge">
<title>Node2&#45;&gt;Node111</title>
<g id="a_edge23_Node000002_Node000111"><a xlink:title=" ">
<path fill="none" stroke="#63b8ff" d="M211.14,-845.01C184.88,-850.51 151.93,-857.42 125.63,-862.93"/>
<polygon fill="#63b8ff" stroke="#63b8ff" points="212.14,-848.38 221.21,-842.9 210.7,-841.52 212.14,-848.38"/>
</a>
</g>
</g>
<!-- Node112 -->
<g id="Node000112" class="node">
<title>Node112</title>
<g id="a_Node000112"><a xlink:href="code__80057C60_8c.html#a5b4b239596decbae5f8339c9894166d1" target="_top" xlink:title=" ">
<polygon fill="#fff0f0" stroke="red" points="124.5,-845 33.5,-845 33.5,-826 124.5,-826 124.5,-845"/>
<text text-anchor="middle" x="79" y="-833" font-family="Helvetica,sans-Serif" font-size="10.00">func_80061EF4</text>
</a>
</g>
</g>
<!-- Node2&#45;&gt;Node112 -->
<g id="edge24_Node000002_Node000112" class="edge">
<title>Node2&#45;&gt;Node112</title>
<g id="a_edge24_Node000002_Node000112"><a xlink:title=" ">
<path fill="none" stroke="#63b8ff" d="M211.02,-835.5C184.46,-835.5 151.07,-835.5 124.65,-835.5"/>
<polygon fill="#63b8ff" stroke="#63b8ff" points="211.21,-839 221.21,-835.5 211.21,-832 211.21,-839"/>
</a>
</g>
</g>
<!-- Node113 -->
<g id="Node000113" class="node">
<title>Node113</title>
<g id="a_Node000113"><a xlink:href="code__80057C60_8c.html#adb4cb5cc0adce585e30dd0f7d71e0d5c" target="_top" xlink:title=" ">
<polygon fill="#fff0f0" stroke="red" points="125,-808 33,-808 33,-789 125,-789 125,-808"/>
<text text-anchor="middle" x="79" y="-796" font-family="Helvetica,sans-Serif" font-size="10.00">func_800621BC</text>
</a>
</g>
</g>
<!-- Node2&#45;&gt;Node113 -->
<g id="edge25_Node000002_Node000113" class="edge">
<title>Node2&#45;&gt;Node113</title>
<g id="a_edge25_Node000002_Node000113"><a xlink:title=" ">
<path fill="none" stroke="#63b8ff" d="M211.1,-825.98C184.74,-820.46 151.64,-813.52 125.3,-808"/>
<polygon fill="#63b8ff" stroke="#63b8ff" points="210.7,-829.48 221.21,-828.1 212.14,-822.62 210.7,-829.48"/>
</a>
</g>
</g>
<!-- Node114 -->
<g id="Node000114" class="node">
<title>Node114</title>
<g id="a_Node000114"><a xlink:href="code__80057C60_8c.html#a0100aade858dee509dd38a7701d494b9" target="_top" xlink:title=" ">
<polygon fill="#fff0f0" stroke="red" points="125,-771 33,-771 33,-752 125,-752 125,-771"/>
<text text-anchor="middle" x="79" y="-759" font-family="Helvetica,sans-Serif" font-size="10.00">func_8006A7C0</text>
</a>
</g>
</g>
<!-- Node2&#45;&gt;Node114 -->
<g id="edge26_Node000002_Node000114" class="edge">
<title>Node2&#45;&gt;Node114</title>
<g id="a_edge26_Node000002_Node000114"><a xlink:title=" ">
<path fill="none" stroke="#63b8ff" d="M211.74,-825.71C205.56,-823.48 199.47,-820.78 194,-817.5 174.32,-805.71 177.92,-791.88 158,-780.5 148.08,-774.83 136.51,-770.84 125.36,-768.04"/>
<polygon fill="#63b8ff" stroke="#63b8ff" points="210.85,-829.1 221.44,-828.83 212.99,-822.44 210.85,-829.1"/>
</a>
</g>
</g>
<!-- Node116 -->
<g id="Node000116" class="node">
<title>Node116</title>
<g id="a_Node000116"><a xlink:href="update__objects_8c.html#aa72479912cf35b6ad861d73d45097a58" target="_top" xlink:title=" ">
<polygon fill="white" stroke="#666666" points="125,-734 33,-734 33,-715 125,-715 125,-734"/>
<text text-anchor="middle" x="79" y="-722" font-family="Helvetica,sans-Serif" font-size="10.00">func_8007281C</text>
</a>
</g>
</g>
<!-- Node2&#45;&gt;Node116 -->
<g id="edge27_Node000002_Node000116" class="edge">
<title>Node2&#45;&gt;Node116</title>
<g id="a_edge27_Node000002_Node000116"><a xlink:title=" ">
<path fill="none" stroke="#63b8ff" d="M211.3,-827.47C205.05,-824.99 199.05,-821.74 194,-817.5 166.01,-793.96 186.47,-766.45 158,-743.5 148.67,-735.98 136.8,-731.36 125.16,-728.56"/>
<polygon fill="#63b8ff" stroke="#63b8ff" points="210.64,-830.94 221.23,-830.77 212.84,-824.3 210.64,-830.94"/>
</a>
</g>
</g>
<!-- Node117 -->
<g id="Node000117" class="node">
<title>Node117</title>
<g id="a_Node000117"><a xlink:href="update__objects_8c.html#af71bcb74f7fed03a11c507f3dcda2378" target="_top" xlink:title=" ">
<polygon fill="white" stroke="#666666" points="125,-697 33,-697 33,-678 125,-678 125,-697"/>
<text text-anchor="middle" x="79" y="-685" font-family="Helvetica,sans-Serif" font-size="10.00">func_800728B0</text>
</a>
</g>
</g>
<!-- Node2&#45;&gt;Node117 -->
<g id="edge28_Node000002_Node000117" class="edge">
<title>Node2&#45;&gt;Node117</title>
<g id="a_edge28_Node000002_Node000117"><a xlink:title=" ">
<path fill="none" stroke="#63b8ff" d="M211.62,-828.43C205.12,-825.83 198.96,-822.3 194,-817.5 156.72,-781.44 196.02,-741.78 158,-706.5 149.01,-698.16 136.98,-693.3 125.07,-690.53"/>
<polygon fill="#63b8ff" stroke="#63b8ff" points="210.69,-831.81 221.28,-831.61 212.87,-825.16 210.69,-831.81"/>
</a>
</g>
</g>
<!-- Node118 -->
<g id="Node000118" class="node">
<title>Node118</title>
<g id="a_Node000118"><a xlink:href="classOGrandPrixBalloons.html#a294b2e690d0bcf8904863db7dbdd48d7" target="_top" xlink:title=" ">
<polygon fill="#fff0f0" stroke="red" points="136,-659.5 22,-659.5 22,-629.5 136,-629.5 136,-659.5"/>
<text text-anchor="start" x="30" y="-647.5" font-family="Helvetica,sans-Serif" font-size="10.00">OGrandPrixBalloons</text>
<text text-anchor="middle" x="79" y="-636.5" font-family="Helvetica,sans-Serif" font-size="10.00">::func_80074924</text>
</a>
</g>
</g>
<!-- Node2&#45;&gt;Node118 -->
<g id="edge29_Node000002_Node000118" class="edge">
<title>Node2&#45;&gt;Node118</title>
<g id="a_edge29_Node000002_Node000118"><a xlink:title=" ">
<path fill="none" stroke="#63b8ff" d="M211.51,-828.84C204.97,-826.19 198.83,-822.54 194,-817.5 147.14,-768.64 204.13,-719.05 158,-669.5 151.99,-663.05 144.32,-658.25 136.14,-654.69"/>
<polygon fill="#63b8ff" stroke="#63b8ff" points="210.67,-832.25 221.27,-832.03 212.85,-825.59 210.67,-832.25"/>
</a>
</g>
</g>
<!-- Node121 -->
<g id="Node000121" class="node">
<title>Node121</title>
<g id="a_Node000121"><a xlink:href="update__objects_8c.html#a334c61a76f6c8a5736d747666cc17ba6" target="_top" xlink:title=" ">
<polygon fill="#fff0f0" stroke="red" points="125,-611 33,-611 33,-592 125,-592 125,-611"/>
<text text-anchor="middle" x="79" y="-599" font-family="Helvetica,sans-Serif" font-size="10.00">func_800750D8</text>
</a>
</g>
</g>
<!-- Node2&#45;&gt;Node121 -->
<g id="edge30_Node000002_Node000121" class="edge">
<title>Node2&#45;&gt;Node121</title>
<g id="a_edge30_Node000002_Node000121"><a xlink:title=" ">
<path fill="none" stroke="#63b8ff" d="M211.47,-829.16C204.88,-826.48 198.73,-822.73 194,-817.5 134.28,-751.51 219.08,-685.24 158,-620.5 149.49,-611.48 137.47,-606.43 125.41,-603.69"/>
<polygon fill="#63b8ff" stroke="#63b8ff" points="210.73,-832.6 221.32,-832.37 212.9,-825.95 210.73,-832.6"/>
</a>
</g>
</g>
<!-- Node125 -->
<g id="Node000125" class="node">
<title>Node125</title>
<g id="a_Node000125"><a xlink:href="update__objects_8c.html#a3adf8ea9e6bd7bba08eae49402cc7b3e" target="_top" xlink:title=" ">
<polygon fill="white" stroke="#666666" points="124.5,-574 33.5,-574 33.5,-555 124.5,-555 124.5,-574"/>
<text text-anchor="middle" x="79" y="-562" font-family="Helvetica,sans-Serif" font-size="10.00">func_80076884</text>
</a>
</g>
</g>
<!-- Node2&#45;&gt;Node125 -->
<g id="edge31_Node000002_Node000125" class="edge">
<title>Node2&#45;&gt;Node125</title>
<g id="a_edge31_Node000002_Node000125"><a xlink:title=" ">
<path fill="none" stroke="#63b8ff" d="M211.34,-829.27C204.77,-826.58 198.66,-822.8 194,-817.5 124.5,-738.5 229.13,-661.04 158,-583.5 149.43,-574.15 137.09,-569.05 124.75,-566.36"/>
<polygon fill="#63b8ff" stroke="#63b8ff" points="210.6,-832.71 221.19,-832.49 212.77,-826.06 210.6,-832.71"/>
</a>
</g>
</g>
<!-- Node126 -->
<g id="Node000126" class="node">
<title>Node126</title>
<g id="a_Node000126"><a xlink:href="update__objects_8c.html#a4e85b61ec3cf15a6827d0d67c2f07b1e" target="_top" xlink:title=" ">
<polygon fill="#fff0f0" stroke="red" points="124.5,-537 33.5,-537 33.5,-518 124.5,-518 124.5,-537"/>
<text text-anchor="middle" x="79" y="-525" font-family="Helvetica,sans-Serif" font-size="10.00">func_80077F64</text>
</a>
</g>
</g>
<!-- Node2&#45;&gt;Node126 -->
<g id="edge32_Node000002_Node000126" class="edge">
<title>Node2&#45;&gt;Node126</title>
<g id="a_edge32_Node000002_Node000126"><a xlink:title=" ">
<path fill="none" stroke="#63b8ff" d="M211.46,-829.44C204.82,-826.73 198.66,-822.9 194,-817.5 114.69,-725.45 239.2,-636.88 158,-546.5 149.52,-537.07 137.22,-531.94 124.88,-529.25"/>
<polygon fill="#63b8ff" stroke="#63b8ff" points="210.82,-832.92 221.42,-832.66 212.98,-826.25 210.82,-832.92"/>
</a>
</g>
</g>
<!-- Node130 -->
<g id="Node000130" class="node">
<title>Node130</title>
<g id="a_Node000130"><a xlink:href="update__objects_8c.html#a3be1995862278cf310334b57e7ce3b62" target="_top" xlink:title=" ">
<polygon fill="#fff0f0" stroke="red" points="124.5,-500 33.5,-500 33.5,-481 124.5,-481 124.5,-500"/>
<text text-anchor="middle" x="79" y="-488" font-family="Helvetica,sans-Serif" font-size="10.00">func_80078288</text>
</a>
</g>
</g>
<!-- Node2&#45;&gt;Node130 -->
<g id="edge33_Node000002_Node000130" class="edge">
<title>Node2&#45;&gt;Node130</title>
<g id="a_edge33_Node000002_Node000130"><a xlink:title=" ">
<path fill="none" stroke="#63b8ff" d="M211.39,-829.51C204.75,-826.79 198.61,-822.94 194,-817.5 104.86,-712.39 249.3,-612.74 158,-509.5 149.51,-499.89 137.04,-494.74 124.56,-492.08"/>
<polygon fill="#63b8ff" stroke="#63b8ff" points="210.75,-832.98 221.34,-832.72 212.9,-826.32 210.75,-832.98"/>
</a>
</g>
</g>
<!-- Node134 -->
<g id="Node000134" class="node">
<title>Node134</title>
<g id="a_Node000134"><a xlink:href="update__objects_8c.html#a37b4627d662d769f57cd28e5819ed7f8" target="_top" xlink:title=" ">
<polygon fill="#fff0f0" stroke="red" points="125,-463 33,-463 33,-444 125,-444 125,-463"/>
<text text-anchor="middle" x="79" y="-451" font-family="Helvetica,sans-Serif" font-size="10.00">func_8007B040</text>
</a>
</g>
</g>
<!-- Node2&#45;&gt;Node134 -->
<g id="edge34_Node000002_Node000134" class="edge">
<title>Node2&#45;&gt;Node134</title>
<g id="a_edge34_Node000002_Node000134"><a xlink:title=" ">
<path fill="none" stroke="#63b8ff" d="M211.33,-829.55C204.7,-826.83 198.58,-822.97 194,-817.5 95.02,-699.31 259.41,-588.61 158,-472.5 149.66,-462.95 137.39,-457.79 125.04,-455.1"/>
<polygon fill="#63b8ff" stroke="#63b8ff" points="210.69,-833.02 221.28,-832.77 212.84,-826.36 210.69,-833.02"/>
</a>
</g>
</g>
<!-- Node140 -->
<g id="Node000140" class="node">
<title>Node140</title>
<g id="a_Node000140"><a xlink:href="update__objects_8c.html#a0f87dba5711ff3586d5fc515bd6df6af" target="_top" xlink:title=" ">
<polygon fill="white" stroke="#666666" points="125,-426 33,-426 33,-407 125,-407 125,-426"/>
<text text-anchor="middle" x="79" y="-414" font-family="Helvetica,sans-Serif" font-size="10.00">func_8007D070</text>
</a>
</g>
</g>
<!-- Node2&#45;&gt;Node140 -->
<g id="edge35_Node000002_Node000140" class="edge">
<title>Node2&#45;&gt;Node140</title>
<g id="a_edge35_Node000002_Node000140"><a xlink:title=" ">
<path fill="none" stroke="#63b8ff" d="M211.28,-829.59C204.66,-826.87 198.55,-822.99 194,-817.5 139.58,-751.86 213.77,-500 158,-435.5 149.7,-425.91 137.45,-420.73 125.1,-418.05"/>
<polygon fill="#63b8ff" stroke="#63b8ff" points="210.64,-833.06 221.23,-832.82 212.8,-826.4 210.64,-833.06"/>
</a>
</g>
</g>
<!-- Node141 -->
<g id="Node000141" class="node">
<title>Node141</title>
<g id="a_Node000141"><a xlink:href="update__objects_8c.html#aa2925a041b2174084d6f3cc16d2cc705" target="_top" xlink:title=" ">
<polygon fill="#fff0f0" stroke="red" points="125,-389 33,-389 33,-370 125,-370 125,-389"/>
<text text-anchor="middle" x="79" y="-377" font-family="Helvetica,sans-Serif" font-size="10.00">func_8007D360</text>
</a>
</g>
</g>
<!-- Node2&#45;&gt;Node141 -->
<g id="edge36_Node000002_Node000141" class="edge">
<title>Node2&#45;&gt;Node141</title>
<g id="a_edge36_Node000002_Node000141"><a xlink:title=" ">
<path fill="none" stroke="#63b8ff" d="M211.24,-829.62C204.63,-826.9 198.53,-823.01 194,-817.5 134.65,-745.31 218.83,-469.45 158,-398.5 149.74,-388.87 137.5,-383.69 125.15,-381"/>
<polygon fill="#63b8ff" stroke="#63b8ff" points="210.6,-833.09 221.19,-832.85 212.76,-826.44 210.6,-833.09"/>
</a>
</g>
</g>
<!-- Node149 -->
<g id="Node000149" class="node">
<title>Node149</title>
<g id="a_Node000149"><a xlink:href="classOThwomp.html#a8fea84071b738720acc05eba3881a35c" target="_top" xlink:title=" ">
<polygon fill="#fff0f0" stroke="red" points="152.5,-352 5.5,-352 5.5,-333 152.5,-333 152.5,-352"/>
<text text-anchor="middle" x="79" y="-340" font-family="Helvetica,sans-Serif" font-size="10.00">OThwomp::func_8007F75C</text>
</a>
</g>
</g>
<!-- Node2&#45;&gt;Node149 -->
<g id="edge37_Node000002_Node000149" class="edge">
<title>Node2&#45;&gt;Node149</title>
<g id="a_edge37_Node000002_Node000149"><a xlink:title=" ">
<path fill="none" stroke="#63b8ff" d="M211.89,-829.93C205.02,-827.18 198.66,-823.21 194,-817.5 129.72,-738.75 223.9,-438.9 158,-361.5 154.75,-357.68 150.87,-354.56 146.6,-352.01"/>
<polygon fill="#63b8ff" stroke="#63b8ff" points="210.89,-833.28 221.48,-832.96 213,-826.61 210.89,-833.28"/>
</a>
</g>
</g>
<!-- Node151 -->
<g id="Node000151" class="node">
<title>Node151</title>
<g id="a_Node000151"><a xlink:href="classOMole.html#a901eaa207b141d46b109090867e70578" target="_top" xlink:title=" ">
<polygon fill="#fff0f0" stroke="red" points="143.5,-315 14.5,-315 14.5,-296 143.5,-296 143.5,-315"/>
<text text-anchor="middle" x="79" y="-303" font-family="Helvetica,sans-Serif" font-size="10.00">OMole::func_8008153C</text>
</a>
</g>
</g>
<!-- Node2&#45;&gt;Node151 -->
<g id="edge38_Node000002_Node000151" class="edge">
<title>Node2&#45;&gt;Node151</title>
<g id="a_edge38_Node000002_Node000151"><a xlink:title=" ">
<path fill="none" stroke="#63b8ff" d="M211.86,-829.95C204.99,-827.2 198.65,-823.23 194,-817.5 124.79,-732.2 228.97,-408.35 158,-324.5 154.04,-319.82 149.13,-316.19 143.73,-313.38"/>
<polygon fill="#63b8ff" stroke="#63b8ff" points="210.86,-833.3 221.45,-832.98 212.97,-826.63 210.86,-833.3"/>
</a>
</g>
</g>
<!-- Node154 -->
<g id="Node000154" class="node">
<title>Node154</title>
<g id="a_Node000154"><a xlink:href="classOMoleGroup.html#a3dc3ce99d89652add1cc50f355be0191" target="_top" xlink:title=" ">
<polygon fill="#fff0f0" stroke="red" points="158,-278 0,-278 0,-259 158,-259 158,-278"/>
<text text-anchor="middle" x="79" y="-266" font-family="Helvetica,sans-Serif" font-size="10.00">OMoleGroup::func_80081FF4</text>
</a>
</g>
</g>
<!-- Node2&#45;&gt;Node154 -->
<g id="edge39_Node000002_Node000154" class="edge">
<title>Node2&#45;&gt;Node154</title>
<g id="a_edge39_Node000002_Node000154"><a xlink:title=" ">
<path fill="none" stroke="#63b8ff" d="M211.84,-829.97C204.97,-827.22 198.63,-823.24 194,-817.5 119.85,-725.64 234.03,-377.8 158,-287.5 154.86,-283.77 151.12,-280.7 147,-278.19"/>
<polygon fill="#63b8ff" stroke="#63b8ff" points="210.84,-833.32 221.43,-833 212.95,-826.65 210.84,-833.32"/>
</a>
</g>
</g>
<!-- Node156 -->
<g id="Node000156" class="node">
<title>Node156</title>
<g id="a_Node000156"><a xlink:href="classOSeagull.html#aecaeaea3ef1cd4205d9049803ea997e5" target="_top" xlink:title=" ">
<polygon fill="#fff0f0" stroke="red" points="149.5,-241 8.5,-241 8.5,-222 149.5,-222 149.5,-241"/>
<text text-anchor="middle" x="79" y="-229" font-family="Helvetica,sans-Serif" font-size="10.00">OSeagull::func_8008241C</text>
</a>
</g>
</g>
<!-- Node2&#45;&gt;Node156 -->
<g id="edge40_Node000002_Node000156" class="edge">
<title>Node2&#45;&gt;Node156</title>
<g id="a_edge40_Node000002_Node000156"><a xlink:title=" ">
<path fill="none" stroke="#63b8ff" d="M211.82,-829.99C204.95,-827.24 198.62,-823.25 194,-817.5 114.92,-719.08 239.11,-347.26 158,-250.5 154.87,-246.76 151.13,-243.69 147.02,-241.17"/>
<polygon fill="#63b8ff" stroke="#63b8ff" points="210.82,-833.34 221.41,-833.02 212.93,-826.67 210.82,-833.34"/>
</a>
</g>
</g>
<!-- Node159 -->
<g id="Node000159" class="node">
<title>Node159</title>
<g id="a_Node000159"><a xlink:href="classOSnowman.html#a2b5f29ddc51fd99ecdfb54b04fe98d2b" target="_top" xlink:title=" ">
<polygon fill="#fff0f0" stroke="red" points="155,-204 3,-204 3,-185 155,-185 155,-204"/>
<text text-anchor="middle" x="79" y="-192" font-family="Helvetica,sans-Serif" font-size="10.00">OSnowman::func_80083538</text>
</a>
</g>
</g>
<!-- Node2&#45;&gt;Node159 -->
<g id="edge41_Node000002_Node000159" class="edge">
<title>Node2&#45;&gt;Node159</title>
<g id="a_edge41_Node000002_Node000159"><a xlink:title=" ">
<path fill="none" stroke="#63b8ff" d="M211.8,-830C204.93,-827.25 198.61,-823.26 194,-817.5 109.98,-712.52 244.18,-316.71 158,-213.5 154.87,-209.76 151.14,-206.68 147.03,-204.16"/>
<polygon fill="#63b8ff" stroke="#63b8ff" points="210.8,-833.35 221.39,-833.03 212.91,-826.68 210.8,-833.35"/>
</a>
</g>
</g>
<!-- Node162 -->
<g id="Node000162" class="node">
<title>Node162</title>
<g id="a_Node000162"><a xlink:href="classOSnowman.html#a7da2e88a097b76ce683e5317ac7a8b71" target="_top" xlink:title=" ">
<polygon fill="#fff0f0" stroke="red" points="155,-167 3,-167 3,-148 155,-148 155,-167"/>
<text text-anchor="middle" x="79" y="-155" font-family="Helvetica,sans-Serif" font-size="10.00">OSnowman::func_80083868</text>
</a>
</g>
</g>
<!-- Node2&#45;&gt;Node162 -->
<g id="edge42_Node000002_Node000162" class="edge">
<title>Node2&#45;&gt;Node162</title>
<g id="a_edge42_Node000002_Node000162"><a xlink:title=" ">
<path fill="none" stroke="#63b8ff" d="M211.78,-830.01C204.92,-827.26 198.6,-823.27 194,-817.5 105.04,-705.96 249.25,-286.17 158,-176.5 154.88,-172.75 151.15,-169.67 147.05,-167.15"/>
<polygon fill="#63b8ff" stroke="#63b8ff" points="210.78,-833.37 221.37,-833.05 212.89,-826.69 210.78,-833.37"/>
</a>
</g>
</g>
<!-- Node164 -->
<g id="Node000164" class="node">
<title>Node164</title>
<g id="a_Node000164"><a xlink:href="update__objects_8c.html#aab38c04d81699ccb47b1491a5c828584" target="_top" xlink:title=" ">
<polygon fill="#fff0f0" stroke="red" points="125,-130 33,-130 33,-111 125,-111 125,-130"/>
<text text-anchor="middle" x="79" y="-118" font-family="Helvetica,sans-Serif" font-size="10.00">func_80083FD0</text>
</a>
</g>
</g>
<!-- Node2&#45;&gt;Node164 -->
<g id="edge43_Node000002_Node000164" class="edge">
<title>Node2&#45;&gt;Node164</title>
<g id="a_edge43_Node000002_Node000164"><a xlink:title=" ">
<path fill="none" stroke="#63b8ff" d="M211.77,-830.03C204.91,-827.27 198.59,-823.27 194,-817.5 100.1,-699.4 254.33,-255.63 158,-139.5 149.9,-129.74 137.71,-124.52 125.35,-121.84"/>
<polygon fill="#63b8ff" stroke="#63b8ff" points="210.76,-833.38 221.35,-833.06 212.88,-826.71 210.76,-833.38"/>
</a>
</g>
</g>
<!-- Node168 -->
<g id="Node000168" class="node">
<title>Node168</title>
<g id="a_Node000168"><a xlink:href="classOTrophy.html#a7fcf68f82f1b71fc718d4ba77323d2e3" target="_top" xlink:title=" ">
<polygon fill="#fff0f0" stroke="red" points="147.5,-93 10.5,-93 10.5,-74 147.5,-74 147.5,-93"/>
<text text-anchor="middle" x="79" y="-81" font-family="Helvetica,sans-Serif" font-size="10.00">OTrophy::func_80086C6C</text>
</a>
</g>
</g>
<!-- Node2&#45;&gt;Node168 -->
<g id="edge44_Node000002_Node000168" class="edge">
<title>Node2&#45;&gt;Node168</title>
<g id="a_edge44_Node000002_Node000168"><a xlink:title=" ">
<path fill="none" stroke="#63b8ff" d="M211.75,-830.04C204.89,-827.28 198.58,-823.28 194,-817.5 95.16,-692.84 259.4,-225.09 158,-102.5 154.89,-98.74 151.17,-95.65 147.07,-93.13"/>
<polygon fill="#63b8ff" stroke="#63b8ff" points="210.75,-833.39 221.34,-833.07 212.86,-826.72 210.75,-833.39"/>
</a>
</g>
</g>
<!-- Node170 -->
<g id="Node000170" class="node">
<title>Node170</title>
<g id="a_Node000170"><a xlink:href="code__80086E70_8c.html#ae5639b823e6f347379f1721861ec0cb6" target="_top" xlink:title=" ">
<polygon fill="#fff0f0" stroke="red" points="124.5,-56 33.5,-56 33.5,-37 124.5,-37 124.5,-56"/>
<text text-anchor="middle" x="79" y="-44" font-family="Helvetica,sans-Serif" font-size="10.00">func_80087104</text>
</a>
</g>
</g>
<!-- Node2&#45;&gt;Node170 -->
<g id="edge45_Node000002_Node000170" class="edge">
<title>Node2&#45;&gt;Node170</title>
<g id="a_edge45_Node000002_Node000170"><a xlink:title=" ">
<path fill="none" stroke="#63b8ff" d="M211.74,-830.05C204.88,-827.29 198.57,-823.28 194,-817.5 90.22,-686.27 264.47,-194.55 158,-65.5 149.75,-55.5 137.2,-50.26 124.56,-47.64"/>
<polygon fill="#63b8ff" stroke="#63b8ff" points="210.74,-833.4 221.33,-833.08 212.85,-826.73 210.74,-833.4"/>
</a>
</g>
</g>
<!-- Node173 -->
<g id="Node000173" class="node">
<title>Node173</title>
<g id="a_Node000173"><a xlink:href="code__80086E70_8c.html#a1e366b450a2180672b2d0d1d7f39af25" target="_top" xlink:title=" ">
<polygon fill="white" stroke="#666666" points="125,-19 33,-19 33,0 125,0 125,-19"/>
<text text-anchor="middle" x="79" y="-7" font-family="Helvetica,sans-Serif" font-size="10.00">func_8008BEA4</text>
</a>
</g>
</g>
<!-- Node2&#45;&gt;Node173 -->
<g id="edge46_Node000002_Node000173" class="edge">
<title>Node2&#45;&gt;Node173</title>
<g id="a_edge46_Node000002_Node000173"><a xlink:title=" ">
<path fill="none" stroke="#63b8ff" d="M211.73,-830.05C204.87,-827.3 198.57,-823.29 194,-817.5 139.58,-748.52 214.25,-95 158,-27.5 149.9,-17.78 137.71,-12.7 125.35,-10.19"/>
<polygon fill="#63b8ff" stroke="#63b8ff" points="210.73,-833.41 221.32,-833.09 212.84,-826.73 210.73,-833.41"/>
</a>
</g>
</g>
</g>
</svg>

<g id="navigator" transform="translate(0 0)" fill="#404254">
  <rect fill="#f2f5e9" fill-opacity="0.5" stroke="#606060" stroke-width=".5" x="0" y="0" width="60" height="60"/>
  <use id="zoomplus" xlink:href="#zoomPlus" x="17" y="9" onmousedown="handleZoom(evt,'in')"/>
  <use id="zoomminus" xlink:href="#zoomMin" x="42" y="9" onmousedown="handleZoom(evt,'out')"/>
  <use id="reset" xlink:href="#resetDef" x="30" y="36" onmousedown="handleReset()"/>
   <use id="arrowup" xlink:href="#arrowUp" x="0" y="0" onmousedown="handlePan(0,-1)"/>
  <use id="arrowright" xlink:href="#arrowRight" x="0" y="0" onmousedown="handlePan(1,0)"/>
  <use id="arrowdown" xlink:href="#arrowDown" x="0" y="0" onmousedown="handlePan(0,1)"/>
  <use id="arrowleft" xlink:href="#arrowLeft" x="0" y="0" onmousedown="handlePan(-1,0)"/>
</g>
<svg viewBox="0 0 15 15" width="100%" height="30px" preserveAspectRatio="xMaxYMin meet">
 <g id="arrow_out" transform="scale(0.3 0.3)">
  <a xlink:href="math__util_8h_a062850863585005ad1d0a75d9ff70693_icgraph_org.svg" target="_base">
   <rect id="button" ry="5" rx="5" y="6" x="6" height="38" width="38"
        fill="#f2f5e9" fill-opacity="0.5" stroke="#606060" stroke-width="1.0"/>
   <path id="arrow"
     d="M 11.500037,31.436501 C 11.940474,20.09759 22.043105,11.32322 32.158766,21.979434 L 37.068811,17.246167 C 37.068811,17.246167 37.088388,32 37.088388,32 L 22.160133,31.978069 C 22.160133,31.978069 26.997745,27.140456 26.997745,27.140456 C 18.528582,18.264221 13.291696,25.230495 11.500037,31.436501 z"
     style="fill:#404040;"/>
  </a>
 </g>
</svg>

<style type='text/css'>
<![CDATA[
[data-mouse-over-selected='false'] { opacity: 0.7; }
[data-mouse-over-selected='true']  { opacity: 1.0; }
]]>
</style>
<script type="application/ecmascript"><![CDATA[
document.addEventListener('DOMContentLoaded', (event) => {
  highlightEdges();
  highlightAdjacentNodes();
});
]]></script>
</svg>
