<?xml version="1.0" encoding="UTF-8" standalone="no"?>
<!DOCTYPE svg PUBLIC "-//W3C//DTD SVG 1.1//EN"
 "http://www.w3.org/Graphics/SVG/1.1/DTD/svg11.dtd">
<!-- Generated by graphviz version 2.43.0 (0)
 -->
<!-- Title: func_802B5D30 Pages: 1 -->
<svg width="348pt" height="64pt"
 viewBox="0.00 0.00 348.00 64.00" xmlns="http://www.w3.org/2000/svg" xmlns:xlink="http://www.w3.org/1999/xlink">
<g id="graph0" class="graph" transform="scale(1 1) rotate(0) translate(4 60)">
<title>func_802B5D30</title>
<!-- Node1 -->
<g id="Node000001" class="node">
<title>Node1</title>
<g id="a_Node000001"><a xlink:title=" ">
<polygon fill="#999999" stroke="#666666" points="93,-37 0,-37 0,-18 93,-18 93,-37"/>
<text text-anchor="middle" x="46.5" y="-25" font-family="Helvetica,sans-Serif" font-size="10.00">func_802B5D30</text>
</a>
</g>
</g>
<!-- Node2 -->
<g id="Node000002" class="node">
<title>Node2</title>
<g id="a_Node000002"><a xlink:href="math__util_8c.html#ae3e380239986384fef7c10e23eced83f" target="_top" xlink:title=" ">
<polygon fill="white" stroke="#666666" points="266,-37 129,-37 129,-18 266,-18 266,-37"/>
<text text-anchor="middle" x="197.5" y="-25" font-family="Helvetica,sans-Serif" font-size="10.00">set_track_light_direction</text>
</a>
</g>
</g>
<!-- Node1&#45;&gt;Node2 -->
<g id="edge1_Node000001_Node000002" class="edge">
<title>Node1&#45;&gt;Node2</title>
<g id="a_edge1_Node000001_Node000002"><a xlink:title=" ">
<path fill="none" stroke="#63b8ff" d="M93.01,-27.5C101.13,-27.5 109.8,-27.5 118.53,-27.5"/>
<polygon fill="#63b8ff" stroke="#63b8ff" points="118.77,-31 128.77,-27.5 118.77,-24 118.77,-31"/>
</a>
</g>
</g>
<!-- Node3 -->
<g id="Node000003" class="node">
<title>Node3</title>
<g id="a_Node000003"><a xlink:href="math__util_8c.html#ae69cbf5c8d4b3b0dba2d7b4d4673689f" target="_top" xlink:title=" ">
<polygon fill="white" stroke="#666666" points="340,-56 302,-56 302,-37 340,-37 340,-56"/>
<text text-anchor="middle" x="321" y="-44" font-family="Helvetica,sans-Serif" font-size="10.00">coss</text>
</a>
</g>
</g>
<!-- Node2&#45;&gt;Node3 -->
<g id="edge2_Node000002_Node000003" class="edge">
<title>Node2&#45;&gt;Node3</title>
<g id="a_edge2_Node000002_Node000003"><a xlink:title=" ">
<path fill="none" stroke="#63b8ff" d="M259.61,-37.06C270.85,-38.81 282.09,-40.57 291.76,-42.08"/>
<polygon fill="#63b8ff" stroke="#63b8ff" points="291.52,-45.59 301.94,-43.68 292.6,-38.67 291.52,-45.59"/>
</a>
</g>
</g>
<!-- Node4 -->
<g id="Node000004" class="node">
<title>Node4</title>
<g id="a_Node000004"><a xlink:href="math__util_8c.html#a19ed3bd78fd2d3e2bd0a29f6caf48545" target="_top" xlink:title=" ">
<polygon fill="white" stroke="#666666" points="339,-19 303,-19 303,0 339,0 339,-19"/>
<text text-anchor="middle" x="321" y="-7" font-family="Helvetica,sans-Serif" font-size="10.00">sins</text>
</a>
</g>
</g>
<!-- Node2&#45;&gt;Node4 -->
<g id="edge3_Node000002_Node000004" class="edge">
<title>Node2&#45;&gt;Node4</title>
<g id="a_edge3_Node000002_Node000004"><a xlink:title=" ">
<path fill="none" stroke="#63b8ff" d="M262.81,-17.97C273.33,-16.41 283.71,-14.88 292.68,-13.55"/>
<polygon fill="#63b8ff" stroke="#63b8ff" points="293.45,-16.97 302.83,-12.04 292.42,-10.05 293.45,-16.97"/>
</a>
</g>
</g>
</g>
</svg>
