<?xml version="1.0" encoding="UTF-8" standalone="no"?>
<!DOCTYPE svg PUBLIC "-//W3C//DTD SVG 1.1//EN"
 "http://www.w3.org/Graphics/SVG/1.1/DTD/svg11.dtd">
<!-- Generated by graphviz version 2.43.0 (0)
 -->
<!-- Title: func_800421FC Pages: 1 -->
<svg width="583pt" height="134pt"
 viewBox="0.00 0.00 583.00 133.50" xmlns="http://www.w3.org/2000/svg" xmlns:xlink="http://www.w3.org/1999/xlink">
<g id="graph0" class="graph" transform="scale(1 1) rotate(0) translate(4 129.5)">
<title>func_800421FC</title>
<!-- Node1 -->
<g id="Node000001" class="node">
<title>Node1</title>
<g id="a_Node000001"><a xlink:title=" ">
<polygon fill="#999999" stroke="#666666" points="92,-56 0,-56 0,-37 92,-37 92,-56"/>
<text text-anchor="middle" x="46" y="-44" font-family="Helvetica,sans-Serif" font-size="10.00">func_800421FC</text>
</a>
</g>
</g>
<!-- Node2 -->
<g id="Node000002" class="node">
<title>Node2</title>
<g id="a_Node000002"><a xlink:href="render__player_8c.html#ab7bf9484e155990f138e03ae5339fc84" target="_top" xlink:title=" ">
<polygon fill="white" stroke="#666666" points="255,-104.5 128,-104.5 128,-74.5 255,-74.5 255,-104.5"/>
<text text-anchor="start" x="136" y="-92.5" font-family="Helvetica,sans-Serif" font-size="10.00">convert_to_fixed_point</text>
<text text-anchor="middle" x="191.5" y="-81.5" font-family="Helvetica,sans-Serif" font-size="10.00">_matrix</text>
</a>
</g>
</g>
<!-- Node1&#45;&gt;Node2 -->
<g id="edge1_Node000001_Node000002" class="edge">
<title>Node1&#45;&gt;Node2</title>
<g id="a_edge1_Node000001_Node000002"><a xlink:title=" ">
<path fill="none" stroke="#63b8ff" d="M78.85,-56.04C94.1,-60.62 112.89,-66.24 130.67,-71.57"/>
<polygon fill="#63b8ff" stroke="#63b8ff" points="129.84,-74.98 140.42,-74.49 131.85,-68.27 129.84,-74.98"/>
</a>
</g>
</g>
<!-- Node6 -->
<g id="Node000006" class="node">
<title>Node6</title>
<g id="a_Node000006"><a xlink:href="math__util__2_8c.html#a6b081cbe543c50c4906d5e8f715968fd" target="_top" xlink:title=" ">
<polygon fill="white" stroke="#666666" points="251.5,-56 131.5,-56 131.5,-37 251.5,-37 251.5,-56"/>
<text text-anchor="middle" x="191.5" y="-44" font-family="Helvetica,sans-Serif" font-size="10.00">mtfx_translation_x_y</text>
</a>
</g>
</g>
<!-- Node1&#45;&gt;Node6 -->
<g id="edge5_Node000001_Node000006" class="edge">
<title>Node1&#45;&gt;Node6</title>
<g id="a_edge5_Node000001_Node000006"><a xlink:title=" ">
<path fill="none" stroke="#63b8ff" d="M92.01,-46.5C101.28,-46.5 111.25,-46.5 121.16,-46.5"/>
<polygon fill="#63b8ff" stroke="#63b8ff" points="121.43,-50 131.43,-46.5 121.43,-43 121.43,-50"/>
</a>
</g>
</g>
<!-- Node7 -->
<g id="Node000007" class="node">
<title>Node7</title>
<g id="a_Node000007"><a xlink:href="math__util__2_8c.html#a67c7c314306729422ccb05e11148b977" target="_top" xlink:title=" ">
<polygon fill="white" stroke="#666666" points="238,-19 145,-19 145,0 238,0 238,-19"/>
<text text-anchor="middle" x="191.5" y="-7" font-family="Helvetica,sans-Serif" font-size="10.00">mtxf_scale_x_y</text>
</a>
</g>
</g>
<!-- Node1&#45;&gt;Node7 -->
<g id="edge6_Node000001_Node000007" class="edge">
<title>Node1&#45;&gt;Node7</title>
<g id="a_edge6_Node000001_Node000007"><a xlink:title=" ">
<path fill="none" stroke="#63b8ff" d="M83.95,-36.97C102.06,-32.3 124.06,-26.63 143.36,-21.65"/>
<polygon fill="#63b8ff" stroke="#63b8ff" points="144.36,-25.01 153.17,-19.12 142.61,-18.23 144.36,-25.01"/>
</a>
</g>
</g>
<!-- Node3 -->
<g id="Node000003" class="node">
<title>Node3</title>
<g id="a_Node000003"><a xlink:href="FrameInterpolation_8cpp.html#a8cf1f2d6fabc6925aa71a9515341b4aa" target="_top" xlink:title=" ">
<polygon fill="white" stroke="#666666" points="431,-125.5 291,-125.5 291,-95.5 431,-95.5 431,-125.5"/>
<text text-anchor="start" x="299" y="-113.5" font-family="Helvetica,sans-Serif" font-size="10.00">FrameInterpolation</text>
<text text-anchor="middle" x="361" y="-102.5" font-family="Helvetica,sans-Serif" font-size="10.00">_RecordMatrixMtxFToMtx</text>
</a>
</g>
</g>
<!-- Node2&#45;&gt;Node3 -->
<g id="edge2_Node000002_Node000003" class="edge">
<title>Node2&#45;&gt;Node3</title>
<g id="a_edge2_Node000002_Node000003"><a xlink:title=" ">
<path fill="none" stroke="#63b8ff" d="M255.35,-97.38C263.69,-98.43 272.32,-99.51 280.89,-100.58"/>
<polygon fill="#63b8ff" stroke="#63b8ff" points="280.55,-104.07 290.9,-101.84 281.42,-97.12 280.55,-104.07"/>
</a>
</g>
</g>
<!-- Node5 -->
<g id="Node000005" class="node">
<title>Node5</title>
<g id="a_Node000005"><a xlink:href="guMtxF2L_8c.html#a40ab2d64c609839ff1e0ef0de2d0dcc4" target="_top" xlink:title=" ">
<polygon fill="white" stroke="#666666" points="393.5,-77 328.5,-77 328.5,-58 393.5,-58 393.5,-77"/>
<text text-anchor="middle" x="361" y="-65" font-family="Helvetica,sans-Serif" font-size="10.00">guMtxF2L</text>
</a>
</g>
</g>
<!-- Node2&#45;&gt;Node5 -->
<g id="edge4_Node000002_Node000005" class="edge">
<title>Node2&#45;&gt;Node5</title>
<g id="a_edge4_Node000002_Node000005"><a xlink:title=" ">
<path fill="none" stroke="#63b8ff" d="M255.35,-81.25C276.34,-78.49 299.2,-75.49 318.19,-72.99"/>
<polygon fill="#63b8ff" stroke="#63b8ff" points="318.84,-76.44 328.3,-71.66 317.93,-69.5 318.84,-76.44"/>
</a>
</g>
</g>
<!-- Node4 -->
<g id="Node000004" class="node">
<title>Node4</title>
<g id="a_Node000004"><a xlink:href="FrameInterpolation_8cpp.html#a02c7ac5342a4d376edee38f312b480bf" target="_top" xlink:title=" ">
<polygon fill="white" stroke="#666666" points="575,-120 467,-120 467,-101 575,-101 575,-120"/>
<text text-anchor="middle" x="521" y="-108" font-family="Helvetica,sans-Serif" font-size="10.00">check_if_recording</text>
</a>
</g>
</g>
<!-- Node3&#45;&gt;Node4 -->
<g id="edge3_Node000003_Node000004" class="edge">
<title>Node3&#45;&gt;Node4</title>
<g id="a_edge3_Node000003_Node000004"><a xlink:title=" ">
<path fill="none" stroke="#63b8ff" d="M431.3,-110.5C439.79,-110.5 448.43,-110.5 456.82,-110.5"/>
<polygon fill="#63b8ff" stroke="#63b8ff" points="456.91,-114 466.91,-110.5 456.91,-107 456.91,-114"/>
</a>
</g>
</g>
</g>
</svg>
