<?xml version="1.0" encoding="UTF-8" standalone="no"?>
<!DOCTYPE svg PUBLIC "-//W3C//DTD SVG 1.1//EN"
 "http://www.w3.org/Graphics/SVG/1.1/DTD/svg11.dtd">
<!-- Generated by graphviz version 2.43.0 (0)
 -->
<!-- Title: func_800418AC Pages: 1 -->
<svg width="1192pt" height="939pt"
 viewBox="0.00 0.00 1192.00 938.50" xmlns="http://www.w3.org/2000/svg" xmlns:xlink="http://www.w3.org/1999/xlink">
<g id="graph0" class="graph" transform="scale(1 1) rotate(0) translate(4 934.5)">
<title>func_800418AC</title>
<!-- Node1 -->
<g id="Node000001" class="node">
<title>Node1</title>
<g id="a_Node000001"><a xlink:title=" ">
<polygon fill="#999999" stroke="#666666" points="1184,-500.5 1092,-500.5 1092,-481.5 1184,-481.5 1184,-500.5"/>
<text text-anchor="middle" x="1138" y="-488.5" font-family="Helvetica,sans-Serif" font-size="10.00">func_800418AC</text>
</a>
</g>
</g>
<!-- Node2 -->
<g id="Node000002" class="node">
<title>Node2</title>
<g id="a_Node000002"><a xlink:href="classOBat.html#aeda5b9b2ee8b33334a5b2b92654e087b" target="_top" xlink:title=" ">
<polygon fill="white" stroke="#666666" points="1008,-930.5 936,-930.5 936,-911.5 1008,-911.5 1008,-930.5"/>
<text text-anchor="middle" x="972" y="-918.5" font-family="Helvetica,sans-Serif" font-size="10.00">OBat::Draw</text>
</a>
</g>
</g>
<!-- Node1&#45;&gt;Node2 -->
<g id="edge1_Node000001_Node000002" class="edge">
<title>Node1&#45;&gt;Node2</title>
<g id="a_edge1_Node000001_Node000002"><a xlink:title=" ">
<path fill="none" stroke="#63b8ff" d="M1135.7,-511.04C1130.54,-584.71 1109.08,-839.23 1056,-897 1043.82,-910.25 1024.82,-916.36 1008.07,-919.1"/>
<polygon fill="#63b8ff" stroke="#63b8ff" points="1139.21,-511.04 1136.39,-500.83 1132.23,-510.57 1139.21,-511.04"/>
</a>
</g>
</g>
<!-- Node3 -->
<g id="Node000003" class="node">
<title>Node3</title>
<g id="a_Node000003"><a xlink:href="classOBombKart.html#a6c383194d9982ac23e0ef275bf5d0046" target="_top" xlink:title=" ">
<polygon fill="white" stroke="#666666" points="840,-860.5 736,-860.5 736,-841.5 840,-841.5 840,-860.5"/>
<text text-anchor="middle" x="788" y="-848.5" font-family="Helvetica,sans-Serif" font-size="10.00">OBombKart::Draw</text>
</a>
</g>
</g>
<!-- Node1&#45;&gt;Node3 -->
<g id="edge2_Node000001_Node000003" class="edge">
<title>Node1&#45;&gt;Node3</title>
<g id="a_edge2_Node000001_Node000003"><a xlink:title=" ">
<path fill="none" stroke="#63b8ff" d="M1135.86,-510.8C1131.33,-581.38 1112.08,-818.79 1056,-864 983.38,-922.54 860.2,-881.14 810.62,-860.65"/>
<polygon fill="#63b8ff" stroke="#63b8ff" points="1139.36,-510.82 1136.48,-500.63 1132.37,-510.4 1139.36,-510.82"/>
</a>
</g>
</g>
<!-- Node4 -->
<g id="Node000004" class="node">
<title>Node4</title>
<g id="a_Node000004"><a xlink:href="classOCrab.html#a71a7d61fe580c22650d08446177f0d69" target="_top" xlink:title=" ">
<polygon fill="white" stroke="#666666" points="1011,-704.5 933,-704.5 933,-685.5 1011,-685.5 1011,-704.5"/>
<text text-anchor="middle" x="972" y="-692.5" font-family="Helvetica,sans-Serif" font-size="10.00">OCrab::Draw</text>
</a>
</g>
</g>
<!-- Node1&#45;&gt;Node4 -->
<g id="edge3_Node000001_Node000004" class="edge">
<title>Node1&#45;&gt;Node4</title>
<g id="a_edge3_Node000001_Node000004"><a xlink:title=" ">
<path fill="none" stroke="#63b8ff" d="M1134.34,-510.86C1128.1,-549.25 1108.82,-633.69 1056,-677 1043.57,-687.19 1026.68,-691.97 1011.38,-694.09"/>
<polygon fill="#63b8ff" stroke="#63b8ff" points="1137.87,-510.92 1135.88,-500.52 1130.94,-509.89 1137.87,-510.92"/>
</a>
</g>
</g>
<!-- Node5 -->
<g id="Node000005" class="node">
<title>Node5</title>
<g id="a_Node000005"><a xlink:href="classOLakitu.html#acf4c307ecb7d50a557cff7e4e9fc22d2" target="_top" xlink:title=" ">
<polygon fill="white" stroke="#666666" points="1015,-667.5 929,-667.5 929,-648.5 1015,-648.5 1015,-667.5"/>
<text text-anchor="middle" x="972" y="-655.5" font-family="Helvetica,sans-Serif" font-size="10.00">OLakitu::Draw</text>
</a>
</g>
</g>
<!-- Node1&#45;&gt;Node5 -->
<g id="edge4_Node000001_Node000005" class="edge">
<title>Node1&#45;&gt;Node5</title>
<g id="a_edge4_Node000001_Node000005"><a xlink:title=" ">
<path fill="none" stroke="#63b8ff" d="M1131.98,-510.93C1122.74,-543.34 1099.84,-607.14 1056,-640 1044.32,-648.75 1029.26,-653.43 1015.18,-655.87"/>
<polygon fill="#63b8ff" stroke="#63b8ff" points="1135.47,-511.44 1134.69,-500.88 1128.71,-509.62 1135.47,-511.44"/>
</a>
</g>
</g>
<!-- Node6 -->
<g id="Node000006" class="node">
<title>Node6</title>
<g id="a_Node000006"><a xlink:href="classOThwomp.html#a62ebbbcbbb560d48c97928f77e4b2352" target="_top" xlink:title=" ">
<polygon fill="white" stroke="#666666" points="1021,-630.5 923,-630.5 923,-611.5 1021,-611.5 1021,-630.5"/>
<text text-anchor="middle" x="972" y="-618.5" font-family="Helvetica,sans-Serif" font-size="10.00">OThwomp::Draw</text>
</a>
</g>
</g>
<!-- Node1&#45;&gt;Node6 -->
<g id="edge5_Node000001_Node000006" class="edge">
<title>Node1&#45;&gt;Node6</title>
<g id="a_edge5_Node000001_Node000006"><a xlink:title=" ">
<path fill="none" stroke="#63b8ff" d="M1128.71,-509.92C1116.57,-535.28 1091.48,-579.8 1056,-603 1045.63,-609.78 1033.13,-614.05 1021.02,-616.72"/>
<polygon fill="#63b8ff" stroke="#63b8ff" points="1131.98,-511.18 1132.98,-500.63 1125.62,-508.25 1131.98,-511.18"/>
</a>
</g>
</g>
<!-- Node7 -->
<g id="Node000007" class="node">
<title>Node7</title>
<g id="a_Node000007"><a xlink:href="classOSnowman.html#abb32ca3bd6c2d1e50779e2b58b94607f" target="_top" xlink:title=" ">
<polygon fill="white" stroke="#666666" points="1036,-593.5 908,-593.5 908,-574.5 1036,-574.5 1036,-593.5"/>
<text text-anchor="middle" x="972" y="-581.5" font-family="Helvetica,sans-Serif" font-size="10.00">OSnowman::DrawBody</text>
</a>
</g>
</g>
<!-- Node1&#45;&gt;Node7 -->
<g id="edge6_Node000001_Node000007" class="edge">
<title>Node1&#45;&gt;Node7</title>
<g id="a_edge6_Node000001_Node000007"><a xlink:title=" ">
<path fill="none" stroke="#63b8ff" d="M1123.27,-508.25C1108.52,-525.57 1083.46,-551.69 1056,-566 1049.46,-569.41 1042.31,-572.17 1035.04,-574.41"/>
<polygon fill="#63b8ff" stroke="#63b8ff" points="1125.97,-510.48 1129.65,-500.54 1120.58,-506.01 1125.97,-510.48"/>
</a>
</g>
</g>
<!-- Node9 -->
<g id="Node000009" class="node">
<title>Node9</title>
<g id="a_Node000009"><a xlink:href="classOSnowman.html#a6a4b52c8ea89554b32436640a1c9dd80" target="_top" xlink:title=" ">
<polygon fill="white" stroke="#666666" points="1036.5,-556.5 907.5,-556.5 907.5,-537.5 1036.5,-537.5 1036.5,-556.5"/>
<text text-anchor="middle" x="972" y="-544.5" font-family="Helvetica,sans-Serif" font-size="10.00">OSnowman::DrawHead</text>
</a>
</g>
</g>
<!-- Node1&#45;&gt;Node9 -->
<g id="edge8_Node000001_Node000009" class="edge">
<title>Node1&#45;&gt;Node9</title>
<g id="a_edge8_Node000001_Node000009"><a xlink:title=" ">
<path fill="none" stroke="#63b8ff" d="M1110.45,-505.31C1094.94,-513.2 1074.77,-522.65 1056,-529 1046.36,-532.26 1035.89,-535.07 1025.73,-537.44"/>
<polygon fill="#63b8ff" stroke="#63b8ff" points="1112.19,-508.35 1119.46,-500.64 1108.97,-502.14 1112.19,-508.35"/>
</a>
</g>
</g>
<!-- Node10 -->
<g id="Node000010" class="node">
<title>Node10</title>
<g id="a_Node000010"><a xlink:href="classOCrab.html#a1342716f34378e4700baae3df702d294" target="_top" xlink:title=" ">
<polygon fill="white" stroke="#666666" points="1026,-519.5 918,-519.5 918,-500.5 1026,-500.5 1026,-519.5"/>
<text text-anchor="middle" x="972" y="-507.5" font-family="Helvetica,sans-Serif" font-size="10.00">OCrab::DrawModel</text>
</a>
</g>
</g>
<!-- Node1&#45;&gt;Node10 -->
<g id="edge10_Node000001_Node000010" class="edge">
<title>Node1&#45;&gt;Node10</title>
<g id="a_edge10_Node000001_Node000010"><a xlink:title=" ">
<path fill="none" stroke="#63b8ff" d="M1081.74,-497.4C1063.83,-499.48 1044,-501.77 1026.24,-503.83"/>
<polygon fill="#63b8ff" stroke="#63b8ff" points="1082.22,-500.87 1091.75,-496.24 1081.42,-493.92 1082.22,-500.87"/>
</a>
</g>
</g>
<!-- Node11 -->
<g id="Node000011" class="node">
<title>Node11</title>
<g id="a_Node000011"><a xlink:href="classOBoos.html#a6481d9811ecb0b976fd51ccbb1011ba5" target="_top" xlink:title=" ">
<polygon fill="white" stroke="#666666" points="1036.5,-482.5 907.5,-482.5 907.5,-463.5 1036.5,-463.5 1036.5,-482.5"/>
<text text-anchor="middle" x="972" y="-470.5" font-family="Helvetica,sans-Serif" font-size="10.00">OBoos::func_800523B8</text>
</a>
</g>
</g>
<!-- Node1&#45;&gt;Node11 -->
<g id="edge11_Node000001_Node000011" class="edge">
<title>Node1&#45;&gt;Node11</title>
<g id="a_edge11_Node000001_Node000011"><a xlink:title=" ">
<path fill="none" stroke="#63b8ff" d="M1081.48,-484.91C1067.02,-483.32 1051.34,-481.6 1036.51,-479.97"/>
<polygon fill="#63b8ff" stroke="#63b8ff" points="1081.43,-488.42 1091.75,-486.03 1082.19,-481.46 1081.43,-488.42"/>
</a>
</g>
</g>
<!-- Node13 -->
<g id="Node000013" class="node">
<title>Node13</title>
<g id="a_Node000013"><a xlink:href="render__objects_8c.html#ab2b16756177e01249f455ac1e7cf3d4e" target="_top" xlink:title=" ">
<polygon fill="white" stroke="#666666" points="1018,-445.5 926,-445.5 926,-426.5 1018,-426.5 1018,-445.5"/>
<text text-anchor="middle" x="972" y="-433.5" font-family="Helvetica,sans-Serif" font-size="10.00">func_8005477C</text>
</a>
</g>
</g>
<!-- Node1&#45;&gt;Node13 -->
<g id="edge13_Node000001_Node000013" class="edge">
<title>Node1&#45;&gt;Node13</title>
<g id="a_edge13_Node000001_Node000013"><a xlink:title=" ">
<path fill="none" stroke="#63b8ff" d="M1108.69,-476.8C1093.37,-469.53 1073.96,-460.99 1056,-455 1043.94,-450.98 1030.61,-447.52 1018.24,-444.69"/>
<polygon fill="#63b8ff" stroke="#63b8ff" points="1107.58,-480.15 1118.1,-481.35 1110.62,-473.85 1107.58,-480.15"/>
</a>
</g>
</g>
<!-- Node57 -->
<g id="Node000057" class="node">
<title>Node57</title>
<g id="a_Node000057"><a xlink:href="classStarEmitter.html#a29fdf4333bad6bd66b76065cd98971b5" target="_top" xlink:title=" ">
<polygon fill="white" stroke="#666666" points="1049,-263.5 895,-263.5 895,-244.5 1049,-244.5 1049,-263.5"/>
<text text-anchor="middle" x="972" y="-251.5" font-family="Helvetica,sans-Serif" font-size="10.00">StarEmitter::func_80054AFC</text>
</a>
</g>
</g>
<!-- Node1&#45;&gt;Node57 -->
<g id="edge21_Node000001_Node000057" class="edge">
<title>Node1&#45;&gt;Node57</title>
<g id="a_edge21_Node000001_Node000057"><a xlink:title=" ">
<path fill="none" stroke="#63b8ff" d="M1135.74,-471.4C1131.87,-428.53 1116.46,-326.04 1056,-273 1051.67,-269.2 1046.73,-266.11 1041.47,-263.62"/>
<polygon fill="#63b8ff" stroke="#63b8ff" points="1132.25,-471.69 1136.52,-481.39 1139.23,-471.14 1132.25,-471.69"/>
</a>
</g>
</g>
<!-- Node59 -->
<g id="Node000059" class="node">
<title>Node59</title>
<g id="a_Node000059"><a xlink:href="classOMole.html#abde7681bfbee83db4e8105925052979f" target="_top" xlink:title=" ">
<polygon fill="white" stroke="#666666" points="1037,-226.5 907,-226.5 907,-207.5 1037,-207.5 1037,-226.5"/>
<text text-anchor="middle" x="972" y="-214.5" font-family="Helvetica,sans-Serif" font-size="10.00">OMole::func_80054D00</text>
</a>
</g>
</g>
<!-- Node1&#45;&gt;Node59 -->
<g id="edge23_Node000001_Node000059" class="edge">
<title>Node1&#45;&gt;Node59</title>
<g id="a_edge23_Node000001_Node000059"><a xlink:title=" ">
<path fill="none" stroke="#63b8ff" d="M1136.95,-471.12C1135.68,-423.08 1125.45,-299.95 1056,-236 1050.56,-230.99 1044.08,-227.22 1037.18,-224.38"/>
<polygon fill="#63b8ff" stroke="#63b8ff" points="1133.45,-471.45 1137.11,-481.4 1140.45,-471.34 1133.45,-471.45"/>
</a>
</g>
</g>
<!-- Node61 -->
<g id="Node000061" class="node">
<title>Node61</title>
<g id="a_Node000061"><a xlink:href="classOMole.html#a6b5ff0d1703fdc1785d17b4119bb6d1f" target="_top" xlink:title=" ">
<polygon fill="white" stroke="#666666" points="1036,-189.5 908,-189.5 908,-170.5 1036,-170.5 1036,-189.5"/>
<text text-anchor="middle" x="972" y="-177.5" font-family="Helvetica,sans-Serif" font-size="10.00">OMole::func_80054F04</text>
</a>
</g>
</g>
<!-- Node1&#45;&gt;Node61 -->
<g id="edge25_Node000001_Node000061" class="edge">
<title>Node1&#45;&gt;Node61</title>
<g id="a_edge25_Node000001_Node000061"><a xlink:title=" ">
<path fill="none" stroke="#63b8ff" d="M1134.2,-471.37C1125.37,-412.24 1096.29,-237.5 1056,-199 1050.34,-193.59 1043.46,-189.6 1036.11,-186.68"/>
<polygon fill="#63b8ff" stroke="#63b8ff" points="1130.74,-471.91 1135.65,-481.3 1137.67,-470.9 1130.74,-471.91"/>
</a>
</g>
</g>
<!-- Node62 -->
<g id="Node000062" class="node">
<title>Node62</title>
<g id="a_Node000062"><a xlink:href="classOHedgehog.html#a65bd4c41d64eacf258c6ea830a1311f3" target="_top" xlink:title=" ">
<polygon fill="white" stroke="#666666" points="1049.5,-152.5 894.5,-152.5 894.5,-133.5 1049.5,-133.5 1049.5,-152.5"/>
<text text-anchor="middle" x="972" y="-140.5" font-family="Helvetica,sans-Serif" font-size="10.00">OHedgehog::func_800555BC</text>
</a>
</g>
</g>
<!-- Node1&#45;&gt;Node62 -->
<g id="edge27_Node000001_Node000062" class="edge">
<title>Node1&#45;&gt;Node62</title>
<g id="a_edge27_Node000001_Node000062"><a xlink:title=" ">
<path fill="none" stroke="#63b8ff" d="M1134.86,-471.46C1127.48,-407.54 1101,-206.27 1056,-162 1052.1,-158.16 1047.6,-155.04 1042.74,-152.5"/>
<polygon fill="#63b8ff" stroke="#63b8ff" points="1131.39,-471.88 1135.99,-481.42 1138.34,-471.09 1131.39,-471.88"/>
</a>
</g>
</g>
<!-- Node64 -->
<g id="Node000064" class="node">
<title>Node64</title>
<g id="a_Node000064"><a xlink:href="classOChainChomp.html#ab768e973e179cd46fe28eccef540a015" target="_top" xlink:title=" ">
<polygon fill="white" stroke="#666666" points="1056,-115.5 888,-115.5 888,-96.5 1056,-96.5 1056,-115.5"/>
<text text-anchor="middle" x="972" y="-103.5" font-family="Helvetica,sans-Serif" font-size="10.00">OChainChomp::func_80055AB8</text>
</a>
</g>
</g>
<!-- Node1&#45;&gt;Node64 -->
<g id="edge29_Node000001_Node000064" class="edge">
<title>Node1&#45;&gt;Node64</title>
<g id="a_edge29_Node000001_Node000064"><a xlink:title=" ">
<path fill="none" stroke="#63b8ff" d="M1135.35,-471.1C1129.24,-402.15 1105.63,-174.99 1056,-125 1052.25,-121.22 1047.91,-118.13 1043.23,-115.61"/>
<polygon fill="#63b8ff" stroke="#63b8ff" points="1131.9,-471.75 1136.24,-481.41 1138.87,-471.15 1131.9,-471.75"/>
</a>
</g>
</g>
<!-- Node66 -->
<g id="Node000066" class="node">
<title>Node66</title>
<g id="a_Node000066"><a xlink:href="classOHotAirBalloon.html#abc997fe9319a640da556d0516417ac3e" target="_top" xlink:title=" ">
<polygon fill="white" stroke="#666666" points="1031.5,-78 912.5,-78 912.5,-48 1031.5,-48 1031.5,-78"/>
<text text-anchor="start" x="920.5" y="-66" font-family="Helvetica,sans-Serif" font-size="10.00">OHotAirBalloon::func</text>
<text text-anchor="middle" x="972" y="-55" font-family="Helvetica,sans-Serif" font-size="10.00">_80055CCC</text>
</a>
</g>
</g>
<!-- Node1&#45;&gt;Node66 -->
<g id="edge31_Node000001_Node000066" class="edge">
<title>Node1&#45;&gt;Node66</title>
<g id="a_edge31_Node000001_Node000066"><a xlink:title=" ">
<path fill="none" stroke="#63b8ff" d="M1135.66,-471.12C1130.34,-398.06 1108.43,-145.62 1056,-88 1049.42,-80.77 1040.83,-75.59 1031.67,-71.9"/>
<polygon fill="#63b8ff" stroke="#63b8ff" points="1132.18,-471.52 1136.37,-481.25 1139.16,-471.03 1132.18,-471.52"/>
</a>
</g>
</g>
<!-- Node68 -->
<g id="Node000068" class="node">
<title>Node68</title>
<g id="a_Node000068"><a xlink:href="render__objects_8c.html#a8e71bb2a914da25c9767d72707665f58" target="_top" xlink:title=" ">
<polygon fill="white" stroke="#666666" points="1018.5,-817.5 925.5,-817.5 925.5,-798.5 1018.5,-798.5 1018.5,-817.5"/>
<text text-anchor="middle" x="972" y="-805.5" font-family="Helvetica,sans-Serif" font-size="10.00">func_800563DC</text>
</a>
</g>
</g>
<!-- Node1&#45;&gt;Node68 -->
<g id="edge33_Node000001_Node000068" class="edge">
<title>Node1&#45;&gt;Node68</title>
<g id="a_edge33_Node000001_Node000068"><a xlink:title=" ">
<path fill="none" stroke="#63b8ff" d="M1137.68,-511.02C1138.32,-563.53 1132.57,-706.53 1056,-784 1046.09,-794.03 1032.27,-799.93 1018.74,-803.38"/>
<polygon fill="#63b8ff" stroke="#63b8ff" points="1141.17,-510.64 1137.45,-500.72 1134.17,-510.8 1141.17,-510.64"/>
</a>
</g>
</g>
<!-- Node70 -->
<g id="Node000070" class="node">
<title>Node70</title>
<g id="a_Node000070"><a xlink:href="render__objects_8c.html#a63f55555b66cd9833838c290facd483c" target="_top" xlink:title=" ">
<polygon fill="white" stroke="#666666" points="843,-774.5 733,-774.5 733,-755.5 843,-755.5 843,-774.5"/>
<text text-anchor="middle" x="788" y="-762.5" font-family="Helvetica,sans-Serif" font-size="10.00">render_bomb_karts</text>
</a>
</g>
</g>
<!-- Node1&#45;&gt;Node70 -->
<g id="edge44_Node000001_Node000070" class="edge">
<title>Node1&#45;&gt;Node70</title>
<g id="a_edge44_Node000001_Node000070"><a xlink:title=" ">
<path fill="none" stroke="#63b8ff" d="M1137.75,-510.74C1138.44,-560.54 1132.54,-691.52 1056,-751 988.19,-803.69 878.95,-787.54 823.57,-774.53"/>
<polygon fill="#63b8ff" stroke="#63b8ff" points="1141.25,-510.57 1137.5,-500.66 1134.25,-510.74 1141.25,-510.57"/>
</a>
</g>
</g>
<!-- Node72 -->
<g id="Node000072" class="node">
<title>Node72</title>
<g id="a_Node000072"><a xlink:href="classPlayerBombKart.html#ab3bf9332abcce97183126cb5a7bce075" target="_top" xlink:title=" ">
<polygon fill="white" stroke="#666666" points="1033.5,-408 910.5,-408 910.5,-378 1033.5,-378 1033.5,-408"/>
<text text-anchor="start" x="918.5" y="-396" font-family="Helvetica,sans-Serif" font-size="10.00">PlayerBombKart::func</text>
<text text-anchor="middle" x="972" y="-385" font-family="Helvetica,sans-Serif" font-size="10.00">_800563DC</text>
</a>
</g>
</g>
<!-- Node1&#45;&gt;Node72 -->
<g id="edge38_Node000001_Node000072" class="edge">
<title>Node1&#45;&gt;Node72</title>
<g id="a_edge38_Node000001_Node000072"><a xlink:title=" ">
<path fill="none" stroke="#63b8ff" d="M1122.05,-473.67C1106.93,-457.17 1082.12,-432.72 1056,-418 1049.05,-414.09 1041.42,-410.72 1033.69,-407.84"/>
<polygon fill="#63b8ff" stroke="#63b8ff" points="1119.75,-476.36 1129.02,-481.49 1124.97,-471.7 1119.75,-476.36"/>
</a>
</g>
</g>
<!-- Node75 -->
<g id="Node000075" class="node">
<title>Node75</title>
<g id="a_Node000075"><a xlink:href="render__objects_8c.html#a8aa62f17d0c7f54dc68e9aaa298f8715" target="_top" xlink:title=" ">
<polygon fill="white" stroke="#666666" points="1017.5,-741.5 926.5,-741.5 926.5,-722.5 1017.5,-722.5 1017.5,-741.5"/>
<text text-anchor="middle" x="972" y="-729.5" font-family="Helvetica,sans-Serif" font-size="10.00">func_80056E24</text>
</a>
</g>
</g>
<!-- Node1&#45;&gt;Node75 -->
<g id="edge42_Node000001_Node000075" class="edge">
<title>Node1&#45;&gt;Node75</title>
<g id="a_edge42_Node000001_Node000075"><a xlink:title=" ">
<path fill="none" stroke="#63b8ff" d="M1135.93,-511.09C1132.47,-555.03 1117.8,-660.02 1056,-714 1045.45,-723.21 1031.3,-728.07 1017.68,-730.53"/>
<polygon fill="#63b8ff" stroke="#63b8ff" points="1139.44,-511.07 1136.62,-500.86 1132.46,-510.6 1139.44,-511.07"/>
</a>
</g>
</g>
<!-- Node76 -->
<g id="Node000076" class="node">
<title>Node76</title>
<g id="a_Node000076"><a xlink:href="render__objects_8c.html#a0eef4ab8ba8d0cfd0950067f759fecb2" target="_top" xlink:title=" ">
<polygon fill="white" stroke="#666666" points="1034,-30 910,-30 910,0 1034,0 1034,-30"/>
<text text-anchor="start" x="918" y="-18" font-family="Helvetica,sans-Serif" font-size="10.00">render_object_bowser</text>
<text text-anchor="middle" x="972" y="-7" font-family="Helvetica,sans-Serif" font-size="10.00">_flame_particle</text>
</a>
</g>
</g>
<!-- Node1&#45;&gt;Node76 -->
<g id="edge45_Node000001_Node000076" class="edge">
<title>Node1&#45;&gt;Node76</title>
<g id="a_edge45_Node000001_Node000076"><a xlink:title=" ">
<path fill="none" stroke="#63b8ff" d="M1136.16,-471.26C1132.43,-392.83 1114.87,-104.35 1056,-39 1050.08,-32.42 1042.47,-27.61 1034.28,-24.08"/>
<polygon fill="#63b8ff" stroke="#63b8ff" points="1132.66,-471.43 1136.61,-481.26 1139.66,-471.11 1132.66,-471.43"/>
</a>
</g>
</g>
<!-- Node79 -->
<g id="Node000079" class="node">
<title>Node79</title>
<g id="a_Node000079"><a xlink:href="render__objects_8c.html#a5e5a2e028879ac856899bbfbb1754b25" target="_top" xlink:title=" ">
<polygon fill="white" stroke="#666666" points="1033.5,-360 910.5,-360 910.5,-330 1033.5,-330 1033.5,-360"/>
<text text-anchor="start" x="918.5" y="-348" font-family="Helvetica,sans-Serif" font-size="10.00">render_object_paddle</text>
<text text-anchor="middle" x="972" y="-337" font-family="Helvetica,sans-Serif" font-size="10.00">_boat_smoke_particle</text>
</a>
</g>
</g>
<!-- Node1&#45;&gt;Node79 -->
<g id="edge48_Node000001_Node000079" class="edge">
<title>Node1&#45;&gt;Node79</title>
<g id="a_edge48_Node000001_Node000079"><a xlink:title=" ">
<path fill="none" stroke="#63b8ff" d="M1129.42,-471.93C1117.73,-444.96 1092.73,-395.96 1056,-369 1049.35,-364.12 1041.72,-360.23 1033.85,-357.13"/>
<polygon fill="#63b8ff" stroke="#63b8ff" points="1126.29,-473.52 1133.37,-481.4 1132.76,-470.83 1126.29,-473.52"/>
</a>
</g>
</g>
<!-- Node84 -->
<g id="Node000084" class="node">
<title>Node84</title>
<g id="a_Node000084"><a xlink:href="render__objects_8c.html#a1bb53e6e216b59033928fa1263067b94" target="_top" xlink:title=" ">
<polygon fill="white" stroke="#666666" points="1027.5,-312 916.5,-312 916.5,-282 1027.5,-282 1027.5,-312"/>
<text text-anchor="start" x="924.5" y="-300" font-family="Helvetica,sans-Serif" font-size="10.00">render_object_train</text>
<text text-anchor="middle" x="972" y="-289" font-family="Helvetica,sans-Serif" font-size="10.00">_smoke_particle</text>
</a>
</g>
</g>
<!-- Node1&#45;&gt;Node84 -->
<g id="edge54_Node000001_Node000084" class="edge">
<title>Node1&#45;&gt;Node84</title>
<g id="a_edge54_Node000001_Node000084"><a xlink:title=" ">
<path fill="none" stroke="#63b8ff" d="M1133.12,-471.16C1125.13,-435.68 1103.45,-361.28 1056,-321 1047.88,-314.11 1037.88,-309.19 1027.67,-305.69"/>
<polygon fill="#63b8ff" stroke="#63b8ff" points="1129.75,-472.17 1135.25,-481.23 1136.6,-470.72 1129.75,-472.17"/>
</a>
</g>
</g>
<!-- Node86 -->
<g id="Node000086" class="node">
<title>Node86</title>
<g id="a_Node000086"><a xlink:href="classOBombKart.html#a06177fe75d7904032a6743129f96f0b6" target="_top" xlink:title=" ">
<polygon fill="white" stroke="#666666" points="1042.5,-854.5 901.5,-854.5 901.5,-835.5 1042.5,-835.5 1042.5,-854.5"/>
<text text-anchor="middle" x="972" y="-842.5" font-family="Helvetica,sans-Serif" font-size="10.00">OBombKart::SomeRender</text>
</a>
</g>
</g>
<!-- Node1&#45;&gt;Node86 -->
<g id="edge57_Node000001_Node000086" class="edge">
<title>Node1&#45;&gt;Node86</title>
<g id="a_edge57_Node000001_Node000086"><a xlink:title=" ">
<path fill="none" stroke="#63b8ff" d="M1134.94,-510.98C1127.82,-576.31 1102.05,-782 1056,-827 1052.1,-830.81 1047.59,-833.9 1042.73,-836.39"/>
<polygon fill="#63b8ff" stroke="#63b8ff" points="1138.45,-511.11 1136.03,-500.79 1131.49,-510.37 1138.45,-511.11"/>
</a>
</g>
</g>
<!-- Node8 -->
<g id="Node000008" class="node">
<title>Node8</title>
<g id="a_Node000008"><a xlink:href="classOSnowman.html#a43b2b34a94dbde2f174d971bfa763ac0" target="_top" xlink:title=" ">
<polygon fill="white" stroke="#666666" points="840,-574.5 736,-574.5 736,-555.5 840,-555.5 840,-574.5"/>
<text text-anchor="middle" x="788" y="-562.5" font-family="Helvetica,sans-Serif" font-size="10.00">OSnowman::Draw</text>
</a>
</g>
</g>
<!-- Node7&#45;&gt;Node8 -->
<g id="edge7_Node000007_Node000008" class="edge">
<title>Node7&#45;&gt;Node8</title>
<g id="a_edge7_Node000007_Node000008"><a xlink:title=" ">
<path fill="none" stroke="#63b8ff" d="M897.84,-576.36C878.45,-574.34 857.94,-572.2 840.01,-570.32"/>
<polygon fill="#63b8ff" stroke="#63b8ff" points="897.55,-579.85 907.86,-577.41 898.27,-572.89 897.55,-579.85"/>
</a>
</g>
</g>
<!-- Node9&#45;&gt;Node8 -->
<g id="edge9_Node000009_Node000008" class="edge">
<title>Node9&#45;&gt;Node8</title>
<g id="a_edge9_Node000009_Node000008"><a xlink:title=" ">
<path fill="none" stroke="#63b8ff" d="M897.13,-554.31C877.95,-556.2 857.73,-558.2 840.02,-559.95"/>
<polygon fill="#63b8ff" stroke="#63b8ff" points="897.74,-557.76 907.35,-553.3 897.05,-550.8 897.74,-557.76"/>
</a>
</g>
</g>
<!-- Node12 -->
<g id="Node000012" class="node">
<title>Node12</title>
<g id="a_Node000012"><a xlink:href="classOBoos.html#a0d0c2c54e84a8b7f384680c13af12673" target="_top" xlink:title=" ">
<polygon fill="white" stroke="#666666" points="828,-482.5 748,-482.5 748,-463.5 828,-463.5 828,-482.5"/>
<text text-anchor="middle" x="788" y="-470.5" font-family="Helvetica,sans-Serif" font-size="10.00">OBoos::Draw</text>
</a>
</g>
</g>
<!-- Node11&#45;&gt;Node12 -->
<g id="edge12_Node000011_Node000012" class="edge">
<title>Node11&#45;&gt;Node12</title>
<g id="a_edge12_Node000011_Node000012"><a xlink:title=" ">
<path fill="none" stroke="#63b8ff" d="M897.33,-473C873.68,-473 848.4,-473 828.22,-473"/>
<polygon fill="#63b8ff" stroke="#63b8ff" points="897.35,-476.5 907.35,-473 897.35,-469.5 897.35,-476.5"/>
</a>
</g>
</g>
<!-- Node14 -->
<g id="Node000014" class="node">
<title>Node14</title>
<g id="a_Node000014"><a xlink:href="render__objects_8c.html#ad0bacc3fd3bd0e7c394fa2653c9034f3" target="_top" xlink:title=" ">
<polygon fill="white" stroke="#666666" points="671,-450 550,-450 550,-420 671,-420 671,-450"/>
<text text-anchor="start" x="558" y="-438" font-family="Helvetica,sans-Serif" font-size="10.00">render_object_smoke</text>
<text text-anchor="middle" x="610.5" y="-427" font-family="Helvetica,sans-Serif" font-size="10.00">_particles</text>
</a>
</g>
</g>
<!-- Node13&#45;&gt;Node14 -->
<g id="edge14_Node000013_Node000014" class="edge">
<title>Node13&#45;&gt;Node14</title>
<g id="a_edge14_Node000013_Node000014"><a xlink:title=" ">
<path fill="none" stroke="#63b8ff" d="M915.6,-435.85C849.42,-435.66 739.12,-435.35 671.12,-435.17"/>
<polygon fill="#63b8ff" stroke="#63b8ff" points="915.82,-439.35 925.83,-435.87 915.84,-432.35 915.82,-439.35"/>
</a>
</g>
</g>
<!-- Node15 -->
<g id="Node000015" class="node">
<title>Node15</title>
<g id="a_Node000015"><a xlink:href="code__80057C60_8c.html#aa04f94d84853c32f977f9032cc021f39" target="_top" xlink:title=" ">
<polygon fill="white" stroke="#666666" points="497,-401.5 359,-401.5 359,-382.5 497,-382.5 497,-401.5"/>
<text text-anchor="middle" x="428" y="-389.5" font-family="Helvetica,sans-Serif" font-size="10.00">render_object_for_player</text>
</a>
</g>
</g>
<!-- Node14&#45;&gt;Node15 -->
<g id="edge15_Node000014_Node000015" class="edge">
<title>Node14&#45;&gt;Node15</title>
<g id="a_edge15_Node000014_Node000015"><a xlink:title=" ">
<path fill="none" stroke="#63b8ff" d="M540.08,-418.46C515.98,-412.72 489.8,-406.48 468.9,-401.51"/>
<polygon fill="#63b8ff" stroke="#63b8ff" points="539.36,-421.89 549.9,-420.8 540.98,-415.08 539.36,-421.89"/>
</a>
</g>
</g>
<!-- Node16 -->
<g id="Node000016" class="node">
<title>Node16</title>
<g id="a_Node000016"><a xlink:href="code__80057C60_8c.html#aa7a2789a42aa20531456b55e052ab664" target="_top" xlink:title=" ">
<polygon fill="white" stroke="#666666" points="323,-401.5 240,-401.5 240,-382.5 323,-382.5 323,-401.5"/>
<text text-anchor="middle" x="281.5" y="-389.5" font-family="Helvetica,sans-Serif" font-size="10.00">render_object</text>
</a>
</g>
</g>
<!-- Node15&#45;&gt;Node16 -->
<g id="edge16_Node000015_Node000016" class="edge">
<title>Node15&#45;&gt;Node16</title>
<g id="a_edge16_Node000015_Node000016"><a xlink:title=" ">
<path fill="none" stroke="#63b8ff" d="M348.89,-392C339.96,-392 331.16,-392 323.03,-392"/>
<polygon fill="#63b8ff" stroke="#63b8ff" points="348.98,-395.5 358.98,-392 348.98,-388.5 348.98,-395.5"/>
</a>
</g>
</g>
<!-- Node17 -->
<g id="Node000017" class="node">
<title>Node17</title>
<g id="a_Node000017"><a xlink:href="code__80280000_8c.html#ae610920735bc9dad9f2dce878c5a6b32" target="_top" xlink:title=" ">
<polygon fill="white" stroke="#666666" points="203.5,-438.5 112.5,-438.5 112.5,-419.5 203.5,-419.5 203.5,-438.5"/>
<text text-anchor="middle" x="158" y="-426.5" font-family="Helvetica,sans-Serif" font-size="10.00">func_80280038</text>
</a>
</g>
</g>
<!-- Node16&#45;&gt;Node17 -->
<g id="edge17_Node000016_Node000017" class="edge">
<title>Node16&#45;&gt;Node17</title>
<g id="a_edge17_Node000016_Node000017"><a xlink:title=" ">
<path fill="none" stroke="#63b8ff" d="M239.57,-404.46C223.59,-409.33 205.56,-414.82 190.61,-419.38"/>
<polygon fill="#63b8ff" stroke="#63b8ff" points="240.66,-407.79 249.21,-401.53 238.62,-401.09 240.66,-407.79"/>
</a>
</g>
</g>
<!-- Node42 -->
<g id="Node000042" class="node">
<title>Node42</title>
<g id="a_Node000042"><a xlink:href="code__80281C40_8c.html#af6f6a1f0caec6d086a4ab98602a6670e" target="_top" xlink:title=" ">
<polygon fill="#fff0f0" stroke="red" points="204,-401.5 112,-401.5 112,-382.5 204,-382.5 204,-401.5"/>
<text text-anchor="middle" x="158" y="-389.5" font-family="Helvetica,sans-Serif" font-size="10.00">func_80281D00</text>
</a>
</g>
</g>
<!-- Node16&#45;&gt;Node42 -->
<g id="edge19_Node000016_Node000042" class="edge">
<title>Node16&#45;&gt;Node42</title>
<g id="a_edge19_Node000016_Node000042"><a xlink:title=" ">
<path fill="none" stroke="#63b8ff" d="M229.56,-392C221.1,-392 212.38,-392 204.08,-392"/>
<polygon fill="#63b8ff" stroke="#63b8ff" points="229.7,-395.5 239.7,-392 229.7,-388.5 229.7,-395.5"/>
</a>
</g>
</g>
<!-- Node46 -->
<g id="Node000046" class="node">
<title>Node46</title>
<g id="a_Node000046"><a xlink:href="skybox__and__splitscreen_8c.html#ae4f7ad839fe3a60b3b6fde3d07ae8acd" target="_top" xlink:title=" ">
<polygon fill="#fff0f0" stroke="red" points="203.5,-364.5 112.5,-364.5 112.5,-345.5 203.5,-345.5 203.5,-364.5"/>
<text text-anchor="middle" x="158" y="-352.5" font-family="Helvetica,sans-Serif" font-size="10.00">render_screens</text>
</a>
</g>
</g>
<!-- Node16&#45;&gt;Node46 -->
<g id="edge20_Node000016_Node000046" class="edge">
<title>Node16&#45;&gt;Node46</title>
<g id="a_edge20_Node000016_Node000046"><a xlink:title=" ">
<path fill="none" stroke="#63b8ff" d="M239.57,-379.54C223.59,-374.67 205.56,-369.18 190.61,-364.62"/>
<polygon fill="#63b8ff" stroke="#63b8ff" points="238.62,-382.91 249.21,-382.47 240.66,-376.21 238.62,-382.91"/>
</a>
</g>
</g>
<!-- Node18 -->
<g id="Node000018" class="node">
<title>Node18</title>
<g id="a_Node000018"><a xlink:href="code__80280000_8c.html#aa28a69be4eda3b8667366c6c7b556024" target="_top" xlink:title=" ">
<polygon fill="#fff0f0" stroke="red" points="76,-438.5 0,-438.5 0,-419.5 76,-419.5 76,-438.5"/>
<text text-anchor="middle" x="38" y="-426.5" font-family="Helvetica,sans-Serif" font-size="10.00">credits_loop</text>
</a>
</g>
</g>
<!-- Node17&#45;&gt;Node18 -->
<g id="edge18_Node000017_Node000018" class="edge">
<title>Node17&#45;&gt;Node18</title>
<g id="a_edge18_Node000017_Node000018"><a xlink:title=" ">
<path fill="none" stroke="#63b8ff" d="M102.22,-429C93.46,-429 84.59,-429 76.36,-429"/>
<polygon fill="#63b8ff" stroke="#63b8ff" points="102.39,-432.5 112.39,-429 102.39,-425.5 102.39,-432.5"/>
</a>
</g>
</g>
<!-- Node58 -->
<g id="Node000058" class="node">
<title>Node58</title>
<g id="a_Node000058"><a xlink:href="classStarEmitter.html#ad320cdac67e90a7e6d3945b1ca4d3f98" target="_top" xlink:title=" ">
<polygon fill="white" stroke="#666666" points="840,-232.5 736,-232.5 736,-213.5 840,-213.5 840,-232.5"/>
<text text-anchor="middle" x="788" y="-220.5" font-family="Helvetica,sans-Serif" font-size="10.00">StarEmitter::Draw</text>
</a>
</g>
</g>
<!-- Node57&#45;&gt;Node58 -->
<g id="edge22_Node000057_Node000058" class="edge">
<title>Node57&#45;&gt;Node58</title>
<g id="a_edge22_Node000057_Node000058"><a xlink:title=" ">
<path fill="none" stroke="#63b8ff" d="M904.95,-242.75C883.64,-239.12 860.34,-235.15 840.26,-231.73"/>
<polygon fill="#63b8ff" stroke="#63b8ff" points="904.46,-246.22 914.91,-244.45 905.64,-239.32 904.46,-246.22"/>
</a>
</g>
</g>
<!-- Node60 -->
<g id="Node000060" class="node">
<title>Node60</title>
<g id="a_Node000060"><a xlink:href="classOMole.html#abe4c454a9553584219f4505b2e338f27" target="_top" xlink:title=" ">
<polygon fill="white" stroke="#666666" points="828,-192.5 748,-192.5 748,-173.5 828,-173.5 828,-192.5"/>
<text text-anchor="middle" x="788" y="-180.5" font-family="Helvetica,sans-Serif" font-size="10.00">OMole::Draw</text>
</a>
</g>
</g>
<!-- Node59&#45;&gt;Node60 -->
<g id="edge24_Node000059_Node000060" class="edge">
<title>Node59&#45;&gt;Node60</title>
<g id="a_edge24_Node000059_Node000060"><a xlink:title=" ">
<path fill="none" stroke="#63b8ff" d="M909.72,-205.55C882.82,-200.53 852.02,-194.77 828.26,-190.33"/>
<polygon fill="#63b8ff" stroke="#63b8ff" points="909.35,-209.04 919.82,-207.44 910.63,-202.16 909.35,-209.04"/>
</a>
</g>
</g>
<!-- Node61&#45;&gt;Node60 -->
<g id="edge26_Node000061_Node000060" class="edge">
<title>Node61&#45;&gt;Node60</title>
<g id="a_edge26_Node000061_Node000060"><a xlink:title=" ">
<path fill="none" stroke="#63b8ff" d="M897.78,-181.21C873.98,-181.6 848.49,-182.02 828.17,-182.35"/>
<polygon fill="#63b8ff" stroke="#63b8ff" points="897.92,-184.71 907.86,-181.04 897.8,-177.71 897.92,-184.71"/>
</a>
</g>
</g>
<!-- Node63 -->
<g id="Node000063" class="node">
<title>Node63</title>
<g id="a_Node000063"><a xlink:href="classOHedgehog.html#a579906b4dbd1910e542cbfc3254a931c" target="_top" xlink:title=" ">
<polygon fill="white" stroke="#666666" points="840.5,-152.5 735.5,-152.5 735.5,-133.5 840.5,-133.5 840.5,-152.5"/>
<text text-anchor="middle" x="788" y="-140.5" font-family="Helvetica,sans-Serif" font-size="10.00">OHedgehog::Draw</text>
</a>
</g>
</g>
<!-- Node62&#45;&gt;Node63 -->
<g id="edge28_Node000062_Node000063" class="edge">
<title>Node62&#45;&gt;Node63</title>
<g id="a_edge28_Node000062_Node000063"><a xlink:title=" ">
<path fill="none" stroke="#63b8ff" d="M884.12,-143C869.28,-143 854.3,-143 840.76,-143"/>
<polygon fill="#63b8ff" stroke="#63b8ff" points="884.34,-146.5 894.34,-143 884.34,-139.5 884.34,-146.5"/>
</a>
</g>
</g>
<!-- Node65 -->
<g id="Node000065" class="node">
<title>Node65</title>
<g id="a_Node000065"><a xlink:href="classOChainChomp.html#a2e0ea3675cbfc3f96ef1580984c6149c" target="_top" xlink:title=" ">
<polygon fill="white" stroke="#666666" points="847,-115.5 729,-115.5 729,-96.5 847,-96.5 847,-115.5"/>
<text text-anchor="middle" x="788" y="-103.5" font-family="Helvetica,sans-Serif" font-size="10.00">OChainChomp::Draw</text>
</a>
</g>
</g>
<!-- Node64&#45;&gt;Node65 -->
<g id="edge30_Node000064_Node000065" class="edge">
<title>Node64&#45;&gt;Node65</title>
<g id="a_edge30_Node000064_Node000065"><a xlink:title=" ">
<path fill="none" stroke="#63b8ff" d="M877.95,-106C867.47,-106 857.03,-106 847.18,-106"/>
<polygon fill="#63b8ff" stroke="#63b8ff" points="877.99,-109.5 887.99,-106 877.99,-102.5 877.99,-109.5"/>
</a>
</g>
</g>
<!-- Node67 -->
<g id="Node000067" class="node">
<title>Node67</title>
<g id="a_Node000067"><a xlink:href="classOHotAirBalloon.html#a42ba04a6db43192cd2495b19da3face7" target="_top" xlink:title=" ">
<polygon fill="white" stroke="#666666" points="849.5,-72.5 726.5,-72.5 726.5,-53.5 849.5,-53.5 849.5,-72.5"/>
<text text-anchor="middle" x="788" y="-60.5" font-family="Helvetica,sans-Serif" font-size="10.00">OHotAirBalloon::Draw</text>
</a>
</g>
</g>
<!-- Node66&#45;&gt;Node67 -->
<g id="edge32_Node000066_Node000067" class="edge">
<title>Node66&#45;&gt;Node67</title>
<g id="a_edge32_Node000066_Node000067"><a xlink:title=" ">
<path fill="none" stroke="#63b8ff" d="M902.37,-63C885.04,-63 866.57,-63 849.67,-63"/>
<polygon fill="#63b8ff" stroke="#63b8ff" points="902.41,-66.5 912.41,-63 902.41,-59.5 902.41,-66.5"/>
</a>
</g>
</g>
<!-- Node68&#45;&gt;Node3 -->
<g id="edge34_Node000068_Node000003" class="edge">
<title>Node68&#45;&gt;Node3</title>
<g id="a_edge34_Node000068_Node000003"><a xlink:title=" ">
<path fill="none" stroke="#63b8ff" d="M918.73,-819.86C908.53,-822.2 897.93,-824.66 888,-827 868.2,-831.67 846.22,-836.98 828,-841.42"/>
<polygon fill="#63b8ff" stroke="#63b8ff" points="919.79,-823.21 928.75,-817.56 918.22,-816.38 919.79,-823.21"/>
</a>
</g>
</g>
<!-- Node69 -->
<g id="Node000069" class="node">
<title>Node69</title>
<g id="a_Node000069"><a xlink:href="render__objects_8c.html#a7cb55cc36358ed86661953fa2dd70c5e" target="_top" xlink:title=" ">
<polygon fill="white" stroke="#666666" points="845.5,-823 730.5,-823 730.5,-793 845.5,-793 845.5,-823"/>
<text text-anchor="start" x="738.5" y="-811" font-family="Helvetica,sans-Serif" font-size="10.00">render_battle_bomb</text>
<text text-anchor="middle" x="788" y="-800" font-family="Helvetica,sans-Serif" font-size="10.00">_karts</text>
</a>
</g>
</g>
<!-- Node68&#45;&gt;Node69 -->
<g id="edge35_Node000068_Node000069" class="edge">
<title>Node68&#45;&gt;Node69</title>
<g id="a_edge35_Node000068_Node000069"><a xlink:title=" ">
<path fill="none" stroke="#63b8ff" d="M914.89,-808C892.9,-808 867.7,-808 845.66,-808"/>
<polygon fill="#63b8ff" stroke="#63b8ff" points="915.07,-811.5 925.07,-808 915.07,-804.5 915.07,-811.5"/>
</a>
</g>
</g>
<!-- Node68&#45;&gt;Node70 -->
<g id="edge36_Node000068_Node000070" class="edge">
<title>Node68&#45;&gt;Node70</title>
<g id="a_edge36_Node000068_Node000070"><a xlink:title=" ">
<path fill="none" stroke="#63b8ff" d="M920.73,-796.12C891.91,-789.31 856.23,-780.88 829.28,-774.52"/>
<polygon fill="#63b8ff" stroke="#63b8ff" points="920.07,-799.56 930.61,-798.46 921.68,-792.75 920.07,-799.56"/>
</a>
</g>
</g>
<!-- Node71 -->
<g id="Node000071" class="node">
<title>Node71</title>
<g id="a_Node000071"><a xlink:href="code__80005FD0_8c.html#a20d054883ba7ddebb1b79918d9ac5c86" target="_top" xlink:title=" ">
<polygon fill="white" stroke="#666666" points="680.5,-774.5 540.5,-774.5 540.5,-755.5 680.5,-755.5 680.5,-774.5"/>
<text text-anchor="middle" x="610.5" y="-762.5" font-family="Helvetica,sans-Serif" font-size="10.00">render_bomb_karts_wrap</text>
</a>
</g>
</g>
<!-- Node70&#45;&gt;Node71 -->
<g id="edge37_Node000070_Node000071" class="edge">
<title>Node70&#45;&gt;Node71</title>
<g id="a_edge37_Node000070_Node000071"><a xlink:title=" ">
<path fill="none" stroke="#63b8ff" d="M722.64,-765C708.96,-765 694.47,-765 680.63,-765"/>
<polygon fill="#63b8ff" stroke="#63b8ff" points="722.91,-768.5 732.91,-765 722.91,-761.5 722.91,-768.5"/>
</a>
</g>
</g>
<!-- Node73 -->
<g id="Node000073" class="node">
<title>Node73</title>
<g id="a_Node000073"><a xlink:href="classPlayerBombKart.html#ae72600675ff81bcfcfe0b3e99b72fc10" target="_top" xlink:title=" ">
<polygon fill="white" stroke="#666666" points="852,-404.5 724,-404.5 724,-385.5 852,-385.5 852,-404.5"/>
<text text-anchor="middle" x="788" y="-392.5" font-family="Helvetica,sans-Serif" font-size="10.00">PlayerBombKart::Draw</text>
</a>
</g>
</g>
<!-- Node72&#45;&gt;Node73 -->
<g id="edge39_Node000072_Node000073" class="edge">
<title>Node72&#45;&gt;Node73</title>
<g id="a_edge39_Node000072_Node000073"><a xlink:title=" ">
<path fill="none" stroke="#63b8ff" d="M900.14,-393.78C884.31,-393.95 867.63,-394.14 852.14,-394.31"/>
<polygon fill="#63b8ff" stroke="#63b8ff" points="900.44,-397.28 910.4,-393.67 900.36,-390.28 900.44,-397.28"/>
</a>
</g>
</g>
<!-- Node74 -->
<g id="Node000074" class="node">
<title>Node74</title>
<g id="a_Node000074"><a xlink:href="Game_8cpp.html#aa9e2b586941da1ad897ab6ac13fd44d1" target="_top" xlink:title=" ">
<polygon fill="white" stroke="#666666" points="683.5,-401.5 537.5,-401.5 537.5,-382.5 683.5,-382.5 683.5,-401.5"/>
<text text-anchor="middle" x="610.5" y="-389.5" font-family="Helvetica,sans-Serif" font-size="10.00">CM_DrawBattleBombKarts</text>
</a>
</g>
</g>
<!-- Node73&#45;&gt;Node74 -->
<g id="edge40_Node000073_Node000074" class="edge">
<title>Node73&#45;&gt;Node74</title>
<g id="a_edge40_Node000073_Node000074"><a xlink:title=" ">
<path fill="none" stroke="#63b8ff" d="M713.48,-393.74C703.63,-393.57 693.53,-393.4 683.71,-393.23"/>
<polygon fill="#63b8ff" stroke="#63b8ff" points="713.58,-397.25 723.64,-393.92 713.7,-390.25 713.58,-397.25"/>
</a>
</g>
</g>
<!-- Node74&#45;&gt;Node15 -->
<g id="edge41_Node000074_Node000015" class="edge">
<title>Node74&#45;&gt;Node15</title>
<g id="a_edge41_Node000074_Node000015"><a xlink:title=" ">
<path fill="none" stroke="#63b8ff" d="M527.36,-392C517.27,-392 507.04,-392 497.19,-392"/>
<polygon fill="#63b8ff" stroke="#63b8ff" points="527.38,-395.5 537.38,-392 527.38,-388.5 527.38,-395.5"/>
</a>
</g>
</g>
<!-- Node75&#45;&gt;Node70 -->
<g id="edge43_Node000075_Node000070" class="edge">
<title>Node75&#45;&gt;Node70</title>
<g id="a_edge43_Node000075_Node000070"><a xlink:title=" ">
<path fill="none" stroke="#63b8ff" d="M916.56,-741.87C892.78,-746.18 865.01,-751.22 841.46,-755.49"/>
<polygon fill="#63b8ff" stroke="#63b8ff" points="917.26,-745.3 926.48,-740.07 916.01,-738.41 917.26,-745.3"/>
</a>
</g>
</g>
<!-- Node77 -->
<g id="Node000077" class="node">
<title>Node77</title>
<g id="a_Node000077"><a xlink:href="render__objects_8c.html#a2fa8f48797cb2bca42eb13276898dd54" target="_top" xlink:title=" ">
<polygon fill="white" stroke="#666666" points="850,-30 726,-30 726,0 850,0 850,-30"/>
<text text-anchor="start" x="734" y="-18" font-family="Helvetica,sans-Serif" font-size="10.00">render_object_bowser</text>
<text text-anchor="middle" x="788" y="-7" font-family="Helvetica,sans-Serif" font-size="10.00">_flame</text>
</a>
</g>
</g>
<!-- Node76&#45;&gt;Node77 -->
<g id="edge46_Node000076_Node000077" class="edge">
<title>Node76&#45;&gt;Node77</title>
<g id="a_edge46_Node000076_Node000077"><a xlink:title=" ">
<path fill="none" stroke="#63b8ff" d="M899.83,-15C883.45,-15 866.17,-15 850.26,-15"/>
<polygon fill="#63b8ff" stroke="#63b8ff" points="899.89,-18.5 909.89,-15 899.89,-11.5 899.89,-18.5"/>
</a>
</g>
</g>
<!-- Node78 -->
<g id="Node000078" class="node">
<title>Node78</title>
<g id="a_Node000078"><a xlink:href="classBowsersCastle.html#a0441776ccd815ec72871adadefc2cccb" target="_top" xlink:title=" ">
<polygon fill="white" stroke="#666666" points="683.5,-30 537.5,-30 537.5,0 683.5,0 683.5,-30"/>
<text text-anchor="start" x="545.5" y="-18" font-family="Helvetica,sans-Serif" font-size="10.00">BowsersCastle::DrawTrack</text>
<text text-anchor="middle" x="610.5" y="-7" font-family="Helvetica,sans-Serif" font-size="10.00">Objects</text>
</a>
</g>
</g>
<!-- Node77&#45;&gt;Node78 -->
<g id="edge47_Node000077_Node000078" class="edge">
<title>Node77&#45;&gt;Node78</title>
<g id="a_edge47_Node000077_Node000078"><a xlink:title=" ">
<path fill="none" stroke="#63b8ff" d="M715.31,-15C704.88,-15 694.13,-15 683.69,-15"/>
<polygon fill="#63b8ff" stroke="#63b8ff" points="715.62,-18.5 725.62,-15 715.62,-11.5 715.62,-18.5"/>
</a>
</g>
</g>
<!-- Node80 -->
<g id="Node000080" class="node">
<title>Node80</title>
<g id="a_Node000080"><a xlink:href="render__objects_8c.html#a50e8e7af07b8f51c524740b30edd454b" target="_top" xlink:title=" ">
<polygon fill="white" stroke="#666666" points="852,-367 724,-367 724,-337 852,-337 852,-367"/>
<text text-anchor="start" x="732" y="-355" font-family="Helvetica,sans-Serif" font-size="10.00">render_object_paddle</text>
<text text-anchor="middle" x="788" y="-344" font-family="Helvetica,sans-Serif" font-size="10.00">_boat_smoke_particles</text>
</a>
</g>
</g>
<!-- Node79&#45;&gt;Node80 -->
<g id="edge49_Node000079_Node000080" class="edge">
<title>Node79&#45;&gt;Node80</title>
<g id="a_edge49_Node000079_Node000080"><a xlink:title=" ">
<path fill="none" stroke="#63b8ff" d="M900.14,-347.73C884.31,-348.33 867.63,-348.98 852.14,-349.57"/>
<polygon fill="#63b8ff" stroke="#63b8ff" points="900.54,-351.21 910.4,-347.33 900.27,-344.22 900.54,-351.21"/>
</a>
</g>
</g>
<!-- Node82 -->
<g id="Node000082" class="node">
<title>Node82</title>
<g id="a_Node000082"><a xlink:href="Smoke_8cpp.html#a701f65cce7562e1f6e1fcd6a891341d2" target="_top" xlink:title=" ">
<polygon fill="white" stroke="#666666" points="837,-318.5 739,-318.5 739,-299.5 837,-299.5 837,-318.5"/>
<text text-anchor="middle" x="788" y="-306.5" font-family="Helvetica,sans-Serif" font-size="10.00">TrainSmokeDraw</text>
</a>
</g>
</g>
<!-- Node79&#45;&gt;Node82 -->
<g id="edge51_Node000079_Node000082" class="edge">
<title>Node79&#45;&gt;Node82</title>
<g id="a_edge51_Node000079_Node000082"><a xlink:title=" ">
<path fill="none" stroke="#63b8ff" d="M900.49,-331.05C879.34,-326.87 856.63,-322.38 837.27,-318.55"/>
<polygon fill="#63b8ff" stroke="#63b8ff" points="899.91,-334.51 910.4,-333.01 901.27,-327.64 899.91,-334.51"/>
</a>
</g>
</g>
<!-- Node81 -->
<g id="Node000081" class="node">
<title>Node81</title>
<g id="a_Node000081"><a xlink:href="classDKJungle.html#abd289b79657e6cb7501eb406e988d67b" target="_top" xlink:title=" ">
<polygon fill="white" stroke="#666666" points="688,-361.5 533,-361.5 533,-342.5 688,-342.5 688,-361.5"/>
<text text-anchor="middle" x="610.5" y="-349.5" font-family="Helvetica,sans-Serif" font-size="10.00">DKJungle::DrawTrackObjects</text>
</a>
</g>
</g>
<!-- Node80&#45;&gt;Node81 -->
<g id="edge50_Node000080_Node000081" class="edge">
<title>Node80&#45;&gt;Node81</title>
<g id="a_edge50_Node000080_Node000081"><a xlink:title=" ">
<path fill="none" stroke="#63b8ff" d="M713.55,-352C705.18,-352 696.64,-352 688.24,-352"/>
<polygon fill="#63b8ff" stroke="#63b8ff" points="713.64,-355.5 723.64,-352 713.64,-348.5 713.64,-355.5"/>
</a>
</g>
</g>
<!-- Node83 -->
<g id="Node000083" class="node">
<title>Node83</title>
<g id="a_Node000083"><a xlink:href="Game_8cpp.html#abfc61da343ef2b8055bea1ec869b6363" target="_top" xlink:title=" ">
<polygon fill="white" stroke="#666666" points="673,-321.5 548,-321.5 548,-302.5 673,-302.5 673,-321.5"/>
<text text-anchor="middle" x="610.5" y="-309.5" font-family="Helvetica,sans-Serif" font-size="10.00">CM_DrawTrackObjects</text>
</a>
</g>
</g>
<!-- Node82&#45;&gt;Node83 -->
<g id="edge52_Node000082_Node000083" class="edge">
<title>Node82&#45;&gt;Node83</title>
<g id="a_edge52_Node000082_Node000083"><a xlink:title=" ">
<path fill="none" stroke="#63b8ff" d="M728.38,-310C710.68,-310.3 691.18,-310.64 673.27,-310.94"/>
<polygon fill="#63b8ff" stroke="#63b8ff" points="728.64,-313.5 738.58,-309.83 728.52,-306.5 728.64,-313.5"/>
</a>
</g>
</g>
<!-- Node83&#45;&gt;Node15 -->
<g id="edge53_Node000083_Node000015" class="edge">
<title>Node83&#45;&gt;Node15</title>
<g id="a_edge53_Node000083_Node000015"><a xlink:title=" ">
<path fill="none" stroke="#63b8ff" d="M560.18,-324.38C551.02,-327.19 541.62,-330.41 533,-334 499.6,-347.9 463.26,-369.9 443.61,-382.43"/>
<polygon fill="#63b8ff" stroke="#63b8ff" points="561.38,-327.68 569.99,-321.5 559.41,-320.96 561.38,-327.68"/>
</a>
</g>
</g>
<!-- Node84&#45;&gt;Node82 -->
<g id="edge56_Node000084_Node000082" class="edge">
<title>Node84&#45;&gt;Node82</title>
<g id="a_edge56_Node000084_Node000082"><a xlink:title=" ">
<path fill="none" stroke="#63b8ff" d="M906.13,-301.28C883.36,-302.78 858.22,-304.44 837.08,-305.83"/>
<polygon fill="#63b8ff" stroke="#63b8ff" points="906.65,-304.75 916.39,-300.6 906.19,-297.77 906.65,-304.75"/>
</a>
</g>
</g>
<!-- Node85 -->
<g id="Node000085" class="node">
<title>Node85</title>
<g id="a_Node000085"><a xlink:href="render__objects_8c.html#aca95ae1bf4eceb3f923836b1c36bf148" target="_top" xlink:title=" ">
<polygon fill="white" stroke="#666666" points="846,-281 730,-281 730,-251 846,-251 846,-281"/>
<text text-anchor="start" x="738" y="-269" font-family="Helvetica,sans-Serif" font-size="10.00">render_object_trains</text>
<text text-anchor="middle" x="788" y="-258" font-family="Helvetica,sans-Serif" font-size="10.00">_smoke_particles</text>
</a>
</g>
</g>
<!-- Node84&#45;&gt;Node85 -->
<g id="edge55_Node000084_Node000085" class="edge">
<title>Node84&#45;&gt;Node85</title>
<g id="a_edge55_Node000084_Node000085"><a xlink:title=" ">
<path fill="none" stroke="#63b8ff" d="M906.3,-285.98C886.65,-282.63 865.21,-278.98 846.09,-275.72"/>
<polygon fill="#63b8ff" stroke="#63b8ff" points="905.95,-289.47 916.39,-287.7 907.12,-282.57 905.95,-289.47"/>
</a>
</g>
</g>
<!-- Node86&#45;&gt;Node3 -->
<g id="edge58_Node000086_Node000003" class="edge">
<title>Node86&#45;&gt;Node3</title>
<g id="a_edge58_Node000086_Node000003"><a xlink:title=" ">
<path fill="none" stroke="#63b8ff" d="M891.29,-847.63C873.94,-848.2 856.04,-848.79 840.15,-849.31"/>
<polygon fill="#63b8ff" stroke="#63b8ff" points="891.54,-851.12 901.41,-847.29 891.3,-844.13 891.54,-851.12"/>
</a>
</g>
</g>
</g>
</svg>
