<?xml version="1.0" encoding="UTF-8" standalone="no"?>
<!DOCTYPE svg PUBLIC "-//W3C//DTD SVG 1.1//EN"
 "http://www.w3.org/Graphics/SVG/1.1/DTD/svg11.dtd">
<!-- Generated by graphviz version 2.43.0 (0)
 -->
<!-- Title: src/engine/Matrix.h Pages: 1 -->
<svg width="5377pt" height="159pt"
 viewBox="0.00 0.00 5376.50 159.00" xmlns="http://www.w3.org/2000/svg" xmlns:xlink="http://www.w3.org/1999/xlink">
<g id="graph0" class="graph" transform="scale(1 1) rotate(0) translate(4 155)">
<title>src/engine/Matrix.h</title>
<!-- Node1 -->
<g id="Node000001" class="node">
<title>Node1</title>
<g id="a_Node000001"><a xlink:title=" ">
<polygon fill="#999999" stroke="#666666" points="2866,-151 2756,-151 2756,-132 2866,-132 2866,-151"/>
<text text-anchor="middle" x="2811" y="-139" font-family="Helvetica,sans-Serif" font-size="10.00">src/engine/Matrix.h</text>
</a>
</g>
</g>
<!-- Node2 -->
<g id="Node000002" class="node">
<title>Node2</title>
<g id="a_Node000002"><a xlink:href="animation_8c.html" target="_top" xlink:title=" ">
<polygon fill="white" stroke="#666666" points="92,-90.5 0,-90.5 0,-71.5 92,-71.5 92,-90.5"/>
<text text-anchor="middle" x="46" y="-78.5" font-family="Helvetica,sans-Serif" font-size="10.00">src/animation.c</text>
</a>
</g>
</g>
<!-- Node1&#45;&gt;Node2 -->
<g id="edge1_Node000001_Node000002" class="edge">
<title>Node1&#45;&gt;Node2</title>
<g id="a_edge1_Node000001_Node000002"><a xlink:title=" ">
<path fill="none" stroke="#63b8ff" d="M2745.72,-140.32C2358.53,-139.14 371.2,-131.39 102,-96 93.06,-94.82 83.48,-92.75 74.82,-90.54"/>
<polygon fill="#63b8ff" stroke="#63b8ff" points="2745.9,-143.82 2755.91,-140.35 2745.92,-136.82 2745.9,-143.82"/>
</a>
</g>
</g>
<!-- Node3 -->
<g id="Node000003" class="node">
<title>Node3</title>
<g id="a_Node000003"><a xlink:href="code__80057C60_8c.html" target="_top" xlink:title=" ">
<polygon fill="white" stroke="#666666" points="229.5,-90.5 110.5,-90.5 110.5,-71.5 229.5,-71.5 229.5,-90.5"/>
<text text-anchor="middle" x="170" y="-78.5" font-family="Helvetica,sans-Serif" font-size="10.00">src/code_80057C60.c</text>
</a>
</g>
</g>
<!-- Node1&#45;&gt;Node3 -->
<g id="edge2_Node000001_Node000003" class="edge">
<title>Node1&#45;&gt;Node3</title>
<g id="a_edge2_Node000001_Node000003"><a xlink:title=" ">
<path fill="none" stroke="#63b8ff" d="M2745.77,-140.09C2370.52,-137.61 494.52,-123.9 239,-96 228.06,-94.81 216.29,-92.72 205.62,-90.52"/>
<polygon fill="#63b8ff" stroke="#63b8ff" points="2745.9,-143.59 2755.92,-140.15 2745.94,-136.59 2745.9,-143.59"/>
</a>
</g>
</g>
<!-- Node4 -->
<g id="Node000004" class="node">
<title>Node4</title>
<g id="a_Node000004"><a xlink:href="code__80280000_8c.html" target="_top" xlink:title=" ">
<polygon fill="white" stroke="#666666" points="402.5,-90.5 247.5,-90.5 247.5,-71.5 402.5,-71.5 402.5,-90.5"/>
<text text-anchor="middle" x="325" y="-78.5" font-family="Helvetica,sans-Serif" font-size="10.00">src/ending/code_80280000.c</text>
</a>
</g>
</g>
<!-- Node1&#45;&gt;Node4 -->
<g id="edge3_Node000001_Node000004" class="edge">
<title>Node1&#45;&gt;Node4</title>
<g id="a_edge3_Node000001_Node000004"><a xlink:title=" ">
<path fill="none" stroke="#63b8ff" d="M2745.78,-140.54C2411.08,-140.53 883.87,-138.13 412,-96 398.44,-94.79 383.79,-92.73 370.45,-90.55"/>
<polygon fill="#63b8ff" stroke="#63b8ff" points="2745.79,-144.04 2755.79,-140.53 2745.79,-137.04 2745.79,-144.04"/>
</a>
</g>
</g>
<!-- Node5 -->
<g id="Node000005" class="node">
<title>Node5</title>
<g id="a_Node000005"><a xlink:href="code__80281C40_8c.html" target="_top" xlink:title=" ">
<polygon fill="white" stroke="#666666" points="575.5,-90.5 420.5,-90.5 420.5,-71.5 575.5,-71.5 575.5,-90.5"/>
<text text-anchor="middle" x="498" y="-78.5" font-family="Helvetica,sans-Serif" font-size="10.00">src/ending/code_80281C40.c</text>
</a>
</g>
</g>
<!-- Node1&#45;&gt;Node5 -->
<g id="edge4_Node000001_Node000005" class="edge">
<title>Node1&#45;&gt;Node5</title>
<g id="a_edge4_Node000001_Node000005"><a xlink:title=" ">
<path fill="none" stroke="#63b8ff" d="M2745.63,-140.43C2425.44,-139.87 1020.59,-135.21 585,-96 571.44,-94.78 556.79,-92.72 543.45,-90.54"/>
<polygon fill="#63b8ff" stroke="#63b8ff" points="2745.67,-143.93 2755.67,-140.44 2745.68,-136.93 2745.67,-143.93"/>
</a>
</g>
</g>
<!-- Node6 -->
<g id="Node000006" class="node">
<title>Node6</title>
<g id="a_Node000006"><a xlink:href="podium__ceremony__actors_8c.html" target="_top" xlink:title=" ">
<polygon fill="white" stroke="#666666" points="754.5,-96 593.5,-96 593.5,-66 754.5,-66 754.5,-96"/>
<text text-anchor="start" x="601.5" y="-84" font-family="Helvetica,sans-Serif" font-size="10.00">src/ending/podium_ceremony</text>
<text text-anchor="middle" x="674" y="-73" font-family="Helvetica,sans-Serif" font-size="10.00">_actors.c</text>
</a>
</g>
</g>
<!-- Node1&#45;&gt;Node6 -->
<g id="edge5_Node000001_Node000006" class="edge">
<title>Node1&#45;&gt;Node6</title>
<g id="a_edge5_Node000001_Node000006"><a xlink:title=" ">
<path fill="none" stroke="#63b8ff" d="M2745.57,-140.25C2441.25,-138.89 1162.28,-131.15 764,-96 761.01,-95.74 757.96,-95.43 754.89,-95.1"/>
<polygon fill="#63b8ff" stroke="#63b8ff" points="2745.97,-143.75 2755.98,-140.29 2746,-136.75 2745.97,-143.75"/>
</a>
</g>
</g>
<!-- Node7 -->
<g id="Node000007" class="node">
<title>Node7</title>
<g id="a_Node000007"><a xlink:href="Actor_8cpp.html" target="_top" xlink:title=" ">
<polygon fill="white" stroke="#666666" points="887.5,-90.5 772.5,-90.5 772.5,-71.5 887.5,-71.5 887.5,-90.5"/>
<text text-anchor="middle" x="830" y="-78.5" font-family="Helvetica,sans-Serif" font-size="10.00">src/engine/Actor.cpp</text>
</a>
</g>
</g>
<!-- Node1&#45;&gt;Node7 -->
<g id="edge6_Node000001_Node000007" class="edge">
<title>Node1&#45;&gt;Node7</title>
<g id="a_edge6_Node000001_Node000007"><a xlink:title=" ">
<path fill="none" stroke="#63b8ff" d="M2745.54,-140.58C2453.36,-140.71 1266.59,-138.55 897,-96 886.49,-94.79 875.19,-92.73 864.92,-90.56"/>
<polygon fill="#63b8ff" stroke="#63b8ff" points="2745.96,-144.08 2755.96,-140.58 2745.96,-137.08 2745.96,-144.08"/>
</a>
</g>
</g>
<!-- Node8 -->
<g id="Node000008" class="node">
<title>Node8</title>
<g id="a_Node000008"><a xlink:href="HM__Intro_8cpp.html" target="_top" xlink:title=" ">
<polygon fill="white" stroke="#666666" points="1040,-90.5 906,-90.5 906,-71.5 1040,-71.5 1040,-90.5"/>
<text text-anchor="middle" x="973" y="-78.5" font-family="Helvetica,sans-Serif" font-size="10.00">src/engine/HM_Intro.cpp</text>
</a>
</g>
</g>
<!-- Node1&#45;&gt;Node8 -->
<g id="edge7_Node000001_Node000008" class="edge">
<title>Node1&#45;&gt;Node8</title>
<g id="a_edge7_Node000001_Node000008"><a xlink:title=" ">
<path fill="none" stroke="#63b8ff" d="M2745.36,-140.22C2467.58,-138.83 1387.43,-131.22 1049,-96 1037.12,-94.76 1024.32,-92.7 1012.67,-90.52"/>
<polygon fill="#63b8ff" stroke="#63b8ff" points="2745.66,-143.72 2755.68,-140.27 2745.69,-136.72 2745.66,-143.72"/>
</a>
</g>
</g>
<!-- Node9 -->
<g id="Node000009" class="node">
<title>Node9</title>
<g id="a_Node000009"><a xlink:href="PlayerBombKart_8cpp.html" target="_top" xlink:title=" ">
<polygon fill="white" stroke="#666666" points="1228,-90.5 1058,-90.5 1058,-71.5 1228,-71.5 1228,-90.5"/>
<text text-anchor="middle" x="1143" y="-78.5" font-family="Helvetica,sans-Serif" font-size="10.00">src/engine/PlayerBombKart.cpp</text>
</a>
</g>
</g>
<!-- Node1&#45;&gt;Node9 -->
<g id="edge8_Node000001_Node000009" class="edge">
<title>Node1&#45;&gt;Node9</title>
<g id="a_edge8_Node000001_Node000009"><a xlink:title=" ">
<path fill="none" stroke="#63b8ff" d="M2745.32,-139.68C2486.66,-136.27 1537.81,-122.24 1238,-96 1223.39,-94.72 1207.59,-92.67 1193.16,-90.52"/>
<polygon fill="#63b8ff" stroke="#63b8ff" points="2745.63,-143.18 2755.68,-139.81 2745.73,-136.18 2745.63,-143.18"/>
</a>
</g>
</g>
<!-- Node10 -->
<g id="Node000010" class="node">
<title>Node10</title>
<g id="a_Node000010"><a xlink:href="StaticMeshActor_8cpp.html" target="_top" xlink:title=" ">
<polygon fill="white" stroke="#666666" points="1415.5,-90.5 1246.5,-90.5 1246.5,-71.5 1415.5,-71.5 1415.5,-90.5"/>
<text text-anchor="middle" x="1331" y="-78.5" font-family="Helvetica,sans-Serif" font-size="10.00">src/engine/StaticMeshActor.cpp</text>
</a>
</g>
</g>
<!-- Node1&#45;&gt;Node10 -->
<g id="edge9_Node000001_Node000010" class="edge">
<title>Node1&#45;&gt;Node10</title>
<g id="a_edge9_Node000001_Node000010"><a xlink:title=" ">
<path fill="none" stroke="#63b8ff" d="M2745.45,-141.08C2546.42,-142.28 1931.75,-141.72 1425,-96 1410.7,-94.71 1395.27,-92.68 1381.12,-90.56"/>
<polygon fill="#63b8ff" stroke="#63b8ff" points="2745.75,-144.58 2755.73,-141.02 2745.71,-137.58 2745.75,-144.58"/>
</a>
</g>
</g>
<!-- Node11 -->
<g id="Node000011" class="node">
<title>Node11</title>
<g id="a_Node000011"><a xlink:href="BowserStatue_8cpp.html" target="_top" xlink:title=" ">
<polygon fill="white" stroke="#666666" points="1572.5,-96 1433.5,-96 1433.5,-66 1572.5,-66 1572.5,-96"/>
<text text-anchor="start" x="1441.5" y="-84" font-family="Helvetica,sans-Serif" font-size="10.00">src/engine/actors/Bowser</text>
<text text-anchor="middle" x="1503" y="-73" font-family="Helvetica,sans-Serif" font-size="10.00">Statue.cpp</text>
</a>
</g>
</g>
<!-- Node1&#45;&gt;Node11 -->
<g id="edge10_Node000001_Node000011" class="edge">
<title>Node1&#45;&gt;Node11</title>
<g id="a_edge10_Node000001_Node000011"><a xlink:title=" ">
<path fill="none" stroke="#63b8ff" d="M2745.87,-139.34C2525.8,-135.23 1810.85,-120.3 1582,-96 1578.95,-95.68 1575.85,-95.31 1572.71,-94.9"/>
<polygon fill="#63b8ff" stroke="#63b8ff" points="2745.91,-142.84 2755.97,-139.53 2746.04,-135.84 2745.91,-142.84"/>
</a>
</g>
</g>
<!-- Node12 -->
<g id="Node000012" class="node">
<title>Node12</title>
<g id="a_Node000012"><a xlink:href="Ship_8cpp.html" target="_top" xlink:title=" ">
<polygon fill="white" stroke="#666666" points="1735,-90.5 1591,-90.5 1591,-71.5 1735,-71.5 1735,-90.5"/>
<text text-anchor="middle" x="1663" y="-78.5" font-family="Helvetica,sans-Serif" font-size="10.00">src/engine/actors/Ship.cpp</text>
</a>
</g>
</g>
<!-- Node1&#45;&gt;Node12 -->
<g id="edge11_Node000001_Node000012" class="edge">
<title>Node1&#45;&gt;Node12</title>
<g id="a_edge11_Node000001_Node000012"><a xlink:title=" ">
<path fill="none" stroke="#63b8ff" d="M2745.79,-140.66C2578.85,-140.45 2122.54,-135.94 1745,-96 1732.51,-94.68 1719.03,-92.64 1706.69,-90.52"/>
<polygon fill="#63b8ff" stroke="#63b8ff" points="2745.89,-144.16 2755.9,-140.67 2745.9,-137.16 2745.89,-144.16"/>
</a>
</g>
</g>
<!-- Node13 -->
<g id="Node000013" class="node">
<title>Node13</title>
<g id="a_Node000013"><a xlink:href="SpaghettiShip_8cpp.html" target="_top" xlink:title=" ">
<polygon fill="white" stroke="#666666" points="1902.5,-96 1753.5,-96 1753.5,-66 1902.5,-66 1902.5,-96"/>
<text text-anchor="start" x="1761.5" y="-84" font-family="Helvetica,sans-Serif" font-size="10.00">src/engine/actors/Spaghetti</text>
<text text-anchor="middle" x="1828" y="-73" font-family="Helvetica,sans-Serif" font-size="10.00">Ship.cpp</text>
</a>
</g>
</g>
<!-- Node1&#45;&gt;Node13 -->
<g id="edge12_Node000001_Node000013" class="edge">
<title>Node1&#45;&gt;Node13</title>
<g id="a_edge12_Node000001_Node000013"><a xlink:title=" ">
<path fill="none" stroke="#63b8ff" d="M2745.54,-139.85C2596.93,-137.81 2222.85,-129.48 1912,-96 1908.91,-95.67 1905.77,-95.3 1902.59,-94.89"/>
<polygon fill="#63b8ff" stroke="#63b8ff" points="2745.8,-143.35 2755.84,-139.99 2745.89,-136.35 2745.8,-143.35"/>
</a>
</g>
</g>
<!-- Node14 -->
<g id="Node000014" class="node">
<title>Node14</title>
<g id="a_Node000014"><a xlink:href="Starship_8cpp.html" target="_top" xlink:title=" ">
<polygon fill="white" stroke="#666666" points="2083.5,-90.5 1920.5,-90.5 1920.5,-71.5 2083.5,-71.5 2083.5,-90.5"/>
<text text-anchor="middle" x="2002" y="-78.5" font-family="Helvetica,sans-Serif" font-size="10.00">src/engine/actors/Starship.cpp</text>
</a>
</g>
</g>
<!-- Node1&#45;&gt;Node14 -->
<g id="edge13_Node000001_Node000014" class="edge">
<title>Node1&#45;&gt;Node14</title>
<g id="a_edge13_Node000001_Node000014"><a xlink:title=" ">
<path fill="none" stroke="#63b8ff" d="M2745.64,-138.44C2619.26,-134 2332.75,-121.82 2093,-96 2079.65,-94.56 2065.26,-92.56 2051.96,-90.52"/>
<polygon fill="#63b8ff" stroke="#63b8ff" points="2745.79,-141.94 2755.91,-138.79 2746.04,-134.95 2745.79,-141.94"/>
</a>
</g>
</g>
<!-- Node15 -->
<g id="Node000015" class="node">
<title>Node15</title>
<g id="a_Node000015"><a xlink:href="Text_8cpp.html" target="_top" xlink:title=" ">
<polygon fill="white" stroke="#666666" points="2244.5,-90.5 2101.5,-90.5 2101.5,-71.5 2244.5,-71.5 2244.5,-90.5"/>
<text text-anchor="middle" x="2173" y="-78.5" font-family="Helvetica,sans-Serif" font-size="10.00">src/engine/actors/Text.cpp</text>
</a>
</g>
</g>
<!-- Node1&#45;&gt;Node15 -->
<g id="edge14_Node000001_Node000015" class="edge">
<title>Node1&#45;&gt;Node15</title>
<g id="a_edge14_Node000001_Node000015"><a xlink:title=" ">
<path fill="none" stroke="#63b8ff" d="M2745.83,-137.23C2641.63,-131.57 2431.21,-118.35 2254,-96 2242.25,-94.52 2229.6,-92.53 2217.88,-90.51"/>
<polygon fill="#63b8ff" stroke="#63b8ff" points="2745.71,-140.73 2755.88,-137.77 2746.09,-133.74 2745.71,-140.73"/>
</a>
</g>
</g>
<!-- Node16 -->
<g id="Node000016" class="node">
<title>Node16</title>
<g id="a_Node000016"><a xlink:href="FreeCamera_8cpp.html" target="_top" xlink:title=" ">
<polygon fill="white" stroke="#666666" points="2375,-96 2263,-96 2263,-66 2375,-66 2375,-96"/>
<text text-anchor="start" x="2271" y="-84" font-family="Helvetica,sans-Serif" font-size="10.00">src/engine/cameras</text>
<text text-anchor="middle" x="2319" y="-73" font-family="Helvetica,sans-Serif" font-size="10.00">/FreeCamera.cpp</text>
</a>
</g>
</g>
<!-- Node1&#45;&gt;Node16 -->
<g id="edge15_Node000001_Node000016" class="edge">
<title>Node1&#45;&gt;Node16</title>
<g id="a_edge15_Node000001_Node000016"><a xlink:title=" ">
<path fill="none" stroke="#63b8ff" d="M2745.65,-135.9C2661.63,-129.48 2511.36,-116.29 2384,-96 2381.15,-95.55 2378.24,-95.05 2375.3,-94.52"/>
<polygon fill="#63b8ff" stroke="#63b8ff" points="2745.58,-139.41 2755.82,-136.67 2746.11,-132.43 2745.58,-139.41"/>
</a>
</g>
</g>
<!-- Node17 -->
<g id="Node000017" class="node">
<title>Node17</title>
<g id="a_Node000017"><a xlink:href="GameCamera_8cpp.html" target="_top" xlink:title=" ">
<polygon fill="white" stroke="#666666" points="2505,-96 2393,-96 2393,-66 2505,-66 2505,-96"/>
<text text-anchor="start" x="2401" y="-84" font-family="Helvetica,sans-Serif" font-size="10.00">src/engine/cameras</text>
<text text-anchor="middle" x="2449" y="-73" font-family="Helvetica,sans-Serif" font-size="10.00">/GameCamera.cpp</text>
</a>
</g>
</g>
<!-- Node1&#45;&gt;Node17 -->
<g id="edge16_Node000001_Node000017" class="edge">
<title>Node1&#45;&gt;Node17</title>
<g id="a_edge16_Node000001_Node000017"><a xlink:title=" ">
<path fill="none" stroke="#63b8ff" d="M2745.63,-131.82C2685.53,-123.56 2594.03,-110.31 2515,-96 2511.77,-95.42 2508.46,-94.79 2505.12,-94.14"/>
<polygon fill="#63b8ff" stroke="#63b8ff" points="2745.36,-135.31 2755.74,-133.2 2746.3,-128.38 2745.36,-135.31"/>
</a>
</g>
</g>
<!-- Node18 -->
<g id="Node000018" class="node">
<title>Node18</title>
<g id="a_Node000018"><a xlink:href="LookBehindCamera_8cpp.html" target="_top" xlink:title=" ">
<polygon fill="white" stroke="#666666" points="2658.5,-96 2523.5,-96 2523.5,-66 2658.5,-66 2658.5,-96"/>
<text text-anchor="start" x="2531.5" y="-84" font-family="Helvetica,sans-Serif" font-size="10.00">src/engine/cameras</text>
<text text-anchor="middle" x="2591" y="-73" font-family="Helvetica,sans-Serif" font-size="10.00">/LookBehindCamera.cpp</text>
</a>
</g>
</g>
<!-- Node1&#45;&gt;Node18 -->
<g id="edge17_Node000001_Node000018" class="edge">
<title>Node1&#45;&gt;Node18</title>
<g id="a_edge17_Node000001_Node000018"><a xlink:title=" ">
<path fill="none" stroke="#63b8ff" d="M2768.96,-129.32C2733.39,-119.86 2682.24,-106.26 2643.89,-96.06"/>
<polygon fill="#63b8ff" stroke="#63b8ff" points="2768.45,-132.81 2779.01,-131.99 2770.25,-126.04 2768.45,-132.81"/>
</a>
</g>
</g>
<!-- Node19 -->
<g id="Node000019" class="node">
<title>Node19</title>
<g id="a_Node000019"><a xlink:href="TourCamera_8cpp.html" target="_top" xlink:title=" ">
<polygon fill="white" stroke="#666666" points="2789,-96 2677,-96 2677,-66 2789,-66 2789,-96"/>
<text text-anchor="start" x="2685" y="-84" font-family="Helvetica,sans-Serif" font-size="10.00">src/engine/cameras</text>
<text text-anchor="middle" x="2733" y="-73" font-family="Helvetica,sans-Serif" font-size="10.00">/TourCamera.cpp</text>
</a>
</g>
</g>
<!-- Node1&#45;&gt;Node19 -->
<g id="edge18_Node000001_Node000019" class="edge">
<title>Node1&#45;&gt;Node19</title>
<g id="a_edge18_Node000001_Node000019"><a xlink:title=" ">
<path fill="none" stroke="#63b8ff" d="M2791.36,-125.77C2779.24,-116.68 2763.78,-105.09 2751.82,-96.11"/>
<polygon fill="#63b8ff" stroke="#63b8ff" points="2789.39,-128.67 2799.49,-131.87 2793.59,-123.07 2789.39,-128.67"/>
</a>
</g>
</g>
<!-- Node20 -->
<g id="Node000020" class="node">
<title>Node20</title>
<g id="a_Node000020"><a xlink:href="Collision_8cpp.html" target="_top" xlink:title=" ">
<polygon fill="white" stroke="#666666" points="2971,-90.5 2807,-90.5 2807,-71.5 2971,-71.5 2971,-90.5"/>
<text text-anchor="middle" x="2889" y="-78.5" font-family="Helvetica,sans-Serif" font-size="10.00">src/engine/editor/Collision.cpp</text>
</a>
</g>
</g>
<!-- Node1&#45;&gt;Node20 -->
<g id="edge19_Node000001_Node000020" class="edge">
<title>Node1&#45;&gt;Node20</title>
<g id="a_edge19_Node000001_Node000020"><a xlink:title=" ">
<path fill="none" stroke="#63b8ff" d="M2830.54,-125.85C2845.31,-114.77 2865.1,-99.93 2877.44,-90.67"/>
<polygon fill="#63b8ff" stroke="#63b8ff" points="2828.41,-123.07 2822.51,-131.87 2832.61,-128.67 2828.41,-123.07"/>
</a>
</g>
</g>
<!-- Node21 -->
<g id="Node000021" class="node">
<title>Node21</title>
<g id="a_Node000021"><a xlink:href="Gizmo_8cpp.html" target="_top" xlink:title=" ">
<polygon fill="white" stroke="#666666" points="3142.5,-90.5 2989.5,-90.5 2989.5,-71.5 3142.5,-71.5 3142.5,-90.5"/>
<text text-anchor="middle" x="3066" y="-78.5" font-family="Helvetica,sans-Serif" font-size="10.00">src/engine/editor/Gizmo.cpp</text>
</a>
</g>
</g>
<!-- Node1&#45;&gt;Node21 -->
<g id="edge20_Node000001_Node000021" class="edge">
<title>Node1&#45;&gt;Node21</title>
<g id="a_edge20_Node000001_Node000021"><a xlink:title=" ">
<path fill="none" stroke="#63b8ff" d="M2857.85,-129.75C2907.12,-118.45 2983.63,-100.9 3028.88,-90.52"/>
<polygon fill="#63b8ff" stroke="#63b8ff" points="2857.04,-126.35 2848.08,-131.99 2858.61,-133.17 2857.04,-126.35"/>
</a>
</g>
</g>
<!-- Node22 -->
<g id="Node000022" class="node">
<title>Node22</title>
<g id="a_Node000022"><a xlink:href="Light_8cpp.html" target="_top" xlink:title=" ">
<polygon fill="white" stroke="#666666" points="3307,-90.5 3161,-90.5 3161,-71.5 3307,-71.5 3307,-90.5"/>
<text text-anchor="middle" x="3234" y="-78.5" font-family="Helvetica,sans-Serif" font-size="10.00">src/engine/editor/Light.cpp</text>
</a>
</g>
</g>
<!-- Node1&#45;&gt;Node22 -->
<g id="edge21_Node000001_Node000022" class="edge">
<title>Node1&#45;&gt;Node22</title>
<g id="a_edge21_Node000001_Node000022"><a xlink:title=" ">
<path fill="none" stroke="#63b8ff" d="M2876.26,-132.76C2944.97,-124.42 3056.26,-110.41 3152,-96 3163,-94.34 3174.8,-92.42 3185.92,-90.53"/>
<polygon fill="#63b8ff" stroke="#63b8ff" points="2875.53,-129.32 2866.02,-134 2876.37,-136.27 2875.53,-129.32"/>
</a>
</g>
</g>
<!-- Node23 -->
<g id="Node000023" class="node">
<title>Node23</title>
<g id="a_Node000023"><a xlink:href="ObjectPicker_8h.html" target="_top" xlink:title=" ">
<polygon fill="white" stroke="#666666" points="3458.5,-96 3325.5,-96 3325.5,-66 3458.5,-66 3458.5,-96"/>
<text text-anchor="start" x="3333.5" y="-84" font-family="Helvetica,sans-Serif" font-size="10.00">src/engine/editor/Object</text>
<text text-anchor="middle" x="3392" y="-73" font-family="Helvetica,sans-Serif" font-size="10.00">Picker.h</text>
</a>
</g>
</g>
<!-- Node1&#45;&gt;Node23 -->
<g id="edge22_Node000001_Node000023" class="edge">
<title>Node1&#45;&gt;Node23</title>
<g id="a_edge22_Node000001_Node000023"><a xlink:title=" ">
<path fill="none" stroke="#63b8ff" d="M2876.29,-136.72C2972.75,-130.69 3158.86,-117.35 3316,-96 3319.06,-95.58 3322.18,-95.13 3325.33,-94.65"/>
<polygon fill="#63b8ff" stroke="#63b8ff" points="2875.88,-133.24 2866.11,-137.35 2876.31,-140.23 2875.88,-133.24"/>
</a>
</g>
</g>
<!-- Node25 -->
<g id="Node000025" class="node">
<title>Node25</title>
<g id="a_Node000025"><a xlink:href="BombKart_8cpp.html" target="_top" xlink:title=" ">
<polygon fill="white" stroke="#666666" points="3581.5,-96 3476.5,-96 3476.5,-66 3581.5,-66 3581.5,-96"/>
<text text-anchor="start" x="3484.5" y="-84" font-family="Helvetica,sans-Serif" font-size="10.00">src/engine/objects</text>
<text text-anchor="middle" x="3529" y="-73" font-family="Helvetica,sans-Serif" font-size="10.00">/BombKart.cpp</text>
</a>
</g>
</g>
<!-- Node1&#45;&gt;Node25 -->
<g id="edge24_Node000001_Node000025" class="edge">
<title>Node1&#45;&gt;Node25</title>
<g id="a_edge24_Node000001_Node000025"><a xlink:title=" ">
<path fill="none" stroke="#63b8ff" d="M2876.26,-139.49C2994.74,-136.89 3252.88,-127.77 3468,-96 3470.69,-95.6 3473.43,-95.15 3476.2,-94.66"/>
<polygon fill="#63b8ff" stroke="#63b8ff" points="2876.18,-135.99 2866.26,-139.7 2876.33,-142.99 2876.18,-135.99"/>
</a>
</g>
</g>
<!-- Node26 -->
<g id="Node000026" class="node">
<title>Node26</title>
<g id="a_Node000026"><a xlink:href="Trophy_8cpp.html" target="_top" xlink:title=" ">
<polygon fill="white" stroke="#666666" points="3704.5,-96 3599.5,-96 3599.5,-66 3704.5,-66 3704.5,-96"/>
<text text-anchor="start" x="3607.5" y="-84" font-family="Helvetica,sans-Serif" font-size="10.00">src/engine/objects</text>
<text text-anchor="middle" x="3652" y="-73" font-family="Helvetica,sans-Serif" font-size="10.00">/Trophy.cpp</text>
</a>
</g>
</g>
<!-- Node1&#45;&gt;Node26 -->
<g id="edge25_Node000001_Node000026" class="edge">
<title>Node1&#45;&gt;Node26</title>
<g id="a_edge25_Node000001_Node000026"><a xlink:title=" ">
<path fill="none" stroke="#63b8ff" d="M2876.29,-140.48C3010.74,-139.63 3327.94,-133.42 3591,-96 3593.69,-95.62 3596.44,-95.18 3599.2,-94.69"/>
<polygon fill="#63b8ff" stroke="#63b8ff" points="2876.14,-136.98 2866.16,-140.54 2876.18,-143.98 2876.14,-136.98"/>
</a>
</g>
</g>
<!-- Node27 -->
<g id="Node000027" class="node">
<title>Node27</title>
<g id="a_Node000027"><a xlink:href="collision__viewer_8c.html" target="_top" xlink:title=" ">
<polygon fill="white" stroke="#666666" points="3871.5,-96 3722.5,-96 3722.5,-66 3871.5,-66 3871.5,-96"/>
<text text-anchor="start" x="3730.5" y="-84" font-family="Helvetica,sans-Serif" font-size="10.00">src/enhancements/collision</text>
<text text-anchor="middle" x="3797" y="-73" font-family="Helvetica,sans-Serif" font-size="10.00">_viewer.c</text>
</a>
</g>
</g>
<!-- Node1&#45;&gt;Node27 -->
<g id="edge26_Node000001_Node000027" class="edge">
<title>Node1&#45;&gt;Node27</title>
<g id="a_edge26_Node000001_Node000027"><a xlink:title=" ">
<path fill="none" stroke="#63b8ff" d="M2876.49,-139.91C3025.58,-138 3401.61,-129.92 3714,-96 3716.76,-95.7 3719.57,-95.37 3722.4,-95.01"/>
<polygon fill="#63b8ff" stroke="#63b8ff" points="2876.1,-136.42 2866.15,-140.04 2876.19,-143.42 2876.1,-136.42"/>
</a>
</g>
</g>
<!-- Node28 -->
<g id="Node000028" class="node">
<title>Node28</title>
<g id="a_Node000028"><a xlink:href="freecam_8cpp.html" target="_top" xlink:title=" ">
<polygon fill="white" stroke="#666666" points="4038.5,-96 3889.5,-96 3889.5,-66 4038.5,-66 4038.5,-96"/>
<text text-anchor="start" x="3897.5" y="-84" font-family="Helvetica,sans-Serif" font-size="10.00">src/enhancements/freecam</text>
<text text-anchor="middle" x="3964" y="-73" font-family="Helvetica,sans-Serif" font-size="10.00">/freecam.cpp</text>
</a>
</g>
</g>
<!-- Node1&#45;&gt;Node28 -->
<g id="edge27_Node000001_Node000028" class="edge">
<title>Node1&#45;&gt;Node28</title>
<g id="a_edge27_Node000001_Node000028"><a xlink:title=" ">
<path fill="none" stroke="#63b8ff" d="M2876.15,-140.63C3043.46,-140.35 3501.78,-135.71 3881,-96 3883.76,-95.71 3886.57,-95.39 3889.4,-95.04"/>
<polygon fill="#63b8ff" stroke="#63b8ff" points="2876.02,-137.13 2866.02,-140.64 2876.03,-144.13 2876.02,-137.13"/>
</a>
</g>
</g>
<!-- Node29 -->
<g id="Node000029" class="node">
<title>Node29</title>
<g id="a_Node000029"><a xlink:href="main_8c.html" target="_top" xlink:title=" ">
<polygon fill="white" stroke="#666666" points="4123.5,-90.5 4056.5,-90.5 4056.5,-71.5 4123.5,-71.5 4123.5,-90.5"/>
<text text-anchor="middle" x="4090" y="-78.5" font-family="Helvetica,sans-Serif" font-size="10.00">src/main.c</text>
</a>
</g>
</g>
<!-- Node1&#45;&gt;Node29 -->
<g id="edge28_Node000001_Node000029" class="edge">
<title>Node1&#45;&gt;Node29</title>
<g id="a_edge28_Node000001_Node000029"><a xlink:title=" ">
<path fill="none" stroke="#63b8ff" d="M2876.35,-140.6C3097.99,-140.57 3819.93,-137.23 4048,-96 4054.66,-94.8 4061.7,-92.77 4068.08,-90.62"/>
<polygon fill="#63b8ff" stroke="#63b8ff" points="2876.18,-137.1 2866.18,-140.6 2876.18,-144.1 2876.18,-137.1"/>
</a>
</g>
</g>
<!-- Node30 -->
<g id="Node000030" class="node">
<title>Node30</title>
<g id="a_Node000030"><a xlink:href="math__util__2_8c.html" target="_top" xlink:title=" ">
<polygon fill="white" stroke="#666666" points="4242,-90.5 4142,-90.5 4142,-71.5 4242,-71.5 4242,-90.5"/>
<text text-anchor="middle" x="4192" y="-78.5" font-family="Helvetica,sans-Serif" font-size="10.00">src/math_util_2.c</text>
</a>
</g>
</g>
<!-- Node1&#45;&gt;Node30 -->
<g id="edge29_Node000001_Node000030" class="edge">
<title>Node1&#45;&gt;Node30</title>
<g id="a_edge29_Node000001_Node000030"><a xlink:title=" ">
<path fill="none" stroke="#63b8ff" d="M2876.38,-140.02C3107.59,-138.07 3886,-129.12 4133,-96 4142.29,-94.75 4152.25,-92.68 4161.29,-90.51"/>
<polygon fill="#63b8ff" stroke="#63b8ff" points="2876.08,-136.53 2866.11,-140.11 2876.14,-143.53 2876.08,-136.53"/>
</a>
</g>
</g>
<!-- Node31 -->
<g id="Node000031" class="node">
<title>Node31</title>
<g id="a_Node000031"><a xlink:href="menu__items_8c.html" target="_top" xlink:title=" ">
<polygon fill="white" stroke="#666666" points="4363.5,-90.5 4260.5,-90.5 4260.5,-71.5 4363.5,-71.5 4363.5,-90.5"/>
<text text-anchor="middle" x="4312" y="-78.5" font-family="Helvetica,sans-Serif" font-size="10.00">src/menu_items.c</text>
</a>
</g>
</g>
<!-- Node1&#45;&gt;Node31 -->
<g id="edge30_Node000001_Node000031" class="edge">
<title>Node1&#45;&gt;Node31</title>
<g id="a_edge30_Node000001_Node000031"><a xlink:title=" ">
<path fill="none" stroke="#63b8ff" d="M2876.42,-140.17C3120.75,-138.67 3979.7,-130.99 4251,-96 4260.59,-94.76 4270.89,-92.69 4280.24,-90.52"/>
<polygon fill="#63b8ff" stroke="#63b8ff" points="2876.25,-136.67 2866.27,-140.23 2876.29,-143.67 2876.25,-136.67"/>
</a>
</g>
</g>
<!-- Node32 -->
<g id="Node000032" class="node">
<title>Node32</title>
<g id="a_Node000032"><a xlink:href="player__controller_8c.html" target="_top" xlink:title=" ">
<polygon fill="white" stroke="#666666" points="4506,-90.5 4382,-90.5 4382,-71.5 4506,-71.5 4506,-90.5"/>
<text text-anchor="middle" x="4444" y="-78.5" font-family="Helvetica,sans-Serif" font-size="10.00">src/player_controller.c</text>
</a>
</g>
</g>
<!-- Node1&#45;&gt;Node32 -->
<g id="edge31_Node000001_Node000032" class="edge">
<title>Node1&#45;&gt;Node32</title>
<g id="a_edge31_Node000001_Node000032"><a xlink:title=" ">
<path fill="none" stroke="#63b8ff" d="M2876.69,-140.08C3134.32,-138.23 4076.17,-129.26 4373,-96 4384.11,-94.75 4396.08,-92.68 4406.96,-90.51"/>
<polygon fill="#63b8ff" stroke="#63b8ff" points="2876.35,-136.59 2866.37,-140.16 2876.4,-143.59 2876.35,-136.59"/>
</a>
</g>
</g>
<!-- Node33 -->
<g id="Node000033" class="node">
<title>Node33</title>
<g id="a_Node000033"><a xlink:href="FrameInterpolation_8cpp.html" target="_top" xlink:title=" ">
<polygon fill="white" stroke="#666666" points="4657.5,-96 4524.5,-96 4524.5,-66 4657.5,-66 4657.5,-96"/>
<text text-anchor="start" x="4532.5" y="-84" font-family="Helvetica,sans-Serif" font-size="10.00">src/port/interpolation</text>
<text text-anchor="middle" x="4591" y="-73" font-family="Helvetica,sans-Serif" font-size="10.00">/FrameInterpolation.cpp</text>
</a>
</g>
</g>
<!-- Node1&#45;&gt;Node33 -->
<g id="edge32_Node000001_Node000033" class="edge">
<title>Node1&#45;&gt;Node33</title>
<g id="a_edge32_Node000001_Node000033"><a xlink:title=" ">
<path fill="none" stroke="#63b8ff" d="M2876.28,-140.16C3147.76,-138.53 4188.44,-130.13 4515,-96 4518.07,-95.68 4521.2,-95.3 4524.36,-94.88"/>
<polygon fill="#63b8ff" stroke="#63b8ff" points="2876.17,-136.66 2866.19,-140.22 2876.21,-143.66 2876.17,-136.66"/>
</a>
</g>
</g>
<!-- Node34 -->
<g id="Node000034" class="node">
<title>Node34</title>
<g id="a_Node000034"><a xlink:href="math__util_8c.html" target="_top" xlink:title=" ">
<polygon fill="white" stroke="#666666" points="4798,-90.5 4676,-90.5 4676,-71.5 4798,-71.5 4798,-90.5"/>
<text text-anchor="middle" x="4737" y="-78.5" font-family="Helvetica,sans-Serif" font-size="10.00">src/racing/math_util.c</text>
</a>
</g>
</g>
<!-- Node1&#45;&gt;Node34 -->
<g id="edge33_Node000001_Node000034" class="edge">
<title>Node1&#45;&gt;Node34</title>
<g id="a_edge33_Node000001_Node000034"><a xlink:title=" ">
<path fill="none" stroke="#63b8ff" d="M2876.36,-140.45C3162.83,-140.02 4309.23,-135.76 4667,-96 4677.96,-94.78 4689.76,-92.72 4700.49,-90.54"/>
<polygon fill="#63b8ff" stroke="#63b8ff" points="2876.13,-136.95 2866.13,-140.47 2876.14,-143.95 2876.13,-136.95"/>
</a>
</g>
</g>
<!-- Node35 -->
<g id="Node000035" class="node">
<title>Node35</title>
<g id="a_Node000035"><a xlink:href="render__courses_8c.html" target="_top" xlink:title=" ">
<polygon fill="white" stroke="#666666" points="4965.5,-90.5 4816.5,-90.5 4816.5,-71.5 4965.5,-71.5 4965.5,-90.5"/>
<text text-anchor="middle" x="4891" y="-78.5" font-family="Helvetica,sans-Serif" font-size="10.00">src/racing/render_courses.c</text>
</a>
</g>
</g>
<!-- Node1&#45;&gt;Node35 -->
<g id="edge34_Node000001_Node000035" class="edge">
<title>Node1&#45;&gt;Node35</title>
<g id="a_edge34_Node000001_Node000035"><a xlink:title=" ">
<path fill="none" stroke="#63b8ff" d="M2876.28,-140.3C3175.69,-139.19 4419.48,-132.42 4807,-96 4820.1,-94.77 4834.24,-92.7 4847.12,-90.53"/>
<polygon fill="#63b8ff" stroke="#63b8ff" points="2876.02,-136.8 2866.03,-140.34 2876.04,-143.8 2876.02,-136.8"/>
</a>
</g>
</g>
<!-- Node36 -->
<g id="Node000036" class="node">
<title>Node36</title>
<g id="a_Node000036"><a xlink:href="skybox__and__splitscreen_8c.html" target="_top" xlink:title=" ">
<polygon fill="white" stroke="#666666" points="5108.5,-96 4983.5,-96 4983.5,-66 5108.5,-66 5108.5,-96"/>
<text text-anchor="start" x="4991.5" y="-84" font-family="Helvetica,sans-Serif" font-size="10.00">src/racing/skybox_and</text>
<text text-anchor="middle" x="5046" y="-73" font-family="Helvetica,sans-Serif" font-size="10.00">_splitscreen.c</text>
</a>
</g>
</g>
<!-- Node1&#45;&gt;Node36 -->
<g id="edge35_Node000001_Node000036" class="edge">
<title>Node1&#45;&gt;Node36</title>
<g id="a_edge35_Node000001_Node000036"><a xlink:title=" ">
<path fill="none" stroke="#63b8ff" d="M2876.59,-140.69C3191.81,-141.37 4553.19,-141.57 4975,-96 4977.75,-95.7 4980.55,-95.35 4983.37,-94.96"/>
<polygon fill="#63b8ff" stroke="#63b8ff" points="2876.26,-137.19 2866.26,-140.67 2876.25,-144.19 2876.26,-137.19"/>
</a>
</g>
</g>
<!-- Node37 -->
<g id="Node000037" class="node">
<title>Node37</title>
<g id="a_Node000037"><a xlink:href="render__objects_8c.html" target="_top" xlink:title=" ">
<polygon fill="white" stroke="#666666" points="5241,-90.5 5127,-90.5 5127,-71.5 5241,-71.5 5241,-90.5"/>
<text text-anchor="middle" x="5184" y="-78.5" font-family="Helvetica,sans-Serif" font-size="10.00">src/render_objects.c</text>
</a>
</g>
</g>
<!-- Node1&#45;&gt;Node37 -->
<g id="edge36_Node000001_Node000037" class="edge">
<title>Node1&#45;&gt;Node37</title>
<g id="a_edge36_Node000001_Node000037"><a xlink:title=" ">
<path fill="none" stroke="#63b8ff" d="M2876.14,-139.98C3227.63,-137.09 4890.41,-122.09 5118,-96 5128.47,-94.8 5139.74,-92.71 5149.95,-90.51"/>
<polygon fill="#63b8ff" stroke="#63b8ff" points="2876.1,-136.48 2866.13,-140.06 2876.16,-143.48 2876.1,-136.48"/>
</a>
</g>
</g>
<!-- Node38 -->
<g id="Node000038" class="node">
<title>Node38</title>
<g id="a_Node000038"><a xlink:href="render__player_8c.html" target="_top" xlink:title=" ">
<polygon fill="white" stroke="#666666" points="5368.5,-90.5 5259.5,-90.5 5259.5,-71.5 5368.5,-71.5 5368.5,-90.5"/>
<text text-anchor="middle" x="5314" y="-78.5" font-family="Helvetica,sans-Serif" font-size="10.00">src/render_player.c</text>
</a>
</g>
</g>
<!-- Node1&#45;&gt;Node38 -->
<g id="edge37_Node000001_Node000038" class="edge">
<title>Node1&#45;&gt;Node38</title>
<g id="a_edge37_Node000001_Node000038"><a xlink:title=" ">
<path fill="none" stroke="#63b8ff" d="M2876.32,-140.08C3240.14,-137.62 5008.69,-124.31 5250,-96 5260.17,-94.81 5271.1,-92.72 5280.99,-90.52"/>
<polygon fill="#63b8ff" stroke="#63b8ff" points="2876.2,-136.58 2866.22,-140.15 2876.25,-143.58 2876.2,-136.58"/>
</a>
</g>
</g>
<!-- Node24 -->
<g id="Node000024" class="node">
<title>Node24</title>
<g id="a_Node000024"><a xlink:href="ObjectPicker_8cpp.html" target="_top" xlink:title=" ">
<polygon fill="white" stroke="#666666" points="3458.5,-30 3325.5,-30 3325.5,0 3458.5,0 3458.5,-30"/>
<text text-anchor="start" x="3333.5" y="-18" font-family="Helvetica,sans-Serif" font-size="10.00">src/engine/editor/Object</text>
<text text-anchor="middle" x="3392" y="-7" font-family="Helvetica,sans-Serif" font-size="10.00">Picker.cpp</text>
</a>
</g>
</g>
<!-- Node23&#45;&gt;Node24 -->
<g id="edge23_Node000023_Node000024" class="edge">
<title>Node23&#45;&gt;Node24</title>
<g id="a_edge23_Node000023_Node000024"><a xlink:title=" ">
<path fill="none" stroke="#63b8ff" d="M3392,-55.54C3392,-46.96 3392,-37.61 3392,-30.16"/>
<polygon fill="#63b8ff" stroke="#63b8ff" points="3388.5,-55.8 3392,-65.8 3395.5,-55.8 3388.5,-55.8"/>
</a>
</g>
</g>
</g>
</svg>
