<?xml version="1.0" encoding="UTF-8" standalone="no"?>
<!DOCTYPE svg PUBLIC "-//W3C//DTD SVG 1.1//EN"
 "http://www.w3.org/Graphics/SVG/1.1/DTD/svg11.dtd">
<!-- Generated by graphviz version 2.43.0 (0)
 -->
<!-- Title: GetLookAtMatrix Pages: 1 -->
<svg width="396pt" height="103pt"
 viewBox="0.00 0.00 396.00 103.00" xmlns="http://www.w3.org/2000/svg" xmlns:xlink="http://www.w3.org/1999/xlink">
<g id="graph0" class="graph" transform="scale(1 1) rotate(0) translate(4 99)">
<title>GetLookAtMatrix</title>
<!-- Node1 -->
<g id="Node000001" class="node">
<title>Node1</title>
<g id="a_Node000001"><a xlink:title=" ">
<polygon fill="#999999" stroke="#666666" points="388,-57 289,-57 289,-38 388,-38 388,-57"/>
<text text-anchor="middle" x="338.5" y="-45" font-family="Helvetica,sans-Serif" font-size="10.00">GetLookAtMatrix</text>
</a>
</g>
</g>
<!-- Node2 -->
<g id="Node000002" class="node">
<title>Node2</title>
<g id="a_Node000002"><a xlink:href="menu__items_8c.html#adbd28a1b1d900463cb8b1fb645179c71" target="_top" xlink:title=" ">
<polygon fill="white" stroke="#666666" points="236,-95 144,-95 144,-76 236,-76 236,-95"/>
<text text-anchor="middle" x="190" y="-83" font-family="Helvetica,sans-Serif" font-size="10.00">func_800942D0</text>
</a>
</g>
</g>
<!-- Node1&#45;&gt;Node2 -->
<g id="edge1_Node000001_Node000002" class="edge">
<title>Node1&#45;&gt;Node2</title>
<g id="a_edge1_Node000001_Node000002"><a xlink:title=" ">
<path fill="none" stroke="#63b8ff" d="M290.8,-59.61C270.4,-64.9 246.82,-71.02 227.7,-75.98"/>
<polygon fill="#63b8ff" stroke="#63b8ff" points="291.73,-62.99 300.53,-57.09 289.97,-56.21 291.73,-62.99"/>
</a>
</g>
</g>
<!-- Node3 -->
<g id="Node000003" class="node">
<title>Node3</title>
<g id="a_Node000003"><a xlink:href="menu__items_8c.html#ae0c2344ba6cdd815eec1916e693e5577" target="_top" xlink:title=" ">
<polygon fill="white" stroke="#666666" points="91,-76 0,-76 0,-57 91,-57 91,-76"/>
<text text-anchor="middle" x="45.5" y="-64" font-family="Helvetica,sans-Serif" font-size="10.00">func_80094660</text>
</a>
</g>
</g>
<!-- Node1&#45;&gt;Node3 -->
<g id="edge3_Node000001_Node000003" class="edge">
<title>Node1&#45;&gt;Node3</title>
<g id="a_edge3_Node000001_Node000003"><a xlink:title=" ">
<path fill="none" stroke="#63b8ff" d="M278.76,-51.34C223.29,-54.96 141.33,-60.31 91.06,-63.59"/>
<polygon fill="#63b8ff" stroke="#63b8ff" points="279.04,-54.82 288.79,-50.68 278.59,-47.84 279.04,-54.82"/>
</a>
</g>
</g>
<!-- Node4 -->
<g id="Node000004" class="node">
<title>Node4</title>
<g id="a_Node000004"><a xlink:href="menu__items_8c.html#a36b50985f08aa8d4b566a89074c4e880" target="_top" xlink:title=" ">
<polygon fill="white" stroke="#666666" points="253,-19 127,-19 127,0 253,0 253,-19"/>
<text text-anchor="middle" x="190" y="-7" font-family="Helvetica,sans-Serif" font-size="10.00">render_checkered_flag</text>
</a>
</g>
</g>
<!-- Node1&#45;&gt;Node4 -->
<g id="edge4_Node000001_Node000004" class="edge">
<title>Node1&#45;&gt;Node4</title>
<g id="a_edge4_Node000001_Node000004"><a xlink:title=" ">
<path fill="none" stroke="#63b8ff" d="M290.8,-35.39C270.4,-30.1 246.82,-23.98 227.7,-19.02"/>
<polygon fill="#63b8ff" stroke="#63b8ff" points="289.97,-38.79 300.53,-37.91 291.73,-32.01 289.97,-38.79"/>
</a>
</g>
</g>
<!-- Node2&#45;&gt;Node3 -->
<g id="edge2_Node000002_Node000003" class="edge">
<title>Node2&#45;&gt;Node3</title>
<g id="a_edge2_Node000002_Node000003"><a xlink:title=" ">
<path fill="none" stroke="#63b8ff" d="M133.85,-78.15C119.76,-76.27 104.79,-74.27 91.29,-72.47"/>
<polygon fill="#63b8ff" stroke="#63b8ff" points="133.54,-81.64 143.91,-79.49 134.46,-74.7 133.54,-81.64"/>
</a>
</g>
</g>
</g>
</svg>
