<?xml version="1.0" encoding="UTF-8" standalone="no"?>
<!DOCTYPE svg PUBLIC "-//W3C//DTD SVG 1.1//EN"
 "http://www.w3.org/Graphics/SVG/1.1/DTD/svg11.dtd">
<!-- Generated by graphviz version 2.43.0 (0)
 -->
<!-- Title: load_track Pages: 1 -->
<svg width="546pt" height="101pt"
 viewBox="0.00 0.00 546.00 101.00" xmlns="http://www.w3.org/2000/svg" xmlns:xlink="http://www.w3.org/1999/xlink">
<g id="graph0" class="graph" transform="scale(1 1) rotate(0) translate(4 97)">
<title>load_track</title>
<!-- Node1 -->
<g id="Node000001" class="node">
<title>Node1</title>
<g id="a_Node000001"><a xlink:title="Loads &amp; DMAs track data. Vtx, textures, displaylists, etc.">
<polygon fill="#999999" stroke="#666666" points="68,-56 0,-56 0,-37 68,-37 68,-56"/>
<text text-anchor="middle" x="34" y="-44" font-family="Helvetica,sans-Serif" font-size="10.00">load_track</text>
</a>
</g>
</g>
<!-- Node2 -->
<g id="Node000002" class="node">
<title>Node2</title>
<g id="a_Node000002"><a xlink:href="Game_8cpp.html#a13d5b10b9acb59b4b90db739aba83d1f" target="_top" xlink:title=" ">
<polygon fill="white" stroke="#666666" points="225.5,-93 132.5,-93 132.5,-74 225.5,-74 225.5,-93"/>
<text text-anchor="middle" x="179" y="-81" font-family="Helvetica,sans-Serif" font-size="10.00">CM_CleanWorld</text>
</a>
</g>
</g>
<!-- Node1&#45;&gt;Node2 -->
<g id="edge1_Node000001_Node000002" class="edge">
<title>Node1&#45;&gt;Node2</title>
<g id="a_edge1_Node000001_Node000002"><a xlink:title=" ">
<path fill="none" stroke="#63b8ff" d="M68.33,-55.22C79.65,-58.18 92.37,-61.49 104,-64.5 112.68,-66.75 121.93,-69.13 130.85,-71.42"/>
<polygon fill="#63b8ff" stroke="#63b8ff" points="130.17,-74.86 140.73,-73.96 131.91,-68.08 130.17,-74.86"/>
</a>
</g>
</g>
<!-- Node6 -->
<g id="Node000006" class="node">
<title>Node6</title>
<g id="a_Node000006"><a xlink:href="Editor_8cpp.html#a50f75e52f4ce6b97bce5b5395bfb645a" target="_top" xlink:title=" ">
<polygon fill="white" stroke="#666666" points="254,-56 104,-56 104,-37 254,-37 254,-56"/>
<text text-anchor="middle" x="179" y="-44" font-family="Helvetica,sans-Serif" font-size="10.00">Editor_SetLevelDimensions</text>
</a>
</g>
</g>
<!-- Node1&#45;&gt;Node6 -->
<g id="edge5_Node000001_Node000006" class="edge">
<title>Node1&#45;&gt;Node6</title>
<g id="a_edge5_Node000001_Node000006"><a xlink:title=" ">
<path fill="none" stroke="#63b8ff" d="M68.17,-46.5C75.96,-46.5 84.62,-46.5 93.55,-46.5"/>
<polygon fill="#63b8ff" stroke="#63b8ff" points="93.73,-50 103.73,-46.5 93.73,-43 93.73,-50"/>
</a>
</g>
</g>
<!-- Node7 -->
<g id="Node000007" class="node">
<title>Node7</title>
<g id="a_Node000007"><a xlink:href="Game_8cpp.html#af8b0f2e0fee51a3d5afe1c6b6a8f0c7f" target="_top" xlink:title=" ">
<polygon fill="white" stroke="#666666" points="211.5,-19 146.5,-19 146.5,0 211.5,0 211.5,-19"/>
<text text-anchor="middle" x="179" y="-7" font-family="Helvetica,sans-Serif" font-size="10.00">LoadTrack</text>
</a>
</g>
</g>
<!-- Node1&#45;&gt;Node7 -->
<g id="edge6_Node000001_Node000007" class="edge">
<title>Node1&#45;&gt;Node7</title>
<g id="a_edge6_Node000001_Node000007"><a xlink:title=" ">
<path fill="none" stroke="#63b8ff" d="M68.29,-37.12C79.6,-33.98 92.33,-30.52 104,-27.5 114.47,-24.78 125.82,-21.97 136.4,-19.39"/>
<polygon fill="#63b8ff" stroke="#63b8ff" points="137.36,-22.75 146.26,-17 135.72,-15.95 137.36,-22.75"/>
</a>
</g>
</g>
<!-- Node3 -->
<g id="Node000003" class="node">
<title>Node3</title>
<g id="a_Node000003"><a xlink:href="classWorld.html#a68c87061bbbd6d702596d0c0a837a7ac" target="_top" xlink:title=" ">
<polygon fill="white" stroke="#666666" points="410,-93 304,-93 304,-74 410,-74 410,-93"/>
<text text-anchor="middle" x="357" y="-81" font-family="Helvetica,sans-Serif" font-size="10.00">World::CleanWorld</text>
</a>
</g>
</g>
<!-- Node2&#45;&gt;Node3 -->
<g id="edge2_Node000002_Node000003" class="edge">
<title>Node2&#45;&gt;Node3</title>
<g id="a_edge2_Node000002_Node000003"><a xlink:title=" ">
<path fill="none" stroke="#63b8ff" d="M225.78,-83.5C246.54,-83.5 271.4,-83.5 293.81,-83.5"/>
<polygon fill="#63b8ff" stroke="#63b8ff" points="293.92,-87 303.92,-83.5 293.92,-80 293.92,-87"/>
</a>
</g>
</g>
<!-- Node5 -->
<g id="Node000005" class="node">
<title>Node5</title>
<g id="a_Node000005"><a xlink:href="Game_8cpp.html#ae2fa844b3cb1021ecbc357f8ed2ad8cc" target="_top" xlink:title=" ">
<polygon fill="white" stroke="#666666" points="388,-56 326,-56 326,-37 388,-37 388,-56"/>
<text text-anchor="middle" x="357" y="-44" font-family="Helvetica,sans-Serif" font-size="10.00">GetWorld</text>
</a>
</g>
</g>
<!-- Node2&#45;&gt;Node5 -->
<g id="edge4_Node000002_Node000005" class="edge">
<title>Node2&#45;&gt;Node5</title>
<g id="a_edge4_Node000002_Node000005"><a xlink:title=" ">
<path fill="none" stroke="#63b8ff" d="M225.32,-73.97C253.32,-68.09 288.92,-60.6 315.89,-54.93"/>
<polygon fill="#63b8ff" stroke="#63b8ff" points="316.71,-58.34 325.77,-52.85 315.27,-51.49 316.71,-58.34"/>
</a>
</g>
</g>
<!-- Node4 -->
<g id="Node000004" class="node">
<title>Node4</title>
<g id="a_Node000004"><a xlink:href="classWorld.html#a1b0c4b7543e78126675c38cd900c57c4" target="_top" xlink:title=" ">
<polygon fill="white" stroke="#666666" points="538,-93 460,-93 460,-74 538,-74 538,-93"/>
<text text-anchor="middle" x="499" y="-81" font-family="Helvetica,sans-Serif" font-size="10.00">World::Reset</text>
</a>
</g>
</g>
<!-- Node3&#45;&gt;Node4 -->
<g id="edge3_Node000003_Node000004" class="edge">
<title>Node3&#45;&gt;Node4</title>
<g id="a_edge3_Node000003_Node000004"><a xlink:title=" ">
<path fill="none" stroke="#63b8ff" d="M410.13,-83.5C423.01,-83.5 436.75,-83.5 449.45,-83.5"/>
<polygon fill="#63b8ff" stroke="#63b8ff" points="449.83,-87 459.83,-83.5 449.83,-80 449.83,-87"/>
</a>
</g>
</g>
<!-- Node7&#45;&gt;Node5 -->
<g id="edge8_Node000007_Node000005" class="edge">
<title>Node7&#45;&gt;Node5</title>
<g id="a_edge8_Node000007_Node000005"><a xlink:title=" ">
<path fill="none" stroke="#63b8ff" d="M211.87,-16.2C241.1,-22.35 284.51,-31.47 316.05,-38.1"/>
<polygon fill="#63b8ff" stroke="#63b8ff" points="315.33,-41.53 325.83,-40.16 316.77,-34.68 315.33,-41.53"/>
</a>
</g>
</g>
<!-- Node8 -->
<g id="Node000008" class="node">
<title>Node8</title>
<g id="a_Node000008"><a xlink:href="classWorld.html#afa31aec713e3a54e22e4406e4442107d" target="_top" xlink:title=" ">
<polygon fill="white" stroke="#666666" points="424,-19 290,-19 290,0 424,0 424,-19"/>
<text text-anchor="middle" x="357" y="-7" font-family="Helvetica,sans-Serif" font-size="10.00">World::GetRaceManager</text>
</a>
</g>
</g>
<!-- Node7&#45;&gt;Node8 -->
<g id="edge7_Node000007_Node000008" class="edge">
<title>Node7&#45;&gt;Node8</title>
<g id="a_edge7_Node000007_Node000008"><a xlink:title=" ">
<path fill="none" stroke="#63b8ff" d="M211.87,-9.5C230.85,-9.5 255.82,-9.5 279.62,-9.5"/>
<polygon fill="#63b8ff" stroke="#63b8ff" points="279.74,-13 289.74,-9.5 279.74,-6 279.74,-13"/>
</a>
</g>
</g>
</g>
</svg>
