<?xml version="1.0" encoding="UTF-8" standalone="no"?>
<!DOCTYPE svg PUBLIC "-//W3C//DTD SVG 1.1//EN"
 "http://www.w3.org/Graphics/SVG/1.1/DTD/svg11.dtd">
<!-- Generated by graphviz version 2.43.0 (0)
 -->
<!-- Title: print_text1_left Pages: 1 -->
<!--zoomable 575 -->

<svg id="main" version="1.1" xmlns="http://www.w3.org/2000/svg" xmlns:xlink="http://www.w3.org/1999/xlink" xml:space="preserve" onload="init(evt)">

<style type="text/css"><![CDATA[
.node, .edge {opacity: 0.7;}
.node.selected, .edge.selected {opacity: 1;}
.edge:hover path { stroke: red; }
.edge:hover polygon { stroke: red; fill: red; }
]]></style>

<defs>
  <circle id="rim" cx="0" cy="0" r="7"/>
  <circle id="rim2" cx="0" cy="0" r="3.5"/>
  <g id="zoomPlus">
    <use xlink:href="#rim" fill="#404040"><set attributeName="fill" to="#808080" begin="zoomplus.mouseover" end="zoomplus.mouseout"/></use>
    <path d="M-4,0h8M0,-4v8" fill="none" stroke="white" stroke-width="1.5" pointer-events="none"/>
  </g>
  <g id="zoomMin">
    <use xlink:href="#rim" fill="#404040"><set attributeName="fill" to="#808080" begin="zoomminus.mouseover" end="zoomminus.mouseout"/></use>
    <path d="M-4,0h8" fill="none" stroke="white" stroke-width="1.5" pointer-events="none"/>
  </g>
  <g id="arrowUp" transform="translate(30 24)">
    <use xlink:href="#rim"/>
    <path pointer-events="none" fill="none" stroke="white" stroke-width="1.5" d="M0,-3.0v7 M-2.5,-0.5L0,-3.0L2.5,-0.5"/>
  </g>
  <g id="arrowRight" transform="rotate(90) translate(36 -43)">
    <use xlink:href="#rim"/>
    <path pointer-events="none" fill="none" stroke="white" stroke-width="1.5" d="M0,-3.0v7 M-2.5,-0.5L0,-3.0L2.5,-0.5"/>
  </g>
  <g id="arrowDown" transform="rotate(180) translate(-30 -48)">
    <use xlink:href="#rim"/>
    <path pointer-events="none" fill="none" stroke="white" stroke-width="1.5" d="M0,-3.0v7 M-2.5,-0.5L0,-3.0L2.5,-0.5"/>
  </g>
  <g id="arrowLeft" transform="rotate(270) translate(-36 17)">
    <use xlink:href="#rim"/>
    <path pointer-events="none" fill="none" stroke="white" stroke-width="1.5" d="M0,-3.0v7 M-2.5,-0.5L0,-3.0L2.5,-0.5"/>
  </g>
  <g id="resetDef">
    <use xlink:href="#rim2" fill="#404040"><set attributeName="fill" to="#808080" begin="reset.mouseover" end="reset.mouseout"/></use>
  </g>
</defs>
<script type="application/ecmascript">
var viewWidth = 1303;
var viewHeight = 575;
var sectionId = 'dynsection-433';
</script>
<script type="application/ecmascript" xlink:href="svg.min.js"/>
<svg id="graph" class="graph">
<g id="viewport">
<title>print_text1_left</title>
<!-- Node1 -->
<g id="Node000001" class="node">
<title>Node1</title>
<g id="a_Node000001"><a xlink:title=" ">
<polygon fill="#999999" stroke="#666666" points="91,-442.5 0,-442.5 0,-423.5 91,-423.5 91,-442.5"/>
<text text-anchor="middle" x="45.5" y="-430.5" font-family="Helvetica,sans-Serif" font-size="10.00">print_text1_left</text>
</a>
</g>
</g>
<!-- Node2 -->
<g id="Node000002" class="node">
<title>Node2</title>
<g id="a_Node000002"><a xlink:href="menu__items_8c.html#ad2af1a6781c3f0bf246aba0d078ae773" target="_top" xlink:title=" ">
<polygon fill="white" stroke="#666666" points="197,-442.5 127,-442.5 127,-423.5 197,-423.5 197,-442.5"/>
<text text-anchor="middle" x="162" y="-430.5" font-family="Helvetica,sans-Serif" font-size="10.00">print_text1</text>
</a>
</g>
</g>
<!-- Node1&#45;&gt;Node2 -->
<g id="edge1_Node000001_Node000002" class="edge">
<title>Node1&#45;&gt;Node2</title>
<g id="a_edge1_Node000001_Node000002"><a xlink:title=" ">
<path fill="none" stroke="#63b8ff" d="M91.1,-433C99.58,-433 108.45,-433 116.92,-433"/>
<polygon fill="#63b8ff" stroke="#63b8ff" points="116.99,-436.5 126.99,-433 116.99,-429.5 116.99,-436.5"/>
</a>
</g>
</g>
<!-- Node3 -->
<g id="Node000003" class="node">
<title>Node3</title>
<g id="a_Node000003"><a xlink:href="menu__items_8c.html#ace62f40ce813c34904327e39643a0dbf" target="_top" xlink:title=" ">
<polygon fill="white" stroke="#666666" points="361,-528.5 244,-528.5 244,-509.5 361,-509.5 361,-528.5"/>
<text text-anchor="middle" x="302.5" y="-516.5" font-family="Helvetica,sans-Serif" font-size="10.00">char_to_glyph_index</text>
</a>
</g>
</g>
<!-- Node2&#45;&gt;Node3 -->
<g id="edge2_Node000002_Node000003" class="edge">
<title>Node2&#45;&gt;Node3</title>
<g id="a_edge2_Node000002_Node000003"><a xlink:title=" ">
<path fill="none" stroke="#63b8ff" d="M170.49,-442.76C182.23,-457.39 206.39,-484.87 233,-500 236.91,-502.22 241.09,-504.2 245.39,-505.95"/>
<polygon fill="#63b8ff" stroke="#63b8ff" points="244.33,-509.29 254.93,-509.44 246.74,-502.72 244.33,-509.29"/>
</a>
</g>
</g>
<!-- Node7 -->
<g id="Node000007" class="node">
<title>Node7</title>
<g id="a_Node000007"><a xlink:href="FrameInterpolation_8cpp.html#a14ceaeb116362786310778e36943f7be" target="_top" xlink:title=" ">
<polygon fill="white" stroke="#666666" points="372,-491 233,-491 233,-461 372,-461 372,-491"/>
<text text-anchor="start" x="241" y="-479" font-family="Helvetica,sans-Serif" font-size="10.00">FrameInterpolation</text>
<text text-anchor="middle" x="302.5" y="-468" font-family="Helvetica,sans-Serif" font-size="10.00">_ShouldInterpolateFrame</text>
</a>
</g>
</g>
<!-- Node2&#45;&gt;Node7 -->
<g id="edge7_Node000002_Node000007" class="edge">
<title>Node2&#45;&gt;Node7</title>
<g id="a_edge7_Node000002_Node000007"><a xlink:title=" ">
<path fill="none" stroke="#63b8ff" d="M193.74,-442.54C208.33,-447.07 226.26,-452.64 243.28,-457.93"/>
<polygon fill="#63b8ff" stroke="#63b8ff" points="242.58,-461.37 253.17,-460.99 244.65,-454.69 242.58,-461.37"/>
</a>
</g>
</g>
<!-- Node8 -->
<g id="Node000008" class="node">
<title>Node8</title>
<g id="a_Node000008"><a xlink:href="GBIMiddleware_8cpp.html#a4ecc44e3c6f1ca5a6b4a20c41d3bd2d2" target="_top" xlink:title=" ">
<polygon fill="white" stroke="#666666" points="797.5,-377.5 708.5,-377.5 708.5,-358.5 797.5,-358.5 797.5,-377.5"/>
<text text-anchor="middle" x="753" y="-365.5" font-family="Helvetica,sans-Serif" font-size="10.00">gSPDisplayList</text>
</a>
</g>
</g>
<!-- Node2&#45;&gt;Node8 -->
<g id="edge8_Node000002_Node000008" class="edge">
<title>Node2&#45;&gt;Node8</title>
<g id="a_edge8_Node000002_Node000008"><a xlink:title=" ">
<path fill="none" stroke="#63b8ff" d="M193.4,-423.46C205.59,-419.98 219.86,-416.32 233,-414 414.85,-381.91 463.17,-396.4 647,-379 663.7,-377.42 681.87,-375.56 698.34,-373.83"/>
<polygon fill="#63b8ff" stroke="#63b8ff" points="698.77,-377.31 708.34,-372.77 698.03,-370.34 698.77,-377.31"/>
</a>
</g>
</g>
<!-- Node11 -->
<g id="Node000011" class="node">
<title>Node11</title>
<g id="a_Node000011"><a xlink:href="menu__items_8c.html#a68e560d23390d5add7cb57ccd82e21ae" target="_top" xlink:title=" ">
<polygon fill="white" stroke="#666666" points="350,-442.5 255,-442.5 255,-423.5 350,-423.5 350,-442.5"/>
<text text-anchor="middle" x="302.5" y="-430.5" font-family="Helvetica,sans-Serif" font-size="10.00">load_menu_img</text>
</a>
</g>
</g>
<!-- Node2&#45;&gt;Node11 -->
<g id="edge11_Node000002_Node000011" class="edge">
<title>Node2&#45;&gt;Node11</title>
<g id="a_edge11_Node000002_Node000011"><a xlink:title=" ">
<path fill="none" stroke="#63b8ff" d="M197.24,-433C211.5,-433 228.44,-433 244.48,-433"/>
<polygon fill="#63b8ff" stroke="#63b8ff" points="244.86,-436.5 254.86,-433 244.86,-429.5 244.86,-436.5"/>
</a>
</g>
</g>
<!-- Node13 -->
<g id="Node000013" class="node">
<title>Node13</title>
<g id="a_Node000013"><a xlink:href="menu__items_8c.html#aafca6e35a19465ad361e68b13e467243" target="_top" xlink:title=" ">
<polygon fill="white" stroke="#666666" points="338,-366.5 267,-366.5 267,-347.5 338,-347.5 338,-366.5"/>
<text text-anchor="middle" x="302.5" y="-354.5" font-family="Helvetica,sans-Serif" font-size="10.00">print_letter</text>
</a>
</g>
</g>
<!-- Node2&#45;&gt;Node13 -->
<g id="edge13_Node000002_Node000013" class="edge">
<title>Node2&#45;&gt;Node13</title>
<g id="a_edge13_Node000002_Node000013"><a xlink:title=" ">
<path fill="none" stroke="#63b8ff" d="M173.7,-423.42C186.86,-412.04 210.27,-393.07 233,-381 240.93,-376.79 249.74,-373.07 258.34,-369.89"/>
<polygon fill="#63b8ff" stroke="#63b8ff" points="259.62,-373.15 267.89,-366.53 257.3,-366.54 259.62,-373.15"/>
</a>
</g>
</g>
<!-- Node4 -->
<g id="Node000004" class="node">
<title>Node4</title>
<g id="a_Node000004"><a xlink:href="menu__items_8c.html#ae8ba1b567dba01ff15c64d416653a70b" target="_top" xlink:title=" ">
<polygon fill="white" stroke="#666666" points="500.5,-490.5 408.5,-490.5 408.5,-471.5 500.5,-471.5 500.5,-490.5"/>
<text text-anchor="middle" x="454.5" y="-478.5" font-family="Helvetica,sans-Serif" font-size="10.00">func_80092DF8</text>
</a>
</g>
</g>
<!-- Node3&#45;&gt;Node4 -->
<g id="edge3_Node000003_Node000004" class="edge">
<title>Node3&#45;&gt;Node4</title>
<g id="a_edge3_Node000003_Node000004"><a xlink:title=" ">
<path fill="none" stroke="#63b8ff" d="M341.35,-509.41C360.97,-504.44 385.12,-498.32 405.98,-493.04"/>
<polygon fill="#63b8ff" stroke="#63b8ff" points="407.09,-496.37 415.92,-490.52 405.37,-489.58 407.09,-496.37"/>
</a>
</g>
</g>
<!-- Node5 -->
<g id="Node000005" class="node">
<title>Node5</title>
<g id="a_Node000005"><a xlink:href="menu__items_8c.html#acd5b29a8e8634aa4f3db4b9a7c5ba033" target="_top" xlink:title=" ">
<polygon fill="white" stroke="#666666" points="638,-509.5 546,-509.5 546,-490.5 638,-490.5 638,-509.5"/>
<text text-anchor="middle" x="592" y="-497.5" font-family="Helvetica,sans-Serif" font-size="10.00">func_80092E1C</text>
</a>
</g>
</g>
<!-- Node3&#45;&gt;Node5 -->
<g id="edge5_Node000003_Node000005" class="edge">
<title>Node3&#45;&gt;Node5</title>
<g id="a_edge5_Node000003_Node000005"><a xlink:title=" ">
<path fill="none" stroke="#63b8ff" d="M361.33,-515.18C412.26,-511.81 485.92,-506.94 535.99,-503.64"/>
<polygon fill="#63b8ff" stroke="#63b8ff" points="536.24,-507.13 545.99,-502.97 535.78,-500.14 536.24,-507.13"/>
</a>
</g>
</g>
<!-- Node6 -->
<g id="Node000006" class="node">
<title>Node6</title>
<g id="a_Node000006"><a xlink:href="menu__items_8c.html#ab26c8dca1828cd1d5a6c341cb851f0b9" target="_top" xlink:title=" ">
<polygon fill="white" stroke="#666666" points="500,-566.5 409,-566.5 409,-547.5 500,-547.5 500,-566.5"/>
<text text-anchor="middle" x="454.5" y="-554.5" font-family="Helvetica,sans-Serif" font-size="10.00">func_80092EE4</text>
</a>
</g>
</g>
<!-- Node3&#45;&gt;Node6 -->
<g id="edge6_Node000003_Node000006" class="edge">
<title>Node3&#45;&gt;Node6</title>
<g id="a_edge6_Node000003_Node000006"><a xlink:title=" ">
<path fill="none" stroke="#63b8ff" d="M341.35,-528.59C360.97,-533.56 385.12,-539.68 405.98,-544.96"/>
<polygon fill="#63b8ff" stroke="#63b8ff" points="405.37,-548.42 415.92,-547.48 407.09,-541.63 405.37,-548.42"/>
</a>
</g>
</g>
<!-- Node4&#45;&gt;Node5 -->
<g id="edge4_Node000004_Node000005" class="edge">
<title>Node4&#45;&gt;Node5</title>
<g id="a_edge4_Node000004_Node000005"><a xlink:title=" ">
<path fill="none" stroke="#63b8ff" d="M500.62,-487.33C511.81,-488.9 523.94,-490.6 535.56,-492.23"/>
<polygon fill="#63b8ff" stroke="#63b8ff" points="535.23,-495.71 545.62,-493.64 536.2,-488.78 535.23,-495.71"/>
</a>
</g>
</g>
<!-- Node9 -->
<g id="Node000009" class="node">
<title>Node9</title>
<g id="a_Node000009"><a xlink:href="Engine_8cpp.html#a223c8bc63f228dc11177515e38eff2db" target="_top" xlink:title=" ">
<polygon fill="white" stroke="#666666" points="1008,-358.5 859,-358.5 859,-339.5 1008,-339.5 1008,-358.5"/>
<text text-anchor="middle" x="933.5" y="-346.5" font-family="Helvetica,sans-Serif" font-size="10.00">GameEngine_OTRSigCheck</text>
</a>
</g>
</g>
<!-- Node8&#45;&gt;Node9 -->
<g id="edge9_Node000008_Node000009" class="edge">
<title>Node8&#45;&gt;Node9</title>
<g id="a_edge9_Node000008_Node000009"><a xlink:title=" ">
<path fill="none" stroke="#63b8ff" d="M797.67,-363.35C813.02,-361.72 830.84,-359.82 848.4,-357.95"/>
<polygon fill="#63b8ff" stroke="#63b8ff" points="849.11,-361.4 858.68,-356.86 848.36,-354.44 849.11,-361.4"/>
</a>
</g>
</g>
<!-- Node10 -->
<g id="Node000010" class="node">
<title>Node10</title>
<g id="a_Node000010"><a xlink:href="string_8c.html#a008e171a518fe0e0352f31b245e03875" target="_top" xlink:title=" ">
<polygon fill="white" stroke="#666666" points="1090.5,-358.5 1046.5,-358.5 1046.5,-339.5 1090.5,-339.5 1090.5,-358.5"/>
<text text-anchor="middle" x="1068.5" y="-346.5" font-family="Helvetica,sans-Serif" font-size="10.00">strlen</text>
</a>
</g>
</g>
<!-- Node9&#45;&gt;Node10 -->
<g id="edge10_Node000009_Node000010" class="edge">
<title>Node9&#45;&gt;Node10</title>
<g id="a_edge10_Node000009_Node000010"><a xlink:title=" ">
<path fill="none" stroke="#63b8ff" d="M1008,-349C1017.89,-349 1027.56,-349 1036.14,-349"/>
<polygon fill="#63b8ff" stroke="#63b8ff" points="1036.36,-352.5 1046.36,-349 1036.36,-345.5 1036.36,-352.5"/>
</a>
</g>
</g>
<!-- Node12 -->
<g id="Node000012" class="node">
<title>Node12</title>
<g id="a_Node000012"><a xlink:href="menu__items_8c.html#a248768ee2e4ca9ae9cf0a30bfb256859" target="_top" xlink:title=" ">
<polygon fill="white" stroke="#666666" points="493.5,-442.5 415.5,-442.5 415.5,-423.5 493.5,-423.5 493.5,-442.5"/>
<text text-anchor="middle" x="454.5" y="-430.5" font-family="Helvetica,sans-Serif" font-size="10.00">load_texture</text>
</a>
</g>
</g>
<!-- Node11&#45;&gt;Node12 -->
<g id="edge12_Node000011_Node000012" class="edge">
<title>Node11&#45;&gt;Node12</title>
<g id="a_edge12_Node000011_Node000012"><a xlink:title=" ">
<path fill="none" stroke="#63b8ff" d="M350.14,-433C367.68,-433 387.65,-433 405.33,-433"/>
<polygon fill="#63b8ff" stroke="#63b8ff" points="405.44,-436.5 415.44,-433 405.44,-429.5 405.44,-436.5"/>
</a>
</g>
</g>
<!-- Node13&#45;&gt;Node8 -->
<g id="edge48_Node000013_Node000008" class="edge">
<title>Node13&#45;&gt;Node8</title>
<g id="a_edge48_Node000013_Node000008"><a xlink:title=" ">
<path fill="none" stroke="#63b8ff" d="M338.32,-357.85C416.28,-359.77 605.32,-364.4 698.4,-366.69"/>
<polygon fill="#63b8ff" stroke="#63b8ff" points="698.37,-370.19 708.46,-366.93 698.54,-363.19 698.37,-370.19"/>
</a>
</g>
</g>
<!-- Node14 -->
<g id="Node000014" class="node">
<title>Node14</title>
<g id="a_Node000014"><a xlink:href="menu__items_8c.html#a37eb021a953285ba504198ac6ca73a9a" target="_top" xlink:title=" ">
<polygon fill="white" stroke="#666666" points="501,-233.5 408,-233.5 408,-214.5 501,-214.5 501,-233.5"/>
<text text-anchor="middle" x="454.5" y="-221.5" font-family="Helvetica,sans-Serif" font-size="10.00">func_80095BD0</text>
</a>
</g>
</g>
<!-- Node13&#45;&gt;Node14 -->
<g id="edge14_Node000013_Node000014" class="edge">
<title>Node13&#45;&gt;Node14</title>
<g id="a_edge14_Node000013_Node000014"><a xlink:title=" ">
<path fill="none" stroke="#63b8ff" d="M314.29,-347.43C339.57,-325.02 402.91,-268.86 434.69,-240.68"/>
<polygon fill="#63b8ff" stroke="#63b8ff" points="437.25,-243.09 442.41,-233.84 432.6,-237.85 437.25,-243.09"/>
</a>
</g>
</g>
<!-- Node15 -->
<g id="Node000015" class="node">
<title>Node15</title>
<g id="a_Node000015"><a xlink:href="Matrix_8cpp.html#a6f64c44efb9bdfff802175a9739ce1f1" target="_top" xlink:title=" ">
<polygon fill="white" stroke="#666666" points="635.5,-126.5 548.5,-126.5 548.5,-107.5 635.5,-107.5 635.5,-126.5"/>
<text text-anchor="middle" x="592" y="-114.5" font-family="Helvetica,sans-Serif" font-size="10.00">AddTextMatrix</text>
</a>
</g>
</g>
<!-- Node14&#45;&gt;Node15 -->
<g id="edge15_Node000014_Node000015" class="edge">
<title>Node14&#45;&gt;Node15</title>
<g id="a_edge15_Node000014_Node000015"><a xlink:title=" ">
<path fill="none" stroke="#63b8ff" d="M465.63,-214.16C480.64,-199.8 509.93,-172.55 537,-152 546.31,-144.94 557.02,-137.8 566.44,-131.83"/>
<polygon fill="#63b8ff" stroke="#63b8ff" points="568.35,-134.77 574.98,-126.51 564.65,-128.83 568.35,-134.77"/>
</a>
</g>
</g>
<!-- Node20 -->
<g id="Node000020" class="node">
<title>Node20</title>
<g id="a_Node000020"><a xlink:href="FrameInterpolation_8cpp.html#a3a036bc9d533e28a4e9697cd20dccf3e" target="_top" xlink:title=" ">
<polygon fill="white" stroke="#666666" points="647,-239 537,-239 537,-209 647,-209 647,-239"/>
<text text-anchor="start" x="545" y="-227" font-family="Helvetica,sans-Serif" font-size="10.00">FrameInterpolation</text>
<text text-anchor="middle" x="592" y="-216" font-family="Helvetica,sans-Serif" font-size="10.00">_RecordCloseChild</text>
</a>
</g>
</g>
<!-- Node14&#45;&gt;Node20 -->
<g id="edge20_Node000014_Node000020" class="edge">
<title>Node14&#45;&gt;Node20</title>
<g id="a_edge20_Node000014_Node000020"><a xlink:title=" ">
<path fill="none" stroke="#63b8ff" d="M501.37,-224C509.45,-224 518,-224 526.47,-224"/>
<polygon fill="#63b8ff" stroke="#63b8ff" points="526.74,-227.5 536.74,-224 526.74,-220.5 526.74,-227.5"/>
</a>
</g>
</g>
<!-- Node21 -->
<g id="Node000021" class="node">
<title>Node21</title>
<g id="a_Node000021"><a xlink:href="FrameInterpolation_8cpp.html#a0eda726b74eac815af4e874014e2727c" target="_top" xlink:title=" ">
<polygon fill="white" stroke="#666666" points="647,-191 537,-191 537,-161 647,-161 647,-191"/>
<text text-anchor="start" x="545" y="-179" font-family="Helvetica,sans-Serif" font-size="10.00">FrameInterpolation</text>
<text text-anchor="middle" x="592" y="-168" font-family="Helvetica,sans-Serif" font-size="10.00">_RecordOpenChild</text>
</a>
</g>
</g>
<!-- Node14&#45;&gt;Node21 -->
<g id="edge22_Node000014_Node000021" class="edge">
<title>Node14&#45;&gt;Node21</title>
<g id="a_edge22_Node000014_Node000021"><a xlink:title=" ">
<path fill="none" stroke="#63b8ff" d="M482.59,-214.4C498.72,-208.69 519.71,-201.25 538.92,-194.45"/>
<polygon fill="#63b8ff" stroke="#63b8ff" points="540.22,-197.7 548.48,-191.06 537.88,-191.1 540.22,-197.7"/>
</a>
</g>
</g>
<!-- Node22 -->
<g id="Node000022" class="node">
<title>Node22</title>
<g id="a_Node000022"><a xlink:href="menu__items_8c.html#ae0fd5923ba70cf6939cd3fa8d09c1191" target="_top" xlink:title=" ">
<polygon fill="white" stroke="#666666" points="637.5,-328.5 546.5,-328.5 546.5,-309.5 637.5,-309.5 637.5,-328.5"/>
<text text-anchor="middle" x="592" y="-316.5" font-family="Helvetica,sans-Serif" font-size="10.00">func_800959F8</text>
</a>
</g>
</g>
<!-- Node14&#45;&gt;Node22 -->
<g id="edge24_Node000014_Node000022" class="edge">
<title>Node14&#45;&gt;Node22</title>
<g id="a_edge24_Node000014_Node000022"><a xlink:title=" ">
<path fill="none" stroke="#63b8ff" d="M467.7,-233.62C483.44,-245.91 511.8,-267.68 537,-285 546.31,-291.4 556.78,-298.1 566,-303.84"/>
<polygon fill="#63b8ff" stroke="#63b8ff" points="564.36,-306.95 574.71,-309.22 568.04,-300.99 564.36,-306.95"/>
</a>
</g>
</g>
<!-- Node24 -->
<g id="Node000024" class="node">
<title>Node24</title>
<g id="a_Node000024"><a xlink:href="stubs_8c.html#a8b417b868747c80d58f83d8a1e78ecf3" target="_top" xlink:title=" ">
<polygon fill="white" stroke="#666666" points="626,-276.5 558,-276.5 558,-257.5 626,-257.5 626,-276.5"/>
<text text-anchor="middle" x="592" y="-264.5" font-family="Helvetica,sans-Serif" font-size="10.00">rmonPrintf</text>
</a>
</g>
</g>
<!-- Node14&#45;&gt;Node24 -->
<g id="edge28_Node000014_Node000024" class="edge">
<title>Node14&#45;&gt;Node24</title>
<g id="a_edge28_Node000014_Node000024"><a xlink:title=" ">
<path fill="none" stroke="#63b8ff" d="M485.57,-233.54C504.96,-239.69 530.38,-247.76 551.4,-254.43"/>
<polygon fill="#63b8ff" stroke="#63b8ff" points="550.42,-257.79 561.01,-257.48 552.54,-251.12 550.42,-257.79"/>
</a>
</g>
</g>
<!-- Node37 -->
<g id="Node000037" class="node">
<title>Node37</title>
<g id="a_Node000037"><a xlink:href="Matrix_8cpp.html#a9818099a1ee20606a7d622e744846366" target="_top" xlink:title=" ">
<polygon fill="white" stroke="#666666" points="634,-53.5 550,-53.5 550,-34.5 634,-34.5 634,-53.5"/>
<text text-anchor="middle" x="592" y="-41.5" font-family="Helvetica,sans-Serif" font-size="10.00">SetTextMatrix</text>
</a>
</g>
</g>
<!-- Node14&#45;&gt;Node37 -->
<g id="edge44_Node000014_Node000037" class="edge">
<title>Node14&#45;&gt;Node37</title>
<g id="a_edge44_Node000014_Node000037"><a xlink:title=" ">
<path fill="none" stroke="#63b8ff" d="M460.79,-214.37C472.93,-192.63 504.25,-138.52 537,-98 547.86,-84.56 561.67,-70.8 572.6,-60.54"/>
<polygon fill="#63b8ff" stroke="#63b8ff" points="574.99,-63.09 579.97,-53.74 570.24,-57.95 574.99,-63.09"/>
</a>
</g>
</g>
<!-- Node16 -->
<g id="Node000016" class="node">
<title>Node16</title>
<g id="a_Node000016"><a xlink:href="FrameInterpolation_8cpp.html#a8cf1f2d6fabc6925aa71a9515341b4aa" target="_top" xlink:title=" ">
<polygon fill="white" stroke="#666666" points="823,-78 683,-78 683,-48 823,-48 823,-78"/>
<text text-anchor="start" x="691" y="-66" font-family="Helvetica,sans-Serif" font-size="10.00">FrameInterpolation</text>
<text text-anchor="middle" x="753" y="-55" font-family="Helvetica,sans-Serif" font-size="10.00">_RecordMatrixMtxFToMtx</text>
</a>
</g>
</g>
<!-- Node15&#45;&gt;Node16 -->
<g id="edge16_Node000015_Node000016" class="edge">
<title>Node15&#45;&gt;Node16</title>
<g id="a_edge16_Node000015_Node000016"><a xlink:title=" ">
<path fill="none" stroke="#63b8ff" d="M621.06,-107.47C642.33,-100.25 672.2,-90.1 698.04,-81.33"/>
<polygon fill="#63b8ff" stroke="#63b8ff" points="699.38,-84.57 707.72,-78.04 697.12,-77.94 699.38,-84.57"/>
</a>
</g>
</g>
<!-- Node18 -->
<g id="Node000018" class="node">
<title>Node18</title>
<g id="a_Node000018"><a xlink:href="Game_8cpp.html#ae2fa844b3cb1021ecbc357f8ed2ad8cc" target="_top" xlink:title=" ">
<polygon fill="white" stroke="#666666" points="784,-152.5 722,-152.5 722,-133.5 784,-133.5 784,-152.5"/>
<text text-anchor="middle" x="753" y="-140.5" font-family="Helvetica,sans-Serif" font-size="10.00">GetWorld</text>
</a>
</g>
</g>
<!-- Node15&#45;&gt;Node18 -->
<g id="edge18_Node000015_Node000018" class="edge">
<title>Node15&#45;&gt;Node18</title>
<g id="a_edge18_Node000015_Node000018"><a xlink:title=" ">
<path fill="none" stroke="#63b8ff" d="M635.61,-123.97C659.33,-127.85 688.68,-132.64 711.97,-136.45"/>
<polygon fill="#63b8ff" stroke="#63b8ff" points="711.44,-139.91 721.87,-138.07 712.57,-133.01 711.44,-139.91"/>
</a>
</g>
</g>
<!-- Node19 -->
<g id="Node000019" class="node">
<title>Node19</title>
<g id="a_Node000019"><a xlink:href="guMtxF2L_8c.html#a40ab2d64c609839ff1e0ef0de2d0dcc4" target="_top" xlink:title=" ">
<polygon fill="white" stroke="#666666" points="785.5,-115.5 720.5,-115.5 720.5,-96.5 785.5,-96.5 785.5,-115.5"/>
<text text-anchor="middle" x="753" y="-103.5" font-family="Helvetica,sans-Serif" font-size="10.00">guMtxF2L</text>
</a>
</g>
</g>
<!-- Node15&#45;&gt;Node19 -->
<g id="edge19_Node000015_Node000019" class="edge">
<title>Node15&#45;&gt;Node19</title>
<g id="a_edge19_Node000015_Node000019"><a xlink:title=" ">
<path fill="none" stroke="#63b8ff" d="M635.61,-114.05C658.74,-112.45 687.23,-110.48 710.23,-108.89"/>
<polygon fill="#63b8ff" stroke="#63b8ff" points="710.64,-112.37 720.38,-108.19 710.16,-105.39 710.64,-112.37"/>
</a>
</g>
</g>
<!-- Node17 -->
<g id="Node000017" class="node">
<title>Node17</title>
<g id="a_Node000017"><a xlink:href="FrameInterpolation_8cpp.html#a02c7ac5342a4d376edee38f312b480bf" target="_top" xlink:title=" ">
<polygon fill="white" stroke="#666666" points="987.5,-131.5 879.5,-131.5 879.5,-112.5 987.5,-112.5 987.5,-131.5"/>
<text text-anchor="middle" x="933.5" y="-119.5" font-family="Helvetica,sans-Serif" font-size="10.00">check_if_recording</text>
</a>
</g>
</g>
<!-- Node16&#45;&gt;Node17 -->
<g id="edge17_Node000016_Node000017" class="edge">
<title>Node16&#45;&gt;Node17</title>
<g id="a_edge17_Node000016_Node000017"><a xlink:title=" ">
<path fill="none" stroke="#63b8ff" d="M799.5,-78.04C828.67,-87.68 866.11,-100.06 893.83,-109.22"/>
<polygon fill="#63b8ff" stroke="#63b8ff" points="892.98,-112.62 903.57,-112.44 895.17,-105.98 892.98,-112.62"/>
</a>
</g>
</g>
<!-- Node20&#45;&gt;Node17 -->
<g id="edge21_Node000020_Node000017" class="edge">
<title>Node20&#45;&gt;Node17</title>
<g id="a_edge21_Node000020_Node000017"><a xlink:title=" ">
<path fill="none" stroke="#63b8ff" d="M647.28,-219.44C694.73,-214.27 764.93,-203.7 823,-183 855.11,-171.56 888.91,-151.28 910.32,-137.27"/>
<polygon fill="#63b8ff" stroke="#63b8ff" points="912.32,-140.14 918.7,-131.69 908.44,-134.32 912.32,-140.14"/>
</a>
</g>
</g>
<!-- Node21&#45;&gt;Node17 -->
<g id="edge23_Node000021_Node000017" class="edge">
<title>Node21&#45;&gt;Node17</title>
<g id="a_edge23_Node000021_Node000017"><a xlink:title=" ">
<path fill="none" stroke="#63b8ff" d="M647.01,-176.67C693.98,-176.26 763.63,-173.26 823,-161 850.42,-155.34 880.28,-144.36 901.89,-135.49"/>
<polygon fill="#63b8ff" stroke="#63b8ff" points="903.32,-138.68 911.19,-131.59 900.62,-132.22 903.32,-138.68"/>
</a>
</g>
</g>
<!-- Node22&#45;&gt;Node8 -->
<g id="edge25_Node000022_Node000008" class="edge">
<title>Node22&#45;&gt;Node8</title>
<g id="a_edge25_Node000022_Node000008"><a xlink:title=" ">
<path fill="none" stroke="#63b8ff" d="M620.45,-328.57C638.22,-334.66 661.88,-342.58 683,-349 690.52,-351.29 698.54,-353.61 706.35,-355.8"/>
<polygon fill="#63b8ff" stroke="#63b8ff" points="705.51,-359.2 716.08,-358.5 707.38,-352.45 705.51,-359.2"/>
</a>
</g>
</g>
<!-- Node23 -->
<g id="Node000023" class="node">
<title>Node23</title>
<g id="a_Node000023"><a xlink:href="GBIMiddleware_8cpp.html#aeef79449a27a710d73576e4a4f7f7f99" target="_top" xlink:title=" ">
<polygon fill="white" stroke="#666666" points="786,-340.5 720,-340.5 720,-321.5 786,-321.5 786,-340.5"/>
<text text-anchor="middle" x="753" y="-328.5" font-family="Helvetica,sans-Serif" font-size="10.00">gSPVertex</text>
</a>
</g>
</g>
<!-- Node22&#45;&gt;Node23 -->
<g id="edge26_Node000022_Node000023" class="edge">
<title>Node22&#45;&gt;Node23</title>
<g id="a_edge26_Node000022_Node000023"><a xlink:title=" ">
<path fill="none" stroke="#63b8ff" d="M637.71,-322.37C660.23,-324.07 687.39,-326.12 709.58,-327.8"/>
<polygon fill="#63b8ff" stroke="#63b8ff" points="709.48,-331.3 719.71,-328.56 710.01,-324.32 709.48,-331.3"/>
</a>
</g>
</g>
<!-- Node23&#45;&gt;Node9 -->
<g id="edge27_Node000023_Node000009" class="edge">
<title>Node23&#45;&gt;Node9</title>
<g id="a_edge27_Node000023_Node000009"><a xlink:title=" ">
<path fill="none" stroke="#63b8ff" d="M786.33,-334.26C803.92,-336.03 826.59,-338.32 848.8,-340.56"/>
<polygon fill="#63b8ff" stroke="#63b8ff" points="848.65,-344.06 858.95,-341.58 849.35,-337.1 848.65,-344.06"/>
</a>
</g>
</g>
<!-- Node25 -->
<g id="Node000025" class="node">
<title>Node25</title>
<g id="a_Node000025"><a xlink:href="__Printf_8c.html#a39bb05c90efce6c6790c5d58d271d72d" target="_top" xlink:title=" ">
<polygon fill="white" stroke="#666666" points="777,-303.5 729,-303.5 729,-284.5 777,-284.5 777,-303.5"/>
<text text-anchor="middle" x="753" y="-291.5" font-family="Helvetica,sans-Serif" font-size="10.00">_Printf</text>
</a>
</g>
</g>
<!-- Node24&#45;&gt;Node25 -->
<g id="edge29_Node000024_Node000025" class="edge">
<title>Node24&#45;&gt;Node25</title>
<g id="a_edge29_Node000024_Node000025"><a xlink:title=" ">
<path fill="none" stroke="#63b8ff" d="M626.33,-272.66C653.5,-277.27 691.69,-283.76 718.82,-288.37"/>
<polygon fill="#63b8ff" stroke="#63b8ff" points="718.54,-291.87 728.99,-290.09 719.71,-284.97 718.54,-291.87"/>
</a>
</g>
</g>
<!-- Node36 -->
<g id="Node000036" class="node">
<title>Node36</title>
<g id="a_Node000036"><a xlink:href="is__debug_8c.html#aaccfac8d9098530b6592eefe679d86b4" target="_top" xlink:title=" ">
<polygon fill="white" stroke="#666666" points="805.5,-266.5 700.5,-266.5 700.5,-247.5 805.5,-247.5 805.5,-266.5"/>
<text text-anchor="middle" x="753" y="-254.5" font-family="Helvetica,sans-Serif" font-size="10.00">is_proutSyncPrintf</text>
</a>
</g>
</g>
<!-- Node24&#45;&gt;Node36 -->
<g id="edge43_Node000024_Node000036" class="edge">
<title>Node24&#45;&gt;Node36</title>
<g id="a_edge43_Node000024_Node000036"><a xlink:title=" ">
<path fill="none" stroke="#63b8ff" d="M626.33,-264.9C644.81,-263.74 668.37,-262.26 690.09,-260.89"/>
<polygon fill="#63b8ff" stroke="#63b8ff" points="690.48,-264.38 700.24,-260.26 690.04,-257.39 690.48,-264.38"/>
</a>
</g>
</g>
<!-- Node26 -->
<g id="Node000026" class="node">
<title>Node26</title>
<g id="a_Node000026"><a xlink:href="__Printf_8c.html#ad73a5847f2d7c9de14cc2723da86bf45" target="_top" xlink:title=" ">
<polygon fill="white" stroke="#666666" points="958.5,-321.5 908.5,-321.5 908.5,-302.5 958.5,-302.5 958.5,-321.5"/>
<text text-anchor="middle" x="933.5" y="-309.5" font-family="Helvetica,sans-Serif" font-size="10.00">_Putfld</text>
</a>
</g>
</g>
<!-- Node25&#45;&gt;Node26 -->
<g id="edge30_Node000025_Node000026" class="edge">
<title>Node25&#45;&gt;Node26</title>
<g id="a_edge30_Node000025_Node000026"><a xlink:title=" ">
<path fill="none" stroke="#63b8ff" d="M777.34,-296.35C808.08,-299.45 862.41,-304.93 897.93,-308.51"/>
<polygon fill="#63b8ff" stroke="#63b8ff" points="898,-312.04 908.3,-309.56 898.7,-305.07 898,-312.04"/>
</a>
</g>
</g>
<!-- Node35 -->
<g id="Node000035" class="node">
<title>Node35</title>
<g id="a_Node000035"><a xlink:href="string_8c.html#a988b4defe51a1815ef3b9ddab10e7a89" target="_top" xlink:title=" ">
<polygon fill="white" stroke="#666666" points="955.5,-284.5 911.5,-284.5 911.5,-265.5 955.5,-265.5 955.5,-284.5"/>
<text text-anchor="middle" x="933.5" y="-272.5" font-family="Helvetica,sans-Serif" font-size="10.00">strchr</text>
</a>
</g>
</g>
<!-- Node25&#45;&gt;Node35 -->
<g id="edge42_Node000025_Node000035" class="edge">
<title>Node25&#45;&gt;Node35</title>
<g id="a_edge42_Node000025_Node000035"><a xlink:title=" ">
<path fill="none" stroke="#63b8ff" d="M777.34,-291.52C809.02,-288.14 865.76,-282.1 901.14,-278.34"/>
<polygon fill="#63b8ff" stroke="#63b8ff" points="901.81,-281.79 911.38,-277.25 901.07,-274.83 901.81,-281.79"/>
</a>
</g>
</g>
<!-- Node26&#45;&gt;Node10 -->
<g id="edge41_Node000026_Node000010" class="edge">
<title>Node26&#45;&gt;Node10</title>
<g id="a_edge41_Node000026_Node000010"><a xlink:title=" ">
<path fill="none" stroke="#63b8ff" d="M958.78,-317.5C973.15,-320.87 991.69,-325.4 1008,-330 1017.43,-332.66 1027.61,-335.8 1036.84,-338.76"/>
<polygon fill="#63b8ff" stroke="#63b8ff" points="1035.81,-342.11 1046.4,-341.87 1037.97,-335.45 1035.81,-342.11"/>
</a>
</g>
</g>
<!-- Node27 -->
<g id="Node000027" class="node">
<title>Node27</title>
<g id="a_Node000027"><a xlink:href="__Ldtob_8c.html#a7cc858157b66e15c831ad085113729ae" target="_top" xlink:title=" ">
<polygon fill="white" stroke="#666666" points="1093,-227.5 1044,-227.5 1044,-208.5 1093,-208.5 1093,-227.5"/>
<text text-anchor="middle" x="1068.5" y="-215.5" font-family="Helvetica,sans-Serif" font-size="10.00">_Ldtob</text>
</a>
</g>
</g>
<!-- Node26&#45;&gt;Node27 -->
<g id="edge31_Node000026_Node000027" class="edge">
<title>Node26&#45;&gt;Node27</title>
<g id="a_edge31_Node000026_Node000027"><a xlink:title=" ">
<path fill="none" stroke="#63b8ff" d="M958.58,-309.73C973.75,-307.38 993.19,-302.63 1008,-293 1029.78,-278.84 1047.15,-254.01 1057.37,-236.82"/>
<polygon fill="#63b8ff" stroke="#63b8ff" points="1060.64,-238.14 1062.54,-227.72 1054.56,-234.68 1060.64,-238.14"/>
</a>
</g>
</g>
<!-- Node33 -->
<g id="Node000033" class="node">
<title>Node33</title>
<g id="a_Node000033"><a xlink:href="__Litob_8c.html#aaaba3b0ab7920d422a61fe9e22600dd0" target="_top" xlink:title=" ">
<polygon fill="white" stroke="#666666" points="1091.5,-321.5 1045.5,-321.5 1045.5,-302.5 1091.5,-302.5 1091.5,-321.5"/>
<text text-anchor="middle" x="1068.5" y="-309.5" font-family="Helvetica,sans-Serif" font-size="10.00">_Litob</text>
</a>
</g>
</g>
<!-- Node26&#45;&gt;Node33 -->
<g id="edge38_Node000026_Node000033" class="edge">
<title>Node26&#45;&gt;Node33</title>
<g id="a_edge38_Node000026_Node000033"><a xlink:title=" ">
<path fill="none" stroke="#63b8ff" d="M958.59,-312C980.01,-312 1011.51,-312 1035.13,-312"/>
<polygon fill="#63b8ff" stroke="#63b8ff" points="1035.36,-315.5 1045.36,-312 1035.36,-308.5 1035.36,-315.5"/>
</a>
</g>
</g>
<!-- Node28 -->
<g id="Node000028" class="node">
<title>Node28</title>
<g id="a_Node000028"><a xlink:href="__Ldtob_8c.html#a2b6c5318b43bab1636bad9113ffb2761" target="_top" xlink:title=" ">
<polygon fill="white" stroke="#666666" points="1189.5,-245.5 1139.5,-245.5 1139.5,-226.5 1189.5,-226.5 1189.5,-245.5"/>
<text text-anchor="middle" x="1164.5" y="-233.5" font-family="Helvetica,sans-Serif" font-size="10.00">_Genld</text>
</a>
</g>
</g>
<!-- Node27&#45;&gt;Node28 -->
<g id="edge32_Node000027_Node000028" class="edge">
<title>Node27&#45;&gt;Node28</title>
<g id="a_edge32_Node000027_Node000028"><a xlink:title=" ">
<path fill="none" stroke="#63b8ff" d="M1093.22,-222.54C1104.16,-224.64 1117.34,-227.16 1129.33,-229.46"/>
<polygon fill="#63b8ff" stroke="#63b8ff" points="1128.98,-232.95 1139.46,-231.4 1130.3,-226.08 1128.98,-232.95"/>
</a>
</g>
</g>
<!-- Node29 -->
<g id="Node000029" class="node">
<title>Node29</title>
<g id="a_Node000029"><a xlink:href="string_8c.html#ad7f1ae1bbb49dece44bda378982a704d" target="_top" xlink:title=" ">
<polygon fill="white" stroke="#666666" points="1295,-283.5 1236,-283.5 1236,-264.5 1295,-264.5 1295,-283.5"/>
<text text-anchor="middle" x="1265.5" y="-271.5" font-family="Helvetica,sans-Serif" font-size="10.00">memcpy</text>
</a>
</g>
</g>
<!-- Node27&#45;&gt;Node29 -->
<g id="edge36_Node000027_Node000029" class="edge">
<title>Node27&#45;&gt;Node29</title>
<g id="a_edge36_Node000027_Node000029"><a xlink:title=" ">
<path fill="none" stroke="#63b8ff" d="M1081.98,-227.59C1093.53,-235.96 1111.5,-247.71 1129,-254 1160.45,-265.31 1198.21,-270.23 1225.87,-272.37"/>
<polygon fill="#63b8ff" stroke="#63b8ff" points="1225.72,-275.87 1235.94,-273.06 1226.2,-268.88 1225.72,-275.87"/>
</a>
</g>
</g>
<!-- Node30 -->
<g id="Node000030" class="node">
<title>Node30</title>
<g id="a_Node000030"><a xlink:href="__Ldtob_8c.html#ab7ade9ce60aaa8baa0244b503351d742" target="_top" xlink:title=" ">
<polygon fill="white" stroke="#666666" points="1200,-208.5 1129,-208.5 1129,-189.5 1200,-189.5 1200,-208.5"/>
<text text-anchor="middle" x="1164.5" y="-196.5" font-family="Helvetica,sans-Serif" font-size="10.00">_Ldunscale</text>
</a>
</g>
</g>
<!-- Node27&#45;&gt;Node30 -->
<g id="edge34_Node000027_Node000030" class="edge">
<title>Node27&#45;&gt;Node30</title>
<g id="a_edge34_Node000027_Node000030"><a xlink:title=" ">
<path fill="none" stroke="#63b8ff" d="M1093.22,-213.21C1101.04,-211.62 1110.02,-209.81 1118.88,-208.02"/>
<polygon fill="#63b8ff" stroke="#63b8ff" points="1119.66,-211.43 1128.77,-206.02 1118.28,-204.57 1119.66,-211.43"/>
</a>
</g>
</g>
<!-- Node31 -->
<g id="Node000031" class="node">
<title>Node31</title>
<g id="a_Node000031"><a xlink:href="ldiv_8c.html#a0302920caf64a5fbe1ce0862799d7784" target="_top" xlink:title=" ">
<polygon fill="white" stroke="#666666" points="1182,-171.5 1147,-171.5 1147,-152.5 1182,-152.5 1182,-171.5"/>
<text text-anchor="middle" x="1164.5" y="-159.5" font-family="Helvetica,sans-Serif" font-size="10.00">ldiv</text>
</a>
</g>
</g>
<!-- Node27&#45;&gt;Node31 -->
<g id="edge35_Node000027_Node000031" class="edge">
<title>Node27&#45;&gt;Node31</title>
<g id="a_edge35_Node000027_Node000031"><a xlink:title=" ">
<path fill="none" stroke="#63b8ff" d="M1083.95,-208.27C1095.87,-200.37 1113.3,-189.09 1129,-180 1131.87,-178.34 1134.9,-176.66 1137.93,-175.02"/>
<polygon fill="#63b8ff" stroke="#63b8ff" points="1139.63,-178.08 1146.84,-170.32 1136.37,-171.89 1139.63,-178.08"/>
</a>
</g>
</g>
<!-- Node32 -->
<g id="Node000032" class="node">
<title>Node32</title>
<g id="a_Node000032"><a xlink:href="alBnkfNew_8c.html#a96a0200a6b40350e524f536d232ecb53" target="_top" xlink:title=" ">
<polygon fill="white" stroke="#666666" points="1190.5,-134.5 1138.5,-134.5 1138.5,-115.5 1190.5,-115.5 1190.5,-134.5"/>
<text text-anchor="middle" x="1164.5" y="-122.5" font-family="Helvetica,sans-Serif" font-size="10.00">unused</text>
</a>
</g>
</g>
<!-- Node27&#45;&gt;Node32 -->
<g id="edge37_Node000027_Node000032" class="edge">
<title>Node27&#45;&gt;Node32</title>
<g id="a_edge37_Node000027_Node000032"><a xlink:title=" ">
<path fill="none" stroke="#63b8ff" d="M1075.38,-208.16C1085,-192.7 1105.42,-162.48 1129,-143 1130.32,-141.91 1131.73,-140.85 1133.18,-139.84"/>
<polygon fill="#63b8ff" stroke="#63b8ff" points="1135.13,-142.74 1141.83,-134.53 1131.47,-136.78 1135.13,-142.74"/>
</a>
</g>
</g>
<!-- Node28&#45;&gt;Node29 -->
<g id="edge33_Node000028_Node000029" class="edge">
<title>Node28&#45;&gt;Node29</title>
<g id="a_edge33_Node000028_Node000029"><a xlink:title=" ">
<path fill="none" stroke="#63b8ff" d="M1189.72,-245.3C1201.88,-249.96 1216.82,-255.7 1230.15,-260.81"/>
<polygon fill="#63b8ff" stroke="#63b8ff" points="1228.91,-264.09 1239.5,-264.4 1231.42,-257.55 1228.91,-264.09"/>
</a>
</g>
</g>
<!-- Node33&#45;&gt;Node29 -->
<g id="edge40_Node000033_Node000029" class="edge">
<title>Node33&#45;&gt;Node29</title>
<g id="a_edge40_Node000033_Node000029"><a xlink:title=" ">
<path fill="none" stroke="#63b8ff" d="M1091.71,-308.14C1117.71,-303.56 1162.05,-295.61 1200,-288 1208.48,-286.3 1217.56,-284.39 1226.16,-282.53"/>
<polygon fill="#63b8ff" stroke="#63b8ff" points="1226.94,-285.95 1235.96,-280.4 1225.45,-279.11 1226.94,-285.95"/>
</a>
</g>
</g>
<!-- Node34 -->
<g id="Node000034" class="node">
<title>Node34</title>
<g id="a_Node000034"><a xlink:href="ldiv_8c.html#a5b23c3639f11980dca762c5f1d74f339" target="_top" xlink:title=" ">
<polygon fill="white" stroke="#666666" points="1183.5,-359.5 1145.5,-359.5 1145.5,-340.5 1183.5,-340.5 1183.5,-359.5"/>
<text text-anchor="middle" x="1164.5" y="-347.5" font-family="Helvetica,sans-Serif" font-size="10.00">lldiv</text>
</a>
</g>
</g>
<!-- Node33&#45;&gt;Node34 -->
<g id="edge39_Node000033_Node000034" class="edge">
<title>Node33&#45;&gt;Node34</title>
<g id="a_edge39_Node000033_Node000034"><a xlink:title=" ">
<path fill="none" stroke="#63b8ff" d="M1091.78,-321.01C1104.97,-326.34 1121.8,-333.14 1135.84,-338.82"/>
<polygon fill="#63b8ff" stroke="#63b8ff" points="1134.89,-342.21 1145.47,-342.71 1137.52,-335.72 1134.89,-342.21"/>
</a>
</g>
</g>
<!-- Node37&#45;&gt;Node37 -->
<g id="edge47_Node000037_Node000037" class="edge">
<title>Node37&#45;&gt;Node37</title>
<g id="a_edge47_Node000037_Node000037"><a xlink:title=" ">
<path fill="none" stroke="#63b8ff" d="M571.04,-53.58C560.84,-62.23 567.83,-71.5 592,-71.5 607.49,-71.5 615.92,-67.7 617.3,-62.69"/>
<polygon fill="#63b8ff" stroke="#63b8ff" points="620.42,-61.11 612.96,-53.58 614.1,-64.12 620.42,-61.11"/>
</a>
</g>
</g>
<!-- Node38 -->
<g id="Node000038" class="node">
<title>Node38</title>
<g id="a_Node000038"><a xlink:href="FrameInterpolation_8cpp.html#a5fbd67ef553452903cf553b9c224fa76" target="_top" xlink:title=" ">
<polygon fill="white" stroke="#666666" points="817,-30 689,-30 689,0 817,0 817,-30"/>
<text text-anchor="start" x="697" y="-18" font-family="Helvetica,sans-Serif" font-size="10.00">FrameInterpolation</text>
<text text-anchor="middle" x="753" y="-7" font-family="Helvetica,sans-Serif" font-size="10.00">_Record_SetTextMatrix</text>
</a>
</g>
</g>
<!-- Node37&#45;&gt;Node38 -->
<g id="edge45_Node000037_Node000038" class="edge">
<title>Node37&#45;&gt;Node38</title>
<g id="a_edge45_Node000037_Node000038"><a xlink:title=" ">
<path fill="none" stroke="#63b8ff" d="M634.36,-36.46C648.02,-33.96 663.65,-31.11 678.96,-28.32"/>
<polygon fill="#63b8ff" stroke="#63b8ff" points="679.74,-31.74 688.95,-26.5 678.49,-24.85 679.74,-31.74"/>
</a>
</g>
</g>
<!-- Node38&#45;&gt;Node17 -->
<g id="edge46_Node000038_Node000017" class="edge">
<title>Node38&#45;&gt;Node17</title>
<g id="a_edge46_Node000038_Node000017"><a xlink:title=" ">
<path fill="none" stroke="#63b8ff" d="M803.44,-30.06C810.16,-32.72 816.85,-35.71 823,-39 857.93,-57.71 893.63,-87.08 914.4,-105.41"/>
<polygon fill="#63b8ff" stroke="#63b8ff" points="912.31,-108.23 922.09,-112.29 916.98,-103.02 912.31,-108.23"/>
</a>
</g>
</g>
</g>
</svg>

<g id="navigator" transform="translate(0 0)" fill="#404254">
  <rect fill="#f2f5e9" fill-opacity="0.5" stroke="#606060" stroke-width=".5" x="0" y="0" width="60" height="60"/>
  <use id="zoomplus" xlink:href="#zoomPlus" x="17" y="9" onmousedown="handleZoom(evt,'in')"/>
  <use id="zoomminus" xlink:href="#zoomMin" x="42" y="9" onmousedown="handleZoom(evt,'out')"/>
  <use id="reset" xlink:href="#resetDef" x="30" y="36" onmousedown="handleReset()"/>
   <use id="arrowup" xlink:href="#arrowUp" x="0" y="0" onmousedown="handlePan(0,-1)"/>
  <use id="arrowright" xlink:href="#arrowRight" x="0" y="0" onmousedown="handlePan(1,0)"/>
  <use id="arrowdown" xlink:href="#arrowDown" x="0" y="0" onmousedown="handlePan(0,1)"/>
  <use id="arrowleft" xlink:href="#arrowLeft" x="0" y="0" onmousedown="handlePan(-1,0)"/>
</g>
<svg viewBox="0 0 15 15" width="100%" height="30px" preserveAspectRatio="xMaxYMin meet">
 <g id="arrow_out" transform="scale(0.3 0.3)">
  <a xlink:href="menu__items_8c_ad5ebb6015362a99f480a286c01b07d24_cgraph_org.svg" target="_base">
   <rect id="button" ry="5" rx="5" y="6" x="6" height="38" width="38"
        fill="#f2f5e9" fill-opacity="0.5" stroke="#606060" stroke-width="1.0"/>
   <path id="arrow"
     d="M 11.500037,31.436501 C 11.940474,20.09759 22.043105,11.32322 32.158766,21.979434 L 37.068811,17.246167 C 37.068811,17.246167 37.088388,32 37.088388,32 L 22.160133,31.978069 C 22.160133,31.978069 26.997745,27.140456 26.997745,27.140456 C 18.528582,18.264221 13.291696,25.230495 11.500037,31.436501 z"
     style="fill:#404040;"/>
  </a>
 </g>
</svg>

<style type='text/css'>
<![CDATA[
[data-mouse-over-selected='false'] { opacity: 0.7; }
[data-mouse-over-selected='true']  { opacity: 1.0; }
]]>
</style>
<script type="application/ecmascript"><![CDATA[
document.addEventListener('DOMContentLoaded', (event) => {
  highlightEdges();
  highlightAdjacentNodes();
});
]]></script>
</svg>
