<?xml version="1.0" encoding="UTF-8" standalone="no"?>
<!DOCTYPE svg PUBLIC "-//W3C//DTD SVG 1.1//EN"
 "http://www.w3.org/Graphics/SVG/1.1/DTD/svg11.dtd">
<!-- Generated by graphviz version 2.43.0 (0)
 -->
<!-- Title: func_8009A6D4 Pages: 1 -->
<svg width="622pt" height="193pt"
 viewBox="0.00 0.00 622.00 193.00" xmlns="http://www.w3.org/2000/svg" xmlns:xlink="http://www.w3.org/1999/xlink">
<g id="graph0" class="graph" transform="scale(1 1) rotate(0) translate(4 189)">
<title>func_8009A6D4</title>
<!-- Node1 -->
<g id="Node000001" class="node">
<title>Node1</title>
<g id="a_Node000001"><a xlink:title=" ">
<polygon fill="#999999" stroke="#666666" points="93,-148 0,-148 0,-129 93,-129 93,-148"/>
<text text-anchor="middle" x="46.5" y="-136" font-family="Helvetica,sans-Serif" font-size="10.00">func_8009A6D4</text>
</a>
</g>
</g>
<!-- Node2 -->
<g id="Node000002" class="node">
<title>Node2</title>
<g id="a_Node000002"><a xlink:href="menu__items_8h.html#a0250d0c3ad00aaf82903bf60ed652def" target="_top" xlink:title=" ">
<polygon fill="white" stroke="#666666" points="221,-185 129,-185 129,-166 221,-166 221,-185"/>
<text text-anchor="middle" x="175" y="-173" font-family="Helvetica,sans-Serif" font-size="10.00">func_80099AEC</text>
</a>
</g>
</g>
<!-- Node1&#45;&gt;Node2 -->
<g id="edge1_Node000001_Node000002" class="edge">
<title>Node1&#45;&gt;Node2</title>
<g id="a_edge1_Node000001_Node000002"><a xlink:title=" ">
<path fill="none" stroke="#63b8ff" d="M80.08,-148.03C95.6,-152.57 114.37,-158.06 131.03,-162.93"/>
<polygon fill="#63b8ff" stroke="#63b8ff" points="130.51,-166.43 141.09,-165.88 132.48,-159.71 130.51,-166.43"/>
</a>
</g>
</g>
<!-- Node3 -->
<g id="Node000003" class="node">
<title>Node3</title>
<g id="a_Node000003"><a xlink:href="menu__items_8c.html#af958f498a1781e584897c0f68028df0e" target="_top" xlink:title=" ">
<polygon fill="white" stroke="#666666" points="221,-148 129,-148 129,-129 221,-129 221,-148"/>
<text text-anchor="middle" x="175" y="-136" font-family="Helvetica,sans-Serif" font-size="10.00">func_8009A878</text>
</a>
</g>
</g>
<!-- Node1&#45;&gt;Node3 -->
<g id="edge2_Node000001_Node000003" class="edge">
<title>Node1&#45;&gt;Node3</title>
<g id="a_edge2_Node000001_Node000003"><a xlink:title=" ">
<path fill="none" stroke="#63b8ff" d="M93.17,-138.5C101.42,-138.5 110.11,-138.5 118.6,-138.5"/>
<polygon fill="#63b8ff" stroke="#63b8ff" points="118.82,-142 128.82,-138.5 118.82,-135 118.82,-142"/>
</a>
</g>
</g>
<!-- Node5 -->
<g id="Node000005" class="node">
<title>Node5</title>
<g id="a_Node000005"><a xlink:href="menu__items_8c.html#a85f6ca108eb24cbbaa44a5df73194789" target="_top" xlink:title=" ">
<polygon fill="white" stroke="#666666" points="221,-93 129,-93 129,-74 221,-74 221,-93"/>
<text text-anchor="middle" x="175" y="-81" font-family="Helvetica,sans-Serif" font-size="10.00">func_8009C434</text>
</a>
</g>
</g>
<!-- Node1&#45;&gt;Node5 -->
<g id="edge4_Node000001_Node000005" class="edge">
<title>Node1&#45;&gt;Node5</title>
<g id="a_edge4_Node000001_Node000005"><a xlink:title=" ">
<path fill="none" stroke="#63b8ff" d="M69.53,-128.92C89.73,-120.14 119.84,-107.05 142.56,-97.17"/>
<polygon fill="#63b8ff" stroke="#63b8ff" points="144.02,-100.35 151.79,-93.16 141.23,-93.93 144.02,-100.35"/>
</a>
</g>
</g>
<!-- Node4 -->
<g id="Node000004" class="node">
<title>Node4</title>
<g id="a_Node000004"><a xlink:href="menu__items_8c.html#a66e95f019bfd0b516ee71baf91daa2f6" target="_top" xlink:title=" ">
<polygon fill="white" stroke="#666666" points="349,-167 257,-167 257,-148 349,-148 349,-167"/>
<text text-anchor="middle" x="303" y="-155" font-family="Helvetica,sans-Serif" font-size="10.00">func_80099A94</text>
</a>
</g>
</g>
<!-- Node3&#45;&gt;Node4 -->
<g id="edge3_Node000003_Node000004" class="edge">
<title>Node3&#45;&gt;Node4</title>
<g id="a_edge3_Node000003_Node000004"><a xlink:title=" ">
<path fill="none" stroke="#63b8ff" d="M221.13,-145.31C229.46,-146.56 238.23,-147.88 246.81,-149.18"/>
<polygon fill="#63b8ff" stroke="#63b8ff" points="246.35,-152.65 256.76,-150.68 247.39,-145.73 246.35,-152.65"/>
</a>
</g>
</g>
<!-- Node6 -->
<g id="Node000006" class="node">
<title>Node6</title>
<g id="a_Node000006"><a xlink:href="menu__items_8c.html#ad9490c92b9af2d9c1cc307fb09bcb7b6" target="_top" xlink:title=" ">
<polygon fill="white" stroke="#666666" points="348.5,-130 257.5,-130 257.5,-111 348.5,-111 348.5,-130"/>
<text text-anchor="middle" x="303" y="-118" font-family="Helvetica,sans-Serif" font-size="10.00">func_80095E10</text>
</a>
</g>
</g>
<!-- Node5&#45;&gt;Node6 -->
<g id="edge5_Node000005_Node000006" class="edge">
<title>Node5&#45;&gt;Node6</title>
<g id="a_edge5_Node000005_Node000006"><a xlink:title=" ">
<path fill="none" stroke="#63b8ff" d="M208.45,-93.03C223.91,-97.57 242.6,-103.06 259.2,-107.93"/>
<polygon fill="#63b8ff" stroke="#63b8ff" points="258.64,-111.42 269.22,-110.88 260.62,-104.7 258.64,-111.42"/>
</a>
</g>
</g>
<!-- Node7 -->
<g id="Node000007" class="node">
<title>Node7</title>
<g id="a_Node000007"><a xlink:href="menu__items_8c.html#a6e470e4f186b8105553f9b4322aed077" target="_top" xlink:title=" ">
<polygon fill="white" stroke="#666666" points="348.5,-93 257.5,-93 257.5,-74 348.5,-74 348.5,-93"/>
<text text-anchor="middle" x="303" y="-81" font-family="Helvetica,sans-Serif" font-size="10.00">func_800963F0</text>
</a>
</g>
</g>
<!-- Node5&#45;&gt;Node7 -->
<g id="edge6_Node000005_Node000007" class="edge">
<title>Node5&#45;&gt;Node7</title>
<g id="a_edge6_Node000005_Node000007"><a xlink:title=" ">
<path fill="none" stroke="#63b8ff" d="M221.13,-83.5C229.56,-83.5 238.45,-83.5 247.13,-83.5"/>
<polygon fill="#63b8ff" stroke="#63b8ff" points="247.18,-87 257.18,-83.5 247.18,-80 247.18,-87"/>
</a>
</g>
</g>
<!-- Node8 -->
<g id="Node000008" class="node">
<title>Node8</title>
<g id="a_Node000008"><a xlink:href="menu__items_8c.html#a30ad499b5aa8caea92818f6b4aa27ad0" target="_top" xlink:title=" ">
<polygon fill="white" stroke="#666666" points="348.5,-56 257.5,-56 257.5,-37 348.5,-37 348.5,-56"/>
<text text-anchor="middle" x="303" y="-44" font-family="Helvetica,sans-Serif" font-size="10.00">func_80097E58</text>
</a>
</g>
</g>
<!-- Node5&#45;&gt;Node8 -->
<g id="edge7_Node000005_Node000008" class="edge">
<title>Node5&#45;&gt;Node8</title>
<g id="a_edge7_Node000005_Node000008"><a xlink:title=" ">
<path fill="none" stroke="#63b8ff" d="M208.45,-73.97C223.91,-69.43 242.6,-63.94 259.2,-59.07"/>
<polygon fill="#63b8ff" stroke="#63b8ff" points="260.62,-62.3 269.22,-56.12 258.64,-55.58 260.62,-62.3"/>
</a>
</g>
</g>
<!-- Node9 -->
<g id="Node000009" class="node">
<title>Node9</title>
<g id="a_Node000009"><a xlink:href="GBIMiddleware_8cpp.html#a4ecc44e3c6f1ca5a6b4a20c41d3bd2d2" target="_top" xlink:title=" ">
<polygon fill="white" stroke="#666666" points="347.5,-19 258.5,-19 258.5,0 347.5,0 347.5,-19"/>
<text text-anchor="middle" x="303" y="-7" font-family="Helvetica,sans-Serif" font-size="10.00">gSPDisplayList</text>
</a>
</g>
</g>
<!-- Node5&#45;&gt;Node9 -->
<g id="edge8_Node000005_Node000009" class="edge">
<title>Node5&#45;&gt;Node9</title>
<g id="a_edge8_Node000005_Node000009"><a xlink:title=" ">
<path fill="none" stroke="#63b8ff" d="M188.41,-73.93C203.9,-62.26 231.46,-42.38 257,-28.5 260.32,-26.69 263.86,-24.94 267.43,-23.27"/>
<polygon fill="#63b8ff" stroke="#63b8ff" points="269.11,-26.35 276.83,-19.1 266.27,-19.96 269.11,-26.35"/>
</a>
</g>
</g>
<!-- Node10 -->
<g id="Node000010" class="node">
<title>Node10</title>
<g id="a_Node000010"><a xlink:href="Engine_8cpp.html#a223c8bc63f228dc11177515e38eff2db" target="_top" xlink:title=" ">
<polygon fill="white" stroke="#666666" points="534,-19 385,-19 385,0 534,0 534,-19"/>
<text text-anchor="middle" x="459.5" y="-7" font-family="Helvetica,sans-Serif" font-size="10.00">GameEngine_OTRSigCheck</text>
</a>
</g>
</g>
<!-- Node9&#45;&gt;Node10 -->
<g id="edge9_Node000009_Node000010" class="edge">
<title>Node9&#45;&gt;Node10</title>
<g id="a_edge9_Node000009_Node000010"><a xlink:title=" ">
<path fill="none" stroke="#63b8ff" d="M347.86,-9.5C356.31,-9.5 365.42,-9.5 374.66,-9.5"/>
<polygon fill="#63b8ff" stroke="#63b8ff" points="374.71,-13 384.71,-9.5 374.71,-6 374.71,-13"/>
</a>
</g>
</g>
<!-- Node11 -->
<g id="Node000011" class="node">
<title>Node11</title>
<g id="a_Node000011"><a xlink:href="string_8c.html#a008e171a518fe0e0352f31b245e03875" target="_top" xlink:title=" ">
<polygon fill="white" stroke="#666666" points="614,-19 570,-19 570,0 614,0 614,-19"/>
<text text-anchor="middle" x="592" y="-7" font-family="Helvetica,sans-Serif" font-size="10.00">strlen</text>
</a>
</g>
</g>
<!-- Node10&#45;&gt;Node11 -->
<g id="edge10_Node000010_Node000011" class="edge">
<title>Node10&#45;&gt;Node11</title>
<g id="a_edge10_Node000010_Node000011"><a xlink:title=" ">
<path fill="none" stroke="#63b8ff" d="M534.14,-9.5C543.12,-9.5 551.89,-9.5 559.75,-9.5"/>
<polygon fill="#63b8ff" stroke="#63b8ff" points="559.83,-13 569.83,-9.5 559.83,-6 559.83,-13"/>
</a>
</g>
</g>
</g>
</svg>
