<?xml version="1.0" encoding="UTF-8" standalone="no"?>
<!DOCTYPE svg PUBLIC "-//W3C//DTD SVG 1.1//EN"
 "http://www.w3.org/Graphics/SVG/1.1/DTD/svg11.dtd">
<!-- Generated by graphviz version 2.43.0 (0)
 -->
<!-- Title: draw_box_wide_right Pages: 1 -->
<svg width="855pt" height="101pt"
 viewBox="0.00 0.00 855.00 101.00" xmlns="http://www.w3.org/2000/svg" xmlns:xlink="http://www.w3.org/1999/xlink">
<g id="graph0" class="graph" transform="scale(1 1) rotate(0) translate(4 97)">
<title>draw_box_wide_right</title>
<!-- Node1 -->
<g id="Node000001" class="node">
<title>Node1</title>
<g id="a_Node000001"><a xlink:title=" ">
<polygon fill="#999999" stroke="#666666" points="120,-56 0,-56 0,-37 120,-37 120,-56"/>
<text text-anchor="middle" x="60" y="-44" font-family="Helvetica,sans-Serif" font-size="10.00">draw_box_wide_right</text>
</a>
</g>
</g>
<!-- Node2 -->
<g id="Node000002" class="node">
<title>Node2</title>
<g id="a_Node000002"><a xlink:href="GBIMiddleware_8cpp.html#a4ecc44e3c6f1ca5a6b4a20c41d3bd2d2" target="_top" xlink:title=" ">
<polygon fill="white" stroke="#666666" points="302,-93 213,-93 213,-74 302,-74 302,-93"/>
<text text-anchor="middle" x="257.5" y="-81" font-family="Helvetica,sans-Serif" font-size="10.00">gSPDisplayList</text>
</a>
</g>
</g>
<!-- Node1&#45;&gt;Node2 -->
<g id="edge1_Node000001_Node000002" class="edge">
<title>Node1&#45;&gt;Node2</title>
<g id="a_edge1_Node000001_Node000002"><a xlink:title=" ">
<path fill="none" stroke="#63b8ff" d="M107.83,-56.06C123.17,-59.14 140.3,-62.52 156,-65.5 171.14,-68.37 187.59,-71.37 202.71,-74.07"/>
<polygon fill="#63b8ff" stroke="#63b8ff" points="202.47,-77.59 212.93,-75.89 203.7,-70.69 202.47,-77.59"/>
</a>
</g>
</g>
<!-- Node5 -->
<g id="Node000005" class="node">
<title>Node5</title>
<g id="a_Node000005"><a xlink:href="Engine_8cpp.html#a6a4636ed76942d3a15e97f85ff3196fb" target="_top" xlink:title=" ">
<polygon fill="white" stroke="#666666" points="359,-56 156,-56 156,-37 359,-37 359,-56"/>
<text text-anchor="middle" x="257.5" y="-44" font-family="Helvetica,sans-Serif" font-size="10.00">OTRGetRectDimensionFromRightEdge</text>
</a>
</g>
</g>
<!-- Node1&#45;&gt;Node5 -->
<g id="edge4_Node000001_Node000005" class="edge">
<title>Node1&#45;&gt;Node5</title>
<g id="a_edge4_Node000001_Node000005"><a xlink:title=" ">
<path fill="none" stroke="#63b8ff" d="M120.19,-46.5C128.43,-46.5 137.12,-46.5 145.94,-46.5"/>
<polygon fill="#63b8ff" stroke="#63b8ff" points="145.95,-50 155.95,-46.5 145.95,-43 145.95,-50"/>
</a>
</g>
</g>
<!-- Node9 -->
<g id="Node000009" class="node">
<title>Node9</title>
<g id="a_Node000009"><a xlink:href="menu__items_8c.html#a2341569d8bfc9b8aac7d5dab7933c999" target="_top" xlink:title=" ">
<polygon fill="white" stroke="#666666" points="297.5,-19 217.5,-19 217.5,0 297.5,0 297.5,-19"/>
<text text-anchor="middle" x="257.5" y="-7" font-family="Helvetica,sans-Serif" font-size="10.00">swap_values</text>
</a>
</g>
</g>
<!-- Node1&#45;&gt;Node9 -->
<g id="edge8_Node000001_Node000009" class="edge">
<title>Node1&#45;&gt;Node9</title>
<g id="a_edge8_Node000001_Node000009"><a xlink:title=" ">
<path fill="none" stroke="#63b8ff" d="M111.29,-36.97C125.72,-34.23 141.49,-31.25 156,-28.5 172.76,-25.33 191.09,-21.86 207.46,-18.77"/>
<polygon fill="#63b8ff" stroke="#63b8ff" points="208.19,-22.19 217.36,-16.9 206.89,-15.31 208.19,-22.19"/>
</a>
</g>
</g>
<!-- Node3 -->
<g id="Node000003" class="node">
<title>Node3</title>
<g id="a_Node000003"><a xlink:href="Engine_8cpp.html#a223c8bc63f228dc11177515e38eff2db" target="_top" xlink:title=" ">
<polygon fill="white" stroke="#666666" points="560,-93 411,-93 411,-74 560,-74 560,-93"/>
<text text-anchor="middle" x="485.5" y="-81" font-family="Helvetica,sans-Serif" font-size="10.00">GameEngine_OTRSigCheck</text>
</a>
</g>
</g>
<!-- Node2&#45;&gt;Node3 -->
<g id="edge2_Node000002_Node000003" class="edge">
<title>Node2&#45;&gt;Node3</title>
<g id="a_edge2_Node000002_Node000003"><a xlink:title=" ">
<path fill="none" stroke="#63b8ff" d="M302.08,-83.5C329.97,-83.5 367.09,-83.5 400.56,-83.5"/>
<polygon fill="#63b8ff" stroke="#63b8ff" points="400.81,-87 410.81,-83.5 400.81,-80 400.81,-87"/>
</a>
</g>
</g>
<!-- Node4 -->
<g id="Node000004" class="node">
<title>Node4</title>
<g id="a_Node000004"><a xlink:href="string_8c.html#a008e171a518fe0e0352f31b245e03875" target="_top" xlink:title=" ">
<polygon fill="white" stroke="#666666" points="690.5,-93 646.5,-93 646.5,-74 690.5,-74 690.5,-93"/>
<text text-anchor="middle" x="668.5" y="-81" font-family="Helvetica,sans-Serif" font-size="10.00">strlen</text>
</a>
</g>
</g>
<!-- Node3&#45;&gt;Node4 -->
<g id="edge3_Node000003_Node000004" class="edge">
<title>Node3&#45;&gt;Node4</title>
<g id="a_edge3_Node000003_Node000004"><a xlink:title=" ">
<path fill="none" stroke="#63b8ff" d="M560.12,-83.5C586.62,-83.5 615.13,-83.5 636.11,-83.5"/>
<polygon fill="#63b8ff" stroke="#63b8ff" points="636.34,-87 646.34,-83.5 636.34,-80 636.34,-87"/>
</a>
</g>
</g>
<!-- Node6 -->
<g id="Node000006" class="node">
<title>Node6</title>
<g id="a_Node000006"><a xlink:href="Engine_8cpp.html#a17495ab17d6e9c65b2a76e3c88a7f718" target="_top" xlink:title=" ">
<polygon fill="white" stroke="#666666" points="576,-56 395,-56 395,-37 576,-37 576,-56"/>
<text text-anchor="middle" x="485.5" y="-44" font-family="Helvetica,sans-Serif" font-size="10.00">OTRGetDimensionFromRightEdge</text>
</a>
</g>
</g>
<!-- Node5&#45;&gt;Node6 -->
<g id="edge5_Node000005_Node000006" class="edge">
<title>Node5&#45;&gt;Node6</title>
<g id="a_edge5_Node000005_Node000006"><a xlink:title=" ">
<path fill="none" stroke="#63b8ff" d="M359.27,-46.5C367.72,-46.5 376.27,-46.5 384.71,-46.5"/>
<polygon fill="#63b8ff" stroke="#63b8ff" points="384.95,-50 394.95,-46.5 384.95,-43 384.95,-50"/>
</a>
</g>
</g>
<!-- Node7 -->
<g id="Node000007" class="node">
<title>Node7</title>
<g id="a_Node000007"><a xlink:href="Engine_8cpp.html#a130aa97f1c7fae24f3d23f8126e7506f" target="_top" xlink:title=" ">
<polygon fill="white" stroke="#666666" points="725,-56 612,-56 612,-37 725,-37 725,-56"/>
<text text-anchor="middle" x="668.5" y="-44" font-family="Helvetica,sans-Serif" font-size="10.00">OTRGetAspectRatio</text>
</a>
</g>
</g>
<!-- Node6&#45;&gt;Node7 -->
<g id="edge6_Node000006_Node000007" class="edge">
<title>Node6&#45;&gt;Node7</title>
<g id="a_edge6_Node000006_Node000007"><a xlink:title=" ">
<path fill="none" stroke="#63b8ff" d="M576.2,-46.5C584.71,-46.5 593.21,-46.5 601.43,-46.5"/>
<polygon fill="#63b8ff" stroke="#63b8ff" points="601.67,-50 611.67,-46.5 601.67,-43 601.67,-50"/>
</a>
</g>
</g>
<!-- Node8 -->
<g id="Node000008" class="node">
<title>Node8</title>
<g id="a_Node000008"><a xlink:href="Engine_8cpp.html#a29357c424545be61af4bd28d84fd344a" target="_top" xlink:title=" ">
<polygon fill="white" stroke="#666666" points="847,-56 761,-56 761,-37 847,-37 847,-56"/>
<text text-anchor="middle" x="804" y="-44" font-family="Helvetica,sans-Serif" font-size="10.00">GetInterpreter</text>
</a>
</g>
</g>
<!-- Node7&#45;&gt;Node8 -->
<g id="edge7_Node000007_Node000008" class="edge">
<title>Node7&#45;&gt;Node8</title>
<g id="a_edge7_Node000007_Node000008"><a xlink:title=" ">
<path fill="none" stroke="#63b8ff" d="M725.34,-46.5C733.68,-46.5 742.26,-46.5 750.52,-46.5"/>
<polygon fill="#63b8ff" stroke="#63b8ff" points="750.79,-50 760.79,-46.5 750.79,-43 750.79,-50"/>
</a>
</g>
</g>
</g>
</svg>
