<?xml version="1.0" encoding="UTF-8" standalone="no"?>
<!DOCTYPE svg PUBLIC "-//W3C//DTD SVG 1.1//EN"
 "http://www.w3.org/Graphics/SVG/1.1/DTD/svg11.dtd">
<!-- Generated by graphviz version 2.43.0 (0)
 -->
<!-- Title: func_800AF004 Pages: 1 -->
<svg width="520pt" height="222pt"
 viewBox="0.00 0.00 520.00 222.00" xmlns="http://www.w3.org/2000/svg" xmlns:xlink="http://www.w3.org/1999/xlink">
<g id="graph0" class="graph" transform="scale(1 1) rotate(0) translate(4 218)">
<title>func_800AF004</title>
<!-- Node1 -->
<g id="Node000001" class="node">
<title>Node1</title>
<g id="a_Node000001"><a xlink:title=" ">
<polygon fill="#999999" stroke="#666666" points="92,-140 0,-140 0,-121 92,-121 92,-140"/>
<text text-anchor="middle" x="46" y="-128" font-family="Helvetica,sans-Serif" font-size="10.00">func_800AF004</text>
</a>
</g>
</g>
<!-- Node2 -->
<g id="Node000002" class="node">
<title>Node2</title>
<g id="a_Node000002"><a xlink:href="menu__items_8h.html#ae560025be8c56d009f06b309463a5183" target="_top" xlink:title=" ">
<polygon fill="white" stroke="#666666" points="223,-214 128,-214 128,-195 223,-195 223,-214"/>
<text text-anchor="middle" x="175.5" y="-202" font-family="Helvetica,sans-Serif" font-size="10.00">add_menu_item</text>
</a>
</g>
</g>
<!-- Node1&#45;&gt;Node2 -->
<g id="edge1_Node000001_Node000002" class="edge">
<title>Node1&#45;&gt;Node2</title>
<g id="a_edge1_Node000001_Node000002"><a xlink:title=" ">
<path fill="none" stroke="#63b8ff" d="M59.05,-140.19C74.38,-152.19 102.02,-172.74 128,-186.5 130.91,-188.04 133.98,-189.52 137.09,-190.92"/>
<polygon fill="#63b8ff" stroke="#63b8ff" points="135.91,-194.22 146.48,-194.88 138.63,-187.77 135.91,-194.22"/>
</a>
</g>
</g>
<!-- Node3 -->
<g id="Node000003" class="node">
<title>Node3</title>
<g id="a_Node000003"><a xlink:href="menu__items_8c.html#a485ad7e52b54cd47cb14ce60384c34b5" target="_top" xlink:title=" ">
<polygon fill="white" stroke="#666666" points="221.5,-177 129.5,-177 129.5,-158 221.5,-158 221.5,-177"/>
<text text-anchor="middle" x="175.5" y="-165" font-family="Helvetica,sans-Serif" font-size="10.00">func_8009DFE0</text>
</a>
</g>
</g>
<!-- Node1&#45;&gt;Node3 -->
<g id="edge2_Node000001_Node000003" class="edge">
<title>Node1&#45;&gt;Node3</title>
<g id="a_edge2_Node000001_Node000003"><a xlink:title=" ">
<path fill="none" stroke="#63b8ff" d="M79.83,-140.03C95.62,-144.61 114.75,-150.16 131.67,-155.07"/>
<polygon fill="#63b8ff" stroke="#63b8ff" points="130.75,-158.45 141.33,-157.88 132.71,-151.73 130.75,-158.45"/>
</a>
</g>
</g>
<!-- Node5 -->
<g id="Node000005" class="node">
<title>Node5</title>
<g id="a_Node000005"><a xlink:href="external_8c.html#ab8fa6fbe4bd78d8282bb696133e77f6c" target="_top" xlink:title=" ">
<polygon fill="white" stroke="#666666" points="221.5,-140 129.5,-140 129.5,-121 221.5,-121 221.5,-140"/>
<text text-anchor="middle" x="175.5" y="-128" font-family="Helvetica,sans-Serif" font-size="10.00">func_800CA330</text>
</a>
</g>
</g>
<!-- Node1&#45;&gt;Node5 -->
<g id="edge4_Node000001_Node000005" class="edge">
<title>Node1&#45;&gt;Node5</title>
<g id="a_edge4_Node000001_Node000005"><a xlink:title=" ">
<path fill="none" stroke="#63b8ff" d="M92.31,-130.5C101.05,-130.5 110.29,-130.5 119.3,-130.5"/>
<polygon fill="#63b8ff" stroke="#63b8ff" points="119.34,-134 129.34,-130.5 119.34,-127 119.34,-134"/>
</a>
</g>
</g>
<!-- Node7 -->
<g id="Node000007" class="node">
<title>Node7</title>
<g id="a_Node000007"><a xlink:href="external_8c.html#a21151c55b3a7f562cacf743bde8a2efe" target="_top" xlink:title=" ">
<polygon fill="white" stroke="#666666" points="221.5,-100 129.5,-100 129.5,-81 221.5,-81 221.5,-100"/>
<text text-anchor="middle" x="175.5" y="-88" font-family="Helvetica,sans-Serif" font-size="10.00">func_800CA388</text>
</a>
</g>
</g>
<!-- Node1&#45;&gt;Node7 -->
<g id="edge6_Node000001_Node000007" class="edge">
<title>Node1&#45;&gt;Node7</title>
<g id="a_edge6_Node000001_Node000007"><a xlink:title=" ">
<path fill="none" stroke="#63b8ff" d="M77.54,-120.92C94.65,-115.55 116.19,-108.79 134.62,-103.01"/>
<polygon fill="#63b8ff" stroke="#63b8ff" points="135.72,-106.34 144.21,-100 133.62,-99.66 135.72,-106.34"/>
</a>
</g>
</g>
<!-- Node9 -->
<g id="Node000009" class="node">
<title>Node9</title>
<g id="a_Node000009"><a xlink:href="external_8c.html#afadd9eacb33a057bc8c1caaab7ab5a84" target="_top" xlink:title=" ">
<polygon fill="white" stroke="#666666" points="214.5,-56 136.5,-56 136.5,-37 214.5,-37 214.5,-56"/>
<text text-anchor="middle" x="175.5" y="-44" font-family="Helvetica,sans-Serif" font-size="10.00">play_sound2</text>
</a>
</g>
</g>
<!-- Node1&#45;&gt;Node9 -->
<g id="edge8_Node000001_Node000009" class="edge">
<title>Node1&#45;&gt;Node9</title>
<g id="a_edge8_Node000001_Node000009"><a xlink:title=" ">
<path fill="none" stroke="#63b8ff" d="M59.6,-120.81C75.28,-108.9 103.03,-88.35 128,-72.5 134.09,-68.64 140.78,-64.72 147.14,-61.13"/>
<polygon fill="#63b8ff" stroke="#63b8ff" points="149.06,-64.07 156.12,-56.16 145.67,-57.94 149.06,-64.07"/>
</a>
</g>
</g>
<!-- Node4 -->
<g id="Node000004" class="node">
<title>Node4</title>
<g id="a_Node000004"><a xlink:href="menu__items_8c.html#ad38092d257433fcbbac4e1fd80b3b5bd" target="_top" xlink:title=" ">
<polygon fill="white" stroke="#666666" points="367.5,-179 274.5,-179 274.5,-160 367.5,-160 367.5,-179"/>
<text text-anchor="middle" x="321" y="-167" font-family="Helvetica,sans-Serif" font-size="10.00">func_8009DF8C</text>
</a>
</g>
</g>
<!-- Node3&#45;&gt;Node4 -->
<g id="edge3_Node000003_Node000004" class="edge">
<title>Node3&#45;&gt;Node4</title>
<g id="a_edge3_Node000003_Node000004"><a xlink:title=" ">
<path fill="none" stroke="#63b8ff" d="M221.51,-168.13C235,-168.32 249.97,-168.52 264.07,-168.72"/>
<polygon fill="#63b8ff" stroke="#63b8ff" points="264.11,-172.22 274.16,-168.86 264.21,-165.22 264.11,-172.22"/>
</a>
</g>
</g>
<!-- Node6 -->
<g id="Node000006" class="node">
<title>Node6</title>
<g id="a_Node000006"><a xlink:href="external_8c.html#ac48b7cbfcaa7737f892877ead85e4ba7" target="_top" xlink:title=" ">
<polygon fill="white" stroke="#666666" points="367,-142 275,-142 275,-123 367,-123 367,-142"/>
<text text-anchor="middle" x="321" y="-130" font-family="Helvetica,sans-Serif" font-size="10.00">func_800C3448</text>
</a>
</g>
</g>
<!-- Node5&#45;&gt;Node6 -->
<g id="edge5_Node000005_Node000006" class="edge">
<title>Node5&#45;&gt;Node6</title>
<g id="a_edge5_Node000005_Node000006"><a xlink:title=" ">
<path fill="none" stroke="#63b8ff" d="M221.51,-131.13C235.14,-131.32 250.26,-131.53 264.49,-131.73"/>
<polygon fill="#63b8ff" stroke="#63b8ff" points="264.61,-135.23 274.66,-131.87 264.71,-128.23 264.61,-135.23"/>
</a>
</g>
</g>
<!-- Node8 -->
<g id="Node000008" class="node">
<title>Node8</title>
<g id="a_Node000008"><a xlink:href="external_8c.html#a6f30b8a58790a4ee08f797faf98f24d6" target="_top" xlink:title=" ">
<polygon fill="white" stroke="#666666" points="383,-104.5 259,-104.5 259,-74.5 383,-74.5 383,-104.5"/>
<text text-anchor="start" x="267" y="-92.5" font-family="Helvetica,sans-Serif" font-size="10.00">fade_channel_volume</text>
<text text-anchor="middle" x="321" y="-81.5" font-family="Helvetica,sans-Serif" font-size="10.00">_scale</text>
</a>
</g>
</g>
<!-- Node7&#45;&gt;Node8 -->
<g id="edge7_Node000007_Node000008" class="edge">
<title>Node7&#45;&gt;Node8</title>
<g id="a_edge7_Node000007_Node000008"><a xlink:title=" ">
<path fill="none" stroke="#63b8ff" d="M221.51,-90.19C230.2,-90.13 239.51,-90.06 248.8,-90"/>
<polygon fill="#63b8ff" stroke="#63b8ff" points="248.87,-93.5 258.84,-89.93 248.82,-86.5 248.87,-93.5"/>
</a>
</g>
</g>
<!-- Node10 -->
<g id="Node000010" class="node">
<title>Node10</title>
<g id="a_Node000010"><a xlink:href="Game_8cpp.html#a545c1a384e93cc7b616dfee707f5d962" target="_top" xlink:title=" ">
<polygon fill="white" stroke="#666666" points="355,-56 287,-56 287,-37 355,-37 355,-56"/>
<text text-anchor="middle" x="321" y="-44" font-family="Helvetica,sans-Serif" font-size="10.00">IsDkJungle</text>
</a>
</g>
</g>
<!-- Node9&#45;&gt;Node10 -->
<g id="edge9_Node000009_Node000010" class="edge">
<title>Node9&#45;&gt;Node10</title>
<g id="a_edge9_Node000009_Node000010"><a xlink:title=" ">
<path fill="none" stroke="#63b8ff" d="M214.58,-46.5C233.58,-46.5 256.66,-46.5 276.37,-46.5"/>
<polygon fill="#63b8ff" stroke="#63b8ff" points="276.63,-50 286.63,-46.5 276.63,-43 276.63,-50"/>
</a>
</g>
</g>
<!-- Node13 -->
<g id="Node000013" class="node">
<title>Node13</title>
<g id="a_Node000013"><a xlink:href="external_8c.html#a475cff796211891556f52877cd8e9b9e" target="_top" xlink:title=" ">
<polygon fill="white" stroke="#666666" points="357,-19 285,-19 285,0 357,0 357,-19"/>
<text text-anchor="middle" x="321" y="-7" font-family="Helvetica,sans-Serif" font-size="10.00">play_sound</text>
</a>
</g>
</g>
<!-- Node9&#45;&gt;Node13 -->
<g id="edge12_Node000009_Node000013" class="edge">
<title>Node9&#45;&gt;Node13</title>
<g id="a_edge12_Node000009_Node000013"><a xlink:title=" ">
<path fill="none" stroke="#63b8ff" d="M213.45,-36.97C232.21,-32.14 255.15,-26.22 274.93,-21.12"/>
<polygon fill="#63b8ff" stroke="#63b8ff" points="275.85,-24.5 284.65,-18.61 274.1,-17.72 275.85,-24.5"/>
</a>
</g>
</g>
<!-- Node11 -->
<g id="Node000011" class="node">
<title>Node11</title>
<g id="a_Node000011"><a xlink:href="classWorld.html#a1a4dacc6aea0b846df998be0afc239f7" target="_top" xlink:title=" ">
<polygon fill="white" stroke="#666666" points="512,-75 419,-75 419,-56 512,-56 512,-75"/>
<text text-anchor="middle" x="465.5" y="-63" font-family="Helvetica,sans-Serif" font-size="10.00">World::GetTrack</text>
</a>
</g>
</g>
<!-- Node10&#45;&gt;Node11 -->
<g id="edge10_Node000010_Node000011" class="edge">
<title>Node10&#45;&gt;Node11</title>
<g id="a_edge10_Node000010_Node000011"><a xlink:title=" ">
<path fill="none" stroke="#63b8ff" d="M355.05,-50.91C371.08,-53.04 390.76,-55.67 409,-58.1"/>
<polygon fill="#63b8ff" stroke="#63b8ff" points="408.57,-61.57 418.95,-59.43 409.5,-54.64 408.57,-61.57"/>
</a>
</g>
</g>
<!-- Node12 -->
<g id="Node000012" class="node">
<title>Node12</title>
<g id="a_Node000012"><a xlink:href="Game_8cpp.html#ae2fa844b3cb1021ecbc357f8ed2ad8cc" target="_top" xlink:title=" ">
<polygon fill="white" stroke="#666666" points="496.5,-38 434.5,-38 434.5,-19 496.5,-19 496.5,-38"/>
<text text-anchor="middle" x="465.5" y="-26" font-family="Helvetica,sans-Serif" font-size="10.00">GetWorld</text>
</a>
</g>
</g>
<!-- Node10&#45;&gt;Node12 -->
<g id="edge11_Node000010_Node000012" class="edge">
<title>Node10&#45;&gt;Node12</title>
<g id="a_edge11_Node000010_Node000012"><a xlink:title=" ">
<path fill="none" stroke="#63b8ff" d="M355.05,-42.33C375.63,-39.73 402.26,-36.36 424.09,-33.6"/>
<polygon fill="#63b8ff" stroke="#63b8ff" points="424.58,-37.07 434.06,-32.34 423.7,-30.13 424.58,-37.07"/>
</a>
</g>
</g>
</g>
</svg>
