<?xml version="1.0" encoding="UTF-8" standalone="no"?>
<!DOCTYPE svg PUBLIC "-//W3C//DTD SVG 1.1//EN"
 "http://www.w3.org/Graphics/SVG/1.1/DTD/svg11.dtd">
<!-- Generated by graphviz version 2.43.0 (0)
 -->
<!-- Title: debug_print_ghost_kart_character_id Pages: 1 -->
<svg width="757pt" height="271pt"
 viewBox="0.00 0.00 757.00 271.00" xmlns="http://www.w3.org/2000/svg" xmlns:xlink="http://www.w3.org/1999/xlink">
<g id="graph0" class="graph" transform="scale(1 1) rotate(0) translate(4 267)">
<title>debug_print_ghost_kart_character_id</title>
<!-- Node1 -->
<g id="Node000001" class="node">
<title>Node1</title>
<g id="a_Node000001"><a xlink:title=" ">
<polygon fill="#999999" stroke="#666666" points="131,-42.5 0,-42.5 0,-12.5 131,-12.5 131,-42.5"/>
<text text-anchor="start" x="8" y="-30.5" font-family="Helvetica,sans-Serif" font-size="10.00">debug_print_ghost_kart</text>
<text text-anchor="middle" x="65.5" y="-19.5" font-family="Helvetica,sans-Serif" font-size="10.00">_character_id</text>
</a>
</g>
</g>
<!-- Node2 -->
<g id="Node000002" class="node">
<title>Node2</title>
<g id="a_Node000002"><a xlink:href="stubs_8c.html#a8b417b868747c80d58f83d8a1e78ecf3" target="_top" xlink:title=" ">
<polygon fill="white" stroke="#666666" points="235,-37 167,-37 167,-18 235,-18 235,-37"/>
<text text-anchor="middle" x="201" y="-25" font-family="Helvetica,sans-Serif" font-size="10.00">rmonPrintf</text>
</a>
</g>
</g>
<!-- Node1&#45;&gt;Node2 -->
<g id="edge1_Node000001_Node000002" class="edge">
<title>Node1&#45;&gt;Node2</title>
<g id="a_edge1_Node000001_Node000002"><a xlink:title=" ">
<path fill="none" stroke="#63b8ff" d="M131.29,-27.5C139.98,-27.5 148.72,-27.5 156.9,-27.5"/>
<polygon fill="#63b8ff" stroke="#63b8ff" points="156.94,-31 166.94,-27.5 156.94,-24 156.94,-31"/>
</a>
</g>
</g>
<!-- Node3 -->
<g id="Node000003" class="node">
<title>Node3</title>
<g id="a_Node000003"><a xlink:href="__Printf_8c.html#a39bb05c90efce6c6790c5d58d271d72d" target="_top" xlink:title=" ">
<polygon fill="white" stroke="#666666" points="347.5,-56 299.5,-56 299.5,-37 347.5,-37 347.5,-56"/>
<text text-anchor="middle" x="323.5" y="-44" font-family="Helvetica,sans-Serif" font-size="10.00">_Printf</text>
</a>
</g>
</g>
<!-- Node2&#45;&gt;Node3 -->
<g id="edge2_Node000002_Node000003" class="edge">
<title>Node2&#45;&gt;Node3</title>
<g id="a_edge2_Node000002_Node000003"><a xlink:title=" ">
<path fill="none" stroke="#63b8ff" d="M235.25,-32.74C252.09,-35.4 272.49,-38.61 289.32,-41.27"/>
<polygon fill="#63b8ff" stroke="#63b8ff" points="288.86,-44.74 299.28,-42.84 289.95,-37.82 288.86,-44.74"/>
</a>
</g>
</g>
<!-- Node15 -->
<g id="Node000015" class="node">
<title>Node15</title>
<g id="a_Node000015"><a xlink:href="is__debug_8c.html#aaccfac8d9098530b6592eefe679d86b4" target="_top" xlink:title=" ">
<polygon fill="white" stroke="#666666" points="376,-19 271,-19 271,0 376,0 376,-19"/>
<text text-anchor="middle" x="323.5" y="-7" font-family="Helvetica,sans-Serif" font-size="10.00">is_proutSyncPrintf</text>
</a>
</g>
</g>
<!-- Node2&#45;&gt;Node15 -->
<g id="edge16_Node000002_Node000015" class="edge">
<title>Node2&#45;&gt;Node15</title>
<g id="a_edge16_Node000002_Node000015"><a xlink:title=" ">
<path fill="none" stroke="#63b8ff" d="M235.25,-22.53C243.24,-21.34 252.04,-20.03 260.88,-18.71"/>
<polygon fill="#63b8ff" stroke="#63b8ff" points="261.46,-22.16 270.83,-17.22 260.42,-15.23 261.46,-22.16"/>
</a>
</g>
</g>
<!-- Node4 -->
<g id="Node000004" class="node">
<title>Node4</title>
<g id="a_Node000004"><a xlink:href="__Printf_8c.html#ad73a5847f2d7c9de14cc2723da86bf45" target="_top" xlink:title=" ">
<polygon fill="white" stroke="#666666" points="462,-75 412,-75 412,-56 462,-56 462,-75"/>
<text text-anchor="middle" x="437" y="-63" font-family="Helvetica,sans-Serif" font-size="10.00">_Putfld</text>
</a>
</g>
</g>
<!-- Node3&#45;&gt;Node4 -->
<g id="edge3_Node000003_Node000004" class="edge">
<title>Node3&#45;&gt;Node4</title>
<g id="a_edge3_Node000003_Node000004"><a xlink:title=" ">
<path fill="none" stroke="#63b8ff" d="M347.6,-50.44C363.28,-53.11 384.27,-56.69 401.87,-59.68"/>
<polygon fill="#63b8ff" stroke="#63b8ff" points="401.32,-63.14 411.77,-61.37 402.5,-56.24 401.32,-63.14"/>
</a>
</g>
</g>
<!-- Node14 -->
<g id="Node000014" class="node">
<title>Node14</title>
<g id="a_Node000014"><a xlink:href="string_8c.html#a988b4defe51a1815ef3b9ddab10e7a89" target="_top" xlink:title=" ">
<polygon fill="white" stroke="#666666" points="459,-38 415,-38 415,-19 459,-19 459,-38"/>
<text text-anchor="middle" x="437" y="-26" font-family="Helvetica,sans-Serif" font-size="10.00">strchr</text>
</a>
</g>
</g>
<!-- Node3&#45;&gt;Node14 -->
<g id="edge15_Node000003_Node000014" class="edge">
<title>Node3&#45;&gt;Node14</title>
<g id="a_edge15_Node000003_Node000014"><a xlink:title=" ">
<path fill="none" stroke="#63b8ff" d="M347.6,-42.77C364.13,-40.1 386.57,-36.48 404.71,-33.55"/>
<polygon fill="#63b8ff" stroke="#63b8ff" points="405.5,-36.97 414.81,-31.92 404.38,-30.06 405.5,-36.97"/>
</a>
</g>
</g>
<!-- Node5 -->
<g id="Node000005" class="node">
<title>Node5</title>
<g id="a_Node000005"><a xlink:href="__Ldtob_8c.html#a7cc858157b66e15c831ad085113729ae" target="_top" xlink:title=" ">
<polygon fill="white" stroke="#666666" points="547,-168 498,-168 498,-149 547,-149 547,-168"/>
<text text-anchor="middle" x="522.5" y="-156" font-family="Helvetica,sans-Serif" font-size="10.00">_Ldtob</text>
</a>
</g>
</g>
<!-- Node4&#45;&gt;Node5 -->
<g id="edge4_Node000004_Node000005" class="edge">
<title>Node4&#45;&gt;Node5</title>
<g id="a_edge4_Node000004_Node000005"><a xlink:title=" ">
<path fill="none" stroke="#63b8ff" d="M446.62,-75.1C460.62,-90.7 488.49,-121.74 506,-141.24"/>
<polygon fill="#63b8ff" stroke="#63b8ff" points="503.52,-143.71 512.8,-148.81 508.72,-139.03 503.52,-143.71"/>
</a>
</g>
</g>
<!-- Node11 -->
<g id="Node000011" class="node">
<title>Node11</title>
<g id="a_Node000011"><a xlink:href="__Litob_8c.html#aaaba3b0ab7920d422a61fe9e22600dd0" target="_top" xlink:title=" ">
<polygon fill="white" stroke="#666666" points="545.5,-75 499.5,-75 499.5,-56 545.5,-56 545.5,-75"/>
<text text-anchor="middle" x="522.5" y="-63" font-family="Helvetica,sans-Serif" font-size="10.00">_Litob</text>
</a>
</g>
</g>
<!-- Node4&#45;&gt;Node11 -->
<g id="edge11_Node000004_Node000011" class="edge">
<title>Node4&#45;&gt;Node11</title>
<g id="a_edge11_Node000004_Node000011"><a xlink:title=" ">
<path fill="none" stroke="#63b8ff" d="M462.15,-65.5C470.6,-65.5 480.22,-65.5 489.23,-65.5"/>
<polygon fill="#63b8ff" stroke="#63b8ff" points="489.4,-69 499.4,-65.5 489.4,-62 489.4,-69"/>
</a>
</g>
</g>
<!-- Node13 -->
<g id="Node000013" class="node">
<title>Node13</title>
<g id="a_Node000013"><a xlink:href="string_8c.html#a008e171a518fe0e0352f31b245e03875" target="_top" xlink:title=" ">
<polygon fill="white" stroke="#666666" points="544.5,-38 500.5,-38 500.5,-19 544.5,-19 544.5,-38"/>
<text text-anchor="middle" x="522.5" y="-26" font-family="Helvetica,sans-Serif" font-size="10.00">strlen</text>
</a>
</g>
</g>
<!-- Node4&#45;&gt;Node13 -->
<g id="edge14_Node000004_Node000013" class="edge">
<title>Node4&#45;&gt;Node13</title>
<g id="a_edge14_Node000004_Node000013"><a xlink:title=" ">
<path fill="none" stroke="#63b8ff" d="M459.5,-55.97C469.12,-51.71 480.63,-46.61 491.11,-41.97"/>
<polygon fill="#63b8ff" stroke="#63b8ff" points="492.63,-45.12 500.36,-37.87 489.8,-38.72 492.63,-45.12"/>
</a>
</g>
</g>
<!-- Node6 -->
<g id="Node000006" class="node">
<title>Node6</title>
<g id="a_Node000006"><a xlink:href="__Ldtob_8c.html#a2b6c5318b43bab1636bad9113ffb2761" target="_top" xlink:title=" ">
<polygon fill="white" stroke="#666666" points="643.5,-263 593.5,-263 593.5,-244 643.5,-244 643.5,-263"/>
<text text-anchor="middle" x="618.5" y="-251" font-family="Helvetica,sans-Serif" font-size="10.00">_Genld</text>
</a>
</g>
</g>
<!-- Node5&#45;&gt;Node6 -->
<g id="edge5_Node000005_Node000006" class="edge">
<title>Node5&#45;&gt;Node6</title>
<g id="a_edge5_Node000005_Node000006"><a xlink:title=" ">
<path fill="none" stroke="#63b8ff" d="M530.47,-168.39C540.9,-182.8 561.63,-209.97 583,-229.5 586.21,-232.44 589.8,-235.31 593.41,-237.98"/>
<polygon fill="#63b8ff" stroke="#63b8ff" points="591.53,-240.94 601.73,-243.81 595.55,-235.2 591.53,-240.94"/>
</a>
</g>
</g>
<!-- Node7 -->
<g id="Node000007" class="node">
<title>Node7</title>
<g id="a_Node000007"><a xlink:href="string_8c.html#ad7f1ae1bbb49dece44bda378982a704d" target="_top" xlink:title=" ">
<polygon fill="white" stroke="#666666" points="749,-225 690,-225 690,-206 749,-206 749,-225"/>
<text text-anchor="middle" x="719.5" y="-213" font-family="Helvetica,sans-Serif" font-size="10.00">memcpy</text>
</a>
</g>
</g>
<!-- Node5&#45;&gt;Node7 -->
<g id="edge9_Node000005_Node000007" class="edge">
<title>Node5&#45;&gt;Node7</title>
<g id="a_edge9_Node000005_Node000007"><a xlink:title=" ">
<path fill="none" stroke="#63b8ff" d="M535.43,-168.33C546.89,-177.21 565.06,-189.87 583,-196.5 614.32,-208.07 652.09,-212.66 679.79,-214.45"/>
<polygon fill="#63b8ff" stroke="#63b8ff" points="679.7,-217.95 689.88,-215.01 680.08,-210.96 679.7,-217.95"/>
</a>
</g>
</g>
<!-- Node8 -->
<g id="Node000008" class="node">
<title>Node8</title>
<g id="a_Node000008"><a xlink:href="__Ldtob_8c.html#ab7ade9ce60aaa8baa0244b503351d742" target="_top" xlink:title=" ">
<polygon fill="white" stroke="#666666" points="654,-187 583,-187 583,-168 654,-168 654,-187"/>
<text text-anchor="middle" x="618.5" y="-175" font-family="Helvetica,sans-Serif" font-size="10.00">_Ldunscale</text>
</a>
</g>
</g>
<!-- Node5&#45;&gt;Node8 -->
<g id="edge7_Node000005_Node000008" class="edge">
<title>Node5&#45;&gt;Node8</title>
<g id="a_edge7_Node000005_Node000008"><a xlink:title=" ">
<path fill="none" stroke="#63b8ff" d="M547.22,-163.29C555.04,-164.88 564.02,-166.69 572.88,-168.48"/>
<polygon fill="#63b8ff" stroke="#63b8ff" points="572.28,-171.93 582.77,-170.48 573.66,-165.07 572.28,-171.93"/>
</a>
</g>
</g>
<!-- Node9 -->
<g id="Node000009" class="node">
<title>Node9</title>
<g id="a_Node000009"><a xlink:href="ldiv_8c.html#a0302920caf64a5fbe1ce0862799d7784" target="_top" xlink:title=" ">
<polygon fill="white" stroke="#666666" points="636,-150 601,-150 601,-131 636,-131 636,-150"/>
<text text-anchor="middle" x="618.5" y="-138" font-family="Helvetica,sans-Serif" font-size="10.00">ldiv</text>
</a>
</g>
</g>
<!-- Node5&#45;&gt;Node9 -->
<g id="edge8_Node000005_Node000009" class="edge">
<title>Node5&#45;&gt;Node9</title>
<g id="a_edge8_Node000005_Node000009"><a xlink:title=" ">
<path fill="none" stroke="#63b8ff" d="M547.22,-153.96C560.57,-151.4 577.27,-148.2 591.04,-145.57"/>
<polygon fill="#63b8ff" stroke="#63b8ff" points="591.73,-149 600.9,-143.68 590.42,-142.12 591.73,-149"/>
</a>
</g>
</g>
<!-- Node10 -->
<g id="Node000010" class="node">
<title>Node10</title>
<g id="a_Node000010"><a xlink:href="alBnkfNew_8c.html#a96a0200a6b40350e524f536d232ecb53" target="_top" xlink:title=" ">
<polygon fill="white" stroke="#666666" points="644.5,-113 592.5,-113 592.5,-94 644.5,-94 644.5,-113"/>
<text text-anchor="middle" x="618.5" y="-101" font-family="Helvetica,sans-Serif" font-size="10.00">unused</text>
</a>
</g>
</g>
<!-- Node5&#45;&gt;Node10 -->
<g id="edge10_Node000005_Node000010" class="edge">
<title>Node5&#45;&gt;Node10</title>
<g id="a_edge10_Node000005_Node000010"><a xlink:title=" ">
<path fill="none" stroke="#63b8ff" d="M539.06,-148.85C551,-141.5 567.94,-131.2 583,-122.5 585.55,-121.03 588.23,-119.51 590.9,-118"/>
<polygon fill="#63b8ff" stroke="#63b8ff" points="592.83,-120.94 599.87,-113.03 589.43,-114.82 592.83,-120.94"/>
</a>
</g>
</g>
<!-- Node6&#45;&gt;Node7 -->
<g id="edge6_Node000006_Node000007" class="edge">
<title>Node6&#45;&gt;Node7</title>
<g id="a_edge6_Node000006_Node000007"><a xlink:title=" ">
<path fill="none" stroke="#63b8ff" d="M643.72,-244.2C655.88,-239.54 670.82,-233.8 684.15,-228.69"/>
<polygon fill="#63b8ff" stroke="#63b8ff" points="685.42,-231.95 693.5,-225.1 682.91,-225.41 685.42,-231.95"/>
</a>
</g>
</g>
<!-- Node11&#45;&gt;Node7 -->
<g id="edge13_Node000011_Node000007" class="edge">
<title>Node11&#45;&gt;Node7</title>
<g id="a_edge13_Node000011_Node000007"><a xlink:title=" ">
<path fill="none" stroke="#63b8ff" d="M545.66,-63.07C573.64,-61.19 621.99,-62.1 654,-85.5 690.98,-112.52 707.96,-166.72 714.7,-195.87"/>
<polygon fill="#63b8ff" stroke="#63b8ff" points="711.29,-196.66 716.81,-205.71 718.14,-195.2 711.29,-196.66"/>
</a>
</g>
</g>
<!-- Node12 -->
<g id="Node000012" class="node">
<title>Node12</title>
<g id="a_Node000012"><a xlink:href="ldiv_8c.html#a5b23c3639f11980dca762c5f1d74f339" target="_top" xlink:title=" ">
<polygon fill="white" stroke="#666666" points="637.5,-37 599.5,-37 599.5,-18 637.5,-18 637.5,-37"/>
<text text-anchor="middle" x="618.5" y="-25" font-family="Helvetica,sans-Serif" font-size="10.00">lldiv</text>
</a>
</g>
</g>
<!-- Node11&#45;&gt;Node12 -->
<g id="edge12_Node000011_Node000012" class="edge">
<title>Node11&#45;&gt;Node12</title>
<g id="a_edge12_Node000011_Node000012"><a xlink:title=" ">
<path fill="none" stroke="#63b8ff" d="M545.78,-56.49C558.97,-51.16 575.8,-44.36 589.84,-38.68"/>
<polygon fill="#63b8ff" stroke="#63b8ff" points="591.52,-41.78 599.47,-34.79 588.89,-35.29 591.52,-41.78"/>
</a>
</g>
</g>
</g>
</svg>
