<?xml version="1.0" encoding="UTF-8" standalone="no"?>
<!DOCTYPE svg PUBLIC "-//W3C//DTD SVG 1.1//EN"
 "http://www.w3.org/Graphics/SVG/1.1/DTD/svg11.dtd">
<!-- Generated by graphviz version 2.43.0 (0)
 -->
<!-- Title: src/menus.h Pages: 1 -->
<svg width="2934pt" height="203pt"
 viewBox="0.00 0.00 2933.50 203.00" xmlns="http://www.w3.org/2000/svg" xmlns:xlink="http://www.w3.org/1999/xlink">
<g id="graph0" class="graph" transform="scale(1 1) rotate(0) translate(4 199)">
<title>src/menus.h</title>
<!-- Node1 -->
<g id="Node000001" class="node">
<title>Node1</title>
<g id="a_Node000001"><a xlink:title=" ">
<polygon fill="#999999" stroke="#666666" points="1641.5,-195 1565.5,-195 1565.5,-176 1641.5,-176 1641.5,-195"/>
<text text-anchor="middle" x="1603.5" y="-183" font-family="Helvetica,sans-Serif" font-size="10.00">src/menus.h</text>
</a>
</g>
</g>
<!-- Node2 -->
<g id="Node000002" class="node">
<title>Node2</title>
<g id="a_Node000002"><a xlink:href="code__800029B0_8c.html" target="_top" xlink:title=" ">
<polygon fill="white" stroke="#666666" points="119,-134.5 0,-134.5 0,-115.5 119,-115.5 119,-134.5"/>
<text text-anchor="middle" x="59.5" y="-122.5" font-family="Helvetica,sans-Serif" font-size="10.00">src/code_800029B0.c</text>
</a>
</g>
</g>
<!-- Node1&#45;&gt;Node2 -->
<g id="edge1_Node000001_Node000002" class="edge">
<title>Node1&#45;&gt;Node2</title>
<g id="a_edge1_Node000001_Node000002"><a xlink:title=" ">
<path fill="none" stroke="#63b8ff" d="M1555.15,-184.15C1333.64,-182.36 414.25,-173.06 128.5,-140 117.69,-138.75 106.06,-136.68 95.48,-134.5"/>
<polygon fill="#63b8ff" stroke="#63b8ff" points="1555.14,-187.65 1565.17,-184.23 1555.2,-180.65 1555.14,-187.65"/>
</a>
</g>
</g>
<!-- Node3 -->
<g id="Node000003" class="node">
<title>Node3</title>
<g id="a_Node000003"><a xlink:href="code__80005FD0_8c.html" target="_top" xlink:title=" ">
<polygon fill="white" stroke="#666666" points="257.5,-134.5 137.5,-134.5 137.5,-115.5 257.5,-115.5 257.5,-134.5"/>
<text text-anchor="middle" x="197.5" y="-122.5" font-family="Helvetica,sans-Serif" font-size="10.00">src/code_80005FD0.c</text>
</a>
</g>
</g>
<!-- Node1&#45;&gt;Node3 -->
<g id="edge2_Node000001_Node000003" class="edge">
<title>Node1&#45;&gt;Node3</title>
<g id="a_edge2_Node000001_Node000003"><a xlink:title=" ">
<path fill="none" stroke="#63b8ff" d="M1555.36,-183.98C1347.22,-181.54 523.68,-170.16 266.5,-140 255.82,-138.75 244.32,-136.7 233.84,-134.56"/>
<polygon fill="#63b8ff" stroke="#63b8ff" points="1555.33,-187.48 1565.37,-184.09 1555.41,-180.48 1555.33,-187.48"/>
</a>
</g>
</g>
<!-- Node4 -->
<g id="Node000004" class="node">
<title>Node4</title>
<g id="a_Node000004"><a xlink:href="code__80057C60_8c.html" target="_top" xlink:title=" ">
<polygon fill="white" stroke="#666666" points="395,-134.5 276,-134.5 276,-115.5 395,-115.5 395,-134.5"/>
<text text-anchor="middle" x="335.5" y="-122.5" font-family="Helvetica,sans-Serif" font-size="10.00">src/code_80057C60.c</text>
</a>
</g>
</g>
<!-- Node1&#45;&gt;Node4 -->
<g id="edge3_Node000001_Node000004" class="edge">
<title>Node1&#45;&gt;Node4</title>
<g id="a_edge3_Node000001_Node000004"><a xlink:title=" ">
<path fill="none" stroke="#63b8ff" d="M1555,-183.78C1359.91,-180.7 632.14,-167.58 403.5,-140 392.97,-138.73 381.64,-136.68 371.31,-134.53"/>
<polygon fill="#63b8ff" stroke="#63b8ff" points="1555.16,-187.28 1565.22,-183.94 1555.27,-180.28 1555.16,-187.28"/>
</a>
</g>
</g>
<!-- Node5 -->
<g id="Node000005" class="node">
<title>Node5</title>
<g id="a_Node000005"><a xlink:href="code__8006E9C0_8c.html" target="_top" xlink:title=" ">
<polygon fill="white" stroke="#666666" points="532,-134.5 413,-134.5 413,-115.5 532,-115.5 532,-134.5"/>
<text text-anchor="middle" x="472.5" y="-122.5" font-family="Helvetica,sans-Serif" font-size="10.00">src/code_8006E9C0.c</text>
</a>
</g>
</g>
<!-- Node1&#45;&gt;Node5 -->
<g id="edge4_Node000001_Node000005" class="edge">
<title>Node1&#45;&gt;Node5</title>
<g id="a_edge4_Node000001_Node000005"><a xlink:title=" ">
<path fill="none" stroke="#63b8ff" d="M1555.05,-183.49C1374.62,-179.57 741.76,-164.36 541.5,-140 530.94,-138.72 519.59,-136.69 509.21,-134.57"/>
<polygon fill="#63b8ff" stroke="#63b8ff" points="1555.22,-186.99 1565.29,-183.71 1555.37,-180 1555.22,-186.99"/>
</a>
</g>
</g>
<!-- Node6 -->
<g id="Node000006" class="node">
<title>Node6</title>
<g id="a_Node000006"><a xlink:href="all__variables_8h.html" target="_top" xlink:title=" ">
<polygon fill="white" stroke="#666666" points="688.5,-134.5 550.5,-134.5 550.5,-115.5 688.5,-115.5 688.5,-134.5"/>
<text text-anchor="middle" x="619.5" y="-122.5" font-family="Helvetica,sans-Serif" font-size="10.00">src/debug/all_variables.h</text>
</a>
</g>
</g>
<!-- Node1&#45;&gt;Node6 -->
<g id="edge5_Node000001_Node000006" class="edge">
<title>Node1&#45;&gt;Node6</title>
<g id="a_edge5_Node000001_Node000006"><a xlink:title=" ">
<path fill="none" stroke="#63b8ff" d="M1555.33,-184.31C1419.8,-183.3 1023.85,-177.15 697.5,-140 685.74,-138.66 673.08,-136.64 661.45,-134.55"/>
<polygon fill="#63b8ff" stroke="#63b8ff" points="1555.36,-187.81 1565.38,-184.38 1555.41,-180.81 1555.36,-187.81"/>
</a>
</g>
</g>
<!-- Node9 -->
<g id="Node000009" class="node">
<title>Node9</title>
<g id="a_Node000009"><a xlink:href="code__80281780_8c.html" target="_top" xlink:title=" ">
<polygon fill="white" stroke="#666666" points="862,-134.5 707,-134.5 707,-115.5 862,-115.5 862,-134.5"/>
<text text-anchor="middle" x="784.5" y="-122.5" font-family="Helvetica,sans-Serif" font-size="10.00">src/ending/code_80281780.c</text>
</a>
</g>
</g>
<!-- Node1&#45;&gt;Node9 -->
<g id="edge8_Node000001_Node000009" class="edge">
<title>Node1&#45;&gt;Node9</title>
<g id="a_edge8_Node000001_Node000009"><a xlink:title=" ">
<path fill="none" stroke="#63b8ff" d="M1555.19,-183.21C1437.77,-179.73 1128.23,-168.39 871.5,-140 858.73,-138.59 844.97,-136.59 832.25,-134.55"/>
<polygon fill="#63b8ff" stroke="#63b8ff" points="1555.19,-186.72 1565.28,-183.51 1555.39,-179.72 1555.19,-186.72"/>
</a>
</g>
</g>
<!-- Node10 -->
<g id="Node000010" class="node">
<title>Node10</title>
<g id="a_Node000010"><a xlink:href="HM__Intro_8cpp.html" target="_top" xlink:title=" ">
<polygon fill="white" stroke="#666666" points="1014.5,-134.5 880.5,-134.5 880.5,-115.5 1014.5,-115.5 1014.5,-134.5"/>
<text text-anchor="middle" x="947.5" y="-122.5" font-family="Helvetica,sans-Serif" font-size="10.00">src/engine/HM_Intro.cpp</text>
</a>
</g>
</g>
<!-- Node1&#45;&gt;Node10 -->
<g id="edge9_Node000001_Node000010" class="edge">
<title>Node1&#45;&gt;Node10</title>
<g id="a_edge9_Node000001_Node000010"><a xlink:title=" ">
<path fill="none" stroke="#63b8ff" d="M1555.29,-182.52C1455.64,-178.06 1219.85,-165.54 1023.5,-140 1012.46,-138.56 1000.59,-136.59 989.58,-134.57"/>
<polygon fill="#63b8ff" stroke="#63b8ff" points="1555.21,-186.02 1565.35,-182.97 1555.52,-179.03 1555.21,-186.02"/>
</a>
</g>
</g>
<!-- Node11 -->
<g id="Node000011" class="node">
<title>Node11</title>
<g id="a_Node000011"><a xlink:href="PlayerBombKart_8cpp.html" target="_top" xlink:title=" ">
<polygon fill="white" stroke="#666666" points="1202.5,-134.5 1032.5,-134.5 1032.5,-115.5 1202.5,-115.5 1202.5,-134.5"/>
<text text-anchor="middle" x="1117.5" y="-122.5" font-family="Helvetica,sans-Serif" font-size="10.00">src/engine/PlayerBombKart.cpp</text>
</a>
</g>
</g>
<!-- Node1&#45;&gt;Node11 -->
<g id="edge10_Node000001_Node000011" class="edge">
<title>Node1&#45;&gt;Node11</title>
<g id="a_edge10_Node000001_Node000011"><a xlink:title=" ">
<path fill="none" stroke="#63b8ff" d="M1555.38,-179.58C1481.37,-171.9 1335.22,-156.23 1211.5,-140 1198.9,-138.35 1185.38,-136.42 1172.63,-134.54"/>
<polygon fill="#63b8ff" stroke="#63b8ff" points="1555.02,-183.06 1565.33,-180.61 1555.74,-176.1 1555.02,-183.06"/>
</a>
</g>
</g>
<!-- Node12 -->
<g id="Node000012" class="node">
<title>Node12</title>
<g id="a_Node000012"><a xlink:href="World_8cpp.html" target="_top" xlink:title=" ">
<polygon fill="white" stroke="#666666" points="1338.5,-134.5 1220.5,-134.5 1220.5,-115.5 1338.5,-115.5 1338.5,-134.5"/>
<text text-anchor="middle" x="1279.5" y="-122.5" font-family="Helvetica,sans-Serif" font-size="10.00">src/engine/World.cpp</text>
</a>
</g>
</g>
<!-- Node1&#45;&gt;Node12 -->
<g id="edge11_Node000001_Node000012" class="edge">
<title>Node1&#45;&gt;Node12</title>
<g id="a_edge11_Node000001_Node000012"><a xlink:title=" ">
<path fill="none" stroke="#63b8ff" d="M1555.09,-176.54C1503.55,-167.97 1419.65,-153.69 1347.5,-140 1338.62,-138.31 1329.1,-136.41 1320.09,-134.57"/>
<polygon fill="#63b8ff" stroke="#63b8ff" points="1554.83,-180.05 1565.27,-178.23 1555.97,-173.14 1554.83,-180.05"/>
</a>
</g>
</g>
<!-- Node13 -->
<g id="Node000013" class="node">
<title>Node13</title>
<g id="a_Node000013"><a xlink:href="Boos_8cpp.html" target="_top" xlink:title=" ">
<polygon fill="white" stroke="#666666" points="1462,-140 1357,-140 1357,-110 1462,-110 1462,-140"/>
<text text-anchor="start" x="1365" y="-128" font-family="Helvetica,sans-Serif" font-size="10.00">src/engine/objects</text>
<text text-anchor="middle" x="1409.5" y="-117" font-family="Helvetica,sans-Serif" font-size="10.00">/Boos.cpp</text>
</a>
</g>
</g>
<!-- Node1&#45;&gt;Node13 -->
<g id="edge12_Node000001_Node000013" class="edge">
<title>Node1&#45;&gt;Node13</title>
<g id="a_edge12_Node000001_Node000013"><a xlink:title=" ">
<path fill="none" stroke="#63b8ff" d="M1565.62,-173.08C1534.29,-163.63 1489.66,-150.17 1456.14,-140.06"/>
<polygon fill="#63b8ff" stroke="#63b8ff" points="1564.71,-176.46 1575.29,-175.99 1566.73,-169.76 1564.71,-176.46"/>
</a>
</g>
</g>
<!-- Node14 -->
<g id="Node000014" class="node">
<title>Node14</title>
<g id="a_Node000014"><a xlink:href="GrandPrixBalloons_8cpp.html" target="_top" xlink:title=" ">
<polygon fill="white" stroke="#666666" points="1610.5,-140 1480.5,-140 1480.5,-110 1610.5,-110 1610.5,-140"/>
<text text-anchor="start" x="1488.5" y="-128" font-family="Helvetica,sans-Serif" font-size="10.00">src/engine/objects</text>
<text text-anchor="middle" x="1545.5" y="-117" font-family="Helvetica,sans-Serif" font-size="10.00">/GrandPrixBalloons.cpp</text>
</a>
</g>
</g>
<!-- Node1&#45;&gt;Node14 -->
<g id="edge13_Node000001_Node000014" class="edge">
<title>Node1&#45;&gt;Node14</title>
<g id="a_edge13_Node000001_Node000014"><a xlink:title=" ">
<path fill="none" stroke="#63b8ff" d="M1587.83,-168.7C1578.99,-159.78 1568.04,-148.74 1559.49,-140.11"/>
<polygon fill="#63b8ff" stroke="#63b8ff" points="1585.42,-171.23 1594.94,-175.87 1590.39,-166.3 1585.42,-171.23"/>
</a>
</g>
</g>
<!-- Node15 -->
<g id="Node000015" class="node">
<title>Node15</title>
<g id="a_Node000015"><a xlink:href="main_8c.html" target="_top" xlink:title=" ">
<polygon fill="white" stroke="#666666" points="1696,-134.5 1629,-134.5 1629,-115.5 1696,-115.5 1696,-134.5"/>
<text text-anchor="middle" x="1662.5" y="-122.5" font-family="Helvetica,sans-Serif" font-size="10.00">src/main.c</text>
</a>
</g>
</g>
<!-- Node1&#45;&gt;Node15 -->
<g id="edge14_Node000001_Node000015" class="edge">
<title>Node1&#45;&gt;Node15</title>
<g id="a_edge14_Node000001_Node000015"><a xlink:title=" ">
<path fill="none" stroke="#63b8ff" d="M1619.55,-168.59C1630.56,-157.67 1644.77,-143.58 1653.76,-134.67"/>
<polygon fill="#63b8ff" stroke="#63b8ff" points="1616.84,-166.34 1612.21,-175.87 1621.77,-171.31 1616.84,-166.34"/>
</a>
</g>
</g>
<!-- Node16 -->
<g id="Node000016" class="node">
<title>Node16</title>
<g id="a_Node000016"><a xlink:href="menu__items_8c.html" target="_top" xlink:title=" ">
<polygon fill="white" stroke="#666666" points="1817,-134.5 1714,-134.5 1714,-115.5 1817,-115.5 1817,-134.5"/>
<text text-anchor="middle" x="1765.5" y="-122.5" font-family="Helvetica,sans-Serif" font-size="10.00">src/menu_items.c</text>
</a>
</g>
</g>
<!-- Node1&#45;&gt;Node16 -->
<g id="edge15_Node000001_Node000016" class="edge">
<title>Node1&#45;&gt;Node16</title>
<g id="a_edge15_Node000001_Node000016"><a xlink:title=" ">
<path fill="none" stroke="#63b8ff" d="M1636.66,-172.52C1667.99,-161.21 1714.19,-144.53 1741.92,-134.52"/>
<polygon fill="#63b8ff" stroke="#63b8ff" points="1635.27,-169.31 1627.06,-175.99 1637.65,-175.89 1635.27,-169.31"/>
</a>
</g>
</g>
<!-- Node17 -->
<g id="Node000017" class="node">
<title>Node17</title>
<g id="a_Node000017"><a xlink:href="menus_8c.html" target="_top" xlink:title=" ">
<polygon fill="white" stroke="#666666" points="1910,-134.5 1835,-134.5 1835,-115.5 1910,-115.5 1910,-134.5"/>
<text text-anchor="middle" x="1872.5" y="-122.5" font-family="Helvetica,sans-Serif" font-size="10.00">src/menus.c</text>
</a>
</g>
</g>
<!-- Node1&#45;&gt;Node17 -->
<g id="edge16_Node000001_Node000017" class="edge">
<title>Node1&#45;&gt;Node17</title>
<g id="a_edge16_Node000001_Node000017"><a xlink:title=" ">
<path fill="none" stroke="#63b8ff" d="M1651.94,-176.11C1697.11,-167.98 1766.22,-154.74 1825.5,-140 1831.94,-138.4 1838.83,-136.47 1845.28,-134.57"/>
<polygon fill="#63b8ff" stroke="#63b8ff" points="1651.07,-172.71 1641.84,-177.92 1652.3,-179.6 1651.07,-172.71"/>
</a>
</g>
</g>
<!-- Node18 -->
<g id="Node000018" class="node">
<title>Node18</title>
<g id="a_Node000018"><a xlink:href="Game_8cpp.html" target="_top" xlink:title=" ">
<polygon fill="white" stroke="#666666" points="2033.5,-134.5 1927.5,-134.5 1927.5,-115.5 2033.5,-115.5 2033.5,-134.5"/>
<text text-anchor="middle" x="1980.5" y="-122.5" font-family="Helvetica,sans-Serif" font-size="10.00">src/port/Game.cpp</text>
</a>
</g>
</g>
<!-- Node1&#45;&gt;Node18 -->
<g id="edge17_Node000001_Node000018" class="edge">
<title>Node1&#45;&gt;Node18</title>
<g id="a_edge17_Node000001_Node000018"><a xlink:title=" ">
<path fill="none" stroke="#63b8ff" d="M1652.24,-178.87C1714.32,-171.41 1824.78,-157.17 1918.5,-140 1927.07,-138.43 1936.26,-136.49 1944.87,-134.57"/>
<polygon fill="#63b8ff" stroke="#63b8ff" points="1651.48,-175.43 1641.97,-180.09 1652.31,-182.38 1651.48,-175.43"/>
</a>
</g>
</g>
<!-- Node19 -->
<g id="Node000019" class="node">
<title>Node19</title>
<g id="a_Node000019"><a xlink:href="Menu_8h.html" target="_top" xlink:title=" ">
<polygon fill="white" stroke="#666666" points="2155.5,-134.5 2051.5,-134.5 2051.5,-115.5 2155.5,-115.5 2155.5,-134.5"/>
<text text-anchor="middle" x="2103.5" y="-122.5" font-family="Helvetica,sans-Serif" font-size="10.00">src/port/ui/Menu.h</text>
</a>
</g>
</g>
<!-- Node1&#45;&gt;Node19 -->
<g id="edge18_Node000001_Node000019" class="edge">
<title>Node1&#45;&gt;Node19</title>
<g id="a_edge18_Node000001_Node000019"><a xlink:title=" ">
<path fill="none" stroke="#63b8ff" d="M1651.98,-181.57C1733.18,-176.21 1901.62,-163.21 2042.5,-140 2051.4,-138.53 2060.94,-136.55 2069.77,-134.53"/>
<polygon fill="#63b8ff" stroke="#63b8ff" points="1651.34,-178.1 1641.59,-182.24 1651.79,-185.09 1651.34,-178.1"/>
</a>
</g>
</g>
<!-- Node31 -->
<g id="Node000031" class="node">
<title>Node31</title>
<g id="a_Node000031"><a xlink:href="race__logic_8c.html" target="_top" xlink:title=" ">
<polygon fill="white" stroke="#666666" points="2299,-134.5 2174,-134.5 2174,-115.5 2299,-115.5 2299,-134.5"/>
<text text-anchor="middle" x="2236.5" y="-122.5" font-family="Helvetica,sans-Serif" font-size="10.00">src/racing/race_logic.c</text>
</a>
</g>
</g>
<!-- Node1&#45;&gt;Node31 -->
<g id="edge30_Node000001_Node000031" class="edge">
<title>Node1&#45;&gt;Node31</title>
<g id="a_edge30_Node000001_Node000031"><a xlink:title=" ">
<path fill="none" stroke="#63b8ff" d="M1651.88,-182.5C1749.27,-178.08 1975.83,-165.74 2164.5,-140 2175.1,-138.55 2186.49,-136.55 2197.02,-134.51"/>
<polygon fill="#63b8ff" stroke="#63b8ff" points="1651.59,-179.01 1641.75,-182.96 1651.9,-186.01 1651.59,-179.01"/>
</a>
</g>
</g>
<!-- Node32 -->
<g id="Node000032" class="node">
<title>Node32</title>
<g id="a_Node000032"><a xlink:href="skybox__and__splitscreen_8c.html" target="_top" xlink:title=" ">
<polygon fill="white" stroke="#666666" points="2442,-140 2317,-140 2317,-110 2442,-110 2442,-140"/>
<text text-anchor="start" x="2325" y="-128" font-family="Helvetica,sans-Serif" font-size="10.00">src/racing/skybox_and</text>
<text text-anchor="middle" x="2379.5" y="-117" font-family="Helvetica,sans-Serif" font-size="10.00">_splitscreen.c</text>
</a>
</g>
</g>
<!-- Node1&#45;&gt;Node32 -->
<g id="edge31_Node000001_Node000032" class="edge">
<title>Node1&#45;&gt;Node32</title>
<g id="a_edge31_Node000001_Node000032"><a xlink:title=" ">
<path fill="none" stroke="#63b8ff" d="M1652.08,-183.63C1766.78,-181.11 2063.18,-171.79 2308.5,-140 2311.24,-139.64 2314.04,-139.25 2316.85,-138.82"/>
<polygon fill="#63b8ff" stroke="#63b8ff" points="1651.8,-180.14 1641.88,-183.85 1651.95,-187.14 1651.8,-180.14"/>
</a>
</g>
</g>
<!-- Node33 -->
<g id="Node000033" class="node">
<title>Node33</title>
<g id="a_Node000033"><a xlink:href="render__objects_8c.html" target="_top" xlink:title=" ">
<polygon fill="white" stroke="#666666" points="2574.5,-134.5 2460.5,-134.5 2460.5,-115.5 2574.5,-115.5 2574.5,-134.5"/>
<text text-anchor="middle" x="2517.5" y="-122.5" font-family="Helvetica,sans-Serif" font-size="10.00">src/render_objects.c</text>
</a>
</g>
</g>
<!-- Node1&#45;&gt;Node33 -->
<g id="edge32_Node000001_Node000033" class="edge">
<title>Node1&#45;&gt;Node33</title>
<g id="a_edge32_Node000001_Node000033"><a xlink:title=" ">
<path fill="none" stroke="#63b8ff" d="M1651.75,-184.6C1781.6,-184.32 2149.09,-179.76 2451.5,-140 2461.6,-138.67 2472.46,-136.63 2482.4,-134.51"/>
<polygon fill="#63b8ff" stroke="#63b8ff" points="1651.72,-181.1 1641.73,-184.62 1651.73,-188.1 1651.72,-181.1"/>
</a>
</g>
</g>
<!-- Node34 -->
<g id="Node000034" class="node">
<title>Node34</title>
<g id="a_Node000034"><a xlink:href="save_8c.html" target="_top" xlink:title=" ">
<polygon fill="white" stroke="#666666" points="2658,-134.5 2593,-134.5 2593,-115.5 2658,-115.5 2658,-134.5"/>
<text text-anchor="middle" x="2625.5" y="-122.5" font-family="Helvetica,sans-Serif" font-size="10.00">src/save.c</text>
</a>
</g>
</g>
<!-- Node1&#45;&gt;Node34 -->
<g id="edge33_Node000001_Node000034" class="edge">
<title>Node1&#45;&gt;Node34</title>
<g id="a_edge33_Node000001_Node000034"><a xlink:title=" ">
<path fill="none" stroke="#63b8ff" d="M1651.96,-184.07C1823.57,-182.26 2401.75,-173.74 2583.5,-140 2590.15,-138.77 2597.19,-136.73 2603.57,-134.58"/>
<polygon fill="#63b8ff" stroke="#63b8ff" points="1651.69,-180.57 1641.73,-184.17 1651.76,-187.57 1651.69,-180.57"/>
</a>
</g>
</g>
<!-- Node35 -->
<g id="Node000035" class="node">
<title>Node35</title>
<g id="a_Node000035"><a xlink:href="spawn__players_8c.html" target="_top" xlink:title=" ">
<polygon fill="white" stroke="#666666" points="2791,-134.5 2676,-134.5 2676,-115.5 2791,-115.5 2791,-134.5"/>
<text text-anchor="middle" x="2733.5" y="-122.5" font-family="Helvetica,sans-Serif" font-size="10.00">src/spawn_players.c</text>
</a>
</g>
</g>
<!-- Node1&#45;&gt;Node35 -->
<g id="edge34_Node000001_Node000035" class="edge">
<title>Node1&#45;&gt;Node35</title>
<g id="a_edge34_Node000001_Node000035"><a xlink:title=" ">
<path fill="none" stroke="#63b8ff" d="M1651.74,-183.56C1832.13,-179.86 2466.86,-165.3 2667.5,-140 2677.73,-138.71 2688.72,-136.65 2698.75,-134.51"/>
<polygon fill="#63b8ff" stroke="#63b8ff" points="1651.44,-180.06 1641.51,-183.76 1651.58,-187.06 1651.44,-180.06"/>
</a>
</g>
</g>
<!-- Node36 -->
<g id="Node000036" class="node">
<title>Node36</title>
<g id="a_Node000036"><a xlink:href="update__objects_8c.html" target="_top" xlink:title=" ">
<polygon fill="white" stroke="#666666" points="2925.5,-134.5 2809.5,-134.5 2809.5,-115.5 2925.5,-115.5 2925.5,-134.5"/>
<text text-anchor="middle" x="2867.5" y="-122.5" font-family="Helvetica,sans-Serif" font-size="10.00">src/update_objects.c</text>
</a>
</g>
</g>
<!-- Node1&#45;&gt;Node36 -->
<g id="edge35_Node000001_Node000036" class="edge">
<title>Node1&#45;&gt;Node36</title>
<g id="a_edge35_Node000001_Node000036"><a xlink:title=" ">
<path fill="none" stroke="#63b8ff" d="M1651.89,-183.79C1846.49,-180.78 2572.47,-167.86 2800.5,-140 2810.88,-138.73 2822.04,-136.68 2832.22,-134.54"/>
<polygon fill="#63b8ff" stroke="#63b8ff" points="1651.64,-180.3 1641.69,-183.95 1651.74,-187.29 1651.64,-180.3"/>
</a>
</g>
</g>
<!-- Node7 -->
<g id="Node000007" class="node">
<title>Node7</title>
<g id="a_Node000007"><a xlink:href="debug_8inc_8c.html" target="_top" xlink:title=" ">
<polygon fill="white" stroke="#666666" points="680.5,-74 558.5,-74 558.5,-55 680.5,-55 680.5,-74"/>
<text text-anchor="middle" x="619.5" y="-62" font-family="Helvetica,sans-Serif" font-size="10.00">src/debug/debug.inc.c</text>
</a>
</g>
</g>
<!-- Node6&#45;&gt;Node7 -->
<g id="edge6_Node000006_Node000007" class="edge">
<title>Node6&#45;&gt;Node7</title>
<g id="a_edge6_Node000006_Node000007"><a xlink:title=" ">
<path fill="none" stroke="#63b8ff" d="M619.5,-105.16C619.5,-94.74 619.5,-82.3 619.5,-74.17"/>
<polygon fill="#63b8ff" stroke="#63b8ff" points="616,-105.37 619.5,-115.37 623,-105.37 616,-105.37"/>
</a>
</g>
</g>
<!-- Node8 -->
<g id="Node000008" class="node">
<title>Node8</title>
<g id="a_Node000008"><a xlink:href="debug_8c.html" target="_top" xlink:title=" ">
<polygon fill="white" stroke="#666666" points="672,-19 567,-19 567,0 672,0 672,-19"/>
<text text-anchor="middle" x="619.5" y="-7" font-family="Helvetica,sans-Serif" font-size="10.00">src/debug/debug.c</text>
</a>
</g>
</g>
<!-- Node7&#45;&gt;Node8 -->
<g id="edge7_Node000007_Node000008" class="edge">
<title>Node7&#45;&gt;Node8</title>
<g id="a_edge7_Node000007_Node000008"><a xlink:title=" ">
<path fill="none" stroke="#63b8ff" d="M619.5,-44.66C619.5,-35.93 619.5,-25.99 619.5,-19.09"/>
<polygon fill="#63b8ff" stroke="#63b8ff" points="616,-44.75 619.5,-54.75 623,-44.75 616,-44.75"/>
</a>
</g>
</g>
<!-- Node20 -->
<g id="Node000020" class="node">
<title>Node20</title>
<g id="a_Node000020"><a xlink:href="Menu_8cpp.html" target="_top" xlink:title=" ">
<polygon fill="white" stroke="#666666" points="2092.5,-74 1976.5,-74 1976.5,-55 2092.5,-55 2092.5,-74"/>
<text text-anchor="middle" x="2034.5" y="-62" font-family="Helvetica,sans-Serif" font-size="10.00">src/port/ui/Menu.cpp</text>
</a>
</g>
</g>
<!-- Node19&#45;&gt;Node20 -->
<g id="edge19_Node000019_Node000020" class="edge">
<title>Node19&#45;&gt;Node20</title>
<g id="a_edge19_Node000019_Node000020"><a xlink:title=" ">
<path fill="none" stroke="#63b8ff" d="M2085.48,-108.72C2072.5,-97.71 2055.44,-83.25 2044.72,-74.17"/>
<polygon fill="#63b8ff" stroke="#63b8ff" points="2083.43,-111.57 2093.32,-115.37 2087.95,-106.23 2083.43,-111.57"/>
</a>
</g>
</g>
<!-- Node21 -->
<g id="Node000021" class="node">
<title>Node21</title>
<g id="a_Node000021"><a xlink:href="PortMenu_8h.html" target="_top" xlink:title=" ">
<polygon fill="white" stroke="#666666" points="2234.5,-74 2110.5,-74 2110.5,-55 2234.5,-55 2234.5,-74"/>
<text text-anchor="middle" x="2172.5" y="-62" font-family="Helvetica,sans-Serif" font-size="10.00">src/port/ui/PortMenu.h</text>
</a>
</g>
</g>
<!-- Node19&#45;&gt;Node21 -->
<g id="edge20_Node000019_Node000021" class="edge">
<title>Node19&#45;&gt;Node21</title>
<g id="a_edge20_Node000019_Node000021"><a xlink:title=" ">
<path fill="none" stroke="#63b8ff" d="M2121.52,-108.72C2134.5,-97.71 2151.56,-83.25 2162.28,-74.17"/>
<polygon fill="#63b8ff" stroke="#63b8ff" points="2119.05,-106.23 2113.68,-115.37 2123.57,-111.57 2119.05,-106.23"/>
</a>
</g>
</g>
<!-- Node22 -->
<g id="Node000022" class="node">
<title>Node22</title>
<g id="a_Node000022"><a xlink:href="ContentBrowser_8cpp.html" target="_top" xlink:title=" ">
<polygon fill="white" stroke="#666666" points="1599.5,-19 1433.5,-19 1433.5,0 1599.5,0 1599.5,-19"/>
<text text-anchor="middle" x="1516.5" y="-7" font-family="Helvetica,sans-Serif" font-size="10.00">src/port/ui/ContentBrowser.cpp</text>
</a>
</g>
</g>
<!-- Node21&#45;&gt;Node22 -->
<g id="edge21_Node000021_Node000022" class="edge">
<title>Node21&#45;&gt;Node22</title>
<g id="a_edge21_Node000021_Node000022"><a xlink:title=" ">
<path fill="none" stroke="#63b8ff" d="M2099.97,-54.89C1881.1,-34.03 1824.13,-36.83 1608.5,-19 1605.62,-18.76 1602.69,-18.52 1599.74,-18.26"/>
<polygon fill="#63b8ff" stroke="#63b8ff" points="2099.89,-58.4 2110.18,-55.87 2100.56,-51.43 2099.89,-58.4"/>
</a>
</g>
</g>
<!-- Node23 -->
<g id="Node000023" class="node">
<title>Node23</title>
<g id="a_Node000023"><a xlink:href="FreecamWindow_8cpp.html" target="_top" xlink:title=" ">
<polygon fill="white" stroke="#666666" points="1787,-19 1618,-19 1618,0 1787,0 1787,-19"/>
<text text-anchor="middle" x="1702.5" y="-7" font-family="Helvetica,sans-Serif" font-size="10.00">src/port/ui/FreecamWindow.cpp</text>
</a>
</g>
</g>
<!-- Node21&#45;&gt;Node23 -->
<g id="edge22_Node000021_Node000023" class="edge">
<title>Node21&#45;&gt;Node23</title>
<g id="a_edge22_Node000021_Node000023"><a xlink:title=" ">
<path fill="none" stroke="#63b8ff" d="M2099.94,-54.83C1982.75,-41.31 1858.67,-27.58 1780.51,-19.01"/>
<polygon fill="#63b8ff" stroke="#63b8ff" points="2099.83,-58.34 2110.17,-56.01 2100.63,-51.38 2099.83,-58.34"/>
</a>
</g>
</g>
<!-- Node24 -->
<g id="Node000024" class="node">
<title>Node24</title>
<g id="a_Node000024"><a xlink:href="ImguiUI_8cpp.html" target="_top" xlink:title=" ">
<polygon fill="white" stroke="#666666" points="1932,-19 1805,-19 1805,0 1932,0 1932,-19"/>
<text text-anchor="middle" x="1868.5" y="-7" font-family="Helvetica,sans-Serif" font-size="10.00">src/port/ui/ImguiUI.cpp</text>
</a>
</g>
</g>
<!-- Node21&#45;&gt;Node24 -->
<g id="edge23_Node000021_Node000024" class="edge">
<title>Node21&#45;&gt;Node24</title>
<g id="a_edge23_Node000021_Node000024"><a xlink:title=" ">
<path fill="none" stroke="#63b8ff" d="M2113.7,-53.25C2056.61,-43.3 1970.96,-28.36 1917.47,-19.04"/>
<polygon fill="#63b8ff" stroke="#63b8ff" points="2113.2,-56.72 2123.66,-54.98 2114.41,-49.82 2113.2,-56.72"/>
</a>
</g>
</g>
<!-- Node25 -->
<g id="Node000025" class="node">
<title>Node25</title>
<g id="a_Node000025"><a xlink:href="PortMenu_8cpp.html" target="_top" xlink:title=" ">
<polygon fill="white" stroke="#666666" points="2085,-19 1950,-19 1950,0 2085,0 2085,-19"/>
<text text-anchor="middle" x="2017.5" y="-7" font-family="Helvetica,sans-Serif" font-size="10.00">src/port/ui/PortMenu.cpp</text>
</a>
</g>
</g>
<!-- Node21&#45;&gt;Node25 -->
<g id="edge24_Node000021_Node000025" class="edge">
<title>Node21&#45;&gt;Node25</title>
<g id="a_edge24_Node000021_Node000025"><a xlink:title=" ">
<path fill="none" stroke="#63b8ff" d="M2137.9,-51.67C2109,-41.79 2068.47,-27.93 2042.6,-19.08"/>
<polygon fill="#63b8ff" stroke="#63b8ff" points="2137,-55.06 2147.6,-54.98 2139.27,-48.44 2137,-55.06"/>
</a>
</g>
</g>
<!-- Node26 -->
<g id="Node000026" class="node">
<title>Node26</title>
<g id="a_Node000026"><a xlink:href="Properties_8cpp.html" target="_top" xlink:title=" ">
<polygon fill="white" stroke="#666666" points="2241.5,-19 2103.5,-19 2103.5,0 2241.5,0 2241.5,-19"/>
<text text-anchor="middle" x="2172.5" y="-7" font-family="Helvetica,sans-Serif" font-size="10.00">src/port/ui/Properties.cpp</text>
</a>
</g>
</g>
<!-- Node21&#45;&gt;Node26 -->
<g id="edge25_Node000021_Node000026" class="edge">
<title>Node21&#45;&gt;Node26</title>
<g id="a_edge25_Node000021_Node000026"><a xlink:title=" ">
<path fill="none" stroke="#63b8ff" d="M2172.5,-44.66C2172.5,-35.93 2172.5,-25.99 2172.5,-19.09"/>
<polygon fill="#63b8ff" stroke="#63b8ff" points="2169,-44.75 2172.5,-54.75 2176,-44.75 2169,-44.75"/>
</a>
</g>
</g>
<!-- Node27 -->
<g id="Node000027" class="node">
<title>Node27</title>
<g id="a_Node000027"><a xlink:href="ResolutionEditor_8cpp.html" target="_top" xlink:title=" ">
<polygon fill="white" stroke="#666666" points="2427.5,-19 2259.5,-19 2259.5,0 2427.5,0 2427.5,-19"/>
<text text-anchor="middle" x="2343.5" y="-7" font-family="Helvetica,sans-Serif" font-size="10.00">src/port/ui/ResolutionEditor.cpp</text>
</a>
</g>
</g>
<!-- Node21&#45;&gt;Node27 -->
<g id="edge26_Node000021_Node000027" class="edge">
<title>Node21&#45;&gt;Node27</title>
<g id="a_edge26_Node000021_Node000027"><a xlink:title=" ">
<path fill="none" stroke="#63b8ff" d="M2209.84,-51.93C2241.78,-42.03 2287.02,-28.01 2315.81,-19.08"/>
<polygon fill="#63b8ff" stroke="#63b8ff" points="2208.49,-48.68 2199.97,-54.98 2210.56,-55.37 2208.49,-48.68"/>
</a>
</g>
</g>
<!-- Node28 -->
<g id="Node000028" class="node">
<title>Node28</title>
<g id="a_Node000028"><a xlink:href="SceneExplorer_8cpp.html" target="_top" xlink:title=" ">
<polygon fill="white" stroke="#666666" points="2603.5,-19 2445.5,-19 2445.5,0 2603.5,0 2603.5,-19"/>
<text text-anchor="middle" x="2524.5" y="-7" font-family="Helvetica,sans-Serif" font-size="10.00">src/port/ui/SceneExplorer.cpp</text>
</a>
</g>
</g>
<!-- Node21&#45;&gt;Node28 -->
<g id="edge27_Node000021_Node000028" class="edge">
<title>Node21&#45;&gt;Node28</title>
<g id="a_edge27_Node000021_Node000028"><a xlink:title=" ">
<path fill="none" stroke="#63b8ff" d="M2238.95,-53.49C2305.04,-43.54 2405.35,-28.44 2467.79,-19.04"/>
<polygon fill="#63b8ff" stroke="#63b8ff" points="2238.42,-50.03 2229.05,-54.98 2239.46,-56.96 2238.42,-50.03"/>
</a>
</g>
</g>
<!-- Node29 -->
<g id="Node000029" class="node">
<title>Node29</title>
<g id="a_Node000029"><a xlink:href="Tools_8cpp.html" target="_top" xlink:title=" ">
<polygon fill="white" stroke="#666666" points="2735,-19 2622,-19 2622,0 2735,0 2735,-19"/>
<text text-anchor="middle" x="2678.5" y="-7" font-family="Helvetica,sans-Serif" font-size="10.00">src/port/ui/Tools.cpp</text>
</a>
</g>
</g>
<!-- Node21&#45;&gt;Node29 -->
<g id="edge28_Node000021_Node000029" class="edge">
<title>Node21&#45;&gt;Node29</title>
<g id="a_edge28_Node000021_Node000029"><a xlink:title=" ">
<path fill="none" stroke="#63b8ff" d="M2244.92,-56.79C2332.17,-48.56 2483.18,-33.86 2612.5,-19 2615.6,-18.64 2618.78,-18.27 2621.99,-17.88"/>
<polygon fill="#63b8ff" stroke="#63b8ff" points="2244.49,-53.31 2234.86,-57.73 2245.14,-60.28 2244.49,-53.31"/>
</a>
</g>
</g>
<!-- Node30 -->
<g id="Node000030" class="node">
<title>Node30</title>
<g id="a_Node000030"><a xlink:href="TrackProperties_8cpp.html" target="_top" xlink:title=" ">
<polygon fill="white" stroke="#666666" points="2917.5,-19 2753.5,-19 2753.5,0 2917.5,0 2917.5,-19"/>
<text text-anchor="middle" x="2835.5" y="-7" font-family="Helvetica,sans-Serif" font-size="10.00">src/port/ui/TrackProperties.cpp</text>
</a>
</g>
</g>
<!-- Node21&#45;&gt;Node30 -->
<g id="edge29_Node000021_Node000030" class="edge">
<title>Node21&#45;&gt;Node30</title>
<g id="a_edge29_Node000021_Node000030"><a xlink:title=" ">
<path fill="none" stroke="#63b8ff" d="M2244.92,-58.23C2353.51,-50.24 2564.96,-34.37 2744.5,-19 2747.35,-18.76 2750.24,-18.51 2753.17,-18.25"/>
<polygon fill="#63b8ff" stroke="#63b8ff" points="2244.45,-54.75 2234.74,-58.98 2244.97,-61.73 2244.45,-54.75"/>
</a>
</g>
</g>
</g>
</svg>
