<?xml version="1.0" encoding="UTF-8" standalone="no"?>
<!DOCTYPE svg PUBLIC "-//W3C//DTD SVG 1.1//EN"
 "http://www.w3.org/Graphics/SVG/1.1/DTD/svg11.dtd">
<!-- Generated by graphviz version 2.43.0 (0)
 -->
<!-- Title: draw_flash_select_case_slow Pages: 1 -->
<svg width="841pt" height="64pt"
 viewBox="0.00 0.00 841.00 64.00" xmlns="http://www.w3.org/2000/svg" xmlns:xlink="http://www.w3.org/1999/xlink">
<g id="graph0" class="graph" transform="scale(1 1) rotate(0) translate(4 60)">
<title>draw_flash_select_case_slow</title>
<!-- Node1 -->
<g id="Node000001" class="node">
<title>Node1</title>
<g id="a_Node000001"><a xlink:title=" ">
<polygon fill="#999999" stroke="#666666" points="159,-37 0,-37 0,-18 159,-18 159,-37"/>
<text text-anchor="middle" x="79.5" y="-25" font-family="Helvetica,sans-Serif" font-size="10.00">draw_flash_select_case_slow</text>
</a>
</g>
</g>
<!-- Node2 -->
<g id="Node000002" class="node">
<title>Node2</title>
<g id="a_Node000002"><a xlink:href="menu__items_8c.html#a780c45c1d76dfbecd6464fbc545a9936" target="_top" xlink:title=" ">
<polygon fill="white" stroke="#666666" points="326,-37 195,-37 195,-18 326,-18 326,-37"/>
<text text-anchor="middle" x="260.5" y="-25" font-family="Helvetica,sans-Serif" font-size="10.00">draw_flash_select_case</text>
</a>
</g>
</g>
<!-- Node1&#45;&gt;Node2 -->
<g id="edge1_Node000001_Node000002" class="edge">
<title>Node1&#45;&gt;Node2</title>
<g id="a_edge1_Node000001_Node000002"><a xlink:title=" ">
<path fill="none" stroke="#63b8ff" d="M159.01,-27.5C167.49,-27.5 176.11,-27.5 184.55,-27.5"/>
<polygon fill="#63b8ff" stroke="#63b8ff" points="184.73,-31 194.73,-27.5 184.73,-24 184.73,-31"/>
</a>
</g>
</g>
<!-- Node3 -->
<g id="Node000003" class="node">
<title>Node3</title>
<g id="a_Node000003"><a xlink:href="menu__items_8c.html#ada97fbf304c29275c91520ae4e904504" target="_top" xlink:title=" ">
<polygon fill="white" stroke="#666666" points="443,-37 362,-37 362,-18 443,-18 443,-37"/>
<text text-anchor="middle" x="402.5" y="-25" font-family="Helvetica,sans-Serif" font-size="10.00">draw_box_fill</text>
</a>
</g>
</g>
<!-- Node2&#45;&gt;Node3 -->
<g id="edge2_Node000002_Node000003" class="edge">
<title>Node2&#45;&gt;Node3</title>
<g id="a_edge2_Node000002_Node000003"><a xlink:title=" ">
<path fill="none" stroke="#63b8ff" d="M326.17,-27.5C334.74,-27.5 343.41,-27.5 351.67,-27.5"/>
<polygon fill="#63b8ff" stroke="#63b8ff" points="351.87,-31 361.87,-27.5 351.87,-24 351.87,-31"/>
</a>
</g>
</g>
<!-- Node4 -->
<g id="Node000004" class="node">
<title>Node4</title>
<g id="a_Node000004"><a xlink:href="GBIMiddleware_8cpp.html#a4ecc44e3c6f1ca5a6b4a20c41d3bd2d2" target="_top" xlink:title=" ">
<polygon fill="white" stroke="#666666" points="568,-56 479,-56 479,-37 568,-37 568,-56"/>
<text text-anchor="middle" x="523.5" y="-44" font-family="Helvetica,sans-Serif" font-size="10.00">gSPDisplayList</text>
</a>
</g>
</g>
<!-- Node3&#45;&gt;Node4 -->
<g id="edge3_Node000003_Node000004" class="edge">
<title>Node3&#45;&gt;Node4</title>
<g id="a_edge3_Node000003_Node000004"><a xlink:title=" ">
<path fill="none" stroke="#63b8ff" d="M443.13,-33.83C451.39,-35.15 460.23,-36.56 468.9,-37.94"/>
<polygon fill="#63b8ff" stroke="#63b8ff" points="468.52,-41.43 478.95,-39.55 469.63,-34.51 468.52,-41.43"/>
</a>
</g>
</g>
<!-- Node7 -->
<g id="Node000007" class="node">
<title>Node7</title>
<g id="a_Node000007"><a xlink:href="menu__items_8c.html#a2341569d8bfc9b8aac7d5dab7933c999" target="_top" xlink:title=" ">
<polygon fill="white" stroke="#666666" points="563.5,-19 483.5,-19 483.5,0 563.5,0 563.5,-19"/>
<text text-anchor="middle" x="523.5" y="-7" font-family="Helvetica,sans-Serif" font-size="10.00">swap_values</text>
</a>
</g>
</g>
<!-- Node3&#45;&gt;Node7 -->
<g id="edge6_Node000003_Node000007" class="edge">
<title>Node3&#45;&gt;Node7</title>
<g id="a_edge6_Node000003_Node000007"><a xlink:title=" ">
<path fill="none" stroke="#63b8ff" d="M443.13,-21.51C452.86,-20.03 463.4,-18.44 473.52,-16.91"/>
<polygon fill="#63b8ff" stroke="#63b8ff" points="474.09,-20.36 483.45,-15.41 473.04,-13.44 474.09,-20.36"/>
</a>
</g>
</g>
<!-- Node5 -->
<g id="Node000005" class="node">
<title>Node5</title>
<g id="a_Node000005"><a xlink:href="Engine_8cpp.html#a223c8bc63f228dc11177515e38eff2db" target="_top" xlink:title=" ">
<polygon fill="white" stroke="#666666" points="753,-56 604,-56 604,-37 753,-37 753,-56"/>
<text text-anchor="middle" x="678.5" y="-44" font-family="Helvetica,sans-Serif" font-size="10.00">GameEngine_OTRSigCheck</text>
</a>
</g>
</g>
<!-- Node4&#45;&gt;Node5 -->
<g id="edge4_Node000004_Node000005" class="edge">
<title>Node4&#45;&gt;Node5</title>
<g id="a_edge4_Node000004_Node000005"><a xlink:title=" ">
<path fill="none" stroke="#63b8ff" d="M568.34,-46.5C576.34,-46.5 584.92,-46.5 593.64,-46.5"/>
<polygon fill="#63b8ff" stroke="#63b8ff" points="593.89,-50 603.89,-46.5 593.89,-43 593.89,-50"/>
</a>
</g>
</g>
<!-- Node6 -->
<g id="Node000006" class="node">
<title>Node6</title>
<g id="a_Node000006"><a xlink:href="string_8c.html#a008e171a518fe0e0352f31b245e03875" target="_top" xlink:title=" ">
<polygon fill="white" stroke="#666666" points="833,-56 789,-56 789,-37 833,-37 833,-56"/>
<text text-anchor="middle" x="811" y="-44" font-family="Helvetica,sans-Serif" font-size="10.00">strlen</text>
</a>
</g>
</g>
<!-- Node5&#45;&gt;Node6 -->
<g id="edge5_Node000005_Node000006" class="edge">
<title>Node5&#45;&gt;Node6</title>
<g id="a_edge5_Node000005_Node000006"><a xlink:title=" ">
<path fill="none" stroke="#63b8ff" d="M753.14,-46.5C762.12,-46.5 770.89,-46.5 778.75,-46.5"/>
<polygon fill="#63b8ff" stroke="#63b8ff" points="778.83,-50 788.83,-46.5 778.83,-43 778.83,-50"/>
</a>
</g>
</g>
</g>
</svg>
