<?xml version="1.0" encoding="UTF-8" standalone="no"?>
<!DOCTYPE svg PUBLIC "-//W3C//DTD SVG 1.1//EN"
 "http://www.w3.org/Graphics/SVG/1.1/DTD/svg11.dtd">
<!-- Generated by graphviz version 2.43.0 (0)
 -->
<!-- Title: func_800ACA14 Pages: 1 -->
<svg width="523pt" height="156pt"
 viewBox="0.00 0.00 523.00 156.00" xmlns="http://www.w3.org/2000/svg" xmlns:xlink="http://www.w3.org/1999/xlink">
<g id="graph0" class="graph" transform="scale(1 1) rotate(0) translate(4 152)">
<title>func_800ACA14</title>
<!-- Node1 -->
<g id="Node000001" class="node">
<title>Node1</title>
<g id="a_Node000001"><a xlink:title=" ">
<polygon fill="#999999" stroke="#666666" points="93,-92 0,-92 0,-73 93,-73 93,-92"/>
<text text-anchor="middle" x="46.5" y="-80" font-family="Helvetica,sans-Serif" font-size="10.00">func_800ACA14</text>
</a>
</g>
</g>
<!-- Node2 -->
<g id="Node000002" class="node">
<title>Node2</title>
<g id="a_Node000002"><a xlink:href="menu__items_8c.html#a485ad7e52b54cd47cb14ce60384c34b5" target="_top" xlink:title=" ">
<polygon fill="white" stroke="#666666" points="239,-148 147,-148 147,-129 239,-129 239,-148"/>
<text text-anchor="middle" x="193" y="-136" font-family="Helvetica,sans-Serif" font-size="10.00">func_8009DFE0</text>
</a>
</g>
</g>
<!-- Node1&#45;&gt;Node2 -->
<g id="edge1_Node000001_Node000002" class="edge">
<title>Node1&#45;&gt;Node2</title>
<g id="a_edge1_Node000001_Node000002"><a xlink:title=" ">
<path fill="none" stroke="#63b8ff" d="M65.92,-92.11C82.21,-100.36 106.77,-112.2 129,-120.5 134.2,-122.44 139.7,-124.29 145.2,-126.02"/>
<polygon fill="#63b8ff" stroke="#63b8ff" points="144.45,-129.45 155.04,-129 146.48,-122.75 144.45,-129.45"/>
</a>
</g>
</g>
<!-- Node4 -->
<g id="Node000004" class="node">
<title>Node4</title>
<g id="a_Node000004"><a xlink:href="external_8c.html#ab8fa6fbe4bd78d8282bb696133e77f6c" target="_top" xlink:title=" ">
<polygon fill="white" stroke="#666666" points="239,-111 147,-111 147,-92 239,-92 239,-111"/>
<text text-anchor="middle" x="193" y="-99" font-family="Helvetica,sans-Serif" font-size="10.00">func_800CA330</text>
</a>
</g>
</g>
<!-- Node1&#45;&gt;Node4 -->
<g id="edge3_Node000001_Node000004" class="edge">
<title>Node1&#45;&gt;Node4</title>
<g id="a_edge3_Node000001_Node000004"><a xlink:title=" ">
<path fill="none" stroke="#63b8ff" d="M93.22,-88.51C106.93,-90.31 122.11,-92.31 136.38,-94.19"/>
<polygon fill="#63b8ff" stroke="#63b8ff" points="136.21,-97.69 146.58,-95.53 137.12,-90.75 136.21,-97.69"/>
</a>
</g>
</g>
<!-- Node6 -->
<g id="Node000006" class="node">
<title>Node6</title>
<g id="a_Node000006"><a xlink:href="menus_8c.html#a377e9f19431072ed8c7d9cba0409800a" target="_top" xlink:title=" ">
<polygon fill="white" stroke="#666666" points="257,-74 129,-74 129,-55 257,-55 257,-74"/>
<text text-anchor="middle" x="193" y="-62" font-family="Helvetica,sans-Serif" font-size="10.00">is_screen_being_faded</text>
</a>
</g>
</g>
<!-- Node1&#45;&gt;Node6 -->
<g id="edge5_Node000001_Node000006" class="edge">
<title>Node1&#45;&gt;Node6</title>
<g id="a_edge5_Node000001_Node000006"><a xlink:title=" ">
<path fill="none" stroke="#63b8ff" d="M93.22,-76.8C101.36,-75.79 110.03,-74.71 118.71,-73.63"/>
<polygon fill="#63b8ff" stroke="#63b8ff" points="119.39,-77.07 128.88,-72.36 118.53,-70.13 119.39,-77.07"/>
</a>
</g>
</g>
<!-- Node7 -->
<g id="Node000007" class="node">
<title>Node7</title>
<g id="a_Node000007"><a xlink:href="external_8c.html#afadd9eacb33a057bc8c1caaab7ab5a84" target="_top" xlink:title=" ">
<polygon fill="white" stroke="#666666" points="232,-37 154,-37 154,-18 232,-18 232,-37"/>
<text text-anchor="middle" x="193" y="-25" font-family="Helvetica,sans-Serif" font-size="10.00">play_sound2</text>
</a>
</g>
</g>
<!-- Node1&#45;&gt;Node7 -->
<g id="edge6_Node000001_Node000007" class="edge">
<title>Node1&#45;&gt;Node7</title>
<g id="a_edge6_Node000001_Node000007"><a xlink:title=" ">
<path fill="none" stroke="#63b8ff" d="M67.31,-72.93C83.65,-65.24 107.53,-54.45 129,-46.5 134.98,-44.29 141.34,-42.14 147.64,-40.13"/>
<polygon fill="#63b8ff" stroke="#63b8ff" points="148.9,-43.4 157.41,-37.1 146.83,-36.72 148.9,-43.4"/>
</a>
</g>
</g>
<!-- Node3 -->
<g id="Node000003" class="node">
<title>Node3</title>
<g id="a_Node000003"><a xlink:href="menu__items_8c.html#ad38092d257433fcbbac4e1fd80b3b5bd" target="_top" xlink:title=" ">
<polygon fill="white" stroke="#666666" points="386,-148 293,-148 293,-129 386,-129 386,-148"/>
<text text-anchor="middle" x="339.5" y="-136" font-family="Helvetica,sans-Serif" font-size="10.00">func_8009DF8C</text>
</a>
</g>
</g>
<!-- Node2&#45;&gt;Node3 -->
<g id="edge2_Node000002_Node000003" class="edge">
<title>Node2&#45;&gt;Node3</title>
<g id="a_edge2_Node000002_Node000003"><a xlink:title=" ">
<path fill="none" stroke="#63b8ff" d="M239.32,-138.5C253.04,-138.5 268.28,-138.5 282.6,-138.5"/>
<polygon fill="#63b8ff" stroke="#63b8ff" points="282.84,-142 292.84,-138.5 282.84,-135 282.84,-142"/>
</a>
</g>
</g>
<!-- Node5 -->
<g id="Node000005" class="node">
<title>Node5</title>
<g id="a_Node000005"><a xlink:href="external_8c.html#ac48b7cbfcaa7737f892877ead85e4ba7" target="_top" xlink:title=" ">
<polygon fill="white" stroke="#666666" points="385.5,-111 293.5,-111 293.5,-92 385.5,-92 385.5,-111"/>
<text text-anchor="middle" x="339.5" y="-99" font-family="Helvetica,sans-Serif" font-size="10.00">func_800C3448</text>
</a>
</g>
</g>
<!-- Node4&#45;&gt;Node5 -->
<g id="edge4_Node000004_Node000005" class="edge">
<title>Node4&#45;&gt;Node5</title>
<g id="a_edge4_Node000004_Node000005"><a xlink:title=" ">
<path fill="none" stroke="#63b8ff" d="M239.32,-101.5C253.18,-101.5 268.57,-101.5 283.02,-101.5"/>
<polygon fill="#63b8ff" stroke="#63b8ff" points="283.34,-105 293.34,-101.5 283.34,-98 283.34,-105"/>
</a>
</g>
</g>
<!-- Node8 -->
<g id="Node000008" class="node">
<title>Node8</title>
<g id="a_Node000008"><a xlink:href="Game_8cpp.html#a545c1a384e93cc7b616dfee707f5d962" target="_top" xlink:title=" ">
<polygon fill="white" stroke="#666666" points="373.5,-56 305.5,-56 305.5,-37 373.5,-37 373.5,-56"/>
<text text-anchor="middle" x="339.5" y="-44" font-family="Helvetica,sans-Serif" font-size="10.00">IsDkJungle</text>
</a>
</g>
</g>
<!-- Node7&#45;&gt;Node8 -->
<g id="edge7_Node000007_Node000008" class="edge">
<title>Node7&#45;&gt;Node8</title>
<g id="a_edge7_Node000007_Node000008"><a xlink:title=" ">
<path fill="none" stroke="#63b8ff" d="M232.34,-32.54C251.71,-35.09 275.28,-38.19 295.29,-40.82"/>
<polygon fill="#63b8ff" stroke="#63b8ff" points="295.01,-44.31 305.38,-42.15 295.92,-37.37 295.01,-44.31"/>
</a>
</g>
</g>
<!-- Node11 -->
<g id="Node000011" class="node">
<title>Node11</title>
<g id="a_Node000011"><a xlink:href="external_8c.html#a475cff796211891556f52877cd8e9b9e" target="_top" xlink:title=" ">
<polygon fill="white" stroke="#666666" points="375.5,-19 303.5,-19 303.5,0 375.5,0 375.5,-19"/>
<text text-anchor="middle" x="339.5" y="-7" font-family="Helvetica,sans-Serif" font-size="10.00">play_sound</text>
</a>
</g>
</g>
<!-- Node7&#45;&gt;Node11 -->
<g id="edge10_Node000007_Node000011" class="edge">
<title>Node7&#45;&gt;Node11</title>
<g id="a_edge10_Node000007_Node000011"><a xlink:title=" ">
<path fill="none" stroke="#63b8ff" d="M232.34,-22.72C251.14,-20.38 273.9,-17.55 293.51,-15.1"/>
<polygon fill="#63b8ff" stroke="#63b8ff" points="293.96,-18.58 303.45,-13.87 293.09,-11.63 293.96,-18.58"/>
</a>
</g>
</g>
<!-- Node9 -->
<g id="Node000009" class="node">
<title>Node9</title>
<g id="a_Node000009"><a xlink:href="classWorld.html#a1a4dacc6aea0b846df998be0afc239f7" target="_top" xlink:title=" ">
<polygon fill="white" stroke="#666666" points="515,-74 422,-74 422,-55 515,-55 515,-74"/>
<text text-anchor="middle" x="468.5" y="-62" font-family="Helvetica,sans-Serif" font-size="10.00">World::GetTrack</text>
</a>
</g>
</g>
<!-- Node8&#45;&gt;Node9 -->
<g id="edge8_Node000008_Node000009" class="edge">
<title>Node8&#45;&gt;Node9</title>
<g id="a_edge8_Node000008_Node000009"><a xlink:title=" ">
<path fill="none" stroke="#63b8ff" d="M373.54,-51.18C385.13,-52.83 398.51,-54.72 411.47,-56.56"/>
<polygon fill="#63b8ff" stroke="#63b8ff" points="411.33,-60.07 421.72,-58.01 412.31,-53.14 411.33,-60.07"/>
</a>
</g>
</g>
<!-- Node10 -->
<g id="Node000010" class="node">
<title>Node10</title>
<g id="a_Node000010"><a xlink:href="Game_8cpp.html#ae2fa844b3cb1021ecbc357f8ed2ad8cc" target="_top" xlink:title=" ">
<polygon fill="white" stroke="#666666" points="499.5,-37 437.5,-37 437.5,-18 499.5,-18 499.5,-37"/>
<text text-anchor="middle" x="468.5" y="-25" font-family="Helvetica,sans-Serif" font-size="10.00">GetWorld</text>
</a>
</g>
</g>
<!-- Node8&#45;&gt;Node10 -->
<g id="edge9_Node000008_Node000010" class="edge">
<title>Node8&#45;&gt;Node10</title>
<g id="a_edge9_Node000008_Node000010"><a xlink:title=" ">
<path fill="none" stroke="#63b8ff" d="M373.54,-41.56C389.85,-39.12 409.67,-36.15 426.9,-33.57"/>
<polygon fill="#63b8ff" stroke="#63b8ff" points="427.87,-36.97 437.24,-32.03 426.83,-30.05 427.87,-36.97"/>
</a>
</g>
</g>
</g>
</svg>
