<?xml version="1.0" encoding="UTF-8" standalone="no"?>
<!DOCTYPE svg PUBLIC "-//W3C//DTD SVG 1.1//EN"
 "http://www.w3.org/Graphics/SVG/1.1/DTD/svg11.dtd">
<!-- Generated by graphviz version 2.43.0 (0)
 -->
<!-- Title: src/port/ui/MenuTypes.h Pages: 1 -->
<svg width="637pt" height="192pt"
 viewBox="0.00 0.00 637.00 192.00" xmlns="http://www.w3.org/2000/svg" xmlns:xlink="http://www.w3.org/1999/xlink">
<g id="graph0" class="graph" transform="scale(1 1) rotate(0) translate(4 188)">
<title>src/port/ui/MenuTypes.h</title>
<!-- Node1 -->
<g id="Node000001" class="node">
<title>Node1</title>
<g id="a_Node000001"><a xlink:title=" ">
<polygon fill="#999999" stroke="#666666" points="204,-184 72,-184 72,-165 204,-165 204,-184"/>
<text text-anchor="middle" x="138" y="-172" font-family="Helvetica,sans-Serif" font-size="10.00">src/port/ui/MenuTypes.h</text>
</a>
</g>
</g>
<!-- Node2 -->
<g id="Node000002" class="node">
<title>Node2</title>
<g id="a_Node000002"><a xlink:title=" ">
<polygon fill="#e0e0e0" stroke="#999999" points="138,-19 0,-19 0,0 138,0 138,-19"/>
<text text-anchor="middle" x="69" y="-7" font-family="Helvetica,sans-Serif" font-size="10.00">libultraship/libultraship.h</text>
</a>
</g>
</g>
<!-- Node1&#45;&gt;Node2 -->
<g id="edge1_Node000001_Node000002" class="edge">
<title>Node1&#45;&gt;Node2</title>
<g id="a_edge1_Node000001_Node000002"><a xlink:title=" ">
<path fill="none" stroke="#63b8ff" d="M129.96,-164.75C115.49,-148.38 85.43,-111.4 73,-74 68.2,-59.57 67.41,-42.29 67.7,-29.41"/>
<polygon fill="#63b8ff" stroke="#63b8ff" points="71.2,-29.55 68.16,-19.4 64.21,-29.22 71.2,-29.55"/>
</a>
</g>
</g>
<!-- Node3 -->
<g id="Node000003" class="node">
<title>Node3</title>
<g id="a_Node000003"><a xlink:href="UIWidgets_8h.html" target="_top" xlink:title=" ">
<polygon fill="white" stroke="#666666" points="283,-129 207,-129 207,-110 283,-110 283,-129"/>
<text text-anchor="middle" x="245" y="-117" font-family="Helvetica,sans-Serif" font-size="10.00">UIWidgets.h</text>
</a>
</g>
</g>
<!-- Node1&#45;&gt;Node3 -->
<g id="edge2_Node000001_Node000003" class="edge">
<title>Node1&#45;&gt;Node3</title>
<g id="a_edge2_Node000001_Node000003"><a xlink:title=" ">
<path fill="none" stroke="#63b8ff" d="M155.19,-164.98C172.25,-156.54 198.63,-143.47 218.4,-133.68"/>
<polygon fill="#63b8ff" stroke="#63b8ff" points="220.09,-136.75 227.5,-129.17 216.98,-130.47 220.09,-136.75"/>
</a>
</g>
</g>
<!-- Node3&#45;&gt;Node2 -->
<g id="edge8_Node000003_Node000002" class="edge">
<title>Node3&#45;&gt;Node2</title>
<g id="a_edge8_Node000003_Node000002"><a xlink:title=" ">
<path fill="none" stroke="#63b8ff" d="M206.93,-117.69C171.55,-114.89 119.68,-105.22 88,-74 76.1,-62.27 71.59,-43.42 69.91,-29.3"/>
<polygon fill="#63b8ff" stroke="#63b8ff" points="73.39,-28.9 69.08,-19.22 66.41,-29.47 73.39,-28.9"/>
</a>
</g>
</g>
<!-- Node4 -->
<g id="Node000004" class="node">
<title>Node4</title>
<g id="a_Node000004"><a xlink:title=" ">
<polygon fill="#e0e0e0" stroke="#999999" points="141,-74 97,-74 97,-55 141,-55 141,-74"/>
<text text-anchor="middle" x="119" y="-62" font-family="Helvetica,sans-Serif" font-size="10.00">string</text>
</a>
</g>
</g>
<!-- Node3&#45;&gt;Node4 -->
<g id="edge3_Node000003_Node000004" class="edge">
<title>Node3&#45;&gt;Node4</title>
<g id="a_edge3_Node000003_Node000004"><a xlink:title=" ">
<path fill="none" stroke="#63b8ff" d="M224.76,-109.98C204.3,-101.38 172.47,-87.99 149.07,-78.15"/>
<polygon fill="#63b8ff" stroke="#63b8ff" points="150.19,-74.82 139.61,-74.17 147.47,-81.27 150.19,-74.82"/>
</a>
</g>
</g>
<!-- Node5 -->
<g id="Node000005" class="node">
<title>Node5</title>
<g id="a_Node000005"><a xlink:title=" ">
<polygon fill="#e0e0e0" stroke="#999999" points="206.5,-74 159.5,-74 159.5,-55 206.5,-55 206.5,-74"/>
<text text-anchor="middle" x="183" y="-62" font-family="Helvetica,sans-Serif" font-size="10.00">vector</text>
</a>
</g>
</g>
<!-- Node3&#45;&gt;Node5 -->
<g id="edge4_Node000003_Node000005" class="edge">
<title>Node3&#45;&gt;Node5</title>
<g id="a_edge4_Node000003_Node000005"><a xlink:title=" ">
<path fill="none" stroke="#63b8ff" d="M235.04,-109.98C225.87,-102.15 212.06,-90.34 200.97,-80.86"/>
<polygon fill="#63b8ff" stroke="#63b8ff" points="203.02,-78.01 193.14,-74.17 198.47,-83.33 203.02,-78.01"/>
</a>
</g>
</g>
<!-- Node6 -->
<g id="Node000006" class="node">
<title>Node6</title>
<g id="a_Node000006"><a xlink:title=" ">
<polygon fill="#e0e0e0" stroke="#999999" points="265,-74 225,-74 225,-55 265,-55 265,-74"/>
<text text-anchor="middle" x="245" y="-62" font-family="Helvetica,sans-Serif" font-size="10.00">span</text>
</a>
</g>
</g>
<!-- Node3&#45;&gt;Node6 -->
<g id="edge5_Node000003_Node000006" class="edge">
<title>Node3&#45;&gt;Node6</title>
<g id="a_edge5_Node000003_Node000006"><a xlink:title=" ">
<path fill="none" stroke="#63b8ff" d="M245,-109.75C245,-102.8 245,-92.85 245,-84.13"/>
<polygon fill="#63b8ff" stroke="#63b8ff" points="248.5,-84.09 245,-74.09 241.5,-84.09 248.5,-84.09"/>
</a>
</g>
</g>
<!-- Node7 -->
<g id="Node000007" class="node">
<title>Node7</title>
<g id="a_Node000007"><a xlink:title=" ">
<polygon fill="#e0e0e0" stroke="#999999" points="336.5,-74 283.5,-74 283.5,-55 336.5,-55 336.5,-74"/>
<text text-anchor="middle" x="310" y="-62" font-family="Helvetica,sans-Serif" font-size="10.00">stdint.h</text>
</a>
</g>
</g>
<!-- Node3&#45;&gt;Node7 -->
<g id="edge6_Node000003_Node000007" class="edge">
<title>Node3&#45;&gt;Node7</title>
<g id="a_edge6_Node000003_Node000007"><a xlink:title=" ">
<path fill="none" stroke="#63b8ff" d="M255.44,-109.98C265.15,-102.07 279.82,-90.11 291.5,-80.58"/>
<polygon fill="#63b8ff" stroke="#63b8ff" points="293.83,-83.2 299.37,-74.17 289.4,-77.78 293.83,-83.2"/>
</a>
</g>
</g>
<!-- Node8 -->
<g id="Node000008" class="node">
<title>Node8</title>
<g id="a_Node000008"><a xlink:title=" ">
<polygon fill="#e0e0e0" stroke="#999999" points="407.5,-74 354.5,-74 354.5,-55 407.5,-55 407.5,-74"/>
<text text-anchor="middle" x="381" y="-62" font-family="Helvetica,sans-Serif" font-size="10.00">imgui.h</text>
</a>
</g>
</g>
<!-- Node3&#45;&gt;Node8 -->
<g id="edge7_Node000003_Node000008" class="edge">
<title>Node3&#45;&gt;Node8</title>
<g id="a_edge7_Node000003_Node000008"><a xlink:title=" ">
<path fill="none" stroke="#63b8ff" d="M266.85,-109.98C289.12,-101.3 323.9,-87.75 349.22,-77.88"/>
<polygon fill="#63b8ff" stroke="#63b8ff" points="350.71,-81.06 358.75,-74.17 348.16,-74.54 350.71,-81.06"/>
</a>
</g>
</g>
<!-- Node9 -->
<g id="Node000009" class="node">
<title>Node9</title>
<g id="a_Node000009"><a xlink:title=" ">
<polygon fill="#e0e0e0" stroke="#999999" points="518.5,-74 425.5,-74 425.5,-55 518.5,-55 518.5,-74"/>
<text text-anchor="middle" x="472" y="-62" font-family="Helvetica,sans-Serif" font-size="10.00">unordered_map</text>
</a>
</g>
</g>
<!-- Node3&#45;&gt;Node9 -->
<g id="edge9_Node000003_Node000009" class="edge">
<title>Node3&#45;&gt;Node9</title>
<g id="a_edge9_Node000003_Node000009"><a xlink:title=" ">
<path fill="none" stroke="#63b8ff" d="M281.47,-109.98C320.57,-100.86 382.77,-86.33 425.39,-76.38"/>
<polygon fill="#63b8ff" stroke="#63b8ff" points="426.3,-79.76 435.24,-74.08 424.71,-72.95 426.3,-79.76"/>
</a>
</g>
</g>
<!-- Node10 -->
<g id="Node000010" class="node">
<title>Node10</title>
<g id="a_Node000010"><a xlink:href="ShipUtils_8h.html" target="_top" xlink:title=" ">
<polygon fill="white" stroke="#666666" points="629,-74 537,-74 537,-55 629,-55 629,-74"/>
<text text-anchor="middle" x="583" y="-62" font-family="Helvetica,sans-Serif" font-size="10.00">port/ShipUtils.h</text>
</a>
</g>
</g>
<!-- Node3&#45;&gt;Node10 -->
<g id="edge10_Node000003_Node000010" class="edge">
<title>Node3&#45;&gt;Node10</title>
<g id="a_edge10_Node000003_Node000010"><a xlink:title=" ">
<path fill="none" stroke="#63b8ff" d="M283.12,-112.52C342.56,-103.2 457.68,-85.15 526.7,-74.33"/>
<polygon fill="#63b8ff" stroke="#63b8ff" points="527.62,-77.73 536.96,-72.72 526.54,-70.81 527.62,-77.73"/>
</a>
</g>
</g>
<!-- Node10&#45;&gt;Node2 -->
<g id="edge11_Node000010_Node000002" class="edge">
<title>Node10&#45;&gt;Node2</title>
<g id="a_edge11_Node000010_Node000002"><a xlink:title=" ">
<path fill="none" stroke="#63b8ff" d="M536.81,-56.17C533.83,-55.75 530.88,-55.36 528,-55 395.16,-38.31 240,-24.44 148.38,-16.82"/>
<polygon fill="#63b8ff" stroke="#63b8ff" points="148.6,-13.33 138.34,-15.99 148.02,-20.3 148.6,-13.33"/>
</a>
</g>
</g>
</g>
</svg>
