<?xml version="1.0" encoding="UTF-8" standalone="no"?>
<!DOCTYPE svg PUBLIC "-//W3C//DTD SVG 1.1//EN"
 "http://www.w3.org/Graphics/SVG/1.1/DTD/svg11.dtd">
<!-- Generated by graphviz version 2.43.0 (0)
 -->
<!-- Title: func_80097E58 Pages: 1 -->
<svg width="529pt" height="212pt"
 viewBox="0.00 0.00 529.00 212.00" xmlns="http://www.w3.org/2000/svg" xmlns:xlink="http://www.w3.org/1999/xlink">
<g id="graph0" class="graph" transform="scale(1 1) rotate(0) translate(4 208)">
<title>func_80097E58</title>
<!-- Node1 -->
<g id="Node000001" class="node">
<title>Node1</title>
<g id="a_Node000001"><a xlink:title=" ">
<polygon fill="#999999" stroke="#666666" points="521,-74 430,-74 430,-55 521,-55 521,-74"/>
<text text-anchor="middle" x="475.5" y="-62" font-family="Helvetica,sans-Serif" font-size="10.00">func_80097E58</text>
</a>
</g>
</g>
<!-- Node2 -->
<g id="Node000002" class="node">
<title>Node2</title>
<g id="a_Node000002"><a xlink:href="menu__items_8c.html#a1a33a95632b97a1ce9511c4f9f6fd0d7" target="_top" xlink:title=" ">
<polygon fill="white" stroke="#666666" points="394,-148 301,-148 301,-129 394,-129 394,-148"/>
<text text-anchor="middle" x="347.5" y="-136" font-family="Helvetica,sans-Serif" font-size="10.00">func_8009BC9C</text>
</a>
</g>
</g>
<!-- Node1&#45;&gt;Node2 -->
<g id="edge1_Node000001_Node000002" class="edge">
<title>Node1&#45;&gt;Node2</title>
<g id="a_edge1_Node000001_Node000002"><a xlink:title=" ">
<path fill="none" stroke="#63b8ff" d="M449.37,-79.26C424.31,-93.97 386.56,-116.15 365.05,-128.78"/>
<polygon fill="#63b8ff" stroke="#63b8ff" points="451.44,-82.1 458.29,-74.02 447.89,-76.07 451.44,-82.1"/>
</a>
</g>
</g>
<!-- Node6 -->
<g id="Node000006" class="node">
<title>Node6</title>
<g id="a_Node000006"><a xlink:href="menu__items_8c.html#a85f6ca108eb24cbbaa44a5df73194789" target="_top" xlink:title=" ">
<polygon fill="white" stroke="#666666" points="393.5,-74 301.5,-74 301.5,-55 393.5,-55 393.5,-74"/>
<text text-anchor="middle" x="347.5" y="-62" font-family="Helvetica,sans-Serif" font-size="10.00">func_8009C434</text>
</a>
</g>
</g>
<!-- Node1&#45;&gt;Node6 -->
<g id="edge5_Node000001_Node000006" class="edge">
<title>Node1&#45;&gt;Node6</title>
<g id="a_edge5_Node000001_Node000006"><a xlink:title=" ">
<path fill="none" stroke="#63b8ff" d="M419.64,-64.5C410.93,-64.5 402.01,-64.5 393.56,-64.5"/>
<polygon fill="#63b8ff" stroke="#63b8ff" points="419.72,-68 429.72,-64.5 419.72,-61 419.72,-68"/>
</a>
</g>
</g>
<!-- Node11 -->
<g id="Node000011" class="node">
<title>Node11</title>
<g id="a_Node000011"><a xlink:href="menu__items_8c.html#ad2f561ff7256d7373577161c5027d6ba" target="_top" xlink:title=" ">
<polygon fill="white" stroke="#666666" points="393.5,-37 301.5,-37 301.5,-18 393.5,-18 393.5,-37"/>
<text text-anchor="middle" x="347.5" y="-25" font-family="Helvetica,sans-Serif" font-size="10.00">func_8009C708</text>
</a>
</g>
</g>
<!-- Node1&#45;&gt;Node11 -->
<g id="edge10_Node000001_Node000011" class="edge">
<title>Node1&#45;&gt;Node11</title>
<g id="a_edge10_Node000001_Node000011"><a xlink:title=" ">
<path fill="none" stroke="#63b8ff" d="M432.06,-52.04C415.48,-47.17 396.78,-41.68 381.28,-37.12"/>
<polygon fill="#63b8ff" stroke="#63b8ff" points="431.47,-55.51 442.05,-54.97 433.44,-48.8 431.47,-55.51"/>
</a>
</g>
</g>
<!-- Node3 -->
<g id="Node000003" class="node">
<title>Node3</title>
<g id="a_Node000003"><a xlink:href="menu__items_8c.html#a9099a476a093d93eb54197394bc332f0" target="_top" xlink:title=" ">
<polygon fill="white" stroke="#666666" points="264,-204 173,-204 173,-185 264,-185 264,-204"/>
<text text-anchor="middle" x="218.5" y="-192" font-family="Helvetica,sans-Serif" font-size="10.00">func_800A0FA4</text>
</a>
</g>
</g>
<!-- Node2&#45;&gt;Node3 -->
<g id="edge2_Node000002_Node000003" class="edge">
<title>Node2&#45;&gt;Node3</title>
<g id="a_edge2_Node000002_Node000003"><a xlink:title=" ">
<path fill="none" stroke="#63b8ff" d="M317.79,-152.39C302.26,-159.78 282.69,-168.88 265,-176.5 258.45,-179.32 251.29,-182.23 244.64,-184.86"/>
<polygon fill="#63b8ff" stroke="#63b8ff" points="319.37,-155.52 326.89,-148.05 316.35,-149.2 319.37,-155.52"/>
</a>
</g>
</g>
<!-- Node4 -->
<g id="Node000004" class="node">
<title>Node4</title>
<g id="a_Node000004"><a xlink:href="menu__items_8c.html#a26b674b2a5c7c4683419eb890d653390" target="_top" xlink:title=" ">
<polygon fill="white" stroke="#666666" points="265,-167 172,-167 172,-148 265,-148 265,-167"/>
<text text-anchor="middle" x="218.5" y="-155" font-family="Helvetica,sans-Serif" font-size="10.00">func_800A12BC</text>
</a>
</g>
</g>
<!-- Node2&#45;&gt;Node4 -->
<g id="edge3_Node000002_Node000004" class="edge">
<title>Node2&#45;&gt;Node4</title>
<g id="a_edge3_Node000002_Node000004"><a xlink:title=" ">
<path fill="none" stroke="#63b8ff" d="M290.5,-146.88C282.07,-148.14 273.46,-149.43 265.28,-150.65"/>
<polygon fill="#63b8ff" stroke="#63b8ff" points="291.28,-150.3 300.65,-145.36 290.24,-143.38 291.28,-150.3"/>
</a>
</g>
</g>
<!-- Node5 -->
<g id="Node000005" class="node">
<title>Node5</title>
<g id="a_Node000005"><a xlink:href="menu__items_8c.html#a58ceccdd649a0541c7a72d9b4fd59d53" target="_top" xlink:title=" ">
<polygon fill="white" stroke="#666666" points="264.5,-130 172.5,-130 172.5,-111 264.5,-111 264.5,-130"/>
<text text-anchor="middle" x="218.5" y="-118" font-family="Helvetica,sans-Serif" font-size="10.00">func_800A143C</text>
</a>
</g>
</g>
<!-- Node2&#45;&gt;Node5 -->
<g id="edge4_Node000002_Node000005" class="edge">
<title>Node2&#45;&gt;Node5</title>
<g id="a_edge4_Node000002_Node000005"><a xlink:title=" ">
<path fill="none" stroke="#63b8ff" d="M290.65,-130.58C282.03,-129.36 273.21,-128.11 264.86,-126.93"/>
<polygon fill="#63b8ff" stroke="#63b8ff" points="290.26,-134.06 300.65,-132 291.24,-127.13 290.26,-134.06"/>
</a>
</g>
</g>
<!-- Node7 -->
<g id="Node000007" class="node">
<title>Node7</title>
<g id="a_Node000007"><a xlink:href="menu__items_8c.html#a542612c8fd0d6566ae6133119b5fe9a2" target="_top" xlink:title=" ">
<polygon fill="white" stroke="#666666" points="265,-93 172,-93 172,-74 265,-74 265,-93"/>
<text text-anchor="middle" x="218.5" y="-81" font-family="Helvetica,sans-Serif" font-size="10.00">func_8009A6D4</text>
</a>
</g>
</g>
<!-- Node6&#45;&gt;Node7 -->
<g id="edge6_Node000006_Node000007" class="edge">
<title>Node6&#45;&gt;Node7</title>
<g id="a_edge6_Node000006_Node000007"><a xlink:title=" ">
<path fill="none" stroke="#63b8ff" d="M291.33,-72.75C282.66,-74.05 273.77,-75.38 265.34,-76.64"/>
<polygon fill="#63b8ff" stroke="#63b8ff" points="291.99,-76.19 301.37,-71.25 290.96,-69.27 291.99,-76.19"/>
</a>
</g>
</g>
<!-- Node8 -->
<g id="Node000008" class="node">
<title>Node8</title>
<g id="a_Node000008"><a xlink:href="menu__items_8c.html#a95b3021d5115ba9961b35c05cac3cd51" target="_top" xlink:title=" ">
<polygon fill="white" stroke="#666666" points="264.5,-56 172.5,-56 172.5,-37 264.5,-37 264.5,-56"/>
<text text-anchor="middle" x="218.5" y="-44" font-family="Helvetica,sans-Serif" font-size="10.00">func_8009A76C</text>
</a>
</g>
</g>
<!-- Node6&#45;&gt;Node8 -->
<g id="edge7_Node000006_Node000008" class="edge">
<title>Node6&#45;&gt;Node8</title>
<g id="a_edge7_Node000006_Node000008"><a xlink:title=" ">
<path fill="none" stroke="#63b8ff" d="M291.2,-56.66C282.42,-55.42 273.43,-54.14 264.92,-52.94"/>
<polygon fill="#63b8ff" stroke="#63b8ff" points="290.97,-60.17 301.37,-58.1 291.96,-53.23 290.97,-60.17"/>
</a>
</g>
</g>
<!-- Node9 -->
<g id="Node000009" class="node">
<title>Node9</title>
<g id="a_Node000009"><a xlink:href="menu__items_8c.html#a6331193031af439e18d5a386f428a302" target="_top" xlink:title=" ">
<polygon fill="white" stroke="#666666" points="114,-77 22,-77 22,-58 114,-58 114,-77"/>
<text text-anchor="middle" x="68" y="-65" font-family="Helvetica,sans-Serif" font-size="10.00">func_800A1500</text>
</a>
</g>
</g>
<!-- Node8&#45;&gt;Node9 -->
<g id="edge8_Node000008_Node000009" class="edge">
<title>Node8&#45;&gt;Node9</title>
<g id="a_edge8_Node000008_Node000009"><a xlink:title=" ">
<path fill="none" stroke="#63b8ff" d="M161.97,-54.35C146.17,-56.59 129.17,-58.99 114.08,-61.12"/>
<polygon fill="#63b8ff" stroke="#63b8ff" points="162.73,-57.78 172.14,-52.91 161.75,-50.85 162.73,-57.78"/>
</a>
</g>
</g>
<!-- Node10 -->
<g id="Node000010" class="node">
<title>Node10</title>
<g id="a_Node000010"><a xlink:href="menu__items_8c.html#a9fefc3d673e110249b5b83f9508d9b83" target="_top" xlink:title=" ">
<polygon fill="white" stroke="#666666" points="136,-39.5 0,-39.5 0,-9.5 136,-9.5 136,-39.5"/>
<text text-anchor="start" x="8" y="-27.5" font-family="Helvetica,sans-Serif" font-size="10.00">render_menu_item_data</text>
<text text-anchor="middle" x="68" y="-16.5" font-family="Helvetica,sans-Serif" font-size="10.00">_course_image</text>
</a>
</g>
</g>
<!-- Node8&#45;&gt;Node10 -->
<g id="edge9_Node000008_Node000010" class="edge">
<title>Node8&#45;&gt;Node10</title>
<g id="a_edge9_Node000008_Node000010"><a xlink:title=" ">
<path fill="none" stroke="#63b8ff" d="M162.07,-38.29C153.64,-37.04 144.87,-35.74 136.23,-34.46"/>
<polygon fill="#63b8ff" stroke="#63b8ff" points="161.73,-41.78 172.14,-39.78 162.76,-34.85 161.73,-41.78"/>
</a>
</g>
</g>
<!-- Node12 -->
<g id="Node000012" class="node">
<title>Node12</title>
<g id="a_Node000012"><a xlink:href="menu__items_8c.html#a7cb788fd817b7a72620b04ad4c4cbfda" target="_top" xlink:title=" ">
<polygon fill="white" stroke="#666666" points="264.5,-19 172.5,-19 172.5,0 264.5,0 264.5,-19"/>
<text text-anchor="middle" x="218.5" y="-7" font-family="Helvetica,sans-Serif" font-size="10.00">func_8009A7EC</text>
</a>
</g>
</g>
<!-- Node11&#45;&gt;Node12 -->
<g id="edge11_Node000011_Node000012" class="edge">
<title>Node11&#45;&gt;Node12</title>
<g id="a_edge11_Node000011_Node000012"><a xlink:title=" ">
<path fill="none" stroke="#63b8ff" d="M291.2,-19.66C282.42,-18.42 273.43,-17.14 264.92,-15.94"/>
<polygon fill="#63b8ff" stroke="#63b8ff" points="290.97,-23.17 301.37,-21.1 291.96,-16.23 290.97,-23.17"/>
</a>
</g>
</g>
</g>
</svg>
