<?xml version="1.0" encoding="UTF-8" standalone="no"?>
<!DOCTYPE svg PUBLIC "-//W3C//DTD SVG 1.1//EN"
 "http://www.w3.org/Graphics/SVG/1.1/DTD/svg11.dtd">
<!-- Generated by graphviz version 2.43.0 (0)
 -->
<!-- Title: text_draw_wide Pages: 1 -->
<svg width="1434pt" height="458pt"
 viewBox="0.00 0.00 1434.00 458.23" xmlns="http://www.w3.org/2000/svg" xmlns:xlink="http://www.w3.org/1999/xlink">
<g id="graph0" class="graph" transform="scale(1 1) rotate(0) translate(4 454.23)">
<title>text_draw_wide</title>
<!-- Node1 -->
<g id="Node000001" class="node">
<title>Node1</title>
<g id="a_Node000001"><a xlink:title=" ">
<polygon fill="#999999" stroke="#666666" points="94,-202.23 0,-202.23 0,-183.23 94,-183.23 94,-202.23"/>
<text text-anchor="middle" x="47" y="-190.23" font-family="Helvetica,sans-Serif" font-size="10.00">text_draw_wide</text>
</a>
</g>
</g>
<!-- Node2 -->
<g id="Node000002" class="node">
<title>Node2</title>
<g id="a_Node000002"><a xlink:href="menu__items_8c.html#a5abcef085b1e2089c54ea352ab09c9e2" target="_top" xlink:title=" ">
<polygon fill="white" stroke="#666666" points="228,-202.23 130,-202.23 130,-183.23 228,-183.23 228,-202.23"/>
<text text-anchor="middle" x="179" y="-190.23" font-family="Helvetica,sans-Serif" font-size="10.00">print_text2_wide</text>
</a>
</g>
</g>
<!-- Node1&#45;&gt;Node2 -->
<g id="edge1_Node000001_Node000002" class="edge">
<title>Node1&#45;&gt;Node2</title>
<g id="a_edge1_Node000001_Node000002"><a xlink:title=" ">
<path fill="none" stroke="#63b8ff" d="M94.2,-192.73C102.4,-192.73 111.03,-192.73 119.52,-192.73"/>
<polygon fill="#63b8ff" stroke="#63b8ff" points="119.75,-196.23 129.75,-192.73 119.75,-189.23 119.75,-196.23"/>
</a>
</g>
</g>
<!-- Node3 -->
<g id="Node000003" class="node">
<title>Node3</title>
<g id="a_Node000003"><a xlink:href="menu__items_8c.html#ace62f40ce813c34904327e39643a0dbf" target="_top" xlink:title=" ">
<polygon fill="white" stroke="#666666" points="392,-366.23 275,-366.23 275,-347.23 392,-347.23 392,-366.23"/>
<text text-anchor="middle" x="333.5" y="-354.23" font-family="Helvetica,sans-Serif" font-size="10.00">char_to_glyph_index</text>
</a>
</g>
</g>
<!-- Node2&#45;&gt;Node3 -->
<g id="edge2_Node000002_Node000003" class="edge">
<title>Node2&#45;&gt;Node3</title>
<g id="a_edge2_Node000002_Node000003"><a xlink:title=" ">
<path fill="none" stroke="#63b8ff" d="M189.08,-202.5C214.25,-229.57 285.13,-305.78 316.83,-339.88"/>
<polygon fill="#63b8ff" stroke="#63b8ff" points="314.28,-342.28 323.66,-347.22 319.41,-337.51 314.28,-342.28"/>
</a>
</g>
</g>
<!-- Node7 -->
<g id="Node000007" class="node">
<title>Node7</title>
<g id="a_Node000007"><a xlink:href="FrameInterpolation_8cpp.html#a14ceaeb116362786310778e36943f7be" target="_top" xlink:title=" ">
<polygon fill="white" stroke="#666666" points="403,-250.73 264,-250.73 264,-220.73 403,-220.73 403,-250.73"/>
<text text-anchor="start" x="272" y="-238.73" font-family="Helvetica,sans-Serif" font-size="10.00">FrameInterpolation</text>
<text text-anchor="middle" x="333.5" y="-227.73" font-family="Helvetica,sans-Serif" font-size="10.00">_ShouldInterpolateFrame</text>
</a>
</g>
</g>
<!-- Node2&#45;&gt;Node7 -->
<g id="edge7_Node000002_Node000007" class="edge">
<title>Node2&#45;&gt;Node7</title>
<g id="a_edge7_Node000002_Node000007"><a xlink:title=" ">
<path fill="none" stroke="#63b8ff" d="M213.84,-202.27C230.21,-206.89 250.39,-212.58 269.45,-217.95"/>
<polygon fill="#63b8ff" stroke="#63b8ff" points="268.71,-221.38 279.28,-220.73 270.61,-214.64 268.71,-221.38"/>
</a>
</g>
</g>
<!-- Node8 -->
<g id="Node000008" class="node">
<title>Node8</title>
<g id="a_Node000008"><a xlink:href="GBIMiddleware_8cpp.html#a4ecc44e3c6f1ca5a6b4a20c41d3bd2d2" target="_top" xlink:title=" ">
<polygon fill="white" stroke="#666666" points="928.5,-54.23 839.5,-54.23 839.5,-35.23 928.5,-35.23 928.5,-54.23"/>
<text text-anchor="middle" x="884" y="-42.23" font-family="Helvetica,sans-Serif" font-size="10.00">gSPDisplayList</text>
</a>
</g>
</g>
<!-- Node2&#45;&gt;Node8 -->
<g id="edge8_Node000002_Node000008" class="edge">
<title>Node2&#45;&gt;Node8</title>
<g id="a_edge8_Node000002_Node000008"><a xlink:title=" ">
<path fill="none" stroke="#63b8ff" d="M185.23,-183.01C196.82,-162.28 226.63,-113.29 264,-84.73 330.96,-33.56 356.37,-28.28 439,-11.73 581.28,16.75 753.64,-14.28 835.46,-32.86"/>
<polygon fill="#63b8ff" stroke="#63b8ff" points="834.92,-36.33 845.45,-35.17 836.5,-29.51 834.92,-36.33"/>
</a>
</g>
</g>
<!-- Node11 -->
<g id="Node000011" class="node">
<title>Node11</title>
<g id="a_Node000011"><a xlink:href="menu__items_8c.html#a68e560d23390d5add7cb57ccd82e21ae" target="_top" xlink:title=" ">
<polygon fill="white" stroke="#666666" points="381,-202.23 286,-202.23 286,-183.23 381,-183.23 381,-202.23"/>
<text text-anchor="middle" x="333.5" y="-190.23" font-family="Helvetica,sans-Serif" font-size="10.00">load_menu_img</text>
</a>
</g>
</g>
<!-- Node2&#45;&gt;Node11 -->
<g id="edge11_Node000002_Node000011" class="edge">
<title>Node2&#45;&gt;Node11</title>
<g id="a_edge11_Node000002_Node000011"><a xlink:title=" ">
<path fill="none" stroke="#63b8ff" d="M228.25,-192.73C243.36,-192.73 260.16,-192.73 275.79,-192.73"/>
<polygon fill="#63b8ff" stroke="#63b8ff" points="275.86,-196.23 285.86,-192.73 275.86,-189.23 275.86,-196.23"/>
</a>
</g>
</g>
<!-- Node13 -->
<g id="Node000013" class="node">
<title>Node13</title>
<g id="a_Node000013"><a xlink:href="menu__items_8c.html#a4a007ea44e7ab306e6126af44f75814a" target="_top" xlink:title=" ">
<polygon fill="white" stroke="#666666" points="397,-113.23 270,-113.23 270,-94.23 397,-94.23 397,-113.23"/>
<text text-anchor="middle" x="333.5" y="-101.23" font-family="Helvetica,sans-Serif" font-size="10.00">print_letter_wide_right</text>
</a>
</g>
</g>
<!-- Node2&#45;&gt;Node13 -->
<g id="edge13_Node000002_Node000013" class="edge">
<title>Node2&#45;&gt;Node13</title>
<g id="a_edge13_Node000002_Node000013"><a xlink:title=" ">
<path fill="none" stroke="#63b8ff" d="M196.32,-183.21C222.9,-167.7 275.71,-136.88 307.18,-118.51"/>
<polygon fill="#63b8ff" stroke="#63b8ff" points="308.96,-121.52 315.83,-113.46 305.43,-115.48 308.96,-121.52"/>
</a>
</g>
</g>
<!-- Node4 -->
<g id="Node000004" class="node">
<title>Node4</title>
<g id="a_Node000004"><a xlink:href="menu__items_8c.html#ae8ba1b567dba01ff15c64d416653a70b" target="_top" xlink:title=" ">
<polygon fill="white" stroke="#666666" points="546,-348.23 454,-348.23 454,-329.23 546,-329.23 546,-348.23"/>
<text text-anchor="middle" x="500" y="-336.23" font-family="Helvetica,sans-Serif" font-size="10.00">func_80092DF8</text>
</a>
</g>
</g>
<!-- Node3&#45;&gt;Node4 -->
<g id="edge3_Node000003_Node000004" class="edge">
<title>Node3&#45;&gt;Node4</title>
<g id="a_edge3_Node000003_Node000004"><a xlink:title=" ">
<path fill="none" stroke="#63b8ff" d="M392.03,-350.44C408.84,-348.6 427.16,-346.59 443.81,-344.77"/>
<polygon fill="#63b8ff" stroke="#63b8ff" points="444.38,-348.23 453.94,-343.66 443.62,-341.27 444.38,-348.23"/>
</a>
</g>
</g>
<!-- Node5 -->
<g id="Node000005" class="node">
<title>Node5</title>
<g id="a_Node000005"><a xlink:href="menu__items_8c.html#acd5b29a8e8634aa4f3db4b9a7c5ba033" target="_top" xlink:title=" ">
<polygon fill="white" stroke="#666666" points="733.5,-423.23 641.5,-423.23 641.5,-404.23 733.5,-404.23 733.5,-423.23"/>
<text text-anchor="middle" x="687.5" y="-411.23" font-family="Helvetica,sans-Serif" font-size="10.00">func_80092E1C</text>
</a>
</g>
</g>
<!-- Node3&#45;&gt;Node5 -->
<g id="edge5_Node000003_Node000005" class="edge">
<title>Node3&#45;&gt;Node5</title>
<g id="a_edge5_Node000003_Node000005"><a xlink:title=" ">
<path fill="none" stroke="#63b8ff" d="M355.61,-366.34C376.37,-375.33 409.19,-388.29 439,-394.73 504.02,-408.77 580.62,-412.79 631.19,-413.77"/>
<polygon fill="#63b8ff" stroke="#63b8ff" points="631.21,-417.27 641.26,-413.93 631.32,-410.27 631.21,-417.27"/>
</a>
</g>
</g>
<!-- Node6 -->
<g id="Node000006" class="node">
<title>Node6</title>
<g id="a_Node000006"><a xlink:href="menu__items_8c.html#ab26c8dca1828cd1d5a6c341cb851f0b9" target="_top" xlink:title=" ">
<polygon fill="white" stroke="#666666" points="545.5,-385.23 454.5,-385.23 454.5,-366.23 545.5,-366.23 545.5,-385.23"/>
<text text-anchor="middle" x="500" y="-373.23" font-family="Helvetica,sans-Serif" font-size="10.00">func_80092EE4</text>
</a>
</g>
</g>
<!-- Node3&#45;&gt;Node6 -->
<g id="edge6_Node000003_Node000006" class="edge">
<title>Node3&#45;&gt;Node6</title>
<g id="a_edge6_Node000003_Node000006"><a xlink:title=" ">
<path fill="none" stroke="#63b8ff" d="M392.03,-363.38C408.99,-365.34 427.49,-367.47 444.27,-369.41"/>
<polygon fill="#63b8ff" stroke="#63b8ff" points="444.12,-372.92 454.46,-370.59 444.93,-365.96 444.12,-372.92"/>
</a>
</g>
</g>
<!-- Node4&#45;&gt;Node5 -->
<g id="edge4_Node000004_Node000005" class="edge">
<title>Node4&#45;&gt;Node5</title>
<g id="a_edge4_Node000004_Node000005"><a xlink:title=" ">
<path fill="none" stroke="#63b8ff" d="M540.99,-348.27C547.94,-350.79 554.89,-353.9 561,-357.73 580.72,-370.08 576.64,-384.47 597,-395.73 607.51,-401.55 619.64,-405.5 631.51,-408.18"/>
<polygon fill="#63b8ff" stroke="#63b8ff" points="630.89,-411.62 641.38,-410.14 632.25,-404.76 630.89,-411.62"/>
</a>
</g>
</g>
<!-- Node9 -->
<g id="Node000009" class="node">
<title>Node9</title>
<g id="a_Node000009"><a xlink:href="Engine_8cpp.html#a223c8bc63f228dc11177515e38eff2db" target="_top" xlink:title=" ">
<polygon fill="white" stroke="#666666" points="1139,-91.23 990,-91.23 990,-72.23 1139,-72.23 1139,-91.23"/>
<text text-anchor="middle" x="1064.5" y="-79.23" font-family="Helvetica,sans-Serif" font-size="10.00">GameEngine_OTRSigCheck</text>
</a>
</g>
</g>
<!-- Node8&#45;&gt;Node9 -->
<g id="edge9_Node000008_Node000009" class="edge">
<title>Node8&#45;&gt;Node9</title>
<g id="a_edge9_Node000008_Node000009"><a xlink:title=" ">
<path fill="none" stroke="#63b8ff" d="M928.67,-53.78C952.45,-58.71 982.13,-64.87 1007.59,-70.14"/>
<polygon fill="#63b8ff" stroke="#63b8ff" points="1006.98,-73.59 1017.48,-72.19 1008.4,-66.74 1006.98,-73.59"/>
</a>
</g>
</g>
<!-- Node10 -->
<g id="Node000010" class="node">
<title>Node10</title>
<g id="a_Node000010"><a xlink:href="string_8c.html#a008e171a518fe0e0352f31b245e03875" target="_top" xlink:title=" ">
<polygon fill="white" stroke="#666666" points="1221.5,-162.23 1177.5,-162.23 1177.5,-143.23 1221.5,-143.23 1221.5,-162.23"/>
<text text-anchor="middle" x="1199.5" y="-150.23" font-family="Helvetica,sans-Serif" font-size="10.00">strlen</text>
</a>
</g>
</g>
<!-- Node9&#45;&gt;Node10 -->
<g id="edge10_Node000009_Node000010" class="edge">
<title>Node9&#45;&gt;Node10</title>
<g id="a_edge10_Node000009_Node000010"><a xlink:title=" ">
<path fill="none" stroke="#63b8ff" d="M1083.44,-91.31C1106.04,-103.38 1145.12,-124.23 1171.38,-138.25"/>
<polygon fill="#63b8ff" stroke="#63b8ff" points="1169.95,-141.46 1180.42,-143.08 1173.25,-135.28 1169.95,-141.46"/>
</a>
</g>
</g>
<!-- Node12 -->
<g id="Node000012" class="node">
<title>Node12</title>
<g id="a_Node000012"><a xlink:href="menu__items_8c.html#a248768ee2e4ca9ae9cf0a30bfb256859" target="_top" xlink:title=" ">
<polygon fill="white" stroke="#666666" points="539,-238.23 461,-238.23 461,-219.23 539,-219.23 539,-238.23"/>
<text text-anchor="middle" x="500" y="-226.23" font-family="Helvetica,sans-Serif" font-size="10.00">load_texture</text>
</a>
</g>
</g>
<!-- Node11&#45;&gt;Node12 -->
<g id="edge12_Node000011_Node000012" class="edge">
<title>Node11&#45;&gt;Node12</title>
<g id="a_edge12_Node000011_Node000012"><a xlink:title=" ">
<path fill="none" stroke="#63b8ff" d="M378.15,-202.28C400.54,-207.18 427.86,-213.16 450.86,-218.2"/>
<polygon fill="#63b8ff" stroke="#63b8ff" points="450.23,-221.64 460.75,-220.36 451.73,-214.8 450.23,-221.64"/>
</a>
</g>
</g>
<!-- Node13&#45;&gt;Node8 -->
<g id="edge52_Node000013_Node000008" class="edge">
<title>Node13&#45;&gt;Node8</title>
<g id="a_edge52_Node000013_Node000008"><a xlink:title=" ">
<path fill="none" stroke="#63b8ff" d="M397.25,-94.49C450.36,-86.88 528.55,-76.16 597,-68.73 677.68,-59.97 771.46,-52.65 829.01,-48.47"/>
<polygon fill="#63b8ff" stroke="#63b8ff" points="829.61,-51.94 839.33,-47.73 829.1,-44.96 829.61,-51.94"/>
</a>
</g>
</g>
<!-- Node14 -->
<g id="Node000014" class="node">
<title>Node14</title>
<g id="a_Node000014"><a xlink:href="menu__items_8c.html#ad129d5fc839c6e03c8d1399f72f53071" target="_top" xlink:title=" ">
<polygon fill="white" stroke="#666666" points="561,-200.73 439,-200.73 439,-170.73 561,-170.73 561,-200.73"/>
<text text-anchor="start" x="447" y="-188.73" font-family="Helvetica,sans-Serif" font-size="10.00">func_80095BD0_wide</text>
<text text-anchor="middle" x="500" y="-177.73" font-family="Helvetica,sans-Serif" font-size="10.00">_right</text>
</a>
</g>
</g>
<!-- Node13&#45;&gt;Node14 -->
<g id="edge14_Node000013_Node000014" class="edge">
<title>Node13&#45;&gt;Node14</title>
<g id="a_edge14_Node000013_Node000014"><a xlink:title=" ">
<path fill="none" stroke="#63b8ff" d="M353.69,-113.3C379.57,-126.2 426.25,-149.47 459.72,-166.15"/>
<polygon fill="#63b8ff" stroke="#63b8ff" points="458.28,-169.34 468.79,-170.67 461.4,-163.08 458.28,-169.34"/>
</a>
</g>
</g>
<!-- Node42 -->
<g id="Node000042" class="node">
<title>Node42</title>
<g id="a_Node000042"><a xlink:href="menu__items_8c.html#a6061a0dbb9b34a45fb1620c6c1d7f73c" target="_top" xlink:title=" ">
<polygon fill="white" stroke="#666666" points="546,-40.23 454,-40.23 454,-21.23 546,-21.23 546,-40.23"/>
<text text-anchor="middle" x="500" y="-28.23" font-family="Helvetica,sans-Serif" font-size="10.00">func_8009B8C4</text>
</a>
</g>
</g>
<!-- Node13&#45;&gt;Node42 -->
<g id="edge51_Node000013_Node000042" class="edge">
<title>Node13&#45;&gt;Node42</title>
<g id="a_edge51_Node000013_Node000042"><a xlink:title=" ">
<path fill="none" stroke="#63b8ff" d="M353.99,-94.18C374.87,-84.04 409.04,-67.74 439,-54.73 447.21,-51.17 456.13,-47.49 464.52,-44.13"/>
<polygon fill="#63b8ff" stroke="#63b8ff" points="466.05,-47.28 474.05,-40.34 463.47,-40.78 466.05,-47.28"/>
</a>
</g>
</g>
<!-- Node15 -->
<g id="Node000015" class="node">
<title>Node15</title>
<g id="a_Node000015"><a xlink:href="Matrix_8cpp.html#a6f64c44efb9bdfff802175a9739ce1f1" target="_top" xlink:title=" ">
<polygon fill="white" stroke="#666666" points="731,-288.23 644,-288.23 644,-269.23 731,-269.23 731,-288.23"/>
<text text-anchor="middle" x="687.5" y="-276.23" font-family="Helvetica,sans-Serif" font-size="10.00">AddTextMatrix</text>
</a>
</g>
</g>
<!-- Node14&#45;&gt;Node15 -->
<g id="edge15_Node000014_Node000015" class="edge">
<title>Node14&#45;&gt;Node15</title>
<g id="a_edge15_Node000014_Node000015"><a xlink:title=" ">
<path fill="none" stroke="#63b8ff" d="M544.79,-200.76C550.51,-203.63 556.08,-206.95 561,-210.73 581.85,-226.78 574.9,-243.45 597,-257.73 607.89,-264.77 620.89,-269.46 633.56,-272.58"/>
<polygon fill="#63b8ff" stroke="#63b8ff" points="633.09,-276.06 643.6,-274.76 634.57,-269.22 633.09,-276.06"/>
</a>
</g>
</g>
<!-- Node20 -->
<g id="Node000020" class="node">
<title>Node20</title>
<g id="a_Node000020"><a xlink:href="FrameInterpolation_8cpp.html#a3a036bc9d533e28a4e9697cd20dccf3e" target="_top" xlink:title=" ">
<polygon fill="white" stroke="#666666" points="742.5,-248.73 632.5,-248.73 632.5,-218.73 742.5,-218.73 742.5,-248.73"/>
<text text-anchor="start" x="640.5" y="-236.73" font-family="Helvetica,sans-Serif" font-size="10.00">FrameInterpolation</text>
<text text-anchor="middle" x="687.5" y="-225.73" font-family="Helvetica,sans-Serif" font-size="10.00">_RecordCloseChild</text>
</a>
</g>
</g>
<!-- Node14&#45;&gt;Node20 -->
<g id="edge20_Node000014_Node000020" class="edge">
<title>Node14&#45;&gt;Node20</title>
<g id="a_edge20_Node000014_Node000020"><a xlink:title=" ">
<path fill="none" stroke="#63b8ff" d="M559.18,-200.79C579.27,-205.99 601.89,-211.84 622.42,-217.15"/>
<polygon fill="#63b8ff" stroke="#63b8ff" points="621.75,-220.59 632.31,-219.71 623.51,-213.82 621.75,-220.59"/>
</a>
</g>
</g>
<!-- Node21 -->
<g id="Node000021" class="node">
<title>Node21</title>
<g id="a_Node000021"><a xlink:href="FrameInterpolation_8cpp.html#a0eda726b74eac815af4e874014e2727c" target="_top" xlink:title=" ">
<polygon fill="white" stroke="#666666" points="742.5,-200.73 632.5,-200.73 632.5,-170.73 742.5,-170.73 742.5,-200.73"/>
<text text-anchor="start" x="640.5" y="-188.73" font-family="Helvetica,sans-Serif" font-size="10.00">FrameInterpolation</text>
<text text-anchor="middle" x="687.5" y="-177.73" font-family="Helvetica,sans-Serif" font-size="10.00">_RecordOpenChild</text>
</a>
</g>
</g>
<!-- Node14&#45;&gt;Node21 -->
<g id="edge22_Node000014_Node000021" class="edge">
<title>Node14&#45;&gt;Node21</title>
<g id="a_edge22_Node000014_Node000021"><a xlink:title=" ">
<path fill="none" stroke="#63b8ff" d="M561.23,-185.73C580.69,-185.73 602.33,-185.73 622.08,-185.73"/>
<polygon fill="#63b8ff" stroke="#63b8ff" points="622.21,-189.23 632.21,-185.73 622.21,-182.23 622.21,-189.23"/>
</a>
</g>
</g>
<!-- Node22 -->
<g id="Node000022" class="node">
<title>Node22</title>
<g id="a_Node000022"><a xlink:href="menu__items_8c.html#ae0fd5923ba70cf6939cd3fa8d09c1191" target="_top" xlink:title=" ">
<polygon fill="white" stroke="#666666" points="733,-97.23 642,-97.23 642,-78.23 733,-78.23 733,-97.23"/>
<text text-anchor="middle" x="687.5" y="-85.23" font-family="Helvetica,sans-Serif" font-size="10.00">func_800959F8</text>
</a>
</g>
</g>
<!-- Node14&#45;&gt;Node22 -->
<g id="edge24_Node000014_Node000022" class="edge">
<title>Node14&#45;&gt;Node22</title>
<g id="a_edge24_Node000014_Node000022"><a xlink:title=" ">
<path fill="none" stroke="#63b8ff" d="M514.66,-170.43C531.95,-152.07 563.54,-121.75 597,-105.73 607.83,-100.54 620.09,-96.85 631.99,-94.22"/>
<polygon fill="#63b8ff" stroke="#63b8ff" points="632.74,-97.64 641.86,-92.25 631.37,-90.78 632.74,-97.64"/>
</a>
</g>
</g>
<!-- Node24 -->
<g id="Node000024" class="node">
<title>Node24</title>
<g id="a_Node000024"><a xlink:href="Engine_8cpp.html#a17495ab17d6e9c65b2a76e3c88a7f718" target="_top" xlink:title=" ">
<polygon fill="white" stroke="#666666" points="778,-386.23 597,-386.23 597,-367.23 778,-367.23 778,-386.23"/>
<text text-anchor="middle" x="687.5" y="-374.23" font-family="Helvetica,sans-Serif" font-size="10.00">OTRGetDimensionFromRightEdge</text>
</a>
</g>
</g>
<!-- Node14&#45;&gt;Node24 -->
<g id="edge28_Node000014_Node000024" class="edge">
<title>Node14&#45;&gt;Node24</title>
<g id="a_edge28_Node000014_Node000024"><a xlink:title=" ">
<path fill="none" stroke="#63b8ff" d="M549.37,-200.82C553.71,-203.6 557.7,-206.87 561,-210.73 604.99,-262.19 548.18,-311.83 597,-358.73 597.96,-359.66 598.96,-360.54 599.99,-361.39"/>
<polygon fill="#63b8ff" stroke="#63b8ff" points="598.18,-364.39 608.42,-367.12 602.11,-358.6 598.18,-364.39"/>
</a>
</g>
</g>
<!-- Node27 -->
<g id="Node000027" class="node">
<title>Node27</title>
<g id="a_Node000027"><a xlink:href="stubs_8c.html#a8b417b868747c80d58f83d8a1e78ecf3" target="_top" xlink:title=" ">
<polygon fill="white" stroke="#666666" points="721.5,-349.23 653.5,-349.23 653.5,-330.23 721.5,-330.23 721.5,-349.23"/>
<text text-anchor="middle" x="687.5" y="-337.23" font-family="Helvetica,sans-Serif" font-size="10.00">rmonPrintf</text>
</a>
</g>
</g>
<!-- Node14&#45;&gt;Node27 -->
<g id="edge31_Node000014_Node000027" class="edge">
<title>Node14&#45;&gt;Node27</title>
<g id="a_edge31_Node000014_Node000027"><a xlink:title=" ">
<path fill="none" stroke="#63b8ff" d="M547.89,-200.83C552.67,-203.62 557.17,-206.9 561,-210.73 590.55,-240.36 568.1,-267.46 597,-297.73 609.68,-311.02 627.4,-320.53 643.72,-327.11"/>
<polygon fill="#63b8ff" stroke="#63b8ff" points="642.54,-330.4 653.13,-330.65 645,-323.85 642.54,-330.4"/>
</a>
</g>
</g>
<!-- Node40 -->
<g id="Node000040" class="node">
<title>Node40</title>
<g id="a_Node000040"><a xlink:href="Matrix_8cpp.html#a9818099a1ee20606a7d622e744846366" target="_top" xlink:title=" ">
<polygon fill="white" stroke="#666666" points="729.5,-134.23 645.5,-134.23 645.5,-115.23 729.5,-115.23 729.5,-134.23"/>
<text text-anchor="middle" x="687.5" y="-122.23" font-family="Helvetica,sans-Serif" font-size="10.00">SetTextMatrix</text>
</a>
</g>
</g>
<!-- Node14&#45;&gt;Node40 -->
<g id="edge47_Node000014_Node000040" class="edge">
<title>Node14&#45;&gt;Node40</title>
<g id="a_edge47_Node000014_Node000040"><a xlink:title=" ">
<path fill="none" stroke="#63b8ff" d="M546.85,-170.65C577.89,-160.45 618.44,-147.11 647.84,-137.44"/>
<polygon fill="#63b8ff" stroke="#63b8ff" points="648.95,-140.77 657.35,-134.32 646.76,-134.12 648.95,-140.77"/>
</a>
</g>
</g>
<!-- Node16 -->
<g id="Node000016" class="node">
<title>Node16</title>
<g id="a_Node000016"><a xlink:href="FrameInterpolation_8cpp.html#a8cf1f2d6fabc6925aa71a9515341b4aa" target="_top" xlink:title=" ">
<polygon fill="white" stroke="#666666" points="954,-338.73 814,-338.73 814,-308.73 954,-308.73 954,-338.73"/>
<text text-anchor="start" x="822" y="-326.73" font-family="Helvetica,sans-Serif" font-size="10.00">FrameInterpolation</text>
<text text-anchor="middle" x="884" y="-315.73" font-family="Helvetica,sans-Serif" font-size="10.00">_RecordMatrixMtxFToMtx</text>
</a>
</g>
</g>
<!-- Node15&#45;&gt;Node16 -->
<g id="edge16_Node000015_Node000016" class="edge">
<title>Node15&#45;&gt;Node16</title>
<g id="a_edge16_Node000015_Node000016"><a xlink:title=" ">
<path fill="none" stroke="#63b8ff" d="M729.75,-288.27C752.49,-293.54 781.43,-300.23 808.02,-306.38"/>
<polygon fill="#63b8ff" stroke="#63b8ff" points="807.55,-309.87 818.08,-308.71 809.13,-303.05 807.55,-309.87"/>
</a>
</g>
</g>
<!-- Node18 -->
<g id="Node000018" class="node">
<title>Node18</title>
<g id="a_Node000018"><a xlink:href="Game_8cpp.html#ae2fa844b3cb1021ecbc357f8ed2ad8cc" target="_top" xlink:title=" ">
<polygon fill="white" stroke="#666666" points="915,-253.23 853,-253.23 853,-234.23 915,-234.23 915,-253.23"/>
<text text-anchor="middle" x="884" y="-241.23" font-family="Helvetica,sans-Serif" font-size="10.00">GetWorld</text>
</a>
</g>
</g>
<!-- Node15&#45;&gt;Node18 -->
<g id="edge18_Node000015_Node000018" class="edge">
<title>Node15&#45;&gt;Node18</title>
<g id="a_edge18_Node000015_Node000018"><a xlink:title=" ">
<path fill="none" stroke="#63b8ff" d="M731.18,-271.05C764.38,-265.08 810.12,-256.85 842.7,-250.98"/>
<polygon fill="#63b8ff" stroke="#63b8ff" points="843.56,-254.39 852.78,-249.17 842.32,-247.5 843.56,-254.39"/>
</a>
</g>
</g>
<!-- Node19 -->
<g id="Node000019" class="node">
<title>Node19</title>
<g id="a_Node000019"><a xlink:href="guMtxF2L_8c.html#a40ab2d64c609839ff1e0ef0de2d0dcc4" target="_top" xlink:title=" ">
<polygon fill="white" stroke="#666666" points="916.5,-290.23 851.5,-290.23 851.5,-271.23 916.5,-271.23 916.5,-290.23"/>
<text text-anchor="middle" x="884" y="-278.23" font-family="Helvetica,sans-Serif" font-size="10.00">guMtxF2L</text>
</a>
</g>
</g>
<!-- Node15&#45;&gt;Node19 -->
<g id="edge19_Node000015_Node000019" class="edge">
<title>Node15&#45;&gt;Node19</title>
<g id="a_edge19_Node000015_Node000019"><a xlink:title=" ">
<path fill="none" stroke="#63b8ff" d="M731.18,-279.17C763.88,-279.51 808.73,-279.97 841.2,-280.3"/>
<polygon fill="#63b8ff" stroke="#63b8ff" points="841.24,-283.8 851.28,-280.41 841.32,-276.8 841.24,-283.8"/>
</a>
</g>
</g>
<!-- Node17 -->
<g id="Node000017" class="node">
<title>Node17</title>
<g id="a_Node000017"><a xlink:href="FrameInterpolation_8cpp.html#a02c7ac5342a4d376edee38f312b480bf" target="_top" xlink:title=" ">
<polygon fill="white" stroke="#666666" points="1118.5,-196.23 1010.5,-196.23 1010.5,-177.23 1118.5,-177.23 1118.5,-196.23"/>
<text text-anchor="middle" x="1064.5" y="-184.23" font-family="Helvetica,sans-Serif" font-size="10.00">check_if_recording</text>
</a>
</g>
</g>
<!-- Node16&#45;&gt;Node17 -->
<g id="edge17_Node000016_Node000017" class="edge">
<title>Node16&#45;&gt;Node17</title>
<g id="a_edge17_Node000016_Node000017"><a xlink:title=" ">
<path fill="none" stroke="#63b8ff" d="M937.59,-308.62C943.33,-306.05 948.93,-303.1 954,-299.73 973.92,-286.5 973.51,-277.05 990,-259.73 1008.62,-240.17 1030.69,-218.43 1045.76,-203.81"/>
<polygon fill="#63b8ff" stroke="#63b8ff" points="1048.58,-205.94 1053.34,-196.48 1043.71,-200.91 1048.58,-205.94"/>
</a>
</g>
</g>
<!-- Node20&#45;&gt;Node17 -->
<g id="edge21_Node000020_Node000017" class="edge">
<title>Node20&#45;&gt;Node17</title>
<g id="a_edge21_Node000020_Node000017"><a xlink:title=" ">
<path fill="none" stroke="#63b8ff" d="M742.63,-226.95C810.77,-218.41 927.65,-203.76 999.96,-194.69"/>
<polygon fill="#63b8ff" stroke="#63b8ff" points="1000.81,-198.12 1010.3,-193.4 999.94,-191.17 1000.81,-198.12"/>
</a>
</g>
</g>
<!-- Node21&#45;&gt;Node17 -->
<g id="edge23_Node000021_Node000017" class="edge">
<title>Node21&#45;&gt;Node17</title>
<g id="a_edge23_Node000021_Node000017"><a xlink:title=" ">
<path fill="none" stroke="#63b8ff" d="M742.63,-185.88C810.77,-186.06 927.65,-186.37 999.96,-186.56"/>
<polygon fill="#63b8ff" stroke="#63b8ff" points="1000.29,-190.06 1010.3,-186.59 1000.31,-183.06 1000.29,-190.06"/>
</a>
</g>
</g>
<!-- Node22&#45;&gt;Node8 -->
<g id="edge25_Node000022_Node000008" class="edge">
<title>Node22&#45;&gt;Node8</title>
<g id="a_edge25_Node000022_Node000008"><a xlink:title=" ">
<path fill="none" stroke="#63b8ff" d="M731.67,-78.19C760.62,-71.79 798.96,-63.31 829.81,-56.49"/>
<polygon fill="#63b8ff" stroke="#63b8ff" points="830.95,-59.82 839.95,-54.25 829.44,-52.99 830.95,-59.82"/>
</a>
</g>
</g>
<!-- Node23 -->
<g id="Node000023" class="node">
<title>Node23</title>
<g id="a_Node000023"><a xlink:href="GBIMiddleware_8cpp.html#aeef79449a27a710d73576e4a4f7f7f99" target="_top" xlink:title=" ">
<polygon fill="white" stroke="#666666" points="917,-91.23 851,-91.23 851,-72.23 917,-72.23 917,-91.23"/>
<text text-anchor="middle" x="884" y="-79.23" font-family="Helvetica,sans-Serif" font-size="10.00">gSPVertex</text>
</a>
</g>
</g>
<!-- Node22&#45;&gt;Node23 -->
<g id="edge26_Node000022_Node000023" class="edge">
<title>Node22&#45;&gt;Node23</title>
<g id="a_edge26_Node000022_Node000023"><a xlink:title=" ">
<path fill="none" stroke="#63b8ff" d="M733.12,-86.36C765.37,-85.36 808.66,-84.02 840.42,-83.05"/>
<polygon fill="#63b8ff" stroke="#63b8ff" points="840.83,-86.53 850.72,-82.73 840.62,-79.54 840.83,-86.53"/>
</a>
</g>
</g>
<!-- Node23&#45;&gt;Node9 -->
<g id="edge27_Node000023_Node000009" class="edge">
<title>Node23&#45;&gt;Node9</title>
<g id="a_edge27_Node000023_Node000009"><a xlink:title=" ">
<path fill="none" stroke="#63b8ff" d="M917.33,-81.73C934.92,-81.73 957.59,-81.73 979.8,-81.73"/>
<polygon fill="#63b8ff" stroke="#63b8ff" points="979.95,-85.23 989.95,-81.73 979.95,-78.23 979.95,-85.23"/>
</a>
</g>
</g>
<!-- Node25 -->
<g id="Node000025" class="node">
<title>Node25</title>
<g id="a_Node000025"><a xlink:href="Engine_8cpp.html#a130aa97f1c7fae24f3d23f8126e7506f" target="_top" xlink:title=" ">
<polygon fill="white" stroke="#666666" points="940.5,-450.23 827.5,-450.23 827.5,-431.23 940.5,-431.23 940.5,-450.23"/>
<text text-anchor="middle" x="884" y="-438.23" font-family="Helvetica,sans-Serif" font-size="10.00">OTRGetAspectRatio</text>
</a>
</g>
</g>
<!-- Node24&#45;&gt;Node25 -->
<g id="edge29_Node000024_Node000025" class="edge">
<title>Node24&#45;&gt;Node25</title>
<g id="a_edge29_Node000024_Node000025"><a xlink:title=" ">
<path fill="none" stroke="#63b8ff" d="M750.77,-386.28C760.11,-388.76 769.47,-391.86 778,-395.73 796.21,-404 795.99,-414.04 814,-422.73 818,-424.66 822.23,-426.4 826.55,-427.97"/>
<polygon fill="#63b8ff" stroke="#63b8ff" points="825.5,-431.31 836.09,-431.13 827.7,-424.66 825.5,-431.31"/>
</a>
</g>
</g>
<!-- Node26 -->
<g id="Node000026" class="node">
<title>Node26</title>
<g id="a_Node000026"><a xlink:href="Engine_8cpp.html#a29357c424545be61af4bd28d84fd344a" target="_top" xlink:title=" ">
<polygon fill="white" stroke="#666666" points="1107.5,-450.23 1021.5,-450.23 1021.5,-431.23 1107.5,-431.23 1107.5,-450.23"/>
<text text-anchor="middle" x="1064.5" y="-438.23" font-family="Helvetica,sans-Serif" font-size="10.00">GetInterpreter</text>
</a>
</g>
</g>
<!-- Node25&#45;&gt;Node26 -->
<g id="edge30_Node000025_Node000026" class="edge">
<title>Node25&#45;&gt;Node26</title>
<g id="a_edge30_Node000025_Node000026"><a xlink:title=" ">
<path fill="none" stroke="#63b8ff" d="M940.5,-440.73C963.03,-440.73 988.92,-440.73 1011.12,-440.73"/>
<polygon fill="#63b8ff" stroke="#63b8ff" points="1011.37,-444.23 1021.37,-440.73 1011.37,-437.23 1011.37,-444.23"/>
</a>
</g>
</g>
<!-- Node28 -->
<g id="Node000028" class="node">
<title>Node28</title>
<g id="a_Node000028"><a xlink:href="__Printf_8c.html#a39bb05c90efce6c6790c5d58d271d72d" target="_top" xlink:title=" ">
<polygon fill="white" stroke="#666666" points="908,-376.23 860,-376.23 860,-357.23 908,-357.23 908,-376.23"/>
<text text-anchor="middle" x="884" y="-364.23" font-family="Helvetica,sans-Serif" font-size="10.00">_Printf</text>
</a>
</g>
</g>
<!-- Node27&#45;&gt;Node28 -->
<g id="edge32_Node000027_Node000028" class="edge">
<title>Node27&#45;&gt;Node28</title>
<g id="a_edge32_Node000027_Node000028"><a xlink:title=" ">
<path fill="none" stroke="#63b8ff" d="M721.94,-344.37C757.72,-349.34 814.15,-357.17 849.83,-362.13"/>
<polygon fill="#63b8ff" stroke="#63b8ff" points="849.37,-365.6 859.75,-363.5 850.33,-358.66 849.37,-365.6"/>
</a>
</g>
</g>
<!-- Node39 -->
<g id="Node000039" class="node">
<title>Node39</title>
<g id="a_Node000039"><a xlink:href="is__debug_8c.html#aaccfac8d9098530b6592eefe679d86b4" target="_top" xlink:title=" ">
<polygon fill="white" stroke="#666666" points="936.5,-413.23 831.5,-413.23 831.5,-394.23 936.5,-394.23 936.5,-413.23"/>
<text text-anchor="middle" x="884" y="-401.23" font-family="Helvetica,sans-Serif" font-size="10.00">is_proutSyncPrintf</text>
</a>
</g>
</g>
<!-- Node27&#45;&gt;Node39 -->
<g id="edge46_Node000027_Node000039" class="edge">
<title>Node27&#45;&gt;Node39</title>
<g id="a_edge46_Node000027_Node000039"><a xlink:title=" ">
<path fill="none" stroke="#63b8ff" d="M721.89,-343.31C739.2,-346.03 760.36,-350.72 778,-358.73 796.21,-367 795.99,-377.04 814,-385.73 818,-387.66 822.23,-389.4 826.55,-390.97"/>
<polygon fill="#63b8ff" stroke="#63b8ff" points="825.5,-394.31 836.09,-394.13 827.7,-387.66 825.5,-394.31"/>
</a>
</g>
</g>
<!-- Node29 -->
<g id="Node000029" class="node">
<title>Node29</title>
<g id="a_Node000029"><a xlink:href="__Printf_8c.html#ad73a5847f2d7c9de14cc2723da86bf45" target="_top" xlink:title=" ">
<polygon fill="white" stroke="#666666" points="1089.5,-287.23 1039.5,-287.23 1039.5,-268.23 1089.5,-268.23 1089.5,-287.23"/>
<text text-anchor="middle" x="1064.5" y="-275.23" font-family="Helvetica,sans-Serif" font-size="10.00">_Putfld</text>
</a>
</g>
</g>
<!-- Node28&#45;&gt;Node29 -->
<g id="edge33_Node000028_Node000029" class="edge">
<title>Node28&#45;&gt;Node29</title>
<g id="a_edge33_Node000028_Node000029"><a xlink:title=" ">
<path fill="none" stroke="#63b8ff" d="M908.28,-362.15C921.95,-359.02 939.36,-354.25 954,-347.73 987.01,-333.04 1021.56,-309.34 1042.82,-293.65"/>
<polygon fill="#63b8ff" stroke="#63b8ff" points="1045.17,-296.26 1051.07,-287.47 1040.97,-290.66 1045.17,-296.26"/>
</a>
</g>
</g>
<!-- Node38 -->
<g id="Node000038" class="node">
<title>Node38</title>
<g id="a_Node000038"><a xlink:href="string_8c.html#a988b4defe51a1815ef3b9ddab10e7a89" target="_top" xlink:title=" ">
<polygon fill="white" stroke="#666666" points="1086.5,-376.23 1042.5,-376.23 1042.5,-357.23 1086.5,-357.23 1086.5,-376.23"/>
<text text-anchor="middle" x="1064.5" y="-364.23" font-family="Helvetica,sans-Serif" font-size="10.00">strchr</text>
</a>
</g>
</g>
<!-- Node28&#45;&gt;Node38 -->
<g id="edge45_Node000028_Node000038" class="edge">
<title>Node28&#45;&gt;Node38</title>
<g id="a_edge45_Node000028_Node000038"><a xlink:title=" ">
<path fill="none" stroke="#63b8ff" d="M908.34,-366.73C940.02,-366.73 996.76,-366.73 1032.14,-366.73"/>
<polygon fill="#63b8ff" stroke="#63b8ff" points="1032.38,-370.23 1042.38,-366.73 1032.38,-363.23 1032.38,-370.23"/>
</a>
</g>
</g>
<!-- Node29&#45;&gt;Node10 -->
<g id="edge44_Node000029_Node000010" class="edge">
<title>Node29&#45;&gt;Node10</title>
<g id="a_edge44_Node000029_Node000010"><a xlink:title=" ">
<path fill="none" stroke="#63b8ff" d="M1075.94,-267.92C1098.56,-246.66 1152.37,-196.08 1180.57,-169.59"/>
<polygon fill="#63b8ff" stroke="#63b8ff" points="1183.22,-171.89 1188.11,-162.49 1178.43,-166.79 1183.22,-171.89"/>
</a>
</g>
</g>
<!-- Node30 -->
<g id="Node000030" class="node">
<title>Node30</title>
<g id="a_Node000030"><a xlink:href="__Ldtob_8c.html#a7cc858157b66e15c831ad085113729ae" target="_top" xlink:title=" ">
<polygon fill="white" stroke="#666666" points="1224,-248.23 1175,-248.23 1175,-229.23 1224,-229.23 1224,-248.23"/>
<text text-anchor="middle" x="1199.5" y="-236.23" font-family="Helvetica,sans-Serif" font-size="10.00">_Ldtob</text>
</a>
</g>
</g>
<!-- Node29&#45;&gt;Node30 -->
<g id="edge34_Node000029_Node000030" class="edge">
<title>Node29&#45;&gt;Node30</title>
<g id="a_edge34_Node000029_Node000030"><a xlink:title=" ">
<path fill="none" stroke="#63b8ff" d="M1089.59,-270.67C1110.58,-264.51 1141.26,-255.52 1164.71,-248.64"/>
<polygon fill="#63b8ff" stroke="#63b8ff" points="1165.98,-251.91 1174.59,-245.74 1164.01,-245.2 1165.98,-251.91"/>
</a>
</g>
</g>
<!-- Node36 -->
<g id="Node000036" class="node">
<title>Node36</title>
<g id="a_Node000036"><a xlink:href="__Litob_8c.html#aaaba3b0ab7920d422a61fe9e22600dd0" target="_top" xlink:title=" ">
<polygon fill="white" stroke="#666666" points="1222.5,-343.23 1176.5,-343.23 1176.5,-324.23 1222.5,-324.23 1222.5,-343.23"/>
<text text-anchor="middle" x="1199.5" y="-331.23" font-family="Helvetica,sans-Serif" font-size="10.00">_Litob</text>
</a>
</g>
</g>
<!-- Node29&#45;&gt;Node36 -->
<g id="edge41_Node000029_Node000036" class="edge">
<title>Node29&#45;&gt;Node36</title>
<g id="a_edge41_Node000029_Node000036"><a xlink:title=" ">
<path fill="none" stroke="#63b8ff" d="M1088.36,-287.36C1110.04,-296.48 1142.78,-310.27 1166.93,-320.44"/>
<polygon fill="#63b8ff" stroke="#63b8ff" points="1165.8,-323.76 1176.38,-324.42 1168.52,-317.31 1165.8,-323.76"/>
</a>
</g>
</g>
<!-- Node31 -->
<g id="Node000031" class="node">
<title>Node31</title>
<g id="a_Node000031"><a xlink:href="__Ldtob_8c.html#a2b6c5318b43bab1636bad9113ffb2761" target="_top" xlink:title=" ">
<polygon fill="white" stroke="#666666" points="1320.5,-267.23 1270.5,-267.23 1270.5,-248.23 1320.5,-248.23 1320.5,-267.23"/>
<text text-anchor="middle" x="1295.5" y="-255.23" font-family="Helvetica,sans-Serif" font-size="10.00">_Genld</text>
</a>
</g>
</g>
<!-- Node30&#45;&gt;Node31 -->
<g id="edge35_Node000030_Node000031" class="edge">
<title>Node30&#45;&gt;Node31</title>
<g id="a_edge35_Node000030_Node000031"><a xlink:title=" ">
<path fill="none" stroke="#63b8ff" d="M1224.22,-243.53C1235.16,-245.74 1248.34,-248.4 1260.33,-250.82"/>
<polygon fill="#63b8ff" stroke="#63b8ff" points="1259.97,-254.32 1270.46,-252.87 1261.35,-247.46 1259.97,-254.32"/>
</a>
</g>
</g>
<!-- Node32 -->
<g id="Node000032" class="node">
<title>Node32</title>
<g id="a_Node000032"><a xlink:href="string_8c.html#ad7f1ae1bbb49dece44bda378982a704d" target="_top" xlink:title=" ">
<polygon fill="white" stroke="#666666" points="1426,-305.23 1367,-305.23 1367,-286.23 1426,-286.23 1426,-305.23"/>
<text text-anchor="middle" x="1396.5" y="-293.23" font-family="Helvetica,sans-Serif" font-size="10.00">memcpy</text>
</a>
</g>
</g>
<!-- Node30&#45;&gt;Node32 -->
<g id="edge39_Node000030_Node000032" class="edge">
<title>Node30&#45;&gt;Node32</title>
<g id="a_edge39_Node000030_Node000032"><a xlink:title=" ">
<path fill="none" stroke="#63b8ff" d="M1212.43,-248.56C1223.89,-257.44 1242.06,-270.11 1260,-276.73 1291.32,-288.3 1329.09,-292.89 1356.79,-294.68"/>
<polygon fill="#63b8ff" stroke="#63b8ff" points="1356.7,-298.18 1366.88,-295.24 1357.08,-291.19 1356.7,-298.18"/>
</a>
</g>
</g>
<!-- Node33 -->
<g id="Node000033" class="node">
<title>Node33</title>
<g id="a_Node000033"><a xlink:href="__Ldtob_8c.html#ab7ade9ce60aaa8baa0244b503351d742" target="_top" xlink:title=" ">
<polygon fill="white" stroke="#666666" points="1331,-230.23 1260,-230.23 1260,-211.23 1331,-211.23 1331,-230.23"/>
<text text-anchor="middle" x="1295.5" y="-218.23" font-family="Helvetica,sans-Serif" font-size="10.00">_Ldunscale</text>
</a>
</g>
</g>
<!-- Node30&#45;&gt;Node33 -->
<g id="edge37_Node000030_Node000033" class="edge">
<title>Node30&#45;&gt;Node33</title>
<g id="a_edge37_Node000030_Node000033"><a xlink:title=" ">
<path fill="none" stroke="#63b8ff" d="M1224.22,-234.19C1232.04,-232.69 1241.02,-230.97 1249.88,-229.28"/>
<polygon fill="#63b8ff" stroke="#63b8ff" points="1250.61,-232.7 1259.77,-227.38 1249.29,-225.82 1250.61,-232.7"/>
</a>
</g>
</g>
<!-- Node34 -->
<g id="Node000034" class="node">
<title>Node34</title>
<g id="a_Node000034"><a xlink:href="ldiv_8c.html#a0302920caf64a5fbe1ce0862799d7784" target="_top" xlink:title=" ">
<polygon fill="white" stroke="#666666" points="1313,-193.23 1278,-193.23 1278,-174.23 1313,-174.23 1313,-193.23"/>
<text text-anchor="middle" x="1295.5" y="-181.23" font-family="Helvetica,sans-Serif" font-size="10.00">ldiv</text>
</a>
</g>
</g>
<!-- Node30&#45;&gt;Node34 -->
<g id="edge38_Node000030_Node000034" class="edge">
<title>Node30&#45;&gt;Node34</title>
<g id="a_edge38_Node000030_Node000034"><a xlink:title=" ">
<path fill="none" stroke="#63b8ff" d="M1216.06,-229.08C1228,-221.73 1244.94,-211.43 1260,-202.73 1262.9,-201.06 1265.96,-199.33 1269,-197.62"/>
<polygon fill="#63b8ff" stroke="#63b8ff" points="1270.87,-200.59 1277.93,-192.68 1267.48,-194.46 1270.87,-200.59"/>
</a>
</g>
</g>
<!-- Node35 -->
<g id="Node000035" class="node">
<title>Node35</title>
<g id="a_Node000035"><a xlink:href="alBnkfNew_8c.html#a96a0200a6b40350e524f536d232ecb53" target="_top" xlink:title=" ">
<polygon fill="white" stroke="#666666" points="1321.5,-156.23 1269.5,-156.23 1269.5,-137.23 1321.5,-137.23 1321.5,-156.23"/>
<text text-anchor="middle" x="1295.5" y="-144.23" font-family="Helvetica,sans-Serif" font-size="10.00">unused</text>
</a>
</g>
</g>
<!-- Node30&#45;&gt;Node35 -->
<g id="edge40_Node000030_Node000035" class="edge">
<title>Node30&#45;&gt;Node35</title>
<g id="a_edge40_Node000030_Node000035"><a xlink:title=" ">
<path fill="none" stroke="#63b8ff" d="M1206.49,-229.23C1216.27,-214.28 1236.9,-185 1260,-165.73 1261.71,-164.31 1263.54,-162.94 1265.43,-161.64"/>
<polygon fill="#63b8ff" stroke="#63b8ff" points="1267.3,-164.6 1273.96,-156.36 1263.61,-158.64 1267.3,-164.6"/>
</a>
</g>
</g>
<!-- Node31&#45;&gt;Node32 -->
<g id="edge36_Node000031_Node000032" class="edge">
<title>Node31&#45;&gt;Node32</title>
<g id="a_edge36_Node000031_Node000032"><a xlink:title=" ">
<path fill="none" stroke="#63b8ff" d="M1320.72,-267.03C1332.88,-271.7 1347.82,-277.43 1361.15,-282.55"/>
<polygon fill="#63b8ff" stroke="#63b8ff" points="1359.91,-285.82 1370.5,-286.13 1362.42,-279.28 1359.91,-285.82"/>
</a>
</g>
</g>
<!-- Node36&#45;&gt;Node32 -->
<g id="edge43_Node000036_Node000032" class="edge">
<title>Node36&#45;&gt;Node32</title>
<g id="a_edge43_Node000036_Node000032"><a xlink:title=" ">
<path fill="none" stroke="#63b8ff" d="M1222.71,-329.87C1248.71,-325.3 1293.05,-317.34 1331,-309.73 1339.48,-308.03 1348.56,-306.12 1357.16,-304.26"/>
<polygon fill="#63b8ff" stroke="#63b8ff" points="1357.94,-307.68 1366.96,-302.13 1356.45,-300.84 1357.94,-307.68"/>
</a>
</g>
</g>
<!-- Node37 -->
<g id="Node000037" class="node">
<title>Node37</title>
<g id="a_Node000037"><a xlink:href="ldiv_8c.html#a5b23c3639f11980dca762c5f1d74f339" target="_top" xlink:title=" ">
<polygon fill="white" stroke="#666666" points="1314.5,-381.23 1276.5,-381.23 1276.5,-362.23 1314.5,-362.23 1314.5,-381.23"/>
<text text-anchor="middle" x="1295.5" y="-369.23" font-family="Helvetica,sans-Serif" font-size="10.00">lldiv</text>
</a>
</g>
</g>
<!-- Node36&#45;&gt;Node37 -->
<g id="edge42_Node000036_Node000037" class="edge">
<title>Node36&#45;&gt;Node37</title>
<g id="a_edge42_Node000036_Node000037"><a xlink:title=" ">
<path fill="none" stroke="#63b8ff" d="M1222.78,-342.74C1235.97,-348.07 1252.8,-354.87 1266.84,-360.55"/>
<polygon fill="#63b8ff" stroke="#63b8ff" points="1265.89,-363.94 1276.47,-364.44 1268.52,-357.45 1265.89,-363.94"/>
</a>
</g>
</g>
<!-- Node40&#45;&gt;Node40 -->
<g id="edge50_Node000040_Node000040" class="edge">
<title>Node40&#45;&gt;Node40</title>
<g id="a_edge50_Node000040_Node000040"><a xlink:title=" ">
<path fill="none" stroke="#63b8ff" d="M658.83,-134.31C644.89,-142.97 654.44,-152.23 687.5,-152.23 710.23,-152.23 721.85,-147.85 722.36,-142.3"/>
<polygon fill="#63b8ff" stroke="#63b8ff" points="725.06,-140.08 716.17,-134.31 719.53,-144.36 725.06,-140.08"/>
</a>
</g>
</g>
<!-- Node41 -->
<g id="Node000041" class="node">
<title>Node41</title>
<g id="a_Node000041"><a xlink:href="FrameInterpolation_8cpp.html#a5fbd67ef553452903cf553b9c224fa76" target="_top" xlink:title=" ">
<polygon fill="white" stroke="#666666" points="948,-139.73 820,-139.73 820,-109.73 948,-109.73 948,-139.73"/>
<text text-anchor="start" x="828" y="-127.73" font-family="Helvetica,sans-Serif" font-size="10.00">FrameInterpolation</text>
<text text-anchor="middle" x="884" y="-116.73" font-family="Helvetica,sans-Serif" font-size="10.00">_Record_SetTextMatrix</text>
</a>
</g>
</g>
<!-- Node40&#45;&gt;Node41 -->
<g id="edge48_Node000040_Node000041" class="edge">
<title>Node40&#45;&gt;Node41</title>
<g id="a_edge48_Node000040_Node000041"><a xlink:title=" ">
<path fill="none" stroke="#63b8ff" d="M729.75,-124.73C752.99,-124.73 782.69,-124.73 809.75,-124.73"/>
<polygon fill="#63b8ff" stroke="#63b8ff" points="809.98,-128.23 819.98,-124.73 809.98,-121.23 809.98,-128.23"/>
</a>
</g>
</g>
<!-- Node41&#45;&gt;Node17 -->
<g id="edge49_Node000041_Node000017" class="edge">
<title>Node41&#45;&gt;Node17</title>
<g id="a_edge49_Node000041_Node000017"><a xlink:title=" ">
<path fill="none" stroke="#63b8ff" d="M928.21,-139.74C958.21,-150.16 997.76,-163.9 1026.34,-173.82"/>
<polygon fill="#63b8ff" stroke="#63b8ff" points="1025.37,-177.19 1035.96,-177.17 1027.66,-170.58 1025.37,-177.19"/>
</a>
</g>
</g>
</g>
</svg>
