<?xml version="1.0" encoding="UTF-8" standalone="no"?>
<!DOCTYPE svg PUBLIC "-//W3C//DTD SVG 1.1//EN"
 "http://www.w3.org/Graphics/SVG/1.1/DTD/svg11.dtd">
<!-- Generated by graphviz version 2.43.0 (0)
 -->
<!-- Title: func_800A6034 Pages: 1 -->
<!--zoomable 552 -->

<svg id="main" version="1.1" xmlns="http://www.w3.org/2000/svg" xmlns:xlink="http://www.w3.org/1999/xlink" xml:space="preserve" onload="init(evt)">

<style type="text/css"><![CDATA[
.node, .edge {opacity: 0.7;}
.node.selected, .edge.selected {opacity: 1;}
.edge:hover path { stroke: red; }
.edge:hover polygon { stroke: red; fill: red; }
]]></style>

<defs>
  <circle id="rim" cx="0" cy="0" r="7"/>
  <circle id="rim2" cx="0" cy="0" r="3.5"/>
  <g id="zoomPlus">
    <use xlink:href="#rim" fill="#404040"><set attributeName="fill" to="#808080" begin="zoomplus.mouseover" end="zoomplus.mouseout"/></use>
    <path d="M-4,0h8M0,-4v8" fill="none" stroke="white" stroke-width="1.5" pointer-events="none"/>
  </g>
  <g id="zoomMin">
    <use xlink:href="#rim" fill="#404040"><set attributeName="fill" to="#808080" begin="zoomminus.mouseover" end="zoomminus.mouseout"/></use>
    <path d="M-4,0h8" fill="none" stroke="white" stroke-width="1.5" pointer-events="none"/>
  </g>
  <g id="arrowUp" transform="translate(30 24)">
    <use xlink:href="#rim"/>
    <path pointer-events="none" fill="none" stroke="white" stroke-width="1.5" d="M0,-3.0v7 M-2.5,-0.5L0,-3.0L2.5,-0.5"/>
  </g>
  <g id="arrowRight" transform="rotate(90) translate(36 -43)">
    <use xlink:href="#rim"/>
    <path pointer-events="none" fill="none" stroke="white" stroke-width="1.5" d="M0,-3.0v7 M-2.5,-0.5L0,-3.0L2.5,-0.5"/>
  </g>
  <g id="arrowDown" transform="rotate(180) translate(-30 -48)">
    <use xlink:href="#rim"/>
    <path pointer-events="none" fill="none" stroke="white" stroke-width="1.5" d="M0,-3.0v7 M-2.5,-0.5L0,-3.0L2.5,-0.5"/>
  </g>
  <g id="arrowLeft" transform="rotate(270) translate(-36 17)">
    <use xlink:href="#rim"/>
    <path pointer-events="none" fill="none" stroke="white" stroke-width="1.5" d="M0,-3.0v7 M-2.5,-0.5L0,-3.0L2.5,-0.5"/>
  </g>
  <g id="resetDef">
    <use xlink:href="#rim2" fill="#404040"><set attributeName="fill" to="#808080" begin="reset.mouseover" end="reset.mouseout"/></use>
  </g>
</defs>
<script type="application/ecmascript">
var viewWidth = 1497;
var viewHeight = 552;
var sectionId = 'dynsection-253';
</script>
<script type="application/ecmascript" xlink:href="svg.min.js"/>
<svg id="graph" class="graph">
<g id="viewport">
<title>func_800A6034</title>
<!-- Node1 -->
<g id="Node000001" class="node">
<title>Node1</title>
<g id="a_Node000001"><a xlink:title=" ">
<polygon fill="#999999" stroke="#666666" points="92,-290 0,-290 0,-271 92,-271 92,-290"/>
<text text-anchor="middle" x="46" y="-278" font-family="Helvetica,sans-Serif" font-size="10.00">func_800A6034</text>
</a>
</g>
</g>
<!-- Node2 -->
<g id="Node000002" class="node">
<title>Node2</title>
<g id="a_Node000002"><a xlink:href="Game_8cpp.html#a3416a195a0c7be6ec3783bbf4842dc3e" target="_top" xlink:title=" ">
<polygon fill="white" stroke="#666666" points="689.5,-491 607.5,-491 607.5,-472 689.5,-472 689.5,-491"/>
<text text-anchor="middle" x="648.5" y="-479" font-family="Helvetica,sans-Serif" font-size="10.00">CM_GetProps</text>
</a>
</g>
</g>
<!-- Node1&#45;&gt;Node2 -->
<g id="edge1_Node000001_Node000002" class="edge">
<title>Node1&#45;&gt;Node2</title>
<g id="a_edge1_Node000001_Node000002"><a xlink:title=" ">
<path fill="none" stroke="#63b8ff" d="M61.41,-290.02C77.22,-300.14 103.6,-316.09 128,-326.5 294.22,-397.41 503.34,-449.14 597.5,-470.58"/>
<polygon fill="#63b8ff" stroke="#63b8ff" points="596.8,-474.01 607.33,-472.8 598.35,-467.18 596.8,-474.01"/>
</a>
</g>
</g>
<!-- Node6 -->
<g id="Node000006" class="node">
<title>Node6</title>
<g id="a_Node000006"><a xlink:href="menu__items_8c.html#a8051db7229d932b267fdec53a1e794eb" target="_top" xlink:title=" ">
<polygon fill="white" stroke="#666666" points="259.5,-317.5 153.5,-317.5 153.5,-287.5 259.5,-287.5 259.5,-317.5"/>
<text text-anchor="start" x="161.5" y="-305.5" font-family="Helvetica,sans-Serif" font-size="10.00">print_text1_center</text>
<text text-anchor="middle" x="206.5" y="-294.5" font-family="Helvetica,sans-Serif" font-size="10.00">_mode_2</text>
</a>
</g>
</g>
<!-- Node1&#45;&gt;Node6 -->
<g id="edge7_Node000001_Node000006" class="edge">
<title>Node1&#45;&gt;Node6</title>
<g id="a_edge7_Node000001_Node000006"><a xlink:title=" ">
<path fill="none" stroke="#63b8ff" d="M92.42,-286.8C108.18,-288.99 126.13,-291.48 143.02,-293.83"/>
<polygon fill="#63b8ff" stroke="#63b8ff" points="142.98,-297.36 153.37,-295.26 143.94,-290.42 142.98,-297.36"/>
</a>
</g>
</g>
<!-- Node43 -->
<g id="Node000043" class="node">
<title>Node43</title>
<g id="a_Node000043"><a xlink:href="menu__items_8c.html#a1a002f259a6c887d6672085b8cda7d4d" target="_top" xlink:title=" ">
<polygon fill="white" stroke="#666666" points="249.5,-269 163.5,-269 163.5,-250 249.5,-250 249.5,-269"/>
<text text-anchor="middle" x="206.5" y="-257" font-family="Helvetica,sans-Serif" font-size="10.00">set_text_color</text>
</a>
</g>
</g>
<!-- Node1&#45;&gt;Node43 -->
<g id="edge56_Node000001_Node000043" class="edge">
<title>Node1&#45;&gt;Node43</title>
<g id="a_edge56_Node000001_Node000043"><a xlink:title=" ">
<path fill="none" stroke="#63b8ff" d="M92.42,-274.48C111.43,-271.96 133.63,-269.02 153.31,-266.42"/>
<polygon fill="#63b8ff" stroke="#63b8ff" points="153.88,-269.87 163.33,-265.09 152.96,-262.93 153.88,-269.87"/>
</a>
</g>
</g>
<!-- Node44 -->
<g id="Node000044" class="node">
<title>Node44</title>
<g id="a_Node000044"><a xlink:href="TrackBrowser_8cpp.html#ab98abf81eec83fff6d7cb13f2802634c" target="_top" xlink:title=" ">
<polygon fill="white" stroke="#666666" points="285,-232 128,-232 128,-213 285,-213 285,-232"/>
<text text-anchor="middle" x="206.5" y="-220" font-family="Helvetica,sans-Serif" font-size="10.00">TrackBrowser_GetTrackIndex</text>
</a>
</g>
</g>
<!-- Node1&#45;&gt;Node44 -->
<g id="edge57_Node000001_Node000044" class="edge">
<title>Node1&#45;&gt;Node44</title>
<g id="a_edge57_Node000001_Node000044"><a xlink:title=" ">
<path fill="none" stroke="#63b8ff" d="M63.57,-270.9C79.6,-261.96 104.81,-248.79 128,-240.5 133.97,-238.36 140.3,-236.41 146.66,-234.65"/>
<polygon fill="#63b8ff" stroke="#63b8ff" points="147.85,-237.96 156.63,-232.04 146.07,-231.19 147.85,-237.96"/>
</a>
</g>
</g>
<!-- Node3 -->
<g id="Node000003" class="node">
<title>Node3</title>
<g id="a_Node000003"><a xlink:href="Game_8cpp.html#a0967ca61e9f768c9e278fef7b8030085" target="_top" xlink:title=" ">
<polygon fill="white" stroke="#666666" points="815.5,-510 756.5,-510 756.5,-491 815.5,-491 815.5,-510"/>
<text text-anchor="middle" x="786" y="-498" font-family="Helvetica,sans-Serif" font-size="10.00">GetTrack</text>
</a>
</g>
</g>
<!-- Node2&#45;&gt;Node3 -->
<g id="edge2_Node000002_Node000003" class="edge">
<title>Node2&#45;&gt;Node3</title>
<g id="a_edge2_Node000002_Node000003"><a xlink:title=" ">
<path fill="none" stroke="#63b8ff" d="M689.79,-487.15C707.66,-489.65 728.59,-492.59 746.27,-495.07"/>
<polygon fill="#63b8ff" stroke="#63b8ff" points="745.87,-498.55 756.26,-496.47 746.85,-491.62 745.87,-498.55"/>
</a>
</g>
</g>
<!-- Node4 -->
<g id="Node000004" class="node">
<title>Node4</title>
<g id="a_Node000004"><a xlink:href="classWorld.html#a1a4dacc6aea0b846df998be0afc239f7" target="_top" xlink:title=" ">
<polygon fill="white" stroke="#666666" points="993.5,-544 900.5,-544 900.5,-525 993.5,-525 993.5,-544"/>
<text text-anchor="middle" x="947" y="-532" font-family="Helvetica,sans-Serif" font-size="10.00">World::GetTrack</text>
</a>
</g>
</g>
<!-- Node2&#45;&gt;Node4 -->
<g id="edge5_Node000002_Node000004" class="edge">
<title>Node2&#45;&gt;Node4</title>
<g id="a_edge5_Node000002_Node000004"><a xlink:title=" ">
<path fill="none" stroke="#63b8ff" d="M666.03,-491.11C682.07,-499.91 707.36,-512.46 731,-518.5 783.88,-532.01 846.27,-535.32 890.18,-535.67"/>
<polygon fill="#63b8ff" stroke="#63b8ff" points="890.36,-539.17 900.37,-535.7 890.38,-532.17 890.36,-539.17"/>
</a>
</g>
</g>
<!-- Node5 -->
<g id="Node000005" class="node">
<title>Node5</title>
<g id="a_Node000005"><a xlink:href="Game_8cpp.html#ae2fa844b3cb1021ecbc357f8ed2ad8cc" target="_top" xlink:title=" ">
<polygon fill="white" stroke="#666666" points="978,-501 916,-501 916,-482 978,-482 978,-501"/>
<text text-anchor="middle" x="947" y="-489" font-family="Helvetica,sans-Serif" font-size="10.00">GetWorld</text>
</a>
</g>
</g>
<!-- Node2&#45;&gt;Node5 -->
<g id="edge6_Node000002_Node000005" class="edge">
<title>Node2&#45;&gt;Node5</title>
<g id="a_edge6_Node000002_Node000005"><a xlink:title=" ">
<path fill="none" stroke="#63b8ff" d="M689.5,-480.4C728.26,-479.59 788.7,-479.01 841,-481.5 862.4,-482.52 886.16,-484.69 905.66,-486.76"/>
<polygon fill="#63b8ff" stroke="#63b8ff" points="905.41,-490.25 915.73,-487.85 906.17,-483.29 905.41,-490.25"/>
</a>
</g>
</g>
<!-- Node3&#45;&gt;Node4 -->
<g id="edge3_Node000003_Node000004" class="edge">
<title>Node3&#45;&gt;Node4</title>
<g id="a_edge3_Node000003_Node000004"><a xlink:title=" ">
<path fill="none" stroke="#63b8ff" d="M815.79,-506.66C836.89,-511.17 866.16,-517.43 891.6,-522.87"/>
<polygon fill="#63b8ff" stroke="#63b8ff" points="890.99,-526.32 901.5,-524.99 892.46,-519.47 890.99,-526.32"/>
</a>
</g>
</g>
<!-- Node3&#45;&gt;Node5 -->
<g id="edge4_Node000003_Node000005" class="edge">
<title>Node3&#45;&gt;Node5</title>
<g id="a_edge4_Node000003_Node000005"><a xlink:title=" ">
<path fill="none" stroke="#63b8ff" d="M815.79,-498.87C840.87,-497.45 877.5,-495.38 905.52,-493.79"/>
<polygon fill="#63b8ff" stroke="#63b8ff" points="906.01,-497.27 915.8,-493.21 905.62,-490.28 906.01,-497.27"/>
</a>
</g>
</g>
<!-- Node7 -->
<g id="Node000007" class="node">
<title>Node7</title>
<g id="a_Node000007"><a xlink:href="menu__items_8c.html#ad2af1a6781c3f0bf246aba0d078ae773" target="_top" xlink:title=" ">
<polygon fill="white" stroke="#666666" points="391,-237 321,-237 321,-218 391,-218 391,-237"/>
<text text-anchor="middle" x="356" y="-225" font-family="Helvetica,sans-Serif" font-size="10.00">print_text1</text>
</a>
</g>
</g>
<!-- Node6&#45;&gt;Node7 -->
<g id="edge8_Node000006_Node000007" class="edge">
<title>Node6&#45;&gt;Node7</title>
<g id="a_edge8_Node000006_Node000007"><a xlink:title=" ">
<path fill="none" stroke="#63b8ff" d="M259.66,-288.12C268.31,-285.05 277.04,-281.5 285,-277.5 303.39,-268.25 322.26,-254.47 335.77,-243.72"/>
<polygon fill="#63b8ff" stroke="#63b8ff" points="338.27,-246.19 343.82,-237.17 333.85,-240.77 338.27,-246.19"/>
</a>
</g>
</g>
<!-- Node8 -->
<g id="Node000008" class="node">
<title>Node8</title>
<g id="a_Node000008"><a xlink:href="menu__items_8c.html#ace62f40ce813c34904327e39643a0dbf" target="_top" xlink:title=" ">
<polygon fill="white" stroke="#666666" points="555,-75 438,-75 438,-56 555,-56 555,-75"/>
<text text-anchor="middle" x="496.5" y="-63" font-family="Helvetica,sans-Serif" font-size="10.00">char_to_glyph_index</text>
</a>
</g>
</g>
<!-- Node7&#45;&gt;Node8 -->
<g id="edge9_Node000007_Node000008" class="edge">
<title>Node7&#45;&gt;Node8</title>
<g id="a_edge9_Node000007_Node000008"><a xlink:title=" ">
<path fill="none" stroke="#63b8ff" d="M360.79,-217.84C369.66,-196.17 393.6,-142.88 427,-108.5 438.1,-97.07 452.82,-87.33 465.76,-80.02"/>
<polygon fill="#63b8ff" stroke="#63b8ff" points="467.67,-82.97 474.8,-75.14 464.34,-76.81 467.67,-82.97"/>
</a>
</g>
</g>
<!-- Node12 -->
<g id="Node000012" class="node">
<title>Node12</title>
<g id="a_Node000012"><a xlink:href="FrameInterpolation_8cpp.html#a14ceaeb116362786310778e36943f7be" target="_top" xlink:title=" ">
<polygon fill="white" stroke="#666666" points="566,-303.5 427,-303.5 427,-273.5 566,-273.5 566,-303.5"/>
<text text-anchor="start" x="435" y="-291.5" font-family="Helvetica,sans-Serif" font-size="10.00">FrameInterpolation</text>
<text text-anchor="middle" x="496.5" y="-280.5" font-family="Helvetica,sans-Serif" font-size="10.00">_ShouldInterpolateFrame</text>
</a>
</g>
</g>
<!-- Node7&#45;&gt;Node12 -->
<g id="edge14_Node000007_Node000012" class="edge">
<title>Node7&#45;&gt;Node12</title>
<g id="a_edge14_Node000007_Node000012"><a xlink:title=" ">
<path fill="none" stroke="#63b8ff" d="M374.25,-237.14C388.25,-244.77 408.6,-255.45 427,-263.5 431.93,-265.66 437.11,-267.79 442.32,-269.84"/>
<polygon fill="#63b8ff" stroke="#63b8ff" points="441.1,-273.12 451.69,-273.44 443.61,-266.58 441.1,-273.12"/>
</a>
</g>
</g>
<!-- Node13 -->
<g id="Node000013" class="node">
<title>Node13</title>
<g id="a_Node000013"><a xlink:href="GBIMiddleware_8cpp.html#a4ecc44e3c6f1ca5a6b4a20c41d3bd2d2" target="_top" xlink:title=" ">
<polygon fill="white" stroke="#666666" points="991.5,-142 902.5,-142 902.5,-123 991.5,-123 991.5,-142"/>
<text text-anchor="middle" x="947" y="-130" font-family="Helvetica,sans-Serif" font-size="10.00">gSPDisplayList</text>
</a>
</g>
</g>
<!-- Node7&#45;&gt;Node13 -->
<g id="edge15_Node000007_Node000013" class="edge">
<title>Node7&#45;&gt;Node13</title>
<g id="a_edge15_Node000007_Node000013"><a xlink:title=" ">
<path fill="none" stroke="#63b8ff" d="M371.06,-217.9C384.73,-209.06 406.38,-196.31 427,-189.5 590.19,-135.61 796.33,-130.28 892.29,-131.14"/>
<polygon fill="#63b8ff" stroke="#63b8ff" points="892.29,-134.64 902.33,-131.26 892.38,-127.64 892.29,-134.64"/>
</a>
</g>
</g>
<!-- Node16 -->
<g id="Node000016" class="node">
<title>Node16</title>
<g id="a_Node000016"><a xlink:href="menu__items_8c.html#a68e560d23390d5add7cb57ccd82e21ae" target="_top" xlink:title=" ">
<polygon fill="white" stroke="#666666" points="544,-255 449,-255 449,-236 544,-236 544,-255"/>
<text text-anchor="middle" x="496.5" y="-243" font-family="Helvetica,sans-Serif" font-size="10.00">load_menu_img</text>
</a>
</g>
</g>
<!-- Node7&#45;&gt;Node16 -->
<g id="edge18_Node000007_Node000016" class="edge">
<title>Node7&#45;&gt;Node16</title>
<g id="a_edge18_Node000007_Node000016"><a xlink:title=" ">
<path fill="none" stroke="#63b8ff" d="M391.24,-231.95C405.5,-233.8 422.44,-236.01 438.48,-238.09"/>
<polygon fill="#63b8ff" stroke="#63b8ff" points="438.49,-241.62 448.86,-239.44 439.39,-234.68 438.49,-241.62"/>
</a>
</g>
</g>
<!-- Node18 -->
<g id="Node000018" class="node">
<title>Node18</title>
<g id="a_Node000018"><a xlink:href="menu__items_8c.html#aafca6e35a19465ad361e68b13e467243" target="_top" xlink:title=" ">
<polygon fill="white" stroke="#666666" points="532,-218 461,-218 461,-199 532,-199 532,-218"/>
<text text-anchor="middle" x="496.5" y="-206" font-family="Helvetica,sans-Serif" font-size="10.00">print_letter</text>
</a>
</g>
</g>
<!-- Node7&#45;&gt;Node18 -->
<g id="edge20_Node000007_Node000018" class="edge">
<title>Node7&#45;&gt;Node18</title>
<g id="a_edge20_Node000007_Node000018"><a xlink:title=" ">
<path fill="none" stroke="#63b8ff" d="M391.24,-222.8C409.16,-220.34 431.34,-217.3 450.62,-214.66"/>
<polygon fill="#63b8ff" stroke="#63b8ff" points="451.26,-218.1 460.7,-213.27 450.31,-211.17 451.26,-218.1"/>
</a>
</g>
</g>
<!-- Node9 -->
<g id="Node000009" class="node">
<title>Node9</title>
<g id="a_Node000009"><a xlink:href="menu__items_8c.html#ae8ba1b567dba01ff15c64d416653a70b" target="_top" xlink:title=" ">
<polygon fill="white" stroke="#666666" points="694.5,-56 602.5,-56 602.5,-37 694.5,-37 694.5,-56"/>
<text text-anchor="middle" x="648.5" y="-44" font-family="Helvetica,sans-Serif" font-size="10.00">func_80092DF8</text>
</a>
</g>
</g>
<!-- Node8&#45;&gt;Node9 -->
<g id="edge10_Node000008_Node000009" class="edge">
<title>Node8&#45;&gt;Node9</title>
<g id="a_edge10_Node000008_Node000009"><a xlink:title=" ">
<path fill="none" stroke="#63b8ff" d="M555.06,-58.21C567.33,-56.66 580.25,-55.02 592.42,-53.48"/>
<polygon fill="#63b8ff" stroke="#63b8ff" points="592.95,-56.94 602.43,-52.21 592.07,-49.99 592.95,-56.94"/>
</a>
</g>
</g>
<!-- Node10 -->
<g id="Node000010" class="node">
<title>Node10</title>
<g id="a_Node000010"><a xlink:href="menu__items_8c.html#acd5b29a8e8634aa4f3db4b9a7c5ba033" target="_top" xlink:title=" ">
<polygon fill="white" stroke="#666666" points="832,-75 740,-75 740,-56 832,-56 832,-75"/>
<text text-anchor="middle" x="786" y="-63" font-family="Helvetica,sans-Serif" font-size="10.00">func_80092E1C</text>
</a>
</g>
</g>
<!-- Node8&#45;&gt;Node10 -->
<g id="edge12_Node000008_Node000010" class="edge">
<title>Node8&#45;&gt;Node10</title>
<g id="a_edge12_Node000008_Node000010"><a xlink:title=" ">
<path fill="none" stroke="#63b8ff" d="M555.33,-65.5C606.16,-65.5 679.62,-65.5 729.68,-65.5"/>
<polygon fill="#63b8ff" stroke="#63b8ff" points="729.99,-69 739.99,-65.5 729.99,-62 729.99,-69"/>
</a>
</g>
</g>
<!-- Node11 -->
<g id="Node000011" class="node">
<title>Node11</title>
<g id="a_Node000011"><a xlink:href="menu__items_8c.html#ab26c8dca1828cd1d5a6c341cb851f0b9" target="_top" xlink:title=" ">
<polygon fill="white" stroke="#666666" points="694,-19 603,-19 603,0 694,0 694,-19"/>
<text text-anchor="middle" x="648.5" y="-7" font-family="Helvetica,sans-Serif" font-size="10.00">func_80092EE4</text>
</a>
</g>
</g>
<!-- Node8&#45;&gt;Node11 -->
<g id="edge13_Node000008_Node000011" class="edge">
<title>Node8&#45;&gt;Node11</title>
<g id="a_edge13_Node000008_Node000011"><a xlink:title=" ">
<path fill="none" stroke="#63b8ff" d="M523.29,-55.87C547.9,-46.68 585.19,-32.76 612.49,-22.57"/>
<polygon fill="#63b8ff" stroke="#63b8ff" points="613.91,-25.78 622.05,-19 611.46,-19.22 613.91,-25.78"/>
</a>
</g>
</g>
<!-- Node9&#45;&gt;Node10 -->
<g id="edge11_Node000009_Node000010" class="edge">
<title>Node9&#45;&gt;Node10</title>
<g id="a_edge11_Node000009_Node000010"><a xlink:title=" ">
<path fill="none" stroke="#63b8ff" d="M694.62,-52.83C705.81,-54.4 717.94,-56.1 729.56,-57.73"/>
<polygon fill="#63b8ff" stroke="#63b8ff" points="729.23,-61.21 739.62,-59.14 730.2,-54.28 729.23,-61.21"/>
</a>
</g>
</g>
<!-- Node14 -->
<g id="Node000014" class="node">
<title>Node14</title>
<g id="a_Node000014"><a xlink:href="Engine_8cpp.html#a223c8bc63f228dc11177515e38eff2db" target="_top" xlink:title=" ">
<polygon fill="white" stroke="#666666" points="1202,-179 1053,-179 1053,-160 1202,-160 1202,-179"/>
<text text-anchor="middle" x="1127.5" y="-167" font-family="Helvetica,sans-Serif" font-size="10.00">GameEngine_OTRSigCheck</text>
</a>
</g>
</g>
<!-- Node13&#45;&gt;Node14 -->
<g id="edge16_Node000013_Node000014" class="edge">
<title>Node13&#45;&gt;Node14</title>
<g id="a_edge16_Node000013_Node000014"><a xlink:title=" ">
<path fill="none" stroke="#63b8ff" d="M991.67,-141.55C1015.45,-146.48 1045.13,-152.63 1070.59,-157.91"/>
<polygon fill="#63b8ff" stroke="#63b8ff" points="1069.98,-161.36 1080.48,-159.96 1071.4,-154.5 1069.98,-161.36"/>
</a>
</g>
</g>
<!-- Node15 -->
<g id="Node000015" class="node">
<title>Node15</title>
<g id="a_Node000015"><a xlink:href="string_8c.html#a008e171a518fe0e0352f31b245e03875" target="_top" xlink:title=" ">
<polygon fill="white" stroke="#666666" points="1284.5,-197 1240.5,-197 1240.5,-178 1284.5,-178 1284.5,-197"/>
<text text-anchor="middle" x="1262.5" y="-185" font-family="Helvetica,sans-Serif" font-size="10.00">strlen</text>
</a>
</g>
</g>
<!-- Node14&#45;&gt;Node15 -->
<g id="edge17_Node000014_Node000015" class="edge">
<title>Node14&#45;&gt;Node15</title>
<g id="a_edge17_Node000014_Node000015"><a xlink:title=" ">
<path fill="none" stroke="#63b8ff" d="M1198.89,-179.03C1209.94,-180.52 1220.84,-182 1230.38,-183.29"/>
<polygon fill="#63b8ff" stroke="#63b8ff" points="1230.12,-186.78 1240.49,-184.66 1231.05,-179.85 1230.12,-186.78"/>
</a>
</g>
</g>
<!-- Node17 -->
<g id="Node000017" class="node">
<title>Node17</title>
<g id="a_Node000017"><a xlink:href="menu__items_8c.html#a248768ee2e4ca9ae9cf0a30bfb256859" target="_top" xlink:title=" ">
<polygon fill="white" stroke="#666666" points="687.5,-304 609.5,-304 609.5,-285 687.5,-285 687.5,-304"/>
<text text-anchor="middle" x="648.5" y="-292" font-family="Helvetica,sans-Serif" font-size="10.00">load_texture</text>
</a>
</g>
</g>
<!-- Node16&#45;&gt;Node17 -->
<g id="edge19_Node000016_Node000017" class="edge">
<title>Node16&#45;&gt;Node17</title>
<g id="a_edge19_Node000016_Node000017"><a xlink:title=" ">
<path fill="none" stroke="#63b8ff" d="M533.93,-255.01C544.34,-257.88 555.66,-261.17 566,-264.5 581.74,-269.57 598.96,-275.8 613.49,-281.27"/>
<polygon fill="#63b8ff" stroke="#63b8ff" points="612.48,-284.63 623.07,-284.91 614.97,-278.09 612.48,-284.63"/>
</a>
</g>
</g>
<!-- Node18&#45;&gt;Node13 -->
<g id="edge55_Node000018_Node000013" class="edge">
<title>Node18&#45;&gt;Node13</title>
<g id="a_edge55_Node000018_Node000013"><a xlink:title=" ">
<path fill="none" stroke="#63b8ff" d="M532.32,-202.6C610.28,-189.39 799.32,-157.36 892.4,-141.58"/>
<polygon fill="#63b8ff" stroke="#63b8ff" points="893.18,-145 902.46,-139.88 892.01,-138.1 893.18,-145"/>
</a>
</g>
</g>
<!-- Node19 -->
<g id="Node000019" class="node">
<title>Node19</title>
<g id="a_Node000019"><a xlink:href="menu__items_8c.html#a37eb021a953285ba504198ac6ca73a9a" target="_top" xlink:title=" ">
<polygon fill="white" stroke="#666666" points="695,-267 602,-267 602,-248 695,-248 695,-267"/>
<text text-anchor="middle" x="648.5" y="-255" font-family="Helvetica,sans-Serif" font-size="10.00">func_80095BD0</text>
</a>
</g>
</g>
<!-- Node18&#45;&gt;Node19 -->
<g id="edge21_Node000018_Node000019" class="edge">
<title>Node18&#45;&gt;Node19</title>
<g id="a_edge21_Node000018_Node000019"><a xlink:title=" ">
<path fill="none" stroke="#63b8ff" d="M532.2,-216.85C543.09,-219.68 555.11,-223.01 566,-226.5 582.16,-231.68 599.8,-238.27 614.52,-244.04"/>
<polygon fill="#63b8ff" stroke="#63b8ff" points="613.61,-247.44 624.2,-247.88 616.19,-240.94 613.61,-247.44"/>
</a>
</g>
</g>
<!-- Node20 -->
<g id="Node000020" class="node">
<title>Node20</title>
<g id="a_Node000020"><a xlink:href="Matrix_8cpp.html#a6f64c44efb9bdfff802175a9739ce1f1" target="_top" xlink:title=" ">
<polygon fill="white" stroke="#666666" points="829.5,-379 742.5,-379 742.5,-360 829.5,-360 829.5,-379"/>
<text text-anchor="middle" x="786" y="-367" font-family="Helvetica,sans-Serif" font-size="10.00">AddTextMatrix</text>
</a>
</g>
</g>
<!-- Node19&#45;&gt;Node20 -->
<g id="edge22_Node000019_Node000020" class="edge">
<title>Node19&#45;&gt;Node20</title>
<g id="a_edge22_Node000019_Node000020"><a xlink:title=" ">
<path fill="none" stroke="#63b8ff" d="M682.58,-267.12C687.09,-269.38 691.39,-272.14 695,-275.5 722.05,-300.7 703.47,-325.82 731,-350.5 732.74,-352.06 734.62,-353.5 736.6,-354.82"/>
<polygon fill="#63b8ff" stroke="#63b8ff" points="735.32,-358.11 745.76,-359.89 738.71,-351.98 735.32,-358.11"/>
</a>
</g>
</g>
<!-- Node24 -->
<g id="Node000024" class="node">
<title>Node24</title>
<g id="a_Node000024"><a xlink:href="FrameInterpolation_8cpp.html#a3a036bc9d533e28a4e9697cd20dccf3e" target="_top" xlink:title=" ">
<polygon fill="white" stroke="#666666" points="841,-341.5 731,-341.5 731,-311.5 841,-311.5 841,-341.5"/>
<text text-anchor="start" x="739" y="-329.5" font-family="Helvetica,sans-Serif" font-size="10.00">FrameInterpolation</text>
<text text-anchor="middle" x="786" y="-318.5" font-family="Helvetica,sans-Serif" font-size="10.00">_RecordCloseChild</text>
</a>
</g>
</g>
<!-- Node19&#45;&gt;Node24 -->
<g id="edge27_Node000019_Node000024" class="edge">
<title>Node19&#45;&gt;Node24</title>
<g id="a_edge27_Node000019_Node000024"><a xlink:title=" ">
<path fill="none" stroke="#63b8ff" d="M676.99,-267.01C683.07,-269.48 689.37,-272.35 695,-275.5 712.45,-285.27 713.75,-292.37 731,-302.5 733.61,-304.03 736.34,-305.53 739.13,-306.99"/>
<polygon fill="#63b8ff" stroke="#63b8ff" points="737.62,-310.15 748.13,-311.45 740.73,-303.87 737.62,-310.15"/>
</a>
</g>
</g>
<!-- Node25 -->
<g id="Node000025" class="node">
<title>Node25</title>
<g id="a_Node000025"><a xlink:href="FrameInterpolation_8cpp.html#a0eda726b74eac815af4e874014e2727c" target="_top" xlink:title=" ">
<polygon fill="white" stroke="#666666" points="841,-293.5 731,-293.5 731,-263.5 841,-263.5 841,-293.5"/>
<text text-anchor="start" x="739" y="-281.5" font-family="Helvetica,sans-Serif" font-size="10.00">FrameInterpolation</text>
<text text-anchor="middle" x="786" y="-270.5" font-family="Helvetica,sans-Serif" font-size="10.00">_RecordOpenChild</text>
</a>
</g>
</g>
<!-- Node19&#45;&gt;Node25 -->
<g id="edge29_Node000019_Node000025" class="edge">
<title>Node19&#45;&gt;Node25</title>
<g id="a_edge29_Node000019_Node000025"><a xlink:title=" ">
<path fill="none" stroke="#63b8ff" d="M695.37,-264.61C703.54,-265.88 712.18,-267.21 720.75,-268.54"/>
<polygon fill="#63b8ff" stroke="#63b8ff" points="720.32,-272.02 730.74,-270.09 721.39,-265.1 720.32,-272.02"/>
</a>
</g>
</g>
<!-- Node26 -->
<g id="Node000026" class="node">
<title>Node26</title>
<g id="a_Node000026"><a xlink:href="menu__items_8c.html#ae0fd5923ba70cf6939cd3fa8d09c1191" target="_top" xlink:title=" ">
<polygon fill="white" stroke="#666666" points="831.5,-208 740.5,-208 740.5,-189 831.5,-189 831.5,-208"/>
<text text-anchor="middle" x="786" y="-196" font-family="Helvetica,sans-Serif" font-size="10.00">func_800959F8</text>
</a>
</g>
</g>
<!-- Node19&#45;&gt;Node26 -->
<g id="edge31_Node000019_Node000026" class="edge">
<title>Node19&#45;&gt;Node26</title>
<g id="a_edge31_Node000019_Node000026"><a xlink:title=" ">
<path fill="none" stroke="#63b8ff" d="M666.65,-247.96C682.91,-239.13 708.18,-225.98 731,-216.5 735.22,-214.75 739.68,-213.04 744.15,-211.42"/>
<polygon fill="#63b8ff" stroke="#63b8ff" points="745.59,-214.62 753.88,-208.02 743.28,-208.01 745.59,-214.62"/>
</a>
</g>
</g>
<!-- Node28 -->
<g id="Node000028" class="node">
<title>Node28</title>
<g id="a_Node000028"><a xlink:href="stubs_8c.html#a8b417b868747c80d58f83d8a1e78ecf3" target="_top" xlink:title=" ">
<polygon fill="white" stroke="#666666" points="820,-245 752,-245 752,-226 820,-226 820,-245"/>
<text text-anchor="middle" x="786" y="-233" font-family="Helvetica,sans-Serif" font-size="10.00">rmonPrintf</text>
</a>
</g>
</g>
<!-- Node19&#45;&gt;Node28 -->
<g id="edge35_Node000019_Node000028" class="edge">
<title>Node19&#45;&gt;Node28</title>
<g id="a_edge35_Node000019_Node000028"><a xlink:title=" ">
<path fill="none" stroke="#63b8ff" d="M695.37,-250.05C710.35,-247.62 726.91,-244.93 741.69,-242.53"/>
<polygon fill="#63b8ff" stroke="#63b8ff" points="742.28,-245.98 751.59,-240.92 741.16,-239.07 742.28,-245.98"/>
</a>
</g>
</g>
<!-- Node41 -->
<g id="Node000041" class="node">
<title>Node41</title>
<g id="a_Node000041"><a xlink:href="Matrix_8cpp.html#a9818099a1ee20606a7d622e744846366" target="_top" xlink:title=" ">
<polygon fill="white" stroke="#666666" points="828,-416 744,-416 744,-397 828,-397 828,-416"/>
<text text-anchor="middle" x="786" y="-404" font-family="Helvetica,sans-Serif" font-size="10.00">SetTextMatrix</text>
</a>
</g>
</g>
<!-- Node19&#45;&gt;Node41 -->
<g id="edge51_Node000019_Node000041" class="edge">
<title>Node19&#45;&gt;Node41</title>
<g id="a_edge51_Node000019_Node000041"><a xlink:title=" ">
<path fill="none" stroke="#63b8ff" d="M683.92,-267.18C688.03,-269.41 691.86,-272.15 695,-275.5 730.74,-313.67 694.54,-350.03 731,-387.5 732.43,-388.97 733.98,-390.32 735.62,-391.58"/>
<polygon fill="#63b8ff" stroke="#63b8ff" points="734.1,-394.75 744.46,-397 737.76,-388.79 734.1,-394.75"/>
</a>
</g>
</g>
<!-- Node20&#45;&gt;Node5 -->
<g id="edge25_Node000020_Node000005" class="edge">
<title>Node20&#45;&gt;Node5</title>
<g id="a_edge25_Node000020_Node000005"><a xlink:title=" ">
<path fill="none" stroke="#63b8ff" d="M828.3,-379.06C832.93,-381.31 837.3,-384.08 841,-387.5 871.13,-415.34 846.14,-445.47 877,-472.5 885.07,-479.57 895.56,-484.04 905.9,-486.85"/>
<polygon fill="#63b8ff" stroke="#63b8ff" points="905.17,-490.27 915.7,-489.06 906.72,-483.44 905.17,-490.27"/>
</a>
</g>
</g>
<!-- Node21 -->
<g id="Node000021" class="node">
<title>Node21</title>
<g id="a_Node000021"><a xlink:href="FrameInterpolation_8cpp.html#a8cf1f2d6fabc6925aa71a9515341b4aa" target="_top" xlink:title=" ">
<polygon fill="white" stroke="#666666" points="1017,-415.5 877,-415.5 877,-385.5 1017,-385.5 1017,-415.5"/>
<text text-anchor="start" x="885" y="-403.5" font-family="Helvetica,sans-Serif" font-size="10.00">FrameInterpolation</text>
<text text-anchor="middle" x="947" y="-392.5" font-family="Helvetica,sans-Serif" font-size="10.00">_RecordMatrixMtxFToMtx</text>
</a>
</g>
</g>
<!-- Node20&#45;&gt;Node21 -->
<g id="edge23_Node000020_Node000021" class="edge">
<title>Node20&#45;&gt;Node21</title>
<g id="a_edge23_Node000020_Node000021"><a xlink:title=" ">
<path fill="none" stroke="#63b8ff" d="M829.61,-377.81C841.19,-380.07 854.11,-382.59 867.02,-385.1"/>
<polygon fill="#63b8ff" stroke="#63b8ff" points="866.38,-388.54 876.86,-387.02 867.72,-381.67 866.38,-388.54"/>
</a>
</g>
</g>
<!-- Node23 -->
<g id="Node000023" class="node">
<title>Node23</title>
<g id="a_Node000023"><a xlink:href="guMtxF2L_8c.html#a40ab2d64c609839ff1e0ef0de2d0dcc4" target="_top" xlink:title=" ">
<polygon fill="white" stroke="#666666" points="979.5,-367 914.5,-367 914.5,-348 979.5,-348 979.5,-367"/>
<text text-anchor="middle" x="947" y="-355" font-family="Helvetica,sans-Serif" font-size="10.00">guMtxF2L</text>
</a>
</g>
</g>
<!-- Node20&#45;&gt;Node23 -->
<g id="edge26_Node000020_Node000023" class="edge">
<title>Node20&#45;&gt;Node23</title>
<g id="a_edge26_Node000020_Node000023"><a xlink:title=" ">
<path fill="none" stroke="#63b8ff" d="M829.61,-366.28C852.74,-364.54 881.23,-362.39 904.23,-360.65"/>
<polygon fill="#63b8ff" stroke="#63b8ff" points="904.67,-364.13 914.38,-359.89 904.14,-357.15 904.67,-364.13"/>
</a>
</g>
</g>
<!-- Node22 -->
<g id="Node000022" class="node">
<title>Node22</title>
<g id="a_Node000022"><a xlink:href="FrameInterpolation_8cpp.html#a02c7ac5342a4d376edee38f312b480bf" target="_top" xlink:title=" ">
<polygon fill="white" stroke="#666666" points="1181.5,-369 1073.5,-369 1073.5,-350 1181.5,-350 1181.5,-369"/>
<text text-anchor="middle" x="1127.5" y="-357" font-family="Helvetica,sans-Serif" font-size="10.00">check_if_recording</text>
</a>
</g>
</g>
<!-- Node21&#45;&gt;Node22 -->
<g id="edge24_Node000021_Node000022" class="edge">
<title>Node21&#45;&gt;Node22</title>
<g id="a_edge24_Node000021_Node000022"><a xlink:title=" ">
<path fill="none" stroke="#63b8ff" d="M1013.45,-385.47C1033.79,-380.8 1055.9,-375.72 1075.13,-371.3"/>
<polygon fill="#63b8ff" stroke="#63b8ff" points="1075.94,-374.7 1084.9,-369.05 1074.37,-367.88 1075.94,-374.7"/>
</a>
</g>
</g>
<!-- Node24&#45;&gt;Node22 -->
<g id="edge28_Node000024_Node000022" class="edge">
<title>Node24&#45;&gt;Node22</title>
<g id="a_edge28_Node000024_Node000022"><a xlink:title=" ">
<path fill="none" stroke="#63b8ff" d="M841.09,-327.23C887.81,-328.36 957.06,-331.22 1017,-338.5 1035.72,-340.77 1056.05,-344.36 1074.05,-347.93"/>
<polygon fill="#63b8ff" stroke="#63b8ff" points="1073.58,-351.4 1084.07,-349.96 1074.97,-344.54 1073.58,-351.4"/>
</a>
</g>
</g>
<!-- Node25&#45;&gt;Node22 -->
<g id="edge30_Node000025_Node000022" class="edge">
<title>Node25&#45;&gt;Node22</title>
<g id="a_edge30_Node000025_Node000022"><a xlink:title=" ">
<path fill="none" stroke="#63b8ff" d="M841.3,-287.59C888.15,-295.85 957.47,-309.09 1017,-324.5 1041.52,-330.85 1068.64,-339.5 1089.75,-346.62"/>
<polygon fill="#63b8ff" stroke="#63b8ff" points="1088.7,-349.96 1099.3,-349.87 1090.96,-343.33 1088.7,-349.96"/>
</a>
</g>
</g>
<!-- Node26&#45;&gt;Node13 -->
<g id="edge32_Node000026_Node000013" class="edge">
<title>Node26&#45;&gt;Node13</title>
<g id="a_edge32_Node000026_Node000013"><a xlink:title=" ">
<path fill="none" stroke="#63b8ff" d="M810.81,-188.95C820.37,-184.85 831.38,-179.79 841,-174.5 857.85,-165.23 859.45,-158.37 877,-150.5 881.94,-148.28 887.21,-146.3 892.55,-144.53"/>
<polygon fill="#63b8ff" stroke="#63b8ff" points="893.64,-147.86 902.18,-141.58 891.59,-141.16 893.64,-147.86"/>
</a>
</g>
</g>
<!-- Node27 -->
<g id="Node000027" class="node">
<title>Node27</title>
<g id="a_Node000027"><a xlink:href="GBIMiddleware_8cpp.html#aeef79449a27a710d73576e4a4f7f7f99" target="_top" xlink:title=" ">
<polygon fill="white" stroke="#666666" points="980,-179 914,-179 914,-160 980,-160 980,-179"/>
<text text-anchor="middle" x="947" y="-167" font-family="Helvetica,sans-Serif" font-size="10.00">gSPVertex</text>
</a>
</g>
</g>
<!-- Node26&#45;&gt;Node27 -->
<g id="edge33_Node000026_Node000027" class="edge">
<title>Node26&#45;&gt;Node27</title>
<g id="a_edge33_Node000026_Node000027"><a xlink:title=" ">
<path fill="none" stroke="#63b8ff" d="M831.71,-190.34C854.23,-186.24 881.39,-181.28 903.58,-177.24"/>
<polygon fill="#63b8ff" stroke="#63b8ff" points="904.5,-180.63 913.71,-175.39 903.25,-173.74 904.5,-180.63"/>
</a>
</g>
</g>
<!-- Node27&#45;&gt;Node14 -->
<g id="edge34_Node000027_Node000014" class="edge">
<title>Node27&#45;&gt;Node14</title>
<g id="a_edge34_Node000027_Node000014"><a xlink:title=" ">
<path fill="none" stroke="#63b8ff" d="M980.33,-169.5C997.92,-169.5 1020.59,-169.5 1042.8,-169.5"/>
<polygon fill="#63b8ff" stroke="#63b8ff" points="1042.95,-173 1052.95,-169.5 1042.95,-166 1042.95,-173"/>
</a>
</g>
</g>
<!-- Node29 -->
<g id="Node000029" class="node">
<title>Node29</title>
<g id="a_Node000029"><a xlink:href="__Printf_8c.html#a39bb05c90efce6c6790c5d58d271d72d" target="_top" xlink:title=" ">
<polygon fill="white" stroke="#666666" points="971,-253 923,-253 923,-234 971,-234 971,-253"/>
<text text-anchor="middle" x="947" y="-241" font-family="Helvetica,sans-Serif" font-size="10.00">_Printf</text>
</a>
</g>
</g>
<!-- Node28&#45;&gt;Node29 -->
<g id="edge36_Node000028_Node000029" class="edge">
<title>Node28&#45;&gt;Node29</title>
<g id="a_edge36_Node000028_Node000029"><a xlink:title=" ">
<path fill="none" stroke="#63b8ff" d="M820.33,-237.18C847.5,-238.54 885.69,-240.47 912.82,-241.83"/>
<polygon fill="#63b8ff" stroke="#63b8ff" points="912.82,-245.34 922.99,-242.34 913.18,-238.34 912.82,-245.34"/>
</a>
</g>
</g>
<!-- Node40 -->
<g id="Node000040" class="node">
<title>Node40</title>
<g id="a_Node000040"><a xlink:href="is__debug_8c.html#aaccfac8d9098530b6592eefe679d86b4" target="_top" xlink:title=" ">
<polygon fill="white" stroke="#666666" points="999.5,-216 894.5,-216 894.5,-197 999.5,-197 999.5,-216"/>
<text text-anchor="middle" x="947" y="-204" font-family="Helvetica,sans-Serif" font-size="10.00">is_proutSyncPrintf</text>
</a>
</g>
</g>
<!-- Node28&#45;&gt;Node40 -->
<g id="edge50_Node000028_Node000040" class="edge">
<title>Node28&#45;&gt;Node40</title>
<g id="a_edge50_Node000028_Node000040"><a xlink:title=" ">
<path fill="none" stroke="#63b8ff" d="M820.33,-229.42C838.89,-226.04 862.58,-221.71 884.38,-217.74"/>
<polygon fill="#63b8ff" stroke="#63b8ff" points="885.03,-221.18 894.24,-215.94 883.78,-214.29 885.03,-221.18"/>
</a>
</g>
</g>
<!-- Node30 -->
<g id="Node000030" class="node">
<title>Node30</title>
<g id="a_Node000030"><a xlink:href="__Printf_8c.html#ad73a5847f2d7c9de14cc2723da86bf45" target="_top" xlink:title=" ">
<polygon fill="white" stroke="#666666" points="1152.5,-253 1102.5,-253 1102.5,-234 1152.5,-234 1152.5,-253"/>
<text text-anchor="middle" x="1127.5" y="-241" font-family="Helvetica,sans-Serif" font-size="10.00">_Putfld</text>
</a>
</g>
</g>
<!-- Node29&#45;&gt;Node30 -->
<g id="edge37_Node000029_Node000030" class="edge">
<title>Node29&#45;&gt;Node30</title>
<g id="a_edge37_Node000029_Node000030"><a xlink:title=" ">
<path fill="none" stroke="#63b8ff" d="M971.34,-243.5C1002.08,-243.5 1056.41,-243.5 1091.93,-243.5"/>
<polygon fill="#63b8ff" stroke="#63b8ff" points="1092.3,-247 1102.3,-243.5 1092.3,-240 1092.3,-247"/>
</a>
</g>
</g>
<!-- Node39 -->
<g id="Node000039" class="node">
<title>Node39</title>
<g id="a_Node000039"><a xlink:href="string_8c.html#a988b4defe51a1815ef3b9ddab10e7a89" target="_top" xlink:title=" ">
<polygon fill="white" stroke="#666666" points="1149.5,-216 1105.5,-216 1105.5,-197 1149.5,-197 1149.5,-216"/>
<text text-anchor="middle" x="1127.5" y="-204" font-family="Helvetica,sans-Serif" font-size="10.00">strchr</text>
</a>
</g>
</g>
<!-- Node29&#45;&gt;Node39 -->
<g id="edge49_Node000029_Node000039" class="edge">
<title>Node29&#45;&gt;Node39</title>
<g id="a_edge49_Node000029_Node000039"><a xlink:title=" ">
<path fill="none" stroke="#63b8ff" d="M971.34,-238.66C1003.02,-232.09 1059.76,-220.33 1095.14,-213"/>
<polygon fill="#63b8ff" stroke="#63b8ff" points="1096.3,-216.33 1105.38,-210.88 1094.88,-209.48 1096.3,-216.33"/>
</a>
</g>
</g>
<!-- Node30&#45;&gt;Node15 -->
<g id="edge48_Node000030_Node000015" class="edge">
<title>Node30&#45;&gt;Node15</title>
<g id="a_edge48_Node000030_Node000015"><a xlink:title=" ">
<path fill="none" stroke="#63b8ff" d="M1152.61,-239.2C1167.25,-236.11 1186.13,-231.3 1202,-224.5 1215.28,-218.81 1229.04,-210.44 1239.98,-203.1"/>
<polygon fill="#63b8ff" stroke="#63b8ff" points="1242.2,-205.82 1248.43,-197.25 1238.22,-200.06 1242.2,-205.82"/>
</a>
</g>
</g>
<!-- Node31 -->
<g id="Node000031" class="node">
<title>Node31</title>
<g id="a_Node000031"><a xlink:href="__Ldtob_8c.html#a7cc858157b66e15c831ad085113729ae" target="_top" xlink:title=" ">
<polygon fill="white" stroke="#666666" points="1287,-243 1238,-243 1238,-224 1287,-224 1287,-243"/>
<text text-anchor="middle" x="1262.5" y="-231" font-family="Helvetica,sans-Serif" font-size="10.00">_Ldtob</text>
</a>
</g>
</g>
<!-- Node30&#45;&gt;Node31 -->
<g id="edge38_Node000030_Node000031" class="edge">
<title>Node30&#45;&gt;Node31</title>
<g id="a_edge38_Node000030_Node000031"><a xlink:title=" ">
<path fill="none" stroke="#63b8ff" d="M1152.59,-241.69C1173.49,-240.12 1203.99,-237.82 1227.4,-236.06"/>
<polygon fill="#63b8ff" stroke="#63b8ff" points="1227.88,-239.54 1237.59,-235.3 1227.36,-232.56 1227.88,-239.54"/>
</a>
</g>
</g>
<!-- Node37 -->
<g id="Node000037" class="node">
<title>Node37</title>
<g id="a_Node000037"><a xlink:href="__Litob_8c.html#aaaba3b0ab7920d422a61fe9e22600dd0" target="_top" xlink:title=" ">
<polygon fill="white" stroke="#666666" points="1285.5,-337 1239.5,-337 1239.5,-318 1285.5,-318 1285.5,-337"/>
<text text-anchor="middle" x="1262.5" y="-325" font-family="Helvetica,sans-Serif" font-size="10.00">_Litob</text>
</a>
</g>
</g>
<!-- Node30&#45;&gt;Node37 -->
<g id="edge45_Node000030_Node000037" class="edge">
<title>Node30&#45;&gt;Node37</title>
<g id="a_edge45_Node000030_Node000037"><a xlink:title=" ">
<path fill="none" stroke="#63b8ff" d="M1143.76,-253.14C1166.81,-267.69 1210.7,-295.41 1237.89,-312.59"/>
<polygon fill="#63b8ff" stroke="#63b8ff" points="1236.1,-315.6 1246.42,-317.98 1239.84,-309.68 1236.1,-315.6"/>
</a>
</g>
</g>
<!-- Node32 -->
<g id="Node000032" class="node">
<title>Node32</title>
<g id="a_Node000032"><a xlink:href="__Ldtob_8c.html#a2b6c5318b43bab1636bad9113ffb2761" target="_top" xlink:title=" ">
<polygon fill="white" stroke="#666666" points="1383.5,-299 1333.5,-299 1333.5,-280 1383.5,-280 1383.5,-299"/>
<text text-anchor="middle" x="1358.5" y="-287" font-family="Helvetica,sans-Serif" font-size="10.00">_Genld</text>
</a>
</g>
</g>
<!-- Node31&#45;&gt;Node32 -->
<g id="edge39_Node000031_Node000032" class="edge">
<title>Node31&#45;&gt;Node32</title>
<g id="a_edge39_Node000031_Node000032"><a xlink:title=" ">
<path fill="none" stroke="#63b8ff" d="M1278.53,-243.15C1290.48,-250.75 1307.68,-261.52 1323,-270.5 1325.49,-271.96 1328.09,-273.45 1330.71,-274.93"/>
<polygon fill="#63b8ff" stroke="#63b8ff" points="1329.05,-278.01 1339.49,-279.82 1332.46,-271.9 1329.05,-278.01"/>
</a>
</g>
</g>
<!-- Node33 -->
<g id="Node000033" class="node">
<title>Node33</title>
<g id="a_Node000033"><a xlink:href="string_8c.html#ad7f1ae1bbb49dece44bda378982a704d" target="_top" xlink:title=" ">
<polygon fill="white" stroke="#666666" points="1489,-299 1430,-299 1430,-280 1489,-280 1489,-299"/>
<text text-anchor="middle" x="1459.5" y="-287" font-family="Helvetica,sans-Serif" font-size="10.00">memcpy</text>
</a>
</g>
</g>
<!-- Node31&#45;&gt;Node33 -->
<g id="edge43_Node000031_Node000033" class="edge">
<title>Node31&#45;&gt;Node33</title>
<g id="a_edge43_Node000031_Node000033"><a xlink:title=" ">
<path fill="none" stroke="#63b8ff" d="M1271.63,-223.98C1276.19,-218.59 1281.96,-211.71 1287,-205.5 1303.35,-185.33 1299.66,-170.87 1323,-159.5 1351.37,-145.68 1367.18,-142.87 1394,-159.5 1433.11,-183.76 1449.25,-239.58 1455.28,-269.58"/>
<polygon fill="#63b8ff" stroke="#63b8ff" points="1451.89,-270.48 1457.13,-279.69 1458.78,-269.22 1451.89,-270.48"/>
</a>
</g>
</g>
<!-- Node34 -->
<g id="Node000034" class="node">
<title>Node34</title>
<g id="a_Node000034"><a xlink:href="__Ldtob_8c.html#ab7ade9ce60aaa8baa0244b503351d742" target="_top" xlink:title=" ">
<polygon fill="white" stroke="#666666" points="1394,-188 1323,-188 1323,-169 1394,-169 1394,-188"/>
<text text-anchor="middle" x="1358.5" y="-176" font-family="Helvetica,sans-Serif" font-size="10.00">_Ldunscale</text>
</a>
</g>
</g>
<!-- Node31&#45;&gt;Node34 -->
<g id="edge41_Node000031_Node000034" class="edge">
<title>Node31&#45;&gt;Node34</title>
<g id="a_edge41_Node000031_Node000034"><a xlink:title=" ">
<path fill="none" stroke="#63b8ff" d="M1278.47,-223.75C1290.39,-216.1 1307.58,-205.3 1323,-196.5 1325,-195.36 1327.08,-194.2 1329.19,-193.05"/>
<polygon fill="#63b8ff" stroke="#63b8ff" points="1331.2,-195.94 1338.38,-188.15 1327.91,-189.77 1331.2,-195.94"/>
</a>
</g>
</g>
<!-- Node35 -->
<g id="Node000035" class="node">
<title>Node35</title>
<g id="a_Node000035"><a xlink:href="ldiv_8c.html#a0302920caf64a5fbe1ce0862799d7784" target="_top" xlink:title=" ">
<polygon fill="white" stroke="#666666" points="1376,-262 1341,-262 1341,-243 1376,-243 1376,-262"/>
<text text-anchor="middle" x="1358.5" y="-250" font-family="Helvetica,sans-Serif" font-size="10.00">ldiv</text>
</a>
</g>
</g>
<!-- Node31&#45;&gt;Node35 -->
<g id="edge42_Node000031_Node000035" class="edge">
<title>Node31&#45;&gt;Node35</title>
<g id="a_edge42_Node000031_Node000035"><a xlink:title=" ">
<path fill="none" stroke="#63b8ff" d="M1287.22,-238.29C1300.57,-240.99 1317.27,-244.37 1331.04,-247.15"/>
<polygon fill="#63b8ff" stroke="#63b8ff" points="1330.4,-250.59 1340.9,-249.14 1331.79,-243.73 1330.4,-250.59"/>
</a>
</g>
</g>
<!-- Node36 -->
<g id="Node000036" class="node">
<title>Node36</title>
<g id="a_Node000036"><a xlink:href="alBnkfNew_8c.html#a96a0200a6b40350e524f536d232ecb53" target="_top" xlink:title=" ">
<polygon fill="white" stroke="#666666" points="1384.5,-225 1332.5,-225 1332.5,-206 1384.5,-206 1384.5,-225"/>
<text text-anchor="middle" x="1358.5" y="-213" font-family="Helvetica,sans-Serif" font-size="10.00">unused</text>
</a>
</g>
</g>
<!-- Node31&#45;&gt;Node36 -->
<g id="edge44_Node000031_Node000036" class="edge">
<title>Node31&#45;&gt;Node36</title>
<g id="a_edge44_Node000031_Node000036"><a xlink:title=" ">
<path fill="none" stroke="#63b8ff" d="M1287.22,-228.96C1297.9,-226.91 1310.74,-224.45 1322.5,-222.2"/>
<polygon fill="#63b8ff" stroke="#63b8ff" points="1323.31,-225.61 1332.47,-220.29 1321.99,-218.74 1323.31,-225.61"/>
</a>
</g>
</g>
<!-- Node32&#45;&gt;Node33 -->
<g id="edge40_Node000032_Node000033" class="edge">
<title>Node32&#45;&gt;Node33</title>
<g id="a_edge40_Node000032_Node000033"><a xlink:title=" ">
<path fill="none" stroke="#63b8ff" d="M1383.72,-289.5C1394.52,-289.5 1407.52,-289.5 1419.63,-289.5"/>
<polygon fill="#63b8ff" stroke="#63b8ff" points="1419.96,-293 1429.96,-289.5 1419.96,-286 1419.96,-293"/>
</a>
</g>
</g>
<!-- Node37&#45;&gt;Node33 -->
<g id="edge47_Node000037_Node000033" class="edge">
<title>Node37&#45;&gt;Node33</title>
<g id="a_edge47_Node000037_Node000033"><a xlink:title=" ">
<path fill="none" stroke="#63b8ff" d="M1285.82,-324.91C1311.92,-321.69 1356.36,-315.61 1394,-307.5 1402.5,-305.67 1411.53,-303.37 1420.06,-301.04"/>
<polygon fill="#63b8ff" stroke="#63b8ff" points="1421.11,-304.38 1429.79,-298.31 1419.21,-297.64 1421.11,-304.38"/>
</a>
</g>
</g>
<!-- Node38 -->
<g id="Node000038" class="node">
<title>Node38</title>
<g id="a_Node000038"><a xlink:href="ldiv_8c.html#a5b23c3639f11980dca762c5f1d74f339" target="_top" xlink:title=" ">
<polygon fill="white" stroke="#666666" points="1377.5,-375 1339.5,-375 1339.5,-356 1377.5,-356 1377.5,-375"/>
<text text-anchor="middle" x="1358.5" y="-363" font-family="Helvetica,sans-Serif" font-size="10.00">lldiv</text>
</a>
</g>
</g>
<!-- Node37&#45;&gt;Node38 -->
<g id="edge46_Node000037_Node000038" class="edge">
<title>Node37&#45;&gt;Node38</title>
<g id="a_edge46_Node000037_Node000038"><a xlink:title=" ">
<path fill="none" stroke="#63b8ff" d="M1285.78,-336.51C1298.97,-341.84 1315.8,-348.64 1329.84,-354.32"/>
<polygon fill="#63b8ff" stroke="#63b8ff" points="1328.89,-357.71 1339.47,-358.21 1331.52,-351.22 1328.89,-357.71"/>
</a>
</g>
</g>
<!-- Node41&#45;&gt;Node41 -->
<g id="edge54_Node000041_Node000041" class="edge">
<title>Node41&#45;&gt;Node41</title>
<g id="a_edge54_Node000041_Node000041"><a xlink:title=" ">
<path fill="none" stroke="#63b8ff" d="M765.04,-416.08C754.84,-424.73 761.83,-434 786,-434 801.49,-434 809.92,-430.2 811.3,-425.19"/>
<polygon fill="#63b8ff" stroke="#63b8ff" points="814.42,-423.61 806.96,-416.08 808.1,-426.62 814.42,-423.61"/>
</a>
</g>
</g>
<!-- Node42 -->
<g id="Node000042" class="node">
<title>Node42</title>
<g id="a_Node000042"><a xlink:href="FrameInterpolation_8cpp.html#a5fbd67ef553452903cf553b9c224fa76" target="_top" xlink:title=" ">
<polygon fill="white" stroke="#666666" points="1011,-463.5 883,-463.5 883,-433.5 1011,-433.5 1011,-463.5"/>
<text text-anchor="start" x="891" y="-451.5" font-family="Helvetica,sans-Serif" font-size="10.00">FrameInterpolation</text>
<text text-anchor="middle" x="947" y="-440.5" font-family="Helvetica,sans-Serif" font-size="10.00">_Record_SetTextMatrix</text>
</a>
</g>
</g>
<!-- Node41&#45;&gt;Node42 -->
<g id="edge52_Node000041_Node000042" class="edge">
<title>Node41&#45;&gt;Node42</title>
<g id="a_edge52_Node000041_Node000042"><a xlink:title=" ">
<path fill="none" stroke="#63b8ff" d="M823.08,-416.03C839.77,-420.44 860.16,-425.82 879.48,-430.93"/>
<polygon fill="#63b8ff" stroke="#63b8ff" points="878.61,-434.32 889.17,-433.49 880.39,-427.55 878.61,-434.32"/>
</a>
</g>
</g>
<!-- Node42&#45;&gt;Node22 -->
<g id="edge53_Node000042_Node000022" class="edge">
<title>Node42&#45;&gt;Node22</title>
<g id="a_edge53_Node000042_Node000022"><a xlink:title=" ">
<path fill="none" stroke="#63b8ff" d="M995.27,-433.48C1002.64,-430.73 1010.1,-427.71 1017,-424.5 1048.4,-409.9 1082.36,-388.84 1104,-374.68"/>
<polygon fill="#63b8ff" stroke="#63b8ff" points="1106.07,-377.51 1112.48,-369.08 1102.21,-371.67 1106.07,-377.51"/>
</a>
</g>
</g>
</g>
</svg>

<g id="navigator" transform="translate(0 0)" fill="#404254">
  <rect fill="#f2f5e9" fill-opacity="0.5" stroke="#606060" stroke-width=".5" x="0" y="0" width="60" height="60"/>
  <use id="zoomplus" xlink:href="#zoomPlus" x="17" y="9" onmousedown="handleZoom(evt,'in')"/>
  <use id="zoomminus" xlink:href="#zoomMin" x="42" y="9" onmousedown="handleZoom(evt,'out')"/>
  <use id="reset" xlink:href="#resetDef" x="30" y="36" onmousedown="handleReset()"/>
   <use id="arrowup" xlink:href="#arrowUp" x="0" y="0" onmousedown="handlePan(0,-1)"/>
  <use id="arrowright" xlink:href="#arrowRight" x="0" y="0" onmousedown="handlePan(1,0)"/>
  <use id="arrowdown" xlink:href="#arrowDown" x="0" y="0" onmousedown="handlePan(0,1)"/>
  <use id="arrowleft" xlink:href="#arrowLeft" x="0" y="0" onmousedown="handlePan(-1,0)"/>
</g>
<svg viewBox="0 0 15 15" width="100%" height="30px" preserveAspectRatio="xMaxYMin meet">
 <g id="arrow_out" transform="scale(0.3 0.3)">
  <a xlink:href="menu__items_8c_a523d548513c8b62d6eafe4b9c9781ed2_cgraph_org.svg" target="_base">
   <rect id="button" ry="5" rx="5" y="6" x="6" height="38" width="38"
        fill="#f2f5e9" fill-opacity="0.5" stroke="#606060" stroke-width="1.0"/>
   <path id="arrow"
     d="M 11.500037,31.436501 C 11.940474,20.09759 22.043105,11.32322 32.158766,21.979434 L 37.068811,17.246167 C 37.068811,17.246167 37.088388,32 37.088388,32 L 22.160133,31.978069 C 22.160133,31.978069 26.997745,27.140456 26.997745,27.140456 C 18.528582,18.264221 13.291696,25.230495 11.500037,31.436501 z"
     style="fill:#404040;"/>
  </a>
 </g>
</svg>

<style type='text/css'>
<![CDATA[
[data-mouse-over-selected='false'] { opacity: 0.7; }
[data-mouse-over-selected='true']  { opacity: 1.0; }
]]>
</style>
<script type="application/ecmascript"><![CDATA[
document.addEventListener('DOMContentLoaded', (event) => {
  highlightEdges();
  highlightAdjacentNodes();
});
]]></script>
</svg>
