<?xml version="1.0" encoding="UTF-8" standalone="no"?>
<!DOCTYPE svg PUBLIC "-//W3C//DTD SVG 1.1//EN"
 "http://www.w3.org/Graphics/SVG/1.1/DTD/svg11.dtd">
<!-- Generated by graphviz version 2.43.0 (0)
 -->
<!-- Title: func_800A2D1C Pages: 1 -->
<svg width="928pt" height="138pt"
 viewBox="0.00 0.00 928.00 138.00" xmlns="http://www.w3.org/2000/svg" xmlns:xlink="http://www.w3.org/1999/xlink">
<g id="graph0" class="graph" transform="scale(1 1) rotate(0) translate(4 134)">
<title>func_800A2D1C</title>
<!-- Node1 -->
<g id="Node000001" class="node">
<title>Node1</title>
<g id="a_Node000001"><a xlink:title=" ">
<polygon fill="#999999" stroke="#666666" points="94,-74 0,-74 0,-55 94,-55 94,-74"/>
<text text-anchor="middle" x="47" y="-62" font-family="Helvetica,sans-Serif" font-size="10.00">func_800A2D1C</text>
</a>
</g>
</g>
<!-- Node2 -->
<g id="Node000002" class="node">
<title>Node2</title>
<g id="a_Node000002"><a xlink:href="menu__items_8c.html#a8e3ee3eb1206b5f628b58564390dd9a0" target="_top" xlink:title=" ">
<polygon fill="white" stroke="#666666" points="250,-74 130,-74 130,-55 250,-55 250,-74"/>
<text text-anchor="middle" x="190" y="-62" font-family="Helvetica,sans-Serif" font-size="10.00">func_80098FC8_wide</text>
</a>
</g>
</g>
<!-- Node1&#45;&gt;Node2 -->
<g id="edge1_Node000001_Node000002" class="edge">
<title>Node1&#45;&gt;Node2</title>
<g id="a_edge1_Node000001_Node000002"><a xlink:title=" ">
<path fill="none" stroke="#63b8ff" d="M94.17,-64.5C102.37,-64.5 111.06,-64.5 119.74,-64.5"/>
<polygon fill="#63b8ff" stroke="#63b8ff" points="119.87,-68 129.87,-64.5 119.87,-61 119.87,-68"/>
</a>
</g>
</g>
<!-- Node3 -->
<g id="Node000003" class="node">
<title>Node3</title>
<g id="a_Node000003"><a xlink:href="menu__items_8c.html#adb36649a579a1d3ac41afe2ffb55d7ac" target="_top" xlink:title=" ">
<polygon fill="white" stroke="#666666" points="396,-74 286,-74 286,-55 396,-55 396,-74"/>
<text text-anchor="middle" x="341" y="-62" font-family="Helvetica,sans-Serif" font-size="10.00">draw_box_fill_wide</text>
</a>
</g>
</g>
<!-- Node2&#45;&gt;Node3 -->
<g id="edge2_Node000002_Node000003" class="edge">
<title>Node2&#45;&gt;Node3</title>
<g id="a_edge2_Node000002_Node000003"><a xlink:title=" ">
<path fill="none" stroke="#63b8ff" d="M250.32,-64.5C258.63,-64.5 267.2,-64.5 275.59,-64.5"/>
<polygon fill="#63b8ff" stroke="#63b8ff" points="275.72,-68 285.72,-64.5 275.72,-61 275.72,-68"/>
</a>
</g>
</g>
<!-- Node4 -->
<g id="Node000004" class="node">
<title>Node4</title>
<g id="a_Node000004"><a xlink:href="GBIMiddleware_8cpp.html#a4ecc44e3c6f1ca5a6b4a20c41d3bd2d2" target="_top" xlink:title=" ">
<polygon fill="white" stroke="#666666" points="567,-130 478,-130 478,-111 567,-111 567,-130"/>
<text text-anchor="middle" x="522.5" y="-118" font-family="Helvetica,sans-Serif" font-size="10.00">gSPDisplayList</text>
</a>
</g>
</g>
<!-- Node3&#45;&gt;Node4 -->
<g id="edge3_Node000003_Node000004" class="edge">
<title>Node3&#45;&gt;Node4</title>
<g id="a_edge3_Node000003_Node000004"><a xlink:title=" ">
<path fill="none" stroke="#63b8ff" d="M361.59,-74.13C379.54,-82.62 407.04,-94.81 432,-102.5 443.48,-106.04 456,-109.06 467.95,-111.56"/>
<polygon fill="#63b8ff" stroke="#63b8ff" points="467.32,-115 477.81,-113.54 468.7,-108.14 467.32,-115"/>
</a>
</g>
</g>
<!-- Node7 -->
<g id="Node000007" class="node">
<title>Node7</title>
<g id="a_Node000007"><a xlink:href="Engine_8cpp.html#afc8b077c3a02d35419cae70c83942941" target="_top" xlink:title=" ">
<polygon fill="white" stroke="#666666" points="609,-93 436,-93 436,-74 609,-74 609,-93"/>
<text text-anchor="middle" x="522.5" y="-81" font-family="Helvetica,sans-Serif" font-size="10.00">OTRGetDimensionFromLeftEdge</text>
</a>
</g>
</g>
<!-- Node3&#45;&gt;Node7 -->
<g id="edge6_Node000003_Node000007" class="edge">
<title>Node3&#45;&gt;Node7</title>
<g id="a_edge6_Node000003_Node000007"><a xlink:title=" ">
<path fill="none" stroke="#63b8ff" d="M396.34,-70.25C405.71,-71.24 415.68,-72.3 425.76,-73.37"/>
<polygon fill="#63b8ff" stroke="#63b8ff" points="425.54,-76.86 435.85,-74.43 426.28,-69.9 425.54,-76.86"/>
</a>
</g>
</g>
<!-- Node10 -->
<g id="Node000010" class="node">
<title>Node10</title>
<g id="a_Node000010"><a xlink:href="Engine_8cpp.html#a17495ab17d6e9c65b2a76e3c88a7f718" target="_top" xlink:title=" ">
<polygon fill="white" stroke="#666666" points="613,-56 432,-56 432,-37 613,-37 613,-56"/>
<text text-anchor="middle" x="522.5" y="-44" font-family="Helvetica,sans-Serif" font-size="10.00">OTRGetDimensionFromRightEdge</text>
</a>
</g>
</g>
<!-- Node3&#45;&gt;Node10 -->
<g id="edge9_Node000003_Node000010" class="edge">
<title>Node3&#45;&gt;Node10</title>
<g id="a_edge9_Node000003_Node000010"><a xlink:title=" ">
<path fill="none" stroke="#63b8ff" d="M396.34,-59.05C404.43,-58.24 412.97,-57.38 421.64,-56.51"/>
<polygon fill="#63b8ff" stroke="#63b8ff" points="422.25,-59.97 431.85,-55.49 421.55,-53.01 422.25,-59.97"/>
</a>
</g>
</g>
<!-- Node11 -->
<g id="Node000011" class="node">
<title>Node11</title>
<g id="a_Node000011"><a xlink:href="menu__items_8c.html#a2341569d8bfc9b8aac7d5dab7933c999" target="_top" xlink:title=" ">
<polygon fill="white" stroke="#666666" points="562.5,-19 482.5,-19 482.5,0 562.5,0 562.5,-19"/>
<text text-anchor="middle" x="522.5" y="-7" font-family="Helvetica,sans-Serif" font-size="10.00">swap_values</text>
</a>
</g>
</g>
<!-- Node3&#45;&gt;Node11 -->
<g id="edge11_Node000003_Node000011" class="edge">
<title>Node3&#45;&gt;Node11</title>
<g id="a_edge11_Node000003_Node000011"><a xlink:title=" ">
<path fill="none" stroke="#63b8ff" d="M363.09,-54.87C381.1,-46.93 407.85,-35.84 432,-28.5 444.96,-24.56 459.21,-21.14 472.47,-18.33"/>
<polygon fill="#63b8ff" stroke="#63b8ff" points="473.27,-21.74 482.36,-16.3 471.86,-14.88 473.27,-21.74"/>
</a>
</g>
</g>
<!-- Node5 -->
<g id="Node000005" class="node">
<title>Node5</title>
<g id="a_Node000005"><a xlink:href="Engine_8cpp.html#a223c8bc63f228dc11177515e38eff2db" target="_top" xlink:title=" ">
<polygon fill="white" stroke="#666666" points="798,-130 649,-130 649,-111 798,-111 798,-130"/>
<text text-anchor="middle" x="723.5" y="-118" font-family="Helvetica,sans-Serif" font-size="10.00">GameEngine_OTRSigCheck</text>
</a>
</g>
</g>
<!-- Node4&#45;&gt;Node5 -->
<g id="edge4_Node000004_Node000005" class="edge">
<title>Node4&#45;&gt;Node5</title>
<g id="a_edge4_Node000004_Node000005"><a xlink:title=" ">
<path fill="none" stroke="#63b8ff" d="M567.17,-120.5C588.19,-120.5 614.12,-120.5 638.73,-120.5"/>
<polygon fill="#63b8ff" stroke="#63b8ff" points="638.81,-124 648.81,-120.5 638.81,-117 638.81,-124"/>
</a>
</g>
</g>
<!-- Node6 -->
<g id="Node000006" class="node">
<title>Node6</title>
<g id="a_Node000006"><a xlink:href="string_8c.html#a008e171a518fe0e0352f31b245e03875" target="_top" xlink:title=" ">
<polygon fill="white" stroke="#666666" points="899,-130 855,-130 855,-111 899,-111 899,-130"/>
<text text-anchor="middle" x="877" y="-118" font-family="Helvetica,sans-Serif" font-size="10.00">strlen</text>
</a>
</g>
</g>
<!-- Node5&#45;&gt;Node6 -->
<g id="edge5_Node000005_Node000006" class="edge">
<title>Node5&#45;&gt;Node6</title>
<g id="a_edge5_Node000005_Node000006"><a xlink:title=" ">
<path fill="none" stroke="#63b8ff" d="M798.03,-120.5C814.45,-120.5 831.01,-120.5 844.62,-120.5"/>
<polygon fill="#63b8ff" stroke="#63b8ff" points="844.84,-124 854.84,-120.5 844.84,-117 844.84,-124"/>
</a>
</g>
</g>
<!-- Node8 -->
<g id="Node000008" class="node">
<title>Node8</title>
<g id="a_Node000008"><a xlink:href="Engine_8cpp.html#a130aa97f1c7fae24f3d23f8126e7506f" target="_top" xlink:title=" ">
<polygon fill="white" stroke="#666666" points="780,-75 667,-75 667,-56 780,-56 780,-75"/>
<text text-anchor="middle" x="723.5" y="-63" font-family="Helvetica,sans-Serif" font-size="10.00">OTRGetAspectRatio</text>
</a>
</g>
</g>
<!-- Node7&#45;&gt;Node8 -->
<g id="edge7_Node000007_Node000008" class="edge">
<title>Node7&#45;&gt;Node8</title>
<g id="a_edge7_Node000007_Node000008"><a xlink:title=" ">
<path fill="none" stroke="#63b8ff" d="M609.05,-75.76C624.97,-74.32 641.37,-72.84 656.59,-71.46"/>
<polygon fill="#63b8ff" stroke="#63b8ff" points="657.27,-74.91 666.92,-70.53 656.64,-67.94 657.27,-74.91"/>
</a>
</g>
</g>
<!-- Node9 -->
<g id="Node000009" class="node">
<title>Node9</title>
<g id="a_Node000009"><a xlink:href="Engine_8cpp.html#a29357c424545be61af4bd28d84fd344a" target="_top" xlink:title=" ">
<polygon fill="white" stroke="#666666" points="920,-75 834,-75 834,-56 920,-56 920,-75"/>
<text text-anchor="middle" x="877" y="-63" font-family="Helvetica,sans-Serif" font-size="10.00">GetInterpreter</text>
</a>
</g>
</g>
<!-- Node8&#45;&gt;Node9 -->
<g id="edge8_Node000008_Node000009" class="edge">
<title>Node8&#45;&gt;Node9</title>
<g id="a_edge8_Node000008_Node000009"><a xlink:title=" ">
<path fill="none" stroke="#63b8ff" d="M780.05,-65.5C794.32,-65.5 809.63,-65.5 823.72,-65.5"/>
<polygon fill="#63b8ff" stroke="#63b8ff" points="823.75,-69 833.75,-65.5 823.75,-62 823.75,-69"/>
</a>
</g>
</g>
<!-- Node10&#45;&gt;Node8 -->
<g id="edge10_Node000010_Node000008" class="edge">
<title>Node10&#45;&gt;Node8</title>
<g id="a_edge10_Node000010_Node000008"><a xlink:title=" ">
<path fill="none" stroke="#63b8ff" d="M613.1,-55.06C627.8,-56.46 642.78,-57.89 656.76,-59.22"/>
<polygon fill="#63b8ff" stroke="#63b8ff" points="656.45,-62.71 666.74,-60.18 657.12,-55.74 656.45,-62.71"/>
</a>
</g>
</g>
</g>
</svg>
