<?xml version="1.0" encoding="UTF-8" standalone="no"?>
<!DOCTYPE svg PUBLIC "-//W3C//DTD SVG 1.1//EN"
 "http://www.w3.org/Graphics/SVG/1.1/DTD/svg11.dtd">
<!-- Generated by graphviz version 2.43.0 (0)
 -->
<!-- Title: render_checkered_flag Pages: 1 -->
<svg width="673pt" height="424pt"
 viewBox="0.00 0.00 673.00 424.00" xmlns="http://www.w3.org/2000/svg" xmlns:xlink="http://www.w3.org/1999/xlink">
<g id="graph0" class="graph" transform="scale(1 1) rotate(0) translate(4 420)">
<title>render_checkered_flag</title>
<!-- Node1 -->
<g id="Node000001" class="node">
<title>Node1</title>
<g id="a_Node000001"><a xlink:title=" ">
<polygon fill="#999999" stroke="#666666" points="126,-268 0,-268 0,-249 126,-249 126,-268"/>
<text text-anchor="middle" x="63" y="-256" font-family="Helvetica,sans-Serif" font-size="10.00">render_checkered_flag</text>
</a>
</g>
</g>
<!-- Node2 -->
<g id="Node000002" class="node">
<title>Node2</title>
<g id="a_Node000002"><a xlink:href="code__800AF9B0_8h.html#a7963c15bc1960ff122a3f86b9e114872" target="_top" xlink:title=" ">
<polygon fill="white" stroke="#666666" points="257.5,-416 165.5,-416 165.5,-397 257.5,-397 257.5,-416"/>
<text text-anchor="middle" x="211.5" y="-404" font-family="Helvetica,sans-Serif" font-size="10.00">func_800B0004</text>
</a>
</g>
</g>
<!-- Node1&#45;&gt;Node2 -->
<g id="edge1_Node000001_Node000002" class="edge">
<title>Node1&#45;&gt;Node2</title>
<g id="a_edge1_Node000001_Node000002"><a xlink:title=" ">
<path fill="none" stroke="#63b8ff" d="M68.76,-268.15C80.98,-291.96 115.76,-354.06 162,-388.5 163.84,-389.87 165.8,-391.15 167.84,-392.34"/>
<polygon fill="#63b8ff" stroke="#63b8ff" points="166.6,-395.63 177.1,-397 169.74,-389.38 166.6,-395.63"/>
</a>
</g>
</g>
<!-- Node3 -->
<g id="Node000003" class="node">
<title>Node3</title>
<g id="a_Node000003"><a xlink:href="Matrix_8cpp.html#acacd5a06b0529a80220125925294944f" target="_top" xlink:title=" ">
<polygon fill="white" stroke="#666666" points="261,-379 162,-379 162,-360 261,-360 261,-379"/>
<text text-anchor="middle" x="211.5" y="-367" font-family="Helvetica,sans-Serif" font-size="10.00">GetLookAtMatrix</text>
</a>
</g>
</g>
<!-- Node1&#45;&gt;Node3 -->
<g id="edge2_Node000001_Node000003" class="edge">
<title>Node1&#45;&gt;Node3</title>
<g id="a_edge2_Node000001_Node000003"><a xlink:title=" ">
<path fill="none" stroke="#63b8ff" d="M71.9,-268.27C87.39,-286.86 123.58,-327.56 162,-351.5 164.47,-353.04 167.08,-354.47 169.77,-355.81"/>
<polygon fill="#63b8ff" stroke="#63b8ff" points="168.53,-359.09 179.09,-359.96 171.38,-352.69 168.53,-359.09"/>
</a>
</g>
</g>
<!-- Node5 -->
<g id="Node000005" class="node">
<title>Node5</title>
<g id="a_Node000005"><a xlink:href="Matrix_8cpp.html#a01fc250c2f6e1cd103c61068f9168032" target="_top" xlink:title=" ">
<polygon fill="white" stroke="#666666" points="257.5,-342 165.5,-342 165.5,-323 257.5,-323 257.5,-342"/>
<text text-anchor="middle" x="211.5" y="-330" font-family="Helvetica,sans-Serif" font-size="10.00">GetPerspMatrix</text>
</a>
</g>
</g>
<!-- Node1&#45;&gt;Node5 -->
<g id="edge4_Node000001_Node000005" class="edge">
<title>Node1&#45;&gt;Node5</title>
<g id="a_edge4_Node000001_Node000005"><a xlink:title=" ">
<path fill="none" stroke="#63b8ff" d="M78.87,-268.02C97.72,-279.85 131.47,-300.23 162,-314.5 165.56,-316.16 169.32,-317.78 173.11,-319.33"/>
<polygon fill="#63b8ff" stroke="#63b8ff" points="171.89,-322.61 182.48,-322.99 174.44,-316.09 171.89,-322.61"/>
</a>
</g>
</g>
<!-- Node6 -->
<g id="Node000006" class="node">
<title>Node6</title>
<g id="a_Node000006"><a xlink:href="GBIMiddleware_8cpp.html#a4ecc44e3c6f1ca5a6b4a20c41d3bd2d2" target="_top" xlink:title=" ">
<polygon fill="white" stroke="#666666" points="256,-305 167,-305 167,-286 256,-286 256,-305"/>
<text text-anchor="middle" x="211.5" y="-293" font-family="Helvetica,sans-Serif" font-size="10.00">gSPDisplayList</text>
</a>
</g>
</g>
<!-- Node1&#45;&gt;Node6 -->
<g id="edge6_Node000001_Node000006" class="edge">
<title>Node1&#45;&gt;Node6</title>
<g id="a_edge6_Node000001_Node000006"><a xlink:title=" ">
<path fill="none" stroke="#63b8ff" d="M101.73,-268.03C120.37,-272.74 143.05,-278.47 162.88,-283.47"/>
<polygon fill="#63b8ff" stroke="#63b8ff" points="162.09,-286.88 172.65,-285.94 163.81,-280.1 162.09,-286.88"/>
</a>
</g>
</g>
<!-- Node9 -->
<g id="Node000009" class="node">
<title>Node9</title>
<g id="a_Node000009"><a xlink:href="guLookAtF_8c.html#a8641b89f7767fe85370ca7d198ef5566" target="_top" xlink:title=" ">
<polygon fill="white" stroke="#666666" points="242.5,-268 180.5,-268 180.5,-249 242.5,-249 242.5,-268"/>
<text text-anchor="middle" x="211.5" y="-256" font-family="Helvetica,sans-Serif" font-size="10.00">guLookAt</text>
</a>
</g>
</g>
<!-- Node1&#45;&gt;Node9 -->
<g id="edge9_Node000001_Node000009" class="edge">
<title>Node1&#45;&gt;Node9</title>
<g id="a_edge9_Node000001_Node000009"><a xlink:title=" ">
<path fill="none" stroke="#63b8ff" d="M126.13,-258.5C141.04,-258.5 156.59,-258.5 170.21,-258.5"/>
<polygon fill="#63b8ff" stroke="#63b8ff" points="170.21,-262 180.21,-258.5 170.21,-255 170.21,-262"/>
</a>
</g>
</g>
<!-- Node16 -->
<g id="Node000016" class="node">
<title>Node16</title>
<g id="a_Node000016"><a xlink:href="guPerspectiveF_8c.html#ac2050885d6967becf0e5e3bb3e54bd08" target="_top" xlink:title=" ">
<polygon fill="white" stroke="#666666" points="254.5,-157 168.5,-157 168.5,-138 254.5,-138 254.5,-157"/>
<text text-anchor="middle" x="211.5" y="-145" font-family="Helvetica,sans-Serif" font-size="10.00">guPerspective</text>
</a>
</g>
</g>
<!-- Node1&#45;&gt;Node16 -->
<g id="edge16_Node000001_Node000016" class="edge">
<title>Node1&#45;&gt;Node16</title>
<g id="a_edge16_Node000001_Node000016"><a xlink:title=" ">
<path fill="none" stroke="#63b8ff" d="M71.97,-248.9C87.56,-230.63 123.93,-190.56 162,-166.5 165,-164.61 168.21,-162.85 171.51,-161.23"/>
<polygon fill="#63b8ff" stroke="#63b8ff" points="173.2,-164.3 180.9,-157.02 170.34,-157.91 173.2,-164.3"/>
</a>
</g>
</g>
<!-- Node20 -->
<g id="Node000020" class="node">
<title>Node20</title>
<g id="a_Node000020"><a xlink:href="guRotateF_8c.html#a98ec2e0b2831b168feffd49493a08134" target="_top" xlink:title=" ">
<polygon fill="white" stroke="#666666" points="242,-120 181,-120 181,-101 242,-101 242,-120"/>
<text text-anchor="middle" x="211.5" y="-108" font-family="Helvetica,sans-Serif" font-size="10.00">guRotate</text>
</a>
</g>
</g>
<!-- Node1&#45;&gt;Node20 -->
<g id="edge23_Node000001_Node000020" class="edge">
<title>Node1&#45;&gt;Node20</title>
<g id="a_edge23_Node000001_Node000020"><a xlink:title=" ">
<path fill="none" stroke="#63b8ff" d="M68.82,-248.98C81.17,-225.47 116.23,-164.1 162,-129.5 164.99,-127.24 168.28,-125.21 171.7,-123.41"/>
<polygon fill="#63b8ff" stroke="#63b8ff" points="173.33,-126.51 180.93,-119.11 170.38,-120.16 173.33,-126.51"/>
</a>
</g>
</g>
<!-- Node23 -->
<g id="Node000023" class="node">
<title>Node23</title>
<g id="a_Node000023"><a xlink:href="guScaleF_8c.html#a42e27e884f27d0dd332f140ef599b723" target="_top" xlink:title=" ">
<polygon fill="white" stroke="#666666" points="239,-231 184,-231 184,-212 239,-212 239,-231"/>
<text text-anchor="middle" x="211.5" y="-219" font-family="Helvetica,sans-Serif" font-size="10.00">guScale</text>
</a>
</g>
</g>
<!-- Node1&#45;&gt;Node23 -->
<g id="edge32_Node000001_Node000023" class="edge">
<title>Node1&#45;&gt;Node23</title>
<g id="a_edge32_Node000001_Node000023"><a xlink:title=" ">
<path fill="none" stroke="#63b8ff" d="M101.73,-248.97C123.98,-243.35 152,-236.28 174.02,-230.71"/>
<polygon fill="#63b8ff" stroke="#63b8ff" points="175.15,-234.04 183.99,-228.2 173.44,-227.25 175.15,-234.04"/>
</a>
</g>
</g>
<!-- Node25 -->
<g id="Node000025" class="node">
<title>Node25</title>
<g id="a_Node000025"><a xlink:href="guTranslateF_8c.html#a58b365e073c051c652890891b52239ac" target="_top" xlink:title=" ">
<polygon fill="white" stroke="#666666" points="248,-194 175,-194 175,-175 248,-175 248,-194"/>
<text text-anchor="middle" x="211.5" y="-182" font-family="Helvetica,sans-Serif" font-size="10.00">guTranslate</text>
</a>
</g>
</g>
<!-- Node1&#45;&gt;Node25 -->
<g id="edge37_Node000001_Node000025" class="edge">
<title>Node1&#45;&gt;Node25</title>
<g id="a_edge37_Node000001_Node000025"><a xlink:title=" ">
<path fill="none" stroke="#63b8ff" d="M79.6,-248.86C98.65,-237.29 132.03,-217.7 162,-203.5 166.11,-201.55 170.48,-199.64 174.84,-197.82"/>
<polygon fill="#63b8ff" stroke="#63b8ff" points="176.33,-200.99 184.29,-194 173.71,-194.5 176.33,-200.99"/>
</a>
</g>
</g>
<!-- Node4 -->
<g id="Node000004" class="node">
<title>Node4</title>
<g id="a_Node000004"><a xlink:href="Game_8cpp.html#ae2fa844b3cb1021ecbc357f8ed2ad8cc" target="_top" xlink:title=" ">
<polygon fill="white" stroke="#666666" points="402.5,-379 340.5,-379 340.5,-360 402.5,-360 402.5,-379"/>
<text text-anchor="middle" x="371.5" y="-367" font-family="Helvetica,sans-Serif" font-size="10.00">GetWorld</text>
</a>
</g>
</g>
<!-- Node3&#45;&gt;Node4 -->
<g id="edge3_Node000003_Node000004" class="edge">
<title>Node3&#45;&gt;Node4</title>
<g id="a_edge3_Node000003_Node000004"><a xlink:title=" ">
<path fill="none" stroke="#63b8ff" d="M261.19,-369.5C283.22,-369.5 308.96,-369.5 329.92,-369.5"/>
<polygon fill="#63b8ff" stroke="#63b8ff" points="330.1,-373 340.1,-369.5 330.1,-366 330.1,-373"/>
</a>
</g>
</g>
<!-- Node5&#45;&gt;Node4 -->
<g id="edge5_Node000005_Node000004" class="edge">
<title>Node5&#45;&gt;Node4</title>
<g id="a_edge5_Node000005_Node000004"><a xlink:title=" ">
<path fill="none" stroke="#63b8ff" d="M253.19,-342.03C276.92,-347.59 306.75,-354.57 330.38,-360.11"/>
<polygon fill="#63b8ff" stroke="#63b8ff" points="329.9,-363.59 340.43,-362.46 331.49,-356.77 329.9,-363.59"/>
</a>
</g>
</g>
<!-- Node7 -->
<g id="Node000007" class="node">
<title>Node7</title>
<g id="a_Node000007"><a xlink:href="Engine_8cpp.html#a223c8bc63f228dc11177515e38eff2db" target="_top" xlink:title=" ">
<polygon fill="white" stroke="#666666" points="446,-327 297,-327 297,-308 446,-308 446,-327"/>
<text text-anchor="middle" x="371.5" y="-315" font-family="Helvetica,sans-Serif" font-size="10.00">GameEngine_OTRSigCheck</text>
</a>
</g>
</g>
<!-- Node6&#45;&gt;Node7 -->
<g id="edge7_Node000006_Node000007" class="edge">
<title>Node6&#45;&gt;Node7</title>
<g id="a_edge7_Node000006_Node000007"><a xlink:title=" ">
<path fill="none" stroke="#63b8ff" d="M256.09,-301.57C267.34,-303.14 279.79,-304.87 292.21,-306.6"/>
<polygon fill="#63b8ff" stroke="#63b8ff" points="291.76,-310.07 302.15,-307.98 292.73,-303.14 291.76,-310.07"/>
</a>
</g>
</g>
<!-- Node8 -->
<g id="Node000008" class="node">
<title>Node8</title>
<g id="a_Node000008"><a xlink:href="string_8c.html#a008e171a518fe0e0352f31b245e03875" target="_top" xlink:title=" ">
<polygon fill="white" stroke="#666666" points="558,-327 514,-327 514,-308 558,-308 558,-327"/>
<text text-anchor="middle" x="536" y="-315" font-family="Helvetica,sans-Serif" font-size="10.00">strlen</text>
</a>
</g>
</g>
<!-- Node7&#45;&gt;Node8 -->
<g id="edge8_Node000007_Node000008" class="edge">
<title>Node7&#45;&gt;Node8</title>
<g id="a_edge8_Node000007_Node000008"><a xlink:title=" ">
<path fill="none" stroke="#63b8ff" d="M446.14,-317.5C466.4,-317.5 487.28,-317.5 503.72,-317.5"/>
<polygon fill="#63b8ff" stroke="#63b8ff" points="503.82,-321 513.82,-317.5 503.82,-314 503.82,-321"/>
</a>
</g>
</g>
<!-- Node10 -->
<g id="Node000010" class="node">
<title>Node10</title>
<g id="a_Node000010"><a xlink:href="FrameInterpolation_8cpp.html#a8cf1f2d6fabc6925aa71a9515341b4aa" target="_top" xlink:title=" ">
<polygon fill="white" stroke="#666666" points="441.5,-178.5 301.5,-178.5 301.5,-148.5 441.5,-148.5 441.5,-178.5"/>
<text text-anchor="start" x="309.5" y="-166.5" font-family="Helvetica,sans-Serif" font-size="10.00">FrameInterpolation</text>
<text text-anchor="middle" x="371.5" y="-155.5" font-family="Helvetica,sans-Serif" font-size="10.00">_RecordMatrixMtxFToMtx</text>
</a>
</g>
</g>
<!-- Node9&#45;&gt;Node10 -->
<g id="edge10_Node000009_Node000010" class="edge">
<title>Node9&#45;&gt;Node10</title>
<g id="a_edge10_Node000009_Node000010"><a xlink:title=" ">
<path fill="none" stroke="#63b8ff" d="M242.72,-250.53C249.14,-247.97 255.61,-244.69 261,-240.5 283.2,-223.26 274.56,-205.43 297,-188.5 299.45,-186.65 302.04,-184.93 304.74,-183.34"/>
<polygon fill="#63b8ff" stroke="#63b8ff" points="306.42,-186.41 313.63,-178.65 303.15,-180.22 306.42,-186.41"/>
</a>
</g>
</g>
<!-- Node12 -->
<g id="Node000012" class="node">
<title>Node12</title>
<g id="a_Node000012"><a xlink:href="guLookAtF_8c.html#a221be5535617db52477d4cb992afa4a9" target="_top" xlink:title=" ">
<polygon fill="white" stroke="#666666" points="405.5,-290 337.5,-290 337.5,-271 405.5,-271 405.5,-290"/>
<text text-anchor="middle" x="371.5" y="-278" font-family="Helvetica,sans-Serif" font-size="10.00">guLookAtF</text>
</a>
</g>
</g>
<!-- Node9&#45;&gt;Node12 -->
<g id="edge12_Node000009_Node000012" class="edge">
<title>Node9&#45;&gt;Node12</title>
<g id="a_edge12_Node000009_Node000012"><a xlink:title=" ">
<path fill="none" stroke="#63b8ff" d="M242.59,-262.69C266.57,-266.03 300.45,-270.75 327.32,-274.49"/>
<polygon fill="#63b8ff" stroke="#63b8ff" points="326.86,-277.96 337.24,-275.87 327.82,-271.02 326.86,-277.96"/>
</a>
</g>
</g>
<!-- Node15 -->
<g id="Node000015" class="node">
<title>Node15</title>
<g id="a_Node000015"><a xlink:href="guMtxF2L_8c.html#a40ab2d64c609839ff1e0ef0de2d0dcc4" target="_top" xlink:title=" ">
<polygon fill="white" stroke="#666666" points="404,-216 339,-216 339,-197 404,-197 404,-216"/>
<text text-anchor="middle" x="371.5" y="-204" font-family="Helvetica,sans-Serif" font-size="10.00">guMtxF2L</text>
</a>
</g>
</g>
<!-- Node9&#45;&gt;Node15 -->
<g id="edge15_Node000009_Node000015" class="edge">
<title>Node9&#45;&gt;Node15</title>
<g id="a_edge15_Node000009_Node000015"><a xlink:title=" ">
<path fill="none" stroke="#63b8ff" d="M238.75,-248.97C245.98,-246.29 253.81,-243.33 261,-240.5 277.13,-234.15 280.57,-231.02 297,-225.5 307.23,-222.07 318.43,-218.89 328.93,-216.15"/>
<polygon fill="#63b8ff" stroke="#63b8ff" points="329.9,-219.51 338.74,-213.67 328.18,-212.73 329.9,-219.51"/>
</a>
</g>
</g>
<!-- Node11 -->
<g id="Node000011" class="node">
<title>Node11</title>
<g id="a_Node000011"><a xlink:href="FrameInterpolation_8cpp.html#a02c7ac5342a4d376edee38f312b480bf" target="_top" xlink:title=" ">
<polygon fill="white" stroke="#666666" points="590,-173 482,-173 482,-154 590,-154 590,-173"/>
<text text-anchor="middle" x="536" y="-161" font-family="Helvetica,sans-Serif" font-size="10.00">check_if_recording</text>
</a>
</g>
</g>
<!-- Node10&#45;&gt;Node11 -->
<g id="edge11_Node000010_Node000011" class="edge">
<title>Node10&#45;&gt;Node11</title>
<g id="a_edge11_Node000010_Node000011"><a xlink:title=" ">
<path fill="none" stroke="#63b8ff" d="M441.89,-163.5C451.64,-163.5 461.63,-163.5 471.27,-163.5"/>
<polygon fill="#63b8ff" stroke="#63b8ff" points="471.58,-167 481.58,-163.5 471.58,-160 471.58,-167"/>
</a>
</g>
</g>
<!-- Node13 -->
<g id="Node000013" class="node">
<title>Node13</title>
<g id="a_Node000013"><a xlink:href="guMtxF2L_8c.html#a257a86497fc08677370948eda3163595" target="_top" xlink:title=" ">
<polygon fill="white" stroke="#666666" points="575,-130 497,-130 497,-111 575,-111 575,-130"/>
<text text-anchor="middle" x="536" y="-118" font-family="Helvetica,sans-Serif" font-size="10.00">guMtxIdentF</text>
</a>
</g>
</g>
<!-- Node12&#45;&gt;Node13 -->
<g id="edge13_Node000012_Node000013" class="edge">
<title>Node12&#45;&gt;Node13</title>
<g id="a_edge13_Node000012_Node000013"><a xlink:title=" ">
<path fill="none" stroke="#63b8ff" d="M405.57,-279.46C419.61,-277.39 435.2,-272.69 446,-262.5 485.58,-225.17 446.36,-186.61 482,-145.5 485.62,-141.32 490.1,-137.79 494.9,-134.82"/>
<polygon fill="#63b8ff" stroke="#63b8ff" points="496.62,-137.87 503.78,-130.06 493.32,-131.7 496.62,-137.87"/>
</a>
</g>
</g>
<!-- Node14 -->
<g id="Node000014" class="node">
<title>Node14</title>
<g id="a_Node000014"><a xlink:href="math_8h.html#a37bde043e94a6f074c78f10518fb5d99" target="_top" xlink:title=" ">
<polygon fill="white" stroke="#666666" points="665,-134 626,-134 626,-115 665,-115 665,-134"/>
<text text-anchor="middle" x="645.5" y="-122" font-family="Helvetica,sans-Serif" font-size="10.00">sqrtf</text>
</a>
</g>
</g>
<!-- Node12&#45;&gt;Node14 -->
<g id="edge14_Node000012_Node000014" class="edge">
<title>Node12&#45;&gt;Node14</title>
<g id="a_edge14_Node000012_Node000014"><a xlink:title=" ">
<path fill="none" stroke="#63b8ff" d="M405.64,-274.36C418.48,-271.47 433.16,-267.53 446,-262.5 514.16,-235.78 532.24,-227.49 590,-182.5 605.23,-170.63 620.08,-154.44 630.42,-142.18"/>
<polygon fill="#63b8ff" stroke="#63b8ff" points="633.15,-144.36 636.8,-134.42 627.74,-139.91 633.15,-144.36"/>
</a>
</g>
</g>
<!-- Node16&#45;&gt;Node10 -->
<g id="edge17_Node000016_Node000010" class="edge">
<title>Node16&#45;&gt;Node10</title>
<g id="a_edge17_Node000016_Node000010"><a xlink:title=" ">
<path fill="none" stroke="#63b8ff" d="M254.84,-151.79C266.17,-152.93 278.78,-154.21 291.4,-155.49"/>
<polygon fill="#63b8ff" stroke="#63b8ff" points="291.19,-158.99 301.5,-156.51 291.9,-152.02 291.19,-158.99"/>
</a>
</g>
</g>
<!-- Node16&#45;&gt;Node15 -->
<g id="edge18_Node000016_Node000015" class="edge">
<title>Node16&#45;&gt;Node15</title>
<g id="a_edge18_Node000016_Node000015"><a xlink:title=" ">
<path fill="none" stroke="#63b8ff" d="M239,-157.03C246.23,-159.86 254,-163.11 261,-166.5 277.67,-174.57 279.87,-180.45 297,-187.5 307.07,-191.64 318.29,-195.09 328.87,-197.86"/>
<polygon fill="#63b8ff" stroke="#63b8ff" points="328.22,-201.31 338.77,-200.31 329.9,-194.51 328.22,-201.31"/>
</a>
</g>
</g>
<!-- Node17 -->
<g id="Node000017" class="node">
<title>Node17</title>
<g id="a_Node000017"><a xlink:href="guPerspectiveF_8c.html#a440bd049e431a7ef892658d88620646c" target="_top" xlink:title=" ">
<polygon fill="white" stroke="#666666" points="417.5,-93 325.5,-93 325.5,-74 417.5,-74 417.5,-93"/>
<text text-anchor="middle" x="371.5" y="-81" font-family="Helvetica,sans-Serif" font-size="10.00">guPerspectiveF</text>
</a>
</g>
</g>
<!-- Node16&#45;&gt;Node17 -->
<g id="edge19_Node000016_Node000017" class="edge">
<title>Node16&#45;&gt;Node17</title>
<g id="a_edge19_Node000016_Node000017"><a xlink:title=" ">
<path fill="none" stroke="#63b8ff" d="M242.64,-137.95C248.87,-135.52 255.27,-132.69 261,-129.5 278.71,-119.64 278.75,-110.33 297,-101.5 302.74,-98.72 308.95,-96.35 315.24,-94.33"/>
<polygon fill="#63b8ff" stroke="#63b8ff" points="316.53,-97.6 325.14,-91.44 314.56,-90.88 316.53,-97.6"/>
</a>
</g>
</g>
<!-- Node17&#45;&gt;Node13 -->
<g id="edge21_Node000017_Node000013" class="edge">
<title>Node17&#45;&gt;Node13</title>
<g id="a_edge21_Node000017_Node000013"><a xlink:title=" ">
<path fill="none" stroke="#63b8ff" d="M414.35,-93.03C436.55,-98.08 463.92,-104.32 486.99,-109.57"/>
<polygon fill="#63b8ff" stroke="#63b8ff" points="486.38,-113.02 496.91,-111.83 487.94,-106.19 486.38,-113.02"/>
</a>
</g>
</g>
<!-- Node18 -->
<g id="Node000018" class="node">
<title>Node18</title>
<g id="a_Node000018"><a xlink:href="cosf_8c.html#a7b126b2344591e649c21c9ab0b8adb40" target="_top" xlink:title=" ">
<polygon fill="white" stroke="#666666" points="554.5,-56 517.5,-56 517.5,-37 554.5,-37 554.5,-56"/>
<text text-anchor="middle" x="536" y="-44" font-family="Helvetica,sans-Serif" font-size="10.00">cosf</text>
</a>
</g>
</g>
<!-- Node17&#45;&gt;Node18 -->
<g id="edge20_Node000017_Node000018" class="edge">
<title>Node17&#45;&gt;Node18</title>
<g id="a_edge20_Node000017_Node000018"><a xlink:title=" ">
<path fill="none" stroke="#63b8ff" d="M414.35,-73.97C443.61,-67.31 481.86,-58.6 507.37,-52.79"/>
<polygon fill="#63b8ff" stroke="#63b8ff" points="508.16,-56.2 517.13,-50.57 506.61,-49.38 508.16,-56.2"/>
</a>
</g>
</g>
<!-- Node19 -->
<g id="Node000019" class="node">
<title>Node19</title>
<g id="a_Node000019"><a xlink:href="sinf_8c.html#a8a7dc2a88e109f4e15b661247665709a" target="_top" xlink:title=" ">
<polygon fill="white" stroke="#666666" points="553.5,-93 518.5,-93 518.5,-74 553.5,-74 553.5,-93"/>
<text text-anchor="middle" x="536" y="-81" font-family="Helvetica,sans-Serif" font-size="10.00">sinf</text>
</a>
</g>
</g>
<!-- Node17&#45;&gt;Node19 -->
<g id="edge22_Node000017_Node000019" class="edge">
<title>Node17&#45;&gt;Node19</title>
<g id="a_edge22_Node000017_Node000019"><a xlink:title=" ">
<path fill="none" stroke="#63b8ff" d="M417.77,-83.5C446.89,-83.5 483.74,-83.5 508.27,-83.5"/>
<polygon fill="#63b8ff" stroke="#63b8ff" points="508.29,-87 518.29,-83.5 508.29,-80 508.29,-87"/>
</a>
</g>
</g>
<!-- Node20&#45;&gt;Node10 -->
<g id="edge24_Node000020_Node000010" class="edge">
<title>Node20&#45;&gt;Node10</title>
<g id="a_edge24_Node000020_Node000010"><a xlink:title=" ">
<path fill="none" stroke="#63b8ff" d="M239.86,-120.01C256.39,-125.72 277.88,-133.1 297,-139.5 302.63,-141.38 308.5,-143.33 314.37,-145.27"/>
<polygon fill="#63b8ff" stroke="#63b8ff" points="313.61,-148.7 324.2,-148.5 315.79,-142.05 313.61,-148.7"/>
</a>
</g>
</g>
<!-- Node20&#45;&gt;Node15 -->
<g id="edge25_Node000020_Node000015" class="edge">
<title>Node20&#45;&gt;Node15</title>
<g id="a_edge25_Node000020_Node000015"><a xlink:title=" ">
<path fill="none" stroke="#63b8ff" d="M242.12,-118.63C248.79,-121.37 255.51,-124.93 261,-129.5 284.32,-148.91 272.56,-169.52 297,-187.5 306.27,-194.32 317.76,-198.69 328.88,-201.5"/>
<polygon fill="#63b8ff" stroke="#63b8ff" points="328.4,-204.98 338.92,-203.66 329.88,-198.14 328.4,-204.98"/>
</a>
</g>
</g>
<!-- Node21 -->
<g id="Node000021" class="node">
<title>Node21</title>
<g id="a_Node000021"><a xlink:href="guRotateF_8c.html#a6bf4235e1732340bfcbde49454bd63ff" target="_top" xlink:title=" ">
<polygon fill="white" stroke="#666666" points="405,-56 338,-56 338,-37 405,-37 405,-56"/>
<text text-anchor="middle" x="371.5" y="-44" font-family="Helvetica,sans-Serif" font-size="10.00">guRotateF</text>
</a>
</g>
</g>
<!-- Node20&#45;&gt;Node21 -->
<g id="edge26_Node000020_Node000021" class="edge">
<title>Node20&#45;&gt;Node21</title>
<g id="a_edge26_Node000020_Node000021"><a xlink:title=" ">
<path fill="none" stroke="#63b8ff" d="M227.2,-100.97C243.62,-90.68 271.3,-74.45 297,-64.5 306.74,-60.73 317.52,-57.57 327.75,-54.99"/>
<polygon fill="#63b8ff" stroke="#63b8ff" points="328.82,-58.34 337.74,-52.62 327.21,-51.53 328.82,-58.34"/>
</a>
</g>
</g>
<!-- Node21&#45;&gt;Node13 -->
<g id="edge28_Node000021_Node000013" class="edge">
<title>Node21&#45;&gt;Node13</title>
<g id="a_edge28_Node000021_Node000013"><a xlink:title=" ">
<path fill="none" stroke="#63b8ff" d="M405.08,-50.46C418.4,-53.07 433.57,-57.39 446,-64.5 465.92,-75.89 462.7,-89.09 482,-101.5 485.1,-103.49 488.44,-105.31 491.88,-106.97"/>
<polygon fill="#63b8ff" stroke="#63b8ff" points="490.55,-110.2 501.11,-110.96 493.32,-103.78 490.55,-110.2"/>
</a>
</g>
</g>
<!-- Node21&#45;&gt;Node18 -->
<g id="edge27_Node000021_Node000018" class="edge">
<title>Node21&#45;&gt;Node18</title>
<g id="a_edge27_Node000021_Node000018"><a xlink:title=" ">
<path fill="none" stroke="#63b8ff" d="M405.38,-46.5C435.19,-46.5 478.64,-46.5 506.86,-46.5"/>
<polygon fill="#63b8ff" stroke="#63b8ff" points="507.23,-50 517.23,-46.5 507.23,-43 507.23,-50"/>
</a>
</g>
</g>
<!-- Node21&#45;&gt;Node19 -->
<g id="edge31_Node000021_Node000019" class="edge">
<title>Node21&#45;&gt;Node19</title>
<g id="a_edge31_Node000021_Node000019"><a xlink:title=" ">
<path fill="none" stroke="#63b8ff" d="M405.38,-53.99C435.65,-60.88 479.98,-70.97 508.16,-77.39"/>
<polygon fill="#63b8ff" stroke="#63b8ff" points="507.58,-80.85 518.11,-79.65 509.13,-74.02 507.58,-80.85"/>
</a>
</g>
</g>
<!-- Node22 -->
<g id="Node000022" class="node">
<title>Node22</title>
<g id="a_Node000022"><a xlink:href="guNormalize_8c.html#a7ad49cccf7be1e598544b9f0b35b5e28" target="_top" xlink:title=" ">
<polygon fill="white" stroke="#666666" points="575.5,-19 496.5,-19 496.5,0 575.5,0 575.5,-19"/>
<text text-anchor="middle" x="536" y="-7" font-family="Helvetica,sans-Serif" font-size="10.00">guNormalize</text>
</a>
</g>
</g>
<!-- Node21&#45;&gt;Node22 -->
<g id="edge29_Node000021_Node000022" class="edge">
<title>Node21&#45;&gt;Node22</title>
<g id="a_edge29_Node000021_Node000022"><a xlink:title=" ">
<path fill="none" stroke="#63b8ff" d="M405.38,-39.01C428.74,-33.69 460.48,-26.47 486.7,-20.5"/>
<polygon fill="#63b8ff" stroke="#63b8ff" points="487.48,-23.91 496.45,-18.28 485.92,-17.08 487.48,-23.91"/>
</a>
</g>
</g>
<!-- Node22&#45;&gt;Node14 -->
<g id="edge30_Node000022_Node000014" class="edge">
<title>Node22&#45;&gt;Node14</title>
<g id="a_edge30_Node000022_Node000014"><a xlink:title=" ">
<path fill="none" stroke="#63b8ff" d="M575.56,-18.8C580.75,-21.11 585.74,-23.96 590,-27.5 615.03,-48.29 630.71,-83.71 638.52,-105.51"/>
<polygon fill="#63b8ff" stroke="#63b8ff" points="635.21,-106.65 641.72,-115 641.84,-104.4 635.21,-106.65"/>
</a>
</g>
</g>
<!-- Node23&#45;&gt;Node10 -->
<g id="edge33_Node000023_Node000010" class="edge">
<title>Node23&#45;&gt;Node10</title>
<g id="a_edge33_Node000023_Node000010"><a xlink:title=" ">
<path fill="none" stroke="#63b8ff" d="M238.75,-211.97C245.98,-209.29 253.81,-206.33 261,-203.5 277.13,-197.15 280.79,-194.63 297,-188.5 302.79,-186.31 308.87,-184.1 314.95,-181.95"/>
<polygon fill="#63b8ff" stroke="#63b8ff" points="316.17,-185.23 324.46,-178.63 313.86,-178.62 316.17,-185.23"/>
</a>
</g>
</g>
<!-- Node23&#45;&gt;Node15 -->
<g id="edge34_Node000023_Node000015" class="edge">
<title>Node23&#45;&gt;Node15</title>
<g id="a_edge34_Node000023_Node000015"><a xlink:title=" ">
<path fill="none" stroke="#63b8ff" d="M239.3,-218.96C263.85,-216.63 300.56,-213.14 328.91,-210.45"/>
<polygon fill="#63b8ff" stroke="#63b8ff" points="329.31,-213.93 338.94,-209.5 328.65,-206.96 329.31,-213.93"/>
</a>
</g>
</g>
<!-- Node24 -->
<g id="Node000024" class="node">
<title>Node24</title>
<g id="a_Node000024"><a xlink:href="guScaleF_8c.html#a19b9397a765b8eb04c94f9cdd554cdba" target="_top" xlink:title=" ">
<polygon fill="white" stroke="#666666" points="402,-253 341,-253 341,-234 402,-234 402,-253"/>
<text text-anchor="middle" x="371.5" y="-241" font-family="Helvetica,sans-Serif" font-size="10.00">guScaleF</text>
</a>
</g>
</g>
<!-- Node23&#45;&gt;Node24 -->
<g id="edge35_Node000023_Node000024" class="edge">
<title>Node23&#45;&gt;Node24</title>
<g id="a_edge35_Node000023_Node000024"><a xlink:title=" ">
<path fill="none" stroke="#63b8ff" d="M239.3,-225.23C264.39,-228.73 302.2,-233.99 330.8,-237.97"/>
<polygon fill="#63b8ff" stroke="#63b8ff" points="330.49,-241.46 340.87,-239.37 331.45,-234.53 330.49,-241.46"/>
</a>
</g>
</g>
<!-- Node24&#45;&gt;Node13 -->
<g id="edge36_Node000024_Node000013" class="edge">
<title>Node24&#45;&gt;Node13</title>
<g id="a_edge36_Node000024_Node000013"><a xlink:title=" ">
<path fill="none" stroke="#63b8ff" d="M402.07,-242.25C416.69,-240.25 433.78,-235.67 446,-225.5 475.97,-200.56 454.68,-173.32 482,-145.5 486.16,-141.27 491.17,-137.67 496.43,-134.63"/>
<polygon fill="#63b8ff" stroke="#63b8ff" points="498.1,-137.71 505.42,-130.04 494.92,-131.47 498.1,-137.71"/>
</a>
</g>
</g>
<!-- Node25&#45;&gt;Node10 -->
<g id="edge38_Node000025_Node000010" class="edge">
<title>Node25&#45;&gt;Node10</title>
<g id="a_edge38_Node000025_Node000010"><a xlink:title=" ">
<path fill="none" stroke="#63b8ff" d="M248.35,-179.73C261.27,-178.02 276.42,-176 291.56,-173.99"/>
<polygon fill="#63b8ff" stroke="#63b8ff" points="292.03,-177.46 301.48,-172.67 291.11,-170.52 292.03,-177.46"/>
</a>
</g>
</g>
<!-- Node25&#45;&gt;Node15 -->
<g id="edge39_Node000025_Node000015" class="edge">
<title>Node25&#45;&gt;Node15</title>
<g id="a_edge39_Node000025_Node000015"><a xlink:title=" ">
<path fill="none" stroke="#63b8ff" d="M248.35,-189.49C272.28,-192.82 303.82,-197.22 328.86,-200.7"/>
<polygon fill="#63b8ff" stroke="#63b8ff" points="328.42,-204.17 338.8,-202.09 329.38,-197.24 328.42,-204.17"/>
</a>
</g>
</g>
<!-- Node26 -->
<g id="Node000026" class="node">
<title>Node26</title>
<g id="a_Node000026"><a xlink:href="guTranslateF_8c.html#ad8d0c6a920defddefdd6bbf1a0e23c3d" target="_top" xlink:title=" ">
<polygon fill="white" stroke="#666666" points="411,-130 332,-130 332,-111 411,-111 411,-130"/>
<text text-anchor="middle" x="371.5" y="-118" font-family="Helvetica,sans-Serif" font-size="10.00">guTranslateF</text>
</a>
</g>
</g>
<!-- Node25&#45;&gt;Node26 -->
<g id="edge40_Node000025_Node000026" class="edge">
<title>Node25&#45;&gt;Node26</title>
<g id="a_edge40_Node000025_Node000026"><a xlink:title=" ">
<path fill="none" stroke="#63b8ff" d="M242.34,-174.97C248.65,-172.53 255.17,-169.68 261,-166.5 278.56,-156.92 278.98,-148.17 297,-139.5 304.77,-135.76 313.37,-132.7 321.86,-130.2"/>
<polygon fill="#63b8ff" stroke="#63b8ff" points="322.99,-133.52 331.73,-127.53 321.16,-126.76 322.99,-133.52"/>
</a>
</g>
</g>
<!-- Node26&#45;&gt;Node13 -->
<g id="edge41_Node000026_Node000013" class="edge">
<title>Node26&#45;&gt;Node13</title>
<g id="a_edge41_Node000026_Node000013"><a xlink:title=" ">
<path fill="none" stroke="#63b8ff" d="M411.01,-120.5C433.68,-120.5 462.55,-120.5 486.72,-120.5"/>
<polygon fill="#63b8ff" stroke="#63b8ff" points="486.77,-124 496.77,-120.5 486.77,-117 486.77,-124"/>
</a>
</g>
</g>
</g>
</svg>
