<?xml version="1.0" encoding="UTF-8" standalone="no"?>
<!DOCTYPE svg PUBLIC "-//W3C//DTD SVG 1.1//EN"
 "http://www.w3.org/Graphics/SVG/1.1/DTD/svg11.dtd">
<!-- Generated by graphviz version 2.43.0 (0)
 -->
<!-- Title: func_800942D0 Pages: 1 -->
<svg width="639pt" height="276pt"
 viewBox="0.00 0.00 639.00 276.00" xmlns="http://www.w3.org/2000/svg" xmlns:xlink="http://www.w3.org/1999/xlink">
<g id="graph0" class="graph" transform="scale(1 1) rotate(0) translate(4 272)">
<title>func_800942D0</title>
<!-- Node1 -->
<g id="Node000001" class="node">
<title>Node1</title>
<g id="a_Node000001"><a xlink:title=" ">
<polygon fill="#999999" stroke="#666666" points="92,-194 0,-194 0,-175 92,-175 92,-194"/>
<text text-anchor="middle" x="46" y="-182" font-family="Helvetica,sans-Serif" font-size="10.00">func_800942D0</text>
</a>
</g>
</g>
<!-- Node2 -->
<g id="Node000002" class="node">
<title>Node2</title>
<g id="a_Node000002"><a xlink:href="Matrix_8cpp.html#acacd5a06b0529a80220125925294944f" target="_top" xlink:title=" ">
<polygon fill="white" stroke="#666666" points="227,-231 128,-231 128,-212 227,-212 227,-231"/>
<text text-anchor="middle" x="177.5" y="-219" font-family="Helvetica,sans-Serif" font-size="10.00">GetLookAtMatrix</text>
</a>
</g>
</g>
<!-- Node1&#45;&gt;Node2 -->
<g id="edge1_Node000001_Node000002" class="edge">
<title>Node1&#45;&gt;Node2</title>
<g id="a_edge1_Node000001_Node000002"><a xlink:title=" ">
<path fill="none" stroke="#63b8ff" d="M80.35,-194.03C96.39,-198.61 115.82,-204.16 133,-209.07"/>
<polygon fill="#63b8ff" stroke="#63b8ff" points="132.24,-212.49 142.81,-211.88 134.16,-205.76 132.24,-212.49"/>
</a>
</g>
</g>
<!-- Node4 -->
<g id="Node000004" class="node">
<title>Node4</title>
<g id="a_Node000004"><a xlink:href="Matrix_8cpp.html#a01fc250c2f6e1cd103c61068f9168032" target="_top" xlink:title=" ">
<polygon fill="white" stroke="#666666" points="223.5,-268 131.5,-268 131.5,-249 223.5,-249 223.5,-268"/>
<text text-anchor="middle" x="177.5" y="-256" font-family="Helvetica,sans-Serif" font-size="10.00">GetPerspMatrix</text>
</a>
</g>
</g>
<!-- Node1&#45;&gt;Node4 -->
<g id="edge3_Node000001_Node000004" class="edge">
<title>Node1&#45;&gt;Node4</title>
<g id="a_edge3_Node000001_Node000004"><a xlink:title=" ">
<path fill="none" stroke="#63b8ff" d="M58.75,-194.03C74,-206.07 101.77,-226.84 128,-240.5 131.12,-242.13 134.42,-243.68 137.78,-245.13"/>
<polygon fill="#63b8ff" stroke="#63b8ff" points="136.68,-248.47 147.26,-248.99 139.32,-241.98 136.68,-248.47"/>
</a>
</g>
</g>
<!-- Node5 -->
<g id="Node000005" class="node">
<title>Node5</title>
<g id="a_Node000005"><a xlink:href="GBIMiddleware_8cpp.html#a4ecc44e3c6f1ca5a6b4a20c41d3bd2d2" target="_top" xlink:title=" ">
<polygon fill="white" stroke="#666666" points="222,-194 133,-194 133,-175 222,-175 222,-194"/>
<text text-anchor="middle" x="177.5" y="-182" font-family="Helvetica,sans-Serif" font-size="10.00">gSPDisplayList</text>
</a>
</g>
</g>
<!-- Node1&#45;&gt;Node5 -->
<g id="edge5_Node000001_Node000005" class="edge">
<title>Node1&#45;&gt;Node5</title>
<g id="a_edge5_Node000001_Node000005"><a xlink:title=" ">
<path fill="none" stroke="#63b8ff" d="M92.29,-184.5C102.04,-184.5 112.43,-184.5 122.47,-184.5"/>
<polygon fill="#63b8ff" stroke="#63b8ff" points="122.76,-188 132.76,-184.5 122.76,-181 122.76,-188"/>
</a>
</g>
</g>
<!-- Node8 -->
<g id="Node000008" class="node">
<title>Node8</title>
<g id="a_Node000008"><a xlink:href="guRotateF_8c.html#a98ec2e0b2831b168feffd49493a08134" target="_top" xlink:title=" ">
<polygon fill="white" stroke="#666666" points="208,-114 147,-114 147,-95 208,-95 208,-114"/>
<text text-anchor="middle" x="177.5" y="-102" font-family="Helvetica,sans-Serif" font-size="10.00">guRotate</text>
</a>
</g>
</g>
<!-- Node1&#45;&gt;Node8 -->
<g id="edge8_Node000001_Node000008" class="edge">
<title>Node1&#45;&gt;Node8</title>
<g id="a_edge8_Node000001_Node000008"><a xlink:title=" ">
<path fill="none" stroke="#63b8ff" d="M58.85,-174.88C74.21,-162.69 102.09,-141.46 128,-126.5 132.9,-123.67 138.24,-120.93 143.52,-118.41"/>
<polygon fill="#63b8ff" stroke="#63b8ff" points="145.22,-121.48 152.85,-114.12 142.3,-115.11 145.22,-121.48"/>
</a>
</g>
</g>
<!-- Node18 -->
<g id="Node000018" class="node">
<title>Node18</title>
<g id="a_Node000018"><a xlink:href="guScaleF_8c.html#a42e27e884f27d0dd332f140ef599b723" target="_top" xlink:title=" ">
<polygon fill="white" stroke="#666666" points="205,-154 150,-154 150,-135 205,-135 205,-154"/>
<text text-anchor="middle" x="177.5" y="-142" font-family="Helvetica,sans-Serif" font-size="10.00">guScale</text>
</a>
</g>
</g>
<!-- Node1&#45;&gt;Node18 -->
<g id="edge18_Node000001_Node000018" class="edge">
<title>Node1&#45;&gt;Node18</title>
<g id="a_edge18_Node000001_Node000018"><a xlink:title=" ">
<path fill="none" stroke="#63b8ff" d="M78.02,-174.92C96.62,-169.17 120.39,-161.83 139.91,-155.8"/>
<polygon fill="#63b8ff" stroke="#63b8ff" points="141.16,-159.08 149.68,-152.78 139.09,-152.39 141.16,-159.08"/>
</a>
</g>
</g>
<!-- Node3 -->
<g id="Node000003" class="node">
<title>Node3</title>
<g id="a_Node000003"><a xlink:href="Game_8cpp.html#ae2fa844b3cb1021ecbc357f8ed2ad8cc" target="_top" xlink:title=" ">
<polygon fill="white" stroke="#666666" points="368.5,-268 306.5,-268 306.5,-249 368.5,-249 368.5,-268"/>
<text text-anchor="middle" x="337.5" y="-256" font-family="Helvetica,sans-Serif" font-size="10.00">GetWorld</text>
</a>
</g>
</g>
<!-- Node2&#45;&gt;Node3 -->
<g id="edge2_Node000002_Node000003" class="edge">
<title>Node2&#45;&gt;Node3</title>
<g id="a_edge2_Node000002_Node000003"><a xlink:title=" ">
<path fill="none" stroke="#63b8ff" d="M219.19,-231.03C242.92,-236.59 272.75,-243.57 296.38,-249.11"/>
<polygon fill="#63b8ff" stroke="#63b8ff" points="295.9,-252.59 306.43,-251.46 297.49,-245.77 295.9,-252.59"/>
</a>
</g>
</g>
<!-- Node4&#45;&gt;Node3 -->
<g id="edge4_Node000004_Node000003" class="edge">
<title>Node4&#45;&gt;Node3</title>
<g id="a_edge4_Node000004_Node000003"><a xlink:title=" ">
<path fill="none" stroke="#63b8ff" d="M223.78,-258.5C246.61,-258.5 274.06,-258.5 296.16,-258.5"/>
<polygon fill="#63b8ff" stroke="#63b8ff" points="296.22,-262 306.22,-258.5 296.22,-255 296.22,-262"/>
</a>
</g>
</g>
<!-- Node6 -->
<g id="Node000006" class="node">
<title>Node6</title>
<g id="a_Node000006"><a xlink:href="Engine_8cpp.html#a223c8bc63f228dc11177515e38eff2db" target="_top" xlink:title=" ">
<polygon fill="white" stroke="#666666" points="412,-231 263,-231 263,-212 412,-212 412,-231"/>
<text text-anchor="middle" x="337.5" y="-219" font-family="Helvetica,sans-Serif" font-size="10.00">GameEngine_OTRSigCheck</text>
</a>
</g>
</g>
<!-- Node5&#45;&gt;Node6 -->
<g id="edge6_Node000005_Node000006" class="edge">
<title>Node5&#45;&gt;Node6</title>
<g id="a_edge6_Node000005_Node000006"><a xlink:title=" ">
<path fill="none" stroke="#63b8ff" d="M219.19,-194.03C239.47,-198.78 264.21,-204.57 285.72,-209.61"/>
<polygon fill="#63b8ff" stroke="#63b8ff" points="285.14,-213.07 295.67,-211.94 286.74,-206.25 285.14,-213.07"/>
</a>
</g>
</g>
<!-- Node7 -->
<g id="Node000007" class="node">
<title>Node7</title>
<g id="a_Node000007"><a xlink:href="string_8c.html#a008e171a518fe0e0352f31b245e03875" target="_top" xlink:title=" ">
<polygon fill="white" stroke="#666666" points="524,-231 480,-231 480,-212 524,-212 524,-231"/>
<text text-anchor="middle" x="502" y="-219" font-family="Helvetica,sans-Serif" font-size="10.00">strlen</text>
</a>
</g>
</g>
<!-- Node6&#45;&gt;Node7 -->
<g id="edge7_Node000006_Node000007" class="edge">
<title>Node6&#45;&gt;Node7</title>
<g id="a_edge7_Node000006_Node000007"><a xlink:title=" ">
<path fill="none" stroke="#63b8ff" d="M412.14,-221.5C432.4,-221.5 453.28,-221.5 469.72,-221.5"/>
<polygon fill="#63b8ff" stroke="#63b8ff" points="469.82,-225 479.82,-221.5 469.82,-218 469.82,-225"/>
</a>
</g>
</g>
<!-- Node9 -->
<g id="Node000009" class="node">
<title>Node9</title>
<g id="a_Node000009"><a xlink:href="FrameInterpolation_8cpp.html#a8cf1f2d6fabc6925aa71a9515341b4aa" target="_top" xlink:title=" ">
<polygon fill="white" stroke="#666666" points="407.5,-156.5 267.5,-156.5 267.5,-126.5 407.5,-126.5 407.5,-156.5"/>
<text text-anchor="start" x="275.5" y="-144.5" font-family="Helvetica,sans-Serif" font-size="10.00">FrameInterpolation</text>
<text text-anchor="middle" x="337.5" y="-133.5" font-family="Helvetica,sans-Serif" font-size="10.00">_RecordMatrixMtxFToMtx</text>
</a>
</g>
</g>
<!-- Node8&#45;&gt;Node9 -->
<g id="edge9_Node000008_Node000009" class="edge">
<title>Node8&#45;&gt;Node9</title>
<g id="a_edge9_Node000008_Node000009"><a xlink:title=" ">
<path fill="none" stroke="#63b8ff" d="M208.22,-111.46C223.6,-115.06 243.12,-119.63 262.27,-124.12"/>
<polygon fill="#63b8ff" stroke="#63b8ff" points="261.69,-127.58 272.22,-126.45 263.29,-120.76 261.69,-127.58"/>
</a>
</g>
</g>
<!-- Node11 -->
<g id="Node000011" class="node">
<title>Node11</title>
<g id="a_Node000011"><a xlink:href="guMtxF2L_8c.html#a40ab2d64c609839ff1e0ef0de2d0dcc4" target="_top" xlink:title=" ">
<polygon fill="white" stroke="#666666" points="370,-108 305,-108 305,-89 370,-89 370,-108"/>
<text text-anchor="middle" x="337.5" y="-96" font-family="Helvetica,sans-Serif" font-size="10.00">guMtxF2L</text>
</a>
</g>
</g>
<!-- Node8&#45;&gt;Node11 -->
<g id="edge11_Node000008_Node000011" class="edge">
<title>Node8&#45;&gt;Node11</title>
<g id="a_edge11_Node000008_Node000011"><a xlink:title=" ">
<path fill="none" stroke="#63b8ff" d="M208.22,-103.37C232.63,-102.44 267.5,-101.12 294.72,-100.09"/>
<polygon fill="#63b8ff" stroke="#63b8ff" points="294.89,-103.58 304.75,-99.71 294.62,-96.59 294.89,-103.58"/>
</a>
</g>
</g>
<!-- Node12 -->
<g id="Node000012" class="node">
<title>Node12</title>
<g id="a_Node000012"><a xlink:href="guRotateF_8c.html#a6bf4235e1732340bfcbde49454bd63ff" target="_top" xlink:title=" ">
<polygon fill="white" stroke="#666666" points="371,-71 304,-71 304,-52 371,-52 371,-71"/>
<text text-anchor="middle" x="337.5" y="-59" font-family="Helvetica,sans-Serif" font-size="10.00">guRotateF</text>
</a>
</g>
</g>
<!-- Node8&#45;&gt;Node12 -->
<g id="edge12_Node000008_Node000012" class="edge">
<title>Node8&#45;&gt;Node12</title>
<g id="a_edge12_Node000008_Node000012"><a xlink:title=" ">
<path fill="none" stroke="#63b8ff" d="M208.17,-95.89C224.35,-91.24 244.75,-85.45 263,-80.5 273.02,-77.78 283.83,-74.94 293.99,-72.3"/>
<polygon fill="#63b8ff" stroke="#63b8ff" points="295.08,-75.64 303.89,-69.75 293.33,-68.86 295.08,-75.64"/>
</a>
</g>
</g>
<!-- Node10 -->
<g id="Node000010" class="node">
<title>Node10</title>
<g id="a_Node000010"><a xlink:href="FrameInterpolation_8cpp.html#a02c7ac5342a4d376edee38f312b480bf" target="_top" xlink:title=" ">
<polygon fill="white" stroke="#666666" points="556,-167 448,-167 448,-148 556,-148 556,-167"/>
<text text-anchor="middle" x="502" y="-155" font-family="Helvetica,sans-Serif" font-size="10.00">check_if_recording</text>
</a>
</g>
</g>
<!-- Node9&#45;&gt;Node10 -->
<g id="edge10_Node000009_Node000010" class="edge">
<title>Node9&#45;&gt;Node10</title>
<g id="a_edge10_Node000009_Node000010"><a xlink:title=" ">
<path fill="none" stroke="#63b8ff" d="M407.89,-148.33C417.75,-149.3 427.84,-150.3 437.58,-151.26"/>
<polygon fill="#63b8ff" stroke="#63b8ff" points="437.28,-154.74 447.58,-152.24 437.97,-147.78 437.28,-154.74"/>
</a>
</g>
</g>
<!-- Node13 -->
<g id="Node000013" class="node">
<title>Node13</title>
<g id="a_Node000013"><a xlink:href="cosf_8c.html#a7b126b2344591e649c21c9ab0b8adb40" target="_top" xlink:title=" ">
<polygon fill="white" stroke="#666666" points="520.5,-93 483.5,-93 483.5,-74 520.5,-74 520.5,-93"/>
<text text-anchor="middle" x="502" y="-81" font-family="Helvetica,sans-Serif" font-size="10.00">cosf</text>
</a>
</g>
</g>
<!-- Node12&#45;&gt;Node13 -->
<g id="edge13_Node000012_Node000013" class="edge">
<title>Node12&#45;&gt;Node13</title>
<g id="a_edge13_Node000012_Node000013"><a xlink:title=" ">
<path fill="none" stroke="#63b8ff" d="M371.38,-65.95C401.32,-70 445.02,-75.92 473.24,-79.74"/>
<polygon fill="#63b8ff" stroke="#63b8ff" points="472.85,-83.22 483.23,-81.09 473.79,-76.28 472.85,-83.22"/>
</a>
</g>
</g>
<!-- Node14 -->
<g id="Node000014" class="node">
<title>Node14</title>
<g id="a_Node000014"><a xlink:href="guMtxF2L_8c.html#a257a86497fc08677370948eda3163595" target="_top" xlink:title=" ">
<polygon fill="white" stroke="#666666" points="541,-130 463,-130 463,-111 541,-111 541,-130"/>
<text text-anchor="middle" x="502" y="-118" font-family="Helvetica,sans-Serif" font-size="10.00">guMtxIdentF</text>
</a>
</g>
</g>
<!-- Node12&#45;&gt;Node14 -->
<g id="edge14_Node000012_Node000014" class="edge">
<title>Node12&#45;&gt;Node14</title>
<g id="a_edge14_Node000012_Node000014"><a xlink:title=" ">
<path fill="none" stroke="#63b8ff" d="M371.02,-67.73C384.04,-70.78 399.01,-75 412,-80.5 429.27,-87.82 431.02,-94.55 448,-102.5 451.76,-104.26 455.75,-105.94 459.77,-107.51"/>
<polygon fill="#63b8ff" stroke="#63b8ff" points="458.57,-110.79 469.16,-110.96 460.99,-104.22 458.57,-110.79"/>
</a>
</g>
</g>
<!-- Node15 -->
<g id="Node000015" class="node">
<title>Node15</title>
<g id="a_Node000015"><a xlink:href="guNormalize_8c.html#a7ad49cccf7be1e598544b9f0b35b5e28" target="_top" xlink:title=" ">
<polygon fill="white" stroke="#666666" points="541.5,-56 462.5,-56 462.5,-37 541.5,-37 541.5,-56"/>
<text text-anchor="middle" x="502" y="-44" font-family="Helvetica,sans-Serif" font-size="10.00">guNormalize</text>
</a>
</g>
</g>
<!-- Node12&#45;&gt;Node15 -->
<g id="edge15_Node000012_Node000015" class="edge">
<title>Node12&#45;&gt;Node15</title>
<g id="a_edge15_Node000012_Node000015"><a xlink:title=" ">
<path fill="none" stroke="#63b8ff" d="M371.38,-58.46C394.64,-56.32 426.2,-53.4 452.35,-50.99"/>
<polygon fill="#63b8ff" stroke="#63b8ff" points="452.82,-54.46 462.45,-50.06 452.17,-47.49 452.82,-54.46"/>
</a>
</g>
</g>
<!-- Node17 -->
<g id="Node000017" class="node">
<title>Node17</title>
<g id="a_Node000017"><a xlink:href="sinf_8c.html#a8a7dc2a88e109f4e15b661247665709a" target="_top" xlink:title=" ">
<polygon fill="white" stroke="#666666" points="519.5,-19 484.5,-19 484.5,0 519.5,0 519.5,-19"/>
<text text-anchor="middle" x="502" y="-7" font-family="Helvetica,sans-Serif" font-size="10.00">sinf</text>
</a>
</g>
</g>
<!-- Node12&#45;&gt;Node17 -->
<g id="edge17_Node000012_Node000017" class="edge">
<title>Node12&#45;&gt;Node17</title>
<g id="a_edge17_Node000012_Node000017"><a xlink:title=" ">
<path fill="none" stroke="#63b8ff" d="M368.31,-51.96C398.66,-42.25 445.29,-27.33 474.43,-18"/>
<polygon fill="#63b8ff" stroke="#63b8ff" points="475.85,-21.22 484.31,-14.84 473.72,-14.56 475.85,-21.22"/>
</a>
</g>
</g>
<!-- Node16 -->
<g id="Node000016" class="node">
<title>Node16</title>
<g id="a_Node000016"><a xlink:href="math_8h.html#a37bde043e94a6f074c78f10518fb5d99" target="_top" xlink:title=" ">
<polygon fill="white" stroke="#666666" points="631,-56 592,-56 592,-37 631,-37 631,-56"/>
<text text-anchor="middle" x="611.5" y="-44" font-family="Helvetica,sans-Serif" font-size="10.00">sqrtf</text>
</a>
</g>
</g>
<!-- Node15&#45;&gt;Node16 -->
<g id="edge16_Node000015_Node000016" class="edge">
<title>Node15&#45;&gt;Node16</title>
<g id="a_edge16_Node000015_Node000016"><a xlink:title=" ">
<path fill="none" stroke="#63b8ff" d="M541.51,-46.5C554.74,-46.5 569.32,-46.5 581.65,-46.5"/>
<polygon fill="#63b8ff" stroke="#63b8ff" points="581.82,-50 591.82,-46.5 581.82,-43 581.82,-50"/>
</a>
</g>
</g>
<!-- Node18&#45;&gt;Node9 -->
<g id="edge19_Node000018_Node000009" class="edge">
<title>Node18&#45;&gt;Node9</title>
<g id="a_edge19_Node000018_Node000009"><a xlink:title=" ">
<path fill="none" stroke="#63b8ff" d="M205.3,-143.99C219.78,-143.72 238.49,-143.36 257.23,-143.01"/>
<polygon fill="#63b8ff" stroke="#63b8ff" points="257.37,-146.5 267.3,-142.81 257.24,-139.5 257.37,-146.5"/>
</a>
</g>
</g>
<!-- Node18&#45;&gt;Node11 -->
<g id="edge20_Node000018_Node000011" class="edge">
<title>Node18&#45;&gt;Node11</title>
<g id="a_edge20_Node000018_Node000011"><a xlink:title=" ">
<path fill="none" stroke="#63b8ff" d="M205.02,-135.6C221.61,-130.14 243.47,-123.14 263,-117.5 273.36,-114.51 284.61,-111.49 295.12,-108.76"/>
<polygon fill="#63b8ff" stroke="#63b8ff" points="296.1,-112.12 304.92,-106.25 294.36,-105.34 296.1,-112.12"/>
</a>
</g>
</g>
<!-- Node19 -->
<g id="Node000019" class="node">
<title>Node19</title>
<g id="a_Node000019"><a xlink:href="guScaleF_8c.html#a19b9397a765b8eb04c94f9cdd554cdba" target="_top" xlink:title=" ">
<polygon fill="white" stroke="#666666" points="368,-194 307,-194 307,-175 368,-175 368,-194"/>
<text text-anchor="middle" x="337.5" y="-182" font-family="Helvetica,sans-Serif" font-size="10.00">guScaleF</text>
</a>
</g>
</g>
<!-- Node18&#45;&gt;Node19 -->
<g id="edge21_Node000018_Node000019" class="edge">
<title>Node18&#45;&gt;Node19</title>
<g id="a_edge21_Node000018_Node000019"><a xlink:title=" ">
<path fill="none" stroke="#63b8ff" d="M205.3,-151.29C230.5,-157.67 268.54,-167.29 297.17,-174.54"/>
<polygon fill="#63b8ff" stroke="#63b8ff" points="296.32,-177.94 306.87,-177 298.04,-171.15 296.32,-177.94"/>
</a>
</g>
</g>
<!-- Node19&#45;&gt;Node14 -->
<g id="edge22_Node000019_Node000014" class="edge">
<title>Node19&#45;&gt;Node14</title>
<g id="a_edge22_Node000019_Node000014"><a xlink:title=" ">
<path fill="none" stroke="#63b8ff" d="M368.34,-179.42C382.06,-176.43 398.28,-171.95 412,-165.5 429.86,-157.11 430.54,-148.7 448,-139.5 451.95,-137.42 456.18,-135.48 460.46,-133.69"/>
<polygon fill="#63b8ff" stroke="#63b8ff" points="461.78,-136.93 469.82,-130.03 459.24,-130.41 461.78,-136.93"/>
</a>
</g>
</g>
</g>
</svg>
