<?xml version="1.0" encoding="UTF-8" standalone="no"?>
<!DOCTYPE svg PUBLIC "-//W3C//DTD SVG 1.1//EN"
 "http://www.w3.org/Graphics/SVG/1.1/DTD/svg11.dtd">
<!-- Generated by graphviz version 2.43.0 (0)
 -->
<!-- Title: render_menu_item_announce_ghost Pages: 1 -->
<svg width="1543pt" height="618pt"
 viewBox="0.00 0.00 1543.00 617.73" xmlns="http://www.w3.org/2000/svg" xmlns:xlink="http://www.w3.org/1999/xlink">
<g id="graph0" class="graph" transform="scale(1 1) rotate(0) translate(4 613.73)">
<title>render_menu_item_announce_ghost</title>
<!-- Node1 -->
<g id="Node000001" class="node">
<title>Node1</title>
<g id="a_Node000001"><a xlink:title=" ">
<polygon fill="#999999" stroke="#666666" points="161,-90.5 0,-90.5 0,-60.5 161,-60.5 161,-90.5"/>
<text text-anchor="start" x="8" y="-78.5" font-family="Helvetica,sans-Serif" font-size="10.00">render_menu_item_announce</text>
<text text-anchor="middle" x="80.5" y="-67.5" font-family="Helvetica,sans-Serif" font-size="10.00">_ghost</text>
</a>
</g>
</g>
<!-- Node2 -->
<g id="Node000002" class="node">
<title>Node2</title>
<g id="a_Node000002"><a xlink:href="menu__items_8c.html#a4a3e73dfeae9dc0d77f213e77791181c" target="_top" xlink:title=" ">
<polygon fill="white" stroke="#666666" points="282,-104 218,-104 218,-85 282,-85 282,-104"/>
<text text-anchor="middle" x="250" y="-92" font-family="Helvetica,sans-Serif" font-size="10.00">draw_box</text>
</a>
</g>
</g>
<!-- Node1&#45;&gt;Node2 -->
<g id="edge1_Node000001_Node000002" class="edge">
<title>Node1&#45;&gt;Node2</title>
<g id="a_edge1_Node000001_Node000002"><a xlink:title=" ">
<path fill="none" stroke="#63b8ff" d="M161.33,-84.55C177.31,-86.37 193.48,-88.2 207.51,-89.79"/>
<polygon fill="#63b8ff" stroke="#63b8ff" points="207.45,-93.31 217.78,-90.96 208.24,-86.35 207.45,-93.31"/>
</a>
</g>
</g>
<!-- Node7 -->
<g id="Node000007" class="node">
<title>Node7</title>
<g id="a_Node000007"><a xlink:href="menu__items_8c.html#a7d794365d2dcd6526ddb06e476bef1e3" target="_top" xlink:title=" ">
<polygon fill="white" stroke="#666666" points="437,-57 339,-57 339,-38 437,-38 437,-57"/>
<text text-anchor="middle" x="388" y="-45" font-family="Helvetica,sans-Serif" font-size="10.00">get_string_width</text>
</a>
</g>
</g>
<!-- Node1&#45;&gt;Node7 -->
<g id="edge6_Node000001_Node000007" class="edge">
<title>Node1&#45;&gt;Node7</title>
<g id="a_edge6_Node000001_Node000007"><a xlink:title=" ">
<path fill="none" stroke="#63b8ff" d="M161.37,-68.18C213.74,-63.38 281.05,-57.21 328.48,-52.86"/>
<polygon fill="#63b8ff" stroke="#63b8ff" points="328.94,-56.34 338.58,-51.94 328.3,-49.37 328.94,-56.34"/>
</a>
</g>
</g>
<!-- Node12 -->
<g id="Node000012" class="node">
<title>Node12</title>
<g id="a_Node000012"><a xlink:href="menu__items_8c.html#ac9a8fae36ca33cb34bee67b9f9ab440f" target="_top" xlink:title=" ">
<polygon fill="white" stroke="#666666" points="303,-169.5 197,-169.5 197,-139.5 303,-139.5 303,-169.5"/>
<text text-anchor="start" x="205" y="-157.5" font-family="Helvetica,sans-Serif" font-size="10.00">print_text1_center</text>
<text text-anchor="middle" x="250" y="-146.5" font-family="Helvetica,sans-Serif" font-size="10.00">_mode_1</text>
</a>
</g>
</g>
<!-- Node1&#45;&gt;Node12 -->
<g id="edge12_Node000001_Node000012" class="edge">
<title>Node1&#45;&gt;Node12</title>
<g id="a_edge12_Node000001_Node000012"><a xlink:title=" ">
<path fill="none" stroke="#63b8ff" d="M113.4,-90.55C140.21,-103.19 178.7,-121.34 207.83,-135.08"/>
<polygon fill="#63b8ff" stroke="#63b8ff" points="206.4,-138.28 216.93,-139.38 209.38,-131.95 206.4,-138.28"/>
</a>
</g>
</g>
<!-- Node43 -->
<g id="Node000043" class="node">
<title>Node43</title>
<g id="a_Node000043"><a xlink:href="menu__items_8c.html#a1a002f259a6c887d6672085b8cda7d4d" target="_top" xlink:title=" ">
<polygon fill="white" stroke="#666666" points="293,-28 207,-28 207,-9 293,-9 293,-28"/>
<text text-anchor="middle" x="250" y="-16" font-family="Helvetica,sans-Serif" font-size="10.00">set_text_color</text>
</a>
</g>
</g>
<!-- Node1&#45;&gt;Node43 -->
<g id="edge55_Node000001_Node000043" class="edge">
<title>Node1&#45;&gt;Node43</title>
<g id="a_edge55_Node000001_Node000043"><a xlink:title=" ">
<path fill="none" stroke="#63b8ff" d="M125.95,-60.37C152.56,-51.32 186.01,-39.93 211.32,-31.32"/>
<polygon fill="#63b8ff" stroke="#63b8ff" points="212.59,-34.59 220.93,-28.05 210.34,-27.96 212.59,-34.59"/>
</a>
</g>
</g>
<!-- Node3 -->
<g id="Node000003" class="node">
<title>Node3</title>
<g id="a_Node000003"><a xlink:href="GBIMiddleware_8cpp.html#a4ecc44e3c6f1ca5a6b4a20c41d3bd2d2" target="_top" xlink:title=" ">
<polygon fill="white" stroke="#666666" points="1037.5,-263 948.5,-263 948.5,-244 1037.5,-244 1037.5,-263"/>
<text text-anchor="middle" x="993" y="-251" font-family="Helvetica,sans-Serif" font-size="10.00">gSPDisplayList</text>
</a>
</g>
</g>
<!-- Node2&#45;&gt;Node3 -->
<g id="edge2_Node000002_Node000003" class="edge">
<title>Node2&#45;&gt;Node3</title>
<g id="a_edge2_Node000002_Node000003"><a xlink:title=" ">
<path fill="none" stroke="#63b8ff" d="M282.29,-99.51C335.42,-107.56 446.75,-122.5 541.5,-122.5 541.5,-122.5 541.5,-122.5 695.5,-122.5 808.37,-122.5 926.39,-202.92 972.2,-237.74"/>
<polygon fill="#63b8ff" stroke="#63b8ff" points="970.08,-240.52 980.13,-243.87 974.36,-234.98 970.08,-240.52"/>
</a>
</g>
</g>
<!-- Node6 -->
<g id="Node000006" class="node">
<title>Node6</title>
<g id="a_Node000006"><a xlink:href="menu__items_8c.html#a2341569d8bfc9b8aac7d5dab7933c999" target="_top" xlink:title=" ">
<polygon fill="white" stroke="#666666" points="428,-94 348,-94 348,-75 428,-75 428,-94"/>
<text text-anchor="middle" x="388" y="-82" font-family="Helvetica,sans-Serif" font-size="10.00">swap_values</text>
</a>
</g>
</g>
<!-- Node2&#45;&gt;Node6 -->
<g id="edge5_Node000002_Node000006" class="edge">
<title>Node2&#45;&gt;Node6</title>
<g id="a_edge5_Node000002_Node000006"><a xlink:title=" ">
<path fill="none" stroke="#63b8ff" d="M282.2,-92.21C298.68,-90.99 319.28,-89.48 337.84,-88.11"/>
<polygon fill="#63b8ff" stroke="#63b8ff" points="338.19,-91.6 347.91,-87.37 337.68,-84.62 338.19,-91.6"/>
</a>
</g>
</g>
<!-- Node4 -->
<g id="Node000004" class="node">
<title>Node4</title>
<g id="a_Node000004"><a xlink:href="Engine_8cpp.html#a223c8bc63f228dc11177515e38eff2db" target="_top" xlink:title=" ">
<polygon fill="white" stroke="#666666" points="1248,-282 1099,-282 1099,-263 1248,-263 1248,-282"/>
<text text-anchor="middle" x="1173.5" y="-270" font-family="Helvetica,sans-Serif" font-size="10.00">GameEngine_OTRSigCheck</text>
</a>
</g>
</g>
<!-- Node3&#45;&gt;Node4 -->
<g id="edge3_Node000003_Node000004" class="edge">
<title>Node3&#45;&gt;Node4</title>
<g id="a_edge3_Node000003_Node000004"><a xlink:title=" ">
<path fill="none" stroke="#63b8ff" d="M1037.67,-258.15C1053.02,-259.78 1070.84,-261.68 1088.4,-263.55"/>
<polygon fill="#63b8ff" stroke="#63b8ff" points="1088.36,-267.06 1098.68,-264.64 1089.11,-260.1 1088.36,-267.06"/>
</a>
</g>
</g>
<!-- Node5 -->
<g id="Node000005" class="node">
<title>Node5</title>
<g id="a_Node000005"><a xlink:href="string_8c.html#a008e171a518fe0e0352f31b245e03875" target="_top" xlink:title=" ">
<polygon fill="white" stroke="#666666" points="1330.5,-282 1286.5,-282 1286.5,-263 1330.5,-263 1330.5,-282"/>
<text text-anchor="middle" x="1308.5" y="-270" font-family="Helvetica,sans-Serif" font-size="10.00">strlen</text>
</a>
</g>
</g>
<!-- Node4&#45;&gt;Node5 -->
<g id="edge4_Node000004_Node000005" class="edge">
<title>Node4&#45;&gt;Node5</title>
<g id="a_edge4_Node000004_Node000005"><a xlink:title=" ">
<path fill="none" stroke="#63b8ff" d="M1248,-272.5C1257.89,-272.5 1267.56,-272.5 1276.14,-272.5"/>
<polygon fill="#63b8ff" stroke="#63b8ff" points="1276.36,-276 1286.36,-272.5 1276.36,-269 1276.36,-276"/>
</a>
</g>
</g>
<!-- Node8 -->
<g id="Node000008" class="node">
<title>Node8</title>
<g id="a_Node000008"><a xlink:href="menu__items_8c.html#ace62f40ce813c34904327e39643a0dbf" target="_top" xlink:title=" ">
<polygon fill="white" stroke="#666666" points="601,-57 484,-57 484,-38 601,-38 601,-57"/>
<text text-anchor="middle" x="542.5" y="-45" font-family="Helvetica,sans-Serif" font-size="10.00">char_to_glyph_index</text>
</a>
</g>
</g>
<!-- Node7&#45;&gt;Node8 -->
<g id="edge7_Node000007_Node000008" class="edge">
<title>Node7&#45;&gt;Node8</title>
<g id="a_edge7_Node000007_Node000008"><a xlink:title=" ">
<path fill="none" stroke="#63b8ff" d="M437.25,-47.5C448.84,-47.5 461.43,-47.5 473.73,-47.5"/>
<polygon fill="#63b8ff" stroke="#63b8ff" points="473.95,-51 483.95,-47.5 473.95,-44 473.95,-51"/>
</a>
</g>
</g>
<!-- Node9 -->
<g id="Node000009" class="node">
<title>Node9</title>
<g id="a_Node000009"><a xlink:href="menu__items_8c.html#ae8ba1b567dba01ff15c64d416653a70b" target="_top" xlink:title=" ">
<polygon fill="white" stroke="#666666" points="740.5,-56 648.5,-56 648.5,-37 740.5,-37 740.5,-56"/>
<text text-anchor="middle" x="694.5" y="-44" font-family="Helvetica,sans-Serif" font-size="10.00">func_80092DF8</text>
</a>
</g>
</g>
<!-- Node8&#45;&gt;Node9 -->
<g id="edge8_Node000008_Node000009" class="edge">
<title>Node8&#45;&gt;Node9</title>
<g id="a_edge8_Node000008_Node000009"><a xlink:title=" ">
<path fill="none" stroke="#63b8ff" d="M601.06,-47.12C613.33,-47.03 626.25,-46.95 638.42,-46.87"/>
<polygon fill="#63b8ff" stroke="#63b8ff" points="638.46,-50.37 648.43,-46.8 638.41,-43.37 638.46,-50.37"/>
</a>
</g>
</g>
<!-- Node10 -->
<g id="Node000010" class="node">
<title>Node10</title>
<g id="a_Node000010"><a xlink:href="menu__items_8c.html#acd5b29a8e8634aa4f3db4b9a7c5ba033" target="_top" xlink:title=" ">
<polygon fill="white" stroke="#666666" points="878,-75 786,-75 786,-56 878,-56 878,-75"/>
<text text-anchor="middle" x="832" y="-63" font-family="Helvetica,sans-Serif" font-size="10.00">func_80092E1C</text>
</a>
</g>
</g>
<!-- Node8&#45;&gt;Node10 -->
<g id="edge10_Node000008_Node000010" class="edge">
<title>Node8&#45;&gt;Node10</title>
<g id="a_edge10_Node000008_Node000010"><a xlink:title=" ">
<path fill="none" stroke="#63b8ff" d="M592.22,-57.04C609.73,-60.04 629.68,-62.97 648,-64.5 690.65,-68.06 739.08,-68.15 775.4,-67.44"/>
<polygon fill="#63b8ff" stroke="#63b8ff" points="775.87,-70.93 785.79,-67.21 775.71,-63.93 775.87,-70.93"/>
</a>
</g>
</g>
<!-- Node11 -->
<g id="Node000011" class="node">
<title>Node11</title>
<g id="a_Node000011"><a xlink:href="menu__items_8c.html#ab26c8dca1828cd1d5a6c341cb851f0b9" target="_top" xlink:title=" ">
<polygon fill="white" stroke="#666666" points="740,-19 649,-19 649,0 740,0 740,-19"/>
<text text-anchor="middle" x="694.5" y="-7" font-family="Helvetica,sans-Serif" font-size="10.00">func_80092EE4</text>
</a>
</g>
</g>
<!-- Node8&#45;&gt;Node11 -->
<g id="edge11_Node000008_Node000011" class="edge">
<title>Node8&#45;&gt;Node11</title>
<g id="a_edge11_Node000008_Node000011"><a xlink:title=" ">
<path fill="none" stroke="#63b8ff" d="M581.35,-37.91C600.97,-32.94 625.12,-26.82 645.98,-21.54"/>
<polygon fill="#63b8ff" stroke="#63b8ff" points="647.09,-24.87 655.92,-19.02 645.37,-18.08 647.09,-24.87"/>
</a>
</g>
</g>
<!-- Node9&#45;&gt;Node10 -->
<g id="edge9_Node000009_Node000010" class="edge">
<title>Node9&#45;&gt;Node10</title>
<g id="a_edge9_Node000009_Node000010"><a xlink:title=" ">
<path fill="none" stroke="#63b8ff" d="M740.62,-52.83C751.81,-54.4 763.94,-56.1 775.56,-57.73"/>
<polygon fill="#63b8ff" stroke="#63b8ff" points="775.23,-61.21 785.62,-59.14 776.2,-54.28 775.23,-61.21"/>
</a>
</g>
</g>
<!-- Node13 -->
<g id="Node000013" class="node">
<title>Node13</title>
<g id="a_Node000013"><a xlink:href="menu__items_8c.html#ad2af1a6781c3f0bf246aba0d078ae773" target="_top" xlink:title=" ">
<polygon fill="white" stroke="#666666" points="423,-172 353,-172 353,-153 423,-153 423,-172"/>
<text text-anchor="middle" x="388" y="-160" font-family="Helvetica,sans-Serif" font-size="10.00">print_text1</text>
</a>
</g>
</g>
<!-- Node12&#45;&gt;Node13 -->
<g id="edge13_Node000012_Node000013" class="edge">
<title>Node12&#45;&gt;Node13</title>
<g id="a_edge13_Node000012_Node000013"><a xlink:title=" ">
<path fill="none" stroke="#63b8ff" d="M303.19,-157.57C316.18,-158.33 329.99,-159.15 342.57,-159.89"/>
<polygon fill="#63b8ff" stroke="#63b8ff" points="342.61,-163.4 352.8,-160.49 343.02,-156.41 342.61,-163.4"/>
</a>
</g>
</g>
<!-- Node13&#45;&gt;Node3 -->
<g id="edge16_Node000013_Node000003" class="edge">
<title>Node13&#45;&gt;Node3</title>
<g id="a_edge16_Node000013_Node000003"><a xlink:title=" ">
<path fill="none" stroke="#63b8ff" d="M397.64,-172.24C411.71,-187.3 441.18,-215.73 473,-227.5 557,-258.57 822.9,-257.09 938.01,-254.85"/>
<polygon fill="#63b8ff" stroke="#63b8ff" points="938.42,-258.35 948.34,-254.64 938.27,-251.35 938.42,-258.35"/>
</a>
</g>
</g>
<!-- Node13&#45;&gt;Node8 -->
<g id="edge14_Node000013_Node000008" class="edge">
<title>Node13&#45;&gt;Node8</title>
<g id="a_edge14_Node000013_Node000008"><a xlink:title=" ">
<path fill="none" stroke="#63b8ff" d="M401.74,-152.89C427.91,-133.16 487.98,-87.86 520.18,-63.58"/>
<polygon fill="#63b8ff" stroke="#63b8ff" points="522.6,-66.14 528.47,-57.32 518.38,-60.55 522.6,-66.14"/>
</a>
</g>
</g>
<!-- Node14 -->
<g id="Node000014" class="node">
<title>Node14</title>
<g id="a_Node000014"><a xlink:href="FrameInterpolation_8cpp.html#a14ceaeb116362786310778e36943f7be" target="_top" xlink:title=" ">
<polygon fill="white" stroke="#666666" points="612,-218.5 473,-218.5 473,-188.5 612,-188.5 612,-218.5"/>
<text text-anchor="start" x="481" y="-206.5" font-family="Helvetica,sans-Serif" font-size="10.00">FrameInterpolation</text>
<text text-anchor="middle" x="542.5" y="-195.5" font-family="Helvetica,sans-Serif" font-size="10.00">_ShouldInterpolateFrame</text>
</a>
</g>
</g>
<!-- Node13&#45;&gt;Node14 -->
<g id="edge15_Node000013_Node000014" class="edge">
<title>Node13&#45;&gt;Node14</title>
<g id="a_edge15_Node000013_Node000014"><a xlink:title=" ">
<path fill="none" stroke="#63b8ff" d="M423.22,-171.7C438.78,-175.88 457.73,-180.98 475.87,-185.85"/>
<polygon fill="#63b8ff" stroke="#63b8ff" points="474.98,-189.24 485.54,-188.46 476.79,-182.48 474.98,-189.24"/>
</a>
</g>
</g>
<!-- Node15 -->
<g id="Node000015" class="node">
<title>Node15</title>
<g id="a_Node000015"><a xlink:href="menu__items_8c.html#a68e560d23390d5add7cb57ccd82e21ae" target="_top" xlink:title=" ">
<polygon fill="white" stroke="#666666" points="590,-170 495,-170 495,-151 590,-151 590,-170"/>
<text text-anchor="middle" x="542.5" y="-158" font-family="Helvetica,sans-Serif" font-size="10.00">load_menu_img</text>
</a>
</g>
</g>
<!-- Node13&#45;&gt;Node15 -->
<g id="edge17_Node000013_Node000015" class="edge">
<title>Node13&#45;&gt;Node15</title>
<g id="a_edge17_Node000013_Node000015"><a xlink:title=" ">
<path fill="none" stroke="#63b8ff" d="M423.22,-162.05C441.33,-161.81 464.03,-161.52 484.69,-161.25"/>
<polygon fill="#63b8ff" stroke="#63b8ff" points="485,-164.74 494.96,-161.11 484.91,-157.74 485,-164.74"/>
</a>
</g>
</g>
<!-- Node17 -->
<g id="Node000017" class="node">
<title>Node17</title>
<g id="a_Node000017"><a xlink:href="menu__items_8c.html#aafca6e35a19465ad361e68b13e467243" target="_top" xlink:title=" ">
<polygon fill="white" stroke="#666666" points="578,-294 507,-294 507,-275 578,-275 578,-294"/>
<text text-anchor="middle" x="542.5" y="-282" font-family="Helvetica,sans-Serif" font-size="10.00">print_letter</text>
</a>
</g>
</g>
<!-- Node13&#45;&gt;Node17 -->
<g id="edge19_Node000013_Node000017" class="edge">
<title>Node13&#45;&gt;Node17</title>
<g id="a_edge19_Node000013_Node000017"><a xlink:title=" ">
<path fill="none" stroke="#63b8ff" d="M394.7,-172.04C406.76,-191.44 436.74,-235.72 473,-260.5 480.33,-265.51 488.82,-269.58 497.27,-272.85"/>
<polygon fill="#63b8ff" stroke="#63b8ff" points="496.13,-276.16 506.73,-276.21 498.48,-269.57 496.13,-276.16"/>
</a>
</g>
</g>
<!-- Node16 -->
<g id="Node000016" class="node">
<title>Node16</title>
<g id="a_Node000016"><a xlink:href="menu__items_8c.html#a248768ee2e4ca9ae9cf0a30bfb256859" target="_top" xlink:title=" ">
<polygon fill="white" stroke="#666666" points="733.5,-170 655.5,-170 655.5,-151 733.5,-151 733.5,-170"/>
<text text-anchor="middle" x="694.5" y="-158" font-family="Helvetica,sans-Serif" font-size="10.00">load_texture</text>
</a>
</g>
</g>
<!-- Node15&#45;&gt;Node16 -->
<g id="edge18_Node000015_Node000016" class="edge">
<title>Node15&#45;&gt;Node16</title>
<g id="a_edge18_Node000015_Node000016"><a xlink:title=" ">
<path fill="none" stroke="#63b8ff" d="M590.14,-160.5C607.68,-160.5 627.65,-160.5 645.33,-160.5"/>
<polygon fill="#63b8ff" stroke="#63b8ff" points="645.44,-164 655.44,-160.5 645.44,-157 645.44,-164"/>
</a>
</g>
</g>
<!-- Node17&#45;&gt;Node3 -->
<g id="edge54_Node000017_Node000003" class="edge">
<title>Node17&#45;&gt;Node3</title>
<g id="a_edge54_Node000017_Node000003"><a xlink:title=" ">
<path fill="none" stroke="#63b8ff" d="M578.32,-282.09C656.28,-276.7 845.32,-263.64 938.4,-257.2"/>
<polygon fill="#63b8ff" stroke="#63b8ff" points="938.72,-260.69 948.46,-256.51 938.24,-253.71 938.72,-260.69"/>
</a>
</g>
</g>
<!-- Node18 -->
<g id="Node000018" class="node">
<title>Node18</title>
<g id="a_Node000018"><a xlink:href="menu__items_8c.html#a37eb021a953285ba504198ac6ca73a9a" target="_top" xlink:title=" ">
<polygon fill="white" stroke="#666666" points="741,-412 648,-412 648,-393 741,-393 741,-412"/>
<text text-anchor="middle" x="694.5" y="-400" font-family="Helvetica,sans-Serif" font-size="10.00">func_80095BD0</text>
</a>
</g>
</g>
<!-- Node17&#45;&gt;Node18 -->
<g id="edge20_Node000017_Node000018" class="edge">
<title>Node17&#45;&gt;Node18</title>
<g id="a_edge20_Node000017_Node000018"><a xlink:title=" ">
<path fill="none" stroke="#63b8ff" d="M555.78,-294.16C581.49,-314.38 641.23,-361.38 672.91,-386.31"/>
<polygon fill="#63b8ff" stroke="#63b8ff" points="671.03,-389.28 681.06,-392.71 675.36,-383.78 671.03,-389.28"/>
</a>
</g>
</g>
<!-- Node19 -->
<g id="Node000019" class="node">
<title>Node19</title>
<g id="a_Node000019"><a xlink:href="Matrix_8cpp.html#a6f64c44efb9bdfff802175a9739ce1f1" target="_top" xlink:title=" ">
<polygon fill="white" stroke="#666666" points="875.5,-528 788.5,-528 788.5,-509 875.5,-509 875.5,-528"/>
<text text-anchor="middle" x="832" y="-516" font-family="Helvetica,sans-Serif" font-size="10.00">AddTextMatrix</text>
</a>
</g>
</g>
<!-- Node18&#45;&gt;Node19 -->
<g id="edge21_Node000018_Node000019" class="edge">
<title>Node18&#45;&gt;Node19</title>
<g id="a_edge21_Node000018_Node000019"><a xlink:title=" ">
<path fill="none" stroke="#63b8ff" d="M704.49,-412.47C718.97,-428.24 748.68,-459.5 777,-482.5 786.15,-489.93 796.83,-497.29 806.27,-503.41"/>
<polygon fill="#63b8ff" stroke="#63b8ff" points="804.53,-506.45 814.85,-508.85 808.28,-500.54 804.53,-506.45"/>
</a>
</g>
</g>
<!-- Node24 -->
<g id="Node000024" class="node">
<title>Node24</title>
<g id="a_Node000024"><a xlink:href="FrameInterpolation_8cpp.html#a3a036bc9d533e28a4e9697cd20dccf3e" target="_top" xlink:title=" ">
<polygon fill="white" stroke="#666666" points="887,-417.5 777,-417.5 777,-387.5 887,-387.5 887,-417.5"/>
<text text-anchor="start" x="785" y="-405.5" font-family="Helvetica,sans-Serif" font-size="10.00">FrameInterpolation</text>
<text text-anchor="middle" x="832" y="-394.5" font-family="Helvetica,sans-Serif" font-size="10.00">_RecordCloseChild</text>
</a>
</g>
</g>
<!-- Node18&#45;&gt;Node24 -->
<g id="edge26_Node000018_Node000024" class="edge">
<title>Node18&#45;&gt;Node24</title>
<g id="a_edge26_Node000018_Node000024"><a xlink:title=" ">
<path fill="none" stroke="#63b8ff" d="M741.37,-402.5C749.45,-402.5 758,-402.5 766.47,-402.5"/>
<polygon fill="#63b8ff" stroke="#63b8ff" points="766.74,-406 776.74,-402.5 766.74,-399 766.74,-406"/>
</a>
</g>
</g>
<!-- Node25 -->
<g id="Node000025" class="node">
<title>Node25</title>
<g id="a_Node000025"><a xlink:href="FrameInterpolation_8cpp.html#a0eda726b74eac815af4e874014e2727c" target="_top" xlink:title=" ">
<polygon fill="white" stroke="#666666" points="887,-601.5 777,-601.5 777,-571.5 887,-571.5 887,-601.5"/>
<text text-anchor="start" x="785" y="-589.5" font-family="Helvetica,sans-Serif" font-size="10.00">FrameInterpolation</text>
<text text-anchor="middle" x="832" y="-578.5" font-family="Helvetica,sans-Serif" font-size="10.00">_RecordOpenChild</text>
</a>
</g>
</g>
<!-- Node18&#45;&gt;Node25 -->
<g id="edge28_Node000018_Node000025" class="edge">
<title>Node18&#45;&gt;Node25</title>
<g id="a_edge28_Node000018_Node000025"><a xlink:title=" ">
<path fill="none" stroke="#63b8ff" d="M700.16,-412.29C711.43,-435.43 741.86,-494.8 777,-537.5 784.96,-547.18 794.84,-556.7 803.97,-564.74"/>
<polygon fill="#63b8ff" stroke="#63b8ff" points="801.85,-567.53 811.72,-571.38 806.41,-562.22 801.85,-567.53"/>
</a>
</g>
</g>
<!-- Node26 -->
<g id="Node000026" class="node">
<title>Node26</title>
<g id="a_Node000026"><a xlink:href="menu__items_8c.html#ae0fd5923ba70cf6939cd3fa8d09c1191" target="_top" xlink:title=" ">
<polygon fill="white" stroke="#666666" points="877.5,-332 786.5,-332 786.5,-313 877.5,-313 877.5,-332"/>
<text text-anchor="middle" x="832" y="-320" font-family="Helvetica,sans-Serif" font-size="10.00">func_800959F8</text>
</a>
</g>
</g>
<!-- Node18&#45;&gt;Node26 -->
<g id="edge30_Node000018_Node000026" class="edge">
<title>Node18&#45;&gt;Node26</title>
<g id="a_edge30_Node000018_Node000026"><a xlink:title=" ">
<path fill="none" stroke="#63b8ff" d="M706.36,-392.64C721.33,-379.49 749.56,-356.15 777,-341.5 780.8,-339.47 784.86,-337.59 788.98,-335.85"/>
<polygon fill="#63b8ff" stroke="#63b8ff" points="790.58,-338.99 798.62,-332.09 788.03,-332.47 790.58,-338.99"/>
</a>
</g>
</g>
<!-- Node28 -->
<g id="Node000028" class="node">
<title>Node28</title>
<g id="a_Node000028"><a xlink:href="stubs_8c.html#a8b417b868747c80d58f83d8a1e78ecf3" target="_top" xlink:title=" ">
<polygon fill="white" stroke="#666666" points="866,-369 798,-369 798,-350 866,-350 866,-369"/>
<text text-anchor="middle" x="832" y="-357" font-family="Helvetica,sans-Serif" font-size="10.00">rmonPrintf</text>
</a>
</g>
</g>
<!-- Node18&#45;&gt;Node28 -->
<g id="edge34_Node000018_Node000028" class="edge">
<title>Node18&#45;&gt;Node28</title>
<g id="a_edge34_Node000018_Node000028"><a xlink:title=" ">
<path fill="none" stroke="#63b8ff" d="M725.57,-392.96C744.96,-386.81 770.38,-378.74 791.4,-372.07"/>
<polygon fill="#63b8ff" stroke="#63b8ff" points="792.54,-375.38 801.01,-369.02 790.42,-368.71 792.54,-375.38"/>
</a>
</g>
</g>
<!-- Node41 -->
<g id="Node000041" class="node">
<title>Node41</title>
<g id="a_Node000041"><a xlink:href="Matrix_8cpp.html#a9818099a1ee20606a7d622e744846366" target="_top" xlink:title=" ">
<polygon fill="white" stroke="#666666" points="874,-455 790,-455 790,-436 874,-436 874,-455"/>
<text text-anchor="middle" x="832" y="-443" font-family="Helvetica,sans-Serif" font-size="10.00">SetTextMatrix</text>
</a>
</g>
</g>
<!-- Node18&#45;&gt;Node41 -->
<g id="edge50_Node000018_Node000041" class="edge">
<title>Node18&#45;&gt;Node41</title>
<g id="a_edge50_Node000018_Node000041"><a xlink:title=" ">
<path fill="none" stroke="#63b8ff" d="M725.57,-412.04C744.96,-418.19 770.38,-426.26 791.4,-432.93"/>
<polygon fill="#63b8ff" stroke="#63b8ff" points="790.42,-436.29 801.01,-435.98 792.54,-429.62 790.42,-436.29"/>
</a>
</g>
</g>
<!-- Node20 -->
<g id="Node000020" class="node">
<title>Node20</title>
<g id="a_Node000020"><a xlink:href="FrameInterpolation_8cpp.html#a8cf1f2d6fabc6925aa71a9515341b4aa" target="_top" xlink:title=" ">
<polygon fill="white" stroke="#666666" points="1063,-508.5 923,-508.5 923,-478.5 1063,-478.5 1063,-508.5"/>
<text text-anchor="start" x="931" y="-496.5" font-family="Helvetica,sans-Serif" font-size="10.00">FrameInterpolation</text>
<text text-anchor="middle" x="993" y="-485.5" font-family="Helvetica,sans-Serif" font-size="10.00">_RecordMatrixMtxFToMtx</text>
</a>
</g>
</g>
<!-- Node19&#45;&gt;Node20 -->
<g id="edge22_Node000019_Node000020" class="edge">
<title>Node19&#45;&gt;Node20</title>
<g id="a_edge22_Node000019_Node000020"><a xlink:title=" ">
<path fill="none" stroke="#63b8ff" d="M875.61,-511.8C887.08,-510 899.86,-507.99 912.64,-505.98"/>
<polygon fill="#63b8ff" stroke="#63b8ff" points="913.53,-509.38 922.86,-504.37 912.44,-502.47 913.53,-509.38"/>
</a>
</g>
</g>
<!-- Node22 -->
<g id="Node000022" class="node">
<title>Node22</title>
<g id="a_Node000022"><a xlink:href="Game_8cpp.html#ae2fa844b3cb1021ecbc357f8ed2ad8cc" target="_top" xlink:title=" ">
<polygon fill="white" stroke="#666666" points="1024,-546 962,-546 962,-527 1024,-527 1024,-546"/>
<text text-anchor="middle" x="993" y="-534" font-family="Helvetica,sans-Serif" font-size="10.00">GetWorld</text>
</a>
</g>
</g>
<!-- Node19&#45;&gt;Node22 -->
<g id="edge24_Node000019_Node000022" class="edge">
<title>Node19&#45;&gt;Node22</title>
<g id="a_edge24_Node000019_Node000022"><a xlink:title=" ">
<path fill="none" stroke="#63b8ff" d="M875.61,-523.32C899.22,-526 928.41,-529.3 951.65,-531.93"/>
<polygon fill="#63b8ff" stroke="#63b8ff" points="951.54,-535.44 961.87,-533.09 952.33,-528.49 951.54,-535.44"/>
</a>
</g>
</g>
<!-- Node23 -->
<g id="Node000023" class="node">
<title>Node23</title>
<g id="a_Node000023"><a xlink:href="guMtxF2L_8c.html#a40ab2d64c609839ff1e0ef0de2d0dcc4" target="_top" xlink:title=" ">
<polygon fill="white" stroke="#666666" points="1025.5,-583 960.5,-583 960.5,-564 1025.5,-564 1025.5,-583"/>
<text text-anchor="middle" x="993" y="-571" font-family="Helvetica,sans-Serif" font-size="10.00">guMtxF2L</text>
</a>
</g>
</g>
<!-- Node19&#45;&gt;Node23 -->
<g id="edge25_Node000019_Node000023" class="edge">
<title>Node19&#45;&gt;Node23</title>
<g id="a_edge25_Node000019_Node000023"><a xlink:title=" ">
<path fill="none" stroke="#63b8ff" d="M854.15,-528.15C872.2,-536.14 898.97,-547.47 923,-555.5 931.88,-558.47 941.54,-561.25 950.74,-563.71"/>
<polygon fill="#63b8ff" stroke="#63b8ff" points="949.92,-567.11 960.48,-566.23 951.68,-560.33 949.92,-567.11"/>
</a>
</g>
</g>
<!-- Node21 -->
<g id="Node000021" class="node">
<title>Node21</title>
<g id="a_Node000021"><a xlink:href="FrameInterpolation_8cpp.html#a02c7ac5342a4d376edee38f312b480bf" target="_top" xlink:title=" ">
<polygon fill="white" stroke="#666666" points="1227.5,-479 1119.5,-479 1119.5,-460 1227.5,-460 1227.5,-479"/>
<text text-anchor="middle" x="1173.5" y="-467" font-family="Helvetica,sans-Serif" font-size="10.00">check_if_recording</text>
</a>
</g>
</g>
<!-- Node20&#45;&gt;Node21 -->
<g id="edge23_Node000020_Node000021" class="edge">
<title>Node20&#45;&gt;Node21</title>
<g id="a_edge23_Node000020_Node000021"><a xlink:title=" ">
<path fill="none" stroke="#63b8ff" d="M1063.01,-484.22C1078.24,-482.17 1094.29,-480.02 1109.27,-478"/>
<polygon fill="#63b8ff" stroke="#63b8ff" points="1110.01,-481.43 1119.45,-476.63 1109.07,-474.5 1110.01,-481.43"/>
</a>
</g>
</g>
<!-- Node24&#45;&gt;Node21 -->
<g id="edge27_Node000024_Node000021" class="edge">
<title>Node24&#45;&gt;Node21</title>
<g id="a_edge27_Node000024_Node000021"><a xlink:title=" ">
<path fill="none" stroke="#63b8ff" d="M887.27,-401.97C934.41,-402.69 1004.15,-406.61 1063,-421.5 1092.8,-429.04 1124.76,-443.92 1146.42,-455.12"/>
<polygon fill="#63b8ff" stroke="#63b8ff" points="1144.83,-458.24 1155.31,-459.82 1148.1,-452.05 1144.83,-458.24"/>
</a>
</g>
</g>
<!-- Node25&#45;&gt;Node21 -->
<g id="edge29_Node000025_Node000021" class="edge">
<title>Node25&#45;&gt;Node21</title>
<g id="a_edge29_Node000025_Node000021"><a xlink:title=" ">
<path fill="none" stroke="#63b8ff" d="M887.18,-600.69C935.51,-610.44 1007.06,-617.6 1063,-592.5 1110.84,-571.04 1146.33,-517.21 1162.61,-488.4"/>
<polygon fill="#63b8ff" stroke="#63b8ff" points="1165.84,-489.8 1167.56,-479.34 1159.69,-486.44 1165.84,-489.8"/>
</a>
</g>
</g>
<!-- Node26&#45;&gt;Node3 -->
<g id="edge31_Node000026_Node000003" class="edge">
<title>Node26&#45;&gt;Node3</title>
<g id="a_edge31_Node000026_Node000003"><a xlink:title=" ">
<path fill="none" stroke="#63b8ff" d="M857.45,-312.91C866.9,-308.87 877.66,-303.87 887,-298.5 904.11,-288.66 905.2,-281.03 923,-272.5 927.97,-270.12 933.29,-267.99 938.69,-266.1"/>
<polygon fill="#63b8ff" stroke="#63b8ff" points="940,-269.35 948.44,-262.95 937.85,-262.69 940,-269.35"/>
</a>
</g>
</g>
<!-- Node27 -->
<g id="Node000027" class="node">
<title>Node27</title>
<g id="a_Node000027"><a xlink:href="GBIMiddleware_8cpp.html#aeef79449a27a710d73576e4a4f7f7f99" target="_top" xlink:title=" ">
<polygon fill="white" stroke="#666666" points="1026,-300 960,-300 960,-281 1026,-281 1026,-300"/>
<text text-anchor="middle" x="993" y="-288" font-family="Helvetica,sans-Serif" font-size="10.00">gSPVertex</text>
</a>
</g>
</g>
<!-- Node26&#45;&gt;Node27 -->
<g id="edge32_Node000026_Node000027" class="edge">
<title>Node26&#45;&gt;Node27</title>
<g id="a_edge32_Node000026_Node000027"><a xlink:title=" ">
<path fill="none" stroke="#63b8ff" d="M877.71,-313.5C900.33,-308.95 927.64,-303.45 949.88,-298.98"/>
<polygon fill="#63b8ff" stroke="#63b8ff" points="950.6,-302.4 959.71,-297 949.22,-295.54 950.6,-302.4"/>
</a>
</g>
</g>
<!-- Node27&#45;&gt;Node4 -->
<g id="edge33_Node000027_Node000004" class="edge">
<title>Node27&#45;&gt;Node4</title>
<g id="a_edge33_Node000027_Node000004"><a xlink:title=" ">
<path fill="none" stroke="#63b8ff" d="M1026.33,-287.24C1043.92,-285.47 1066.59,-283.18 1088.8,-280.94"/>
<polygon fill="#63b8ff" stroke="#63b8ff" points="1089.35,-284.4 1098.95,-279.92 1088.65,-277.44 1089.35,-284.4"/>
</a>
</g>
</g>
<!-- Node29 -->
<g id="Node000029" class="node">
<title>Node29</title>
<g id="a_Node000029"><a xlink:href="__Printf_8c.html#a39bb05c90efce6c6790c5d58d271d72d" target="_top" xlink:title=" ">
<polygon fill="white" stroke="#666666" points="1017,-337 969,-337 969,-318 1017,-318 1017,-337"/>
<text text-anchor="middle" x="993" y="-325" font-family="Helvetica,sans-Serif" font-size="10.00">_Printf</text>
</a>
</g>
</g>
<!-- Node28&#45;&gt;Node29 -->
<g id="edge35_Node000028_Node000029" class="edge">
<title>Node28&#45;&gt;Node29</title>
<g id="a_edge35_Node000028_Node000029"><a xlink:title=" ">
<path fill="none" stroke="#63b8ff" d="M866.33,-352.79C893.62,-347.3 932.03,-339.57 959.18,-334.11"/>
<polygon fill="#63b8ff" stroke="#63b8ff" points="959.87,-337.54 968.99,-332.13 958.49,-330.67 959.87,-337.54"/>
</a>
</g>
</g>
<!-- Node40 -->
<g id="Node000040" class="node">
<title>Node40</title>
<g id="a_Node000040"><a xlink:href="is__debug_8c.html#aaccfac8d9098530b6592eefe679d86b4" target="_top" xlink:title=" ">
<polygon fill="white" stroke="#666666" points="1045.5,-374 940.5,-374 940.5,-355 1045.5,-355 1045.5,-374"/>
<text text-anchor="middle" x="993" y="-362" font-family="Helvetica,sans-Serif" font-size="10.00">is_proutSyncPrintf</text>
</a>
</g>
</g>
<!-- Node28&#45;&gt;Node40 -->
<g id="edge49_Node000028_Node000040" class="edge">
<title>Node28&#45;&gt;Node40</title>
<g id="a_edge49_Node000028_Node000040"><a xlink:title=" ">
<path fill="none" stroke="#63b8ff" d="M866.33,-360.55C884.81,-361.13 908.37,-361.87 930.09,-362.55"/>
<polygon fill="#63b8ff" stroke="#63b8ff" points="930.14,-366.06 940.24,-362.87 930.36,-359.06 930.14,-366.06"/>
</a>
</g>
</g>
<!-- Node30 -->
<g id="Node000030" class="node">
<title>Node30</title>
<g id="a_Node000030"><a xlink:href="__Printf_8c.html#ad73a5847f2d7c9de14cc2723da86bf45" target="_top" xlink:title=" ">
<polygon fill="white" stroke="#666666" points="1198.5,-319 1148.5,-319 1148.5,-300 1198.5,-300 1198.5,-319"/>
<text text-anchor="middle" x="1173.5" y="-307" font-family="Helvetica,sans-Serif" font-size="10.00">_Putfld</text>
</a>
</g>
</g>
<!-- Node29&#45;&gt;Node30 -->
<g id="edge36_Node000029_Node000030" class="edge">
<title>Node29&#45;&gt;Node30</title>
<g id="a_edge36_Node000029_Node000030"><a xlink:title=" ">
<path fill="none" stroke="#63b8ff" d="M1017.34,-325.15C1048.08,-322.05 1102.41,-316.57 1137.93,-312.99"/>
<polygon fill="#63b8ff" stroke="#63b8ff" points="1138.7,-316.43 1148.3,-311.94 1138,-309.46 1138.7,-316.43"/>
</a>
</g>
</g>
<!-- Node39 -->
<g id="Node000039" class="node">
<title>Node39</title>
<g id="a_Node000039"><a xlink:href="string_8c.html#a988b4defe51a1815ef3b9ddab10e7a89" target="_top" xlink:title=" ">
<polygon fill="white" stroke="#666666" points="1195.5,-356 1151.5,-356 1151.5,-337 1195.5,-337 1195.5,-356"/>
<text text-anchor="middle" x="1173.5" y="-344" font-family="Helvetica,sans-Serif" font-size="10.00">strchr</text>
</a>
</g>
</g>
<!-- Node29&#45;&gt;Node39 -->
<g id="edge48_Node000029_Node000039" class="edge">
<title>Node29&#45;&gt;Node39</title>
<g id="a_edge48_Node000029_Node000039"><a xlink:title=" ">
<path fill="none" stroke="#63b8ff" d="M1017.34,-329.98C1049.02,-333.36 1105.76,-339.4 1141.14,-343.16"/>
<polygon fill="#63b8ff" stroke="#63b8ff" points="1141.07,-346.67 1151.38,-344.25 1141.81,-339.71 1141.07,-346.67"/>
</a>
</g>
</g>
<!-- Node30&#45;&gt;Node5 -->
<g id="edge47_Node000030_Node000005" class="edge">
<title>Node30&#45;&gt;Node5</title>
<g id="a_edge47_Node000030_Node000005"><a xlink:title=" ">
<path fill="none" stroke="#63b8ff" d="M1198.78,-304C1213.15,-300.63 1231.69,-296.1 1248,-291.5 1257.43,-288.84 1267.61,-285.7 1276.84,-282.74"/>
<polygon fill="#63b8ff" stroke="#63b8ff" points="1277.97,-286.05 1286.4,-279.63 1275.81,-279.39 1277.97,-286.05"/>
</a>
</g>
</g>
<!-- Node31 -->
<g id="Node000031" class="node">
<title>Node31</title>
<g id="a_Node000031"><a xlink:href="__Ldtob_8c.html#a7cc858157b66e15c831ad085113729ae" target="_top" xlink:title=" ">
<polygon fill="white" stroke="#666666" points="1333,-319 1284,-319 1284,-300 1333,-300 1333,-319"/>
<text text-anchor="middle" x="1308.5" y="-307" font-family="Helvetica,sans-Serif" font-size="10.00">_Ldtob</text>
</a>
</g>
</g>
<!-- Node30&#45;&gt;Node31 -->
<g id="edge37_Node000030_Node000031" class="edge">
<title>Node30&#45;&gt;Node31</title>
<g id="a_edge37_Node000030_Node000031"><a xlink:title=" ">
<path fill="none" stroke="#63b8ff" d="M1198.59,-309.5C1219.49,-309.5 1249.99,-309.5 1273.4,-309.5"/>
<polygon fill="#63b8ff" stroke="#63b8ff" points="1273.59,-313 1283.59,-309.5 1273.59,-306 1273.59,-313"/>
</a>
</g>
</g>
<!-- Node37 -->
<g id="Node000037" class="node">
<title>Node37</title>
<g id="a_Node000037"><a xlink:href="__Litob_8c.html#aaaba3b0ab7920d422a61fe9e22600dd0" target="_top" xlink:title=" ">
<polygon fill="white" stroke="#666666" points="1331.5,-413 1285.5,-413 1285.5,-394 1331.5,-394 1331.5,-413"/>
<text text-anchor="middle" x="1308.5" y="-401" font-family="Helvetica,sans-Serif" font-size="10.00">_Litob</text>
</a>
</g>
</g>
<!-- Node30&#45;&gt;Node37 -->
<g id="edge44_Node000030_Node000037" class="edge">
<title>Node30&#45;&gt;Node37</title>
<g id="a_edge44_Node000030_Node000037"><a xlink:title=" ">
<path fill="none" stroke="#63b8ff" d="M1198.58,-311.77C1213.75,-314.12 1233.19,-318.87 1248,-328.5 1269.78,-342.66 1287.15,-367.49 1297.37,-384.68"/>
<polygon fill="#63b8ff" stroke="#63b8ff" points="1294.56,-386.82 1302.54,-393.78 1300.64,-383.36 1294.56,-386.82"/>
</a>
</g>
</g>
<!-- Node32 -->
<g id="Node000032" class="node">
<title>Node32</title>
<g id="a_Node000032"><a xlink:href="__Ldtob_8c.html#a2b6c5318b43bab1636bad9113ffb2761" target="_top" xlink:title=" ">
<polygon fill="white" stroke="#666666" points="1429.5,-375 1379.5,-375 1379.5,-356 1429.5,-356 1429.5,-375"/>
<text text-anchor="middle" x="1404.5" y="-363" font-family="Helvetica,sans-Serif" font-size="10.00">_Genld</text>
</a>
</g>
</g>
<!-- Node31&#45;&gt;Node32 -->
<g id="edge38_Node000031_Node000032" class="edge">
<title>Node31&#45;&gt;Node32</title>
<g id="a_edge38_Node000031_Node000032"><a xlink:title=" ">
<path fill="none" stroke="#63b8ff" d="M1323.95,-319.23C1335.87,-327.13 1353.3,-338.41 1369,-347.5 1371,-348.65 1373.07,-349.82 1375.17,-350.98"/>
<polygon fill="#63b8ff" stroke="#63b8ff" points="1373.89,-354.26 1384.36,-355.89 1377.19,-348.09 1373.89,-354.26"/>
</a>
</g>
</g>
<!-- Node33 -->
<g id="Node000033" class="node">
<title>Node33</title>
<g id="a_Node000033"><a xlink:href="string_8c.html#ad7f1ae1bbb49dece44bda378982a704d" target="_top" xlink:title=" ">
<polygon fill="white" stroke="#666666" points="1535,-375 1476,-375 1476,-356 1535,-356 1535,-375"/>
<text text-anchor="middle" x="1505.5" y="-363" font-family="Helvetica,sans-Serif" font-size="10.00">memcpy</text>
</a>
</g>
</g>
<!-- Node31&#45;&gt;Node33 -->
<g id="edge42_Node000031_Node000033" class="edge">
<title>Node31&#45;&gt;Node33</title>
<g id="a_edge42_Node000031_Node000033"><a xlink:title=" ">
<path fill="none" stroke="#63b8ff" d="M1323.58,-299.95C1326.86,-297.4 1330.2,-294.51 1333,-291.5 1352.88,-270.09 1343.3,-250.39 1369,-236.5 1396.76,-221.49 1413.16,-219.91 1440,-236.5 1478.91,-260.55 1495.13,-315.95 1501.23,-345.73"/>
<polygon fill="#63b8ff" stroke="#63b8ff" points="1497.83,-346.57 1503.1,-355.76 1504.71,-345.29 1497.83,-346.57"/>
</a>
</g>
</g>
<!-- Node34 -->
<g id="Node000034" class="node">
<title>Node34</title>
<g id="a_Node000034"><a xlink:href="__Ldtob_8c.html#ab7ade9ce60aaa8baa0244b503351d742" target="_top" xlink:title=" ">
<polygon fill="white" stroke="#666666" points="1440,-264 1369,-264 1369,-245 1440,-245 1440,-264"/>
<text text-anchor="middle" x="1404.5" y="-252" font-family="Helvetica,sans-Serif" font-size="10.00">_Ldunscale</text>
</a>
</g>
</g>
<!-- Node31&#45;&gt;Node34 -->
<g id="edge40_Node000031_Node000034" class="edge">
<title>Node31&#45;&gt;Node34</title>
<g id="a_edge40_Node000031_Node000034"><a xlink:title=" ">
<path fill="none" stroke="#63b8ff" d="M1325.06,-299.85C1337,-292.5 1353.94,-282.2 1369,-273.5 1371.55,-272.03 1374.23,-270.51 1376.9,-269"/>
<polygon fill="#63b8ff" stroke="#63b8ff" points="1378.83,-271.94 1385.87,-264.03 1375.43,-265.82 1378.83,-271.94"/>
</a>
</g>
</g>
<!-- Node35 -->
<g id="Node000035" class="node">
<title>Node35</title>
<g id="a_Node000035"><a xlink:href="ldiv_8c.html#a0302920caf64a5fbe1ce0862799d7784" target="_top" xlink:title=" ">
<polygon fill="white" stroke="#666666" points="1422,-338 1387,-338 1387,-319 1422,-319 1422,-338"/>
<text text-anchor="middle" x="1404.5" y="-326" font-family="Helvetica,sans-Serif" font-size="10.00">ldiv</text>
</a>
</g>
</g>
<!-- Node31&#45;&gt;Node35 -->
<g id="edge41_Node000031_Node000035" class="edge">
<title>Node31&#45;&gt;Node35</title>
<g id="a_edge41_Node000031_Node000035"><a xlink:title=" ">
<path fill="none" stroke="#63b8ff" d="M1333.22,-314.29C1346.57,-316.99 1363.27,-320.37 1377.04,-323.15"/>
<polygon fill="#63b8ff" stroke="#63b8ff" points="1376.4,-326.59 1386.9,-325.14 1377.79,-319.73 1376.4,-326.59"/>
</a>
</g>
</g>
<!-- Node36 -->
<g id="Node000036" class="node">
<title>Node36</title>
<g id="a_Node000036"><a xlink:href="alBnkfNew_8c.html#a96a0200a6b40350e524f536d232ecb53" target="_top" xlink:title=" ">
<polygon fill="white" stroke="#666666" points="1430.5,-301 1378.5,-301 1378.5,-282 1430.5,-282 1430.5,-301"/>
<text text-anchor="middle" x="1404.5" y="-289" font-family="Helvetica,sans-Serif" font-size="10.00">unused</text>
</a>
</g>
</g>
<!-- Node31&#45;&gt;Node36 -->
<g id="edge43_Node000031_Node000036" class="edge">
<title>Node31&#45;&gt;Node36</title>
<g id="a_edge43_Node000031_Node000036"><a xlink:title=" ">
<path fill="none" stroke="#63b8ff" d="M1333.22,-304.96C1343.9,-302.91 1356.74,-300.45 1368.5,-298.2"/>
<polygon fill="#63b8ff" stroke="#63b8ff" points="1369.31,-301.61 1378.47,-296.29 1367.99,-294.74 1369.31,-301.61"/>
</a>
</g>
</g>
<!-- Node32&#45;&gt;Node33 -->
<g id="edge39_Node000032_Node000033" class="edge">
<title>Node32&#45;&gt;Node33</title>
<g id="a_edge39_Node000032_Node000033"><a xlink:title=" ">
<path fill="none" stroke="#63b8ff" d="M1429.72,-365.5C1440.52,-365.5 1453.52,-365.5 1465.63,-365.5"/>
<polygon fill="#63b8ff" stroke="#63b8ff" points="1465.96,-369 1475.96,-365.5 1465.96,-362 1465.96,-369"/>
</a>
</g>
</g>
<!-- Node37&#45;&gt;Node33 -->
<g id="edge46_Node000037_Node000033" class="edge">
<title>Node37&#45;&gt;Node33</title>
<g id="a_edge46_Node000037_Node000033"><a xlink:title=" ">
<path fill="none" stroke="#63b8ff" d="M1331.84,-401.22C1357.97,-398.34 1402.43,-392.73 1440,-384.5 1448.52,-382.63 1457.57,-380.24 1466.11,-377.78"/>
<polygon fill="#63b8ff" stroke="#63b8ff" points="1467.24,-381.09 1475.83,-374.89 1465.25,-374.38 1467.24,-381.09"/>
</a>
</g>
</g>
<!-- Node38 -->
<g id="Node000038" class="node">
<title>Node38</title>
<g id="a_Node000038"><a xlink:href="ldiv_8c.html#a5b23c3639f11980dca762c5f1d74f339" target="_top" xlink:title=" ">
<polygon fill="white" stroke="#666666" points="1423.5,-451 1385.5,-451 1385.5,-432 1423.5,-432 1423.5,-451"/>
<text text-anchor="middle" x="1404.5" y="-439" font-family="Helvetica,sans-Serif" font-size="10.00">lldiv</text>
</a>
</g>
</g>
<!-- Node37&#45;&gt;Node38 -->
<g id="edge45_Node000037_Node000038" class="edge">
<title>Node37&#45;&gt;Node38</title>
<g id="a_edge45_Node000037_Node000038"><a xlink:title=" ">
<path fill="none" stroke="#63b8ff" d="M1331.78,-412.51C1344.97,-417.84 1361.8,-424.64 1375.84,-430.32"/>
<polygon fill="#63b8ff" stroke="#63b8ff" points="1374.89,-433.71 1385.47,-434.21 1377.52,-427.22 1374.89,-433.71"/>
</a>
</g>
</g>
<!-- Node41&#45;&gt;Node41 -->
<g id="edge53_Node000041_Node000041" class="edge">
<title>Node41&#45;&gt;Node41</title>
<g id="a_edge53_Node000041_Node000041"><a xlink:title=" ">
<path fill="none" stroke="#63b8ff" d="M811.04,-455.08C800.84,-463.73 807.83,-473 832,-473 847.49,-473 855.92,-469.2 857.3,-464.19"/>
<polygon fill="#63b8ff" stroke="#63b8ff" points="860.42,-462.61 852.96,-455.08 854.1,-465.62 860.42,-462.61"/>
</a>
</g>
</g>
<!-- Node42 -->
<g id="Node000042" class="node">
<title>Node42</title>
<g id="a_Node000042"><a xlink:href="FrameInterpolation_8cpp.html#a5fbd67ef553452903cf553b9c224fa76" target="_top" xlink:title=" ">
<polygon fill="white" stroke="#666666" points="1057,-460.5 929,-460.5 929,-430.5 1057,-430.5 1057,-460.5"/>
<text text-anchor="start" x="937" y="-448.5" font-family="Helvetica,sans-Serif" font-size="10.00">FrameInterpolation</text>
<text text-anchor="middle" x="993" y="-437.5" font-family="Helvetica,sans-Serif" font-size="10.00">_Record_SetTextMatrix</text>
</a>
</g>
</g>
<!-- Node41&#45;&gt;Node42 -->
<g id="edge51_Node000041_Node000042" class="edge">
<title>Node41&#45;&gt;Node42</title>
<g id="a_edge51_Node000041_Node000042"><a xlink:title=" ">
<path fill="none" stroke="#63b8ff" d="M874.36,-445.5C887.89,-445.5 903.36,-445.5 918.53,-445.5"/>
<polygon fill="#63b8ff" stroke="#63b8ff" points="918.95,-449 928.95,-445.5 918.95,-442 918.95,-449"/>
</a>
</g>
</g>
<!-- Node42&#45;&gt;Node21 -->
<g id="edge52_Node000042_Node000021" class="edge">
<title>Node42&#45;&gt;Node21</title>
<g id="a_edge52_Node000042_Node000021"><a xlink:title=" ">
<path fill="none" stroke="#63b8ff" d="M1057.18,-454C1074.04,-456.26 1092.26,-458.71 1109.13,-460.98"/>
<polygon fill="#63b8ff" stroke="#63b8ff" points="1109.06,-464.5 1119.44,-462.37 1109.99,-457.56 1109.06,-464.5"/>
</a>
</g>
</g>
</g>
</svg>
