<?xml version="1.0" encoding="UTF-8" standalone="no"?>
<!DOCTYPE svg PUBLIC "-//W3C//DTD SVG 1.1//EN"
 "http://www.w3.org/Graphics/SVG/1.1/DTD/svg11.dtd">
<!-- Generated by graphviz version 2.43.0 (0)
 -->
<!-- Title: func_800A75A0 Pages: 1 -->
<!--zoomable 575 -->

<svg id="main" version="1.1" xmlns="http://www.w3.org/2000/svg" xmlns:xlink="http://www.w3.org/1999/xlink" xml:space="preserve" onload="init(evt)">

<style type="text/css"><![CDATA[
.node, .edge {opacity: 0.7;}
.node.selected, .edge.selected {opacity: 1;}
.edge:hover path { stroke: red; }
.edge:hover polygon { stroke: red; fill: red; }
]]></style>

<defs>
  <circle id="rim" cx="0" cy="0" r="7"/>
  <circle id="rim2" cx="0" cy="0" r="3.5"/>
  <g id="zoomPlus">
    <use xlink:href="#rim" fill="#404040"><set attributeName="fill" to="#808080" begin="zoomplus.mouseover" end="zoomplus.mouseout"/></use>
    <path d="M-4,0h8M0,-4v8" fill="none" stroke="white" stroke-width="1.5" pointer-events="none"/>
  </g>
  <g id="zoomMin">
    <use xlink:href="#rim" fill="#404040"><set attributeName="fill" to="#808080" begin="zoomminus.mouseover" end="zoomminus.mouseout"/></use>
    <path d="M-4,0h8" fill="none" stroke="white" stroke-width="1.5" pointer-events="none"/>
  </g>
  <g id="arrowUp" transform="translate(30 24)">
    <use xlink:href="#rim"/>
    <path pointer-events="none" fill="none" stroke="white" stroke-width="1.5" d="M0,-3.0v7 M-2.5,-0.5L0,-3.0L2.5,-0.5"/>
  </g>
  <g id="arrowRight" transform="rotate(90) translate(36 -43)">
    <use xlink:href="#rim"/>
    <path pointer-events="none" fill="none" stroke="white" stroke-width="1.5" d="M0,-3.0v7 M-2.5,-0.5L0,-3.0L2.5,-0.5"/>
  </g>
  <g id="arrowDown" transform="rotate(180) translate(-30 -48)">
    <use xlink:href="#rim"/>
    <path pointer-events="none" fill="none" stroke="white" stroke-width="1.5" d="M0,-3.0v7 M-2.5,-0.5L0,-3.0L2.5,-0.5"/>
  </g>
  <g id="arrowLeft" transform="rotate(270) translate(-36 17)">
    <use xlink:href="#rim"/>
    <path pointer-events="none" fill="none" stroke="white" stroke-width="1.5" d="M0,-3.0v7 M-2.5,-0.5L0,-3.0L2.5,-0.5"/>
  </g>
  <g id="resetDef">
    <use xlink:href="#rim2" fill="#404040"><set attributeName="fill" to="#808080" begin="reset.mouseover" end="reset.mouseout"/></use>
  </g>
</defs>
<script type="application/ecmascript">
var viewWidth = 1446;
var viewHeight = 575;
var sectionId = 'dynsection-270';
</script>
<script type="application/ecmascript" xlink:href="svg.min.js"/>
<svg id="graph" class="graph">
<g id="viewport">
<title>func_800A75A0</title>
<!-- Node1 -->
<g id="Node000001" class="node">
<title>Node1</title>
<g id="a_Node000001"><a xlink:title=" ">
<polygon fill="#999999" stroke="#666666" points="92,-420.5 0,-420.5 0,-401.5 92,-401.5 92,-420.5"/>
<text text-anchor="middle" x="46" y="-408.5" font-family="Helvetica,sans-Serif" font-size="10.00">func_800A75A0</text>
</a>
</g>
</g>
<!-- Node2 -->
<g id="Node000002" class="node">
<title>Node2</title>
<g id="a_Node000002"><a xlink:href="menu__items_8c.html#ac9a8fae36ca33cb34bee67b9f9ab440f" target="_top" xlink:title=" ">
<polygon fill="white" stroke="#666666" points="234,-448 128,-448 128,-418 234,-418 234,-448"/>
<text text-anchor="start" x="136" y="-436" font-family="Helvetica,sans-Serif" font-size="10.00">print_text1_center</text>
<text text-anchor="middle" x="181" y="-425" font-family="Helvetica,sans-Serif" font-size="10.00">_mode_1</text>
</a>
</g>
</g>
<!-- Node1&#45;&gt;Node2 -->
<g id="edge1_Node000001_Node000002" class="edge">
<title>Node1&#45;&gt;Node2</title>
<g id="a_edge1_Node000001_Node000002"><a xlink:title=" ">
<path fill="none" stroke="#63b8ff" d="M92.03,-418.45C100.26,-419.81 108.99,-421.25 117.62,-422.68"/>
<polygon fill="#63b8ff" stroke="#63b8ff" points="117.24,-426.17 127.67,-424.34 118.38,-419.26 117.24,-426.17"/>
</a>
</g>
</g>
<!-- Node40 -->
<g id="Node000040" class="node">
<title>Node40</title>
<g id="a_Node000040"><a xlink:href="menu__items_8c.html#a1a002f259a6c887d6672085b8cda7d4d" target="_top" xlink:title=" ">
<polygon fill="white" stroke="#666666" points="224,-399.5 138,-399.5 138,-380.5 224,-380.5 224,-399.5"/>
<text text-anchor="middle" x="181" y="-387.5" font-family="Helvetica,sans-Serif" font-size="10.00">set_text_color</text>
</a>
</g>
</g>
<!-- Node1&#45;&gt;Node40 -->
<g id="edge50_Node000001_Node000040" class="edge">
<title>Node1&#45;&gt;Node40</title>
<g id="a_edge50_Node000001_Node000040"><a xlink:title=" ">
<path fill="none" stroke="#63b8ff" d="M92.03,-403.89C103.45,-402.09 115.82,-400.13 127.58,-398.28"/>
<polygon fill="#63b8ff" stroke="#63b8ff" points="128.38,-401.69 137.71,-396.68 127.29,-394.78 128.38,-401.69"/>
</a>
</g>
</g>
<!-- Node3 -->
<g id="Node000003" class="node">
<title>Node3</title>
<g id="a_Node000003"><a xlink:href="menu__items_8c.html#ad2af1a6781c3f0bf246aba0d078ae773" target="_top" xlink:title=" ">
<polygon fill="white" stroke="#666666" points="340,-442.5 270,-442.5 270,-423.5 340,-423.5 340,-442.5"/>
<text text-anchor="middle" x="305" y="-430.5" font-family="Helvetica,sans-Serif" font-size="10.00">print_text1</text>
</a>
</g>
</g>
<!-- Node2&#45;&gt;Node3 -->
<g id="edge2_Node000002_Node000003" class="edge">
<title>Node2&#45;&gt;Node3</title>
<g id="a_edge2_Node000002_Node000003"><a xlink:title=" ">
<path fill="none" stroke="#63b8ff" d="M234.09,-433C242.56,-433 251.27,-433 259.53,-433"/>
<polygon fill="#63b8ff" stroke="#63b8ff" points="259.72,-436.5 269.72,-433 259.72,-429.5 259.72,-436.5"/>
</a>
</g>
</g>
<!-- Node4 -->
<g id="Node000004" class="node">
<title>Node4</title>
<g id="a_Node000004"><a xlink:href="menu__items_8c.html#ace62f40ce813c34904327e39643a0dbf" target="_top" xlink:title=" ">
<polygon fill="white" stroke="#666666" points="504,-528.5 387,-528.5 387,-509.5 504,-509.5 504,-528.5"/>
<text text-anchor="middle" x="445.5" y="-516.5" font-family="Helvetica,sans-Serif" font-size="10.00">char_to_glyph_index</text>
</a>
</g>
</g>
<!-- Node3&#45;&gt;Node4 -->
<g id="edge3_Node000003_Node000004" class="edge">
<title>Node3&#45;&gt;Node4</title>
<g id="a_edge3_Node000003_Node000004"><a xlink:title=" ">
<path fill="none" stroke="#63b8ff" d="M313.49,-442.76C325.23,-457.39 349.39,-484.87 376,-500 379.91,-502.22 384.09,-504.2 388.39,-505.95"/>
<polygon fill="#63b8ff" stroke="#63b8ff" points="387.33,-509.29 397.93,-509.44 389.74,-502.72 387.33,-509.29"/>
</a>
</g>
</g>
<!-- Node8 -->
<g id="Node000008" class="node">
<title>Node8</title>
<g id="a_Node000008"><a xlink:href="FrameInterpolation_8cpp.html#a14ceaeb116362786310778e36943f7be" target="_top" xlink:title=" ">
<polygon fill="white" stroke="#666666" points="515,-491 376,-491 376,-461 515,-461 515,-491"/>
<text text-anchor="start" x="384" y="-479" font-family="Helvetica,sans-Serif" font-size="10.00">FrameInterpolation</text>
<text text-anchor="middle" x="445.5" y="-468" font-family="Helvetica,sans-Serif" font-size="10.00">_ShouldInterpolateFrame</text>
</a>
</g>
</g>
<!-- Node3&#45;&gt;Node8 -->
<g id="edge8_Node000003_Node000008" class="edge">
<title>Node3&#45;&gt;Node8</title>
<g id="a_edge8_Node000003_Node000008"><a xlink:title=" ">
<path fill="none" stroke="#63b8ff" d="M336.74,-442.54C351.33,-447.07 369.26,-452.64 386.28,-457.93"/>
<polygon fill="#63b8ff" stroke="#63b8ff" points="385.58,-461.37 396.17,-460.99 387.65,-454.69 385.58,-461.37"/>
</a>
</g>
</g>
<!-- Node9 -->
<g id="Node000009" class="node">
<title>Node9</title>
<g id="a_Node000009"><a xlink:href="GBIMiddleware_8cpp.html#a4ecc44e3c6f1ca5a6b4a20c41d3bd2d2" target="_top" xlink:title=" ">
<polygon fill="white" stroke="#666666" points="940.5,-377.5 851.5,-377.5 851.5,-358.5 940.5,-358.5 940.5,-377.5"/>
<text text-anchor="middle" x="896" y="-365.5" font-family="Helvetica,sans-Serif" font-size="10.00">gSPDisplayList</text>
</a>
</g>
</g>
<!-- Node3&#45;&gt;Node9 -->
<g id="edge9_Node000003_Node000009" class="edge">
<title>Node3&#45;&gt;Node9</title>
<g id="a_edge9_Node000003_Node000009"><a xlink:title=" ">
<path fill="none" stroke="#63b8ff" d="M336.4,-423.46C348.59,-419.98 362.86,-416.32 376,-414 557.85,-381.91 606.17,-396.4 790,-379 806.7,-377.42 824.87,-375.56 841.34,-373.83"/>
<polygon fill="#63b8ff" stroke="#63b8ff" points="841.77,-377.31 851.34,-372.77 841.03,-370.34 841.77,-377.31"/>
</a>
</g>
</g>
<!-- Node12 -->
<g id="Node000012" class="node">
<title>Node12</title>
<g id="a_Node000012"><a xlink:href="menu__items_8c.html#a68e560d23390d5add7cb57ccd82e21ae" target="_top" xlink:title=" ">
<polygon fill="white" stroke="#666666" points="493,-442.5 398,-442.5 398,-423.5 493,-423.5 493,-442.5"/>
<text text-anchor="middle" x="445.5" y="-430.5" font-family="Helvetica,sans-Serif" font-size="10.00">load_menu_img</text>
</a>
</g>
</g>
<!-- Node3&#45;&gt;Node12 -->
<g id="edge12_Node000003_Node000012" class="edge">
<title>Node3&#45;&gt;Node12</title>
<g id="a_edge12_Node000003_Node000012"><a xlink:title=" ">
<path fill="none" stroke="#63b8ff" d="M340.24,-433C354.5,-433 371.44,-433 387.48,-433"/>
<polygon fill="#63b8ff" stroke="#63b8ff" points="387.86,-436.5 397.86,-433 387.86,-429.5 387.86,-436.5"/>
</a>
</g>
</g>
<!-- Node14 -->
<g id="Node000014" class="node">
<title>Node14</title>
<g id="a_Node000014"><a xlink:href="menu__items_8c.html#aafca6e35a19465ad361e68b13e467243" target="_top" xlink:title=" ">
<polygon fill="white" stroke="#666666" points="481,-366.5 410,-366.5 410,-347.5 481,-347.5 481,-366.5"/>
<text text-anchor="middle" x="445.5" y="-354.5" font-family="Helvetica,sans-Serif" font-size="10.00">print_letter</text>
</a>
</g>
</g>
<!-- Node3&#45;&gt;Node14 -->
<g id="edge14_Node000003_Node000014" class="edge">
<title>Node3&#45;&gt;Node14</title>
<g id="a_edge14_Node000003_Node000014"><a xlink:title=" ">
<path fill="none" stroke="#63b8ff" d="M316.7,-423.42C329.86,-412.04 353.27,-393.07 376,-381 383.93,-376.79 392.74,-373.07 401.34,-369.89"/>
<polygon fill="#63b8ff" stroke="#63b8ff" points="402.62,-373.15 410.89,-366.53 400.3,-366.54 402.62,-373.15"/>
</a>
</g>
</g>
<!-- Node5 -->
<g id="Node000005" class="node">
<title>Node5</title>
<g id="a_Node000005"><a xlink:href="menu__items_8c.html#ae8ba1b567dba01ff15c64d416653a70b" target="_top" xlink:title=" ">
<polygon fill="white" stroke="#666666" points="643.5,-490.5 551.5,-490.5 551.5,-471.5 643.5,-471.5 643.5,-490.5"/>
<text text-anchor="middle" x="597.5" y="-478.5" font-family="Helvetica,sans-Serif" font-size="10.00">func_80092DF8</text>
</a>
</g>
</g>
<!-- Node4&#45;&gt;Node5 -->
<g id="edge4_Node000004_Node000005" class="edge">
<title>Node4&#45;&gt;Node5</title>
<g id="a_edge4_Node000004_Node000005"><a xlink:title=" ">
<path fill="none" stroke="#63b8ff" d="M484.35,-509.41C503.97,-504.44 528.12,-498.32 548.98,-493.04"/>
<polygon fill="#63b8ff" stroke="#63b8ff" points="550.09,-496.37 558.92,-490.52 548.37,-489.58 550.09,-496.37"/>
</a>
</g>
</g>
<!-- Node6 -->
<g id="Node000006" class="node">
<title>Node6</title>
<g id="a_Node000006"><a xlink:href="menu__items_8c.html#acd5b29a8e8634aa4f3db4b9a7c5ba033" target="_top" xlink:title=" ">
<polygon fill="white" stroke="#666666" points="781,-509.5 689,-509.5 689,-490.5 781,-490.5 781,-509.5"/>
<text text-anchor="middle" x="735" y="-497.5" font-family="Helvetica,sans-Serif" font-size="10.00">func_80092E1C</text>
</a>
</g>
</g>
<!-- Node4&#45;&gt;Node6 -->
<g id="edge6_Node000004_Node000006" class="edge">
<title>Node4&#45;&gt;Node6</title>
<g id="a_edge6_Node000004_Node000006"><a xlink:title=" ">
<path fill="none" stroke="#63b8ff" d="M504.33,-515.18C555.26,-511.81 628.92,-506.94 678.99,-503.64"/>
<polygon fill="#63b8ff" stroke="#63b8ff" points="679.24,-507.13 688.99,-502.97 678.78,-500.14 679.24,-507.13"/>
</a>
</g>
</g>
<!-- Node7 -->
<g id="Node000007" class="node">
<title>Node7</title>
<g id="a_Node000007"><a xlink:href="menu__items_8c.html#ab26c8dca1828cd1d5a6c341cb851f0b9" target="_top" xlink:title=" ">
<polygon fill="white" stroke="#666666" points="643,-566.5 552,-566.5 552,-547.5 643,-547.5 643,-566.5"/>
<text text-anchor="middle" x="597.5" y="-554.5" font-family="Helvetica,sans-Serif" font-size="10.00">func_80092EE4</text>
</a>
</g>
</g>
<!-- Node4&#45;&gt;Node7 -->
<g id="edge7_Node000004_Node000007" class="edge">
<title>Node4&#45;&gt;Node7</title>
<g id="a_edge7_Node000004_Node000007"><a xlink:title=" ">
<path fill="none" stroke="#63b8ff" d="M484.35,-528.59C503.97,-533.56 528.12,-539.68 548.98,-544.96"/>
<polygon fill="#63b8ff" stroke="#63b8ff" points="548.37,-548.42 558.92,-547.48 550.09,-541.63 548.37,-548.42"/>
</a>
</g>
</g>
<!-- Node5&#45;&gt;Node6 -->
<g id="edge5_Node000005_Node000006" class="edge">
<title>Node5&#45;&gt;Node6</title>
<g id="a_edge5_Node000005_Node000006"><a xlink:title=" ">
<path fill="none" stroke="#63b8ff" d="M643.62,-487.33C654.81,-488.9 666.94,-490.6 678.56,-492.23"/>
<polygon fill="#63b8ff" stroke="#63b8ff" points="678.23,-495.71 688.62,-493.64 679.2,-488.78 678.23,-495.71"/>
</a>
</g>
</g>
<!-- Node10 -->
<g id="Node000010" class="node">
<title>Node10</title>
<g id="a_Node000010"><a xlink:href="Engine_8cpp.html#a223c8bc63f228dc11177515e38eff2db" target="_top" xlink:title=" ">
<polygon fill="white" stroke="#666666" points="1151,-358.5 1002,-358.5 1002,-339.5 1151,-339.5 1151,-358.5"/>
<text text-anchor="middle" x="1076.5" y="-346.5" font-family="Helvetica,sans-Serif" font-size="10.00">GameEngine_OTRSigCheck</text>
</a>
</g>
</g>
<!-- Node9&#45;&gt;Node10 -->
<g id="edge10_Node000009_Node000010" class="edge">
<title>Node9&#45;&gt;Node10</title>
<g id="a_edge10_Node000009_Node000010"><a xlink:title=" ">
<path fill="none" stroke="#63b8ff" d="M940.67,-363.35C956.02,-361.72 973.84,-359.82 991.4,-357.95"/>
<polygon fill="#63b8ff" stroke="#63b8ff" points="992.11,-361.4 1001.68,-356.86 991.36,-354.44 992.11,-361.4"/>
</a>
</g>
</g>
<!-- Node11 -->
<g id="Node000011" class="node">
<title>Node11</title>
<g id="a_Node000011"><a xlink:href="string_8c.html#a008e171a518fe0e0352f31b245e03875" target="_top" xlink:title=" ">
<polygon fill="white" stroke="#666666" points="1233.5,-358.5 1189.5,-358.5 1189.5,-339.5 1233.5,-339.5 1233.5,-358.5"/>
<text text-anchor="middle" x="1211.5" y="-346.5" font-family="Helvetica,sans-Serif" font-size="10.00">strlen</text>
</a>
</g>
</g>
<!-- Node10&#45;&gt;Node11 -->
<g id="edge11_Node000010_Node000011" class="edge">
<title>Node10&#45;&gt;Node11</title>
<g id="a_edge11_Node000010_Node000011"><a xlink:title=" ">
<path fill="none" stroke="#63b8ff" d="M1151,-349C1160.89,-349 1170.56,-349 1179.14,-349"/>
<polygon fill="#63b8ff" stroke="#63b8ff" points="1179.36,-352.5 1189.36,-349 1179.36,-345.5 1179.36,-352.5"/>
</a>
</g>
</g>
<!-- Node13 -->
<g id="Node000013" class="node">
<title>Node13</title>
<g id="a_Node000013"><a xlink:href="menu__items_8c.html#a248768ee2e4ca9ae9cf0a30bfb256859" target="_top" xlink:title=" ">
<polygon fill="white" stroke="#666666" points="636.5,-442.5 558.5,-442.5 558.5,-423.5 636.5,-423.5 636.5,-442.5"/>
<text text-anchor="middle" x="597.5" y="-430.5" font-family="Helvetica,sans-Serif" font-size="10.00">load_texture</text>
</a>
</g>
</g>
<!-- Node12&#45;&gt;Node13 -->
<g id="edge13_Node000012_Node000013" class="edge">
<title>Node12&#45;&gt;Node13</title>
<g id="a_edge13_Node000012_Node000013"><a xlink:title=" ">
<path fill="none" stroke="#63b8ff" d="M493.14,-433C510.68,-433 530.65,-433 548.33,-433"/>
<polygon fill="#63b8ff" stroke="#63b8ff" points="548.44,-436.5 558.44,-433 548.44,-429.5 548.44,-436.5"/>
</a>
</g>
</g>
<!-- Node14&#45;&gt;Node9 -->
<g id="edge49_Node000014_Node000009" class="edge">
<title>Node14&#45;&gt;Node9</title>
<g id="a_edge49_Node000014_Node000009"><a xlink:title=" ">
<path fill="none" stroke="#63b8ff" d="M481.32,-357.85C559.28,-359.77 748.32,-364.4 841.4,-366.69"/>
<polygon fill="#63b8ff" stroke="#63b8ff" points="841.37,-370.19 851.46,-366.93 841.54,-363.19 841.37,-370.19"/>
</a>
</g>
</g>
<!-- Node15 -->
<g id="Node000015" class="node">
<title>Node15</title>
<g id="a_Node000015"><a xlink:href="menu__items_8c.html#a37eb021a953285ba504198ac6ca73a9a" target="_top" xlink:title=" ">
<polygon fill="white" stroke="#666666" points="644,-233.5 551,-233.5 551,-214.5 644,-214.5 644,-233.5"/>
<text text-anchor="middle" x="597.5" y="-221.5" font-family="Helvetica,sans-Serif" font-size="10.00">func_80095BD0</text>
</a>
</g>
</g>
<!-- Node14&#45;&gt;Node15 -->
<g id="edge15_Node000014_Node000015" class="edge">
<title>Node14&#45;&gt;Node15</title>
<g id="a_edge15_Node000014_Node000015"><a xlink:title=" ">
<path fill="none" stroke="#63b8ff" d="M457.29,-347.43C482.57,-325.02 545.91,-268.86 577.69,-240.68"/>
<polygon fill="#63b8ff" stroke="#63b8ff" points="580.25,-243.09 585.41,-233.84 575.6,-237.85 580.25,-243.09"/>
</a>
</g>
</g>
<!-- Node16 -->
<g id="Node000016" class="node">
<title>Node16</title>
<g id="a_Node000016"><a xlink:href="Matrix_8cpp.html#a6f64c44efb9bdfff802175a9739ce1f1" target="_top" xlink:title=" ">
<polygon fill="white" stroke="#666666" points="778.5,-126.5 691.5,-126.5 691.5,-107.5 778.5,-107.5 778.5,-126.5"/>
<text text-anchor="middle" x="735" y="-114.5" font-family="Helvetica,sans-Serif" font-size="10.00">AddTextMatrix</text>
</a>
</g>
</g>
<!-- Node15&#45;&gt;Node16 -->
<g id="edge16_Node000015_Node000016" class="edge">
<title>Node15&#45;&gt;Node16</title>
<g id="a_edge16_Node000015_Node000016"><a xlink:title=" ">
<path fill="none" stroke="#63b8ff" d="M608.63,-214.16C623.64,-199.8 652.93,-172.55 680,-152 689.31,-144.94 700.02,-137.8 709.44,-131.83"/>
<polygon fill="#63b8ff" stroke="#63b8ff" points="711.35,-134.77 717.98,-126.51 707.65,-128.83 711.35,-134.77"/>
</a>
</g>
</g>
<!-- Node21 -->
<g id="Node000021" class="node">
<title>Node21</title>
<g id="a_Node000021"><a xlink:href="FrameInterpolation_8cpp.html#a3a036bc9d533e28a4e9697cd20dccf3e" target="_top" xlink:title=" ">
<polygon fill="white" stroke="#666666" points="790,-239 680,-239 680,-209 790,-209 790,-239"/>
<text text-anchor="start" x="688" y="-227" font-family="Helvetica,sans-Serif" font-size="10.00">FrameInterpolation</text>
<text text-anchor="middle" x="735" y="-216" font-family="Helvetica,sans-Serif" font-size="10.00">_RecordCloseChild</text>
</a>
</g>
</g>
<!-- Node15&#45;&gt;Node21 -->
<g id="edge21_Node000015_Node000021" class="edge">
<title>Node15&#45;&gt;Node21</title>
<g id="a_edge21_Node000015_Node000021"><a xlink:title=" ">
<path fill="none" stroke="#63b8ff" d="M644.37,-224C652.45,-224 661,-224 669.47,-224"/>
<polygon fill="#63b8ff" stroke="#63b8ff" points="669.74,-227.5 679.74,-224 669.74,-220.5 669.74,-227.5"/>
</a>
</g>
</g>
<!-- Node22 -->
<g id="Node000022" class="node">
<title>Node22</title>
<g id="a_Node000022"><a xlink:href="FrameInterpolation_8cpp.html#a0eda726b74eac815af4e874014e2727c" target="_top" xlink:title=" ">
<polygon fill="white" stroke="#666666" points="790,-191 680,-191 680,-161 790,-161 790,-191"/>
<text text-anchor="start" x="688" y="-179" font-family="Helvetica,sans-Serif" font-size="10.00">FrameInterpolation</text>
<text text-anchor="middle" x="735" y="-168" font-family="Helvetica,sans-Serif" font-size="10.00">_RecordOpenChild</text>
</a>
</g>
</g>
<!-- Node15&#45;&gt;Node22 -->
<g id="edge23_Node000015_Node000022" class="edge">
<title>Node15&#45;&gt;Node22</title>
<g id="a_edge23_Node000015_Node000022"><a xlink:title=" ">
<path fill="none" stroke="#63b8ff" d="M625.59,-214.4C641.72,-208.69 662.71,-201.25 681.92,-194.45"/>
<polygon fill="#63b8ff" stroke="#63b8ff" points="683.22,-197.7 691.48,-191.06 680.88,-191.1 683.22,-197.7"/>
</a>
</g>
</g>
<!-- Node23 -->
<g id="Node000023" class="node">
<title>Node23</title>
<g id="a_Node000023"><a xlink:href="menu__items_8c.html#ae0fd5923ba70cf6939cd3fa8d09c1191" target="_top" xlink:title=" ">
<polygon fill="white" stroke="#666666" points="780.5,-328.5 689.5,-328.5 689.5,-309.5 780.5,-309.5 780.5,-328.5"/>
<text text-anchor="middle" x="735" y="-316.5" font-family="Helvetica,sans-Serif" font-size="10.00">func_800959F8</text>
</a>
</g>
</g>
<!-- Node15&#45;&gt;Node23 -->
<g id="edge25_Node000015_Node000023" class="edge">
<title>Node15&#45;&gt;Node23</title>
<g id="a_edge25_Node000015_Node000023"><a xlink:title=" ">
<path fill="none" stroke="#63b8ff" d="M610.7,-233.62C626.44,-245.91 654.8,-267.68 680,-285 689.31,-291.4 699.78,-298.1 709,-303.84"/>
<polygon fill="#63b8ff" stroke="#63b8ff" points="707.36,-306.95 717.71,-309.22 711.04,-300.99 707.36,-306.95"/>
</a>
</g>
</g>
<!-- Node25 -->
<g id="Node000025" class="node">
<title>Node25</title>
<g id="a_Node000025"><a xlink:href="stubs_8c.html#a8b417b868747c80d58f83d8a1e78ecf3" target="_top" xlink:title=" ">
<polygon fill="white" stroke="#666666" points="769,-276.5 701,-276.5 701,-257.5 769,-257.5 769,-276.5"/>
<text text-anchor="middle" x="735" y="-264.5" font-family="Helvetica,sans-Serif" font-size="10.00">rmonPrintf</text>
</a>
</g>
</g>
<!-- Node15&#45;&gt;Node25 -->
<g id="edge29_Node000015_Node000025" class="edge">
<title>Node15&#45;&gt;Node25</title>
<g id="a_edge29_Node000015_Node000025"><a xlink:title=" ">
<path fill="none" stroke="#63b8ff" d="M628.57,-233.54C647.96,-239.69 673.38,-247.76 694.4,-254.43"/>
<polygon fill="#63b8ff" stroke="#63b8ff" points="693.42,-257.79 704.01,-257.48 695.54,-251.12 693.42,-257.79"/>
</a>
</g>
</g>
<!-- Node38 -->
<g id="Node000038" class="node">
<title>Node38</title>
<g id="a_Node000038"><a xlink:href="Matrix_8cpp.html#a9818099a1ee20606a7d622e744846366" target="_top" xlink:title=" ">
<polygon fill="white" stroke="#666666" points="777,-53.5 693,-53.5 693,-34.5 777,-34.5 777,-53.5"/>
<text text-anchor="middle" x="735" y="-41.5" font-family="Helvetica,sans-Serif" font-size="10.00">SetTextMatrix</text>
</a>
</g>
</g>
<!-- Node15&#45;&gt;Node38 -->
<g id="edge45_Node000015_Node000038" class="edge">
<title>Node15&#45;&gt;Node38</title>
<g id="a_edge45_Node000015_Node000038"><a xlink:title=" ">
<path fill="none" stroke="#63b8ff" d="M603.79,-214.37C615.93,-192.63 647.25,-138.52 680,-98 690.86,-84.56 704.67,-70.8 715.6,-60.54"/>
<polygon fill="#63b8ff" stroke="#63b8ff" points="717.99,-63.09 722.97,-53.74 713.24,-57.95 717.99,-63.09"/>
</a>
</g>
</g>
<!-- Node17 -->
<g id="Node000017" class="node">
<title>Node17</title>
<g id="a_Node000017"><a xlink:href="FrameInterpolation_8cpp.html#a8cf1f2d6fabc6925aa71a9515341b4aa" target="_top" xlink:title=" ">
<polygon fill="white" stroke="#666666" points="966,-78 826,-78 826,-48 966,-48 966,-78"/>
<text text-anchor="start" x="834" y="-66" font-family="Helvetica,sans-Serif" font-size="10.00">FrameInterpolation</text>
<text text-anchor="middle" x="896" y="-55" font-family="Helvetica,sans-Serif" font-size="10.00">_RecordMatrixMtxFToMtx</text>
</a>
</g>
</g>
<!-- Node16&#45;&gt;Node17 -->
<g id="edge17_Node000016_Node000017" class="edge">
<title>Node16&#45;&gt;Node17</title>
<g id="a_edge17_Node000016_Node000017"><a xlink:title=" ">
<path fill="none" stroke="#63b8ff" d="M764.06,-107.47C785.33,-100.25 815.2,-90.1 841.04,-81.33"/>
<polygon fill="#63b8ff" stroke="#63b8ff" points="842.38,-84.57 850.72,-78.04 840.12,-77.94 842.38,-84.57"/>
</a>
</g>
</g>
<!-- Node19 -->
<g id="Node000019" class="node">
<title>Node19</title>
<g id="a_Node000019"><a xlink:href="Game_8cpp.html#ae2fa844b3cb1021ecbc357f8ed2ad8cc" target="_top" xlink:title=" ">
<polygon fill="white" stroke="#666666" points="927,-152.5 865,-152.5 865,-133.5 927,-133.5 927,-152.5"/>
<text text-anchor="middle" x="896" y="-140.5" font-family="Helvetica,sans-Serif" font-size="10.00">GetWorld</text>
</a>
</g>
</g>
<!-- Node16&#45;&gt;Node19 -->
<g id="edge19_Node000016_Node000019" class="edge">
<title>Node16&#45;&gt;Node19</title>
<g id="a_edge19_Node000016_Node000019"><a xlink:title=" ">
<path fill="none" stroke="#63b8ff" d="M778.61,-123.97C802.33,-127.85 831.68,-132.64 854.97,-136.45"/>
<polygon fill="#63b8ff" stroke="#63b8ff" points="854.44,-139.91 864.87,-138.07 855.57,-133.01 854.44,-139.91"/>
</a>
</g>
</g>
<!-- Node20 -->
<g id="Node000020" class="node">
<title>Node20</title>
<g id="a_Node000020"><a xlink:href="guMtxF2L_8c.html#a40ab2d64c609839ff1e0ef0de2d0dcc4" target="_top" xlink:title=" ">
<polygon fill="white" stroke="#666666" points="928.5,-115.5 863.5,-115.5 863.5,-96.5 928.5,-96.5 928.5,-115.5"/>
<text text-anchor="middle" x="896" y="-103.5" font-family="Helvetica,sans-Serif" font-size="10.00">guMtxF2L</text>
</a>
</g>
</g>
<!-- Node16&#45;&gt;Node20 -->
<g id="edge20_Node000016_Node000020" class="edge">
<title>Node16&#45;&gt;Node20</title>
<g id="a_edge20_Node000016_Node000020"><a xlink:title=" ">
<path fill="none" stroke="#63b8ff" d="M778.61,-114.05C801.74,-112.45 830.23,-110.48 853.23,-108.89"/>
<polygon fill="#63b8ff" stroke="#63b8ff" points="853.64,-112.37 863.38,-108.19 853.16,-105.39 853.64,-112.37"/>
</a>
</g>
</g>
<!-- Node18 -->
<g id="Node000018" class="node">
<title>Node18</title>
<g id="a_Node000018"><a xlink:href="FrameInterpolation_8cpp.html#a02c7ac5342a4d376edee38f312b480bf" target="_top" xlink:title=" ">
<polygon fill="white" stroke="#666666" points="1130.5,-131.5 1022.5,-131.5 1022.5,-112.5 1130.5,-112.5 1130.5,-131.5"/>
<text text-anchor="middle" x="1076.5" y="-119.5" font-family="Helvetica,sans-Serif" font-size="10.00">check_if_recording</text>
</a>
</g>
</g>
<!-- Node17&#45;&gt;Node18 -->
<g id="edge18_Node000017_Node000018" class="edge">
<title>Node17&#45;&gt;Node18</title>
<g id="a_edge18_Node000017_Node000018"><a xlink:title=" ">
<path fill="none" stroke="#63b8ff" d="M942.5,-78.04C971.67,-87.68 1009.11,-100.06 1036.83,-109.22"/>
<polygon fill="#63b8ff" stroke="#63b8ff" points="1035.98,-112.62 1046.57,-112.44 1038.17,-105.98 1035.98,-112.62"/>
</a>
</g>
</g>
<!-- Node21&#45;&gt;Node18 -->
<g id="edge22_Node000021_Node000018" class="edge">
<title>Node21&#45;&gt;Node18</title>
<g id="a_edge22_Node000021_Node000018"><a xlink:title=" ">
<path fill="none" stroke="#63b8ff" d="M790.28,-219.44C837.73,-214.27 907.93,-203.7 966,-183 998.11,-171.56 1031.91,-151.28 1053.32,-137.27"/>
<polygon fill="#63b8ff" stroke="#63b8ff" points="1055.32,-140.14 1061.7,-131.69 1051.44,-134.32 1055.32,-140.14"/>
</a>
</g>
</g>
<!-- Node22&#45;&gt;Node18 -->
<g id="edge24_Node000022_Node000018" class="edge">
<title>Node22&#45;&gt;Node18</title>
<g id="a_edge24_Node000022_Node000018"><a xlink:title=" ">
<path fill="none" stroke="#63b8ff" d="M790.01,-176.67C836.98,-176.26 906.63,-173.26 966,-161 993.42,-155.34 1023.28,-144.36 1044.89,-135.49"/>
<polygon fill="#63b8ff" stroke="#63b8ff" points="1046.32,-138.68 1054.19,-131.59 1043.62,-132.22 1046.32,-138.68"/>
</a>
</g>
</g>
<!-- Node23&#45;&gt;Node9 -->
<g id="edge26_Node000023_Node000009" class="edge">
<title>Node23&#45;&gt;Node9</title>
<g id="a_edge26_Node000023_Node000009"><a xlink:title=" ">
<path fill="none" stroke="#63b8ff" d="M763.45,-328.57C781.22,-334.66 804.88,-342.58 826,-349 833.52,-351.29 841.54,-353.61 849.35,-355.8"/>
<polygon fill="#63b8ff" stroke="#63b8ff" points="848.51,-359.2 859.08,-358.5 850.38,-352.45 848.51,-359.2"/>
</a>
</g>
</g>
<!-- Node24 -->
<g id="Node000024" class="node">
<title>Node24</title>
<g id="a_Node000024"><a xlink:href="GBIMiddleware_8cpp.html#aeef79449a27a710d73576e4a4f7f7f99" target="_top" xlink:title=" ">
<polygon fill="white" stroke="#666666" points="929,-340.5 863,-340.5 863,-321.5 929,-321.5 929,-340.5"/>
<text text-anchor="middle" x="896" y="-328.5" font-family="Helvetica,sans-Serif" font-size="10.00">gSPVertex</text>
</a>
</g>
</g>
<!-- Node23&#45;&gt;Node24 -->
<g id="edge27_Node000023_Node000024" class="edge">
<title>Node23&#45;&gt;Node24</title>
<g id="a_edge27_Node000023_Node000024"><a xlink:title=" ">
<path fill="none" stroke="#63b8ff" d="M780.71,-322.37C803.23,-324.07 830.39,-326.12 852.58,-327.8"/>
<polygon fill="#63b8ff" stroke="#63b8ff" points="852.48,-331.3 862.71,-328.56 853.01,-324.32 852.48,-331.3"/>
</a>
</g>
</g>
<!-- Node24&#45;&gt;Node10 -->
<g id="edge28_Node000024_Node000010" class="edge">
<title>Node24&#45;&gt;Node10</title>
<g id="a_edge28_Node000024_Node000010"><a xlink:title=" ">
<path fill="none" stroke="#63b8ff" d="M929.33,-334.26C946.92,-336.03 969.59,-338.32 991.8,-340.56"/>
<polygon fill="#63b8ff" stroke="#63b8ff" points="991.65,-344.06 1001.95,-341.58 992.35,-337.1 991.65,-344.06"/>
</a>
</g>
</g>
<!-- Node26 -->
<g id="Node000026" class="node">
<title>Node26</title>
<g id="a_Node000026"><a xlink:href="__Printf_8c.html#a39bb05c90efce6c6790c5d58d271d72d" target="_top" xlink:title=" ">
<polygon fill="white" stroke="#666666" points="920,-303.5 872,-303.5 872,-284.5 920,-284.5 920,-303.5"/>
<text text-anchor="middle" x="896" y="-291.5" font-family="Helvetica,sans-Serif" font-size="10.00">_Printf</text>
</a>
</g>
</g>
<!-- Node25&#45;&gt;Node26 -->
<g id="edge30_Node000025_Node000026" class="edge">
<title>Node25&#45;&gt;Node26</title>
<g id="a_edge30_Node000025_Node000026"><a xlink:title=" ">
<path fill="none" stroke="#63b8ff" d="M769.33,-272.66C796.5,-277.27 834.69,-283.76 861.82,-288.37"/>
<polygon fill="#63b8ff" stroke="#63b8ff" points="861.54,-291.87 871.99,-290.09 862.71,-284.97 861.54,-291.87"/>
</a>
</g>
</g>
<!-- Node37 -->
<g id="Node000037" class="node">
<title>Node37</title>
<g id="a_Node000037"><a xlink:href="is__debug_8c.html#aaccfac8d9098530b6592eefe679d86b4" target="_top" xlink:title=" ">
<polygon fill="white" stroke="#666666" points="948.5,-266.5 843.5,-266.5 843.5,-247.5 948.5,-247.5 948.5,-266.5"/>
<text text-anchor="middle" x="896" y="-254.5" font-family="Helvetica,sans-Serif" font-size="10.00">is_proutSyncPrintf</text>
</a>
</g>
</g>
<!-- Node25&#45;&gt;Node37 -->
<g id="edge44_Node000025_Node000037" class="edge">
<title>Node25&#45;&gt;Node37</title>
<g id="a_edge44_Node000025_Node000037"><a xlink:title=" ">
<path fill="none" stroke="#63b8ff" d="M769.33,-264.9C787.81,-263.74 811.37,-262.26 833.09,-260.89"/>
<polygon fill="#63b8ff" stroke="#63b8ff" points="833.48,-264.38 843.24,-260.26 833.04,-257.39 833.48,-264.38"/>
</a>
</g>
</g>
<!-- Node27 -->
<g id="Node000027" class="node">
<title>Node27</title>
<g id="a_Node000027"><a xlink:href="__Printf_8c.html#ad73a5847f2d7c9de14cc2723da86bf45" target="_top" xlink:title=" ">
<polygon fill="white" stroke="#666666" points="1101.5,-321.5 1051.5,-321.5 1051.5,-302.5 1101.5,-302.5 1101.5,-321.5"/>
<text text-anchor="middle" x="1076.5" y="-309.5" font-family="Helvetica,sans-Serif" font-size="10.00">_Putfld</text>
</a>
</g>
</g>
<!-- Node26&#45;&gt;Node27 -->
<g id="edge31_Node000026_Node000027" class="edge">
<title>Node26&#45;&gt;Node27</title>
<g id="a_edge31_Node000026_Node000027"><a xlink:title=" ">
<path fill="none" stroke="#63b8ff" d="M920.34,-296.35C951.08,-299.45 1005.41,-304.93 1040.93,-308.51"/>
<polygon fill="#63b8ff" stroke="#63b8ff" points="1041,-312.04 1051.3,-309.56 1041.7,-305.07 1041,-312.04"/>
</a>
</g>
</g>
<!-- Node36 -->
<g id="Node000036" class="node">
<title>Node36</title>
<g id="a_Node000036"><a xlink:href="string_8c.html#a988b4defe51a1815ef3b9ddab10e7a89" target="_top" xlink:title=" ">
<polygon fill="white" stroke="#666666" points="1098.5,-284.5 1054.5,-284.5 1054.5,-265.5 1098.5,-265.5 1098.5,-284.5"/>
<text text-anchor="middle" x="1076.5" y="-272.5" font-family="Helvetica,sans-Serif" font-size="10.00">strchr</text>
</a>
</g>
</g>
<!-- Node26&#45;&gt;Node36 -->
<g id="edge43_Node000026_Node000036" class="edge">
<title>Node26&#45;&gt;Node36</title>
<g id="a_edge43_Node000026_Node000036"><a xlink:title=" ">
<path fill="none" stroke="#63b8ff" d="M920.34,-291.52C952.02,-288.14 1008.76,-282.1 1044.14,-278.34"/>
<polygon fill="#63b8ff" stroke="#63b8ff" points="1044.81,-281.79 1054.38,-277.25 1044.07,-274.83 1044.81,-281.79"/>
</a>
</g>
</g>
<!-- Node27&#45;&gt;Node11 -->
<g id="edge42_Node000027_Node000011" class="edge">
<title>Node27&#45;&gt;Node11</title>
<g id="a_edge42_Node000027_Node000011"><a xlink:title=" ">
<path fill="none" stroke="#63b8ff" d="M1101.78,-317.5C1116.15,-320.87 1134.69,-325.4 1151,-330 1160.43,-332.66 1170.61,-335.8 1179.84,-338.76"/>
<polygon fill="#63b8ff" stroke="#63b8ff" points="1178.81,-342.11 1189.4,-341.87 1180.97,-335.45 1178.81,-342.11"/>
</a>
</g>
</g>
<!-- Node28 -->
<g id="Node000028" class="node">
<title>Node28</title>
<g id="a_Node000028"><a xlink:href="__Ldtob_8c.html#a7cc858157b66e15c831ad085113729ae" target="_top" xlink:title=" ">
<polygon fill="white" stroke="#666666" points="1236,-227.5 1187,-227.5 1187,-208.5 1236,-208.5 1236,-227.5"/>
<text text-anchor="middle" x="1211.5" y="-215.5" font-family="Helvetica,sans-Serif" font-size="10.00">_Ldtob</text>
</a>
</g>
</g>
<!-- Node27&#45;&gt;Node28 -->
<g id="edge32_Node000027_Node000028" class="edge">
<title>Node27&#45;&gt;Node28</title>
<g id="a_edge32_Node000027_Node000028"><a xlink:title=" ">
<path fill="none" stroke="#63b8ff" d="M1101.58,-309.73C1116.75,-307.38 1136.19,-302.63 1151,-293 1172.78,-278.84 1190.15,-254.01 1200.37,-236.82"/>
<polygon fill="#63b8ff" stroke="#63b8ff" points="1203.64,-238.14 1205.54,-227.72 1197.56,-234.68 1203.64,-238.14"/>
</a>
</g>
</g>
<!-- Node34 -->
<g id="Node000034" class="node">
<title>Node34</title>
<g id="a_Node000034"><a xlink:href="__Litob_8c.html#aaaba3b0ab7920d422a61fe9e22600dd0" target="_top" xlink:title=" ">
<polygon fill="white" stroke="#666666" points="1234.5,-321.5 1188.5,-321.5 1188.5,-302.5 1234.5,-302.5 1234.5,-321.5"/>
<text text-anchor="middle" x="1211.5" y="-309.5" font-family="Helvetica,sans-Serif" font-size="10.00">_Litob</text>
</a>
</g>
</g>
<!-- Node27&#45;&gt;Node34 -->
<g id="edge39_Node000027_Node000034" class="edge">
<title>Node27&#45;&gt;Node34</title>
<g id="a_edge39_Node000027_Node000034"><a xlink:title=" ">
<path fill="none" stroke="#63b8ff" d="M1101.59,-312C1123.01,-312 1154.51,-312 1178.13,-312"/>
<polygon fill="#63b8ff" stroke="#63b8ff" points="1178.36,-315.5 1188.36,-312 1178.36,-308.5 1178.36,-315.5"/>
</a>
</g>
</g>
<!-- Node29 -->
<g id="Node000029" class="node">
<title>Node29</title>
<g id="a_Node000029"><a xlink:href="__Ldtob_8c.html#a2b6c5318b43bab1636bad9113ffb2761" target="_top" xlink:title=" ">
<polygon fill="white" stroke="#666666" points="1332.5,-245.5 1282.5,-245.5 1282.5,-226.5 1332.5,-226.5 1332.5,-245.5"/>
<text text-anchor="middle" x="1307.5" y="-233.5" font-family="Helvetica,sans-Serif" font-size="10.00">_Genld</text>
</a>
</g>
</g>
<!-- Node28&#45;&gt;Node29 -->
<g id="edge33_Node000028_Node000029" class="edge">
<title>Node28&#45;&gt;Node29</title>
<g id="a_edge33_Node000028_Node000029"><a xlink:title=" ">
<path fill="none" stroke="#63b8ff" d="M1236.22,-222.54C1247.16,-224.64 1260.34,-227.16 1272.33,-229.46"/>
<polygon fill="#63b8ff" stroke="#63b8ff" points="1271.98,-232.95 1282.46,-231.4 1273.3,-226.08 1271.98,-232.95"/>
</a>
</g>
</g>
<!-- Node30 -->
<g id="Node000030" class="node">
<title>Node30</title>
<g id="a_Node000030"><a xlink:href="string_8c.html#ad7f1ae1bbb49dece44bda378982a704d" target="_top" xlink:title=" ">
<polygon fill="white" stroke="#666666" points="1438,-283.5 1379,-283.5 1379,-264.5 1438,-264.5 1438,-283.5"/>
<text text-anchor="middle" x="1408.5" y="-271.5" font-family="Helvetica,sans-Serif" font-size="10.00">memcpy</text>
</a>
</g>
</g>
<!-- Node28&#45;&gt;Node30 -->
<g id="edge37_Node000028_Node000030" class="edge">
<title>Node28&#45;&gt;Node30</title>
<g id="a_edge37_Node000028_Node000030"><a xlink:title=" ">
<path fill="none" stroke="#63b8ff" d="M1224.98,-227.59C1236.53,-235.96 1254.5,-247.71 1272,-254 1303.45,-265.31 1341.21,-270.23 1368.87,-272.37"/>
<polygon fill="#63b8ff" stroke="#63b8ff" points="1368.72,-275.87 1378.94,-273.06 1369.2,-268.88 1368.72,-275.87"/>
</a>
</g>
</g>
<!-- Node31 -->
<g id="Node000031" class="node">
<title>Node31</title>
<g id="a_Node000031"><a xlink:href="__Ldtob_8c.html#ab7ade9ce60aaa8baa0244b503351d742" target="_top" xlink:title=" ">
<polygon fill="white" stroke="#666666" points="1343,-208.5 1272,-208.5 1272,-189.5 1343,-189.5 1343,-208.5"/>
<text text-anchor="middle" x="1307.5" y="-196.5" font-family="Helvetica,sans-Serif" font-size="10.00">_Ldunscale</text>
</a>
</g>
</g>
<!-- Node28&#45;&gt;Node31 -->
<g id="edge35_Node000028_Node000031" class="edge">
<title>Node28&#45;&gt;Node31</title>
<g id="a_edge35_Node000028_Node000031"><a xlink:title=" ">
<path fill="none" stroke="#63b8ff" d="M1236.22,-213.21C1244.04,-211.62 1253.02,-209.81 1261.88,-208.02"/>
<polygon fill="#63b8ff" stroke="#63b8ff" points="1262.66,-211.43 1271.77,-206.02 1261.28,-204.57 1262.66,-211.43"/>
</a>
</g>
</g>
<!-- Node32 -->
<g id="Node000032" class="node">
<title>Node32</title>
<g id="a_Node000032"><a xlink:href="ldiv_8c.html#a0302920caf64a5fbe1ce0862799d7784" target="_top" xlink:title=" ">
<polygon fill="white" stroke="#666666" points="1325,-171.5 1290,-171.5 1290,-152.5 1325,-152.5 1325,-171.5"/>
<text text-anchor="middle" x="1307.5" y="-159.5" font-family="Helvetica,sans-Serif" font-size="10.00">ldiv</text>
</a>
</g>
</g>
<!-- Node28&#45;&gt;Node32 -->
<g id="edge36_Node000028_Node000032" class="edge">
<title>Node28&#45;&gt;Node32</title>
<g id="a_edge36_Node000028_Node000032"><a xlink:title=" ">
<path fill="none" stroke="#63b8ff" d="M1226.95,-208.27C1238.87,-200.37 1256.3,-189.09 1272,-180 1274.87,-178.34 1277.9,-176.66 1280.93,-175.02"/>
<polygon fill="#63b8ff" stroke="#63b8ff" points="1282.63,-178.08 1289.84,-170.32 1279.37,-171.89 1282.63,-178.08"/>
</a>
</g>
</g>
<!-- Node33 -->
<g id="Node000033" class="node">
<title>Node33</title>
<g id="a_Node000033"><a xlink:href="alBnkfNew_8c.html#a96a0200a6b40350e524f536d232ecb53" target="_top" xlink:title=" ">
<polygon fill="white" stroke="#666666" points="1333.5,-134.5 1281.5,-134.5 1281.5,-115.5 1333.5,-115.5 1333.5,-134.5"/>
<text text-anchor="middle" x="1307.5" y="-122.5" font-family="Helvetica,sans-Serif" font-size="10.00">unused</text>
</a>
</g>
</g>
<!-- Node28&#45;&gt;Node33 -->
<g id="edge38_Node000028_Node000033" class="edge">
<title>Node28&#45;&gt;Node33</title>
<g id="a_edge38_Node000028_Node000033"><a xlink:title=" ">
<path fill="none" stroke="#63b8ff" d="M1218.38,-208.16C1228,-192.7 1248.42,-162.48 1272,-143 1273.32,-141.91 1274.73,-140.85 1276.18,-139.84"/>
<polygon fill="#63b8ff" stroke="#63b8ff" points="1278.13,-142.74 1284.83,-134.53 1274.47,-136.78 1278.13,-142.74"/>
</a>
</g>
</g>
<!-- Node29&#45;&gt;Node30 -->
<g id="edge34_Node000029_Node000030" class="edge">
<title>Node29&#45;&gt;Node30</title>
<g id="a_edge34_Node000029_Node000030"><a xlink:title=" ">
<path fill="none" stroke="#63b8ff" d="M1332.72,-245.3C1344.88,-249.96 1359.82,-255.7 1373.15,-260.81"/>
<polygon fill="#63b8ff" stroke="#63b8ff" points="1371.91,-264.09 1382.5,-264.4 1374.42,-257.55 1371.91,-264.09"/>
</a>
</g>
</g>
<!-- Node34&#45;&gt;Node30 -->
<g id="edge41_Node000034_Node000030" class="edge">
<title>Node34&#45;&gt;Node30</title>
<g id="a_edge41_Node000034_Node000030"><a xlink:title=" ">
<path fill="none" stroke="#63b8ff" d="M1234.71,-308.14C1260.71,-303.56 1305.05,-295.61 1343,-288 1351.48,-286.3 1360.56,-284.39 1369.16,-282.53"/>
<polygon fill="#63b8ff" stroke="#63b8ff" points="1369.94,-285.95 1378.96,-280.4 1368.45,-279.11 1369.94,-285.95"/>
</a>
</g>
</g>
<!-- Node35 -->
<g id="Node000035" class="node">
<title>Node35</title>
<g id="a_Node000035"><a xlink:href="ldiv_8c.html#a5b23c3639f11980dca762c5f1d74f339" target="_top" xlink:title=" ">
<polygon fill="white" stroke="#666666" points="1326.5,-359.5 1288.5,-359.5 1288.5,-340.5 1326.5,-340.5 1326.5,-359.5"/>
<text text-anchor="middle" x="1307.5" y="-347.5" font-family="Helvetica,sans-Serif" font-size="10.00">lldiv</text>
</a>
</g>
</g>
<!-- Node34&#45;&gt;Node35 -->
<g id="edge40_Node000034_Node000035" class="edge">
<title>Node34&#45;&gt;Node35</title>
<g id="a_edge40_Node000034_Node000035"><a xlink:title=" ">
<path fill="none" stroke="#63b8ff" d="M1234.78,-321.01C1247.97,-326.34 1264.8,-333.14 1278.84,-338.82"/>
<polygon fill="#63b8ff" stroke="#63b8ff" points="1277.89,-342.21 1288.47,-342.71 1280.52,-335.72 1277.89,-342.21"/>
</a>
</g>
</g>
<!-- Node38&#45;&gt;Node38 -->
<g id="edge48_Node000038_Node000038" class="edge">
<title>Node38&#45;&gt;Node38</title>
<g id="a_edge48_Node000038_Node000038"><a xlink:title=" ">
<path fill="none" stroke="#63b8ff" d="M714.04,-53.58C703.84,-62.23 710.83,-71.5 735,-71.5 750.49,-71.5 758.92,-67.7 760.3,-62.69"/>
<polygon fill="#63b8ff" stroke="#63b8ff" points="763.42,-61.11 755.96,-53.58 757.1,-64.12 763.42,-61.11"/>
</a>
</g>
</g>
<!-- Node39 -->
<g id="Node000039" class="node">
<title>Node39</title>
<g id="a_Node000039"><a xlink:href="FrameInterpolation_8cpp.html#a5fbd67ef553452903cf553b9c224fa76" target="_top" xlink:title=" ">
<polygon fill="white" stroke="#666666" points="960,-30 832,-30 832,0 960,0 960,-30"/>
<text text-anchor="start" x="840" y="-18" font-family="Helvetica,sans-Serif" font-size="10.00">FrameInterpolation</text>
<text text-anchor="middle" x="896" y="-7" font-family="Helvetica,sans-Serif" font-size="10.00">_Record_SetTextMatrix</text>
</a>
</g>
</g>
<!-- Node38&#45;&gt;Node39 -->
<g id="edge46_Node000038_Node000039" class="edge">
<title>Node38&#45;&gt;Node39</title>
<g id="a_edge46_Node000038_Node000039"><a xlink:title=" ">
<path fill="none" stroke="#63b8ff" d="M777.36,-36.46C791.02,-33.96 806.65,-31.11 821.96,-28.32"/>
<polygon fill="#63b8ff" stroke="#63b8ff" points="822.74,-31.74 831.95,-26.5 821.49,-24.85 822.74,-31.74"/>
</a>
</g>
</g>
<!-- Node39&#45;&gt;Node18 -->
<g id="edge47_Node000039_Node000018" class="edge">
<title>Node39&#45;&gt;Node18</title>
<g id="a_edge47_Node000039_Node000018"><a xlink:title=" ">
<path fill="none" stroke="#63b8ff" d="M946.44,-30.06C953.16,-32.72 959.85,-35.71 966,-39 1000.93,-57.71 1036.63,-87.08 1057.4,-105.41"/>
<polygon fill="#63b8ff" stroke="#63b8ff" points="1055.31,-108.23 1065.09,-112.29 1059.98,-103.02 1055.31,-108.23"/>
</a>
</g>
</g>
</g>
</svg>

<g id="navigator" transform="translate(0 0)" fill="#404254">
  <rect fill="#f2f5e9" fill-opacity="0.5" stroke="#606060" stroke-width=".5" x="0" y="0" width="60" height="60"/>
  <use id="zoomplus" xlink:href="#zoomPlus" x="17" y="9" onmousedown="handleZoom(evt,'in')"/>
  <use id="zoomminus" xlink:href="#zoomMin" x="42" y="9" onmousedown="handleZoom(evt,'out')"/>
  <use id="reset" xlink:href="#resetDef" x="30" y="36" onmousedown="handleReset()"/>
   <use id="arrowup" xlink:href="#arrowUp" x="0" y="0" onmousedown="handlePan(0,-1)"/>
  <use id="arrowright" xlink:href="#arrowRight" x="0" y="0" onmousedown="handlePan(1,0)"/>
  <use id="arrowdown" xlink:href="#arrowDown" x="0" y="0" onmousedown="handlePan(0,1)"/>
  <use id="arrowleft" xlink:href="#arrowLeft" x="0" y="0" onmousedown="handlePan(-1,0)"/>
</g>
<svg viewBox="0 0 15 15" width="100%" height="30px" preserveAspectRatio="xMaxYMin meet">
 <g id="arrow_out" transform="scale(0.3 0.3)">
  <a xlink:href="menu__items_8c_a48f83828d2b574b37deaa3fc20209dd9_cgraph_org.svg" target="_base">
   <rect id="button" ry="5" rx="5" y="6" x="6" height="38" width="38"
        fill="#f2f5e9" fill-opacity="0.5" stroke="#606060" stroke-width="1.0"/>
   <path id="arrow"
     d="M 11.500037,31.436501 C 11.940474,20.09759 22.043105,11.32322 32.158766,21.979434 L 37.068811,17.246167 C 37.068811,17.246167 37.088388,32 37.088388,32 L 22.160133,31.978069 C 22.160133,31.978069 26.997745,27.140456 26.997745,27.140456 C 18.528582,18.264221 13.291696,25.230495 11.500037,31.436501 z"
     style="fill:#404040;"/>
  </a>
 </g>
</svg>

<style type='text/css'>
<![CDATA[
[data-mouse-over-selected='false'] { opacity: 0.7; }
[data-mouse-over-selected='true']  { opacity: 1.0; }
]]>
</style>
<script type="application/ecmascript"><![CDATA[
document.addEventListener('DOMContentLoaded', (event) => {
  highlightEdges();
  highlightAdjacentNodes();
});
]]></script>
</svg>
