<?xml version="1.0" encoding="UTF-8" standalone="no"?>
<!DOCTYPE svg PUBLIC "-//W3C//DTD SVG 1.1//EN"
 "http://www.w3.org/Graphics/SVG/1.1/DTD/svg11.dtd">
<!-- Generated by graphviz version 2.43.0 (0)
 -->
<!-- Title: func_8009C434_alt Pages: 1 -->
<svg width="542pt" height="76pt"
 viewBox="0.00 0.00 542.00 75.50" xmlns="http://www.w3.org/2000/svg" xmlns:xlink="http://www.w3.org/1999/xlink">
<g id="graph0" class="graph" transform="scale(1 1) rotate(0) translate(4 71.5)">
<title>func_8009C434_alt</title>
<!-- Node1 -->
<g id="Node000001" class="node">
<title>Node1</title>
<g id="a_Node000001"><a xlink:title=" ">
<polygon fill="#999999" stroke="#666666" points="110,-40 0,-40 0,-21 110,-21 110,-40"/>
<text text-anchor="middle" x="55" y="-28" font-family="Helvetica,sans-Serif" font-size="10.00">func_8009C434_alt</text>
</a>
</g>
</g>
<!-- Node2 -->
<g id="Node000002" class="node">
<title>Node2</title>
<g id="a_Node000002"><a xlink:href="menu__items_8c.html#ab1e1b89c13e36d371f2c7255249d6864" target="_top" xlink:title=" ">
<polygon fill="white" stroke="#666666" points="255,-60 146,-60 146,-41 255,-41 255,-60"/>
<text text-anchor="middle" x="200.5" y="-48" font-family="Helvetica,sans-Serif" font-size="10.00">func_80095E10_alt</text>
</a>
</g>
</g>
<!-- Node1&#45;&gt;Node2 -->
<g id="edge1_Node000001_Node000002" class="edge">
<title>Node1&#45;&gt;Node2</title>
<g id="a_edge1_Node000001_Node000002"><a xlink:title=" ">
<path fill="none" stroke="#63b8ff" d="M110.25,-38.06C118.49,-39.21 127.06,-40.4 135.48,-41.58"/>
<polygon fill="#63b8ff" stroke="#63b8ff" points="135.26,-45.08 145.65,-42.99 136.23,-38.15 135.26,-45.08"/>
</a>
</g>
</g>
<!-- Node4 -->
<g id="Node000004" class="node">
<title>Node4</title>
<g id="a_Node000004"><a xlink:href="GBIMiddleware_8cpp.html#a4ecc44e3c6f1ca5a6b4a20c41d3bd2d2" target="_top" xlink:title=" ">
<polygon fill="white" stroke="#666666" points="245,-22 156,-22 156,-3 245,-3 245,-22"/>
<text text-anchor="middle" x="200.5" y="-10" font-family="Helvetica,sans-Serif" font-size="10.00">gSPDisplayList</text>
</a>
</g>
</g>
<!-- Node1&#45;&gt;Node4 -->
<g id="edge3_Node000001_Node000004" class="edge">
<title>Node1&#45;&gt;Node4</title>
<g id="a_edge3_Node000001_Node000004"><a xlink:title=" ">
<path fill="none" stroke="#63b8ff" d="M110.25,-23.69C121.91,-22.23 134.24,-20.69 145.87,-19.23"/>
<polygon fill="#63b8ff" stroke="#63b8ff" points="146.41,-22.69 155.89,-17.97 145.54,-15.74 146.41,-22.69"/>
</a>
</g>
</g>
<!-- Node3 -->
<g id="Node000003" class="node">
<title>Node3</title>
<g id="a_Node000003"><a xlink:href="Engine_8cpp.html#a8da2f86fab143dd6c2be01e2265264e7" target="_top" xlink:title=" ">
<polygon fill="white" stroke="#666666" points="454,-67.5 291,-67.5 291,-37.5 454,-37.5 454,-67.5"/>
<text text-anchor="start" x="299" y="-55.5" font-family="Helvetica,sans-Serif" font-size="10.00">GameEngine_ResourceGetTex</text>
<text text-anchor="middle" x="372.5" y="-44.5" font-family="Helvetica,sans-Serif" font-size="10.00">TypeByName</text>
</a>
</g>
</g>
<!-- Node2&#45;&gt;Node3 -->
<g id="edge2_Node000002_Node000003" class="edge">
<title>Node2&#45;&gt;Node3</title>
<g id="a_edge2_Node000002_Node000003"><a xlink:title=" ">
<path fill="none" stroke="#63b8ff" d="M255.29,-51.13C263.4,-51.23 271.95,-51.33 280.58,-51.43"/>
<polygon fill="#63b8ff" stroke="#63b8ff" points="280.69,-54.93 290.73,-51.55 280.77,-47.93 280.69,-54.93"/>
</a>
</g>
</g>
<!-- Node5 -->
<g id="Node000005" class="node">
<title>Node5</title>
<g id="a_Node000005"><a xlink:href="Engine_8cpp.html#a223c8bc63f228dc11177515e38eff2db" target="_top" xlink:title=" ">
<polygon fill="white" stroke="#666666" points="447,-19 298,-19 298,0 447,0 447,-19"/>
<text text-anchor="middle" x="372.5" y="-7" font-family="Helvetica,sans-Serif" font-size="10.00">GameEngine_OTRSigCheck</text>
</a>
</g>
</g>
<!-- Node4&#45;&gt;Node5 -->
<g id="edge4_Node000004_Node000005" class="edge">
<title>Node4&#45;&gt;Node5</title>
<g id="a_edge4_Node000004_Node000005"><a xlink:title=" ">
<path fill="none" stroke="#63b8ff" d="M245.28,-11.73C258.31,-11.5 273.04,-11.24 287.73,-10.98"/>
<polygon fill="#63b8ff" stroke="#63b8ff" points="287.93,-14.48 297.86,-10.8 287.8,-7.48 287.93,-14.48"/>
</a>
</g>
</g>
<!-- Node6 -->
<g id="Node000006" class="node">
<title>Node6</title>
<g id="a_Node000006"><a xlink:href="string_8c.html#a008e171a518fe0e0352f31b245e03875" target="_top" xlink:title=" ">
<polygon fill="white" stroke="#666666" points="534,-19 490,-19 490,0 534,0 534,-19"/>
<text text-anchor="middle" x="512" y="-7" font-family="Helvetica,sans-Serif" font-size="10.00">strlen</text>
</a>
</g>
</g>
<!-- Node5&#45;&gt;Node6 -->
<g id="edge5_Node000005_Node000006" class="edge">
<title>Node5&#45;&gt;Node6</title>
<g id="a_edge5_Node000005_Node000006"><a xlink:title=" ">
<path fill="none" stroke="#63b8ff" d="M447.08,-9.5C458.62,-9.5 469.97,-9.5 479.83,-9.5"/>
<polygon fill="#63b8ff" stroke="#63b8ff" points="479.89,-13 489.89,-9.5 479.89,-6 479.89,-13"/>
</a>
</g>
</g>
</g>
</svg>
