<?xml version="1.0" encoding="UTF-8" standalone="no"?>
<!DOCTYPE svg PUBLIC "-//W3C//DTD SVG 1.1//EN"
 "http://www.w3.org/Graphics/SVG/1.1/DTD/svg11.dtd">
<!-- Generated by graphviz version 2.43.0 (0)
 -->
<!-- Title: src/port/resource/importers/MinimapFactory.cpp Pages: 1 -->
<svg width="758pt" height="170pt"
 viewBox="0.00 0.00 758.00 170.00" xmlns="http://www.w3.org/2000/svg" xmlns:xlink="http://www.w3.org/1999/xlink">
<g id="graph0" class="graph" transform="scale(1 1) rotate(0) translate(4 166)">
<title>src/port/resource/importers/MinimapFactory.cpp</title>
<!-- Node1 -->
<g id="Node000001" class="node">
<title>Node1</title>
<g id="a_Node000001"><a xlink:title=" ">
<polygon fill="#999999" stroke="#666666" points="624,-162 475,-162 475,-132 624,-132 624,-162"/>
<text text-anchor="start" x="483" y="-150" font-family="Helvetica,sans-Serif" font-size="10.00">src/port/resource/importers</text>
<text text-anchor="middle" x="549.5" y="-139" font-family="Helvetica,sans-Serif" font-size="10.00">/MinimapFactory.cpp</text>
</a>
</g>
</g>
<!-- Node2 -->
<g id="Node000002" class="node">
<title>Node2</title>
<g id="a_Node000002"><a xlink:href="MinimapFactory_8h.html" target="_top" xlink:title=" ">
<polygon fill="white" stroke="#666666" points="395.5,-90.5 293.5,-90.5 293.5,-71.5 395.5,-71.5 395.5,-90.5"/>
<text text-anchor="middle" x="344.5" y="-78.5" font-family="Helvetica,sans-Serif" font-size="10.00">MinimapFactory.h</text>
</a>
</g>
</g>
<!-- Node1&#45;&gt;Node2 -->
<g id="edge1_Node000001_Node000002" class="edge">
<title>Node1&#45;&gt;Node2</title>
<g id="a_edge1_Node000001_Node000002"><a xlink:title=" ">
<path fill="none" stroke="#63b8ff" d="M504.51,-131.95C467.61,-120.43 416,-104.32 381.48,-93.54"/>
<polygon fill="#63b8ff" stroke="#63b8ff" points="382.37,-90.16 371.78,-90.52 380.28,-96.84 382.37,-90.16"/>
</a>
</g>
</g>
<!-- Node6 -->
<g id="Node000006" class="node">
<title>Node6</title>
<g id="a_Node000006"><a xlink:href="Minimap_8h.html" target="_top" xlink:title=" ">
<polygon fill="white" stroke="#666666" points="543.5,-96 437.5,-96 437.5,-66 543.5,-66 543.5,-96"/>
<text text-anchor="start" x="445.5" y="-84" font-family="Helvetica,sans-Serif" font-size="10.00">port/resource/type</text>
<text text-anchor="middle" x="490.5" y="-73" font-family="Helvetica,sans-Serif" font-size="10.00">/Minimap.h</text>
</a>
</g>
</g>
<!-- Node1&#45;&gt;Node6 -->
<g id="edge5_Node000001_Node000006" class="edge">
<title>Node1&#45;&gt;Node6</title>
<g id="a_edge5_Node000001_Node000006"><a xlink:title=" ">
<path fill="none" stroke="#63b8ff" d="M536.41,-131.8C528.77,-123.51 518.98,-112.89 510.4,-103.59"/>
<polygon fill="#63b8ff" stroke="#63b8ff" points="512.91,-101.14 503.56,-96.16 507.76,-105.89 512.91,-101.14"/>
</a>
</g>
</g>
<!-- Node9 -->
<g id="Node000009" class="node">
<title>Node9</title>
<g id="a_Node000009"><a xlink:title=" ">
<polygon fill="#e0e0e0" stroke="#999999" points="655,-90.5 562,-90.5 562,-71.5 655,-71.5 655,-90.5"/>
<text text-anchor="middle" x="608.5" y="-78.5" font-family="Helvetica,sans-Serif" font-size="10.00">spdlog/spdlog.h</text>
</a>
</g>
</g>
<!-- Node1&#45;&gt;Node9 -->
<g id="edge9_Node000001_Node000009" class="edge">
<title>Node1&#45;&gt;Node9</title>
<g id="a_edge9_Node000001_Node000009"><a xlink:title=" ">
<path fill="none" stroke="#63b8ff" d="M562.59,-131.8C571.7,-121.92 583.87,-108.72 593.39,-98.39"/>
<polygon fill="#63b8ff" stroke="#63b8ff" points="596.14,-100.57 600.35,-90.84 591,-95.82 596.14,-100.57"/>
</a>
</g>
</g>
<!-- Node10 -->
<g id="Node000010" class="node">
<title>Node10</title>
<g id="a_Node000010"><a xlink:title=" ">
<polygon fill="#e0e0e0" stroke="#999999" points="750,-90.5 673,-90.5 673,-71.5 750,-71.5 750,-90.5"/>
<text text-anchor="middle" x="711.5" y="-78.5" font-family="Helvetica,sans-Serif" font-size="10.00">stb_image.h</text>
</a>
</g>
</g>
<!-- Node1&#45;&gt;Node10 -->
<g id="edge10_Node000001_Node000010" class="edge">
<title>Node1&#45;&gt;Node10</title>
<g id="a_edge10_Node000001_Node000010"><a xlink:title=" ">
<path fill="none" stroke="#63b8ff" d="M585.05,-131.95C613.59,-120.68 653.25,-105.01 680.5,-94.25"/>
<polygon fill="#63b8ff" stroke="#63b8ff" points="681.93,-97.45 689.94,-90.52 679.35,-90.94 681.93,-97.45"/>
</a>
</g>
</g>
<!-- Node3 -->
<g id="Node000003" class="node">
<title>Node3</title>
<g id="a_Node000003"><a xlink:title=" ">
<polygon fill="#e0e0e0" stroke="#999999" points="505,-24.5 366,-24.5 366,-5.5 505,-5.5 505,-24.5"/>
<text text-anchor="middle" x="435.5" y="-12.5" font-family="Helvetica,sans-Serif" font-size="10.00">ship/resource/Resource.h</text>
</a>
</g>
</g>
<!-- Node2&#45;&gt;Node3 -->
<g id="edge2_Node000002_Node000003" class="edge">
<title>Node2&#45;&gt;Node3</title>
<g id="a_edge2_Node000002_Node000003"><a xlink:title=" ">
<path fill="none" stroke="#63b8ff" d="M356.77,-71.37C371.56,-60.97 396.65,-43.32 414.53,-30.75"/>
<polygon fill="#63b8ff" stroke="#63b8ff" points="416.96,-33.31 423.13,-24.7 412.94,-27.59 416.96,-33.31"/>
</a>
</g>
</g>
<!-- Node4 -->
<g id="Node000004" class="node">
<title>Node4</title>
<g id="a_Node000004"><a xlink:title=" ">
<polygon fill="#e0e0e0" stroke="#999999" points="165,-30 0,-30 0,0 165,0 165,-30"/>
<text text-anchor="start" x="8" y="-18" font-family="Helvetica,sans-Serif" font-size="10.00">ship/resource/ResourceFactory</text>
<text text-anchor="middle" x="82.5" y="-7" font-family="Helvetica,sans-Serif" font-size="10.00">Binary.h</text>
</a>
</g>
</g>
<!-- Node2&#45;&gt;Node4 -->
<g id="edge3_Node000002_Node000004" class="edge">
<title>Node2&#45;&gt;Node4</title>
<g id="a_edge3_Node000002_Node000004"><a xlink:title=" ">
<path fill="none" stroke="#63b8ff" d="M309.44,-71.44C268.78,-61.5 200.84,-44.91 149.87,-32.46"/>
<polygon fill="#63b8ff" stroke="#63b8ff" points="150.46,-29 139.91,-30.02 148.8,-35.8 150.46,-29"/>
</a>
</g>
</g>
<!-- Node5 -->
<g id="Node000005" class="node">
<title>Node5</title>
<g id="a_Node000005"><a xlink:title=" ">
<polygon fill="#e0e0e0" stroke="#999999" points="348,-30 183,-30 183,0 348,0 348,-30"/>
<text text-anchor="start" x="191" y="-18" font-family="Helvetica,sans-Serif" font-size="10.00">ship/resource/ResourceFactory</text>
<text text-anchor="middle" x="265.5" y="-7" font-family="Helvetica,sans-Serif" font-size="10.00">XML.h</text>
</a>
</g>
</g>
<!-- Node2&#45;&gt;Node5 -->
<g id="edge4_Node000002_Node000005" class="edge">
<title>Node2&#45;&gt;Node5</title>
<g id="a_edge4_Node000002_Node000005"><a xlink:title=" ">
<path fill="none" stroke="#63b8ff" d="M333.85,-71.37C322.93,-62.53 305.56,-48.45 291.06,-36.71"/>
<polygon fill="#63b8ff" stroke="#63b8ff" points="292.9,-33.69 282.92,-30.12 288.49,-39.13 292.9,-33.69"/>
</a>
</g>
</g>
<!-- Node6&#45;&gt;Node3 -->
<g id="edge6_Node000006_Node000003" class="edge">
<title>Node6&#45;&gt;Node3</title>
<g id="a_edge6_Node000006_Node000003"><a xlink:title=" ">
<path fill="none" stroke="#63b8ff" d="M478.29,-65.8C469.89,-56.01 458.69,-42.98 449.85,-32.7"/>
<polygon fill="#63b8ff" stroke="#63b8ff" points="452.27,-30.15 443.1,-24.84 446.96,-34.71 452.27,-30.15"/>
</a>
</g>
</g>
<!-- Node7 -->
<g id="Node000007" class="node">
<title>Node7</title>
<g id="a_Node000007"><a xlink:title=" ">
<polygon fill="#e0e0e0" stroke="#999999" points="570,-24.5 523,-24.5 523,-5.5 570,-5.5 570,-24.5"/>
<text text-anchor="middle" x="546.5" y="-12.5" font-family="Helvetica,sans-Serif" font-size="10.00">vector</text>
</a>
</g>
</g>
<!-- Node6&#45;&gt;Node7 -->
<g id="edge7_Node000006_Node000007" class="edge">
<title>Node6&#45;&gt;Node7</title>
<g id="a_edge7_Node000006_Node000007"><a xlink:title=" ">
<path fill="none" stroke="#63b8ff" d="M502.93,-65.8C511.57,-55.92 523.12,-42.72 532.16,-32.39"/>
<polygon fill="#63b8ff" stroke="#63b8ff" points="534.81,-34.67 538.76,-24.84 529.54,-30.07 534.81,-34.67"/>
</a>
</g>
</g>
<!-- Node8 -->
<g id="Node000008" class="node">
<title>Node8</title>
<g id="a_Node000008"><a xlink:title=" ">
<polygon fill="#e0e0e0" stroke="#999999" points="638.5,-24.5 588.5,-24.5 588.5,-5.5 638.5,-5.5 638.5,-24.5"/>
<text text-anchor="middle" x="613.5" y="-12.5" font-family="Helvetica,sans-Serif" font-size="10.00">cstdint</text>
</a>
</g>
</g>
<!-- Node6&#45;&gt;Node8 -->
<g id="edge8_Node000006_Node000008" class="edge">
<title>Node6&#45;&gt;Node8</title>
<g id="a_edge8_Node000006_Node000008"><a xlink:title=" ">
<path fill="none" stroke="#63b8ff" d="M517.49,-65.95C538.49,-55.03 567.43,-39.97 588.03,-29.25"/>
<polygon fill="#63b8ff" stroke="#63b8ff" points="589.88,-32.24 597.13,-24.52 586.64,-26.03 589.88,-32.24"/>
</a>
</g>
</g>
</g>
</svg>
