<?xml version="1.0" encoding="UTF-8" standalone="no"?>
<!DOCTYPE svg PUBLIC "-//W3C//DTD SVG 1.1//EN"
 "http://www.w3.org/Graphics/SVG/1.1/DTD/svg11.dtd">
<!-- Generated by graphviz version 2.43.0 (0)
 -->
<!-- Title: include/assets/models/tracks/koopa_troopa_beach/koopa_troopa_beach_data.h Pages: 1 -->
<svg width="320pt" height="115pt"
 viewBox="0.00 0.00 319.50 115.00" xmlns="http://www.w3.org/2000/svg" xmlns:xlink="http://www.w3.org/1999/xlink">
<g id="graph0" class="graph" transform="scale(1 1) rotate(0) translate(4 111)">
<title>include/assets/models/tracks/koopa_troopa_beach/koopa_troopa_beach_data.h</title>
<!-- Node1 -->
<g id="Node000001" class="node">
<title>Node1</title>
<g id="a_Node000001"><a xlink:title=" ">
<polygon fill="#999999" stroke="#666666" points="214.5,-107 59.5,-107 59.5,-55 214.5,-55 214.5,-107"/>
<text text-anchor="start" x="67.5" y="-95" font-family="Helvetica,sans-Serif" font-size="10.00">include/assets/models</text>
<text text-anchor="start" x="67.5" y="-84" font-family="Helvetica,sans-Serif" font-size="10.00">/tracks/koopa_troopa</text>
<text text-anchor="start" x="67.5" y="-73" font-family="Helvetica,sans-Serif" font-size="10.00">_beach/koopa_troopa_beach</text>
<text text-anchor="middle" x="137" y="-62" font-family="Helvetica,sans-Serif" font-size="10.00">_data.h</text>
</a>
</g>
</g>
<!-- Node2 -->
<g id="Node000002" class="node">
<title>Node2</title>
<g id="a_Node000002"><a xlink:title=" ">
<polygon fill="#e0e0e0" stroke="#999999" points="80,-19 0,-19 0,0 80,0 80,-19"/>
<text text-anchor="middle" x="40" y="-7" font-family="Helvetica,sans-Serif" font-size="10.00">libultraship.h</text>
</a>
</g>
</g>
<!-- Node1&#45;&gt;Node2 -->
<g id="edge1_Node000001_Node000002" class="edge">
<title>Node1&#45;&gt;Node2</title>
<g id="a_edge1_Node000001_Node000002"><a xlink:title=" ">
<path fill="none" stroke="#63b8ff" d="M101.98,-54.91C88.14,-44.99 72.71,-33.94 60.71,-25.34"/>
<polygon fill="#63b8ff" stroke="#63b8ff" points="62.45,-22.28 52.29,-19.3 58.38,-27.97 62.45,-22.28"/>
</a>
</g>
</g>
<!-- Node3 -->
<g id="Node000003" class="node">
<title>Node3</title>
<g id="a_Node000003"><a xlink:title=" ">
<polygon fill="#e0e0e0" stroke="#999999" points="176,-19 98,-19 98,0 176,0 176,-19"/>
<text text-anchor="middle" x="137" y="-7" font-family="Helvetica,sans-Serif" font-size="10.00">libultra/gbi.h</text>
</a>
</g>
</g>
<!-- Node1&#45;&gt;Node3 -->
<g id="edge2_Node000001_Node000003" class="edge">
<title>Node1&#45;&gt;Node3</title>
<g id="a_edge2_Node000001_Node000003"><a xlink:title=" ">
<path fill="none" stroke="#63b8ff" d="M137,-54.91C137,-46.55 137,-37.38 137,-29.55"/>
<polygon fill="#63b8ff" stroke="#63b8ff" points="140.5,-29.3 137,-19.3 133.5,-29.3 140.5,-29.3"/>
</a>
</g>
</g>
<!-- Node4 -->
<g id="Node000004" class="node">
<title>Node4</title>
<g id="a_Node000004"><a xlink:href="align__asset__macro_8h.html" target="_top" xlink:title=" ">
<polygon fill="white" stroke="#666666" points="311.5,-19 194.5,-19 194.5,0 311.5,0 311.5,-19"/>
<text text-anchor="middle" x="253" y="-7" font-family="Helvetica,sans-Serif" font-size="10.00">align_asset_macro.h</text>
</a>
</g>
</g>
<!-- Node1&#45;&gt;Node4 -->
<g id="edge3_Node000001_Node000004" class="edge">
<title>Node1&#45;&gt;Node4</title>
<g id="a_edge3_Node000001_Node000004"><a xlink:title=" ">
<path fill="none" stroke="#63b8ff" d="M178.88,-54.91C196.02,-44.64 215.2,-33.15 229.76,-24.43"/>
<polygon fill="#63b8ff" stroke="#63b8ff" points="231.81,-27.28 238.59,-19.14 228.21,-21.27 231.81,-27.28"/>
</a>
</g>
</g>
</g>
</svg>
