<?xml version="1.0" encoding="UTF-8" standalone="no"?>
<!DOCTYPE svg PUBLIC "-//W3C//DTD SVG 1.1//EN"
 "http://www.w3.org/Graphics/SVG/1.1/DTD/svg11.dtd">
<!-- Generated by graphviz version 2.43.0 (0)
 -->
<!-- Title: TrackEditor::SaveStaticMeshActors Pages: 1 -->
<svg width="729pt" height="86pt"
 viewBox="0.00 0.00 729.00 86.00" xmlns="http://www.w3.org/2000/svg" xmlns:xlink="http://www.w3.org/1999/xlink">
<g id="graph0" class="graph" transform="scale(1 1) rotate(0) translate(4 82)">
<title>TrackEditor::SaveStaticMeshActors</title>
<!-- Node1 -->
<g id="Node000001" class="node">
<title>Node1</title>
<g id="a_Node000001"><a xlink:title=" ">
<polygon fill="#999999" stroke="#666666" points="721,-54 566,-54 566,-24 721,-24 721,-54"/>
<text text-anchor="start" x="574" y="-42" font-family="Helvetica,sans-Serif" font-size="10.00">TrackEditor::SaveStaticMesh</text>
<text text-anchor="middle" x="643.5" y="-31" font-family="Helvetica,sans-Serif" font-size="10.00">Actors</text>
</a>
</g>
</g>
<!-- Node2 -->
<g id="Node000002" class="node">
<title>Node2</title>
<g id="a_Node000002"><a xlink:href="namespaceTrackEditor.html#aa6a563244a563bd17d12563a23eadba6" target="_top" xlink:title=" ">
<polygon fill="white" stroke="#666666" points="530,-48.5 403,-48.5 403,-29.5 530,-29.5 530,-48.5"/>
<text text-anchor="middle" x="466.5" y="-36.5" font-family="Helvetica,sans-Serif" font-size="10.00">TrackEditor::SaveLevel</text>
</a>
</g>
</g>
<!-- Node1&#45;&gt;Node2 -->
<g id="edge1_Node000001_Node000002" class="edge">
<title>Node1&#45;&gt;Node2</title>
<g id="a_edge1_Node000001_Node000002"><a xlink:title=" ">
<path fill="none" stroke="#63b8ff" d="M555.86,-39C547.21,-39 538.54,-39 530.2,-39"/>
<polygon fill="#63b8ff" stroke="#63b8ff" points="556,-42.5 566,-39 556,-35.5 556,-42.5"/>
</a>
</g>
</g>
<!-- Node3 -->
<g id="Node000003" class="node">
<title>Node3</title>
<g id="a_Node000003"><a xlink:href="classTrackEditor_1_1ToolsWindow.html#ae385cfb1d654a2e5be9373f7df9a16ef" target="_top" xlink:title=" ">
<polygon fill="white" stroke="#666666" points="347.5,-78 207.5,-78 207.5,-48 347.5,-48 347.5,-78"/>
<text text-anchor="start" x="215.5" y="-66" font-family="Helvetica,sans-Serif" font-size="10.00">TrackEditor::ToolsWindow</text>
<text text-anchor="middle" x="277.5" y="-55" font-family="Helvetica,sans-Serif" font-size="10.00">::DrawElement</text>
</a>
</g>
</g>
<!-- Node2&#45;&gt;Node3 -->
<g id="edge2_Node000002_Node000003" class="edge">
<title>Node2&#45;&gt;Node3</title>
<g id="a_edge2_Node000002_Node000003"><a xlink:title=" ">
<path fill="none" stroke="#63b8ff" d="M392.84,-48.33C378.01,-50.23 362.44,-52.23 347.73,-54.11"/>
<polygon fill="#63b8ff" stroke="#63b8ff" points="393.5,-51.77 402.97,-47.03 392.61,-44.83 393.5,-51.77"/>
</a>
</g>
</g>
<!-- Node4 -->
<g id="Node000004" class="node">
<title>Node4</title>
<g id="a_Node000004"><a xlink:href="classTrackEditor_1_1TrackPropertiesWindow.html#a15da20f8d315aafe3c36fa71b2dd3bcc" target="_top" xlink:title=" ">
<polygon fill="white" stroke="#666666" points="367,-30 188,-30 188,0 367,0 367,-30"/>
<text text-anchor="start" x="196" y="-18" font-family="Helvetica,sans-Serif" font-size="10.00">TrackEditor::TrackProperties</text>
<text text-anchor="middle" x="277.5" y="-7" font-family="Helvetica,sans-Serif" font-size="10.00">Window::DrawResourceNameEdit</text>
</a>
</g>
</g>
<!-- Node2&#45;&gt;Node4 -->
<g id="edge3_Node000002_Node000004" class="edge">
<title>Node2&#45;&gt;Node4</title>
<g id="a_edge3_Node000002_Node000004"><a xlink:title=" ">
<path fill="none" stroke="#63b8ff" d="M392.87,-29.68C384.48,-28.6 375.85,-27.49 367.27,-26.39"/>
<polygon fill="#63b8ff" stroke="#63b8ff" points="392.61,-33.17 402.97,-30.97 393.5,-26.23 392.61,-33.17"/>
</a>
</g>
</g>
<!-- Node5 -->
<g id="Node000005" class="node">
<title>Node5</title>
<g id="a_Node000005"><a xlink:href="classTrackEditor_1_1TrackPropertiesWindow.html#af1576a7f38fb02dc87413b6e1213ec7c" target="_top" xlink:title=" ">
<polygon fill="white" stroke="#666666" points="152,-30 0,-30 0,0 152,0 152,-30"/>
<text text-anchor="start" x="8" y="-18" font-family="Helvetica,sans-Serif" font-size="10.00">TrackEditor::TrackProperties</text>
<text text-anchor="middle" x="76" y="-7" font-family="Helvetica,sans-Serif" font-size="10.00">Window::DrawElement</text>
</a>
</g>
</g>
<!-- Node4&#45;&gt;Node5 -->
<g id="edge4_Node000004_Node000005" class="edge">
<title>Node4&#45;&gt;Node5</title>
<g id="a_edge4_Node000004_Node000005"><a xlink:title=" ">
<path fill="none" stroke="#63b8ff" d="M177.79,-15C169.22,-15 160.63,-15 152.29,-15"/>
<polygon fill="#63b8ff" stroke="#63b8ff" points="177.83,-18.5 187.83,-15 177.83,-11.5 177.83,-18.5"/>
</a>
</g>
</g>
</g>
</svg>
