<?xml version="1.0" encoding="UTF-8" standalone="no"?>
<!DOCTYPE svg PUBLIC "-//W3C//DTD SVG 1.1//EN"
 "http://www.w3.org/Graphics/SVG/1.1/DTD/svg11.dtd">
<!-- Generated by graphviz version 2.43.0 (0)
 -->
<!-- Title: UIWidgets::PushStyleMenu Pages: 1 -->
<svg width="517pt" height="64pt"
 viewBox="0.00 0.00 517.00 64.00" xmlns="http://www.w3.org/2000/svg" xmlns:xlink="http://www.w3.org/1999/xlink">
<g id="graph0" class="graph" transform="scale(1 1) rotate(0) translate(4 60)">
<title>UIWidgets::PushStyleMenu</title>
<!-- Node1 -->
<g id="Node000001" class="node">
<title>Node1</title>
<g id="a_Node000001"><a xlink:title=" ">
<polygon fill="#999999" stroke="#666666" points="509,-37 361,-37 361,-18 509,-18 509,-37"/>
<text text-anchor="middle" x="435" y="-25" font-family="Helvetica,sans-Serif" font-size="10.00">UIWidgets::PushStyleMenu</text>
</a>
</g>
</g>
<!-- Node2 -->
<g id="Node000002" class="node">
<title>Node2</title>
<g id="a_Node000002"><a xlink:href="namespaceUIWidgets.html#aed73bb0e7d02ca787973de9803f10562" target="_top" xlink:title=" ">
<polygon fill="white" stroke="#666666" points="315,-56 187,-56 187,-37 315,-37 315,-56"/>
<text text-anchor="middle" x="251" y="-44" font-family="Helvetica,sans-Serif" font-size="10.00">UIWidgets::BeginMenu</text>
</a>
</g>
</g>
<!-- Node1&#45;&gt;Node2 -->
<g id="edge1_Node000001_Node000002" class="edge">
<title>Node1&#45;&gt;Node2</title>
<g id="a_edge1_Node000001_Node000002"><a xlink:title=" ">
<path fill="none" stroke="#63b8ff" d="M350.76,-36.19C338.79,-37.44 326.64,-38.71 315.14,-39.91"/>
<polygon fill="#63b8ff" stroke="#63b8ff" points="351.18,-39.67 360.76,-35.15 350.45,-32.7 351.18,-39.67"/>
</a>
</g>
</g>
<!-- Node4 -->
<g id="Node000004" class="node">
<title>Node4</title>
<g id="a_Node000004"><a xlink:href="namespaceUIWidgets.html#aabb6d391ee6fb30e6c0f85ac8e76df08" target="_top" xlink:title=" ">
<polygon fill="white" stroke="#666666" points="325,-19 177,-19 177,0 325,0 325,-19"/>
<text text-anchor="middle" x="251" y="-7" font-family="Helvetica,sans-Serif" font-size="10.00">UIWidgets::PushStyleMenu</text>
</a>
</g>
</g>
<!-- Node1&#45;&gt;Node4 -->
<g id="edge3_Node000001_Node000004" class="edge">
<title>Node1&#45;&gt;Node4</title>
<g id="a_edge3_Node000001_Node000004"><a xlink:title=" ">
<path fill="none" stroke="#63b8ff" d="M350.76,-19.27C342.2,-18.42 333.54,-17.56 325.09,-16.73"/>
<polygon fill="#63b8ff" stroke="#63b8ff" points="350.46,-22.76 360.76,-20.26 351.15,-15.79 350.46,-22.76"/>
</a>
</g>
</g>
<!-- Node3 -->
<g id="Node000003" class="node">
<title>Node3</title>
<g id="a_Node000003"><a xlink:href="ImguiUI_8cpp.html#ac3f15c8f5356c71af25c08617166a1bf" target="_top" xlink:title=" ">
<polygon fill="white" stroke="#666666" points="141,-56 0,-56 0,-37 141,-37 141,-56"/>
<text text-anchor="middle" x="70.5" y="-44" font-family="Helvetica,sans-Serif" font-size="10.00">DrawEnhancementsMenu</text>
</a>
</g>
</g>
<!-- Node2&#45;&gt;Node3 -->
<g id="edge2_Node000002_Node000003" class="edge">
<title>Node2&#45;&gt;Node3</title>
<g id="a_edge2_Node000002_Node000003"><a xlink:title=" ">
<path fill="none" stroke="#63b8ff" d="M176.66,-46.5C164.96,-46.5 152.89,-46.5 141.28,-46.5"/>
<polygon fill="#63b8ff" stroke="#63b8ff" points="176.82,-50 186.82,-46.5 176.82,-43 176.82,-50"/>
</a>
</g>
</g>
</g>
</svg>
