<?xml version="1.0" encoding="UTF-8" standalone="no"?>
<!DOCTYPE svg PUBLIC "-//W3C//DTD SVG 1.1//EN"
 "http://www.w3.org/Graphics/SVG/1.1/DTD/svg11.dtd">
<!-- Generated by graphviz version 2.43.0 (0)
 -->
<!-- Title: UIWidgets::Button Pages: 1 -->
<svg width="1425pt" height="245pt"
 viewBox="0.00 0.00 1425.00 244.50" xmlns="http://www.w3.org/2000/svg" xmlns:xlink="http://www.w3.org/1999/xlink">
<g id="graph0" class="graph" transform="scale(1 1) rotate(0) translate(4 240.5)">
<title>UIWidgets::Button</title>
<!-- Node1 -->
<g id="Node000001" class="node">
<title>Node1</title>
<g id="a_Node000001"><a xlink:title=" ">
<polygon fill="#999999" stroke="#666666" points="1417,-151 1312,-151 1312,-132 1417,-132 1417,-151"/>
<text text-anchor="middle" x="1364.5" y="-139" font-family="Helvetica,sans-Serif" font-size="10.00">UIWidgets::Button</text>
</a>
</g>
</g>
<!-- Node2 -->
<g id="Node000002" class="node">
<title>Node2</title>
<g id="a_Node000002"><a xlink:href="classShip_1_1Menu.html#ae85312deebd68ce051243164a1831fae" target="_top" xlink:title=" ">
<polygon fill="white" stroke="#666666" points="536,-170 393,-170 393,-151 536,-151 536,-170"/>
<text text-anchor="middle" x="464.5" y="-158" font-family="Helvetica,sans-Serif" font-size="10.00">Ship::Menu::DrawElement</text>
</a>
</g>
</g>
<!-- Node1&#45;&gt;Node2 -->
<g id="edge1_Node000001_Node000002" class="edge">
<title>Node1&#45;&gt;Node2</title>
<g id="a_edge1_Node000001_Node000002"><a xlink:title=" ">
<path fill="none" stroke="#63b8ff" d="M1335.81,-155.57C1281.14,-182.02 1154.83,-236.5 1042,-236.5 1042,-236.5 1042,-236.5 854,-236.5 717.23,-236.5 558.34,-190.58 494.36,-170.13"/>
<polygon fill="#63b8ff" stroke="#63b8ff" points="1337.43,-158.68 1344.87,-151.13 1334.35,-152.39 1337.43,-158.68"/>
</a>
</g>
</g>
<!-- Node6 -->
<g id="Node000006" class="node">
<title>Node6</title>
<g id="a_Node000006"><a xlink:href="classShip_1_1Menu.html#a260af6187999b8381769c55c122dc2ee" target="_top" xlink:title=" ">
<polygon fill="white" stroke="#666666" points="931,-132 779,-132 779,-113 931,-113 931,-132"/>
<text text-anchor="middle" x="855" y="-120" font-family="Helvetica,sans-Serif" font-size="10.00">Ship::Menu::MenuDrawItem</text>
</a>
</g>
</g>
<!-- Node1&#45;&gt;Node6 -->
<g id="edge5_Node000001_Node000006" class="edge">
<title>Node1&#45;&gt;Node6</title>
<g id="a_edge5_Node000001_Node000006"><a xlink:title=" ">
<path fill="none" stroke="#63b8ff" d="M1318.05,-153.3C1304.61,-156.26 1289.79,-159.02 1276,-160.5 1237.11,-164.67 974.64,-158.74 967,-157.5 935.89,-152.45 901.47,-140.56 879.34,-132.04"/>
<polygon fill="#63b8ff" stroke="#63b8ff" points="1319.06,-156.66 1328.02,-151.01 1317.49,-149.83 1319.06,-156.66"/>
</a>
</g>
</g>
<!-- Node8 -->
<g id="Node000008" class="node">
<title>Node8</title>
<g id="a_Node000008"><a xlink:href="namespaceUIWidgets.html#ab0e1dc2ac8062d0124cef3260da95506" target="_top" xlink:title=" ">
<polygon fill="white" stroke="#666666" points="1276,-151 1151,-151 1151,-132 1276,-132 1276,-151"/>
<text text-anchor="middle" x="1213.5" y="-139" font-family="Helvetica,sans-Serif" font-size="10.00">UIWidgets::SliderFloat</text>
</a>
</g>
</g>
<!-- Node1&#45;&gt;Node8 -->
<g id="edge10_Node000001_Node000008" class="edge">
<title>Node1&#45;&gt;Node8</title>
<g id="a_edge10_Node000001_Node000008"><a xlink:title=" ">
<path fill="none" stroke="#63b8ff" d="M1301.65,-141.5C1293.21,-141.5 1284.54,-141.5 1276.1,-141.5"/>
<polygon fill="#63b8ff" stroke="#63b8ff" points="1301.81,-145 1311.81,-141.5 1301.81,-138 1301.81,-145"/>
</a>
</g>
</g>
<!-- Node10 -->
<g id="Node000010" class="node">
<title>Node10</title>
<g id="a_Node000010"><a xlink:href="namespaceUIWidgets.html#a2eebccc487beff83c49f24c18987e684" target="_top" xlink:title=" ">
<polygon fill="white" stroke="#666666" points="1270,-94 1157,-94 1157,-75 1270,-75 1270,-94"/>
<text text-anchor="middle" x="1213.5" y="-82" font-family="Helvetica,sans-Serif" font-size="10.00">UIWidgets::SliderInt</text>
</a>
</g>
</g>
<!-- Node1&#45;&gt;Node10 -->
<g id="edge14_Node000001_Node000010" class="edge">
<title>Node1&#45;&gt;Node10</title>
<g id="a_edge14_Node000001_Node000010"><a xlink:title=" ">
<path fill="none" stroke="#63b8ff" d="M1328.99,-128.3C1301.63,-117.83 1264.05,-103.45 1239.52,-94.07"/>
<polygon fill="#63b8ff" stroke="#63b8ff" points="1327.97,-131.66 1338.56,-131.96 1330.47,-125.12 1327.97,-131.66"/>
</a>
</g>
</g>
<!-- Node12 -->
<g id="Node000012" class="node">
<title>Node12</title>
<g id="a_Node000012"><a xlink:href="namespaceUIWidgets.html#a2e6551e3cad6ecb45d3994d609743801" target="_top" xlink:title=" ">
<polygon fill="white" stroke="#666666" points="1113,-19 969,-19 969,0 1113,0 1113,-19"/>
<text text-anchor="middle" x="1041" y="-7" font-family="Helvetica,sans-Serif" font-size="10.00">UIWidgets::WindowButton</text>
</a>
</g>
</g>
<!-- Node1&#45;&gt;Node12 -->
<g id="edge18_Node000001_Node000012" class="edge">
<title>Node1&#45;&gt;Node12</title>
<g id="a_edge18_Node000001_Node000012"><a xlink:title=" ">
<path fill="none" stroke="#63b8ff" d="M1348.05,-124.16C1331.78,-106.98 1304.61,-81.17 1276,-66.5 1224.84,-40.27 1161.13,-25.77 1113.11,-17.97"/>
<polygon fill="#63b8ff" stroke="#63b8ff" points="1345.76,-126.84 1355.11,-131.81 1350.9,-122.09 1345.76,-126.84"/>
</a>
</g>
</g>
<!-- Node3 -->
<g id="Node000003" class="node">
<title>Node3</title>
<g id="a_Node000003"><a xlink:href="classShip_1_1Menu.html#aa7024f02fd268f45cf75fd69833c4d1c" target="_top" xlink:title=" ">
<polygon fill="white" stroke="#666666" points="317.5,-189 215.5,-189 215.5,-170 317.5,-170 317.5,-189"/>
<text text-anchor="middle" x="266.5" y="-177" font-family="Helvetica,sans-Serif" font-size="10.00">Ship::Menu::Draw</text>
</a>
</g>
</g>
<!-- Node2&#45;&gt;Node3 -->
<g id="edge2_Node000002_Node000003" class="edge">
<title>Node2&#45;&gt;Node3</title>
<g id="a_edge2_Node000002_Node000003"><a xlink:title=" ">
<path fill="none" stroke="#63b8ff" d="M382.7,-168.33C360.64,-170.47 337.38,-172.73 317.58,-174.65"/>
<polygon fill="#63b8ff" stroke="#63b8ff" points="383.12,-171.81 392.74,-167.36 382.45,-164.84 383.12,-171.81"/>
</a>
</g>
</g>
<!-- Node5 -->
<g id="Node000005" class="node">
<title>Node5</title>
<g id="a_Node000005"><a xlink:href="classGameUI_1_1PortMenu.html#a99e204a4bf92bc4e563547d8d5f2013a" target="_top" xlink:title=" ">
<polygon fill="white" stroke="#666666" points="357,-152 176,-152 176,-133 357,-133 357,-152"/>
<text text-anchor="middle" x="266.5" y="-140" font-family="Helvetica,sans-Serif" font-size="10.00">GameUI::PortMenu::DrawElement</text>
</a>
</g>
</g>
<!-- Node2&#45;&gt;Node5 -->
<g id="edge4_Node000002_Node000005" class="edge">
<title>Node2&#45;&gt;Node5</title>
<g id="a_edge4_Node000002_Node000005"><a xlink:title=" ">
<path fill="none" stroke="#63b8ff" d="M382.64,-153.07C374.27,-152.31 365.73,-151.52 357.27,-150.74"/>
<polygon fill="#63b8ff" stroke="#63b8ff" points="382.46,-156.57 392.74,-154 383.1,-149.6 382.46,-156.57"/>
</a>
</g>
</g>
<!-- Node4 -->
<g id="Node000004" class="node">
<title>Node4</title>
<g id="a_Node000004"><a xlink:href="classGameUI_1_1PortMenu.html#ad7cfc1475c5fb97f67e5007b82cc8d2e" target="_top" xlink:title=" ">
<polygon fill="white" stroke="#666666" points="140,-189 0,-189 0,-170 140,-170 140,-189"/>
<text text-anchor="middle" x="70" y="-177" font-family="Helvetica,sans-Serif" font-size="10.00">GameUI::PortMenu::Draw</text>
</a>
</g>
</g>
<!-- Node3&#45;&gt;Node4 -->
<g id="edge3_Node000003_Node000004" class="edge">
<title>Node3&#45;&gt;Node4</title>
<g id="a_edge3_Node000003_Node000004"><a xlink:title=" ">
<path fill="none" stroke="#63b8ff" d="M205.24,-179.5C184.69,-179.5 161.55,-179.5 140.34,-179.5"/>
<polygon fill="#63b8ff" stroke="#63b8ff" points="205.41,-183 215.41,-179.5 205.41,-176 205.41,-183"/>
</a>
</g>
</g>
<!-- Node6&#45;&gt;Node2 -->
<g id="edge6_Node000006_Node000002" class="edge">
<title>Node6&#45;&gt;Node2</title>
<g id="a_edge6_Node000006_Node000002"><a xlink:title=" ">
<path fill="none" stroke="#63b8ff" d="M794.56,-133.82C777.93,-136.67 759.8,-139.49 743,-141.5 672.88,-149.88 592.31,-154.89 536.11,-157.64"/>
<polygon fill="#63b8ff" stroke="#63b8ff" points="795.46,-137.21 804.7,-132.04 794.25,-130.32 795.46,-137.21"/>
</a>
</g>
</g>
<!-- Node7 -->
<g id="Node000007" class="node">
<title>Node7</title>
<g id="a_Node000007"><a xlink:href="classShip_1_1Menu.html#a93c1cecb59051f4d9b31f1cab0b577f4" target="_top" xlink:title=" ">
<polygon fill="white" stroke="#666666" points="743,-132 572,-132 572,-113 743,-113 743,-132"/>
<text text-anchor="middle" x="657.5" y="-120" font-family="Helvetica,sans-Serif" font-size="10.00">Ship::Menu::DrawSearchResults</text>
</a>
</g>
</g>
<!-- Node6&#45;&gt;Node7 -->
<g id="edge7_Node000006_Node000007" class="edge">
<title>Node6&#45;&gt;Node7</title>
<g id="a_edge7_Node000006_Node000007"><a xlink:title=" ">
<path fill="none" stroke="#63b8ff" d="M768.7,-115.8C760.21,-115.73 751.59,-115.73 743.1,-115.8"/>
<polygon fill="#63b8ff" stroke="#63b8ff" points="768.93,-119.3 778.97,-115.91 769.01,-112.3 768.93,-119.3"/>
</a>
</g>
</g>
<!-- Node7&#45;&gt;Node2 -->
<g id="edge8_Node000007_Node000002" class="edge">
<title>Node7&#45;&gt;Node2</title>
<g id="a_edge8_Node000007_Node000002"><a xlink:title=" ">
<path fill="none" stroke="#63b8ff" d="M598.15,-134.11C570.98,-139.51 539.07,-145.86 513.35,-150.98"/>
<polygon fill="#63b8ff" stroke="#63b8ff" points="599.18,-137.47 608.3,-132.09 597.81,-130.61 599.18,-137.47"/>
</a>
</g>
</g>
<!-- Node7&#45;&gt;Node6 -->
<g id="edge9_Node000007_Node000006" class="edge">
<title>Node7&#45;&gt;Node6</title>
<g id="a_edge9_Node000007_Node000006"><a xlink:title=" ">
<path fill="none" stroke="#63b8ff" d="M753.22,-129.25C761.86,-129.26 770.54,-129.21 778.97,-129.09"/>
<polygon fill="#63b8ff" stroke="#63b8ff" points="753.12,-125.75 743.1,-129.2 753.09,-132.75 753.12,-125.75"/>
</a>
</g>
</g>
<!-- Node8&#45;&gt;Node6 -->
<g id="edge13_Node000008_Node000006" class="edge">
<title>Node8&#45;&gt;Node6</title>
<g id="a_edge13_Node000008_Node000006"><a xlink:title=" ">
<path fill="none" stroke="#63b8ff" d="M1140.65,-144.7C1091.63,-146.09 1025.28,-146.45 967,-141.5 945.18,-139.65 921.21,-135.78 901.14,-132.01"/>
<polygon fill="#63b8ff" stroke="#63b8ff" points="1140.95,-148.19 1150.83,-144.38 1140.73,-141.19 1140.95,-148.19"/>
</a>
</g>
</g>
<!-- Node9 -->
<g id="Node000009" class="node">
<title>Node9</title>
<g id="a_Node000009"><a xlink:href="namespaceUIWidgets.html#a707b643070c52c19ea01918db52526f3" target="_top" xlink:title=" ">
<polygon fill="white" stroke="#666666" points="1115,-132 967,-132 967,-113 1115,-113 1115,-132"/>
<text text-anchor="middle" x="1041" y="-120" font-family="Helvetica,sans-Serif" font-size="10.00">UIWidgets::CVarSliderFloat</text>
</a>
</g>
</g>
<!-- Node8&#45;&gt;Node9 -->
<g id="edge11_Node000008_Node000009" class="edge">
<title>Node8&#45;&gt;Node9</title>
<g id="a_edge11_Node000008_Node000009"><a xlink:title=" ">
<path fill="none" stroke="#63b8ff" d="M1141,-133.53C1132.43,-132.58 1123.67,-131.6 1115.08,-130.64"/>
<polygon fill="#63b8ff" stroke="#63b8ff" points="1140.62,-137.01 1150.95,-134.64 1141.39,-130.05 1140.62,-137.01"/>
</a>
</g>
</g>
<!-- Node9&#45;&gt;Node6 -->
<g id="edge12_Node000009_Node000006" class="edge">
<title>Node9&#45;&gt;Node6</title>
<g id="a_edge12_Node000009_Node000006"><a xlink:title=" ">
<path fill="none" stroke="#63b8ff" d="M956.49,-122.5C948.03,-122.5 939.47,-122.5 931.11,-122.5"/>
<polygon fill="#63b8ff" stroke="#63b8ff" points="956.75,-126 966.75,-122.5 956.75,-119 956.75,-126"/>
</a>
</g>
</g>
<!-- Node10&#45;&gt;Node6 -->
<g id="edge17_Node000010_Node000006" class="edge">
<title>Node10&#45;&gt;Node6</title>
<g id="a_edge17_Node000010_Node000006"><a xlink:title=" ">
<path fill="none" stroke="#63b8ff" d="M1146.54,-88.45C1097.04,-91.75 1027.64,-97.13 967,-104.5 948.1,-106.8 927.5,-109.96 909.23,-112.99"/>
<polygon fill="#63b8ff" stroke="#63b8ff" points="1147.05,-91.92 1156.8,-87.77 1146.59,-84.94 1147.05,-91.92"/>
</a>
</g>
</g>
<!-- Node11 -->
<g id="Node000011" class="node">
<title>Node11</title>
<g id="a_Node000011"><a xlink:href="namespaceUIWidgets.html#aaddc51b941be51b819be66b4c62ebc5d" target="_top" xlink:title=" ">
<polygon fill="white" stroke="#666666" points="1109,-56 973,-56 973,-37 1109,-37 1109,-56"/>
<text text-anchor="middle" x="1041" y="-44" font-family="Helvetica,sans-Serif" font-size="10.00">UIWidgets::CVarSliderInt</text>
</a>
</g>
</g>
<!-- Node10&#45;&gt;Node11 -->
<g id="edge15_Node000010_Node000011" class="edge">
<title>Node10&#45;&gt;Node11</title>
<g id="a_edge15_Node000010_Node000011"><a xlink:title=" ">
<path fill="none" stroke="#63b8ff" d="M1159.45,-72.68C1135.41,-67.32 1107.37,-61.07 1084.71,-56.02"/>
<polygon fill="#63b8ff" stroke="#63b8ff" points="1158.95,-76.15 1169.48,-74.91 1160.48,-69.32 1158.95,-76.15"/>
</a>
</g>
</g>
<!-- Node11&#45;&gt;Node6 -->
<g id="edge16_Node000011_Node000006" class="edge">
<title>Node11&#45;&gt;Node6</title>
<g id="a_edge16_Node000011_Node000006"><a xlink:title=" ">
<path fill="none" stroke="#63b8ff" d="M998.41,-59.21C988.06,-62.64 977.05,-66.51 967,-70.5 933.77,-83.69 896.35,-101.96 874.55,-112.97"/>
<polygon fill="#63b8ff" stroke="#63b8ff" points="999.65,-62.49 1008.08,-56.07 997.49,-55.83 999.65,-62.49"/>
</a>
</g>
</g>
<!-- Node12&#45;&gt;Node6 -->
<g id="edge19_Node000012_Node000006" class="edge">
<title>Node12&#45;&gt;Node6</title>
<g id="a_edge19_Node000012_Node000006"><a xlink:title=" ">
<path fill="none" stroke="#63b8ff" d="M978.69,-22.33C974.66,-23.87 970.72,-25.59 967,-27.5 923.01,-50.11 881.63,-93.4 864.41,-112.74"/>
<polygon fill="#63b8ff" stroke="#63b8ff" points="979.92,-25.61 988.24,-19.05 977.65,-18.99 979.92,-25.61"/>
</a>
</g>
</g>
</g>
</svg>
