<?xml version="1.0" encoding="UTF-8" standalone="no"?>
<!DOCTYPE svg PUBLIC "-//W3C//DTD SVG 1.1//EN"
 "http://www.w3.org/Graphics/SVG/1.1/DTD/svg11.dtd">
<!-- Generated by graphviz version 2.43.0 (0)
 -->
<!-- Title: osPfsChecker Pages: 1 -->
<svg width="1442pt" height="430pt"
 viewBox="0.00 0.00 1442.00 430.15" xmlns="http://www.w3.org/2000/svg" xmlns:xlink="http://www.w3.org/1999/xlink">
<g id="graph0" class="graph" transform="scale(1 1) rotate(0) translate(4 426.15)">
<title>osPfsChecker</title>
<!-- Node1 -->
<g id="Node000001" class="node">
<title>Node1</title>
<g id="a_Node000001"><a xlink:title=" ">
<polygon fill="#999999" stroke="#666666" points="82,-284.09 0,-284.09 0,-265.09 82,-265.09 82,-284.09"/>
<text text-anchor="middle" x="41" y="-272.09" font-family="Helvetica,sans-Serif" font-size="10.00">osPfsChecker</text>
</a>
</g>
</g>
<!-- Node2 -->
<g id="Node000002" class="node">
<title>Node2</title>
<g id="a_Node000002"><a xlink:href="contpfs_8c.html#a8907f8efb366e080f79a7c02dd71b2d8" target="_top" xlink:title=" ">
<polygon fill="white" stroke="#666666" points="327,-170.09 250,-170.09 250,-151.09 327,-151.09 327,-170.09"/>
<text text-anchor="middle" x="288.5" y="-158.09" font-family="Helvetica,sans-Serif" font-size="10.00">__osCheckId</text>
</a>
</g>
</g>
<!-- Node1&#45;&gt;Node2 -->
<g id="edge1_Node000001_Node000002" class="edge">
<title>Node1&#45;&gt;Node2</title>
<g id="a_edge1_Node000001_Node000002"><a xlink:title=" ">
<path fill="none" stroke="#63b8ff" d="M46.94,-264.98C57.27,-246 83.1,-203.88 118,-184.59 155.28,-163.97 203.96,-158.92 239.58,-158.46"/>
<polygon fill="#63b8ff" stroke="#63b8ff" points="239.73,-161.96 249.72,-158.45 239.72,-154.96 239.73,-161.96"/>
</a>
</g>
</g>
<!-- Node3 -->
<g id="Node000003" class="node">
<title>Node3</title>
<g id="a_Node000003"><a xlink:href="contramread_8c.html#a594f9ee5edd6c2fb8070576da1fd06e0" target="_top" xlink:title=" ">
<polygon fill="white" stroke="#666666" points="483,-208.09 375,-208.09 375,-189.09 483,-189.09 483,-208.09"/>
<text text-anchor="middle" x="429" y="-196.09" font-family="Helvetica,sans-Serif" font-size="10.00">__osContRamRead</text>
</a>
</g>
</g>
<!-- Node1&#45;&gt;Node3 -->
<g id="edge35_Node000001_Node000003" class="edge">
<title>Node1&#45;&gt;Node3</title>
<g id="a_edge35_Node000001_Node000003"><a xlink:title=" ">
<path fill="none" stroke="#63b8ff" d="M59.95,-265.08C75.06,-257.44 97.43,-246.97 118,-240.59 200.79,-214.89 300.85,-204.91 364.47,-201.04"/>
<polygon fill="#63b8ff" stroke="#63b8ff" points="364.96,-204.51 374.74,-200.44 364.56,-197.53 364.96,-204.51"/>
</a>
</g>
</g>
<!-- Node25 -->
<g id="Node000025" class="node">
<title>Node25</title>
<g id="a_Node000025"><a xlink:href="contramwrite_8c.html#ac0f1bb81601cedc5fc5868fc7e500b88" target="_top" xlink:title=" ">
<polygon fill="white" stroke="#666666" points="639.5,-322.09 529.5,-322.09 529.5,-303.09 639.5,-303.09 639.5,-322.09"/>
<text text-anchor="middle" x="584.5" y="-310.09" font-family="Helvetica,sans-Serif" font-size="10.00">__osContRamWrite</text>
</a>
</g>
</g>
<!-- Node1&#45;&gt;Node25 -->
<g id="edge36_Node000001_Node000025" class="edge">
<title>Node1&#45;&gt;Node25</title>
<g id="a_edge36_Node000001_Node000025"><a xlink:title=" ">
<path fill="none" stroke="#63b8ff" d="M47.35,-284.27C58.22,-303.06 84.7,-344.62 118,-367.59 164.28,-399.5 182.51,-398.58 238,-407.59 345.71,-425.07 382.01,-432.91 483,-391.59 517.33,-377.54 549.67,-348.17 567.98,-329.46"/>
<polygon fill="#63b8ff" stroke="#63b8ff" points="570.57,-331.83 574.94,-322.18 565.5,-326.99 570.57,-331.83"/>
</a>
</g>
</g>
<!-- Node28 -->
<g id="Node000028" class="node">
<title>Node28</title>
<g id="a_Node000028"><a xlink:href="contpfs_8c.html#aab452241c8ea115165a20157fc64fb9e" target="_top" xlink:title=" ">
<polygon fill="white" stroke="#666666" points="192.5,-358.09 127.5,-358.09 127.5,-339.09 192.5,-339.09 192.5,-358.09"/>
<text text-anchor="middle" x="160" y="-346.09" font-family="Helvetica,sans-Serif" font-size="10.00">__osGetId</text>
</a>
</g>
</g>
<!-- Node1&#45;&gt;Node28 -->
<g id="edge45_Node000001_Node000028" class="edge">
<title>Node1&#45;&gt;Node28</title>
<g id="a_edge45_Node000001_Node000028"><a xlink:title=" ">
<path fill="none" stroke="#63b8ff" d="M53.3,-284.16C67.68,-296.05 93.6,-316.47 118,-330.59 120.38,-331.96 122.88,-333.3 125.43,-334.59"/>
<polygon fill="#63b8ff" stroke="#63b8ff" points="124.18,-337.87 134.71,-338.99 127.17,-331.54 124.18,-337.87"/>
</a>
</g>
</g>
<!-- Node33 -->
<g id="Node000033" class="node">
<title>Node33</title>
<g id="a_Node000033"><a xlink:href="contpfs_8c.html#aa962180453c026d747ebef163e571966" target="_top" xlink:title=" ">
<polygon fill="white" stroke="#666666" points="337,-246.09 240,-246.09 240,-227.09 337,-227.09 337,-246.09"/>
<text text-anchor="middle" x="288.5" y="-234.09" font-family="Helvetica,sans-Serif" font-size="10.00">__osPfsRWInode</text>
</a>
</g>
</g>
<!-- Node1&#45;&gt;Node33 -->
<g id="edge58_Node000001_Node000033" class="edge">
<title>Node1&#45;&gt;Node33</title>
<g id="a_edge58_Node000001_Node000033"><a xlink:title=" ">
<path fill="none" stroke="#63b8ff" d="M78.55,-265.03C91,-262.02 105.05,-258.88 118,-256.59 154.86,-250.07 196.62,-245.11 229.46,-241.77"/>
<polygon fill="#63b8ff" stroke="#63b8ff" points="230.19,-245.21 239.8,-240.74 229.5,-238.25 230.19,-245.21"/>
</a>
</g>
</g>
<!-- Node35 -->
<g id="Node000035" class="node">
<title>Node35</title>
<g id="a_Node000035"><a xlink:href="osPfsChecker_8c.html#a593716f3494df81f212ed3803c1f57a9" target="_top" xlink:title=" ">
<polygon fill="white" stroke="#666666" points="191.5,-321.09 128.5,-321.09 128.5,-302.09 191.5,-302.09 191.5,-321.09"/>
<text text-anchor="middle" x="160" y="-309.09" font-family="Helvetica,sans-Serif" font-size="10.00">corrupted</text>
</a>
</g>
</g>
<!-- Node1&#45;&gt;Node35 -->
<g id="edge62_Node000001_Node000035" class="edge">
<title>Node1&#45;&gt;Node35</title>
<g id="a_edge62_Node000001_Node000035"><a xlink:title=" ">
<path fill="none" stroke="#63b8ff" d="M72.13,-284.12C86.35,-288.61 103.52,-294.04 118.82,-298.88"/>
<polygon fill="#63b8ff" stroke="#63b8ff" points="117.98,-302.28 128.57,-301.96 120.09,-295.61 117.98,-302.28"/>
</a>
</g>
</g>
<!-- Node36 -->
<g id="Node000036" class="node">
<title>Node36</title>
<g id="a_Node000036"><a xlink:href="osPfsChecker_8c.html#a6c47d5b15542679260cfcf6a7c841019" target="_top" xlink:title=" ">
<polygon fill="white" stroke="#666666" points="202,-284.09 118,-284.09 118,-265.09 202,-265.09 202,-284.09"/>
<text text-anchor="middle" x="160" y="-272.09" font-family="Helvetica,sans-Serif" font-size="10.00">corrupted_init</text>
</a>
</g>
</g>
<!-- Node1&#45;&gt;Node36 -->
<g id="edge64_Node000001_Node000036" class="edge">
<title>Node1&#45;&gt;Node36</title>
<g id="a_edge64_Node000001_Node000036"><a xlink:title=" ">
<path fill="none" stroke="#63b8ff" d="M82.26,-274.59C90.44,-274.59 99.15,-274.59 107.65,-274.59"/>
<polygon fill="#63b8ff" stroke="#63b8ff" points="107.87,-278.09 117.87,-274.59 107.87,-271.09 107.87,-278.09"/>
</a>
</g>
</g>
<!-- Node2&#45;&gt;Node3 -->
<g id="edge2_Node000002_Node000003" class="edge">
<title>Node2&#45;&gt;Node3</title>
<g id="a_edge2_Node000002_Node000003"><a xlink:title=" ">
<path fill="none" stroke="#63b8ff" d="M324.45,-170.18C342.33,-175.08 364.29,-181.11 383.38,-186.34"/>
<polygon fill="#63b8ff" stroke="#63b8ff" points="382.49,-189.73 393.06,-189 384.34,-182.98 382.49,-189.73"/>
</a>
</g>
</g>
<!-- Node4 -->
<g id="Node000004" class="node">
<title>Node4</title>
<g id="a_Node000004"><a xlink:href="crc_8c.html#a3da2a6d11716fef869b6be888c9b7263" target="_top" xlink:title=" ">
<polygon fill="white" stroke="#666666" points="802.5,-208.09 702.5,-208.09 702.5,-189.09 802.5,-189.09 802.5,-208.09"/>
<text text-anchor="middle" x="752.5" y="-196.09" font-family="Helvetica,sans-Serif" font-size="10.00">__osContDataCrc</text>
</a>
</g>
</g>
<!-- Node3&#45;&gt;Node4 -->
<g id="edge3_Node000003_Node000004" class="edge">
<title>Node3&#45;&gt;Node4</title>
<g id="a_edge3_Node000003_Node000004"><a xlink:title=" ">
<path fill="none" stroke="#63b8ff" d="M464.36,-208.17C480.76,-212.26 500.74,-216.56 519,-218.59 576.87,-225.01 592.05,-224.24 650,-218.59 667.17,-216.91 685.75,-213.68 702.26,-210.29"/>
<polygon fill="#63b8ff" stroke="#63b8ff" points="703.18,-213.67 712.24,-208.17 701.73,-206.82 703.18,-213.67"/>
</a>
</g>
</g>
<!-- Node5 -->
<g id="Node000005" class="node">
<title>Node5</title>
<g id="a_Node000005"><a xlink:href="contramread_8c.html#acf36d11e540d86585205f35bb0253390" target="_top" xlink:title=" ">
<polygon fill="white" stroke="#666666" points="650,-285.09 519,-285.09 519,-266.09 650,-266.09 650,-285.09"/>
<text text-anchor="middle" x="584.5" y="-273.09" font-family="Helvetica,sans-Serif" font-size="10.00">__osPackRamReadData</text>
</a>
</g>
</g>
<!-- Node3&#45;&gt;Node5 -->
<g id="edge4_Node000003_Node000005" class="edge">
<title>Node3&#45;&gt;Node5</title>
<g id="a_edge4_Node000003_Node000005"><a xlink:title=" ">
<path fill="none" stroke="#63b8ff" d="M454.4,-208.1C463.63,-212.09 474.05,-217.08 483,-222.59 500.5,-233.36 501.14,-241.43 519,-251.59 526.24,-255.7 534.31,-259.36 542.23,-262.49"/>
<polygon fill="#63b8ff" stroke="#63b8ff" points="541.16,-265.83 551.75,-266.06 543.61,-259.27 541.16,-265.83"/>
</a>
</g>
</g>
<!-- Node7 -->
<g id="Node000007" class="node">
<title>Node7</title>
<g id="a_Node000007"><a xlink:href="contramread_8c.html#a1d45a82b9161aa7445ddbc4fba1e0fd1" target="_top" xlink:title=" ">
<polygon fill="white" stroke="#666666" points="635,-209.09 534,-209.09 534,-190.09 635,-190.09 635,-209.09"/>
<text text-anchor="middle" x="584.5" y="-197.09" font-family="Helvetica,sans-Serif" font-size="10.00">__osPfsGetStatus</text>
</a>
</g>
</g>
<!-- Node3&#45;&gt;Node7 -->
<g id="edge6_Node000003_Node000007" class="edge">
<title>Node3&#45;&gt;Node7</title>
<g id="a_edge6_Node000003_Node000007"><a xlink:title=" ">
<path fill="none" stroke="#63b8ff" d="M483.26,-198.93C496.37,-199.02 510.49,-199.11 523.88,-199.2"/>
<polygon fill="#63b8ff" stroke="#63b8ff" points="523.92,-202.7 533.95,-199.26 523.97,-195.7 523.92,-202.7"/>
</a>
</g>
</g>
<!-- Node8 -->
<g id="Node000008" class="node">
<title>Node8</title>
<g id="a_Node000008"><a xlink:href="____osSiCreateAccessQueue_8c.html#ae0373fb01ccb4831c6c9783b23524a07" target="_top" xlink:title=" ">
<polygon fill="white" stroke="#666666" points="801.5,-171.09 703.5,-171.09 703.5,-152.09 801.5,-152.09 801.5,-171.09"/>
<text text-anchor="middle" x="752.5" y="-159.09" font-family="Helvetica,sans-Serif" font-size="10.00">__osSiGetAccess</text>
</a>
</g>
</g>
<!-- Node3&#45;&gt;Node8 -->
<g id="edge7_Node000003_Node000008" class="edge">
<title>Node3&#45;&gt;Node8</title>
<g id="a_edge7_Node000003_Node000008"><a xlink:title=" ">
<path fill="none" stroke="#63b8ff" d="M475.13,-189.03C489.14,-186.32 504.66,-183.57 519,-181.59 578.07,-173.43 646.08,-168.04 693.22,-164.93"/>
<polygon fill="#63b8ff" stroke="#63b8ff" points="693.49,-168.42 703.25,-164.29 693.04,-161.44 693.49,-168.42"/>
</a>
</g>
</g>
<!-- Node19 -->
<g id="Node000019" class="node">
<title>Node19</title>
<g id="a_Node000019"><a xlink:href="osRecvMesg_8c.html#aa254dc33e373f235a99e17f7717493dc" target="_top" xlink:title=" ">
<polygon fill="white" stroke="#666666" points="1134,-153.09 1056,-153.09 1056,-134.09 1134,-134.09 1134,-153.09"/>
<text text-anchor="middle" x="1095" y="-141.09" font-family="Helvetica,sans-Serif" font-size="10.00">osRecvMesg</text>
</a>
</g>
</g>
<!-- Node3&#45;&gt;Node19 -->
<g id="edge34_Node000003_Node000019" class="edge">
<title>Node3&#45;&gt;Node19</title>
<g id="a_edge34_Node000003_Node000019"><a xlink:title=" ">
<path fill="none" stroke="#63b8ff" d="M459.93,-189.09C467.52,-186.5 475.61,-183.58 483,-180.59 499.4,-173.95 502.01,-168.53 519,-163.59 707.51,-108.74 945.49,-126.32 1045.86,-137.45"/>
<polygon fill="#63b8ff" stroke="#63b8ff" points="1045.66,-140.95 1056,-138.6 1046.46,-133.99 1045.66,-140.95"/>
</a>
</g>
</g>
<!-- Node20 -->
<g id="Node000020" class="node">
<title>Node20</title>
<g id="a_Node000020"><a xlink:href="____osSiRawStartDma_8c.html#a469384eba4ccec319dbec8745f22bd2f" target="_top" xlink:title=" ">
<polygon fill="white" stroke="#666666" points="810,-396.09 695,-396.09 695,-377.09 810,-377.09 810,-396.09"/>
<text text-anchor="middle" x="752.5" y="-384.09" font-family="Helvetica,sans-Serif" font-size="10.00">__osSiRawStartDma</text>
</a>
</g>
</g>
<!-- Node3&#45;&gt;Node20 -->
<g id="edge28_Node000003_Node000020" class="edge">
<title>Node3&#45;&gt;Node20</title>
<g id="a_edge28_Node000003_Node000020"><a xlink:title=" ">
<path fill="none" stroke="#63b8ff" d="M440.35,-208.1C451.81,-219.01 470.33,-237.82 483,-256.59 503.69,-287.23 490.2,-308.4 519,-331.59 565.85,-369.3 634.23,-381.94 684.71,-385.81"/>
<polygon fill="#63b8ff" stroke="#63b8ff" points="684.66,-389.31 694.87,-386.49 685.13,-382.33 684.66,-389.31"/>
</a>
</g>
</g>
<!-- Node24 -->
<g id="Node000024" class="node">
<title>Node24</title>
<g id="a_Node000024"><a xlink:href="____osSiCreateAccessQueue_8c.html#aa6dbd69637149484f5fad08232892b50" target="_top" xlink:title=" ">
<polygon fill="white" stroke="#666666" points="801,-95.09 704,-95.09 704,-76.09 801,-76.09 801,-95.09"/>
<text text-anchor="middle" x="752.5" y="-83.09" font-family="Helvetica,sans-Serif" font-size="10.00">__osSiRelAccess</text>
</a>
</g>
</g>
<!-- Node3&#45;&gt;Node24 -->
<g id="edge32_Node000003_Node000024" class="edge">
<title>Node3&#45;&gt;Node24</title>
<g id="a_edge32_Node000003_Node000024"><a xlink:title=" ">
<path fill="none" stroke="#63b8ff" d="M469.52,-189.07C474.39,-186.81 479.04,-184.03 483,-180.59 509.73,-157.41 489.84,-129.63 519,-109.59 570.15,-74.43 643.18,-72.72 693.68,-77.03"/>
<polygon fill="#63b8ff" stroke="#63b8ff" points="693.5,-80.53 703.79,-78 694.17,-73.56 693.5,-80.53"/>
</a>
</g>
</g>
<!-- Node6 -->
<g id="Node000006" class="node">
<title>Node6</title>
<g id="a_Node000006"><a xlink:href="crc_8c.html#a5ab8a1ce418d27ff12d648c447c8ab6e" target="_top" xlink:title=" ">
<polygon fill="white" stroke="#666666" points="985.5,-321.09 869.5,-321.09 869.5,-302.09 985.5,-302.09 985.5,-321.09"/>
<text text-anchor="middle" x="927.5" y="-309.09" font-family="Helvetica,sans-Serif" font-size="10.00">__osContAddressCrc</text>
</a>
</g>
</g>
<!-- Node5&#45;&gt;Node6 -->
<g id="edge5_Node000005_Node000006" class="edge">
<title>Node5&#45;&gt;Node6</title>
<g id="a_edge5_Node000005_Node000006"><a xlink:title=" ">
<path fill="none" stroke="#63b8ff" d="M650.05,-279.52C697.01,-282.71 762.06,-287.78 819,-294.59 832.74,-296.23 847.41,-298.32 861.36,-300.48"/>
<polygon fill="#63b8ff" stroke="#63b8ff" points="860.95,-303.95 871.37,-302.05 862.04,-297.04 860.95,-303.95"/>
</a>
</g>
</g>
<!-- Node9 -->
<g id="Node000009" class="node">
<title>Node9</title>
<g id="a_Node000009"><a xlink:href="____osSiCreateAccessQueue_8c.html#a7520cad725d80a88735d29f75a3de94a" target="_top" xlink:title=" ">
<polygon fill="white" stroke="#666666" points="1000,-95.09 855,-95.09 855,-76.09 1000,-76.09 1000,-95.09"/>
<text text-anchor="middle" x="927.5" y="-83.09" font-family="Helvetica,sans-Serif" font-size="10.00">__osSiCreateAccessQueue</text>
</a>
</g>
</g>
<!-- Node8&#45;&gt;Node9 -->
<g id="edge8_Node000008_Node000009" class="edge">
<title>Node8&#45;&gt;Node9</title>
<g id="a_edge8_Node000008_Node000009"><a xlink:title=" ">
<path fill="none" stroke="#63b8ff" d="M775.41,-151.96C805.83,-138.6 861,-114.36 895.59,-99.16"/>
<polygon fill="#63b8ff" stroke="#63b8ff" points="897.02,-102.36 904.77,-95.13 894.2,-95.95 897.02,-102.36"/>
</a>
</g>
</g>
<!-- Node8&#45;&gt;Node19 -->
<g id="edge22_Node000008_Node000019" class="edge">
<title>Node8&#45;&gt;Node19</title>
<g id="a_edge22_Node000008_Node000019"><a xlink:title=" ">
<path fill="none" stroke="#63b8ff" d="M801.56,-159.05C866.16,-155.63 980.36,-149.59 1045.29,-146.16"/>
<polygon fill="#63b8ff" stroke="#63b8ff" points="1045.86,-149.64 1055.66,-145.61 1045.49,-142.65 1045.86,-149.64"/>
</a>
</g>
</g>
<!-- Node10 -->
<g id="Node000010" class="node">
<title>Node10</title>
<g id="a_Node000010"><a xlink:href="osCreateMesgQueue_8c.html#aab783cab54141cb60618b45f534104b9" target="_top" xlink:title=" ">
<polygon fill="white" stroke="#666666" points="1154,-105.09 1036,-105.09 1036,-86.09 1154,-86.09 1154,-105.09"/>
<text text-anchor="middle" x="1095" y="-93.09" font-family="Helvetica,sans-Serif" font-size="10.00">osCreateMesgQueue</text>
</a>
</g>
</g>
<!-- Node9&#45;&gt;Node10 -->
<g id="edge9_Node000009_Node000010" class="edge">
<title>Node9&#45;&gt;Node10</title>
<g id="a_edge9_Node000009_Node000010"><a xlink:title=" ">
<path fill="none" stroke="#63b8ff" d="M1000.13,-89.92C1008.64,-90.43 1017.31,-90.95 1025.76,-91.46"/>
<polygon fill="#63b8ff" stroke="#63b8ff" points="1025.76,-94.97 1035.96,-92.08 1026.18,-87.98 1025.76,-94.97"/>
</a>
</g>
</g>
<!-- Node11 -->
<g id="Node000011" class="node">
<title>Node11</title>
<g id="a_Node000011"><a xlink:href="osSendMesg_8c.html#a413bd1b0a16c54dcc9e59c48b3d7f142" target="_top" xlink:title=" ">
<polygon fill="white" stroke="#666666" points="1134,-68.09 1056,-68.09 1056,-49.09 1134,-49.09 1134,-68.09"/>
<text text-anchor="middle" x="1095" y="-56.09" font-family="Helvetica,sans-Serif" font-size="10.00">osSendMesg</text>
</a>
</g>
</g>
<!-- Node9&#45;&gt;Node11 -->
<g id="edge10_Node000009_Node000011" class="edge">
<title>Node9&#45;&gt;Node11</title>
<g id="a_edge10_Node000009_Node000011"><a xlink:title=" ">
<path fill="none" stroke="#63b8ff" d="M986.85,-76.07C1006.17,-72.92 1027.43,-69.45 1045.89,-66.44"/>
<polygon fill="#63b8ff" stroke="#63b8ff" points="1046.52,-69.88 1055.82,-64.82 1045.39,-62.97 1046.52,-69.88"/>
</a>
</g>
</g>
<!-- Node12 -->
<g id="Node000012" class="node">
<title>Node12</title>
<g id="a_Node000012"><a xlink:href="libultra__internal_8h.html#a8ad9db8aa6bfc4437abdd0363b663b16" target="_top" xlink:title=" ">
<polygon fill="white" stroke="#666666" points="1416.5,-258.09 1328.5,-258.09 1328.5,-239.09 1416.5,-239.09 1416.5,-258.09"/>
<text text-anchor="middle" x="1372.5" y="-246.09" font-family="Helvetica,sans-Serif" font-size="10.00">__osDisableInt</text>
</a>
</g>
</g>
<!-- Node11&#45;&gt;Node12 -->
<g id="edge11_Node000011_Node000012" class="edge">
<title>Node11&#45;&gt;Node12</title>
<g id="a_edge11_Node000011_Node000012"><a xlink:title=" ">
<path fill="none" stroke="#63b8ff" d="M1134.04,-64.85C1141.36,-67.49 1148.45,-71.25 1154,-76.59 1188.64,-109.92 1156.5,-144.11 1190,-178.59 1224.28,-213.87 1278.31,-231.66 1318.51,-240.45"/>
<polygon fill="#63b8ff" stroke="#63b8ff" points="1317.92,-243.9 1328.42,-242.49 1319.33,-237.04 1317.92,-243.9"/>
</a>
</g>
</g>
<!-- Node13 -->
<g id="Node000013" class="node">
<title>Node13</title>
<g id="a_Node000013"><a xlink:href="libultra__internal_8h.html#afe9c3abc4ca93d9fe18a87d9f108d5cb" target="_top" xlink:title=" ">
<polygon fill="white" stroke="#666666" points="1434,-200.09 1311,-200.09 1311,-181.09 1434,-181.09 1434,-200.09"/>
<text text-anchor="middle" x="1372.5" y="-188.09" font-family="Helvetica,sans-Serif" font-size="10.00">__osEnqueueAndYield</text>
</a>
</g>
</g>
<!-- Node11&#45;&gt;Node13 -->
<g id="edge12_Node000011_Node000013" class="edge">
<title>Node11&#45;&gt;Node13</title>
<g id="a_edge12_Node000011_Node000013"><a xlink:title=" ">
<path fill="none" stroke="#63b8ff" d="M1134.23,-65.52C1141.37,-68.11 1148.35,-71.68 1154,-76.59 1182.23,-101.08 1160.64,-129.45 1190,-152.59 1207.24,-166.18 1257.62,-176.07 1300.94,-182.35"/>
<polygon fill="#63b8ff" stroke="#63b8ff" points="1300.53,-185.83 1310.92,-183.75 1301.5,-178.89 1300.53,-185.83"/>
</a>
</g>
</g>
<!-- Node14 -->
<g id="Node000014" class="node">
<title>Node14</title>
<g id="a_Node000014"><a xlink:href="libultra__internal_8h.html#aaadded63bebce6cfdda5ecda193fc9ea" target="_top" xlink:title=" ">
<polygon fill="white" stroke="#666666" points="1417.5,-30.09 1327.5,-30.09 1327.5,-11.09 1417.5,-11.09 1417.5,-30.09"/>
<text text-anchor="middle" x="1372.5" y="-18.09" font-family="Helvetica,sans-Serif" font-size="10.00">__osPopThread</text>
</a>
</g>
</g>
<!-- Node11&#45;&gt;Node14 -->
<g id="edge13_Node000011_Node000014" class="edge">
<title>Node11&#45;&gt;Node14</title>
<g id="a_edge13_Node000011_Node000014"><a xlink:title=" ">
<path fill="none" stroke="#63b8ff" d="M1108.49,-48.93C1125.71,-36.29 1158.22,-14.79 1190,-6.59 1235.17,5.07 1288.6,-1.37 1325.74,-8.91"/>
<polygon fill="#63b8ff" stroke="#63b8ff" points="1325.25,-12.39 1335.77,-11.06 1326.72,-5.54 1325.25,-12.39"/>
</a>
</g>
</g>
<!-- Node15 -->
<g id="Node000015" class="node">
<title>Node15</title>
<g id="a_Node000015"><a xlink:href="libultra__internal_8h.html#aecafa57b85fd739d6033705808194def" target="_top" xlink:title=" ">
<polygon fill="white" stroke="#666666" points="1417,-89.09 1328,-89.09 1328,-70.09 1417,-70.09 1417,-89.09"/>
<text text-anchor="middle" x="1372.5" y="-77.09" font-family="Helvetica,sans-Serif" font-size="10.00">__osRestoreInt</text>
</a>
</g>
</g>
<!-- Node11&#45;&gt;Node15 -->
<g id="edge14_Node000011_Node000015" class="edge">
<title>Node11&#45;&gt;Node15</title>
<g id="a_edge14_Node000011_Node000015"><a xlink:title=" ">
<path fill="none" stroke="#63b8ff" d="M1134.02,-61.49C1181.72,-65.12 1263.82,-71.38 1317.89,-75.5"/>
<polygon fill="#63b8ff" stroke="#63b8ff" points="1317.74,-79 1327.97,-76.27 1318.27,-72.02 1317.74,-79"/>
</a>
</g>
</g>
<!-- Node16 -->
<g id="Node000016" class="node">
<title>Node16</title>
<g id="a_Node000016"><a xlink:href="osStartThread_8c.html#a3b144e814933e16a2fbf2642ad098ed3" target="_top" xlink:title=" ">
<polygon fill="white" stroke="#666666" points="1275,-144.09 1190,-144.09 1190,-125.09 1275,-125.09 1275,-144.09"/>
<text text-anchor="middle" x="1232.5" y="-132.09" font-family="Helvetica,sans-Serif" font-size="10.00">osStartThread</text>
</a>
</g>
</g>
<!-- Node11&#45;&gt;Node16 -->
<g id="edge15_Node000011_Node000016" class="edge">
<title>Node11&#45;&gt;Node16</title>
<g id="a_edge15_Node000011_Node000016"><a xlink:title=" ">
<path fill="none" stroke="#63b8ff" d="M1133.56,-68.18C1140.53,-70.53 1147.61,-73.33 1154,-76.59 1176.03,-87.82 1198.33,-105.3 1213.32,-118.14"/>
<polygon fill="#63b8ff" stroke="#63b8ff" points="1211.42,-121.12 1221.24,-125.07 1216.03,-115.85 1211.42,-121.12"/>
</a>
</g>
</g>
<!-- Node16&#45;&gt;Node12 -->
<g id="edge16_Node000016_Node000012" class="edge">
<title>Node16&#45;&gt;Node12</title>
<g id="a_edge16_Node000016_Node000012"><a xlink:title=" ">
<path fill="none" stroke="#63b8ff" d="M1242.49,-144.46C1256.4,-159.43 1284.31,-188.4 1311,-209.59 1321.94,-218.27 1334.85,-226.8 1345.93,-233.66"/>
<polygon fill="#63b8ff" stroke="#63b8ff" points="1344.36,-236.8 1354.73,-238.99 1347.99,-230.81 1344.36,-236.8"/>
</a>
</g>
</g>
<!-- Node16&#45;&gt;Node13 -->
<g id="edge18_Node000016_Node000013" class="edge">
<title>Node16&#45;&gt;Node13</title>
<g id="a_edge18_Node000016_Node000013"><a xlink:title=" ">
<path fill="none" stroke="#63b8ff" d="M1250.98,-144.2C1266.44,-152.46 1289.78,-164.3 1311,-172.59 1315.79,-174.46 1320.86,-176.25 1325.94,-177.93"/>
<polygon fill="#63b8ff" stroke="#63b8ff" points="1325.07,-181.32 1335.65,-181 1327.18,-174.65 1325.07,-181.32"/>
</a>
</g>
</g>
<!-- Node16&#45;&gt;Node14 -->
<g id="edge20_Node000016_Node000014" class="edge">
<title>Node16&#45;&gt;Node14</title>
<g id="a_edge20_Node000016_Node000014"><a xlink:title=" ">
<path fill="none" stroke="#63b8ff" d="M1242.55,-124.9C1256.53,-110.19 1284.53,-81.7 1311,-60.59 1322.26,-51.6 1335.54,-42.66 1346.79,-35.52"/>
<polygon fill="#63b8ff" stroke="#63b8ff" points="1348.66,-38.47 1355.29,-30.21 1344.96,-32.53 1348.66,-38.47"/>
</a>
</g>
</g>
<!-- Node16&#45;&gt;Node15 -->
<g id="edge21_Node000016_Node000015" class="edge">
<title>Node16&#45;&gt;Node15</title>
<g id="a_edge21_Node000016_Node000015"><a xlink:title=" ">
<path fill="none" stroke="#63b8ff" d="M1251.62,-124.94C1267.11,-116.94 1290.13,-105.62 1311,-97.59 1315.86,-95.72 1321,-93.92 1326.15,-92.24"/>
<polygon fill="#63b8ff" stroke="#63b8ff" points="1327.51,-95.48 1336,-89.14 1325.41,-88.8 1327.51,-95.48"/>
</a>
</g>
</g>
<!-- Node17 -->
<g id="Node000017" class="node">
<title>Node17</title>
<g id="a_Node000017"><a xlink:href="libultra__internal_8h.html#a650b788ebd5efde9c8cbccc1ee832445" target="_top" xlink:title=" ">
<polygon fill="white" stroke="#666666" points="1430,-163.09 1315,-163.09 1315,-144.09 1430,-144.09 1430,-163.09"/>
<text text-anchor="middle" x="1372.5" y="-151.09" font-family="Helvetica,sans-Serif" font-size="10.00">__osDispatchThread</text>
</a>
</g>
</g>
<!-- Node16&#45;&gt;Node17 -->
<g id="edge17_Node000016_Node000017" class="edge">
<title>Node16&#45;&gt;Node17</title>
<g id="a_edge17_Node000016_Node000017"><a xlink:title=" ">
<path fill="none" stroke="#63b8ff" d="M1275.28,-140.34C1284.62,-141.63 1294.75,-143.02 1304.82,-144.41"/>
<polygon fill="#63b8ff" stroke="#63b8ff" points="1304.45,-147.89 1314.84,-145.79 1305.41,-140.95 1304.45,-147.89"/>
</a>
</g>
</g>
<!-- Node18 -->
<g id="Node000018" class="node">
<title>Node18</title>
<g id="a_Node000018"><a xlink:href="libultra__internal_8h.html#ac9d6cfd19de5565e74f1d74a14e9092d" target="_top" xlink:title=" ">
<polygon fill="white" stroke="#666666" points="1429.5,-126.09 1315.5,-126.09 1315.5,-107.09 1429.5,-107.09 1429.5,-126.09"/>
<text text-anchor="middle" x="1372.5" y="-114.09" font-family="Helvetica,sans-Serif" font-size="10.00">__osEnqueueThread</text>
</a>
</g>
</g>
<!-- Node16&#45;&gt;Node18 -->
<g id="edge19_Node000016_Node000018" class="edge">
<title>Node16&#45;&gt;Node18</title>
<g id="a_edge19_Node000016_Node000018"><a xlink:title=" ">
<path fill="none" stroke="#63b8ff" d="M1275.28,-129.14C1284.74,-127.9 1295.01,-126.56 1305.21,-125.23"/>
<polygon fill="#63b8ff" stroke="#63b8ff" points="1305.88,-128.68 1315.34,-123.91 1304.97,-121.74 1305.88,-128.68"/>
</a>
</g>
</g>
<!-- Node19&#45;&gt;Node12 -->
<g id="edge23_Node000019_Node000012" class="edge">
<title>Node19&#45;&gt;Node12</title>
<g id="a_edge23_Node000019_Node000012"><a xlink:title=" ">
<path fill="none" stroke="#63b8ff" d="M1100.08,-153.42C1110.67,-177.51 1141.66,-239.17 1190,-262.59 1237,-285.35 1298.94,-272.9 1336.95,-261.21"/>
<polygon fill="#63b8ff" stroke="#63b8ff" points="1338.1,-264.51 1346.55,-258.11 1335.95,-257.85 1338.1,-264.51"/>
</a>
</g>
</g>
<!-- Node19&#45;&gt;Node13 -->
<g id="edge24_Node000019_Node000013" class="edge">
<title>Node19&#45;&gt;Node13</title>
<g id="a_edge24_Node000019_Node000013"><a xlink:title=" ">
<path fill="none" stroke="#63b8ff" d="M1111.59,-153.14C1129.69,-163.63 1160.79,-179.89 1190,-186.59 1225.77,-194.8 1266.56,-196.36 1300.39,-195.63"/>
<polygon fill="#63b8ff" stroke="#63b8ff" points="1300.76,-199.13 1310.66,-195.34 1300.56,-192.13 1300.76,-199.13"/>
</a>
</g>
</g>
<!-- Node19&#45;&gt;Node14 -->
<g id="edge25_Node000019_Node000014" class="edge">
<title>Node19&#45;&gt;Node14</title>
<g id="a_edge25_Node000019_Node000014"><a xlink:title=" ">
<path fill="none" stroke="#63b8ff" d="M1114.88,-134C1126.26,-128.18 1141.01,-120.55 1154,-113.59 1170.13,-104.94 1173.48,-101.46 1190,-93.59 1239.18,-70.15 1298,-47.42 1335.06,-33.71"/>
<polygon fill="#63b8ff" stroke="#63b8ff" points="1336.73,-36.83 1344.91,-30.1 1334.31,-30.26 1336.73,-36.83"/>
</a>
</g>
</g>
<!-- Node19&#45;&gt;Node15 -->
<g id="edge26_Node000019_Node000015" class="edge">
<title>Node19&#45;&gt;Node15</title>
<g id="a_edge26_Node000019_Node000015"><a xlink:title=" ">
<path fill="none" stroke="#63b8ff" d="M1125.44,-134.05C1143.87,-128.26 1168.18,-120.99 1190,-115.59 1232.76,-105 1281.78,-95.43 1318.09,-88.82"/>
<polygon fill="#63b8ff" stroke="#63b8ff" points="1318.75,-92.26 1327.97,-87.04 1317.51,-85.37 1318.75,-92.26"/>
</a>
</g>
</g>
<!-- Node19&#45;&gt;Node16 -->
<g id="edge27_Node000019_Node000016" class="edge">
<title>Node19&#45;&gt;Node16</title>
<g id="a_edge27_Node000019_Node000016"><a xlink:title=" ">
<path fill="none" stroke="#63b8ff" d="M1134.1,-141.06C1148.22,-140.12 1164.48,-139.04 1179.62,-138.03"/>
<polygon fill="#63b8ff" stroke="#63b8ff" points="1180.14,-141.51 1189.88,-137.35 1179.67,-134.52 1180.14,-141.51"/>
</a>
</g>
</g>
<!-- Node21 -->
<g id="Node000021" class="node">
<title>Node21</title>
<g id="a_Node000021"><a xlink:href="____osSiDeviceBusy_8c.html#ad812ec86e9d0b5929797407de1b3ecbc" target="_top" xlink:title=" ">
<polygon fill="white" stroke="#666666" points="980,-377.09 875,-377.09 875,-358.09 980,-358.09 980,-377.09"/>
<text text-anchor="middle" x="927.5" y="-365.09" font-family="Helvetica,sans-Serif" font-size="10.00">__osSiDeviceBusy</text>
</a>
</g>
</g>
<!-- Node20&#45;&gt;Node21 -->
<g id="edge29_Node000020_Node000021" class="edge">
<title>Node20&#45;&gt;Node21</title>
<g id="a_edge29_Node000020_Node000021"><a xlink:title=" ">
<path fill="none" stroke="#63b8ff" d="M810.15,-380.37C827.61,-378.45 846.92,-376.33 864.72,-374.37"/>
<polygon fill="#63b8ff" stroke="#63b8ff" points="865.43,-377.82 874.99,-373.24 864.67,-370.86 865.43,-377.82"/>
</a>
</g>
</g>
<!-- Node22 -->
<g id="Node000022" class="node">
<title>Node22</title>
<g id="a_Node000022"><a xlink:href="osVirtualToPhysical_8c.html#a87fb0b956b8effcecdf9585577895570" target="_top" xlink:title=" ">
<polygon fill="white" stroke="#666666" points="983,-414.09 872,-414.09 872,-395.09 983,-395.09 983,-414.09"/>
<text text-anchor="middle" x="927.5" y="-402.09" font-family="Helvetica,sans-Serif" font-size="10.00">osVirtualToPhysical</text>
</a>
</g>
</g>
<!-- Node20&#45;&gt;Node22 -->
<g id="edge30_Node000020_Node000022" class="edge">
<title>Node20&#45;&gt;Node22</title>
<g id="a_edge30_Node000020_Node000022"><a xlink:title=" ">
<path fill="none" stroke="#63b8ff" d="M810.15,-392.48C826.55,-394.19 844.58,-396.06 861.46,-397.82"/>
<polygon fill="#63b8ff" stroke="#63b8ff" points="861.48,-401.34 871.79,-398.9 862.2,-394.38 861.48,-401.34"/>
</a>
</g>
</g>
<!-- Node23 -->
<g id="Node000023" class="node">
<title>Node23</title>
<g id="a_Node000023"><a xlink:href="libultra__internal_8h.html#a4f7c83166c9481713d4b56defd0888c7" target="_top" xlink:title=" ">
<polygon fill="white" stroke="#666666" points="1137,-414.09 1053,-414.09 1053,-395.09 1137,-395.09 1137,-414.09"/>
<text text-anchor="middle" x="1095" y="-402.09" font-family="Helvetica,sans-Serif" font-size="10.00">__osProbeTLB</text>
</a>
</g>
</g>
<!-- Node22&#45;&gt;Node23 -->
<g id="edge31_Node000022_Node000023" class="edge">
<title>Node22&#45;&gt;Node23</title>
<g id="a_edge31_Node000022_Node000023"><a xlink:title=" ">
<path fill="none" stroke="#63b8ff" d="M983.15,-404.59C1002.3,-404.59 1023.72,-404.59 1042.59,-404.59"/>
<polygon fill="#63b8ff" stroke="#63b8ff" points="1042.78,-408.09 1052.78,-404.59 1042.78,-401.09 1042.78,-408.09"/>
</a>
</g>
</g>
<!-- Node24&#45;&gt;Node11 -->
<g id="edge33_Node000024_Node000011" class="edge">
<title>Node24&#45;&gt;Node11</title>
<g id="a_edge33_Node000024_Node000011"><a xlink:title=" ">
<path fill="none" stroke="#63b8ff" d="M796.75,-76C814.68,-72.41 835.75,-68.7 855,-66.59 920.75,-59.38 997.22,-58.04 1045.61,-58.06"/>
<polygon fill="#63b8ff" stroke="#63b8ff" points="1045.78,-61.56 1055.79,-58.09 1045.8,-54.56 1045.78,-61.56"/>
</a>
</g>
</g>
<!-- Node25&#45;&gt;Node4 -->
<g id="edge37_Node000025_Node000004" class="edge">
<title>Node25&#45;&gt;Node4</title>
<g id="a_edge37_Node000025_Node000004"><a xlink:title=" ">
<path fill="none" stroke="#63b8ff" d="M636.17,-302.99C641.15,-300.75 645.87,-297.99 650,-294.59 677.6,-271.82 659.32,-246.42 686,-222.59 690.51,-218.56 695.76,-215.18 701.28,-212.37"/>
<polygon fill="#63b8ff" stroke="#63b8ff" points="703.05,-215.41 710.75,-208.13 700.2,-209.02 703.05,-215.41"/>
</a>
</g>
</g>
<!-- Node25&#45;&gt;Node8 -->
<g id="edge41_Node000025_Node000008" class="edge">
<title>Node25&#45;&gt;Node8</title>
<g id="a_edge41_Node000025_Node000008"><a xlink:title=" ">
<path fill="none" stroke="#63b8ff" d="M638,-303C642.39,-300.75 646.49,-297.98 650,-294.59 688.2,-257.66 647.99,-217.71 686,-180.59 688.53,-178.11 691.37,-175.96 694.4,-174.08"/>
<polygon fill="#63b8ff" stroke="#63b8ff" points="696.07,-177.16 703.38,-169.49 692.88,-170.93 696.07,-177.16"/>
</a>
</g>
</g>
<!-- Node25&#45;&gt;Node19 -->
<g id="edge44_Node000025_Node000019" class="edge">
<title>Node25&#45;&gt;Node19</title>
<g id="a_edge44_Node000025_Node000019"><a xlink:title=" ">
<path fill="none" stroke="#63b8ff" d="M621.09,-303.04C630.52,-300.4 640.67,-297.47 650,-294.59 802.98,-247.27 982.95,-183.54 1058.16,-156.54"/>
<polygon fill="#63b8ff" stroke="#63b8ff" points="1059.42,-159.8 1067.64,-153.13 1057.05,-153.22 1059.42,-159.8"/>
</a>
</g>
</g>
<!-- Node25&#45;&gt;Node20 -->
<g id="edge42_Node000025_Node000020" class="edge">
<title>Node25&#45;&gt;Node20</title>
<g id="a_edge42_Node000025_Node000020"><a xlink:title=" ">
<path fill="none" stroke="#63b8ff" d="M599.93,-322.09C618.96,-334.29 653.83,-355.43 686,-368.59 690.79,-370.55 695.86,-372.36 700.98,-374.03"/>
<polygon fill="#63b8ff" stroke="#63b8ff" points="700.22,-377.46 710.81,-377.04 702.27,-370.76 700.22,-377.46"/>
</a>
</g>
</g>
<!-- Node25&#45;&gt;Node24 -->
<g id="edge43_Node000025_Node000024" class="edge">
<title>Node25&#45;&gt;Node24</title>
<g id="a_edge43_Node000025_Node000024"><a xlink:title=" ">
<path fill="none" stroke="#63b8ff" d="M638.89,-302.93C642.99,-300.68 646.78,-297.94 650,-294.59 698.11,-244.54 650.09,-202 686,-142.59 696.27,-125.6 713.3,-111.01 727.42,-100.84"/>
<polygon fill="#63b8ff" stroke="#63b8ff" points="729.51,-103.66 735.75,-95.1 725.53,-97.89 729.51,-103.66"/>
</a>
</g>
</g>
<!-- Node26 -->
<g id="Node000026" class="node">
<title>Node26</title>
<g id="a_Node000026"><a xlink:href="contramwrite_8c.html#a5a8e6638b28caf3b5faba67df76d099c" target="_top" xlink:title=" ">
<polygon fill="white" stroke="#666666" points="819,-359.09 686,-359.09 686,-340.09 819,-340.09 819,-359.09"/>
<text text-anchor="middle" x="752.5" y="-347.09" font-family="Helvetica,sans-Serif" font-size="10.00">__osPackRamWriteData</text>
</a>
</g>
</g>
<!-- Node25&#45;&gt;Node26 -->
<g id="edge38_Node000025_Node000026" class="edge">
<title>Node25&#45;&gt;Node26</title>
<g id="a_edge38_Node000025_Node000026"><a xlink:title=" ">
<path fill="none" stroke="#63b8ff" d="M628.25,-322.12C649.76,-326.91 676.02,-332.76 698.77,-337.83"/>
<polygon fill="#63b8ff" stroke="#63b8ff" points="698.09,-341.27 708.61,-340.03 699.61,-334.44 698.09,-341.27"/>
</a>
</g>
</g>
<!-- Node27 -->
<g id="Node000027" class="node">
<title>Node27</title>
<g id="a_Node000027"><a xlink:href="contramwrite_8c.html#a1d45a82b9161aa7445ddbc4fba1e0fd1" target="_top" xlink:title=" ">
<polygon fill="white" stroke="#666666" points="803,-322.09 702,-322.09 702,-303.09 803,-303.09 803,-322.09"/>
<text text-anchor="middle" x="752.5" y="-310.09" font-family="Helvetica,sans-Serif" font-size="10.00">__osPfsGetStatus</text>
</a>
</g>
</g>
<!-- Node25&#45;&gt;Node27 -->
<g id="edge40_Node000025_Node000027" class="edge">
<title>Node25&#45;&gt;Node27</title>
<g id="a_edge40_Node000025_Node000027"><a xlink:title=" ">
<path fill="none" stroke="#63b8ff" d="M639.85,-312.59C656.38,-312.59 674.63,-312.59 691.5,-312.59"/>
<polygon fill="#63b8ff" stroke="#63b8ff" points="691.8,-316.09 701.8,-312.59 691.8,-309.09 691.8,-316.09"/>
</a>
</g>
</g>
<!-- Node26&#45;&gt;Node6 -->
<g id="edge39_Node000026_Node000006" class="edge">
<title>Node26&#45;&gt;Node6</title>
<g id="a_edge39_Node000026_Node000006"><a xlink:title=" ">
<path fill="none" stroke="#63b8ff" d="M797.16,-340C820.29,-334.92 848.9,-328.63 873.33,-323.27"/>
<polygon fill="#63b8ff" stroke="#63b8ff" points="874.14,-326.67 883.16,-321.11 872.64,-319.83 874.14,-326.67"/>
</a>
</g>
</g>
<!-- Node28&#45;&gt;Node3 -->
<g id="edge50_Node000028_Node000003" class="edge">
<title>Node28&#45;&gt;Node3</title>
<g id="a_edge50_Node000028_Node000003"><a xlink:title=" ">
<path fill="none" stroke="#63b8ff" d="M186.93,-338.95C192.11,-336.55 197.38,-333.75 202,-330.59 220.68,-317.82 219.04,-306.93 238,-294.59 278.33,-268.34 296.08,-277.34 339,-255.59 363.11,-243.37 388.95,-226.34 406.54,-214.08"/>
<polygon fill="#63b8ff" stroke="#63b8ff" points="408.78,-216.78 414.93,-208.15 404.74,-211.06 408.78,-216.78"/>
</a>
</g>
</g>
<!-- Node29 -->
<g id="Node000029" class="node">
<title>Node29</title>
<g id="a_Node000029"><a xlink:href="contpfs_8c.html#a8bbcf22ecc22c4334a757e19a0815195" target="_top" xlink:title=" ">
<polygon fill="white" stroke="#666666" points="338.5,-398.09 238.5,-398.09 238.5,-379.09 338.5,-379.09 338.5,-398.09"/>
<text text-anchor="middle" x="288.5" y="-386.09" font-family="Helvetica,sans-Serif" font-size="10.00">__osCheckPackId</text>
</a>
</g>
</g>
<!-- Node28&#45;&gt;Node29 -->
<g id="edge46_Node000028_Node000029" class="edge">
<title>Node28&#45;&gt;Node29</title>
<g id="a_edge46_Node000028_Node000029"><a xlink:title=" ">
<path fill="none" stroke="#63b8ff" d="M191.3,-358.17C208.2,-363.51 229.45,-370.23 247.68,-376"/>
<polygon fill="#63b8ff" stroke="#63b8ff" points="246.86,-379.41 257.45,-379.08 248.97,-372.73 246.86,-379.41"/>
</a>
</g>
</g>
<!-- Node30 -->
<g id="Node000030" class="node">
<title>Node30</title>
<g id="a_Node000030"><a xlink:href="contpfs_8c.html#a0f7db56e72f44b8a2e596b0e8a702866" target="_top" xlink:title=" ">
<polygon fill="white" stroke="#666666" points="478.5,-360.09 379.5,-360.09 379.5,-341.09 478.5,-341.09 478.5,-360.09"/>
<text text-anchor="middle" x="429" y="-348.09" font-family="Helvetica,sans-Serif" font-size="10.00">__osIdCheckSum</text>
</a>
</g>
</g>
<!-- Node28&#45;&gt;Node30 -->
<g id="edge51_Node000028_Node000030" class="edge">
<title>Node28&#45;&gt;Node30</title>
<g id="a_edge51_Node000028_Node000030"><a xlink:title=" ">
<path fill="none" stroke="#63b8ff" d="M192.68,-348.82C236.02,-349.15 314.62,-349.74 368.99,-350.15"/>
<polygon fill="#63b8ff" stroke="#63b8ff" points="369.15,-353.65 379.18,-350.22 369.21,-346.65 369.15,-353.65"/>
</a>
</g>
</g>
<!-- Node31 -->
<g id="Node000031" class="node">
<title>Node31</title>
<g id="a_Node000031"><a xlink:href="contpfs_8c.html#aef46f2f348aa04f58019de1b9036fcec" target="_top" xlink:title=" ">
<polygon fill="white" stroke="#666666" points="339,-322.09 238,-322.09 238,-303.09 339,-303.09 339,-322.09"/>
<text text-anchor="middle" x="288.5" y="-310.09" font-family="Helvetica,sans-Serif" font-size="10.00">__osRepairPackId</text>
</a>
</g>
</g>
<!-- Node28&#45;&gt;Node31 -->
<g id="edge52_Node000028_Node000031" class="edge">
<title>Node28&#45;&gt;Node31</title>
<g id="a_edge52_Node000028_Node000031"><a xlink:title=" ">
<path fill="none" stroke="#63b8ff" d="M192.59,-339.6C208.26,-335.14 227.4,-329.69 244.39,-324.86"/>
<polygon fill="#63b8ff" stroke="#63b8ff" points="245.44,-328.2 254.1,-322.09 243.52,-321.46 245.44,-328.2"/>
</a>
</g>
</g>
<!-- Node29&#45;&gt;Node3 -->
<g id="edge47_Node000029_Node000003" class="edge">
<title>Node29&#45;&gt;Node3</title>
<g id="a_edge47_Node000029_Node000003"><a xlink:title=" ">
<path fill="none" stroke="#63b8ff" d="M299.51,-378.75C310.2,-367.89 327.2,-349.55 339,-331.59 359.3,-300.69 354.31,-287.23 375,-256.59 385.2,-241.49 399.18,-226.35 410.23,-215.33"/>
<polygon fill="#63b8ff" stroke="#63b8ff" points="412.93,-217.58 417.65,-208.1 408.05,-212.57 412.93,-217.58"/>
</a>
</g>
</g>
<!-- Node29&#45;&gt;Node25 -->
<g id="edge48_Node000029_Node000025" class="edge">
<title>Node29&#45;&gt;Node25</title>
<g id="a_edge48_Node000029_Node000025"><a xlink:title=" ">
<path fill="none" stroke="#63b8ff" d="M338.73,-389.35C378.53,-388.65 435.54,-384.63 483,-369.59 512.38,-360.28 542.7,-341.61 562.25,-328.17"/>
<polygon fill="#63b8ff" stroke="#63b8ff" points="564.51,-330.85 570.68,-322.23 560.48,-325.13 564.51,-330.85"/>
</a>
</g>
</g>
<!-- Node29&#45;&gt;Node30 -->
<g id="edge49_Node000029_Node000030" class="edge">
<title>Node29&#45;&gt;Node30</title>
<g id="a_edge49_Node000029_Node000030"><a xlink:title=" ">
<path fill="none" stroke="#63b8ff" d="M324.45,-379C342.33,-374.09 364.29,-368.07 383.38,-362.83"/>
<polygon fill="#63b8ff" stroke="#63b8ff" points="384.34,-366.19 393.06,-360.17 382.49,-359.44 384.34,-366.19"/>
</a>
</g>
</g>
<!-- Node31&#45;&gt;Node3 -->
<g id="edge53_Node000031_Node000003" class="edge">
<title>Node31&#45;&gt;Node3</title>
<g id="a_edge53_Node000031_Node000003"><a xlink:title=" ">
<path fill="none" stroke="#63b8ff" d="M313.34,-303.02C321.8,-299.12 331.16,-294.2 339,-288.59 354.84,-277.25 391.4,-238.48 412.41,-215.69"/>
<polygon fill="#63b8ff" stroke="#63b8ff" points="415.19,-217.83 419.37,-208.09 410.03,-213.1 415.19,-217.83"/>
</a>
</g>
</g>
<!-- Node31&#45;&gt;Node25 -->
<g id="edge54_Node000031_Node000025" class="edge">
<title>Node31&#45;&gt;Node25</title>
<g id="a_edge54_Node000031_Node000025"><a xlink:title=" ">
<path fill="none" stroke="#63b8ff" d="M339.04,-312.59C388.54,-312.59 464.89,-312.59 519.07,-312.59"/>
<polygon fill="#63b8ff" stroke="#63b8ff" points="519.26,-316.09 529.26,-312.59 519.26,-309.09 519.26,-316.09"/>
</a>
</g>
</g>
<!-- Node31&#45;&gt;Node30 -->
<g id="edge55_Node000031_Node000030" class="edge">
<title>Node31&#45;&gt;Node30</title>
<g id="a_edge55_Node000031_Node000030"><a xlink:title=" ">
<path fill="none" stroke="#63b8ff" d="M324.45,-322.18C342.33,-327.08 364.29,-333.11 383.38,-338.34"/>
<polygon fill="#63b8ff" stroke="#63b8ff" points="382.49,-341.73 393.06,-341 384.34,-334.98 382.49,-341.73"/>
</a>
</g>
</g>
<!-- Node32 -->
<g id="Node000032" class="node">
<title>Node32</title>
<g id="a_Node000032"><a xlink:href="contpfs_8c.html#a48ae814c96ad6ad40ffceb2ee8cac6b4" target="_top" xlink:title=" ">
<polygon fill="white" stroke="#666666" points="483,-284.09 375,-284.09 375,-265.09 483,-265.09 483,-284.09"/>
<text text-anchor="middle" x="429" y="-272.09" font-family="Helvetica,sans-Serif" font-size="10.00">__osPfsSelectBank</text>
</a>
</g>
</g>
<!-- Node31&#45;&gt;Node32 -->
<g id="edge56_Node000031_Node000032" class="edge">
<title>Node31&#45;&gt;Node32</title>
<g id="a_edge56_Node000031_Node000032"><a xlink:title=" ">
<path fill="none" stroke="#63b8ff" d="M324.45,-303C342.33,-298.09 364.29,-292.07 383.38,-286.83"/>
<polygon fill="#63b8ff" stroke="#63b8ff" points="384.34,-290.19 393.06,-284.17 382.49,-283.44 384.34,-290.19"/>
</a>
</g>
</g>
<!-- Node32&#45;&gt;Node25 -->
<g id="edge57_Node000032_Node000025" class="edge">
<title>Node32&#45;&gt;Node25</title>
<g id="a_edge57_Node000032_Node000025"><a xlink:title=" ">
<path fill="none" stroke="#63b8ff" d="M468.73,-284.18C488.9,-289.17 513.75,-295.32 535.16,-300.62"/>
<polygon fill="#63b8ff" stroke="#63b8ff" points="534.5,-304.06 545.04,-303.07 536.18,-297.27 534.5,-304.06"/>
</a>
</g>
</g>
<!-- Node33&#45;&gt;Node3 -->
<g id="edge59_Node000033_Node000003" class="edge">
<title>Node33&#45;&gt;Node3</title>
<g id="a_edge59_Node000033_Node000003"><a xlink:title=" ">
<path fill="none" stroke="#63b8ff" d="M324.45,-227C342.33,-222.09 364.29,-216.07 383.38,-210.83"/>
<polygon fill="#63b8ff" stroke="#63b8ff" points="384.34,-214.19 393.06,-208.17 382.49,-207.44 384.34,-214.19"/>
</a>
</g>
</g>
<!-- Node33&#45;&gt;Node25 -->
<g id="edge60_Node000033_Node000025" class="edge">
<title>Node33&#45;&gt;Node25</title>
<g id="a_edge60_Node000033_Node000025"><a xlink:title=" ">
<path fill="none" stroke="#63b8ff" d="M337.37,-232.55C378.15,-231.14 437.25,-234.05 483,-256.59 503.87,-266.87 499.07,-282.58 519,-294.59 521.84,-296.3 524.84,-297.85 527.94,-299.26"/>
<polygon fill="#63b8ff" stroke="#63b8ff" points="526.87,-302.6 537.46,-303.07 529.48,-296.1 526.87,-302.6"/>
</a>
</g>
</g>
<!-- Node34 -->
<g id="Node000034" class="node">
<title>Node34</title>
<g id="a_Node000034"><a xlink:href="contpfs_8c.html#a76143c1f81ddeb59c526d145fb024528" target="_top" xlink:title=" ">
<polygon fill="white" stroke="#666666" points="469,-171.09 389,-171.09 389,-152.09 469,-152.09 469,-171.09"/>
<text text-anchor="middle" x="429" y="-159.09" font-family="Helvetica,sans-Serif" font-size="10.00">__osSumcalc</text>
</a>
</g>
</g>
<!-- Node33&#45;&gt;Node34 -->
<g id="edge61_Node000033_Node000034" class="edge">
<title>Node33&#45;&gt;Node34</title>
<g id="a_edge61_Node000033_Node000034"><a xlink:title=" ">
<path fill="none" stroke="#63b8ff" d="M301.97,-227.06C318.14,-215.04 347.52,-194.27 375,-180.59 379.1,-178.55 383.47,-176.62 387.88,-174.83"/>
<polygon fill="#63b8ff" stroke="#63b8ff" points="389.41,-177.99 397.5,-171.14 386.91,-171.45 389.41,-177.99"/>
</a>
</g>
</g>
<!-- Node35&#45;&gt;Node33 -->
<g id="edge63_Node000035_Node000033" class="edge">
<title>Node35&#45;&gt;Node33</title>
<g id="a_edge63_Node000035_Node000033"><a xlink:title=" ">
<path fill="none" stroke="#63b8ff" d="M186.4,-301.99C191.72,-299.56 197.18,-296.73 202,-293.59 220.18,-281.73 220.05,-272.78 238,-260.59 243.34,-256.96 249.31,-253.58 255.21,-250.56"/>
<polygon fill="#63b8ff" stroke="#63b8ff" points="256.85,-253.65 264.31,-246.14 253.79,-247.36 256.85,-253.65"/>
</a>
</g>
</g>
<!-- Node36&#45;&gt;Node33 -->
<g id="edge65_Node000036_Node000033" class="edge">
<title>Node36&#45;&gt;Node33</title>
<g id="a_edge65_Node000036_Node000033"><a xlink:title=" ">
<path fill="none" stroke="#63b8ff" d="M192.92,-265C208.95,-260.18 228.57,-254.29 245.78,-249.12"/>
<polygon fill="#63b8ff" stroke="#63b8ff" points="247.02,-252.4 255.59,-246.17 245,-245.7 247.02,-252.4"/>
</a>
</g>
</g>
</g>
</svg>
