<?xml version="1.0" encoding="UTF-8" standalone="no"?>
<!DOCTYPE svg PUBLIC "-//W3C//DTD SVG 1.1//EN"
 "http://www.w3.org/Graphics/SVG/1.1/DTD/svg11.dtd">
<!-- Generated by graphviz version 2.43.0 (0)
 -->
<!-- Title: src/engine/tracks/PodiumCeremony.h Pages: 1 -->
<svg width="1617pt" height="390pt"
 viewBox="0.00 0.00 1616.50 390.00" xmlns="http://www.w3.org/2000/svg" xmlns:xlink="http://www.w3.org/1999/xlink">
<g id="graph0" class="graph" transform="scale(1 1) rotate(0) translate(4 386)">
<title>src/engine/tracks/PodiumCeremony.h</title>
<!-- Node1 -->
<g id="Node000001" class="node">
<title>Node1</title>
<g id="a_Node000001"><a xlink:title=" ">
<polygon fill="#999999" stroke="#666666" points="754,-382 614,-382 614,-352 754,-352 754,-382"/>
<text text-anchor="start" x="622" y="-370" font-family="Helvetica,sans-Serif" font-size="10.00">src/engine/tracks/Podium</text>
<text text-anchor="middle" x="684" y="-359" font-family="Helvetica,sans-Serif" font-size="10.00">Ceremony.h</text>
</a>
</g>
</g>
<!-- Node2 -->
<g id="Node000002" class="node">
<title>Node2</title>
<g id="a_Node000002"><a xlink:title=" ">
<polygon fill="#e0e0e0" stroke="#999999" points="855,-19 775,-19 775,0 855,0 855,-19"/>
<text text-anchor="middle" x="815" y="-7" font-family="Helvetica,sans-Serif" font-size="10.00">libultraship.h</text>
</a>
</g>
</g>
<!-- Node1&#45;&gt;Node2 -->
<g id="edge1_Node000001_Node000002" class="edge">
<title>Node1&#45;&gt;Node2</title>
<g id="a_edge1_Node000001_Node000002"><a xlink:title=" ">
<path fill="none" stroke="#63b8ff" d="M613.7,-361.65C439.15,-349.91 0,-314.23 0,-252.5 0,-252.5 0,-252.5 0,-129.5 0,-76.19 44.22,-74.07 94,-55 156.18,-31.18 611.38,-16.26 764.73,-11.86"/>
<polygon fill="#63b8ff" stroke="#63b8ff" points="764.92,-15.36 774.81,-11.57 764.72,-8.36 764.92,-15.36"/>
</a>
</g>
</g>
<!-- Node3 -->
<g id="Node000003" class="node">
<title>Node3</title>
<g id="a_Node000003"><a xlink:href="CoreMath_8h.html" target="_top" xlink:title=" ">
<polygon fill="white" stroke="#666666" points="1608.5,-140 1535.5,-140 1535.5,-121 1608.5,-121 1608.5,-140"/>
<text text-anchor="middle" x="1572" y="-128" font-family="Helvetica,sans-Serif" font-size="10.00">CoreMath.h</text>
</a>
</g>
</g>
<!-- Node1&#45;&gt;Node3 -->
<g id="edge2_Node000001_Node000003" class="edge">
<title>Node1&#45;&gt;Node3</title>
<g id="a_edge2_Node000001_Node000003"><a xlink:title=" ">
<path fill="none" stroke="#63b8ff" d="M754.26,-364.2C929.63,-359.31 1376.92,-344.21 1438,-316 1499.92,-287.4 1508.79,-263.8 1545,-206 1555.93,-188.55 1563.31,-166.04 1567.55,-150.35"/>
<polygon fill="#63b8ff" stroke="#63b8ff" points="1571.04,-150.85 1570.09,-140.3 1564.25,-149.14 1571.04,-150.85"/>
</a>
</g>
</g>
<!-- Node4 -->
<g id="Node000004" class="node">
<title>Node4</title>
<g id="a_Node000004"><a xlink:href="Track_8h.html" target="_top" xlink:title=" ">
<polygon fill="white" stroke="#666666" points="1157.5,-316 1106.5,-316 1106.5,-297 1157.5,-297 1157.5,-316"/>
<text text-anchor="middle" x="1132" y="-304" font-family="Helvetica,sans-Serif" font-size="10.00">Track.h</text>
</a>
</g>
</g>
<!-- Node1&#45;&gt;Node4 -->
<g id="edge4_Node000001_Node000004" class="edge">
<title>Node1&#45;&gt;Node4</title>
<g id="a_edge4_Node000001_Node000004"><a xlink:title=" ">
<path fill="none" stroke="#63b8ff" d="M754.49,-356.8C851.26,-344.16 1021.66,-321.91 1095.82,-312.22"/>
<polygon fill="#63b8ff" stroke="#63b8ff" points="1096.58,-315.66 1106.04,-310.89 1095.67,-308.71 1096.58,-315.66"/>
</a>
</g>
</g>
<!-- Node7 -->
<g id="Node000007" class="node">
<title>Node7</title>
<g id="a_Node000007"><a xlink:href="camera_8h.html" target="_top" xlink:title=" ">
<polygon fill="white" stroke="#666666" points="1339,-140 1277,-140 1277,-121 1339,-121 1339,-140"/>
<text text-anchor="middle" x="1308" y="-128" font-family="Helvetica,sans-Serif" font-size="10.00">camera.h</text>
</a>
</g>
</g>
<!-- Node1&#45;&gt;Node7 -->
<g id="edge73_Node000001_Node000007" class="edge">
<title>Node1&#45;&gt;Node7</title>
<g id="a_edge73_Node000001_Node000007"><a xlink:title=" ">
<path fill="none" stroke="#63b8ff" d="M754.17,-365.04C903.79,-361.38 1246.64,-343.93 1321,-261 1343.29,-236.14 1341.26,-219.59 1334,-187 1331.02,-173.62 1324.46,-159.65 1318.67,-149.08"/>
<polygon fill="#63b8ff" stroke="#63b8ff" points="1321.53,-147.02 1313.5,-140.1 1315.46,-150.52 1321.53,-147.02"/>
</a>
</g>
</g>
<!-- Node9 -->
<g id="Node000009" class="node">
<title>Node9</title>
<g id="a_Node000009"><a xlink:href="src_2data_2some__data_8h.html" target="_top" xlink:title=" ">
<polygon fill="white" stroke="#666666" points="676,-261 572,-261 572,-242 676,-242 676,-261"/>
<text text-anchor="middle" x="624" y="-249" font-family="Helvetica,sans-Serif" font-size="10.00">data/some_data.h</text>
</a>
</g>
</g>
<!-- Node1&#45;&gt;Node9 -->
<g id="edge74_Node000001_Node000009" class="edge">
<title>Node1&#45;&gt;Node9</title>
<g id="a_edge74_Node000001_Node000009"><a xlink:title=" ">
<path fill="none" stroke="#63b8ff" d="M676.4,-351.63C665.46,-330.93 645.29,-292.78 633.42,-270.32"/>
<polygon fill="#63b8ff" stroke="#63b8ff" points="636.38,-268.43 628.61,-261.23 630.19,-271.71 636.38,-268.43"/>
</a>
</g>
</g>
<!-- Node14 -->
<g id="Node000014" class="node">
<title>Node14</title>
<g id="a_Node000014"><a xlink:href="objects_8h.html" target="_top" xlink:title=" ">
<polygon fill="white" stroke="#666666" points="782.5,-206 721.5,-206 721.5,-187 782.5,-187 782.5,-206"/>
<text text-anchor="middle" x="752" y="-194" font-family="Helvetica,sans-Serif" font-size="10.00">objects.h</text>
</a>
</g>
</g>
<!-- Node1&#45;&gt;Node14 -->
<g id="edge75_Node000001_Node000014" class="edge">
<title>Node1&#45;&gt;Node14</title>
<g id="a_edge75_Node000001_Node000014"><a xlink:title=" ">
<path fill="none" stroke="#63b8ff" d="M689.68,-351.92C701.95,-321.52 730.92,-249.73 744.6,-215.83"/>
<polygon fill="#63b8ff" stroke="#63b8ff" points="747.97,-216.84 748.47,-206.25 741.48,-214.22 747.97,-216.84"/>
</a>
</g>
</g>
<!-- Node19 -->
<g id="Node000019" class="node">
<title>Node19</title>
<g id="a_Node000019"><a xlink:href="path__spawn__metadata_8h.html" target="_top" xlink:title=" ">
<polygon fill="white" stroke="#666666" points="907.5,-261 770.5,-261 770.5,-242 907.5,-242 907.5,-261"/>
<text text-anchor="middle" x="839" y="-249" font-family="Helvetica,sans-Serif" font-size="10.00">path_spawn_metadata.h</text>
</a>
</g>
</g>
<!-- Node1&#45;&gt;Node19 -->
<g id="edge76_Node000001_Node000019" class="edge">
<title>Node1&#45;&gt;Node19</title>
<g id="a_edge76_Node000001_Node000019"><a xlink:title=" ">
<path fill="none" stroke="#63b8ff" d="M703.32,-351.85C732.74,-330.31 788.51,-289.47 818.58,-267.46"/>
<polygon fill="#63b8ff" stroke="#63b8ff" points="821.02,-270 827.02,-261.27 816.89,-264.35 821.02,-270"/>
</a>
</g>
</g>
<!-- Node23 -->
<g id="Node000023" class="node">
<title>Node23</title>
<g id="a_Node000023"><a xlink:href="code__800029B0_8h.html" target="_top" xlink:title=" ">
<polygon fill="white" stroke="#666666" points="1512.5,-206 1409.5,-206 1409.5,-187 1512.5,-187 1512.5,-206"/>
<text text-anchor="middle" x="1461" y="-194" font-family="Helvetica,sans-Serif" font-size="10.00">code_800029B0.h</text>
</a>
</g>
</g>
<!-- Node1&#45;&gt;Node23 -->
<g id="edge77_Node000001_Node000023" class="edge">
<title>Node1&#45;&gt;Node23</title>
<g id="a_edge77_Node000001_Node000023"><a xlink:title=" ">
<path fill="none" stroke="#63b8ff" d="M754.17,-365.43C926.92,-363.43 1362.59,-354.57 1415,-316 1447.04,-292.42 1456.77,-243.3 1459.72,-216.29"/>
<polygon fill="#63b8ff" stroke="#63b8ff" points="1463.21,-216.48 1460.61,-206.21 1456.24,-215.86 1463.21,-216.48"/>
</a>
</g>
</g>
<!-- Node28 -->
<g id="Node000028" class="node">
<title>Node28</title>
<g id="a_Node000028"><a xlink:href="royal__raceway__vertices_8h.html" target="_top" xlink:title=" ">
<polygon fill="white" stroke="#666666" points="186,-151 66,-151 66,-110 186,-110 186,-151"/>
<text text-anchor="start" x="74" y="-139" font-family="Helvetica,sans-Serif" font-size="10.00">assets/models/tracks</text>
<text text-anchor="start" x="74" y="-128" font-family="Helvetica,sans-Serif" font-size="10.00">/royal_raceway/royal</text>
<text text-anchor="middle" x="126" y="-117" font-family="Helvetica,sans-Serif" font-size="10.00">_raceway_vertices.h</text>
</a>
</g>
</g>
<!-- Node1&#45;&gt;Node28 -->
<g id="edge54_Node000001_Node000028" class="edge">
<title>Node1&#45;&gt;Node28</title>
<g id="a_edge54_Node000001_Node000028"><a xlink:title=" ">
<path fill="none" stroke="#63b8ff" d="M613.57,-354.26C571.41,-346.05 517.2,-333.43 471,-316 354.1,-271.89 227.06,-195.91 164.82,-156.63"/>
<polygon fill="#63b8ff" stroke="#63b8ff" points="166.43,-153.51 156.11,-151.11 162.69,-159.42 166.43,-153.51"/>
</a>
</g>
</g>
<!-- Node29 -->
<g id="Node000029" class="node">
<title>Node29</title>
<g id="a_Node000029"><a xlink:href="royal__raceway__displaylists_8h.html" target="_top" xlink:title=" ">
<polygon fill="white" stroke="#666666" points="337.5,-151 204.5,-151 204.5,-110 337.5,-110 337.5,-151"/>
<text text-anchor="start" x="212.5" y="-139" font-family="Helvetica,sans-Serif" font-size="10.00">assets/models/tracks</text>
<text text-anchor="start" x="212.5" y="-128" font-family="Helvetica,sans-Serif" font-size="10.00">/royal_raceway/royal</text>
<text text-anchor="middle" x="271" y="-117" font-family="Helvetica,sans-Serif" font-size="10.00">_raceway_displaylists.h</text>
</a>
</g>
</g>
<!-- Node1&#45;&gt;Node29 -->
<g id="edge58_Node000001_Node000029" class="edge">
<title>Node1&#45;&gt;Node29</title>
<g id="a_edge58_Node000001_Node000029"><a xlink:title=" ">
<path fill="none" stroke="#63b8ff" d="M613.6,-352.92C579.89,-345.01 539.63,-333.07 506,-316 421.96,-273.34 338.84,-198.3 297.66,-158.33"/>
<polygon fill="#63b8ff" stroke="#63b8ff" points="300.07,-155.78 290.47,-151.29 295.17,-160.79 300.07,-155.78"/>
</a>
</g>
</g>
<!-- Node30 -->
<g id="Node000030" class="node">
<title>Node30</title>
<g id="a_Node000030"><a xlink:href="models_2tracks_2royal__raceway_2royal__raceway__data_8h.html" target="_top" xlink:title=" ">
<polygon fill="white" stroke="#666666" points="614,-151 494,-151 494,-110 614,-110 614,-151"/>
<text text-anchor="start" x="502" y="-139" font-family="Helvetica,sans-Serif" font-size="10.00">assets/models/tracks</text>
<text text-anchor="start" x="502" y="-128" font-family="Helvetica,sans-Serif" font-size="10.00">/royal_raceway/royal</text>
<text text-anchor="middle" x="554" y="-117" font-family="Helvetica,sans-Serif" font-size="10.00">_raceway_data.h</text>
</a>
</g>
</g>
<!-- Node1&#45;&gt;Node30 -->
<g id="edge62_Node000001_Node000030" class="edge">
<title>Node1&#45;&gt;Node30</title>
<g id="a_edge62_Node000001_Node000030"><a xlink:title=" ">
<path fill="none" stroke="#63b8ff" d="M658.07,-351.98C629.18,-334.77 583.8,-302.69 563,-261 547.37,-229.67 547.4,-188.66 549.83,-161.27"/>
<polygon fill="#63b8ff" stroke="#63b8ff" points="553.33,-161.45 550.9,-151.14 546.37,-160.72 553.33,-161.45"/>
</a>
</g>
</g>
<!-- Node31 -->
<g id="Node000031" class="node">
<title>Node31</title>
<g id="a_Node000031"><a xlink:href="course__offsets_8h.html" target="_top" xlink:title=" ">
<polygon fill="white" stroke="#666666" points="495,-206 399,-206 399,-187 495,-187 495,-206"/>
<text text-anchor="middle" x="447" y="-194" font-family="Helvetica,sans-Serif" font-size="10.00">course_offsets.h</text>
</a>
</g>
</g>
<!-- Node1&#45;&gt;Node31 -->
<g id="edge66_Node000001_Node000031" class="edge">
<title>Node1&#45;&gt;Node31</title>
<g id="a_edge66_Node000001_Node000031"><a xlink:title=" ">
<path fill="none" stroke="#63b8ff" d="M613.96,-353.39C585.92,-345.88 554.52,-334.14 530,-316 493.62,-289.09 467.33,-241.36 454.96,-215.45"/>
<polygon fill="#63b8ff" stroke="#63b8ff" points="458.01,-213.71 450.64,-206.09 451.65,-216.64 458.01,-213.71"/>
</a>
</g>
</g>
<!-- Node3&#45;&gt;Node2 -->
<g id="edge3_Node000003_Node000002" class="edge">
<title>Node3&#45;&gt;Node2</title>
<g id="a_edge3_Node000003_Node000002"><a xlink:title=" ">
<path fill="none" stroke="#63b8ff" d="M1572.74,-120.92C1573.56,-105.07 1572.75,-71.33 1553,-55 1500.29,-11.44 1023.94,-9.56 865.78,-10.16"/>
<polygon fill="#63b8ff" stroke="#63b8ff" points="865.38,-6.66 855.39,-10.2 865.41,-13.66 865.38,-6.66"/>
</a>
</g>
</g>
<!-- Node4&#45;&gt;Node3 -->
<g id="edge6_Node000004_Node000003" class="edge">
<title>Node4&#45;&gt;Node3</title>
<g id="a_edge6_Node000004_Node000003"><a xlink:title=" ">
<path fill="none" stroke="#63b8ff" d="M1157.78,-305.73C1224.95,-305.01 1407.93,-294.53 1521,-206 1540.42,-190.8 1555.23,-166.14 1563.77,-149.39"/>
<polygon fill="#63b8ff" stroke="#63b8ff" points="1567.04,-150.67 1568.25,-140.14 1560.74,-147.61 1567.04,-150.67"/>
</a>
</g>
</g>
<!-- Node5 -->
<g id="Node000005" class="node">
<title>Node5</title>
<g id="a_Node000005"><a xlink:title=" ">
<polygon fill="#e0e0e0" stroke="#999999" points="1143,-261 1005,-261 1005,-242 1143,-242 1143,-261"/>
<text text-anchor="middle" x="1074" y="-249" font-family="Helvetica,sans-Serif" font-size="10.00">libultraship/libultraship.h</text>
</a>
</g>
</g>
<!-- Node4&#45;&gt;Node5 -->
<g id="edge5_Node000004_Node000005" class="edge">
<title>Node4&#45;&gt;Node5</title>
<g id="a_edge5_Node000004_Node000005"><a xlink:title=" ">
<path fill="none" stroke="#63b8ff" d="M1122.68,-296.98C1114.19,-289.23 1101.44,-277.58 1091.12,-268.14"/>
<polygon fill="#63b8ff" stroke="#63b8ff" points="1093.23,-265.33 1083.49,-261.17 1088.51,-270.5 1093.23,-265.33"/>
</a>
</g>
</g>
<!-- Node6 -->
<g id="Node000006" class="node">
<title>Node6</title>
<g id="a_Node000006"><a xlink:href="defines_8h.html" target="_top" xlink:title=" ">
<polygon fill="white" stroke="#666666" points="986.5,-261 925.5,-261 925.5,-242 986.5,-242 986.5,-261"/>
<text text-anchor="middle" x="956" y="-249" font-family="Helvetica,sans-Serif" font-size="10.00">defines.h</text>
</a>
</g>
</g>
<!-- Node4&#45;&gt;Node6 -->
<g id="edge7_Node000004_Node000006" class="edge">
<title>Node4&#45;&gt;Node6</title>
<g id="a_edge7_Node000004_Node000006"><a xlink:title=" ">
<path fill="none" stroke="#63b8ff" d="M1106.41,-297.79C1076.82,-288.88 1027.83,-274.13 993.84,-263.9"/>
<polygon fill="#63b8ff" stroke="#63b8ff" points="994.83,-260.54 984.25,-261.01 992.81,-267.24 994.83,-260.54"/>
</a>
</g>
</g>
<!-- Node4&#45;&gt;Node7 -->
<g id="edge8_Node000004_Node000007" class="edge">
<title>Node4&#45;&gt;Node7</title>
<g id="a_edge8_Node000004_Node000007"><a xlink:title=" ">
<path fill="none" stroke="#63b8ff" d="M1157.62,-302.43C1200.29,-296.75 1282.99,-283.11 1301,-261 1326.75,-229.4 1319.58,-177.72 1313.17,-150.17"/>
<polygon fill="#63b8ff" stroke="#63b8ff" points="1316.51,-149.1 1310.66,-140.28 1309.73,-150.83 1316.51,-149.1"/>
</a>
</g>
</g>
<!-- Node8 -->
<g id="Node000008" class="node">
<title>Node8</title>
<g id="a_Node000008"><a xlink:href="common__structs_8h.html" target="_top" xlink:title=" ">
<polygon fill="white" stroke="#666666" points="1188.5,-74 1081.5,-74 1081.5,-55 1188.5,-55 1188.5,-74"/>
<text text-anchor="middle" x="1135" y="-62" font-family="Helvetica,sans-Serif" font-size="10.00">common_structs.h</text>
</a>
</g>
</g>
<!-- Node4&#45;&gt;Node8 -->
<g id="edge41_Node000004_Node000008" class="edge">
<title>Node4&#45;&gt;Node8</title>
<g id="a_edge41_Node000004_Node000008"><a xlink:title=" ">
<path fill="none" stroke="#63b8ff" d="M1157.71,-301.76C1183.47,-296.73 1222.68,-285.43 1247,-261 1265.46,-242.46 1263.25,-231.73 1268,-206 1279.16,-145.5 1206.28,-99.66 1163.89,-78.46"/>
<polygon fill="#63b8ff" stroke="#63b8ff" points="1165.37,-75.29 1154.85,-74.08 1162.32,-81.59 1165.37,-75.29"/>
</a>
</g>
</g>
<!-- Node4&#45;&gt;Node9 -->
<g id="edge12_Node000004_Node000009" class="edge">
<title>Node4&#45;&gt;Node9</title>
<g id="a_edge12_Node000004_Node000009"><a xlink:title=" ">
<path fill="none" stroke="#63b8ff" d="M1106.46,-302.84C1029.49,-294.81 798.19,-270.67 686.16,-258.99"/>
<polygon fill="#63b8ff" stroke="#63b8ff" points="686.33,-255.48 676.03,-257.93 685.61,-262.45 686.33,-255.48"/>
</a>
</g>
</g>
<!-- Node15 -->
<g id="Node000015" class="node">
<title>Node15</title>
<g id="a_Node000015"><a xlink:href="bomb__kart_8h.html" target="_top" xlink:title=" ">
<polygon fill="white" stroke="#666666" points="877.5,-206 800.5,-206 800.5,-187 877.5,-187 877.5,-206"/>
<text text-anchor="middle" x="839" y="-194" font-family="Helvetica,sans-Serif" font-size="10.00">bomb_kart.h</text>
</a>
</g>
</g>
<!-- Node4&#45;&gt;Node15 -->
<g id="edge22_Node000004_Node000015" class="edge">
<title>Node4&#45;&gt;Node15</title>
<g id="a_edge22_Node000004_Node000015"><a xlink:title=" ">
<path fill="none" stroke="#63b8ff" d="M1106.34,-304.36C1026.1,-300.52 783.95,-286.87 761,-261 742.99,-240.7 775.6,-221.64 804,-209.8"/>
<polygon fill="#63b8ff" stroke="#63b8ff" points="805.39,-213.01 813.4,-206.07 802.81,-206.51 805.39,-213.01"/>
</a>
</g>
</g>
<!-- Node4&#45;&gt;Node19 -->
<g id="edge29_Node000004_Node000019" class="edge">
<title>Node4&#45;&gt;Node19</title>
<g id="a_edge29_Node000004_Node000019"><a xlink:title=" ">
<path fill="none" stroke="#63b8ff" d="M1106.25,-300.84C1059.46,-292.38 959.45,-274.29 895.92,-262.8"/>
<polygon fill="#63b8ff" stroke="#63b8ff" points="896.52,-259.35 886.05,-261.01 895.27,-266.24 896.52,-259.35"/>
</a>
</g>
</g>
<!-- Node20 -->
<g id="Node000020" class="node">
<title>Node20</title>
<g id="a_Node000020"><a xlink:href="waypoints_8h.html" target="_top" xlink:title=" ">
<polygon fill="white" stroke="#666666" points="1259,-206 1183,-206 1183,-187 1259,-187 1259,-206"/>
<text text-anchor="middle" x="1221" y="-194" font-family="Helvetica,sans-Serif" font-size="10.00">waypoints.h</text>
</a>
</g>
</g>
<!-- Node4&#45;&gt;Node20 -->
<g id="edge39_Node000004_Node000020" class="edge">
<title>Node4&#45;&gt;Node20</title>
<g id="a_edge39_Node000004_Node000020"><a xlink:title=" ">
<path fill="none" stroke="#63b8ff" d="M1157.5,-301.75C1180.85,-296.81 1214.11,-285.66 1230,-261 1238.75,-247.42 1234.69,-228.85 1229.54,-215.3"/>
<polygon fill="#63b8ff" stroke="#63b8ff" points="1232.74,-213.88 1225.57,-206.08 1226.31,-216.65 1232.74,-213.88"/>
</a>
</g>
</g>
<!-- Node22 -->
<g id="Node000022" class="node">
<title>Node22</title>
<g id="a_Node000022"><a xlink:href="sounds_8h.html" target="_top" xlink:title=" ">
<polygon fill="white" stroke="#666666" points="1221,-261 1161,-261 1161,-242 1221,-242 1221,-261"/>
<text text-anchor="middle" x="1191" y="-249" font-family="Helvetica,sans-Serif" font-size="10.00">sounds.h</text>
</a>
</g>
</g>
<!-- Node4&#45;&gt;Node22 -->
<g id="edge40_Node000004_Node000022" class="edge">
<title>Node4&#45;&gt;Node22</title>
<g id="a_edge40_Node000004_Node000022"><a xlink:title=" ">
<path fill="none" stroke="#63b8ff" d="M1141.48,-296.98C1150.2,-289.15 1163.34,-277.34 1173.9,-267.86"/>
<polygon fill="#63b8ff" stroke="#63b8ff" points="1176.25,-270.46 1181.35,-261.17 1171.57,-265.25 1176.25,-270.46"/>
</a>
</g>
</g>
<!-- Node4&#45;&gt;Node23 -->
<g id="edge42_Node000004_Node000023" class="edge">
<title>Node4&#45;&gt;Node23</title>
<g id="a_edge42_Node000004_Node000023"><a xlink:title=" ">
<path fill="none" stroke="#63b8ff" d="M1157.78,-302.23C1197.56,-296.67 1275.89,-283.74 1339,-261 1375.49,-247.85 1414.79,-225.82 1438.65,-211.48"/>
<polygon fill="#63b8ff" stroke="#63b8ff" points="1440.57,-214.4 1447.29,-206.21 1436.93,-208.43 1440.57,-214.4"/>
</a>
</g>
</g>
<!-- Node7&#45;&gt;Node2 -->
<g id="edge9_Node000007_Node000002" class="edge">
<title>Node7&#45;&gt;Node2</title>
<g id="a_edge9_Node000007_Node000002"><a xlink:title=" ">
<path fill="none" stroke="#63b8ff" d="M1298.49,-120.75C1280.34,-104.62 1238.81,-70.43 1197,-55 1137.27,-32.96 954.56,-19.06 865.23,-13.41"/>
<polygon fill="#63b8ff" stroke="#63b8ff" points="865.27,-9.9 855.07,-12.77 864.83,-16.89 865.27,-9.9"/>
</a>
</g>
</g>
<!-- Node7&#45;&gt;Node8 -->
<g id="edge10_Node000007_Node000008" class="edge">
<title>Node7&#45;&gt;Node8</title>
<g id="a_edge10_Node000007_Node000008"><a xlink:title=" ">
<path fill="none" stroke="#63b8ff" d="M1288.86,-120.83C1280.92,-117.33 1271.57,-113.34 1263,-110 1232.43,-98.08 1197.17,-85.94 1171.41,-77.36"/>
<polygon fill="#63b8ff" stroke="#63b8ff" points="1172.28,-73.96 1161.69,-74.13 1170.08,-80.6 1172.28,-73.96"/>
</a>
</g>
</g>
<!-- Node8&#45;&gt;Node2 -->
<g id="edge11_Node000008_Node000002" class="edge">
<title>Node8&#45;&gt;Node2</title>
<g id="a_edge11_Node000008_Node000002"><a xlink:title=" ">
<path fill="none" stroke="#63b8ff" d="M1083.59,-54.98C1023.46,-45.03 924.61,-28.65 865.07,-18.79"/>
<polygon fill="#63b8ff" stroke="#63b8ff" points="865.58,-15.33 855.14,-17.15 864.44,-22.24 865.58,-15.33"/>
</a>
</g>
</g>
<!-- Node10 -->
<g id="Node000010" class="node">
<title>Node10</title>
<g id="a_Node000010"><a xlink:title=" ">
<polygon fill="#e0e0e0" stroke="#999999" points="681,-74 603,-74 603,-55 681,-55 681,-74"/>
<text text-anchor="middle" x="642" y="-62" font-family="Helvetica,sans-Serif" font-size="10.00">libultra/gbi.h</text>
</a>
</g>
</g>
<!-- Node9&#45;&gt;Node10 -->
<g id="edge13_Node000009_Node000010" class="edge">
<title>Node9&#45;&gt;Node10</title>
<g id="a_edge13_Node000009_Node000010"><a xlink:title=" ">
<path fill="none" stroke="#63b8ff" d="M626.71,-241.83C631.9,-224.69 643.1,-185.17 647,-151 649.07,-132.9 648.02,-128.19 647,-110 646.52,-101.45 645.53,-92.03 644.55,-84.06"/>
<polygon fill="#63b8ff" stroke="#63b8ff" points="648.01,-83.47 643.24,-74.01 641.07,-84.38 648.01,-83.47"/>
</a>
</g>
</g>
<!-- Node11 -->
<g id="Node000011" class="node">
<title>Node11</title>
<g id="a_Node000011"><a xlink:href="spline_8h.html" target="_top" xlink:title=" ">
<polygon fill="white" stroke="#666666" points="1068.5,-140 1013.5,-140 1013.5,-121 1068.5,-121 1068.5,-140"/>
<text text-anchor="middle" x="1041" y="-128" font-family="Helvetica,sans-Serif" font-size="10.00">spline.h</text>
</a>
</g>
</g>
<!-- Node9&#45;&gt;Node11 -->
<g id="edge14_Node000009_Node000011" class="edge">
<title>Node9&#45;&gt;Node11</title>
<g id="a_edge14_Node000009_Node000011"><a xlink:title=" ">
<path fill="none" stroke="#63b8ff" d="M632.82,-241.72C647.71,-227.52 679.38,-199.8 712,-187 833.73,-139.24 879.23,-190.12 1004,-151 1008.85,-149.48 1013.82,-147.33 1018.48,-145.01"/>
<polygon fill="#63b8ff" stroke="#63b8ff" points="1020.33,-147.99 1027.46,-140.16 1017,-141.83 1020.33,-147.99"/>
</a>
</g>
</g>
<!-- Node12 -->
<g id="Node000012" class="node">
<title>Node12</title>
<g id="a_Node000012"><a xlink:href="other__textures_8h.html" target="_top" xlink:title=" ">
<polygon fill="white" stroke="#666666" points="476,-145.5 356,-145.5 356,-115.5 476,-115.5 476,-145.5"/>
<text text-anchor="start" x="364" y="-133.5" font-family="Helvetica,sans-Serif" font-size="10.00">assets/textures/other</text>
<text text-anchor="middle" x="416" y="-122.5" font-family="Helvetica,sans-Serif" font-size="10.00">_textures.h</text>
</a>
</g>
</g>
<!-- Node9&#45;&gt;Node12 -->
<g id="edge16_Node000009_Node000012" class="edge">
<title>Node9&#45;&gt;Node12</title>
<g id="a_edge16_Node000009_Node000012"><a xlink:title=" ">
<path fill="none" stroke="#63b8ff" d="M609.04,-241.94C575.84,-222.95 495.31,-176.87 449.44,-150.63"/>
<polygon fill="#63b8ff" stroke="#63b8ff" points="450.89,-147.43 440.48,-145.5 447.42,-153.51 450.89,-147.43"/>
</a>
</g>
</g>
<!-- Node9&#45;&gt;Node14 -->
<g id="edge19_Node000009_Node000014" class="edge">
<title>Node9&#45;&gt;Node14</title>
<g id="a_edge19_Node000009_Node000014"><a xlink:title=" ">
<path fill="none" stroke="#63b8ff" d="M644.57,-241.98C665.43,-233.34 697.97,-219.87 721.77,-210.02"/>
<polygon fill="#63b8ff" stroke="#63b8ff" points="723.16,-213.23 731.06,-206.17 720.48,-206.76 723.16,-213.23"/>
</a>
</g>
</g>
<!-- Node11&#45;&gt;Node8 -->
<g id="edge15_Node000011_Node000008" class="edge">
<title>Node11&#45;&gt;Node8</title>
<g id="a_edge15_Node000011_Node000008"><a xlink:title=" ">
<path fill="none" stroke="#63b8ff" d="M1053.68,-120.87C1069.09,-110.37 1095.35,-92.5 1113.85,-79.9"/>
<polygon fill="#63b8ff" stroke="#63b8ff" points="1115.93,-82.72 1122.22,-74.2 1111.99,-76.93 1115.93,-82.72"/>
</a>
</g>
</g>
<!-- Node12&#45;&gt;Node2 -->
<g id="edge17_Node000012_Node000002" class="edge">
<title>Node12&#45;&gt;Node2</title>
<g id="a_edge17_Node000012_Node000002"><a xlink:title=" ">
<path fill="none" stroke="#63b8ff" d="M440.46,-115.41C470.66,-98.61 524.05,-70.81 573,-55 637.52,-34.16 715.05,-22.06 764.67,-15.87"/>
<polygon fill="#63b8ff" stroke="#63b8ff" points="765.31,-19.31 774.81,-14.63 764.46,-12.36 765.31,-19.31"/>
</a>
</g>
</g>
<!-- Node13 -->
<g id="Node000013" class="node">
<title>Node13</title>
<g id="a_Node000013"><a xlink:href="align__asset__macro_8h.html" target="_top" xlink:title=" ">
<polygon fill="white" stroke="#666666" points="474.5,-74 357.5,-74 357.5,-55 474.5,-55 474.5,-74"/>
<text text-anchor="middle" x="416" y="-62" font-family="Helvetica,sans-Serif" font-size="10.00">align_asset_macro.h</text>
</a>
</g>
</g>
<!-- Node12&#45;&gt;Node13 -->
<g id="edge18_Node000012_Node000013" class="edge">
<title>Node12&#45;&gt;Node13</title>
<g id="a_edge18_Node000012_Node000013"><a xlink:title=" ">
<path fill="none" stroke="#63b8ff" d="M416,-115.3C416,-106.2 416,-94.29 416,-84.4"/>
<polygon fill="#63b8ff" stroke="#63b8ff" points="419.5,-84.34 416,-74.34 412.5,-84.34 419.5,-84.34"/>
</a>
</g>
</g>
<!-- Node14&#45;&gt;Node8 -->
<g id="edge21_Node000014_Node000008" class="edge">
<title>Node14&#45;&gt;Node8</title>
<g id="a_edge21_Node000014_Node000008"><a xlink:title=" ">
<path fill="none" stroke="#63b8ff" d="M782.61,-188.56C785.44,-188 788.27,-187.47 791,-187 917.27,-165.34 967.78,-217.96 1077,-151 1090.45,-142.75 1112.81,-105.45 1125.48,-82.93"/>
<polygon fill="#63b8ff" stroke="#63b8ff" points="1128.62,-84.49 1130.41,-74.04 1122.5,-81.09 1128.62,-84.49"/>
</a>
</g>
</g>
<!-- Node14&#45;&gt;Node11 -->
<g id="edge20_Node000014_Node000011" class="edge">
<title>Node14&#45;&gt;Node11</title>
<g id="a_edge20_Node000014_Node000011"><a xlink:title=" ">
<path fill="none" stroke="#63b8ff" d="M782.63,-188.68C785.46,-188.1 788.28,-187.53 791,-187 885.26,-168.77 913.05,-181.77 1004,-151 1008.74,-149.4 1013.6,-147.25 1018.19,-144.96"/>
<polygon fill="#63b8ff" stroke="#63b8ff" points="1019.91,-148.01 1027.06,-140.2 1016.6,-141.84 1019.91,-148.01"/>
</a>
</g>
</g>
<!-- Node15&#45;&gt;Node8 -->
<g id="edge23_Node000015_Node000008" class="edge">
<title>Node15&#45;&gt;Node8</title>
<g id="a_edge23_Node000015_Node000008"><a xlink:title=" ">
<path fill="none" stroke="#63b8ff" d="M877.69,-194.17C944.4,-191.09 1077.2,-181.22 1111,-151 1129.83,-134.16 1134.39,-103.85 1135.23,-84.22"/>
<polygon fill="#63b8ff" stroke="#63b8ff" points="1138.73,-84.12 1135.37,-74.07 1131.73,-84.02 1138.73,-84.12"/>
</a>
</g>
</g>
<!-- Node16 -->
<g id="Node000016" class="node">
<title>Node16</title>
<g id="a_Node000016"><a xlink:href="mk64_8h.html" target="_top" xlink:title=" ">
<polygon fill="white" stroke="#666666" points="761.5,-140 708.5,-140 708.5,-121 761.5,-121 761.5,-140"/>
<text text-anchor="middle" x="735" y="-128" font-family="Helvetica,sans-Serif" font-size="10.00">mk64.h</text>
</a>
</g>
</g>
<!-- Node15&#45;&gt;Node16 -->
<g id="edge24_Node000015_Node000016" class="edge">
<title>Node15&#45;&gt;Node16</title>
<g id="a_edge24_Node000015_Node000016"><a xlink:title=" ">
<path fill="none" stroke="#63b8ff" d="M824.97,-186.87C807.76,-176.28 778.34,-158.17 757.85,-145.56"/>
<polygon fill="#63b8ff" stroke="#63b8ff" points="759.49,-142.46 749.14,-140.2 755.82,-148.42 759.49,-142.46"/>
</a>
</g>
</g>
<!-- Node16&#45;&gt;Node2 -->
<g id="edge25_Node000016_Node000002" class="edge">
<title>Node16&#45;&gt;Node2</title>
<g id="a_edge25_Node000016_Node000002"><a xlink:title=" ">
<path fill="none" stroke="#63b8ff" d="M740.75,-120.94C753.84,-101.48 786.02,-53.6 803.41,-27.74"/>
<polygon fill="#63b8ff" stroke="#63b8ff" points="806.41,-29.55 809.08,-19.3 800.6,-25.65 806.41,-29.55"/>
</a>
</g>
</g>
<!-- Node16&#45;&gt;Node10 -->
<g id="edge28_Node000016_Node000010" class="edge">
<title>Node16&#45;&gt;Node10</title>
<g id="a_edge28_Node000016_Node000010"><a xlink:title=" ">
<path fill="none" stroke="#63b8ff" d="M722.46,-120.87C707.2,-110.37 681.23,-92.5 662.93,-79.9"/>
<polygon fill="#63b8ff" stroke="#63b8ff" points="664.86,-76.98 654.64,-74.2 660.89,-82.75 664.86,-76.98"/>
</a>
</g>
</g>
<!-- Node17 -->
<g id="Node000017" class="node">
<title>Node17</title>
<g id="a_Node000017"><a xlink:href="string_8h.html" target="_top" xlink:title=" ">
<polygon fill="white" stroke="#666666" points="756.5,-74 703.5,-74 703.5,-55 756.5,-55 756.5,-74"/>
<text text-anchor="middle" x="730" y="-62" font-family="Helvetica,sans-Serif" font-size="10.00">string.h</text>
</a>
</g>
</g>
<!-- Node16&#45;&gt;Node17 -->
<g id="edge26_Node000016_Node000017" class="edge">
<title>Node16&#45;&gt;Node17</title>
<g id="a_edge26_Node000016_Node000017"><a xlink:title=" ">
<path fill="none" stroke="#63b8ff" d="M734.33,-120.87C733.6,-111.57 732.42,-96.48 731.48,-84.4"/>
<polygon fill="#63b8ff" stroke="#63b8ff" points="734.96,-84.1 730.7,-74.41 727.99,-84.65 734.96,-84.1"/>
</a>
</g>
</g>
<!-- Node18 -->
<g id="Node000018" class="node">
<title>Node18</title>
<g id="a_Node000018"><a xlink:title=" ">
<polygon fill="#e0e0e0" stroke="#999999" points="399,-19 309,-19 309,0 399,0 399,-19"/>
<text text-anchor="middle" x="354" y="-7" font-family="Helvetica,sans-Serif" font-size="10.00">libultra/types.h</text>
</a>
</g>
</g>
<!-- Node17&#45;&gt;Node18 -->
<g id="edge27_Node000017_Node000018" class="edge">
<title>Node17&#45;&gt;Node18</title>
<g id="a_edge27_Node000017_Node000018"><a xlink:title=" ">
<path fill="none" stroke="#63b8ff" d="M703.38,-57.54C698.92,-56.63 694.34,-55.75 690,-55 591.61,-38.06 476.04,-24.02 409.29,-16.49"/>
<polygon fill="#63b8ff" stroke="#63b8ff" points="409.33,-12.97 399.01,-15.33 408.55,-19.93 409.33,-12.97"/>
</a>
</g>
</g>
<!-- Node19&#45;&gt;Node8 -->
<g id="edge32_Node000019_Node000008" class="edge">
<title>Node19&#45;&gt;Node8</title>
<g id="a_edge32_Node000019_Node000008"><a xlink:title=" ">
<path fill="none" stroke="#63b8ff" d="M884.41,-241.95C959.96,-226.7 1106.14,-192.49 1136,-151 1150.06,-131.46 1145.91,-102.36 1140.97,-83.66"/>
<polygon fill="#63b8ff" stroke="#63b8ff" points="1144.31,-82.6 1138.11,-74 1137.59,-84.58 1144.31,-82.6"/>
</a>
</g>
</g>
<!-- Node19&#45;&gt;Node15 -->
<g id="edge38_Node000019_Node000015" class="edge">
<title>Node19&#45;&gt;Node15</title>
<g id="a_edge38_Node000019_Node000015"><a xlink:title=" ">
<path fill="none" stroke="#63b8ff" d="M839,-241.75C839,-234.8 839,-224.85 839,-216.13"/>
<polygon fill="#63b8ff" stroke="#63b8ff" points="842.5,-216.09 839,-206.09 835.5,-216.09 842.5,-216.09"/>
</a>
</g>
</g>
<!-- Node19&#45;&gt;Node20 -->
<g id="edge30_Node000019_Node000020" class="edge">
<title>Node19&#45;&gt;Node20</title>
<g id="a_edge30_Node000019_Node000020"><a xlink:title=" ">
<path fill="none" stroke="#63b8ff" d="M906.39,-241.97C973.14,-233.4 1078.23,-219.54 1169,-206 1170.27,-205.81 1171.56,-205.62 1172.86,-205.42"/>
<polygon fill="#63b8ff" stroke="#63b8ff" points="1173.62,-208.84 1182.96,-203.84 1172.54,-201.92 1173.62,-208.84"/>
</a>
</g>
</g>
<!-- Node21 -->
<g id="Node000021" class="node">
<title>Node21</title>
<g id="a_Node000021"><a xlink:href="other_2common__data_8h.html" target="_top" xlink:title=" ">
<polygon fill="white" stroke="#666666" points="902,-145.5 780,-145.5 780,-115.5 902,-115.5 902,-145.5"/>
<text text-anchor="start" x="788" y="-133.5" font-family="Helvetica,sans-Serif" font-size="10.00">assets/other/common</text>
<text text-anchor="middle" x="841" y="-122.5" font-family="Helvetica,sans-Serif" font-size="10.00">_data.h</text>
</a>
</g>
</g>
<!-- Node19&#45;&gt;Node21 -->
<g id="edge33_Node000019_Node000021" class="edge">
<title>Node19&#45;&gt;Node21</title>
<g id="a_edge33_Node000019_Node000021"><a xlink:title=" ">
<path fill="none" stroke="#63b8ff" d="M853.07,-241.89C864.35,-234.1 879.34,-221.48 886,-206 894.14,-187.09 880.87,-167.2 866.67,-152.74"/>
<polygon fill="#63b8ff" stroke="#63b8ff" points="868.93,-150.06 859.27,-145.7 864.1,-155.13 868.93,-150.06"/>
</a>
</g>
</g>
<!-- Node20&#45;&gt;Node8 -->
<g id="edge31_Node000020_Node000008" class="edge">
<title>Node20&#45;&gt;Node8</title>
<g id="a_edge31_Node000020_Node000008"><a xlink:title=" ">
<path fill="none" stroke="#63b8ff" d="M1219.03,-186.82C1215.04,-170.57 1204.84,-134.95 1187,-110 1178.79,-98.52 1167.01,-88.12 1156.74,-80.26"/>
<polygon fill="#63b8ff" stroke="#63b8ff" points="1158.71,-77.37 1148.57,-74.29 1154.58,-83.02 1158.71,-77.37"/>
</a>
</g>
</g>
<!-- Node21&#45;&gt;Node2 -->
<g id="edge35_Node000021_Node000002" class="edge">
<title>Node21&#45;&gt;Node2</title>
<g id="a_edge35_Node000021_Node000002"><a xlink:title=" ">
<path fill="none" stroke="#63b8ff" d="M837.92,-115.38C833.22,-93.91 824.29,-53.02 819.07,-29.14"/>
<polygon fill="#63b8ff" stroke="#63b8ff" points="822.46,-28.23 816.9,-19.21 815.62,-29.73 822.46,-28.23"/>
</a>
</g>
</g>
<!-- Node21&#45;&gt;Node8 -->
<g id="edge36_Node000021_Node000008" class="edge">
<title>Node21&#45;&gt;Node8</title>
<g id="a_edge36_Node000021_Node000008"><a xlink:title=" ">
<path fill="none" stroke="#63b8ff" d="M889.45,-115.49C896.65,-113.56 904,-111.67 911,-110 966.94,-96.67 1031.39,-84.16 1076.75,-75.82"/>
<polygon fill="#63b8ff" stroke="#63b8ff" points="1077.5,-79.24 1086.71,-74 1076.24,-72.36 1077.5,-79.24"/>
</a>
</g>
</g>
<!-- Node21&#45;&gt;Node10 -->
<g id="edge34_Node000021_Node000010" class="edge">
<title>Node21&#45;&gt;Node10</title>
<g id="a_edge34_Node000021_Node000010"><a xlink:title=" ">
<path fill="none" stroke="#63b8ff" d="M797.33,-115.45C761.66,-103.98 711.84,-87.96 678.33,-77.18"/>
<polygon fill="#63b8ff" stroke="#63b8ff" points="679.07,-73.75 668.48,-74.02 676.93,-80.41 679.07,-73.75"/>
</a>
</g>
</g>
<!-- Node21&#45;&gt;Node13 -->
<g id="edge37_Node000021_Node000013" class="edge">
<title>Node21&#45;&gt;Node13</title>
<g id="a_edge37_Node000021_Node000013"><a xlink:title=" ">
<path fill="none" stroke="#63b8ff" d="M793.48,-115.44C785.68,-113.43 777.65,-111.52 770,-110 671.86,-90.46 556.6,-77.86 484.92,-71.22"/>
<polygon fill="#63b8ff" stroke="#63b8ff" points="484.94,-67.71 474.67,-70.29 484.31,-74.68 484.94,-67.71"/>
</a>
</g>
</g>
<!-- Node23&#45;&gt;Node2 -->
<g id="edge46_Node000023_Node000002" class="edge">
<title>Node23&#45;&gt;Node2</title>
<g id="a_edge46_Node000023_Node000002"><a xlink:title=" ">
<path fill="none" stroke="#63b8ff" d="M1462.65,-186.76C1466.86,-161.56 1474.96,-88.42 1435,-55 1391.7,-18.78 1004.9,-12.04 865.12,-10.79"/>
<polygon fill="#63b8ff" stroke="#63b8ff" points="865.13,-7.29 855.1,-10.7 865.07,-14.29 865.13,-7.29"/>
</a>
</g>
</g>
<!-- Node23&#45;&gt;Node3 -->
<g id="edge53_Node000023_Node000003" class="edge">
<title>Node23&#45;&gt;Node3</title>
<g id="a_edge53_Node000023_Node000003"><a xlink:title=" ">
<path fill="none" stroke="#63b8ff" d="M1475.97,-186.87C1494.51,-176.18 1526.31,-157.85 1548.2,-145.22"/>
<polygon fill="#63b8ff" stroke="#63b8ff" points="1550,-148.23 1556.91,-140.2 1546.5,-142.16 1550,-148.23"/>
</a>
</g>
</g>
<!-- Node23&#45;&gt;Node7 -->
<g id="edge52_Node000023_Node000007" class="edge">
<title>Node23&#45;&gt;Node7</title>
<g id="a_edge52_Node000023_Node000007"><a xlink:title=" ">
<path fill="none" stroke="#63b8ff" d="M1437.84,-186.99C1414.85,-178.39 1378.69,-164.5 1348,-151 1343.47,-149.01 1338.69,-146.79 1334.09,-144.58"/>
<polygon fill="#63b8ff" stroke="#63b8ff" points="1335.51,-141.38 1324.99,-140.15 1332.45,-147.68 1335.51,-141.38"/>
</a>
</g>
</g>
<!-- Node24 -->
<g id="Node000024" class="node">
<title>Node24</title>
<g id="a_Node000024"><a xlink:href="macros_8h.html" target="_top" xlink:title=" ">
<polygon fill="white" stroke="#666666" points="1544,-74 1482,-74 1482,-55 1544,-55 1544,-74"/>
<text text-anchor="middle" x="1513" y="-62" font-family="Helvetica,sans-Serif" font-size="10.00">macros.h</text>
</a>
</g>
</g>
<!-- Node23&#45;&gt;Node24 -->
<g id="edge43_Node000023_Node000024" class="edge">
<title>Node23&#45;&gt;Node24</title>
<g id="a_edge43_Node000023_Node000024"><a xlink:title=" ">
<path fill="none" stroke="#63b8ff" d="M1465.7,-186.78C1470.4,-177.92 1477.65,-163.71 1483,-151 1492.51,-128.4 1501.56,-101.63 1507.19,-84.14"/>
<polygon fill="#63b8ff" stroke="#63b8ff" points="1510.67,-84.72 1510.36,-74.13 1504,-82.6 1510.67,-84.72"/>
</a>
</g>
</g>
<!-- Node26 -->
<g id="Node000026" class="node">
<title>Node26</title>
<g id="a_Node000026"><a xlink:href="actor__types_8h.html" target="_top" xlink:title=" ">
<polygon fill="white" stroke="#666666" points="1440.5,-140 1357.5,-140 1357.5,-121 1440.5,-121 1440.5,-140"/>
<text text-anchor="middle" x="1399" y="-128" font-family="Helvetica,sans-Serif" font-size="10.00">actor_types.h</text>
</a>
</g>
</g>
<!-- Node23&#45;&gt;Node26 -->
<g id="edge47_Node000023_Node000026" class="edge">
<title>Node23&#45;&gt;Node26</title>
<g id="a_edge47_Node000023_Node000026"><a xlink:title=" ">
<path fill="none" stroke="#63b8ff" d="M1452.64,-186.87C1442.99,-176.9 1426.89,-160.29 1414.85,-147.86"/>
<polygon fill="#63b8ff" stroke="#63b8ff" points="1417.1,-145.15 1407.63,-140.41 1412.07,-150.02 1417.1,-145.15"/>
</a>
</g>
</g>
<!-- Node24&#45;&gt;Node2 -->
<g id="edge45_Node000024_Node000002" class="edge">
<title>Node24&#45;&gt;Node2</title>
<g id="a_edge45_Node000024_Node000002"><a xlink:title=" ">
<path fill="none" stroke="#63b8ff" d="M1481.6,-57.08C1477.05,-56.29 1472.42,-55.57 1468,-55 1244.44,-26.37 975.3,-15.39 865.42,-11.9"/>
<polygon fill="#63b8ff" stroke="#63b8ff" points="865.39,-8.4 855.29,-11.58 865.17,-15.39 865.39,-8.4"/>
</a>
</g>
</g>
<!-- Node25 -->
<g id="Node000025" class="node">
<title>Node25</title>
<g id="a_Node000025"><a xlink:href="math_8h.html" target="_top" xlink:title=" ">
<polygon fill="white" stroke="#666666" points="1538.5,-19 1487.5,-19 1487.5,0 1538.5,0 1538.5,-19"/>
<text text-anchor="middle" x="1513" y="-7" font-family="Helvetica,sans-Serif" font-size="10.00">math.h</text>
</a>
</g>
</g>
<!-- Node24&#45;&gt;Node25 -->
<g id="edge44_Node000024_Node000025" class="edge">
<title>Node24&#45;&gt;Node25</title>
<g id="a_edge44_Node000024_Node000025"><a xlink:title=" ">
<path fill="none" stroke="#63b8ff" d="M1513,-54.75C1513,-47.8 1513,-37.85 1513,-29.13"/>
<polygon fill="#63b8ff" stroke="#63b8ff" points="1516.5,-29.09 1513,-19.09 1509.5,-29.09 1516.5,-29.09"/>
</a>
</g>
</g>
<!-- Node26&#45;&gt;Node2 -->
<g id="edge48_Node000026_Node000002" class="edge">
<title>Node26&#45;&gt;Node2</title>
<g id="a_edge48_Node000026_Node000002"><a xlink:title=" ">
<path fill="none" stroke="#63b8ff" d="M1383.75,-120.84C1354.8,-104.85 1289.48,-70.89 1230,-55 1101.7,-20.73 944.4,-12.72 865.39,-10.94"/>
<polygon fill="#63b8ff" stroke="#63b8ff" points="865.3,-7.43 855.23,-10.73 865.15,-14.43 865.3,-7.43"/>
</a>
</g>
</g>
<!-- Node26&#45;&gt;Node8 -->
<g id="edge50_Node000026_Node000008" class="edge">
<title>Node26&#45;&gt;Node8</title>
<g id="a_edge50_Node000026_Node000008"><a xlink:title=" ">
<path fill="none" stroke="#63b8ff" d="M1378.9,-120.97C1369.62,-117.24 1358.37,-113.04 1348,-110 1298,-95.32 1240.04,-83.54 1197.22,-75.8"/>
<polygon fill="#63b8ff" stroke="#63b8ff" points="1197.68,-72.32 1187.22,-74.01 1196.45,-79.22 1197.68,-72.32"/>
</a>
</g>
</g>
<!-- Node26&#45;&gt;Node24 -->
<g id="edge49_Node000026_Node000024" class="edge">
<title>Node26&#45;&gt;Node24</title>
<g id="a_edge49_Node000026_Node000024"><a xlink:title=" ">
<path fill="none" stroke="#63b8ff" d="M1414.37,-120.87C1433.41,-110.18 1466.07,-91.85 1488.56,-79.22"/>
<polygon fill="#63b8ff" stroke="#63b8ff" points="1490.5,-82.15 1497.5,-74.2 1487.07,-76.04 1490.5,-82.15"/>
</a>
</g>
</g>
<!-- Node27 -->
<g id="Node000027" class="node">
<title>Node27</title>
<g id="a_Node000027"><a xlink:title=" ">
<polygon fill="#e0e0e0" stroke="#999999" points="1426,-74 1370,-74 1370,-55 1426,-55 1426,-74"/>
<text text-anchor="middle" x="1398" y="-62" font-family="Helvetica,sans-Serif" font-size="10.00">assert.h</text>
</a>
</g>
</g>
<!-- Node26&#45;&gt;Node27 -->
<g id="edge51_Node000026_Node000027" class="edge">
<title>Node26&#45;&gt;Node27</title>
<g id="a_edge51_Node000026_Node000027"><a xlink:title=" ">
<path fill="none" stroke="#63b8ff" d="M1398.87,-120.87C1398.72,-111.66 1398.49,-96.79 1398.3,-84.77"/>
<polygon fill="#63b8ff" stroke="#63b8ff" points="1401.8,-84.35 1398.14,-74.41 1394.8,-84.46 1401.8,-84.35"/>
</a>
</g>
</g>
<!-- Node28&#45;&gt;Node2 -->
<g id="edge55_Node000028_Node000002" class="edge">
<title>Node28&#45;&gt;Node2</title>
<g id="a_edge55_Node000028_Node000002"><a xlink:title=" ">
<path fill="none" stroke="#63b8ff" d="M166.51,-109.92C204.65,-92.43 263.86,-67.66 318,-55 478.05,-17.57 673.87,-11.18 764.51,-10.38"/>
<polygon fill="#63b8ff" stroke="#63b8ff" points="764.8,-13.88 774.78,-10.31 764.75,-6.88 764.8,-13.88"/>
</a>
</g>
</g>
<!-- Node28&#45;&gt;Node10 -->
<g id="edge56_Node000028_Node000010" class="edge">
<title>Node28&#45;&gt;Node10</title>
<g id="a_edge56_Node000028_Node000010"><a xlink:title=" ">
<path fill="none" stroke="#63b8ff" d="M186.06,-111.85C189.07,-111.18 192.06,-110.56 195,-110 337.92,-82.91 509.87,-71.67 592.68,-67.57"/>
<polygon fill="#63b8ff" stroke="#63b8ff" points="592.99,-71.06 602.81,-67.08 592.65,-64.07 592.99,-71.06"/>
</a>
</g>
</g>
<!-- Node28&#45;&gt;Node13 -->
<g id="edge57_Node000028_Node000013" class="edge">
<title>Node28&#45;&gt;Node13</title>
<g id="a_edge57_Node000028_Node000013"><a xlink:title=" ">
<path fill="none" stroke="#63b8ff" d="M186.14,-112.21C189.13,-111.44 192.1,-110.7 195,-110 250.06,-96.7 313.5,-84.21 358.24,-75.87"/>
<polygon fill="#63b8ff" stroke="#63b8ff" points="359.15,-79.27 368.35,-74 357.88,-72.38 359.15,-79.27"/>
</a>
</g>
</g>
<!-- Node29&#45;&gt;Node2 -->
<g id="edge59_Node000029_Node000002" class="edge">
<title>Node29&#45;&gt;Node2</title>
<g id="a_edge59_Node000029_Node000002"><a xlink:title=" ">
<path fill="none" stroke="#63b8ff" d="M285.01,-109.84C298.82,-92.16 321.65,-67.15 348,-55 421.1,-21.3 659.74,-13.11 764.7,-11.13"/>
<polygon fill="#63b8ff" stroke="#63b8ff" points="764.79,-14.63 774.72,-10.95 764.66,-7.63 764.79,-14.63"/>
</a>
</g>
</g>
<!-- Node29&#45;&gt;Node10 -->
<g id="edge60_Node000029_Node000010" class="edge">
<title>Node29&#45;&gt;Node10</title>
<g id="a_edge60_Node000029_Node000010"><a xlink:title=" ">
<path fill="none" stroke="#63b8ff" d="M337.64,-111.99C340.8,-111.29 343.93,-110.62 347,-110 432.71,-92.59 533.7,-78.78 592.52,-71.4"/>
<polygon fill="#63b8ff" stroke="#63b8ff" points="593.16,-74.85 602.65,-70.15 592.29,-67.91 593.16,-74.85"/>
</a>
</g>
</g>
<!-- Node29&#45;&gt;Node13 -->
<g id="edge61_Node000029_Node000013" class="edge">
<title>Node29&#45;&gt;Node13</title>
<g id="a_edge61_Node000029_Node000013"><a xlink:title=" ">
<path fill="none" stroke="#63b8ff" d="M315.29,-109.95C338.73,-99.6 366.83,-87.2 387.38,-78.13"/>
<polygon fill="#63b8ff" stroke="#63b8ff" points="388.8,-81.33 396.53,-74.09 385.97,-74.93 388.8,-81.33"/>
</a>
</g>
</g>
<!-- Node30&#45;&gt;Node2 -->
<g id="edge63_Node000030_Node000002" class="edge">
<title>Node30&#45;&gt;Node2</title>
<g id="a_edge63_Node000030_Node000002"><a xlink:title=" ">
<path fill="none" stroke="#63b8ff" d="M559.34,-109.86C565.06,-92.7 575.84,-68.47 594,-55 620.48,-35.35 707.86,-22.29 764.49,-15.65"/>
<polygon fill="#63b8ff" stroke="#63b8ff" points="765.14,-19.1 774.68,-14.49 764.35,-12.15 765.14,-19.1"/>
</a>
</g>
</g>
<!-- Node30&#45;&gt;Node10 -->
<g id="edge64_Node000030_Node000010" class="edge">
<title>Node30&#45;&gt;Node10</title>
<g id="a_edge64_Node000030_Node000010"><a xlink:title=" ">
<path fill="none" stroke="#63b8ff" d="M580.88,-109.95C594.06,-100.37 609.66,-89.02 621.81,-80.19"/>
<polygon fill="#63b8ff" stroke="#63b8ff" points="623.93,-82.97 629.95,-74.26 619.81,-77.31 623.93,-82.97"/>
</a>
</g>
</g>
<!-- Node30&#45;&gt;Node13 -->
<g id="edge65_Node000030_Node000013" class="edge">
<title>Node30&#45;&gt;Node13</title>
<g id="a_edge65_Node000030_Node000013"><a xlink:title=" ">
<path fill="none" stroke="#63b8ff" d="M511.85,-109.95C489.74,-99.7 463.28,-87.43 443.77,-78.38"/>
<polygon fill="#63b8ff" stroke="#63b8ff" points="445.07,-75.12 434.53,-74.09 442.13,-81.47 445.07,-75.12"/>
</a>
</g>
</g>
<!-- Node31&#45;&gt;Node2 -->
<g id="edge67_Node000031_Node000002" class="edge">
<title>Node31&#45;&gt;Node2</title>
<g id="a_edge67_Node000031_Node000002"><a xlink:title=" ">
<path fill="none" stroke="#63b8ff" d="M398.72,-193.52C299.36,-188.96 79.4,-176.11 57,-151 44.87,-137.4 45.97,-124.51 57,-110 112.27,-37.29 165.06,-70.91 255,-55 441.02,-22.09 666.13,-13.5 764.69,-11.28"/>
<polygon fill="#63b8ff" stroke="#63b8ff" points="765.02,-14.77 774.95,-11.06 764.87,-7.77 765.02,-14.77"/>
</a>
</g>
</g>
<!-- Node31&#45;&gt;Node10 -->
<g id="edge69_Node000031_Node000010" class="edge">
<title>Node31&#45;&gt;Node10</title>
<g id="a_edge69_Node000031_Node000010"><a xlink:title=" ">
<path fill="none" stroke="#63b8ff" d="M495.28,-189.05C541.07,-181.95 605.43,-169.09 623,-151 640.19,-133.3 643.22,-103.7 643.14,-84.38"/>
<polygon fill="#63b8ff" stroke="#63b8ff" points="646.63,-84.01 642.8,-74.13 639.63,-84.24 646.63,-84.01"/>
</a>
</g>
</g>
<!-- Node31&#45;&gt;Node12 -->
<g id="edge70_Node000031_Node000012" class="edge">
<title>Node31&#45;&gt;Node12</title>
<g id="a_edge70_Node000031_Node000012"><a xlink:title=" ">
<path fill="none" stroke="#63b8ff" d="M442.82,-186.87C438.88,-178.74 432.8,-166.19 427.43,-155.09"/>
<polygon fill="#63b8ff" stroke="#63b8ff" points="430.47,-153.33 422.96,-145.86 424.17,-156.39 430.47,-153.33"/>
</a>
</g>
</g>
<!-- Node31&#45;&gt;Node18 -->
<g id="edge68_Node000031_Node000018" class="edge">
<title>Node31&#45;&gt;Node18</title>
<g id="a_edge68_Node000031_Node000018"><a xlink:title=" ">
<path fill="none" stroke="#63b8ff" d="M398.68,-193.98C292.99,-190.17 48.7,-178.44 24,-151 -4.55,-119.29 -4.08,-87.12 24,-55 59.02,-14.94 214.29,-9.48 298.78,-9.58"/>
<polygon fill="#63b8ff" stroke="#63b8ff" points="298.95,-13.08 308.97,-9.62 298.98,-6.08 298.95,-13.08"/>
</a>
</g>
</g>
<!-- Node32 -->
<g id="Node000032" class="node">
<title>Node32</title>
<g id="a_Node000032"><a xlink:href="animation_8h.html" target="_top" xlink:title=" ">
<polygon fill="white" stroke="#666666" points="995.5,-140 920.5,-140 920.5,-121 995.5,-121 995.5,-140"/>
<text text-anchor="middle" x="958" y="-128" font-family="Helvetica,sans-Serif" font-size="10.00">animation.h</text>
</a>
</g>
</g>
<!-- Node31&#45;&gt;Node32 -->
<g id="edge71_Node000031_Node000032" class="edge">
<title>Node31&#45;&gt;Node32</title>
<g id="a_edge71_Node000031_Node000032"><a xlink:title=" ">
<path fill="none" stroke="#63b8ff" d="M495.22,-195.56C580.41,-194.63 762.6,-188.02 911,-151 917.64,-149.34 924.56,-146.91 930.99,-144.31"/>
<polygon fill="#63b8ff" stroke="#63b8ff" points="932.76,-147.36 940.57,-140.19 930,-140.93 932.76,-147.36"/>
</a>
</g>
</g>
<!-- Node32&#45;&gt;Node8 -->
<g id="edge72_Node000032_Node000008" class="edge">
<title>Node32&#45;&gt;Node8</title>
<g id="a_edge72_Node000032_Node000008"><a xlink:title=" ">
<path fill="none" stroke="#63b8ff" d="M977.57,-120.83C985.69,-117.33 995.25,-113.34 1004,-110 1035.54,-97.98 1071.94,-85.74 1098.35,-77.15"/>
<polygon fill="#63b8ff" stroke="#63b8ff" points="1099.51,-80.45 1107.95,-74.05 1097.36,-73.79 1099.51,-80.45"/>
</a>
</g>
</g>
</g>
</svg>
