<?xml version="1.0" encoding="UTF-8" standalone="no"?>
<!DOCTYPE svg PUBLIC "-//W3C//DTD SVG 1.1//EN"
 "http://www.w3.org/Graphics/SVG/1.1/DTD/svg11.dtd">
<!-- Generated by graphviz version 2.43.0 (0)
 -->
<!-- Title: src/audio/port_eu.c Pages: 1 -->
<svg width="862pt" height="258pt"
 viewBox="0.00 0.00 862.50 258.00" xmlns="http://www.w3.org/2000/svg" xmlns:xlink="http://www.w3.org/1999/xlink">
<g id="graph0" class="graph" transform="scale(1 1) rotate(0) translate(4 254)">
<title>src/audio/port_eu.c</title>
<!-- Node1 -->
<g id="Node000001" class="node">
<title>Node1</title>
<g id="a_Node000001"><a xlink:title=" ">
<polygon fill="#999999" stroke="#666666" points="457.5,-250 348.5,-250 348.5,-231 457.5,-231 457.5,-250"/>
<text text-anchor="middle" x="403" y="-238" font-family="Helvetica,sans-Serif" font-size="10.00">src/audio/port_eu.c</text>
</a>
</g>
</g>
<!-- Node2 -->
<g id="Node000002" class="node">
<title>Node2</title>
<g id="a_Node000002"><a xlink:title=" ">
<polygon fill="#e0e0e0" stroke="#999999" points="308,-19 228,-19 228,0 308,0 308,-19"/>
<text text-anchor="middle" x="268" y="-7" font-family="Helvetica,sans-Serif" font-size="10.00">libultraship.h</text>
</a>
</g>
</g>
<!-- Node1&#45;&gt;Node2 -->
<g id="edge1_Node000001_Node000002" class="edge">
<title>Node1&#45;&gt;Node2</title>
<g id="a_edge1_Node000001_Node000002"><a xlink:title=" ">
<path fill="none" stroke="#63b8ff" d="M348.17,-237.17C246.65,-232.28 37.71,-219.36 16,-195 -55.84,-114.43 136.44,-47.6 225.51,-21.86"/>
<polygon fill="#63b8ff" stroke="#63b8ff" points="226.66,-25.17 235.32,-19.07 224.75,-18.44 226.66,-25.17"/>
</a>
</g>
</g>
<!-- Node3 -->
<g id="Node000003" class="node">
<title>Node3</title>
<g id="a_Node000003"><a xlink:title=" ">
<polygon fill="#e0e0e0" stroke="#999999" points="854.5,-195 747.5,-195 747.5,-176 854.5,-176 854.5,-195"/>
<text text-anchor="middle" x="801" y="-183" font-family="Helvetica,sans-Serif" font-size="10.00">libultra/message.h</text>
</a>
</g>
</g>
<!-- Node1&#45;&gt;Node3 -->
<g id="edge2_Node000001_Node000003" class="edge">
<title>Node1&#45;&gt;Node3</title>
<g id="a_edge2_Node000001_Node000003"><a xlink:title=" ">
<path fill="none" stroke="#63b8ff" d="M457.54,-232.29C521.78,-223.79 631.98,-209.18 737.22,-195.1"/>
<polygon fill="#63b8ff" stroke="#63b8ff" points="737.93,-198.54 747.38,-193.74 737.01,-191.6 737.93,-198.54"/>
</a>
</g>
</g>
<!-- Node4 -->
<g id="Node000004" class="node">
<title>Node4</title>
<g id="a_Node000004"><a xlink:href="macros_8h.html" target="_top" xlink:title=" ">
<polygon fill="white" stroke="#666666" points="729,-195 667,-195 667,-176 729,-176 729,-195"/>
<text text-anchor="middle" x="698" y="-183" font-family="Helvetica,sans-Serif" font-size="10.00">macros.h</text>
</a>
</g>
</g>
<!-- Node1&#45;&gt;Node4 -->
<g id="edge3_Node000001_Node000004" class="edge">
<title>Node1&#45;&gt;Node4</title>
<g id="a_edge3_Node000001_Node000004"><a xlink:title=" ">
<path fill="none" stroke="#63b8ff" d="M455.36,-230.94C504.76,-222.73 581.15,-209.71 656.44,-195.25"/>
<polygon fill="#63b8ff" stroke="#63b8ff" points="657.42,-198.62 666.58,-193.29 656.09,-191.75 657.42,-198.62"/>
</a>
</g>
</g>
<!-- Node6 -->
<g id="Node000006" class="node">
<title>Node6</title>
<g id="a_Node000006"><a xlink:href="synthesis_8h.html" target="_top" xlink:title=" ">
<polygon fill="white" stroke="#666666" points="127,-195 25,-195 25,-176 127,-176 127,-195"/>
<text text-anchor="middle" x="76" y="-183" font-family="Helvetica,sans-Serif" font-size="10.00">audio/synthesis.h</text>
</a>
</g>
</g>
<!-- Node1&#45;&gt;Node6 -->
<g id="edge6_Node000001_Node000006" class="edge">
<title>Node1&#45;&gt;Node6</title>
<g id="a_edge6_Node000001_Node000006"><a xlink:title=" ">
<path fill="none" stroke="#63b8ff" d="M350.46,-230.98C292.23,-221.55 198.44,-206.35 137.01,-196.39"/>
<polygon fill="#63b8ff" stroke="#63b8ff" points="137.49,-192.92 127.06,-194.78 136.37,-199.83 137.49,-192.92"/>
</a>
</g>
</g>
<!-- Node11 -->
<g id="Node000011" class="node">
<title>Node11</title>
<g id="a_Node000011"><a xlink:href="seqplayer_8h.html" target="_top" xlink:title=" ">
<polygon fill="white" stroke="#666666" points="454.5,-195 351.5,-195 351.5,-176 454.5,-176 454.5,-195"/>
<text text-anchor="middle" x="403" y="-183" font-family="Helvetica,sans-Serif" font-size="10.00">audio/seqplayer.h</text>
</a>
</g>
</g>
<!-- Node1&#45;&gt;Node11 -->
<g id="edge13_Node000001_Node000011" class="edge">
<title>Node1&#45;&gt;Node11</title>
<g id="a_edge13_Node000001_Node000011"><a xlink:title=" ">
<path fill="none" stroke="#63b8ff" d="M403,-230.75C403,-223.8 403,-213.85 403,-205.13"/>
<polygon fill="#63b8ff" stroke="#63b8ff" points="406.5,-205.09 403,-195.09 399.5,-205.09 406.5,-205.09"/>
</a>
</g>
</g>
<!-- Node13 -->
<g id="Node000013" class="node">
<title>Node13</title>
<g id="a_Node000013"><a xlink:href="port__eu_8h.html" target="_top" xlink:title=" ">
<polygon fill="white" stroke="#666666" points="333,-195 241,-195 241,-176 333,-176 333,-195"/>
<text text-anchor="middle" x="287" y="-183" font-family="Helvetica,sans-Serif" font-size="10.00">audio/port_eu.h</text>
</a>
</g>
</g>
<!-- Node1&#45;&gt;Node13 -->
<g id="edge16_Node000001_Node000013" class="edge">
<title>Node1&#45;&gt;Node13</title>
<g id="a_edge16_Node000001_Node000013"><a xlink:title=" ">
<path fill="none" stroke="#63b8ff" d="M384.36,-230.98C365.7,-222.46 336.75,-209.23 315.26,-199.41"/>
<polygon fill="#63b8ff" stroke="#63b8ff" points="316.52,-196.14 305.97,-195.17 313.61,-202.51 316.52,-196.14"/>
</a>
</g>
</g>
<!-- Node14 -->
<g id="Node000014" class="node">
<title>Node14</title>
<g id="a_Node000014"><a xlink:href="load_8h.html" target="_top" xlink:title=" ">
<polygon fill="white" stroke="#666666" points="648.5,-195 571.5,-195 571.5,-176 648.5,-176 648.5,-195"/>
<text text-anchor="middle" x="610" y="-183" font-family="Helvetica,sans-Serif" font-size="10.00">audio/load.h</text>
</a>
</g>
</g>
<!-- Node1&#45;&gt;Node14 -->
<g id="edge18_Node000001_Node000014" class="edge">
<title>Node1&#45;&gt;Node14</title>
<g id="a_edge18_Node000001_Node000014"><a xlink:title=" ">
<path fill="none" stroke="#63b8ff" d="M436.26,-230.98C471.61,-221.93 527.67,-207.58 566.51,-197.64"/>
<polygon fill="#63b8ff" stroke="#63b8ff" points="567.66,-200.95 576.48,-195.08 565.92,-194.17 567.66,-200.95"/>
</a>
</g>
</g>
<!-- Node18 -->
<g id="Node000018" class="node">
<title>Node18</title>
<g id="a_Node000018"><a xlink:href="heap_8h.html" target="_top" xlink:title=" ">
<polygon fill="white" stroke="#666666" points="553,-195 473,-195 473,-176 553,-176 553,-195"/>
<text text-anchor="middle" x="513" y="-183" font-family="Helvetica,sans-Serif" font-size="10.00">audio/heap.h</text>
</a>
</g>
</g>
<!-- Node1&#45;&gt;Node18 -->
<g id="edge24_Node000001_Node000018" class="edge">
<title>Node1&#45;&gt;Node18</title>
<g id="a_edge24_Node000001_Node000018"><a xlink:title=" ">
<path fill="none" stroke="#63b8ff" d="M420.67,-230.98C438.29,-222.5 465.58,-209.35 485.92,-199.54"/>
<polygon fill="#63b8ff" stroke="#63b8ff" points="487.51,-202.66 495,-195.17 484.47,-196.36 487.51,-202.66"/>
</a>
</g>
</g>
<!-- Node19 -->
<g id="Node000019" class="node">
<title>Node19</title>
<g id="a_Node000019"><a xlink:href="data_8h.html" target="_top" xlink:title=" ">
<polygon fill="white" stroke="#666666" points="222.5,-195 145.5,-195 145.5,-176 222.5,-176 222.5,-195"/>
<text text-anchor="middle" x="184" y="-183" font-family="Helvetica,sans-Serif" font-size="10.00">audio/data.h</text>
</a>
</g>
</g>
<!-- Node1&#45;&gt;Node19 -->
<g id="edge27_Node000001_Node000019" class="edge">
<title>Node1&#45;&gt;Node19</title>
<g id="a_edge27_Node000001_Node000019"><a xlink:title=" ">
<path fill="none" stroke="#63b8ff" d="M367.81,-230.98C330.17,-221.87 270.34,-207.4 229.22,-197.45"/>
<polygon fill="#63b8ff" stroke="#63b8ff" points="230,-194.03 219.46,-195.08 228.36,-200.84 230,-194.03"/>
</a>
</g>
</g>
<!-- Node4&#45;&gt;Node2 -->
<g id="edge5_Node000004_Node000002" class="edge">
<title>Node4&#45;&gt;Node2</title>
<g id="a_edge5_Node000004_Node000002"><a xlink:title=" ">
<path fill="none" stroke="#63b8ff" d="M708.21,-175.65C720.86,-163.54 739.73,-141.05 731,-121 713.79,-81.5 699.14,-73 660,-55 600.3,-27.55 409.91,-16.25 318.25,-12.31"/>
<polygon fill="#63b8ff" stroke="#63b8ff" points="318.24,-8.81 308.11,-11.89 317.95,-15.8 318.24,-8.81"/>
</a>
</g>
</g>
<!-- Node5 -->
<g id="Node000005" class="node">
<title>Node5</title>
<g id="a_Node000005"><a xlink:href="math_8h.html" target="_top" xlink:title=" ">
<polygon fill="white" stroke="#666666" points="721.5,-140 670.5,-140 670.5,-121 721.5,-121 721.5,-140"/>
<text text-anchor="middle" x="696" y="-128" font-family="Helvetica,sans-Serif" font-size="10.00">math.h</text>
</a>
</g>
</g>
<!-- Node4&#45;&gt;Node5 -->
<g id="edge4_Node000004_Node000005" class="edge">
<title>Node4&#45;&gt;Node5</title>
<g id="a_edge4_Node000004_Node000005"><a xlink:title=" ">
<path fill="none" stroke="#63b8ff" d="M697.67,-175.75C697.4,-168.8 697.03,-158.85 696.7,-150.13"/>
<polygon fill="#63b8ff" stroke="#63b8ff" points="700.2,-149.95 696.32,-140.09 693.2,-150.21 700.2,-149.95"/>
</a>
</g>
</g>
<!-- Node7 -->
<g id="Node000007" class="node">
<title>Node7</title>
<g id="a_Node000007"><a xlink:href="internal_8h.html" target="_top" xlink:title=" ">
<polygon fill="white" stroke="#666666" points="355.5,-140 262.5,-140 262.5,-121 355.5,-121 355.5,-140"/>
<text text-anchor="middle" x="309" y="-128" font-family="Helvetica,sans-Serif" font-size="10.00">audio/internal.h</text>
</a>
</g>
</g>
<!-- Node6&#45;&gt;Node7 -->
<g id="edge7_Node000006_Node000007" class="edge">
<title>Node6&#45;&gt;Node7</title>
<g id="a_edge7_Node000006_Node000007"><a xlink:title=" ">
<path fill="none" stroke="#63b8ff" d="M113.43,-175.98C153.65,-166.84 217.67,-152.27 261.43,-142.32"/>
<polygon fill="#63b8ff" stroke="#63b8ff" points="262.29,-145.71 271.27,-140.08 260.74,-138.89 262.29,-145.71"/>
</a>
</g>
</g>
<!-- Node10 -->
<g id="Node000010" class="node">
<title>Node10</title>
<g id="a_Node000010"><a xlink:title=" ">
<polygon fill="#e0e0e0" stroke="#999999" points="115,-140 37,-140 37,-121 115,-121 115,-140"/>
<text text-anchor="middle" x="76" y="-128" font-family="Helvetica,sans-Serif" font-size="10.00">libultra/gbi.h</text>
</a>
</g>
</g>
<!-- Node6&#45;&gt;Node10 -->
<g id="edge12_Node000006_Node000010" class="edge">
<title>Node6&#45;&gt;Node10</title>
<g id="a_edge12_Node000006_Node000010"><a xlink:title=" ">
<path fill="none" stroke="#63b8ff" d="M76,-175.75C76,-168.8 76,-158.85 76,-150.13"/>
<polygon fill="#63b8ff" stroke="#63b8ff" points="79.5,-150.09 76,-140.09 72.5,-150.09 79.5,-150.09"/>
</a>
</g>
</g>
<!-- Node7&#45;&gt;Node2 -->
<g id="edge8_Node000007_Node000002" class="edge">
<title>Node7&#45;&gt;Node2</title>
<g id="a_edge8_Node000007_Node000002"><a xlink:title=" ">
<path fill="none" stroke="#63b8ff" d="M307.36,-120.6C304.61,-106.44 298.52,-78.03 290,-55 286.59,-45.81 281.87,-36 277.68,-27.93"/>
<polygon fill="#63b8ff" stroke="#63b8ff" points="280.76,-26.28 272.94,-19.12 274.59,-29.59 280.76,-26.28"/>
</a>
</g>
</g>
<!-- Node8 -->
<g id="Node000008" class="node">
<title>Node8</title>
<g id="a_Node000008"><a xlink:href="common__structs_8h.html" target="_top" xlink:title=" ">
<polygon fill="white" stroke="#666666" points="280.5,-79.5 173.5,-79.5 173.5,-60.5 280.5,-60.5 280.5,-79.5"/>
<text text-anchor="middle" x="227" y="-67.5" font-family="Helvetica,sans-Serif" font-size="10.00">common_structs.h</text>
</a>
</g>
</g>
<!-- Node7&#45;&gt;Node8 -->
<g id="edge9_Node000007_Node000008" class="edge">
<title>Node7&#45;&gt;Node8</title>
<g id="a_edge9_Node000007_Node000008"><a xlink:title=" ">
<path fill="none" stroke="#63b8ff" d="M296.9,-120.87C283.94,-111.62 263.14,-96.78 247.59,-85.69"/>
<polygon fill="#63b8ff" stroke="#63b8ff" points="249.32,-82.63 239.15,-79.67 245.25,-88.32 249.32,-82.63"/>
</a>
</g>
</g>
<!-- Node9 -->
<g id="Node000009" class="node">
<title>Node9</title>
<g id="a_Node000009"><a xlink:href="AudioSequence_8h.html" target="_top" xlink:title=" ">
<polygon fill="white" stroke="#666666" points="443,-85 337,-85 337,-55 443,-55 443,-85"/>
<text text-anchor="start" x="345" y="-73" font-family="Helvetica,sans-Serif" font-size="10.00">port/resource/type</text>
<text text-anchor="middle" x="390" y="-62" font-family="Helvetica,sans-Serif" font-size="10.00">/AudioSequence.h</text>
</a>
</g>
</g>
<!-- Node7&#45;&gt;Node9 -->
<g id="edge11_Node000007_Node000009" class="edge">
<title>Node7&#45;&gt;Node9</title>
<g id="a_edge11_Node000007_Node000009"><a xlink:title=" ">
<path fill="none" stroke="#63b8ff" d="M320.95,-120.87C331.74,-113.08 348.02,-101.32 362.07,-91.17"/>
<polygon fill="#63b8ff" stroke="#63b8ff" points="364.4,-93.81 370.45,-85.11 360.3,-88.13 364.4,-93.81"/>
</a>
</g>
</g>
<!-- Node8&#45;&gt;Node2 -->
<g id="edge10_Node000008_Node000002" class="edge">
<title>Node8&#45;&gt;Node2</title>
<g id="a_edge10_Node000008_Node000002"><a xlink:title=" ">
<path fill="none" stroke="#63b8ff" d="M233.05,-60.37C239.1,-51.73 248.58,-38.2 256.14,-27.42"/>
<polygon fill="#63b8ff" stroke="#63b8ff" points="259.05,-29.37 261.92,-19.17 253.32,-25.35 259.05,-29.37"/>
</a>
</g>
</g>
<!-- Node11&#45;&gt;Node7 -->
<g id="edge15_Node000011_Node000007" class="edge">
<title>Node11&#45;&gt;Node7</title>
<g id="a_edge15_Node000011_Node000007"><a xlink:title=" ">
<path fill="none" stroke="#63b8ff" d="M387.89,-175.98C373.18,-167.69 350.57,-154.94 333.32,-145.22"/>
<polygon fill="#63b8ff" stroke="#63b8ff" points="334.8,-142.03 324.37,-140.17 331.37,-148.13 334.8,-142.03"/>
</a>
</g>
</g>
<!-- Node12 -->
<g id="Node000012" class="node">
<title>Node12</title>
<g id="a_Node000012"><a xlink:title=" ">
<polygon fill="#e0e0e0" stroke="#999999" points="486,-140 396,-140 396,-121 486,-121 486,-140"/>
<text text-anchor="middle" x="441" y="-128" font-family="Helvetica,sans-Serif" font-size="10.00">libultra/types.h</text>
</a>
</g>
</g>
<!-- Node11&#45;&gt;Node12 -->
<g id="edge14_Node000011_Node000012" class="edge">
<title>Node11&#45;&gt;Node12</title>
<g id="a_edge14_Node000011_Node000012"><a xlink:title=" ">
<path fill="none" stroke="#63b8ff" d="M409.27,-175.75C414.58,-168.34 422.35,-157.5 428.87,-148.41"/>
<polygon fill="#63b8ff" stroke="#63b8ff" points="431.86,-150.26 434.84,-140.09 426.17,-146.18 431.86,-150.26"/>
</a>
</g>
</g>
<!-- Node13&#45;&gt;Node7 -->
<g id="edge17_Node000013_Node000007" class="edge">
<title>Node13&#45;&gt;Node7</title>
<g id="a_edge17_Node000013_Node000007"><a xlink:title=" ">
<path fill="none" stroke="#63b8ff" d="M290.63,-175.75C293.58,-168.65 297.83,-158.4 301.5,-149.56"/>
<polygon fill="#63b8ff" stroke="#63b8ff" points="304.83,-150.67 305.43,-140.09 298.37,-147.98 304.83,-150.67"/>
</a>
</g>
</g>
<!-- Node14&#45;&gt;Node7 -->
<g id="edge20_Node000014_Node000007" class="edge">
<title>Node14&#45;&gt;Node7</title>
<g id="a_edge20_Node000014_Node000007"><a xlink:title=" ">
<path fill="none" stroke="#63b8ff" d="M571.49,-177.68C568.28,-177.11 565.08,-176.54 562,-176 494.47,-164.08 416.8,-150.43 365.52,-141.42"/>
<polygon fill="#63b8ff" stroke="#63b8ff" points="366.08,-137.97 355.63,-139.69 364.87,-144.86 366.08,-137.97"/>
</a>
</g>
</g>
<!-- Node14&#45;&gt;Node12 -->
<g id="edge19_Node000014_Node000012" class="edge">
<title>Node14&#45;&gt;Node12</title>
<g id="a_edge19_Node000014_Node000012"><a xlink:title=" ">
<path fill="none" stroke="#63b8ff" d="M582.84,-175.98C554.47,-167.09 509.76,-153.07 478.14,-143.15"/>
<polygon fill="#63b8ff" stroke="#63b8ff" points="478.95,-139.73 468.36,-140.08 476.86,-146.41 478.95,-139.73"/>
</a>
</g>
</g>
<!-- Node15 -->
<g id="Node000015" class="node">
<title>Node15</title>
<g id="a_Node000015"><a xlink:href="libaudio_8h.html" target="_top" xlink:title=" ">
<polygon fill="white" stroke="#666666" points="652,-140 572,-140 572,-121 652,-121 652,-140"/>
<text text-anchor="middle" x="612" y="-128" font-family="Helvetica,sans-Serif" font-size="10.00">PR/libaudio.h</text>
</a>
</g>
</g>
<!-- Node14&#45;&gt;Node15 -->
<g id="edge21_Node000014_Node000015" class="edge">
<title>Node14&#45;&gt;Node15</title>
<g id="a_edge21_Node000014_Node000015"><a xlink:title=" ">
<path fill="none" stroke="#63b8ff" d="M610.33,-175.75C610.59,-168.8 610.97,-158.85 611.29,-150.13"/>
<polygon fill="#63b8ff" stroke="#63b8ff" points="614.79,-150.21 611.67,-140.09 607.8,-149.95 614.79,-150.21"/>
</a>
</g>
</g>
<!-- Node17 -->
<g id="Node000017" class="node">
<title>Node17</title>
<g id="a_Node000017"><a xlink:href="stdio_8h.html" target="_top" xlink:title=" ">
<polygon fill="white" stroke="#666666" points="554,-140 504,-140 504,-121 554,-121 554,-140"/>
<text text-anchor="middle" x="529" y="-128" font-family="Helvetica,sans-Serif" font-size="10.00">stdio.h</text>
</a>
</g>
</g>
<!-- Node14&#45;&gt;Node17 -->
<g id="edge23_Node000014_Node000017" class="edge">
<title>Node14&#45;&gt;Node17</title>
<g id="a_edge23_Node000014_Node000017"><a xlink:title=" ">
<path fill="none" stroke="#63b8ff" d="M596.98,-175.98C584.54,-167.84 565.54,-155.41 550.79,-145.76"/>
<polygon fill="#63b8ff" stroke="#63b8ff" points="552.53,-142.72 542.25,-140.17 548.7,-148.57 552.53,-142.72"/>
</a>
</g>
</g>
<!-- Node16 -->
<g id="Node000016" class="node">
<title>Node16</title>
<g id="a_Node000016"><a xlink:title=" ">
<polygon fill="#e0e0e0" stroke="#999999" points="651,-79.5 573,-79.5 573,-60.5 651,-60.5 651,-79.5"/>
<text text-anchor="middle" x="612" y="-67.5" font-family="Helvetica,sans-Serif" font-size="10.00">libultra/abi.h</text>
</a>
</g>
</g>
<!-- Node15&#45;&gt;Node16 -->
<g id="edge22_Node000015_Node000016" class="edge">
<title>Node15&#45;&gt;Node16</title>
<g id="a_edge22_Node000015_Node000016"><a xlink:title=" ">
<path fill="none" stroke="#63b8ff" d="M612,-120.87C612,-112.75 612,-100.31 612,-89.89"/>
<polygon fill="#63b8ff" stroke="#63b8ff" points="615.5,-89.67 612,-79.67 608.5,-89.67 615.5,-89.67"/>
</a>
</g>
</g>
<!-- Node18&#45;&gt;Node7 -->
<g id="edge26_Node000018_Node000007" class="edge">
<title>Node18&#45;&gt;Node7</title>
<g id="a_edge26_Node000018_Node000007"><a xlink:title=" ">
<path fill="none" stroke="#63b8ff" d="M480.22,-175.98C445.38,-166.93 390.13,-152.58 351.86,-142.64"/>
<polygon fill="#63b8ff" stroke="#63b8ff" points="352.59,-139.21 342.03,-140.08 350.83,-145.98 352.59,-139.21"/>
</a>
</g>
</g>
<!-- Node18&#45;&gt;Node12 -->
<g id="edge25_Node000018_Node000012" class="edge">
<title>Node18&#45;&gt;Node12</title>
<g id="a_edge25_Node000018_Node000012"><a xlink:title=" ">
<path fill="none" stroke="#63b8ff" d="M501.43,-175.98C490.58,-168 474.12,-155.88 461.11,-146.31"/>
<polygon fill="#63b8ff" stroke="#63b8ff" points="462.9,-143.28 452.78,-140.17 458.75,-148.92 462.9,-143.28"/>
</a>
</g>
</g>
<!-- Node19&#45;&gt;Node7 -->
<g id="edge28_Node000019_Node000007" class="edge">
<title>Node19&#45;&gt;Node7</title>
<g id="a_edge28_Node000019_Node000007"><a xlink:title=" ">
<path fill="none" stroke="#63b8ff" d="M204.08,-175.98C224.37,-167.38 255.95,-153.99 279.17,-144.15"/>
<polygon fill="#63b8ff" stroke="#63b8ff" points="280.71,-147.3 288.55,-140.17 277.98,-140.85 280.71,-147.3"/>
</a>
</g>
</g>
</g>
</svg>
