<?xml version="1.0" encoding="UTF-8" standalone="no"?>
<!DOCTYPE svg PUBLIC "-//W3C//DTD SVG 1.1//EN"
 "http://www.w3.org/Graphics/SVG/1.1/DTD/svg11.dtd">
<!-- Generated by graphviz version 2.43.0 (0)
 -->
<!-- Title: func_8028F588 Pages: 1 -->
<svg width="464pt" height="83pt"
 viewBox="0.00 0.00 464.00 83.00" xmlns="http://www.w3.org/2000/svg" xmlns:xlink="http://www.w3.org/1999/xlink">
<g id="graph0" class="graph" transform="scale(1 1) rotate(0) translate(4 79)">
<title>func_8028F588</title>
<!-- Node1 -->
<g id="Node000001" class="node">
<title>Node1</title>
<g id="a_Node000001"><a xlink:title=" ">
<polygon fill="#999999" stroke="#666666" points="91,-37 0,-37 0,-18 91,-18 91,-37"/>
<text text-anchor="middle" x="45.5" y="-25" font-family="Helvetica,sans-Serif" font-size="10.00">func_8028F588</text>
</a>
</g>
</g>
<!-- Node2 -->
<g id="Node000002" class="node">
<title>Node2</title>
<g id="a_Node000002"><a xlink:href="Game_8cpp.html#a7a5ca7cbd6c70c0ef872405d46503896" target="_top" xlink:title=" ">
<polygon fill="white" stroke="#666666" points="232,-56 127,-56 127,-37 232,-37 232,-56"/>
<text text-anchor="middle" x="179.5" y="-44" font-family="Helvetica,sans-Serif" font-size="10.00">CM_IsTourEnabled</text>
</a>
</g>
</g>
<!-- Node1&#45;&gt;Node2 -->
<g id="edge1_Node000001_Node000002" class="edge">
<title>Node1&#45;&gt;Node2</title>
<g id="a_edge1_Node000001_Node000002"><a xlink:title=" ">
<path fill="none" stroke="#63b8ff" d="M91.19,-33.93C99.36,-35.11 108.02,-36.36 116.59,-37.59"/>
<polygon fill="#63b8ff" stroke="#63b8ff" points="116.17,-41.06 126.57,-39.02 117.17,-34.14 116.17,-41.06"/>
</a>
</g>
</g>
<!-- Node6 -->
<g id="Node000006" class="node">
<title>Node6</title>
<g id="a_Node000006"><a xlink:href="Editor_8cpp.html#ad9cda86dc3eb2b6511a8c9a951945014" target="_top" xlink:title=" ">
<polygon fill="white" stroke="#666666" points="228.5,-19 130.5,-19 130.5,0 228.5,0 228.5,-19"/>
<text text-anchor="middle" x="179.5" y="-7" font-family="Helvetica,sans-Serif" font-size="10.00">Editor_IsEnabled</text>
</a>
</g>
</g>
<!-- Node1&#45;&gt;Node6 -->
<g id="edge6_Node000001_Node000006" class="edge">
<title>Node1&#45;&gt;Node6</title>
<g id="a_edge6_Node000001_Node000006"><a xlink:title=" ">
<path fill="none" stroke="#63b8ff" d="M91.19,-21.41C100.51,-20.13 110.48,-18.78 120.21,-17.45"/>
<polygon fill="#63b8ff" stroke="#63b8ff" points="120.8,-20.9 130.24,-16.08 119.86,-13.96 120.8,-20.9"/>
</a>
</g>
</g>
<!-- Node3 -->
<g id="Node000003" class="node">
<title>Node3</title>
<g id="a_Node000003"><a xlink:href="Game_8cpp.html#a0967ca61e9f768c9e278fef7b8030085" target="_top" xlink:title=" ">
<polygon fill="white" stroke="#666666" points="327,-75 268,-75 268,-56 327,-56 327,-75"/>
<text text-anchor="middle" x="297.5" y="-63" font-family="Helvetica,sans-Serif" font-size="10.00">GetTrack</text>
</a>
</g>
</g>
<!-- Node2&#45;&gt;Node3 -->
<g id="edge2_Node000002_Node000003" class="edge">
<title>Node2&#45;&gt;Node3</title>
<g id="a_edge2_Node000002_Node000003"><a xlink:title=" ">
<path fill="none" stroke="#63b8ff" d="M232.05,-54.94C240.73,-56.37 249.61,-57.82 257.89,-59.18"/>
<polygon fill="#63b8ff" stroke="#63b8ff" points="257.56,-62.67 268,-60.83 258.69,-55.76 257.56,-62.67"/>
</a>
</g>
</g>
<!-- Node5 -->
<g id="Node000005" class="node">
<title>Node5</title>
<g id="a_Node000005"><a xlink:href="Game_8cpp.html#ae2fa844b3cb1021ecbc357f8ed2ad8cc" target="_top" xlink:title=" ">
<polygon fill="white" stroke="#666666" points="440.5,-38 378.5,-38 378.5,-19 440.5,-19 440.5,-38"/>
<text text-anchor="middle" x="409.5" y="-26" font-family="Helvetica,sans-Serif" font-size="10.00">GetWorld</text>
</a>
</g>
</g>
<!-- Node2&#45;&gt;Node5 -->
<g id="edge5_Node000002_Node000005" class="edge">
<title>Node2&#45;&gt;Node5</title>
<g id="a_edge5_Node000002_Node000005"><a xlink:title=" ">
<path fill="none" stroke="#63b8ff" d="M232.24,-42.42C273.43,-39.16 330.27,-34.68 368.14,-31.69"/>
<polygon fill="#63b8ff" stroke="#63b8ff" points="368.6,-35.16 378.3,-30.88 368.05,-28.18 368.6,-35.16"/>
</a>
</g>
</g>
<!-- Node4 -->
<g id="Node000004" class="node">
<title>Node4</title>
<g id="a_Node000004"><a xlink:href="classWorld.html#a1a4dacc6aea0b846df998be0afc239f7" target="_top" xlink:title=" ">
<polygon fill="white" stroke="#666666" points="456,-75 363,-75 363,-56 456,-56 456,-75"/>
<text text-anchor="middle" x="409.5" y="-63" font-family="Helvetica,sans-Serif" font-size="10.00">World::GetTrack</text>
</a>
</g>
</g>
<!-- Node3&#45;&gt;Node4 -->
<g id="edge3_Node000003_Node000004" class="edge">
<title>Node3&#45;&gt;Node4</title>
<g id="a_edge3_Node000003_Node000004"><a xlink:title=" ">
<path fill="none" stroke="#63b8ff" d="M327.11,-65.5C335.07,-65.5 343.99,-65.5 352.93,-65.5"/>
<polygon fill="#63b8ff" stroke="#63b8ff" points="352.98,-69 362.98,-65.5 352.98,-62 352.98,-69"/>
</a>
</g>
</g>
<!-- Node3&#45;&gt;Node5 -->
<g id="edge4_Node000003_Node000005" class="edge">
<title>Node3&#45;&gt;Node5</title>
<g id="a_edge4_Node000003_Node000005"><a xlink:title=" ">
<path fill="none" stroke="#63b8ff" d="M326.83,-55.97C340.07,-51.52 356.03,-46.15 370.32,-41.34"/>
<polygon fill="#63b8ff" stroke="#63b8ff" points="371.52,-44.63 379.89,-38.12 369.29,-38 371.52,-44.63"/>
</a>
</g>
</g>
</g>
</svg>
