<?xml version="1.0" encoding="UTF-8" standalone="no"?>
<!DOCTYPE svg PUBLIC "-//W3C//DTD SVG 1.1//EN"
 "http://www.w3.org/Graphics/SVG/1.1/DTD/svg11.dtd">
<!-- Generated by graphviz version 2.43.0 (0)
 -->
<!-- Title: func_802903B0 Pages: 1 -->
<svg width="231pt" height="64pt"
 viewBox="0.00 0.00 231.00 64.00" xmlns="http://www.w3.org/2000/svg" xmlns:xlink="http://www.w3.org/1999/xlink">
<g id="graph0" class="graph" transform="scale(1 1) rotate(0) translate(4 60)">
<title>func_802903B0</title>
<!-- Node1 -->
<g id="Node000001" class="node">
<title>Node1</title>
<g id="a_Node000001"><a xlink:title=" ">
<polygon fill="#999999" stroke="#666666" points="92,-37 0,-37 0,-18 92,-18 92,-37"/>
<text text-anchor="middle" x="46" y="-25" font-family="Helvetica,sans-Serif" font-size="10.00">func_802903B0</text>
</a>
</g>
</g>
<!-- Node2 -->
<g id="Node000002" class="node">
<title>Node2</title>
<g id="a_Node000002"><a xlink:href="HMAS_8cpp.html#a73c414770e0086761854237b09428fcf" target="_top" xlink:title=" ">
<polygon fill="white" stroke="#666666" points="223,-56 128,-56 128,-37 223,-37 223,-56"/>
<text text-anchor="middle" x="175.5" y="-44" font-family="Helvetica,sans-Serif" font-size="10.00">HMAS_IsPlaying</text>
</a>
</g>
</g>
<!-- Node1&#45;&gt;Node2 -->
<g id="edge1_Node000001_Node000002" class="edge">
<title>Node1&#45;&gt;Node2</title>
<g id="a_edge1_Node000001_Node000002"><a xlink:title=" ">
<path fill="none" stroke="#63b8ff" d="M92.31,-34.25C100.45,-35.47 109.03,-36.74 117.46,-38"/>
<polygon fill="#63b8ff" stroke="#63b8ff" points="117.21,-41.5 127.61,-39.51 118.24,-34.58 117.21,-41.5"/>
</a>
</g>
</g>
<!-- Node3 -->
<g id="Node000003" class="node">
<title>Node3</title>
<g id="a_Node000003"><a xlink:href="HMAS_8cpp.html#aa651a0e94efa3ddb0a63e1b4233c0aab" target="_top" xlink:title=" ">
<polygon fill="white" stroke="#666666" points="212,-19 139,-19 139,0 212,0 212,-19"/>
<text text-anchor="middle" x="175.5" y="-7" font-family="Helvetica,sans-Serif" font-size="10.00">HMAS_Stop</text>
</a>
</g>
</g>
<!-- Node1&#45;&gt;Node3 -->
<g id="edge2_Node000001_Node000003" class="edge">
<title>Node1&#45;&gt;Node3</title>
<g id="a_edge2_Node000001_Node000003"><a xlink:title=" ">
<path fill="none" stroke="#63b8ff" d="M92.31,-21.1C104.16,-19.43 116.93,-17.63 128.8,-15.95"/>
<polygon fill="#63b8ff" stroke="#63b8ff" points="129.54,-19.38 138.95,-14.52 128.56,-12.45 129.54,-19.38"/>
</a>
</g>
</g>
</g>
</svg>
