<?xml version="1.0" encoding="UTF-8" standalone="no"?>
<!DOCTYPE svg PUBLIC "-//W3C//DTD SVG 1.1//EN"
 "http://www.w3.org/Graphics/SVG/1.1/DTD/svg11.dtd">
<!-- Generated by graphviz version 2.43.0 (0)
 -->
<!-- Title: func_8028F914 Pages: 1 -->
<svg width="591pt" height="83pt"
 viewBox="0.00 0.00 591.00 83.00" xmlns="http://www.w3.org/2000/svg" xmlns:xlink="http://www.w3.org/1999/xlink">
<g id="graph0" class="graph" transform="scale(1 1) rotate(0) translate(4 79)">
<title>func_8028F914</title>
<!-- Node1 -->
<g id="Node000001" class="node">
<title>Node1</title>
<g id="a_Node000001"><a xlink:title=" ">
<polygon fill="#999999" stroke="#666666" points="91,-37 0,-37 0,-18 91,-18 91,-37"/>
<text text-anchor="middle" x="45.5" y="-25" font-family="Helvetica,sans-Serif" font-size="10.00">func_8028F914</text>
</a>
</g>
</g>
<!-- Node2 -->
<g id="Node000002" class="node">
<title>Node2</title>
<g id="a_Node000002"><a xlink:href="race__logic_8c.html#aefcaab1261ee66bab80118b8988b0a1f" target="_top" xlink:title=" ">
<polygon fill="white" stroke="#666666" points="218,-37 127,-37 127,-18 218,-18 218,-37"/>
<text text-anchor="middle" x="172.5" y="-25" font-family="Helvetica,sans-Serif" font-size="10.00">func_8028F588</text>
</a>
</g>
</g>
<!-- Node1&#45;&gt;Node2 -->
<g id="edge1_Node000001_Node000002" class="edge">
<title>Node1&#45;&gt;Node2</title>
<g id="a_edge1_Node000001_Node000002"><a xlink:title=" ">
<path fill="none" stroke="#63b8ff" d="M91.27,-27.5C99.44,-27.5 108.05,-27.5 116.47,-27.5"/>
<polygon fill="#63b8ff" stroke="#63b8ff" points="116.62,-31 126.62,-27.5 116.62,-24 116.62,-31"/>
</a>
</g>
</g>
<!-- Node3 -->
<g id="Node000003" class="node">
<title>Node3</title>
<g id="a_Node000003"><a xlink:href="Game_8cpp.html#a7a5ca7cbd6c70c0ef872405d46503896" target="_top" xlink:title=" ">
<polygon fill="white" stroke="#666666" points="359,-56 254,-56 254,-37 359,-37 359,-56"/>
<text text-anchor="middle" x="306.5" y="-44" font-family="Helvetica,sans-Serif" font-size="10.00">CM_IsTourEnabled</text>
</a>
</g>
</g>
<!-- Node2&#45;&gt;Node3 -->
<g id="edge2_Node000002_Node000003" class="edge">
<title>Node2&#45;&gt;Node3</title>
<g id="a_edge2_Node000002_Node000003"><a xlink:title=" ">
<path fill="none" stroke="#63b8ff" d="M218.19,-33.93C226.36,-35.11 235.02,-36.36 243.59,-37.59"/>
<polygon fill="#63b8ff" stroke="#63b8ff" points="243.17,-41.06 253.57,-39.02 244.17,-34.14 243.17,-41.06"/>
</a>
</g>
</g>
<!-- Node7 -->
<g id="Node000007" class="node">
<title>Node7</title>
<g id="a_Node000007"><a xlink:href="Editor_8cpp.html#ad9cda86dc3eb2b6511a8c9a951945014" target="_top" xlink:title=" ">
<polygon fill="white" stroke="#666666" points="355.5,-19 257.5,-19 257.5,0 355.5,0 355.5,-19"/>
<text text-anchor="middle" x="306.5" y="-7" font-family="Helvetica,sans-Serif" font-size="10.00">Editor_IsEnabled</text>
</a>
</g>
</g>
<!-- Node2&#45;&gt;Node7 -->
<g id="edge7_Node000002_Node000007" class="edge">
<title>Node2&#45;&gt;Node7</title>
<g id="a_edge7_Node000002_Node000007"><a xlink:title=" ">
<path fill="none" stroke="#63b8ff" d="M218.19,-21.41C227.51,-20.13 237.48,-18.78 247.21,-17.45"/>
<polygon fill="#63b8ff" stroke="#63b8ff" points="247.8,-20.9 257.24,-16.08 246.86,-13.96 247.8,-20.9"/>
</a>
</g>
</g>
<!-- Node4 -->
<g id="Node000004" class="node">
<title>Node4</title>
<g id="a_Node000004"><a xlink:href="Game_8cpp.html#a0967ca61e9f768c9e278fef7b8030085" target="_top" xlink:title=" ">
<polygon fill="white" stroke="#666666" points="454,-75 395,-75 395,-56 454,-56 454,-75"/>
<text text-anchor="middle" x="424.5" y="-63" font-family="Helvetica,sans-Serif" font-size="10.00">GetTrack</text>
</a>
</g>
</g>
<!-- Node3&#45;&gt;Node4 -->
<g id="edge3_Node000003_Node000004" class="edge">
<title>Node3&#45;&gt;Node4</title>
<g id="a_edge3_Node000003_Node000004"><a xlink:title=" ">
<path fill="none" stroke="#63b8ff" d="M359.05,-54.94C367.73,-56.37 376.61,-57.82 384.89,-59.18"/>
<polygon fill="#63b8ff" stroke="#63b8ff" points="384.56,-62.67 395,-60.83 385.69,-55.76 384.56,-62.67"/>
</a>
</g>
</g>
<!-- Node6 -->
<g id="Node000006" class="node">
<title>Node6</title>
<g id="a_Node000006"><a xlink:href="Game_8cpp.html#ae2fa844b3cb1021ecbc357f8ed2ad8cc" target="_top" xlink:title=" ">
<polygon fill="white" stroke="#666666" points="567.5,-38 505.5,-38 505.5,-19 567.5,-19 567.5,-38"/>
<text text-anchor="middle" x="536.5" y="-26" font-family="Helvetica,sans-Serif" font-size="10.00">GetWorld</text>
</a>
</g>
</g>
<!-- Node3&#45;&gt;Node6 -->
<g id="edge6_Node000003_Node000006" class="edge">
<title>Node3&#45;&gt;Node6</title>
<g id="a_edge6_Node000003_Node000006"><a xlink:title=" ">
<path fill="none" stroke="#63b8ff" d="M359.24,-42.42C400.43,-39.16 457.27,-34.68 495.14,-31.69"/>
<polygon fill="#63b8ff" stroke="#63b8ff" points="495.6,-35.16 505.3,-30.88 495.05,-28.18 495.6,-35.16"/>
</a>
</g>
</g>
<!-- Node5 -->
<g id="Node000005" class="node">
<title>Node5</title>
<g id="a_Node000005"><a xlink:href="classWorld.html#a1a4dacc6aea0b846df998be0afc239f7" target="_top" xlink:title=" ">
<polygon fill="white" stroke="#666666" points="583,-75 490,-75 490,-56 583,-56 583,-75"/>
<text text-anchor="middle" x="536.5" y="-63" font-family="Helvetica,sans-Serif" font-size="10.00">World::GetTrack</text>
</a>
</g>
</g>
<!-- Node4&#45;&gt;Node5 -->
<g id="edge4_Node000004_Node000005" class="edge">
<title>Node4&#45;&gt;Node5</title>
<g id="a_edge4_Node000004_Node000005"><a xlink:title=" ">
<path fill="none" stroke="#63b8ff" d="M454.11,-65.5C462.07,-65.5 470.99,-65.5 479.93,-65.5"/>
<polygon fill="#63b8ff" stroke="#63b8ff" points="479.98,-69 489.98,-65.5 479.98,-62 479.98,-69"/>
</a>
</g>
</g>
<!-- Node4&#45;&gt;Node6 -->
<g id="edge5_Node000004_Node000006" class="edge">
<title>Node4&#45;&gt;Node6</title>
<g id="a_edge5_Node000004_Node000006"><a xlink:title=" ">
<path fill="none" stroke="#63b8ff" d="M453.83,-55.97C467.07,-51.52 483.03,-46.15 497.32,-41.34"/>
<polygon fill="#63b8ff" stroke="#63b8ff" points="498.52,-44.63 506.89,-38.12 496.29,-38 498.52,-44.63"/>
</a>
</g>
</g>
</g>
</svg>
