<?xml version="1.0" encoding="UTF-8" standalone="no"?>
<!DOCTYPE svg PUBLIC "-//W3C//DTD SVG 1.1//EN"
 "http://www.w3.org/Graphics/SVG/1.1/DTD/svg11.dtd">
<!-- Generated by graphviz version 2.43.0 (0)
 -->
<!-- Title: RaceManager_GetRandomCPUItem Pages: 1 -->
<svg width="367pt" height="64pt"
 viewBox="0.00 0.00 367.00 64.00" xmlns="http://www.w3.org/2000/svg" xmlns:xlink="http://www.w3.org/1999/xlink">
<g id="graph0" class="graph" transform="scale(1 1) rotate(0) translate(4 60)">
<title>RaceManager_GetRandomCPUItem</title>
<!-- Node1 -->
<g id="Node000001" class="node">
<title>Node1</title>
<g id="a_Node000001"><a xlink:title=" ">
<polygon fill="#999999" stroke="#666666" points="189,-37 0,-37 0,-18 189,-18 189,-37"/>
<text text-anchor="middle" x="94.5" y="-25" font-family="Helvetica,sans-Serif" font-size="10.00">RaceManager_GetRandomCPUItem</text>
</a>
</g>
</g>
<!-- Node2 -->
<g id="Node000002" class="node">
<title>Node2</title>
<g id="a_Node000002"><a xlink:href="classWorld.html#afa31aec713e3a54e22e4406e4442107d" target="_top" xlink:title=" ">
<polygon fill="white" stroke="#666666" points="359,-56 225,-56 225,-37 359,-37 359,-56"/>
<text text-anchor="middle" x="292" y="-44" font-family="Helvetica,sans-Serif" font-size="10.00">World::GetRaceManager</text>
</a>
</g>
</g>
<!-- Node1&#45;&gt;Node2 -->
<g id="edge1_Node000001_Node000002" class="edge">
<title>Node1&#45;&gt;Node2</title>
<g id="a_edge1_Node000001_Node000002"><a xlink:title=" ">
<path fill="none" stroke="#63b8ff" d="M189.24,-36.61C197.81,-37.44 206.42,-38.28 214.81,-39.1"/>
<polygon fill="#63b8ff" stroke="#63b8ff" points="214.62,-42.59 224.91,-40.08 215.3,-35.63 214.62,-42.59"/>
</a>
</g>
</g>
<!-- Node3 -->
<g id="Node000003" class="node">
<title>Node3</title>
<g id="a_Node000003"><a xlink:href="Game_8cpp.html#ae2fa844b3cb1021ecbc357f8ed2ad8cc" target="_top" xlink:title=" ">
<polygon fill="white" stroke="#666666" points="323,-19 261,-19 261,0 323,0 323,-19"/>
<text text-anchor="middle" x="292" y="-7" font-family="Helvetica,sans-Serif" font-size="10.00">GetWorld</text>
</a>
</g>
</g>
<!-- Node1&#45;&gt;Node3 -->
<g id="edge2_Node000001_Node000003" class="edge">
<title>Node1&#45;&gt;Node3</title>
<g id="a_edge2_Node000001_Node000003"><a xlink:title=" ">
<path fill="none" stroke="#63b8ff" d="M189.24,-18.87C210.87,-16.88 232.76,-14.86 250.66,-13.21"/>
<polygon fill="#63b8ff" stroke="#63b8ff" points="251.08,-16.69 260.71,-12.29 250.44,-9.72 251.08,-16.69"/>
</a>
</g>
</g>
</g>
</svg>
