<?xml version="1.0" encoding="UTF-8" standalone="no"?>
<!DOCTYPE svg PUBLIC "-//W3C//DTD SVG 1.1//EN"
 "http://www.w3.org/Graphics/SVG/1.1/DTD/svg11.dtd">
<!-- Generated by graphviz version 2.43.0 (0)
 -->
<!-- Title: update_actor_railroad_crossing Pages: 1 -->
<svg width="450pt" height="82pt"
 viewBox="0.00 0.00 450.00 82.00" xmlns="http://www.w3.org/2000/svg" xmlns:xlink="http://www.w3.org/1999/xlink">
<g id="graph0" class="graph" transform="scale(1 1) rotate(0) translate(4 78)">
<title>update_actor_railroad_crossing</title>
<!-- Node1 -->
<g id="Node000001" class="node">
<title>Node1</title>
<g id="a_Node000001"><a xlink:title="Updates the railroad crossing actor. Actor used in Kalimari Desert. Make the sound of the bell when t...">
<polygon fill="#999999" stroke="#666666" points="123,-60.5 0,-60.5 0,-30.5 123,-30.5 123,-60.5"/>
<text text-anchor="start" x="8" y="-48.5" font-family="Helvetica,sans-Serif" font-size="10.00">update_actor_railroad</text>
<text text-anchor="middle" x="61.5" y="-37.5" font-family="Helvetica,sans-Serif" font-size="10.00">_crossing</text>
</a>
</g>
</g>
<!-- Node2 -->
<g id="Node000002" class="node">
<title>Node2</title>
<g id="a_Node000002"><a xlink:href="Game_8cpp.html#aa21d837dda0de9d4b92d34bb4cfac7a9" target="_top" xlink:title=" ">
<polygon fill="white" stroke="#666666" points="314,-74 159,-74 159,-55 314,-55 314,-74"/>
<text text-anchor="middle" x="236.5" y="-62" font-family="Helvetica,sans-Serif" font-size="10.00">CM_GetCrossingOnTriggered</text>
</a>
</g>
</g>
<!-- Node1&#45;&gt;Node2 -->
<g id="edge1_Node000001_Node000002" class="edge">
<title>Node1&#45;&gt;Node2</title>
<g id="a_edge1_Node000001_Node000002"><a xlink:title=" ">
<path fill="none" stroke="#63b8ff" d="M123.01,-52.15C131.34,-53.06 140.03,-54.01 148.72,-54.97"/>
<polygon fill="#63b8ff" stroke="#63b8ff" points="148.59,-58.48 158.91,-56.09 149.35,-51.52 148.59,-58.48"/>
</a>
</g>
</g>
<!-- Node3 -->
<g id="Node000003" class="node">
<title>Node3</title>
<g id="a_Node000003"><a xlink:href="external_8c.html#acb60983213d09ee795e80ca3c8b5975e" target="_top" xlink:title=" ">
<polygon fill="white" stroke="#666666" points="282.5,-37 190.5,-37 190.5,-18 282.5,-18 282.5,-37"/>
<text text-anchor="middle" x="236.5" y="-25" font-family="Helvetica,sans-Serif" font-size="10.00">func_800C98B8</text>
</a>
</g>
</g>
<!-- Node1&#45;&gt;Node3 -->
<g id="edge2_Node000001_Node000003" class="edge">
<title>Node1&#45;&gt;Node3</title>
<g id="a_edge2_Node000001_Node000003"><a xlink:title=" ">
<path fill="none" stroke="#63b8ff" d="M123.01,-39.2C141.58,-37.27 161.92,-35.16 180.14,-33.26"/>
<polygon fill="#63b8ff" stroke="#63b8ff" points="180.71,-36.72 190.3,-32.2 179.99,-29.76 180.71,-36.72"/>
</a>
</g>
</g>
<!-- Node4 -->
<g id="Node000004" class="node">
<title>Node4</title>
<g id="a_Node000004"><a xlink:href="external_8c.html#a747de0be4005b4b29150d5c068564b7d" target="_top" xlink:title=" ">
<polygon fill="white" stroke="#666666" points="442,-56 350,-56 350,-37 442,-37 442,-56"/>
<text text-anchor="middle" x="396" y="-44" font-family="Helvetica,sans-Serif" font-size="10.00">func_800C1C88</text>
</a>
</g>
</g>
<!-- Node3&#45;&gt;Node4 -->
<g id="edge3_Node000003_Node000004" class="edge">
<title>Node3&#45;&gt;Node4</title>
<g id="a_edge3_Node000003_Node000004"><a xlink:title=" ">
<path fill="none" stroke="#63b8ff" d="M282.63,-32.94C300.43,-35.09 321.04,-37.58 339.71,-39.83"/>
<polygon fill="#63b8ff" stroke="#63b8ff" points="339.51,-43.33 349.86,-41.05 340.35,-36.38 339.51,-43.33"/>
</a>
</g>
</g>
<!-- Node5 -->
<g id="Node000005" class="node">
<title>Node5</title>
<g id="a_Node000005"><a xlink:href="external_8c.html#a475cff796211891556f52877cd8e9b9e" target="_top" xlink:title=" ">
<polygon fill="white" stroke="#666666" points="432,-19 360,-19 360,0 432,0 432,-19"/>
<text text-anchor="middle" x="396" y="-7" font-family="Helvetica,sans-Serif" font-size="10.00">play_sound</text>
</a>
</g>
</g>
<!-- Node3&#45;&gt;Node5 -->
<g id="edge4_Node000003_Node000005" class="edge">
<title>Node3&#45;&gt;Node5</title>
<g id="a_edge4_Node000003_Node000005"><a xlink:title=" ">
<path fill="none" stroke="#63b8ff" d="M282.63,-22.34C303.72,-19.93 328.78,-17.07 349.87,-14.66"/>
<polygon fill="#63b8ff" stroke="#63b8ff" points="350.33,-18.13 359.87,-13.51 349.54,-11.17 350.33,-18.13"/>
</a>
</g>
</g>
</g>
</svg>
