<?xml version="1.0" encoding="UTF-8" standalone="no"?>
<!DOCTYPE svg PUBLIC "-//W3C//DTD SVG 1.1//EN"
 "http://www.w3.org/Graphics/SVG/1.1/DTD/svg11.dtd">
<!-- Generated by graphviz version 2.43.0 (0)
 -->
<!-- Title: src/engine/RandomItemTable.h Pages: 1 -->
<svg width="638pt" height="93pt"
 viewBox="0.00 0.00 638.00 93.00" xmlns="http://www.w3.org/2000/svg" xmlns:xlink="http://www.w3.org/1999/xlink">
<g id="graph0" class="graph" transform="scale(1 1) rotate(0) translate(4 89)">
<title>src/engine/RandomItemTable.h</title>
<!-- Node1 -->
<g id="Node000001" class="node">
<title>Node1</title>
<g id="a_Node000001"><a xlink:title=" ">
<polygon fill="#999999" stroke="#666666" points="434.5,-85 267.5,-85 267.5,-66 434.5,-66 434.5,-85"/>
<text text-anchor="middle" x="351" y="-73" font-family="Helvetica,sans-Serif" font-size="10.00">src/engine/RandomItemTable.h</text>
</a>
</g>
</g>
<!-- Node2 -->
<g id="Node000002" class="node">
<title>Node2</title>
<g id="a_Node000002"><a xlink:href="RaceManager_8cpp.html" target="_top" xlink:title=" ">
<polygon fill="white" stroke="#666666" points="156,-24.5 0,-24.5 0,-5.5 156,-5.5 156,-24.5"/>
<text text-anchor="middle" x="78" y="-12.5" font-family="Helvetica,sans-Serif" font-size="10.00">src/engine/RaceManager.cpp</text>
</a>
</g>
</g>
<!-- Node1&#45;&gt;Node2 -->
<g id="edge1_Node000001_Node000002" class="edge">
<title>Node1&#45;&gt;Node2</title>
<g id="a_edge1_Node000001_Node000002"><a xlink:title=" ">
<path fill="none" stroke="#63b8ff" d="M301.5,-63.89C248.78,-52.6 166.39,-34.94 117.74,-24.52"/>
<polygon fill="#63b8ff" stroke="#63b8ff" points="300.79,-67.32 311.3,-65.99 302.26,-60.48 300.79,-67.32"/>
</a>
</g>
</g>
<!-- Node3 -->
<g id="Node000003" class="node">
<title>Node3</title>
<g id="a_Node000003"><a xlink:href="RandomItemTable_8cpp.html" target="_top" xlink:title=" ">
<polygon fill="white" stroke="#666666" points="353.5,-24.5 174.5,-24.5 174.5,-5.5 353.5,-5.5 353.5,-24.5"/>
<text text-anchor="middle" x="264" y="-12.5" font-family="Helvetica,sans-Serif" font-size="10.00">src/engine/RandomItemTable.cpp</text>
</a>
</g>
</g>
<!-- Node1&#45;&gt;Node3 -->
<g id="edge2_Node000001_Node000003" class="edge">
<title>Node1&#45;&gt;Node3</title>
<g id="a_edge2_Node000001_Node000003"><a xlink:title=" ">
<path fill="none" stroke="#63b8ff" d="M329.67,-60.16C313.14,-49.05 290.79,-34.01 276.89,-24.67"/>
<polygon fill="#63b8ff" stroke="#63b8ff" points="327.91,-63.19 338.16,-65.87 331.82,-57.38 327.91,-63.19"/>
</a>
</g>
</g>
<!-- Node4 -->
<g id="Node000004" class="node">
<title>Node4</title>
<g id="a_Node000004"><a xlink:href="RegisterItemTables_8cpp.html" target="_top" xlink:title=" ">
<polygon fill="white" stroke="#666666" points="506,-30 372,-30 372,0 506,0 506,-30"/>
<text text-anchor="start" x="380" y="-18" font-family="Helvetica,sans-Serif" font-size="10.00">src/engine/registry</text>
<text text-anchor="middle" x="439" y="-7" font-family="Helvetica,sans-Serif" font-size="10.00">/RegisterItemTables.cpp</text>
</a>
</g>
</g>
<!-- Node1&#45;&gt;Node4 -->
<g id="edge3_Node000001_Node000004" class="edge">
<title>Node1&#45;&gt;Node4</title>
<g id="a_edge3_Node000001_Node000004"><a xlink:title=" ">
<path fill="none" stroke="#63b8ff" d="M372.37,-60.29C386.16,-51.13 404.01,-39.26 417.77,-30.11"/>
<polygon fill="#63b8ff" stroke="#63b8ff" points="370.37,-57.42 363.98,-65.87 374.25,-63.25 370.37,-57.42"/>
</a>
</g>
</g>
<!-- Node5 -->
<g id="Node000005" class="node">
<title>Node5</title>
<g id="a_Node000005"><a xlink:href="Game_8cpp.html" target="_top" xlink:title=" ">
<polygon fill="white" stroke="#666666" points="630,-24.5 524,-24.5 524,-5.5 630,-5.5 630,-24.5"/>
<text text-anchor="middle" x="577" y="-12.5" font-family="Helvetica,sans-Serif" font-size="10.00">src/port/Game.cpp</text>
</a>
</g>
</g>
<!-- Node1&#45;&gt;Node5 -->
<g id="edge4_Node000001_Node000005" class="edge">
<title>Node1&#45;&gt;Node5</title>
<g id="a_edge4_Node000001_Node000005"><a xlink:title=" ">
<path fill="none" stroke="#63b8ff" d="M393.62,-63.47C437.32,-52.16 504.33,-34.81 544.1,-24.52"/>
<polygon fill="#63b8ff" stroke="#63b8ff" points="392.67,-60.1 383.86,-65.99 394.42,-66.88 392.67,-60.1"/>
</a>
</g>
</g>
</g>
</svg>
