<?xml version="1.0" encoding="UTF-8" standalone="no"?>
<!DOCTYPE svg PUBLIC "-//W3C//DTD SVG 1.1//EN"
 "http://www.w3.org/Graphics/SVG/1.1/DTD/svg11.dtd">
<!-- Generated by graphviz version 2.43.0 (0)
 -->
<!-- Title: RegisterActors Pages: 1 -->
<!--zoomable 582 -->

<svg id="main" version="1.1" xmlns="http://www.w3.org/2000/svg" xmlns:xlink="http://www.w3.org/1999/xlink" xml:space="preserve" onload="init(evt)">

<style type="text/css"><![CDATA[
.node, .edge {opacity: 0.7;}
.node.selected, .edge.selected {opacity: 1;}
.edge:hover path { stroke: red; }
.edge:hover polygon { stroke: red; fill: red; }
]]></style>

<defs>
  <circle id="rim" cx="0" cy="0" r="7"/>
  <circle id="rim2" cx="0" cy="0" r="3.5"/>
  <g id="zoomPlus">
    <use xlink:href="#rim" fill="#404040"><set attributeName="fill" to="#808080" begin="zoomplus.mouseover" end="zoomplus.mouseout"/></use>
    <path d="M-4,0h8M0,-4v8" fill="none" stroke="white" stroke-width="1.5" pointer-events="none"/>
  </g>
  <g id="zoomMin">
    <use xlink:href="#rim" fill="#404040"><set attributeName="fill" to="#808080" begin="zoomminus.mouseover" end="zoomminus.mouseout"/></use>
    <path d="M-4,0h8" fill="none" stroke="white" stroke-width="1.5" pointer-events="none"/>
  </g>
  <g id="arrowUp" transform="translate(30 24)">
    <use xlink:href="#rim"/>
    <path pointer-events="none" fill="none" stroke="white" stroke-width="1.5" d="M0,-3.0v7 M-2.5,-0.5L0,-3.0L2.5,-0.5"/>
  </g>
  <g id="arrowRight" transform="rotate(90) translate(36 -43)">
    <use xlink:href="#rim"/>
    <path pointer-events="none" fill="none" stroke="white" stroke-width="1.5" d="M0,-3.0v7 M-2.5,-0.5L0,-3.0L2.5,-0.5"/>
  </g>
  <g id="arrowDown" transform="rotate(180) translate(-30 -48)">
    <use xlink:href="#rim"/>
    <path pointer-events="none" fill="none" stroke="white" stroke-width="1.5" d="M0,-3.0v7 M-2.5,-0.5L0,-3.0L2.5,-0.5"/>
  </g>
  <g id="arrowLeft" transform="rotate(270) translate(-36 17)">
    <use xlink:href="#rim"/>
    <path pointer-events="none" fill="none" stroke="white" stroke-width="1.5" d="M0,-3.0v7 M-2.5,-0.5L0,-3.0L2.5,-0.5"/>
  </g>
  <g id="resetDef">
    <use xlink:href="#rim2" fill="#404040"><set attributeName="fill" to="#808080" begin="reset.mouseover" end="reset.mouseout"/></use>
  </g>
</defs>
<script type="application/ecmascript">
var viewWidth = 1764;
var viewHeight = 582;
var sectionId = 'dynsection-1';
</script>
<script type="application/ecmascript" xlink:href="svg.min.js"/>
<svg id="graph" class="graph">
<g id="viewport">
<title>RegisterActors</title>
<!-- Node1 -->
<g id="Node000001" class="node">
<title>Node1</title>
<g id="a_Node000001"><a xlink:title=" ">
<polygon fill="#999999" stroke="#666666" points="88,-384 0,-384 0,-365 88,-365 88,-384"/>
<text text-anchor="middle" x="44" y="-372" font-family="Helvetica,sans-Serif" font-size="10.00">RegisterActors</text>
</a>
</g>
</g>
<!-- Node2 -->
<g id="Node000002" class="node">
<title>Node2</title>
<g id="a_Node000002"><a xlink:href="classRegistry.html#a8f0c6ec996ab1fc135d19b3b86640896" target="_top" xlink:title=" ">
<polygon fill="white" stroke="#666666" points="227,-553 146,-553 146,-534 227,-534 227,-553"/>
<text text-anchor="middle" x="186.5" y="-541" font-family="Helvetica,sans-Serif" font-size="10.00">Registry::Add</text>
</a>
</g>
</g>
<!-- Node1&#45;&gt;Node2 -->
<g id="edge1_Node000001_Node000002" class="edge">
<title>Node1&#45;&gt;Node2</title>
<g id="a_edge1_Node000001_Node000002"><a xlink:title=" ">
<path fill="none" stroke="#63b8ff" d="M47.27,-384.32C54,-411.18 76.41,-486.48 124,-525.5 127.73,-528.56 131.96,-531.1 136.41,-533.2"/>
<polygon fill="#63b8ff" stroke="#63b8ff" points="135.19,-536.48 145.78,-536.95 137.79,-529.99 135.19,-536.48"/>
</a>
</g>
</g>
<!-- Node3 -->
<g id="Node000003" class="node">
<title>Node3</title>
<g id="a_Node000003"><a xlink:href="actors_8c.html#a91fb2e4e37e7c72fea918fe2c1bb4eaf" target="_top" xlink:title=" ">
<polygon fill="white" stroke="#666666" points="425,-327 285,-327 285,-308 425,-308 425,-327"/>
<text text-anchor="middle" x="355" y="-315" font-family="Helvetica,sans-Serif" font-size="10.00">add_actor_to_empty_slot</text>
</a>
</g>
</g>
<!-- Node1&#45;&gt;Node3 -->
<g id="edge2_Node000001_Node000003" class="edge">
<title>Node1&#45;&gt;Node3</title>
<g id="a_edge2_Node000001_Node000003"><a xlink:title=" ">
<path fill="none" stroke="#63b8ff" d="M88.29,-366.51C141.36,-356.72 231.67,-340.07 292.08,-328.92"/>
<polygon fill="#63b8ff" stroke="#63b8ff" points="293.05,-332.3 302.25,-327.05 291.78,-325.42 293.05,-332.3"/>
</a>
</g>
</g>
<!-- Node36 -->
<g id="Node000036" class="node">
<title>Node36</title>
<g id="a_Node000036"><a xlink:href="RegisterContent_8h.html#aa90aab222b9cb6a7a75c2ed09379eb4e" target="_top" xlink:title=" ">
<polygon fill="white" stroke="#666666" points="236,-516 137,-516 137,-497 236,-497 236,-516"/>
<text text-anchor="middle" x="186.5" y="-504" font-family="Helvetica,sans-Serif" font-size="10.00">AddActorToWorld</text>
</a>
</g>
</g>
<!-- Node1&#45;&gt;Node36 -->
<g id="edge39_Node000001_Node000036" class="edge">
<title>Node1&#45;&gt;Node36</title>
<g id="a_edge39_Node000001_Node000036"><a xlink:title=" ">
<path fill="none" stroke="#63b8ff" d="M51.29,-384.03C63.64,-402.23 92.59,-442.53 124,-469.5 133.97,-478.06 146.17,-485.85 157.06,-492.04"/>
<polygon fill="#63b8ff" stroke="#63b8ff" points="155.37,-495.11 165.82,-496.86 158.74,-488.98 155.37,-495.11"/>
</a>
</g>
</g>
<!-- Node38 -->
<g id="Node000038" class="node">
<title>Node38</title>
<g id="a_Node000038"><a xlink:href="RegisterContent_8h.html#aa0abd506fe572b3e6491f613a4017641" target="_top" xlink:title=" ">
<polygon fill="white" stroke="#666666" points="239,-460 134,-460 134,-441 239,-441 239,-460"/>
<text text-anchor="middle" x="186.5" y="-448" font-family="Helvetica,sans-Serif" font-size="10.00">AddObjectToWorld</text>
</a>
</g>
</g>
<!-- Node1&#45;&gt;Node38 -->
<g id="edge42_Node000001_Node000038" class="edge">
<title>Node1&#45;&gt;Node38</title>
<g id="a_edge42_Node000001_Node000038"><a xlink:title=" ">
<path fill="none" stroke="#63b8ff" d="M62.79,-384.13C87.08,-397.26 130.78,-420.9 158.95,-436.14"/>
<polygon fill="#63b8ff" stroke="#63b8ff" points="157.39,-439.27 167.85,-440.95 160.72,-433.12 157.39,-439.27"/>
</a>
</g>
</g>
<!-- Node40 -->
<g id="Node000040" class="node">
<title>Node40</title>
<g id="a_Node000040"><a xlink:href="actors_8c.html#a4ea5c435e8d75c52a2551d3ff64fb212" target="_top" xlink:title=" ">
<polygon fill="white" stroke="#666666" points="249,-160 124,-160 124,-141 249,-141 249,-160"/>
<text text-anchor="middle" x="186.5" y="-148" font-family="Helvetica,sans-Serif" font-size="10.00">spawn_fake_item_box</text>
</a>
</g>
</g>
<!-- Node1&#45;&gt;Node40 -->
<g id="edge45_Node000001_Node000040" class="edge">
<title>Node1&#45;&gt;Node40</title>
<g id="a_edge45_Node000001_Node000040"><a xlink:title=" ">
<path fill="none" stroke="#63b8ff" d="M51.04,-364.88C72.56,-330.55 145.79,-213.81 174.15,-168.6"/>
<polygon fill="#63b8ff" stroke="#63b8ff" points="177.14,-170.42 179.49,-160.09 171.21,-166.7 177.14,-170.42"/>
</a>
</g>
</g>
<!-- Node45 -->
<g id="Node000045" class="node">
<title>Node45</title>
<g id="a_Node000045"><a xlink:href="actors_8c.html#ab94b87f4f45d885770add5f4013a753a" target="_top" xlink:title=" ">
<polygon fill="white" stroke="#666666" points="236,-122 137,-122 137,-103 236,-103 236,-122"/>
<text text-anchor="middle" x="186.5" y="-110" font-family="Helvetica,sans-Serif" font-size="10.00">spawn_item_box</text>
</a>
</g>
</g>
<!-- Node1&#45;&gt;Node45 -->
<g id="edge52_Node000001_Node000045" class="edge">
<title>Node1&#45;&gt;Node45</title>
<g id="a_edge52_Node000001_Node000045"><a xlink:title=" ">
<path fill="none" stroke="#63b8ff" d="M45.2,-364.59C46.48,-328.2 55.83,-200.59 124,-132.5 125.91,-130.59 128.01,-128.86 130.23,-127.3"/>
<polygon fill="#63b8ff" stroke="#63b8ff" points="132.44,-130.07 139.38,-122.06 128.96,-124 132.44,-130.07"/>
</a>
</g>
</g>
<!-- Node4 -->
<g id="Node000004" class="node">
<title>Node4</title>
<g id="a_Node000004"><a xlink:href="actors_8c.html#a39c023177b5a7686cdd1fc65b8b953e1" target="_top" xlink:title=" ">
<polygon fill="white" stroke="#666666" points="561,-216 499,-216 499,-197 561,-197 561,-216"/>
<text text-anchor="middle" x="530" y="-204" font-family="Helvetica,sans-Serif" font-size="10.00">actor_init</text>
</a>
</g>
</g>
<!-- Node3&#45;&gt;Node4 -->
<g id="edge3_Node000003_Node000004" class="edge">
<title>Node3&#45;&gt;Node4</title>
<g id="a_edge3_Node000003_Node000004"><a xlink:title=" ">
<path fill="none" stroke="#63b8ff" d="M371.05,-307.84C401.21,-288.49 469.26,-244.83 505.4,-221.64"/>
<polygon fill="#63b8ff" stroke="#63b8ff" points="507.34,-224.56 513.86,-216.21 503.55,-218.67 507.34,-224.56"/>
</a>
</g>
</g>
<!-- Node27 -->
<g id="Node000027" class="node">
<title>Node27</title>
<g id="a_Node000027"><a xlink:href="Game_8cpp.html#acea5cfd9ab22f745bd6627869b95a62e" target="_top" xlink:title=" ">
<polygon fill="white" stroke="#666666" points="586,-384 474,-384 474,-365 586,-365 586,-384"/>
<text text-anchor="middle" x="530" y="-372" font-family="Helvetica,sans-Serif" font-size="10.00">CM_ActorBeginPlay</text>
</a>
</g>
</g>
<!-- Node3&#45;&gt;Node27 -->
<g id="edge26_Node000003_Node000027" class="edge">
<title>Node3&#45;&gt;Node27</title>
<g id="a_edge26_Node000003_Node000027"><a xlink:title=" ">
<path fill="none" stroke="#63b8ff" d="M384.96,-327.04C413.77,-336.53 458.18,-351.17 490.07,-361.67"/>
<polygon fill="#63b8ff" stroke="#63b8ff" points="489.36,-365.12 499.95,-364.93 491.55,-358.47 489.36,-365.12"/>
</a>
</g>
</g>
<!-- Node33 -->
<g id="Node000033" class="node">
<title>Node33</title>
<g id="a_Node000033"><a xlink:href="Game_8cpp.html#a42f23077aaa52cb3ea5c7803b7dd6816" target="_top" xlink:title=" ">
<polygon fill="white" stroke="#666666" points="583,-327 477,-327 477,-308 583,-308 583,-327"/>
<text text-anchor="middle" x="530" y="-315" font-family="Helvetica,sans-Serif" font-size="10.00">CM_AddBaseActor</text>
</a>
</g>
</g>
<!-- Node3&#45;&gt;Node33 -->
<g id="edge34_Node000003_Node000033" class="edge">
<title>Node3&#45;&gt;Node33</title>
<g id="a_edge34_Node000003_Node000033"><a xlink:title=" ">
<path fill="none" stroke="#63b8ff" d="M425.37,-317.5C439.08,-317.5 453.38,-317.5 466.84,-317.5"/>
<polygon fill="#63b8ff" stroke="#63b8ff" points="466.93,-321 476.93,-317.5 466.93,-314 466.93,-321"/>
</a>
</g>
</g>
<!-- Node35 -->
<g id="Node000035" class="node">
<title>Node35</title>
<g id="a_Node000035"><a xlink:href="Game_8cpp.html#a0841ffe9a66e95aca42438b9d8ffc3d3" target="_top" xlink:title=" ">
<polygon fill="white" stroke="#666666" points="580.5,-441 479.5,-441 479.5,-422 580.5,-422 580.5,-441"/>
<text text-anchor="middle" x="530" y="-429" font-family="Helvetica,sans-Serif" font-size="10.00">CM_GetActorSize</text>
</a>
</g>
</g>
<!-- Node3&#45;&gt;Node35 -->
<g id="edge37_Node000003_Node000035" class="edge">
<title>Node3&#45;&gt;Node35</title>
<g id="a_edge37_Node000003_Node000035"><a xlink:title=" ">
<path fill="none" stroke="#63b8ff" d="M368.28,-327.11C387.55,-342.03 426.29,-371.34 461,-393.5 473.99,-401.79 488.89,-410.23 501.42,-417.04"/>
<polygon fill="#63b8ff" stroke="#63b8ff" points="500.01,-420.26 510.48,-421.91 503.32,-414.09 500.01,-420.26"/>
</a>
</g>
</g>
<!-- Node5 -->
<g id="Node000005" class="node">
<title>Node5</title>
<g id="a_Node000005"><a xlink:href="collision_8c.html#a37aa55b3768d001533ad75e7f1b8388a" target="_top" xlink:title=" ">
<polygon fill="white" stroke="#666666" points="776,-271 635,-271 635,-252 776,-252 776,-271"/>
<text text-anchor="middle" x="705.5" y="-259" font-family="Helvetica,sans-Serif" font-size="10.00">check_bounding_collision</text>
</a>
</g>
</g>
<!-- Node4&#45;&gt;Node5 -->
<g id="edge4_Node000004_Node000005" class="edge">
<title>Node4&#45;&gt;Node5</title>
<g id="a_edge4_Node000004_Node000005"><a xlink:title=" ">
<path fill="none" stroke="#63b8ff" d="M556.01,-216.1C576.95,-223.97 607.7,-235.13 635,-243.5 641.48,-245.49 648.35,-247.45 655.15,-249.29"/>
<polygon fill="#63b8ff" stroke="#63b8ff" points="654.44,-252.73 665,-251.92 656.24,-245.96 654.44,-252.73"/>
</a>
</g>
</g>
<!-- Node9 -->
<g id="Node000009" class="node">
<title>Node9</title>
<g id="a_Node000009"><a xlink:href="actors_8c.html#a1a9bccb586242555a9123ebd4ab70f2a" target="_top" xlink:title=" ">
<polygon fill="white" stroke="#666666" points="771.5,-122.5 639.5,-122.5 639.5,-92.5 771.5,-92.5 771.5,-122.5"/>
<text text-anchor="start" x="647.5" y="-110.5" font-family="Helvetica,sans-Serif" font-size="10.00">cleanup_red_and_green</text>
<text text-anchor="middle" x="705.5" y="-99.5" font-family="Helvetica,sans-Serif" font-size="10.00">_shells</text>
</a>
</g>
</g>
<!-- Node4&#45;&gt;Node9 -->
<g id="edge8_Node000004_Node000009" class="edge">
<title>Node4&#45;&gt;Node9</title>
<g id="a_edge8_Node000004_Node000009"><a xlink:title=" ">
<path fill="none" stroke="#63b8ff" d="M548.3,-196.93C562.37,-188.89 582.53,-176.76 599,-164.5 616.17,-151.72 616.59,-143.43 635,-132.5 638.44,-130.46 642.07,-128.54 645.79,-126.76"/>
<polygon fill="#63b8ff" stroke="#63b8ff" points="647.48,-129.83 655.19,-122.57 644.64,-123.44 647.48,-129.83"/>
</a>
</g>
</g>
<!-- Node23 -->
<g id="Node000023" class="node">
<title>Node23</title>
<g id="a_Node000023"><a xlink:href="collision_8c.html#ad72fef3ffe32191d73b1822f512ebf3f" target="_top" xlink:title=" ">
<polygon fill="white" stroke="#666666" points="753,-160 658,-160 658,-141 753,-141 753,-160"/>
<text text-anchor="middle" x="705.5" y="-148" font-family="Helvetica,sans-Serif" font-size="10.00">func_802AAAAC</text>
</a>
</g>
</g>
<!-- Node4&#45;&gt;Node23 -->
<g id="edge22_Node000004_Node000023" class="edge">
<title>Node4&#45;&gt;Node23</title>
<g id="a_edge22_Node000004_Node000023"><a xlink:title=" ">
<path fill="none" stroke="#63b8ff" d="M556.04,-197C577,-189.19 607.76,-178.06 635,-169.5 642.3,-167.21 650.08,-164.92 657.7,-162.78"/>
<polygon fill="#63b8ff" stroke="#63b8ff" points="658.86,-166.09 667.56,-160.05 656.99,-159.34 658.86,-166.09"/>
</a>
</g>
</g>
<!-- Node25 -->
<g id="Node000025" class="node">
<title>Node25</title>
<g id="a_Node000025"><a xlink:href="math__util_8c.html#af7b470ed76fce07b8042a47c96e5690b" target="_top" xlink:title=" ">
<polygon fill="white" stroke="#666666" points="759,-197 652,-197 652,-178 759,-178 759,-197"/>
<text text-anchor="middle" x="705.5" y="-185" font-family="Helvetica,sans-Serif" font-size="10.00">vec3f_copy_return</text>
</a>
</g>
</g>
<!-- Node4&#45;&gt;Node25 -->
<g id="edge24_Node000004_Node000025" class="edge">
<title>Node4&#45;&gt;Node25</title>
<g id="a_edge24_Node000004_Node000025"><a xlink:title=" ">
<path fill="none" stroke="#63b8ff" d="M561.22,-203.19C583.44,-200.76 614.43,-197.36 641.91,-194.35"/>
<polygon fill="#63b8ff" stroke="#63b8ff" points="642.29,-197.83 651.85,-193.27 641.53,-190.88 642.29,-197.83"/>
</a>
</g>
</g>
<!-- Node26 -->
<g id="Node000026" class="node">
<title>Node26</title>
<g id="a_Node000026"><a xlink:href="math__util_8c.html#a0e270ee67600c8c9c2f140c647d008a1" target="_top" xlink:title=" ">
<polygon fill="white" stroke="#666666" points="742.5,-234 668.5,-234 668.5,-215 742.5,-215 742.5,-234"/>
<text text-anchor="middle" x="705.5" y="-222" font-family="Helvetica,sans-Serif" font-size="10.00">vec3s_copy</text>
</a>
</g>
</g>
<!-- Node4&#45;&gt;Node26 -->
<g id="edge25_Node000004_Node000026" class="edge">
<title>Node4&#45;&gt;Node26</title>
<g id="a_edge25_Node000004_Node000026"><a xlink:title=" ">
<path fill="none" stroke="#63b8ff" d="M561.22,-209.64C588,-212.41 627.51,-216.51 658.26,-219.7"/>
<polygon fill="#63b8ff" stroke="#63b8ff" points="658.01,-223.2 668.32,-220.75 658.73,-216.23 658.01,-223.2"/>
</a>
</g>
</g>
<!-- Node6 -->
<g id="Node000006" class="node">
<title>Node6</title>
<g id="a_Node000006"><a xlink:href="collision_8c.html#ac312bf382cb40752f6b790a99e7cdcb6" target="_top" xlink:title=" ">
<polygon fill="white" stroke="#666666" points="944.5,-271 836.5,-271 836.5,-252 944.5,-252 944.5,-271"/>
<text text-anchor="middle" x="890.5" y="-259" font-family="Helvetica,sans-Serif" font-size="10.00">check_collision_yx</text>
</a>
</g>
</g>
<!-- Node5&#45;&gt;Node6 -->
<g id="edge5_Node000005_Node000006" class="edge">
<title>Node5&#45;&gt;Node6</title>
<g id="a_edge5_Node000005_Node000006"><a xlink:title=" ">
<path fill="none" stroke="#63b8ff" d="M776.21,-261.5C792.61,-261.5 810.01,-261.5 826.12,-261.5"/>
<polygon fill="#63b8ff" stroke="#63b8ff" points="826.5,-265 836.5,-261.5 826.5,-258 826.5,-265"/>
</a>
</g>
</g>
<!-- Node7 -->
<g id="Node000007" class="node">
<title>Node7</title>
<g id="a_Node000007"><a xlink:href="collision_8c.html#a4b48832a90e984536a0635a016ec4f28" target="_top" xlink:title=" ">
<polygon fill="white" stroke="#666666" points="944,-234 837,-234 837,-215 944,-215 944,-234"/>
<text text-anchor="middle" x="890.5" y="-222" font-family="Helvetica,sans-Serif" font-size="10.00">check_collision_zx</text>
</a>
</g>
</g>
<!-- Node5&#45;&gt;Node7 -->
<g id="edge6_Node000005_Node000007" class="edge">
<title>Node5&#45;&gt;Node7</title>
<g id="a_edge6_Node000005_Node000007"><a xlink:title=" ">
<path fill="none" stroke="#63b8ff" d="M753.63,-251.97C777.65,-247.11 807.07,-241.17 832.38,-236.05"/>
<polygon fill="#63b8ff" stroke="#63b8ff" points="833.11,-239.47 842.21,-234.06 831.72,-232.61 833.11,-239.47"/>
</a>
</g>
</g>
<!-- Node8 -->
<g id="Node000008" class="node">
<title>Node8</title>
<g id="a_Node000008"><a xlink:href="collision_8c.html#a21fef964ab48191a1c0341954ef27a40" target="_top" xlink:title=" ">
<polygon fill="white" stroke="#666666" points="944,-197 837,-197 837,-178 944,-178 944,-197"/>
<text text-anchor="middle" x="890.5" y="-185" font-family="Helvetica,sans-Serif" font-size="10.00">check_collision_zy</text>
</a>
</g>
</g>
<!-- Node5&#45;&gt;Node8 -->
<g id="edge7_Node000005_Node000008" class="edge">
<title>Node5&#45;&gt;Node8</title>
<g id="a_edge7_Node000005_Node000008"><a xlink:title=" ">
<path fill="none" stroke="#63b8ff" d="M757.16,-251.88C763.72,-249.64 770.18,-246.88 776,-243.5 795.84,-231.98 792.09,-217.9 812,-206.5 816.73,-203.79 821.85,-201.47 827.11,-199.47"/>
<polygon fill="#63b8ff" stroke="#63b8ff" points="828.34,-202.75 836.69,-196.22 826.09,-196.12 828.34,-202.75"/>
</a>
</g>
</g>
<!-- Node10 -->
<g id="Node000010" class="node">
<title>Node10</title>
<g id="a_Node000010"><a xlink:href="Game_8cpp.html#a693de7d8b89fe291aafea86bc64a0a2e" target="_top" xlink:title=" ">
<polygon fill="white" stroke="#666666" points="930.5,-37 850.5,-37 850.5,-18 930.5,-18 930.5,-37"/>
<text text-anchor="middle" x="890.5" y="-25" font-family="Helvetica,sans-Serif" font-size="10.00">CM_GetActor</text>
</a>
</g>
</g>
<!-- Node9&#45;&gt;Node10 -->
<g id="edge9_Node000009_Node000010" class="edge">
<title>Node9&#45;&gt;Node10</title>
<g id="a_edge9_Node000009_Node000010"><a xlink:title=" ">
<path fill="none" stroke="#63b8ff" d="M749.21,-92.43C758.35,-88.46 767.74,-83.78 776,-78.5 794.29,-66.81 792.8,-55.62 812,-45.5 820.71,-40.91 830.57,-37.48 840.27,-34.92"/>
<polygon fill="#63b8ff" stroke="#63b8ff" points="841.34,-38.27 850.27,-32.56 839.73,-31.45 841.34,-38.27"/>
</a>
</g>
</g>
<!-- Node12 -->
<g id="Node000012" class="node">
<title>Node12</title>
<g id="a_Node000012"><a xlink:href="code__80005FD0_8c.html#ad301b978cdd3c4cc190b10be050d51d8" target="_top" xlink:title=" ">
<polygon fill="white" stroke="#666666" points="963.5,-122.5 817.5,-122.5 817.5,-92.5 963.5,-92.5 963.5,-122.5"/>
<text text-anchor="start" x="825.5" y="-110.5" font-family="Helvetica,sans-Serif" font-size="10.00">delete_actor_in_unexpired</text>
<text text-anchor="middle" x="890.5" y="-99.5" font-family="Helvetica,sans-Serif" font-size="10.00">_actor_list</text>
</a>
</g>
</g>
<!-- Node9&#45;&gt;Node12 -->
<g id="edge11_Node000009_Node000012" class="edge">
<title>Node9&#45;&gt;Node12</title>
<g id="a_edge11_Node000009_Node000012"><a xlink:title=" ">
<path fill="none" stroke="#63b8ff" d="M771.53,-107.5C782.98,-107.5 795.02,-107.5 806.87,-107.5"/>
<polygon fill="#63b8ff" stroke="#63b8ff" points="807.21,-111 817.21,-107.5 807.21,-104 807.21,-111"/>
</a>
</g>
</g>
<!-- Node13 -->
<g id="Node000013" class="node">
<title>Node13</title>
<g id="a_Node000013"><a xlink:href="actors_8c.html#a694ec6ef7548b8618aeb35c038d3a9b9" target="_top" xlink:title=" ">
<polygon fill="white" stroke="#666666" points="932,-74 849,-74 849,-55 932,-55 932,-74"/>
<text text-anchor="middle" x="890.5" y="-62" font-family="Helvetica,sans-Serif" font-size="10.00">destroy_actor</text>
</a>
</g>
</g>
<!-- Node9&#45;&gt;Node13 -->
<g id="edge12_Node000009_Node000013" class="edge">
<title>Node9&#45;&gt;Node13</title>
<g id="a_edge12_Node000009_Node000013"><a xlink:title=" ">
<path fill="none" stroke="#63b8ff" d="M770.5,-92.46C793.02,-87.17 817.98,-81.31 839.2,-76.32"/>
<polygon fill="#63b8ff" stroke="#63b8ff" points="840.04,-79.72 848.98,-74.02 838.44,-72.9 840.04,-79.72"/>
</a>
</g>
</g>
<!-- Node11 -->
<g id="Node000011" class="node">
<title>Node11</title>
<g id="a_Node000011"><a xlink:href="Game_8cpp.html#ae2fa844b3cb1021ecbc357f8ed2ad8cc" target="_top" xlink:title=" ">
<polygon fill="white" stroke="#666666" points="1131,-441 1069,-441 1069,-422 1131,-422 1131,-441"/>
<text text-anchor="middle" x="1100" y="-429" font-family="Helvetica,sans-Serif" font-size="10.00">GetWorld</text>
</a>
</g>
</g>
<!-- Node10&#45;&gt;Node11 -->
<g id="edge10_Node000010_Node000011" class="edge">
<title>Node10&#45;&gt;Node11</title>
<g id="a_edge10_Node000010_Node000011"><a xlink:title=" ">
<path fill="none" stroke="#63b8ff" d="M930.88,-27.69C944.82,-29.83 959.41,-34.8 969,-45.5 1058.65,-145.48 943.63,-226.05 1005,-345.5 1020.73,-376.11 1052.05,-401.27 1074.21,-416.31"/>
<polygon fill="#63b8ff" stroke="#63b8ff" points="1072.5,-419.37 1082.78,-421.93 1076.34,-413.52 1072.5,-419.37"/>
</a>
</g>
</g>
<!-- Node14 -->
<g id="Node000014" class="node">
<title>Node14</title>
<g id="a_Node000014"><a xlink:href="actors_8c.html#a12dc3ccac4c7d8569eadac0af4fd6f9f" target="_top" xlink:title=" ">
<polygon fill="white" stroke="#666666" points="1179,-74 1021,-74 1021,-55 1179,-55 1179,-74"/>
<text text-anchor="middle" x="1100" y="-62" font-family="Helvetica,sans-Serif" font-size="10.00">play_sound_before_despawn</text>
</a>
</g>
</g>
<!-- Node13&#45;&gt;Node14 -->
<g id="edge13_Node000013_Node000014" class="edge">
<title>Node13&#45;&gt;Node14</title>
<g id="a_edge13_Node000013_Node000014"><a xlink:title=" ">
<path fill="none" stroke="#63b8ff" d="M932,-64.5C954.48,-64.5 983.36,-64.5 1010.77,-64.5"/>
<polygon fill="#63b8ff" stroke="#63b8ff" points="1010.79,-68 1020.79,-64.5 1010.79,-61 1010.79,-68"/>
</a>
</g>
</g>
<!-- Node15 -->
<g id="Node000015" class="node">
<title>Node15</title>
<g id="a_Node000015"><a xlink:href="external_8c.html#ae72057869772019e4464c87d4e16c682" target="_top" xlink:title=" ">
<polygon fill="white" stroke="#666666" points="1323,-74 1231,-74 1231,-55 1323,-55 1323,-74"/>
<text text-anchor="middle" x="1277" y="-62" font-family="Helvetica,sans-Serif" font-size="10.00">func_800C99E0</text>
</a>
</g>
</g>
<!-- Node14&#45;&gt;Node15 -->
<g id="edge14_Node000014_Node000015" class="edge">
<title>Node14&#45;&gt;Node15</title>
<g id="a_edge14_Node000014_Node000015"><a xlink:title=" ">
<path fill="none" stroke="#63b8ff" d="M1179.03,-64.5C1192.98,-64.5 1207.26,-64.5 1220.42,-64.5"/>
<polygon fill="#63b8ff" stroke="#63b8ff" points="1220.71,-68 1230.71,-64.5 1220.71,-61 1220.71,-68"/>
</a>
</g>
</g>
<!-- Node16 -->
<g id="Node000016" class="node">
<title>Node16</title>
<g id="a_Node000016"><a xlink:href="external_8c.html#aeb87c527482a244173df36a1f3d4f446" target="_top" xlink:title=" ">
<polygon fill="white" stroke="#666666" points="1451,-93 1359,-93 1359,-74 1451,-74 1451,-93"/>
<text text-anchor="middle" x="1405" y="-81" font-family="Helvetica,sans-Serif" font-size="10.00">func_800C21E8</text>
</a>
</g>
</g>
<!-- Node15&#45;&gt;Node16 -->
<g id="edge15_Node000015_Node000016" class="edge">
<title>Node15&#45;&gt;Node16</title>
<g id="a_edge15_Node000015_Node000016"><a xlink:title=" ">
<path fill="none" stroke="#63b8ff" d="M1323.13,-71.31C1331.46,-72.56 1340.23,-73.88 1348.81,-75.18"/>
<polygon fill="#63b8ff" stroke="#63b8ff" points="1348.35,-78.65 1358.76,-76.68 1349.39,-71.73 1348.35,-78.65"/>
</a>
</g>
</g>
<!-- Node17 -->
<g id="Node000017" class="node">
<title>Node17</title>
<g id="a_Node000017"><a xlink:href="external_8c.html#a028d40421b90c38f68ebfd5acc626f2e" target="_top" xlink:title=" ">
<polygon fill="white" stroke="#666666" points="1451,-56 1359,-56 1359,-37 1451,-37 1451,-56"/>
<text text-anchor="middle" x="1405" y="-44" font-family="Helvetica,sans-Serif" font-size="10.00">func_800C5578</text>
</a>
</g>
</g>
<!-- Node15&#45;&gt;Node17 -->
<g id="edge16_Node000015_Node000017" class="edge">
<title>Node15&#45;&gt;Node17</title>
<g id="a_edge16_Node000015_Node000017"><a xlink:title=" ">
<path fill="none" stroke="#63b8ff" d="M1323.13,-58.05C1331.46,-56.86 1340.23,-55.61 1348.81,-54.38"/>
<polygon fill="#63b8ff" stroke="#63b8ff" points="1349.35,-57.84 1358.76,-52.96 1348.36,-50.91 1349.35,-57.84"/>
</a>
</g>
</g>
<!-- Node18 -->
<g id="Node000018" class="node">
<title>Node18</title>
<g id="a_Node000018"><a xlink:href="external_8c.html#ac0fb767de7e14a03f1bcfa53f0abd23b" target="_top" xlink:title=" ">
<polygon fill="white" stroke="#666666" points="1627,-93 1487,-93 1487,-74 1627,-74 1627,-93"/>
<text text-anchor="middle" x="1557" y="-81" font-family="Helvetica,sans-Serif" font-size="10.00">delete_sound_from_bank</text>
</a>
</g>
</g>
<!-- Node17&#45;&gt;Node18 -->
<g id="edge17_Node000017_Node000018" class="edge">
<title>Node17&#45;&gt;Node18</title>
<g id="a_edge17_Node000017_Node000018"><a xlink:title=" ">
<path fill="none" stroke="#63b8ff" d="M1444.63,-56.03C1463.8,-60.76 1487.16,-66.52 1507.52,-71.54"/>
<polygon fill="#63b8ff" stroke="#63b8ff" points="1506.69,-74.94 1517.24,-73.94 1508.37,-68.15 1506.69,-74.94"/>
</a>
</g>
</g>
<!-- Node20 -->
<g id="Node000020" class="node">
<title>Node20</title>
<g id="a_Node000020"><a xlink:href="external_8c.html#ab83bd36e63f0f1baddcb2482b5ad31b0" target="_top" xlink:title=" ">
<polygon fill="white" stroke="#666666" points="1603.5,-56 1510.5,-56 1510.5,-37 1603.5,-37 1603.5,-56"/>
<text text-anchor="middle" x="1557" y="-44" font-family="Helvetica,sans-Serif" font-size="10.00">func_800C41CC</text>
</a>
</g>
</g>
<!-- Node17&#45;&gt;Node20 -->
<g id="edge19_Node000017_Node000020" class="edge">
<title>Node17&#45;&gt;Node20</title>
<g id="a_edge19_Node000017_Node000020"><a xlink:title=" ">
<path fill="none" stroke="#63b8ff" d="M1451,-46.5C1466.37,-46.5 1483.74,-46.5 1499.86,-46.5"/>
<polygon fill="#63b8ff" stroke="#63b8ff" points="1500.25,-50 1510.25,-46.5 1500.25,-43 1500.25,-50"/>
</a>
</g>
</g>
<!-- Node21 -->
<g id="Node000021" class="node">
<title>Node21</title>
<g id="a_Node000021"><a xlink:href="port__eu_8c.html#aa89dfaecca46c6d071f08c1898d1f7c9" target="_top" xlink:title=" ">
<polygon fill="white" stroke="#666666" points="1603.5,-19 1510.5,-19 1510.5,0 1603.5,0 1603.5,-19"/>
<text text-anchor="middle" x="1557" y="-7" font-family="Helvetica,sans-Serif" font-size="10.00">func_800CBBE8</text>
</a>
</g>
</g>
<!-- Node17&#45;&gt;Node21 -->
<g id="edge20_Node000017_Node000021" class="edge">
<title>Node17&#45;&gt;Node21</title>
<g id="a_edge20_Node000017_Node000021"><a xlink:title=" ">
<path fill="none" stroke="#63b8ff" d="M1444.63,-36.97C1463.8,-32.24 1487.16,-26.48 1507.52,-21.46"/>
<polygon fill="#63b8ff" stroke="#63b8ff" points="1508.37,-24.85 1517.24,-19.06 1506.69,-18.06 1508.37,-24.85"/>
</a>
</g>
</g>
<!-- Node19 -->
<g id="Node000019" class="node">
<title>Node19</title>
<g id="a_Node000019"><a xlink:href="external_8c.html#a358ac55e8ab5262dcae8037334be06d7" target="_top" xlink:title=" ">
<polygon fill="white" stroke="#666666" points="1755.5,-93 1663.5,-93 1663.5,-74 1755.5,-74 1755.5,-93"/>
<text text-anchor="middle" x="1709.5" y="-81" font-family="Helvetica,sans-Serif" font-size="10.00">func_800C40F0</text>
</a>
</g>
</g>
<!-- Node18&#45;&gt;Node19 -->
<g id="edge18_Node000018_Node000019" class="edge">
<title>Node18&#45;&gt;Node19</title>
<g id="a_edge18_Node000018_Node000019"><a xlink:title=" ">
<path fill="none" stroke="#63b8ff" d="M1627.08,-83.5C1635.87,-83.5 1644.78,-83.5 1653.31,-83.5"/>
<polygon fill="#63b8ff" stroke="#63b8ff" points="1653.5,-87 1663.5,-83.5 1653.5,-80 1653.5,-87"/>
</a>
</g>
</g>
<!-- Node22 -->
<g id="Node000022" class="node">
<title>Node22</title>
<g id="a_Node000022"><a xlink:href="port__eu_8c.html#af361a20d2e08f30c53a237ca481ff734" target="_top" xlink:title=" ">
<polygon fill="white" stroke="#666666" points="1756,-19 1663,-19 1663,0 1756,0 1756,-19"/>
<text text-anchor="middle" x="1709.5" y="-7" font-family="Helvetica,sans-Serif" font-size="10.00">func_800CBB48</text>
</a>
</g>
</g>
<!-- Node21&#45;&gt;Node22 -->
<g id="edge21_Node000021_Node000022" class="edge">
<title>Node21&#45;&gt;Node22</title>
<g id="a_edge21_Node000021_Node000022"><a xlink:title=" ">
<path fill="none" stroke="#63b8ff" d="M1603.56,-9.5C1618.96,-9.5 1636.34,-9.5 1652.46,-9.5"/>
<polygon fill="#63b8ff" stroke="#63b8ff" points="1652.83,-13 1662.83,-9.5 1652.83,-6 1652.83,-13"/>
</a>
</g>
</g>
<!-- Node24 -->
<g id="Node000024" class="node">
<title>Node24</title>
<g id="a_Node000024"><a xlink:href="math__util_8c.html#a79fd07a0971ec96a3ff0801963a2fa7f" target="_top" xlink:title=" ">
<polygon fill="white" stroke="#666666" points="922.5,-160 858.5,-160 858.5,-141 922.5,-141 922.5,-160"/>
<text text-anchor="middle" x="890.5" y="-148" font-family="Helvetica,sans-Serif" font-size="10.00">vec3f_set</text>
</a>
</g>
</g>
<!-- Node23&#45;&gt;Node24 -->
<g id="edge23_Node000023_Node000024" class="edge">
<title>Node23&#45;&gt;Node24</title>
<g id="a_edge23_Node000023_Node000024"><a xlink:title=" ">
<path fill="none" stroke="#63b8ff" d="M753.15,-150.5C782.45,-150.5 819.89,-150.5 848.13,-150.5"/>
<polygon fill="#63b8ff" stroke="#63b8ff" points="848.46,-154 858.46,-150.5 848.46,-147 848.46,-154"/>
</a>
</g>
</g>
<!-- Node27&#45;&gt;Node11 -->
<g id="edge33_Node000027_Node000011" class="edge">
<title>Node27&#45;&gt;Node11</title>
<g id="a_edge33_Node000027_Node000011"><a xlink:title=" ">
<path fill="none" stroke="#63b8ff" d="M577.7,-384.05C595.56,-387.43 616.17,-391.01 635,-393.5 790.87,-414.07 977.76,-425.32 1058.54,-429.54"/>
<polygon fill="#63b8ff" stroke="#63b8ff" points="1058.6,-433.04 1068.76,-430.06 1058.95,-426.05 1058.6,-433.04"/>
</a>
</g>
</g>
<!-- Node28 -->
<g id="Node000028" class="node">
<title>Node28</title>
<g id="a_Node000028"><a xlink:href="classWorld.html#a0f40d5f6f8bd3c76ad1e1ca4ccc4b74f" target="_top" xlink:title=" ">
<polygon fill="white" stroke="#666666" points="768,-384 643,-384 643,-365 768,-365 768,-384"/>
<text text-anchor="middle" x="705.5" y="-372" font-family="Helvetica,sans-Serif" font-size="10.00">World::ActorBeginPlay</text>
</a>
</g>
</g>
<!-- Node27&#45;&gt;Node28 -->
<g id="edge27_Node000027_Node000028" class="edge">
<title>Node27&#45;&gt;Node28</title>
<g id="a_edge27_Node000027_Node000028"><a xlink:title=" ">
<path fill="none" stroke="#63b8ff" d="M586.37,-374.5C601.1,-374.5 617.22,-374.5 632.68,-374.5"/>
<polygon fill="#63b8ff" stroke="#63b8ff" points="632.73,-378 642.73,-374.5 632.73,-371 632.73,-378"/>
</a>
</g>
</g>
<!-- Node29 -->
<g id="Node000029" class="node">
<title>Node29</title>
<g id="a_Node000029"><a xlink:href="classAActor.html#aa18a335c99d43d74ac46328df5c4918b" target="_top" xlink:title=" ">
<polygon fill="white" stroke="#666666" points="942.5,-308 838.5,-308 838.5,-289 942.5,-289 942.5,-308"/>
<text text-anchor="middle" x="890.5" y="-296" font-family="Helvetica,sans-Serif" font-size="10.00">AActor::BeginPlay</text>
</a>
</g>
</g>
<!-- Node28&#45;&gt;Node29 -->
<g id="edge28_Node000028_Node000029" class="edge">
<title>Node28&#45;&gt;Node29</title>
<g id="a_edge28_Node000028_Node000029"><a xlink:title=" ">
<path fill="none" stroke="#63b8ff" d="M729.68,-364.87C761.99,-351.45 820.72,-327.07 857.28,-311.88"/>
<polygon fill="#63b8ff" stroke="#63b8ff" points="858.62,-315.12 866.51,-308.05 855.93,-308.65 858.62,-315.12"/>
</a>
</g>
</g>
<!-- Node32 -->
<g id="Node000032" class="node">
<title>Node32</title>
<g id="a_Node000032"><a xlink:href="classWorld.html#a944244b32a2219826939859c6138f6ab" target="_top" xlink:title=" ">
<polygon fill="white" stroke="#666666" points="969,-384 812,-384 812,-365 969,-365 969,-384"/>
<text text-anchor="middle" x="890.5" y="-372" font-family="Helvetica,sans-Serif" font-size="10.00">World::ConvertActorToAActor</text>
</a>
</g>
</g>
<!-- Node28&#45;&gt;Node32 -->
<g id="edge32_Node000028_Node000032" class="edge">
<title>Node28&#45;&gt;Node32</title>
<g id="a_edge32_Node000028_Node000032"><a xlink:title=" ">
<path fill="none" stroke="#63b8ff" d="M768.2,-374.5C778.93,-374.5 790.26,-374.5 801.53,-374.5"/>
<polygon fill="#63b8ff" stroke="#63b8ff" points="801.84,-378 811.84,-374.5 801.84,-371 801.84,-378"/>
</a>
</g>
</g>
<!-- Node30 -->
<g id="Node000030" class="node">
<title>Node30</title>
<g id="a_Node000030"><a xlink:href="Editor_8cpp.html#ad9cda86dc3eb2b6511a8c9a951945014" target="_top" xlink:title=" ">
<polygon fill="white" stroke="#666666" points="1149,-336 1051,-336 1051,-317 1149,-317 1149,-336"/>
<text text-anchor="middle" x="1100" y="-324" font-family="Helvetica,sans-Serif" font-size="10.00">Editor_IsEnabled</text>
</a>
</g>
</g>
<!-- Node29&#45;&gt;Node30 -->
<g id="edge29_Node000029_Node000030" class="edge">
<title>Node29&#45;&gt;Node30</title>
<g id="a_edge29_Node000029_Node000030"><a xlink:title=" ">
<path fill="none" stroke="#63b8ff" d="M942.53,-305.39C972.17,-309.39 1009.65,-314.44 1040.49,-318.6"/>
<polygon fill="#63b8ff" stroke="#63b8ff" points="1040.29,-322.11 1050.67,-319.98 1041.23,-315.17 1040.29,-322.11"/>
</a>
</g>
</g>
<!-- Node31 -->
<g id="Node000031" class="node">
<title>Node31</title>
<g id="a_Node000031"><a xlink:href="namespaceTrackEditor.html#a79d25f3b85758b1d930e2eb429655ead" target="_top" xlink:title=" ">
<polygon fill="white" stroke="#666666" points="1195,-281 1005,-281 1005,-262 1195,-262 1195,-281"/>
<text text-anchor="middle" x="1100" y="-269" font-family="Helvetica,sans-Serif" font-size="10.00">TrackEditor::GenerateCollisionMesh</text>
</a>
</g>
</g>
<!-- Node29&#45;&gt;Node31 -->
<g id="edge30_Node000029_Node000031" class="edge">
<title>Node29&#45;&gt;Node31</title>
<g id="a_edge30_Node000029_Node000031"><a xlink:title=" ">
<path fill="none" stroke="#63b8ff" d="M942.53,-291.86C964.57,-288.99 990.94,-285.56 1015.69,-282.34"/>
<polygon fill="#63b8ff" stroke="#63b8ff" points="1016.34,-285.78 1025.81,-281.02 1015.44,-278.84 1016.34,-285.78"/>
</a>
</g>
</g>
<!-- Node31&#45;&gt;Node31 -->
<g id="edge31_Node000031_Node000031" class="edge">
<title>Node31&#45;&gt;Node31</title>
<g id="a_edge31_Node000031_Node000031"><a xlink:title=" ">
<path fill="none" stroke="#63b8ff" d="M1072.87,-281.08C1059.68,-289.73 1068.72,-299 1100,-299 1121.02,-299 1132,-294.82 1132.93,-289.45"/>
<polygon fill="#63b8ff" stroke="#63b8ff" points="1135.7,-287.3 1127.13,-281.08 1129.95,-291.29 1135.7,-287.3"/>
</a>
</g>
</g>
<!-- Node33&#45;&gt;Node11 -->
<g id="edge36_Node000033_Node000011" class="edge">
<title>Node33&#45;&gt;Node11</title>
<g id="a_edge36_Node000033_Node000011"><a xlink:title=" ">
<path fill="none" stroke="#63b8ff" d="M583.2,-319.33C683.26,-323.3 898.39,-334.19 969,-356.5 1010.82,-369.71 1053.85,-397.98 1078.42,-415.79"/>
<polygon fill="#63b8ff" stroke="#63b8ff" points="1076.47,-418.7 1086.6,-421.83 1080.63,-413.07 1076.47,-418.7"/>
</a>
</g>
</g>
<!-- Node34 -->
<g id="Node000034" class="node">
<title>Node34</title>
<g id="a_Node000034"><a xlink:href="classWorld.html#a215117703aa8944483793767a0fb80ed" target="_top" xlink:title=" ">
<polygon fill="white" stroke="#666666" points="765,-308 646,-308 646,-289 765,-289 765,-308"/>
<text text-anchor="middle" x="705.5" y="-296" font-family="Helvetica,sans-Serif" font-size="10.00">World::AddBaseActor</text>
</a>
</g>
</g>
<!-- Node33&#45;&gt;Node34 -->
<g id="edge35_Node000033_Node000034" class="edge">
<title>Node33&#45;&gt;Node34</title>
<g id="a_edge35_Node000033_Node000034"><a xlink:title=" ">
<path fill="none" stroke="#63b8ff" d="M583.06,-311.8C599.58,-309.99 618.11,-307.96 635.62,-306.04"/>
<polygon fill="#63b8ff" stroke="#63b8ff" points="636.24,-309.5 645.79,-304.93 635.47,-302.54 636.24,-309.5"/>
</a>
</g>
</g>
<!-- Node35&#45;&gt;Node11 -->
<g id="edge38_Node000035_Node000011" class="edge">
<title>Node35&#45;&gt;Node11</title>
<g id="a_edge38_Node000035_Node000011"><a xlink:title=" ">
<path fill="none" stroke="#63b8ff" d="M580.91,-431.5C691.9,-431.5 957.35,-431.5 1058.71,-431.5"/>
<polygon fill="#63b8ff" stroke="#63b8ff" points="1058.85,-435 1068.85,-431.5 1058.85,-428 1058.85,-435"/>
</a>
</g>
</g>
<!-- Node36&#45;&gt;Node11 -->
<g id="edge41_Node000036_Node000011" class="edge">
<title>Node36&#45;&gt;Node11</title>
<g id="a_edge41_Node000036_Node000011"><a xlink:title=" ">
<path fill="none" stroke="#63b8ff" d="M236.08,-511.14C302.26,-517.05 424.47,-526.5 529,-526.5 529,-526.5 529,-526.5 706.5,-526.5 843.54,-526.5 1000.13,-471.12 1066.53,-444.92"/>
<polygon fill="#63b8ff" stroke="#63b8ff" points="1068.04,-448.09 1076.02,-441.13 1065.44,-441.59 1068.04,-448.09"/>
</a>
</g>
</g>
<!-- Node37 -->
<g id="Node000037" class="node">
<title>Node37</title>
<g id="a_Node000037"><a xlink:href="classWorld.html#ad293502729ed5ecaf8aae97e10daf386" target="_top" xlink:title=" ">
<polygon fill="white" stroke="#666666" points="402.5,-574 307.5,-574 307.5,-555 402.5,-555 402.5,-574"/>
<text text-anchor="middle" x="355" y="-562" font-family="Helvetica,sans-Serif" font-size="10.00">World::AddActor</text>
</a>
</g>
</g>
<!-- Node36&#45;&gt;Node37 -->
<g id="edge40_Node000036_Node000037" class="edge">
<title>Node36&#45;&gt;Node37</title>
<g id="a_edge40_Node000036_Node000037"><a xlink:title=" ">
<path fill="none" stroke="#63b8ff" d="M220.57,-516.08C229.83,-518.94 239.86,-522.19 249,-525.5 265.3,-531.4 268.81,-534.32 285,-540.5 294.86,-544.27 305.61,-548.12 315.62,-551.61"/>
<polygon fill="#63b8ff" stroke="#63b8ff" points="314.73,-555 325.33,-554.96 317.01,-548.39 314.73,-555"/>
</a>
</g>
</g>
<!-- Node38&#45;&gt;Node11 -->
<g id="edge44_Node000038_Node000011" class="edge">
<title>Node38&#45;&gt;Node11</title>
<g id="a_edge44_Node000038_Node000011"><a xlink:title=" ">
<path fill="none" stroke="#63b8ff" d="M239.23,-452.1C364.57,-455.54 694.41,-462.1 969,-445.5 999.17,-443.68 1033.13,-439.96 1058.77,-436.82"/>
<polygon fill="#63b8ff" stroke="#63b8ff" points="1059.37,-440.27 1068.86,-435.56 1058.5,-433.32 1059.37,-440.27"/>
</a>
</g>
</g>
<!-- Node39 -->
<g id="Node000039" class="node">
<title>Node39</title>
<g id="a_Node000039"><a xlink:href="classWorld.html#a9305e3c98df81e9f6989c344d4bc9c51" target="_top" xlink:title=" ">
<polygon fill="white" stroke="#666666" points="405.5,-498 304.5,-498 304.5,-479 405.5,-479 405.5,-498"/>
<text text-anchor="middle" x="355" y="-486" font-family="Helvetica,sans-Serif" font-size="10.00">World::AddObject</text>
</a>
</g>
</g>
<!-- Node38&#45;&gt;Node39 -->
<g id="edge43_Node000038_Node000039" class="edge">
<title>Node38&#45;&gt;Node39</title>
<g id="a_edge43_Node000038_Node000039"><a xlink:title=" ">
<path fill="none" stroke="#63b8ff" d="M229.51,-460.09C251.68,-465.15 279.07,-471.4 302.51,-476.75"/>
<polygon fill="#63b8ff" stroke="#63b8ff" points="301.76,-480.17 312.29,-478.98 303.32,-473.34 301.76,-480.17"/>
</a>
</g>
</g>
<!-- Node40&#45;&gt;Node3 -->
<g id="edge46_Node000040_Node000003" class="edge">
<title>Node40&#45;&gt;Node3</title>
<g id="a_edge46_Node000040_Node000003"><a xlink:title=" ">
<path fill="none" stroke="#63b8ff" d="M197.42,-160.45C224.9,-188.01 302.28,-265.62 336.89,-300.34"/>
<polygon fill="#63b8ff" stroke="#63b8ff" points="334.8,-303.2 344.34,-307.81 339.76,-298.26 334.8,-303.2"/>
</a>
</g>
</g>
<!-- Node40&#45;&gt;Node10 -->
<g id="edge47_Node000040_Node000010" class="edge">
<title>Node40&#45;&gt;Node10</title>
<g id="a_edge47_Node000040_Node000010"><a xlink:title=" ">
<path fill="none" stroke="#63b8ff" d="M231.5,-160.04C310.4,-174.74 478.9,-195.06 599,-131.5 622.57,-119.03 612.58,-97.93 635,-83.5 697.9,-43.01 785.71,-31.46 840.02,-28.36"/>
<polygon fill="#63b8ff" stroke="#63b8ff" points="840.27,-31.85 850.09,-27.86 839.93,-24.86 840.27,-31.85"/>
</a>
</g>
</g>
<!-- Node41 -->
<g id="Node000041" class="node">
<title>Node41</title>
<g id="a_Node000041"><a xlink:href="math__util_8c.html#a062850863585005ad1d0a75d9ff70693" target="_top" xlink:title=" ">
<polygon fill="white" stroke="#666666" points="393.5,-122 316.5,-122 316.5,-103 393.5,-103 393.5,-122"/>
<text text-anchor="middle" x="355" y="-110" font-family="Helvetica,sans-Serif" font-size="10.00">random_u16</text>
</a>
</g>
</g>
<!-- Node40&#45;&gt;Node41 -->
<g id="edge48_Node000040_Node000041" class="edge">
<title>Node40&#45;&gt;Node41</title>
<g id="a_edge48_Node000040_Node000041"><a xlink:title=" ">
<path fill="none" stroke="#63b8ff" d="M229.51,-140.91C252.86,-135.58 282,-128.93 306.22,-123.4"/>
<polygon fill="#63b8ff" stroke="#63b8ff" points="307.29,-126.75 316.26,-121.11 305.74,-119.93 307.29,-126.75"/>
</a>
</g>
</g>
<!-- Node42 -->
<g id="Node000042" class="node">
<title>Node42</title>
<g id="a_Node000042"><a xlink:href="collision_8c.html#ad95e9ed2051529d5edee26109fa07427" target="_top" xlink:title=" ">
<polygon fill="white" stroke="#666666" points="423.5,-85 286.5,-85 286.5,-66 423.5,-66 423.5,-85"/>
<text text-anchor="middle" x="355" y="-73" font-family="Helvetica,sans-Serif" font-size="10.00">spawn_actor_on_surface</text>
</a>
</g>
</g>
<!-- Node40&#45;&gt;Node42 -->
<g id="edge49_Node000040_Node000042" class="edge">
<title>Node40&#45;&gt;Node42</title>
<g id="a_edge49_Node000040_Node000042"><a xlink:title=" ">
<path fill="none" stroke="#63b8ff" d="M228.77,-140.89C235.79,-138.38 242.81,-135.29 249,-131.5 268.57,-119.52 265.25,-106.18 285,-94.5 288.67,-92.33 292.6,-90.4 296.64,-88.69"/>
<polygon fill="#63b8ff" stroke="#63b8ff" points="298.12,-91.87 306.24,-85.06 295.65,-85.32 298.12,-91.87"/>
</a>
</g>
</g>
<!-- Node43 -->
<g id="Node000043" class="node">
<title>Node43</title>
<g id="a_Node000043"><a xlink:href="collision_8c.html#a6527a2135a10909cdf9a1fd731be5628" target="_top" xlink:title=" ">
<polygon fill="white" stroke="#666666" points="599,-122 461,-122 461,-103 599,-103 599,-122"/>
<text text-anchor="middle" x="530" y="-110" font-family="Helvetica,sans-Serif" font-size="10.00">calculate_surface_height</text>
</a>
</g>
</g>
<!-- Node42&#45;&gt;Node43 -->
<g id="edge50_Node000042_Node000043" class="edge">
<title>Node42&#45;&gt;Node43</title>
<g id="a_edge50_Node000042_Node000043"><a xlink:title=" ">
<path fill="none" stroke="#63b8ff" d="M400.55,-85.03C423.07,-89.84 450.58,-95.73 474.36,-100.81"/>
<polygon fill="#63b8ff" stroke="#63b8ff" points="473.79,-104.27 484.3,-102.94 475.25,-97.43 473.79,-104.27"/>
</a>
</g>
</g>
<!-- Node44 -->
<g id="Node000044" class="node">
<title>Node44</title>
<g id="a_Node000044"><a xlink:href="collision_8c.html#a0fe340ccfe1d926a592ea9a0c84d7574" target="_top" xlink:title=" ">
<polygon fill="white" stroke="#666666" points="596,-84.5 464,-84.5 464,-54.5 596,-54.5 596,-84.5"/>
<text text-anchor="start" x="472" y="-72.5" font-family="Helvetica,sans-Serif" font-size="10.00">check_horizontally</text>
<text text-anchor="middle" x="530" y="-61.5" font-family="Helvetica,sans-Serif" font-size="10.00">_colliding_with_triangle</text>
</a>
</g>
</g>
<!-- Node42&#45;&gt;Node44 -->
<g id="edge51_Node000042_Node000044" class="edge">
<title>Node42&#45;&gt;Node44</title>
<g id="a_edge51_Node000042_Node000044"><a xlink:title=" ">
<path fill="none" stroke="#63b8ff" d="M423.88,-73.15C433.64,-72.81 443.74,-72.46 453.64,-72.11"/>
<polygon fill="#63b8ff" stroke="#63b8ff" points="453.99,-75.6 463.86,-71.76 453.75,-68.61 453.99,-75.6"/>
</a>
</g>
</g>
<!-- Node45&#45;&gt;Node3 -->
<g id="edge53_Node000045_Node000003" class="edge">
<title>Node45&#45;&gt;Node3</title>
<g id="a_edge53_Node000045_Node000003"><a xlink:title=" ">
<path fill="none" stroke="#63b8ff" d="M230.95,-122.1C237.42,-124.77 243.69,-128.17 249,-132.5 304.47,-177.77 336.14,-260.57 348.25,-298.09"/>
<polygon fill="#63b8ff" stroke="#63b8ff" points="344.96,-299.29 351.27,-307.8 351.64,-297.22 344.96,-299.29"/>
</a>
</g>
</g>
<!-- Node45&#45;&gt;Node10 -->
<g id="edge54_Node000045_Node000010" class="edge">
<title>Node45&#45;&gt;Node10</title>
<g id="a_edge54_Node000045_Node000010"><a xlink:title=" ">
<path fill="none" stroke="#63b8ff" d="M199.87,-102.86C217.58,-89.67 251.72,-66.5 285,-56.5 483.66,3.19 735.43,-11.94 840.24,-21.99"/>
<polygon fill="#63b8ff" stroke="#63b8ff" points="839.92,-25.47 850.22,-22.97 840.61,-18.5 839.92,-25.47"/>
</a>
</g>
</g>
<!-- Node45&#45;&gt;Node41 -->
<g id="edge55_Node000045_Node000041" class="edge">
<title>Node45&#45;&gt;Node41</title>
<g id="a_edge55_Node000045_Node000041"><a xlink:title=" ">
<path fill="none" stroke="#63b8ff" d="M236.11,-112.5C258.23,-112.5 284.33,-112.5 306.34,-112.5"/>
<polygon fill="#63b8ff" stroke="#63b8ff" points="306.45,-116 316.45,-112.5 306.45,-109 306.45,-116"/>
</a>
</g>
</g>
<!-- Node45&#45;&gt;Node42 -->
<g id="edge56_Node000045_Node000042" class="edge">
<title>Node45&#45;&gt;Node42</title>
<g id="a_edge56_Node000045_Node000042"><a xlink:title=" ">
<path fill="none" stroke="#63b8ff" d="M230.38,-102.97C251.95,-98.18 278.29,-92.32 301.11,-87.25"/>
<polygon fill="#63b8ff" stroke="#63b8ff" points="301.98,-90.65 310.98,-85.06 300.46,-83.81 301.98,-90.65"/>
</a>
</g>
</g>
</g>
</svg>

<g id="navigator" transform="translate(0 0)" fill="#404254">
  <rect fill="#f2f5e9" fill-opacity="0.5" stroke="#606060" stroke-width=".5" x="0" y="0" width="60" height="60"/>
  <use id="zoomplus" xlink:href="#zoomPlus" x="17" y="9" onmousedown="handleZoom(evt,'in')"/>
  <use id="zoomminus" xlink:href="#zoomMin" x="42" y="9" onmousedown="handleZoom(evt,'out')"/>
  <use id="reset" xlink:href="#resetDef" x="30" y="36" onmousedown="handleReset()"/>
   <use id="arrowup" xlink:href="#arrowUp" x="0" y="0" onmousedown="handlePan(0,-1)"/>
  <use id="arrowright" xlink:href="#arrowRight" x="0" y="0" onmousedown="handlePan(1,0)"/>
  <use id="arrowdown" xlink:href="#arrowDown" x="0" y="0" onmousedown="handlePan(0,1)"/>
  <use id="arrowleft" xlink:href="#arrowLeft" x="0" y="0" onmousedown="handlePan(-1,0)"/>
</g>
<svg viewBox="0 0 15 15" width="100%" height="30px" preserveAspectRatio="xMaxYMin meet">
 <g id="arrow_out" transform="scale(0.3 0.3)">
  <a xlink:href="RegisterActors_8cpp_a513a516f10b29e918841fd3b27e0a1b6_cgraph_org.svg" target="_base">
   <rect id="button" ry="5" rx="5" y="6" x="6" height="38" width="38"
        fill="#f2f5e9" fill-opacity="0.5" stroke="#606060" stroke-width="1.0"/>
   <path id="arrow"
     d="M 11.500037,31.436501 C 11.940474,20.09759 22.043105,11.32322 32.158766,21.979434 L 37.068811,17.246167 C 37.068811,17.246167 37.088388,32 37.088388,32 L 22.160133,31.978069 C 22.160133,31.978069 26.997745,27.140456 26.997745,27.140456 C 18.528582,18.264221 13.291696,25.230495 11.500037,31.436501 z"
     style="fill:#404040;"/>
  </a>
 </g>
</svg>

<style type='text/css'>
<![CDATA[
[data-mouse-over-selected='false'] { opacity: 0.7; }
[data-mouse-over-selected='true']  { opacity: 1.0; }
]]>
</style>
<script type="application/ecmascript"><![CDATA[
document.addEventListener('DOMContentLoaded', (event) => {
  highlightEdges();
  highlightAdjacentNodes();
});
]]></script>
</svg>
