<?xml version="1.0" encoding="UTF-8" standalone="no"?>
<!DOCTYPE svg PUBLIC "-//W3C//DTD SVG 1.1//EN"
 "http://www.w3.org/Graphics/SVG/1.1/DTD/svg11.dtd">
<!-- Generated by graphviz version 2.43.0 (0)
 -->
<!-- Title: func_802966A0 Pages: 1 -->
<svg width="481pt" height="64pt"
 viewBox="0.00 0.00 481.00 64.00" xmlns="http://www.w3.org/2000/svg" xmlns:xlink="http://www.w3.org/1999/xlink">
<g id="graph0" class="graph" transform="scale(1 1) rotate(0) translate(4 60)">
<title>func_802966A0</title>
<!-- Node1 -->
<g id="Node000001" class="node">
<title>Node1</title>
<g id="a_Node000001"><a xlink:title=" ">
<polygon fill="#999999" stroke="#666666" points="92,-38 0,-38 0,-19 92,-19 92,-38"/>
<text text-anchor="middle" x="46" y="-26" font-family="Helvetica,sans-Serif" font-size="10.00">func_802966A0</text>
</a>
</g>
</g>
<!-- Node2 -->
<g id="Node000002" class="node">
<title>Node2</title>
<g id="a_Node000002"><a xlink:href="Game_8cpp.html#ad83fb22a60760cab0498053877c28ca0" target="_top" xlink:title=" ">
<polygon fill="white" stroke="#666666" points="249,-38 128,-38 128,-19 249,-19 249,-38"/>
<text text-anchor="middle" x="188.5" y="-26" font-family="Helvetica,sans-Serif" font-size="10.00">CM_ScrollingTextures</text>
</a>
</g>
</g>
<!-- Node1&#45;&gt;Node2 -->
<g id="edge1_Node000001_Node000002" class="edge">
<title>Node1&#45;&gt;Node2</title>
<g id="a_edge1_Node000001_Node000002"><a xlink:title=" ">
<path fill="none" stroke="#63b8ff" d="M92.23,-28.5C100.42,-28.5 109.12,-28.5 117.82,-28.5"/>
<polygon fill="#63b8ff" stroke="#63b8ff" points="117.99,-32 127.99,-28.5 117.99,-25 117.99,-32"/>
</a>
</g>
</g>
<!-- Node3 -->
<g id="Node000003" class="node">
<title>Node3</title>
<g id="a_Node000003"><a xlink:href="Game_8cpp.html#a0967ca61e9f768c9e278fef7b8030085" target="_top" xlink:title=" ">
<polygon fill="white" stroke="#666666" points="344,-38 285,-38 285,-19 344,-19 344,-38"/>
<text text-anchor="middle" x="314.5" y="-26" font-family="Helvetica,sans-Serif" font-size="10.00">GetTrack</text>
</a>
</g>
</g>
<!-- Node2&#45;&gt;Node3 -->
<g id="edge2_Node000002_Node000003" class="edge">
<title>Node2&#45;&gt;Node3</title>
<g id="a_edge2_Node000002_Node000003"><a xlink:title=" ">
<path fill="none" stroke="#63b8ff" d="M249.32,-28.5C257.93,-28.5 266.6,-28.5 274.66,-28.5"/>
<polygon fill="#63b8ff" stroke="#63b8ff" points="274.85,-32 284.85,-28.5 274.85,-25 274.85,-32"/>
</a>
</g>
</g>
<!-- Node4 -->
<g id="Node000004" class="node">
<title>Node4</title>
<g id="a_Node000004"><a xlink:href="classWorld.html#a1a4dacc6aea0b846df998be0afc239f7" target="_top" xlink:title=" ">
<polygon fill="white" stroke="#666666" points="473,-56 380,-56 380,-37 473,-37 473,-56"/>
<text text-anchor="middle" x="426.5" y="-44" font-family="Helvetica,sans-Serif" font-size="10.00">World::GetTrack</text>
</a>
</g>
</g>
<!-- Node2&#45;&gt;Node4 -->
<g id="edge5_Node000002_Node000004" class="edge">
<title>Node2&#45;&gt;Node4</title>
<g id="a_edge5_Node000002_Node000004"><a xlink:title=" ">
<path fill="none" stroke="#63b8ff" d="M228.27,-38.01C245.52,-41.78 266.16,-45.64 285,-47.5 311.1,-50.07 317.78,-47.66 344,-47.5 352.34,-47.45 361.16,-47.37 369.8,-47.27"/>
<polygon fill="#63b8ff" stroke="#63b8ff" points="369.85,-50.77 379.81,-47.16 369.77,-43.77 369.85,-50.77"/>
</a>
</g>
</g>
<!-- Node5 -->
<g id="Node000005" class="node">
<title>Node5</title>
<g id="a_Node000005"><a xlink:href="Game_8cpp.html#ae2fa844b3cb1021ecbc357f8ed2ad8cc" target="_top" xlink:title=" ">
<polygon fill="white" stroke="#666666" points="457.5,-19 395.5,-19 395.5,0 457.5,0 457.5,-19"/>
<text text-anchor="middle" x="426.5" y="-7" font-family="Helvetica,sans-Serif" font-size="10.00">GetWorld</text>
</a>
</g>
</g>
<!-- Node2&#45;&gt;Node5 -->
<g id="edge6_Node000002_Node000005" class="edge">
<title>Node2&#45;&gt;Node5</title>
<g id="a_edge6_Node000002_Node000005"><a xlink:title=" ">
<path fill="none" stroke="#63b8ff" d="M228.27,-18.99C245.52,-15.22 266.16,-11.36 285,-9.5 318.58,-6.19 356.89,-6.46 385.02,-7.4"/>
<polygon fill="#63b8ff" stroke="#63b8ff" points="385.14,-10.91 395.27,-7.79 385.41,-3.92 385.14,-10.91"/>
</a>
</g>
</g>
<!-- Node3&#45;&gt;Node4 -->
<g id="edge3_Node000003_Node000004" class="edge">
<title>Node3&#45;&gt;Node4</title>
<g id="a_edge3_Node000003_Node000004"><a xlink:title=" ">
<path fill="none" stroke="#63b8ff" d="M344.11,-33.18C352.07,-34.48 360.99,-35.94 369.93,-37.41"/>
<polygon fill="#63b8ff" stroke="#63b8ff" points="369.55,-40.89 379.98,-39.05 370.68,-33.98 369.55,-40.89"/>
</a>
</g>
</g>
<!-- Node3&#45;&gt;Node5 -->
<g id="edge4_Node000003_Node000005" class="edge">
<title>Node3&#45;&gt;Node5</title>
<g id="a_edge4_Node000003_Node000005"><a xlink:title=" ">
<path fill="none" stroke="#63b8ff" d="M344.11,-23.56C356.69,-21.38 371.69,-18.79 385.36,-16.43"/>
<polygon fill="#63b8ff" stroke="#63b8ff" points="386.23,-19.83 395.49,-14.68 385.04,-12.94 386.23,-19.83"/>
</a>
</g>
</g>
</g>
</svg>
