<?xml version="1.0" encoding="UTF-8" standalone="no"?>
<!DOCTYPE svg PUBLIC "-//W3C//DTD SVG 1.1//EN"
 "http://www.w3.org/Graphics/SVG/1.1/DTD/svg11.dtd">
<!-- Generated by graphviz version 2.43.0 (0)
 -->
<!-- Title: load_texture_block_rgba16_nomirror Pages: 1 -->
<svg width="730pt" height="38pt"
 viewBox="0.00 0.00 730.00 38.00" xmlns="http://www.w3.org/2000/svg" xmlns:xlink="http://www.w3.org/1999/xlink">
<g id="graph0" class="graph" transform="scale(1 1) rotate(0) translate(4 34)">
<title>load_texture_block_rgba16_nomirror</title>
<!-- Node1 -->
<g id="Node000001" class="node">
<title>Node1</title>
<g id="a_Node000001"><a xlink:title=" ">
<polygon fill="#999999" stroke="#666666" points="722,-30 612,-30 612,0 722,0 722,-30"/>
<text text-anchor="start" x="620" y="-18" font-family="Helvetica,sans-Serif" font-size="10.00">load_texture_block</text>
<text text-anchor="middle" x="667" y="-7" font-family="Helvetica,sans-Serif" font-size="10.00">_rgba16_nomirror</text>
</a>
</g>
</g>
<!-- Node2 -->
<g id="Node000002" class="node">
<title>Node2</title>
<g id="a_Node000002"><a xlink:href="render__objects_8c.html#a243bcfb0187ea97fe81ec01c4c2eea49" target="_top" xlink:title=" ">
<polygon fill="white" stroke="#666666" points="576,-24.5 485,-24.5 485,-5.5 576,-5.5 576,-24.5"/>
<text text-anchor="middle" x="530.5" y="-12.5" font-family="Helvetica,sans-Serif" font-size="10.00">func_80045F18</text>
</a>
</g>
</g>
<!-- Node1&#45;&gt;Node2 -->
<g id="edge1_Node000001_Node000002" class="edge">
<title>Node1&#45;&gt;Node2</title>
<g id="a_edge1_Node000001_Node000002"><a xlink:title=" ">
<path fill="none" stroke="#63b8ff" d="M601.62,-15C592.99,-15 584.3,-15 576.12,-15"/>
<polygon fill="#63b8ff" stroke="#63b8ff" points="601.68,-18.5 611.68,-15 601.68,-11.5 601.68,-18.5"/>
</a>
</g>
</g>
<!-- Node3 -->
<g id="Node000003" class="node">
<title>Node3</title>
<g id="a_Node000003"><a xlink:href="render__objects_8c.html#aaa67f0a32a64c29db8cc13fde62d6eba" target="_top" xlink:title=" ">
<polygon fill="white" stroke="#666666" points="449,-24.5 358,-24.5 358,-5.5 449,-5.5 449,-24.5"/>
<text text-anchor="middle" x="403.5" y="-12.5" font-family="Helvetica,sans-Serif" font-size="10.00">func_800468E0</text>
</a>
</g>
</g>
<!-- Node2&#45;&gt;Node3 -->
<g id="edge2_Node000002_Node000003" class="edge">
<title>Node2&#45;&gt;Node3</title>
<g id="a_edge2_Node000002_Node000003"><a xlink:title=" ">
<path fill="none" stroke="#63b8ff" d="M474.59,-15C466.16,-15 457.55,-15 449.38,-15"/>
<polygon fill="#63b8ff" stroke="#63b8ff" points="474.73,-18.5 484.73,-15 474.73,-11.5 474.73,-18.5"/>
</a>
</g>
</g>
<!-- Node4 -->
<g id="Node000004" class="node">
<title>Node4</title>
<g id="a_Node000004"><a xlink:href="classOChainChomp.html#ab768e973e179cd46fe28eccef540a015" target="_top" xlink:title=" ">
<polygon fill="white" stroke="#666666" points="322,-24.5 154,-24.5 154,-5.5 322,-5.5 322,-24.5"/>
<text text-anchor="middle" x="238" y="-12.5" font-family="Helvetica,sans-Serif" font-size="10.00">OChainChomp::func_80055AB8</text>
</a>
</g>
</g>
<!-- Node3&#45;&gt;Node4 -->
<g id="edge3_Node000003_Node000004" class="edge">
<title>Node3&#45;&gt;Node4</title>
<g id="a_edge3_Node000003_Node000004"><a xlink:title=" ">
<path fill="none" stroke="#63b8ff" d="M347.7,-15C339.51,-15 330.91,-15 322.29,-15"/>
<polygon fill="#63b8ff" stroke="#63b8ff" points="347.82,-18.5 357.82,-15 347.82,-11.5 347.82,-18.5"/>
</a>
</g>
</g>
<!-- Node5 -->
<g id="Node000005" class="node">
<title>Node5</title>
<g id="a_Node000005"><a xlink:href="classOChainChomp.html#a2e0ea3675cbfc3f96ef1580984c6149c" target="_top" xlink:title=" ">
<polygon fill="white" stroke="#666666" points="118,-24.5 0,-24.5 0,-5.5 118,-5.5 118,-24.5"/>
<text text-anchor="middle" x="59" y="-12.5" font-family="Helvetica,sans-Serif" font-size="10.00">OChainChomp::Draw</text>
</a>
</g>
</g>
<!-- Node4&#45;&gt;Node5 -->
<g id="edge4_Node000004_Node000005" class="edge">
<title>Node4&#45;&gt;Node5</title>
<g id="a_edge4_Node000004_Node000005"><a xlink:title=" ">
<path fill="none" stroke="#63b8ff" d="M143.7,-15C134.98,-15 126.32,-15 118.07,-15"/>
<polygon fill="#63b8ff" stroke="#63b8ff" points="143.94,-18.5 153.94,-15 143.94,-11.5 143.94,-18.5"/>
</a>
</g>
</g>
</g>
</svg>
