<?xml version="1.0" encoding="UTF-8" standalone="no"?>
<!DOCTYPE svg PUBLIC "-//W3C//DTD SVG 1.1//EN"
 "http://www.w3.org/Graphics/SVG/1.1/DTD/svg11.dtd">
<!-- Generated by graphviz version 2.43.0 (0)
 -->
<!-- Title: draw_item_window Pages: 1 -->
<svg width="864pt" height="101pt"
 viewBox="0.00 0.00 864.00 101.00" xmlns="http://www.w3.org/2000/svg" xmlns:xlink="http://www.w3.org/1999/xlink">
<g id="graph0" class="graph" transform="scale(1 1) rotate(0) translate(4 97)">
<title>draw_item_window</title>
<!-- Node1 -->
<g id="Node000001" class="node">
<title>Node1</title>
<g id="a_Node000001"><a xlink:title=" ">
<polygon fill="#999999" stroke="#666666" points="111,-56 0,-56 0,-37 111,-37 111,-56"/>
<text text-anchor="middle" x="55.5" y="-44" font-family="Helvetica,sans-Serif" font-size="10.00">draw_item_window</text>
</a>
</g>
</g>
<!-- Node2 -->
<g id="Node000002" class="node">
<title>Node2</title>
<g id="a_Node000002"><a xlink:href="render__objects_8c.html#a34fb3e71c237b45c897db290b1f420b5" target="_top" xlink:title=" ">
<polygon fill="white" stroke="#666666" points="239,-56 147,-56 147,-37 239,-37 239,-56"/>
<text text-anchor="middle" x="193" y="-44" font-family="Helvetica,sans-Serif" font-size="10.00">func_8004E4CC</text>
</a>
</g>
</g>
<!-- Node1&#45;&gt;Node2 -->
<g id="edge1_Node000001_Node000002" class="edge">
<title>Node1&#45;&gt;Node2</title>
<g id="a_edge1_Node000001_Node000002"><a xlink:title=" ">
<path fill="none" stroke="#63b8ff" d="M111.22,-46.5C119.58,-46.5 128.21,-46.5 136.58,-46.5"/>
<polygon fill="#63b8ff" stroke="#63b8ff" points="136.62,-50 146.62,-46.5 136.62,-43 136.62,-50"/>
</a>
</g>
</g>
<!-- Node3 -->
<g id="Node000003" class="node">
<title>Node3</title>
<g id="a_Node000003"><a xlink:href="render__objects_8c.html#a38493fda23503b6c3d4be25319ad025f" target="_top" xlink:title=" ">
<polygon fill="white" stroke="#666666" points="366,-56 275,-56 275,-37 366,-37 366,-56"/>
<text text-anchor="middle" x="320.5" y="-44" font-family="Helvetica,sans-Serif" font-size="10.00">func_8004E240</text>
</a>
</g>
</g>
<!-- Node2&#45;&gt;Node3 -->
<g id="edge2_Node000002_Node000003" class="edge">
<title>Node2&#45;&gt;Node3</title>
<g id="a_edge2_Node000002_Node000003"><a xlink:title=" ">
<path fill="none" stroke="#63b8ff" d="M239.31,-46.5C247.49,-46.5 256.11,-46.5 264.54,-46.5"/>
<polygon fill="#63b8ff" stroke="#63b8ff" points="264.68,-50 274.68,-46.5 264.68,-43 264.68,-50"/>
</a>
</g>
</g>
<!-- Node4 -->
<g id="Node000004" class="node">
<title>Node4</title>
<g id="a_Node000004"><a xlink:href="render__objects_8c.html#a9db4bcf94a21e16a6cf8f4c5d1d33835" target="_top" xlink:title=" ">
<polygon fill="white" stroke="#666666" points="494.5,-93 402.5,-93 402.5,-74 494.5,-74 494.5,-93"/>
<text text-anchor="middle" x="448.5" y="-81" font-family="Helvetica,sans-Serif" font-size="10.00">func_8004B05C</text>
</a>
</g>
</g>
<!-- Node3&#45;&gt;Node4 -->
<g id="edge3_Node000003_Node000004" class="edge">
<title>Node3&#45;&gt;Node4</title>
<g id="a_edge3_Node000003_Node000004"><a xlink:title=" ">
<path fill="none" stroke="#63b8ff" d="M353.95,-56.03C369.41,-60.57 388.1,-66.06 404.7,-70.93"/>
<polygon fill="#63b8ff" stroke="#63b8ff" points="404.14,-74.42 414.72,-73.88 406.12,-67.7 404.14,-74.42"/>
</a>
</g>
</g>
<!-- Node5 -->
<g id="Node000005" class="node">
<title>Node5</title>
<g id="a_Node000005"><a xlink:href="render__objects_8c.html#a65c6304cf8284f93c5d8db1f1dce4932" target="_top" xlink:title=" ">
<polygon fill="white" stroke="#666666" points="495,-56 402,-56 402,-37 495,-37 495,-56"/>
<text text-anchor="middle" x="448.5" y="-44" font-family="Helvetica,sans-Serif" font-size="10.00">func_8004DF5C</text>
</a>
</g>
</g>
<!-- Node3&#45;&gt;Node5 -->
<g id="edge4_Node000003_Node000005" class="edge">
<title>Node3&#45;&gt;Node5</title>
<g id="a_edge4_Node000003_Node000005"><a xlink:title=" ">
<path fill="none" stroke="#63b8ff" d="M366.28,-46.5C374.42,-46.5 383.02,-46.5 391.44,-46.5"/>
<polygon fill="#63b8ff" stroke="#63b8ff" points="391.59,-50 401.59,-46.5 391.59,-43 391.59,-50"/>
</a>
</g>
</g>
<!-- Node9 -->
<g id="Node000009" class="node">
<title>Node9</title>
<g id="a_Node000009"><a xlink:href="GBIMiddleware_8cpp.html#a4ecc44e3c6f1ca5a6b4a20c41d3bd2d2" target="_top" xlink:title=" ">
<polygon fill="white" stroke="#666666" points="493,-19 404,-19 404,0 493,0 493,-19"/>
<text text-anchor="middle" x="448.5" y="-7" font-family="Helvetica,sans-Serif" font-size="10.00">gSPDisplayList</text>
</a>
</g>
</g>
<!-- Node3&#45;&gt;Node9 -->
<g id="edge8_Node000003_Node000009" class="edge">
<title>Node3&#45;&gt;Node9</title>
<g id="a_edge8_Node000003_Node000009"><a xlink:title=" ">
<path fill="none" stroke="#63b8ff" d="M353.95,-36.97C369.41,-32.43 388.1,-26.94 404.7,-22.07"/>
<polygon fill="#63b8ff" stroke="#63b8ff" points="406.12,-25.3 414.72,-19.12 404.14,-18.58 406.12,-25.3"/>
</a>
</g>
</g>
<!-- Node6 -->
<g id="Node000006" class="node">
<title>Node6</title>
<g id="a_Node000006"><a xlink:href="render__objects_8c.html#ac22e89e30eb787d96c44dd83f683930e" target="_top" xlink:title=" ">
<polygon fill="white" stroke="#666666" points="651.5,-93 559.5,-93 559.5,-74 651.5,-74 651.5,-93"/>
<text text-anchor="middle" x="605.5" y="-81" font-family="Helvetica,sans-Serif" font-size="10.00">func_8004B97C</text>
</a>
</g>
</g>
<!-- Node5&#45;&gt;Node6 -->
<g id="edge5_Node000005_Node000006" class="edge">
<title>Node5&#45;&gt;Node6</title>
<g id="a_edge5_Node000005_Node000006"><a xlink:title=" ">
<path fill="none" stroke="#63b8ff" d="M489.42,-56.03C509.32,-60.78 533.58,-66.57 554.69,-71.61"/>
<polygon fill="#63b8ff" stroke="#63b8ff" points="553.91,-75.02 564.45,-73.94 555.54,-68.21 553.91,-75.02"/>
</a>
</g>
</g>
<!-- Node8 -->
<g id="Node000008" class="node">
<title>Node8</title>
<g id="a_Node000008"><a xlink:href="render__objects_8c.html#a8a3e9d3da5a6ac97b84b553fdc5d7d59" target="_top" xlink:title=" ">
<polygon fill="white" stroke="#666666" points="654.5,-56 556.5,-56 556.5,-37 654.5,-37 654.5,-56"/>
<text text-anchor="middle" x="605.5" y="-44" font-family="Helvetica,sans-Serif" font-size="10.00">rsp_load_texture</text>
</a>
</g>
</g>
<!-- Node5&#45;&gt;Node8 -->
<g id="edge7_Node000005_Node000008" class="edge">
<title>Node5&#45;&gt;Node8</title>
<g id="a_edge7_Node000005_Node000008"><a xlink:title=" ">
<path fill="none" stroke="#63b8ff" d="M495.17,-46.5C511.14,-46.5 529.3,-46.5 546.16,-46.5"/>
<polygon fill="#63b8ff" stroke="#63b8ff" points="546.47,-50 556.47,-46.5 546.47,-43 546.47,-50"/>
</a>
</g>
</g>
<!-- Node7 -->
<g id="Node000007" class="node">
<title>Node7</title>
<g id="a_Node000007"><a xlink:href="render__objects_8c.html#a33684f0745ad1366fef89d3fd5ef598e" target="_top" xlink:title=" ">
<polygon fill="white" stroke="#666666" points="856,-93 716,-93 716,-74 856,-74 856,-93"/>
<text text-anchor="middle" x="786" y="-81" font-family="Helvetica,sans-Serif" font-size="10.00">render_texture_rectangle</text>
</a>
</g>
</g>
<!-- Node6&#45;&gt;Node7 -->
<g id="edge6_Node000006_Node000007" class="edge">
<title>Node6&#45;&gt;Node7</title>
<g id="a_edge6_Node000006_Node000007"><a xlink:title=" ">
<path fill="none" stroke="#63b8ff" d="M651.54,-83.5C668.01,-83.5 687.17,-83.5 705.74,-83.5"/>
<polygon fill="#63b8ff" stroke="#63b8ff" points="705.98,-87 715.98,-83.5 705.98,-80 705.98,-87"/>
</a>
</g>
</g>
<!-- Node10 -->
<g id="Node000010" class="node">
<title>Node10</title>
<g id="a_Node000010"><a xlink:href="Engine_8cpp.html#a223c8bc63f228dc11177515e38eff2db" target="_top" xlink:title=" ">
<polygon fill="white" stroke="#666666" points="680,-19 531,-19 531,0 680,0 680,-19"/>
<text text-anchor="middle" x="605.5" y="-7" font-family="Helvetica,sans-Serif" font-size="10.00">GameEngine_OTRSigCheck</text>
</a>
</g>
</g>
<!-- Node9&#45;&gt;Node10 -->
<g id="edge9_Node000009_Node000010" class="edge">
<title>Node9&#45;&gt;Node10</title>
<g id="a_edge9_Node000009_Node000010"><a xlink:title=" ">
<path fill="none" stroke="#63b8ff" d="M493.09,-9.5C501.7,-9.5 511.01,-9.5 520.45,-9.5"/>
<polygon fill="#63b8ff" stroke="#63b8ff" points="520.72,-13 530.72,-9.5 520.72,-6 520.72,-13"/>
</a>
</g>
</g>
<!-- Node11 -->
<g id="Node000011" class="node">
<title>Node11</title>
<g id="a_Node000011"><a xlink:href="string_8c.html#a008e171a518fe0e0352f31b245e03875" target="_top" xlink:title=" ">
<polygon fill="white" stroke="#666666" points="808,-19 764,-19 764,0 808,0 808,-19"/>
<text text-anchor="middle" x="786" y="-7" font-family="Helvetica,sans-Serif" font-size="10.00">strlen</text>
</a>
</g>
</g>
<!-- Node10&#45;&gt;Node11 -->
<g id="edge10_Node000010_Node000011" class="edge">
<title>Node10&#45;&gt;Node11</title>
<g id="a_edge10_Node000010_Node000011"><a xlink:title=" ">
<path fill="none" stroke="#63b8ff" d="M680.13,-9.5C705.69,-9.5 733.02,-9.5 753.37,-9.5"/>
<polygon fill="#63b8ff" stroke="#63b8ff" points="753.61,-13 763.61,-9.5 753.61,-6 753.61,-13"/>
</a>
</g>
</g>
</g>
</svg>
