<?xml version="1.0" encoding="UTF-8" standalone="no"?>
<!DOCTYPE svg PUBLIC "-//W3C//DTD SVG 1.1//EN"
 "http://www.w3.org/Graphics/SVG/1.1/DTD/svg11.dtd">
<!-- Generated by graphviz version 2.43.0 (0)
 -->
<!-- Title: func_8004DAB8 Pages: 1 -->
<svg width="951pt" height="138pt"
 viewBox="0.00 0.00 951.00 138.00" xmlns="http://www.w3.org/2000/svg" xmlns:xlink="http://www.w3.org/1999/xlink">
<g id="graph0" class="graph" transform="scale(1 1) rotate(0) translate(4 134)">
<title>func_8004DAB8</title>
<!-- Node1 -->
<g id="Node000001" class="node">
<title>Node1</title>
<g id="a_Node000001"><a xlink:title=" ">
<polygon fill="#999999" stroke="#666666" points="94,-74 0,-74 0,-55 94,-55 94,-74"/>
<text text-anchor="middle" x="47" y="-62" font-family="Helvetica,sans-Serif" font-size="10.00">func_8004DAB8</text>
</a>
</g>
</g>
<!-- Node2 -->
<g id="Node000002" class="node">
<title>Node2</title>
<g id="a_Node000002"><a xlink:href="render__objects_8c.html#ace17844cb3a8e3b2060b310b923b38ee" target="_top" xlink:title=" ">
<polygon fill="white" stroke="#666666" points="236,-130 145,-130 145,-111 236,-111 236,-130"/>
<text text-anchor="middle" x="190.5" y="-118" font-family="Helvetica,sans-Serif" font-size="10.00">func_80044924</text>
</a>
</g>
</g>
<!-- Node1&#45;&gt;Node2 -->
<g id="edge1_Node000001_Node000002" class="edge">
<title>Node1&#45;&gt;Node2</title>
<g id="a_edge1_Node000001_Node000002"><a xlink:title=" ">
<path fill="none" stroke="#63b8ff" d="M66.57,-74.02C82.98,-82.21 107.71,-94.01 130,-102.5 134.86,-104.35 139.99,-106.14 145.12,-107.83"/>
<polygon fill="#63b8ff" stroke="#63b8ff" points="144.34,-111.25 154.93,-110.94 146.45,-104.58 144.34,-111.25"/>
</a>
</g>
</g>
<!-- Node3 -->
<g id="Node000003" class="node">
<title>Node3</title>
<g id="a_Node000003"><a xlink:href="render__objects_8c.html#a95c5979766642960ae786fefaf80953c" target="_top" xlink:title=" ">
<polygon fill="white" stroke="#666666" points="251,-93 130,-93 130,-74 251,-74 251,-93"/>
<text text-anchor="middle" x="190.5" y="-81" font-family="Helvetica,sans-Serif" font-size="10.00">func_8004B97C_wide</text>
</a>
</g>
</g>
<!-- Node1&#45;&gt;Node3 -->
<g id="edge2_Node000001_Node000003" class="edge">
<title>Node1&#45;&gt;Node3</title>
<g id="a_edge2_Node000001_Node000003"><a xlink:title=" ">
<path fill="none" stroke="#63b8ff" d="M94.33,-70.72C102.5,-71.82 111.16,-72.98 119.81,-74.14"/>
<polygon fill="#63b8ff" stroke="#63b8ff" points="119.53,-77.64 129.91,-75.5 120.47,-70.7 119.53,-77.64"/>
</a>
</g>
</g>
<!-- Node9 -->
<g id="Node000009" class="node">
<title>Node9</title>
<g id="a_Node000009"><a xlink:href="GBIMiddleware_8cpp.html#a4ecc44e3c6f1ca5a6b4a20c41d3bd2d2" target="_top" xlink:title=" ">
<polygon fill="white" stroke="#666666" points="235,-56 146,-56 146,-37 235,-37 235,-56"/>
<text text-anchor="middle" x="190.5" y="-44" font-family="Helvetica,sans-Serif" font-size="10.00">gSPDisplayList</text>
</a>
</g>
</g>
<!-- Node1&#45;&gt;Node9 -->
<g id="edge9_Node000001_Node000009" class="edge">
<title>Node1&#45;&gt;Node9</title>
<g id="a_edge9_Node000001_Node000009"><a xlink:title=" ">
<path fill="none" stroke="#63b8ff" d="M94.33,-58.61C107.56,-56.92 122.09,-55.07 135.73,-53.34"/>
<polygon fill="#63b8ff" stroke="#63b8ff" points="136.47,-56.77 145.95,-52.04 135.58,-49.83 136.47,-56.77"/>
</a>
</g>
</g>
<!-- Node12 -->
<g id="Node000012" class="node">
<title>Node12</title>
<g id="a_Node000012"><a xlink:href="math__util_8c.html#a19ed3bd78fd2d3e2bd0a29f6caf48545" target="_top" xlink:title=" ">
<polygon fill="white" stroke="#666666" points="208.5,-19 172.5,-19 172.5,0 208.5,0 208.5,-19"/>
<text text-anchor="middle" x="190.5" y="-7" font-family="Helvetica,sans-Serif" font-size="10.00">sins</text>
</a>
</g>
</g>
<!-- Node1&#45;&gt;Node12 -->
<g id="edge12_Node000001_Node000012" class="edge">
<title>Node1&#45;&gt;Node12</title>
<g id="a_edge12_Node000001_Node000012"><a xlink:title=" ">
<path fill="none" stroke="#63b8ff" d="M67.25,-54.95C83.68,-47.02 108.06,-35.73 130,-27.5 140.53,-23.55 152.36,-19.83 162.67,-16.81"/>
<polygon fill="#63b8ff" stroke="#63b8ff" points="163.72,-20.15 172.38,-14.04 161.8,-13.42 163.72,-20.15"/>
</a>
</g>
</g>
<!-- Node4 -->
<g id="Node000004" class="node">
<title>Node4</title>
<g id="a_Node000004"><a xlink:href="render__objects_8c.html#aadbe7ac97f3cbf7b4c06e645f6dcbb74" target="_top" xlink:title=" ">
<polygon fill="white" stroke="#666666" points="455,-93 287,-93 287,-74 455,-74 455,-93"/>
<text text-anchor="middle" x="371" y="-81" font-family="Helvetica,sans-Serif" font-size="10.00">render_texture_rectangle_wide</text>
</a>
</g>
</g>
<!-- Node3&#45;&gt;Node4 -->
<g id="edge3_Node000003_Node000004" class="edge">
<title>Node3&#45;&gt;Node4</title>
<g id="a_edge3_Node000003_Node000004"><a xlink:title=" ">
<path fill="none" stroke="#63b8ff" d="M251.43,-83.5C259.59,-83.5 268.11,-83.5 276.68,-83.5"/>
<polygon fill="#63b8ff" stroke="#63b8ff" points="276.74,-87 286.74,-83.5 276.74,-80 276.74,-87"/>
</a>
</g>
</g>
<!-- Node5 -->
<g id="Node000005" class="node">
<title>Node5</title>
<g id="a_Node000005"><a xlink:href="Engine_8cpp.html#afc8b077c3a02d35419cae70c83942941" target="_top" xlink:title=" ">
<polygon fill="white" stroke="#666666" points="668,-130 495,-130 495,-111 668,-111 668,-130"/>
<text text-anchor="middle" x="581.5" y="-118" font-family="Helvetica,sans-Serif" font-size="10.00">OTRGetDimensionFromLeftEdge</text>
</a>
</g>
</g>
<!-- Node4&#45;&gt;Node5 -->
<g id="edge4_Node000004_Node000005" class="edge">
<title>Node4&#45;&gt;Node5</title>
<g id="a_edge4_Node000004_Node000005"><a xlink:title=" ">
<path fill="none" stroke="#63b8ff" d="M425.69,-93.03C453.43,-97.95 487.47,-103.99 516.56,-109.15"/>
<polygon fill="#63b8ff" stroke="#63b8ff" points="516.17,-112.64 526.63,-110.94 517.39,-105.75 516.17,-112.64"/>
</a>
</g>
</g>
<!-- Node8 -->
<g id="Node000008" class="node">
<title>Node8</title>
<g id="a_Node000008"><a xlink:href="Engine_8cpp.html#a17495ab17d6e9c65b2a76e3c88a7f718" target="_top" xlink:title=" ">
<polygon fill="white" stroke="#666666" points="672,-93 491,-93 491,-74 672,-74 672,-93"/>
<text text-anchor="middle" x="581.5" y="-81" font-family="Helvetica,sans-Serif" font-size="10.00">OTRGetDimensionFromRightEdge</text>
</a>
</g>
</g>
<!-- Node4&#45;&gt;Node8 -->
<g id="edge7_Node000004_Node000008" class="edge">
<title>Node4&#45;&gt;Node8</title>
<g id="a_edge7_Node000004_Node000008"><a xlink:title=" ">
<path fill="none" stroke="#63b8ff" d="M455,-83.5C463.49,-83.5 472.18,-83.5 480.82,-83.5"/>
<polygon fill="#63b8ff" stroke="#63b8ff" points="480.93,-87 490.93,-83.5 480.93,-80 480.93,-87"/>
</a>
</g>
</g>
<!-- Node6 -->
<g id="Node000006" class="node">
<title>Node6</title>
<g id="a_Node000006"><a xlink:href="Engine_8cpp.html#a130aa97f1c7fae24f3d23f8126e7506f" target="_top" xlink:title=" ">
<polygon fill="white" stroke="#666666" points="821,-111 708,-111 708,-92 821,-92 821,-111"/>
<text text-anchor="middle" x="764.5" y="-99" font-family="Helvetica,sans-Serif" font-size="10.00">OTRGetAspectRatio</text>
</a>
</g>
</g>
<!-- Node5&#45;&gt;Node6 -->
<g id="edge5_Node000005_Node000006" class="edge">
<title>Node5&#45;&gt;Node6</title>
<g id="a_edge5_Node000005_Node000006"><a xlink:title=" ">
<path fill="none" stroke="#63b8ff" d="M668.23,-111.5C678.09,-110.47 688.03,-109.42 697.58,-108.42"/>
<polygon fill="#63b8ff" stroke="#63b8ff" points="698.18,-111.88 707.76,-107.35 697.45,-104.91 698.18,-111.88"/>
</a>
</g>
</g>
<!-- Node7 -->
<g id="Node000007" class="node">
<title>Node7</title>
<g id="a_Node000007"><a xlink:href="Engine_8cpp.html#a29357c424545be61af4bd28d84fd344a" target="_top" xlink:title=" ">
<polygon fill="white" stroke="#666666" points="943,-111 857,-111 857,-92 943,-92 943,-111"/>
<text text-anchor="middle" x="900" y="-99" font-family="Helvetica,sans-Serif" font-size="10.00">GetInterpreter</text>
</a>
</g>
</g>
<!-- Node6&#45;&gt;Node7 -->
<g id="edge6_Node000006_Node000007" class="edge">
<title>Node6&#45;&gt;Node7</title>
<g id="a_edge6_Node000006_Node000007"><a xlink:title=" ">
<path fill="none" stroke="#63b8ff" d="M821.34,-101.5C829.68,-101.5 838.26,-101.5 846.52,-101.5"/>
<polygon fill="#63b8ff" stroke="#63b8ff" points="846.79,-105 856.79,-101.5 846.79,-98 846.79,-105"/>
</a>
</g>
</g>
<!-- Node8&#45;&gt;Node6 -->
<g id="edge8_Node000008_Node000006" class="edge">
<title>Node8&#45;&gt;Node6</title>
<g id="a_edge8_Node000008_Node000006"><a xlink:title=" ">
<path fill="none" stroke="#63b8ff" d="M672.2,-92.42C680.8,-93.28 689.4,-94.13 697.71,-94.96"/>
<polygon fill="#63b8ff" stroke="#63b8ff" points="697.37,-98.44 707.67,-95.95 698.06,-91.48 697.37,-98.44"/>
</a>
</g>
</g>
<!-- Node10 -->
<g id="Node000010" class="node">
<title>Node10</title>
<g id="a_Node000010"><a xlink:href="Engine_8cpp.html#a223c8bc63f228dc11177515e38eff2db" target="_top" xlink:title=" ">
<polygon fill="white" stroke="#666666" points="445.5,-56 296.5,-56 296.5,-37 445.5,-37 445.5,-56"/>
<text text-anchor="middle" x="371" y="-44" font-family="Helvetica,sans-Serif" font-size="10.00">GameEngine_OTRSigCheck</text>
</a>
</g>
</g>
<!-- Node9&#45;&gt;Node10 -->
<g id="edge10_Node000009_Node000010" class="edge">
<title>Node9&#45;&gt;Node10</title>
<g id="a_edge10_Node000009_Node000010"><a xlink:title=" ">
<path fill="none" stroke="#63b8ff" d="M235.17,-46.5C250.52,-46.5 268.34,-46.5 285.9,-46.5"/>
<polygon fill="#63b8ff" stroke="#63b8ff" points="286.18,-50 296.18,-46.5 286.18,-43 286.18,-50"/>
</a>
</g>
</g>
<!-- Node11 -->
<g id="Node000011" class="node">
<title>Node11</title>
<g id="a_Node000011"><a xlink:href="string_8c.html#a008e171a518fe0e0352f31b245e03875" target="_top" xlink:title=" ">
<polygon fill="white" stroke="#666666" points="603.5,-56 559.5,-56 559.5,-37 603.5,-37 603.5,-56"/>
<text text-anchor="middle" x="581.5" y="-44" font-family="Helvetica,sans-Serif" font-size="10.00">strlen</text>
</a>
</g>
</g>
<!-- Node10&#45;&gt;Node11 -->
<g id="edge11_Node000010_Node000011" class="edge">
<title>Node10&#45;&gt;Node11</title>
<g id="a_edge11_Node000010_Node000011"><a xlink:title=" ">
<path fill="none" stroke="#63b8ff" d="M445.51,-46.5C481.11,-46.5 521.97,-46.5 549.33,-46.5"/>
<polygon fill="#63b8ff" stroke="#63b8ff" points="549.46,-50 559.46,-46.5 549.46,-43 549.46,-50"/>
</a>
</g>
</g>
</g>
</svg>
