<?xml version="1.0" encoding="UTF-8" standalone="no"?>
<!DOCTYPE svg PUBLIC "-//W3C//DTD SVG 1.1//EN"
 "http://www.w3.org/Graphics/SVG/1.1/DTD/svg11.dtd">
<!-- Generated by graphviz version 2.43.0 (0)
 -->
<!-- Title: func_800563DC Pages: 1 -->
<!--zoomable 352 -->

<svg id="main" version="1.1" xmlns="http://www.w3.org/2000/svg" xmlns:xlink="http://www.w3.org/1999/xlink" xml:space="preserve" onload="init(evt)">

<style type="text/css"><![CDATA[
.node, .edge {opacity: 0.7;}
.node.selected, .edge.selected {opacity: 1;}
.edge:hover path { stroke: red; }
.edge:hover polygon { stroke: red; fill: red; }
]]></style>

<defs>
  <circle id="rim" cx="0" cy="0" r="7"/>
  <circle id="rim2" cx="0" cy="0" r="3.5"/>
  <g id="zoomPlus">
    <use xlink:href="#rim" fill="#404040"><set attributeName="fill" to="#808080" begin="zoomplus.mouseover" end="zoomplus.mouseout"/></use>
    <path d="M-4,0h8M0,-4v8" fill="none" stroke="white" stroke-width="1.5" pointer-events="none"/>
  </g>
  <g id="zoomMin">
    <use xlink:href="#rim" fill="#404040"><set attributeName="fill" to="#808080" begin="zoomminus.mouseover" end="zoomminus.mouseout"/></use>
    <path d="M-4,0h8" fill="none" stroke="white" stroke-width="1.5" pointer-events="none"/>
  </g>
  <g id="arrowUp" transform="translate(30 24)">
    <use xlink:href="#rim"/>
    <path pointer-events="none" fill="none" stroke="white" stroke-width="1.5" d="M0,-3.0v7 M-2.5,-0.5L0,-3.0L2.5,-0.5"/>
  </g>
  <g id="arrowRight" transform="rotate(90) translate(36 -43)">
    <use xlink:href="#rim"/>
    <path pointer-events="none" fill="none" stroke="white" stroke-width="1.5" d="M0,-3.0v7 M-2.5,-0.5L0,-3.0L2.5,-0.5"/>
  </g>
  <g id="arrowDown" transform="rotate(180) translate(-30 -48)">
    <use xlink:href="#rim"/>
    <path pointer-events="none" fill="none" stroke="white" stroke-width="1.5" d="M0,-3.0v7 M-2.5,-0.5L0,-3.0L2.5,-0.5"/>
  </g>
  <g id="arrowLeft" transform="rotate(270) translate(-36 17)">
    <use xlink:href="#rim"/>
    <path pointer-events="none" fill="none" stroke="white" stroke-width="1.5" d="M0,-3.0v7 M-2.5,-0.5L0,-3.0L2.5,-0.5"/>
  </g>
  <g id="resetDef">
    <use xlink:href="#rim2" fill="#404040"><set attributeName="fill" to="#808080" begin="reset.mouseover" end="reset.mouseout"/></use>
  </g>
</defs>
<script type="application/ecmascript">
var viewWidth = 1109;
var viewHeight = 352;
var sectionId = 'dynsection-428';
</script>
<script type="application/ecmascript" xlink:href="svg.min.js"/>
<svg id="graph" class="graph">
<g id="viewport">
<title>func_800563DC</title>
<!-- Node1 -->
<g id="Node000001" class="node">
<title>Node1</title>
<g id="a_Node000001"><a xlink:title=" ">
<polygon fill="#999999" stroke="#666666" points="93,-213 0,-213 0,-194 93,-194 93,-213"/>
<text text-anchor="middle" x="46.5" y="-201" font-family="Helvetica,sans-Serif" font-size="10.00">func_800563DC</text>
</a>
</g>
</g>
<!-- Node2 -->
<g id="Node000002" class="node">
<title>Node2</title>
<g id="a_Node000002"><a xlink:href="math__util__2_8c.html#a99d173c040cb4a9d0184df2605d71e32" target="_top" xlink:title=" ">
<polygon fill="white" stroke="#666666" points="224,-344 132,-344 132,-325 224,-325 224,-344"/>
<text text-anchor="middle" x="178" y="-332" font-family="Helvetica,sans-Serif" font-size="10.00">func_800418AC</text>
</a>
</g>
</g>
<!-- Node1&#45;&gt;Node2 -->
<g id="edge1_Node000001_Node000002" class="edge">
<title>Node1&#45;&gt;Node2</title>
<g id="a_edge1_Node000001_Node000002"><a xlink:title=" ">
<path fill="none" stroke="#63b8ff" d="M51.97,-213.14C62.44,-234.68 90.56,-287.13 129,-316.5 130.78,-317.86 132.68,-319.13 134.65,-320.31"/>
<polygon fill="#63b8ff" stroke="#63b8ff" points="133.14,-323.47 143.64,-324.93 136.34,-317.24 133.14,-323.47"/>
</a>
</g>
</g>
<!-- Node5 -->
<g id="Node000005" class="node">
<title>Node5</title>
<g id="a_Node000005"><a xlink:href="render__objects_8c.html#a852c220b9eb9af78cce8e5b866dba9b2" target="_top" xlink:title=" ">
<polygon fill="white" stroke="#666666" points="224,-307 132,-307 132,-288 224,-288 224,-307"/>
<text text-anchor="middle" x="178" y="-295" font-family="Helvetica,sans-Serif" font-size="10.00">func_8004B310</text>
</a>
</g>
</g>
<!-- Node1&#45;&gt;Node5 -->
<g id="edge4_Node000001_Node000005" class="edge">
<title>Node1&#45;&gt;Node5</title>
<g id="a_edge4_Node000001_Node000005"><a xlink:title=" ">
<path fill="none" stroke="#63b8ff" d="M55.59,-213.19C69.25,-229.02 98.41,-260.55 129,-279.5 131.48,-281.04 134.12,-282.48 136.82,-283.82"/>
<polygon fill="#63b8ff" stroke="#63b8ff" points="135.63,-287.12 146.19,-288 138.49,-280.73 135.63,-287.12"/>
</a>
</g>
</g>
<!-- Node6 -->
<g id="Node000006" class="node">
<title>Node6</title>
<g id="a_Node000006"><a xlink:href="render__objects_8c.html#a9ea20c14c263ed864d8e02d082b6b18b" target="_top" xlink:title=" ">
<polygon fill="white" stroke="#666666" points="224,-270 132,-270 132,-251 224,-251 224,-270"/>
<text text-anchor="middle" x="178" y="-258" font-family="Helvetica,sans-Serif" font-size="10.00">func_8004B414</text>
</a>
</g>
</g>
<!-- Node1&#45;&gt;Node6 -->
<g id="edge5_Node000001_Node000006" class="edge">
<title>Node1&#45;&gt;Node6</title>
<g id="a_edge5_Node000001_Node000006"><a xlink:title=" ">
<path fill="none" stroke="#63b8ff" d="M69.18,-213.04C90.19,-222.29 122.27,-236.41 145.98,-246.85"/>
<polygon fill="#63b8ff" stroke="#63b8ff" points="144.69,-250.1 155.25,-250.93 147.51,-243.7 144.69,-250.1"/>
</a>
</g>
</g>
<!-- Node7 -->
<g id="Node000007" class="node">
<title>Node7</title>
<g id="a_Node000007"><a xlink:href="render__objects_8c.html#a4f12cf578f0abd9e0aaa3f9adc4fe324" target="_top" xlink:title=" ">
<polygon fill="white" stroke="#666666" points="223.5,-194 132.5,-194 132.5,-175 223.5,-175 223.5,-194"/>
<text text-anchor="middle" x="178" y="-182" font-family="Helvetica,sans-Serif" font-size="10.00">func_800562E4</text>
</a>
</g>
</g>
<!-- Node1&#45;&gt;Node7 -->
<g id="edge6_Node000001_Node000007" class="edge">
<title>Node1&#45;&gt;Node7</title>
<g id="a_edge6_Node000001_Node000007"><a xlink:title=" ">
<path fill="none" stroke="#63b8ff" d="M93.16,-196.8C102.56,-195.42 112.55,-193.96 122.24,-192.53"/>
<polygon fill="#63b8ff" stroke="#63b8ff" points="122.81,-195.99 132.19,-191.07 121.79,-189.06 122.81,-195.99"/>
</a>
</g>
</g>
<!-- Node10 -->
<g id="Node000010" class="node">
<title>Node10</title>
<g id="a_Node000010"><a xlink:href="GBIMiddleware_8cpp.html#a4ecc44e3c6f1ca5a6b4a20c41d3bd2d2" target="_top" xlink:title=" ">
<polygon fill="white" stroke="#666666" points="391,-267 302,-267 302,-248 391,-248 391,-267"/>
<text text-anchor="middle" x="346.5" y="-255" font-family="Helvetica,sans-Serif" font-size="10.00">gSPDisplayList</text>
</a>
</g>
</g>
<!-- Node1&#45;&gt;Node10 -->
<g id="edge26_Node000001_Node000010" class="edge">
<title>Node1&#45;&gt;Node10</title>
<g id="a_edge26_Node000001_Node000010"><a xlink:title=" ">
<path fill="none" stroke="#63b8ff" d="M93.08,-211.76C146.61,-221.46 235.27,-237.53 292,-247.81"/>
<polygon fill="#63b8ff" stroke="#63b8ff" points="291.4,-251.25 301.86,-249.59 292.65,-244.37 291.4,-251.25"/>
</a>
</g>
</g>
<!-- Node13 -->
<g id="Node000013" class="node">
<title>Node13</title>
<g id="a_Node000013"><a xlink:href="GBIMiddleware_8cpp.html#aeef79449a27a710d73576e4a4f7f7f99" target="_top" xlink:title=" ">
<polygon fill="white" stroke="#666666" points="379.5,-156 313.5,-156 313.5,-137 379.5,-137 379.5,-156"/>
<text text-anchor="middle" x="346.5" y="-144" font-family="Helvetica,sans-Serif" font-size="10.00">gSPVertex</text>
</a>
</g>
</g>
<!-- Node1&#45;&gt;Node13 -->
<g id="edge27_Node000001_Node000013" class="edge">
<title>Node1&#45;&gt;Node13</title>
<g id="a_edge27_Node000001_Node000013"><a xlink:title=" ">
<path fill="none" stroke="#63b8ff" d="M64.06,-193.98C80.11,-185.25 105.42,-172.75 129,-166.5 188.11,-150.83 259.12,-146.98 303.28,-146.27"/>
<polygon fill="#63b8ff" stroke="#63b8ff" points="303.41,-149.77 313.37,-146.16 303.33,-142.77 303.41,-149.77"/>
</a>
</g>
</g>
<!-- Node14 -->
<g id="Node000014" class="node">
<title>Node14</title>
<g id="a_Node000014"><a xlink:href="math__util__2_8c.html#a2eff0e02deb703653ee3230fbc02eb14" target="_top" xlink:title="set the matrix to a transformation matrix">
<polygon fill="white" stroke="#666666" points="430,-118 263,-118 263,-99 430,-99 430,-118"/>
<text text-anchor="middle" x="346.5" y="-106" font-family="Helvetica,sans-Serif" font-size="10.00">rsp_set_matrix_transformation</text>
</a>
</g>
</g>
<!-- Node1&#45;&gt;Node14 -->
<g id="edge29_Node000001_Node000014" class="edge">
<title>Node1&#45;&gt;Node14</title>
<g id="a_edge29_Node000001_Node000014"><a xlink:title=" ">
<path fill="none" stroke="#63b8ff" d="M58.18,-193.68C72.93,-180.7 100.92,-158.11 129,-146.5 167.93,-130.4 213.54,-121.12 252.84,-115.77"/>
<polygon fill="#63b8ff" stroke="#63b8ff" points="253.48,-119.22 262.95,-114.47 252.58,-112.28 253.48,-119.22"/>
</a>
</g>
</g>
<!-- Node25 -->
<g id="Node000025" class="node">
<title>Node25</title>
<g id="a_Node000025"><a xlink:href="render__objects_8c.html#a8a3e9d3da5a6ac97b84b553fdc5d7d59" target="_top" xlink:title=" ">
<polygon fill="white" stroke="#666666" points="227,-80 129,-80 129,-61 227,-61 227,-80"/>
<text text-anchor="middle" x="178" y="-68" font-family="Helvetica,sans-Serif" font-size="10.00">rsp_load_texture</text>
</a>
</g>
</g>
<!-- Node1&#45;&gt;Node25 -->
<g id="edge28_Node000001_Node000025" class="edge">
<title>Node1&#45;&gt;Node25</title>
<g id="a_edge28_Node000001_Node000025"><a xlink:title=" ">
<path fill="none" stroke="#63b8ff" d="M52.63,-193.87C63.98,-173.3 93.1,-124.5 129,-94.5 133.29,-90.91 138.2,-87.69 143.22,-84.86"/>
<polygon fill="#63b8ff" stroke="#63b8ff" points="144.96,-87.9 152.23,-80.18 141.74,-81.68 144.96,-87.9"/>
</a>
</g>
</g>
<!-- Node3 -->
<g id="Node000003" class="node">
<title>Node3</title>
<g id="a_Node000003"><a xlink:href="math__util_8c.html#aaa39a297477f56051975259f4bddd829" target="_top" xlink:title=" ">
<polygon fill="white" stroke="#666666" points="371.5,-344 321.5,-344 321.5,-325 371.5,-325 371.5,-344"/>
<text text-anchor="middle" x="346.5" y="-332" font-family="Helvetica,sans-Serif" font-size="10.00">atan2s</text>
</a>
</g>
</g>
<!-- Node2&#45;&gt;Node3 -->
<g id="edge2_Node000002_Node000003" class="edge">
<title>Node2&#45;&gt;Node3</title>
<g id="a_edge2_Node000002_Node000003"><a xlink:title=" ">
<path fill="none" stroke="#63b8ff" d="M224.06,-334.5C251.53,-334.5 286.09,-334.5 311.3,-334.5"/>
<polygon fill="#63b8ff" stroke="#63b8ff" points="311.49,-338 321.49,-334.5 311.49,-331 311.49,-338"/>
</a>
</g>
</g>
<!-- Node4 -->
<g id="Node000004" class="node">
<title>Node4</title>
<g id="a_Node000004"><a xlink:href="math__util_8c.html#a0273b0ea0783a06996c28669a7438ed9" target="_top" xlink:title=" ">
<polygon fill="white" stroke="#666666" points="595,-344 513,-344 513,-325 595,-325 595,-344"/>
<text text-anchor="middle" x="554" y="-332" font-family="Helvetica,sans-Serif" font-size="10.00">atan2_lookup</text>
</a>
</g>
</g>
<!-- Node3&#45;&gt;Node4 -->
<g id="edge3_Node000003_Node000004" class="edge">
<title>Node3&#45;&gt;Node4</title>
<g id="a_edge3_Node000003_Node000004"><a xlink:title=" ">
<path fill="none" stroke="#63b8ff" d="M371.88,-334.5C403.93,-334.5 461.03,-334.5 502.56,-334.5"/>
<polygon fill="#63b8ff" stroke="#63b8ff" points="502.77,-338 512.77,-334.5 502.77,-331 502.77,-338"/>
</a>
</g>
</g>
<!-- Node8 -->
<g id="Node000008" class="node">
<title>Node8</title>
<g id="a_Node000008"><a xlink:href="render__objects_8c.html#a01f1c93f475b407a8e57888c6a6dd45b" target="_top" xlink:title=" ">
<polygon fill="white" stroke="#666666" points="392.5,-230 300.5,-230 300.5,-211 392.5,-211 392.5,-230"/>
<text text-anchor="middle" x="346.5" y="-218" font-family="Helvetica,sans-Serif" font-size="10.00">func_80044BF8</text>
</a>
</g>
</g>
<!-- Node7&#45;&gt;Node8 -->
<g id="edge7_Node000007_Node000008" class="edge">
<title>Node7&#45;&gt;Node8</title>
<g id="a_edge7_Node000007_Node000008"><a xlink:title=" ">
<path fill="none" stroke="#63b8ff" d="M223.18,-194.05C244.15,-198.59 269.4,-204.05 291.5,-208.82"/>
<polygon fill="#63b8ff" stroke="#63b8ff" points="290.89,-212.27 301.4,-210.97 292.37,-205.43 290.89,-212.27"/>
</a>
</g>
</g>
<!-- Node9 -->
<g id="Node000009" class="node">
<title>Node9</title>
<g id="a_Node000009"><a xlink:href="render__objects_8c.html#a816f6d2e246056f98e788f34a8bd091a" target="_top" xlink:title=" ">
<polygon fill="white" stroke="#666666" points="392.5,-193 300.5,-193 300.5,-174 392.5,-174 392.5,-193"/>
<text text-anchor="middle" x="346.5" y="-181" font-family="Helvetica,sans-Serif" font-size="10.00">func_8004B138</text>
</a>
</g>
</g>
<!-- Node7&#45;&gt;Node9 -->
<g id="edge8_Node000007_Node000009" class="edge">
<title>Node7&#45;&gt;Node9</title>
<g id="a_edge8_Node000007_Node000009"><a xlink:title=" ">
<path fill="none" stroke="#63b8ff" d="M223.62,-184.23C244.16,-184.11 268.73,-183.96 290.41,-183.83"/>
<polygon fill="#63b8ff" stroke="#63b8ff" points="290.49,-187.33 300.47,-183.77 290.45,-180.33 290.49,-187.33"/>
</a>
</g>
</g>
<!-- Node7&#45;&gt;Node10 -->
<g id="edge9_Node000007_Node000010" class="edge">
<title>Node7&#45;&gt;Node10</title>
<g id="a_edge9_Node000007_Node000010"><a xlink:title=" ">
<path fill="none" stroke="#63b8ff" d="M201.14,-194.16C209.5,-198.16 218.93,-203.13 227,-208.5 244.58,-220.2 244.11,-230.07 263,-239.5 271.95,-243.97 282,-247.33 291.91,-249.86"/>
<polygon fill="#63b8ff" stroke="#63b8ff" points="291.21,-253.29 301.74,-252.13 292.78,-246.47 291.21,-253.29"/>
</a>
</g>
</g>
<!-- Node7&#45;&gt;Node13 -->
<g id="edge12_Node000007_Node000013" class="edge">
<title>Node7&#45;&gt;Node13</title>
<g id="a_edge12_Node000007_Node000013"><a xlink:title=" ">
<path fill="none" stroke="#63b8ff" d="M221.01,-174.91C246.25,-169.15 278.24,-161.85 303.47,-156.09"/>
<polygon fill="#63b8ff" stroke="#63b8ff" points="304.51,-159.44 313.48,-153.81 302.96,-152.62 304.51,-159.44"/>
</a>
</g>
</g>
<!-- Node7&#45;&gt;Node14 -->
<g id="edge14_Node000007_Node000014" class="edge">
<title>Node7&#45;&gt;Node14</title>
<g id="a_edge14_Node000007_Node000014"><a xlink:title=" ">
<path fill="none" stroke="#63b8ff" d="M190.15,-174.91C205.53,-162.19 234.57,-139.9 263,-127.5 268.75,-124.99 274.87,-122.79 281.08,-120.87"/>
<polygon fill="#63b8ff" stroke="#63b8ff" points="282.23,-124.18 290.88,-118.07 280.3,-117.45 282.23,-124.18"/>
</a>
</g>
</g>
<!-- Node11 -->
<g id="Node000011" class="node">
<title>Node11</title>
<g id="a_Node000011"><a xlink:href="Engine_8cpp.html#a223c8bc63f228dc11177515e38eff2db" target="_top" xlink:title=" ">
<polygon fill="white" stroke="#666666" points="628.5,-248 479.5,-248 479.5,-229 628.5,-229 628.5,-248"/>
<text text-anchor="middle" x="554" y="-236" font-family="Helvetica,sans-Serif" font-size="10.00">GameEngine_OTRSigCheck</text>
</a>
</g>
</g>
<!-- Node10&#45;&gt;Node11 -->
<g id="edge10_Node000010_Node000011" class="edge">
<title>Node10&#45;&gt;Node11</title>
<g id="a_edge10_Node000010_Node000011"><a xlink:title=" ">
<path fill="none" stroke="#63b8ff" d="M391.08,-253.47C413.75,-251.37 442.25,-248.74 469,-246.27"/>
<polygon fill="#63b8ff" stroke="#63b8ff" points="469.51,-249.73 479.15,-245.33 468.87,-242.76 469.51,-249.73"/>
</a>
</g>
</g>
<!-- Node12 -->
<g id="Node000012" class="node">
<title>Node12</title>
<g id="a_Node000012"><a xlink:href="string_8c.html#a008e171a518fe0e0352f31b245e03875" target="_top" xlink:title=" ">
<polygon fill="white" stroke="#666666" points="733.5,-248 689.5,-248 689.5,-229 733.5,-229 733.5,-248"/>
<text text-anchor="middle" x="711.5" y="-236" font-family="Helvetica,sans-Serif" font-size="10.00">strlen</text>
</a>
</g>
</g>
<!-- Node11&#45;&gt;Node12 -->
<g id="edge11_Node000011_Node000012" class="edge">
<title>Node11&#45;&gt;Node12</title>
<g id="a_edge11_Node000011_Node000012"><a xlink:title=" ">
<path fill="none" stroke="#63b8ff" d="M628.65,-238.5C646.29,-238.5 664.21,-238.5 678.77,-238.5"/>
<polygon fill="#63b8ff" stroke="#63b8ff" points="679.19,-242 689.19,-238.5 679.19,-235 679.19,-242"/>
</a>
</g>
</g>
<!-- Node13&#45;&gt;Node11 -->
<g id="edge13_Node000013_Node000011" class="edge">
<title>Node13&#45;&gt;Node11</title>
<g id="a_edge13_Node000013_Node000011"><a xlink:title=" ">
<path fill="none" stroke="#63b8ff" d="M379.54,-151.49C395.11,-154.51 413.9,-159.05 430,-165.5 468.02,-180.73 508.1,-206.63 531.81,-223.14"/>
<polygon fill="#63b8ff" stroke="#63b8ff" points="529.87,-226.05 540.06,-228.96 533.91,-220.34 529.87,-226.05"/>
</a>
</g>
</g>
<!-- Node15 -->
<g id="Node000015" class="node">
<title>Node15</title>
<g id="a_Node000015"><a xlink:href="Matrix_8cpp.html#a329d78c031733cf22ff7518f5d38fd74" target="_top" xlink:title=" ">
<polygon fill="white" stroke="#666666" points="597,-137 511,-137 511,-118 597,-118 597,-137"/>
<text text-anchor="middle" x="554" y="-125" font-family="Helvetica,sans-Serif" font-size="10.00">AddHudMatrix</text>
</a>
</g>
</g>
<!-- Node14&#45;&gt;Node15 -->
<g id="edge15_Node000014_Node000015" class="edge">
<title>Node14&#45;&gt;Node15</title>
<g id="a_edge15_Node000014_Node000015"><a xlink:title=" ">
<path fill="none" stroke="#63b8ff" d="M430.2,-116.15C453.97,-118.34 479.23,-120.68 500.62,-122.66"/>
<polygon fill="#63b8ff" stroke="#63b8ff" points="500.5,-126.16 510.78,-123.6 501.15,-119.19 500.5,-126.16"/>
</a>
</g>
</g>
<!-- Node21 -->
<g id="Node000021" class="node">
<title>Node21</title>
<g id="a_Node000021"><a xlink:href="math__util__2_8c.html#ae71383a9d7f97bcb240b23f68068ab30" target="_top" xlink:title=" ">
<polygon fill="white" stroke="#666666" points="642,-56 466,-56 466,-37 642,-37 642,-56"/>
<text text-anchor="middle" x="554" y="-44" font-family="Helvetica,sans-Serif" font-size="10.00">mtxf_set_matrix_transformation</text>
</a>
</g>
</g>
<!-- Node14&#45;&gt;Node21 -->
<g id="edge21_Node000014_Node000021" class="edge">
<title>Node14&#45;&gt;Node21</title>
<g id="a_edge21_Node000014_Node000021"><a xlink:title=" ">
<path fill="none" stroke="#63b8ff" d="M379.16,-98.95C414.68,-88.23 472.45,-70.8 511.55,-59.01"/>
<polygon fill="#63b8ff" stroke="#63b8ff" points="512.74,-62.3 521.31,-56.06 510.72,-55.6 512.74,-62.3"/>
</a>
</g>
</g>
<!-- Node16 -->
<g id="Node000016" class="node">
<title>Node16</title>
<g id="a_Node000016"><a xlink:href="Matrix_8cpp.html#a67401ed1d8de1f4d3a3e5a7b72842b6a" target="_top" xlink:title=" ">
<polygon fill="white" stroke="#666666" points="745,-137 678,-137 678,-118 745,-118 745,-137"/>
<text text-anchor="middle" x="711.5" y="-125" font-family="Helvetica,sans-Serif" font-size="10.00">AddMatrix</text>
</a>
</g>
</g>
<!-- Node15&#45;&gt;Node16 -->
<g id="edge16_Node000015_Node000016" class="edge">
<title>Node15&#45;&gt;Node16</title>
<g id="a_edge16_Node000015_Node000016"><a xlink:title=" ">
<path fill="none" stroke="#63b8ff" d="M597.08,-127.5C618.98,-127.5 645.69,-127.5 667.69,-127.5"/>
<polygon fill="#63b8ff" stroke="#63b8ff" points="667.76,-131 677.76,-127.5 667.76,-124 667.76,-131"/>
</a>
</g>
</g>
<!-- Node20 -->
<g id="Node000020" class="node">
<title>Node20</title>
<g id="a_Node000020"><a xlink:href="Game_8cpp.html#ae2fa844b3cb1021ecbc357f8ed2ad8cc" target="_top" xlink:title=" ">
<polygon fill="white" stroke="#666666" points="742.5,-174 680.5,-174 680.5,-155 742.5,-155 742.5,-174"/>
<text text-anchor="middle" x="711.5" y="-162" font-family="Helvetica,sans-Serif" font-size="10.00">GetWorld</text>
</a>
</g>
</g>
<!-- Node15&#45;&gt;Node20 -->
<g id="edge20_Node000015_Node000020" class="edge">
<title>Node15&#45;&gt;Node20</title>
<g id="a_edge20_Node000015_Node000020"><a xlink:title=" ">
<path fill="none" stroke="#63b8ff" d="M595.05,-137.03C618.25,-142.55 647.36,-149.48 670.55,-154.99"/>
<polygon fill="#63b8ff" stroke="#63b8ff" points="669.88,-158.43 680.41,-157.34 671.5,-151.62 669.88,-158.43"/>
</a>
</g>
</g>
<!-- Node17 -->
<g id="Node000017" class="node">
<title>Node17</title>
<g id="a_Node000017"><a xlink:href="FrameInterpolation_8cpp.html#a8cf1f2d6fabc6925aa71a9515341b4aa" target="_top" xlink:title=" ">
<polygon fill="white" stroke="#666666" points="939,-142.5 799,-142.5 799,-112.5 939,-112.5 939,-142.5"/>
<text text-anchor="start" x="807" y="-130.5" font-family="Helvetica,sans-Serif" font-size="10.00">FrameInterpolation</text>
<text text-anchor="middle" x="869" y="-119.5" font-family="Helvetica,sans-Serif" font-size="10.00">_RecordMatrixMtxFToMtx</text>
</a>
</g>
</g>
<!-- Node16&#45;&gt;Node17 -->
<g id="edge17_Node000016_Node000017" class="edge">
<title>Node16&#45;&gt;Node17</title>
<g id="a_edge17_Node000016_Node000017"><a xlink:title=" ">
<path fill="none" stroke="#63b8ff" d="M745.1,-127.5C757.96,-127.5 773.33,-127.5 788.79,-127.5"/>
<polygon fill="#63b8ff" stroke="#63b8ff" points="788.93,-131 798.93,-127.5 788.93,-124 788.93,-131"/>
</a>
</g>
</g>
<!-- Node19 -->
<g id="Node000019" class="node">
<title>Node19</title>
<g id="a_Node000019"><a xlink:href="guMtxF2L_8c.html#a40ab2d64c609839ff1e0ef0de2d0dcc4" target="_top" xlink:title=" ">
<polygon fill="white" stroke="#666666" points="901.5,-180 836.5,-180 836.5,-161 901.5,-161 901.5,-180"/>
<text text-anchor="middle" x="869" y="-168" font-family="Helvetica,sans-Serif" font-size="10.00">guMtxF2L</text>
</a>
</g>
</g>
<!-- Node16&#45;&gt;Node19 -->
<g id="edge19_Node000016_Node000019" class="edge">
<title>Node16&#45;&gt;Node19</title>
<g id="a_edge19_Node000016_Node000019"><a xlink:title=" ">
<path fill="none" stroke="#63b8ff" d="M737.32,-137.02C750.22,-141.76 766.33,-147.34 781,-151.5 795.6,-155.64 811.8,-159.39 826.22,-162.46"/>
<polygon fill="#63b8ff" stroke="#63b8ff" points="825.86,-165.95 836.36,-164.56 827.28,-159.1 825.86,-165.95"/>
</a>
</g>
</g>
<!-- Node18 -->
<g id="Node000018" class="node">
<title>Node18</title>
<g id="a_Node000018"><a xlink:href="FrameInterpolation_8cpp.html#a02c7ac5342a4d376edee38f312b480bf" target="_top" xlink:title=" ">
<polygon fill="white" stroke="#666666" points="1101,-113 993,-113 993,-94 1101,-94 1101,-113"/>
<text text-anchor="middle" x="1047" y="-101" font-family="Helvetica,sans-Serif" font-size="10.00">check_if_recording</text>
</a>
</g>
</g>
<!-- Node17&#45;&gt;Node18 -->
<g id="edge18_Node000017_Node000018" class="edge">
<title>Node17&#45;&gt;Node18</title>
<g id="a_edge18_Node000017_Node000018"><a xlink:title=" ">
<path fill="none" stroke="#63b8ff" d="M939.05,-118.08C953.47,-116.12 968.59,-114.06 982.78,-112.12"/>
<polygon fill="#63b8ff" stroke="#63b8ff" points="983.49,-115.56 992.93,-110.74 982.55,-108.62 983.49,-115.56"/>
</a>
</g>
</g>
<!-- Node22 -->
<g id="Node000022" class="node">
<title>Node22</title>
<g id="a_Node000022"><a xlink:href="math__util_8c.html#ae69cbf5c8d4b3b0dba2d7b4d4673689f" target="_top" xlink:title=" ">
<polygon fill="white" stroke="#666666" points="730.5,-56 692.5,-56 692.5,-37 730.5,-37 730.5,-56"/>
<text text-anchor="middle" x="711.5" y="-44" font-family="Helvetica,sans-Serif" font-size="10.00">coss</text>
</a>
</g>
</g>
<!-- Node21&#45;&gt;Node22 -->
<g id="edge22_Node000021_Node000022" class="edge">
<title>Node21&#45;&gt;Node22</title>
<g id="a_edge22_Node000021_Node000022"><a xlink:title=" ">
<path fill="none" stroke="#63b8ff" d="M642.3,-46.5C656.67,-46.5 670.6,-46.5 682.09,-46.5"/>
<polygon fill="#63b8ff" stroke="#63b8ff" points="682.29,-50 692.29,-46.5 682.28,-43 682.29,-50"/>
</a>
</g>
</g>
<!-- Node23 -->
<g id="Node000023" class="node">
<title>Node23</title>
<g id="a_Node000023"><a xlink:href="FrameInterpolation_8cpp.html#af749df1a96bee5c78287b1845455ae2d" target="_top" xlink:title=" ">
<polygon fill="white" stroke="#666666" points="957,-94.5 781,-94.5 781,-64.5 957,-64.5 957,-94.5"/>
<text text-anchor="start" x="789" y="-82.5" font-family="Helvetica,sans-Serif" font-size="10.00">FrameInterpolation</text>
<text text-anchor="middle" x="869" y="-71.5" font-family="Helvetica,sans-Serif" font-size="10.00">_RecordSetMatrixTransformation</text>
</a>
</g>
</g>
<!-- Node21&#45;&gt;Node23 -->
<g id="edge23_Node000021_Node000023" class="edge">
<title>Node21&#45;&gt;Node23</title>
<g id="a_edge23_Node000021_Node000023"><a xlink:title=" ">
<path fill="none" stroke="#63b8ff" d="M614.64,-56.04C634.73,-59.04 657.3,-62.17 678,-64.5 708.13,-67.89 741.04,-70.78 770.87,-73.08"/>
<polygon fill="#63b8ff" stroke="#63b8ff" points="770.63,-76.57 780.86,-73.84 771.16,-69.59 770.63,-76.57"/>
</a>
</g>
</g>
<!-- Node24 -->
<g id="Node000024" class="node">
<title>Node24</title>
<g id="a_Node000024"><a xlink:href="math__util_8c.html#a19ed3bd78fd2d3e2bd0a29f6caf48545" target="_top" xlink:title=" ">
<polygon fill="white" stroke="#666666" points="729.5,-19 693.5,-19 693.5,0 729.5,0 729.5,-19"/>
<text text-anchor="middle" x="711.5" y="-7" font-family="Helvetica,sans-Serif" font-size="10.00">sins</text>
</a>
</g>
</g>
<!-- Node21&#45;&gt;Node24 -->
<g id="edge25_Node000021_Node000024" class="edge">
<title>Node21&#45;&gt;Node24</title>
<g id="a_edge25_Node000021_Node000024"><a xlink:title=" ">
<path fill="none" stroke="#63b8ff" d="M595.05,-36.97C622.79,-30.37 659,-21.75 683.41,-15.95"/>
<polygon fill="#63b8ff" stroke="#63b8ff" points="684.48,-19.29 693.4,-13.57 682.86,-12.48 684.48,-19.29"/>
</a>
</g>
</g>
<!-- Node23&#45;&gt;Node18 -->
<g id="edge24_Node000023_Node000018" class="edge">
<title>Node23&#45;&gt;Node18</title>
<g id="a_edge24_Node000023_Node000018"><a xlink:title=" ">
<path fill="none" stroke="#63b8ff" d="M957.23,-91.39C965.83,-92.57 974.44,-93.74 982.74,-94.87"/>
<polygon fill="#63b8ff" stroke="#63b8ff" points="982.29,-98.34 992.67,-96.23 983.24,-91.41 982.29,-98.34"/>
</a>
</g>
</g>
</g>
</svg>

<g id="navigator" transform="translate(0 0)" fill="#404254">
  <rect fill="#f2f5e9" fill-opacity="0.5" stroke="#606060" stroke-width=".5" x="0" y="0" width="60" height="60"/>
  <use id="zoomplus" xlink:href="#zoomPlus" x="17" y="9" onmousedown="handleZoom(evt,'in')"/>
  <use id="zoomminus" xlink:href="#zoomMin" x="42" y="9" onmousedown="handleZoom(evt,'out')"/>
  <use id="reset" xlink:href="#resetDef" x="30" y="36" onmousedown="handleReset()"/>
   <use id="arrowup" xlink:href="#arrowUp" x="0" y="0" onmousedown="handlePan(0,-1)"/>
  <use id="arrowright" xlink:href="#arrowRight" x="0" y="0" onmousedown="handlePan(1,0)"/>
  <use id="arrowdown" xlink:href="#arrowDown" x="0" y="0" onmousedown="handlePan(0,1)"/>
  <use id="arrowleft" xlink:href="#arrowLeft" x="0" y="0" onmousedown="handlePan(-1,0)"/>
</g>
<svg viewBox="0 0 15 15" width="100%" height="30px" preserveAspectRatio="xMaxYMin meet">
 <g id="arrow_out" transform="scale(0.3 0.3)">
  <a xlink:href="render__objects_8c_a8e71bb2a914da25c9767d72707665f58_cgraph_org.svg" target="_base">
   <rect id="button" ry="5" rx="5" y="6" x="6" height="38" width="38"
        fill="#f2f5e9" fill-opacity="0.5" stroke="#606060" stroke-width="1.0"/>
   <path id="arrow"
     d="M 11.500037,31.436501 C 11.940474,20.09759 22.043105,11.32322 32.158766,21.979434 L 37.068811,17.246167 C 37.068811,17.246167 37.088388,32 37.088388,32 L 22.160133,31.978069 C 22.160133,31.978069 26.997745,27.140456 26.997745,27.140456 C 18.528582,18.264221 13.291696,25.230495 11.500037,31.436501 z"
     style="fill:#404040;"/>
  </a>
 </g>
</svg>

<style type='text/css'>
<![CDATA[
[data-mouse-over-selected='false'] { opacity: 0.7; }
[data-mouse-over-selected='true']  { opacity: 1.0; }
]]>
</style>
<script type="application/ecmascript"><![CDATA[
document.addEventListener('DOMContentLoaded', (event) => {
  highlightEdges();
  highlightAdjacentNodes();
});
]]></script>
</svg>
