<?xml version="1.0" encoding="UTF-8" standalone="no"?>
<!DOCTYPE svg PUBLIC "-//W3C//DTD SVG 1.1//EN"
 "http://www.w3.org/Graphics/SVG/1.1/DTD/svg11.dtd">
<!-- Generated by graphviz version 2.43.0 (0)
 -->
<!-- Title: render_object_leaf_particle Pages: 1 -->
<svg width="917pt" height="270pt"
 viewBox="0.00 0.00 917.00 269.50" xmlns="http://www.w3.org/2000/svg" xmlns:xlink="http://www.w3.org/1999/xlink">
<g id="graph0" class="graph" transform="scale(1 1) rotate(0) translate(4 265.5)">
<title>render_object_leaf_particle</title>
<!-- Node1 -->
<g id="Node000001" class="node">
<title>Node1</title>
<g id="a_Node000001"><a xlink:title=" ">
<polygon fill="#999999" stroke="#666666" points="107,-180.5 0,-180.5 0,-150.5 107,-150.5 107,-180.5"/>
<text text-anchor="start" x="8" y="-168.5" font-family="Helvetica,sans-Serif" font-size="10.00">render_object_leaf</text>
<text text-anchor="middle" x="53.5" y="-157.5" font-family="Helvetica,sans-Serif" font-size="10.00">_particle</text>
</a>
</g>
</g>
<!-- Node2 -->
<g id="Node000002" class="node">
<title>Node2</title>
<g id="a_Node000002"><a xlink:href="FrameInterpolation_8cpp.html#a3a036bc9d533e28a4e9697cd20dccf3e" target="_top" xlink:title=" ">
<polygon fill="white" stroke="#666666" points="750,-261.5 640,-261.5 640,-231.5 750,-231.5 750,-261.5"/>
<text text-anchor="start" x="648" y="-249.5" font-family="Helvetica,sans-Serif" font-size="10.00">FrameInterpolation</text>
<text text-anchor="middle" x="695" y="-238.5" font-family="Helvetica,sans-Serif" font-size="10.00">_RecordCloseChild</text>
</a>
</g>
</g>
<!-- Node1&#45;&gt;Node2 -->
<g id="edge1_Node000001_Node000002" class="edge">
<title>Node1&#45;&gt;Node2</title>
<g id="a_edge1_Node000001_Node000002"><a xlink:title=" ">
<path fill="none" stroke="#63b8ff" d="M82.82,-180.52C99.81,-188.88 122.12,-198.74 143,-204.5 313.94,-251.7 525.29,-252.63 629.58,-249.51"/>
<polygon fill="#63b8ff" stroke="#63b8ff" points="629.75,-253 639.63,-249.18 629.53,-246.01 629.75,-253"/>
</a>
</g>
</g>
<!-- Node4 -->
<g id="Node000004" class="node">
<title>Node4</title>
<g id="a_Node000004"><a xlink:href="FrameInterpolation_8cpp.html#a0eda726b74eac815af4e874014e2727c" target="_top" xlink:title=" ">
<polygon fill="white" stroke="#666666" points="462,-218.5 352,-218.5 352,-188.5 462,-188.5 462,-218.5"/>
<text text-anchor="start" x="360" y="-206.5" font-family="Helvetica,sans-Serif" font-size="10.00">FrameInterpolation</text>
<text text-anchor="middle" x="407" y="-195.5" font-family="Helvetica,sans-Serif" font-size="10.00">_RecordOpenChild</text>
</a>
</g>
</g>
<!-- Node1&#45;&gt;Node4 -->
<g id="edge3_Node000001_Node000004" class="edge">
<title>Node1&#45;&gt;Node4</title>
<g id="a_edge3_Node000001_Node000004"><a xlink:title=" ">
<path fill="none" stroke="#63b8ff" d="M107.16,-178.07C118.91,-180.51 131.33,-182.83 143,-184.5 210.48,-194.13 288.44,-198.99 341.86,-201.36"/>
<polygon fill="#63b8ff" stroke="#63b8ff" points="341.73,-204.86 351.87,-201.79 342.03,-197.87 341.73,-204.86"/>
</a>
</g>
</g>
<!-- Node5 -->
<g id="Node000005" class="node">
<title>Node5</title>
<g id="a_Node000005"><a xlink:href="GBIMiddleware_8cpp.html#a4ecc44e3c6f1ca5a6b4a20c41d3bd2d2" target="_top" xlink:title=" ">
<polygon fill="white" stroke="#666666" points="262,-175 173,-175 173,-156 262,-156 262,-175"/>
<text text-anchor="middle" x="217.5" y="-163" font-family="Helvetica,sans-Serif" font-size="10.00">gSPDisplayList</text>
</a>
</g>
</g>
<!-- Node1&#45;&gt;Node5 -->
<g id="edge5_Node000001_Node000005" class="edge">
<title>Node1&#45;&gt;Node5</title>
<g id="a_edge5_Node000001_Node000005"><a xlink:title=" ">
<path fill="none" stroke="#63b8ff" d="M107.1,-165.5C124.94,-165.5 144.9,-165.5 162.82,-165.5"/>
<polygon fill="#63b8ff" stroke="#63b8ff" points="162.83,-169 172.83,-165.5 162.83,-162 162.83,-169"/>
</a>
</g>
</g>
<!-- Node8 -->
<g id="Node000008" class="node">
<title>Node8</title>
<g id="a_Node000008"><a xlink:href="render__objects_8c.html#abb8ae92ab6d9189d5851fdfad2ac7f91" target="_top" xlink:title=" ">
<polygon fill="white" stroke="#666666" points="272.5,-137.5 162.5,-137.5 162.5,-107.5 272.5,-107.5 272.5,-137.5"/>
<text text-anchor="start" x="170.5" y="-125.5" font-family="Helvetica,sans-Serif" font-size="10.00">load_texture_block</text>
<text text-anchor="middle" x="217.5" y="-114.5" font-family="Helvetica,sans-Serif" font-size="10.00">_rgba16_mirror</text>
</a>
</g>
</g>
<!-- Node1&#45;&gt;Node8 -->
<g id="edge8_Node000001_Node000008" class="edge">
<title>Node1&#45;&gt;Node8</title>
<g id="a_edge8_Node000001_Node000008"><a xlink:title=" ">
<path fill="none" stroke="#63b8ff" d="M107.1,-151.54C121.57,-147.7 137.43,-143.49 152.48,-139.49"/>
<polygon fill="#63b8ff" stroke="#63b8ff" points="153.45,-142.86 162.22,-136.91 151.66,-136.09 153.45,-142.86"/>
</a>
</g>
</g>
<!-- Node9 -->
<g id="Node000009" class="node">
<title>Node9</title>
<g id="a_Node000009"><a xlink:href="math__util__2_8c.html#aca064a66dc29c36e1db7b79a6b679e25" target="_top" xlink:title=" ">
<polygon fill="white" stroke="#666666" points="292,-89 143,-89 143,-70 292,-70 292,-89"/>
<text text-anchor="middle" x="217.5" y="-77" font-family="Helvetica,sans-Serif" font-size="10.00">rsp_set_matrix_gObjectList</text>
</a>
</g>
</g>
<!-- Node1&#45;&gt;Node9 -->
<g id="edge9_Node000001_Node000009" class="edge">
<title>Node1&#45;&gt;Node9</title>
<g id="a_edge9_Node000001_Node000009"><a xlink:title=" ">
<path fill="none" stroke="#63b8ff" d="M70.48,-150.25C87.27,-135.03 115.07,-112.01 143,-98.5 147.89,-96.13 153.12,-94.04 158.44,-92.18"/>
<polygon fill="#63b8ff" stroke="#63b8ff" points="159.62,-95.48 168.08,-89.1 157.49,-88.81 159.62,-95.48"/>
</a>
</g>
</g>
<!-- Node3 -->
<g id="Node000003" class="node">
<title>Node3</title>
<g id="a_Node000003"><a xlink:href="FrameInterpolation_8cpp.html#a02c7ac5342a4d376edee38f312b480bf" target="_top" xlink:title=" ">
<polygon fill="white" stroke="#666666" points="909,-213 801,-213 801,-194 909,-194 909,-213"/>
<text text-anchor="middle" x="855" y="-201" font-family="Helvetica,sans-Serif" font-size="10.00">check_if_recording</text>
</a>
</g>
</g>
<!-- Node2&#45;&gt;Node3 -->
<g id="edge2_Node000002_Node000003" class="edge">
<title>Node2&#45;&gt;Node3</title>
<g id="a_edge2_Node000002_Node000003"><a xlink:title=" ">
<path fill="none" stroke="#63b8ff" d="M750.37,-231.7C769.51,-226.5 790.78,-220.71 809.04,-215.73"/>
<polygon fill="#63b8ff" stroke="#63b8ff" points="810.12,-219.07 818.85,-213.07 808.28,-212.31 810.12,-219.07"/>
</a>
</g>
</g>
<!-- Node4&#45;&gt;Node3 -->
<g id="edge4_Node000004_Node000003" class="edge">
<title>Node4&#45;&gt;Node3</title>
<g id="a_edge4_Node000004_Node000003"><a xlink:title=" ">
<path fill="none" stroke="#63b8ff" d="M462.24,-203.5C545.09,-203.5 702.77,-203.5 790.72,-203.5"/>
<polygon fill="#63b8ff" stroke="#63b8ff" points="790.83,-207 800.83,-203.5 790.83,-200 790.83,-207"/>
</a>
</g>
</g>
<!-- Node6 -->
<g id="Node000006" class="node">
<title>Node6</title>
<g id="a_Node000006"><a xlink:href="Engine_8cpp.html#a223c8bc63f228dc11177515e38eff2db" target="_top" xlink:title=" ">
<polygon fill="white" stroke="#666666" points="481.5,-170 332.5,-170 332.5,-151 481.5,-151 481.5,-170"/>
<text text-anchor="middle" x="407" y="-158" font-family="Helvetica,sans-Serif" font-size="10.00">GameEngine_OTRSigCheck</text>
</a>
</g>
</g>
<!-- Node5&#45;&gt;Node6 -->
<g id="edge6_Node000005_Node000006" class="edge">
<title>Node5&#45;&gt;Node6</title>
<g id="a_edge6_Node000005_Node000006"><a xlink:title=" ">
<path fill="none" stroke="#63b8ff" d="M262.46,-164.33C280.32,-163.85 301.58,-163.28 322.18,-162.74"/>
<polygon fill="#63b8ff" stroke="#63b8ff" points="322.33,-166.23 332.23,-162.47 322.14,-159.24 322.33,-166.23"/>
</a>
</g>
</g>
<!-- Node7 -->
<g id="Node000007" class="node">
<title>Node7</title>
<g id="a_Node000007"><a xlink:href="string_8c.html#a008e171a518fe0e0352f31b245e03875" target="_top" xlink:title=" ">
<polygon fill="white" stroke="#666666" points="577.5,-170 533.5,-170 533.5,-151 577.5,-151 577.5,-170"/>
<text text-anchor="middle" x="555.5" y="-158" font-family="Helvetica,sans-Serif" font-size="10.00">strlen</text>
</a>
</g>
</g>
<!-- Node6&#45;&gt;Node7 -->
<g id="edge7_Node000006_Node000007" class="edge">
<title>Node6&#45;&gt;Node7</title>
<g id="a_edge7_Node000006_Node000007"><a xlink:title=" ">
<path fill="none" stroke="#63b8ff" d="M481.68,-160.5C496.34,-160.5 510.97,-160.5 523.24,-160.5"/>
<polygon fill="#63b8ff" stroke="#63b8ff" points="523.35,-164 533.35,-160.5 523.35,-157 523.35,-164"/>
</a>
</g>
</g>
<!-- Node10 -->
<g id="Node000010" class="node">
<title>Node10</title>
<g id="a_Node000010"><a xlink:href="Matrix_8cpp.html#a329d78c031733cf22ff7518f5d38fd74" target="_top" xlink:title=" ">
<polygon fill="white" stroke="#666666" points="450,-93 364,-93 364,-74 450,-74 450,-93"/>
<text text-anchor="middle" x="407" y="-81" font-family="Helvetica,sans-Serif" font-size="10.00">AddHudMatrix</text>
</a>
</g>
</g>
<!-- Node9&#45;&gt;Node10 -->
<g id="edge10_Node000009_Node000010" class="edge">
<title>Node9&#45;&gt;Node10</title>
<g id="a_edge10_Node000009_Node000010"><a xlink:title=" ">
<path fill="none" stroke="#63b8ff" d="M292.07,-81.07C312.58,-81.51 334.45,-81.97 353.49,-82.38"/>
<polygon fill="#63b8ff" stroke="#63b8ff" points="353.67,-85.88 363.75,-82.6 353.82,-78.89 353.67,-85.88"/>
</a>
</g>
</g>
<!-- Node15 -->
<g id="Node000015" class="node">
<title>Node15</title>
<g id="a_Node000015"><a xlink:href="math__util__2_8c.html#ab70b077c4d314699e7fb4bea342827e0" target="_top" xlink:title=" ">
<polygon fill="white" stroke="#666666" points="486,-56 328,-56 328,-37 486,-37 486,-56"/>
<text text-anchor="middle" x="407" y="-44" font-family="Helvetica,sans-Serif" font-size="10.00">mtxf_set_matrix_gObjectList</text>
</a>
</g>
</g>
<!-- Node9&#45;&gt;Node15 -->
<g id="edge16_Node000009_Node000015" class="edge">
<title>Node9&#45;&gt;Node15</title>
<g id="a_edge16_Node000009_Node000015"><a xlink:title=" ">
<path fill="none" stroke="#63b8ff" d="M272.48,-70C294.06,-66.2 319.09,-61.8 341.6,-57.83"/>
<polygon fill="#63b8ff" stroke="#63b8ff" points="342.51,-61.23 351.75,-56.05 341.3,-54.33 342.51,-61.23"/>
</a>
</g>
</g>
<!-- Node11 -->
<g id="Node000011" class="node">
<title>Node11</title>
<g id="a_Node000011"><a xlink:href="Matrix_8cpp.html#a67401ed1d8de1f4d3a3e5a7b72842b6a" target="_top" xlink:title=" ">
<polygon fill="white" stroke="#666666" points="589,-130 522,-130 522,-111 589,-111 589,-130"/>
<text text-anchor="middle" x="555.5" y="-118" font-family="Helvetica,sans-Serif" font-size="10.00">AddMatrix</text>
</a>
</g>
</g>
<!-- Node10&#45;&gt;Node11 -->
<g id="edge11_Node000010_Node000011" class="edge">
<title>Node10&#45;&gt;Node11</title>
<g id="a_edge11_Node000010_Node000011"><a xlink:title=" ">
<path fill="none" stroke="#63b8ff" d="M445.73,-93.03C465.98,-98.14 491.02,-104.47 511.96,-109.76"/>
<polygon fill="#63b8ff" stroke="#63b8ff" points="511.32,-113.21 521.88,-112.26 513.04,-106.42 511.32,-113.21"/>
</a>
</g>
</g>
<!-- Node14 -->
<g id="Node000014" class="node">
<title>Node14</title>
<g id="a_Node000014"><a xlink:href="Game_8cpp.html#ae2fa844b3cb1021ecbc357f8ed2ad8cc" target="_top" xlink:title=" ">
<polygon fill="white" stroke="#666666" points="586.5,-93 524.5,-93 524.5,-74 586.5,-74 586.5,-93"/>
<text text-anchor="middle" x="555.5" y="-81" font-family="Helvetica,sans-Serif" font-size="10.00">GetWorld</text>
</a>
</g>
</g>
<!-- Node10&#45;&gt;Node14 -->
<g id="edge15_Node000010_Node000014" class="edge">
<title>Node10&#45;&gt;Node14</title>
<g id="a_edge15_Node000010_Node000014"><a xlink:title=" ">
<path fill="none" stroke="#63b8ff" d="M450.37,-83.5C470.43,-83.5 494.27,-83.5 514.07,-83.5"/>
<polygon fill="#63b8ff" stroke="#63b8ff" points="514.31,-87 524.31,-83.5 514.31,-80 514.31,-87"/>
</a>
</g>
</g>
<!-- Node12 -->
<g id="Node000012" class="node">
<title>Node12</title>
<g id="a_Node000012"><a xlink:href="FrameInterpolation_8cpp.html#a8cf1f2d6fabc6925aa71a9515341b4aa" target="_top" xlink:title=" ">
<polygon fill="white" stroke="#666666" points="765,-175.5 625,-175.5 625,-145.5 765,-145.5 765,-175.5"/>
<text text-anchor="start" x="633" y="-163.5" font-family="Helvetica,sans-Serif" font-size="10.00">FrameInterpolation</text>
<text text-anchor="middle" x="695" y="-152.5" font-family="Helvetica,sans-Serif" font-size="10.00">_RecordMatrixMtxFToMtx</text>
</a>
</g>
</g>
<!-- Node11&#45;&gt;Node12 -->
<g id="edge12_Node000011_Node000012" class="edge">
<title>Node11&#45;&gt;Node12</title>
<g id="a_edge12_Node000011_Node000012"><a xlink:title=" ">
<path fill="none" stroke="#63b8ff" d="M589.09,-129.98C602.11,-133.77 617.57,-138.26 632.55,-142.62"/>
<polygon fill="#63b8ff" stroke="#63b8ff" points="631.72,-146.03 642.3,-145.46 633.67,-139.31 631.72,-146.03"/>
</a>
</g>
</g>
<!-- Node13 -->
<g id="Node000013" class="node">
<title>Node13</title>
<g id="a_Node000013"><a xlink:href="guMtxF2L_8c.html#a40ab2d64c609839ff1e0ef0de2d0dcc4" target="_top" xlink:title=" ">
<polygon fill="white" stroke="#666666" points="727.5,-127 662.5,-127 662.5,-108 727.5,-108 727.5,-127"/>
<text text-anchor="middle" x="695" y="-115" font-family="Helvetica,sans-Serif" font-size="10.00">guMtxF2L</text>
</a>
</g>
</g>
<!-- Node11&#45;&gt;Node13 -->
<g id="edge14_Node000011_Node000013" class="edge">
<title>Node11&#45;&gt;Node13</title>
<g id="a_edge14_Node000011_Node000013"><a xlink:title=" ">
<path fill="none" stroke="#63b8ff" d="M589.09,-119.79C607.89,-119.38 631.73,-118.86 651.93,-118.42"/>
<polygon fill="#63b8ff" stroke="#63b8ff" points="652.2,-121.91 662.12,-118.2 652.05,-114.91 652.2,-121.91"/>
</a>
</g>
</g>
<!-- Node12&#45;&gt;Node3 -->
<g id="edge13_Node000012_Node000003" class="edge">
<title>Node12&#45;&gt;Node3</title>
<g id="a_edge13_Node000012_Node000003"><a xlink:title=" ">
<path fill="none" stroke="#63b8ff" d="M751.26,-175.54C770.18,-180.69 791.11,-186.38 809.11,-191.28"/>
<polygon fill="#63b8ff" stroke="#63b8ff" points="808.21,-194.66 818.78,-193.91 810.05,-187.91 808.21,-194.66"/>
</a>
</g>
</g>
<!-- Node16 -->
<g id="Node000016" class="node">
<title>Node16</title>
<g id="a_Node000016"><a xlink:href="math__util_8c.html#ae69cbf5c8d4b3b0dba2d7b4d4673689f" target="_top" xlink:title=" ">
<polygon fill="white" stroke="#666666" points="574.5,-56 536.5,-56 536.5,-37 574.5,-37 574.5,-56"/>
<text text-anchor="middle" x="555.5" y="-44" font-family="Helvetica,sans-Serif" font-size="10.00">coss</text>
</a>
</g>
</g>
<!-- Node15&#45;&gt;Node16 -->
<g id="edge17_Node000015_Node000016" class="edge">
<title>Node15&#45;&gt;Node16</title>
<g id="a_edge17_Node000015_Node000016"><a xlink:title=" ">
<path fill="none" stroke="#63b8ff" d="M486.4,-46.5C500.63,-46.5 514.59,-46.5 526.14,-46.5"/>
<polygon fill="#63b8ff" stroke="#63b8ff" points="526.4,-50 536.4,-46.5 526.4,-43 526.4,-50"/>
</a>
</g>
</g>
<!-- Node17 -->
<g id="Node000017" class="node">
<title>Node17</title>
<g id="a_Node000017"><a xlink:href="math__util_8c.html#a19ed3bd78fd2d3e2bd0a29f6caf48545" target="_top" xlink:title=" ">
<polygon fill="white" stroke="#666666" points="573.5,-19 537.5,-19 537.5,0 573.5,0 573.5,-19"/>
<text text-anchor="middle" x="555.5" y="-7" font-family="Helvetica,sans-Serif" font-size="10.00">sins</text>
</a>
</g>
</g>
<!-- Node15&#45;&gt;Node17 -->
<g id="edge18_Node000015_Node000017" class="edge">
<title>Node15&#45;&gt;Node17</title>
<g id="a_edge18_Node000015_Node000017"><a xlink:title=" ">
<path fill="none" stroke="#63b8ff" d="M445.73,-36.97C471.31,-30.51 504.53,-22.12 527.49,-16.32"/>
<polygon fill="#63b8ff" stroke="#63b8ff" points="528.41,-19.7 537.25,-13.86 526.7,-12.91 528.41,-19.7"/>
</a>
</g>
</g>
</g>
</svg>
