<?xml version="1.0" encoding="UTF-8" standalone="no"?>
<!DOCTYPE svg PUBLIC "-//W3C//DTD SVG 1.1//EN"
 "http://www.w3.org/Graphics/SVG/1.1/DTD/svg11.dtd">
<!-- Generated by graphviz version 2.43.0 (0)
 -->
<!-- Title: func_800514BC Pages: 1 -->
<svg width="1175pt" height="514pt"
 viewBox="0.00 0.00 1175.00 514.00" xmlns="http://www.w3.org/2000/svg" xmlns:xlink="http://www.w3.org/1999/xlink">
<g id="graph0" class="graph" transform="scale(1 1) rotate(0) translate(4 510)">
<title>func_800514BC</title>
<!-- Node1 -->
<g id="Node000001" class="node">
<title>Node1</title>
<g id="a_Node000001"><a xlink:title=" ">
<polygon fill="#999999" stroke="#666666" points="92,-338 0,-338 0,-319 92,-319 92,-338"/>
<text text-anchor="middle" x="46" y="-326" font-family="Helvetica,sans-Serif" font-size="10.00">func_800514BC</text>
</a>
</g>
</g>
<!-- Node2 -->
<g id="Node000002" class="node">
<title>Node2</title>
<g id="a_Node000002"><a xlink:href="render__objects_8c.html#a669063fc0fc2bc5dadc704906a9cf880" target="_top" xlink:title=" ">
<polygon fill="white" stroke="#666666" points="220,-450 128,-450 128,-431 220,-431 220,-450"/>
<text text-anchor="middle" x="174" y="-438" font-family="Helvetica,sans-Serif" font-size="10.00">func_800508C0</text>
</a>
</g>
</g>
<!-- Node1&#45;&gt;Node2 -->
<g id="edge1_Node000001_Node000002" class="edge">
<title>Node1&#45;&gt;Node2</title>
<g id="a_edge1_Node000001_Node000002"><a xlink:title=" ">
<path fill="none" stroke="#63b8ff" d="M57.74,-338.05C79.32,-357.23 128.12,-400.6 154.78,-424.3"/>
<polygon fill="#63b8ff" stroke="#63b8ff" points="152.49,-426.95 162.28,-430.98 157.14,-421.72 152.49,-426.95"/>
</a>
</g>
</g>
<!-- Node8 -->
<g id="Node000008" class="node">
<title>Node8</title>
<g id="a_Node000008"><a xlink:href="render__objects_8c.html#ab9fe9a32836a4aef5c64c9f66ced4a19" target="_top" xlink:title=" ">
<polygon fill="white" stroke="#666666" points="219.5,-245 128.5,-245 128.5,-226 219.5,-226 219.5,-245"/>
<text text-anchor="middle" x="174" y="-233" font-family="Helvetica,sans-Serif" font-size="10.00">func_80050E34</text>
</a>
</g>
</g>
<!-- Node1&#45;&gt;Node8 -->
<g id="edge8_Node000001_Node000008" class="edge">
<title>Node1&#45;&gt;Node8</title>
<g id="a_edge8_Node000001_Node000008"><a xlink:title=" ">
<path fill="none" stroke="#63b8ff" d="M60.01,-318.9C81.7,-302.89 125.46,-270.59 151.7,-251.22"/>
<polygon fill="#63b8ff" stroke="#63b8ff" points="153.91,-253.94 159.87,-245.19 149.75,-248.31 153.91,-253.94"/>
</a>
</g>
</g>
<!-- Node3 -->
<g id="Node000003" class="node">
<title>Node3</title>
<g id="a_Node000003"><a xlink:href="render__objects_8c.html#aca52ec6f647b303e0bb33dbfe7d93e23" target="_top" xlink:title=" ">
<polygon fill="white" stroke="#666666" points="385.5,-506 293.5,-506 293.5,-487 385.5,-487 385.5,-506"/>
<text text-anchor="middle" x="339.5" y="-494" font-family="Helvetica,sans-Serif" font-size="10.00">func_8004C024</text>
</a>
</g>
</g>
<!-- Node2&#45;&gt;Node3 -->
<g id="edge2_Node000002_Node000003" class="edge">
<title>Node2&#45;&gt;Node3</title>
<g id="a_edge2_Node000002_Node000003"><a xlink:title=" ">
<path fill="none" stroke="#63b8ff" d="M192.54,-450.13C208.63,-458.63 233.34,-470.82 256,-478.5 264.77,-481.47 274.23,-484.07 283.51,-486.3"/>
<polygon fill="#63b8ff" stroke="#63b8ff" points="282.94,-489.76 293.47,-488.58 284.5,-482.94 282.94,-489.76"/>
</a>
</g>
</g>
<!-- Node6 -->
<g id="Node000006" class="node">
<title>Node6</title>
<g id="a_Node000006"><a xlink:href="render__objects_8c.html#ae284f32d0a5c7f49c8655e3626463e1c" target="_top" xlink:title=" ">
<polygon fill="white" stroke="#666666" points="385.5,-469 293.5,-469 293.5,-450 385.5,-450 385.5,-469"/>
<text text-anchor="middle" x="339.5" y="-457" font-family="Helvetica,sans-Serif" font-size="10.00">func_8004C148</text>
</a>
</g>
</g>
<!-- Node2&#45;&gt;Node6 -->
<g id="edge5_Node000002_Node000006" class="edge">
<title>Node2&#45;&gt;Node6</title>
<g id="a_edge5_Node000002_Node000006"><a xlink:title=" ">
<path fill="none" stroke="#63b8ff" d="M220.11,-445.74C239.6,-448.01 262.59,-450.68 283.1,-453.06"/>
<polygon fill="#63b8ff" stroke="#63b8ff" points="282.92,-456.56 293.25,-454.24 283.72,-449.61 282.92,-456.56"/>
</a>
</g>
</g>
<!-- Node7 -->
<g id="Node000007" class="node">
<title>Node7</title>
<g id="a_Node000007"><a xlink:href="render__objects_8c.html#a2c222aeebae984dfb62f7692e04e0c2f" target="_top" xlink:title=" ">
<polygon fill="white" stroke="#666666" points="385,-432 294,-432 294,-413 385,-413 385,-432"/>
<text text-anchor="middle" x="339.5" y="-420" font-family="Helvetica,sans-Serif" font-size="10.00">func_80050644</text>
</a>
</g>
</g>
<!-- Node2&#45;&gt;Node7 -->
<g id="edge7_Node000002_Node000007" class="edge">
<title>Node2&#45;&gt;Node7</title>
<g id="a_edge7_Node000002_Node000007"><a xlink:title=" ">
<path fill="none" stroke="#63b8ff" d="M220.11,-435.53C239.76,-433.37 262.97,-430.82 283.61,-428.54"/>
<polygon fill="#63b8ff" stroke="#63b8ff" points="284.26,-431.99 293.82,-427.42 283.5,-425.03 284.26,-431.99"/>
</a>
</g>
</g>
<!-- Node4 -->
<g id="Node000004" class="node">
<title>Node4</title>
<g id="a_Node000004"><a xlink:href="render__objects_8c.html#ac22e89e30eb787d96c44dd83f683930e" target="_top" xlink:title=" ">
<polygon fill="white" stroke="#666666" points="593,-487 501,-487 501,-468 593,-468 593,-487"/>
<text text-anchor="middle" x="547" y="-475" font-family="Helvetica,sans-Serif" font-size="10.00">func_8004B97C</text>
</a>
</g>
</g>
<!-- Node3&#45;&gt;Node4 -->
<g id="edge3_Node000003_Node000004" class="edge">
<title>Node3&#45;&gt;Node4</title>
<g id="a_edge3_Node000003_Node000004"><a xlink:title=" ">
<path fill="none" stroke="#63b8ff" d="M385.6,-492.33C416.41,-489.48 457.44,-485.69 490.3,-482.65"/>
<polygon fill="#63b8ff" stroke="#63b8ff" points="491.02,-486.1 500.65,-481.69 490.37,-479.13 491.02,-486.1"/>
</a>
</g>
</g>
<!-- Node5 -->
<g id="Node000005" class="node">
<title>Node5</title>
<g id="a_Node000005"><a xlink:href="render__objects_8c.html#a33684f0745ad1366fef89d3fd5ef598e" target="_top" xlink:title=" ">
<polygon fill="white" stroke="#666666" points="811,-487 671,-487 671,-468 811,-468 811,-487"/>
<text text-anchor="middle" x="741" y="-475" font-family="Helvetica,sans-Serif" font-size="10.00">render_texture_rectangle</text>
</a>
</g>
</g>
<!-- Node4&#45;&gt;Node5 -->
<g id="edge4_Node000004_Node000005" class="edge">
<title>Node4&#45;&gt;Node5</title>
<g id="a_edge4_Node000004_Node000005"><a xlink:title=" ">
<path fill="none" stroke="#63b8ff" d="M593.02,-477.5C613.19,-477.5 637.61,-477.5 660.69,-477.5"/>
<polygon fill="#63b8ff" stroke="#63b8ff" points="660.84,-481 670.84,-477.5 660.84,-474 660.84,-481"/>
</a>
</g>
</g>
<!-- Node6&#45;&gt;Node4 -->
<g id="edge6_Node000006_Node000004" class="edge">
<title>Node6&#45;&gt;Node4</title>
<g id="a_edge6_Node000006_Node000004"><a xlink:title=" ">
<path fill="none" stroke="#63b8ff" d="M385.6,-463.45C416.41,-466.15 457.44,-469.74 490.3,-472.62"/>
<polygon fill="#63b8ff" stroke="#63b8ff" points="490.39,-476.14 500.65,-473.53 491,-469.17 490.39,-476.14"/>
</a>
</g>
</g>
<!-- Node8&#45;&gt;Node7 -->
<g id="edge28_Node000008_Node000007" class="edge">
<title>Node8&#45;&gt;Node7</title>
<g id="a_edge28_Node000008_Node000007"><a xlink:title=" ">
<path fill="none" stroke="#63b8ff" d="M176.64,-245.38C182.05,-274.72 202.16,-361.9 256,-404.5 264.02,-410.84 273.79,-415.07 283.77,-417.86"/>
<polygon fill="#63b8ff" stroke="#63b8ff" points="283.22,-421.32 293.76,-420.19 284.82,-414.51 283.22,-421.32"/>
</a>
</g>
</g>
<!-- Node9 -->
<g id="Node000009" class="node">
<title>Node9</title>
<g id="a_Node000009"><a xlink:href="FrameInterpolation_8cpp.html#a3a036bc9d533e28a4e9697cd20dccf3e" target="_top" xlink:title=" ">
<polygon fill="white" stroke="#666666" points="990,-290.5 880,-290.5 880,-260.5 990,-260.5 990,-290.5"/>
<text text-anchor="start" x="888" y="-278.5" font-family="Helvetica,sans-Serif" font-size="10.00">FrameInterpolation</text>
<text text-anchor="middle" x="935" y="-267.5" font-family="Helvetica,sans-Serif" font-size="10.00">_RecordCloseChild</text>
</a>
</g>
</g>
<!-- Node8&#45;&gt;Node9 -->
<g id="edge9_Node000008_Node000009" class="edge">
<title>Node8&#45;&gt;Node9</title>
<g id="a_edge9_Node000008_Node000009"><a xlink:title=" ">
<path fill="none" stroke="#63b8ff" d="M219.86,-243.68C231.59,-245.55 244.24,-247.33 256,-248.5 480.67,-270.92 748.96,-274.9 869.63,-275.49"/>
<polygon fill="#63b8ff" stroke="#63b8ff" points="869.78,-278.99 879.8,-275.53 869.81,-271.99 869.78,-278.99"/>
</a>
</g>
</g>
<!-- Node11 -->
<g id="Node000011" class="node">
<title>Node11</title>
<g id="a_Node000011"><a xlink:href="FrameInterpolation_8cpp.html#a0eda726b74eac815af4e874014e2727c" target="_top" xlink:title=" ">
<polygon fill="white" stroke="#666666" points="990,-242.5 880,-242.5 880,-212.5 990,-212.5 990,-242.5"/>
<text text-anchor="start" x="888" y="-230.5" font-family="Helvetica,sans-Serif" font-size="10.00">FrameInterpolation</text>
<text text-anchor="middle" x="935" y="-219.5" font-family="Helvetica,sans-Serif" font-size="10.00">_RecordOpenChild</text>
</a>
</g>
</g>
<!-- Node8&#45;&gt;Node11 -->
<g id="edge11_Node000008_Node000011" class="edge">
<title>Node8&#45;&gt;Node11</title>
<g id="a_edge11_Node000008_Node000011"><a xlink:title=" ">
<path fill="none" stroke="#63b8ff" d="M219.65,-235.03C348.12,-233.68 719.12,-229.76 869.52,-228.18"/>
<polygon fill="#63b8ff" stroke="#63b8ff" points="870,-231.67 879.96,-228.07 869.93,-224.68 870,-231.67"/>
</a>
</g>
</g>
<!-- Node12 -->
<g id="Node000012" class="node">
<title>Node12</title>
<g id="a_Node000012"><a xlink:href="math__util__2_8c.html#ae4327c5df49b333e448da750f14387ce" target="_top" xlink:title=" ">
<polygon fill="white" stroke="#666666" points="414,-170 265,-170 265,-151 414,-151 414,-170"/>
<text text-anchor="middle" x="339.5" y="-158" font-family="Helvetica,sans-Serif" font-size="10.00">func_80042330_unchanged</text>
</a>
</g>
</g>
<!-- Node8&#45;&gt;Node12 -->
<g id="edge13_Node000008_Node000012" class="edge">
<title>Node8&#45;&gt;Node12</title>
<g id="a_edge13_Node000008_Node000012"><a xlink:title=" ">
<path fill="none" stroke="#63b8ff" d="M185.67,-225.85C200.4,-213.05 228.29,-190.67 256,-178.5 260.74,-176.42 265.75,-174.56 270.86,-172.92"/>
<polygon fill="#63b8ff" stroke="#63b8ff" points="272.15,-176.19 280.76,-170.01 270.17,-169.47 272.15,-176.19"/>
</a>
</g>
</g>
<!-- Node22 -->
<g id="Node000022" class="node">
<title>Node22</title>
<g id="a_Node000022"><a xlink:href="render__objects_8c.html#ace17844cb3a8e3b2060b310b923b38ee" target="_top" xlink:title=" ">
<polygon fill="white" stroke="#666666" points="385,-96 294,-96 294,-77 385,-77 385,-96"/>
<text text-anchor="middle" x="339.5" y="-84" font-family="Helvetica,sans-Serif" font-size="10.00">func_80044924</text>
</a>
</g>
</g>
<!-- Node8&#45;&gt;Node22 -->
<g id="edge25_Node000008_Node000022" class="edge">
<title>Node8&#45;&gt;Node22</title>
<g id="a_edge25_Node000008_Node000022"><a xlink:title=" ">
<path fill="none" stroke="#63b8ff" d="M178.04,-225.74C186.23,-201.12 211.26,-136.17 256,-104.5 264.26,-98.66 274.06,-94.66 283.97,-91.93"/>
<polygon fill="#63b8ff" stroke="#63b8ff" points="284.93,-95.3 293.86,-89.6 283.33,-88.48 284.93,-95.3"/>
</a>
</g>
</g>
<!-- Node23 -->
<g id="Node000023" class="node">
<title>Node23</title>
<g id="a_Node000023"><a xlink:href="render__objects_8c.html#a42d051e0c41afb54803bffd1a3a19e91" target="_top" xlink:title=" ">
<polygon fill="white" stroke="#666666" points="385.5,-59 293.5,-59 293.5,-40 385.5,-40 385.5,-59"/>
<text text-anchor="middle" x="339.5" y="-47" font-family="Helvetica,sans-Serif" font-size="10.00">func_8004B35C</text>
</a>
</g>
</g>
<!-- Node8&#45;&gt;Node23 -->
<g id="edge26_Node000008_Node000023" class="edge">
<title>Node8&#45;&gt;Node23</title>
<g id="a_edge26_Node000008_Node000023"><a xlink:title=" ">
<path fill="none" stroke="#63b8ff" d="M176.66,-225.68C182.12,-196.51 202.37,-109.83 256,-67.5 263.94,-61.23 273.59,-57.04 283.46,-54.25"/>
<polygon fill="#63b8ff" stroke="#63b8ff" points="284.42,-57.62 293.34,-51.91 282.8,-50.81 284.42,-57.62"/>
</a>
</g>
</g>
<!-- Node24 -->
<g id="Node000024" class="node">
<title>Node24</title>
<g id="a_Node000024"><a xlink:href="render__objects_8c.html#a3412bd1100bae2a7228c53d260c4c5c5" target="_top" xlink:title=" ">
<polygon fill="white" stroke="#666666" points="385.5,-22 293.5,-22 293.5,-3 385.5,-3 385.5,-22"/>
<text text-anchor="middle" x="339.5" y="-10" font-family="Helvetica,sans-Serif" font-size="10.00">func_8004B614</text>
</a>
</g>
</g>
<!-- Node8&#45;&gt;Node24 -->
<g id="edge27_Node000008_Node000024" class="edge">
<title>Node8&#45;&gt;Node24</title>
<g id="a_edge27_Node000008_Node000024"><a xlink:title=" ">
<path fill="none" stroke="#63b8ff" d="M175.7,-225.97C178.66,-193.17 193.03,-84.04 256,-30.5 263.79,-23.88 273.46,-19.53 283.41,-16.7"/>
<polygon fill="#63b8ff" stroke="#63b8ff" points="284.45,-20.05 293.39,-14.36 282.85,-13.24 284.45,-20.05"/>
</a>
</g>
</g>
<!-- Node25 -->
<g id="Node000025" class="node">
<title>Node25</title>
<g id="a_Node000025"><a xlink:href="GBIMiddleware_8cpp.html#a4ecc44e3c6f1ca5a6b4a20c41d3bd2d2" target="_top" xlink:title=" ">
<polygon fill="white" stroke="#666666" points="384,-395 295,-395 295,-376 384,-376 384,-395"/>
<text text-anchor="middle" x="339.5" y="-383" font-family="Helvetica,sans-Serif" font-size="10.00">gSPDisplayList</text>
</a>
</g>
</g>
<!-- Node8&#45;&gt;Node25 -->
<g id="edge29_Node000008_Node000025" class="edge">
<title>Node8&#45;&gt;Node25</title>
<g id="a_edge29_Node000008_Node000025"><a xlink:title=" ">
<path fill="none" stroke="#63b8ff" d="M178.06,-245.22C186.3,-269.78 211.44,-334.57 256,-366.5 264.51,-372.6 274.67,-376.77 284.91,-379.62"/>
<polygon fill="#63b8ff" stroke="#63b8ff" points="284.15,-383.04 294.69,-381.97 285.79,-376.23 284.15,-383.04"/>
</a>
</g>
</g>
<!-- Node28 -->
<g id="Node000028" class="node">
<title>Node28</title>
<g id="a_Node000028"><a xlink:href="Game_8cpp.html#ab05bb065469940f40a5023c58a8f9e7f" target="_top" xlink:title=" ">
<polygon fill="white" stroke="#666666" points="379.5,-133 299.5,-133 299.5,-114 379.5,-114 379.5,-133"/>
<text text-anchor="middle" x="339.5" y="-121" font-family="Helvetica,sans-Serif" font-size="10.00">IsYoshiValley</text>
</a>
</g>
</g>
<!-- Node8&#45;&gt;Node28 -->
<g id="edge32_Node000008_Node000028" class="edge">
<title>Node8&#45;&gt;Node28</title>
<g id="a_edge32_Node000008_Node000028"><a xlink:title=" ">
<path fill="none" stroke="#63b8ff" d="M180.28,-225.99C191.51,-206.73 219.72,-163.11 256,-141.5 266.03,-135.52 277.81,-131.52 289.28,-128.85"/>
<polygon fill="#63b8ff" stroke="#63b8ff" points="290.12,-132.25 299.22,-126.82 288.72,-125.39 290.12,-132.25"/>
</a>
</g>
</g>
<!-- Node30 -->
<g id="Node000030" class="node">
<title>Node30</title>
<g id="a_Node000030"><a xlink:href="render__objects_8c.html#a8a3e9d3da5a6ac97b84b553fdc5d7d59" target="_top" xlink:title=" ">
<polygon fill="white" stroke="#666666" points="388.5,-358 290.5,-358 290.5,-339 388.5,-339 388.5,-358"/>
<text text-anchor="middle" x="339.5" y="-346" font-family="Helvetica,sans-Serif" font-size="10.00">rsp_load_texture</text>
</a>
</g>
</g>
<!-- Node8&#45;&gt;Node30 -->
<g id="edge35_Node000008_Node000030" class="edge">
<title>Node8&#45;&gt;Node30</title>
<g id="a_edge35_Node000008_Node000030"><a xlink:title=" ">
<path fill="none" stroke="#63b8ff" d="M180.48,-245.27C191.86,-264.62 220.03,-307.8 256,-329.5 263.5,-334.02 271.97,-337.47 280.57,-340.1"/>
<polygon fill="#63b8ff" stroke="#63b8ff" points="279.7,-343.49 290.27,-342.73 281.54,-336.74 279.7,-343.49"/>
</a>
</g>
</g>
<!-- Node31 -->
<g id="Node000031" class="node">
<title>Node31</title>
<g id="a_Node000031"><a xlink:href="math__util__2_8c.html#a2eff0e02deb703653ee3230fbc02eb14" target="_top" xlink:title="set the matrix to a transformation matrix">
<polygon fill="white" stroke="#666666" points="423,-207 256,-207 256,-188 423,-188 423,-207"/>
<text text-anchor="middle" x="339.5" y="-195" font-family="Helvetica,sans-Serif" font-size="10.00">rsp_set_matrix_transformation</text>
</a>
</g>
</g>
<!-- Node8&#45;&gt;Node31 -->
<g id="edge36_Node000008_Node000031" class="edge">
<title>Node8&#45;&gt;Node31</title>
<g id="a_edge36_Node000008_Node000031"><a xlink:title=" ">
<path fill="none" stroke="#63b8ff" d="M216.26,-225.91C237.93,-220.87 264.68,-214.66 287.63,-209.32"/>
<polygon fill="#63b8ff" stroke="#63b8ff" points="288.59,-212.69 297.54,-207.02 287.01,-205.87 288.59,-212.69"/>
</a>
</g>
</g>
<!-- Node34 -->
<g id="Node000034" class="node">
<title>Node34</title>
<g id="a_Node000034"><a xlink:href="render__objects_8c.html#ad92ac25c074d6586a5b7c7331fccdb21" target="_top" xlink:title=" ">
<polygon fill="white" stroke="#666666" points="390,-321 289,-321 289,-302 390,-302 390,-321"/>
<text text-anchor="middle" x="339.5" y="-309" font-family="Helvetica,sans-Serif" font-size="10.00">set_transparency</text>
</a>
</g>
</g>
<!-- Node8&#45;&gt;Node34 -->
<g id="edge43_Node000008_Node000034" class="edge">
<title>Node8&#45;&gt;Node34</title>
<g id="a_edge43_Node000008_Node000034"><a xlink:title=" ">
<path fill="none" stroke="#63b8ff" d="M187.53,-245.18C202.91,-256.67 230.14,-275.74 256,-287.5 265.78,-291.95 276.58,-295.79 287.05,-299.02"/>
<polygon fill="#63b8ff" stroke="#63b8ff" points="286.38,-302.47 296.96,-301.92 288.35,-295.75 286.38,-302.47"/>
</a>
</g>
</g>
<!-- Node10 -->
<g id="Node000010" class="node">
<title>Node10</title>
<g id="a_Node000010"><a xlink:href="FrameInterpolation_8cpp.html#a02c7ac5342a4d376edee38f312b480bf" target="_top" xlink:title=" ">
<polygon fill="white" stroke="#666666" points="1167,-189 1059,-189 1059,-170 1167,-170 1167,-189"/>
<text text-anchor="middle" x="1113" y="-177" font-family="Helvetica,sans-Serif" font-size="10.00">check_if_recording</text>
</a>
</g>
</g>
<!-- Node9&#45;&gt;Node10 -->
<g id="edge10_Node000009_Node000010" class="edge">
<title>Node9&#45;&gt;Node10</title>
<g id="a_edge10_Node000009_Node000010"><a xlink:title=" ">
<path fill="none" stroke="#63b8ff" d="M990.22,-264.26C1001.38,-260.93 1012.83,-256.73 1023,-251.5 1050.95,-237.14 1078.33,-213.05 1095.18,-196.73"/>
<polygon fill="#63b8ff" stroke="#63b8ff" points="1097.92,-198.94 1102.56,-189.42 1092.99,-193.97 1097.92,-198.94"/>
</a>
</g>
</g>
<!-- Node11&#45;&gt;Node10 -->
<g id="edge12_Node000011_Node000010" class="edge">
<title>Node11&#45;&gt;Node10</title>
<g id="a_edge12_Node000011_Node000010"><a xlink:title=" ">
<path fill="none" stroke="#63b8ff" d="M990.24,-212.71C1014.99,-205.96 1043.93,-198.06 1067.39,-191.67"/>
<polygon fill="#63b8ff" stroke="#63b8ff" points="1068.35,-195.03 1077.08,-189.02 1066.51,-188.28 1068.35,-195.03"/>
</a>
</g>
</g>
<!-- Node13 -->
<g id="Node000013" class="node">
<title>Node13</title>
<g id="a_Node000013"><a xlink:href="Matrix_8cpp.html#a329d78c031733cf22ff7518f5d38fd74" target="_top" xlink:title=" ">
<polygon fill="white" stroke="#666666" points="590,-121 504,-121 504,-102 590,-102 590,-121"/>
<text text-anchor="middle" x="547" y="-109" font-family="Helvetica,sans-Serif" font-size="10.00">AddHudMatrix</text>
</a>
</g>
</g>
<!-- Node12&#45;&gt;Node13 -->
<g id="edge14_Node000012_Node000013" class="edge">
<title>Node12&#45;&gt;Node13</title>
<g id="a_edge14_Node000012_Node000013"><a xlink:title=" ">
<path fill="none" stroke="#63b8ff" d="M384.74,-150.91C397.16,-148.06 410.65,-144.81 423,-141.5 439.16,-137.18 442.81,-134.73 459,-130.5 470.22,-127.57 482.34,-124.72 493.86,-122.16"/>
<polygon fill="#63b8ff" stroke="#63b8ff" points="494.77,-125.54 503.8,-119.99 493.28,-118.71 494.77,-125.54"/>
</a>
</g>
</g>
<!-- Node18 -->
<g id="Node000018" class="node">
<title>Node18</title>
<g id="a_Node000018"><a xlink:href="math__util__2_8c.html#a54b1e79ca4e8d2f7f7256891f9c4e772" target="_top" xlink:title="arg1 and arg2 are s32&#39;s into floats?!?">
<polygon fill="white" stroke="#666666" points="610,-169.5 484,-169.5 484,-139.5 610,-139.5 610,-169.5"/>
<text text-anchor="start" x="492" y="-157.5" font-family="Helvetica,sans-Serif" font-size="10.00">mtxf_translation_x</text>
<text text-anchor="middle" x="547" y="-146.5" font-family="Helvetica,sans-Serif" font-size="10.00">_y_rotate_z_scale_x_y</text>
</a>
</g>
</g>
<!-- Node12&#45;&gt;Node18 -->
<g id="edge20_Node000012_Node000018" class="edge">
<title>Node12&#45;&gt;Node18</title>
<g id="a_edge20_Node000012_Node000018"><a xlink:title=" ">
<path fill="none" stroke="#63b8ff" d="M414.11,-158.35C433.44,-157.79 454.27,-157.18 473.54,-156.62"/>
<polygon fill="#63b8ff" stroke="#63b8ff" points="473.86,-160.11 483.76,-156.32 473.66,-153.11 473.86,-160.11"/>
</a>
</g>
</g>
<!-- Node14 -->
<g id="Node000014" class="node">
<title>Node14</title>
<g id="a_Node000014"><a xlink:href="Matrix_8cpp.html#a67401ed1d8de1f4d3a3e5a7b72842b6a" target="_top" xlink:title=" ">
<polygon fill="white" stroke="#666666" points="774.5,-95 707.5,-95 707.5,-76 774.5,-76 774.5,-95"/>
<text text-anchor="middle" x="741" y="-83" font-family="Helvetica,sans-Serif" font-size="10.00">AddMatrix</text>
</a>
</g>
</g>
<!-- Node13&#45;&gt;Node14 -->
<g id="edge15_Node000013_Node000014" class="edge">
<title>Node13&#45;&gt;Node14</title>
<g id="a_edge15_Node000013_Node000014"><a xlink:title=" ">
<path fill="none" stroke="#63b8ff" d="M590.14,-105.79C622.01,-101.48 665.6,-95.58 697.55,-91.25"/>
<polygon fill="#63b8ff" stroke="#63b8ff" points="698.04,-94.71 707.48,-89.9 697.1,-87.78 698.04,-94.71"/>
</a>
</g>
</g>
<!-- Node17 -->
<g id="Node000017" class="node">
<title>Node17</title>
<g id="a_Node000017"><a xlink:href="Game_8cpp.html#ae2fa844b3cb1021ecbc357f8ed2ad8cc" target="_top" xlink:title=" ">
<polygon fill="white" stroke="#666666" points="772,-19 710,-19 710,0 772,0 772,-19"/>
<text text-anchor="middle" x="741" y="-7" font-family="Helvetica,sans-Serif" font-size="10.00">GetWorld</text>
</a>
</g>
</g>
<!-- Node13&#45;&gt;Node17 -->
<g id="edge19_Node000013_Node000017" class="edge">
<title>Node13&#45;&gt;Node17</title>
<g id="a_edge19_Node000013_Node000017"><a xlink:title=" ">
<path fill="none" stroke="#63b8ff" d="M590.07,-106.16C605.28,-102.69 621.92,-96.96 635,-87.5 658.38,-70.6 648.19,-51.16 671,-33.5 679.51,-26.91 689.96,-22.05 700.14,-18.5"/>
<polygon fill="#63b8ff" stroke="#63b8ff" points="701.24,-21.82 709.73,-15.48 699.14,-15.15 701.24,-21.82"/>
</a>
</g>
</g>
<!-- Node15 -->
<g id="Node000015" class="node">
<title>Node15</title>
<g id="a_Node000015"><a xlink:href="FrameInterpolation_8cpp.html#a8cf1f2d6fabc6925aa71a9515341b4aa" target="_top" xlink:title=" ">
<polygon fill="white" stroke="#666666" points="1005,-108.5 865,-108.5 865,-78.5 1005,-78.5 1005,-108.5"/>
<text text-anchor="start" x="873" y="-96.5" font-family="Helvetica,sans-Serif" font-size="10.00">FrameInterpolation</text>
<text text-anchor="middle" x="935" y="-85.5" font-family="Helvetica,sans-Serif" font-size="10.00">_RecordMatrixMtxFToMtx</text>
</a>
</g>
</g>
<!-- Node14&#45;&gt;Node15 -->
<g id="edge16_Node000014_Node000015" class="edge">
<title>Node14&#45;&gt;Node15</title>
<g id="a_edge16_Node000014_Node000015"><a xlink:title=" ">
<path fill="none" stroke="#63b8ff" d="M774.57,-86.86C796.58,-87.77 826.65,-89.03 854.74,-90.2"/>
<polygon fill="#63b8ff" stroke="#63b8ff" points="854.84,-93.7 864.98,-90.62 855.13,-86.71 854.84,-93.7"/>
</a>
</g>
</g>
<!-- Node16 -->
<g id="Node000016" class="node">
<title>Node16</title>
<g id="a_Node000016"><a xlink:href="guMtxF2L_8c.html#a40ab2d64c609839ff1e0ef0de2d0dcc4" target="_top" xlink:title=" ">
<polygon fill="white" stroke="#666666" points="967.5,-146 902.5,-146 902.5,-127 967.5,-127 967.5,-146"/>
<text text-anchor="middle" x="935" y="-134" font-family="Helvetica,sans-Serif" font-size="10.00">guMtxF2L</text>
</a>
</g>
</g>
<!-- Node14&#45;&gt;Node16 -->
<g id="edge18_Node000014_Node000016" class="edge">
<title>Node14&#45;&gt;Node16</title>
<g id="a_edge18_Node000014_Node000016"><a xlink:title=" ">
<path fill="none" stroke="#63b8ff" d="M774.52,-93.16C786.12,-96.11 799.22,-99.69 811,-103.5 827.33,-108.79 830.56,-112.54 847,-117.5 861.53,-121.88 877.71,-125.7 892.14,-128.74"/>
<polygon fill="#63b8ff" stroke="#63b8ff" points="891.79,-132.24 902.29,-130.81 893.19,-125.38 891.79,-132.24"/>
</a>
</g>
</g>
<!-- Node15&#45;&gt;Node10 -->
<g id="edge17_Node000015_Node000010" class="edge">
<title>Node15&#45;&gt;Node10</title>
<g id="a_edge17_Node000015_Node000010"><a xlink:title=" ">
<path fill="none" stroke="#63b8ff" d="M1000.56,-108.65C1008.27,-111.23 1015.91,-114.17 1023,-117.5 1048.98,-129.7 1075.58,-149.35 1092.84,-163.26"/>
<polygon fill="#63b8ff" stroke="#63b8ff" points="1091.02,-166.29 1100.97,-169.93 1095.47,-160.88 1091.02,-166.29"/>
</a>
</g>
</g>
<!-- Node19 -->
<g id="Node000019" class="node">
<title>Node19</title>
<g id="a_Node000019"><a xlink:href="math__util_8c.html#ae69cbf5c8d4b3b0dba2d7b4d4673689f" target="_top" xlink:title=" ">
<polygon fill="white" stroke="#666666" points="760,-169 722,-169 722,-150 760,-150 760,-169"/>
<text text-anchor="middle" x="741" y="-157" font-family="Helvetica,sans-Serif" font-size="10.00">coss</text>
</a>
</g>
</g>
<!-- Node18&#45;&gt;Node19 -->
<g id="edge21_Node000018_Node000019" class="edge">
<title>Node18&#45;&gt;Node19</title>
<g id="a_edge21_Node000018_Node000019"><a xlink:title=" ">
<path fill="none" stroke="#63b8ff" d="M610.07,-156.12C644.16,-157 684.8,-158.06 711.44,-158.76"/>
<polygon fill="#63b8ff" stroke="#63b8ff" points="711.51,-162.26 721.6,-159.02 711.69,-155.26 711.51,-162.26"/>
</a>
</g>
</g>
<!-- Node20 -->
<g id="Node000020" class="node">
<title>Node20</title>
<g id="a_Node000020"><a xlink:href="FrameInterpolation_8cpp.html#aeb9128118a5441a4bf264c302e761fe1" target="_top" xlink:title=" ">
<polygon fill="white" stroke="#666666" points="1015,-60.5 855,-60.5 855,-30.5 1015,-30.5 1015,-60.5"/>
<text text-anchor="start" x="863" y="-48.5" font-family="Helvetica,sans-Serif" font-size="10.00">FrameInterpolation</text>
<text text-anchor="middle" x="935" y="-37.5" font-family="Helvetica,sans-Serif" font-size="10.00">_RecordMatrixPosRotScaleXY</text>
</a>
</g>
</g>
<!-- Node18&#45;&gt;Node20 -->
<g id="edge22_Node000018_Node000020" class="edge">
<title>Node18&#45;&gt;Node20</title>
<g id="a_edge22_Node000018_Node000020"><a xlink:title=" ">
<path fill="none" stroke="#63b8ff" d="M610.31,-143.05C619.16,-139.64 627.71,-135.23 635,-129.5 660.36,-109.58 643.77,-83.78 671,-66.5 722.04,-34.1 790.37,-29.52 844.58,-32.7"/>
<polygon fill="#63b8ff" stroke="#63b8ff" points="844.66,-36.21 854.88,-33.4 845.14,-29.23 844.66,-36.21"/>
</a>
</g>
</g>
<!-- Node21 -->
<g id="Node000021" class="node">
<title>Node21</title>
<g id="a_Node000021"><a xlink:href="math__util_8c.html#a19ed3bd78fd2d3e2bd0a29f6caf48545" target="_top" xlink:title=" ">
<polygon fill="white" stroke="#666666" points="759,-132 723,-132 723,-113 759,-113 759,-132"/>
<text text-anchor="middle" x="741" y="-120" font-family="Helvetica,sans-Serif" font-size="10.00">sins</text>
</a>
</g>
</g>
<!-- Node18&#45;&gt;Node21 -->
<g id="edge24_Node000018_Node000021" class="edge">
<title>Node18&#45;&gt;Node21</title>
<g id="a_edge24_Node000018_Node000021"><a xlink:title=" ">
<path fill="none" stroke="#63b8ff" d="M610.07,-144.15C644.74,-138.38 686.18,-131.47 712.78,-127.04"/>
<polygon fill="#63b8ff" stroke="#63b8ff" points="713.59,-130.45 722.87,-125.35 712.43,-123.55 713.59,-130.45"/>
</a>
</g>
</g>
<!-- Node20&#45;&gt;Node10 -->
<g id="edge23_Node000020_Node000010" class="edge">
<title>Node20&#45;&gt;Node10</title>
<g id="a_edge23_Node000020_Node000010"><a xlink:title=" ">
<path fill="none" stroke="#63b8ff" d="M1006.09,-60.59C1012.03,-63.12 1017.76,-66.07 1023,-69.5 1059.12,-93.16 1087.6,-136.19 1101.9,-160.84"/>
<polygon fill="#63b8ff" stroke="#63b8ff" points="1099.03,-162.88 1106.99,-169.88 1105.13,-159.44 1099.03,-162.88"/>
</a>
</g>
</g>
<!-- Node26 -->
<g id="Node000026" class="node">
<title>Node26</title>
<g id="a_Node000026"><a xlink:href="Engine_8cpp.html#a223c8bc63f228dc11177515e38eff2db" target="_top" xlink:title=" ">
<polygon fill="white" stroke="#666666" points="621.5,-395 472.5,-395 472.5,-376 621.5,-376 621.5,-395"/>
<text text-anchor="middle" x="547" y="-383" font-family="Helvetica,sans-Serif" font-size="10.00">GameEngine_OTRSigCheck</text>
</a>
</g>
</g>
<!-- Node25&#45;&gt;Node26 -->
<g id="edge30_Node000025_Node000026" class="edge">
<title>Node25&#45;&gt;Node26</title>
<g id="a_edge30_Node000025_Node000026"><a xlink:title=" ">
<path fill="none" stroke="#63b8ff" d="M384.08,-385.5C406.75,-385.5 435.25,-385.5 462,-385.5"/>
<polygon fill="#63b8ff" stroke="#63b8ff" points="462.15,-389 472.15,-385.5 462.15,-382 462.15,-389"/>
</a>
</g>
</g>
<!-- Node27 -->
<g id="Node000027" class="node">
<title>Node27</title>
<g id="a_Node000027"><a xlink:href="string_8c.html#a008e171a518fe0e0352f31b245e03875" target="_top" xlink:title=" ">
<polygon fill="white" stroke="#666666" points="763,-395 719,-395 719,-376 763,-376 763,-395"/>
<text text-anchor="middle" x="741" y="-383" font-family="Helvetica,sans-Serif" font-size="10.00">strlen</text>
</a>
</g>
</g>
<!-- Node26&#45;&gt;Node27 -->
<g id="edge31_Node000026_Node000027" class="edge">
<title>Node26&#45;&gt;Node27</title>
<g id="a_edge31_Node000026_Node000027"><a xlink:title=" ">
<path fill="none" stroke="#63b8ff" d="M621.68,-385.5C651.76,-385.5 684.94,-385.5 708.48,-385.5"/>
<polygon fill="#63b8ff" stroke="#63b8ff" points="708.58,-389 718.58,-385.5 708.58,-382 708.58,-389"/>
</a>
</g>
</g>
<!-- Node28&#45;&gt;Node17 -->
<g id="edge34_Node000028_Node000017" class="edge">
<title>Node28&#45;&gt;Node17</title>
<g id="a_edge34_Node000028_Node000017"><a xlink:title=" ">
<path fill="none" stroke="#63b8ff" d="M379.72,-115.27C393.48,-112.17 408.99,-108.44 423,-104.5 439.24,-99.94 442.75,-97 459,-92.5 536.22,-71.14 561.6,-85.62 635,-53.5 652.85,-45.69 653.36,-36.76 671,-28.5 680.02,-24.28 690.16,-20.84 699.83,-18.1"/>
<polygon fill="#63b8ff" stroke="#63b8ff" points="700.89,-21.44 709.67,-15.5 699.1,-14.67 700.89,-21.44"/>
</a>
</g>
</g>
<!-- Node29 -->
<g id="Node000029" class="node">
<title>Node29</title>
<g id="a_Node000029"><a xlink:href="classWorld.html#a1a4dacc6aea0b846df998be0afc239f7" target="_top" xlink:title=" ">
<polygon fill="white" stroke="#666666" points="593.5,-45 500.5,-45 500.5,-26 593.5,-26 593.5,-45"/>
<text text-anchor="middle" x="547" y="-33" font-family="Helvetica,sans-Serif" font-size="10.00">World::GetTrack</text>
</a>
</g>
</g>
<!-- Node28&#45;&gt;Node29 -->
<g id="edge33_Node000028_Node000029" class="edge">
<title>Node28&#45;&gt;Node29</title>
<g id="a_edge33_Node000028_Node000029"><a xlink:title=" ">
<path fill="none" stroke="#63b8ff" d="M379.53,-119.96C394.02,-117.3 410.06,-112.64 423,-104.5 444.68,-90.87 437.61,-73.59 459,-59.5 468.51,-53.23 479.64,-48.59 490.69,-45.15"/>
<polygon fill="#63b8ff" stroke="#63b8ff" points="491.67,-48.51 500.35,-42.43 489.78,-41.78 491.67,-48.51"/>
</a>
</g>
</g>
<!-- Node31&#45;&gt;Node13 -->
<g id="edge37_Node000031_Node000013" class="edge">
<title>Node31&#45;&gt;Node13</title>
<g id="a_edge37_Node000031_Node000013"><a xlink:title=" ">
<path fill="none" stroke="#63b8ff" d="M403.68,-187.87C410.49,-185.42 417.09,-182.35 423,-178.5 445.35,-163.96 436.57,-144.92 459,-130.5 469.36,-123.84 481.71,-119.49 493.79,-116.65"/>
<polygon fill="#63b8ff" stroke="#63b8ff" points="494.73,-120.03 503.83,-114.6 493.33,-113.17 494.73,-120.03"/>
</a>
</g>
</g>
<!-- Node32 -->
<g id="Node000032" class="node">
<title>Node32</title>
<g id="a_Node000032"><a xlink:href="math__util__2_8c.html#ae71383a9d7f97bcb240b23f68068ab30" target="_top" xlink:title=" ">
<polygon fill="white" stroke="#666666" points="635,-207 459,-207 459,-188 635,-188 635,-207"/>
<text text-anchor="middle" x="547" y="-195" font-family="Helvetica,sans-Serif" font-size="10.00">mtxf_set_matrix_transformation</text>
</a>
</g>
</g>
<!-- Node31&#45;&gt;Node32 -->
<g id="edge38_Node000031_Node000032" class="edge">
<title>Node31&#45;&gt;Node32</title>
<g id="a_edge38_Node000031_Node000032"><a xlink:title=" ">
<path fill="none" stroke="#63b8ff" d="M423.2,-197.5C431.61,-197.5 440.22,-197.5 448.77,-197.5"/>
<polygon fill="#63b8ff" stroke="#63b8ff" points="448.77,-201 458.77,-197.5 448.77,-194 448.77,-201"/>
</a>
</g>
</g>
<!-- Node32&#45;&gt;Node19 -->
<g id="edge39_Node000032_Node000019" class="edge">
<title>Node32&#45;&gt;Node19</title>
<g id="a_edge39_Node000032_Node000019"><a xlink:title=" ">
<path fill="none" stroke="#63b8ff" d="M596.45,-187.91C632.82,-180.71 681.37,-171.1 711.66,-165.11"/>
<polygon fill="#63b8ff" stroke="#63b8ff" points="712.43,-168.53 721.56,-163.15 711.07,-161.66 712.43,-168.53"/>
</a>
</g>
</g>
<!-- Node32&#45;&gt;Node21 -->
<g id="edge42_Node000032_Node000021" class="edge">
<title>Node32&#45;&gt;Node21</title>
<g id="a_edge42_Node000032_Node000021"><a xlink:title=" ">
<path fill="none" stroke="#63b8ff" d="M612.81,-187.92C620.55,-185.46 628.13,-182.37 635,-178.5 655.26,-167.07 650.97,-152.34 671,-140.5 683.7,-132.99 699.52,-128.58 712.81,-126"/>
<polygon fill="#63b8ff" stroke="#63b8ff" points="713.55,-129.42 722.82,-124.3 712.38,-122.52 713.55,-129.42"/>
</a>
</g>
</g>
<!-- Node33 -->
<g id="Node000033" class="node">
<title>Node33</title>
<g id="a_Node000033"><a xlink:href="FrameInterpolation_8cpp.html#af749df1a96bee5c78287b1845455ae2d" target="_top" xlink:title=" ">
<polygon fill="white" stroke="#666666" points="1023,-194.5 847,-194.5 847,-164.5 1023,-164.5 1023,-194.5"/>
<text text-anchor="start" x="855" y="-182.5" font-family="Helvetica,sans-Serif" font-size="10.00">FrameInterpolation</text>
<text text-anchor="middle" x="935" y="-171.5" font-family="Helvetica,sans-Serif" font-size="10.00">_RecordSetMatrixTransformation</text>
</a>
</g>
</g>
<!-- Node32&#45;&gt;Node33 -->
<g id="edge40_Node000032_Node000033" class="edge">
<title>Node32&#45;&gt;Node33</title>
<g id="a_edge40_Node000032_Node000033"><a xlink:title=" ">
<path fill="none" stroke="#63b8ff" d="M635.11,-193.44C695.03,-190.64 774.68,-186.93 836.69,-184.04"/>
<polygon fill="#63b8ff" stroke="#63b8ff" points="837.05,-187.52 846.88,-183.56 836.72,-180.53 837.05,-187.52"/>
</a>
</g>
</g>
<!-- Node33&#45;&gt;Node10 -->
<g id="edge41_Node000033_Node000010" class="edge">
<title>Node33&#45;&gt;Node10</title>
<g id="a_edge41_Node000033_Node000010"><a xlink:title=" ">
<path fill="none" stroke="#63b8ff" d="M1023.23,-179.5C1031.74,-179.5 1040.25,-179.5 1048.46,-179.5"/>
<polygon fill="#63b8ff" stroke="#63b8ff" points="1048.67,-183 1058.67,-179.5 1048.67,-176 1048.67,-183"/>
</a>
</g>
</g>
</g>
</svg>
