<?xml version="1.0" encoding="UTF-8" standalone="no"?>
<!DOCTYPE svg PUBLIC "-//W3C//DTD SVG 1.1//EN"
 "http://www.w3.org/Graphics/SVG/1.1/DTD/svg11.dtd">
<!-- Generated by graphviz version 2.43.0 (0)
 -->
<!-- Title: load_texture_block_ia8_nomirror Pages: 1 -->
<svg width="518pt" height="730pt"
 viewBox="0.00 0.00 518.00 730.00" xmlns="http://www.w3.org/2000/svg" xmlns:xlink="http://www.w3.org/1999/xlink">
<g id="graph0" class="graph" transform="scale(1 1) rotate(0) translate(4 726)">
<title>load_texture_block_ia8_nomirror</title>
<!-- Node1 -->
<g id="Node000001" class="node">
<title>Node1</title>
<g id="a_Node000001"><a xlink:title=" ">
<polygon fill="#999999" stroke="#666666" points="510,-357.5 400,-357.5 400,-327.5 510,-327.5 510,-357.5"/>
<text text-anchor="start" x="408" y="-345.5" font-family="Helvetica,sans-Serif" font-size="10.00">load_texture_block</text>
<text text-anchor="middle" x="455" y="-334.5" font-family="Helvetica,sans-Serif" font-size="10.00">_ia8_nomirror</text>
</a>
</g>
</g>
<!-- Node2 -->
<g id="Node000002" class="node">
<title>Node2</title>
<g id="a_Node000002"><a xlink:href="classOThwomp.html#a62ebbbcbbb560d48c97928f77e4b2352" target="_top" xlink:title=" ">
<polygon fill="white" stroke="#666666" points="361,-426 263,-426 263,-407 361,-407 361,-426"/>
<text text-anchor="middle" x="312" y="-414" font-family="Helvetica,sans-Serif" font-size="10.00">OThwomp::Draw</text>
</a>
</g>
</g>
<!-- Node1&#45;&gt;Node2 -->
<g id="edge1_Node000001_Node000002" class="edge">
<title>Node1&#45;&gt;Node2</title>
<g id="a_edge1_Node000001_Node000002"><a xlink:title=" ">
<path fill="none" stroke="#63b8ff" d="M424.13,-363.38C407.04,-374.73 384.9,-388.45 364,-398.5 357.48,-401.63 350.27,-404.51 343.38,-407"/>
<polygon fill="#63b8ff" stroke="#63b8ff" points="426.23,-366.18 432.57,-357.69 422.32,-360.38 426.23,-366.18"/>
</a>
</g>
</g>
<!-- Node3 -->
<g id="Node000003" class="node">
<title>Node3</title>
<g id="a_Node000003"><a xlink:href="classStarEmitter.html#ad320cdac67e90a7e6d3945b1ca4d3f98" target="_top" xlink:title=" ">
<polygon fill="white" stroke="#666666" points="364,-389 260,-389 260,-370 364,-370 364,-389"/>
<text text-anchor="middle" x="312" y="-377" font-family="Helvetica,sans-Serif" font-size="10.00">StarEmitter::Draw</text>
</a>
</g>
</g>
<!-- Node1&#45;&gt;Node3 -->
<g id="edge2_Node000001_Node000003" class="edge">
<title>Node1&#45;&gt;Node3</title>
<g id="a_edge2_Node000001_Node000003"><a xlink:title=" ">
<path fill="none" stroke="#63b8ff" d="M389.85,-359.33C375.93,-362.99 361.69,-366.72 349.3,-369.97"/>
<polygon fill="#63b8ff" stroke="#63b8ff" points="391.1,-362.62 399.89,-356.7 389.33,-355.85 391.1,-362.62"/>
</a>
</g>
</g>
<!-- Node4 -->
<g id="Node000004" class="node">
<title>Node4</title>
<g id="a_Node000004"><a xlink:href="render__objects_8c.html#ab687ef8b2c2a6efc6c4d84f3a15c0e8a" target="_top" xlink:title=" ">
<polygon fill="white" stroke="#666666" points="358,-352 266,-352 266,-333 358,-333 358,-352"/>
<text text-anchor="middle" x="312" y="-340" font-family="Helvetica,sans-Serif" font-size="10.00">func_800492D4</text>
</a>
</g>
</g>
<!-- Node1&#45;&gt;Node4 -->
<g id="edge3_Node000001_Node000004" class="edge">
<title>Node1&#45;&gt;Node4</title>
<g id="a_edge3_Node000001_Node000004"><a xlink:title=" ">
<path fill="none" stroke="#63b8ff" d="M389.72,-342.5C379.02,-342.5 368.13,-342.5 358.04,-342.5"/>
<polygon fill="#63b8ff" stroke="#63b8ff" points="389.89,-346 399.89,-342.5 389.89,-339 389.89,-346"/>
</a>
</g>
</g>
<!-- Node26 -->
<g id="Node000026" class="node">
<title>Node26</title>
<g id="a_Node000026"><a xlink:href="render__objects_8c.html#a097c657af30994ba520f680ab2dc3cc4" target="_top" xlink:title=" ">
<polygon fill="white" stroke="#666666" points="358,-149 266,-149 266,-130 358,-130 358,-149"/>
<text text-anchor="middle" x="312" y="-137" font-family="Helvetica,sans-Serif" font-size="10.00">func_8004CE8C</text>
</a>
</g>
</g>
<!-- Node1&#45;&gt;Node26 -->
<g id="edge25_Node000001_Node000026" class="edge">
<title>Node1&#45;&gt;Node26</title>
<g id="a_edge25_Node000001_Node000026"><a xlink:title=" ">
<path fill="none" stroke="#63b8ff" d="M437.53,-318.79C406.63,-274.3 341.14,-180.01 319.84,-149.35"/>
<polygon fill="#63b8ff" stroke="#63b8ff" points="434.82,-321.03 443.4,-327.24 440.57,-317.03 434.82,-321.03"/>
</a>
</g>
</g>
<!-- Node38 -->
<g id="Node000038" class="node">
<title>Node38</title>
<g id="a_Node000038"><a xlink:href="render__objects_8c.html#a6e1fe4266ea71e6a306985077ff19280" target="_top" xlink:title=" ">
<polygon fill="white" stroke="#666666" points="358.5,-75 265.5,-75 265.5,-56 358.5,-56 358.5,-75"/>
<text text-anchor="middle" x="312" y="-63" font-family="Helvetica,sans-Serif" font-size="10.00">func_8004D93C</text>
</a>
</g>
</g>
<!-- Node1&#45;&gt;Node38 -->
<g id="edge37_Node000001_Node000038" class="edge">
<title>Node1&#45;&gt;Node38</title>
<g id="a_edge37_Node000001_Node000038"><a xlink:title=" ">
<path fill="none" stroke="#63b8ff" d="M447.04,-317.68C434.49,-275.31 405.46,-187.24 364,-121.5 352.64,-103.48 335.23,-85.84 323.98,-75.32"/>
<polygon fill="#63b8ff" stroke="#63b8ff" points="443.72,-318.8 449.87,-327.43 450.44,-316.85 443.72,-318.8"/>
</a>
</g>
</g>
<!-- Node5 -->
<g id="Node000005" class="node">
<title>Node5</title>
<g id="a_Node000005"><a xlink:href="render__objects_8c.html#a2eaf2538940cde63e28d861c56d468e5" target="_top" xlink:title=" ">
<polygon fill="white" stroke="#666666" points="223.5,-629 131.5,-629 131.5,-610 223.5,-610 223.5,-629"/>
<text text-anchor="middle" x="177.5" y="-617" font-family="Helvetica,sans-Serif" font-size="10.00">func_80049C18</text>
</a>
</g>
</g>
<!-- Node4&#45;&gt;Node5 -->
<g id="edge4_Node000004_Node000005" class="edge">
<title>Node4&#45;&gt;Node5</title>
<g id="a_edge4_Node000004_Node000005"><a xlink:title=" ">
<path fill="none" stroke="#63b8ff" d="M263.69,-357.76C262.37,-358.92 261.13,-360.16 260,-361.5 205.83,-425.39 254.66,-468.55 224,-546.5 214.38,-570.96 196.48,-596.29 186.23,-609.73"/>
<polygon fill="#63b8ff" stroke="#63b8ff" points="265.75,-360.6 272.01,-352.05 261.79,-354.82 265.75,-360.6"/>
</a>
</g>
</g>
<!-- Node11 -->
<g id="Node000011" class="node">
<title>Node11</title>
<g id="a_Node000011"><a xlink:href="render__objects_8c.html#a9522b6deae125c560498e6846fd6c378" target="_top" xlink:title=" ">
<polygon fill="white" stroke="#666666" points="223.5,-537 131.5,-537 131.5,-518 223.5,-518 223.5,-537"/>
<text text-anchor="middle" x="177.5" y="-525" font-family="Helvetica,sans-Serif" font-size="10.00">func_80049C94</text>
</a>
</g>
</g>
<!-- Node4&#45;&gt;Node11 -->
<g id="edge10_Node000004_Node000011" class="edge">
<title>Node4&#45;&gt;Node11</title>
<g id="a_edge10_Node000004_Node000011"><a xlink:title=" ">
<path fill="none" stroke="#63b8ff" d="M263.85,-357.77C262.48,-358.92 261.19,-360.16 260,-361.5 215.04,-412.11 268.45,-458.44 224,-509.5 221.1,-512.83 217.5,-515.55 213.6,-517.77"/>
<polygon fill="#63b8ff" stroke="#63b8ff" points="266.04,-360.51 272.43,-352.06 262.17,-354.68 266.04,-360.51"/>
</a>
</g>
</g>
<!-- Node13 -->
<g id="Node000013" class="node">
<title>Node13</title>
<g id="a_Node000013"><a xlink:href="render__objects_8c.html#adc5cb866d78c7b354798ad1de211aeac" target="_top" xlink:title=" ">
<polygon fill="white" stroke="#666666" points="223.5,-500 131.5,-500 131.5,-481 223.5,-481 223.5,-500"/>
<text text-anchor="middle" x="177.5" y="-488" font-family="Helvetica,sans-Serif" font-size="10.00">func_80049D10</text>
</a>
</g>
</g>
<!-- Node4&#45;&gt;Node13 -->
<g id="edge12_Node000004_Node000013" class="edge">
<title>Node4&#45;&gt;Node13</title>
<g id="a_edge12_Node000004_Node000013"><a xlink:title=" ">
<path fill="none" stroke="#63b8ff" d="M264.53,-357.45C262.92,-358.69 261.4,-360.04 260,-361.5 224.12,-398.95 259.5,-434.69 224,-472.5 220.86,-475.84 217.02,-478.58 212.92,-480.81"/>
<polygon fill="#63b8ff" stroke="#63b8ff" points="266.57,-360.3 273.21,-352.04 262.87,-354.36 266.57,-360.3"/>
</a>
</g>
</g>
<!-- Node15 -->
<g id="Node000015" class="node">
<title>Node15</title>
<g id="a_Node000015"><a xlink:href="render__objects_8c.html#a903a79a107ab2a95b8e535777f8391b2" target="_top" xlink:title=" ">
<polygon fill="white" stroke="#666666" points="224,-463 131,-463 131,-444 224,-444 224,-463"/>
<text text-anchor="middle" x="177.5" y="-451" font-family="Helvetica,sans-Serif" font-size="10.00">func_80049D8C</text>
</a>
</g>
</g>
<!-- Node4&#45;&gt;Node15 -->
<g id="edge14_Node000004_Node000015" class="edge">
<title>Node4&#45;&gt;Node15</title>
<g id="a_edge14_Node000004_Node000015"><a xlink:title=" ">
<path fill="none" stroke="#63b8ff" d="M265.58,-357.15C263.61,-358.48 261.73,-359.93 260,-361.5 232.93,-386.09 250.83,-410.64 224,-435.5 220.39,-438.85 216.07,-441.6 211.57,-443.86"/>
<polygon fill="#63b8ff" stroke="#63b8ff" points="267.71,-359.97 274.73,-352.03 264.3,-353.86 267.71,-359.97"/>
</a>
</g>
</g>
<!-- Node17 -->
<g id="Node000017" class="node">
<title>Node17</title>
<g id="a_Node000017"><a xlink:href="render__objects_8c.html#a4eb83caaa203e32db3fec869e2c17348" target="_top" xlink:title=" ">
<polygon fill="white" stroke="#666666" points="223,-426 132,-426 132,-407 223,-407 223,-426"/>
<text text-anchor="middle" x="177.5" y="-414" font-family="Helvetica,sans-Serif" font-size="10.00">func_80049E08</text>
</a>
</g>
</g>
<!-- Node4&#45;&gt;Node17 -->
<g id="edge16_Node000004_Node000017" class="edge">
<title>Node4&#45;&gt;Node17</title>
<g id="a_edge16_Node000004_Node000017"><a xlink:title=" ">
<path fill="none" stroke="#63b8ff" d="M269.35,-356.22C266.1,-357.82 262.94,-359.58 260,-361.5 240.78,-374.03 243.09,-385.77 224,-398.5 219.19,-401.7 213.73,-404.48 208.3,-406.82"/>
<polygon fill="#63b8ff" stroke="#63b8ff" points="270.95,-359.34 278.66,-352.08 268.11,-352.94 270.95,-359.34"/>
</a>
</g>
</g>
<!-- Node18 -->
<g id="Node000018" class="node">
<title>Node18</title>
<g id="a_Node000018"><a xlink:href="render__objects_8c.html#a9cab9f68494e6dac5511ebcd64d92e43" target="_top" xlink:title=" ">
<polygon fill="white" stroke="#666666" points="223,-389 132,-389 132,-370 223,-370 223,-389"/>
<text text-anchor="middle" x="177.5" y="-377" font-family="Helvetica,sans-Serif" font-size="10.00">func_80049E98</text>
</a>
</g>
</g>
<!-- Node4&#45;&gt;Node18 -->
<g id="edge17_Node000004_Node000018" class="edge">
<title>Node4&#45;&gt;Node18</title>
<g id="a_edge17_Node000004_Node000018"><a xlink:title=" ">
<path fill="none" stroke="#63b8ff" d="M266.86,-354.83C249.31,-359.73 229.42,-365.28 212.97,-369.88"/>
<polygon fill="#63b8ff" stroke="#63b8ff" points="268.19,-358.09 276.88,-352.03 266.31,-351.35 268.19,-358.09"/>
</a>
</g>
</g>
<!-- Node19 -->
<g id="Node000019" class="node">
<title>Node19</title>
<g id="a_Node000019"><a xlink:href="render__objects_8c.html#a4e1d235341d296e6a9a1dd35a819309d" target="_top" xlink:title=" ">
<polygon fill="white" stroke="#666666" points="223,-352 132,-352 132,-333 223,-333 223,-352"/>
<text text-anchor="middle" x="177.5" y="-340" font-family="Helvetica,sans-Serif" font-size="10.00">func_80049F28</text>
</a>
</g>
</g>
<!-- Node4&#45;&gt;Node19 -->
<g id="edge18_Node000004_Node000019" class="edge">
<title>Node4&#45;&gt;Node19</title>
<g id="a_edge18_Node000004_Node000019"><a xlink:title=" ">
<path fill="none" stroke="#63b8ff" d="M255.55,-342.5C244.72,-342.5 233.5,-342.5 223.08,-342.5"/>
<polygon fill="#63b8ff" stroke="#63b8ff" points="255.77,-346 265.77,-342.5 255.77,-339 255.77,-346"/>
</a>
</g>
</g>
<!-- Node20 -->
<g id="Node000020" class="node">
<title>Node20</title>
<g id="a_Node000020"><a xlink:href="render__objects_8c.html#a682c500346f365bdcde73d83223463cd" target="_top" xlink:title=" ">
<polygon fill="white" stroke="#666666" points="223.5,-315 131.5,-315 131.5,-296 223.5,-296 223.5,-315"/>
<text text-anchor="middle" x="177.5" y="-303" font-family="Helvetica,sans-Serif" font-size="10.00">func_8004A414</text>
</a>
</g>
</g>
<!-- Node4&#45;&gt;Node20 -->
<g id="edge19_Node000004_Node000020" class="edge">
<title>Node4&#45;&gt;Node20</title>
<g id="a_edge19_Node000004_Node000020"><a xlink:title=" ">
<path fill="none" stroke="#63b8ff" d="M266.86,-330.17C249.31,-325.27 229.42,-319.72 212.97,-315.12"/>
<polygon fill="#63b8ff" stroke="#63b8ff" points="266.31,-333.65 276.88,-332.97 268.19,-326.91 266.31,-333.65"/>
</a>
</g>
</g>
<!-- Node23 -->
<g id="Node000023" class="node">
<title>Node23</title>
<g id="a_Node000023"><a xlink:href="render__objects_8c.html#a42e3cb3afac22eef271b1b17664b97f4" target="_top" xlink:title=" ">
<polygon fill="white" stroke="#666666" points="223.5,-278 131.5,-278 131.5,-259 223.5,-259 223.5,-278"/>
<text text-anchor="middle" x="177.5" y="-266" font-family="Helvetica,sans-Serif" font-size="10.00">func_8004A488</text>
</a>
</g>
</g>
<!-- Node4&#45;&gt;Node23 -->
<g id="edge22_Node000004_Node000023" class="edge">
<title>Node4&#45;&gt;Node23</title>
<g id="a_edge22_Node000004_Node000023"><a xlink:title=" ">
<path fill="none" stroke="#63b8ff" d="M289.3,-327.34C272.06,-315.65 247.08,-299.51 224,-287.5 217.47,-284.1 210.19,-280.84 203.41,-278.01"/>
<polygon fill="#63b8ff" stroke="#63b8ff" points="287.33,-330.23 297.56,-333 291.29,-324.46 287.33,-330.23"/>
</a>
</g>
</g>
<!-- Node24 -->
<g id="Node000024" class="node">
<title>Node24</title>
<g id="a_Node000024"><a xlink:href="render__objects_8c.html#a44ec9b797d303fdee99ad5ec0c0827be" target="_top" xlink:title=" ">
<polygon fill="white" stroke="#666666" points="223.5,-241 131.5,-241 131.5,-222 223.5,-222 223.5,-241"/>
<text text-anchor="middle" x="177.5" y="-229" font-family="Helvetica,sans-Serif" font-size="10.00">func_8004A4FC</text>
</a>
</g>
</g>
<!-- Node4&#45;&gt;Node24 -->
<g id="edge23_Node000004_Node000024" class="edge">
<title>Node4&#45;&gt;Node24</title>
<g id="a_edge23_Node000004_Node000024"><a xlink:title=" ">
<path fill="none" stroke="#63b8ff" d="M298.03,-324.84C282.4,-304.6 254.41,-271.5 224,-250.5 218.79,-246.9 212.79,-243.79 206.89,-241.2"/>
<polygon fill="#63b8ff" stroke="#63b8ff" points="295.31,-327.04 304.13,-332.91 300.89,-322.82 295.31,-327.04"/>
</a>
</g>
</g>
<!-- Node25 -->
<g id="Node000025" class="node">
<title>Node25</title>
<g id="a_Node000025"><a xlink:href="render__objects_8c.html#acc2a03d6d53933d4ccb918ac978cf340" target="_top" xlink:title=" ">
<polygon fill="white" stroke="#666666" points="223.5,-204 131.5,-204 131.5,-185 223.5,-185 223.5,-204"/>
<text text-anchor="middle" x="177.5" y="-192" font-family="Helvetica,sans-Serif" font-size="10.00">func_8004A570</text>
</a>
</g>
</g>
<!-- Node4&#45;&gt;Node25 -->
<g id="edge24_Node000004_Node000025" class="edge">
<title>Node4&#45;&gt;Node25</title>
<g id="a_edge24_Node000004_Node000025"><a xlink:title=" ">
<path fill="none" stroke="#63b8ff" d="M302.49,-323.29C289.34,-295.58 261.61,-244.32 224,-213.5 219.37,-209.7 213.86,-206.56 208.31,-204"/>
<polygon fill="#63b8ff" stroke="#63b8ff" points="299.45,-325.05 306.81,-332.67 305.81,-322.12 299.45,-325.05"/>
</a>
</g>
</g>
<!-- Node6 -->
<g id="Node000006" class="node">
<title>Node6</title>
<g id="a_Node000006"><a xlink:href="render__objects_8c.html#a3f975d18ee5251f96fa16bfec205399d" target="_top" xlink:title=" ">
<polygon fill="white" stroke="#666666" points="93.5,-722 1.5,-722 1.5,-703 93.5,-703 93.5,-722"/>
<text text-anchor="middle" x="47.5" y="-710" font-family="Helvetica,sans-Serif" font-size="10.00">func_8004AB00</text>
</a>
</g>
</g>
<!-- Node5&#45;&gt;Node6 -->
<g id="edge5_Node000005_Node000006" class="edge">
<title>Node5&#45;&gt;Node6</title>
<g id="a_edge5_Node000005_Node000006"><a xlink:title=" ">
<path fill="none" stroke="#63b8ff" d="M161.27,-636.88C145.92,-653.52 120.86,-678.41 95,-694.5 89.86,-697.7 84.05,-700.5 78.32,-702.87"/>
<polygon fill="#63b8ff" stroke="#63b8ff" points="164.26,-638.79 168.36,-629.02 159.06,-634.1 164.26,-638.79"/>
</a>
</g>
</g>
<!-- Node7 -->
<g id="Node000007" class="node">
<title>Node7</title>
<g id="a_Node000007"><a xlink:href="render__objects_8c.html#ac656c9d46351721efd3023e0fb8261d5" target="_top" xlink:title=" ">
<polygon fill="white" stroke="#666666" points="93.5,-685 1.5,-685 1.5,-666 93.5,-666 93.5,-685"/>
<text text-anchor="middle" x="47.5" y="-673" font-family="Helvetica,sans-Serif" font-size="10.00">func_8004AC20</text>
</a>
</g>
</g>
<!-- Node5&#45;&gt;Node7 -->
<g id="edge6_Node000005_Node000007" class="edge">
<title>Node5&#45;&gt;Node7</title>
<g id="a_edge6_Node000005_Node000007"><a xlink:title=" ">
<path fill="none" stroke="#63b8ff" d="M147.82,-633.45C132.29,-640.85 112.72,-649.95 95,-657.5 88.31,-660.35 81,-663.27 74.21,-665.9"/>
<polygon fill="#63b8ff" stroke="#63b8ff" points="149.4,-636.57 156.9,-629.09 146.37,-630.26 149.4,-636.57"/>
</a>
</g>
</g>
<!-- Node8 -->
<g id="Node000008" class="node">
<title>Node8</title>
<g id="a_Node000008"><a xlink:href="render__objects_8c.html#a43a64a8f125ef65a4233d8fed4ef1089" target="_top" xlink:title=" ">
<polygon fill="white" stroke="#666666" points="94.5,-648 0.5,-648 0.5,-629 94.5,-629 94.5,-648"/>
<text text-anchor="middle" x="47.5" y="-636" font-family="Helvetica,sans-Serif" font-size="10.00">func_8004AD8C</text>
</a>
</g>
</g>
<!-- Node5&#45;&gt;Node8 -->
<g id="edge7_Node000005_Node000008" class="edge">
<title>Node5&#45;&gt;Node8</title>
<g id="a_edge7_Node000005_Node000008"><a xlink:title=" ">
<path fill="none" stroke="#63b8ff" d="M121.39,-627.68C112.43,-629.01 103.23,-630.38 94.52,-631.67"/>
<polygon fill="#63b8ff" stroke="#63b8ff" points="121.99,-631.13 131.37,-626.2 120.97,-624.2 121.99,-631.13"/>
</a>
</g>
</g>
<!-- Node9 -->
<g id="Node000009" class="node">
<title>Node9</title>
<g id="a_Node000009"><a xlink:href="render__objects_8c.html#a5c2be9d40de38e7e40f52158f27b791a" target="_top" xlink:title=" ">
<polygon fill="white" stroke="#666666" points="93.5,-611 1.5,-611 1.5,-592 93.5,-592 93.5,-611"/>
<text text-anchor="middle" x="47.5" y="-599" font-family="Helvetica,sans-Serif" font-size="10.00">func_8004AF0C</text>
</a>
</g>
</g>
<!-- Node5&#45;&gt;Node9 -->
<g id="edge8_Node000005_Node000009" class="edge">
<title>Node5&#45;&gt;Node9</title>
<g id="a_edge8_Node000005_Node000009"><a xlink:title=" ">
<path fill="none" stroke="#63b8ff" d="M121.45,-611.76C112.17,-610.45 102.64,-609.11 93.65,-607.85"/>
<polygon fill="#63b8ff" stroke="#63b8ff" points="120.98,-615.23 131.37,-613.15 121.96,-608.3 120.98,-615.23"/>
</a>
</g>
</g>
<!-- Node10 -->
<g id="Node000010" class="node">
<title>Node10</title>
<g id="a_Node000010"><a xlink:href="render__objects_8c.html#ac633bb4244cdfe1e60ce12fe24e750a3" target="_top" xlink:title=" ">
<polygon fill="white" stroke="#666666" points="94,-574 1,-574 1,-555 94,-555 94,-574"/>
<text text-anchor="middle" x="47.5" y="-562" font-family="Helvetica,sans-Serif" font-size="10.00">func_8004AFCC</text>
</a>
</g>
</g>
<!-- Node5&#45;&gt;Node10 -->
<g id="edge9_Node000005_Node000010" class="edge">
<title>Node5&#45;&gt;Node10</title>
<g id="a_edge9_Node000005_Node000010"><a xlink:title=" ">
<path fill="none" stroke="#63b8ff" d="M145.68,-605.64C130.47,-598.86 111.82,-590.65 95,-583.5 87.62,-580.36 79.53,-577.02 72.21,-574.04"/>
<polygon fill="#63b8ff" stroke="#63b8ff" points="144.56,-608.98 155.12,-609.86 147.42,-602.59 144.56,-608.98"/>
</a>
</g>
</g>
<!-- Node12 -->
<g id="Node000012" class="node">
<title>Node12</title>
<g id="a_Node000012"><a xlink:href="render__objects_8c.html#a32f2b37793b430bd89f6dba8a18c7f89" target="_top" xlink:title=" ">
<polygon fill="white" stroke="#666666" points="94.5,-537 0.5,-537 0.5,-518 94.5,-518 94.5,-537"/>
<text text-anchor="middle" x="47.5" y="-525" font-family="Helvetica,sans-Serif" font-size="10.00">func_8004ADEC</text>
</a>
</g>
</g>
<!-- Node11&#45;&gt;Node12 -->
<g id="edge11_Node000011_Node000012" class="edge">
<title>Node11&#45;&gt;Node12</title>
<g id="a_edge11_Node000011_Node000012"><a xlink:title=" ">
<path fill="none" stroke="#63b8ff" d="M121.1,-527.5C112.23,-527.5 103.14,-527.5 94.52,-527.5"/>
<polygon fill="#63b8ff" stroke="#63b8ff" points="121.37,-531 131.37,-527.5 121.37,-524 121.37,-531"/>
</a>
</g>
</g>
<!-- Node14 -->
<g id="Node000014" class="node">
<title>Node14</title>
<g id="a_Node000014"><a xlink:href="render__objects_8c.html#a1023837f73e0a587f19538f6b2b6ae6e" target="_top" xlink:title=" ">
<polygon fill="white" stroke="#666666" points="93.5,-500 1.5,-500 1.5,-481 93.5,-481 93.5,-500"/>
<text text-anchor="middle" x="47.5" y="-488" font-family="Helvetica,sans-Serif" font-size="10.00">func_8004AE4C</text>
</a>
</g>
</g>
<!-- Node13&#45;&gt;Node14 -->
<g id="edge13_Node000013_Node000014" class="edge">
<title>Node13&#45;&gt;Node14</title>
<g id="a_edge13_Node000013_Node000014"><a xlink:title=" ">
<path fill="none" stroke="#63b8ff" d="M121.15,-490.5C111.97,-490.5 102.54,-490.5 93.65,-490.5"/>
<polygon fill="#63b8ff" stroke="#63b8ff" points="121.37,-494 131.37,-490.5 121.37,-487 121.37,-494"/>
</a>
</g>
</g>
<!-- Node16 -->
<g id="Node000016" class="node">
<title>Node16</title>
<g id="a_Node000016"><a xlink:href="render__objects_8c.html#ae72b31ac68c2e5cc29b863f175944e3e" target="_top" xlink:title=" ">
<polygon fill="white" stroke="#666666" points="94,-463 1,-463 1,-444 94,-444 94,-463"/>
<text text-anchor="middle" x="47.5" y="-451" font-family="Helvetica,sans-Serif" font-size="10.00">func_8004AEAC</text>
</a>
</g>
</g>
<!-- Node15&#45;&gt;Node16 -->
<g id="edge15_Node000015_Node000016" class="edge">
<title>Node15&#45;&gt;Node16</title>
<g id="a_edge15_Node000015_Node000016"><a xlink:title=" ">
<path fill="none" stroke="#63b8ff" d="M120.43,-453.5C111.6,-453.5 102.58,-453.5 94.03,-453.5"/>
<polygon fill="#63b8ff" stroke="#63b8ff" points="120.65,-457 130.65,-453.5 120.65,-450 120.65,-457"/>
</a>
</g>
</g>
<!-- Node21 -->
<g id="Node000021" class="node">
<title>Node21</title>
<g id="a_Node000021"><a xlink:href="render__objects_8c.html#aa993d5303978c8aa1ee474a5856dd226" target="_top" xlink:title=" ">
<polygon fill="white" stroke="#666666" points="93.5,-352 1.5,-352 1.5,-333 93.5,-333 93.5,-352"/>
<text text-anchor="middle" x="47.5" y="-340" font-family="Helvetica,sans-Serif" font-size="10.00">func_8004A5E4</text>
</a>
</g>
</g>
<!-- Node20&#45;&gt;Node21 -->
<g id="edge20_Node000020_Node000021" class="edge">
<title>Node20&#45;&gt;Node21</title>
<g id="a_edge20_Node000020_Node000021"><a xlink:title=" ">
<path fill="none" stroke="#63b8ff" d="M133.86,-317.83C116.91,-322.73 97.69,-328.28 81.8,-332.88"/>
<polygon fill="#63b8ff" stroke="#63b8ff" points="134.9,-321.17 143.54,-315.03 132.96,-314.44 134.9,-321.17"/>
</a>
</g>
</g>
<!-- Node22 -->
<g id="Node000022" class="node">
<title>Node22</title>
<g id="a_Node000022"><a xlink:href="render__objects_8c.html#a741ce45afc8f6dd4375ef14cbe28da9c" target="_top" xlink:title=" ">
<polygon fill="white" stroke="#666666" points="93.5,-315 1.5,-315 1.5,-296 93.5,-296 93.5,-315"/>
<text text-anchor="middle" x="47.5" y="-303" font-family="Helvetica,sans-Serif" font-size="10.00">func_8004ACE0</text>
</a>
</g>
</g>
<!-- Node20&#45;&gt;Node22 -->
<g id="edge21_Node000020_Node000022" class="edge">
<title>Node20&#45;&gt;Node22</title>
<g id="a_edge21_Node000020_Node000022"><a xlink:title=" ">
<path fill="none" stroke="#63b8ff" d="M121.15,-305.5C111.97,-305.5 102.54,-305.5 93.65,-305.5"/>
<polygon fill="#63b8ff" stroke="#63b8ff" points="121.37,-309 131.37,-305.5 121.37,-302 121.37,-309"/>
</a>
</g>
</g>
<!-- Node27 -->
<g id="Node000027" class="node">
<title>Node27</title>
<g id="a_Node000027"><a xlink:href="render__objects_8c.html#ad65e3d3adf3550145b16048ff349cdfa" target="_top" xlink:title=" ">
<polygon fill="white" stroke="#666666" points="223.5,-167 131.5,-167 131.5,-148 223.5,-148 223.5,-167"/>
<text text-anchor="middle" x="177.5" y="-155" font-family="Helvetica,sans-Serif" font-size="10.00">func_8004CF9C</text>
</a>
</g>
</g>
<!-- Node26&#45;&gt;Node27 -->
<g id="edge26_Node000026_Node000027" class="edge">
<title>Node26&#45;&gt;Node27</title>
<g id="a_edge26_Node000026_Node000027"><a xlink:title=" ">
<path fill="none" stroke="#63b8ff" d="M255.66,-147.02C244.95,-148.47 233.85,-149.98 223.52,-151.38"/>
<polygon fill="#63b8ff" stroke="#63b8ff" points="256.33,-150.46 265.77,-145.64 255.39,-143.52 256.33,-150.46"/>
</a>
</g>
</g>
<!-- Node36 -->
<g id="Node000036" class="node">
<title>Node36</title>
<g id="a_Node000036"><a xlink:href="render__objects_8c.html#a5f1a500c278829db3298bf5a55e9f522" target="_top" xlink:title=" ">
<polygon fill="white" stroke="#666666" points="223.5,-130 131.5,-130 131.5,-111 223.5,-111 223.5,-130"/>
<text text-anchor="middle" x="177.5" y="-118" font-family="Helvetica,sans-Serif" font-size="10.00">func_8004CFF0</text>
</a>
</g>
</g>
<!-- Node26&#45;&gt;Node36 -->
<g id="edge35_Node000026_Node000036" class="edge">
<title>Node26&#45;&gt;Node36</title>
<g id="a_edge35_Node000026_Node000036"><a xlink:title=" ">
<path fill="none" stroke="#63b8ff" d="M255.66,-131.56C244.95,-130.03 233.85,-128.44 223.52,-126.96"/>
<polygon fill="#63b8ff" stroke="#63b8ff" points="255.38,-135.06 265.77,-133.01 256.37,-128.13 255.38,-135.06"/>
</a>
</g>
</g>
<!-- Node37 -->
<g id="Node000037" class="node">
<title>Node37</title>
<g id="a_Node000037"><a xlink:href="render__objects_8c.html#af36925e1c46773c3cf1f0b96df5019e1" target="_top" xlink:title=" ">
<polygon fill="white" stroke="#666666" points="223.5,-93 131.5,-93 131.5,-74 223.5,-74 223.5,-93"/>
<text text-anchor="middle" x="177.5" y="-81" font-family="Helvetica,sans-Serif" font-size="10.00">func_8004D044</text>
</a>
</g>
</g>
<!-- Node26&#45;&gt;Node37 -->
<g id="edge36_Node000026_Node000037" class="edge">
<title>Node26&#45;&gt;Node37</title>
<g id="a_edge36_Node000026_Node000037"><a xlink:title=" ">
<path fill="none" stroke="#63b8ff" d="M278.83,-125.76C262.43,-118.77 242.16,-110.15 224,-102.5 216.74,-99.44 208.83,-96.13 201.66,-93.14"/>
<polygon fill="#63b8ff" stroke="#63b8ff" points="277.91,-129.17 288.48,-129.88 280.66,-122.73 277.91,-129.17"/>
</a>
</g>
</g>
<!-- Node28 -->
<g id="Node000028" class="node">
<title>Node28</title>
<g id="a_Node000028"><a xlink:href="render__objects_8c.html#a9e441e757dc37bb93064bd64c76c4e23" target="_top" xlink:title=" ">
<polygon fill="white" stroke="#666666" points="94,-278 1,-278 1,-259 94,-259 94,-278"/>
<text text-anchor="middle" x="47.5" y="-266" font-family="Helvetica,sans-Serif" font-size="10.00">func_8004DC34</text>
</a>
</g>
</g>
<!-- Node27&#45;&gt;Node28 -->
<g id="edge27_Node000027_Node000028" class="edge">
<title>Node27&#45;&gt;Node28</title>
<g id="a_edge27_Node000027_Node000028"><a xlink:title=" ">
<path fill="none" stroke="#63b8ff" d="M135.8,-172.55C134.11,-173.78 132.49,-175.09 131,-176.5 104.41,-201.61 121.92,-225.74 95,-250.5 91.3,-253.9 86.9,-256.68 82.29,-258.95"/>
<polygon fill="#63b8ff" stroke="#63b8ff" points="138.03,-175.31 144.83,-167.18 134.45,-169.29 138.03,-175.31"/>
</a>
</g>
</g>
<!-- Node29 -->
<g id="Node000029" class="node">
<title>Node29</title>
<g id="a_Node000029"><a xlink:href="render__objects_8c.html#a0624454f7798ff22171facee57a00d36" target="_top" xlink:title=" ">
<polygon fill="white" stroke="#666666" points="94.5,-241 0.5,-241 0.5,-222 94.5,-222 94.5,-241"/>
<text text-anchor="middle" x="47.5" y="-229" font-family="Helvetica,sans-Serif" font-size="10.00">func_8004DC6C</text>
</a>
</g>
</g>
<!-- Node27&#45;&gt;Node29 -->
<g id="edge28_Node000027_Node000029" class="edge">
<title>Node27&#45;&gt;Node29</title>
<g id="a_edge28_Node000027_Node000029"><a xlink:title=" ">
<path fill="none" stroke="#63b8ff" d="M139.56,-171.39C136.58,-172.97 133.69,-174.67 131,-176.5 112.03,-189.4 114.14,-200.85 95,-213.5 90.09,-216.75 84.51,-219.54 78.96,-221.89"/>
<polygon fill="#63b8ff" stroke="#63b8ff" points="141.12,-174.52 148.63,-167.04 138.1,-168.21 141.12,-174.52"/>
</a>
</g>
</g>
<!-- Node30 -->
<g id="Node000030" class="node">
<title>Node30</title>
<g id="a_Node000030"><a xlink:href="render__objects_8c.html#ab7ece3cb1a6d20010f06407c9a31fa35" target="_top" xlink:title=" ">
<polygon fill="white" stroke="#666666" points="94.5,-204 0.5,-204 0.5,-185 94.5,-185 94.5,-204"/>
<text text-anchor="middle" x="47.5" y="-192" font-family="Helvetica,sans-Serif" font-size="10.00">func_8004DCA4</text>
</a>
</g>
</g>
<!-- Node27&#45;&gt;Node30 -->
<g id="edge29_Node000027_Node000030" class="edge">
<title>Node27&#45;&gt;Node30</title>
<g id="a_edge29_Node000027_Node000030"><a xlink:title=" ">
<path fill="none" stroke="#63b8ff" d="M133.86,-169.83C116.91,-174.73 97.69,-180.28 81.8,-184.88"/>
<polygon fill="#63b8ff" stroke="#63b8ff" points="134.9,-173.17 143.54,-167.03 132.96,-166.44 134.9,-173.17"/>
</a>
</g>
</g>
<!-- Node31 -->
<g id="Node000031" class="node">
<title>Node31</title>
<g id="a_Node000031"><a xlink:href="render__objects_8c.html#a78dc6f98277c4d0f73ea5e46ffba78b4" target="_top" xlink:title=" ">
<polygon fill="white" stroke="#666666" points="95,-167 0,-167 0,-148 95,-148 95,-167"/>
<text text-anchor="middle" x="47.5" y="-155" font-family="Helvetica,sans-Serif" font-size="10.00">func_8004DD0C</text>
</a>
</g>
</g>
<!-- Node27&#45;&gt;Node31 -->
<g id="edge30_Node000027_Node000031" class="edge">
<title>Node27&#45;&gt;Node31</title>
<g id="a_edge30_Node000027_Node000031"><a xlink:title=" ">
<path fill="none" stroke="#63b8ff" d="M121.35,-157.5C112.7,-157.5 103.83,-157.5 95.39,-157.5"/>
<polygon fill="#63b8ff" stroke="#63b8ff" points="121.37,-161 131.37,-157.5 121.37,-154 121.37,-161"/>
</a>
</g>
</g>
<!-- Node32 -->
<g id="Node000032" class="node">
<title>Node32</title>
<g id="a_Node000032"><a xlink:href="render__objects_8c.html#aec513a8440d816a0cab82ff4da563435" target="_top" xlink:title=" ">
<polygon fill="white" stroke="#666666" points="94.5,-130 0.5,-130 0.5,-111 94.5,-111 94.5,-130"/>
<text text-anchor="middle" x="47.5" y="-118" font-family="Helvetica,sans-Serif" font-size="10.00">func_8004DD74</text>
</a>
</g>
</g>
<!-- Node27&#45;&gt;Node32 -->
<g id="edge31_Node000027_Node000032" class="edge">
<title>Node27&#45;&gt;Node32</title>
<g id="a_edge31_Node000027_Node000032"><a xlink:title=" ">
<path fill="none" stroke="#63b8ff" d="M133.86,-145.17C116.91,-140.27 97.69,-134.72 81.8,-130.12"/>
<polygon fill="#63b8ff" stroke="#63b8ff" points="132.96,-148.56 143.54,-147.97 134.9,-141.83 132.96,-148.56"/>
</a>
</g>
</g>
<!-- Node33 -->
<g id="Node000033" class="node">
<title>Node33</title>
<g id="a_Node000033"><a xlink:href="render__objects_8c.html#ab75382cc2e296156a8e62089c646abc6" target="_top" xlink:title=" ">
<polygon fill="white" stroke="#666666" points="94,-93 1,-93 1,-74 94,-74 94,-93"/>
<text text-anchor="middle" x="47.5" y="-81" font-family="Helvetica,sans-Serif" font-size="10.00">func_8004DEB4</text>
</a>
</g>
</g>
<!-- Node27&#45;&gt;Node33 -->
<g id="edge32_Node000027_Node000033" class="edge">
<title>Node27&#45;&gt;Node33</title>
<g id="a_edge32_Node000027_Node000033"><a xlink:title=" ">
<path fill="none" stroke="#63b8ff" d="M137.63,-143.46C135.33,-142.22 133.1,-140.9 131,-139.5 111.91,-126.77 114.02,-115.33 95,-102.5 89.65,-98.89 83.51,-95.78 77.48,-93.18"/>
<polygon fill="#63b8ff" stroke="#63b8ff" points="136.17,-146.64 146.7,-147.82 139.21,-140.33 136.17,-146.64"/>
</a>
</g>
</g>
<!-- Node34 -->
<g id="Node000034" class="node">
<title>Node34</title>
<g id="a_Node000034"><a xlink:href="render__objects_8c.html#a1e0d4d489ee0644a1e4c3c1885cf8226" target="_top" xlink:title=" ">
<polygon fill="white" stroke="#666666" points="94,-56 1,-56 1,-37 94,-37 94,-56"/>
<text text-anchor="middle" x="47.5" y="-44" font-family="Helvetica,sans-Serif" font-size="10.00">func_8004DEEC</text>
</a>
</g>
</g>
<!-- Node27&#45;&gt;Node34 -->
<g id="edge33_Node000027_Node000034" class="edge">
<title>Node27&#45;&gt;Node34</title>
<g id="a_edge33_Node000027_Node000034"><a xlink:title=" ">
<path fill="none" stroke="#63b8ff" d="M134.58,-142.47C133.33,-141.54 132.13,-140.55 131,-139.5 104.17,-114.64 121.69,-90.51 95,-65.5 90.93,-61.68 85.98,-58.59 80.86,-56.09"/>
<polygon fill="#63b8ff" stroke="#63b8ff" points="133.07,-145.65 143.43,-147.86 136.71,-139.67 133.07,-145.65"/>
</a>
</g>
</g>
<!-- Node35 -->
<g id="Node000035" class="node">
<title>Node35</title>
<g id="a_Node000035"><a xlink:href="render__objects_8c.html#a2975091d240ea44586a644dfa11b7bcb" target="_top" xlink:title=" ">
<polygon fill="white" stroke="#666666" points="93.5,-19 1.5,-19 1.5,0 93.5,0 93.5,-19"/>
<text text-anchor="middle" x="47.5" y="-7" font-family="Helvetica,sans-Serif" font-size="10.00">func_8004DF24</text>
</a>
</g>
</g>
<!-- Node27&#45;&gt;Node35 -->
<g id="edge34_Node000027_Node000035" class="edge">
<title>Node27&#45;&gt;Node35</title>
<g id="a_edge34_Node000027_Node000035"><a xlink:title=" ">
<path fill="none" stroke="#63b8ff" d="M133.8,-142.18C132.82,-141.34 131.88,-140.44 131,-139.5 95.26,-101.33 130.88,-65.53 95,-27.5 91.79,-24.1 87.87,-21.33 83.67,-19.08"/>
<polygon fill="#63b8ff" stroke="#63b8ff" points="131.84,-145.08 142.08,-147.82 135.78,-139.3 131.84,-145.08"/>
</a>
</g>
</g>
<!-- Node39 -->
<g id="Node000039" class="node">
<title>Node39</title>
<g id="a_Node000039"><a xlink:href="render__objects_8c.html#ae0c748f1a559c25b4660e7c5bfd892da" target="_top" xlink:title=" ">
<polygon fill="white" stroke="#666666" points="223.5,-56 131.5,-56 131.5,-37 223.5,-37 223.5,-56"/>
<text text-anchor="middle" x="177.5" y="-44" font-family="Helvetica,sans-Serif" font-size="10.00">func_8004DE04</text>
</a>
</g>
</g>
<!-- Node38&#45;&gt;Node39 -->
<g id="edge38_Node000038_Node000039" class="edge">
<title>Node38&#45;&gt;Node39</title>
<g id="a_edge38_Node000038_Node000039"><a xlink:title=" ">
<path fill="none" stroke="#63b8ff" d="M255.42,-57.53C244.86,-56.02 233.93,-54.45 223.73,-52.99"/>
<polygon fill="#63b8ff" stroke="#63b8ff" points="255.01,-61.01 265.4,-58.96 256,-54.08 255.01,-61.01"/>
</a>
</g>
</g>
</g>
</svg>
