<?xml version="1.0" encoding="UTF-8" standalone="no"?>
<!DOCTYPE svg PUBLIC "-//W3C//DTD SVG 1.1//EN"
 "http://www.w3.org/Graphics/SVG/1.1/DTD/svg11.dtd">
<!-- Generated by graphviz version 2.43.0 (0)
 -->
<!-- Title: func_80052D70 Pages: 1 -->
<!--zoomable 214 -->

<svg id="main" version="1.1" xmlns="http://www.w3.org/2000/svg" xmlns:xlink="http://www.w3.org/1999/xlink" xml:space="preserve" onload="init(evt)">

<style type="text/css"><![CDATA[
.node, .edge {opacity: 0.7;}
.node.selected, .edge.selected {opacity: 1;}
.edge:hover path { stroke: red; }
.edge:hover polygon { stroke: red; fill: red; }
]]></style>

<defs>
  <circle id="rim" cx="0" cy="0" r="7"/>
  <circle id="rim2" cx="0" cy="0" r="3.5"/>
  <g id="zoomPlus">
    <use xlink:href="#rim" fill="#404040"><set attributeName="fill" to="#808080" begin="zoomplus.mouseover" end="zoomplus.mouseout"/></use>
    <path d="M-4,0h8M0,-4v8" fill="none" stroke="white" stroke-width="1.5" pointer-events="none"/>
  </g>
  <g id="zoomMin">
    <use xlink:href="#rim" fill="#404040"><set attributeName="fill" to="#808080" begin="zoomminus.mouseover" end="zoomminus.mouseout"/></use>
    <path d="M-4,0h8" fill="none" stroke="white" stroke-width="1.5" pointer-events="none"/>
  </g>
  <g id="arrowUp" transform="translate(30 24)">
    <use xlink:href="#rim"/>
    <path pointer-events="none" fill="none" stroke="white" stroke-width="1.5" d="M0,-3.0v7 M-2.5,-0.5L0,-3.0L2.5,-0.5"/>
  </g>
  <g id="arrowRight" transform="rotate(90) translate(36 -43)">
    <use xlink:href="#rim"/>
    <path pointer-events="none" fill="none" stroke="white" stroke-width="1.5" d="M0,-3.0v7 M-2.5,-0.5L0,-3.0L2.5,-0.5"/>
  </g>
  <g id="arrowDown" transform="rotate(180) translate(-30 -48)">
    <use xlink:href="#rim"/>
    <path pointer-events="none" fill="none" stroke="white" stroke-width="1.5" d="M0,-3.0v7 M-2.5,-0.5L0,-3.0L2.5,-0.5"/>
  </g>
  <g id="arrowLeft" transform="rotate(270) translate(-36 17)">
    <use xlink:href="#rim"/>
    <path pointer-events="none" fill="none" stroke="white" stroke-width="1.5" d="M0,-3.0v7 M-2.5,-0.5L0,-3.0L2.5,-0.5"/>
  </g>
  <g id="resetDef">
    <use xlink:href="#rim2" fill="#404040"><set attributeName="fill" to="#808080" begin="reset.mouseover" end="reset.mouseout"/></use>
  </g>
</defs>
<script type="application/ecmascript">
var viewWidth = 1102;
var viewHeight = 214;
var sectionId = 'dynsection-338';
</script>
<script type="application/ecmascript" xlink:href="svg.min.js"/>
<svg id="graph" class="graph">
<g id="viewport">
<title>func_80052D70</title>
<!-- Node1 -->
<g id="Node000001" class="node">
<title>Node1</title>
<g id="a_Node000001"><a xlink:title=" ">
<polygon fill="#999999" stroke="#666666" points="92,-142 0,-142 0,-123 92,-123 92,-142"/>
<text text-anchor="middle" x="46" y="-130" font-family="Helvetica,sans-Serif" font-size="10.00">func_80052D70</text>
</a>
</g>
</g>
<!-- Node2 -->
<g id="Node000002" class="node">
<title>Node2</title>
<g id="a_Node000002"><a xlink:href="render__objects_8c.html#aaa8db08f147bc6819144cf35c0e91935" target="_top" xlink:title=" ">
<polygon fill="white" stroke="#666666" points="220,-161 128,-161 128,-142 220,-142 220,-161"/>
<text text-anchor="middle" x="174" y="-149" font-family="Helvetica,sans-Serif" font-size="10.00">func_800435A0</text>
</a>
</g>
</g>
<!-- Node1&#45;&gt;Node2 -->
<g id="edge1_Node000001_Node000002" class="edge">
<title>Node1&#45;&gt;Node2</title>
<g id="a_edge1_Node000001_Node000002"><a xlink:title=" ">
<path fill="none" stroke="#63b8ff" d="M92.13,-139.31C100.46,-140.56 109.23,-141.88 117.81,-143.18"/>
<polygon fill="#63b8ff" stroke="#63b8ff" points="117.35,-146.65 127.76,-144.68 118.39,-139.73 117.35,-146.65"/>
</a>
</g>
</g>
<!-- Node17 -->
<g id="Node000017" class="node">
<title>Node17</title>
<g id="a_Node000017"><a xlink:href="update__objects_8c.html#a6eafc39608c664ff3d5b832ffb629b12" target="_top" xlink:title=" ">
<polygon fill="white" stroke="#666666" points="219.5,-124 128.5,-124 128.5,-105 219.5,-105 219.5,-124"/>
<text text-anchor="middle" x="174" y="-112" font-family="Helvetica,sans-Serif" font-size="10.00">func_80072320</text>
</a>
</g>
</g>
<!-- Node1&#45;&gt;Node17 -->
<g id="edge17_Node000001_Node000017" class="edge">
<title>Node1&#45;&gt;Node17</title>
<g id="a_edge17_Node000001_Node000017"><a xlink:title=" ">
<path fill="none" stroke="#63b8ff" d="M92.13,-126.05C100.56,-124.85 109.45,-123.58 118.13,-122.34"/>
<polygon fill="#63b8ff" stroke="#63b8ff" points="118.78,-125.78 128.18,-120.9 117.79,-118.85 118.78,-125.78"/>
</a>
</g>
</g>
<!-- Node3 -->
<g id="Node000003" class="node">
<title>Node3</title>
<g id="a_Node000003"><a xlink:href="GBIMiddleware_8cpp.html#a4ecc44e3c6f1ca5a6b4a20c41d3bd2d2" target="_top" xlink:title=" ">
<polygon fill="white" stroke="#666666" points="384,-187 295,-187 295,-168 384,-168 384,-187"/>
<text text-anchor="middle" x="339.5" y="-175" font-family="Helvetica,sans-Serif" font-size="10.00">gSPDisplayList</text>
</a>
</g>
</g>
<!-- Node2&#45;&gt;Node3 -->
<g id="edge2_Node000002_Node000003" class="edge">
<title>Node2&#45;&gt;Node3</title>
<g id="a_edge2_Node000002_Node000003"><a xlink:title=" ">
<path fill="none" stroke="#63b8ff" d="M220.11,-158.67C240.17,-161.86 263.95,-165.64 284.91,-168.98"/>
<polygon fill="#63b8ff" stroke="#63b8ff" points="284.52,-172.46 294.95,-170.57 285.62,-165.55 284.52,-172.46"/>
</a>
</g>
</g>
<!-- Node6 -->
<g id="Node000006" class="node">
<title>Node6</title>
<g id="a_Node000006"><a xlink:href="math__util__2_8c.html#ac40bfdeffa5a3c0f8d7c1ce43c075a45" target="_top" xlink:title=" ">
<polygon fill="white" stroke="#666666" points="423,-141.5 256,-141.5 256,-111.5 423,-111.5 423,-141.5"/>
<text text-anchor="start" x="264" y="-129.5" font-family="Helvetica,sans-Serif" font-size="10.00">rsp_set_matrix_transformation</text>
<text text-anchor="middle" x="339.5" y="-118.5" font-family="Helvetica,sans-Serif" font-size="10.00">_inverted_x_y_orientation</text>
</a>
</g>
</g>
<!-- Node2&#45;&gt;Node6 -->
<g id="edge5_Node000002_Node000006" class="edge">
<title>Node2&#45;&gt;Node6</title>
<g id="a_edge5_Node000002_Node000006"><a xlink:title=" ">
<path fill="none" stroke="#63b8ff" d="M220.11,-144.6C228.21,-143.36 236.92,-142.03 245.81,-140.67"/>
<polygon fill="#63b8ff" stroke="#63b8ff" points="246.54,-144.1 255.89,-139.13 245.48,-137.18 246.54,-144.1"/>
</a>
</g>
</g>
<!-- Node4 -->
<g id="Node000004" class="node">
<title>Node4</title>
<g id="a_Node000004"><a xlink:href="Engine_8cpp.html#a223c8bc63f228dc11177515e38eff2db" target="_top" xlink:title=" ">
<polygon fill="white" stroke="#666666" points="621.5,-202 472.5,-202 472.5,-183 621.5,-183 621.5,-202"/>
<text text-anchor="middle" x="547" y="-190" font-family="Helvetica,sans-Serif" font-size="10.00">GameEngine_OTRSigCheck</text>
</a>
</g>
</g>
<!-- Node3&#45;&gt;Node4 -->
<g id="edge3_Node000003_Node000004" class="edge">
<title>Node3&#45;&gt;Node4</title>
<g id="a_edge3_Node000003_Node000004"><a xlink:title=" ">
<path fill="none" stroke="#63b8ff" d="M384.08,-180.68C406.75,-182.34 435.25,-184.42 462,-186.37"/>
<polygon fill="#63b8ff" stroke="#63b8ff" points="461.92,-189.87 472.15,-187.11 462.43,-182.89 461.92,-189.87"/>
</a>
</g>
</g>
<!-- Node5 -->
<g id="Node000005" class="node">
<title>Node5</title>
<g id="a_Node000005"><a xlink:href="string_8c.html#a008e171a518fe0e0352f31b245e03875" target="_top" xlink:title=" ">
<polygon fill="white" stroke="#666666" points="726.5,-206 682.5,-206 682.5,-187 726.5,-187 726.5,-206"/>
<text text-anchor="middle" x="704.5" y="-194" font-family="Helvetica,sans-Serif" font-size="10.00">strlen</text>
</a>
</g>
</g>
<!-- Node4&#45;&gt;Node5 -->
<g id="edge4_Node000004_Node000005" class="edge">
<title>Node4&#45;&gt;Node5</title>
<g id="a_edge4_Node000004_Node000005"><a xlink:title=" ">
<path fill="none" stroke="#63b8ff" d="M621.65,-194.39C639.29,-194.85 657.21,-195.31 671.77,-195.68"/>
<polygon fill="#63b8ff" stroke="#63b8ff" points="672.1,-199.19 682.19,-195.95 672.28,-192.2 672.1,-199.19"/>
</a>
</g>
</g>
<!-- Node7 -->
<g id="Node000007" class="node">
<title>Node7</title>
<g id="a_Node000007"><a xlink:href="Matrix_8cpp.html#a329d78c031733cf22ff7518f5d38fd74" target="_top" xlink:title=" ">
<polygon fill="white" stroke="#666666" points="590,-136 504,-136 504,-117 590,-117 590,-136"/>
<text text-anchor="middle" x="547" y="-124" font-family="Helvetica,sans-Serif" font-size="10.00">AddHudMatrix</text>
</a>
</g>
</g>
<!-- Node6&#45;&gt;Node7 -->
<g id="edge6_Node000006_Node000007" class="edge">
<title>Node6&#45;&gt;Node7</title>
<g id="a_edge6_Node000006_Node000007"><a xlink:title=" ">
<path fill="none" stroke="#63b8ff" d="M423.2,-126.5C446.97,-126.5 472.23,-126.5 493.62,-126.5"/>
<polygon fill="#63b8ff" stroke="#63b8ff" points="493.78,-130 503.78,-126.5 493.78,-123 493.78,-130"/>
</a>
</g>
</g>
<!-- Node13 -->
<g id="Node000013" class="node">
<title>Node13</title>
<g id="a_Node000013"><a xlink:href="math__util__2_8c.html#ae71383a9d7f97bcb240b23f68068ab30" target="_top" xlink:title=" ">
<polygon fill="white" stroke="#666666" points="635,-80 459,-80 459,-61 635,-61 635,-80"/>
<text text-anchor="middle" x="547" y="-68" font-family="Helvetica,sans-Serif" font-size="10.00">mtxf_set_matrix_transformation</text>
</a>
</g>
</g>
<!-- Node6&#45;&gt;Node13 -->
<g id="edge12_Node000006_Node000013" class="edge">
<title>Node6&#45;&gt;Node13</title>
<g id="a_edge12_Node000006_Node000013"><a xlink:title=" ">
<path fill="none" stroke="#63b8ff" d="M395.57,-111.49C428.72,-102.46 470.38,-91.11 501.44,-82.64"/>
<polygon fill="#63b8ff" stroke="#63b8ff" points="502.41,-86.01 511.13,-80 500.57,-79.25 502.41,-86.01"/>
</a>
</g>
</g>
<!-- Node8 -->
<g id="Node000008" class="node">
<title>Node8</title>
<g id="a_Node000008"><a xlink:href="Matrix_8cpp.html#a67401ed1d8de1f4d3a3e5a7b72842b6a" target="_top" xlink:title=" ">
<polygon fill="white" stroke="#666666" points="738,-169 671,-169 671,-150 738,-150 738,-169"/>
<text text-anchor="middle" x="704.5" y="-157" font-family="Helvetica,sans-Serif" font-size="10.00">AddMatrix</text>
</a>
</g>
</g>
<!-- Node7&#45;&gt;Node8 -->
<g id="edge7_Node000007_Node000008" class="edge">
<title>Node7&#45;&gt;Node8</title>
<g id="a_edge7_Node000007_Node000008"><a xlink:title=" ">
<path fill="none" stroke="#63b8ff" d="M590.08,-135.43C611.98,-140.08 638.69,-145.75 660.69,-150.42"/>
<polygon fill="#63b8ff" stroke="#63b8ff" points="660.25,-153.9 670.76,-152.55 661.7,-147.05 660.25,-153.9"/>
</a>
</g>
</g>
<!-- Node12 -->
<g id="Node000012" class="node">
<title>Node12</title>
<g id="a_Node000012"><a xlink:href="Game_8cpp.html#ae2fa844b3cb1021ecbc357f8ed2ad8cc" target="_top" xlink:title=" ">
<polygon fill="white" stroke="#666666" points="735.5,-132 673.5,-132 673.5,-113 735.5,-113 735.5,-132"/>
<text text-anchor="middle" x="704.5" y="-120" font-family="Helvetica,sans-Serif" font-size="10.00">GetWorld</text>
</a>
</g>
</g>
<!-- Node7&#45;&gt;Node12 -->
<g id="edge11_Node000007_Node000012" class="edge">
<title>Node7&#45;&gt;Node12</title>
<g id="a_edge11_Node000007_Node000012"><a xlink:title=" ">
<path fill="none" stroke="#63b8ff" d="M590.08,-125.42C612.75,-124.83 640.59,-124.12 663.02,-123.54"/>
<polygon fill="#63b8ff" stroke="#63b8ff" points="663.31,-127.03 673.22,-123.28 663.13,-120.04 663.31,-127.03"/>
</a>
</g>
</g>
<!-- Node9 -->
<g id="Node000009" class="node">
<title>Node9</title>
<g id="a_Node000009"><a xlink:href="FrameInterpolation_8cpp.html#a8cf1f2d6fabc6925aa71a9515341b4aa" target="_top" xlink:title=" ">
<polygon fill="white" stroke="#666666" points="932,-174.5 792,-174.5 792,-144.5 932,-144.5 932,-174.5"/>
<text text-anchor="start" x="800" y="-162.5" font-family="Helvetica,sans-Serif" font-size="10.00">FrameInterpolation</text>
<text text-anchor="middle" x="862" y="-151.5" font-family="Helvetica,sans-Serif" font-size="10.00">_RecordMatrixMtxFToMtx</text>
</a>
</g>
</g>
<!-- Node8&#45;&gt;Node9 -->
<g id="edge8_Node000008_Node000009" class="edge">
<title>Node8&#45;&gt;Node9</title>
<g id="a_edge8_Node000008_Node000009"><a xlink:title=" ">
<path fill="none" stroke="#63b8ff" d="M738.1,-159.5C750.96,-159.5 766.33,-159.5 781.79,-159.5"/>
<polygon fill="#63b8ff" stroke="#63b8ff" points="781.93,-163 791.93,-159.5 781.93,-156 781.93,-163"/>
</a>
</g>
</g>
<!-- Node11 -->
<g id="Node000011" class="node">
<title>Node11</title>
<g id="a_Node000011"><a xlink:href="guMtxF2L_8c.html#a40ab2d64c609839ff1e0ef0de2d0dcc4" target="_top" xlink:title=" ">
<polygon fill="white" stroke="#666666" points="894.5,-126 829.5,-126 829.5,-107 894.5,-107 894.5,-126"/>
<text text-anchor="middle" x="862" y="-114" font-family="Helvetica,sans-Serif" font-size="10.00">guMtxF2L</text>
</a>
</g>
</g>
<!-- Node8&#45;&gt;Node11 -->
<g id="edge10_Node000008_Node000011" class="edge">
<title>Node8&#45;&gt;Node11</title>
<g id="a_edge10_Node000008_Node000011"><a xlink:title=" ">
<path fill="none" stroke="#63b8ff" d="M730.32,-149.98C743.22,-145.24 759.33,-139.66 774,-135.5 788.6,-131.36 804.8,-127.61 819.22,-124.54"/>
<polygon fill="#63b8ff" stroke="#63b8ff" points="820.28,-127.9 829.36,-122.44 818.86,-121.05 820.28,-127.9"/>
</a>
</g>
</g>
<!-- Node10 -->
<g id="Node000010" class="node">
<title>Node10</title>
<g id="a_Node000010"><a xlink:href="FrameInterpolation_8cpp.html#a02c7ac5342a4d376edee38f312b480bf" target="_top" xlink:title=" ">
<polygon fill="white" stroke="#666666" points="1094,-113 986,-113 986,-94 1094,-94 1094,-113"/>
<text text-anchor="middle" x="1040" y="-101" font-family="Helvetica,sans-Serif" font-size="10.00">check_if_recording</text>
</a>
</g>
</g>
<!-- Node9&#45;&gt;Node10 -->
<g id="edge9_Node000009_Node000010" class="edge">
<title>Node9&#45;&gt;Node10</title>
<g id="a_edge9_Node000009_Node000010"><a xlink:title=" ">
<path fill="none" stroke="#63b8ff" d="M919.81,-144.5C929.91,-141.64 940.29,-138.58 950,-135.5 968.02,-129.79 987.82,-122.74 1004.17,-116.72"/>
<polygon fill="#63b8ff" stroke="#63b8ff" points="1005.7,-119.88 1013.85,-113.12 1003.26,-113.32 1005.7,-119.88"/>
</a>
</g>
</g>
<!-- Node14 -->
<g id="Node000014" class="node">
<title>Node14</title>
<g id="a_Node000014"><a xlink:href="math__util_8c.html#ae69cbf5c8d4b3b0dba2d7b4d4673689f" target="_top" xlink:title=" ">
<polygon fill="white" stroke="#666666" points="723.5,-95 685.5,-95 685.5,-76 723.5,-76 723.5,-95"/>
<text text-anchor="middle" x="704.5" y="-83" font-family="Helvetica,sans-Serif" font-size="10.00">coss</text>
</a>
</g>
</g>
<!-- Node13&#45;&gt;Node14 -->
<g id="edge13_Node000013_Node000014" class="edge">
<title>Node13&#45;&gt;Node14</title>
<g id="a_edge13_Node000013_Node000014"><a xlink:title=" ">
<path fill="none" stroke="#63b8ff" d="M635.3,-78.92C649.67,-80.31 663.6,-81.65 675.09,-82.76"/>
<polygon fill="#63b8ff" stroke="#63b8ff" points="675,-86.27 685.29,-83.74 675.67,-79.3 675,-86.27"/>
</a>
</g>
</g>
<!-- Node15 -->
<g id="Node000015" class="node">
<title>Node15</title>
<g id="a_Node000015"><a xlink:href="FrameInterpolation_8cpp.html#af749df1a96bee5c78287b1845455ae2d" target="_top" xlink:title=" ">
<polygon fill="white" stroke="#666666" points="950,-75.5 774,-75.5 774,-45.5 950,-45.5 950,-75.5"/>
<text text-anchor="start" x="782" y="-63.5" font-family="Helvetica,sans-Serif" font-size="10.00">FrameInterpolation</text>
<text text-anchor="middle" x="862" y="-52.5" font-family="Helvetica,sans-Serif" font-size="10.00">_RecordSetMatrixTransformation</text>
</a>
</g>
</g>
<!-- Node13&#45;&gt;Node15 -->
<g id="edge14_Node000013_Node000015" class="edge">
<title>Node13&#45;&gt;Node15</title>
<g id="a_edge14_Node000013_Node000015"><a xlink:title=" ">
<path fill="none" stroke="#63b8ff" d="M635.19,-67.71C675.13,-66.44 722.61,-64.92 763.71,-63.61"/>
<polygon fill="#63b8ff" stroke="#63b8ff" points="763.85,-67.11 773.74,-63.29 763.63,-60.11 763.85,-67.11"/>
</a>
</g>
</g>
<!-- Node16 -->
<g id="Node000016" class="node">
<title>Node16</title>
<g id="a_Node000016"><a xlink:href="math__util_8c.html#a19ed3bd78fd2d3e2bd0a29f6caf48545" target="_top" xlink:title=" ">
<polygon fill="white" stroke="#666666" points="722.5,-19 686.5,-19 686.5,0 722.5,0 722.5,-19"/>
<text text-anchor="middle" x="704.5" y="-7" font-family="Helvetica,sans-Serif" font-size="10.00">sins</text>
</a>
</g>
</g>
<!-- Node13&#45;&gt;Node16 -->
<g id="edge16_Node000013_Node000016" class="edge">
<title>Node13&#45;&gt;Node16</title>
<g id="a_edge16_Node000013_Node000016"><a xlink:title=" ">
<path fill="none" stroke="#63b8ff" d="M572.3,-60.97C600.57,-49.88 647.12,-31.62 676.5,-20.09"/>
<polygon fill="#63b8ff" stroke="#63b8ff" points="678.08,-23.23 686.11,-16.32 675.53,-16.71 678.08,-23.23"/>
</a>
</g>
</g>
<!-- Node15&#45;&gt;Node10 -->
<g id="edge15_Node000015_Node000010" class="edge">
<title>Node15&#45;&gt;Node10</title>
<g id="a_edge15_Node000015_Node000010"><a xlink:title=" ">
<path fill="none" stroke="#63b8ff" d="M924.56,-75.54C946.01,-80.78 969.78,-86.59 990.07,-91.54"/>
<polygon fill="#63b8ff" stroke="#63b8ff" points="989.48,-95 1000.03,-93.98 991.14,-88.2 989.48,-95"/>
</a>
</g>
</g>
</g>
</svg>

<g id="navigator" transform="translate(0 0)" fill="#404254">
  <rect fill="#f2f5e9" fill-opacity="0.5" stroke="#606060" stroke-width=".5" x="0" y="0" width="60" height="60"/>
  <use id="zoomplus" xlink:href="#zoomPlus" x="17" y="9" onmousedown="handleZoom(evt,'in')"/>
  <use id="zoomminus" xlink:href="#zoomMin" x="42" y="9" onmousedown="handleZoom(evt,'out')"/>
  <use id="reset" xlink:href="#resetDef" x="30" y="36" onmousedown="handleReset()"/>
   <use id="arrowup" xlink:href="#arrowUp" x="0" y="0" onmousedown="handlePan(0,-1)"/>
  <use id="arrowright" xlink:href="#arrowRight" x="0" y="0" onmousedown="handlePan(1,0)"/>
  <use id="arrowdown" xlink:href="#arrowDown" x="0" y="0" onmousedown="handlePan(0,1)"/>
  <use id="arrowleft" xlink:href="#arrowLeft" x="0" y="0" onmousedown="handlePan(-1,0)"/>
</g>
<svg viewBox="0 0 15 15" width="100%" height="30px" preserveAspectRatio="xMaxYMin meet">
 <g id="arrow_out" transform="scale(0.3 0.3)">
  <a xlink:href="render__objects_8h_a91d8b85956b9d580e6c0c7857c6d14e2_cgraph_org.svg" target="_base">
   <rect id="button" ry="5" rx="5" y="6" x="6" height="38" width="38"
        fill="#f2f5e9" fill-opacity="0.5" stroke="#606060" stroke-width="1.0"/>
   <path id="arrow"
     d="M 11.500037,31.436501 C 11.940474,20.09759 22.043105,11.32322 32.158766,21.979434 L 37.068811,17.246167 C 37.068811,17.246167 37.088388,32 37.088388,32 L 22.160133,31.978069 C 22.160133,31.978069 26.997745,27.140456 26.997745,27.140456 C 18.528582,18.264221 13.291696,25.230495 11.500037,31.436501 z"
     style="fill:#404040;"/>
  </a>
 </g>
</svg>

<style type='text/css'>
<![CDATA[
[data-mouse-over-selected='false'] { opacity: 0.7; }
[data-mouse-over-selected='true']  { opacity: 1.0; }
]]>
</style>
<script type="application/ecmascript"><![CDATA[
document.addEventListener('DOMContentLoaded', (event) => {
  highlightEdges();
  highlightAdjacentNodes();
});
]]></script>
</svg>
