<?xml version="1.0" encoding="UTF-8" standalone="no"?>
<!DOCTYPE svg PUBLIC "-//W3C//DTD SVG 1.1//EN"
 "http://www.w3.org/Graphics/SVG/1.1/DTD/svg11.dtd">
<!-- Generated by graphviz version 2.43.0 (0)
 -->
<!-- Title: func_8004747C Pages: 1 -->
<svg width="509pt" height="27pt"
 viewBox="0.00 0.00 509.00 27.00" xmlns="http://www.w3.org/2000/svg" xmlns:xlink="http://www.w3.org/1999/xlink">
<g id="graph0" class="graph" transform="scale(1 1) rotate(0) translate(4 23)">
<title>func_8004747C</title>
<!-- Node1 -->
<g id="Node000001" class="node">
<title>Node1</title>
<g id="a_Node000001"><a xlink:title=" ">
<polygon fill="#999999" stroke="#666666" points="501,-19 409,-19 409,0 501,0 501,-19"/>
<text text-anchor="middle" x="455" y="-7" font-family="Helvetica,sans-Serif" font-size="10.00">func_8004747C</text>
</a>
</g>
</g>
<!-- Node2 -->
<g id="Node000002" class="node">
<title>Node2</title>
<g id="a_Node000002"><a xlink:href="render__objects_8c.html#a71d84a5f00c1688794f33fd5818fd01a" target="_top" xlink:title=" ">
<polygon fill="white" stroke="#666666" points="373,-19 282,-19 282,0 373,0 373,-19"/>
<text text-anchor="middle" x="327.5" y="-7" font-family="Helvetica,sans-Serif" font-size="10.00">func_80048130</text>
</a>
</g>
</g>
<!-- Node1&#45;&gt;Node2 -->
<g id="edge1_Node000001_Node000002" class="edge">
<title>Node1&#45;&gt;Node2</title>
<g id="a_edge1_Node000001_Node000002"><a xlink:title=" ">
<path fill="none" stroke="#63b8ff" d="M398.53,-9.5C390.1,-9.5 381.49,-9.5 373.32,-9.5"/>
<polygon fill="#63b8ff" stroke="#63b8ff" points="398.69,-13 408.69,-9.5 398.69,-6 398.69,-13"/>
</a>
</g>
</g>
<!-- Node3 -->
<g id="Node000003" class="node">
<title>Node3</title>
<g id="a_Node000003"><a xlink:href="classOMole.html#abde7681bfbee83db4e8105925052979f" target="_top" xlink:title=" ">
<polygon fill="white" stroke="#666666" points="246,-19 116,-19 116,0 246,0 246,-19"/>
<text text-anchor="middle" x="181" y="-7" font-family="Helvetica,sans-Serif" font-size="10.00">OMole::func_80054D00</text>
</a>
</g>
</g>
<!-- Node2&#45;&gt;Node3 -->
<g id="edge2_Node000002_Node000003" class="edge">
<title>Node2&#45;&gt;Node3</title>
<g id="a_edge2_Node000002_Node000003"><a xlink:title=" ">
<path fill="none" stroke="#63b8ff" d="M271.88,-9.5C263.44,-9.5 254.66,-9.5 246.04,-9.5"/>
<polygon fill="#63b8ff" stroke="#63b8ff" points="271.97,-13 281.97,-9.5 271.97,-6 271.97,-13"/>
</a>
</g>
</g>
<!-- Node4 -->
<g id="Node000004" class="node">
<title>Node4</title>
<g id="a_Node000004"><a xlink:href="classOMole.html#abe4c454a9553584219f4505b2e338f27" target="_top" xlink:title=" ">
<polygon fill="white" stroke="#666666" points="80,-19 0,-19 0,0 80,0 80,-19"/>
<text text-anchor="middle" x="40" y="-7" font-family="Helvetica,sans-Serif" font-size="10.00">OMole::Draw</text>
</a>
</g>
</g>
<!-- Node3&#45;&gt;Node4 -->
<g id="edge3_Node000003_Node000004" class="edge">
<title>Node3&#45;&gt;Node4</title>
<g id="a_edge3_Node000003_Node000004"><a xlink:title=" ">
<path fill="none" stroke="#63b8ff" d="M105.57,-9.5C96.87,-9.5 88.28,-9.5 80.34,-9.5"/>
<polygon fill="#63b8ff" stroke="#63b8ff" points="105.79,-13 115.79,-9.5 105.79,-6 105.79,-13"/>
</a>
</g>
</g>
</g>
</svg>
