<?xml version="1.0" encoding="UTF-8" standalone="no"?>
<!DOCTYPE svg PUBLIC "-//W3C//DTD SVG 1.1//EN"
 "http://www.w3.org/Graphics/SVG/1.1/DTD/svg11.dtd">
<!-- Generated by graphviz version 2.43.0 (0)
 -->
<!-- Title: func_80049478 Pages: 1 -->
<svg width="519pt" height="113pt"
 viewBox="0.00 0.00 519.00 112.50" xmlns="http://www.w3.org/2000/svg" xmlns:xlink="http://www.w3.org/1999/xlink">
<g id="graph0" class="graph" transform="scale(1 1) rotate(0) translate(4 108.5)">
<title>func_80049478</title>
<!-- Node1 -->
<g id="Node000001" class="node">
<title>Node1</title>
<g id="a_Node000001"><a xlink:title=" ">
<polygon fill="#999999" stroke="#666666" points="91,-67.5 0,-67.5 0,-48.5 91,-48.5 91,-67.5"/>
<text text-anchor="middle" x="45.5" y="-55.5" font-family="Helvetica,sans-Serif" font-size="10.00">func_80049478</text>
</a>
</g>
</g>
<!-- Node2 -->
<g id="Node000002" class="node">
<title>Node2</title>
<g id="a_Node000002"><a xlink:href="GBIMiddleware_8cpp.html#a4ecc44e3c6f1ca5a6b4a20c41d3bd2d2" target="_top" xlink:title=" ">
<polygon fill="white" stroke="#666666" points="231,-104.5 142,-104.5 142,-85.5 231,-85.5 231,-104.5"/>
<text text-anchor="middle" x="186.5" y="-92.5" font-family="Helvetica,sans-Serif" font-size="10.00">gSPDisplayList</text>
</a>
</g>
</g>
<!-- Node1&#45;&gt;Node2 -->
<g id="edge1_Node000001_Node000002" class="edge">
<title>Node1&#45;&gt;Node2</title>
<g id="a_edge1_Node000001_Node000002"><a xlink:title=" ">
<path fill="none" stroke="#63b8ff" d="M82.3,-67.53C99.75,-72.17 120.95,-77.82 139.58,-82.78"/>
<polygon fill="#63b8ff" stroke="#63b8ff" points="138.78,-86.19 149.34,-85.38 140.58,-79.42 138.78,-86.19"/>
</a>
</g>
</g>
<!-- Node5 -->
<g id="Node000005" class="node">
<title>Node5</title>
<g id="a_Node000005"><a xlink:href="GBIMiddleware_8cpp.html#aeef79449a27a710d73576e4a4f7f7f99" target="_top" xlink:title=" ">
<polygon fill="white" stroke="#666666" points="219.5,-67.5 153.5,-67.5 153.5,-48.5 219.5,-48.5 219.5,-67.5"/>
<text text-anchor="middle" x="186.5" y="-55.5" font-family="Helvetica,sans-Serif" font-size="10.00">gSPVertex</text>
</a>
</g>
</g>
<!-- Node1&#45;&gt;Node5 -->
<g id="edge4_Node000001_Node000005" class="edge">
<title>Node1&#45;&gt;Node5</title>
<g id="a_edge4_Node000001_Node000005"><a xlink:title=" ">
<path fill="none" stroke="#63b8ff" d="M91.25,-58C107.78,-58 126.47,-58 142.82,-58"/>
<polygon fill="#63b8ff" stroke="#63b8ff" points="143.18,-61.5 153.18,-58 143.18,-54.5 143.18,-61.5"/>
</a>
</g>
</g>
<!-- Node6 -->
<g id="Node000006" class="node">
<title>Node6</title>
<g id="a_Node000006"><a xlink:href="render__objects_8c.html#a78dd05afed44683a807004a2d46740c8" target="_top" xlink:title=" ">
<polygon fill="white" stroke="#666666" points="246,-30 127,-30 127,0 246,0 246,-30"/>
<text text-anchor="start" x="135" y="-18" font-family="Helvetica,sans-Serif" font-size="10.00">load_texture_tile_ia8</text>
<text text-anchor="middle" x="186.5" y="-7" font-family="Helvetica,sans-Serif" font-size="10.00">_nomirror</text>
</a>
</g>
</g>
<!-- Node1&#45;&gt;Node6 -->
<g id="edge6_Node000001_Node000006" class="edge">
<title>Node1&#45;&gt;Node6</title>
<g id="a_edge6_Node000001_Node000006"><a xlink:title=" ">
<path fill="none" stroke="#63b8ff" d="M77.35,-48.46C91.99,-43.93 109.99,-38.36 127.07,-33.07"/>
<polygon fill="#63b8ff" stroke="#63b8ff" points="128.47,-36.31 136.99,-30.01 126.4,-29.62 128.47,-36.31"/>
</a>
</g>
</g>
<!-- Node3 -->
<g id="Node000003" class="node">
<title>Node3</title>
<g id="a_Node000003"><a xlink:href="Engine_8cpp.html#a223c8bc63f228dc11177515e38eff2db" target="_top" xlink:title=" ">
<polygon fill="white" stroke="#666666" points="431,-85.5 282,-85.5 282,-66.5 431,-66.5 431,-85.5"/>
<text text-anchor="middle" x="356.5" y="-73.5" font-family="Helvetica,sans-Serif" font-size="10.00">GameEngine_OTRSigCheck</text>
</a>
</g>
</g>
<!-- Node2&#45;&gt;Node3 -->
<g id="edge2_Node000002_Node000003" class="edge">
<title>Node2&#45;&gt;Node3</title>
<g id="a_edge2_Node000002_Node000003"><a xlink:title=" ">
<path fill="none" stroke="#63b8ff" d="M231.2,-90.06C243.64,-88.65 257.62,-87.07 271.61,-85.49"/>
<polygon fill="#63b8ff" stroke="#63b8ff" points="272.22,-88.94 281.76,-84.34 271.43,-81.99 272.22,-88.94"/>
</a>
</g>
</g>
<!-- Node4 -->
<g id="Node000004" class="node">
<title>Node4</title>
<g id="a_Node000004"><a xlink:href="string_8c.html#a008e171a518fe0e0352f31b245e03875" target="_top" xlink:title=" ">
<polygon fill="white" stroke="#666666" points="511,-85.5 467,-85.5 467,-66.5 511,-66.5 511,-85.5"/>
<text text-anchor="middle" x="489" y="-73.5" font-family="Helvetica,sans-Serif" font-size="10.00">strlen</text>
</a>
</g>
</g>
<!-- Node3&#45;&gt;Node4 -->
<g id="edge3_Node000003_Node000004" class="edge">
<title>Node3&#45;&gt;Node4</title>
<g id="a_edge3_Node000003_Node000004"><a xlink:title=" ">
<path fill="none" stroke="#63b8ff" d="M431.14,-76C440.12,-76 448.89,-76 456.75,-76"/>
<polygon fill="#63b8ff" stroke="#63b8ff" points="456.83,-79.5 466.83,-76 456.83,-72.5 456.83,-79.5"/>
</a>
</g>
</g>
<!-- Node5&#45;&gt;Node3 -->
<g id="edge5_Node000005_Node000003" class="edge">
<title>Node5&#45;&gt;Node3</title>
<g id="a_edge5_Node000005_Node000003"><a xlink:title=" ">
<path fill="none" stroke="#63b8ff" d="M219.89,-61.47C234.84,-63.07 253.36,-65.06 271.85,-67.04"/>
<polygon fill="#63b8ff" stroke="#63b8ff" points="271.48,-70.52 281.8,-68.1 272.23,-63.56 271.48,-70.52"/>
</a>
</g>
</g>
</g>
</svg>
