<?xml version="1.0" encoding="UTF-8" standalone="no"?>
<!DOCTYPE svg PUBLIC "-//W3C//DTD SVG 1.1//EN"
 "http://www.w3.org/Graphics/SVG/1.1/DTD/svg11.dtd">
<!-- Generated by graphviz version 2.43.0 (0)
 -->
<!-- Title: func_80046030 Pages: 1 -->
<svg width="617pt" height="103pt"
 viewBox="0.00 0.00 617.00 103.00" xmlns="http://www.w3.org/2000/svg" xmlns:xlink="http://www.w3.org/1999/xlink">
<g id="graph0" class="graph" transform="scale(1 1) rotate(0) translate(4 99)">
<title>func_80046030</title>
<!-- Node1 -->
<g id="Node000001" class="node">
<title>Node1</title>
<g id="a_Node000001"><a xlink:title=" ">
<polygon fill="#999999" stroke="#666666" points="91,-57 0,-57 0,-38 91,-38 91,-57"/>
<text text-anchor="middle" x="45.5" y="-45" font-family="Helvetica,sans-Serif" font-size="10.00">func_80046030</text>
</a>
</g>
</g>
<!-- Node2 -->
<g id="Node000002" class="node">
<title>Node2</title>
<g id="a_Node000002"><a xlink:href="render__objects_8c.html#a8e7a6bea4772082ac35d4148288775ce" target="_top" xlink:title=" ">
<polygon fill="white" stroke="#666666" points="218.5,-95 127.5,-95 127.5,-76 218.5,-76 218.5,-95"/>
<text text-anchor="middle" x="173" y="-83" font-family="Helvetica,sans-Serif" font-size="10.00">func_80045738</text>
</a>
</g>
</g>
<!-- Node1&#45;&gt;Node2 -->
<g id="edge1_Node000001_Node000002" class="edge">
<title>Node1&#45;&gt;Node2</title>
<g id="a_edge1_Node000001_Node000002"><a xlink:title=" ">
<path fill="none" stroke="#63b8ff" d="M78.17,-57.09C94.07,-61.9 113.54,-67.8 130.61,-72.97"/>
<polygon fill="#63b8ff" stroke="#63b8ff" points="129.76,-76.37 140.34,-75.91 131.78,-69.67 129.76,-76.37"/>
</a>
</g>
</g>
<!-- Node3 -->
<g id="Node000003" class="node">
<title>Node3</title>
<g id="a_Node000003"><a xlink:href="render__objects_8c.html#a5f7b6f198a3065bb9ecb40934bab4ad8" target="_top" xlink:title=" ">
<polygon fill="white" stroke="#666666" points="219,-19 127,-19 127,0 219,0 219,-19"/>
<text text-anchor="middle" x="173" y="-7" font-family="Helvetica,sans-Serif" font-size="10.00">func_80045B2C</text>
</a>
</g>
</g>
<!-- Node1&#45;&gt;Node3 -->
<g id="edge2_Node000001_Node000003" class="edge">
<title>Node1&#45;&gt;Node3</title>
<g id="a_edge2_Node000001_Node000003"><a xlink:title=" ">
<path fill="none" stroke="#63b8ff" d="M78.17,-37.91C94.07,-33.1 113.54,-27.2 130.61,-22.03"/>
<polygon fill="#63b8ff" stroke="#63b8ff" points="131.78,-25.33 140.34,-19.09 129.76,-18.63 131.78,-25.33"/>
</a>
</g>
</g>
<!-- Node4 -->
<g id="Node000004" class="node">
<title>Node4</title>
<g id="a_Node000004"><a xlink:href="GBIMiddleware_8cpp.html#a4ecc44e3c6f1ca5a6b4a20c41d3bd2d2" target="_top" xlink:title=" ">
<polygon fill="white" stroke="#666666" points="344,-56 255,-56 255,-37 344,-37 344,-56"/>
<text text-anchor="middle" x="299.5" y="-44" font-family="Helvetica,sans-Serif" font-size="10.00">gSPDisplayList</text>
</a>
</g>
</g>
<!-- Node1&#45;&gt;Node4 -->
<g id="edge8_Node000001_Node000004" class="edge">
<title>Node1&#45;&gt;Node4</title>
<g id="a_edge8_Node000001_Node000004"><a xlink:title=" ">
<path fill="none" stroke="#63b8ff" d="M91.26,-47.32C134.26,-47.15 199.26,-46.89 244.97,-46.71"/>
<polygon fill="#63b8ff" stroke="#63b8ff" points="245.01,-50.21 255,-46.67 244.98,-43.21 245.01,-50.21"/>
</a>
</g>
</g>
<!-- Node3&#45;&gt;Node4 -->
<g id="edge3_Node000003_Node000004" class="edge">
<title>Node3&#45;&gt;Node4</title>
<g id="a_edge3_Node000003_Node000004"><a xlink:title=" ">
<path fill="none" stroke="#63b8ff" d="M206.06,-19.03C221.34,-23.57 239.81,-29.06 256.21,-33.93"/>
<polygon fill="#63b8ff" stroke="#63b8ff" points="255.53,-37.38 266.11,-36.88 257.53,-30.67 255.53,-37.38"/>
</a>
</g>
</g>
<!-- Node7 -->
<g id="Node000007" class="node">
<title>Node7</title>
<g id="a_Node000007"><a xlink:href="GBIMiddleware_8cpp.html#aeef79449a27a710d73576e4a4f7f7f99" target="_top" xlink:title=" ">
<polygon fill="white" stroke="#666666" points="332.5,-19 266.5,-19 266.5,0 332.5,0 332.5,-19"/>
<text text-anchor="middle" x="299.5" y="-7" font-family="Helvetica,sans-Serif" font-size="10.00">gSPVertex</text>
</a>
</g>
</g>
<!-- Node3&#45;&gt;Node7 -->
<g id="edge6_Node000003_Node000007" class="edge">
<title>Node3&#45;&gt;Node7</title>
<g id="a_edge6_Node000003_Node000007"><a xlink:title=" ">
<path fill="none" stroke="#63b8ff" d="M219.3,-9.5C231.35,-9.5 244.31,-9.5 256.19,-9.5"/>
<polygon fill="#63b8ff" stroke="#63b8ff" points="256.3,-13 266.3,-9.5 256.3,-6 256.3,-13"/>
</a>
</g>
</g>
<!-- Node5 -->
<g id="Node000005" class="node">
<title>Node5</title>
<g id="a_Node000005"><a xlink:href="Engine_8cpp.html#a223c8bc63f228dc11177515e38eff2db" target="_top" xlink:title=" ">
<polygon fill="white" stroke="#666666" points="529,-37 380,-37 380,-18 529,-18 529,-37"/>
<text text-anchor="middle" x="454.5" y="-25" font-family="Helvetica,sans-Serif" font-size="10.00">GameEngine_OTRSigCheck</text>
</a>
</g>
</g>
<!-- Node4&#45;&gt;Node5 -->
<g id="edge4_Node000004_Node000005" class="edge">
<title>Node4&#45;&gt;Node5</title>
<g id="a_edge4_Node000004_Node000005"><a xlink:title=" ">
<path fill="none" stroke="#63b8ff" d="M344.34,-41.06C352.43,-40.05 361.11,-38.97 369.92,-37.88"/>
<polygon fill="#63b8ff" stroke="#63b8ff" points="370.4,-41.35 379.89,-36.64 369.54,-34.4 370.4,-41.35"/>
</a>
</g>
</g>
<!-- Node6 -->
<g id="Node000006" class="node">
<title>Node6</title>
<g id="a_Node000006"><a xlink:href="string_8c.html#a008e171a518fe0e0352f31b245e03875" target="_top" xlink:title=" ">
<polygon fill="white" stroke="#666666" points="609,-37 565,-37 565,-18 609,-18 609,-37"/>
<text text-anchor="middle" x="587" y="-25" font-family="Helvetica,sans-Serif" font-size="10.00">strlen</text>
</a>
</g>
</g>
<!-- Node5&#45;&gt;Node6 -->
<g id="edge5_Node000005_Node000006" class="edge">
<title>Node5&#45;&gt;Node6</title>
<g id="a_edge5_Node000005_Node000006"><a xlink:title=" ">
<path fill="none" stroke="#63b8ff" d="M529.14,-27.5C538.12,-27.5 546.89,-27.5 554.75,-27.5"/>
<polygon fill="#63b8ff" stroke="#63b8ff" points="554.83,-31 564.83,-27.5 554.83,-24 554.83,-31"/>
</a>
</g>
</g>
<!-- Node7&#45;&gt;Node5 -->
<g id="edge7_Node000007_Node000005" class="edge">
<title>Node7&#45;&gt;Node5</title>
<g id="a_edge7_Node000007_Node000005"><a xlink:title=" ">
<path fill="none" stroke="#63b8ff" d="M332.57,-13.27C343.61,-14.57 356.53,-16.09 369.74,-17.65"/>
<polygon fill="#63b8ff" stroke="#63b8ff" points="369.53,-21.15 379.87,-18.84 370.35,-14.19 369.53,-21.15"/>
</a>
</g>
</g>
</g>
</svg>
