<?xml version="1.0" encoding="UTF-8" standalone="no"?>
<!DOCTYPE svg PUBLIC "-//W3C//DTD SVG 1.1//EN"
 "http://www.w3.org/Graphics/SVG/1.1/DTD/svg11.dtd">
<!-- Generated by graphviz version 2.43.0 (0)
 -->
<!-- Title: func_80295C6C Pages: 1 -->
<svg width="601pt" height="76pt"
 viewBox="0.00 0.00 601.00 75.50" xmlns="http://www.w3.org/2000/svg" xmlns:xlink="http://www.w3.org/1999/xlink">
<g id="graph0" class="graph" transform="scale(1 1) rotate(0) translate(4 71.5)">
<title>func_80295C6C</title>
<!-- Node1 -->
<g id="Node000001" class="node">
<title>Node1</title>
<g id="a_Node000001"><a xlink:title=" ">
<polygon fill="#999999" stroke="#666666" points="92,-40 0,-40 0,-21 92,-21 92,-40"/>
<text text-anchor="middle" x="46" y="-28" font-family="Helvetica,sans-Serif" font-size="10.00">func_80295C6C</text>
</a>
</g>
</g>
<!-- Node2 -->
<g id="Node000002" class="node">
<title>Node2</title>
<g id="a_Node000002"><a xlink:href="collision_8c.html#aa1116ededb9ebc0ee976259f02fe2a4e" target="_top" xlink:title=" ">
<polygon fill="white" stroke="#666666" points="258,-40 128,-40 128,-21 258,-21 258,-40"/>
<text text-anchor="middle" x="193" y="-28" font-family="Helvetica,sans-Serif" font-size="10.00">generate_collision_grid</text>
</a>
</g>
</g>
<!-- Node1&#45;&gt;Node2 -->
<g id="edge1_Node000001_Node000002" class="edge">
<title>Node1&#45;&gt;Node2</title>
<g id="a_edge1_Node000001_Node000002"><a xlink:title=" ">
<path fill="none" stroke="#63b8ff" d="M92.08,-30.5C100.21,-30.5 108.88,-30.5 117.58,-30.5"/>
<polygon fill="#63b8ff" stroke="#63b8ff" points="117.78,-34 127.78,-30.5 117.78,-27 117.78,-34"/>
</a>
</g>
</g>
<!-- Node3 -->
<g id="Node000003" class="node">
<title>Node3</title>
<g id="a_Node000003"><a xlink:href="collision_8c.html#a4e4ec74302aec60828a8d271390f7631" target="_top" xlink:title=" ">
<polygon fill="white" stroke="#666666" points="425,-45.5 294,-45.5 294,-15.5 425,-15.5 425,-45.5"/>
<text text-anchor="start" x="302" y="-33.5" font-family="Helvetica,sans-Serif" font-size="10.00">is_triangle_intersecting</text>
<text text-anchor="middle" x="359.5" y="-22.5" font-family="Helvetica,sans-Serif" font-size="10.00">_bounding_box</text>
</a>
</g>
</g>
<!-- Node2&#45;&gt;Node3 -->
<g id="edge2_Node000002_Node000003" class="edge">
<title>Node2&#45;&gt;Node3</title>
<g id="a_edge2_Node000002_Node000003"><a xlink:title=" ">
<path fill="none" stroke="#63b8ff" d="M258.07,-30.5C266.5,-30.5 275.2,-30.5 283.78,-30.5"/>
<polygon fill="#63b8ff" stroke="#63b8ff" points="283.79,-34 293.79,-30.5 283.79,-27 283.79,-34"/>
</a>
</g>
</g>
<!-- Node4 -->
<g id="Node000004" class="node">
<title>Node4</title>
<g id="a_Node000004"><a xlink:href="collision_8c.html#a7ef4f800cb44ad39ca233d0c76ce039a" target="_top" xlink:title=" ">
<polygon fill="white" stroke="#666666" points="582.5,-67.5 471.5,-67.5 471.5,-37.5 582.5,-37.5 582.5,-67.5"/>
<text text-anchor="start" x="479.5" y="-55.5" font-family="Helvetica,sans-Serif" font-size="10.00">is_line_intersecting</text>
<text text-anchor="middle" x="527" y="-44.5" font-family="Helvetica,sans-Serif" font-size="10.00">_rectangle</text>
</a>
</g>
</g>
<!-- Node3&#45;&gt;Node4 -->
<g id="edge3_Node000003_Node000004" class="edge">
<title>Node3&#45;&gt;Node4</title>
<g id="a_edge3_Node000003_Node000004"><a xlink:title=" ">
<path fill="none" stroke="#63b8ff" d="M425.43,-39.13C437.2,-40.7 449.47,-42.33 461.24,-43.89"/>
<polygon fill="#63b8ff" stroke="#63b8ff" points="461.04,-47.4 471.41,-45.24 461.96,-40.46 461.04,-47.4"/>
</a>
</g>
</g>
<!-- Node5 -->
<g id="Node000005" class="node">
<title>Node5</title>
<g id="a_Node000005"><a xlink:href="collision_8c.html#a7edd3f38403de0388af87355d4daf611" target="_top" xlink:title=" ">
<polygon fill="white" stroke="#666666" points="593,-19 461,-19 461,0 593,0 593,-19"/>
<text text-anchor="middle" x="527" y="-7" font-family="Helvetica,sans-Serif" font-size="10.00">is_point_inside_triangle</text>
</a>
</g>
</g>
<!-- Node3&#45;&gt;Node5 -->
<g id="edge4_Node000003_Node000005" class="edge">
<title>Node3&#45;&gt;Node5</title>
<g id="a_edge4_Node000003_Node000005"><a xlink:title=" ">
<path fill="none" stroke="#63b8ff" d="M425.43,-22.26C433.83,-21.2 442.48,-20.1 451.03,-19.01"/>
<polygon fill="#63b8ff" stroke="#63b8ff" points="451.5,-22.48 460.98,-17.75 450.62,-15.54 451.5,-22.48"/>
</a>
</g>
</g>
</g>
</svg>
