<?xml version="1.0" encoding="UTF-8" standalone="no"?>
<!DOCTYPE svg PUBLIC "-//W3C//DTD SVG 1.1//EN"
 "http://www.w3.org/Graphics/SVG/1.1/DTD/svg11.dtd">
<!-- Generated by graphviz version 2.43.0 (0)
 -->
<!-- Title: func_800563DC Pages: 1 -->
<svg width="428pt" height="113pt"
 viewBox="0.00 0.00 428.00 113.00" xmlns="http://www.w3.org/2000/svg" xmlns:xlink="http://www.w3.org/1999/xlink">

<svg id="main" version="1.1" xmlns="http://www.w3.org/2000/svg" xmlns:xlink="http://www.w3.org/1999/xlink" xml:space="preserve">

<style type="text/css"><![CDATA[
.node, .edge {opacity: 0.7;}
.node.selected, .edge.selected {opacity: 1;}
.edge:hover path { stroke: red; }
.edge:hover polygon { stroke: red; fill: red; }
]]></style>
<script type="application/ecmascript" xlink:href="svg.min.js"/>
<svg id="graph" class="graph">
<g id="graph0" class="graph" transform="scale(1 1) rotate(0) translate(4 109)">
<title>func_800563DC</title>
<!-- Node1 -->
<g id="Node000001" class="node">
<title>Node1</title>
<g id="a_Node000001"><a xlink:title=" ">
<polygon fill="#999999" stroke="#666666" points="420,-62 327,-62 327,-43 420,-43 420,-62"/>
<text text-anchor="middle" x="373.5" y="-50" font-family="Helvetica,sans-Serif" font-size="10.00">func_800563DC</text>
</a>
</g>
</g>
<!-- Node2 -->
<g id="Node000002" class="node">
<title>Node2</title>
<g id="a_Node000002"><a xlink:href="classOBombKart.html#a6c383194d9982ac23e0ef275bf5d0046" target="_top" xlink:title=" ">
<polygon fill="white" stroke="#666666" points="285.5,-105 181.5,-105 181.5,-86 285.5,-86 285.5,-105"/>
<text text-anchor="middle" x="233.5" y="-93" font-family="Helvetica,sans-Serif" font-size="10.00">OBombKart::Draw</text>
</a>
</g>
</g>
<!-- Node1&#45;&gt;Node2 -->
<g id="edge1_Node000001_Node000002" class="edge">
<title>Node1&#45;&gt;Node2</title>
<g id="a_edge1_Node000001_Node000002"><a xlink:title=" ">
<path fill="none" stroke="#63b8ff" d="M332.07,-65.1C310.65,-71.77 284.77,-79.84 265.04,-85.98"/>
<polygon fill="#63b8ff" stroke="#63b8ff" points="333.37,-68.36 341.87,-62.04 331.28,-61.68 333.37,-68.36"/>
</a>
</g>
</g>
<!-- Node3 -->
<g id="Node000003" class="node">
<title>Node3</title>
<g id="a_Node000003"><a xlink:href="render__objects_8c.html#a7cb55cc36358ed86661953fa2dd70c5e" target="_top" xlink:title=" ">
<polygon fill="white" stroke="#666666" points="291,-67.5 176,-67.5 176,-37.5 291,-37.5 291,-67.5"/>
<text text-anchor="start" x="184" y="-55.5" font-family="Helvetica,sans-Serif" font-size="10.00">render_battle_bomb</text>
<text text-anchor="middle" x="233.5" y="-44.5" font-family="Helvetica,sans-Serif" font-size="10.00">_karts</text>
</a>
</g>
</g>
<!-- Node1&#45;&gt;Node3 -->
<g id="edge2_Node000001_Node000003" class="edge">
<title>Node1&#45;&gt;Node3</title>
<g id="a_edge2_Node000001_Node000003"><a xlink:title=" ">
<path fill="none" stroke="#63b8ff" d="M316.78,-52.5C308.32,-52.5 299.58,-52.5 291.1,-52.5"/>
<polygon fill="#63b8ff" stroke="#63b8ff" points="316.93,-56 326.93,-52.5 316.93,-49 316.93,-56"/>
</a>
</g>
</g>
<!-- Node4 -->
<g id="Node000004" class="node">
<title>Node4</title>
<g id="a_Node000004"><a xlink:href="render__objects_8c.html#a63f55555b66cd9833838c290facd483c" target="_top" xlink:title=" ">
<polygon fill="white" stroke="#666666" points="288.5,-19 178.5,-19 178.5,0 288.5,0 288.5,-19"/>
<text text-anchor="middle" x="233.5" y="-7" font-family="Helvetica,sans-Serif" font-size="10.00">render_bomb_karts</text>
</a>
</g>
</g>
<!-- Node1&#45;&gt;Node4 -->
<g id="edge3_Node000001_Node000004" class="edge">
<title>Node1&#45;&gt;Node4</title>
<g id="a_edge3_Node000001_Node000004"><a xlink:title=" ">
<path fill="none" stroke="#63b8ff" d="M332.07,-39.9C310.65,-33.23 284.77,-25.16 265.04,-19.02"/>
<polygon fill="#63b8ff" stroke="#63b8ff" points="331.28,-43.32 341.87,-42.96 333.37,-36.64 331.28,-43.32"/>
</a>
</g>
</g>
<!-- Node5 -->
<g id="Node000005" class="node">
<title>Node5</title>
<g id="a_Node000005"><a xlink:href="code__80005FD0_8c.html#a20d054883ba7ddebb1b79918d9ac5c86" target="_top" xlink:title=" ">
<polygon fill="white" stroke="#666666" points="140,-19 0,-19 0,0 140,0 140,-19"/>
<text text-anchor="middle" x="70" y="-7" font-family="Helvetica,sans-Serif" font-size="10.00">render_bomb_karts_wrap</text>
</a>
</g>
</g>
<!-- Node4&#45;&gt;Node5 -->
<g id="edge4_Node000004_Node000005" class="edge">
<title>Node4&#45;&gt;Node5</title>
<g id="a_edge4_Node000004_Node000005"><a xlink:title=" ">
<path fill="none" stroke="#63b8ff" d="M168.1,-9.5C158.95,-9.5 149.52,-9.5 140.28,-9.5"/>
<polygon fill="#63b8ff" stroke="#63b8ff" points="168.27,-13 178.27,-9.5 168.27,-6 168.27,-13"/>
</a>
</g>
</g>
</g>
</svg>
</svg>

<style type='text/css'>
<![CDATA[
[data-mouse-over-selected='false'] { opacity: 0.7; }
[data-mouse-over-selected='true']  { opacity: 1.0; }
]]>
</style>
<script type="application/ecmascript"><![CDATA[
document.addEventListener('DOMContentLoaded', (event) => {
  highlightEdges();
  highlightAdjacentNodes();
});
]]></script>
</svg>
