<?xml version="1.0" encoding="UTF-8" standalone="no"?>
<!DOCTYPE svg PUBLIC "-//W3C//DTD SVG 1.1//EN"
 "http://www.w3.org/Graphics/SVG/1.1/DTD/svg11.dtd">
<!-- Generated by graphviz version 2.43.0 (0)
 -->
<!-- Title: func_80290C20 Pages: 1 -->
<!--zoomable 545 -->

<svg id="main" version="1.1" xmlns="http://www.w3.org/2000/svg" xmlns:xlink="http://www.w3.org/1999/xlink" xml:space="preserve" onload="init(evt)">

<style type="text/css"><![CDATA[
.node, .edge {opacity: 0.7;}
.node.selected, .edge.selected {opacity: 1;}
.edge:hover path { stroke: red; }
.edge:hover polygon { stroke: red; fill: red; }
]]></style>

<defs>
  <circle id="rim" cx="0" cy="0" r="7"/>
  <circle id="rim2" cx="0" cy="0" r="3.5"/>
  <g id="zoomPlus">
    <use xlink:href="#rim" fill="#404040"><set attributeName="fill" to="#808080" begin="zoomplus.mouseover" end="zoomplus.mouseout"/></use>
    <path d="M-4,0h8M0,-4v8" fill="none" stroke="white" stroke-width="1.5" pointer-events="none"/>
  </g>
  <g id="zoomMin">
    <use xlink:href="#rim" fill="#404040"><set attributeName="fill" to="#808080" begin="zoomminus.mouseover" end="zoomminus.mouseout"/></use>
    <path d="M-4,0h8" fill="none" stroke="white" stroke-width="1.5" pointer-events="none"/>
  </g>
  <g id="arrowUp" transform="translate(30 24)">
    <use xlink:href="#rim"/>
    <path pointer-events="none" fill="none" stroke="white" stroke-width="1.5" d="M0,-3.0v7 M-2.5,-0.5L0,-3.0L2.5,-0.5"/>
  </g>
  <g id="arrowRight" transform="rotate(90) translate(36 -43)">
    <use xlink:href="#rim"/>
    <path pointer-events="none" fill="none" stroke="white" stroke-width="1.5" d="M0,-3.0v7 M-2.5,-0.5L0,-3.0L2.5,-0.5"/>
  </g>
  <g id="arrowDown" transform="rotate(180) translate(-30 -48)">
    <use xlink:href="#rim"/>
    <path pointer-events="none" fill="none" stroke="white" stroke-width="1.5" d="M0,-3.0v7 M-2.5,-0.5L0,-3.0L2.5,-0.5"/>
  </g>
  <g id="arrowLeft" transform="rotate(270) translate(-36 17)">
    <use xlink:href="#rim"/>
    <path pointer-events="none" fill="none" stroke="white" stroke-width="1.5" d="M0,-3.0v7 M-2.5,-0.5L0,-3.0L2.5,-0.5"/>
  </g>
  <g id="resetDef">
    <use xlink:href="#rim2" fill="#404040"><set attributeName="fill" to="#808080" begin="reset.mouseover" end="reset.mouseout"/></use>
  </g>
</defs>
<script type="application/ecmascript">
var viewWidth = 276;
var viewHeight = 545;
var sectionId = 'dynsection-1';
</script>
<script type="application/ecmascript" xlink:href="svg.min.js"/>
<svg id="graph" class="graph">
<g id="viewport">
<title>func_80290C20</title>
<!-- Node1 -->
<g id="Node000001" class="node">
<title>Node1</title>
<g id="a_Node000001"><a xlink:title=" ">
<polygon fill="#999999" stroke="#666666" points="268,-278 176,-278 176,-259 268,-259 268,-278"/>
<text text-anchor="middle" x="222" y="-266" font-family="Helvetica,sans-Serif" font-size="10.00">func_80290C20</text>
</a>
</g>
</g>
<!-- Node2 -->
<g id="Node000002" class="node">
<title>Node2</title>
<g id="a_Node000002"><a xlink:href="classBigDonut.html#a3da687a45a89b0cca62d2acb7a470355" target="_top" xlink:title=" ">
<polygon fill="white" stroke="#666666" points="116.5,-537 23.5,-537 23.5,-518 116.5,-518 116.5,-537"/>
<text text-anchor="middle" x="70" y="-525" font-family="Helvetica,sans-Serif" font-size="10.00">BigDonut::Draw</text>
</a>
</g>
</g>
<!-- Node1&#45;&gt;Node2 -->
<g id="edge1_Node000001_Node000002" class="edge">
<title>Node1&#45;&gt;Node2</title>
<g id="a_edge1_Node000001_Node000002"><a xlink:title=" ">
<path fill="none" stroke="#63b8ff" d="M220.41,-288.1C217.92,-333.91 205.15,-448.7 140,-509.5 133.48,-515.58 125.17,-519.67 116.6,-522.4"/>
<polygon fill="#63b8ff" stroke="#63b8ff" points="223.91,-288.16 220.84,-278.01 216.91,-287.85 223.91,-288.16"/>
</a>
</g>
</g>
<!-- Node3 -->
<g id="Node000003" class="node">
<title>Node3</title>
<g id="a_Node000003"><a xlink:href="classBowsersCastle.html#af31e1aa4941d02ce8638df7c1a8320a0" target="_top" xlink:title=" ">
<polygon fill="white" stroke="#666666" points="130,-500 10,-500 10,-481 130,-481 130,-500"/>
<text text-anchor="middle" x="70" y="-488" font-family="Helvetica,sans-Serif" font-size="10.00">BowsersCastle::Draw</text>
</a>
</g>
</g>
<!-- Node1&#45;&gt;Node3 -->
<g id="edge2_Node000001_Node000003" class="edge">
<title>Node1&#45;&gt;Node3</title>
<g id="a_edge2_Node000001_Node000003"><a xlink:title=" ">
<path fill="none" stroke="#63b8ff" d="M219,-288.38C213.8,-329.23 196.1,-422.89 140,-472.5 136.2,-475.86 131.84,-478.61 127.21,-480.85"/>
<polygon fill="#63b8ff" stroke="#63b8ff" points="222.49,-288.68 220.16,-278.35 215.53,-287.88 222.49,-288.68"/>
</a>
</g>
</g>
<!-- Node4 -->
<g id="Node000004" class="node">
<title>Node4</title>
<g id="a_Node000004"><a xlink:href="classChocoMountain.html#a956e459a63acccd29ac87c0c558778fe" target="_top" xlink:title=" ">
<polygon fill="white" stroke="#666666" points="132,-463 8,-463 8,-444 132,-444 132,-463"/>
<text text-anchor="middle" x="70" y="-451" font-family="Helvetica,sans-Serif" font-size="10.00">ChocoMountain::Draw</text>
</a>
</g>
</g>
<!-- Node1&#45;&gt;Node4 -->
<g id="edge3_Node000001_Node000004" class="edge">
<title>Node1&#45;&gt;Node4</title>
<g id="a_edge3_Node000001_Node000004"><a xlink:title=" ">
<path fill="none" stroke="#63b8ff" d="M217.11,-288.11C209.11,-323.18 187.43,-396.58 140,-435.5 135.88,-438.88 131.21,-441.63 126.27,-443.87"/>
<polygon fill="#63b8ff" stroke="#63b8ff" points="220.57,-288.68 219.24,-278.17 213.73,-287.21 220.57,-288.68"/>
</a>
</g>
</g>
<!-- Node5 -->
<g id="Node000005" class="node">
<title>Node5</title>
<g id="a_Node000005"><a xlink:href="classDKJungle.html#a117ed74e4383714cdefacc69ce45fede" target="_top" xlink:title=" ">
<polygon fill="white" stroke="#666666" points="116,-426 24,-426 24,-407 116,-407 116,-426"/>
<text text-anchor="middle" x="70" y="-414" font-family="Helvetica,sans-Serif" font-size="10.00">DKJungle::Draw</text>
</a>
</g>
</g>
<!-- Node1&#45;&gt;Node5 -->
<g id="edge4_Node000001_Node000005" class="edge">
<title>Node1&#45;&gt;Node5</title>
<g id="a_edge4_Node000001_Node000005"><a xlink:title=" ">
<path fill="none" stroke="#63b8ff" d="M214.34,-287.72C203.42,-316.34 178.93,-369.85 140,-398.5 133.02,-403.64 124.7,-407.31 116.29,-409.94"/>
<polygon fill="#63b8ff" stroke="#63b8ff" points="217.72,-288.67 217.86,-278.08 211.15,-286.27 217.72,-288.67"/>
</a>
</g>
</g>
<!-- Node6 -->
<g id="Node000006" class="node">
<title>Node6</title>
<g id="a_Node000006"><a xlink:href="classFrappeSnowland.html#aa02c47ef7feaf9a044927f928d392db7" target="_top" xlink:title=" ">
<polygon fill="white" stroke="#666666" points="134,-389 6,-389 6,-370 134,-370 134,-389"/>
<text text-anchor="middle" x="70" y="-377" font-family="Helvetica,sans-Serif" font-size="10.00">FrappeSnowland::Draw</text>
</a>
</g>
</g>
<!-- Node1&#45;&gt;Node6 -->
<g id="edge5_Node000001_Node000006" class="edge">
<title>Node1&#45;&gt;Node6</title>
<g id="a_edge5_Node000001_Node000006"><a xlink:title=" ">
<path fill="none" stroke="#63b8ff" d="M209.98,-286.78C196.24,-307.97 170.78,-342.43 140,-361.5 134.53,-364.89 128.43,-367.65 122.19,-369.89"/>
<polygon fill="#63b8ff" stroke="#63b8ff" points="213.09,-288.41 215.44,-278.08 207.16,-284.69 213.09,-288.41"/>
</a>
</g>
</g>
<!-- Node7 -->
<g id="Node000007" class="node">
<title>Node7</title>
<g id="a_Node000007"><a xlink:href="classHarbour.html#af77997df25b56ec7b3e175884938a60e" target="_top" xlink:title=" ">
<polygon fill="white" stroke="#666666" points="113.5,-352 26.5,-352 26.5,-333 113.5,-333 113.5,-352"/>
<text text-anchor="middle" x="70" y="-340" font-family="Helvetica,sans-Serif" font-size="10.00">Harbour::Draw</text>
</a>
</g>
</g>
<!-- Node1&#45;&gt;Node7 -->
<g id="edge6_Node000001_Node000007" class="edge">
<title>Node1&#45;&gt;Node7</title>
<g id="a_edge6_Node000001_Node000007"><a xlink:title=" ">
<path fill="none" stroke="#63b8ff" d="M202.08,-284.45C186.37,-296.96 162.94,-313.98 140,-324.5 131.79,-328.27 122.65,-331.35 113.77,-333.83"/>
<polygon fill="#63b8ff" stroke="#63b8ff" points="204.43,-287.05 209.97,-278.03 200.01,-281.62 204.43,-287.05"/>
</a>
</g>
</g>
<!-- Node8 -->
<g id="Node000008" class="node">
<title>Node8</title>
<g id="a_Node000008"><a xlink:href="classKalimariDesert.html#aa62778c3feb97a456c9e72bade53ed08" target="_top" xlink:title=" ">
<polygon fill="white" stroke="#666666" points="131,-315 9,-315 9,-296 131,-296 131,-315"/>
<text text-anchor="middle" x="70" y="-303" font-family="Helvetica,sans-Serif" font-size="10.00">KalimariDesert::Draw</text>
</a>
</g>
</g>
<!-- Node1&#45;&gt;Node8 -->
<g id="edge7_Node000001_Node000008" class="edge">
<title>Node1&#45;&gt;Node8</title>
<g id="a_edge7_Node000001_Node000008"><a xlink:title=" ">
<path fill="none" stroke="#63b8ff" d="M172.66,-280.43C152.31,-285.44 128.95,-291.21 109.76,-295.94"/>
<polygon fill="#63b8ff" stroke="#63b8ff" points="173.5,-283.82 182.37,-278.03 171.82,-277.03 173.5,-283.82"/>
</a>
</g>
</g>
<!-- Node9 -->
<g id="Node000009" class="node">
<title>Node9</title>
<g id="a_Node000009"><a xlink:href="classKoopaTroopaBeach.html#a8df03f4ac87afab34808ae388fa26ad2" target="_top" xlink:title=" ">
<polygon fill="white" stroke="#666666" points="140,-278 0,-278 0,-259 140,-259 140,-278"/>
<text text-anchor="middle" x="70" y="-266" font-family="Helvetica,sans-Serif" font-size="10.00">KoopaTroopaBeach::Draw</text>
</a>
</g>
</g>
<!-- Node1&#45;&gt;Node9 -->
<g id="edge8_Node000001_Node000009" class="edge">
<title>Node1&#45;&gt;Node9</title>
<g id="a_edge8_Node000001_Node000009"><a xlink:title=" ">
<path fill="none" stroke="#63b8ff" d="M165.95,-268.5C157.54,-268.5 148.77,-268.5 140.11,-268.5"/>
<polygon fill="#63b8ff" stroke="#63b8ff" points="166,-272 176,-268.5 166,-265 166,-272"/>
</a>
</g>
</g>
<!-- Node10 -->
<g id="Node000010" class="node">
<title>Node10</title>
<g id="a_Node000010"><a xlink:href="classLuigiRaceway.html#a550be86381f88873c265fd67b06e16c3" target="_top" xlink:title=" ">
<polygon fill="white" stroke="#666666" points="127.5,-241 12.5,-241 12.5,-222 127.5,-222 127.5,-241"/>
<text text-anchor="middle" x="70" y="-229" font-family="Helvetica,sans-Serif" font-size="10.00">LuigiRaceway::Draw</text>
</a>
</g>
</g>
<!-- Node1&#45;&gt;Node10 -->
<g id="edge9_Node000001_Node000010" class="edge">
<title>Node1&#45;&gt;Node10</title>
<g id="a_edge9_Node000001_Node000010"><a xlink:title=" ">
<path fill="none" stroke="#63b8ff" d="M172.66,-256.57C152.31,-251.56 128.95,-245.79 109.76,-241.06"/>
<polygon fill="#63b8ff" stroke="#63b8ff" points="171.82,-259.97 182.37,-258.97 173.5,-253.18 171.82,-259.97"/>
</a>
</g>
</g>
<!-- Node11 -->
<g id="Node000011" class="node">
<title>Node11</title>
<g id="a_Node000011"><a xlink:href="classMarioRaceway.html#a4dde82a6aacad30249f22ea6a705085a" target="_top" xlink:title=" ">
<polygon fill="white" stroke="#666666" points="129.5,-204 10.5,-204 10.5,-185 129.5,-185 129.5,-204"/>
<text text-anchor="middle" x="70" y="-192" font-family="Helvetica,sans-Serif" font-size="10.00">MarioRaceway::Draw</text>
</a>
</g>
</g>
<!-- Node1&#45;&gt;Node11 -->
<g id="edge10_Node000001_Node000011" class="edge">
<title>Node1&#45;&gt;Node11</title>
<g id="a_edge10_Node000001_Node000011"><a xlink:title=" ">
<path fill="none" stroke="#63b8ff" d="M201.46,-252.52C185.7,-240.32 162.53,-223.9 140,-213.5 131.88,-209.75 122.87,-206.61 114.11,-204.02"/>
<polygon fill="#63b8ff" stroke="#63b8ff" points="199.38,-255.34 209.4,-258.79 203.72,-249.85 199.38,-255.34"/>
</a>
</g>
</g>
<!-- Node12 -->
<g id="Node000012" class="node">
<title>Node12</title>
<g id="a_Node000012"><a xlink:href="classPodiumCeremony.html#a311c460f56109adc08b595eb30466b65" target="_top" xlink:title=" ">
<polygon fill="white" stroke="#666666" points="137,-167 3,-167 3,-148 137,-148 137,-167"/>
<text text-anchor="middle" x="70" y="-155" font-family="Helvetica,sans-Serif" font-size="10.00">PodiumCeremony::Draw</text>
</a>
</g>
</g>
<!-- Node1&#45;&gt;Node12 -->
<g id="edge11_Node000001_Node000012" class="edge">
<title>Node1&#45;&gt;Node12</title>
<g id="a_edge11_Node000001_Node000012"><a xlink:title=" ">
<path fill="none" stroke="#63b8ff" d="M209.67,-250.17C195.8,-229.25 170.36,-195.48 140,-176.5 133.78,-172.61 126.77,-169.51 119.65,-167.03"/>
<polygon fill="#63b8ff" stroke="#63b8ff" points="206.85,-252.26 215.21,-258.78 212.74,-248.47 206.85,-252.26"/>
</a>
</g>
</g>
<!-- Node13 -->
<g id="Node000013" class="node">
<title>Node13</title>
<g id="a_Node000013"><a xlink:href="classRoyalRaceway.html#a33afab62a3884eb50876a644d4ebb502" target="_top" xlink:title=" ">
<polygon fill="white" stroke="#666666" points="129.5,-130 10.5,-130 10.5,-111 129.5,-111 129.5,-130"/>
<text text-anchor="middle" x="70" y="-118" font-family="Helvetica,sans-Serif" font-size="10.00">RoyalRaceway::Draw</text>
</a>
</g>
</g>
<!-- Node1&#45;&gt;Node13 -->
<g id="edge12_Node000001_Node000013" class="edge">
<title>Node1&#45;&gt;Node13</title>
<g id="a_edge12_Node000001_Node000013"><a xlink:title=" ">
<path fill="none" stroke="#63b8ff" d="M214.09,-249.07C202.97,-220.66 178.39,-168.04 140,-139.5 134.82,-135.64 128.89,-132.57 122.74,-130.12"/>
<polygon fill="#63b8ff" stroke="#63b8ff" points="210.9,-250.55 217.69,-258.68 217.45,-248.09 210.9,-250.55"/>
</a>
</g>
</g>
<!-- Node14 -->
<g id="Node000014" class="node">
<title>Node14</title>
<g id="a_Node000014"><a xlink:href="classTestTrack.html#ae3bf027de914e7e9e7e814ebbf301efc" target="_top" xlink:title=" ">
<polygon fill="white" stroke="#666666" points="116.5,-93 23.5,-93 23.5,-74 116.5,-74 116.5,-93"/>
<text text-anchor="middle" x="70" y="-81" font-family="Helvetica,sans-Serif" font-size="10.00">TestTrack::Draw</text>
</a>
</g>
</g>
<!-- Node1&#45;&gt;Node14 -->
<g id="edge13_Node000001_Node000014" class="edge">
<title>Node1&#45;&gt;Node14</title>
<g id="a_edge13_Node000001_Node000014"><a xlink:title=" ">
<path fill="none" stroke="#63b8ff" d="M217.02,-249.06C208.88,-214.31 186.98,-141.49 140,-102.5 133.31,-96.95 125.12,-93.01 116.75,-90.22"/>
<polygon fill="#63b8ff" stroke="#63b8ff" points="213.63,-249.91 219.2,-258.92 220.46,-248.4 213.63,-249.91"/>
</a>
</g>
</g>
<!-- Node15 -->
<g id="Node000015" class="node">
<title>Node15</title>
<g id="a_Node000015"><a xlink:href="classWarioStadium.html#acc50cdddefeb93b3fd3d1b4b980b6ec9" target="_top" xlink:title=" ">
<polygon fill="white" stroke="#666666" points="128,-56 12,-56 12,-37 128,-37 128,-56"/>
<text text-anchor="middle" x="70" y="-44" font-family="Helvetica,sans-Serif" font-size="10.00">WarioStadium::Draw</text>
</a>
</g>
</g>
<!-- Node1&#45;&gt;Node15 -->
<g id="edge14_Node000001_Node000015" class="edge">
<title>Node1&#45;&gt;Node15</title>
<g id="a_edge14_Node000001_Node000015"><a xlink:title=" ">
<path fill="none" stroke="#63b8ff" d="M218.91,-248.77C213.56,-208.24 195.57,-115.22 140,-65.5 135.65,-61.61 130.57,-58.5 125.17,-56.03"/>
<polygon fill="#63b8ff" stroke="#63b8ff" points="215.44,-249.22 220.11,-258.73 222.39,-248.39 215.44,-249.22"/>
</a>
</g>
</g>
<!-- Node16 -->
<g id="Node000016" class="node">
<title>Node16</title>
<g id="a_Node000016"><a xlink:href="classSherbetLand.html#aff141b1a3e1723e5e9330beb64cab548" target="_top" xlink:title=" ">
<polygon fill="white" stroke="#666666" points="138.5,-19 1.5,-19 1.5,0 138.5,0 138.5,-19"/>
<text text-anchor="middle" x="70" y="-7" font-family="Helvetica,sans-Serif" font-size="10.00">SherbetLand::DrawWater</text>
</a>
</g>
</g>
<!-- Node1&#45;&gt;Node16 -->
<g id="edge15_Node000001_Node000016" class="edge">
<title>Node1&#45;&gt;Node16</title>
<g id="a_edge15_Node000001_Node000016"><a xlink:title=" ">
<path fill="none" stroke="#63b8ff" d="M220.29,-248.41C217.54,-202.5 204.24,-89.19 140,-28.5 135.94,-24.66 131.17,-21.58 126.07,-19.12"/>
<polygon fill="#63b8ff" stroke="#63b8ff" points="216.8,-248.74 220.78,-258.56 223.79,-248.4 216.8,-248.74"/>
</a>
</g>
</g>
</g>
</svg>

<g id="navigator" transform="translate(0 0)" fill="#404254">
  <rect fill="#f2f5e9" fill-opacity="0.5" stroke="#606060" stroke-width=".5" x="0" y="0" width="60" height="60"/>
  <use id="zoomplus" xlink:href="#zoomPlus" x="17" y="9" onmousedown="handleZoom(evt,'in')"/>
  <use id="zoomminus" xlink:href="#zoomMin" x="42" y="9" onmousedown="handleZoom(evt,'out')"/>
  <use id="reset" xlink:href="#resetDef" x="30" y="36" onmousedown="handleReset()"/>
   <use id="arrowup" xlink:href="#arrowUp" x="0" y="0" onmousedown="handlePan(0,-1)"/>
  <use id="arrowright" xlink:href="#arrowRight" x="0" y="0" onmousedown="handlePan(1,0)"/>
  <use id="arrowdown" xlink:href="#arrowDown" x="0" y="0" onmousedown="handlePan(0,1)"/>
  <use id="arrowleft" xlink:href="#arrowLeft" x="0" y="0" onmousedown="handlePan(-1,0)"/>
</g>
<svg viewBox="0 0 15 15" width="100%" height="30px" preserveAspectRatio="xMaxYMin meet">
 <g id="arrow_out" transform="scale(0.3 0.3)">
  <a xlink:href="render__courses_8c_a9a9119b96bf015cf8b5a168485f67e3f_icgraph_org.svg" target="_base">
   <rect id="button" ry="5" rx="5" y="6" x="6" height="38" width="38"
        fill="#f2f5e9" fill-opacity="0.5" stroke="#606060" stroke-width="1.0"/>
   <path id="arrow"
     d="M 11.500037,31.436501 C 11.940474,20.09759 22.043105,11.32322 32.158766,21.979434 L 37.068811,17.246167 C 37.068811,17.246167 37.088388,32 37.088388,32 L 22.160133,31.978069 C 22.160133,31.978069 26.997745,27.140456 26.997745,27.140456 C 18.528582,18.264221 13.291696,25.230495 11.500037,31.436501 z"
     style="fill:#404040;"/>
  </a>
 </g>
</svg>

<style type='text/css'>
<![CDATA[
[data-mouse-over-selected='false'] { opacity: 0.7; }
[data-mouse-over-selected='true']  { opacity: 1.0; }
]]>
</style>
<script type="application/ecmascript"><![CDATA[
document.addEventListener('DOMContentLoaded', (event) => {
  highlightEdges();
  highlightAdjacentNodes();
});
]]></script>
</svg>
