<?xml version="1.0" encoding="UTF-8" standalone="no"?>
<!DOCTYPE svg PUBLIC "-//W3C//DTD SVG 1.1//EN"
 "http://www.w3.org/Graphics/SVG/1.1/DTD/svg11.dtd">
<!-- Generated by graphviz version 2.43.0 (0)
 -->
<!-- Title: func_80052E30 Pages: 1 -->
<svg width="1229pt" height="214pt"
 viewBox="0.00 0.00 1229.00 214.00" xmlns="http://www.w3.org/2000/svg" xmlns:xlink="http://www.w3.org/1999/xlink">
<g id="graph0" class="graph" transform="scale(1 1) rotate(0) translate(4 210)">
<title>func_80052E30</title>
<!-- Node1 -->
<g id="Node000001" class="node">
<title>Node1</title>
<g id="a_Node000001"><a xlink:title=" ">
<polygon fill="#999999" stroke="#666666" points="91,-142 0,-142 0,-123 91,-123 91,-142"/>
<text text-anchor="middle" x="45.5" y="-130" font-family="Helvetica,sans-Serif" font-size="10.00">func_80052E30</text>
</a>
</g>
</g>
<!-- Node2 -->
<g id="Node000002" class="node">
<title>Node2</title>
<g id="a_Node000002"><a xlink:href="render__objects_8c.html#a31d221441caf529810b42913d7f291f7" target="_top" xlink:title=" ">
<polygon fill="white" stroke="#666666" points="219,-142 127,-142 127,-123 219,-123 219,-142"/>
<text text-anchor="middle" x="173" y="-130" font-family="Helvetica,sans-Serif" font-size="10.00">func_80052D70</text>
</a>
</g>
</g>
<!-- Node1&#45;&gt;Node2 -->
<g id="edge1_Node000001_Node000002" class="edge">
<title>Node1&#45;&gt;Node2</title>
<g id="a_edge1_Node000001_Node000002"><a xlink:title=" ">
<path fill="none" stroke="#63b8ff" d="M91.1,-132.5C99.31,-132.5 107.98,-132.5 116.47,-132.5"/>
<polygon fill="#63b8ff" stroke="#63b8ff" points="116.7,-136 126.7,-132.5 116.7,-129 116.7,-136"/>
</a>
</g>
</g>
<!-- Node3 -->
<g id="Node000003" class="node">
<title>Node3</title>
<g id="a_Node000003"><a xlink:href="render__objects_8c.html#aaa8db08f147bc6819144cf35c0e91935" target="_top" xlink:title=" ">
<polygon fill="white" stroke="#666666" points="347,-161 255,-161 255,-142 347,-142 347,-161"/>
<text text-anchor="middle" x="301" y="-149" font-family="Helvetica,sans-Serif" font-size="10.00">func_800435A0</text>
</a>
</g>
</g>
<!-- Node2&#45;&gt;Node3 -->
<g id="edge2_Node000002_Node000003" class="edge">
<title>Node2&#45;&gt;Node3</title>
<g id="a_edge2_Node000002_Node000003"><a xlink:title=" ">
<path fill="none" stroke="#63b8ff" d="M219.13,-139.31C227.46,-140.56 236.23,-141.88 244.81,-143.18"/>
<polygon fill="#63b8ff" stroke="#63b8ff" points="244.35,-146.65 254.76,-144.68 245.39,-139.73 244.35,-146.65"/>
</a>
</g>
</g>
<!-- Node18 -->
<g id="Node000018" class="node">
<title>Node18</title>
<g id="a_Node000018"><a xlink:href="update__objects_8c.html#a6eafc39608c664ff3d5b832ffb629b12" target="_top" xlink:title=" ">
<polygon fill="white" stroke="#666666" points="346.5,-124 255.5,-124 255.5,-105 346.5,-105 346.5,-124"/>
<text text-anchor="middle" x="301" y="-112" font-family="Helvetica,sans-Serif" font-size="10.00">func_80072320</text>
</a>
</g>
</g>
<!-- Node2&#45;&gt;Node18 -->
<g id="edge18_Node000002_Node000018" class="edge">
<title>Node2&#45;&gt;Node18</title>
<g id="a_edge18_Node000002_Node000018"><a xlink:title=" ">
<path fill="none" stroke="#63b8ff" d="M219.13,-126.05C227.56,-124.85 236.45,-123.58 245.13,-122.34"/>
<polygon fill="#63b8ff" stroke="#63b8ff" points="245.78,-125.78 255.18,-120.9 244.79,-118.85 245.78,-125.78"/>
</a>
</g>
</g>
<!-- Node4 -->
<g id="Node000004" class="node">
<title>Node4</title>
<g id="a_Node000004"><a xlink:href="GBIMiddleware_8cpp.html#a4ecc44e3c6f1ca5a6b4a20c41d3bd2d2" target="_top" xlink:title=" ">
<polygon fill="white" stroke="#666666" points="511,-187 422,-187 422,-168 511,-168 511,-187"/>
<text text-anchor="middle" x="466.5" y="-175" font-family="Helvetica,sans-Serif" font-size="10.00">gSPDisplayList</text>
</a>
</g>
</g>
<!-- Node3&#45;&gt;Node4 -->
<g id="edge3_Node000003_Node000004" class="edge">
<title>Node3&#45;&gt;Node4</title>
<g id="a_edge3_Node000003_Node000004"><a xlink:title=" ">
<path fill="none" stroke="#63b8ff" d="M347.11,-158.67C367.17,-161.86 390.95,-165.64 411.91,-168.98"/>
<polygon fill="#63b8ff" stroke="#63b8ff" points="411.52,-172.46 421.95,-170.57 412.62,-165.55 411.52,-172.46"/>
</a>
</g>
</g>
<!-- Node7 -->
<g id="Node000007" class="node">
<title>Node7</title>
<g id="a_Node000007"><a xlink:href="math__util__2_8c.html#ac40bfdeffa5a3c0f8d7c1ce43c075a45" target="_top" xlink:title=" ">
<polygon fill="white" stroke="#666666" points="550,-141.5 383,-141.5 383,-111.5 550,-111.5 550,-141.5"/>
<text text-anchor="start" x="391" y="-129.5" font-family="Helvetica,sans-Serif" font-size="10.00">rsp_set_matrix_transformation</text>
<text text-anchor="middle" x="466.5" y="-118.5" font-family="Helvetica,sans-Serif" font-size="10.00">_inverted_x_y_orientation</text>
</a>
</g>
</g>
<!-- Node3&#45;&gt;Node7 -->
<g id="edge6_Node000003_Node000007" class="edge">
<title>Node3&#45;&gt;Node7</title>
<g id="a_edge6_Node000003_Node000007"><a xlink:title=" ">
<path fill="none" stroke="#63b8ff" d="M347.11,-144.6C355.21,-143.36 363.92,-142.03 372.81,-140.67"/>
<polygon fill="#63b8ff" stroke="#63b8ff" points="373.54,-144.1 382.89,-139.13 372.48,-137.18 373.54,-144.1"/>
</a>
</g>
</g>
<!-- Node5 -->
<g id="Node000005" class="node">
<title>Node5</title>
<g id="a_Node000005"><a xlink:href="Engine_8cpp.html#a223c8bc63f228dc11177515e38eff2db" target="_top" xlink:title=" ">
<polygon fill="white" stroke="#666666" points="748.5,-202 599.5,-202 599.5,-183 748.5,-183 748.5,-202"/>
<text text-anchor="middle" x="674" y="-190" font-family="Helvetica,sans-Serif" font-size="10.00">GameEngine_OTRSigCheck</text>
</a>
</g>
</g>
<!-- Node4&#45;&gt;Node5 -->
<g id="edge4_Node000004_Node000005" class="edge">
<title>Node4&#45;&gt;Node5</title>
<g id="a_edge4_Node000004_Node000005"><a xlink:title=" ">
<path fill="none" stroke="#63b8ff" d="M511.08,-180.68C533.75,-182.34 562.25,-184.42 589,-186.37"/>
<polygon fill="#63b8ff" stroke="#63b8ff" points="588.92,-189.87 599.15,-187.11 589.43,-182.89 588.92,-189.87"/>
</a>
</g>
</g>
<!-- Node6 -->
<g id="Node000006" class="node">
<title>Node6</title>
<g id="a_Node000006"><a xlink:href="string_8c.html#a008e171a518fe0e0352f31b245e03875" target="_top" xlink:title=" ">
<polygon fill="white" stroke="#666666" points="853.5,-206 809.5,-206 809.5,-187 853.5,-187 853.5,-206"/>
<text text-anchor="middle" x="831.5" y="-194" font-family="Helvetica,sans-Serif" font-size="10.00">strlen</text>
</a>
</g>
</g>
<!-- Node5&#45;&gt;Node6 -->
<g id="edge5_Node000005_Node000006" class="edge">
<title>Node5&#45;&gt;Node6</title>
<g id="a_edge5_Node000005_Node000006"><a xlink:title=" ">
<path fill="none" stroke="#63b8ff" d="M748.65,-194.39C766.29,-194.85 784.21,-195.31 798.77,-195.68"/>
<polygon fill="#63b8ff" stroke="#63b8ff" points="799.1,-199.19 809.19,-195.95 799.28,-192.2 799.1,-199.19"/>
</a>
</g>
</g>
<!-- Node8 -->
<g id="Node000008" class="node">
<title>Node8</title>
<g id="a_Node000008"><a xlink:href="Matrix_8cpp.html#a329d78c031733cf22ff7518f5d38fd74" target="_top" xlink:title=" ">
<polygon fill="white" stroke="#666666" points="717,-136 631,-136 631,-117 717,-117 717,-136"/>
<text text-anchor="middle" x="674" y="-124" font-family="Helvetica,sans-Serif" font-size="10.00">AddHudMatrix</text>
</a>
</g>
</g>
<!-- Node7&#45;&gt;Node8 -->
<g id="edge7_Node000007_Node000008" class="edge">
<title>Node7&#45;&gt;Node8</title>
<g id="a_edge7_Node000007_Node000008"><a xlink:title=" ">
<path fill="none" stroke="#63b8ff" d="M550.2,-126.5C573.97,-126.5 599.23,-126.5 620.62,-126.5"/>
<polygon fill="#63b8ff" stroke="#63b8ff" points="620.78,-130 630.78,-126.5 620.78,-123 620.78,-130"/>
</a>
</g>
</g>
<!-- Node14 -->
<g id="Node000014" class="node">
<title>Node14</title>
<g id="a_Node000014"><a xlink:href="math__util__2_8c.html#ae71383a9d7f97bcb240b23f68068ab30" target="_top" xlink:title=" ">
<polygon fill="white" stroke="#666666" points="762,-80 586,-80 586,-61 762,-61 762,-80"/>
<text text-anchor="middle" x="674" y="-68" font-family="Helvetica,sans-Serif" font-size="10.00">mtxf_set_matrix_transformation</text>
</a>
</g>
</g>
<!-- Node7&#45;&gt;Node14 -->
<g id="edge13_Node000007_Node000014" class="edge">
<title>Node7&#45;&gt;Node14</title>
<g id="a_edge13_Node000007_Node000014"><a xlink:title=" ">
<path fill="none" stroke="#63b8ff" d="M522.57,-111.49C555.72,-102.46 597.38,-91.11 628.44,-82.64"/>
<polygon fill="#63b8ff" stroke="#63b8ff" points="629.41,-86.01 638.13,-80 627.57,-79.25 629.41,-86.01"/>
</a>
</g>
</g>
<!-- Node9 -->
<g id="Node000009" class="node">
<title>Node9</title>
<g id="a_Node000009"><a xlink:href="Matrix_8cpp.html#a67401ed1d8de1f4d3a3e5a7b72842b6a" target="_top" xlink:title=" ">
<polygon fill="white" stroke="#666666" points="865,-169 798,-169 798,-150 865,-150 865,-169"/>
<text text-anchor="middle" x="831.5" y="-157" font-family="Helvetica,sans-Serif" font-size="10.00">AddMatrix</text>
</a>
</g>
</g>
<!-- Node8&#45;&gt;Node9 -->
<g id="edge8_Node000008_Node000009" class="edge">
<title>Node8&#45;&gt;Node9</title>
<g id="a_edge8_Node000008_Node000009"><a xlink:title=" ">
<path fill="none" stroke="#63b8ff" d="M717.08,-135.43C738.98,-140.08 765.69,-145.75 787.69,-150.42"/>
<polygon fill="#63b8ff" stroke="#63b8ff" points="787.25,-153.9 797.76,-152.55 788.7,-147.05 787.25,-153.9"/>
</a>
</g>
</g>
<!-- Node13 -->
<g id="Node000013" class="node">
<title>Node13</title>
<g id="a_Node000013"><a xlink:href="Game_8cpp.html#ae2fa844b3cb1021ecbc357f8ed2ad8cc" target="_top" xlink:title=" ">
<polygon fill="white" stroke="#666666" points="862.5,-132 800.5,-132 800.5,-113 862.5,-113 862.5,-132"/>
<text text-anchor="middle" x="831.5" y="-120" font-family="Helvetica,sans-Serif" font-size="10.00">GetWorld</text>
</a>
</g>
</g>
<!-- Node8&#45;&gt;Node13 -->
<g id="edge12_Node000008_Node000013" class="edge">
<title>Node8&#45;&gt;Node13</title>
<g id="a_edge12_Node000008_Node000013"><a xlink:title=" ">
<path fill="none" stroke="#63b8ff" d="M717.08,-125.42C739.75,-124.83 767.59,-124.12 790.02,-123.54"/>
<polygon fill="#63b8ff" stroke="#63b8ff" points="790.31,-127.03 800.22,-123.28 790.13,-120.04 790.31,-127.03"/>
</a>
</g>
</g>
<!-- Node10 -->
<g id="Node000010" class="node">
<title>Node10</title>
<g id="a_Node000010"><a xlink:href="FrameInterpolation_8cpp.html#a8cf1f2d6fabc6925aa71a9515341b4aa" target="_top" xlink:title=" ">
<polygon fill="white" stroke="#666666" points="1059,-174.5 919,-174.5 919,-144.5 1059,-144.5 1059,-174.5"/>
<text text-anchor="start" x="927" y="-162.5" font-family="Helvetica,sans-Serif" font-size="10.00">FrameInterpolation</text>
<text text-anchor="middle" x="989" y="-151.5" font-family="Helvetica,sans-Serif" font-size="10.00">_RecordMatrixMtxFToMtx</text>
</a>
</g>
</g>
<!-- Node9&#45;&gt;Node10 -->
<g id="edge9_Node000009_Node000010" class="edge">
<title>Node9&#45;&gt;Node10</title>
<g id="a_edge9_Node000009_Node000010"><a xlink:title=" ">
<path fill="none" stroke="#63b8ff" d="M865.1,-159.5C877.96,-159.5 893.33,-159.5 908.79,-159.5"/>
<polygon fill="#63b8ff" stroke="#63b8ff" points="908.93,-163 918.93,-159.5 908.93,-156 908.93,-163"/>
</a>
</g>
</g>
<!-- Node12 -->
<g id="Node000012" class="node">
<title>Node12</title>
<g id="a_Node000012"><a xlink:href="guMtxF2L_8c.html#a40ab2d64c609839ff1e0ef0de2d0dcc4" target="_top" xlink:title=" ">
<polygon fill="white" stroke="#666666" points="1021.5,-126 956.5,-126 956.5,-107 1021.5,-107 1021.5,-126"/>
<text text-anchor="middle" x="989" y="-114" font-family="Helvetica,sans-Serif" font-size="10.00">guMtxF2L</text>
</a>
</g>
</g>
<!-- Node9&#45;&gt;Node12 -->
<g id="edge11_Node000009_Node000012" class="edge">
<title>Node9&#45;&gt;Node12</title>
<g id="a_edge11_Node000009_Node000012"><a xlink:title=" ">
<path fill="none" stroke="#63b8ff" d="M857.32,-149.98C870.22,-145.24 886.33,-139.66 901,-135.5 915.6,-131.36 931.8,-127.61 946.22,-124.54"/>
<polygon fill="#63b8ff" stroke="#63b8ff" points="947.28,-127.9 956.36,-122.44 945.86,-121.05 947.28,-127.9"/>
</a>
</g>
</g>
<!-- Node11 -->
<g id="Node000011" class="node">
<title>Node11</title>
<g id="a_Node000011"><a xlink:href="FrameInterpolation_8cpp.html#a02c7ac5342a4d376edee38f312b480bf" target="_top" xlink:title=" ">
<polygon fill="white" stroke="#666666" points="1221,-113 1113,-113 1113,-94 1221,-94 1221,-113"/>
<text text-anchor="middle" x="1167" y="-101" font-family="Helvetica,sans-Serif" font-size="10.00">check_if_recording</text>
</a>
</g>
</g>
<!-- Node10&#45;&gt;Node11 -->
<g id="edge10_Node000010_Node000011" class="edge">
<title>Node10&#45;&gt;Node11</title>
<g id="a_edge10_Node000010_Node000011"><a xlink:title=" ">
<path fill="none" stroke="#63b8ff" d="M1046.81,-144.5C1056.91,-141.64 1067.29,-138.58 1077,-135.5 1095.02,-129.79 1114.82,-122.74 1131.17,-116.72"/>
<polygon fill="#63b8ff" stroke="#63b8ff" points="1132.7,-119.88 1140.85,-113.12 1130.26,-113.32 1132.7,-119.88"/>
</a>
</g>
</g>
<!-- Node15 -->
<g id="Node000015" class="node">
<title>Node15</title>
<g id="a_Node000015"><a xlink:href="math__util_8c.html#ae69cbf5c8d4b3b0dba2d7b4d4673689f" target="_top" xlink:title=" ">
<polygon fill="white" stroke="#666666" points="850.5,-95 812.5,-95 812.5,-76 850.5,-76 850.5,-95"/>
<text text-anchor="middle" x="831.5" y="-83" font-family="Helvetica,sans-Serif" font-size="10.00">coss</text>
</a>
</g>
</g>
<!-- Node14&#45;&gt;Node15 -->
<g id="edge14_Node000014_Node000015" class="edge">
<title>Node14&#45;&gt;Node15</title>
<g id="a_edge14_Node000014_Node000015"><a xlink:title=" ">
<path fill="none" stroke="#63b8ff" d="M762.3,-78.92C776.67,-80.31 790.6,-81.65 802.09,-82.76"/>
<polygon fill="#63b8ff" stroke="#63b8ff" points="802,-86.27 812.29,-83.74 802.67,-79.3 802,-86.27"/>
</a>
</g>
</g>
<!-- Node16 -->
<g id="Node000016" class="node">
<title>Node16</title>
<g id="a_Node000016"><a xlink:href="FrameInterpolation_8cpp.html#af749df1a96bee5c78287b1845455ae2d" target="_top" xlink:title=" ">
<polygon fill="white" stroke="#666666" points="1077,-75.5 901,-75.5 901,-45.5 1077,-45.5 1077,-75.5"/>
<text text-anchor="start" x="909" y="-63.5" font-family="Helvetica,sans-Serif" font-size="10.00">FrameInterpolation</text>
<text text-anchor="middle" x="989" y="-52.5" font-family="Helvetica,sans-Serif" font-size="10.00">_RecordSetMatrixTransformation</text>
</a>
</g>
</g>
<!-- Node14&#45;&gt;Node16 -->
<g id="edge15_Node000014_Node000016" class="edge">
<title>Node14&#45;&gt;Node16</title>
<g id="a_edge15_Node000014_Node000016"><a xlink:title=" ">
<path fill="none" stroke="#63b8ff" d="M762.19,-67.71C802.13,-66.44 849.61,-64.92 890.71,-63.61"/>
<polygon fill="#63b8ff" stroke="#63b8ff" points="890.85,-67.11 900.74,-63.29 890.63,-60.11 890.85,-67.11"/>
</a>
</g>
</g>
<!-- Node17 -->
<g id="Node000017" class="node">
<title>Node17</title>
<g id="a_Node000017"><a xlink:href="math__util_8c.html#a19ed3bd78fd2d3e2bd0a29f6caf48545" target="_top" xlink:title=" ">
<polygon fill="white" stroke="#666666" points="849.5,-19 813.5,-19 813.5,0 849.5,0 849.5,-19"/>
<text text-anchor="middle" x="831.5" y="-7" font-family="Helvetica,sans-Serif" font-size="10.00">sins</text>
</a>
</g>
</g>
<!-- Node14&#45;&gt;Node17 -->
<g id="edge17_Node000014_Node000017" class="edge">
<title>Node14&#45;&gt;Node17</title>
<g id="a_edge17_Node000014_Node000017"><a xlink:title=" ">
<path fill="none" stroke="#63b8ff" d="M699.3,-60.97C727.57,-49.88 774.12,-31.62 803.5,-20.09"/>
<polygon fill="#63b8ff" stroke="#63b8ff" points="805.08,-23.23 813.11,-16.32 802.53,-16.71 805.08,-23.23"/>
</a>
</g>
</g>
<!-- Node16&#45;&gt;Node11 -->
<g id="edge16_Node000016_Node000011" class="edge">
<title>Node16&#45;&gt;Node11</title>
<g id="a_edge16_Node000016_Node000011"><a xlink:title=" ">
<path fill="none" stroke="#63b8ff" d="M1051.56,-75.54C1073.01,-80.78 1096.78,-86.59 1117.07,-91.54"/>
<polygon fill="#63b8ff" stroke="#63b8ff" points="1116.48,-95 1127.03,-93.98 1118.14,-88.2 1116.48,-95"/>
</a>
</g>
</g>
</g>
</svg>
