<?xml version="1.0" encoding="UTF-8" standalone="no"?>
<!DOCTYPE svg PUBLIC "-//W3C//DTD SVG 1.1//EN"
 "http://www.w3.org/Graphics/SVG/1.1/DTD/svg11.dtd">
<!-- Generated by graphviz version 2.43.0 (0)
 -->
<!-- Title: func_8004CD48 Pages: 1 -->
<svg width="950pt" height="150pt"
 viewBox="0.00 0.00 950.00 149.50" xmlns="http://www.w3.org/2000/svg" xmlns:xlink="http://www.w3.org/1999/xlink">
<g id="graph0" class="graph" transform="scale(1 1) rotate(0) translate(4 145.5)">
<title>func_8004CD48</title>
<!-- Node1 -->
<g id="Node000001" class="node">
<title>Node1</title>
<g id="a_Node000001"><a xlink:title=" ">
<polygon fill="#999999" stroke="#666666" points="93,-67.5 0,-67.5 0,-48.5 93,-48.5 93,-67.5"/>
<text text-anchor="middle" x="46.5" y="-55.5" font-family="Helvetica,sans-Serif" font-size="10.00">func_8004CD48</text>
</a>
</g>
</g>
<!-- Node2 -->
<g id="Node000002" class="node">
<title>Node2</title>
<g id="a_Node000002"><a xlink:href="render__objects_8c.html#a95c5979766642960ae786fefaf80953c" target="_top" xlink:title=" ">
<polygon fill="white" stroke="#666666" points="250,-104.5 129,-104.5 129,-85.5 250,-85.5 250,-104.5"/>
<text text-anchor="middle" x="189.5" y="-92.5" font-family="Helvetica,sans-Serif" font-size="10.00">func_8004B97C_wide</text>
</a>
</g>
</g>
<!-- Node1&#45;&gt;Node2 -->
<g id="edge1_Node000001_Node000002" class="edge">
<title>Node1&#45;&gt;Node2</title>
<g id="a_edge1_Node000001_Node000002"><a xlink:title=" ">
<path fill="none" stroke="#63b8ff" d="M83.81,-67.53C101.52,-72.17 123.02,-77.82 141.92,-82.78"/>
<polygon fill="#63b8ff" stroke="#63b8ff" points="141.26,-86.22 151.82,-85.38 143.04,-79.45 141.26,-86.22"/>
</a>
</g>
</g>
<!-- Node8 -->
<g id="Node000008" class="node">
<title>Node8</title>
<g id="a_Node000008"><a xlink:href="GBIMiddleware_8cpp.html#a4ecc44e3c6f1ca5a6b4a20c41d3bd2d2" target="_top" xlink:title=" ">
<polygon fill="white" stroke="#666666" points="234,-67.5 145,-67.5 145,-48.5 234,-48.5 234,-67.5"/>
<text text-anchor="middle" x="189.5" y="-55.5" font-family="Helvetica,sans-Serif" font-size="10.00">gSPDisplayList</text>
</a>
</g>
</g>
<!-- Node1&#45;&gt;Node8 -->
<g id="edge8_Node000001_Node000008" class="edge">
<title>Node1&#45;&gt;Node8</title>
<g id="a_edge8_Node000001_Node000008"><a xlink:title=" ">
<path fill="none" stroke="#63b8ff" d="M93.28,-58C106.48,-58 121,-58 134.65,-58"/>
<polygon fill="#63b8ff" stroke="#63b8ff" points="134.87,-61.5 144.87,-58 134.87,-54.5 134.87,-61.5"/>
</a>
</g>
</g>
<!-- Node11 -->
<g id="Node000011" class="node">
<title>Node11</title>
<g id="a_Node000011"><a xlink:href="render__objects_8c.html#ac6b2b1be6d99122b6bd5612bdee6ffef" target="_top" xlink:title=" ">
<polygon fill="white" stroke="#666666" points="244.5,-30 134.5,-30 134.5,0 244.5,0 244.5,-30"/>
<text text-anchor="start" x="142.5" y="-18" font-family="Helvetica,sans-Serif" font-size="10.00">load_texture_block</text>
<text text-anchor="middle" x="189.5" y="-7" font-family="Helvetica,sans-Serif" font-size="10.00">_ia16_nomirror</text>
</a>
</g>
</g>
<!-- Node1&#45;&gt;Node11 -->
<g id="edge11_Node000001_Node000011" class="edge">
<title>Node1&#45;&gt;Node11</title>
<g id="a_edge11_Node000001_Node000011"><a xlink:title=" ">
<path fill="none" stroke="#63b8ff" d="M78.79,-48.46C93.78,-43.88 112.24,-38.26 129.72,-32.93"/>
<polygon fill="#63b8ff" stroke="#63b8ff" points="130.75,-36.27 139.29,-30.01 128.71,-29.58 130.75,-36.27"/>
</a>
</g>
</g>
<!-- Node3 -->
<g id="Node000003" class="node">
<title>Node3</title>
<g id="a_Node000003"><a xlink:href="render__objects_8c.html#aadbe7ac97f3cbf7b4c06e645f6dcbb74" target="_top" xlink:title=" ">
<polygon fill="white" stroke="#666666" points="454,-104.5 286,-104.5 286,-85.5 454,-85.5 454,-104.5"/>
<text text-anchor="middle" x="370" y="-92.5" font-family="Helvetica,sans-Serif" font-size="10.00">render_texture_rectangle_wide</text>
</a>
</g>
</g>
<!-- Node2&#45;&gt;Node3 -->
<g id="edge2_Node000002_Node000003" class="edge">
<title>Node2&#45;&gt;Node3</title>
<g id="a_edge2_Node000002_Node000003"><a xlink:title=" ">
<path fill="none" stroke="#63b8ff" d="M250.43,-95C258.59,-95 267.11,-95 275.68,-95"/>
<polygon fill="#63b8ff" stroke="#63b8ff" points="275.74,-98.5 285.74,-95 275.74,-91.5 275.74,-98.5"/>
</a>
</g>
</g>
<!-- Node4 -->
<g id="Node000004" class="node">
<title>Node4</title>
<g id="a_Node000004"><a xlink:href="Engine_8cpp.html#afc8b077c3a02d35419cae70c83942941" target="_top" xlink:title=" ">
<polygon fill="white" stroke="#666666" points="667,-141.5 494,-141.5 494,-122.5 667,-122.5 667,-141.5"/>
<text text-anchor="middle" x="580.5" y="-129.5" font-family="Helvetica,sans-Serif" font-size="10.00">OTRGetDimensionFromLeftEdge</text>
</a>
</g>
</g>
<!-- Node3&#45;&gt;Node4 -->
<g id="edge3_Node000003_Node000004" class="edge">
<title>Node3&#45;&gt;Node4</title>
<g id="a_edge3_Node000003_Node000004"><a xlink:title=" ">
<path fill="none" stroke="#63b8ff" d="M424.69,-104.53C452.43,-109.45 486.47,-115.49 515.56,-120.65"/>
<polygon fill="#63b8ff" stroke="#63b8ff" points="515.17,-124.14 525.63,-122.44 516.39,-117.25 515.17,-124.14"/>
</a>
</g>
</g>
<!-- Node7 -->
<g id="Node000007" class="node">
<title>Node7</title>
<g id="a_Node000007"><a xlink:href="Engine_8cpp.html#a17495ab17d6e9c65b2a76e3c88a7f718" target="_top" xlink:title=" ">
<polygon fill="white" stroke="#666666" points="671,-104.5 490,-104.5 490,-85.5 671,-85.5 671,-104.5"/>
<text text-anchor="middle" x="580.5" y="-92.5" font-family="Helvetica,sans-Serif" font-size="10.00">OTRGetDimensionFromRightEdge</text>
</a>
</g>
</g>
<!-- Node3&#45;&gt;Node7 -->
<g id="edge6_Node000003_Node000007" class="edge">
<title>Node3&#45;&gt;Node7</title>
<g id="a_edge6_Node000003_Node000007"><a xlink:title=" ">
<path fill="none" stroke="#63b8ff" d="M454,-95C462.49,-95 471.18,-95 479.82,-95"/>
<polygon fill="#63b8ff" stroke="#63b8ff" points="479.93,-98.5 489.93,-95 479.93,-91.5 479.93,-98.5"/>
</a>
</g>
</g>
<!-- Node5 -->
<g id="Node000005" class="node">
<title>Node5</title>
<g id="a_Node000005"><a xlink:href="Engine_8cpp.html#a130aa97f1c7fae24f3d23f8126e7506f" target="_top" xlink:title=" ">
<polygon fill="white" stroke="#666666" points="820,-122.5 707,-122.5 707,-103.5 820,-103.5 820,-122.5"/>
<text text-anchor="middle" x="763.5" y="-110.5" font-family="Helvetica,sans-Serif" font-size="10.00">OTRGetAspectRatio</text>
</a>
</g>
</g>
<!-- Node4&#45;&gt;Node5 -->
<g id="edge4_Node000004_Node000005" class="edge">
<title>Node4&#45;&gt;Node5</title>
<g id="a_edge4_Node000004_Node000005"><a xlink:title=" ">
<path fill="none" stroke="#63b8ff" d="M667.23,-123C677.09,-121.97 687.03,-120.92 696.58,-119.92"/>
<polygon fill="#63b8ff" stroke="#63b8ff" points="697.18,-123.38 706.76,-118.85 696.45,-116.41 697.18,-123.38"/>
</a>
</g>
</g>
<!-- Node6 -->
<g id="Node000006" class="node">
<title>Node6</title>
<g id="a_Node000006"><a xlink:href="Engine_8cpp.html#a29357c424545be61af4bd28d84fd344a" target="_top" xlink:title=" ">
<polygon fill="white" stroke="#666666" points="942,-122.5 856,-122.5 856,-103.5 942,-103.5 942,-122.5"/>
<text text-anchor="middle" x="899" y="-110.5" font-family="Helvetica,sans-Serif" font-size="10.00">GetInterpreter</text>
</a>
</g>
</g>
<!-- Node5&#45;&gt;Node6 -->
<g id="edge5_Node000005_Node000006" class="edge">
<title>Node5&#45;&gt;Node6</title>
<g id="a_edge5_Node000005_Node000006"><a xlink:title=" ">
<path fill="none" stroke="#63b8ff" d="M820.34,-113C828.68,-113 837.26,-113 845.52,-113"/>
<polygon fill="#63b8ff" stroke="#63b8ff" points="845.79,-116.5 855.79,-113 845.79,-109.5 845.79,-116.5"/>
</a>
</g>
</g>
<!-- Node7&#45;&gt;Node5 -->
<g id="edge7_Node000007_Node000005" class="edge">
<title>Node7&#45;&gt;Node5</title>
<g id="a_edge7_Node000007_Node000005"><a xlink:title=" ">
<path fill="none" stroke="#63b8ff" d="M671.2,-103.92C679.8,-104.78 688.4,-105.63 696.71,-106.46"/>
<polygon fill="#63b8ff" stroke="#63b8ff" points="696.37,-109.94 706.67,-107.45 697.06,-102.98 696.37,-109.94"/>
</a>
</g>
</g>
<!-- Node9 -->
<g id="Node000009" class="node">
<title>Node9</title>
<g id="a_Node000009"><a xlink:href="Engine_8cpp.html#a223c8bc63f228dc11177515e38eff2db" target="_top" xlink:title=" ">
<polygon fill="white" stroke="#666666" points="444.5,-67.5 295.5,-67.5 295.5,-48.5 444.5,-48.5 444.5,-67.5"/>
<text text-anchor="middle" x="370" y="-55.5" font-family="Helvetica,sans-Serif" font-size="10.00">GameEngine_OTRSigCheck</text>
</a>
</g>
</g>
<!-- Node8&#45;&gt;Node9 -->
<g id="edge9_Node000008_Node000009" class="edge">
<title>Node8&#45;&gt;Node9</title>
<g id="a_edge9_Node000008_Node000009"><a xlink:title=" ">
<path fill="none" stroke="#63b8ff" d="M234.17,-58C249.52,-58 267.34,-58 284.9,-58"/>
<polygon fill="#63b8ff" stroke="#63b8ff" points="285.18,-61.5 295.18,-58 285.18,-54.5 285.18,-61.5"/>
</a>
</g>
</g>
<!-- Node10 -->
<g id="Node000010" class="node">
<title>Node10</title>
<g id="a_Node000010"><a xlink:href="string_8c.html#a008e171a518fe0e0352f31b245e03875" target="_top" xlink:title=" ">
<polygon fill="white" stroke="#666666" points="602.5,-67.5 558.5,-67.5 558.5,-48.5 602.5,-48.5 602.5,-67.5"/>
<text text-anchor="middle" x="580.5" y="-55.5" font-family="Helvetica,sans-Serif" font-size="10.00">strlen</text>
</a>
</g>
</g>
<!-- Node9&#45;&gt;Node10 -->
<g id="edge10_Node000009_Node000010" class="edge">
<title>Node9&#45;&gt;Node10</title>
<g id="a_edge10_Node000009_Node000010"><a xlink:title=" ">
<path fill="none" stroke="#63b8ff" d="M444.51,-58C480.11,-58 520.97,-58 548.33,-58"/>
<polygon fill="#63b8ff" stroke="#63b8ff" points="548.46,-61.5 558.46,-58 548.46,-54.5 548.46,-61.5"/>
</a>
</g>
</g>
</g>
</svg>
