<?xml version="1.0" encoding="UTF-8" standalone="no"?>
<!DOCTYPE svg PUBLIC "-//W3C//DTD SVG 1.1//EN"
 "http://www.w3.org/Graphics/SVG/1.1/DTD/svg11.dtd">
<!-- Generated by graphviz version 2.43.0 (0)
 -->
<!-- Title: func_80049D10 Pages: 1 -->
<svg width="970pt" height="345pt"
 viewBox="0.00 0.00 970.00 345.00" xmlns="http://www.w3.org/2000/svg" xmlns:xlink="http://www.w3.org/1999/xlink">
<g id="graph0" class="graph" transform="scale(1 1) rotate(0) translate(4 341)">
<title>func_80049D10</title>
<!-- Node1 -->
<g id="Node000001" class="node">
<title>Node1</title>
<g id="a_Node000001"><a xlink:title=" ">
<polygon fill="#999999" stroke="#666666" points="92,-105.5 0,-105.5 0,-86.5 92,-86.5 92,-105.5"/>
<text text-anchor="middle" x="46" y="-93.5" font-family="Helvetica,sans-Serif" font-size="10.00">func_80049D10</text>
</a>
</g>
</g>
<!-- Node2 -->
<g id="Node000002" class="node">
<title>Node2</title>
<g id="a_Node000002"><a xlink:href="math__util__2_8c.html#a22aa509214eeed1ba3197762e76d7bed" target="_top" xlink:title=" ">
<polygon fill="white" stroke="#666666" points="219.5,-178.5 128.5,-178.5 128.5,-159.5 219.5,-159.5 219.5,-178.5"/>
<text text-anchor="middle" x="174" y="-166.5" font-family="Helvetica,sans-Serif" font-size="10.00">func_80042330</text>
</a>
</g>
</g>
<!-- Node1&#45;&gt;Node2 -->
<g id="edge1_Node000001_Node000002" class="edge">
<title>Node1&#45;&gt;Node2</title>
<g id="a_edge1_Node000001_Node000002"><a xlink:title=" ">
<path fill="none" stroke="#63b8ff" d="M63.47,-105.54C84.88,-117.95 122.5,-139.74 147.58,-154.27"/>
<polygon fill="#63b8ff" stroke="#63b8ff" points="146.12,-157.47 156.52,-159.45 149.63,-151.41 146.12,-157.47"/>
</a>
</g>
</g>
<!-- Node17 -->
<g id="Node000017" class="node">
<title>Node17</title>
<g id="a_Node000017"><a xlink:href="render__objects_8c.html#ab687ef8b2c2a6efc6c4d84f3a15c0e8a" target="_top" xlink:title=" ">
<polygon fill="white" stroke="#666666" points="220,-67.5 128,-67.5 128,-48.5 220,-48.5 220,-67.5"/>
<text text-anchor="middle" x="174" y="-55.5" font-family="Helvetica,sans-Serif" font-size="10.00">func_800492D4</text>
</a>
</g>
</g>
<!-- Node1&#45;&gt;Node17 -->
<g id="edge18_Node000001_Node000017" class="edge">
<title>Node1&#45;&gt;Node17</title>
<g id="a_edge18_Node000001_Node000017"><a xlink:title=" ">
<path fill="none" stroke="#63b8ff" d="M78.8,-86.41C94.76,-81.6 114.31,-75.7 131.45,-70.53"/>
<polygon fill="#63b8ff" stroke="#63b8ff" points="132.65,-73.82 141.22,-67.59 130.63,-67.12 132.65,-73.82"/>
</a>
</g>
</g>
<!-- Node18 -->
<g id="Node000018" class="node">
<title>Node18</title>
<g id="a_Node000018"><a xlink:href="GBIMiddleware_8cpp.html#a4ecc44e3c6f1ca5a6b4a20c41d3bd2d2" target="_top" xlink:title=" ">
<polygon fill="white" stroke="#666666" points="391,-104.5 302,-104.5 302,-85.5 391,-85.5 391,-104.5"/>
<text text-anchor="middle" x="346.5" y="-92.5" font-family="Helvetica,sans-Serif" font-size="10.00">gSPDisplayList</text>
</a>
</g>
</g>
<!-- Node1&#45;&gt;Node18 -->
<g id="edge25_Node000001_Node000018" class="edge">
<title>Node1&#45;&gt;Node18</title>
<g id="a_edge25_Node000001_Node000018"><a xlink:title=" ">
<path fill="none" stroke="#63b8ff" d="M92.01,-95.85C145.37,-95.67 234.23,-95.37 291.31,-95.18"/>
<polygon fill="#63b8ff" stroke="#63b8ff" points="291.59,-98.68 301.58,-95.15 291.57,-91.68 291.59,-98.68"/>
</a>
</g>
</g>
<!-- Node3 -->
<g id="Node000003" class="node">
<title>Node3</title>
<g id="a_Node000003"><a xlink:href="Matrix_8cpp.html#a329d78c031733cf22ff7518f5d38fd74" target="_top" xlink:title=" ">
<polygon fill="white" stroke="#666666" points="389.5,-294.5 303.5,-294.5 303.5,-275.5 389.5,-275.5 389.5,-294.5"/>
<text text-anchor="middle" x="346.5" y="-282.5" font-family="Helvetica,sans-Serif" font-size="10.00">AddHudMatrix</text>
</a>
</g>
</g>
<!-- Node2&#45;&gt;Node3 -->
<g id="edge2_Node000002_Node000003" class="edge">
<title>Node2&#45;&gt;Node3</title>
<g id="a_edge2_Node000002_Node000003"><a xlink:title=" ">
<path fill="none" stroke="#63b8ff" d="M185.49,-178.79C200.46,-192.5 229.12,-217.77 256,-236 275.17,-249 298.11,-261.51 315.97,-270.63"/>
<polygon fill="#63b8ff" stroke="#63b8ff" points="314.8,-273.96 325.31,-275.33 317.95,-267.71 314.8,-273.96"/>
</a>
</g>
</g>
<!-- Node9 -->
<g id="Node000009" class="node">
<title>Node9</title>
<g id="a_Node000009"><a xlink:href="math__util__2_8c.html#a54b1e79ca4e8d2f7f7256891f9c4e772" target="_top" xlink:title="arg1 and arg2 are s32&#39;s into floats?!?">
<polygon fill="white" stroke="#666666" points="409.5,-227 283.5,-227 283.5,-197 409.5,-197 409.5,-227"/>
<text text-anchor="start" x="291.5" y="-215" font-family="Helvetica,sans-Serif" font-size="10.00">mtxf_translation_x</text>
<text text-anchor="middle" x="346.5" y="-204" font-family="Helvetica,sans-Serif" font-size="10.00">_y_rotate_z_scale_x_y</text>
</a>
</g>
</g>
<!-- Node2&#45;&gt;Node9 -->
<g id="edge8_Node000002_Node000009" class="edge">
<title>Node2&#45;&gt;Node9</title>
<g id="a_edge8_Node000002_Node000009"><a xlink:title=" ">
<path fill="none" stroke="#63b8ff" d="M212.84,-178.54C231.47,-183.24 254.53,-189.06 276.18,-194.52"/>
<polygon fill="#63b8ff" stroke="#63b8ff" points="275.45,-197.94 286,-196.99 277.16,-191.15 275.45,-197.94"/>
</a>
</g>
</g>
<!-- Node13 -->
<g id="Node000013" class="node">
<title>Node13</title>
<g id="a_Node000013"><a xlink:href="Engine_8cpp.html#afc8b077c3a02d35419cae70c83942941" target="_top" xlink:title=" ">
<polygon fill="white" stroke="#666666" points="433,-178.5 260,-178.5 260,-159.5 433,-159.5 433,-178.5"/>
<text text-anchor="middle" x="346.5" y="-166.5" font-family="Helvetica,sans-Serif" font-size="10.00">OTRGetDimensionFromLeftEdge</text>
</a>
</g>
</g>
<!-- Node2&#45;&gt;Node13 -->
<g id="edge13_Node000002_Node000013" class="edge">
<title>Node2&#45;&gt;Node13</title>
<g id="a_edge13_Node000002_Node000013"><a xlink:title=" ">
<path fill="none" stroke="#63b8ff" d="M219.8,-169C229.14,-169 239.33,-169 249.74,-169"/>
<polygon fill="#63b8ff" stroke="#63b8ff" points="249.75,-172.5 259.75,-169 249.75,-165.5 249.75,-172.5"/>
</a>
</g>
</g>
<!-- Node16 -->
<g id="Node000016" class="node">
<title>Node16</title>
<g id="a_Node000016"><a xlink:href="Engine_8cpp.html#a17495ab17d6e9c65b2a76e3c88a7f718" target="_top" xlink:title=" ">
<polygon fill="white" stroke="#666666" points="437,-141.5 256,-141.5 256,-122.5 437,-122.5 437,-141.5"/>
<text text-anchor="middle" x="346.5" y="-129.5" font-family="Helvetica,sans-Serif" font-size="10.00">OTRGetDimensionFromRightEdge</text>
</a>
</g>
</g>
<!-- Node2&#45;&gt;Node16 -->
<g id="edge16_Node000002_Node000016" class="edge">
<title>Node2&#45;&gt;Node16</title>
<g id="a_edge16_Node000002_Node000016"><a xlink:title=" ">
<path fill="none" stroke="#63b8ff" d="M217.44,-159.49C229.86,-156.73 243.47,-153.72 256,-151 266.93,-148.62 278.63,-146.12 289.83,-143.73"/>
<polygon fill="#63b8ff" stroke="#63b8ff" points="290.9,-147.08 299.95,-141.58 289.44,-140.24 290.9,-147.08"/>
</a>
</g>
</g>
<!-- Node4 -->
<g id="Node000004" class="node">
<title>Node4</title>
<g id="a_Node000004"><a xlink:href="Matrix_8cpp.html#a67401ed1d8de1f4d3a3e5a7b72842b6a" target="_top" xlink:title=" ">
<polygon fill="white" stroke="#666666" points="581,-331.5 514,-331.5 514,-312.5 581,-312.5 581,-331.5"/>
<text text-anchor="middle" x="547.5" y="-319.5" font-family="Helvetica,sans-Serif" font-size="10.00">AddMatrix</text>
</a>
</g>
</g>
<!-- Node3&#45;&gt;Node4 -->
<g id="edge3_Node000003_Node000004" class="edge">
<title>Node3&#45;&gt;Node4</title>
<g id="a_edge3_Node000003_Node000004"><a xlink:title=" ">
<path fill="none" stroke="#63b8ff" d="M389.7,-292.85C423.31,-299.09 470.14,-307.8 503.85,-314.07"/>
<polygon fill="#63b8ff" stroke="#63b8ff" points="503.4,-317.55 513.87,-315.93 504.68,-310.66 503.4,-317.55"/>
</a>
</g>
</g>
<!-- Node8 -->
<g id="Node000008" class="node">
<title>Node8</title>
<g id="a_Node000008"><a xlink:href="Game_8cpp.html#ae2fa844b3cb1021ecbc357f8ed2ad8cc" target="_top" xlink:title=" ">
<polygon fill="white" stroke="#666666" points="578.5,-294.5 516.5,-294.5 516.5,-275.5 578.5,-275.5 578.5,-294.5"/>
<text text-anchor="middle" x="547.5" y="-282.5" font-family="Helvetica,sans-Serif" font-size="10.00">GetWorld</text>
</a>
</g>
</g>
<!-- Node3&#45;&gt;Node8 -->
<g id="edge7_Node000003_Node000008" class="edge">
<title>Node3&#45;&gt;Node8</title>
<g id="a_edge7_Node000003_Node000008"><a xlink:title=" ">
<path fill="none" stroke="#63b8ff" d="M389.7,-285C424.13,-285 472.45,-285 506.32,-285"/>
<polygon fill="#63b8ff" stroke="#63b8ff" points="506.34,-288.5 516.34,-285 506.34,-281.5 506.34,-288.5"/>
</a>
</g>
</g>
<!-- Node5 -->
<g id="Node000005" class="node">
<title>Node5</title>
<g id="a_Node000005"><a xlink:href="FrameInterpolation_8cpp.html#a8cf1f2d6fabc6925aa71a9515341b4aa" target="_top" xlink:title=" ">
<polygon fill="white" stroke="#666666" points="808,-337 668,-337 668,-307 808,-307 808,-337"/>
<text text-anchor="start" x="676" y="-325" font-family="Helvetica,sans-Serif" font-size="10.00">FrameInterpolation</text>
<text text-anchor="middle" x="738" y="-314" font-family="Helvetica,sans-Serif" font-size="10.00">_RecordMatrixMtxFToMtx</text>
</a>
</g>
</g>
<!-- Node4&#45;&gt;Node5 -->
<g id="edge4_Node000004_Node000005" class="edge">
<title>Node4&#45;&gt;Node5</title>
<g id="a_edge4_Node000004_Node000005"><a xlink:title=" ">
<path fill="none" stroke="#63b8ff" d="M581.33,-322C602.47,-322 630.91,-322 657.7,-322"/>
<polygon fill="#63b8ff" stroke="#63b8ff" points="657.86,-325.5 667.86,-322 657.86,-318.5 657.86,-325.5"/>
</a>
</g>
</g>
<!-- Node7 -->
<g id="Node000007" class="node">
<title>Node7</title>
<g id="a_Node000007"><a xlink:href="guMtxF2L_8c.html#a40ab2d64c609839ff1e0ef0de2d0dcc4" target="_top" xlink:title=" ">
<polygon fill="white" stroke="#666666" points="770.5,-288.5 705.5,-288.5 705.5,-269.5 770.5,-269.5 770.5,-288.5"/>
<text text-anchor="middle" x="738" y="-276.5" font-family="Helvetica,sans-Serif" font-size="10.00">guMtxF2L</text>
</a>
</g>
</g>
<!-- Node4&#45;&gt;Node7 -->
<g id="edge6_Node000004_Node000007" class="edge">
<title>Node4&#45;&gt;Node7</title>
<g id="a_edge6_Node000004_Node000007"><a xlink:title=" ">
<path fill="none" stroke="#63b8ff" d="M581.33,-314.51C612.98,-307.29 660.97,-296.34 695.3,-288.51"/>
<polygon fill="#63b8ff" stroke="#63b8ff" points="696.51,-291.83 705.48,-286.19 694.95,-285 696.51,-291.83"/>
</a>
</g>
</g>
<!-- Node6 -->
<g id="Node000006" class="node">
<title>Node6</title>
<g id="a_Node000006"><a xlink:href="FrameInterpolation_8cpp.html#a02c7ac5342a4d376edee38f312b480bf" target="_top" xlink:title=" ">
<polygon fill="white" stroke="#666666" points="962,-288.5 854,-288.5 854,-269.5 962,-269.5 962,-288.5"/>
<text text-anchor="middle" x="908" y="-276.5" font-family="Helvetica,sans-Serif" font-size="10.00">check_if_recording</text>
</a>
</g>
</g>
<!-- Node5&#45;&gt;Node6 -->
<g id="edge5_Node000005_Node000006" class="edge">
<title>Node5&#45;&gt;Node6</title>
<g id="a_edge5_Node000005_Node000006"><a xlink:title=" ">
<path fill="none" stroke="#63b8ff" d="M797.76,-306.96C818.14,-301.74 840.72,-295.97 860.03,-291.02"/>
<polygon fill="#63b8ff" stroke="#63b8ff" points="860.98,-294.39 869.8,-288.52 859.24,-287.61 860.98,-294.39"/>
</a>
</g>
</g>
<!-- Node10 -->
<g id="Node000010" class="node">
<title>Node10</title>
<g id="a_Node000010"><a xlink:href="math__util_8c.html#ae69cbf5c8d4b3b0dba2d7b4d4673689f" target="_top" xlink:title=" ">
<polygon fill="white" stroke="#666666" points="566.5,-257.5 528.5,-257.5 528.5,-238.5 566.5,-238.5 566.5,-257.5"/>
<text text-anchor="middle" x="547.5" y="-245.5" font-family="Helvetica,sans-Serif" font-size="10.00">coss</text>
</a>
</g>
</g>
<!-- Node9&#45;&gt;Node10 -->
<g id="edge9_Node000009_Node000010" class="edge">
<title>Node9&#45;&gt;Node10</title>
<g id="a_edge9_Node000009_Node000010"><a xlink:title=" ">
<path fill="none" stroke="#63b8ff" d="M409.65,-223.24C446.05,-229.83 490.26,-237.83 518.39,-242.91"/>
<polygon fill="#63b8ff" stroke="#63b8ff" points="517.87,-246.38 528.33,-244.71 519.11,-239.49 517.87,-246.38"/>
</a>
</g>
</g>
<!-- Node11 -->
<g id="Node000011" class="node">
<title>Node11</title>
<g id="a_Node000011"><a xlink:href="FrameInterpolation_8cpp.html#aeb9128118a5441a4bf264c302e761fe1" target="_top" xlink:title=" ">
<polygon fill="white" stroke="#666666" points="818,-238 658,-238 658,-208 818,-208 818,-238"/>
<text text-anchor="start" x="666" y="-226" font-family="Helvetica,sans-Serif" font-size="10.00">FrameInterpolation</text>
<text text-anchor="middle" x="738" y="-215" font-family="Helvetica,sans-Serif" font-size="10.00">_RecordMatrixPosRotScaleXY</text>
</a>
</g>
</g>
<!-- Node9&#45;&gt;Node11 -->
<g id="edge10_Node000009_Node000011" class="edge">
<title>Node9&#45;&gt;Node11</title>
<g id="a_edge10_Node000009_Node000011"><a xlink:title=" ">
<path fill="none" stroke="#63b8ff" d="M409.65,-213.76C473.96,-215.57 575,-218.42 647.82,-220.48"/>
<polygon fill="#63b8ff" stroke="#63b8ff" points="647.81,-223.98 657.9,-220.77 648.01,-216.99 647.81,-223.98"/>
</a>
</g>
</g>
<!-- Node12 -->
<g id="Node000012" class="node">
<title>Node12</title>
<g id="a_Node000012"><a xlink:href="math__util_8c.html#a19ed3bd78fd2d3e2bd0a29f6caf48545" target="_top" xlink:title=" ">
<polygon fill="white" stroke="#666666" points="565.5,-181.5 529.5,-181.5 529.5,-162.5 565.5,-162.5 565.5,-181.5"/>
<text text-anchor="middle" x="547.5" y="-169.5" font-family="Helvetica,sans-Serif" font-size="10.00">sins</text>
</a>
</g>
</g>
<!-- Node9&#45;&gt;Node12 -->
<g id="edge12_Node000009_Node000012" class="edge">
<title>Node9&#45;&gt;Node12</title>
<g id="a_edge12_Node000009_Node000012"><a xlink:title=" ">
<path fill="none" stroke="#63b8ff" d="M409.65,-199.51C446.45,-192.11 491.24,-183.11 519.32,-177.46"/>
<polygon fill="#63b8ff" stroke="#63b8ff" points="520.1,-180.88 529.21,-175.48 518.72,-174.01 520.1,-180.88"/>
</a>
</g>
</g>
<!-- Node11&#45;&gt;Node6 -->
<g id="edge11_Node000011_Node000006" class="edge">
<title>Node11&#45;&gt;Node6</title>
<g id="a_edge11_Node000011_Node000006"><a xlink:title=" ">
<path fill="none" stroke="#63b8ff" d="M784.02,-238.01C810.53,-246.84 843.71,-257.9 868.91,-266.3"/>
<polygon fill="#63b8ff" stroke="#63b8ff" points="867.9,-269.66 878.5,-269.5 870.12,-263.02 867.9,-269.66"/>
</a>
</g>
</g>
<!-- Node14 -->
<g id="Node000014" class="node">
<title>Node14</title>
<g id="a_Node000014"><a xlink:href="Engine_8cpp.html#a130aa97f1c7fae24f3d23f8126e7506f" target="_top" xlink:title=" ">
<polygon fill="white" stroke="#666666" points="604,-142.5 491,-142.5 491,-123.5 604,-123.5 604,-142.5"/>
<text text-anchor="middle" x="547.5" y="-130.5" font-family="Helvetica,sans-Serif" font-size="10.00">OTRGetAspectRatio</text>
</a>
</g>
</g>
<!-- Node13&#45;&gt;Node14 -->
<g id="edge14_Node000013_Node000014" class="edge">
<title>Node13&#45;&gt;Node14</title>
<g id="a_edge14_Node000013_Node000014"><a xlink:title=" ">
<path fill="none" stroke="#63b8ff" d="M400.05,-159.49C425.67,-154.86 456.7,-149.25 483.58,-144.38"/>
<polygon fill="#63b8ff" stroke="#63b8ff" points="484.44,-147.78 493.66,-142.56 483.2,-140.9 484.44,-147.78"/>
</a>
</g>
</g>
<!-- Node15 -->
<g id="Node000015" class="node">
<title>Node15</title>
<g id="a_Node000015"><a xlink:href="Engine_8cpp.html#a29357c424545be61af4bd28d84fd344a" target="_top" xlink:title=" ">
<polygon fill="white" stroke="#666666" points="781,-142.5 695,-142.5 695,-123.5 781,-123.5 781,-142.5"/>
<text text-anchor="middle" x="738" y="-130.5" font-family="Helvetica,sans-Serif" font-size="10.00">GetInterpreter</text>
</a>
</g>
</g>
<!-- Node14&#45;&gt;Node15 -->
<g id="edge15_Node000014_Node000015" class="edge">
<title>Node14&#45;&gt;Node15</title>
<g id="a_edge15_Node000014_Node000015"><a xlink:title=" ">
<path fill="none" stroke="#63b8ff" d="M604.04,-133C629.52,-133 659.58,-133 684.66,-133"/>
<polygon fill="#63b8ff" stroke="#63b8ff" points="684.72,-136.5 694.72,-133 684.72,-129.5 684.72,-136.5"/>
</a>
</g>
</g>
<!-- Node16&#45;&gt;Node14 -->
<g id="edge17_Node000016_Node000014" class="edge">
<title>Node16&#45;&gt;Node14</title>
<g id="a_edge17_Node000016_Node000014"><a xlink:title=" ">
<path fill="none" stroke="#63b8ff" d="M437.1,-132.45C451.65,-132.52 466.49,-132.6 480.35,-132.67"/>
<polygon fill="#63b8ff" stroke="#63b8ff" points="480.72,-136.17 490.74,-132.72 480.76,-129.17 480.72,-136.17"/>
</a>
</g>
</g>
<!-- Node17&#45;&gt;Node18 -->
<g id="edge19_Node000017_Node000018" class="edge">
<title>Node17&#45;&gt;Node18</title>
<g id="a_edge19_Node000017_Node000018"><a xlink:title=" ">
<path fill="none" stroke="#63b8ff" d="M214.49,-67.53C227.67,-70.64 242.45,-74.05 256,-77 267.5,-79.5 279.86,-82.07 291.61,-84.45"/>
<polygon fill="#63b8ff" stroke="#63b8ff" points="291.25,-87.95 301.74,-86.49 292.63,-81.09 291.25,-87.95"/>
</a>
</g>
</g>
<!-- Node21 -->
<g id="Node000021" class="node">
<title>Node21</title>
<g id="a_Node000021"><a xlink:href="GBIMiddleware_8cpp.html#aeef79449a27a710d73576e4a4f7f7f99" target="_top" xlink:title=" ">
<polygon fill="white" stroke="#666666" points="379.5,-67.5 313.5,-67.5 313.5,-48.5 379.5,-48.5 379.5,-67.5"/>
<text text-anchor="middle" x="346.5" y="-55.5" font-family="Helvetica,sans-Serif" font-size="10.00">gSPVertex</text>
</a>
</g>
</g>
<!-- Node17&#45;&gt;Node21 -->
<g id="edge22_Node000017_Node000021" class="edge">
<title>Node17&#45;&gt;Node21</title>
<g id="a_edge22_Node000017_Node000021"><a xlink:title=" ">
<path fill="none" stroke="#63b8ff" d="M220.24,-58C246,-58 278.05,-58 303.28,-58"/>
<polygon fill="#63b8ff" stroke="#63b8ff" points="303.29,-61.5 313.29,-58 303.29,-54.5 303.29,-61.5"/>
</a>
</g>
</g>
<!-- Node22 -->
<g id="Node000022" class="node">
<title>Node22</title>
<g id="a_Node000022"><a xlink:href="render__objects_8c.html#a36eddea0c0ee0ae1fb20b028998d90c6" target="_top" xlink:title=" ">
<polygon fill="white" stroke="#666666" points="401.5,-30 291.5,-30 291.5,0 401.5,0 401.5,-30"/>
<text text-anchor="start" x="299.5" y="-18" font-family="Helvetica,sans-Serif" font-size="10.00">load_texture_block</text>
<text text-anchor="middle" x="346.5" y="-7" font-family="Helvetica,sans-Serif" font-size="10.00">_ia8_nomirror</text>
</a>
</g>
</g>
<!-- Node17&#45;&gt;Node22 -->
<g id="edge24_Node000017_Node000022" class="edge">
<title>Node17&#45;&gt;Node22</title>
<g id="a_edge24_Node000017_Node000022"><a xlink:title=" ">
<path fill="none" stroke="#63b8ff" d="M212.84,-48.46C233.01,-43.37 258.38,-36.97 281.51,-31.14"/>
<polygon fill="#63b8ff" stroke="#63b8ff" points="282.43,-34.52 291.27,-28.68 280.72,-27.73 282.43,-34.52"/>
</a>
</g>
</g>
<!-- Node19 -->
<g id="Node000019" class="node">
<title>Node19</title>
<g id="a_Node000019"><a xlink:href="Engine_8cpp.html#a223c8bc63f228dc11177515e38eff2db" target="_top" xlink:title=" ">
<polygon fill="white" stroke="#666666" points="622,-86.5 473,-86.5 473,-67.5 622,-67.5 622,-86.5"/>
<text text-anchor="middle" x="547.5" y="-74.5" font-family="Helvetica,sans-Serif" font-size="10.00">GameEngine_OTRSigCheck</text>
</a>
</g>
</g>
<!-- Node18&#45;&gt;Node19 -->
<g id="edge20_Node000018_Node000019" class="edge">
<title>Node18&#45;&gt;Node19</title>
<g id="a_edge20_Node000018_Node000019"><a xlink:title=" ">
<path fill="none" stroke="#63b8ff" d="M391.17,-91.05C412.19,-89.15 438.12,-86.8 462.73,-84.58"/>
<polygon fill="#63b8ff" stroke="#63b8ff" points="463.17,-88.05 472.81,-83.67 462.54,-81.08 463.17,-88.05"/>
</a>
</g>
</g>
<!-- Node20 -->
<g id="Node000020" class="node">
<title>Node20</title>
<g id="a_Node000020"><a xlink:href="string_8c.html#a008e171a518fe0e0352f31b245e03875" target="_top" xlink:title=" ">
<polygon fill="white" stroke="#666666" points="760,-86.5 716,-86.5 716,-67.5 760,-67.5 760,-86.5"/>
<text text-anchor="middle" x="738" y="-74.5" font-family="Helvetica,sans-Serif" font-size="10.00">strlen</text>
</a>
</g>
</g>
<!-- Node19&#45;&gt;Node20 -->
<g id="edge21_Node000019_Node000020" class="edge">
<title>Node19&#45;&gt;Node20</title>
<g id="a_edge21_Node000019_Node000020"><a xlink:title=" ">
<path fill="none" stroke="#63b8ff" d="M622.19,-77C651.25,-77 683.05,-77 705.8,-77"/>
<polygon fill="#63b8ff" stroke="#63b8ff" points="705.88,-80.5 715.88,-77 705.88,-73.5 705.88,-80.5"/>
</a>
</g>
</g>
<!-- Node21&#45;&gt;Node19 -->
<g id="edge23_Node000021_Node000019" class="edge">
<title>Node21&#45;&gt;Node19</title>
<g id="a_edge23_Node000021_Node000019"><a xlink:title=" ">
<path fill="none" stroke="#63b8ff" d="M379.92,-61.09C402.38,-63.24 433.38,-66.2 462.55,-68.98"/>
<polygon fill="#63b8ff" stroke="#63b8ff" points="462.49,-72.49 472.78,-69.96 463.15,-65.53 462.49,-72.49"/>
</a>
</g>
</g>
</g>
</svg>
