<?xml version="1.0" encoding="UTF-8" standalone="no"?>
<!DOCTYPE svg PUBLIC "-//W3C//DTD SVG 1.1//EN"
 "http://www.w3.org/Graphics/SVG/1.1/DTD/svg11.dtd">
<!-- Generated by graphviz version 2.43.0 (0)
 -->
<!-- Title: render_ghost Pages: 1 -->
<svg width="580pt" height="396pt"
 viewBox="0.00 0.00 580.00 395.50" xmlns="http://www.w3.org/2000/svg" xmlns:xlink="http://www.w3.org/1999/xlink">
<g id="graph0" class="graph" transform="scale(1 1) rotate(0) translate(4 391.5)">
<title>render_ghost</title>
<!-- Node1 -->
<g id="Node000001" class="node">
<title>Node1</title>
<g id="a_Node000001"><a xlink:title=" ">
<polygon fill="#999999" stroke="#666666" points="80,-168 0,-168 0,-149 80,-149 80,-168"/>
<text text-anchor="middle" x="40" y="-156" font-family="Helvetica,sans-Serif" font-size="10.00">render_ghost</text>
</a>
</g>
</g>
<!-- Node2 -->
<g id="Node000002" class="node">
<title>Node2</title>
<g id="a_Node000002"><a xlink:href="render__player_8c.html#ab7bf9484e155990f138e03ae5339fc84" target="_top" xlink:title=" ">
<polygon fill="white" stroke="#666666" points="243,-301.5 116,-301.5 116,-271.5 243,-271.5 243,-301.5"/>
<text text-anchor="start" x="124" y="-289.5" font-family="Helvetica,sans-Serif" font-size="10.00">convert_to_fixed_point</text>
<text text-anchor="middle" x="179.5" y="-278.5" font-family="Helvetica,sans-Serif" font-size="10.00">_matrix</text>
</a>
</g>
</g>
<!-- Node1&#45;&gt;Node2 -->
<g id="edge1_Node000001_Node000002" class="edge">
<title>Node1&#45;&gt;Node2</title>
<g id="a_edge1_Node000001_Node000002"><a xlink:title=" ">
<path fill="none" stroke="#63b8ff" d="M46.78,-168.07C58.18,-186.33 85.12,-226.61 116,-252.5 122.06,-257.58 128.99,-262.24 135.98,-266.38"/>
<polygon fill="#63b8ff" stroke="#63b8ff" points="134.38,-269.49 144.81,-271.34 137.8,-263.39 134.38,-269.49"/>
</a>
</g>
</g>
<!-- Node6 -->
<g id="Node000006" class="node">
<title>Node6</title>
<g id="a_Node000006"><a xlink:href="render__objects_8c.html#a3412bd1100bae2a7228c53d260c4c5c5" target="_top" xlink:title=" ">
<polygon fill="white" stroke="#666666" points="225.5,-130 133.5,-130 133.5,-111 225.5,-111 225.5,-130"/>
<text text-anchor="middle" x="179.5" y="-118" font-family="Helvetica,sans-Serif" font-size="10.00">func_8004B614</text>
</a>
</g>
</g>
<!-- Node1&#45;&gt;Node6 -->
<g id="edge5_Node000001_Node000006" class="edge">
<title>Node1&#45;&gt;Node6</title>
<g id="a_edge5_Node000001_Node000006"><a xlink:title=" ">
<path fill="none" stroke="#63b8ff" d="M75.7,-148.91C93.37,-144.03 115.05,-138.04 133.94,-132.82"/>
<polygon fill="#63b8ff" stroke="#63b8ff" points="135.11,-136.12 143.81,-130.09 133.24,-129.38 135.11,-136.12"/>
</a>
</g>
</g>
<!-- Node7 -->
<g id="Node000007" class="node">
<title>Node7</title>
<g id="a_Node000007"><a xlink:href="code__80057C60_8c.html#a156481baa44e5305c016e2902a91bbb1" target="_top" xlink:title=" ">
<polygon fill="white" stroke="#666666" points="225.5,-206 133.5,-206 133.5,-187 225.5,-187 225.5,-206"/>
<text text-anchor="middle" x="179.5" y="-194" font-family="Helvetica,sans-Serif" font-size="10.00">func_80062B18</text>
</a>
</g>
</g>
<!-- Node1&#45;&gt;Node7 -->
<g id="edge6_Node000001_Node000007" class="edge">
<title>Node1&#45;&gt;Node7</title>
<g id="a_edge6_Node000001_Node000007"><a xlink:title=" ">
<path fill="none" stroke="#63b8ff" d="M75.7,-168.09C93.37,-172.97 115.05,-178.96 133.94,-184.18"/>
<polygon fill="#63b8ff" stroke="#63b8ff" points="133.24,-187.62 143.81,-186.91 135.11,-180.88 133.24,-187.62"/>
</a>
</g>
</g>
<!-- Node9 -->
<g id="Node000009" class="node">
<title>Node9</title>
<g id="a_Node000009"><a xlink:href="math__util_8c.html#a19ed3bd78fd2d3e2bd0a29f6caf48545" target="_top" xlink:title=" ">
<polygon fill="white" stroke="#666666" points="371.5,-168 335.5,-168 335.5,-149 371.5,-149 371.5,-168"/>
<text text-anchor="middle" x="353.5" y="-156" font-family="Helvetica,sans-Serif" font-size="10.00">sins</text>
</a>
</g>
</g>
<!-- Node1&#45;&gt;Node9 -->
<g id="edge24_Node000001_Node000009" class="edge">
<title>Node1&#45;&gt;Node9</title>
<g id="a_edge24_Node000001_Node000009"><a xlink:title=" ">
<path fill="none" stroke="#63b8ff" d="M80.14,-158.5C144.17,-158.5 269.74,-158.5 325.13,-158.5"/>
<polygon fill="#63b8ff" stroke="#63b8ff" points="325.24,-162 335.24,-158.5 325.24,-155 325.24,-162"/>
</a>
</g>
</g>
<!-- Node10 -->
<g id="Node000010" class="node">
<title>Node10</title>
<g id="a_Node000010"><a xlink:href="Matrix_8cpp.html#af805a31a5c4552d53503ad9a2b228896" target="_top" xlink:title=" ">
<polygon fill="white" stroke="#666666" points="222.5,-93 136.5,-93 136.5,-74 222.5,-74 222.5,-93"/>
<text text-anchor="middle" x="179.5" y="-81" font-family="Helvetica,sans-Serif" font-size="10.00">GetKartMatrix</text>
</a>
</g>
</g>
<!-- Node1&#45;&gt;Node10 -->
<g id="edge9_Node000001_Node000010" class="edge">
<title>Node1&#45;&gt;Node10</title>
<g id="a_edge9_Node000001_Node000010"><a xlink:title=" ">
<path fill="none" stroke="#63b8ff" d="M51.39,-148.87C65.19,-136.55 90.77,-115.26 116,-102.5 120.5,-100.22 125.33,-98.16 130.23,-96.32"/>
<polygon fill="#63b8ff" stroke="#63b8ff" points="131.39,-99.62 139.67,-93.02 129.08,-93.01 131.39,-99.62"/>
</a>
</g>
</g>
<!-- Node12 -->
<g id="Node000012" class="node">
<title>Node12</title>
<g id="a_Node000012"><a xlink:href="GBIMiddleware_8cpp.html#a4ecc44e3c6f1ca5a6b4a20c41d3bd2d2" target="_top" xlink:title=" ">
<polygon fill="white" stroke="#666666" points="224,-19 135,-19 135,0 224,0 224,-19"/>
<text text-anchor="middle" x="179.5" y="-7" font-family="Helvetica,sans-Serif" font-size="10.00">gSPDisplayList</text>
</a>
</g>
</g>
<!-- Node1&#45;&gt;Node12 -->
<g id="edge11_Node000001_Node000012" class="edge">
<title>Node1&#45;&gt;Node12</title>
<g id="a_edge11_Node000001_Node000012"><a xlink:title=" ">
<path fill="none" stroke="#63b8ff" d="M43.71,-148.92C51.07,-124.72 73.74,-60.68 116,-27.5 118.93,-25.2 122.13,-23.2 125.5,-21.45"/>
<polygon fill="#63b8ff" stroke="#63b8ff" points="126.97,-24.63 134.71,-17.4 124.15,-18.22 126.97,-24.63"/>
</a>
</g>
</g>
<!-- Node15 -->
<g id="Node000015" class="node">
<title>Node15</title>
<g id="a_Node000015"><a xlink:href="GBIMiddleware_8cpp.html#aeef79449a27a710d73576e4a4f7f7f99" target="_top" xlink:title=" ">
<polygon fill="white" stroke="#666666" points="212.5,-56 146.5,-56 146.5,-37 212.5,-37 212.5,-56"/>
<text text-anchor="middle" x="179.5" y="-44" font-family="Helvetica,sans-Serif" font-size="10.00">gSPVertex</text>
</a>
</g>
</g>
<!-- Node1&#45;&gt;Node15 -->
<g id="edge14_Node000001_Node000015" class="edge">
<title>Node1&#45;&gt;Node15</title>
<g id="a_edge14_Node000001_Node000015"><a xlink:title=" ">
<path fill="none" stroke="#63b8ff" d="M46.2,-148.74C56.77,-129.81 82.64,-88.01 116,-65.5 122.2,-61.31 129.36,-58.02 136.57,-55.44"/>
<polygon fill="#63b8ff" stroke="#63b8ff" points="137.87,-58.7 146.35,-52.35 135.76,-52.03 137.87,-58.7"/>
</a>
</g>
</g>
<!-- Node16 -->
<g id="Node000016" class="node">
<title>Node16</title>
<g id="a_Node000016"><a xlink:href="math__util_8c.html#aca95a220db79fe028b35270f35a4a7b3" target="_top" xlink:title=" ">
<polygon fill="white" stroke="#666666" points="215,-361 144,-361 144,-342 215,-342 215,-361"/>
<text text-anchor="middle" x="179.5" y="-349" font-family="Helvetica,sans-Serif" font-size="10.00">mtxf_scale</text>
</a>
</g>
</g>
<!-- Node1&#45;&gt;Node16 -->
<g id="edge16_Node000001_Node000016" class="edge">
<title>Node1&#45;&gt;Node16</title>
<g id="a_edge16_Node000001_Node000016"><a xlink:title=" ">
<path fill="none" stroke="#63b8ff" d="M43.76,-168.06C51.51,-193.65 75.64,-264.88 116,-310.5 125.36,-321.08 138.07,-330.08 149.58,-336.93"/>
<polygon fill="#63b8ff" stroke="#63b8ff" points="148.04,-340.08 158.47,-341.95 151.48,-333.98 148.04,-340.08"/>
</a>
</g>
</g>
<!-- Node18 -->
<g id="Node000018" class="node">
<title>Node18</title>
<g id="a_Node000018"><a xlink:href="render__player_8c.html#a565e21fd6aa0dacea58fb8a0e4304772" target="_top" xlink:title=" ">
<polygon fill="white" stroke="#666666" points="241,-243 118,-243 118,-224 241,-224 241,-243"/>
<text text-anchor="middle" x="179.5" y="-231" font-family="Helvetica,sans-Serif" font-size="10.00">mtxf_translate_rotate</text>
</a>
</g>
</g>
<!-- Node1&#45;&gt;Node18 -->
<g id="edge19_Node000001_Node000018" class="edge">
<title>Node1&#45;&gt;Node18</title>
<g id="a_edge19_Node000001_Node000018"><a xlink:title=" ">
<path fill="none" stroke="#63b8ff" d="M51.33,-168.37C65.06,-180.99 90.57,-202.74 116,-215.5 119.75,-217.38 123.72,-219.09 127.78,-220.65"/>
<polygon fill="#63b8ff" stroke="#63b8ff" points="126.73,-223.99 137.33,-224 129.05,-217.39 126.73,-223.99"/>
</a>
</g>
</g>
<!-- Node3 -->
<g id="Node000003" class="node">
<title>Node3</title>
<g id="a_Node000003"><a xlink:href="FrameInterpolation_8cpp.html#a8cf1f2d6fabc6925aa71a9515341b4aa" target="_top" xlink:title=" ">
<polygon fill="white" stroke="#666666" points="423.5,-301.5 283.5,-301.5 283.5,-271.5 423.5,-271.5 423.5,-301.5"/>
<text text-anchor="start" x="291.5" y="-289.5" font-family="Helvetica,sans-Serif" font-size="10.00">FrameInterpolation</text>
<text text-anchor="middle" x="353.5" y="-278.5" font-family="Helvetica,sans-Serif" font-size="10.00">_RecordMatrixMtxFToMtx</text>
</a>
</g>
</g>
<!-- Node2&#45;&gt;Node3 -->
<g id="edge2_Node000002_Node000003" class="edge">
<title>Node2&#45;&gt;Node3</title>
<g id="a_edge2_Node000002_Node000003"><a xlink:title=" ">
<path fill="none" stroke="#63b8ff" d="M243.08,-286.5C252.88,-286.5 263.12,-286.5 273.23,-286.5"/>
<polygon fill="#63b8ff" stroke="#63b8ff" points="273.28,-290 283.28,-286.5 273.28,-283 273.28,-290"/>
</a>
</g>
</g>
<!-- Node5 -->
<g id="Node000005" class="node">
<title>Node5</title>
<g id="a_Node000005"><a xlink:href="guMtxF2L_8c.html#a40ab2d64c609839ff1e0ef0de2d0dcc4" target="_top" xlink:title=" ">
<polygon fill="white" stroke="#666666" points="386,-339 321,-339 321,-320 386,-320 386,-339"/>
<text text-anchor="middle" x="353.5" y="-327" font-family="Helvetica,sans-Serif" font-size="10.00">guMtxF2L</text>
</a>
</g>
</g>
<!-- Node2&#45;&gt;Node5 -->
<g id="edge4_Node000002_Node000005" class="edge">
<title>Node2&#45;&gt;Node5</title>
<g id="a_edge4_Node000002_Node000005"><a xlink:title=" ">
<path fill="none" stroke="#63b8ff" d="M240.66,-301.54C263.8,-307.33 289.7,-313.8 310.74,-319.06"/>
<polygon fill="#63b8ff" stroke="#63b8ff" points="310.1,-322.51 320.65,-321.54 311.79,-315.72 310.1,-322.51"/>
</a>
</g>
</g>
<!-- Node4 -->
<g id="Node000004" class="node">
<title>Node4</title>
<g id="a_Node000004"><a xlink:href="FrameInterpolation_8cpp.html#a02c7ac5342a4d376edee38f312b480bf" target="_top" xlink:title=" ">
<polygon fill="white" stroke="#666666" points="572,-296 464,-296 464,-277 572,-277 572,-296"/>
<text text-anchor="middle" x="518" y="-284" font-family="Helvetica,sans-Serif" font-size="10.00">check_if_recording</text>
</a>
</g>
</g>
<!-- Node3&#45;&gt;Node4 -->
<g id="edge3_Node000003_Node000004" class="edge">
<title>Node3&#45;&gt;Node4</title>
<g id="a_edge3_Node000003_Node000004"><a xlink:title=" ">
<path fill="none" stroke="#63b8ff" d="M423.89,-286.5C433.64,-286.5 443.63,-286.5 453.27,-286.5"/>
<polygon fill="#63b8ff" stroke="#63b8ff" points="453.58,-290 463.58,-286.5 453.58,-283 453.58,-290"/>
</a>
</g>
</g>
<!-- Node8 -->
<g id="Node000008" class="node">
<title>Node8</title>
<g id="a_Node000008"><a xlink:href="math__util_8c.html#ae69cbf5c8d4b3b0dba2d7b4d4673689f" target="_top" xlink:title=" ">
<polygon fill="white" stroke="#666666" points="372.5,-205 334.5,-205 334.5,-186 372.5,-186 372.5,-205"/>
<text text-anchor="middle" x="353.5" y="-193" font-family="Helvetica,sans-Serif" font-size="10.00">coss</text>
</a>
</g>
</g>
<!-- Node7&#45;&gt;Node8 -->
<g id="edge7_Node000007_Node000008" class="edge">
<title>Node7&#45;&gt;Node8</title>
<g id="a_edge7_Node000007_Node000008"><a xlink:title=" ">
<path fill="none" stroke="#63b8ff" d="M225.69,-196.24C256.83,-196.06 297.27,-195.82 324.01,-195.67"/>
<polygon fill="#63b8ff" stroke="#63b8ff" points="324.25,-199.16 334.23,-195.61 324.21,-192.16 324.25,-199.16"/>
</a>
</g>
</g>
<!-- Node7&#45;&gt;Node9 -->
<g id="edge8_Node000007_Node000009" class="edge">
<title>Node7&#45;&gt;Node9</title>
<g id="a_edge8_Node000007_Node000009"><a xlink:title=" ">
<path fill="none" stroke="#63b8ff" d="M223.9,-186.91C255.71,-179.88 297.91,-170.56 325.14,-164.55"/>
<polygon fill="#63b8ff" stroke="#63b8ff" points="326.12,-167.91 335.13,-162.34 324.61,-161.08 326.12,-167.91"/>
</a>
</g>
</g>
<!-- Node11 -->
<g id="Node000011" class="node">
<title>Node11</title>
<g id="a_Node000011"><a xlink:href="Game_8cpp.html#ae2fa844b3cb1021ecbc357f8ed2ad8cc" target="_top" xlink:title=" ">
<polygon fill="white" stroke="#666666" points="384.5,-93 322.5,-93 322.5,-74 384.5,-74 384.5,-93"/>
<text text-anchor="middle" x="353.5" y="-81" font-family="Helvetica,sans-Serif" font-size="10.00">GetWorld</text>
</a>
</g>
</g>
<!-- Node10&#45;&gt;Node11 -->
<g id="edge10_Node000010_Node000011" class="edge">
<title>Node10&#45;&gt;Node11</title>
<g id="a_edge10_Node000010_Node000011"><a xlink:title=" ">
<path fill="none" stroke="#63b8ff" d="M222.58,-83.5C249.88,-83.5 285.26,-83.5 312.21,-83.5"/>
<polygon fill="#63b8ff" stroke="#63b8ff" points="312.45,-87 322.45,-83.5 312.45,-80 312.45,-87"/>
</a>
</g>
</g>
<!-- Node13 -->
<g id="Node000013" class="node">
<title>Node13</title>
<g id="a_Node000013"><a xlink:href="Engine_8cpp.html#a223c8bc63f228dc11177515e38eff2db" target="_top" xlink:title=" ">
<polygon fill="white" stroke="#666666" points="428,-38 279,-38 279,-19 428,-19 428,-38"/>
<text text-anchor="middle" x="353.5" y="-26" font-family="Helvetica,sans-Serif" font-size="10.00">GameEngine_OTRSigCheck</text>
</a>
</g>
</g>
<!-- Node12&#45;&gt;Node13 -->
<g id="edge12_Node000012_Node000013" class="edge">
<title>Node12&#45;&gt;Node13</title>
<g id="a_edge12_Node000012_Node000013"><a xlink:title=" ">
<path fill="none" stroke="#63b8ff" d="M224.35,-14.34C237.98,-15.85 253.5,-17.56 268.91,-19.27"/>
<polygon fill="#63b8ff" stroke="#63b8ff" points="268.67,-22.76 279,-20.38 269.44,-15.8 268.67,-22.76"/>
</a>
</g>
</g>
<!-- Node14 -->
<g id="Node000014" class="node">
<title>Node14</title>
<g id="a_Node000014"><a xlink:href="string_8c.html#a008e171a518fe0e0352f31b245e03875" target="_top" xlink:title=" ">
<polygon fill="white" stroke="#666666" points="540,-38 496,-38 496,-19 540,-19 540,-38"/>
<text text-anchor="middle" x="518" y="-26" font-family="Helvetica,sans-Serif" font-size="10.00">strlen</text>
</a>
</g>
</g>
<!-- Node13&#45;&gt;Node14 -->
<g id="edge13_Node000013_Node000014" class="edge">
<title>Node13&#45;&gt;Node14</title>
<g id="a_edge13_Node000013_Node000014"><a xlink:title=" ">
<path fill="none" stroke="#63b8ff" d="M428.14,-28.5C448.4,-28.5 469.28,-28.5 485.72,-28.5"/>
<polygon fill="#63b8ff" stroke="#63b8ff" points="485.82,-32 495.82,-28.5 485.82,-25 485.82,-32"/>
</a>
</g>
</g>
<!-- Node15&#45;&gt;Node13 -->
<g id="edge15_Node000015_Node000013" class="edge">
<title>Node15&#45;&gt;Node13</title>
<g id="a_edge15_Node000015_Node000013"><a xlink:title=" ">
<path fill="none" stroke="#63b8ff" d="M212.85,-43.11C228.84,-41.44 248.94,-39.34 268.87,-37.25"/>
<polygon fill="#63b8ff" stroke="#63b8ff" points="269.35,-40.72 278.93,-36.2 268.62,-33.76 269.35,-40.72"/>
</a>
</g>
</g>
<!-- Node17 -->
<g id="Node000017" class="node">
<title>Node17</title>
<g id="a_Node000017"><a xlink:href="FrameInterpolation_8cpp.html#ad8eff15a52471a7a9c4801f2f23124e6" target="_top" xlink:title=" ">
<polygon fill="white" stroke="#666666" points="410,-387.5 297,-387.5 297,-357.5 410,-357.5 410,-387.5"/>
<text text-anchor="start" x="305" y="-375.5" font-family="Helvetica,sans-Serif" font-size="10.00">FrameInterpolation</text>
<text text-anchor="middle" x="353.5" y="-364.5" font-family="Helvetica,sans-Serif" font-size="10.00">_RecordMatrixScale</text>
</a>
</g>
</g>
<!-- Node16&#45;&gt;Node17 -->
<g id="edge17_Node000016_Node000017" class="edge">
<title>Node16&#45;&gt;Node17</title>
<g id="a_edge17_Node000016_Node000017"><a xlink:title=" ">
<path fill="none" stroke="#63b8ff" d="M215.31,-355.75C235.75,-358.25 262.26,-361.48 286.52,-364.44"/>
<polygon fill="#63b8ff" stroke="#63b8ff" points="286.4,-367.96 296.75,-365.69 287.25,-361.01 286.4,-367.96"/>
</a>
</g>
</g>
<!-- Node17&#45;&gt;Node4 -->
<g id="edge18_Node000017_Node000004" class="edge">
<title>Node17&#45;&gt;Node4</title>
<g id="a_edge18_Node000017_Node000004"><a xlink:title=" ">
<path fill="none" stroke="#63b8ff" d="M407.06,-357.43C414.23,-354.78 421.39,-351.79 428,-348.5 453.55,-335.78 480.05,-316.38 497.41,-302.68"/>
<polygon fill="#63b8ff" stroke="#63b8ff" points="500,-305.09 505.6,-296.1 495.62,-299.63 500,-305.09"/>
</a>
</g>
</g>
<!-- Node18&#45;&gt;Node8 -->
<g id="edge20_Node000018_Node000008" class="edge">
<title>Node18&#45;&gt;Node8</title>
<g id="a_edge20_Node000018_Node000008"><a xlink:title=" ">
<path fill="none" stroke="#63b8ff" d="M223.9,-223.91C255.36,-216.96 296.98,-207.77 324.23,-201.75"/>
<polygon fill="#63b8ff" stroke="#63b8ff" points="325.26,-205.1 334.27,-199.53 323.75,-198.27 325.26,-205.1"/>
</a>
</g>
</g>
<!-- Node18&#45;&gt;Node9 -->
<g id="edge23_Node000018_Node000009" class="edge">
<title>Node18&#45;&gt;Node9</title>
<g id="a_edge23_Node000018_Node000009"><a xlink:title=" ">
<path fill="none" stroke="#63b8ff" d="M224.79,-223.96C231.14,-221.69 237.4,-218.9 243,-215.5 262.88,-203.41 258.96,-189.31 279,-177.5 293.16,-169.15 310.97,-164.43 325.51,-161.78"/>
<polygon fill="#63b8ff" stroke="#63b8ff" points="326.1,-165.23 335.42,-160.19 325,-158.32 326.1,-165.23"/>
</a>
</g>
</g>
<!-- Node19 -->
<g id="Node000019" class="node">
<title>Node19</title>
<g id="a_Node000019"><a xlink:href="FrameInterpolation_8cpp.html#aafa8768b46143c8110779aa8afdfe41c" target="_top" xlink:title=" ">
<polygon fill="white" stroke="#666666" points="419.5,-253.5 287.5,-253.5 287.5,-223.5 419.5,-223.5 419.5,-253.5"/>
<text text-anchor="start" x="295.5" y="-241.5" font-family="Helvetica,sans-Serif" font-size="10.00">FrameInterpolation</text>
<text text-anchor="middle" x="353.5" y="-230.5" font-family="Helvetica,sans-Serif" font-size="10.00">_RecordTranslateRotate</text>
</a>
</g>
</g>
<!-- Node18&#45;&gt;Node19 -->
<g id="edge21_Node000018_Node000019" class="edge">
<title>Node18&#45;&gt;Node19</title>
<g id="a_edge21_Node000018_Node000019"><a xlink:title=" ">
<path fill="none" stroke="#63b8ff" d="M241.14,-235.26C252.85,-235.6 265.25,-235.96 277.36,-236.32"/>
<polygon fill="#63b8ff" stroke="#63b8ff" points="277.35,-239.82 287.44,-236.61 277.55,-232.82 277.35,-239.82"/>
</a>
</g>
</g>
<!-- Node19&#45;&gt;Node4 -->
<g id="edge22_Node000019_Node000004" class="edge">
<title>Node19&#45;&gt;Node4</title>
<g id="a_edge22_Node000019_Node000004"><a xlink:title=" ">
<path fill="none" stroke="#63b8ff" d="M405.47,-253.56C427.81,-260.15 453.71,-267.8 474.93,-274.07"/>
<polygon fill="#63b8ff" stroke="#63b8ff" points="474.04,-277.46 484.62,-276.94 476.02,-270.75 474.04,-277.46"/>
</a>
</g>
</g>
</g>
</svg>
