<?xml version="1.0" encoding="UTF-8" standalone="no"?>
<!DOCTYPE svg PUBLIC "-//W3C//DTD SVG 1.1//EN"
 "http://www.w3.org/Graphics/SVG/1.1/DTD/svg11.dtd">
<!-- Generated by graphviz version 2.43.0 (0)
 -->
<!-- Title: render_light_environment_on_player Pages: 1 -->
<svg width="454pt" height="161pt"
 viewBox="0.00 0.00 454.00 160.50" xmlns="http://www.w3.org/2000/svg" xmlns:xlink="http://www.w3.org/1999/xlink">
<g id="graph0" class="graph" transform="scale(1 1) rotate(0) translate(4 156.5)">
<title>render_light_environment_on_player</title>
<!-- Node1 -->
<g id="Node000001" class="node">
<title>Node1</title>
<g id="a_Node000001"><a xlink:title=" ">
<polygon fill="#999999" stroke="#666666" points="143,-82.5 0,-82.5 0,-52.5 143,-52.5 143,-82.5"/>
<text text-anchor="start" x="8" y="-70.5" font-family="Helvetica,sans-Serif" font-size="10.00">render_light_environment</text>
<text text-anchor="middle" x="71.5" y="-59.5" font-family="Helvetica,sans-Serif" font-size="10.00">_on_player</text>
</a>
</g>
</g>
<!-- Node2 -->
<g id="Node000002" class="node">
<title>Node2</title>
<g id="a_Node000002"><a xlink:href="render__player_8c.html#a009cdad636fecfb5282fedd1bd0e309a" target="_top" xlink:title=" ">
<polygon fill="white" stroke="#666666" points="297,-152.5 180,-152.5 180,-122.5 297,-122.5 297,-152.5"/>
<text text-anchor="start" x="188" y="-140.5" font-family="Helvetica,sans-Serif" font-size="10.00">change_player_color</text>
<text text-anchor="middle" x="238.5" y="-129.5" font-family="Helvetica,sans-Serif" font-size="10.00">_effect_cmy</text>
</a>
</g>
</g>
<!-- Node1&#45;&gt;Node2 -->
<g id="edge1_Node000001_Node000002" class="edge">
<title>Node1&#45;&gt;Node2</title>
<g id="a_edge1_Node000001_Node000002"><a xlink:title=" ">
<path fill="none" stroke="#63b8ff" d="M106.96,-82.58C127.78,-91.64 154.87,-103.34 179,-113.5 182.93,-115.15 187.01,-116.86 191.11,-118.56"/>
<polygon fill="#63b8ff" stroke="#63b8ff" points="190.05,-121.91 200.63,-122.5 192.73,-115.44 190.05,-121.91"/>
</a>
</g>
</g>
<!-- Node4 -->
<g id="Node000004" class="node">
<title>Node4</title>
<g id="a_Node000004"><a xlink:href="render__player_8c.html#a07dbadab7ba48d1fcb9ec5987f329ad0" target="_top" xlink:title=" ">
<polygon fill="white" stroke="#666666" points="297,-104.5 180,-104.5 180,-74.5 297,-74.5 297,-104.5"/>
<text text-anchor="start" x="188" y="-92.5" font-family="Helvetica,sans-Serif" font-size="10.00">change_player_color</text>
<text text-anchor="middle" x="238.5" y="-81.5" font-family="Helvetica,sans-Serif" font-size="10.00">_effect_rgb</text>
</a>
</g>
</g>
<!-- Node1&#45;&gt;Node4 -->
<g id="edge3_Node000001_Node000004" class="edge">
<title>Node1&#45;&gt;Node4</title>
<g id="a_edge3_Node000001_Node000004"><a xlink:title=" ">
<path fill="none" stroke="#63b8ff" d="M143.43,-76.96C152.16,-78.12 161.06,-79.31 169.74,-80.47"/>
<polygon fill="#63b8ff" stroke="#63b8ff" points="169.42,-83.95 179.8,-81.81 170.35,-77.02 169.42,-83.95"/>
</a>
</g>
</g>
<!-- Node5 -->
<g id="Node000005" class="node">
<title>Node5</title>
<g id="a_Node000005"><a xlink:href="Game_8cpp.html#a3d68a6ff4410ee26c335fc679d815d5d" target="_top" xlink:title=" ">
<polygon fill="white" stroke="#666666" points="298,-56 179,-56 179,-37 298,-37 298,-56"/>
<text text-anchor="middle" x="238.5" y="-44" font-family="Helvetica,sans-Serif" font-size="10.00">IsBansheeBoardwalk</text>
</a>
</g>
</g>
<!-- Node1&#45;&gt;Node5 -->
<g id="edge4_Node000001_Node000005" class="edge">
<title>Node1&#45;&gt;Node5</title>
<g id="a_edge4_Node000001_Node000005"><a xlink:title=" ">
<path fill="none" stroke="#63b8ff" d="M143.43,-58.47C151.82,-57.41 160.36,-56.32 168.71,-55.25"/>
<polygon fill="#63b8ff" stroke="#63b8ff" points="169.3,-58.71 178.78,-53.97 168.42,-51.76 169.3,-58.71"/>
</a>
</g>
</g>
<!-- Node8 -->
<g id="Node000008" class="node">
<title>Node8</title>
<g id="a_Node000008"><a xlink:href="Game_8cpp.html#a8ebd6a4d970e4333ab5a9dd66c3d9c48" target="_top" xlink:title=" ">
<polygon fill="white" stroke="#666666" points="287,-19 190,-19 190,0 287,0 287,-19"/>
<text text-anchor="middle" x="238.5" y="-7" font-family="Helvetica,sans-Serif" font-size="10.00">IsBowsersCastle</text>
</a>
</g>
</g>
<!-- Node1&#45;&gt;Node8 -->
<g id="edge7_Node000001_Node000008" class="edge">
<title>Node1&#45;&gt;Node8</title>
<g id="a_edge7_Node000001_Node000008"><a xlink:title=" ">
<path fill="none" stroke="#63b8ff" d="M110.75,-52.49C130.94,-44.73 156.2,-35.28 179,-27.5 184.28,-25.7 189.85,-23.88 195.38,-22.12"/>
<polygon fill="#63b8ff" stroke="#63b8ff" points="196.7,-25.38 205.2,-19.05 194.61,-18.7 196.7,-25.38"/>
</a>
</g>
</g>
<!-- Node3 -->
<g id="Node000003" class="node">
<title>Node3</title>
<g id="a_Node000003"><a xlink:href="render__player_8c.html#ae2617cc0ed2c6786543b6fd58d27a857" target="_top" xlink:title=" ">
<polygon fill="white" stroke="#666666" points="446,-147 334,-147 334,-128 446,-128 446,-147"/>
<text text-anchor="middle" x="390" y="-135" font-family="Helvetica,sans-Serif" font-size="10.00">move_u16_towards</text>
</a>
</g>
</g>
<!-- Node2&#45;&gt;Node3 -->
<g id="edge2_Node000002_Node000003" class="edge">
<title>Node2&#45;&gt;Node3</title>
<g id="a_edge2_Node000002_Node000003"><a xlink:title=" ">
<path fill="none" stroke="#63b8ff" d="M297.3,-137.5C305.92,-137.5 314.86,-137.5 323.63,-137.5"/>
<polygon fill="#63b8ff" stroke="#63b8ff" points="323.81,-141 333.81,-137.5 323.81,-134 323.81,-141"/>
</a>
</g>
</g>
<!-- Node6 -->
<g id="Node000006" class="node">
<title>Node6</title>
<g id="a_Node000006"><a xlink:href="classWorld.html#a1a4dacc6aea0b846df998be0afc239f7" target="_top" xlink:title=" ">
<polygon fill="white" stroke="#666666" points="436.5,-19 343.5,-19 343.5,0 436.5,0 436.5,-19"/>
<text text-anchor="middle" x="390" y="-7" font-family="Helvetica,sans-Serif" font-size="10.00">World::GetTrack</text>
</a>
</g>
</g>
<!-- Node5&#45;&gt;Node6 -->
<g id="edge5_Node000005_Node000006" class="edge">
<title>Node5&#45;&gt;Node6</title>
<g id="a_edge5_Node000005_Node000006"><a xlink:title=" ">
<path fill="none" stroke="#63b8ff" d="M278,-36.97C297.02,-32.26 320.17,-26.53 340.4,-21.53"/>
<polygon fill="#63b8ff" stroke="#63b8ff" points="341.5,-24.86 350.37,-19.06 339.82,-18.07 341.5,-24.86"/>
</a>
</g>
</g>
<!-- Node7 -->
<g id="Node000007" class="node">
<title>Node7</title>
<g id="a_Node000007"><a xlink:href="Game_8cpp.html#ae2fa844b3cb1021ecbc357f8ed2ad8cc" target="_top" xlink:title=" ">
<polygon fill="white" stroke="#666666" points="421,-56 359,-56 359,-37 421,-37 421,-56"/>
<text text-anchor="middle" x="390" y="-44" font-family="Helvetica,sans-Serif" font-size="10.00">GetWorld</text>
</a>
</g>
</g>
<!-- Node5&#45;&gt;Node7 -->
<g id="edge6_Node000005_Node000007" class="edge">
<title>Node5&#45;&gt;Node7</title>
<g id="a_edge6_Node000005_Node000007"><a xlink:title=" ">
<path fill="none" stroke="#63b8ff" d="M298.16,-46.5C315.04,-46.5 333.07,-46.5 348.58,-46.5"/>
<polygon fill="#63b8ff" stroke="#63b8ff" points="348.87,-50 358.87,-46.5 348.87,-43 348.87,-50"/>
</a>
</g>
</g>
<!-- Node8&#45;&gt;Node6 -->
<g id="edge8_Node000008_Node000006" class="edge">
<title>Node8&#45;&gt;Node6</title>
<g id="a_edge8_Node000008_Node000006"><a xlink:title=" ">
<path fill="none" stroke="#63b8ff" d="M287.21,-9.5C301.79,-9.5 317.96,-9.5 333.04,-9.5"/>
<polygon fill="#63b8ff" stroke="#63b8ff" points="333.27,-13 343.27,-9.5 333.27,-6 333.27,-13"/>
</a>
</g>
</g>
<!-- Node8&#45;&gt;Node7 -->
<g id="edge9_Node000008_Node000007" class="edge">
<title>Node8&#45;&gt;Node7</title>
<g id="a_edge9_Node000008_Node000007"><a xlink:title=" ">
<path fill="none" stroke="#63b8ff" d="M278,-19.03C299.76,-24.41 326.92,-31.14 348.93,-36.58"/>
<polygon fill="#63b8ff" stroke="#63b8ff" points="348.09,-39.98 358.64,-38.99 349.78,-33.19 348.09,-39.98"/>
</a>
</g>
</g>
</g>
</svg>
