<?xml version="1.0" encoding="UTF-8" standalone="no"?>
<!DOCTYPE svg PUBLIC "-//W3C//DTD SVG 1.1//EN"
 "http://www.w3.org/Graphics/SVG/1.1/DTD/svg11.dtd">
<!-- Generated by graphviz version 2.43.0 (0)
 -->
<!-- Title: func_8004BA98 Pages: 1 -->
<svg width="792pt" height="64pt"
 viewBox="0.00 0.00 792.00 64.00" xmlns="http://www.w3.org/2000/svg" xmlns:xlink="http://www.w3.org/1999/xlink">
<g id="graph0" class="graph" transform="scale(1 1) rotate(0) translate(4 60)">
<title>func_8004BA98</title>
<!-- Node1 -->
<g id="Node000001" class="node">
<title>Node1</title>
<g id="a_Node000001"><a xlink:title=" ">
<polygon fill="#999999" stroke="#666666" points="92,-37 0,-37 0,-18 92,-18 92,-37"/>
<text text-anchor="middle" x="46" y="-25" font-family="Helvetica,sans-Serif" font-size="10.00">func_8004BA98</text>
</a>
</g>
</g>
<!-- Node2 -->
<g id="Node000002" class="node">
<title>Node2</title>
<g id="a_Node000002"><a xlink:href="render__objects_8c.html#aadbe7ac97f3cbf7b4c06e645f6dcbb74" target="_top" xlink:title=" ">
<polygon fill="white" stroke="#666666" points="296,-37 128,-37 128,-18 296,-18 296,-37"/>
<text text-anchor="middle" x="212" y="-25" font-family="Helvetica,sans-Serif" font-size="10.00">render_texture_rectangle_wide</text>
</a>
</g>
</g>
<!-- Node1&#45;&gt;Node2 -->
<g id="edge1_Node000001_Node000002" class="edge">
<title>Node1&#45;&gt;Node2</title>
<g id="a_edge1_Node000001_Node000002"><a xlink:title=" ">
<path fill="none" stroke="#63b8ff" d="M92.25,-27.5C100.31,-27.5 108.96,-27.5 117.8,-27.5"/>
<polygon fill="#63b8ff" stroke="#63b8ff" points="117.82,-31 127.82,-27.5 117.82,-24 117.82,-31"/>
</a>
</g>
</g>
<!-- Node3 -->
<g id="Node000003" class="node">
<title>Node3</title>
<g id="a_Node000003"><a xlink:href="Engine_8cpp.html#afc8b077c3a02d35419cae70c83942941" target="_top" xlink:title=" ">
<polygon fill="white" stroke="#666666" points="509,-56 336,-56 336,-37 509,-37 509,-56"/>
<text text-anchor="middle" x="422.5" y="-44" font-family="Helvetica,sans-Serif" font-size="10.00">OTRGetDimensionFromLeftEdge</text>
</a>
</g>
</g>
<!-- Node2&#45;&gt;Node3 -->
<g id="edge2_Node000002_Node000003" class="edge">
<title>Node2&#45;&gt;Node3</title>
<g id="a_edge2_Node000002_Node000003"><a xlink:title=" ">
<path fill="none" stroke="#63b8ff" d="M296,-35.06C305.7,-35.95 315.65,-36.85 325.5,-37.75"/>
<polygon fill="#63b8ff" stroke="#63b8ff" points="325.43,-41.26 335.71,-38.68 326.07,-34.29 325.43,-41.26"/>
</a>
</g>
</g>
<!-- Node6 -->
<g id="Node000006" class="node">
<title>Node6</title>
<g id="a_Node000006"><a xlink:href="Engine_8cpp.html#a17495ab17d6e9c65b2a76e3c88a7f718" target="_top" xlink:title=" ">
<polygon fill="white" stroke="#666666" points="513,-19 332,-19 332,0 513,0 513,-19"/>
<text text-anchor="middle" x="422.5" y="-7" font-family="Helvetica,sans-Serif" font-size="10.00">OTRGetDimensionFromRightEdge</text>
</a>
</g>
</g>
<!-- Node2&#45;&gt;Node6 -->
<g id="edge5_Node000002_Node000006" class="edge">
<title>Node2&#45;&gt;Node6</title>
<g id="a_edge5_Node000002_Node000006"><a xlink:title=" ">
<path fill="none" stroke="#63b8ff" d="M296,-20.33C304.49,-19.6 313.18,-18.85 321.82,-18.11"/>
<polygon fill="#63b8ff" stroke="#63b8ff" points="322.27,-21.58 331.93,-17.23 321.67,-14.61 322.27,-21.58"/>
</a>
</g>
</g>
<!-- Node4 -->
<g id="Node000004" class="node">
<title>Node4</title>
<g id="a_Node000004"><a xlink:href="Engine_8cpp.html#a130aa97f1c7fae24f3d23f8126e7506f" target="_top" xlink:title=" ">
<polygon fill="white" stroke="#666666" points="662,-37 549,-37 549,-18 662,-18 662,-37"/>
<text text-anchor="middle" x="605.5" y="-25" font-family="Helvetica,sans-Serif" font-size="10.00">OTRGetAspectRatio</text>
</a>
</g>
</g>
<!-- Node3&#45;&gt;Node4 -->
<g id="edge3_Node000003_Node000004" class="edge">
<title>Node3&#45;&gt;Node4</title>
<g id="a_edge3_Node000003_Node000004"><a xlink:title=" ">
<path fill="none" stroke="#63b8ff" d="M509.23,-37.5C519.09,-36.47 529.03,-35.42 538.58,-34.42"/>
<polygon fill="#63b8ff" stroke="#63b8ff" points="539.18,-37.88 548.76,-33.35 538.45,-30.91 539.18,-37.88"/>
</a>
</g>
</g>
<!-- Node5 -->
<g id="Node000005" class="node">
<title>Node5</title>
<g id="a_Node000005"><a xlink:href="Engine_8cpp.html#a29357c424545be61af4bd28d84fd344a" target="_top" xlink:title=" ">
<polygon fill="white" stroke="#666666" points="784,-37 698,-37 698,-18 784,-18 784,-37"/>
<text text-anchor="middle" x="741" y="-25" font-family="Helvetica,sans-Serif" font-size="10.00">GetInterpreter</text>
</a>
</g>
</g>
<!-- Node4&#45;&gt;Node5 -->
<g id="edge4_Node000004_Node000005" class="edge">
<title>Node4&#45;&gt;Node5</title>
<g id="a_edge4_Node000004_Node000005"><a xlink:title=" ">
<path fill="none" stroke="#63b8ff" d="M662.34,-27.5C670.68,-27.5 679.26,-27.5 687.52,-27.5"/>
<polygon fill="#63b8ff" stroke="#63b8ff" points="687.79,-31 697.79,-27.5 687.79,-24 687.79,-31"/>
</a>
</g>
</g>
<!-- Node6&#45;&gt;Node4 -->
<g id="edge6_Node000006_Node000004" class="edge">
<title>Node6&#45;&gt;Node4</title>
<g id="a_edge6_Node000006_Node000004"><a xlink:title=" ">
<path fill="none" stroke="#63b8ff" d="M513.2,-18.42C521.8,-19.28 530.4,-20.13 538.71,-20.96"/>
<polygon fill="#63b8ff" stroke="#63b8ff" points="538.37,-24.44 548.67,-21.95 539.06,-17.48 538.37,-24.44"/>
</a>
</g>
</g>
</g>
</svg>
