<?xml version="1.0" encoding="UTF-8" standalone="no"?>
<!DOCTYPE svg PUBLIC "-//W3C//DTD SVG 1.1//EN"
 "http://www.w3.org/Graphics/SVG/1.1/DTD/svg11.dtd">
<!-- Generated by graphviz version 2.43.0 (0)
 -->
<!-- Title: func_8004A0B0 Pages: 1 -->
<svg width="970pt" height="334pt"
 viewBox="0.00 0.00 970.00 333.50" xmlns="http://www.w3.org/2000/svg" xmlns:xlink="http://www.w3.org/1999/xlink">
<g id="graph0" class="graph" transform="scale(1 1) rotate(0) translate(4 329.5)">
<title>func_8004A0B0</title>
<!-- Node1 -->
<g id="Node000001" class="node">
<title>Node1</title>
<g id="a_Node000001"><a xlink:title=" ">
<polygon fill="#999999" stroke="#666666" points="92,-57 0,-57 0,-38 92,-38 92,-57"/>
<text text-anchor="middle" x="46" y="-45" font-family="Helvetica,sans-Serif" font-size="10.00">func_8004A0B0</text>
</a>
</g>
</g>
<!-- Node2 -->
<g id="Node000002" class="node">
<title>Node2</title>
<g id="a_Node000002"><a xlink:href="math__util__2_8c.html#a22aa509214eeed1ba3197762e76d7bed" target="_top" xlink:title=" ">
<polygon fill="white" stroke="#666666" points="219.5,-167 128.5,-167 128.5,-148 219.5,-148 219.5,-167"/>
<text text-anchor="middle" x="174" y="-155" font-family="Helvetica,sans-Serif" font-size="10.00">func_80042330</text>
</a>
</g>
</g>
<!-- Node1&#45;&gt;Node2 -->
<g id="edge1_Node000001_Node000002" class="edge">
<title>Node1&#45;&gt;Node2</title>
<g id="a_edge1_Node000001_Node000002"><a xlink:title=" ">
<path fill="none" stroke="#63b8ff" d="M58.18,-57.26C79.81,-76.15 127.59,-117.86 154.19,-141.08"/>
<polygon fill="#63b8ff" stroke="#63b8ff" points="152.19,-143.98 162.02,-147.92 156.79,-138.7 152.19,-143.98"/>
</a>
</g>
</g>
<!-- Node17 -->
<g id="Node000017" class="node">
<title>Node17</title>
<g id="a_Node000017"><a xlink:href="render__objects_8c.html#a9d23fcf5b0e240eb1194c6a6409a16ef" target="_top" xlink:title=" ">
<polygon fill="white" stroke="#666666" points="220,-57 128,-57 128,-38 220,-38 220,-57"/>
<text text-anchor="middle" x="174" y="-45" font-family="Helvetica,sans-Serif" font-size="10.00">func_8004961C</text>
</a>
</g>
</g>
<!-- Node1&#45;&gt;Node17 -->
<g id="edge18_Node000001_Node000017" class="edge">
<title>Node1&#45;&gt;Node17</title>
<g id="a_edge18_Node000001_Node000017"><a xlink:title=" ">
<path fill="none" stroke="#63b8ff" d="M92.13,-47.5C100.37,-47.5 109.04,-47.5 117.53,-47.5"/>
<polygon fill="#63b8ff" stroke="#63b8ff" points="117.76,-51 127.76,-47.5 117.76,-44 117.76,-51"/>
</a>
</g>
</g>
<!-- Node19 -->
<g id="Node000019" class="node">
<title>Node19</title>
<g id="a_Node000019"><a xlink:href="GBIMiddleware_8cpp.html#a4ecc44e3c6f1ca5a6b4a20c41d3bd2d2" target="_top" xlink:title=" ">
<polygon fill="white" stroke="#666666" points="391,-19 302,-19 302,0 391,0 391,-19"/>
<text text-anchor="middle" x="346.5" y="-7" font-family="Helvetica,sans-Serif" font-size="10.00">gSPDisplayList</text>
</a>
</g>
</g>
<!-- Node1&#45;&gt;Node19 -->
<g id="edge25_Node000001_Node000019" class="edge">
<title>Node1&#45;&gt;Node19</title>
<g id="a_edge25_Node000001_Node000019"><a xlink:title=" ">
<path fill="none" stroke="#63b8ff" d="M82.67,-37.97C96.71,-34.53 113.02,-30.9 128,-28.5 183.44,-19.62 247.54,-14.66 291.72,-12.05"/>
<polygon fill="#63b8ff" stroke="#63b8ff" points="292.16,-15.53 301.95,-11.47 291.76,-8.54 292.16,-15.53"/>
</a>
</g>
</g>
<!-- Node3 -->
<g id="Node000003" class="node">
<title>Node3</title>
<g id="a_Node000003"><a xlink:href="Matrix_8cpp.html#a329d78c031733cf22ff7518f5d38fd74" target="_top" xlink:title=" ">
<polygon fill="white" stroke="#666666" points="389.5,-283 303.5,-283 303.5,-264 389.5,-264 389.5,-283"/>
<text text-anchor="middle" x="346.5" y="-271" font-family="Helvetica,sans-Serif" font-size="10.00">AddHudMatrix</text>
</a>
</g>
</g>
<!-- Node2&#45;&gt;Node3 -->
<g id="edge2_Node000002_Node000003" class="edge">
<title>Node2&#45;&gt;Node3</title>
<g id="a_edge2_Node000002_Node000003"><a xlink:title=" ">
<path fill="none" stroke="#63b8ff" d="M185.49,-167.29C200.46,-181 229.12,-206.27 256,-224.5 275.17,-237.5 298.11,-250.01 315.97,-259.13"/>
<polygon fill="#63b8ff" stroke="#63b8ff" points="314.8,-262.46 325.31,-263.83 317.95,-256.21 314.8,-262.46"/>
</a>
</g>
</g>
<!-- Node9 -->
<g id="Node000009" class="node">
<title>Node9</title>
<g id="a_Node000009"><a xlink:href="math__util__2_8c.html#a54b1e79ca4e8d2f7f7256891f9c4e772" target="_top" xlink:title="arg1 and arg2 are s32&#39;s into floats?!?">
<polygon fill="white" stroke="#666666" points="409.5,-215.5 283.5,-215.5 283.5,-185.5 409.5,-185.5 409.5,-215.5"/>
<text text-anchor="start" x="291.5" y="-203.5" font-family="Helvetica,sans-Serif" font-size="10.00">mtxf_translation_x</text>
<text text-anchor="middle" x="346.5" y="-192.5" font-family="Helvetica,sans-Serif" font-size="10.00">_y_rotate_z_scale_x_y</text>
</a>
</g>
</g>
<!-- Node2&#45;&gt;Node9 -->
<g id="edge8_Node000002_Node000009" class="edge">
<title>Node2&#45;&gt;Node9</title>
<g id="a_edge8_Node000002_Node000009"><a xlink:title=" ">
<path fill="none" stroke="#63b8ff" d="M212.84,-167.04C231.47,-171.74 254.53,-177.56 276.18,-183.02"/>
<polygon fill="#63b8ff" stroke="#63b8ff" points="275.45,-186.44 286,-185.49 277.16,-179.65 275.45,-186.44"/>
</a>
</g>
</g>
<!-- Node13 -->
<g id="Node000013" class="node">
<title>Node13</title>
<g id="a_Node000013"><a xlink:href="Engine_8cpp.html#afc8b077c3a02d35419cae70c83942941" target="_top" xlink:title=" ">
<polygon fill="white" stroke="#666666" points="433,-167 260,-167 260,-148 433,-148 433,-167"/>
<text text-anchor="middle" x="346.5" y="-155" font-family="Helvetica,sans-Serif" font-size="10.00">OTRGetDimensionFromLeftEdge</text>
</a>
</g>
</g>
<!-- Node2&#45;&gt;Node13 -->
<g id="edge13_Node000002_Node000013" class="edge">
<title>Node2&#45;&gt;Node13</title>
<g id="a_edge13_Node000002_Node000013"><a xlink:title=" ">
<path fill="none" stroke="#63b8ff" d="M219.8,-157.5C229.14,-157.5 239.33,-157.5 249.74,-157.5"/>
<polygon fill="#63b8ff" stroke="#63b8ff" points="249.75,-161 259.75,-157.5 249.75,-154 249.75,-161"/>
</a>
</g>
</g>
<!-- Node16 -->
<g id="Node000016" class="node">
<title>Node16</title>
<g id="a_Node000016"><a xlink:href="Engine_8cpp.html#a17495ab17d6e9c65b2a76e3c88a7f718" target="_top" xlink:title=" ">
<polygon fill="white" stroke="#666666" points="437,-130 256,-130 256,-111 437,-111 437,-130"/>
<text text-anchor="middle" x="346.5" y="-118" font-family="Helvetica,sans-Serif" font-size="10.00">OTRGetDimensionFromRightEdge</text>
</a>
</g>
</g>
<!-- Node2&#45;&gt;Node16 -->
<g id="edge16_Node000002_Node000016" class="edge">
<title>Node2&#45;&gt;Node16</title>
<g id="a_edge16_Node000002_Node000016"><a xlink:title=" ">
<path fill="none" stroke="#63b8ff" d="M217.44,-147.99C229.86,-145.23 243.47,-142.22 256,-139.5 266.93,-137.12 278.63,-134.62 289.83,-132.23"/>
<polygon fill="#63b8ff" stroke="#63b8ff" points="290.9,-135.58 299.95,-130.08 289.44,-128.74 290.9,-135.58"/>
</a>
</g>
</g>
<!-- Node4 -->
<g id="Node000004" class="node">
<title>Node4</title>
<g id="a_Node000004"><a xlink:href="Matrix_8cpp.html#a67401ed1d8de1f4d3a3e5a7b72842b6a" target="_top" xlink:title=" ">
<polygon fill="white" stroke="#666666" points="581,-320 514,-320 514,-301 581,-301 581,-320"/>
<text text-anchor="middle" x="547.5" y="-308" font-family="Helvetica,sans-Serif" font-size="10.00">AddMatrix</text>
</a>
</g>
</g>
<!-- Node3&#45;&gt;Node4 -->
<g id="edge3_Node000003_Node000004" class="edge">
<title>Node3&#45;&gt;Node4</title>
<g id="a_edge3_Node000003_Node000004"><a xlink:title=" ">
<path fill="none" stroke="#63b8ff" d="M389.7,-281.35C423.31,-287.59 470.14,-296.3 503.85,-302.57"/>
<polygon fill="#63b8ff" stroke="#63b8ff" points="503.4,-306.05 513.87,-304.43 504.68,-299.16 503.4,-306.05"/>
</a>
</g>
</g>
<!-- Node8 -->
<g id="Node000008" class="node">
<title>Node8</title>
<g id="a_Node000008"><a xlink:href="Game_8cpp.html#ae2fa844b3cb1021ecbc357f8ed2ad8cc" target="_top" xlink:title=" ">
<polygon fill="white" stroke="#666666" points="578.5,-283 516.5,-283 516.5,-264 578.5,-264 578.5,-283"/>
<text text-anchor="middle" x="547.5" y="-271" font-family="Helvetica,sans-Serif" font-size="10.00">GetWorld</text>
</a>
</g>
</g>
<!-- Node3&#45;&gt;Node8 -->
<g id="edge7_Node000003_Node000008" class="edge">
<title>Node3&#45;&gt;Node8</title>
<g id="a_edge7_Node000003_Node000008"><a xlink:title=" ">
<path fill="none" stroke="#63b8ff" d="M389.7,-273.5C424.13,-273.5 472.45,-273.5 506.32,-273.5"/>
<polygon fill="#63b8ff" stroke="#63b8ff" points="506.34,-277 516.34,-273.5 506.34,-270 506.34,-277"/>
</a>
</g>
</g>
<!-- Node5 -->
<g id="Node000005" class="node">
<title>Node5</title>
<g id="a_Node000005"><a xlink:href="FrameInterpolation_8cpp.html#a8cf1f2d6fabc6925aa71a9515341b4aa" target="_top" xlink:title=" ">
<polygon fill="white" stroke="#666666" points="808,-325.5 668,-325.5 668,-295.5 808,-295.5 808,-325.5"/>
<text text-anchor="start" x="676" y="-313.5" font-family="Helvetica,sans-Serif" font-size="10.00">FrameInterpolation</text>
<text text-anchor="middle" x="738" y="-302.5" font-family="Helvetica,sans-Serif" font-size="10.00">_RecordMatrixMtxFToMtx</text>
</a>
</g>
</g>
<!-- Node4&#45;&gt;Node5 -->
<g id="edge4_Node000004_Node000005" class="edge">
<title>Node4&#45;&gt;Node5</title>
<g id="a_edge4_Node000004_Node000005"><a xlink:title=" ">
<path fill="none" stroke="#63b8ff" d="M581.33,-310.5C602.47,-310.5 630.91,-310.5 657.7,-310.5"/>
<polygon fill="#63b8ff" stroke="#63b8ff" points="657.86,-314 667.86,-310.5 657.86,-307 657.86,-314"/>
</a>
</g>
</g>
<!-- Node7 -->
<g id="Node000007" class="node">
<title>Node7</title>
<g id="a_Node000007"><a xlink:href="guMtxF2L_8c.html#a40ab2d64c609839ff1e0ef0de2d0dcc4" target="_top" xlink:title=" ">
<polygon fill="white" stroke="#666666" points="770.5,-277 705.5,-277 705.5,-258 770.5,-258 770.5,-277"/>
<text text-anchor="middle" x="738" y="-265" font-family="Helvetica,sans-Serif" font-size="10.00">guMtxF2L</text>
</a>
</g>
</g>
<!-- Node4&#45;&gt;Node7 -->
<g id="edge6_Node000004_Node000007" class="edge">
<title>Node4&#45;&gt;Node7</title>
<g id="a_edge6_Node000004_Node000007"><a xlink:title=" ">
<path fill="none" stroke="#63b8ff" d="M581.33,-303.01C612.98,-295.79 660.97,-284.84 695.3,-277.01"/>
<polygon fill="#63b8ff" stroke="#63b8ff" points="696.51,-280.33 705.48,-274.69 694.95,-273.5 696.51,-280.33"/>
</a>
</g>
</g>
<!-- Node6 -->
<g id="Node000006" class="node">
<title>Node6</title>
<g id="a_Node000006"><a xlink:href="FrameInterpolation_8cpp.html#a02c7ac5342a4d376edee38f312b480bf" target="_top" xlink:title=" ">
<polygon fill="white" stroke="#666666" points="962,-277 854,-277 854,-258 962,-258 962,-277"/>
<text text-anchor="middle" x="908" y="-265" font-family="Helvetica,sans-Serif" font-size="10.00">check_if_recording</text>
</a>
</g>
</g>
<!-- Node5&#45;&gt;Node6 -->
<g id="edge5_Node000005_Node000006" class="edge">
<title>Node5&#45;&gt;Node6</title>
<g id="a_edge5_Node000005_Node000006"><a xlink:title=" ">
<path fill="none" stroke="#63b8ff" d="M797.76,-295.46C818.14,-290.24 840.72,-284.47 860.03,-279.52"/>
<polygon fill="#63b8ff" stroke="#63b8ff" points="860.98,-282.89 869.8,-277.02 859.24,-276.11 860.98,-282.89"/>
</a>
</g>
</g>
<!-- Node10 -->
<g id="Node000010" class="node">
<title>Node10</title>
<g id="a_Node000010"><a xlink:href="math__util_8c.html#ae69cbf5c8d4b3b0dba2d7b4d4673689f" target="_top" xlink:title=" ">
<polygon fill="white" stroke="#666666" points="566.5,-246 528.5,-246 528.5,-227 566.5,-227 566.5,-246"/>
<text text-anchor="middle" x="547.5" y="-234" font-family="Helvetica,sans-Serif" font-size="10.00">coss</text>
</a>
</g>
</g>
<!-- Node9&#45;&gt;Node10 -->
<g id="edge9_Node000009_Node000010" class="edge">
<title>Node9&#45;&gt;Node10</title>
<g id="a_edge9_Node000009_Node000010"><a xlink:title=" ">
<path fill="none" stroke="#63b8ff" d="M409.65,-211.74C446.05,-218.33 490.26,-226.33 518.39,-231.41"/>
<polygon fill="#63b8ff" stroke="#63b8ff" points="517.87,-234.88 528.33,-233.21 519.11,-227.99 517.87,-234.88"/>
</a>
</g>
</g>
<!-- Node11 -->
<g id="Node000011" class="node">
<title>Node11</title>
<g id="a_Node000011"><a xlink:href="FrameInterpolation_8cpp.html#aeb9128118a5441a4bf264c302e761fe1" target="_top" xlink:title=" ">
<polygon fill="white" stroke="#666666" points="818,-226.5 658,-226.5 658,-196.5 818,-196.5 818,-226.5"/>
<text text-anchor="start" x="666" y="-214.5" font-family="Helvetica,sans-Serif" font-size="10.00">FrameInterpolation</text>
<text text-anchor="middle" x="738" y="-203.5" font-family="Helvetica,sans-Serif" font-size="10.00">_RecordMatrixPosRotScaleXY</text>
</a>
</g>
</g>
<!-- Node9&#45;&gt;Node11 -->
<g id="edge10_Node000009_Node000011" class="edge">
<title>Node9&#45;&gt;Node11</title>
<g id="a_edge10_Node000009_Node000011"><a xlink:title=" ">
<path fill="none" stroke="#63b8ff" d="M409.65,-202.26C473.96,-204.07 575,-206.92 647.82,-208.98"/>
<polygon fill="#63b8ff" stroke="#63b8ff" points="647.81,-212.48 657.9,-209.27 648.01,-205.49 647.81,-212.48"/>
</a>
</g>
</g>
<!-- Node12 -->
<g id="Node000012" class="node">
<title>Node12</title>
<g id="a_Node000012"><a xlink:href="math__util_8c.html#a19ed3bd78fd2d3e2bd0a29f6caf48545" target="_top" xlink:title=" ">
<polygon fill="white" stroke="#666666" points="565.5,-170 529.5,-170 529.5,-151 565.5,-151 565.5,-170"/>
<text text-anchor="middle" x="547.5" y="-158" font-family="Helvetica,sans-Serif" font-size="10.00">sins</text>
</a>
</g>
</g>
<!-- Node9&#45;&gt;Node12 -->
<g id="edge12_Node000009_Node000012" class="edge">
<title>Node9&#45;&gt;Node12</title>
<g id="a_edge12_Node000009_Node000012"><a xlink:title=" ">
<path fill="none" stroke="#63b8ff" d="M409.65,-188.01C446.45,-180.61 491.24,-171.61 519.32,-165.96"/>
<polygon fill="#63b8ff" stroke="#63b8ff" points="520.1,-169.38 529.21,-163.98 518.72,-162.51 520.1,-169.38"/>
</a>
</g>
</g>
<!-- Node11&#45;&gt;Node6 -->
<g id="edge11_Node000011_Node000006" class="edge">
<title>Node11&#45;&gt;Node6</title>
<g id="a_edge11_Node000011_Node000006"><a xlink:title=" ">
<path fill="none" stroke="#63b8ff" d="M784.02,-226.51C810.53,-235.34 843.71,-246.4 868.91,-254.8"/>
<polygon fill="#63b8ff" stroke="#63b8ff" points="867.9,-258.16 878.5,-258 870.12,-251.52 867.9,-258.16"/>
</a>
</g>
</g>
<!-- Node14 -->
<g id="Node000014" class="node">
<title>Node14</title>
<g id="a_Node000014"><a xlink:href="Engine_8cpp.html#a130aa97f1c7fae24f3d23f8126e7506f" target="_top" xlink:title=" ">
<polygon fill="white" stroke="#666666" points="604,-131 491,-131 491,-112 604,-112 604,-131"/>
<text text-anchor="middle" x="547.5" y="-119" font-family="Helvetica,sans-Serif" font-size="10.00">OTRGetAspectRatio</text>
</a>
</g>
</g>
<!-- Node13&#45;&gt;Node14 -->
<g id="edge14_Node000013_Node000014" class="edge">
<title>Node13&#45;&gt;Node14</title>
<g id="a_edge14_Node000013_Node000014"><a xlink:title=" ">
<path fill="none" stroke="#63b8ff" d="M400.05,-147.99C425.67,-143.36 456.7,-137.75 483.58,-132.88"/>
<polygon fill="#63b8ff" stroke="#63b8ff" points="484.44,-136.28 493.66,-131.06 483.2,-129.4 484.44,-136.28"/>
</a>
</g>
</g>
<!-- Node15 -->
<g id="Node000015" class="node">
<title>Node15</title>
<g id="a_Node000015"><a xlink:href="Engine_8cpp.html#a29357c424545be61af4bd28d84fd344a" target="_top" xlink:title=" ">
<polygon fill="white" stroke="#666666" points="781,-131 695,-131 695,-112 781,-112 781,-131"/>
<text text-anchor="middle" x="738" y="-119" font-family="Helvetica,sans-Serif" font-size="10.00">GetInterpreter</text>
</a>
</g>
</g>
<!-- Node14&#45;&gt;Node15 -->
<g id="edge15_Node000014_Node000015" class="edge">
<title>Node14&#45;&gt;Node15</title>
<g id="a_edge15_Node000014_Node000015"><a xlink:title=" ">
<path fill="none" stroke="#63b8ff" d="M604.04,-121.5C629.52,-121.5 659.58,-121.5 684.66,-121.5"/>
<polygon fill="#63b8ff" stroke="#63b8ff" points="684.72,-125 694.72,-121.5 684.72,-118 684.72,-125"/>
</a>
</g>
</g>
<!-- Node16&#45;&gt;Node14 -->
<g id="edge17_Node000016_Node000014" class="edge">
<title>Node16&#45;&gt;Node14</title>
<g id="a_edge17_Node000016_Node000014"><a xlink:title=" ">
<path fill="none" stroke="#63b8ff" d="M437.1,-120.95C451.65,-121.02 466.49,-121.1 480.35,-121.17"/>
<polygon fill="#63b8ff" stroke="#63b8ff" points="480.72,-124.67 490.74,-121.22 480.76,-117.67 480.72,-124.67"/>
</a>
</g>
</g>
<!-- Node18 -->
<g id="Node000018" class="node">
<title>Node18</title>
<g id="a_Node000018"><a xlink:href="render__objects_8c.html#ace17844cb3a8e3b2060b310b923b38ee" target="_top" xlink:title=" ">
<polygon fill="white" stroke="#666666" points="392,-93 301,-93 301,-74 392,-74 392,-93"/>
<text text-anchor="middle" x="346.5" y="-81" font-family="Helvetica,sans-Serif" font-size="10.00">func_80044924</text>
</a>
</g>
</g>
<!-- Node17&#45;&gt;Node18 -->
<g id="edge19_Node000017_Node000018" class="edge">
<title>Node17&#45;&gt;Node18</title>
<g id="a_edge19_Node000017_Node000018"><a xlink:title=" ">
<path fill="none" stroke="#63b8ff" d="M217.01,-57C229.54,-59.79 243.32,-62.82 256,-65.5 267.27,-67.89 279.36,-70.37 290.89,-72.7"/>
<polygon fill="#63b8ff" stroke="#63b8ff" points="290.36,-76.16 300.85,-74.7 291.74,-69.3 290.36,-76.16"/>
</a>
</g>
</g>
<!-- Node17&#45;&gt;Node19 -->
<g id="edge20_Node000017_Node000019" class="edge">
<title>Node17&#45;&gt;Node19</title>
<g id="a_edge20_Node000017_Node000019"><a xlink:title=" ">
<path fill="none" stroke="#63b8ff" d="M212.02,-38C225.79,-34.56 241.58,-30.73 256,-27.5 267.48,-24.93 279.84,-22.33 291.58,-19.95"/>
<polygon fill="#63b8ff" stroke="#63b8ff" points="292.6,-23.31 301.72,-17.91 291.22,-16.45 292.6,-23.31"/>
</a>
</g>
</g>
<!-- Node22 -->
<g id="Node000022" class="node">
<title>Node22</title>
<g id="a_Node000022"><a xlink:href="GBIMiddleware_8cpp.html#aeef79449a27a710d73576e4a4f7f7f99" target="_top" xlink:title=" ">
<polygon fill="white" stroke="#666666" points="379.5,-56 313.5,-56 313.5,-37 379.5,-37 379.5,-56"/>
<text text-anchor="middle" x="346.5" y="-44" font-family="Helvetica,sans-Serif" font-size="10.00">gSPVertex</text>
</a>
</g>
</g>
<!-- Node17&#45;&gt;Node22 -->
<g id="edge23_Node000017_Node000022" class="edge">
<title>Node17&#45;&gt;Node22</title>
<g id="a_edge23_Node000017_Node000022"><a xlink:title=" ">
<path fill="none" stroke="#63b8ff" d="M220.24,-47.23C246,-47.08 278.05,-46.9 303.28,-46.75"/>
<polygon fill="#63b8ff" stroke="#63b8ff" points="303.31,-50.25 313.29,-46.69 303.27,-43.25 303.31,-50.25"/>
</a>
</g>
</g>
<!-- Node20 -->
<g id="Node000020" class="node">
<title>Node20</title>
<g id="a_Node000020"><a xlink:href="Engine_8cpp.html#a223c8bc63f228dc11177515e38eff2db" target="_top" xlink:title=" ">
<polygon fill="white" stroke="#666666" points="622,-38 473,-38 473,-19 622,-19 622,-38"/>
<text text-anchor="middle" x="547.5" y="-26" font-family="Helvetica,sans-Serif" font-size="10.00">GameEngine_OTRSigCheck</text>
</a>
</g>
</g>
<!-- Node19&#45;&gt;Node20 -->
<g id="edge21_Node000019_Node000020" class="edge">
<title>Node19&#45;&gt;Node20</title>
<g id="a_edge21_Node000019_Node000020"><a xlink:title=" ">
<path fill="none" stroke="#63b8ff" d="M391.17,-13.67C412.19,-15.68 438.12,-18.15 462.73,-20.5"/>
<polygon fill="#63b8ff" stroke="#63b8ff" points="462.52,-24 472.81,-21.46 463.19,-17.03 462.52,-24"/>
</a>
</g>
</g>
<!-- Node21 -->
<g id="Node000021" class="node">
<title>Node21</title>
<g id="a_Node000021"><a xlink:href="string_8c.html#a008e171a518fe0e0352f31b245e03875" target="_top" xlink:title=" ">
<polygon fill="white" stroke="#666666" points="760,-38 716,-38 716,-19 760,-19 760,-38"/>
<text text-anchor="middle" x="738" y="-26" font-family="Helvetica,sans-Serif" font-size="10.00">strlen</text>
</a>
</g>
</g>
<!-- Node20&#45;&gt;Node21 -->
<g id="edge22_Node000020_Node000021" class="edge">
<title>Node20&#45;&gt;Node21</title>
<g id="a_edge22_Node000020_Node000021"><a xlink:title=" ">
<path fill="none" stroke="#63b8ff" d="M622.19,-28.5C651.25,-28.5 683.05,-28.5 705.8,-28.5"/>
<polygon fill="#63b8ff" stroke="#63b8ff" points="705.88,-32 715.88,-28.5 705.88,-25 705.88,-32"/>
</a>
</g>
</g>
<!-- Node22&#45;&gt;Node20 -->
<g id="edge24_Node000022_Node000020" class="edge">
<title>Node22&#45;&gt;Node20</title>
<g id="a_edge24_Node000022_Node000020"><a xlink:title=" ">
<path fill="none" stroke="#63b8ff" d="M379.92,-43.57C402.38,-41.54 433.38,-38.73 462.55,-36.09"/>
<polygon fill="#63b8ff" stroke="#63b8ff" points="463.13,-39.56 472.78,-35.17 462.5,-32.58 463.13,-39.56"/>
</a>
</g>
</g>
</g>
</svg>
