<?xml version="1.0" encoding="UTF-8" standalone="no"?>
<!DOCTYPE svg PUBLIC "-//W3C//DTD SVG 1.1//EN"
 "http://www.w3.org/Graphics/SVG/1.1/DTD/svg11.dtd">
<!-- Generated by graphviz version 2.43.0 (0)
 -->
<!-- Title: func_800562E4 Pages: 1 -->
<svg width="973pt" height="288pt"
 viewBox="0.00 0.00 973.00 288.00" xmlns="http://www.w3.org/2000/svg" xmlns:xlink="http://www.w3.org/1999/xlink">
<g id="graph0" class="graph" transform="scale(1 1) rotate(0) translate(4 284)">
<title>func_800562E4</title>
<!-- Node1 -->
<g id="Node000001" class="node">
<title>Node1</title>
<g id="a_Node000001"><a xlink:title=" ">
<polygon fill="#999999" stroke="#666666" points="91,-206 0,-206 0,-187 91,-187 91,-206"/>
<text text-anchor="middle" x="45.5" y="-194" font-family="Helvetica,sans-Serif" font-size="10.00">func_800562E4</text>
</a>
</g>
</g>
<!-- Node2 -->
<g id="Node000002" class="node">
<title>Node2</title>
<g id="a_Node000002"><a xlink:href="render__objects_8c.html#a01f1c93f475b407a8e57888c6a6dd45b" target="_top" xlink:title=" ">
<polygon fill="white" stroke="#666666" points="256.5,-280 164.5,-280 164.5,-261 256.5,-261 256.5,-280"/>
<text text-anchor="middle" x="210.5" y="-268" font-family="Helvetica,sans-Serif" font-size="10.00">func_80044BF8</text>
</a>
</g>
</g>
<!-- Node1&#45;&gt;Node2 -->
<g id="edge1_Node000001_Node000002" class="edge">
<title>Node1&#45;&gt;Node2</title>
<g id="a_edge1_Node000001_Node000002"><a xlink:title=" ">
<path fill="none" stroke="#63b8ff" d="M57.38,-206.19C72.1,-218.79 99.69,-240.59 127,-252.5 135.68,-256.28 145.22,-259.31 154.65,-261.71"/>
<polygon fill="#63b8ff" stroke="#63b8ff" points="153.86,-265.11 164.39,-263.99 155.46,-258.3 153.86,-265.11"/>
</a>
</g>
</g>
<!-- Node3 -->
<g id="Node000003" class="node">
<title>Node3</title>
<g id="a_Node000003"><a xlink:href="render__objects_8c.html#a816f6d2e246056f98e788f34a8bd091a" target="_top" xlink:title=" ">
<polygon fill="white" stroke="#666666" points="256.5,-243 164.5,-243 164.5,-224 256.5,-224 256.5,-243"/>
<text text-anchor="middle" x="210.5" y="-231" font-family="Helvetica,sans-Serif" font-size="10.00">func_8004B138</text>
</a>
</g>
</g>
<!-- Node1&#45;&gt;Node3 -->
<g id="edge2_Node000001_Node000003" class="edge">
<title>Node1&#45;&gt;Node3</title>
<g id="a_edge2_Node000001_Node000003"><a xlink:title=" ">
<path fill="none" stroke="#63b8ff" d="M86.19,-206.01C99.18,-209.08 113.7,-212.48 127,-215.5 136.03,-217.55 145.62,-219.68 154.96,-221.74"/>
<polygon fill="#63b8ff" stroke="#63b8ff" points="154.42,-225.2 164.94,-223.92 155.92,-218.36 154.42,-225.2"/>
</a>
</g>
</g>
<!-- Node4 -->
<g id="Node000004" class="node">
<title>Node4</title>
<g id="a_Node000004"><a xlink:href="GBIMiddleware_8cpp.html#a4ecc44e3c6f1ca5a6b4a20c41d3bd2d2" target="_top" xlink:title=" ">
<polygon fill="white" stroke="#666666" points="255,-206 166,-206 166,-187 255,-187 255,-206"/>
<text text-anchor="middle" x="210.5" y="-194" font-family="Helvetica,sans-Serif" font-size="10.00">gSPDisplayList</text>
</a>
</g>
</g>
<!-- Node1&#45;&gt;Node4 -->
<g id="edge3_Node000001_Node000004" class="edge">
<title>Node1&#45;&gt;Node4</title>
<g id="a_edge3_Node000001_Node000004"><a xlink:title=" ">
<path fill="none" stroke="#63b8ff" d="M91.04,-196.5C111.05,-196.5 134.83,-196.5 155.81,-196.5"/>
<polygon fill="#63b8ff" stroke="#63b8ff" points="155.86,-200 165.86,-196.5 155.86,-193 155.86,-200"/>
</a>
</g>
</g>
<!-- Node7 -->
<g id="Node000007" class="node">
<title>Node7</title>
<g id="a_Node000007"><a xlink:href="GBIMiddleware_8cpp.html#aeef79449a27a710d73576e4a4f7f7f99" target="_top" xlink:title=" ">
<polygon fill="white" stroke="#666666" points="243.5,-169 177.5,-169 177.5,-150 243.5,-150 243.5,-169"/>
<text text-anchor="middle" x="210.5" y="-157" font-family="Helvetica,sans-Serif" font-size="10.00">gSPVertex</text>
</a>
</g>
</g>
<!-- Node1&#45;&gt;Node7 -->
<g id="edge6_Node000001_Node000007" class="edge">
<title>Node1&#45;&gt;Node7</title>
<g id="a_edge6_Node000001_Node000007"><a xlink:title=" ">
<path fill="none" stroke="#63b8ff" d="M88.48,-186.97C112.74,-181.46 143.18,-174.56 167.45,-169.04"/>
<polygon fill="#63b8ff" stroke="#63b8ff" points="168.47,-172.4 177.45,-166.78 166.92,-165.58 168.47,-172.4"/>
</a>
</g>
</g>
<!-- Node8 -->
<g id="Node000008" class="node">
<title>Node8</title>
<g id="a_Node000008"><a xlink:href="math__util__2_8c.html#a2eff0e02deb703653ee3230fbc02eb14" target="_top" xlink:title="set the matrix to a transformation matrix">
<polygon fill="white" stroke="#666666" points="294,-132 127,-132 127,-113 294,-113 294,-132"/>
<text text-anchor="middle" x="210.5" y="-120" font-family="Helvetica,sans-Serif" font-size="10.00">rsp_set_matrix_transformation</text>
</a>
</g>
</g>
<!-- Node1&#45;&gt;Node8 -->
<g id="edge8_Node000001_Node000008" class="edge">
<title>Node1&#45;&gt;Node8</title>
<g id="a_edge8_Node000001_Node000008"><a xlink:title=" ">
<path fill="none" stroke="#63b8ff" d="M57.68,-186.82C72.53,-174.48 100.02,-153.32 127,-141.5 132.74,-138.98 138.86,-136.78 145.07,-134.85"/>
<polygon fill="#63b8ff" stroke="#63b8ff" points="146.22,-138.16 154.87,-132.05 144.29,-131.44 146.22,-138.16"/>
</a>
</g>
</g>
<!-- Node5 -->
<g id="Node000005" class="node">
<title>Node5</title>
<g id="a_Node000005"><a xlink:href="Engine_8cpp.html#a223c8bc63f228dc11177515e38eff2db" target="_top" xlink:title=" ">
<polygon fill="white" stroke="#666666" points="492.5,-206 343.5,-206 343.5,-187 492.5,-187 492.5,-206"/>
<text text-anchor="middle" x="418" y="-194" font-family="Helvetica,sans-Serif" font-size="10.00">GameEngine_OTRSigCheck</text>
</a>
</g>
</g>
<!-- Node4&#45;&gt;Node5 -->
<g id="edge4_Node000004_Node000005" class="edge">
<title>Node4&#45;&gt;Node5</title>
<g id="a_edge4_Node000004_Node000005"><a xlink:title=" ">
<path fill="none" stroke="#63b8ff" d="M255.08,-196.5C277.75,-196.5 306.25,-196.5 333,-196.5"/>
<polygon fill="#63b8ff" stroke="#63b8ff" points="333.15,-200 343.15,-196.5 333.15,-193 333.15,-200"/>
</a>
</g>
</g>
<!-- Node6 -->
<g id="Node000006" class="node">
<title>Node6</title>
<g id="a_Node000006"><a xlink:href="string_8c.html#a008e171a518fe0e0352f31b245e03875" target="_top" xlink:title=" ">
<polygon fill="white" stroke="#666666" points="597.5,-206 553.5,-206 553.5,-187 597.5,-187 597.5,-206"/>
<text text-anchor="middle" x="575.5" y="-194" font-family="Helvetica,sans-Serif" font-size="10.00">strlen</text>
</a>
</g>
</g>
<!-- Node5&#45;&gt;Node6 -->
<g id="edge5_Node000005_Node000006" class="edge">
<title>Node5&#45;&gt;Node6</title>
<g id="a_edge5_Node000005_Node000006"><a xlink:title=" ">
<path fill="none" stroke="#63b8ff" d="M492.65,-196.5C510.29,-196.5 528.21,-196.5 542.77,-196.5"/>
<polygon fill="#63b8ff" stroke="#63b8ff" points="543.19,-200 553.19,-196.5 543.19,-193 543.19,-200"/>
</a>
</g>
</g>
<!-- Node7&#45;&gt;Node5 -->
<g id="edge7_Node000007_Node000005" class="edge">
<title>Node7&#45;&gt;Node5</title>
<g id="a_edge7_Node000007_Node000005"><a xlink:title=" ">
<path fill="none" stroke="#63b8ff" d="M243.61,-165.28C273.02,-170.58 317.39,-178.56 353.88,-185.14"/>
<polygon fill="#63b8ff" stroke="#63b8ff" points="353.48,-188.62 363.95,-186.95 354.72,-181.73 353.48,-188.62"/>
</a>
</g>
</g>
<!-- Node9 -->
<g id="Node000009" class="node">
<title>Node9</title>
<g id="a_Node000009"><a xlink:href="Matrix_8cpp.html#a329d78c031733cf22ff7518f5d38fd74" target="_top" xlink:title=" ">
<polygon fill="white" stroke="#666666" points="461,-132 375,-132 375,-113 461,-113 461,-132"/>
<text text-anchor="middle" x="418" y="-120" font-family="Helvetica,sans-Serif" font-size="10.00">AddHudMatrix</text>
</a>
</g>
</g>
<!-- Node8&#45;&gt;Node9 -->
<g id="edge9_Node000008_Node000009" class="edge">
<title>Node8&#45;&gt;Node9</title>
<g id="a_edge9_Node000008_Node000009"><a xlink:title=" ">
<path fill="none" stroke="#63b8ff" d="M294.2,-122.5C317.97,-122.5 343.23,-122.5 364.62,-122.5"/>
<polygon fill="#63b8ff" stroke="#63b8ff" points="364.78,-126 374.78,-122.5 364.78,-119 364.78,-126"/>
</a>
</g>
</g>
<!-- Node15 -->
<g id="Node000015" class="node">
<title>Node15</title>
<g id="a_Node000015"><a xlink:href="math__util__2_8c.html#ae71383a9d7f97bcb240b23f68068ab30" target="_top" xlink:title=" ">
<polygon fill="white" stroke="#666666" points="506,-76 330,-76 330,-57 506,-57 506,-76"/>
<text text-anchor="middle" x="418" y="-64" font-family="Helvetica,sans-Serif" font-size="10.00">mtxf_set_matrix_transformation</text>
</a>
</g>
</g>
<!-- Node8&#45;&gt;Node15 -->
<g id="edge15_Node000008_Node000015" class="edge">
<title>Node8&#45;&gt;Node15</title>
<g id="a_edge15_Node000008_Node000015"><a xlink:title=" ">
<path fill="none" stroke="#63b8ff" d="M246.83,-112.87C281.59,-103.4 334.79,-88.9 372.44,-78.64"/>
<polygon fill="#63b8ff" stroke="#63b8ff" points="373.41,-82.01 382.13,-76 371.57,-75.25 373.41,-82.01"/>
</a>
</g>
</g>
<!-- Node10 -->
<g id="Node000010" class="node">
<title>Node10</title>
<g id="a_Node000010"><a xlink:href="Matrix_8cpp.html#a67401ed1d8de1f4d3a3e5a7b72842b6a" target="_top" xlink:title=" ">
<polygon fill="white" stroke="#666666" points="609,-169 542,-169 542,-150 609,-150 609,-169"/>
<text text-anchor="middle" x="575.5" y="-157" font-family="Helvetica,sans-Serif" font-size="10.00">AddMatrix</text>
</a>
</g>
</g>
<!-- Node9&#45;&gt;Node10 -->
<g id="edge10_Node000009_Node000010" class="edge">
<title>Node9&#45;&gt;Node10</title>
<g id="a_edge10_Node000009_Node000010"><a xlink:title=" ">
<path fill="none" stroke="#63b8ff" d="M459.05,-132.03C481.46,-137.36 509.4,-144.01 532.18,-149.43"/>
<polygon fill="#63b8ff" stroke="#63b8ff" points="531.38,-152.84 541.92,-151.75 533,-146.03 531.38,-152.84"/>
</a>
</g>
</g>
<!-- Node14 -->
<g id="Node000014" class="node">
<title>Node14</title>
<g id="a_Node000014"><a xlink:href="Game_8cpp.html#ae2fa844b3cb1021ecbc357f8ed2ad8cc" target="_top" xlink:title=" ">
<polygon fill="white" stroke="#666666" points="606.5,-132 544.5,-132 544.5,-113 606.5,-113 606.5,-132"/>
<text text-anchor="middle" x="575.5" y="-120" font-family="Helvetica,sans-Serif" font-size="10.00">GetWorld</text>
</a>
</g>
</g>
<!-- Node9&#45;&gt;Node14 -->
<g id="edge14_Node000009_Node000014" class="edge">
<title>Node9&#45;&gt;Node14</title>
<g id="a_edge14_Node000009_Node000014"><a xlink:title=" ">
<path fill="none" stroke="#63b8ff" d="M461.08,-122.5C483.75,-122.5 511.59,-122.5 534.02,-122.5"/>
<polygon fill="#63b8ff" stroke="#63b8ff" points="534.22,-126 544.22,-122.5 534.22,-119 534.22,-126"/>
</a>
</g>
</g>
<!-- Node11 -->
<g id="Node000011" class="node">
<title>Node11</title>
<g id="a_Node000011"><a xlink:href="FrameInterpolation_8cpp.html#a8cf1f2d6fabc6925aa71a9515341b4aa" target="_top" xlink:title=" ">
<polygon fill="white" stroke="#666666" points="803,-174.5 663,-174.5 663,-144.5 803,-144.5 803,-174.5"/>
<text text-anchor="start" x="671" y="-162.5" font-family="Helvetica,sans-Serif" font-size="10.00">FrameInterpolation</text>
<text text-anchor="middle" x="733" y="-151.5" font-family="Helvetica,sans-Serif" font-size="10.00">_RecordMatrixMtxFToMtx</text>
</a>
</g>
</g>
<!-- Node10&#45;&gt;Node11 -->
<g id="edge11_Node000010_Node000011" class="edge">
<title>Node10&#45;&gt;Node11</title>
<g id="a_edge11_Node000010_Node000011"><a xlink:title=" ">
<path fill="none" stroke="#63b8ff" d="M609.1,-159.5C621.96,-159.5 637.33,-159.5 652.79,-159.5"/>
<polygon fill="#63b8ff" stroke="#63b8ff" points="652.93,-163 662.93,-159.5 652.93,-156 652.93,-163"/>
</a>
</g>
</g>
<!-- Node13 -->
<g id="Node000013" class="node">
<title>Node13</title>
<g id="a_Node000013"><a xlink:href="guMtxF2L_8c.html#a40ab2d64c609839ff1e0ef0de2d0dcc4" target="_top" xlink:title=" ">
<polygon fill="white" stroke="#666666" points="765.5,-126 700.5,-126 700.5,-107 765.5,-107 765.5,-126"/>
<text text-anchor="middle" x="733" y="-114" font-family="Helvetica,sans-Serif" font-size="10.00">guMtxF2L</text>
</a>
</g>
</g>
<!-- Node10&#45;&gt;Node13 -->
<g id="edge13_Node000010_Node000013" class="edge">
<title>Node10&#45;&gt;Node13</title>
<g id="a_edge13_Node000010_Node000013"><a xlink:title=" ">
<path fill="none" stroke="#63b8ff" d="M601.32,-149.98C614.22,-145.24 630.33,-139.66 645,-135.5 659.6,-131.36 675.8,-127.61 690.22,-124.54"/>
<polygon fill="#63b8ff" stroke="#63b8ff" points="691.28,-127.9 700.36,-122.44 689.86,-121.05 691.28,-127.9"/>
</a>
</g>
</g>
<!-- Node12 -->
<g id="Node000012" class="node">
<title>Node12</title>
<g id="a_Node000012"><a xlink:href="FrameInterpolation_8cpp.html#a02c7ac5342a4d376edee38f312b480bf" target="_top" xlink:title=" ">
<polygon fill="white" stroke="#666666" points="965,-113 857,-113 857,-94 965,-94 965,-113"/>
<text text-anchor="middle" x="911" y="-101" font-family="Helvetica,sans-Serif" font-size="10.00">check_if_recording</text>
</a>
</g>
</g>
<!-- Node11&#45;&gt;Node12 -->
<g id="edge12_Node000011_Node000012" class="edge">
<title>Node11&#45;&gt;Node12</title>
<g id="a_edge12_Node000011_Node000012"><a xlink:title=" ">
<path fill="none" stroke="#63b8ff" d="M790.81,-144.5C800.91,-141.64 811.29,-138.58 821,-135.5 839.02,-129.79 858.82,-122.74 875.17,-116.72"/>
<polygon fill="#63b8ff" stroke="#63b8ff" points="876.7,-119.88 884.85,-113.12 874.26,-113.32 876.7,-119.88"/>
</a>
</g>
</g>
<!-- Node16 -->
<g id="Node000016" class="node">
<title>Node16</title>
<g id="a_Node000016"><a xlink:href="math__util_8c.html#ae69cbf5c8d4b3b0dba2d7b4d4673689f" target="_top" xlink:title=" ">
<polygon fill="white" stroke="#666666" points="594.5,-95 556.5,-95 556.5,-76 594.5,-76 594.5,-95"/>
<text text-anchor="middle" x="575.5" y="-83" font-family="Helvetica,sans-Serif" font-size="10.00">coss</text>
</a>
</g>
</g>
<!-- Node15&#45;&gt;Node16 -->
<g id="edge16_Node000015_Node000016" class="edge">
<title>Node15&#45;&gt;Node16</title>
<g id="a_edge16_Node000015_Node000016"><a xlink:title=" ">
<path fill="none" stroke="#63b8ff" d="M497.21,-76.06C514.75,-78.2 532.26,-80.34 546.17,-82.04"/>
<polygon fill="#63b8ff" stroke="#63b8ff" points="546.14,-85.56 556.49,-83.3 546.99,-78.61 546.14,-85.56"/>
</a>
</g>
</g>
<!-- Node17 -->
<g id="Node000017" class="node">
<title>Node17</title>
<g id="a_Node000017"><a xlink:href="FrameInterpolation_8cpp.html#af749df1a96bee5c78287b1845455ae2d" target="_top" xlink:title=" ">
<polygon fill="white" stroke="#666666" points="821,-75.5 645,-75.5 645,-45.5 821,-45.5 821,-75.5"/>
<text text-anchor="start" x="653" y="-63.5" font-family="Helvetica,sans-Serif" font-size="10.00">FrameInterpolation</text>
<text text-anchor="middle" x="733" y="-52.5" font-family="Helvetica,sans-Serif" font-size="10.00">_RecordSetMatrixTransformation</text>
</a>
</g>
</g>
<!-- Node15&#45;&gt;Node17 -->
<g id="edge17_Node000015_Node000017" class="edge">
<title>Node15&#45;&gt;Node17</title>
<g id="a_edge17_Node000015_Node000017"><a xlink:title=" ">
<path fill="none" stroke="#63b8ff" d="M506.19,-64.83C546.13,-64.06 593.61,-63.15 634.71,-62.36"/>
<polygon fill="#63b8ff" stroke="#63b8ff" points="634.81,-65.86 644.74,-62.17 634.67,-58.87 634.81,-65.86"/>
</a>
</g>
</g>
<!-- Node18 -->
<g id="Node000018" class="node">
<title>Node18</title>
<g id="a_Node000018"><a xlink:href="math__util_8c.html#a19ed3bd78fd2d3e2bd0a29f6caf48545" target="_top" xlink:title=" ">
<polygon fill="white" stroke="#666666" points="593.5,-19 557.5,-19 557.5,0 593.5,0 593.5,-19"/>
<text text-anchor="middle" x="575.5" y="-7" font-family="Helvetica,sans-Serif" font-size="10.00">sins</text>
</a>
</g>
</g>
<!-- Node15&#45;&gt;Node18 -->
<g id="edge19_Node000015_Node000018" class="edge">
<title>Node15&#45;&gt;Node18</title>
<g id="a_edge19_Node000015_Node000018"><a xlink:title=" ">
<path fill="none" stroke="#63b8ff" d="M445.03,-56.96C473.49,-46.53 518.87,-29.89 547.65,-19.34"/>
<polygon fill="#63b8ff" stroke="#63b8ff" points="548.9,-22.61 557.09,-15.88 546.49,-16.04 548.9,-22.61"/>
</a>
</g>
</g>
<!-- Node17&#45;&gt;Node12 -->
<g id="edge18_Node000017_Node000012" class="edge">
<title>Node17&#45;&gt;Node12</title>
<g id="a_edge18_Node000017_Node000012"><a xlink:title=" ">
<path fill="none" stroke="#63b8ff" d="M795.56,-75.54C817.01,-80.78 840.78,-86.59 861.07,-91.54"/>
<polygon fill="#63b8ff" stroke="#63b8ff" points="860.48,-95 871.03,-93.98 862.14,-88.2 860.48,-95"/>
</a>
</g>
</g>
</g>
</svg>
