<?xml version="1.0" encoding="UTF-8" standalone="no"?>
<!DOCTYPE svg PUBLIC "-//W3C//DTD SVG 1.1//EN"
 "http://www.w3.org/Graphics/SVG/1.1/DTD/svg11.dtd">
<!-- Generated by graphviz version 2.43.0 (0)
 -->
<!-- Title: src/port/ui/ResolutionEditor.h Pages: 1 -->
<svg width="475pt" height="82pt"
 viewBox="0.00 0.00 474.50 82.00" xmlns="http://www.w3.org/2000/svg" xmlns:xlink="http://www.w3.org/1999/xlink">
<g id="graph0" class="graph" transform="scale(1 1) rotate(0) translate(4 78)">
<title>src/port/ui/ResolutionEditor.h</title>
<!-- Node1 -->
<g id="Node000001" class="node">
<title>Node1</title>
<g id="a_Node000001"><a xlink:title=" ">
<polygon fill="#999999" stroke="#666666" points="291,-74 134,-74 134,-55 291,-55 291,-74"/>
<text text-anchor="middle" x="212.5" y="-62" font-family="Helvetica,sans-Serif" font-size="10.00">src/port/ui/ResolutionEditor.h</text>
</a>
</g>
</g>
<!-- Node2 -->
<g id="Node000002" class="node">
<title>Node2</title>
<g id="a_Node000002"><a xlink:href="ImguiUI_8cpp.html" target="_top" xlink:title=" ">
<polygon fill="white" stroke="#666666" points="127,-19 0,-19 0,0 127,0 127,-19"/>
<text text-anchor="middle" x="63.5" y="-7" font-family="Helvetica,sans-Serif" font-size="10.00">src/port/ui/ImguiUI.cpp</text>
</a>
</g>
</g>
<!-- Node1&#45;&gt;Node2 -->
<g id="edge1_Node000001_Node000002" class="edge">
<title>Node1&#45;&gt;Node2</title>
<g id="a_edge1_Node000001_Node000002"><a xlink:title=" ">
<path fill="none" stroke="#63b8ff" d="M178.91,-51.55C151.24,-41.71 112.66,-27.98 87.88,-19.17"/>
<polygon fill="#63b8ff" stroke="#63b8ff" points="177.97,-54.93 188.56,-54.98 180.31,-48.34 177.97,-54.93"/>
</a>
</g>
</g>
<!-- Node3 -->
<g id="Node000003" class="node">
<title>Node3</title>
<g id="a_Node000003"><a xlink:href="PortMenu_8cpp.html" target="_top" xlink:title=" ">
<polygon fill="white" stroke="#666666" points="280,-19 145,-19 145,0 280,0 280,-19"/>
<text text-anchor="middle" x="212.5" y="-7" font-family="Helvetica,sans-Serif" font-size="10.00">src/port/ui/PortMenu.cpp</text>
</a>
</g>
</g>
<!-- Node1&#45;&gt;Node3 -->
<g id="edge2_Node000001_Node000003" class="edge">
<title>Node1&#45;&gt;Node3</title>
<g id="a_edge2_Node000001_Node000003"><a xlink:title=" ">
<path fill="none" stroke="#63b8ff" d="M212.5,-44.66C212.5,-35.93 212.5,-25.99 212.5,-19.09"/>
<polygon fill="#63b8ff" stroke="#63b8ff" points="209,-44.75 212.5,-54.75 216,-44.75 209,-44.75"/>
</a>
</g>
</g>
<!-- Node4 -->
<g id="Node000004" class="node">
<title>Node4</title>
<g id="a_Node000004"><a xlink:href="ResolutionEditor_8cpp.html" target="_top" xlink:title=" ">
<polygon fill="white" stroke="#666666" points="466.5,-19 298.5,-19 298.5,0 466.5,0 466.5,-19"/>
<text text-anchor="middle" x="382.5" y="-7" font-family="Helvetica,sans-Serif" font-size="10.00">src/port/ui/ResolutionEditor.cpp</text>
</a>
</g>
</g>
<!-- Node1&#45;&gt;Node4 -->
<g id="edge3_Node000001_Node000004" class="edge">
<title>Node1&#45;&gt;Node4</title>
<g id="a_edge3_Node000001_Node000004"><a xlink:title=" ">
<path fill="none" stroke="#63b8ff" d="M249.62,-51.93C281.37,-42.03 326.35,-28.01 354.97,-19.08"/>
<polygon fill="#63b8ff" stroke="#63b8ff" points="248.32,-48.67 239.81,-54.98 250.4,-55.35 248.32,-48.67"/>
</a>
</g>
</g>
</g>
</svg>
