<?xml version="1.0" encoding="UTF-8" standalone="no"?>
<!DOCTYPE svg PUBLIC "-//W3C//DTD SVG 1.1//EN"
 "http://www.w3.org/Graphics/SVG/1.1/DTD/svg11.dtd">
<!-- Generated by graphviz version 2.43.0 (0)
 -->
<!-- Title: include/assets/models/tracks/royal_raceway/royal_raceway_displaylists.h Pages: 1 -->
<svg width="1292pt" height="302pt"
 viewBox="0.00 0.00 1291.50 302.00" xmlns="http://www.w3.org/2000/svg" xmlns:xlink="http://www.w3.org/1999/xlink">
<g id="graph0" class="graph" transform="scale(1 1) rotate(0) translate(4 298)">
<title>include/assets/models/tracks/royal_raceway/royal_raceway_displaylists.h</title>
<!-- Node1 -->
<g id="Node000001" class="node">
<title>Node1</title>
<g id="a_Node000001"><a xlink:title=" ">
<polygon fill="#999999" stroke="#666666" points="698,-294 537,-294 537,-253 698,-253 698,-294"/>
<text text-anchor="start" x="545" y="-282" font-family="Helvetica,sans-Serif" font-size="10.00">include/assets/models</text>
<text text-anchor="start" x="545" y="-271" font-family="Helvetica,sans-Serif" font-size="10.00">/tracks/royal_raceway</text>
<text text-anchor="middle" x="617.5" y="-260" font-family="Helvetica,sans-Serif" font-size="10.00">/royal_raceway_displaylists.h</text>
</a>
</g>
</g>
<!-- Node2 -->
<g id="Node000002" class="node">
<title>Node2</title>
<g id="a_Node000002"><a xlink:href="all__course__packed_8h.html" target="_top" xlink:title=" ">
<polygon fill="white" stroke="#666666" points="260,-217 153,-217 153,-187 260,-187 260,-217"/>
<text text-anchor="start" x="161" y="-205" font-family="Helvetica,sans-Serif" font-size="10.00">courses/all_course</text>
<text text-anchor="middle" x="206.5" y="-194" font-family="Helvetica,sans-Serif" font-size="10.00">_packed.h</text>
</a>
</g>
</g>
<!-- Node1&#45;&gt;Node2 -->
<g id="edge1_Node000001_Node000002" class="edge">
<title>Node1&#45;&gt;Node2</title>
<g id="a_edge1_Node000001_Node000002"><a xlink:title=" ">
<path fill="none" stroke="#63b8ff" d="M526.65,-259.69C456.05,-249.34 355.79,-233.78 268.5,-217 265.79,-216.48 263.02,-215.93 260.22,-215.35"/>
<polygon fill="#63b8ff" stroke="#63b8ff" points="526.44,-263.2 536.84,-261.18 527.46,-256.27 526.44,-263.2"/>
</a>
</g>
</g>
<!-- Node8 -->
<g id="Node000008" class="node">
<title>Node8</title>
<g id="a_Node000008"><a xlink:href="code__80281780_8c.html" target="_top" xlink:title=" ">
<polygon fill="white" stroke="#666666" points="433,-211.5 278,-211.5 278,-192.5 433,-192.5 433,-211.5"/>
<text text-anchor="middle" x="355.5" y="-199.5" font-family="Helvetica,sans-Serif" font-size="10.00">src/ending/code_80281780.c</text>
</a>
</g>
</g>
<!-- Node1&#45;&gt;Node8 -->
<g id="edge7_Node000001_Node000008" class="edge">
<title>Node1&#45;&gt;Node8</title>
<g id="a_edge7_Node000001_Node000008"><a xlink:title=" ">
<path fill="none" stroke="#63b8ff" d="M534.01,-250.35C484.2,-237.14 423.79,-221.11 387.56,-211.5"/>
<polygon fill="#63b8ff" stroke="#63b8ff" points="533.26,-253.77 543.82,-252.96 535.05,-247.01 533.26,-253.77"/>
</a>
</g>
</g>
<!-- Node9 -->
<g id="Node000009" class="node">
<title>Node9</title>
<g id="a_Node000009"><a xlink:href="code__80281C40_8c.html" target="_top" xlink:title=" ">
<polygon fill="white" stroke="#666666" points="606,-211.5 451,-211.5 451,-192.5 606,-192.5 606,-211.5"/>
<text text-anchor="middle" x="528.5" y="-199.5" font-family="Helvetica,sans-Serif" font-size="10.00">src/ending/code_80281C40.c</text>
</a>
</g>
</g>
<!-- Node1&#45;&gt;Node9 -->
<g id="edge8_Node000001_Node000009" class="edge">
<title>Node1&#45;&gt;Node9</title>
<g id="a_edge8_Node000001_Node000009"><a xlink:title=" ">
<path fill="none" stroke="#63b8ff" d="M584.27,-246.55C568.62,-234.33 550.97,-220.54 539.79,-211.82"/>
<polygon fill="#63b8ff" stroke="#63b8ff" points="582.2,-249.37 592.23,-252.77 586.51,-243.86 582.2,-249.37"/>
</a>
</g>
</g>
<!-- Node10 -->
<g id="Node000010" class="node">
<title>Node10</title>
<g id="a_Node000010"><a xlink:href="dl__unk__80284EE0_8c.html" target="_top" xlink:title=" ">
<polygon fill="white" stroke="#666666" points="788.5,-211.5 624.5,-211.5 624.5,-192.5 788.5,-192.5 788.5,-211.5"/>
<text text-anchor="middle" x="706.5" y="-199.5" font-family="Helvetica,sans-Serif" font-size="10.00">src/ending/dl_unk_80284EE0.c</text>
</a>
</g>
</g>
<!-- Node1&#45;&gt;Node10 -->
<g id="edge9_Node000001_Node000010" class="edge">
<title>Node1&#45;&gt;Node10</title>
<g id="a_edge9_Node000001_Node000010"><a xlink:title=" ">
<path fill="none" stroke="#63b8ff" d="M650.73,-246.55C666.38,-234.33 684.03,-220.54 695.21,-211.82"/>
<polygon fill="#63b8ff" stroke="#63b8ff" points="648.49,-243.86 642.77,-252.77 652.8,-249.37 648.49,-243.86"/>
</a>
</g>
</g>
<!-- Node11 -->
<g id="Node000011" class="node">
<title>Node11</title>
<g id="a_Node000011"><a xlink:href="PodiumCeremony_8h.html" target="_top" xlink:title=" ">
<polygon fill="white" stroke="#666666" points="946.5,-217 806.5,-217 806.5,-187 946.5,-187 946.5,-217"/>
<text text-anchor="start" x="814.5" y="-205" font-family="Helvetica,sans-Serif" font-size="10.00">src/engine/tracks/Podium</text>
<text text-anchor="middle" x="876.5" y="-194" font-family="Helvetica,sans-Serif" font-size="10.00">Ceremony.h</text>
</a>
</g>
</g>
<!-- Node1&#45;&gt;Node11 -->
<g id="edge10_Node000001_Node000011" class="edge">
<title>Node1&#45;&gt;Node11</title>
<g id="a_edge10_Node000001_Node000011"><a xlink:title=" ">
<path fill="none" stroke="#63b8ff" d="M700.25,-250.3C740.95,-239.37 788.76,-226.54 824.31,-217"/>
<polygon fill="#63b8ff" stroke="#63b8ff" points="699.09,-246.98 690.34,-252.96 700.9,-253.74 699.09,-246.98"/>
</a>
</g>
</g>
<!-- Node14 -->
<g id="Node000014" class="node">
<title>Node14</title>
<g id="a_Node000014"><a xlink:href="RoyalRaceway_8h.html" target="_top" xlink:title=" ">
<polygon fill="white" stroke="#666666" points="1146.5,-211.5 964.5,-211.5 964.5,-192.5 1146.5,-192.5 1146.5,-211.5"/>
<text text-anchor="middle" x="1055.5" y="-199.5" font-family="Helvetica,sans-Serif" font-size="10.00">src/engine/tracks/RoyalRaceway.h</text>
</a>
</g>
</g>
<!-- Node1&#45;&gt;Node14 -->
<g id="edge13_Node000001_Node000014" class="edge">
<title>Node1&#45;&gt;Node14</title>
<g id="a_edge13_Node000001_Node000014"><a xlink:title=" ">
<path fill="none" stroke="#63b8ff" d="M708.13,-258.12C796.67,-244.07 928.47,-223.16 1001.64,-211.55"/>
<polygon fill="#63b8ff" stroke="#63b8ff" points="707.42,-254.69 698.09,-259.71 708.52,-261.6 707.42,-254.69"/>
</a>
</g>
</g>
<!-- Node3 -->
<g id="Node000003" class="node">
<title>Node3</title>
<g id="a_Node000003"><a xlink:href="code__800029B0_8c.html" target="_top" xlink:title=" ">
<polygon fill="white" stroke="#666666" points="119,-145.5 0,-145.5 0,-126.5 119,-126.5 119,-145.5"/>
<text text-anchor="middle" x="59.5" y="-133.5" font-family="Helvetica,sans-Serif" font-size="10.00">src/code_800029B0.c</text>
</a>
</g>
</g>
<!-- Node2&#45;&gt;Node3 -->
<g id="edge2_Node000002_Node000003" class="edge">
<title>Node2&#45;&gt;Node3</title>
<g id="a_edge2_Node000002_Node000003"><a xlink:title=" ">
<path fill="none" stroke="#63b8ff" d="M165.02,-182.94C136.86,-170.68 100.9,-155.02 79.06,-145.52"/>
<polygon fill="#63b8ff" stroke="#63b8ff" points="163.67,-186.17 174.24,-186.95 166.47,-179.75 163.67,-186.17"/>
</a>
</g>
</g>
<!-- Node4 -->
<g id="Node000004" class="node">
<title>Node4</title>
<g id="a_Node000004"><a xlink:href="all__variables_8h.html" target="_top" xlink:title=" ">
<polygon fill="white" stroke="#666666" points="275.5,-145.5 137.5,-145.5 137.5,-126.5 275.5,-126.5 275.5,-145.5"/>
<text text-anchor="middle" x="206.5" y="-133.5" font-family="Helvetica,sans-Serif" font-size="10.00">src/debug/all_variables.h</text>
</a>
</g>
</g>
<!-- Node2&#45;&gt;Node4 -->
<g id="edge3_Node000002_Node000004" class="edge">
<title>Node2&#45;&gt;Node4</title>
<g id="a_edge3_Node000002_Node000004"><a xlink:title=" ">
<path fill="none" stroke="#63b8ff" d="M206.5,-176.6C206.5,-165.8 206.5,-153.78 206.5,-145.84"/>
<polygon fill="#63b8ff" stroke="#63b8ff" points="203,-176.8 206.5,-186.8 210,-176.8 203,-176.8"/>
</a>
</g>
</g>
<!-- Node7 -->
<g id="Node000007" class="node">
<title>Node7</title>
<g id="a_Node000007"><a xlink:href="render__courses_8c.html" target="_top" xlink:title=" ">
<polygon fill="white" stroke="#666666" points="443,-145.5 294,-145.5 294,-126.5 443,-126.5 443,-145.5"/>
<text text-anchor="middle" x="368.5" y="-133.5" font-family="Helvetica,sans-Serif" font-size="10.00">src/racing/render_courses.c</text>
</a>
</g>
</g>
<!-- Node2&#45;&gt;Node7 -->
<g id="edge6_Node000002_Node000007" class="edge">
<title>Node2&#45;&gt;Node7</title>
<g id="a_edge6_Node000002_Node000007"><a xlink:title=" ">
<path fill="none" stroke="#63b8ff" d="M251.41,-183.26C282.56,-170.95 322.67,-155.11 346.94,-145.52"/>
<polygon fill="#63b8ff" stroke="#63b8ff" points="250.07,-180.03 242.05,-186.95 252.64,-186.54 250.07,-180.03"/>
</a>
</g>
</g>
<!-- Node5 -->
<g id="Node000005" class="node">
<title>Node5</title>
<g id="a_Node000005"><a xlink:href="debug_8inc_8c.html" target="_top" xlink:title=" ">
<polygon fill="white" stroke="#666666" points="267.5,-79.5 145.5,-79.5 145.5,-60.5 267.5,-60.5 267.5,-79.5"/>
<text text-anchor="middle" x="206.5" y="-67.5" font-family="Helvetica,sans-Serif" font-size="10.00">src/debug/debug.inc.c</text>
</a>
</g>
</g>
<!-- Node4&#45;&gt;Node5 -->
<g id="edge4_Node000004_Node000005" class="edge">
<title>Node4&#45;&gt;Node5</title>
<g id="a_edge4_Node000004_Node000005"><a xlink:title=" ">
<path fill="none" stroke="#63b8ff" d="M206.5,-116.08C206.5,-104.13 206.5,-89.22 206.5,-79.91"/>
<polygon fill="#63b8ff" stroke="#63b8ff" points="203,-116.37 206.5,-126.37 210,-116.37 203,-116.37"/>
</a>
</g>
</g>
<!-- Node6 -->
<g id="Node000006" class="node">
<title>Node6</title>
<g id="a_Node000006"><a xlink:href="debug_8c.html" target="_top" xlink:title=" ">
<polygon fill="white" stroke="#666666" points="259,-19 154,-19 154,0 259,0 259,-19"/>
<text text-anchor="middle" x="206.5" y="-7" font-family="Helvetica,sans-Serif" font-size="10.00">src/debug/debug.c</text>
</a>
</g>
</g>
<!-- Node5&#45;&gt;Node6 -->
<g id="edge5_Node000005_Node000006" class="edge">
<title>Node5&#45;&gt;Node6</title>
<g id="a_edge5_Node000005_Node000006"><a xlink:title=" ">
<path fill="none" stroke="#63b8ff" d="M206.5,-50.16C206.5,-39.74 206.5,-27.3 206.5,-19.17"/>
<polygon fill="#63b8ff" stroke="#63b8ff" points="203,-50.37 206.5,-60.37 210,-50.37 203,-50.37"/>
</a>
</g>
</g>
<!-- Node12 -->
<g id="Node000012" class="node">
<title>Node12</title>
<g id="a_Node000012"><a xlink:href="PodiumCeremony_8cpp.html" target="_top" xlink:title=" ">
<polygon fill="white" stroke="#666666" points="874.5,-151 734.5,-151 734.5,-121 874.5,-121 874.5,-151"/>
<text text-anchor="start" x="742.5" y="-139" font-family="Helvetica,sans-Serif" font-size="10.00">src/engine/tracks/Podium</text>
<text text-anchor="middle" x="804.5" y="-128" font-family="Helvetica,sans-Serif" font-size="10.00">Ceremony.cpp</text>
</a>
</g>
</g>
<!-- Node11&#45;&gt;Node12 -->
<g id="edge11_Node000011_Node000012" class="edge">
<title>Node11&#45;&gt;Node12</title>
<g id="a_edge11_Node000011_Node000012"><a xlink:title=" ">
<path fill="none" stroke="#63b8ff" d="M852.79,-179.92C842.17,-170.49 829.93,-159.61 820.43,-151.16"/>
<polygon fill="#63b8ff" stroke="#63b8ff" points="850.72,-182.77 860.52,-186.8 855.37,-177.54 850.72,-182.77"/>
</a>
</g>
</g>
<!-- Node13 -->
<g id="Node000013" class="node">
<title>Node13</title>
<g id="a_Node000013"><a xlink:href="Game_8cpp.html" target="_top" xlink:title=" ">
<polygon fill="white" stroke="#666666" points="955.5,-79.5 849.5,-79.5 849.5,-60.5 955.5,-60.5 955.5,-79.5"/>
<text text-anchor="middle" x="902.5" y="-67.5" font-family="Helvetica,sans-Serif" font-size="10.00">src/port/Game.cpp</text>
</a>
</g>
</g>
<!-- Node11&#45;&gt;Node13 -->
<g id="edge12_Node000011_Node000013" class="edge">
<title>Node11&#45;&gt;Node13</title>
<g id="a_edge12_Node000011_Node000013"><a xlink:title=" ">
<path fill="none" stroke="#63b8ff" d="M881.31,-176.96C887.18,-147.59 896.82,-99.39 900.75,-79.75"/>
<polygon fill="#63b8ff" stroke="#63b8ff" points="877.86,-176.35 879.33,-186.84 884.73,-177.72 877.86,-176.35"/>
</a>
</g>
</g>
<!-- Node15 -->
<g id="Node000015" class="node">
<title>Node15</title>
<g id="a_Node000015"><a xlink:href="AllTracks_8h.html" target="_top" xlink:title=" ">
<polygon fill="white" stroke="#666666" points="1071.5,-145.5 949.5,-145.5 949.5,-126.5 1071.5,-126.5 1071.5,-145.5"/>
<text text-anchor="middle" x="1010.5" y="-133.5" font-family="Helvetica,sans-Serif" font-size="10.00">src/engine/AllTracks.h</text>
</a>
</g>
</g>
<!-- Node14&#45;&gt;Node15 -->
<g id="edge14_Node000014_Node000015" class="edge">
<title>Node14&#45;&gt;Node15</title>
<g id="a_edge14_Node000014_Node000015"><a xlink:title=" ">
<path fill="none" stroke="#63b8ff" d="M1043.48,-183.91C1034.88,-171.68 1023.65,-155.7 1016.76,-145.91"/>
<polygon fill="#63b8ff" stroke="#63b8ff" points="1040.82,-186.2 1049.43,-192.37 1046.54,-182.18 1040.82,-186.2"/>
</a>
</g>
</g>
<!-- Node17 -->
<g id="Node000017" class="node">
<title>Node17</title>
<g id="a_Node000017"><a xlink:href="RoyalRaceway_8cpp.html" target="_top" xlink:title=" ">
<polygon fill="white" stroke="#666666" points="1283.5,-145.5 1089.5,-145.5 1089.5,-126.5 1283.5,-126.5 1283.5,-145.5"/>
<text text-anchor="middle" x="1186.5" y="-133.5" font-family="Helvetica,sans-Serif" font-size="10.00">src/engine/tracks/RoyalRaceway.cpp</text>
</a>
</g>
</g>
<!-- Node14&#45;&gt;Node17 -->
<g id="edge17_Node000014_Node000017" class="edge">
<title>Node14&#45;&gt;Node17</title>
<g id="a_edge17_Node000014_Node000017"><a xlink:title=" ">
<path fill="none" stroke="#63b8ff" d="M1082.39,-187.86C1108.2,-175.25 1146.46,-156.56 1168.69,-145.7"/>
<polygon fill="#63b8ff" stroke="#63b8ff" points="1080.62,-184.83 1073.17,-192.37 1083.69,-191.12 1080.62,-184.83"/>
</a>
</g>
</g>
<!-- Node15&#45;&gt;Node13 -->
<g id="edge16_Node000015_Node000013" class="edge">
<title>Node15&#45;&gt;Node13</title>
<g id="a_edge16_Node000015_Node000013"><a xlink:title=" ">
<path fill="none" stroke="#63b8ff" d="M987.2,-121.19C965.94,-108.59 935.19,-90.37 917.18,-79.7"/>
<polygon fill="#63b8ff" stroke="#63b8ff" points="985.55,-124.28 995.93,-126.37 989.12,-118.26 985.55,-124.28"/>
</a>
</g>
</g>
<!-- Node16 -->
<g id="Node000016" class="node">
<title>Node16</title>
<g id="a_Node000016"><a xlink:href="RegisterTracks_8cpp.html" target="_top" xlink:title=" ">
<polygon fill="white" stroke="#666666" points="1085,-85 974,-85 974,-55 1085,-55 1085,-85"/>
<text text-anchor="start" x="982" y="-73" font-family="Helvetica,sans-Serif" font-size="10.00">src/engine/registry</text>
<text text-anchor="middle" x="1029.5" y="-62" font-family="Helvetica,sans-Serif" font-size="10.00">/RegisterTracks.cpp</text>
</a>
</g>
</g>
<!-- Node15&#45;&gt;Node16 -->
<g id="edge15_Node000015_Node000016" class="edge">
<title>Node15&#45;&gt;Node16</title>
<g id="a_edge15_Node000015_Node000016"><a xlink:title=" ">
<path fill="none" stroke="#63b8ff" d="M1015.94,-116.67C1018.89,-106.72 1022.49,-94.61 1025.24,-85.36"/>
<polygon fill="#63b8ff" stroke="#63b8ff" points="1012.55,-115.79 1013.06,-126.37 1019.26,-117.78 1012.55,-115.79"/>
</a>
</g>
</g>
</g>
</svg>
