<?xml version="1.0" encoding="UTF-8" standalone="no"?>
<!DOCTYPE svg PUBLIC "-//W3C//DTD SVG 1.1//EN"
 "http://www.w3.org/Graphics/SVG/1.1/DTD/svg11.dtd">
<!-- Generated by graphviz version 2.43.0 (0)
 -->
<!-- Title: include/save_data.h Pages: 1 -->
<svg width="122pt" height="137pt"
 viewBox="0.00 0.00 122.00 137.00" xmlns="http://www.w3.org/2000/svg" xmlns:xlink="http://www.w3.org/1999/xlink">
<g id="graph0" class="graph" transform="scale(1 1) rotate(0) translate(4 133)">
<title>include/save_data.h</title>
<!-- Node1 -->
<g id="Node000001" class="node">
<title>Node1</title>
<g id="a_Node000001"><a xlink:title=" ">
<polygon fill="#999999" stroke="#666666" points="114,-129 0,-129 0,-110 114,-110 114,-129"/>
<text text-anchor="middle" x="57" y="-117" font-family="Helvetica,sans-Serif" font-size="10.00">include/save_data.h</text>
</a>
</g>
</g>
<!-- Node2 -->
<g id="Node000002" class="node">
<title>Node2</title>
<g id="a_Node000002"><a xlink:href="common__structs_8h.html" target="_top" xlink:title=" ">
<polygon fill="white" stroke="#666666" points="110.5,-74 3.5,-74 3.5,-55 110.5,-55 110.5,-74"/>
<text text-anchor="middle" x="57" y="-62" font-family="Helvetica,sans-Serif" font-size="10.00">common_structs.h</text>
</a>
</g>
</g>
<!-- Node1&#45;&gt;Node2 -->
<g id="edge1_Node000001_Node000002" class="edge">
<title>Node1&#45;&gt;Node2</title>
<g id="a_edge1_Node000001_Node000002"><a xlink:title=" ">
<path fill="none" stroke="#63b8ff" d="M57,-109.75C57,-102.8 57,-92.85 57,-84.13"/>
<polygon fill="#63b8ff" stroke="#63b8ff" points="60.5,-84.09 57,-74.09 53.5,-84.09 60.5,-84.09"/>
</a>
</g>
</g>
<!-- Node3 -->
<g id="Node000003" class="node">
<title>Node3</title>
<g id="a_Node000003"><a xlink:title=" ">
<polygon fill="#e0e0e0" stroke="#999999" points="97,-19 17,-19 17,0 97,0 97,-19"/>
<text text-anchor="middle" x="57" y="-7" font-family="Helvetica,sans-Serif" font-size="10.00">libultraship.h</text>
</a>
</g>
</g>
<!-- Node2&#45;&gt;Node3 -->
<g id="edge2_Node000002_Node000003" class="edge">
<title>Node2&#45;&gt;Node3</title>
<g id="a_edge2_Node000002_Node000003"><a xlink:title=" ">
<path fill="none" stroke="#63b8ff" d="M57,-54.75C57,-47.8 57,-37.85 57,-29.13"/>
<polygon fill="#63b8ff" stroke="#63b8ff" points="60.5,-29.09 57,-19.09 53.5,-29.09 60.5,-29.09"/>
</a>
</g>
</g>
</g>
</svg>
