<?xml version="1.0" encoding="UTF-8" standalone="no"?>
<!DOCTYPE svg PUBLIC "-//W3C//DTD SVG 1.1//EN"
 "http://www.w3.org/Graphics/SVG/1.1/DTD/svg11.dtd">
<!-- Generated by graphviz version 2.43.0 (0)
 -->
<!-- Title: seq_channel_layer_disable Pages: 1 -->
<svg width="2549pt" height="393pt"
 viewBox="0.00 0.00 2549.00 392.59" xmlns="http://www.w3.org/2000/svg" xmlns:xlink="http://www.w3.org/1999/xlink">
<g id="graph0" class="graph" transform="scale(1 1) rotate(0) translate(4 388.59)">
<title>seq_channel_layer_disable</title>
<!-- Node1 -->
<g id="Node000001" class="node">
<title>Node1</title>
<g id="a_Node000001"><a xlink:title=" ">
<polygon fill="#999999" stroke="#666666" points="2541,-349.09 2393,-349.09 2393,-330.09 2541,-330.09 2541,-349.09"/>
<text text-anchor="middle" x="2467" y="-337.09" font-family="Helvetica,sans-Serif" font-size="10.00">seq_channel_layer_disable</text>
</a>
</g>
</g>
<!-- Node2 -->
<g id="Node000002" class="node">
<title>Node2</title>
<g id="a_Node000002"><a xlink:href="seqplayer_8c.html#a032b7f92199457fe1ce3dd8811305349" target="_top" xlink:title=" ">
<polygon fill="white" stroke="#666666" points="2348,-328.09 2216,-328.09 2216,-309.09 2348,-309.09 2348,-328.09"/>
<text text-anchor="middle" x="2282" y="-316.09" font-family="Helvetica,sans-Serif" font-size="10.00">seq_channel_layer_free</text>
</a>
</g>
</g>
<!-- Node1&#45;&gt;Node2 -->
<g id="edge1_Node000001_Node000002" class="edge">
<title>Node1&#45;&gt;Node2</title>
<g id="a_edge1_Node000001_Node000002"><a xlink:title=" ">
<path fill="none" stroke="#63b8ff" d="M2382.72,-330.04C2371.07,-328.7 2359.25,-327.34 2348.01,-326.05"/>
<polygon fill="#63b8ff" stroke="#63b8ff" points="2382.55,-333.54 2392.88,-331.2 2383.35,-326.59 2382.55,-333.54"/>
</a>
</g>
</g>
<!-- Node34 -->
<g id="Node000034" class="node">
<title>Node34</title>
<g id="a_Node000034"><a xlink:href="seqplayer_8c.html#aa502aaa2a2da31ea46aa1cd8b25ff668" target="_top" xlink:title=" ">
<polygon fill="white" stroke="#666666" points="2357,-384.59 2207,-384.59 2207,-354.59 2357,-354.59 2357,-384.59"/>
<text text-anchor="start" x="2215" y="-372.59" font-family="Helvetica,sans-Serif" font-size="10.00">seq_channel_layer_process</text>
<text text-anchor="middle" x="2282" y="-361.59" font-family="Helvetica,sans-Serif" font-size="10.00">_script</text>
</a>
</g>
</g>
<!-- Node1&#45;&gt;Node34 -->
<g id="edge49_Node000001_Node000034" class="edge">
<title>Node1&#45;&gt;Node34</title>
<g id="a_edge49_Node000001_Node000034"><a xlink:title=" ">
<path fill="none" stroke="#63b8ff" d="M2397.85,-350.77C2384.57,-352.94 2370.58,-355.24 2357.12,-357.44"/>
<polygon fill="#63b8ff" stroke="#63b8ff" points="2398.54,-354.2 2407.85,-349.13 2397.41,-347.29 2398.54,-354.2"/>
</a>
</g>
</g>
<!-- Node3 -->
<g id="Node000003" class="node">
<title>Node3</title>
<g id="a_Node000003"><a xlink:href="seqplayer_8c.html#a5ea2292b93a79a70bfcf940ca16cd2c5" target="_top" xlink:title=" ">
<polygon fill="white" stroke="#666666" points="2171,-271.09 2024,-271.09 2024,-252.09 2171,-252.09 2171,-271.09"/>
<text text-anchor="middle" x="2097.5" y="-259.09" font-family="Helvetica,sans-Serif" font-size="10.00">sequence_channel_disable</text>
</a>
</g>
</g>
<!-- Node2&#45;&gt;Node3 -->
<g id="edge2_Node000002_Node000003" class="edge">
<title>Node2&#45;&gt;Node3</title>
<g id="a_edge2_Node000002_Node000003"><a xlink:title=" ">
<path fill="none" stroke="#63b8ff" d="M2240.48,-305.94C2206.84,-295.43 2159.71,-280.71 2129.15,-271.17"/>
<polygon fill="#63b8ff" stroke="#63b8ff" points="2239.86,-309.41 2250.45,-309.05 2241.95,-302.73 2239.86,-309.41"/>
</a>
</g>
</g>
<!-- Node13 -->
<g id="Node000013" class="node">
<title>Node13</title>
<g id="a_Node000013"><a xlink:href="seqplayer_8c.html#aa8903a3fda21cf479983688b377deb37" target="_top" xlink:title=" ">
<polygon fill="white" stroke="#666666" points="1988,-360.59 1839,-360.59 1839,-330.59 1988,-330.59 1988,-360.59"/>
<text text-anchor="start" x="1847" y="-348.59" font-family="Helvetica,sans-Serif" font-size="10.00">sequence_channel_process</text>
<text text-anchor="middle" x="1913.5" y="-337.59" font-family="Helvetica,sans-Serif" font-size="10.00">_script</text>
</a>
</g>
</g>
<!-- Node2&#45;&gt;Node13 -->
<g id="edge48_Node000002_Node000013" class="edge">
<title>Node2&#45;&gt;Node13</title>
<g id="a_edge48_Node000002_Node000013"><a xlink:title=" ">
<path fill="none" stroke="#63b8ff" d="M2205.92,-324.13C2142.23,-328.82 2051.4,-335.51 1988.13,-340.17"/>
<polygon fill="#63b8ff" stroke="#63b8ff" points="2206.18,-327.62 2215.9,-323.39 2205.67,-320.63 2206.18,-327.62"/>
</a>
</g>
</g>
<!-- Node33 -->
<g id="Node000033" class="node">
<title>Node33</title>
<g id="a_Node000033"><a xlink:href="seqplayer_8c.html#a0537e838a6390aaadce39e0db3f02d7e" target="_top" xlink:title=" ">
<polygon fill="white" stroke="#666666" points="2170,-312.09 2025,-312.09 2025,-293.09 2170,-293.09 2170,-312.09"/>
<text text-anchor="middle" x="2097.5" y="-300.09" font-family="Helvetica,sans-Serif" font-size="10.00">sequence_channel_enable</text>
</a>
</g>
</g>
<!-- Node2&#45;&gt;Node33 -->
<g id="edge45_Node000002_Node000033" class="edge">
<title>Node2&#45;&gt;Node33</title>
<g id="a_edge45_Node000002_Node000033"><a xlink:title=" ">
<path fill="none" stroke="#63b8ff" d="M2205.66,-311.99C2193.9,-310.96 2181.77,-309.89 2170.1,-308.87"/>
<polygon fill="#63b8ff" stroke="#63b8ff" points="2205.62,-315.5 2215.89,-312.89 2206.23,-308.53 2205.62,-315.5"/>
</a>
</g>
</g>
<!-- Node4 -->
<g id="Node000004" class="node">
<title>Node4</title>
<g id="a_Node000004"><a xlink:href="playback_8c.html#a6072a70c0d32abbae03e563cf3f51c92" target="_top" xlink:title=" ">
<polygon fill="white" stroke="#666666" points="1776,-187.09 1690,-187.09 1690,-168.09 1776,-168.09 1776,-187.09"/>
<text text-anchor="middle" x="1733" y="-175.09" font-family="Helvetica,sans-Serif" font-size="10.00">process_notes</text>
</a>
</g>
</g>
<!-- Node3&#45;&gt;Node4 -->
<g id="edge3_Node000003_Node000004" class="edge">
<title>Node3&#45;&gt;Node4</title>
<g id="a_edge3_Node000003_Node000004"><a xlink:title=" ">
<path fill="none" stroke="#63b8ff" d="M2077.12,-245.52C2056.48,-229.42 2022.13,-205.53 1988,-194.59 1916.24,-171.61 1827.4,-171.7 1776.06,-174.32"/>
<polygon fill="#63b8ff" stroke="#63b8ff" points="2075.09,-248.37 2085.09,-251.88 2079.46,-242.9 2075.09,-248.37"/>
</a>
</g>
</g>
<!-- Node3&#45;&gt;Node13 -->
<g id="edge12_Node000003_Node000013" class="edge">
<title>Node3&#45;&gt;Node13</title>
<g id="a_edge12_Node000003_Node000013"><a xlink:title=" ">
<path fill="none" stroke="#63b8ff" d="M2051.49,-274.32C2042.27,-277.36 2032.72,-280.83 2024,-284.59 1993.23,-297.88 1959.86,-317.26 1938.15,-330.59"/>
<polygon fill="#63b8ff" stroke="#63b8ff" points="2052.85,-277.56 2061.32,-271.2 2050.72,-270.89 2052.85,-277.56"/>
</a>
</g>
</g>
<!-- Node15 -->
<g id="Node000015" class="node">
<title>Node15</title>
<g id="a_Node000015"><a xlink:href="seqplayer_8c.html#afd6333d150711e68b7e4ccc3806a84b1" target="_top" xlink:title=" ">
<polygon fill="white" stroke="#666666" points="1983.5,-233.59 1843.5,-233.59 1843.5,-203.59 1983.5,-203.59 1983.5,-233.59"/>
<text text-anchor="start" x="1851.5" y="-221.59" font-family="Helvetica,sans-Serif" font-size="10.00">sequence_player_disable</text>
<text text-anchor="middle" x="1913.5" y="-210.59" font-family="Helvetica,sans-Serif" font-size="10.00">_channels</text>
</a>
</g>
</g>
<!-- Node3&#45;&gt;Node15 -->
<g id="edge15_Node000003_Node000015" class="edge">
<title>Node3&#45;&gt;Node15</title>
<g id="a_edge15_Node000003_Node000015"><a xlink:title=" ">
<path fill="none" stroke="#63b8ff" d="M2046.37,-249.75C2025.24,-244.76 2000.4,-238.89 1978.02,-233.6"/>
<polygon fill="#63b8ff" stroke="#63b8ff" points="2045.57,-253.16 2056.11,-252.05 2047.18,-246.35 2045.57,-253.16"/>
</a>
</g>
</g>
<!-- Node32 -->
<g id="Node000032" class="node">
<title>Node32</title>
<g id="a_Node000032"><a xlink:href="seqplayer_8c.html#a7efb03b47bc7824c0a10b450ef75de8b" target="_top" xlink:title=" ">
<polygon fill="white" stroke="#666666" points="1793,-274.59 1673,-274.59 1673,-244.59 1793,-244.59 1793,-274.59"/>
<text text-anchor="start" x="1681" y="-262.59" font-family="Helvetica,sans-Serif" font-size="10.00">sequence_player_init</text>
<text text-anchor="middle" x="1733" y="-251.59" font-family="Helvetica,sans-Serif" font-size="10.00">_channels</text>
</a>
</g>
</g>
<!-- Node3&#45;&gt;Node32 -->
<g id="edge43_Node000003_Node000032" class="edge">
<title>Node3&#45;&gt;Node32</title>
<g id="a_edge43_Node000003_Node000032"><a xlink:title=" ">
<path fill="none" stroke="#63b8ff" d="M2013.42,-261.14C1946.11,-260.76 1852.92,-260.25 1793.04,-259.92"/>
<polygon fill="#63b8ff" stroke="#63b8ff" points="2013.56,-264.64 2023.58,-261.19 2013.6,-257.64 2013.56,-264.64"/>
</a>
</g>
</g>
<!-- Node5 -->
<g id="Node000005" class="node">
<title>Node5</title>
<g id="a_Node000005"><a xlink:href="seqplayer_8c.html#a017a1ff1f0545e2cde4fa43261892349" target="_top" xlink:title=" ">
<polygon fill="white" stroke="#666666" points="1438.5,-263.09 1327.5,-263.09 1327.5,-244.09 1438.5,-244.09 1438.5,-263.09"/>
<text text-anchor="middle" x="1383" y="-251.09" font-family="Helvetica,sans-Serif" font-size="10.00">process_sequences</text>
</a>
</g>
</g>
<!-- Node4&#45;&gt;Node5 -->
<g id="edge4_Node000004_Node000005" class="edge">
<title>Node4&#45;&gt;Node5</title>
<g id="a_edge4_Node000004_Node000005"><a xlink:title=" ">
<path fill="none" stroke="#63b8ff" d="M1704.81,-191.74C1684.05,-201.92 1654.42,-215.13 1627,-222.59 1563.81,-239.8 1488.71,-247.53 1438.89,-250.95"/>
<polygon fill="#63b8ff" stroke="#63b8ff" points="1706.59,-194.76 1713.97,-187.16 1703.46,-188.5 1706.59,-194.76"/>
</a>
</g>
</g>
<!-- Node6 -->
<g id="Node000006" class="node">
<title>Node6</title>
<g id="a_Node000006"><a xlink:href="synthesis_8c.html#a2994f1f3d3603607ed9bca3243c1d5cf" target="_top" xlink:title=" ">
<polygon fill="white" stroke="#666666" points="780,-126.09 673,-126.09 673,-107.09 780,-107.09 780,-126.09"/>
<text text-anchor="middle" x="726.5" y="-114.09" font-family="Helvetica,sans-Serif" font-size="10.00">synthesis_execute</text>
</a>
</g>
</g>
<!-- Node5&#45;&gt;Node6 -->
<g id="edge5_Node000005_Node000006" class="edge">
<title>Node5&#45;&gt;Node6</title>
<g id="a_edge5_Node000005_Node000006"><a xlink:title=" ">
<path fill="none" stroke="#63b8ff" d="M1317.26,-257.13C1266.5,-258.68 1194.26,-258.19 1132,-247.59 981,-221.89 809.04,-151.79 749.3,-126.15"/>
<polygon fill="#63b8ff" stroke="#63b8ff" points="1317.56,-260.62 1327.43,-256.78 1317.32,-253.63 1317.56,-260.62"/>
</a>
</g>
</g>
<!-- Node7 -->
<g id="Node000007" class="node">
<title>Node7</title>
<g id="a_Node000007"><a xlink:href="port__eu_8c.html#a1d9119a2b49700e0bac6c9faabc7991b" target="_top" xlink:title=" ">
<polygon fill="white" stroke="#666666" points="614.5,-107.09 474.5,-107.09 474.5,-88.09 614.5,-88.09 614.5,-107.09"/>
<text text-anchor="middle" x="544.5" y="-95.09" font-family="Helvetica,sans-Serif" font-size="10.00">create_next_audio_buffer</text>
</a>
</g>
</g>
<!-- Node6&#45;&gt;Node7 -->
<g id="edge6_Node000006_Node000007" class="edge">
<title>Node6&#45;&gt;Node7</title>
<g id="a_edge6_Node000006_Node000007"><a xlink:title=" ">
<path fill="none" stroke="#63b8ff" d="M662.89,-109.99C647.27,-108.34 630.44,-106.56 614.53,-104.88"/>
<polygon fill="#63b8ff" stroke="#63b8ff" points="662.64,-113.48 672.95,-111.05 663.38,-106.52 662.64,-113.48"/>
</a>
</g>
</g>
<!-- Node8 -->
<g id="Node000008" class="node">
<title>Node8</title>
<g id="a_Node000008"><a xlink:href="port__eu_8c.html#a17e6cb53d677ce7a809303aa122cb4cf" target="_top" xlink:title=" ">
<polygon fill="white" stroke="#666666" points="628,-70.09 461,-70.09 461,-51.09 628,-51.09 628,-70.09"/>
<text text-anchor="middle" x="544.5" y="-58.09" font-family="Helvetica,sans-Serif" font-size="10.00">create_next_audio_frame_task</text>
</a>
</g>
</g>
<!-- Node6&#45;&gt;Node8 -->
<g id="edge7_Node000006_Node000008" class="edge">
<title>Node6&#45;&gt;Node8</title>
<g id="a_edge7_Node000006_Node000008"><a xlink:title=" ">
<path fill="none" stroke="#63b8ff" d="M680.98,-103.92C675.21,-101.96 669.42,-99.84 664,-97.59 647.29,-90.67 644.99,-84.8 628,-78.59 618.91,-75.27 609.03,-72.47 599.36,-70.14"/>
<polygon fill="#63b8ff" stroke="#63b8ff" points="680.03,-107.29 690.62,-107.05 682.19,-100.63 680.03,-107.29"/>
</a>
</g>
</g>
<!-- Node9 -->
<g id="Node000009" class="node">
<title>Node9</title>
<g id="a_Node000009"><a xlink:href="main_8c.html#adc4ddc4dba28c4eebe8a7c28e5559b11" target="_top" xlink:title=" ">
<polygon fill="white" stroke="#666666" points="425,-70.09 339,-70.09 339,-51.09 425,-51.09 425,-70.09"/>
<text text-anchor="middle" x="382" y="-58.09" font-family="Helvetica,sans-Serif" font-size="10.00">thread4_audio</text>
</a>
</g>
</g>
<!-- Node8&#45;&gt;Node9 -->
<g id="edge8_Node000008_Node000009" class="edge">
<title>Node8&#45;&gt;Node9</title>
<g id="a_edge8_Node000008_Node000009"><a xlink:title=" ">
<path fill="none" stroke="#63b8ff" d="M450.86,-60.59C442.02,-60.59 433.39,-60.59 425.41,-60.59"/>
<polygon fill="#63b8ff" stroke="#63b8ff" points="450.9,-64.09 460.9,-60.59 450.9,-57.09 450.9,-64.09"/>
</a>
</g>
</g>
<!-- Node10 -->
<g id="Node000010" class="node">
<title>Node10</title>
<g id="a_Node000010"><a xlink:href="main_8c.html#a023b8f272e4efbd33f371e91ffff6b30" target="_top" xlink:title=" ">
<polygon fill="white" stroke="#666666" points="303,-70.09 217,-70.09 217,-51.09 303,-51.09 303,-70.09"/>
<text text-anchor="middle" x="260" y="-58.09" font-family="Helvetica,sans-Serif" font-size="10.00">thread3_video</text>
</a>
</g>
</g>
<!-- Node9&#45;&gt;Node10 -->
<g id="edge9_Node000009_Node000010" class="edge">
<title>Node9&#45;&gt;Node10</title>
<g id="a_edge9_Node000009_Node000010"><a xlink:title=" ">
<path fill="none" stroke="#63b8ff" d="M328.55,-60.59C320.12,-60.59 311.49,-60.59 303.33,-60.59"/>
<polygon fill="#63b8ff" stroke="#63b8ff" points="328.69,-64.09 338.69,-60.59 328.69,-57.09 328.69,-64.09"/>
</a>
</g>
</g>
<!-- Node11 -->
<g id="Node000011" class="node">
<title>Node11</title>
<g id="a_Node000011"><a xlink:href="main_8c.html#a1e35d2b842121e6aea373f09381616e5" target="_top" xlink:title=" ">
<polygon fill="white" stroke="#666666" points="181,-70.09 104,-70.09 104,-51.09 181,-51.09 181,-70.09"/>
<text text-anchor="middle" x="142.5" y="-58.09" font-family="Helvetica,sans-Serif" font-size="10.00">thread1_idle</text>
</a>
</g>
</g>
<!-- Node10&#45;&gt;Node11 -->
<g id="edge10_Node000010_Node000011" class="edge">
<title>Node10&#45;&gt;Node11</title>
<g id="a_edge10_Node000010_Node000011"><a xlink:title=" ">
<path fill="none" stroke="#63b8ff" d="M206.9,-60.59C198.2,-60.59 189.33,-60.59 181.09,-60.59"/>
<polygon fill="#63b8ff" stroke="#63b8ff" points="206.98,-64.09 216.98,-60.59 206.98,-57.09 206.98,-64.09"/>
</a>
</g>
</g>
<!-- Node12 -->
<g id="Node000012" class="node">
<title>Node12</title>
<g id="a_Node000012"><a xlink:href="main_8c.html#a4f87d43525fe95f60ea92bc8a3b70e62" target="_top" xlink:title=" ">
<polygon fill="white" stroke="#666666" points="68,-70.09 0,-70.09 0,-51.09 68,-51.09 68,-70.09"/>
<text text-anchor="middle" x="34" y="-58.09" font-family="Helvetica,sans-Serif" font-size="10.00">main_func</text>
</a>
</g>
</g>
<!-- Node11&#45;&gt;Node12 -->
<g id="edge11_Node000011_Node000012" class="edge">
<title>Node11&#45;&gt;Node12</title>
<g id="a_edge11_Node000011_Node000012"><a xlink:title=" ">
<path fill="none" stroke="#63b8ff" d="M93.95,-60.59C85.29,-60.59 76.44,-60.59 68.31,-60.59"/>
<polygon fill="#63b8ff" stroke="#63b8ff" points="93.95,-64.09 103.95,-60.59 93.95,-57.09 93.95,-64.09"/>
</a>
</g>
</g>
<!-- Node14 -->
<g id="Node000014" class="node">
<title>Node14</title>
<g id="a_Node000014"><a xlink:href="seqplayer_8c.html#a057e95b47ecbd1b645b1ef457f3854d9" target="_top" xlink:title=" ">
<polygon fill="white" stroke="#666666" points="1627,-299.59 1485,-299.59 1485,-269.59 1627,-269.59 1627,-299.59"/>
<text text-anchor="start" x="1493" y="-287.59" font-family="Helvetica,sans-Serif" font-size="10.00">sequence_player_process</text>
<text text-anchor="middle" x="1556" y="-276.59" font-family="Helvetica,sans-Serif" font-size="10.00">_sequence</text>
</a>
</g>
</g>
<!-- Node13&#45;&gt;Node14 -->
<g id="edge13_Node000013_Node000014" class="edge">
<title>Node13&#45;&gt;Node14</title>
<g id="a_edge13_Node000013_Node000014"><a xlink:title=" ">
<path fill="none" stroke="#63b8ff" d="M1828.63,-339.58C1779.94,-335.17 1717.61,-327.92 1663,-316.59 1642.2,-312.28 1619.61,-305.73 1600.65,-299.68"/>
<polygon fill="#63b8ff" stroke="#63b8ff" points="1828.54,-343.09 1838.81,-340.48 1829.15,-336.12 1828.54,-343.09"/>
</a>
</g>
</g>
<!-- Node14&#45;&gt;Node5 -->
<g id="edge14_Node000014_Node000005" class="edge">
<title>Node14&#45;&gt;Node5</title>
<g id="a_edge14_Node000014_Node000005"><a xlink:title=" ">
<path fill="none" stroke="#63b8ff" d="M1475.04,-270.1C1462.02,-267.74 1448.81,-265.34 1436.66,-263.14"/>
<polygon fill="#63b8ff" stroke="#63b8ff" points="1474.49,-273.56 1484.95,-271.9 1475.74,-266.67 1474.49,-273.56"/>
</a>
</g>
</g>
<!-- Node15&#45;&gt;Node14 -->
<g id="edge42_Node000015_Node000014" class="edge">
<title>Node15&#45;&gt;Node14</title>
<g id="a_edge42_Node000015_Node000014"><a xlink:title=" ">
<path fill="none" stroke="#63b8ff" d="M1833.23,-215.25C1783.4,-215.28 1718.31,-219.24 1663,-235.59 1645.45,-240.79 1643.48,-247.63 1627,-255.59 1616.93,-260.46 1605.83,-265.29 1595.5,-269.57"/>
<polygon fill="#63b8ff" stroke="#63b8ff" points="1833.29,-218.75 1843.31,-215.3 1833.32,-211.75 1833.29,-218.75"/>
</a>
</g>
</g>
<!-- Node16 -->
<g id="Node000016" class="node">
<title>Node16</title>
<g id="a_Node000016"><a xlink:href="seqplayer_8c.html#a6de04cc97964a6560cc4f3e5a01426c1" target="_top" xlink:title=" ">
<polygon fill="white" stroke="#666666" points="1803,-147.09 1663,-147.09 1663,-128.09 1803,-128.09 1803,-147.09"/>
<text text-anchor="middle" x="1733" y="-135.09" font-family="Helvetica,sans-Serif" font-size="10.00">sequence_player_disable</text>
</a>
</g>
</g>
<!-- Node15&#45;&gt;Node16 -->
<g id="edge16_Node000015_Node000016" class="edge">
<title>Node15&#45;&gt;Node16</title>
<g id="a_edge16_Node000015_Node000016"><a xlink:title=" ">
<path fill="none" stroke="#63b8ff" d="M1878.84,-198.35C1857.58,-186.1 1829.26,-170.74 1803,-159.59 1791.89,-154.88 1779.41,-150.61 1768.15,-147.11"/>
<polygon fill="#63b8ff" stroke="#63b8ff" points="1877.09,-201.38 1887.5,-203.39 1880.62,-195.33 1877.09,-201.38"/>
</a>
</g>
</g>
<!-- Node16&#45;&gt;Node14 -->
<g id="edge39_Node000016_Node000014" class="edge">
<title>Node16&#45;&gt;Node14</title>
<g id="a_edge39_Node000016_Node000014"><a xlink:title=" ">
<path fill="none" stroke="#63b8ff" d="M1676.16,-151.25C1671.46,-153.61 1666.99,-156.37 1663,-159.59 1637.93,-179.88 1647.34,-197.57 1627,-222.59 1612.36,-240.61 1592.23,-257.84 1577.32,-269.55"/>
<polygon fill="#63b8ff" stroke="#63b8ff" points="1677.66,-154.42 1685.41,-147.2 1674.85,-148.01 1677.66,-154.42"/>
</a>
</g>
</g>
<!-- Node17 -->
<g id="Node000017" class="node">
<title>Node17</title>
<g id="a_Node000017"><a xlink:href="heap_8c.html#a1e60f925c18306c62090305c9248e8b3" target="_top" xlink:title=" ">
<polygon fill="white" stroke="#666666" points="789,-51.59 664,-51.59 664,-21.59 789,-21.59 789,-51.59"/>
<text text-anchor="start" x="672" y="-39.59" font-family="Helvetica,sans-Serif" font-size="10.00">audio_shut_down_and</text>
<text text-anchor="middle" x="726.5" y="-28.59" font-family="Helvetica,sans-Serif" font-size="10.00">_reset_step</text>
</a>
</g>
</g>
<!-- Node16&#45;&gt;Node17 -->
<g id="edge17_Node000016_Node000017" class="edge">
<title>Node16&#45;&gt;Node17</title>
<g id="a_edge17_Node000016_Node000017"><a xlink:title=" ">
<path fill="none" stroke="#63b8ff" d="M1719.95,-119.8C1702.55,-95.71 1667.94,-53.46 1627,-33.59 1529.1,13.91 1492.82,-3.59 1384,-3.59 1384,-3.59 1384,-3.59 1042.5,-3.59 954.11,-3.59 852.52,-16.61 789.16,-26.29"/>
<polygon fill="#63b8ff" stroke="#63b8ff" points="1717.14,-121.89 1725.75,-128.06 1722.87,-117.86 1717.14,-121.89"/>
</a>
</g>
</g>
<!-- Node18 -->
<g id="Node000018" class="node">
<title>Node18</title>
<g id="a_Node000018"><a xlink:href="heap_8c.html#a41929205ee1e0327c771ff4e381cdaf1" target="_top" xlink:title=" ">
<polygon fill="white" stroke="#666666" points="1608,-165.09 1504,-165.09 1504,-146.09 1608,-146.09 1608,-165.09"/>
<text text-anchor="middle" x="1556" y="-153.09" font-family="Helvetica,sans-Serif" font-size="10.00">discard_sequence</text>
</a>
</g>
</g>
<!-- Node16&#45;&gt;Node18 -->
<g id="edge20_Node000016_Node000018" class="edge">
<title>Node16&#45;&gt;Node18</title>
<g id="a_edge20_Node000016_Node000018"><a xlink:title=" ">
<path fill="none" stroke="#63b8ff" d="M1652.48,-145.77C1637.41,-147.32 1622.02,-148.91 1608.12,-150.34"/>
<polygon fill="#63b8ff" stroke="#63b8ff" points="1653.25,-149.21 1662.84,-144.71 1652.53,-142.25 1653.25,-149.21"/>
</a>
</g>
</g>
<!-- Node25 -->
<g id="Node000025" class="node">
<title>Node25</title>
<g id="a_Node000025"><a xlink:href="port__eu_8c.html#af9631ae86d86a13a1cbdb83aec196fc3" target="_top" xlink:title=" ">
<polygon fill="white" stroke="#666666" points="955,-89.09 825,-89.09 825,-70.09 955,-70.09 955,-89.09"/>
<text text-anchor="middle" x="890" y="-77.09" font-family="Helvetica,sans-Serif" font-size="10.00">eu_process_audio_cmd</text>
</a>
</g>
</g>
<!-- Node16&#45;&gt;Node25 -->
<g id="edge32_Node000016_Node000025" class="edge">
<title>Node16&#45;&gt;Node25</title>
<g id="a_edge32_Node000016_Node000025"><a xlink:title=" ">
<path fill="none" stroke="#63b8ff" d="M1715.32,-120.66C1695.99,-102.24 1662.23,-73.67 1627,-60.59 1525.44,-22.9 1492.33,-41.59 1384,-41.59 1384,-41.59 1384,-41.59 1205.5,-41.59 1109.79,-41.59 1085.8,-47.42 991,-60.59 972.97,-63.1 953.26,-66.66 936.14,-70.03"/>
<polygon fill="#63b8ff" stroke="#63b8ff" points="1713.09,-123.37 1722.69,-127.86 1717.99,-118.37 1713.09,-123.37"/>
</a>
</g>
</g>
<!-- Node27 -->
<g id="Node000027" class="node">
<title>Node27</title>
<g id="a_Node000027"><a xlink:href="seqplayer_8c.html#a1ff144431abaf7b30a7b42738102525d" target="_top" xlink:title=" ">
<polygon fill="white" stroke="#666666" points="1616,-89.09 1496,-89.09 1496,-70.09 1616,-70.09 1616,-89.09"/>
<text text-anchor="middle" x="1556" y="-77.09" font-family="Helvetica,sans-Serif" font-size="10.00">init_sequence_player</text>
</a>
</g>
</g>
<!-- Node16&#45;&gt;Node27 -->
<g id="edge33_Node000016_Node000027" class="edge">
<title>Node16&#45;&gt;Node27</title>
<g id="a_edge33_Node000016_Node000027"><a xlink:title=" ">
<path fill="none" stroke="#63b8ff" d="M1693.49,-124.83C1661.05,-114.08 1615.34,-98.93 1585.94,-89.19"/>
<polygon fill="#63b8ff" stroke="#63b8ff" points="1692.51,-128.19 1703.1,-128.02 1694.71,-121.55 1692.51,-128.19"/>
</a>
</g>
</g>
<!-- Node29 -->
<g id="Node000029" class="node">
<title>Node29</title>
<g id="a_Node000029"><a xlink:href="load_8c.html#a6c3a18a0dda97c61c1b24745f64ca2a9" target="_top" xlink:title=" ">
<polygon fill="white" stroke="#666666" points="1449,-126.09 1317,-126.09 1317,-107.09 1449,-107.09 1449,-126.09"/>
<text text-anchor="middle" x="1383" y="-114.09" font-family="Helvetica,sans-Serif" font-size="10.00">load_sequence_internal</text>
</a>
</g>
</g>
<!-- Node16&#45;&gt;Node29 -->
<g id="edge38_Node000016_Node000029" class="edge">
<title>Node16&#45;&gt;Node29</title>
<g id="a_edge38_Node000016_Node000029"><a xlink:title=" ">
<path fill="none" stroke="#63b8ff" d="M1652.77,-132.81C1591.22,-129.1 1506.9,-124.01 1449.21,-120.53"/>
<polygon fill="#63b8ff" stroke="#63b8ff" points="1652.64,-136.31 1662.83,-133.42 1653.06,-129.32 1652.64,-136.31"/>
</a>
</g>
</g>
<!-- Node31 -->
<g id="Node000031" class="node">
<title>Node31</title>
<g id="a_Node000031"><a xlink:href="audio_2effects_8c.html#ac6b3be4c7d0c4a4f7f02153b12d59d38" target="_top" xlink:title=" ">
<polygon fill="white" stroke="#666666" points="1627,-213.59 1485,-213.59 1485,-183.59 1627,-183.59 1627,-213.59"/>
<text text-anchor="start" x="1493" y="-201.59" font-family="Helvetica,sans-Serif" font-size="10.00">sequence_player_process</text>
<text text-anchor="middle" x="1556" y="-190.59" font-family="Helvetica,sans-Serif" font-size="10.00">_sound</text>
</a>
</g>
</g>
<!-- Node16&#45;&gt;Node31 -->
<g id="edge40_Node000016_Node000031" class="edge">
<title>Node16&#45;&gt;Node31</title>
<g id="a_edge40_Node000016_Node000031"><a xlink:title=" ">
<path fill="none" stroke="#63b8ff" d="M1690.54,-150.17C1681.42,-153.12 1671.84,-156.35 1663,-159.59 1646.73,-165.57 1643.21,-168.45 1627,-174.59 1619.07,-177.6 1610.58,-180.65 1602.34,-183.53"/>
<polygon fill="#63b8ff" stroke="#63b8ff" points="1691.73,-153.47 1700.2,-147.1 1689.61,-146.8 1691.73,-153.47"/>
</a>
</g>
</g>
<!-- Node17&#45;&gt;Node7 -->
<g id="edge18_Node000017_Node000007" class="edge">
<title>Node17&#45;&gt;Node7</title>
<g id="a_edge18_Node000017_Node000007"><a xlink:title=" ">
<path fill="none" stroke="#63b8ff" d="M675.85,-55.52C671.82,-57.19 667.83,-58.89 664,-60.59 647.65,-67.85 644.83,-72.54 628,-78.59 617.76,-82.27 606.55,-85.41 595.78,-88.02"/>
<polygon fill="#63b8ff" stroke="#63b8ff" points="677.31,-58.7 685.25,-51.69 674.67,-52.22 677.31,-58.7"/>
</a>
</g>
</g>
<!-- Node17&#45;&gt;Node8 -->
<g id="edge19_Node000017_Node000008" class="edge">
<title>Node17&#45;&gt;Node8</title>
<g id="a_edge19_Node000017_Node000008"><a xlink:title=" ">
<path fill="none" stroke="#63b8ff" d="M653.77,-46.16C641.68,-47.77 629.12,-49.45 617.03,-51.06"/>
<polygon fill="#63b8ff" stroke="#63b8ff" points="654.36,-49.61 663.81,-44.82 653.43,-42.67 654.36,-49.61"/>
</a>
</g>
</g>
<!-- Node19 -->
<g id="Node000019" class="node">
<title>Node19</title>
<g id="a_Node000019"><a xlink:href="heap_8c.html#a0b7a6dbbdb6a18c69f58a1c26b2855b8" target="_top" xlink:title=" ">
<polygon fill="white" stroke="#666666" points="1436.5,-165.09 1329.5,-165.09 1329.5,-146.09 1436.5,-146.09 1436.5,-165.09"/>
<text text-anchor="middle" x="1383" y="-153.09" font-family="Helvetica,sans-Serif" font-size="10.00">alloc_bank_or_seq</text>
</a>
</g>
</g>
<!-- Node18&#45;&gt;Node19 -->
<g id="edge21_Node000018_Node000019" class="edge">
<title>Node18&#45;&gt;Node19</title>
<g id="a_edge21_Node000018_Node000019"><a xlink:title=" ">
<path fill="none" stroke="#63b8ff" d="M1493.56,-155.59C1474.97,-155.59 1454.72,-155.59 1436.75,-155.59"/>
<polygon fill="#63b8ff" stroke="#63b8ff" points="1493.69,-159.09 1503.69,-155.59 1493.69,-152.09 1493.69,-159.09"/>
</a>
</g>
</g>
<!-- Node19&#45;&gt;Node19 -->
<g id="edge22_Node000019_Node000019" class="edge">
<title>Node19&#45;&gt;Node19</title>
<g id="a_edge22_Node000019_Node000019"><a xlink:title=" ">
<path fill="none" stroke="#63b8ff" d="M1415.19,-173.54C1414.27,-178.91 1403.54,-183.09 1383,-183.09 1352.43,-183.09 1343.59,-173.83 1356.49,-165.18"/>
<polygon fill="#63b8ff" stroke="#63b8ff" points="1418.02,-171.49 1409.51,-165.18 1412.23,-175.42 1418.02,-171.49"/>
</a>
</g>
</g>
<!-- Node20 -->
<g id="Node000020" class="node">
<title>Node20</title>
<g id="a_Node000020"><a xlink:href="load_8c.html#a16ddfd81ca9e185b484920b7eb9d70d7" target="_top" xlink:title=" ">
<polygon fill="white" stroke="#666666" points="1257,-164.09 1156,-164.09 1156,-145.09 1257,-145.09 1257,-164.09"/>
<text text-anchor="middle" x="1206.5" y="-152.09" font-family="Helvetica,sans-Serif" font-size="10.00">bank_load_async</text>
</a>
</g>
</g>
<!-- Node19&#45;&gt;Node20 -->
<g id="edge23_Node000019_Node000020" class="edge">
<title>Node19&#45;&gt;Node20</title>
<g id="a_edge23_Node000019_Node000020"><a xlink:title=" ">
<path fill="none" stroke="#63b8ff" d="M1319.04,-155.23C1298.69,-155.12 1276.42,-154.99 1257.17,-154.88"/>
<polygon fill="#63b8ff" stroke="#63b8ff" points="1319.15,-158.73 1329.17,-155.29 1319.19,-151.73 1319.15,-158.73"/>
</a>
</g>
</g>
<!-- Node21 -->
<g id="Node000021" class="node">
<title>Node21</title>
<g id="a_Node000021"><a xlink:href="load_8c.html#a50bf1c2ea23d6f19ae9fc9e59ccda202" target="_top" xlink:title=" ">
<polygon fill="white" stroke="#666666" points="1269,-238.09 1144,-238.09 1144,-219.09 1269,-219.09 1269,-238.09"/>
<text text-anchor="middle" x="1206.5" y="-226.09" font-family="Helvetica,sans-Serif" font-size="10.00">bank_load_immediate</text>
</a>
</g>
</g>
<!-- Node19&#45;&gt;Node21 -->
<g id="edge24_Node000019_Node000021" class="edge">
<title>Node19&#45;&gt;Node21</title>
<g id="a_edge24_Node000019_Node000021"><a xlink:title=" ">
<path fill="none" stroke="#63b8ff" d="M1358.5,-170.67C1338.54,-182.9 1308.81,-199.83 1281,-210.59 1272.55,-213.87 1263.31,-216.68 1254.33,-219.05"/>
<polygon fill="#63b8ff" stroke="#63b8ff" points="1360.55,-173.51 1367.19,-165.26 1356.85,-167.57 1360.55,-173.51"/>
</a>
</g>
</g>
<!-- Node22 -->
<g id="Node000022" class="node">
<title>Node22</title>
<g id="a_Node000022"><a xlink:href="load_8c.html#aa397477e6168e682727486138e101461" target="_top" xlink:title=" ">
<polygon fill="white" stroke="#666666" points="1268.5,-201.09 1144.5,-201.09 1144.5,-182.09 1268.5,-182.09 1268.5,-201.09"/>
<text text-anchor="middle" x="1206.5" y="-189.09" font-family="Helvetica,sans-Serif" font-size="10.00">sequence_dma_async</text>
</a>
</g>
</g>
<!-- Node19&#45;&gt;Node22 -->
<g id="edge25_Node000019_Node000022" class="edge">
<title>Node19&#45;&gt;Node22</title>
<g id="a_edge25_Node000019_Node000022"><a xlink:title=" ">
<path fill="none" stroke="#63b8ff" d="M1325.62,-167.23C1302.38,-172.02 1275.78,-177.51 1253.72,-182.06"/>
<polygon fill="#63b8ff" stroke="#63b8ff" points="1326.61,-170.6 1335.7,-165.15 1325.19,-163.74 1326.61,-170.6"/>
</a>
</g>
</g>
<!-- Node23 -->
<g id="Node000023" class="node">
<title>Node23</title>
<g id="a_Node000023"><a xlink:href="load_8c.html#a1cd6d11794b341d8e9d9e9330305c60f" target="_top" xlink:title=" ">
<polygon fill="white" stroke="#666666" points="1281,-127.09 1132,-127.09 1132,-108.09 1281,-108.09 1281,-127.09"/>
<text text-anchor="middle" x="1206.5" y="-115.09" font-family="Helvetica,sans-Serif" font-size="10.00">sequence_dma_immediate</text>
</a>
</g>
</g>
<!-- Node19&#45;&gt;Node23 -->
<g id="edge26_Node000019_Node000023" class="edge">
<title>Node19&#45;&gt;Node23</title>
<g id="a_edge26_Node000019_Node000023"><a xlink:title=" ">
<path fill="none" stroke="#63b8ff" d="M1328.03,-143.84C1303.36,-138.47 1274.51,-132.19 1251.22,-127.11"/>
<polygon fill="#63b8ff" stroke="#63b8ff" points="1327.45,-147.3 1337.97,-146.01 1328.94,-140.46 1327.45,-147.3"/>
</a>
</g>
</g>
<!-- Node24 -->
<g id="Node000024" class="node">
<title>Node24</title>
<g id="a_Node000024"><a xlink:href="load_8c.html#a87296581b8da4a2d19e2886665e12bef" target="_top" xlink:title=" ">
<polygon fill="white" stroke="#666666" points="1096,-127.09 991,-127.09 991,-108.09 1096,-108.09 1096,-127.09"/>
<text text-anchor="middle" x="1043.5" y="-115.09" font-family="Helvetica,sans-Serif" font-size="10.00">preload_sequence</text>
</a>
</g>
</g>
<!-- Node23&#45;&gt;Node24 -->
<g id="edge27_Node000023_Node000024" class="edge">
<title>Node23&#45;&gt;Node24</title>
<g id="a_edge27_Node000023_Node000024"><a xlink:title=" ">
<path fill="none" stroke="#63b8ff" d="M1121.53,-117.59C1112.96,-117.59 1104.43,-117.59 1096.36,-117.59"/>
<polygon fill="#63b8ff" stroke="#63b8ff" points="1121.6,-121.09 1131.6,-117.59 1121.6,-114.09 1121.6,-121.09"/>
</a>
</g>
</g>
<!-- Node24&#45;&gt;Node25 -->
<g id="edge28_Node000024_Node000025" class="edge">
<title>Node24&#45;&gt;Node25</title>
<g id="a_edge28_Node000024_Node000025"><a xlink:title=" ">
<path fill="none" stroke="#63b8ff" d="M994.5,-105.55C973.33,-100.25 948.81,-94.1 928.95,-89.11"/>
<polygon fill="#63b8ff" stroke="#63b8ff" points="993.72,-108.97 1004.27,-108.01 995.42,-102.18 993.72,-108.97"/>
</a>
</g>
</g>
<!-- Node26 -->
<g id="Node000026" class="node">
<title>Node26</title>
<g id="a_Node000026"><a xlink:href="port__eu_8c.html#adbb164f6ad02d89aead401d442b75ce5" target="_top" xlink:title=" ">
<polygon fill="white" stroke="#666666" points="773.5,-89.09 679.5,-89.09 679.5,-70.09 773.5,-70.09 773.5,-89.09"/>
<text text-anchor="middle" x="726.5" y="-77.09" font-family="Helvetica,sans-Serif" font-size="10.00">func_800CBCB0</text>
</a>
</g>
</g>
<!-- Node25&#45;&gt;Node26 -->
<g id="edge29_Node000025_Node000026" class="edge">
<title>Node25&#45;&gt;Node26</title>
<g id="a_edge29_Node000025_Node000026"><a xlink:title=" ">
<path fill="none" stroke="#63b8ff" d="M814.61,-79.59C800.66,-79.59 786.45,-79.59 773.67,-79.59"/>
<polygon fill="#63b8ff" stroke="#63b8ff" points="814.71,-83.09 824.71,-79.59 814.71,-76.09 814.71,-83.09"/>
</a>
</g>
</g>
<!-- Node26&#45;&gt;Node7 -->
<g id="edge30_Node000026_Node000007" class="edge">
<title>Node26&#45;&gt;Node7</title>
<g id="a_edge30_Node000026_Node000007"><a xlink:title=" ">
<path fill="none" stroke="#63b8ff" d="M668.75,-85.27C651.63,-86.98 632.64,-88.88 614.8,-90.66"/>
<polygon fill="#63b8ff" stroke="#63b8ff" points="669.54,-88.71 679.15,-84.23 668.85,-81.74 669.54,-88.71"/>
</a>
</g>
</g>
<!-- Node26&#45;&gt;Node8 -->
<g id="edge31_Node000026_Node000008" class="edge">
<title>Node26&#45;&gt;Node8</title>
<g id="a_edge31_Node000026_Node000008"><a xlink:title=" ">
<path fill="none" stroke="#63b8ff" d="M668.97,-73.63C655.97,-72.25 641.88,-70.77 628.02,-69.3"/>
<polygon fill="#63b8ff" stroke="#63b8ff" points="668.83,-77.13 679.15,-74.7 669.57,-70.17 668.83,-77.13"/>
</a>
</g>
</g>
<!-- Node28 -->
<g id="Node000028" class="node">
<title>Node28</title>
<g id="a_Node000028"><a xlink:href="seqplayer_8c.html#a96fd2718691a0e1c86de13d55670a8b1" target="_top" xlink:title=" ">
<polygon fill="white" stroke="#666666" points="1445.5,-89.09 1320.5,-89.09 1320.5,-70.09 1445.5,-70.09 1445.5,-89.09"/>
<text text-anchor="middle" x="1383" y="-77.09" font-family="Helvetica,sans-Serif" font-size="10.00">init_sequence_players</text>
</a>
</g>
</g>
<!-- Node27&#45;&gt;Node28 -->
<g id="edge34_Node000027_Node000028" class="edge">
<title>Node27&#45;&gt;Node28</title>
<g id="a_edge34_Node000027_Node000028"><a xlink:title=" ">
<path fill="none" stroke="#63b8ff" d="M1485.65,-79.59C1472.37,-79.59 1458.56,-79.59 1445.55,-79.59"/>
<polygon fill="#63b8ff" stroke="#63b8ff" points="1485.67,-83.09 1495.67,-79.59 1485.67,-76.09 1485.67,-83.09"/>
</a>
</g>
</g>
<!-- Node27&#45;&gt;Node29 -->
<g id="edge35_Node000027_Node000029" class="edge">
<title>Node27&#45;&gt;Node29</title>
<g id="a_edge35_Node000027_Node000029"><a xlink:title=" ">
<path fill="none" stroke="#63b8ff" d="M1501.15,-91.25C1477.66,-96.33 1450.46,-102.21 1428.18,-107.03"/>
<polygon fill="#63b8ff" stroke="#63b8ff" points="1501.93,-94.66 1510.96,-89.12 1500.45,-87.82 1501.93,-94.66"/>
</a>
</g>
</g>
<!-- Node30 -->
<g id="Node000030" class="node">
<title>Node30</title>
<g id="a_Node000030"><a xlink:href="load_8c.html#a6002fcbd2dd5d0a3b0b378c3dc6ee731" target="_top" xlink:title=" ">
<polygon fill="white" stroke="#666666" points="1088,-89.09 999,-89.09 999,-70.09 1088,-70.09 1088,-89.09"/>
<text text-anchor="middle" x="1043.5" y="-77.09" font-family="Helvetica,sans-Serif" font-size="10.00">load_sequence</text>
</a>
</g>
</g>
<!-- Node29&#45;&gt;Node30 -->
<g id="edge36_Node000029_Node000030" class="edge">
<title>Node29&#45;&gt;Node30</title>
<g id="a_edge36_Node000029_Node000030"><a xlink:title=" ">
<path fill="none" stroke="#63b8ff" d="M1324.07,-105.28C1310.01,-102.81 1295,-100.4 1281,-98.59 1214,-89.95 1135.78,-84.59 1088.22,-81.84"/>
<polygon fill="#63b8ff" stroke="#63b8ff" points="1323.65,-108.76 1334.11,-107.09 1324.88,-101.87 1323.65,-108.76"/>
</a>
</g>
</g>
<!-- Node30&#45;&gt;Node25 -->
<g id="edge37_Node000030_Node000025" class="edge">
<title>Node30&#45;&gt;Node25</title>
<g id="a_edge37_Node000030_Node000025"><a xlink:title=" ">
<path fill="none" stroke="#63b8ff" d="M988.51,-79.59C977.66,-79.59 966.16,-79.59 955.01,-79.59"/>
<polygon fill="#63b8ff" stroke="#63b8ff" points="988.68,-83.09 998.68,-79.59 988.68,-76.09 988.68,-83.09"/>
</a>
</g>
</g>
<!-- Node31&#45;&gt;Node5 -->
<g id="edge41_Node000031_Node000005" class="edge">
<title>Node31&#45;&gt;Node5</title>
<g id="a_edge41_Node000031_Node000005"><a xlink:title=" ">
<path fill="none" stroke="#63b8ff" d="M1498.48,-216.77C1470.16,-225.88 1437.04,-236.54 1413.72,-244.03"/>
<polygon fill="#63b8ff" stroke="#63b8ff" points="1499.83,-220.02 1508.27,-213.62 1497.68,-213.35 1499.83,-220.02"/>
</a>
</g>
</g>
<!-- Node32&#45;&gt;Node14 -->
<g id="edge44_Node000032_Node000014" class="edge">
<title>Node32&#45;&gt;Node14</title>
<g id="a_edge44_Node000032_Node000014"><a xlink:title=" ">
<path fill="none" stroke="#63b8ff" d="M1662.62,-269.51C1650.93,-271.18 1638.78,-272.91 1627.08,-274.58"/>
<polygon fill="#63b8ff" stroke="#63b8ff" points="1663.35,-272.94 1672.75,-268.06 1662.36,-266.01 1663.35,-272.94"/>
</a>
</g>
</g>
<!-- Node33&#45;&gt;Node13 -->
<g id="edge46_Node000033_Node000013" class="edge">
<title>Node33&#45;&gt;Node13</title>
<g id="a_edge46_Node000033_Node000013"><a xlink:title=" ">
<path fill="none" stroke="#63b8ff" d="M2046.37,-314.44C2025.24,-319.43 2000.4,-325.3 1978.02,-330.59"/>
<polygon fill="#63b8ff" stroke="#63b8ff" points="2047.18,-317.84 2056.11,-312.14 2045.57,-311.03 2047.18,-317.84"/>
</a>
</g>
</g>
<!-- Node33&#45;&gt;Node14 -->
<g id="edge47_Node000033_Node000014" class="edge">
<title>Node33&#45;&gt;Node14</title>
<g id="a_edge47_Node000033_Node000014"><a xlink:title=" ">
<path fill="none" stroke="#63b8ff" d="M2014.56,-299.86C1908.88,-296.33 1726.86,-290.26 1627.22,-286.94"/>
<polygon fill="#63b8ff" stroke="#63b8ff" points="2014.75,-303.37 2024.86,-300.2 2014.98,-296.37 2014.75,-303.37"/>
</a>
</g>
</g>
<!-- Node34&#45;&gt;Node13 -->
<g id="edge50_Node000034_Node000013" class="edge">
<title>Node34&#45;&gt;Node13</title>
<g id="a_edge50_Node000034_Node000013"><a xlink:title=" ">
<path fill="none" stroke="#63b8ff" d="M2196.59,-365.17C2146.43,-362.42 2081.56,-358.64 2024,-354.59 2012.39,-353.78 2000.1,-352.84 1988.11,-351.89"/>
<polygon fill="#63b8ff" stroke="#63b8ff" points="2196.57,-368.68 2206.74,-365.73 2196.95,-361.69 2196.57,-368.68"/>
</a>
</g>
</g>
</g>
</svg>
