<?xml version="1.0" encoding="UTF-8" standalone="no"?>
<!DOCTYPE svg PUBLIC "-//W3C//DTD SVG 1.1//EN"
 "http://www.w3.org/Graphics/SVG/1.1/DTD/svg11.dtd">
<!-- Generated by graphviz version 2.43.0 (0)
 -->
<!-- Title: src/port/ShipUtils.cpp Pages: 1 -->
<svg width="316pt" height="137pt"
 viewBox="0.00 0.00 316.00 137.00" xmlns="http://www.w3.org/2000/svg" xmlns:xlink="http://www.w3.org/1999/xlink">
<g id="graph0" class="graph" transform="scale(1 1) rotate(0) translate(4 133)">
<title>src/port/ShipUtils.cpp</title>
<!-- Node1 -->
<g id="Node000001" class="node">
<title>Node1</title>
<g id="a_Node000001"><a xlink:title=" ">
<polygon fill="#999999" stroke="#666666" points="188,-129 68,-129 68,-110 188,-110 188,-129"/>
<text text-anchor="middle" x="128" y="-117" font-family="Helvetica,sans-Serif" font-size="10.00">src/port/ShipUtils.cpp</text>
</a>
</g>
</g>
<!-- Node2 -->
<g id="Node000002" class="node">
<title>Node2</title>
<g id="a_Node000002"><a xlink:href="ShipUtils_8h.html" target="_top" xlink:title=" ">
<polygon fill="white" stroke="#666666" points="99.5,-74 30.5,-74 30.5,-55 99.5,-55 99.5,-74"/>
<text text-anchor="middle" x="65" y="-62" font-family="Helvetica,sans-Serif" font-size="10.00">ShipUtils.h</text>
</a>
</g>
</g>
<!-- Node1&#45;&gt;Node2 -->
<g id="edge1_Node000001_Node000002" class="edge">
<title>Node1&#45;&gt;Node2</title>
<g id="a_edge1_Node000001_Node000002"><a xlink:title=" ">
<path fill="none" stroke="#63b8ff" d="M117.88,-109.98C108.56,-102.15 94.53,-90.34 83.26,-80.86"/>
<polygon fill="#63b8ff" stroke="#63b8ff" points="85.21,-77.93 75.31,-74.17 80.71,-83.29 85.21,-77.93"/>
</a>
</g>
</g>
<!-- Node3 -->
<g id="Node000003" class="node">
<title>Node3</title>
<g id="a_Node000003"><a xlink:title=" ">
<polygon fill="#e0e0e0" stroke="#999999" points="138,-19 0,-19 0,0 138,0 138,-19"/>
<text text-anchor="middle" x="69" y="-7" font-family="Helvetica,sans-Serif" font-size="10.00">libultraship/libultraship.h</text>
</a>
</g>
</g>
<!-- Node1&#45;&gt;Node3 -->
<g id="edge3_Node000001_Node000003" class="edge">
<title>Node1&#45;&gt;Node3</title>
<g id="a_edge3_Node000001_Node000003"><a xlink:title=" ">
<path fill="none" stroke="#63b8ff" d="M126.46,-109.83C123.94,-97.16 118.2,-73.13 108,-55 102.11,-44.52 93.46,-34.33 85.8,-26.35"/>
<polygon fill="#63b8ff" stroke="#63b8ff" points="88.16,-23.76 78.61,-19.17 83.21,-28.71 88.16,-23.76"/>
</a>
</g>
</g>
<!-- Node4 -->
<g id="Node000004" class="node">
<title>Node4</title>
<g id="a_Node000004"><a xlink:href="macros_8h.html" target="_top" xlink:title=" ">
<polygon fill="white" stroke="#666666" points="218,-74 156,-74 156,-55 218,-55 218,-74"/>
<text text-anchor="middle" x="187" y="-62" font-family="Helvetica,sans-Serif" font-size="10.00">macros.h</text>
</a>
</g>
</g>
<!-- Node1&#45;&gt;Node4 -->
<g id="edge4_Node000001_Node000004" class="edge">
<title>Node1&#45;&gt;Node4</title>
<g id="a_edge4_Node000001_Node000004"><a xlink:title=" ">
<path fill="none" stroke="#63b8ff" d="M137.48,-109.98C146.2,-102.15 159.34,-90.34 169.9,-80.86"/>
<polygon fill="#63b8ff" stroke="#63b8ff" points="172.25,-83.46 177.35,-74.17 167.57,-78.25 172.25,-83.46"/>
</a>
</g>
</g>
<!-- Node2&#45;&gt;Node3 -->
<g id="edge2_Node000002_Node000003" class="edge">
<title>Node2&#45;&gt;Node3</title>
<g id="a_edge2_Node000002_Node000003"><a xlink:title=" ">
<path fill="none" stroke="#63b8ff" d="M65.66,-54.75C66.18,-47.8 66.94,-37.85 67.59,-29.13"/>
<polygon fill="#63b8ff" stroke="#63b8ff" points="71.09,-29.32 68.35,-19.09 64.11,-28.8 71.09,-29.32"/>
</a>
</g>
</g>
<!-- Node5 -->
<g id="Node000005" class="node">
<title>Node5</title>
<g id="a_Node000005"><a xlink:href="math_8h.html" target="_top" xlink:title=" ">
<polygon fill="white" stroke="#666666" points="209.5,-19 158.5,-19 158.5,0 209.5,0 209.5,-19"/>
<text text-anchor="middle" x="184" y="-7" font-family="Helvetica,sans-Serif" font-size="10.00">math.h</text>
</a>
</g>
</g>
<!-- Node4&#45;&gt;Node5 -->
<g id="edge5_Node000004_Node000005" class="edge">
<title>Node4&#45;&gt;Node5</title>
<g id="a_edge5_Node000004_Node000005"><a xlink:title=" ">
<path fill="none" stroke="#63b8ff" d="M186.5,-54.75C186.11,-47.8 185.55,-37.85 185.05,-29.13"/>
<polygon fill="#63b8ff" stroke="#63b8ff" points="188.55,-28.88 184.49,-19.09 181.56,-29.27 188.55,-28.88"/>
</a>
</g>
</g>
<!-- Node6 -->
<g id="Node000006" class="node">
<title>Node6</title>
<g id="a_Node000006"><a xlink:title=" ">
<polygon fill="#e0e0e0" stroke="#999999" points="308,-19 228,-19 228,0 308,0 308,-19"/>
<text text-anchor="middle" x="268" y="-7" font-family="Helvetica,sans-Serif" font-size="10.00">libultraship.h</text>
</a>
</g>
</g>
<!-- Node4&#45;&gt;Node6 -->
<g id="edge6_Node000004_Node000006" class="edge">
<title>Node4&#45;&gt;Node6</title>
<g id="a_edge6_Node000004_Node000006"><a xlink:title=" ">
<path fill="none" stroke="#63b8ff" d="M200.01,-54.98C212.46,-46.84 231.46,-34.41 246.21,-24.76"/>
<polygon fill="#63b8ff" stroke="#63b8ff" points="248.3,-27.57 254.75,-19.17 244.46,-21.72 248.3,-27.57"/>
</a>
</g>
</g>
</g>
</svg>
