<?xml version="1.0" encoding="UTF-8" standalone="no"?>
<!DOCTYPE svg PUBLIC "-//W3C//DTD SVG 1.1//EN"
 "http://www.w3.org/Graphics/SVG/1.1/DTD/svg11.dtd">
<!-- Generated by graphviz version 2.43.0 (0)
 -->
<!-- Title: func_802A4300 Pages: 1 -->
<svg width="613pt" height="65pt"
 viewBox="0.00 0.00 613.00 65.00" xmlns="http://www.w3.org/2000/svg" xmlns:xlink="http://www.w3.org/1999/xlink">
<g id="graph0" class="graph" transform="scale(1 1) rotate(0) translate(4 61)">
<title>func_802A4300</title>
<!-- Node1 -->
<g id="Node000001" class="node">
<title>Node1</title>
<g id="a_Node000001"><a xlink:title=" ">
<polygon fill="#999999" stroke="#666666" points="92,-38 0,-38 0,-19 92,-19 92,-38"/>
<text text-anchor="middle" x="46" y="-26" font-family="Helvetica,sans-Serif" font-size="10.00">func_802A4300</text>
</a>
</g>
</g>
<!-- Node2 -->
<g id="Node000002" class="node">
<title>Node2</title>
<g id="a_Node000002"><a xlink:href="Engine_8cpp.html#afc8b077c3a02d35419cae70c83942941" target="_top" xlink:title=" ">
<polygon fill="white" stroke="#666666" points="301,-57 128,-57 128,-38 301,-38 301,-57"/>
<text text-anchor="middle" x="214.5" y="-45" font-family="Helvetica,sans-Serif" font-size="10.00">OTRGetDimensionFromLeftEdge</text>
</a>
</g>
</g>
<!-- Node1&#45;&gt;Node2 -->
<g id="edge1_Node000001_Node000002" class="edge">
<title>Node1&#45;&gt;Node2</title>
<g id="a_edge1_Node000001_Node000002"><a xlink:title=" ">
<path fill="none" stroke="#63b8ff" d="M92.06,-33.64C100.85,-34.64 110.37,-35.73 120.07,-36.84"/>
<polygon fill="#63b8ff" stroke="#63b8ff" points="119.9,-40.34 130.23,-38 120.69,-33.39 119.9,-40.34"/>
</a>
</g>
</g>
<!-- Node5 -->
<g id="Node000005" class="node">
<title>Node5</title>
<g id="a_Node000005"><a xlink:href="Engine_8cpp.html#a0b2a0a6072d24bc155959292bc165961" target="_top" xlink:title=" ">
<polygon fill="white" stroke="#666666" points="483,-19 337,-19 337,0 483,0 483,-19"/>
<text text-anchor="middle" x="410" y="-7" font-family="Helvetica,sans-Serif" font-size="10.00">OTRGetGameRenderWidth</text>
</a>
</g>
</g>
<!-- Node1&#45;&gt;Node5 -->
<g id="edge4_Node000001_Node000005" class="edge">
<title>Node1&#45;&gt;Node5</title>
<g id="a_edge4_Node000001_Node000005"><a xlink:title=" ">
<path fill="none" stroke="#63b8ff" d="M92.12,-26.13C150.67,-23.06 253.95,-17.64 326.66,-13.82"/>
<polygon fill="#63b8ff" stroke="#63b8ff" points="326.9,-17.31 336.7,-13.29 326.53,-10.32 326.9,-17.31"/>
</a>
</g>
</g>
<!-- Node3 -->
<g id="Node000003" class="node">
<title>Node3</title>
<g id="a_Node000003"><a xlink:href="Engine_8cpp.html#a130aa97f1c7fae24f3d23f8126e7506f" target="_top" xlink:title=" ">
<polygon fill="white" stroke="#666666" points="466.5,-56 353.5,-56 353.5,-37 466.5,-37 466.5,-56"/>
<text text-anchor="middle" x="410" y="-44" font-family="Helvetica,sans-Serif" font-size="10.00">OTRGetAspectRatio</text>
</a>
</g>
</g>
<!-- Node2&#45;&gt;Node3 -->
<g id="edge2_Node000002_Node000003" class="edge">
<title>Node2&#45;&gt;Node3</title>
<g id="a_edge2_Node000002_Node000003"><a xlink:title=" ">
<path fill="none" stroke="#63b8ff" d="M301.22,-47.06C315.31,-46.98 329.73,-46.91 343.24,-46.84"/>
<polygon fill="#63b8ff" stroke="#63b8ff" points="343.4,-50.34 353.38,-46.79 343.36,-43.34 343.4,-50.34"/>
</a>
</g>
</g>
<!-- Node4 -->
<g id="Node000004" class="node">
<title>Node4</title>
<g id="a_Node000004"><a xlink:href="Engine_8cpp.html#a29357c424545be61af4bd28d84fd344a" target="_top" xlink:title=" ">
<polygon fill="white" stroke="#666666" points="605,-37 519,-37 519,-18 605,-18 605,-37"/>
<text text-anchor="middle" x="562" y="-25" font-family="Helvetica,sans-Serif" font-size="10.00">GetInterpreter</text>
</a>
</g>
</g>
<!-- Node3&#45;&gt;Node4 -->
<g id="edge3_Node000003_Node000004" class="edge">
<title>Node3&#45;&gt;Node4</title>
<g id="a_edge3_Node000003_Node000004"><a xlink:title=" ">
<path fill="none" stroke="#63b8ff" d="M466.85,-39.43C480.53,-37.69 495.11,-35.85 508.62,-34.14"/>
<polygon fill="#63b8ff" stroke="#63b8ff" points="509.22,-37.59 518.7,-32.86 508.34,-30.64 509.22,-37.59"/>
</a>
</g>
</g>
<!-- Node5&#45;&gt;Node4 -->
<g id="edge5_Node000005_Node000004" class="edge">
<title>Node5&#45;&gt;Node4</title>
<g id="a_edge5_Node000005_Node000004"><a xlink:title=" ">
<path fill="none" stroke="#63b8ff" d="M483.36,-18.18C491.9,-19.21 500.48,-20.24 508.66,-21.22"/>
<polygon fill="#63b8ff" stroke="#63b8ff" points="508.43,-24.72 518.78,-22.43 509.27,-17.77 508.43,-24.72"/>
</a>
</g>
</g>
</g>
</svg>
