<?xml version="1.0" encoding="UTF-8" standalone="no"?>
<!DOCTYPE svg PUBLIC "-//W3C//DTD SVG 1.1//EN"
 "http://www.w3.org/Graphics/SVG/1.1/DTD/svg11.dtd">
<!-- Generated by graphviz version 2.43.0 (0)
 -->
<!-- Title: src/port/SpaghettiGui.cpp Pages: 1 -->
<svg width="658pt" height="137pt"
 viewBox="0.00 0.00 658.00 137.00" xmlns="http://www.w3.org/2000/svg" xmlns:xlink="http://www.w3.org/1999/xlink">
<g id="graph0" class="graph" transform="scale(1 1) rotate(0) translate(4 133)">
<title>src/port/SpaghettiGui.cpp</title>
<!-- Node1 -->
<g id="Node000001" class="node">
<title>Node1</title>
<g id="a_Node000001"><a xlink:title=" ">
<polygon fill="#999999" stroke="#666666" points="338,-129 198,-129 198,-110 338,-110 338,-129"/>
<text text-anchor="middle" x="268" y="-117" font-family="Helvetica,sans-Serif" font-size="10.00">src/port/SpaghettiGui.cpp</text>
</a>
</g>
</g>
<!-- Node2 -->
<g id="Node000002" class="node">
<title>Node2</title>
<g id="a_Node000002"><a xlink:title=" ">
<polygon fill="#e0e0e0" stroke="#999999" points="80,-19 0,-19 0,0 80,0 80,-19"/>
<text text-anchor="middle" x="40" y="-7" font-family="Helvetica,sans-Serif" font-size="10.00">libultraship.h</text>
</a>
</g>
</g>
<!-- Node1&#45;&gt;Node2 -->
<g id="edge1_Node000001_Node000002" class="edge">
<title>Node1&#45;&gt;Node2</title>
<g id="a_edge1_Node000001_Node000002"><a xlink:title=" ">
<path fill="none" stroke="#63b8ff" d="M233.39,-109.98C205.48,-102.44 165.64,-90.12 133,-74 105.43,-60.38 76.64,-39.53 58.53,-25.48"/>
<polygon fill="#63b8ff" stroke="#63b8ff" points="60.57,-22.63 50.55,-19.18 56.23,-28.12 60.57,-22.63"/>
</a>
</g>
</g>
<!-- Node3 -->
<g id="Node000003" class="node">
<title>Node3</title>
<g id="a_Node000003"><a xlink:href="SpaghettiGui_8h.html" target="_top" xlink:title=" ">
<polygon fill="white" stroke="#666666" points="239.5,-74 150.5,-74 150.5,-55 239.5,-55 239.5,-74"/>
<text text-anchor="middle" x="195" y="-62" font-family="Helvetica,sans-Serif" font-size="10.00">SpaghettiGui.h</text>
</a>
</g>
</g>
<!-- Node1&#45;&gt;Node3 -->
<g id="edge2_Node000001_Node000003" class="edge">
<title>Node1&#45;&gt;Node3</title>
<g id="a_edge2_Node000001_Node000003"><a xlink:title=" ">
<path fill="none" stroke="#63b8ff" d="M256.27,-109.98C245.27,-102 228.58,-89.88 215.4,-80.31"/>
<polygon fill="#63b8ff" stroke="#63b8ff" points="217.09,-77.21 206.94,-74.17 212.98,-82.88 217.09,-77.21"/>
</a>
</g>
</g>
<!-- Node4 -->
<g id="Node000004" class="node">
<title>Node4</title>
<g id="a_Node000004"><a xlink:title=" ">
<polygon fill="#e0e0e0" stroke="#999999" points="222,-19 98,-19 98,0 222,0 222,-19"/>
<text text-anchor="middle" x="160" y="-7" font-family="Helvetica,sans-Serif" font-size="10.00">ship/window/gui/Gui.h</text>
</a>
</g>
</g>
<!-- Node1&#45;&gt;Node4 -->
<g id="edge6_Node000001_Node000004" class="edge">
<title>Node1&#45;&gt;Node4</title>
<g id="a_edge6_Node000001_Node000004"><a xlink:title=" ">
<path fill="none" stroke="#63b8ff" d="M198.92,-109.97C177.11,-103.65 155.26,-92.75 142,-74 132.21,-60.17 139.74,-41.13 147.84,-27.51"/>
<polygon fill="#63b8ff" stroke="#63b8ff" points="150.81,-29.37 153.34,-19.08 144.94,-25.55 150.81,-29.37"/>
</a>
</g>
</g>
<!-- Node5 -->
<g id="Node000005" class="node">
<title>Node5</title>
<g id="a_Node000005"><a xlink:title=" ">
<polygon fill="#e0e0e0" stroke="#999999" points="368,-19 240,-19 240,0 368,0 368,-19"/>
<text text-anchor="middle" x="304" y="-7" font-family="Helvetica,sans-Serif" font-size="10.00">ship/window/Window.h</text>
</a>
</g>
</g>
<!-- Node1&#45;&gt;Node5 -->
<g id="edge7_Node000001_Node000005" class="edge">
<title>Node1&#45;&gt;Node5</title>
<g id="a_edge7_Node000001_Node000005"><a xlink:title=" ">
<path fill="none" stroke="#63b8ff" d="M270.38,-109.81C273.8,-97.52 280.4,-74.39 287,-55 289.96,-46.29 293.56,-36.75 296.68,-28.74"/>
<polygon fill="#63b8ff" stroke="#63b8ff" points="299.99,-29.88 300.42,-19.29 293.48,-27.31 299.99,-29.88"/>
</a>
</g>
</g>
<!-- Node6 -->
<g id="Node000006" class="node">
<title>Node6</title>
<g id="a_Node000006"><a xlink:title=" ">
<polygon fill="#e0e0e0" stroke="#999999" points="408,-74 296,-74 296,-55 408,-55 408,-74"/>
<text text-anchor="middle" x="352" y="-62" font-family="Helvetica,sans-Serif" font-size="10.00">ship/config/Config.h</text>
</a>
</g>
</g>
<!-- Node1&#45;&gt;Node6 -->
<g id="edge8_Node000001_Node000006" class="edge">
<title>Node1&#45;&gt;Node6</title>
<g id="a_edge8_Node000001_Node000006"><a xlink:title=" ">
<path fill="none" stroke="#63b8ff" d="M281.5,-109.98C294.4,-101.84 314.1,-89.41 329.4,-79.76"/>
<polygon fill="#63b8ff" stroke="#63b8ff" points="331.67,-82.47 338.26,-74.17 327.93,-76.55 331.67,-82.47"/>
</a>
</g>
</g>
<!-- Node7 -->
<g id="Node000007" class="node">
<title>Node7</title>
<g id="a_Node000007"><a xlink:title=" ">
<polygon fill="#e0e0e0" stroke="#999999" points="527.5,-74 426.5,-74 426.5,-55 527.5,-55 527.5,-74"/>
<text text-anchor="middle" x="477" y="-62" font-family="Helvetica,sans-Serif" font-size="10.00">SDL2/SDL_hints.h</text>
</a>
</g>
</g>
<!-- Node1&#45;&gt;Node7 -->
<g id="edge9_Node000001_Node000007" class="edge">
<title>Node1&#45;&gt;Node7</title>
<g id="a_edge9_Node000001_Node000007"><a xlink:title=" ">
<path fill="none" stroke="#63b8ff" d="M301.58,-109.98C337.35,-100.91 394.12,-86.52 433.34,-76.57"/>
<polygon fill="#63b8ff" stroke="#63b8ff" points="434.32,-79.93 443.16,-74.08 432.6,-73.15 434.32,-79.93"/>
</a>
</g>
</g>
<!-- Node8 -->
<g id="Node000008" class="node">
<title>Node8</title>
<g id="a_Node000008"><a xlink:title=" ">
<polygon fill="#e0e0e0" stroke="#999999" points="650,-74 546,-74 546,-55 650,-55 650,-74"/>
<text text-anchor="middle" x="598" y="-62" font-family="Helvetica,sans-Serif" font-size="10.00">SDL2/SDL_video.h</text>
</a>
</g>
</g>
<!-- Node1&#45;&gt;Node8 -->
<g id="edge10_Node000001_Node000008" class="edge">
<title>Node1&#45;&gt;Node8</title>
<g id="a_edge10_Node000001_Node000008"><a xlink:title=" ">
<path fill="none" stroke="#63b8ff" d="M321.02,-109.98C379.61,-100.57 473.88,-85.43 535.88,-75.48"/>
<polygon fill="#63b8ff" stroke="#63b8ff" points="536.61,-78.9 545.93,-73.86 535.5,-71.99 536.61,-78.9"/>
</a>
</g>
</g>
<!-- Node3&#45;&gt;Node2 -->
<g id="edge3_Node000003_Node000002" class="edge">
<title>Node3&#45;&gt;Node2</title>
<g id="a_edge3_Node000003_Node000002"><a xlink:title=" ">
<path fill="none" stroke="#63b8ff" d="M170.1,-54.98C144.3,-46.16 103.78,-32.31 74.82,-22.41"/>
<polygon fill="#63b8ff" stroke="#63b8ff" points="75.69,-19.01 65.1,-19.08 73.43,-25.63 75.69,-19.01"/>
</a>
</g>
</g>
<!-- Node3&#45;&gt;Node4 -->
<g id="edge4_Node000003_Node000004" class="edge">
<title>Node3&#45;&gt;Node4</title>
<g id="a_edge4_Node000003_Node000004"><a xlink:title=" ">
<path fill="none" stroke="#63b8ff" d="M189.22,-54.75C184.38,-47.42 177.32,-36.73 171.36,-27.7"/>
<polygon fill="#63b8ff" stroke="#63b8ff" points="174.1,-25.5 165.67,-19.09 168.26,-29.36 174.1,-25.5"/>
</a>
</g>
</g>
<!-- Node3&#45;&gt;Node5 -->
<g id="edge5_Node000003_Node000005" class="edge">
<title>Node3&#45;&gt;Node5</title>
<g id="a_edge5_Node000003_Node000005"><a xlink:title=" ">
<path fill="none" stroke="#63b8ff" d="M212.51,-54.98C229.97,-46.5 257.01,-33.35 277.17,-23.54"/>
<polygon fill="#63b8ff" stroke="#63b8ff" points="278.71,-26.69 286.17,-19.17 275.64,-20.4 278.71,-26.69"/>
</a>
</g>
</g>
</g>
</svg>
