<?xml version="1.0" encoding="UTF-8" standalone="no"?>
<!DOCTYPE svg PUBLIC "-//W3C//DTD SVG 1.1//EN"
 "http://www.w3.org/Graphics/SVG/1.1/DTD/svg11.dtd">
<!-- Generated by graphviz version 2.43.0 (0)
 -->
<!-- Title: spawn_players_3p_battle Pages: 1 -->
<svg width="1172pt" height="404pt"
 viewBox="0.00 0.00 1172.00 404.00" xmlns="http://www.w3.org/2000/svg" xmlns:xlink="http://www.w3.org/1999/xlink">
<g id="graph0" class="graph" transform="scale(1 1) rotate(0) translate(4 400)">
<title>spawn_players_3p_battle</title>
<!-- Node1 -->
<g id="Node000001" class="node">
<title>Node1</title>
<g id="a_Node000001"><a xlink:title=" ">
<polygon fill="#999999" stroke="#666666" points="140,-292 0,-292 0,-273 140,-273 140,-292"/>
<text text-anchor="middle" x="70" y="-280" font-family="Helvetica,sans-Serif" font-size="10.00">spawn_players_3p_battle</text>
</a>
</g>
</g>
<!-- Node2 -->
<g id="Node000002" class="node">
<title>Node2</title>
<g id="a_Node000002"><a xlink:href="spawn__players_8c.html#a1ef01690d08edebb46104bed8651c847" target="_top" xlink:title=" ">
<polygon fill="white" stroke="#666666" points="268,-329 176,-329 176,-310 268,-310 268,-329"/>
<text text-anchor="middle" x="222" y="-317" font-family="Helvetica,sans-Serif" font-size="10.00">func_80039AE4</text>
</a>
</g>
</g>
<!-- Node1&#45;&gt;Node2 -->
<g id="edge1_Node000001_Node000002" class="edge">
<title>Node1&#45;&gt;Node2</title>
<g id="a_edge1_Node000001_Node000002"><a xlink:title=" ">
<path fill="none" stroke="#63b8ff" d="M109.63,-292.03C128.8,-296.76 152.16,-302.52 172.52,-307.54"/>
<polygon fill="#63b8ff" stroke="#63b8ff" points="171.69,-310.94 182.24,-309.94 173.37,-304.15 171.69,-310.94"/>
</a>
</g>
</g>
<!-- Node3 -->
<g id="Node000003" class="node">
<title>Node3</title>
<g id="a_Node000003"><a xlink:href="Game_8cpp.html#ac015fe2f0caa481693b5a07997bf69b6" target="_top" xlink:title=" ">
<polygon fill="white" stroke="#666666" points="257,-292 187,-292 187,-273 257,-273 257,-292"/>
<text text-anchor="middle" x="222" y="-280" font-family="Helvetica,sans-Serif" font-size="10.00">IsBigDonut</text>
</a>
</g>
</g>
<!-- Node1&#45;&gt;Node3 -->
<g id="edge2_Node000001_Node000003" class="edge">
<title>Node1&#45;&gt;Node3</title>
<g id="a_edge2_Node000001_Node000003"><a xlink:title=" ">
<path fill="none" stroke="#63b8ff" d="M140.29,-282.5C152.63,-282.5 165.18,-282.5 176.59,-282.5"/>
<polygon fill="#63b8ff" stroke="#63b8ff" points="176.71,-286 186.71,-282.5 176.71,-279 176.71,-286"/>
</a>
</g>
</g>
<!-- Node6 -->
<g id="Node000006" class="node">
<title>Node6</title>
<g id="a_Node000006"><a xlink:href="spawn__players_8c.html#a43c7f2d844178603dc415f549283e97c" target="_top" xlink:title=" ">
<polygon fill="white" stroke="#666666" points="264,-161 180,-161 180,-142 264,-142 264,-161"/>
<text text-anchor="middle" x="222" y="-149" font-family="Helvetica,sans-Serif" font-size="10.00">spawn_player</text>
</a>
</g>
</g>
<!-- Node1&#45;&gt;Node6 -->
<g id="edge5_Node000001_Node000006" class="edge">
<title>Node1&#45;&gt;Node6</title>
<g id="a_edge5_Node000001_Node000006"><a xlink:title=" ">
<path fill="none" stroke="#63b8ff" d="M82.27,-272.65C107.92,-250.26 170.82,-195.32 202.35,-167.79"/>
<polygon fill="#63b8ff" stroke="#63b8ff" points="204.77,-170.32 210,-161.1 200.17,-165.05 204.77,-170.32"/>
</a>
</g>
</g>
<!-- Node4 -->
<g id="Node000004" class="node">
<title>Node4</title>
<g id="a_Node000004"><a xlink:href="classWorld.html#a1a4dacc6aea0b846df998be0afc239f7" target="_top" xlink:title=" ">
<polygon fill="white" stroke="#666666" points="423.5,-292 330.5,-292 330.5,-273 423.5,-273 423.5,-292"/>
<text text-anchor="middle" x="377" y="-280" font-family="Helvetica,sans-Serif" font-size="10.00">World::GetTrack</text>
</a>
</g>
</g>
<!-- Node3&#45;&gt;Node4 -->
<g id="edge3_Node000003_Node000004" class="edge">
<title>Node3&#45;&gt;Node4</title>
<g id="a_edge3_Node000003_Node000004"><a xlink:title=" ">
<path fill="none" stroke="#63b8ff" d="M257.34,-282.5C275.89,-282.5 299.25,-282.5 320.32,-282.5"/>
<polygon fill="#63b8ff" stroke="#63b8ff" points="320.46,-286 330.46,-282.5 320.46,-279 320.46,-286"/>
</a>
</g>
</g>
<!-- Node5 -->
<g id="Node000005" class="node">
<title>Node5</title>
<g id="a_Node000005"><a xlink:href="Game_8cpp.html#ae2fa844b3cb1021ecbc357f8ed2ad8cc" target="_top" xlink:title=" ">
<polygon fill="white" stroke="#666666" points="408,-329 346,-329 346,-310 408,-310 408,-329"/>
<text text-anchor="middle" x="377" y="-317" font-family="Helvetica,sans-Serif" font-size="10.00">GetWorld</text>
</a>
</g>
</g>
<!-- Node3&#45;&gt;Node5 -->
<g id="edge4_Node000003_Node000005" class="edge">
<title>Node3&#45;&gt;Node5</title>
<g id="a_edge4_Node000003_Node000005"><a xlink:title=" ">
<path fill="none" stroke="#63b8ff" d="M257.34,-290.8C280.62,-296.43 311.48,-303.9 335.89,-309.8"/>
<polygon fill="#63b8ff" stroke="#63b8ff" points="335.37,-313.28 345.92,-312.22 337.02,-306.47 335.37,-313.28"/>
</a>
</g>
</g>
<!-- Node7 -->
<g id="Node000007" class="node">
<title>Node7</title>
<g id="a_Node000007"><a xlink:href="math__util_8c.html#ad8cb26171252640b6d9398122af8173a" target="_top" xlink:title=" ">
<polygon fill="white" stroke="#666666" points="614.5,-265.5 495.5,-265.5 495.5,-235.5 614.5,-235.5 614.5,-265.5"/>
<text text-anchor="start" x="503.5" y="-253.5" font-family="Helvetica,sans-Serif" font-size="10.00">calculate_orientation</text>
<text text-anchor="middle" x="555" y="-242.5" font-family="Helvetica,sans-Serif" font-size="10.00">_matrix</text>
</a>
</g>
</g>
<!-- Node6&#45;&gt;Node7 -->
<g id="edge6_Node000006_Node000007" class="edge">
<title>Node6&#45;&gt;Node7</title>
<g id="a_edge6_Node000006_Node000007"><a xlink:title=" ">
<path fill="none" stroke="#63b8ff" d="M229.99,-161.04C242.64,-177.48 271.13,-210.82 304,-225.5 361.32,-251.09 433.19,-255.81 485.15,-255.04"/>
<polygon fill="#63b8ff" stroke="#63b8ff" points="485.34,-258.54 495.26,-254.82 485.19,-251.54 485.34,-258.54"/>
</a>
</g>
</g>
<!-- Node18 -->
<g id="Node000018" class="node">
<title>Node18</title>
<g id="a_Node000018"><a xlink:href="code__80057C60_8c.html#ab6fd60c5cc852960210c924ba7aa47f6" target="_top" xlink:title=" ">
<polygon fill="white" stroke="#666666" points="447,-216 307,-216 307,-197 447,-197 447,-216"/>
<text text-anchor="middle" x="377" y="-204" font-family="Helvetica,sans-Serif" font-size="10.00">clear_all_player_balloons</text>
</a>
</g>
</g>
<!-- Node6&#45;&gt;Node18 -->
<g id="edge20_Node000006_Node000018" class="edge">
<title>Node6&#45;&gt;Node18</title>
<g id="a_edge20_Node000006_Node000018"><a xlink:title=" ">
<path fill="none" stroke="#63b8ff" d="M241.26,-161.01C257.42,-169.15 281.82,-180.74 304,-188.5 309.91,-190.57 316.16,-192.5 322.42,-194.27"/>
<polygon fill="#63b8ff" stroke="#63b8ff" points="321.65,-197.69 332.22,-196.92 323.48,-190.93 321.65,-197.69"/>
</a>
</g>
</g>
<!-- Node19 -->
<g id="Node000019" class="node">
<title>Node19</title>
<g id="a_Node000019"><a xlink:href="Editor_8cpp.html#ad9cda86dc3eb2b6511a8c9a951945014" target="_top" xlink:title=" ">
<polygon fill="white" stroke="#666666" points="426,-179 328,-179 328,-160 426,-160 426,-179"/>
<text text-anchor="middle" x="377" y="-167" font-family="Helvetica,sans-Serif" font-size="10.00">Editor_IsEnabled</text>
</a>
</g>
</g>
<!-- Node6&#45;&gt;Node19 -->
<g id="edge21_Node000006_Node000019" class="edge">
<title>Node6&#45;&gt;Node19</title>
<g id="a_edge21_Node000006_Node000019"><a xlink:title=" ">
<path fill="none" stroke="#63b8ff" d="M264,-156.32C280.5,-158.27 299.84,-160.54 317.76,-162.65"/>
<polygon fill="#63b8ff" stroke="#63b8ff" points="317.48,-166.14 327.82,-163.83 318.3,-159.19 317.48,-166.14"/>
</a>
</g>
</g>
<!-- Node20 -->
<g id="Node000020" class="node">
<title>Node20</title>
<g id="a_Node000020"><a xlink:href="render__courses_8c.html#a37ee937c815f25140e16f2ae6c528a73" target="_top" xlink:title=" ">
<polygon fill="white" stroke="#666666" points="423,-25 331,-25 331,-6 423,-6 423,-25"/>
<text text-anchor="middle" x="377" y="-13" font-family="Helvetica,sans-Serif" font-size="10.00">func_80295BF8</text>
</a>
</g>
</g>
<!-- Node6&#45;&gt;Node20 -->
<g id="edge22_Node000006_Node000020" class="edge">
<title>Node6&#45;&gt;Node20</title>
<g id="a_edge22_Node000006_Node000020"><a xlink:title=" ">
<path fill="none" stroke="#63b8ff" d="M227.38,-141.84C237.64,-120.28 265.31,-67.9 304,-39.5 309.84,-35.21 316.5,-31.66 323.35,-28.72"/>
<polygon fill="#63b8ff" stroke="#63b8ff" points="324.68,-31.96 332.75,-25.09 322.16,-25.43 324.68,-31.96"/>
</a>
</g>
</g>
<!-- Node23 -->
<g id="Node000023" class="node">
<title>Node23</title>
<g id="a_Node000023"><a xlink:href="code__80057C60_8c.html#a78bd5e72e1f64b0ab8d599dfcfc7ca94" target="_top" xlink:title=" ">
<polygon fill="white" stroke="#666666" points="443,-142 311,-142 311,-123 443,-123 443,-142"/>
<text text-anchor="middle" x="377" y="-130" font-family="Helvetica,sans-Serif" font-size="10.00">init_all_player_balloons</text>
</a>
</g>
</g>
<!-- Node6&#45;&gt;Node23 -->
<g id="edge25_Node000006_Node000023" class="edge">
<title>Node6&#45;&gt;Node23</title>
<g id="a_edge25_Node000006_Node000023"><a xlink:title=" ">
<path fill="none" stroke="#63b8ff" d="M264,-146.41C275.39,-144.99 288.12,-143.41 300.8,-141.84"/>
<polygon fill="#63b8ff" stroke="#63b8ff" points="301.45,-145.29 310.94,-140.58 300.58,-138.34 301.45,-145.29"/>
</a>
</g>
</g>
<!-- Node26 -->
<g id="Node000026" class="node">
<title>Node26</title>
<g id="a_Node000026"><a xlink:href="code__80057C60_8c.html#a94d34593138565c85a016c12cd68639d" target="_top" xlink:title=" ">
<polygon fill="white" stroke="#666666" points="450,-105 304,-105 304,-86 450,-86 450,-105"/>
<text text-anchor="middle" x="377" y="-93" font-family="Helvetica,sans-Serif" font-size="10.00">reset_player_particle_pool</text>
</a>
</g>
</g>
<!-- Node6&#45;&gt;Node26 -->
<g id="edge30_Node000006_Node000026" class="edge">
<title>Node6&#45;&gt;Node26</title>
<g id="a_edge30_Node000006_Node000026"><a xlink:title=" ">
<path fill="none" stroke="#63b8ff" d="M241.61,-141.9C257.79,-133.82 282.02,-122.36 304,-114.5 310.78,-112.08 318.02,-109.81 325.19,-107.74"/>
<polygon fill="#63b8ff" stroke="#63b8ff" points="326.18,-111.1 334.89,-105.06 324.32,-104.35 326.18,-111.1"/>
</a>
</g>
</g>
<!-- Node27 -->
<g id="Node000027" class="node">
<title>Node27</title>
<g id="a_Node000027"><a xlink:href="collision_8c.html#ad95e9ed2051529d5edee26109fa07427" target="_top" xlink:title=" ">
<polygon fill="white" stroke="#666666" points="445.5,-68 308.5,-68 308.5,-49 445.5,-49 445.5,-68"/>
<text text-anchor="middle" x="377" y="-56" font-family="Helvetica,sans-Serif" font-size="10.00">spawn_actor_on_surface</text>
</a>
</g>
</g>
<!-- Node6&#45;&gt;Node27 -->
<g id="edge31_Node000006_Node000027" class="edge">
<title>Node6&#45;&gt;Node27</title>
<g id="a_edge31_Node000006_Node000027"><a xlink:title=" ">
<path fill="none" stroke="#63b8ff" d="M230.67,-141.99C243.92,-126.18 272.73,-94.55 304,-77.5 308.18,-75.22 312.64,-73.21 317.23,-71.42"/>
<polygon fill="#63b8ff" stroke="#63b8ff" points="318.47,-74.7 326.75,-68.09 316.15,-68.09 318.47,-74.7"/>
</a>
</g>
</g>
<!-- Node8 -->
<g id="Node000008" class="node">
<title>Node8</title>
<g id="a_Node000008"><a xlink:href="math__util_8c.html#ab9faf7f44e869c2270678250306a9546" target="_top" xlink:title=" ">
<polygon fill="white" stroke="#666666" points="790,-222.5 686,-222.5 686,-192.5 790,-192.5 790,-222.5"/>
<text text-anchor="start" x="694" y="-210.5" font-family="Helvetica,sans-Serif" font-size="10.00">calculate_rotation</text>
<text text-anchor="middle" x="738" y="-199.5" font-family="Helvetica,sans-Serif" font-size="10.00">_matrix</text>
</a>
</g>
</g>
<!-- Node7&#45;&gt;Node8 -->
<g id="edge7_Node000007_Node000008" class="edge">
<title>Node7&#45;&gt;Node8</title>
<g id="a_edge7_Node000007_Node000008"><a xlink:title=" ">
<path fill="none" stroke="#63b8ff" d="M614.77,-236.54C634.37,-231.88 656.25,-226.68 676.02,-221.99"/>
<polygon fill="#63b8ff" stroke="#63b8ff" points="676.91,-225.37 685.83,-219.66 675.3,-218.56 676.91,-225.37"/>
</a>
</g>
</g>
<!-- Node9 -->
<g id="Node000009" class="node">
<title>Node9</title>
<g id="a_Node000009"><a xlink:href="math__util_8c.html#ae69cbf5c8d4b3b0dba2d7b4d4673689f" target="_top" xlink:title=" ">
<polygon fill="white" stroke="#666666" points="925,-217 887,-217 887,-198 925,-198 925,-217"/>
<text text-anchor="middle" x="906" y="-205" font-family="Helvetica,sans-Serif" font-size="10.00">coss</text>
</a>
</g>
</g>
<!-- Node7&#45;&gt;Node9 -->
<g id="edge15_Node000007_Node000009" class="edge">
<title>Node7&#45;&gt;Node9</title>
<g id="a_edge15_Node000007_Node000009"><a xlink:title=" ">
<path fill="none" stroke="#63b8ff" d="M614.73,-249.39C667.67,-247.64 747.51,-243.13 816,-231.5 836.64,-228 859.43,-221.8 876.79,-216.59"/>
<polygon fill="#63b8ff" stroke="#63b8ff" points="878.29,-219.79 886.82,-213.5 876.23,-213.1 878.29,-219.79"/>
</a>
</g>
</g>
<!-- Node10 -->
<g id="Node000010" class="node">
<title>Node10</title>
<g id="a_Node000010"><a xlink:href="math__util_8c.html#a19ed3bd78fd2d3e2bd0a29f6caf48545" target="_top" xlink:title=" ">
<polygon fill="white" stroke="#666666" points="924,-174 888,-174 888,-155 924,-155 924,-174"/>
<text text-anchor="middle" x="906" y="-162" font-family="Helvetica,sans-Serif" font-size="10.00">sins</text>
</a>
</g>
</g>
<!-- Node7&#45;&gt;Node10 -->
<g id="edge18_Node000007_Node000010" class="edge">
<title>Node7&#45;&gt;Node10</title>
<g id="a_edge18_Node000007_Node000010"><a xlink:title=" ">
<path fill="none" stroke="#63b8ff" d="M573.35,-235.41C592.92,-219.37 626.41,-194.81 660,-183.5 735.61,-158.04 831.49,-159.64 877.68,-162.35"/>
<polygon fill="#63b8ff" stroke="#63b8ff" points="877.59,-165.85 887.8,-163.01 878.05,-158.86 877.59,-165.85"/>
</a>
</g>
</g>
<!-- Node11 -->
<g id="Node000011" class="node">
<title>Node11</title>
<g id="a_Node000011"><a xlink:href="math__util_8c.html#af524d0a35bc0c97564ca6c9cb6aae60f" target="_top" xlink:title=" ">
<polygon fill="white" stroke="#666666" points="811,-298 665,-298 665,-279 811,-279 811,-298"/>
<text text-anchor="middle" x="738" y="-286" font-family="Helvetica,sans-Serif" font-size="10.00">calculate_vector_angle_xy</text>
</a>
</g>
</g>
<!-- Node7&#45;&gt;Node11 -->
<g id="edge10_Node000007_Node000011" class="edge">
<title>Node7&#45;&gt;Node11</title>
<g id="a_edge10_Node000007_Node000011"><a xlink:title=" ">
<path fill="none" stroke="#63b8ff" d="M614.77,-262.84C636.33,-267.36 660.65,-272.47 681.88,-276.93"/>
<polygon fill="#63b8ff" stroke="#63b8ff" points="681.21,-280.36 691.71,-278.99 682.65,-273.51 681.21,-280.36"/>
</a>
</g>
</g>
<!-- Node15 -->
<g id="Node000015" class="node">
<title>Node15</title>
<g id="a_Node000015"><a xlink:href="math_8h.html#a37bde043e94a6f074c78f10518fb5d99" target="_top" xlink:title=" ">
<polygon fill="white" stroke="#666666" points="925.5,-336 886.5,-336 886.5,-317 925.5,-317 925.5,-336"/>
<text text-anchor="middle" x="906" y="-324" font-family="Helvetica,sans-Serif" font-size="10.00">sqrtf</text>
</a>
</g>
</g>
<!-- Node7&#45;&gt;Node15 -->
<g id="edge19_Node000007_Node000015" class="edge">
<title>Node7&#45;&gt;Node15</title>
<g id="a_edge19_Node000007_Node000015"><a xlink:title=" ">
<path fill="none" stroke="#63b8ff" d="M577.12,-265.6C597.33,-279.17 629.22,-298.33 660,-307.5 735.52,-329.98 829.59,-329.92 876.14,-328.13"/>
<polygon fill="#63b8ff" stroke="#63b8ff" points="876.55,-331.62 886.39,-327.68 876.24,-324.62 876.55,-331.62"/>
</a>
</g>
</g>
<!-- Node16 -->
<g id="Node000016" class="node">
<title>Node16</title>
<g id="a_Node000016"><a xlink:href="FrameInterpolation_8cpp.html#a370937c591d27758600d740e2881e7cf" target="_top" xlink:title=" ">
<polygon fill="white" stroke="#666666" points="816,-396 660,-396 660,-355 816,-355 816,-396"/>
<text text-anchor="start" x="668" y="-384" font-family="Helvetica,sans-Serif" font-size="10.00">FrameInterpolation</text>
<text text-anchor="start" x="668" y="-373" font-family="Helvetica,sans-Serif" font-size="10.00">_RecordCalculateOrientation</text>
<text text-anchor="middle" x="738" y="-362" font-family="Helvetica,sans-Serif" font-size="10.00">Matrix</text>
</a>
</g>
</g>
<!-- Node7&#45;&gt;Node16 -->
<g id="edge16_Node000007_Node000016" class="edge">
<title>Node7&#45;&gt;Node16</title>
<g id="a_edge16_Node000007_Node000016"><a xlink:title=" ">
<path fill="none" stroke="#63b8ff" d="M570.74,-265.72C589.95,-284.94 625.22,-318.21 660,-340.5 665.35,-343.93 671.1,-347.2 676.95,-350.27"/>
<polygon fill="#63b8ff" stroke="#63b8ff" points="675.69,-353.56 686.2,-354.92 678.84,-347.3 675.69,-353.56"/>
</a>
</g>
</g>
<!-- Node8&#45;&gt;Node9 -->
<g id="edge8_Node000008_Node000009" class="edge">
<title>Node8&#45;&gt;Node9</title>
<g id="a_edge8_Node000008_Node000009"><a xlink:title=" ">
<path fill="none" stroke="#63b8ff" d="M790.16,-207.5C818.58,-207.5 852.87,-207.5 876.54,-207.5"/>
<polygon fill="#63b8ff" stroke="#63b8ff" points="876.61,-211 886.61,-207.5 876.61,-204 876.61,-211"/>
</a>
</g>
</g>
<!-- Node8&#45;&gt;Node10 -->
<g id="edge9_Node000008_Node000010" class="edge">
<title>Node8&#45;&gt;Node10</title>
<g id="a_edge9_Node000008_Node000010"><a xlink:title=" ">
<path fill="none" stroke="#63b8ff" d="M790.16,-194.25C819.2,-186.72 854.38,-177.61 878.08,-171.47"/>
<polygon fill="#63b8ff" stroke="#63b8ff" points="879,-174.85 887.8,-168.96 877.24,-168.08 879,-174.85"/>
</a>
</g>
</g>
<!-- Node12 -->
<g id="Node000012" class="node">
<title>Node12</title>
<g id="a_Node000012"><a xlink:href="math__util_8c.html#ae5ccdf2ee48e06c8a0bced3f3a00f582" target="_top" xlink:title=" ">
<polygon fill="white" stroke="#666666" points="932.5,-298 879.5,-298 879.5,-279 932.5,-279 932.5,-298"/>
<text text-anchor="middle" x="906" y="-286" font-family="Helvetica,sans-Serif" font-size="10.00">_atan2f</text>
</a>
</g>
</g>
<!-- Node11&#45;&gt;Node12 -->
<g id="edge11_Node000011_Node000012" class="edge">
<title>Node11&#45;&gt;Node12</title>
<g id="a_edge11_Node000011_Node000012"><a xlink:title=" ">
<path fill="none" stroke="#63b8ff" d="M811.33,-288.5C831.44,-288.5 852.41,-288.5 869.39,-288.5"/>
<polygon fill="#63b8ff" stroke="#63b8ff" points="869.41,-292 879.41,-288.5 869.41,-285 869.41,-292"/>
</a>
</g>
</g>
<!-- Node11&#45;&gt;Node15 -->
<g id="edge14_Node000011_Node000015" class="edge">
<title>Node11&#45;&gt;Node15</title>
<g id="a_edge14_Node000011_Node000015"><a xlink:title=" ">
<path fill="none" stroke="#63b8ff" d="M780.89,-298.09C810.6,-304.89 849.72,-313.85 876.03,-319.87"/>
<polygon fill="#63b8ff" stroke="#63b8ff" points="875.59,-323.36 886.12,-322.18 877.15,-316.53 875.59,-323.36"/>
</a>
</g>
</g>
<!-- Node13 -->
<g id="Node000013" class="node">
<title>Node13</title>
<g id="a_Node000013"><a xlink:href="math__util_8c.html#aaa39a297477f56051975259f4bddd829" target="_top" xlink:title=" ">
<polygon fill="white" stroke="#666666" points="1046,-298 996,-298 996,-279 1046,-279 1046,-298"/>
<text text-anchor="middle" x="1021" y="-286" font-family="Helvetica,sans-Serif" font-size="10.00">atan2s</text>
</a>
</g>
</g>
<!-- Node12&#45;&gt;Node13 -->
<g id="edge12_Node000012_Node000013" class="edge">
<title>Node12&#45;&gt;Node13</title>
<g id="a_edge12_Node000012_Node000013"><a xlink:title=" ">
<path fill="none" stroke="#63b8ff" d="M932.64,-288.5C948.28,-288.5 968.47,-288.5 985.5,-288.5"/>
<polygon fill="#63b8ff" stroke="#63b8ff" points="985.62,-292 995.62,-288.5 985.62,-285 985.62,-292"/>
</a>
</g>
</g>
<!-- Node14 -->
<g id="Node000014" class="node">
<title>Node14</title>
<g id="a_Node000014"><a xlink:href="math__util_8c.html#a0273b0ea0783a06996c28669a7438ed9" target="_top" xlink:title=" ">
<polygon fill="white" stroke="#666666" points="1164,-298 1082,-298 1082,-279 1164,-279 1164,-298"/>
<text text-anchor="middle" x="1123" y="-286" font-family="Helvetica,sans-Serif" font-size="10.00">atan2_lookup</text>
</a>
</g>
</g>
<!-- Node13&#45;&gt;Node14 -->
<g id="edge13_Node000013_Node000014" class="edge">
<title>Node13&#45;&gt;Node14</title>
<g id="a_edge13_Node000013_Node000014"><a xlink:title=" ">
<path fill="none" stroke="#63b8ff" d="M1046.21,-288.5C1053.85,-288.5 1062.6,-288.5 1071.38,-288.5"/>
<polygon fill="#63b8ff" stroke="#63b8ff" points="1071.63,-292 1081.63,-288.5 1071.63,-285 1071.63,-292"/>
</a>
</g>
</g>
<!-- Node17 -->
<g id="Node000017" class="node">
<title>Node17</title>
<g id="a_Node000017"><a xlink:href="FrameInterpolation_8cpp.html#a02c7ac5342a4d376edee38f312b480bf" target="_top" xlink:title=" ">
<polygon fill="white" stroke="#666666" points="960,-385 852,-385 852,-366 960,-366 960,-385"/>
<text text-anchor="middle" x="906" y="-373" font-family="Helvetica,sans-Serif" font-size="10.00">check_if_recording</text>
</a>
</g>
</g>
<!-- Node16&#45;&gt;Node17 -->
<g id="edge17_Node000016_Node000017" class="edge">
<title>Node16&#45;&gt;Node17</title>
<g id="a_edge17_Node000016_Node000017"><a xlink:title=" ">
<path fill="none" stroke="#63b8ff" d="M816.17,-375.5C824.72,-375.5 833.35,-375.5 841.69,-375.5"/>
<polygon fill="#63b8ff" stroke="#63b8ff" points="841.71,-379 851.71,-375.5 841.71,-372 841.71,-379"/>
</a>
</g>
</g>
<!-- Node21 -->
<g id="Node000021" class="node">
<title>Node21</title>
<g id="a_Node000021"><a xlink:href="collision_8c.html#ad72fef3ffe32191d73b1822f512ebf3f" target="_top" xlink:title=" ">
<polygon fill="white" stroke="#666666" points="602.5,-19 507.5,-19 507.5,0 602.5,0 602.5,-19"/>
<text text-anchor="middle" x="555" y="-7" font-family="Helvetica,sans-Serif" font-size="10.00">func_802AAAAC</text>
</a>
</g>
</g>
<!-- Node20&#45;&gt;Node21 -->
<g id="edge23_Node000020_Node000021" class="edge">
<title>Node20&#45;&gt;Node21</title>
<g id="a_edge23_Node000020_Node000021"><a xlink:title=" ">
<path fill="none" stroke="#63b8ff" d="M423.32,-13.95C445.87,-13.19 473.35,-12.25 497.28,-11.43"/>
<polygon fill="#63b8ff" stroke="#63b8ff" points="497.42,-14.93 507.3,-11.09 497.18,-7.94 497.42,-14.93"/>
</a>
</g>
</g>
<!-- Node22 -->
<g id="Node000022" class="node">
<title>Node22</title>
<g id="a_Node000022"><a xlink:href="math__util_8c.html#a79fd07a0971ec96a3ff0801963a2fa7f" target="_top" xlink:title=" ">
<polygon fill="white" stroke="#666666" points="770,-19 706,-19 706,0 770,0 770,-19"/>
<text text-anchor="middle" x="738" y="-7" font-family="Helvetica,sans-Serif" font-size="10.00">vec3f_set</text>
</a>
</g>
</g>
<!-- Node21&#45;&gt;Node22 -->
<g id="edge24_Node000021_Node000022" class="edge">
<title>Node21&#45;&gt;Node22</title>
<g id="a_edge24_Node000021_Node000022"><a xlink:title=" ">
<path fill="none" stroke="#63b8ff" d="M602.61,-9.5C631.4,-9.5 668.02,-9.5 695.75,-9.5"/>
<polygon fill="#63b8ff" stroke="#63b8ff" points="695.91,-13 705.91,-9.5 695.91,-6 695.91,-13"/>
</a>
</g>
</g>
<!-- Node24 -->
<g id="Node000024" class="node">
<title>Node24</title>
<g id="a_Node000024"><a xlink:href="code__80057C60_8c.html#af4475b485a9024049ffeb416dc2a9d1a" target="_top" xlink:title=" ">
<polygon fill="white" stroke="#666666" points="592,-142 518,-142 518,-123 592,-123 592,-142"/>
<text text-anchor="middle" x="555" y="-130" font-family="Helvetica,sans-Serif" font-size="10.00">init_balloon</text>
</a>
</g>
</g>
<!-- Node23&#45;&gt;Node24 -->
<g id="edge26_Node000023_Node000024" class="edge">
<title>Node23&#45;&gt;Node24</title>
<g id="a_edge26_Node000023_Node000024"><a xlink:title=" ">
<path fill="none" stroke="#63b8ff" d="M443.04,-132.5C464.45,-132.5 487.82,-132.5 507.56,-132.5"/>
<polygon fill="#63b8ff" stroke="#63b8ff" points="507.82,-136 517.82,-132.5 507.82,-129 507.82,-136"/>
</a>
</g>
</g>
<!-- Node25 -->
<g id="Node000025" class="node">
<title>Node25</title>
<g id="a_Node000025"><a xlink:href="code__80057C60_8c.html#a156481baa44e5305c016e2902a91bbb1" target="_top" xlink:title=" ">
<polygon fill="white" stroke="#666666" points="784,-136 692,-136 692,-117 784,-117 784,-136"/>
<text text-anchor="middle" x="738" y="-124" font-family="Helvetica,sans-Serif" font-size="10.00">func_80062B18</text>
</a>
</g>
</g>
<!-- Node24&#45;&gt;Node25 -->
<g id="edge27_Node000024_Node000025" class="edge">
<title>Node24&#45;&gt;Node25</title>
<g id="a_edge27_Node000024_Node000025"><a xlink:title=" ">
<path fill="none" stroke="#63b8ff" d="M592.19,-131.3C617.85,-130.45 652.74,-129.29 681.85,-128.33"/>
<polygon fill="#63b8ff" stroke="#63b8ff" points="682,-131.83 691.88,-128 681.77,-124.83 682,-131.83"/>
</a>
</g>
</g>
<!-- Node25&#45;&gt;Node9 -->
<g id="edge28_Node000025_Node000009" class="edge">
<title>Node25&#45;&gt;Node9</title>
<g id="a_edge28_Node000025_Node000009"><a xlink:title=" ">
<path fill="none" stroke="#63b8ff" d="M757.28,-136.02C779.53,-147.53 818.3,-167.38 852,-183.5 860.25,-187.45 869.3,-191.61 877.54,-195.33"/>
<polygon fill="#63b8ff" stroke="#63b8ff" points="876.2,-198.57 886.76,-199.47 879.07,-192.18 876.2,-198.57"/>
</a>
</g>
</g>
<!-- Node25&#45;&gt;Node10 -->
<g id="edge29_Node000025_Node000010" class="edge">
<title>Node25&#45;&gt;Node10</title>
<g id="a_edge29_Node000025_Node000010"><a xlink:title=" ">
<path fill="none" stroke="#63b8ff" d="M780.89,-136.09C811.28,-143.05 851.51,-152.25 877.81,-158.27"/>
<polygon fill="#63b8ff" stroke="#63b8ff" points="877.29,-161.75 887.82,-160.57 878.85,-154.92 877.29,-161.75"/>
</a>
</g>
</g>
<!-- Node28 -->
<g id="Node000028" class="node">
<title>Node28</title>
<g id="a_Node000028"><a xlink:href="collision_8c.html#a6527a2135a10909cdf9a1fd731be5628" target="_top" xlink:title=" ">
<polygon fill="white" stroke="#666666" points="624,-56 486,-56 486,-37 624,-37 624,-56"/>
<text text-anchor="middle" x="555" y="-44" font-family="Helvetica,sans-Serif" font-size="10.00">calculate_surface_height</text>
</a>
</g>
</g>
<!-- Node27&#45;&gt;Node28 -->
<g id="edge32_Node000027_Node000028" class="edge">
<title>Node27&#45;&gt;Node28</title>
<g id="a_edge32_Node000027_Node000028"><a xlink:title=" ">
<path fill="none" stroke="#63b8ff" d="M445.54,-53.89C455.43,-53.22 465.68,-52.52 475.76,-51.83"/>
<polygon fill="#63b8ff" stroke="#63b8ff" points="476.03,-55.32 485.76,-51.15 475.55,-48.34 476.03,-55.32"/>
</a>
</g>
</g>
<!-- Node29 -->
<g id="Node000029" class="node">
<title>Node29</title>
<g id="a_Node000029"><a xlink:href="collision_8c.html#a0fe340ccfe1d926a592ea9a0c84d7574" target="_top" xlink:title=" ">
<polygon fill="white" stroke="#666666" points="621,-104.5 489,-104.5 489,-74.5 621,-74.5 621,-104.5"/>
<text text-anchor="start" x="497" y="-92.5" font-family="Helvetica,sans-Serif" font-size="10.00">check_horizontally</text>
<text text-anchor="middle" x="555" y="-81.5" font-family="Helvetica,sans-Serif" font-size="10.00">_colliding_with_triangle</text>
</a>
</g>
</g>
<!-- Node27&#45;&gt;Node29 -->
<g id="edge33_Node000027_Node000029" class="edge">
<title>Node27&#45;&gt;Node29</title>
<g id="a_edge33_Node000027_Node000029"><a xlink:title=" ">
<path fill="none" stroke="#63b8ff" d="M432.24,-68.05C446.91,-70.64 463.05,-73.48 478.64,-76.23"/>
<polygon fill="#63b8ff" stroke="#63b8ff" points="478.34,-79.73 488.8,-78.02 479.55,-72.83 478.34,-79.73"/>
</a>
</g>
</g>
</g>
</svg>
