<?xml version="1.0" encoding="UTF-8" standalone="no"?>
<!DOCTYPE svg PUBLIC "-//W3C//DTD SVG 1.1//EN"
 "http://www.w3.org/Graphics/SVG/1.1/DTD/svg11.dtd">
<!-- Generated by graphviz version 2.43.0 (0)
 -->
<!-- Title: AudioSessionSettings Pages: 1 -->
<svg width="384pt" height="137pt"
 viewBox="0.00 0.00 383.50 137.00" xmlns="http://www.w3.org/2000/svg" xmlns:xlink="http://www.w3.org/1999/xlink">
<g id="graph0" class="graph" transform="scale(1 1) rotate(0) translate(4 133)">
<title>AudioSessionSettings</title>
<!-- Node1 -->
<g id="Node000001" class="node">
<title>Node1</title>
<g id="a_Node000001"><a xlink:title=" ">
<polygon fill="#999999" stroke="#666666" points="202.5,-19 80.5,-19 80.5,0 202.5,0 202.5,-19"/>
<text text-anchor="middle" x="141.5" y="-7" font-family="Helvetica,sans-Serif" font-size="10.00">AudioSessionSettings</text>
</a>
</g>
</g>
<!-- Node2 -->
<g id="Node000002" class="node">
<title>Node2</title>
<g id="a_Node000002"><a xlink:title=" ">
<polygon fill="white" stroke="#666666" points="35,-129 0,-129 0,-110 35,-110 35,-129"/>
<text text-anchor="middle" x="17.5" y="-117" font-family="Helvetica,sans-Serif" font-size="10.00">u32</text>
</a>
</g>
</g>
<!-- Node2&#45;&gt;Node1 -->
<g id="edge1_Node000001_Node000002" class="edge">
<title>Node2&#45;&gt;Node1</title>
<g id="a_edge1_Node000001_Node000002"><a xlink:title=" ">
<path fill="none" stroke="#9a32cd" stroke-dasharray="5,2" d="M16.64,-99.65C16.87,-81.22 20.23,-53.57 36.5,-37 48.16,-25.13 64.3,-18.3 80.44,-14.44"/>
<polygon fill="#9a32cd" stroke="#9a32cd" points="13.14,-99.82 16.82,-109.76 20.14,-99.7 13.14,-99.82"/>
</a>
</g>
<text text-anchor="middle" x="87" y="-84" font-family="Helvetica,sans-Serif" font-size="10.00" fill="grey"> frequency</text>
<text text-anchor="middle" x="87" y="-73" font-family="Helvetica,sans-Serif" font-size="10.00" fill="grey">persistentBankMem</text>
<text text-anchor="middle" x="87" y="-62" font-family="Helvetica,sans-Serif" font-size="10.00" fill="grey">persistentSeqMem</text>
<text text-anchor="middle" x="87" y="-51" font-family="Helvetica,sans-Serif" font-size="10.00" fill="grey">temporaryBankMem</text>
<text text-anchor="middle" x="87" y="-40" font-family="Helvetica,sans-Serif" font-size="10.00" fill="grey">temporarySeqMem</text>
</g>
<!-- Node3 -->
<g id="Node000003" class="node">
<title>Node3</title>
<g id="a_Node000003"><a xlink:title=" ">
<polygon fill="white" stroke="#666666" points="156,-129 127,-129 127,-110 156,-110 156,-129"/>
<text text-anchor="middle" x="141.5" y="-117" font-family="Helvetica,sans-Serif" font-size="10.00">u8</text>
</a>
</g>
</g>
<!-- Node3&#45;&gt;Node1 -->
<g id="edge2_Node000001_Node000003" class="edge">
<title>Node3&#45;&gt;Node1</title>
<g id="a_edge2_Node000001_Node000003"><a xlink:title=" ">
<path fill="none" stroke="#9a32cd" stroke-dasharray="5,2" d="M141.5,-99.48C141.5,-75.84 141.5,-36.5 141.5,-19.16"/>
<polygon fill="#9a32cd" stroke="#9a32cd" points="138,-99.66 141.5,-109.66 145,-99.66 138,-99.66"/>
</a>
</g>
<text text-anchor="middle" x="202" y="-67.5" font-family="Helvetica,sans-Serif" font-size="10.00" fill="grey"> maxSimultaneousNotes</text>
<text text-anchor="middle" x="202" y="-56.5" font-family="Helvetica,sans-Serif" font-size="10.00" fill="grey">reverbDownsampleRate</text>
</g>
<!-- Node4 -->
<g id="Node000004" class="node">
<title>Node4</title>
<g id="a_Node000004"><a xlink:title=" ">
<polygon fill="white" stroke="#666666" points="303,-129 268,-129 268,-110 303,-110 303,-129"/>
<text text-anchor="middle" x="285.5" y="-117" font-family="Helvetica,sans-Serif" font-size="10.00">u16</text>
</a>
</g>
</g>
<!-- Node4&#45;&gt;Node1 -->
<g id="edge3_Node000001_Node000004" class="edge">
<title>Node4&#45;&gt;Node1</title>
<g id="a_edge3_Node000001_Node000004"><a xlink:title=" ">
<path fill="none" stroke="#9a32cd" stroke-dasharray="5,2" d="M285.72,-99.76C284.87,-81.19 280.56,-53.23 263.5,-37 254.35,-28.3 228.27,-22.03 202.55,-17.78"/>
<polygon fill="#9a32cd" stroke="#9a32cd" points="282.22,-99.98 285.88,-109.92 289.22,-99.87 282.22,-99.98"/>
</a>
</g>
<text text-anchor="middle" x="330" y="-73" font-family="Helvetica,sans-Serif" font-size="10.00" fill="grey"> reverbGain</text>
<text text-anchor="middle" x="330" y="-62" font-family="Helvetica,sans-Serif" font-size="10.00" fill="grey">reverbWindowSize</text>
<text text-anchor="middle" x="330" y="-51" font-family="Helvetica,sans-Serif" font-size="10.00" fill="grey">volume</text>
</g>
</g>
</svg>
