<?xml version="1.0" encoding="UTF-8" standalone="no"?>
<!DOCTYPE svg PUBLIC "-//W3C//DTD SVG 1.1//EN"
 "http://www.w3.org/Graphics/SVG/1.1/DTD/svg11.dtd">
<!-- Generated by graphviz version 2.43.0 (0)
 -->
<!-- Title: UIWidgets::FloatSliderOptions Pages: 1 -->
<svg width="579pt" height="350pt"
 viewBox="0.00 0.00 579.00 349.50" xmlns="http://www.w3.org/2000/svg" xmlns:xlink="http://www.w3.org/1999/xlink">
<g id="graph0" class="graph" transform="scale(1 1) rotate(0) translate(4 345.5)">
<title>UIWidgets::FloatSliderOptions</title>
<!-- Node1 -->
<g id="Node000001" class="node">
<title>Node1</title>
<g id="a_Node000001"><a xlink:title=" ">
<polygon fill="#999999" stroke="#666666" points="571,-156 408,-156 408,-137 571,-137 571,-156"/>
<text text-anchor="middle" x="489.5" y="-144" font-family="Helvetica,sans-Serif" font-size="10.00">UIWidgets::FloatSliderOptions</text>
</a>
</g>
</g>
<!-- Node2 -->
<g id="Node000002" class="node">
<title>Node2</title>
<g id="a_Node000002"><a xlink:href="structUIWidgets_1_1WidgetOptions.html" target="_top" xlink:title=" ">
<polygon fill="white" stroke="#666666" points="305,-235 160,-235 160,-216 305,-216 305,-235"/>
<text text-anchor="middle" x="232.5" y="-223" font-family="Helvetica,sans-Serif" font-size="10.00">UIWidgets::WidgetOptions</text>
</a>
</g>
</g>
<!-- Node2&#45;&gt;Node1 -->
<g id="edge1_Node000001_Node000002" class="edge">
<title>Node2&#45;&gt;Node1</title>
<g id="a_edge1_Node000001_Node000002"><a xlink:title=" ">
<path fill="none" stroke="#63b8ff" d="M298.39,-214.02C326.86,-208.21 360.45,-200.29 390,-190.5 418.8,-180.95 450.59,-165.87 470.06,-156.08"/>
<polygon fill="#63b8ff" stroke="#63b8ff" points="297.67,-210.59 288.55,-215.99 299.04,-217.46 297.67,-210.59"/>
</a>
</g>
</g>
<!-- Node3 -->
<g id="Node000003" class="node">
<title>Node3</title>
<g id="a_Node000003"><a xlink:title=" ">
<polygon fill="white" stroke="#666666" points="42.5,-262 4.5,-262 4.5,-243 42.5,-243 42.5,-262"/>
<text text-anchor="middle" x="23.5" y="-250" font-family="Helvetica,sans-Serif" font-size="10.00">char</text>
</a>
</g>
</g>
<!-- Node3&#45;&gt;Node1 -->
<g id="edge6_Node000001_Node000003" class="edge">
<title>Node3&#45;&gt;Node1</title>
<g id="a_edge6_Node000001_Node000003"><a xlink:title=" ">
<path fill="none" stroke="#9a32cd" stroke-dasharray="5,2" d="M52.21,-263.43C56.43,-264.7 60.79,-265.79 65,-266.5 98.75,-272.17 107.85,-268.79 142,-266.5 254.55,-258.94 289.69,-264.11 390,-212.5 422.95,-195.55 458.26,-169.81 476.32,-156.01"/>
<polygon fill="#9a32cd" stroke="#9a32cd" points="53.3,-260.11 42.71,-260.24 51.08,-266.74 53.3,-260.11"/>
</a>
</g>
<text text-anchor="middle" x="232.5" y="-267.5" font-family="Helvetica,sans-Serif" font-size="10.00" fill="grey"> format</text>
</g>
<!-- Node3&#45;&gt;Node2 -->
<g id="edge2_Node000002_Node000003" class="edge">
<title>Node3&#45;&gt;Node2</title>
<g id="a_edge2_Node000002_Node000003"><a xlink:title=" ">
<path fill="none" stroke="#9a32cd" stroke-dasharray="5,2" d="M52.58,-246.65C56.73,-245.87 60.97,-245.13 65,-244.5 95.9,-239.69 130.21,-235.57 159.62,-232.41"/>
<polygon fill="#9a32cd" stroke="#9a32cd" points="51.73,-243.25 42.59,-248.6 53.07,-250.12 51.73,-243.25"/>
</a>
</g>
<text text-anchor="middle" x="103.5" y="-258.5" font-family="Helvetica,sans-Serif" font-size="10.00" fill="grey"> disabledTooltip</text>
<text text-anchor="middle" x="103.5" y="-247.5" font-family="Helvetica,sans-Serif" font-size="10.00" fill="grey">tooltip</text>
</g>
<!-- Node4 -->
<g id="Node000004" class="node">
<title>Node4</title>
<g id="a_Node000004"><a xlink:title=" ">
<polygon fill="white" stroke="#666666" points="42.5,-336 4.5,-336 4.5,-317 42.5,-317 42.5,-336"/>
<text text-anchor="middle" x="23.5" y="-324" font-family="Helvetica,sans-Serif" font-size="10.00">bool</text>
</a>
</g>
</g>
<!-- Node4&#45;&gt;Node1 -->
<g id="edge5_Node000001_Node000004" class="edge">
<title>Node4&#45;&gt;Node1</title>
<g id="a_edge5_Node000001_Node000004"><a xlink:title=" ">
<path fill="none" stroke="#9a32cd" stroke-dasharray="5,2" d="M52.66,-327.3C76.56,-327.56 111.7,-326.95 142,-322.5 256.86,-305.61 293.93,-305.68 390,-240.5 427.75,-214.89 464.57,-174.47 480.4,-156.12"/>
<polygon fill="#9a32cd" stroke="#9a32cd" points="52.59,-323.8 42.53,-327.13 52.47,-330.8 52.59,-323.8"/>
</a>
</g>
<text text-anchor="middle" x="232.5" y="-333.5" font-family="Helvetica,sans-Serif" font-size="10.00" fill="grey"> isPercentage</text>
<text text-anchor="middle" x="232.5" y="-322.5" font-family="Helvetica,sans-Serif" font-size="10.00" fill="grey">showButtons</text>
</g>
<!-- Node4&#45;&gt;Node2 -->
<g id="edge3_Node000002_Node000004" class="edge">
<title>Node4&#45;&gt;Node2</title>
<g id="a_edge3_Node000002_Node000004"><a xlink:title=" ">
<path fill="none" stroke="#9a32cd" stroke-dasharray="5,2" d="M52.11,-314.69C76.28,-304.03 112.12,-287.46 142,-270.5 150.36,-265.75 151.61,-263.2 160,-258.5 175.75,-249.69 194.27,-241.19 208.51,-235.02"/>
<polygon fill="#9a32cd" stroke="#9a32cd" points="50.59,-311.53 42.82,-318.74 53.39,-317.95 50.59,-311.53"/>
</a>
</g>
<text text-anchor="middle" x="103.5" y="-310.5" font-family="Helvetica,sans-Serif" font-size="10.00" fill="grey"> disabled</text>
</g>
<!-- Node5 -->
<g id="Node000005" class="node">
<title>Node5</title>
<g id="a_Node000005"><a xlink:title=" ">
<polygon fill="white" stroke="#666666" points="47,-210 0,-210 0,-191 47,-191 47,-210"/>
<text text-anchor="middle" x="23.5" y="-198" font-family="Helvetica,sans-Serif" font-size="10.00">Colors</text>
</a>
</g>
</g>
<!-- Node5&#45;&gt;Node1 -->
<g id="edge10_Node000001_Node000005" class="edge">
<title>Node5&#45;&gt;Node1</title>
<g id="a_edge10_Node000001_Node000005"><a xlink:title=" ">
<path fill="none" stroke="#9a32cd" stroke-dasharray="5,2" d="M57.52,-197.71C121.71,-192.14 267.75,-178.77 390,-162.5 404.08,-160.63 419.25,-158.31 433.36,-156.03"/>
<polygon fill="#9a32cd" stroke="#9a32cd" points="56.89,-194.25 47.22,-198.59 57.49,-201.22 56.89,-194.25"/>
</a>
</g>
<text text-anchor="middle" x="232.5" y="-190.5" font-family="Helvetica,sans-Serif" font-size="10.00" fill="grey"> color</text>
</g>
<!-- Node5&#45;&gt;Node2 -->
<g id="edge4_Node000002_Node000005" class="edge">
<title>Node5&#45;&gt;Node2</title>
<g id="a_edge4_Node000002_Node000005"><a xlink:title=" ">
<path fill="none" stroke="#9a32cd" stroke-dasharray="5,2" d="M57.25,-202.57C80.86,-204.24 113.46,-206.9 142,-210.5 154.04,-212.02 166.93,-213.98 179.07,-215.98"/>
<polygon fill="#9a32cd" stroke="#9a32cd" points="57.3,-199.07 47.08,-201.88 56.82,-206.05 57.3,-199.07"/>
</a>
</g>
<text text-anchor="middle" x="103.5" y="-213.5" font-family="Helvetica,sans-Serif" font-size="10.00" fill="grey"> color</text>
</g>
<!-- Node6 -->
<g id="Node000006" class="node">
<title>Node6</title>
<g id="a_Node000006"><a xlink:title=" ">
<polygon fill="white" stroke="#666666" points="251.5,-130 213.5,-130 213.5,-111 251.5,-111 251.5,-130"/>
<text text-anchor="middle" x="232.5" y="-118" font-family="Helvetica,sans-Serif" font-size="10.00">float</text>
</a>
</g>
</g>
<!-- Node6&#45;&gt;Node1 -->
<g id="edge7_Node000001_Node000006" class="edge">
<title>Node6&#45;&gt;Node1</title>
<g id="a_edge7_Node000001_Node000006"><a xlink:title=" ">
<path fill="none" stroke="#9a32cd" stroke-dasharray="5,2" d="M262.17,-117.56C293.67,-114.92 345.7,-112.33 390,-118.5 415,-121.98 442.57,-130.22 462.17,-136.86"/>
<polygon fill="#9a32cd" stroke="#9a32cd" points="261.57,-114.1 251.92,-118.48 262.2,-121.07 261.57,-114.1"/>
</a>
</g>
<text text-anchor="middle" x="356.5" y="-154.5" font-family="Helvetica,sans-Serif" font-size="10.00" fill="grey"> defaultValue</text>
<text text-anchor="middle" x="356.5" y="-143.5" font-family="Helvetica,sans-Serif" font-size="10.00" fill="grey">max</text>
<text text-anchor="middle" x="356.5" y="-132.5" font-family="Helvetica,sans-Serif" font-size="10.00" fill="grey">min</text>
<text text-anchor="middle" x="356.5" y="-121.5" font-family="Helvetica,sans-Serif" font-size="10.00" fill="grey">step</text>
</g>
<!-- Node7 -->
<g id="Node000007" class="node">
<title>Node7</title>
<g id="a_Node000007"><a xlink:title=" ">
<polygon fill="white" stroke="#666666" points="294,-93 171,-93 171,-74 294,-74 294,-93"/>
<text text-anchor="middle" x="232.5" y="-81" font-family="Helvetica,sans-Serif" font-size="10.00">ComponentAlignment</text>
</a>
</g>
</g>
<!-- Node7&#45;&gt;Node1 -->
<g id="edge8_Node000001_Node000007" class="edge">
<title>Node7&#45;&gt;Node1</title>
<g id="a_edge8_Node000001_Node000007"><a xlink:title=" ">
<path fill="none" stroke="#9a32cd" stroke-dasharray="5,2" d="M304.43,-85.6C331.58,-87.73 362.6,-91.81 390,-99.5 420.83,-108.15 453.88,-125.86 472.79,-136.9"/>
<polygon fill="#9a32cd" stroke="#9a32cd" points="304.45,-82.09 294.23,-84.87 303.95,-89.07 304.45,-82.09"/>
</a>
</g>
<text text-anchor="middle" x="356.5" y="-102.5" font-family="Helvetica,sans-Serif" font-size="10.00" fill="grey"> alignment</text>
</g>
<!-- Node8 -->
<g id="Node000008" class="node">
<title>Node8</title>
<g id="a_Node000008"><a xlink:title=" ">
<polygon fill="white" stroke="#666666" points="273.5,-56 191.5,-56 191.5,-37 273.5,-37 273.5,-56"/>
<text text-anchor="middle" x="232.5" y="-44" font-family="Helvetica,sans-Serif" font-size="10.00">LabelPosition</text>
</a>
</g>
</g>
<!-- Node8&#45;&gt;Node1 -->
<g id="edge9_Node000001_Node000008" class="edge">
<title>Node8&#45;&gt;Node1</title>
<g id="a_edge9_Node000001_Node000008"><a xlink:title=" ">
<path fill="none" stroke="#9a32cd" stroke-dasharray="5,2" d="M283.87,-48.76C315.42,-51.63 356.33,-58.09 390,-72.5 426.97,-88.32 462.76,-120.82 479.17,-136.96"/>
<polygon fill="#9a32cd" stroke="#9a32cd" points="283.8,-45.24 273.55,-47.91 283.23,-52.22 283.8,-45.24"/>
</a>
</g>
<text text-anchor="middle" x="356.5" y="-75.5" font-family="Helvetica,sans-Serif" font-size="10.00" fill="grey"> labelPosition</text>
</g>
<!-- Node9 -->
<g id="Node000009" class="node">
<title>Node9</title>
<g id="a_Node000009"><a xlink:title=" ">
<polygon fill="white" stroke="#666666" points="282.5,-19 182.5,-19 182.5,0 282.5,0 282.5,-19"/>
<text text-anchor="middle" x="232.5" y="-7" font-family="Helvetica,sans-Serif" font-size="10.00">ImGuiSliderFlags</text>
</a>
</g>
</g>
<!-- Node9&#45;&gt;Node1 -->
<g id="edge11_Node000001_Node000009" class="edge">
<title>Node9&#45;&gt;Node1</title>
<g id="a_edge11_Node000001_Node000009"><a xlink:title=" ">
<path fill="none" stroke="#9a32cd" stroke-dasharray="5,2" d="M292.89,-11.54C323.5,-14.75 360.49,-22.1 390,-38.5 434.36,-63.16 469.53,-115.21 482.79,-136.8"/>
<polygon fill="#9a32cd" stroke="#9a32cd" points="293.05,-8.04 282.77,-10.61 292.41,-15.01 293.05,-8.04"/>
</a>
</g>
<text text-anchor="middle" x="356.5" y="-41.5" font-family="Helvetica,sans-Serif" font-size="10.00" fill="grey"> flags</text>
</g>
</g>
</svg>
