<?xml version="1.0" encoding="UTF-8" standalone="no"?>
<!DOCTYPE svg PUBLIC "-//W3C//DTD SVG 1.1//EN"
 "http://www.w3.org/Graphics/SVG/1.1/DTD/svg11.dtd">
<!-- Generated by graphviz version 2.43.0 (0)
 -->
<!-- Title: Registry&lt; TInfo, TArgs &gt;::Entry Pages: 1 -->
<svg width="208pt" height="104pt"
 viewBox="0.00 0.00 207.50 104.00" xmlns="http://www.w3.org/2000/svg" xmlns:xlink="http://www.w3.org/1999/xlink">
<g id="graph0" class="graph" transform="scale(1 1) rotate(0) translate(4 100)">
<title>Registry&lt; TInfo, TArgs &gt;::Entry</title>
<!-- Node1 -->
<g id="Node000001" class="node">
<title>Node1</title>
<g id="a_Node000001"><a xlink:title=" ">
<polygon fill="#999999" stroke="#666666" points="137.5,-30 11.5,-30 11.5,0 137.5,0 137.5,-30"/>
<text text-anchor="start" x="19.5" y="-18" font-family="Helvetica,sans-Serif" font-size="10.00">Registry&lt; TInfo, TArgs</text>
<text text-anchor="middle" x="74.5" y="-7" font-family="Helvetica,sans-Serif" font-size="10.00"> &gt;::Entry</text>
</a>
</g>
</g>
<!-- Node2 -->
<g id="Node000002" class="node">
<title>Node2</title>
<g id="a_Node000002"><a xlink:title=" ">
<polygon fill="white" stroke="#666666" points="41,-96 0,-96 0,-77 41,-77 41,-96"/>
<text text-anchor="middle" x="20.5" y="-84" font-family="Helvetica,sans-Serif" font-size="10.00">TInfo</text>
</a>
</g>
</g>
<!-- Node2&#45;&gt;Node1 -->
<g id="edge1_Node000001_Node000002" class="edge">
<title>Node2&#45;&gt;Node1</title>
<g id="a_edge1_Node000001_Node000002"><a xlink:title=" ">
<path fill="none" stroke="#9a32cd" stroke-dasharray="5,2" d="M33.45,-68.84C42.63,-57.02 54.81,-41.34 63.52,-30.14"/>
<polygon fill="#9a32cd" stroke="#9a32cd" points="30.49,-66.93 27.12,-76.98 36.02,-71.23 30.49,-66.93"/>
</a>
</g>
<text text-anchor="middle" x="60.5" y="-51" font-family="Helvetica,sans-Serif" font-size="10.00" fill="grey"> Info</text>
</g>
<!-- Node3 -->
<g id="Node000003" class="node">
<title>Node3</title>
<g id="a_Node000003"><a xlink:title=" ">
<polygon fill="white" stroke="#666666" points="199.5,-96 59.5,-96 59.5,-77 199.5,-77 199.5,-96"/>
<text text-anchor="middle" x="129.5" y="-84" font-family="Helvetica,sans-Serif" font-size="10.00">function&lt; void(TArgs...)&gt;</text>
</a>
</g>
</g>
<!-- Node3&#45;&gt;Node1 -->
<g id="edge2_Node000001_Node000003" class="edge">
<title>Node3&#45;&gt;Node1</title>
<g id="a_edge2_Node000001_Node000003"><a xlink:title=" ">
<path fill="none" stroke="#9a32cd" stroke-dasharray="5,2" d="M116.31,-68.84C106.96,-57.02 94.55,-41.34 85.69,-30.14"/>
<polygon fill="#9a32cd" stroke="#9a32cd" points="113.81,-71.31 122.76,-76.98 119.29,-66.96 113.81,-71.31"/>
</a>
</g>
<text text-anchor="middle" x="119.5" y="-51" font-family="Helvetica,sans-Serif" font-size="10.00" fill="grey"> Func</text>
</g>
</g>
</svg>
