<?xml version="1.0" encoding="UTF-8" standalone="no"?>
<!DOCTYPE svg PUBLIC "-//W3C//DTD SVG 1.1//EN"
 "http://www.w3.org/Graphics/SVG/1.1/DTD/svg11.dtd">
<!-- Generated by graphviz version 2.43.0 (0)
 -->
<!-- Title: ProfilerFrameData Pages: 1 -->
<svg width="193pt" height="126pt"
 viewBox="0.00 0.00 193.00 126.00" xmlns="http://www.w3.org/2000/svg" xmlns:xlink="http://www.w3.org/1999/xlink">
<g id="graph0" class="graph" transform="scale(1 1) rotate(0) translate(4 122)">
<title>ProfilerFrameData</title>
<!-- Node1 -->
<g id="Node000001" class="node">
<title>Node1</title>
<g id="a_Node000001"><a xlink:title=" ">
<polygon fill="#999999" stroke="#666666" points="123.5,-19 18.5,-19 18.5,0 123.5,0 123.5,-19"/>
<text text-anchor="middle" x="71" y="-7" font-family="Helvetica,sans-Serif" font-size="10.00">ProfilerFrameData</text>
</a>
</g>
</g>
<!-- Node2 -->
<g id="Node000002" class="node">
<title>Node2</title>
<g id="a_Node000002"><a xlink:title=" ">
<polygon fill="white" stroke="#666666" points="34,-118 0,-118 0,-99 34,-99 34,-118"/>
<text text-anchor="middle" x="17" y="-106" font-family="Helvetica,sans-Serif" font-size="10.00">s16</text>
</a>
</g>
</g>
<!-- Node2&#45;&gt;Node1 -->
<g id="edge1_Node000001_Node000002" class="edge">
<title>Node2&#45;&gt;Node1</title>
<g id="a_edge1_Node000001_Node000002"><a xlink:title=" ">
<path fill="none" stroke="#9a32cd" stroke-dasharray="5,2" d="M12.25,-88.7C9.54,-73.57 8.35,-52.37 18,-37 23.14,-28.81 31.65,-23.06 40.37,-19.07"/>
<polygon fill="#9a32cd" stroke="#9a32cd" points="8.92,-89.87 14.47,-98.89 15.76,-88.38 8.92,-89.87"/>
</a>
</g>
<text text-anchor="middle" x="61" y="-62" font-family="Helvetica,sans-Serif" font-size="10.00" fill="grey"> numSoundTimes</text>
<text text-anchor="middle" x="61" y="-51" font-family="Helvetica,sans-Serif" font-size="10.00" fill="grey">numVblankTimes</text>
</g>
<!-- Node3 -->
<g id="Node000003" class="node">
<title>Node3</title>
<g id="a_Node000003"><a xlink:title=" ">
<polygon fill="white" stroke="#666666" points="143.5,-118 108.5,-118 108.5,-99 143.5,-99 143.5,-118"/>
<text text-anchor="middle" x="126" y="-106" font-family="Helvetica,sans-Serif" font-size="10.00">u64</text>
</a>
</g>
</g>
<!-- Node3&#45;&gt;Node1 -->
<g id="edge2_Node000001_Node000003" class="edge">
<title>Node3&#45;&gt;Node1</title>
<g id="a_edge2_Node000001_Node000003"><a xlink:title=" ">
<path fill="none" stroke="#9a32cd" stroke-dasharray="5,2" d="M123.28,-88.88C120.39,-73.85 114.7,-52.7 104,-37 99.12,-29.84 91.72,-23.65 85.17,-19.05"/>
<polygon fill="#9a32cd" stroke="#9a32cd" points="119.87,-89.71 124.98,-98.99 126.77,-88.55 119.87,-89.71"/>
</a>
</g>
<text text-anchor="middle" x="153" y="-73" font-family="Helvetica,sans-Serif" font-size="10.00" fill="grey"> gameTimes</text>
<text text-anchor="middle" x="153" y="-62" font-family="Helvetica,sans-Serif" font-size="10.00" fill="grey">gfxTimes</text>
<text text-anchor="middle" x="153" y="-51" font-family="Helvetica,sans-Serif" font-size="10.00" fill="grey">soundTimes</text>
<text text-anchor="middle" x="153" y="-40" font-family="Helvetica,sans-Serif" font-size="10.00" fill="grey">vblankTimes</text>
</g>
</g>
</svg>
