<?xml version="1.0" encoding="UTF-8" standalone="no"?>
<!DOCTYPE svg PUBLIC "-//W3C//DTD SVG 1.1//EN"
 "http://www.w3.org/Graphics/SVG/1.1/DTD/svg11.dtd">
<!-- Generated by graphviz version 2.43.0 (0)
 -->
<!-- Title: ma_encoder_config Pages: 1 -->
<svg width="634pt" height="224pt"
 viewBox="0.00 0.00 634.00 223.50" xmlns="http://www.w3.org/2000/svg" xmlns:xlink="http://www.w3.org/1999/xlink">
<g id="graph0" class="graph" transform="scale(1 1) rotate(0) translate(4 219.5)">
<title>ma_encoder_config</title>
<!-- Node1 -->
<g id="Node000001" class="node">
<title>Node1</title>
<g id="a_Node000001"><a xlink:title=" ">
<polygon fill="#999999" stroke="#666666" points="626,-155.5 515,-155.5 515,-136.5 626,-136.5 626,-155.5"/>
<text text-anchor="middle" x="570.5" y="-143.5" font-family="Helvetica,sans-Serif" font-size="10.00">ma_encoder_config</text>
</a>
</g>
</g>
<!-- Node2 -->
<g id="Node000002" class="node">
<title>Node2</title>
<g id="a_Node000002"><a xlink:title=" ">
<polygon fill="white" stroke="#666666" points="371.5,-215.5 251.5,-215.5 251.5,-196.5 371.5,-196.5 371.5,-215.5"/>
<text text-anchor="middle" x="311.5" y="-203.5" font-family="Helvetica,sans-Serif" font-size="10.00">ma_encoding_format</text>
</a>
</g>
</g>
<!-- Node2&#45;&gt;Node1 -->
<g id="edge1_Node000001_Node000002" class="edge">
<title>Node2&#45;&gt;Node1</title>
<g id="a_edge1_Node000001_Node000002"><a xlink:title=" ">
<path fill="none" stroke="#9a32cd" stroke-dasharray="5,2" d="M381.89,-197.92C416.81,-192.96 459.57,-185.5 497,-175 515.01,-169.95 534.67,-161.91 548.97,-155.58"/>
<polygon fill="#9a32cd" stroke="#9a32cd" points="381.21,-194.48 371.79,-199.32 382.17,-201.42 381.21,-194.48"/>
</a>
</g>
<text text-anchor="middle" x="447.5" y="-197" font-family="Helvetica,sans-Serif" font-size="10.00" fill="grey"> encodingFormat</text>
</g>
<!-- Node3 -->
<g id="Node000003" class="node">
<title>Node3</title>
<g id="a_Node000003"><a xlink:title=" ">
<polygon fill="white" stroke="#666666" points="347,-178.5 276,-178.5 276,-159.5 347,-159.5 347,-178.5"/>
<text text-anchor="middle" x="311.5" y="-166.5" font-family="Helvetica,sans-Serif" font-size="10.00">ma_format</text>
</a>
</g>
</g>
<!-- Node3&#45;&gt;Node1 -->
<g id="edge2_Node000001_Node000003" class="edge">
<title>Node3&#45;&gt;Node1</title>
<g id="a_edge2_Node000001_Node000003"><a xlink:title=" ">
<path fill="none" stroke="#9a32cd" stroke-dasharray="5,2" d="M357.23,-165C401.02,-161.08 467.82,-155.1 514.77,-150.9"/>
<polygon fill="#9a32cd" stroke="#9a32cd" points="356.81,-161.52 347.16,-165.9 357.43,-168.49 356.81,-161.52"/>
</a>
</g>
<text text-anchor="middle" x="447.5" y="-163" font-family="Helvetica,sans-Serif" font-size="10.00" fill="grey"> format</text>
</g>
<!-- Node4 -->
<g id="Node000004" class="node">
<title>Node4</title>
<g id="a_Node000004"><a xlink:title=" ">
<polygon fill="white" stroke="#666666" points="326,-133.5 297,-133.5 297,-114.5 326,-114.5 326,-133.5"/>
<text text-anchor="middle" x="311.5" y="-121.5" font-family="Helvetica,sans-Serif" font-size="10.00">int</text>
</a>
</g>
</g>
<!-- Node4&#45;&gt;Node1 -->
<g id="edge3_Node000001_Node000004" class="edge">
<title>Node4&#45;&gt;Node1</title>
<g id="a_edge3_Node000001_Node000004"><a xlink:title=" ">
<path fill="none" stroke="#9a32cd" stroke-dasharray="5,2" d="M336.26,-122.05C371.55,-119.62 439.79,-116.72 497,-125 512.56,-127.25 529.47,-132.01 543.03,-136.42"/>
<polygon fill="#9a32cd" stroke="#9a32cd" points="335.74,-118.58 326.02,-122.81 336.25,-125.56 335.74,-118.58"/>
</a>
</g>
<text text-anchor="middle" x="447.5" y="-139" font-family="Helvetica,sans-Serif" font-size="10.00" fill="grey"> channels</text>
<text text-anchor="middle" x="447.5" y="-128" font-family="Helvetica,sans-Serif" font-size="10.00" fill="grey">sampleRate</text>
</g>
<!-- Node5 -->
<g id="Node000005" class="node">
<title>Node5</title>
<g id="a_Node000005"><a xlink:href="structma__allocation__callbacks.html" target="_top" xlink:title=" ">
<polygon fill="white" stroke="#666666" points="380,-96.5 243,-96.5 243,-77.5 380,-77.5 380,-96.5"/>
<text text-anchor="middle" x="311.5" y="-84.5" font-family="Helvetica,sans-Serif" font-size="10.00">ma_allocation_callbacks</text>
</a>
</g>
</g>
<!-- Node5&#45;&gt;Node1 -->
<g id="edge4_Node000001_Node000005" class="edge">
<title>Node5&#45;&gt;Node1</title>
<g id="a_edge4_Node000001_Node000005"><a xlink:title=" ">
<path fill="none" stroke="#9a32cd" stroke-dasharray="5,2" d="M390.26,-86.75C423.76,-88.52 462.98,-93.16 497,-104 519.73,-111.24 543.09,-126.44 556.95,-136.43"/>
<polygon fill="#9a32cd" stroke="#9a32cd" points="390.21,-83.24 380.06,-86.29 389.89,-90.24 390.21,-83.24"/>
</a>
</g>
<text text-anchor="middle" x="447.5" y="-107" font-family="Helvetica,sans-Serif" font-size="10.00" fill="grey"> allocationCallbacks</text>
</g>
<!-- Node6 -->
<g id="Node000006" class="node">
<title>Node6</title>
<g id="a_Node000006"><a xlink:title=" ">
<polygon fill="white" stroke="#666666" points="99,-163.5 53,-163.5 53,-144.5 99,-144.5 99,-163.5"/>
<text text-anchor="middle" x="76" y="-151.5" font-family="Helvetica,sans-Serif" font-size="10.00">void *</text>
</a>
</g>
</g>
<!-- Node6&#45;&gt;Node5 -->
<g id="edge5_Node000005_Node000006" class="edge">
<title>Node6&#45;&gt;Node5</title>
<g id="a_edge5_Node000005_Node000006"><a xlink:title=" ">
<path fill="none" stroke="#9a32cd" stroke-dasharray="5,2" d="M109.38,-145.85C122.6,-142.5 138.04,-138.59 152,-135 184.47,-126.66 193.88,-128.46 225,-116 233.5,-112.6 234.54,-109.49 243,-106 251.78,-102.38 261.48,-99.21 270.71,-96.54"/>
<polygon fill="#9a32cd" stroke="#9a32cd" points="108.16,-142.54 99.33,-148.38 109.88,-149.33 108.16,-142.54"/>
</a>
</g>
<text text-anchor="middle" x="197.5" y="-133" font-family="Helvetica,sans-Serif" font-size="10.00" fill="grey"> pUserData</text>
</g>
<!-- Node7 -->
<g id="Node000007" class="node">
<title>Node7</title>
<g id="a_Node000007"><a xlink:title=" ">
<polygon fill="white" stroke="#666666" points="129.5,-126 22.5,-126 22.5,-96 129.5,-96 129.5,-126"/>
<text text-anchor="start" x="30.5" y="-114" font-family="Helvetica,sans-Serif" font-size="10.00">void *(*)(size_t sz,</text>
<text text-anchor="middle" x="76" y="-103" font-family="Helvetica,sans-Serif" font-size="10.00"> void *pUserData)</text>
</a>
</g>
</g>
<!-- Node7&#45;&gt;Node5 -->
<g id="edge6_Node000005_Node000007" class="edge">
<title>Node7&#45;&gt;Node5</title>
<g id="a_edge6_Node000005_Node000007"><a xlink:title=" ">
<path fill="none" stroke="#9a32cd" stroke-dasharray="5,2" d="M139.78,-104.55C171.64,-101.27 210.38,-97.29 242.9,-93.95"/>
<polygon fill="#9a32cd" stroke="#9a32cd" points="139.28,-101.08 129.69,-105.58 140,-108.04 139.28,-101.08"/>
</a>
</g>
<text text-anchor="middle" x="197.5" y="-104" font-family="Helvetica,sans-Serif" font-size="10.00" fill="grey"> onMalloc</text>
</g>
<!-- Node8 -->
<g id="Node000008" class="node">
<title>Node8</title>
<g id="a_Node000008"><a xlink:title=" ">
<polygon fill="white" stroke="#666666" points="152,-78 0,-78 0,-48 152,-48 152,-78"/>
<text text-anchor="start" x="8" y="-66" font-family="Helvetica,sans-Serif" font-size="10.00">void *(*)(void *p,</text>
<text text-anchor="middle" x="76" y="-55" font-family="Helvetica,sans-Serif" font-size="10.00"> size_t sz, void *pUserData)</text>
</a>
</g>
</g>
<!-- Node8&#45;&gt;Node5 -->
<g id="edge7_Node000005_Node000008" class="edge">
<title>Node8&#45;&gt;Node5</title>
<g id="a_edge7_Node000005_Node000008"><a xlink:title=" ">
<path fill="none" stroke="#9a32cd" stroke-dasharray="5,2" d="M162.23,-71.76C188.82,-74.49 217.77,-77.47 242.97,-80.06"/>
<polygon fill="#9a32cd" stroke="#9a32cd" points="162.47,-68.27 152.17,-70.73 161.76,-75.23 162.47,-68.27"/>
</a>
</g>
<text text-anchor="middle" x="197.5" y="-80" font-family="Helvetica,sans-Serif" font-size="10.00" fill="grey"> onRealloc</text>
</g>
<!-- Node9 -->
<g id="Node000009" class="node">
<title>Node9</title>
<g id="a_Node000009"><a xlink:title=" ">
<polygon fill="white" stroke="#666666" points="134,-30 18,-30 18,0 134,0 134,-30"/>
<text text-anchor="start" x="26" y="-18" font-family="Helvetica,sans-Serif" font-size="10.00">void(*)(void *p, void</text>
<text text-anchor="middle" x="76" y="-7" font-family="Helvetica,sans-Serif" font-size="10.00"> *pUserData)</text>
</a>
</g>
</g>
<!-- Node9&#45;&gt;Node5 -->
<g id="edge8_Node000005_Node000009" class="edge">
<title>Node9&#45;&gt;Node5</title>
<g id="a_edge8_Node000005_Node000009"><a xlink:title=" ">
<path fill="none" stroke="#9a32cd" stroke-dasharray="5,2" d="M142.77,-32.74C168.52,-39.92 198.25,-48.52 225,-57 245.09,-63.37 267.58,-71.29 284.44,-77.39"/>
<polygon fill="#9a32cd" stroke="#9a32cd" points="143.68,-29.36 133.11,-30.06 141.81,-36.1 143.68,-29.36"/>
</a>
</g>
<text text-anchor="middle" x="197.5" y="-60" font-family="Helvetica,sans-Serif" font-size="10.00" fill="grey"> onFree</text>
</g>
</g>
</svg>
