<?xml version="1.0" encoding="UTF-8" standalone="no"?>
<!DOCTYPE svg PUBLIC "-//W3C//DTD SVG 1.1//EN"
 "http://www.w3.org/Graphics/SVG/1.1/DTD/svg11.dtd">
<!-- Generated by graphviz version 2.43.0 (0)
 -->
<!-- Title: ma_device_descriptor Pages: 1 -->
<svg width="767pt" height="283pt"
 viewBox="0.00 0.00 767.00 283.00" xmlns="http://www.w3.org/2000/svg" xmlns:xlink="http://www.w3.org/1999/xlink">
<g id="graph0" class="graph" transform="scale(1 1) rotate(0) translate(4 279)">
<title>ma_device_descriptor</title>
<!-- Node1 -->
<g id="Node000001" class="node">
<title>Node1</title>
<g id="a_Node000001"><a xlink:title=" ">
<polygon fill="#999999" stroke="#666666" points="602,-19 478,-19 478,0 602,0 602,-19"/>
<text text-anchor="middle" x="540" y="-7" font-family="Helvetica,sans-Serif" font-size="10.00">ma_device_descriptor</text>
</a>
</g>
</g>
<!-- Node2 -->
<g id="Node000002" class="node">
<title>Node2</title>
<g id="a_Node000002"><a xlink:href="unionma__device__id.html" target="_top" xlink:title=" ">
<polygon fill="white" stroke="#666666" points="232,-103 148,-103 148,-84 232,-84 232,-103"/>
<text text-anchor="middle" x="190" y="-91" font-family="Helvetica,sans-Serif" font-size="10.00">ma_device_id</text>
</a>
</g>
</g>
<!-- Node2&#45;&gt;Node1 -->
<g id="edge1_Node000001_Node000002" class="edge">
<title>Node2&#45;&gt;Node1</title>
<g id="a_edge1_Node000001_Node000002"><a xlink:title=" ">
<path fill="none" stroke="#9a32cd" stroke-dasharray="5,2" d="M209.33,-77.69C227.53,-64.59 256.1,-46.19 284,-37 318.75,-25.55 413.78,-17.91 477.77,-13.88"/>
<polygon fill="#9a32cd" stroke="#9a32cd" points="206.78,-75.22 200.81,-83.97 210.93,-80.85 206.78,-75.22"/>
</a>
</g>
<text text-anchor="middle" x="311" y="-40" font-family="Helvetica,sans-Serif" font-size="10.00" fill="grey"> pDeviceID</text>
</g>
<!-- Node3 -->
<g id="Node000003" class="node">
<title>Node3</title>
<g id="a_Node000003"><a xlink:title=" ">
<polygon fill="white" stroke="#666666" points="124,-275 56,-275 56,-256 124,-256 124,-275"/>
<text text-anchor="middle" x="90" y="-263" font-family="Helvetica,sans-Serif" font-size="10.00">ma_uint16</text>
</a>
</g>
</g>
<!-- Node3&#45;&gt;Node2 -->
<g id="edge2_Node000002_Node000003" class="edge">
<title>Node3&#45;&gt;Node2</title>
<g id="a_edge2_Node000002_Node000003"><a xlink:title=" ">
<path fill="none" stroke="#9a32cd" stroke-dasharray="5,2" d="M91.67,-245.67C94.8,-219.55 103.5,-171.82 127,-139 138.46,-122.99 157.53,-110.7 171.69,-103.13"/>
<polygon fill="#9a32cd" stroke="#9a32cd" points="88.18,-245.42 90.62,-255.73 95.14,-246.15 88.18,-245.42"/>
</a>
</g>
<text text-anchor="middle" x="146" y="-186" font-family="Helvetica,sans-Serif" font-size="10.00" fill="grey"> wasapi</text>
</g>
<!-- Node4 -->
<g id="Node000004" class="node">
<title>Node4</title>
<g id="a_Node000004"><a xlink:title=" ">
<polygon fill="white" stroke="#666666" points="38,-275 0,-275 0,-256 38,-256 38,-275"/>
<text text-anchor="middle" x="19" y="-263" font-family="Helvetica,sans-Serif" font-size="10.00">char</text>
</a>
</g>
</g>
<!-- Node4&#45;&gt;Node2 -->
<g id="edge3_Node000002_Node000004" class="edge">
<title>Node4&#45;&gt;Node2</title>
<g id="a_edge3_Node000002_Node000004"><a xlink:title=" ">
<path fill="none" stroke="#9a32cd" stroke-dasharray="5,2" d="M16.5,-245.87C13.98,-218.87 13.62,-168.83 40,-139 66.9,-108.58 113.54,-98.51 147.69,-95.4"/>
<polygon fill="#9a32cd" stroke="#9a32cd" points="13.03,-246.37 17.64,-255.91 19.99,-245.58 13.03,-246.37"/>
</a>
</g>
<text text-anchor="middle" x="64.5" y="-230" font-family="Helvetica,sans-Serif" font-size="10.00" fill="grey"> alsa</text>
<text text-anchor="middle" x="64.5" y="-219" font-family="Helvetica,sans-Serif" font-size="10.00" fill="grey">audio4</text>
<text text-anchor="middle" x="64.5" y="-208" font-family="Helvetica,sans-Serif" font-size="10.00" fill="grey">coreaudio</text>
<text text-anchor="middle" x="64.5" y="-197" font-family="Helvetica,sans-Serif" font-size="10.00" fill="grey">dsound</text>
<text text-anchor="middle" x="64.5" y="-186" font-family="Helvetica,sans-Serif" font-size="10.00" fill="grey">oss</text>
<text text-anchor="middle" x="64.5" y="-175" font-family="Helvetica,sans-Serif" font-size="10.00" fill="grey">pulse</text>
<text text-anchor="middle" x="64.5" y="-164" font-family="Helvetica,sans-Serif" font-size="10.00" fill="grey">s</text>
<text text-anchor="middle" x="64.5" y="-153" font-family="Helvetica,sans-Serif" font-size="10.00" fill="grey">sndio</text>
<text text-anchor="middle" x="64.5" y="-142" font-family="Helvetica,sans-Serif" font-size="10.00" fill="grey">webaudio</text>
</g>
<!-- Node5 -->
<g id="Node000005" class="node">
<title>Node5</title>
<g id="a_Node000005"><a xlink:title=" ">
<polygon fill="white" stroke="#666666" points="366.5,-275 337.5,-275 337.5,-256 366.5,-256 366.5,-275"/>
<text text-anchor="middle" x="352" y="-263" font-family="Helvetica,sans-Serif" font-size="10.00">int</text>
</a>
</g>
</g>
<!-- Node5&#45;&gt;Node1 -->
<g id="edge9_Node000001_Node000005" class="edge">
<title>Node5&#45;&gt;Node1</title>
<g id="a_edge9_Node000001_Node000005"><a xlink:title=" ">
<path fill="none" stroke="#9a32cd" stroke-dasharray="5,2" d="M350.19,-245.38C346.41,-201.17 339.71,-93.57 361,-66 388.25,-30.72 437.6,-17.31 477.59,-12.46"/>
<polygon fill="#9a32cd" stroke="#9a32cd" points="346.72,-245.96 351.11,-255.61 353.7,-245.34 346.72,-245.96"/>
</a>
</g>
<text text-anchor="middle" x="421.5" y="-113" font-family="Helvetica,sans-Serif" font-size="10.00" fill="grey"> channels</text>
<text text-anchor="middle" x="421.5" y="-102" font-family="Helvetica,sans-Serif" font-size="10.00" fill="grey">periodCount</text>
<text text-anchor="middle" x="421.5" y="-91" font-family="Helvetica,sans-Serif" font-size="10.00" fill="grey">periodSizeInFrames</text>
<text text-anchor="middle" x="421.5" y="-80" font-family="Helvetica,sans-Serif" font-size="10.00" fill="grey">periodSizeInMilliseconds</text>
<text text-anchor="middle" x="421.5" y="-69" font-family="Helvetica,sans-Serif" font-size="10.00" fill="grey">sampleRate</text>
</g>
<!-- Node5&#45;&gt;Node2 -->
<g id="edge4_Node000002_Node000005" class="edge">
<title>Node5&#45;&gt;Node2</title>
<g id="a_edge4_Node000002_Node000005"><a xlink:title=" ">
<path fill="none" stroke="#9a32cd" stroke-dasharray="5,2" d="M327.94,-255.91C306.84,-248.36 279.44,-238.5 279,-238 249.03,-204.2 281.61,-176.21 256,-139 244.64,-122.49 224.97,-110.41 210.06,-103.03"/>
<polygon fill="#9a32cd" stroke="#9a32cd" points="326.76,-259.21 337.35,-259.28 329.12,-252.62 326.76,-259.21"/>
</a>
</g>
<text text-anchor="middle" x="308.5" y="-213.5" font-family="Helvetica,sans-Serif" font-size="10.00" fill="grey"> aaudio</text>
<text text-anchor="middle" x="308.5" y="-202.5" font-family="Helvetica,sans-Serif" font-size="10.00" fill="grey">i</text>
<text text-anchor="middle" x="308.5" y="-191.5" font-family="Helvetica,sans-Serif" font-size="10.00" fill="grey">jack</text>
<text text-anchor="middle" x="308.5" y="-180.5" font-family="Helvetica,sans-Serif" font-size="10.00" fill="grey">nullbackend</text>
<text text-anchor="middle" x="308.5" y="-169.5" font-family="Helvetica,sans-Serif" font-size="10.00" fill="grey">opensl</text>
<text text-anchor="middle" x="308.5" y="-158.5" font-family="Helvetica,sans-Serif" font-size="10.00" fill="grey">winmm</text>
</g>
<!-- Node6 -->
<g id="Node000006" class="node">
<title>Node6</title>
<g id="a_Node000006"><a xlink:title=" ">
<polygon fill="white" stroke="#666666" points="188,-275 142,-275 142,-256 188,-256 188,-275"/>
<text text-anchor="middle" x="165" y="-263" font-family="Helvetica,sans-Serif" font-size="10.00">void *</text>
</a>
</g>
</g>
<!-- Node6&#45;&gt;Node2 -->
<g id="edge5_Node000002_Node000006" class="edge">
<title>Node6&#45;&gt;Node2</title>
<g id="a_edge5_Node000002_Node000006"><a xlink:title=" ">
<path fill="none" stroke="#9a32cd" stroke-dasharray="5,2" d="M167.58,-245.94C171.01,-221.44 177.29,-176.96 183,-139 184.88,-126.47 187.19,-111.98 188.62,-103.03"/>
<polygon fill="#9a32cd" stroke="#9a32cd" points="164.1,-245.58 166.18,-255.97 171.03,-246.55 164.1,-245.58"/>
</a>
</g>
<text text-anchor="middle" x="188" y="-186" font-family="Helvetica,sans-Serif" font-size="10.00" fill="grey"> p</text>
</g>
<!-- Node7 -->
<g id="Node000007" class="node">
<title>Node7</title>
<g id="a_Node000007"><a xlink:title=" ">
<polygon fill="white" stroke="#666666" points="319.5,-275 206.5,-275 206.5,-256 319.5,-256 319.5,-275"/>
<text text-anchor="middle" x="263" y="-263" font-family="Helvetica,sans-Serif" font-size="10.00">anonymous:custom</text>
</a>
</g>
</g>
<!-- Node7&#45;&gt;Node2 -->
<g id="edge6_Node000002_Node000007" class="edge">
<title>Node7&#45;&gt;Node2</title>
<g id="a_edge6_Node000002_Node000007"><a xlink:title=" ">
<path fill="none" stroke="#9a32cd" stroke-dasharray="5,2" d="M230.22,-251.05C224.78,-247.52 219.71,-243.21 216,-238 200.3,-215.92 192.68,-130.48 190.6,-103.04"/>
<polygon fill="#9a32cd" stroke="#9a32cd" points="228.51,-254.11 238.94,-255.96 231.94,-248.01 228.51,-254.11"/>
</a>
</g>
<text text-anchor="middle" x="236" y="-186" font-family="Helvetica,sans-Serif" font-size="10.00" fill="grey"> custom</text>
</g>
<!-- Node8 -->
<g id="Node000008" class="node">
<title>Node8</title>
<g id="a_Node000008"><a xlink:title=" ">
<polygon fill="white" stroke="#666666" points="589,-103 491,-103 491,-84 589,-84 589,-103"/>
<text text-anchor="middle" x="540" y="-91" font-family="Helvetica,sans-Serif" font-size="10.00">ma_share_mode</text>
</a>
</g>
</g>
<!-- Node8&#45;&gt;Node1 -->
<g id="edge7_Node000001_Node000008" class="edge">
<title>Node8&#45;&gt;Node1</title>
<g id="a_edge7_Node000001_Node000008"><a xlink:title=" ">
<path fill="none" stroke="#9a32cd" stroke-dasharray="5,2" d="M540,-73.26C540,-56.18 540,-32 540,-19.21"/>
<polygon fill="#9a32cd" stroke="#9a32cd" points="536.5,-73.72 540,-83.72 543.5,-73.72 536.5,-73.72"/>
</a>
</g>
<text text-anchor="middle" x="569" y="-40" font-family="Helvetica,sans-Serif" font-size="10.00" fill="grey"> shareMode</text>
</g>
<!-- Node9 -->
<g id="Node000009" class="node">
<title>Node9</title>
<g id="a_Node000009"><a xlink:title=" ">
<polygon fill="white" stroke="#666666" points="678.5,-103 607.5,-103 607.5,-84 678.5,-84 678.5,-103"/>
<text text-anchor="middle" x="643" y="-91" font-family="Helvetica,sans-Serif" font-size="10.00">ma_format</text>
</a>
</g>
</g>
<!-- Node9&#45;&gt;Node1 -->
<g id="edge8_Node000001_Node000009" class="edge">
<title>Node9&#45;&gt;Node1</title>
<g id="a_edge8_Node000001_Node000009"><a xlink:title=" ">
<path fill="none" stroke="#9a32cd" stroke-dasharray="5,2" d="M633.55,-75.17C626.25,-63.13 615.2,-47.44 602,-37 592.18,-29.23 579.73,-23.33 568.58,-19.08"/>
<polygon fill="#9a32cd" stroke="#9a32cd" points="630.53,-76.95 638.56,-83.87 636.6,-73.45 630.53,-76.95"/>
</a>
</g>
<text text-anchor="middle" x="630.5" y="-40" font-family="Helvetica,sans-Serif" font-size="10.00" fill="grey"> format</text>
</g>
<!-- Node10 -->
<g id="Node000010" class="node">
<title>Node10</title>
<g id="a_Node000010"><a xlink:title=" ">
<polygon fill="white" stroke="#666666" points="759,-103 697,-103 697,-84 759,-84 759,-103"/>
<text text-anchor="middle" x="728" y="-91" font-family="Helvetica,sans-Serif" font-size="10.00">ma_uint8</text>
</a>
</g>
</g>
<!-- Node10&#45;&gt;Node1 -->
<g id="edge10_Node000001_Node000010" class="edge">
<title>Node10&#45;&gt;Node1</title>
<g id="a_edge10_Node000001_Node000010"><a xlink:title=" ">
<path fill="none" stroke="#9a32cd" stroke-dasharray="5,2" d="M711.55,-77.2C697.14,-64.62 675.12,-47.24 653,-37 635.36,-28.83 614.96,-23.05 596.39,-19.03"/>
<polygon fill="#9a32cd" stroke="#9a32cd" points="709.31,-79.9 719.09,-83.97 713.98,-74.69 709.31,-79.9"/>
</a>
</g>
<text text-anchor="middle" x="701.5" y="-40" font-family="Helvetica,sans-Serif" font-size="10.00" fill="grey"> channelMap</text>
</g>
</g>
</svg>
