<?xml version="1.0" encoding="UTF-8" standalone="no"?>
<!DOCTYPE svg PUBLIC "-//W3C//DTD SVG 1.1//EN"
 "http://www.w3.org/Graphics/SVG/1.1/DTD/svg11.dtd">
<!-- Generated by graphviz version 2.43.0 (0)
 -->
<!-- Title: ma_delay_node_config Pages: 1 -->
<svg width="954pt" height="370pt"
 viewBox="0.00 0.00 954.00 370.00" xmlns="http://www.w3.org/2000/svg" xmlns:xlink="http://www.w3.org/1999/xlink">
<g id="graph0" class="graph" transform="scale(1 1) rotate(0) translate(4 366)">
<title>ma_delay_node_config</title>
<!-- Node1 -->
<g id="Node000001" class="node">
<title>Node1</title>
<g id="a_Node000001"><a xlink:title=" ">
<polygon fill="#999999" stroke="#666666" points="946,-92 818,-92 818,-73 946,-73 946,-92"/>
<text text-anchor="middle" x="882" y="-80" font-family="Helvetica,sans-Serif" font-size="10.00">ma_delay_node_config</text>
</a>
</g>
</g>
<!-- Node2 -->
<g id="Node000002" class="node">
<title>Node2</title>
<g id="a_Node000002"><a xlink:href="structma__node__config.html" target="_top" xlink:title=" ">
<polygon fill="white" stroke="#666666" points="724,-157 628,-157 628,-138 724,-138 724,-157"/>
<text text-anchor="middle" x="676" y="-145" font-family="Helvetica,sans-Serif" font-size="10.00">ma_node_config</text>
</a>
</g>
</g>
<!-- Node2&#45;&gt;Node1 -->
<g id="edge1_Node000001_Node000002" class="edge">
<title>Node2&#45;&gt;Node1</title>
<g id="a_edge1_Node000001_Node000002"><a xlink:title=" ">
<path fill="none" stroke="#9a32cd" stroke-dasharray="5,2" d="M716.65,-134.87C756.04,-122.32 815.54,-103.36 851.11,-92.02"/>
<polygon fill="#9a32cd" stroke="#9a32cd" points="715.57,-131.54 707.1,-137.91 717.69,-138.21 715.57,-131.54"/>
</a>
</g>
<text text-anchor="middle" x="771" y="-129.5" font-family="Helvetica,sans-Serif" font-size="10.00" fill="grey"> nodeConfig</text>
</g>
<!-- Node3 -->
<g id="Node000003" class="node">
<title>Node3</title>
<g id="a_Node000003"><a xlink:href="structma__node__vtable.html" target="_top" xlink:title=" ">
<polygon fill="white" stroke="#666666" points="503,-215 405,-215 405,-196 503,-196 503,-215"/>
<text text-anchor="middle" x="454" y="-203" font-family="Helvetica,sans-Serif" font-size="10.00">ma_node_vtable</text>
</a>
</g>
</g>
<!-- Node3&#45;&gt;Node2 -->
<g id="edge2_Node000002_Node000003" class="edge">
<title>Node3&#45;&gt;Node2</title>
<g id="a_edge2_Node000002_Node000003"><a xlink:title=" ">
<path fill="none" stroke="#9a32cd" stroke-dasharray="5,2" d="M501.06,-193.36C541.96,-182.57 600.94,-167.03 638.62,-157.09"/>
<polygon fill="#9a32cd" stroke="#9a32cd" points="500.11,-189.99 491.33,-195.92 501.89,-196.76 500.11,-189.99"/>
</a>
</g>
<text text-anchor="middle" x="567.5" y="-189.5" font-family="Helvetica,sans-Serif" font-size="10.00" fill="grey"> vtable</text>
</g>
<!-- Node4 -->
<g id="Node000004" class="node">
<title>Node4</title>
<g id="a_Node000004"><a xlink:title=" ">
<polygon fill="white" stroke="#666666" points="191.5,-362 13.5,-362 13.5,-299 191.5,-299 191.5,-362"/>
<text text-anchor="start" x="21.5" y="-350" font-family="Helvetica,sans-Serif" font-size="10.00">void(*)(ma_node *pNode,</text>
<text text-anchor="start" x="21.5" y="-339" font-family="Helvetica,sans-Serif" font-size="10.00"> const float **ppFramesIn,</text>
<text text-anchor="start" x="21.5" y="-328" font-family="Helvetica,sans-Serif" font-size="10.00"> ma_uint32 *pFrameCountIn,</text>
<text text-anchor="start" x="21.5" y="-317" font-family="Helvetica,sans-Serif" font-size="10.00"> float **ppFramesOut, ma_uint32</text>
<text text-anchor="middle" x="102.5" y="-306" font-family="Helvetica,sans-Serif" font-size="10.00"> *pFrameCountOut)</text>
</a>
</g>
</g>
<!-- Node4&#45;&gt;Node3 -->
<g id="edge3_Node000003_Node000004" class="edge">
<title>Node4&#45;&gt;Node3</title>
<g id="a_edge3_Node000003_Node000004"><a xlink:title=" ">
<path fill="none" stroke="#9a32cd" stroke-dasharray="5,2" d="M201.86,-334.85C260.82,-332.27 333.67,-319.27 383,-276.5 401.48,-260.48 383.85,-241.94 401,-224.5 404.84,-220.59 409.55,-217.48 414.55,-215.01"/>
<polygon fill="#9a32cd" stroke="#9a32cd" points="201.65,-331.35 191.78,-335.19 201.89,-338.35 201.65,-331.35"/>
</a>
</g>
<text text-anchor="middle" x="303" y="-335.5" font-family="Helvetica,sans-Serif" font-size="10.00" fill="grey"> onProcess</text>
</g>
<!-- Node5 -->
<g id="Node000005" class="node">
<title>Node5</title>
<g id="a_Node000005"><a xlink:title=" ">
<polygon fill="white" stroke="#666666" points="205,-281 0,-281 0,-240 205,-240 205,-281"/>
<text text-anchor="start" x="8" y="-269" font-family="Helvetica,sans-Serif" font-size="10.00">ma_result(*)(ma_node</text>
<text text-anchor="start" x="8" y="-258" font-family="Helvetica,sans-Serif" font-size="10.00"> *pNode, ma_uint32 outputFrame</text>
<text text-anchor="middle" x="102.5" y="-247" font-family="Helvetica,sans-Serif" font-size="10.00">Count, ma_uint32 *pInputFrameCount)</text>
</a>
</g>
</g>
<!-- Node5&#45;&gt;Node3 -->
<g id="edge4_Node000003_Node000005" class="edge">
<title>Node5&#45;&gt;Node3</title>
<g id="a_edge4_Node000003_Node000005"><a xlink:title=" ">
<path fill="none" stroke="#9a32cd" stroke-dasharray="5,2" d="M215.31,-262.12C267.4,-259.96 329.55,-253.15 383,-235.5 391.9,-232.56 392.56,-228.57 401,-224.5 408.19,-221.03 416.18,-217.82 423.7,-215.05"/>
<polygon fill="#9a32cd" stroke="#9a32cd" points="214.9,-258.63 205.03,-262.49 215.15,-265.63 214.9,-258.63"/>
</a>
</g>
<text text-anchor="middle" x="303" y="-264.5" font-family="Helvetica,sans-Serif" font-size="10.00" fill="grey"> onGetRequiredInputFrameCount</text>
</g>
<!-- Node6 -->
<g id="Node000006" class="node">
<title>Node6</title>
<g id="a_Node000006"><a xlink:title=" ">
<polygon fill="white" stroke="#666666" points="121.5,-222 83.5,-222 83.5,-203 121.5,-203 121.5,-222"/>
<text text-anchor="middle" x="102.5" y="-210" font-family="Helvetica,sans-Serif" font-size="10.00">char</text>
</a>
</g>
</g>
<!-- Node6&#45;&gt;Node3 -->
<g id="edge5_Node000003_Node000006" class="edge">
<title>Node6&#45;&gt;Node3</title>
<g id="a_edge5_Node000003_Node000006"><a xlink:title=" ">
<path fill="none" stroke="#9a32cd" stroke-dasharray="5,2" d="M132.01,-211.93C191.84,-210.73 331.03,-207.94 404.92,-206.46"/>
<polygon fill="#9a32cd" stroke="#9a32cd" points="131.73,-208.43 121.8,-212.13 131.87,-215.43 131.73,-208.43"/>
</a>
</g>
<text text-anchor="middle" x="303" y="-223.5" font-family="Helvetica,sans-Serif" font-size="10.00" fill="grey"> inputBusCount</text>
<text text-anchor="middle" x="303" y="-212.5" font-family="Helvetica,sans-Serif" font-size="10.00" fill="grey">outputBusCount</text>
</g>
<!-- Node7 -->
<g id="Node000007" class="node">
<title>Node7</title>
<g id="a_Node000007"><a xlink:title=" ">
<polygon fill="white" stroke="#666666" points="117,-157 88,-157 88,-138 117,-138 117,-157"/>
<text text-anchor="middle" x="102.5" y="-145" font-family="Helvetica,sans-Serif" font-size="10.00">int</text>
</a>
</g>
</g>
<!-- Node7&#45;&gt;Node2 -->
<g id="edge8_Node000002_Node000007" class="edge">
<title>Node7&#45;&gt;Node2</title>
<g id="a_edge8_Node000002_Node000007"><a xlink:title=" ">
<path fill="none" stroke="#9a32cd" stroke-dasharray="5,2" d="M127.14,-147.5C213.28,-147.5 511.42,-147.5 627.88,-147.5"/>
<polygon fill="#9a32cd" stroke="#9a32cd" points="127.06,-144 117.06,-147.5 127.06,-151 127.06,-144"/>
</a>
</g>
<text text-anchor="middle" x="454" y="-161.5" font-family="Helvetica,sans-Serif" font-size="10.00" fill="grey"> inputBusCount</text>
<text text-anchor="middle" x="454" y="-150.5" font-family="Helvetica,sans-Serif" font-size="10.00" fill="grey">outputBusCount</text>
</g>
<!-- Node7&#45;&gt;Node3 -->
<g id="edge6_Node000003_Node000007" class="edge">
<title>Node7&#45;&gt;Node3</title>
<g id="a_edge6_Node000003_Node000007"><a xlink:title=" ">
<path fill="none" stroke="#9a32cd" stroke-dasharray="5,2" d="M127.27,-150.9C175.56,-157.89 288.57,-174.63 383,-191.5 390.69,-192.87 398.83,-194.42 406.74,-195.97"/>
<polygon fill="#9a32cd" stroke="#9a32cd" points="127.6,-147.42 117.2,-149.45 126.6,-154.34 127.6,-147.42"/>
</a>
</g>
<text text-anchor="middle" x="303" y="-194.5" font-family="Helvetica,sans-Serif" font-size="10.00" fill="grey"> flags</text>
</g>
<!-- Node10 -->
<g id="Node000010" class="node">
<title>Node10</title>
<g id="a_Node000010"><a xlink:href="structma__delay__config.html" target="_top" xlink:title=" ">
<polygon fill="white" stroke="#666666" points="503.5,-74 404.5,-74 404.5,-55 503.5,-55 503.5,-74"/>
<text text-anchor="middle" x="454" y="-62" font-family="Helvetica,sans-Serif" font-size="10.00">ma_delay_config</text>
</a>
</g>
</g>
<!-- Node7&#45;&gt;Node10 -->
<g id="edge11_Node000010_Node000007" class="edge">
<title>Node7&#45;&gt;Node10</title>
<g id="a_edge11_Node000010_Node000007"><a xlink:title=" ">
<path fill="none" stroke="#9a32cd" stroke-dasharray="5,2" d="M126.32,-136.68C149.98,-125.91 188.3,-109.68 223,-100.5 292.45,-82.12 312.11,-89.17 383,-77.5 389.95,-76.36 397.28,-75.08 404.47,-73.78"/>
<polygon fill="#9a32cd" stroke="#9a32cd" points="124.74,-133.56 117.13,-140.93 127.68,-139.91 124.74,-133.56"/>
</a>
</g>
<text text-anchor="middle" x="303" y="-125.5" font-family="Helvetica,sans-Serif" font-size="10.00" fill="grey"> channels</text>
<text text-anchor="middle" x="303" y="-114.5" font-family="Helvetica,sans-Serif" font-size="10.00" fill="grey">delayInFrames</text>
<text text-anchor="middle" x="303" y="-103.5" font-family="Helvetica,sans-Serif" font-size="10.00" fill="grey">sampleRate</text>
</g>
<!-- Node8 -->
<g id="Node000008" class="node">
<title>Node8</title>
<g id="a_Node000008"><a xlink:title=" ">
<polygon fill="white" stroke="#666666" points="500,-111 408,-111 408,-92 500,-92 500,-111"/>
<text text-anchor="middle" x="454" y="-99" font-family="Helvetica,sans-Serif" font-size="10.00">ma_node_state</text>
</a>
</g>
</g>
<!-- Node8&#45;&gt;Node2 -->
<g id="edge7_Node000002_Node000008" class="edge">
<title>Node8&#45;&gt;Node2</title>
<g id="a_edge7_Node000002_Node000008"><a xlink:title=" ">
<path fill="none" stroke="#9a32cd" stroke-dasharray="5,2" d="M510.52,-105.87C540.33,-109 577.53,-114.18 610,-122.5 624.99,-126.34 641.24,-132.59 653.74,-137.88"/>
<polygon fill="#9a32cd" stroke="#9a32cd" points="510.6,-102.36 500.3,-104.84 509.9,-109.32 510.6,-102.36"/>
</a>
</g>
<text text-anchor="middle" x="567.5" y="-125.5" font-family="Helvetica,sans-Serif" font-size="10.00" fill="grey"> initialState</text>
</g>
<!-- Node9 -->
<g id="Node000009" class="node">
<title>Node9</title>
<g id="a_Node000009"><a xlink:title=" ">
<polygon fill="white" stroke="#666666" points="507,-252 401,-252 401,-233 507,-233 507,-252"/>
<text text-anchor="middle" x="454" y="-240" font-family="Helvetica,sans-Serif" font-size="10.00">const ma_uint32 *</text>
</a>
</g>
</g>
<!-- Node9&#45;&gt;Node2 -->
<g id="edge9_Node000002_Node000009" class="edge">
<title>Node9&#45;&gt;Node2</title>
<g id="a_edge9_Node000002_Node000009"><a xlink:title=" ">
<path fill="none" stroke="#9a32cd" stroke-dasharray="5,2" d="M517.4,-232.45C546.61,-226.15 581.23,-216.33 610,-201.5 632.43,-189.94 654.06,-169.54 665.84,-157.39"/>
<polygon fill="#9a32cd" stroke="#9a32cd" points="516.39,-229.08 507.31,-234.53 517.81,-235.93 516.39,-229.08"/>
</a>
</g>
<text text-anchor="middle" x="567.5" y="-243.5" font-family="Helvetica,sans-Serif" font-size="10.00" fill="grey"> pInputChannels</text>
<text text-anchor="middle" x="567.5" y="-232.5" font-family="Helvetica,sans-Serif" font-size="10.00" fill="grey">pOutputChannels</text>
</g>
<!-- Node10&#45;&gt;Node1 -->
<g id="edge10_Node000001_Node000010" class="edge">
<title>Node10&#45;&gt;Node1</title>
<g id="a_edge10_Node000001_Node000010"><a xlink:title=" ">
<path fill="none" stroke="#9a32cd" stroke-dasharray="5,2" d="M514.25,-67C594.2,-70.38 736,-76.37 817.89,-79.83"/>
<polygon fill="#9a32cd" stroke="#9a32cd" points="514.01,-63.49 503.87,-66.56 513.71,-70.48 514.01,-63.49"/>
</a>
</g>
<text text-anchor="middle" x="676" y="-79.5" font-family="Helvetica,sans-Serif" font-size="10.00" fill="grey"> delay</text>
</g>
<!-- Node11 -->
<g id="Node000011" class="node">
<title>Node11</title>
<g id="a_Node000011"><a xlink:title=" ">
<polygon fill="white" stroke="#666666" points="136.5,-75 68.5,-75 68.5,-56 136.5,-56 136.5,-75"/>
<text text-anchor="middle" x="102.5" y="-63" font-family="Helvetica,sans-Serif" font-size="10.00">ma_uint32</text>
</a>
</g>
</g>
<!-- Node11&#45;&gt;Node10 -->
<g id="edge12_Node000010_Node000011" class="edge">
<title>Node11&#45;&gt;Node10</title>
<g id="a_edge12_Node000010_Node000011"><a xlink:title=" ">
<path fill="none" stroke="#9a32cd" stroke-dasharray="5,2" d="M147.07,-65.38C212.53,-65.19 335.86,-64.84 404.24,-64.64"/>
<polygon fill="#9a32cd" stroke="#9a32cd" points="146.69,-61.88 136.7,-65.41 146.71,-68.88 146.69,-61.88"/>
</a>
</g>
<text text-anchor="middle" x="303" y="-68.5" font-family="Helvetica,sans-Serif" font-size="10.00" fill="grey"> delayStart</text>
</g>
<!-- Node12 -->
<g id="Node000012" class="node">
<title>Node12</title>
<g id="a_Node000012"><a xlink:title=" ">
<polygon fill="white" stroke="#666666" points="121.5,-19 83.5,-19 83.5,0 121.5,0 121.5,-19"/>
<text text-anchor="middle" x="102.5" y="-7" font-family="Helvetica,sans-Serif" font-size="10.00">float</text>
</a>
</g>
</g>
<!-- Node12&#45;&gt;Node10 -->
<g id="edge13_Node000010_Node000012" class="edge">
<title>Node12&#45;&gt;Node10</title>
<g id="a_edge13_Node000010_Node000012"><a xlink:title=" ">
<path fill="none" stroke="#9a32cd" stroke-dasharray="5,2" d="M131.86,-7.7C183.07,-5.26 293.95,-3.72 383,-28.5 403.54,-34.22 425.04,-46.33 438.7,-54.93"/>
<polygon fill="#9a32cd" stroke="#9a32cd" points="131.38,-4.22 121.58,-8.24 131.75,-11.21 131.38,-4.22"/>
</a>
</g>
<text text-anchor="middle" x="303" y="-53.5" font-family="Helvetica,sans-Serif" font-size="10.00" fill="grey"> decay</text>
<text text-anchor="middle" x="303" y="-42.5" font-family="Helvetica,sans-Serif" font-size="10.00" fill="grey">dry</text>
<text text-anchor="middle" x="303" y="-31.5" font-family="Helvetica,sans-Serif" font-size="10.00" fill="grey">wet</text>
</g>
</g>
</svg>
