<?xml version="1.0" encoding="UTF-8" standalone="no"?>
<!DOCTYPE svg PUBLIC "-//W3C//DTD SVG 1.1//EN"
 "http://www.w3.org/Graphics/SVG/1.1/DTD/svg11.dtd">
<!-- Generated by graphviz version 2.43.0 (0)
 -->
<!-- Title: OSThread_ListHead Pages: 1 -->
<svg width="562pt" height="470pt"
 viewBox="0.00 0.00 562.00 470.00" xmlns="http://www.w3.org/2000/svg" xmlns:xlink="http://www.w3.org/1999/xlink">
<g id="graph0" class="graph" transform="scale(1 1) rotate(0) translate(4 466)">
<title>OSThread_ListHead</title>
<!-- Node1 -->
<g id="Node000001" class="node">
<title>Node1</title>
<g id="a_Node000001"><a xlink:title=" ">
<polygon fill="#999999" stroke="#666666" points="193,-19 81,-19 81,0 193,0 193,-19"/>
<text text-anchor="middle" x="137" y="-7" font-family="Helvetica,sans-Serif" font-size="10.00">OSThread_ListHead</text>
</a>
</g>
</g>
<!-- Node2 -->
<g id="Node000002" class="node">
<title>Node2</title>
<g id="a_Node000002"><a xlink:href="structOSThread__s.html" target="_top" xlink:title=" ">
<polygon fill="white" stroke="#666666" points="174,-125 100,-125 100,-106 174,-106 174,-125"/>
<text text-anchor="middle" x="137" y="-113" font-family="Helvetica,sans-Serif" font-size="10.00">OSThread_s</text>
</a>
</g>
</g>
<!-- Node2&#45;&gt;Node1 -->
<g id="edge1_Node000001_Node000002" class="edge">
<title>Node2&#45;&gt;Node1</title>
<g id="a_edge1_Node000001_Node000002"><a xlink:title=" ">
<path fill="none" stroke="#9a32cd" stroke-dasharray="5,2" d="M137,-95.93C137,-73.27 137,-35.91 137,-19.13"/>
<polygon fill="#9a32cd" stroke="#9a32cd" points="133.5,-95.99 137,-105.99 140.5,-95.99 133.5,-95.99"/>
</a>
</g>
<text text-anchor="middle" x="152.5" y="-73" font-family="Helvetica,sans-Serif" font-size="10.00" fill="grey"> next</text>
<text text-anchor="middle" x="152.5" y="-62" font-family="Helvetica,sans-Serif" font-size="10.00" fill="grey">queue</text>
<text text-anchor="middle" x="152.5" y="-51" font-family="Helvetica,sans-Serif" font-size="10.00" fill="grey">tlnext</text>
<text text-anchor="middle" x="152.5" y="-40" font-family="Helvetica,sans-Serif" font-size="10.00" fill="grey">unk10</text>
</g>
<!-- Node2&#45;&gt;Node2 -->
<g id="edge2_Node000002_Node000002" class="edge">
<title>Node2&#45;&gt;Node2</title>
<g id="a_edge2_Node000002_Node000002"><a xlink:title=" ">
<path fill="none" stroke="#9a32cd" stroke-dasharray="5,2" d="M184.19,-122.27C188.96,-120.92 192,-118.67 192,-115.5 192,-110.43 184.21,-107.7 174.02,-107.3"/>
<polygon fill="#9a32cd" stroke="#9a32cd" points="183.43,-118.84 174.02,-123.7 184.41,-125.77 183.43,-118.84"/>
</a>
</g>
<text text-anchor="middle" x="207.5" y="-124" font-family="Helvetica,sans-Serif" font-size="10.00" fill="grey"> next</text>
<text text-anchor="middle" x="207.5" y="-113" font-family="Helvetica,sans-Serif" font-size="10.00" fill="grey">queue</text>
<text text-anchor="middle" x="207.5" y="-102" font-family="Helvetica,sans-Serif" font-size="10.00" fill="grey">tlnext</text>
</g>
<!-- Node3 -->
<g id="Node000003" class="node">
<title>Node3</title>
<g id="a_Node000003"><a xlink:title=" ">
<polygon fill="white" stroke="#666666" points="34,-209 0,-209 0,-190 34,-190 34,-209"/>
<text text-anchor="middle" x="17" y="-197" font-family="Helvetica,sans-Serif" font-size="10.00">s32</text>
</a>
</g>
</g>
<!-- Node3&#45;&gt;Node1 -->
<g id="edge15_Node000001_Node000003" class="edge">
<title>Node3&#45;&gt;Node1</title>
<g id="a_edge15_Node000001_Node000003"><a xlink:title=" ">
<path fill="none" stroke="#9a32cd" stroke-dasharray="5,2" d="M19.72,-179.79C21.34,-170.66 23.72,-159.6 27,-150 35.17,-126.11 37.53,-119.68 52,-99 74.84,-66.36 109.67,-34.18 126.78,-19.21"/>
<polygon fill="#9a32cd" stroke="#9a32cd" points="16.25,-179.31 18.13,-189.74 23.17,-180.42 16.25,-179.31"/>
</a>
</g>
<text text-anchor="middle" x="71.5" y="-113" font-family="Helvetica,sans-Serif" font-size="10.00" fill="grey"> priority</text>
</g>
<!-- Node3&#45;&gt;Node2 -->
<g id="edge3_Node000002_Node000003" class="edge">
<title>Node3&#45;&gt;Node2</title>
<g id="a_edge3_Node000002_Node000003"><a xlink:title=" ">
<path fill="none" stroke="#9a32cd" stroke-dasharray="5,2" d="M24.92,-180.53C30.19,-170.37 37.98,-158.12 48,-150 62.88,-137.94 82.55,-129.93 99.61,-124.78"/>
<polygon fill="#9a32cd" stroke="#9a32cd" points="21.67,-179.23 20.51,-189.76 27.98,-182.25 21.67,-179.23"/>
</a>
</g>
<text text-anchor="middle" x="66" y="-164" font-family="Helvetica,sans-Serif" font-size="10.00" fill="grey"> id</text>
<text text-anchor="middle" x="66" y="-153" font-family="Helvetica,sans-Serif" font-size="10.00" fill="grey">priority</text>
</g>
<!-- Node4 -->
<g id="Node000004" class="node">
<title>Node4</title>
<g id="a_Node000004"><a xlink:title=" ">
<polygon fill="white" stroke="#666666" points="100.5,-209 65.5,-209 65.5,-190 100.5,-190 100.5,-209"/>
<text text-anchor="middle" x="83" y="-197" font-family="Helvetica,sans-Serif" font-size="10.00">u16</text>
</a>
</g>
</g>
<!-- Node4&#45;&gt;Node2 -->
<g id="edge4_Node000002_Node000004" class="edge">
<title>Node4&#45;&gt;Node2</title>
<g id="a_edge4_Node000002_Node000004"><a xlink:title=" ">
<path fill="none" stroke="#9a32cd" stroke-dasharray="5,2" d="M85.2,-179.93C86.99,-170.4 90.22,-158.95 96,-150 102.69,-139.66 113.61,-130.96 122.5,-125.03"/>
<polygon fill="#9a32cd" stroke="#9a32cd" points="81.72,-179.56 83.69,-189.97 88.64,-180.6 81.72,-179.56"/>
</a>
</g>
<text text-anchor="middle" x="109.5" y="-164" font-family="Helvetica,sans-Serif" font-size="10.00" fill="grey"> flags</text>
<text text-anchor="middle" x="109.5" y="-153" font-family="Helvetica,sans-Serif" font-size="10.00" fill="grey">state</text>
</g>
<!-- Node5 -->
<g id="Node000005" class="node">
<title>Node5</title>
<g id="a_Node000005"><a xlink:title=" ">
<polygon fill="white" stroke="#666666" points="236.5,-385 207.5,-385 207.5,-366 236.5,-366 236.5,-385"/>
<text text-anchor="middle" x="222" y="-373" font-family="Helvetica,sans-Serif" font-size="10.00">int</text>
</a>
</g>
</g>
<!-- Node5&#45;&gt;Node2 -->
<g id="edge5_Node000002_Node000005" class="edge">
<title>Node5&#45;&gt;Node2</title>
<g id="a_edge5_Node000002_Node000005"><a xlink:title=" ">
<path fill="none" stroke="#9a32cd" stroke-dasharray="5,2" d="M211.74,-357.29C194.82,-328 161.4,-266.04 146,-209 137.88,-178.94 136.89,-141.63 136.89,-125.09"/>
<polygon fill="#9a32cd" stroke="#9a32cd" points="208.72,-359.06 216.79,-365.92 214.76,-355.53 208.72,-359.06"/>
</a>
</g>
<text text-anchor="middle" x="152.5" y="-197" font-family="Helvetica,sans-Serif" font-size="10.00" fill="grey"> fp</text>
</g>
<!-- Node6 -->
<g id="Node000006" class="node">
<title>Node6</title>
<g id="a_Node000006"><a xlink:href="struct____OSThreadprofile__s.html" target="_top" xlink:title=" ">
<polygon fill="white" stroke="#666666" points="284,-209 168,-209 168,-190 284,-190 284,-209"/>
<text text-anchor="middle" x="226" y="-197" font-family="Helvetica,sans-Serif" font-size="10.00">__OSThreadprofile_s</text>
</a>
</g>
</g>
<!-- Node5&#45;&gt;Node6 -->
<g id="edge8_Node000006_Node000005" class="edge">
<title>Node5&#45;&gt;Node6</title>
<g id="a_edge8_Node000006_Node000005"><a xlink:title=" ">
<path fill="none" stroke="#9a32cd" stroke-dasharray="5,2" d="M221.49,-355.5C220.87,-327.39 220.24,-273.08 223,-227 223.35,-221.08 224.1,-214.46 224.77,-209.31"/>
<polygon fill="#9a32cd" stroke="#9a32cd" points="218,-355.93 221.74,-365.84 224.99,-355.76 218,-355.93"/>
</a>
</g>
<text text-anchor="middle" x="236" y="-285" font-family="Helvetica,sans-Serif" font-size="10.00" fill="grey"> time</text>
</g>
<!-- Node8 -->
<g id="Node000008" class="node">
<title>Node8</title>
<g id="a_Node000008"><a xlink:href="struct____OSThreadContext.html" target="_top" xlink:title=" ">
<polygon fill="white" stroke="#666666" points="415.5,-209 302.5,-209 302.5,-190 415.5,-190 415.5,-209"/>
<text text-anchor="middle" x="359" y="-197" font-family="Helvetica,sans-Serif" font-size="10.00">__OSThreadContext</text>
</a>
</g>
</g>
<!-- Node5&#45;&gt;Node8 -->
<g id="edge10_Node000008_Node000005" class="edge">
<title>Node5&#45;&gt;Node8</title>
<g id="a_edge10_Node000008_Node000005"><a xlink:title=" ">
<path fill="none" stroke="#9a32cd" stroke-dasharray="5,2" d="M240.96,-358.91C244.04,-355.6 246.91,-351.91 249,-348 274.82,-299.73 235.43,-267.74 272,-227 280.02,-218.07 290.94,-212.11 302.34,-208.14"/>
<polygon fill="#9a32cd" stroke="#9a32cd" points="238.45,-356.47 233.62,-365.89 243.27,-361.54 238.45,-356.47"/>
</a>
</g>
<text text-anchor="middle" x="280" y="-340" font-family="Helvetica,sans-Serif" font-size="10.00" fill="grey"> a0</text>
<text text-anchor="middle" x="280" y="-329" font-family="Helvetica,sans-Serif" font-size="10.00" fill="grey">a1</text>
<text text-anchor="middle" x="280" y="-318" font-family="Helvetica,sans-Serif" font-size="10.00" fill="grey">a2</text>
<text text-anchor="middle" x="280" y="-307" font-family="Helvetica,sans-Serif" font-size="10.00" fill="grey">a3</text>
<text text-anchor="middle" x="280" y="-296" font-family="Helvetica,sans-Serif" font-size="10.00" fill="grey">at</text>
<text text-anchor="middle" x="280" y="-285" font-family="Helvetica,sans-Serif" font-size="10.00" fill="grey">gp</text>
<text text-anchor="middle" x="280" y="-274" font-family="Helvetica,sans-Serif" font-size="10.00" fill="grey">hi</text>
<text text-anchor="middle" x="280" y="-263" font-family="Helvetica,sans-Serif" font-size="10.00" fill="grey">lo</text>
<text text-anchor="middle" x="280" y="-252" font-family="Helvetica,sans-Serif" font-size="10.00" fill="grey">ra</text>
<text text-anchor="middle" x="280" y="-241" font-family="Helvetica,sans-Serif" font-size="10.00" fill="grey">s0</text>
<text text-anchor="middle" x="280" y="-230" font-family="Helvetica,sans-Serif" font-size="10.00" fill="grey">...</text>
</g>
<!-- Node6&#45;&gt;Node2 -->
<g id="edge6_Node000002_Node000006" class="edge">
<title>Node6&#45;&gt;Node2</title>
<g id="a_edge6_Node000002_Node000006"><a xlink:title=" ">
<path fill="none" stroke="#9a32cd" stroke-dasharray="5,2" d="M209,-182.84C190.42,-165.72 161.33,-138.92 146.46,-125.21"/>
<polygon fill="#9a32cd" stroke="#9a32cd" points="206.75,-185.52 216.48,-189.72 211.49,-180.37 206.75,-185.52"/>
</a>
</g>
<text text-anchor="middle" x="214.5" y="-158.5" font-family="Helvetica,sans-Serif" font-size="10.00" fill="grey"> thprof</text>
</g>
<!-- Node7 -->
<g id="Node000007" class="node">
<title>Node7</title>
<g id="a_Node000007"><a xlink:title=" ">
<polygon fill="white" stroke="#666666" points="381.5,-385 346.5,-385 346.5,-366 381.5,-366 381.5,-385"/>
<text text-anchor="middle" x="364" y="-373" font-family="Helvetica,sans-Serif" font-size="10.00">u32</text>
</a>
</g>
</g>
<!-- Node7&#45;&gt;Node1 -->
<g id="edge16_Node000001_Node000007" class="edge">
<title>Node7&#45;&gt;Node1</title>
<g id="a_edge16_Node000001_Node000007"><a xlink:title=" ">
<path fill="none" stroke="#9a32cd" stroke-dasharray="5,2" d="M391.19,-367.24C400.97,-363.21 411.05,-357.11 417,-348 455.45,-289.16 458.07,-251.48 424,-190 368.46,-89.76 231.01,-38.08 168.66,-19.14"/>
<polygon fill="#9a32cd" stroke="#9a32cd" points="389.93,-363.97 381.67,-370.61 392.27,-370.57 389.93,-363.97"/>
</a>
</g>
<text text-anchor="middle" x="429" y="-158.5" font-family="Helvetica,sans-Serif" font-size="10.00" fill="grey"> unk14</text>
</g>
<!-- Node7&#45;&gt;Node6 -->
<g id="edge7_Node000006_Node000007" class="edge">
<title>Node7&#45;&gt;Node6</title>
<g id="a_edge7_Node000006_Node000007"><a xlink:title=" ">
<path fill="none" stroke="#9a32cd" stroke-dasharray="5,2" d="M337.79,-360.35C333.02,-356.83 328.46,-352.69 325,-348 291.63,-302.74 325.58,-268.84 288,-227 280.65,-218.81 270.33,-213.07 260.23,-209.07"/>
<polygon fill="#9a32cd" stroke="#9a32cd" points="336.14,-363.46 346.43,-366.02 339.99,-357.6 336.14,-363.46"/>
</a>
</g>
<text text-anchor="middle" x="340.5" y="-290.5" font-family="Helvetica,sans-Serif" font-size="10.00" fill="grey"> count</text>
<text text-anchor="middle" x="340.5" y="-279.5" font-family="Helvetica,sans-Serif" font-size="10.00" fill="grey">flag</text>
</g>
<!-- Node7&#45;&gt;Node8 -->
<g id="edge11_Node000008_Node000007" class="edge">
<title>Node7&#45;&gt;Node8</title>
<g id="a_edge11_Node000008_Node000007"><a xlink:title=" ">
<path fill="none" stroke="#9a32cd" stroke-dasharray="5,2" d="M363.46,-355.56C362.38,-318.12 360.02,-235.95 359.25,-209.14"/>
<polygon fill="#9a32cd" stroke="#9a32cd" points="359.96,-355.74 363.75,-365.63 366.96,-355.54 359.96,-355.74"/>
</a>
</g>
<text text-anchor="middle" x="388.5" y="-312.5" font-family="Helvetica,sans-Serif" font-size="10.00" fill="grey"> badvaddr</text>
<text text-anchor="middle" x="388.5" y="-301.5" font-family="Helvetica,sans-Serif" font-size="10.00" fill="grey">cause</text>
<text text-anchor="middle" x="388.5" y="-290.5" font-family="Helvetica,sans-Serif" font-size="10.00" fill="grey">fpcsr</text>
<text text-anchor="middle" x="388.5" y="-279.5" font-family="Helvetica,sans-Serif" font-size="10.00" fill="grey">pc</text>
<text text-anchor="middle" x="388.5" y="-268.5" font-family="Helvetica,sans-Serif" font-size="10.00" fill="grey">rcp</text>
<text text-anchor="middle" x="388.5" y="-257.5" font-family="Helvetica,sans-Serif" font-size="10.00" fill="grey">sr</text>
</g>
<!-- Node8&#45;&gt;Node2 -->
<g id="edge9_Node000002_Node000008" class="edge">
<title>Node8&#45;&gt;Node2</title>
<g id="a_edge9_Node000002_Node000008"><a xlink:title=" ">
<path fill="none" stroke="#9a32cd" stroke-dasharray="5,2" d="M328.72,-186.23C303.7,-176.2 267.19,-161.79 235,-150 210.69,-141.09 182.72,-131.61 162.9,-125.01"/>
<polygon fill="#9a32cd" stroke="#9a32cd" points="327.46,-189.5 338.04,-189.98 330.07,-183 327.46,-189.5"/>
</a>
</g>
<text text-anchor="middle" x="310" y="-158.5" font-family="Helvetica,sans-Serif" font-size="10.00" fill="grey"> context</text>
</g>
<!-- Node9 -->
<g id="Node000009" class="node">
<title>Node9</title>
<g id="a_Node000009"><a xlink:href="union____OSfp.html" target="_top" xlink:title=" ">
<polygon fill="white" stroke="#666666" points="502,-385 452,-385 452,-366 502,-366 502,-385"/>
<text text-anchor="middle" x="477" y="-373" font-family="Helvetica,sans-Serif" font-size="10.00">__OSfp</text>
</a>
</g>
</g>
<!-- Node9&#45;&gt;Node8 -->
<g id="edge12_Node000008_Node000009" class="edge">
<title>Node9&#45;&gt;Node8</title>
<g id="a_edge12_Node000008_Node000009"><a xlink:title=" ">
<path fill="none" stroke="#9a32cd" stroke-dasharray="5,2" d="M474,-355.88C468.17,-325.3 452.62,-264.16 417,-227 409.26,-218.93 398.6,-213.1 388.53,-209"/>
<polygon fill="#9a32cd" stroke="#9a32cd" points="470.59,-356.74 475.78,-365.98 477.49,-355.53 470.59,-356.74"/>
</a>
</g>
<text text-anchor="middle" x="483" y="-340" font-family="Helvetica,sans-Serif" font-size="10.00" fill="grey"> fp0</text>
<text text-anchor="middle" x="483" y="-329" font-family="Helvetica,sans-Serif" font-size="10.00" fill="grey">fp10</text>
<text text-anchor="middle" x="483" y="-318" font-family="Helvetica,sans-Serif" font-size="10.00" fill="grey">fp12</text>
<text text-anchor="middle" x="483" y="-307" font-family="Helvetica,sans-Serif" font-size="10.00" fill="grey">fp14</text>
<text text-anchor="middle" x="483" y="-296" font-family="Helvetica,sans-Serif" font-size="10.00" fill="grey">fp16</text>
<text text-anchor="middle" x="483" y="-285" font-family="Helvetica,sans-Serif" font-size="10.00" fill="grey">fp18</text>
<text text-anchor="middle" x="483" y="-274" font-family="Helvetica,sans-Serif" font-size="10.00" fill="grey">fp2</text>
<text text-anchor="middle" x="483" y="-263" font-family="Helvetica,sans-Serif" font-size="10.00" fill="grey">fp20</text>
<text text-anchor="middle" x="483" y="-252" font-family="Helvetica,sans-Serif" font-size="10.00" fill="grey">fp22</text>
<text text-anchor="middle" x="483" y="-241" font-family="Helvetica,sans-Serif" font-size="10.00" fill="grey">fp24</text>
<text text-anchor="middle" x="483" y="-230" font-family="Helvetica,sans-Serif" font-size="10.00" fill="grey">...</text>
</g>
<!-- Node10 -->
<g id="Node000010" class="node">
<title>Node10</title>
<g id="a_Node000010"><a xlink:title=" ">
<polygon fill="white" stroke="#666666" points="456,-462 424,-462 424,-443 456,-443 456,-462"/>
<text text-anchor="middle" x="440" y="-450" font-family="Helvetica,sans-Serif" font-size="10.00">f32</text>
</a>
</g>
</g>
<!-- Node10&#45;&gt;Node9 -->
<g id="edge13_Node000009_Node000010" class="edge">
<title>Node10&#45;&gt;Node9</title>
<g id="a_edge13_Node000009_Node000010"><a xlink:title=" ">
<path fill="none" stroke="#9a32cd" stroke-dasharray="5,2" d="M443.89,-433.03C446.31,-423.68 449.93,-412.36 455,-403 458.53,-396.48 463.8,-390.06 468.3,-385.17"/>
<polygon fill="#9a32cd" stroke="#9a32cd" points="440.46,-432.33 441.6,-442.86 447.28,-433.92 440.46,-432.33"/>
</a>
</g>
<text text-anchor="middle" x="473.5" y="-417" font-family="Helvetica,sans-Serif" font-size="10.00" fill="grey"> f_even</text>
<text text-anchor="middle" x="473.5" y="-406" font-family="Helvetica,sans-Serif" font-size="10.00" fill="grey">f_odd</text>
</g>
<!-- Node11 -->
<g id="Node000011" class="node">
<title>Node11</title>
<g id="a_Node000011"><a xlink:title=" ">
<polygon fill="white" stroke="#666666" points="554,-462 474,-462 474,-443 554,-443 554,-462"/>
<text text-anchor="middle" x="514" y="-450" font-family="Helvetica,sans-Serif" font-size="10.00">anonymous:f</text>
</a>
</g>
</g>
<!-- Node11&#45;&gt;Node9 -->
<g id="edge14_Node000009_Node000011" class="edge">
<title>Node11&#45;&gt;Node9</title>
<g id="a_edge14_Node000009_Node000011"><a xlink:title=" ">
<path fill="none" stroke="#9a32cd" stroke-dasharray="5,2" d="M506.29,-433.49C502.23,-424.28 497.05,-412.94 492,-403 488.93,-396.97 485.18,-390.34 482.2,-385.23"/>
<polygon fill="#9a32cd" stroke="#9a32cd" points="503.14,-435.03 510.33,-442.8 509.56,-432.24 503.14,-435.03"/>
</a>
</g>
<text text-anchor="middle" x="505.5" y="-411.5" font-family="Helvetica,sans-Serif" font-size="10.00" fill="grey"> f</text>
</g>
</g>
</svg>
