<?xml version="1.0" encoding="UTF-8" standalone="no"?>
<!DOCTYPE svg PUBLIC "-//W3C//DTD SVG 1.1//EN"
 "http://www.w3.org/Graphics/SVG/1.1/DTD/svg11.dtd">
<!-- Generated by graphviz version 2.43.0 (0)
 -->
<!-- Title: ShellActor Pages: 1 -->
<svg width="944pt" height="580pt"
 viewBox="0.00 0.00 944.00 580.26" xmlns="http://www.w3.org/2000/svg" xmlns:xlink="http://www.w3.org/1999/xlink">
<g id="graph0" class="graph" transform="scale(1 1) rotate(0) translate(4 576.26)">
<title>ShellActor</title>
<!-- Node1 -->
<g id="Node000001" class="node">
<title>Node1</title>
<g id="a_Node000001"><a xlink:title=" ">
<polygon fill="#999999" stroke="#666666" points="936,-225.76 870,-225.76 870,-206.76 936,-206.76 936,-225.76"/>
<text text-anchor="middle" x="903" y="-213.76" font-family="Helvetica,sans-Serif" font-size="10.00">ShellActor</text>
</a>
</g>
</g>
<!-- Node2 -->
<g id="Node000002" class="node">
<title>Node2</title>
<g id="a_Node000002"><a xlink:title=" ">
<polygon fill="white" stroke="#666666" points="363,-446.76 329,-446.76 329,-427.76 363,-427.76 363,-446.76"/>
<text text-anchor="middle" x="346" y="-434.76" font-family="Helvetica,sans-Serif" font-size="10.00">s16</text>
</a>
</g>
</g>
<!-- Node2&#45;&gt;Node1 -->
<g id="edge1_Node000001_Node000002" class="edge">
<title>Node2&#45;&gt;Node1</title>
<g id="a_edge1_Node000001_Node000002"><a xlink:title=" ">
<path fill="none" stroke="#9a32cd" stroke-dasharray="5,2" d="M373.23,-439.87C466.18,-448.55 778.2,-472.58 852,-412.26 881.77,-387.92 897.2,-261.79 901.03,-225.83"/>
<polygon fill="#9a32cd" stroke="#9a32cd" points="373.3,-436.36 363.02,-438.89 372.64,-443.33 373.3,-436.36"/>
</a>
</g>
<text text-anchor="middle" x="701.5" y="-564.26" font-family="Helvetica,sans-Serif" font-size="10.00" fill="grey"> flags</text>
<text text-anchor="middle" x="701.5" y="-553.26" font-family="Helvetica,sans-Serif" font-size="10.00" fill="grey">parentIndex</text>
<text text-anchor="middle" x="701.5" y="-542.26" font-family="Helvetica,sans-Serif" font-size="10.00" fill="grey">playerId</text>
<text text-anchor="middle" x="701.5" y="-531.26" font-family="Helvetica,sans-Serif" font-size="10.00" fill="grey">rotAngle</text>
<text text-anchor="middle" x="701.5" y="-520.26" font-family="Helvetica,sans-Serif" font-size="10.00" fill="grey">rotVelocity</text>
<text text-anchor="middle" x="701.5" y="-509.26" font-family="Helvetica,sans-Serif" font-size="10.00" fill="grey">someTimer</text>
<text text-anchor="middle" x="701.5" y="-498.26" font-family="Helvetica,sans-Serif" font-size="10.00" fill="grey">state</text>
<text text-anchor="middle" x="701.5" y="-487.26" font-family="Helvetica,sans-Serif" font-size="10.00" fill="grey">targetPlayer</text>
<text text-anchor="middle" x="701.5" y="-476.26" font-family="Helvetica,sans-Serif" font-size="10.00" fill="grey">type</text>
<text text-anchor="middle" x="701.5" y="-465.26" font-family="Helvetica,sans-Serif" font-size="10.00" fill="grey">unk_16</text>
<text text-anchor="middle" x="701.5" y="-454.26" font-family="Helvetica,sans-Serif" font-size="10.00" fill="grey">...</text>
</g>
<!-- Node3 -->
<g id="Node000003" class="node">
<title>Node3</title>
<g id="a_Node000003"><a xlink:title=" ">
<polygon fill="white" stroke="#666666" points="533,-409.76 159,-409.76 159,-390.76 533,-390.76 533,-409.76"/>
<text text-anchor="middle" x="346" y="-397.76" font-family="Helvetica,sans-Serif" font-size="10.00">anonymous:@133036306143364266233041122336313132062166301071</text>
</a>
</g>
</g>
<!-- Node3&#45;&gt;Node1 -->
<g id="edge2_Node000001_Node000003" class="edge">
<title>Node3&#45;&gt;Node1</title>
<g id="a_edge2_Node000001_Node000003"><a xlink:title=" ">
<path fill="none" stroke="#9a32cd" stroke-dasharray="5,2" d="M543.36,-398.08C663.96,-392.93 804.22,-378.86 852,-342.26 890.3,-312.92 899.32,-249.77 901.4,-225.77"/>
<polygon fill="#9a32cd" stroke="#9a32cd" points="543.08,-394.58 533.23,-398.49 543.37,-401.58 543.08,-394.58"/>
</a>
</g>
<text text-anchor="middle" x="701.5" y="-400.26" font-family="Helvetica,sans-Serif" font-size="10.00" fill="grey"> @133036306143364266233041122336313132062166301071</text>
</g>
<!-- Node4 -->
<g id="Node000004" class="node">
<title>Node4</title>
<g id="a_Node000004"><a xlink:title=" ">
<polygon fill="white" stroke="#666666" points="33.5,-302.76 1.5,-302.76 1.5,-283.76 33.5,-283.76 33.5,-302.76"/>
<text text-anchor="middle" x="17.5" y="-290.76" font-family="Helvetica,sans-Serif" font-size="10.00">f32</text>
</a>
</g>
</g>
<!-- Node4&#45;&gt;Node1 -->
<g id="edge3_Node000001_Node000004" class="edge">
<title>Node4&#45;&gt;Node1</title>
<g id="a_edge3_Node000001_Node000004"><a xlink:title=" ">
<path fill="none" stroke="#9a32cd" stroke-dasharray="5,2" d="M38.95,-308.18C43.38,-310.68 48.19,-312.91 53,-314.26 90.66,-324.82 101.95,-316.53 141,-314.26 458.61,-295.78 540.44,-295.66 852,-231.26 859.01,-229.81 866.46,-227.83 873.4,-225.78"/>
<polygon fill="#9a32cd" stroke="#9a32cd" points="40.82,-305.22 30.51,-302.82 37.08,-311.13 40.82,-305.22"/>
</a>
</g>
<text text-anchor="middle" x="346" y="-348.26" font-family="Helvetica,sans-Serif" font-size="10.00" fill="grey"> boundingBoxSize</text>
<text text-anchor="middle" x="346" y="-337.26" font-family="Helvetica,sans-Serif" font-size="10.00" fill="grey">pos</text>
<text text-anchor="middle" x="346" y="-326.26" font-family="Helvetica,sans-Serif" font-size="10.00" fill="grey">shellId</text>
<text text-anchor="middle" x="346" y="-315.26" font-family="Helvetica,sans-Serif" font-size="10.00" fill="grey">velocity</text>
</g>
<!-- Node7 -->
<g id="Node000007" class="node">
<title>Node7</title>
<g id="a_Node000007"><a xlink:href="structCollision.html" target="_top" xlink:title=" ">
<polygon fill="white" stroke="#666666" points="375.5,-225.76 316.5,-225.76 316.5,-206.76 375.5,-206.76 375.5,-225.76"/>
<text text-anchor="middle" x="346" y="-213.76" font-family="Helvetica,sans-Serif" font-size="10.00">Collision</text>
</a>
</g>
</g>
<!-- Node4&#45;&gt;Node7 -->
<g id="edge8_Node000007_Node000004" class="edge">
<title>Node4&#45;&gt;Node7</title>
<g id="a_edge8_Node000007_Node000004"><a xlink:title=" ">
<path fill="none" stroke="#9a32cd" stroke-dasharray="5,2" d="M32.41,-275.5C38.13,-269.39 45.24,-263.12 53,-259.26 98.98,-236.35 252.05,-222.95 316.26,-218.21"/>
<polygon fill="#9a32cd" stroke="#9a32cd" points="29.41,-273.63 25.54,-283.49 34.71,-278.19 29.41,-273.63"/>
</a>
</g>
<text text-anchor="middle" x="97" y="-306.26" font-family="Helvetica,sans-Serif" font-size="10.00" fill="grey"> orientationVector</text>
<text text-anchor="middle" x="97" y="-295.26" font-family="Helvetica,sans-Serif" font-size="10.00" fill="grey">surfaceDistance</text>
<text text-anchor="middle" x="97" y="-284.26" font-family="Helvetica,sans-Serif" font-size="10.00" fill="grey">unk48</text>
<text text-anchor="middle" x="97" y="-273.26" font-family="Helvetica,sans-Serif" font-size="10.00" fill="grey">unk54</text>
<text text-anchor="middle" x="97" y="-262.26" font-family="Helvetica,sans-Serif" font-size="10.00" fill="grey">unk6C</text>
</g>
<!-- Node5 -->
<g id="Node000005" class="node">
<title>Node5</title>
<g id="a_Node000005"><a xlink:title=" ">
<polygon fill="white" stroke="#666666" points="35,-162.76 0,-162.76 0,-143.76 35,-143.76 35,-162.76"/>
<text text-anchor="middle" x="17.5" y="-150.76" font-family="Helvetica,sans-Serif" font-size="10.00">u16</text>
</a>
</g>
</g>
<!-- Node5&#45;&gt;Node1 -->
<g id="edge4_Node000001_Node000005" class="edge">
<title>Node5&#45;&gt;Node1</title>
<g id="a_edge4_Node000001_Node000005"><a xlink:title=" ">
<path fill="none" stroke="#9a32cd" stroke-dasharray="5,2" d="M45.25,-152.91C70.08,-152.73 108.06,-152.78 141,-154.26 424.05,-166.93 764.97,-201.66 869.79,-212.78"/>
<polygon fill="#9a32cd" stroke="#9a32cd" points="45.12,-149.41 35.15,-153.01 45.19,-156.41 45.12,-149.41"/>
</a>
</g>
<text text-anchor="middle" x="346" y="-182.26" font-family="Helvetica,sans-Serif" font-size="10.00" fill="grey"> pathIndex</text>
</g>
<!-- Node5&#45;&gt;Node7 -->
<g id="edge7_Node000007_Node000005" class="edge">
<title>Node5&#45;&gt;Node7</title>
<g id="a_edge7_Node000007_Node000005"><a xlink:title=" ">
<path fill="none" stroke="#9a32cd" stroke-dasharray="5,2" d="M45.34,-156.33C70.23,-159.32 108.24,-164.3 141,-170.26 204.05,-181.72 277.13,-199.24 316.44,-209.02"/>
<polygon fill="#9a32cd" stroke="#9a32cd" points="45.56,-152.83 35.21,-155.13 44.73,-159.78 45.56,-152.83"/>
</a>
</g>
<text text-anchor="middle" x="97" y="-228.26" font-family="Helvetica,sans-Serif" font-size="10.00" fill="grey"> meshIndexYX</text>
<text text-anchor="middle" x="97" y="-217.26" font-family="Helvetica,sans-Serif" font-size="10.00" fill="grey">meshIndexZX</text>
<text text-anchor="middle" x="97" y="-206.26" font-family="Helvetica,sans-Serif" font-size="10.00" fill="grey">meshIndexZY</text>
<text text-anchor="middle" x="97" y="-195.26" font-family="Helvetica,sans-Serif" font-size="10.00" fill="grey">unk30</text>
<text text-anchor="middle" x="97" y="-184.26" font-family="Helvetica,sans-Serif" font-size="10.00" fill="grey">unk32</text>
<text text-anchor="middle" x="97" y="-173.26" font-family="Helvetica,sans-Serif" font-size="10.00" fill="grey">unk34</text>
</g>
<!-- Node6 -->
<g id="Node000006" class="node">
<title>Node6</title>
<g id="a_Node000006"><a xlink:title=" ">
<polygon fill="white" stroke="#666666" points="533,-99.76 159,-99.76 159,-80.76 533,-80.76 533,-99.76"/>
<text text-anchor="middle" x="346" y="-87.76" font-family="Helvetica,sans-Serif" font-size="10.00">anonymous:@302121013232360305371062363164336315300357112304</text>
</a>
</g>
</g>
<!-- Node6&#45;&gt;Node1 -->
<g id="edge5_Node000001_Node000006" class="edge">
<title>Node6&#45;&gt;Node1</title>
<g id="a_edge5_Node000001_Node000006"><a xlink:title=" ">
<path fill="none" stroke="#9a32cd" stroke-dasharray="5,2" d="M489.08,-80.23C617.34,-73.99 794.49,-73.25 852,-111.26 885.69,-133.52 897.26,-185.08 900.71,-206.58"/>
<polygon fill="#9a32cd" stroke="#9a32cd" points="488.58,-76.75 478.77,-80.74 488.93,-83.74 488.58,-76.75"/>
</a>
</g>
<text text-anchor="middle" x="701.5" y="-114.26" font-family="Helvetica,sans-Serif" font-size="10.00" fill="grey"> @302121013232360305371062363164336315300357112304</text>
</g>
<!-- Node7&#45;&gt;Node1 -->
<g id="edge6_Node000001_Node000007" class="edge">
<title>Node7&#45;&gt;Node1</title>
<g id="a_edge6_Node000001_Node000007"><a xlink:title=" ">
<path fill="none" stroke="#9a32cd" stroke-dasharray="5,2" d="M385.73,-216.26C489.73,-216.26 773.69,-216.26 869.75,-216.26"/>
<polygon fill="#9a32cd" stroke="#9a32cd" points="385.67,-212.76 375.67,-216.26 385.67,-219.76 385.67,-212.76"/>
</a>
</g>
<text text-anchor="middle" x="701.5" y="-219.26" font-family="Helvetica,sans-Serif" font-size="10.00" fill="grey"> unk30</text>
</g>
<!-- Node8 -->
<g id="Node000008" class="node">
<title>Node8</title>
<g id="a_Node000008"><a xlink:title=" ">
<polygon fill="white" stroke="#666666" points="365,-62.76 327,-62.76 327,-43.76 365,-43.76 365,-62.76"/>
<text text-anchor="middle" x="346" y="-50.76" font-family="Helvetica,sans-Serif" font-size="10.00">char</text>
</a>
</g>
</g>
<!-- Node8&#45;&gt;Node1 -->
<g id="edge9_Node000001_Node000008" class="edge">
<title>Node8&#45;&gt;Node1</title>
<g id="a_edge9_Node000001_Node000008"><a xlink:title=" ">
<path fill="none" stroke="#9a32cd" stroke-dasharray="5,2" d="M375.13,-43.6C457.83,-17.13 703.66,47.58 852,-62.26 899.44,-97.38 902.7,-178.51 902.33,-206.53"/>
<polygon fill="#9a32cd" stroke="#9a32cd" points="373.85,-40.34 365.44,-46.77 376.03,-46.99 373.85,-40.34"/>
</a>
</g>
<text text-anchor="middle" x="701.5" y="-65.26" font-family="Helvetica,sans-Serif" font-size="10.00" fill="grey"> model</text>
</g>
</g>
</svg>
