<?xml version="1.0" encoding="UTF-8" standalone="no"?>
<!DOCTYPE svg PUBLIC "-//W3C//DTD SVG 1.1//EN"
 "http://www.w3.org/Graphics/SVG/1.1/DTD/svg11.dtd">
<!-- Generated by graphviz version 2.43.0 (0)
 -->
<!-- Title: Unk_800E9F7C Pages: 1 -->
<svg width="120pt" height="203pt"
 viewBox="0.00 0.00 120.00 203.00" xmlns="http://www.w3.org/2000/svg" xmlns:xlink="http://www.w3.org/1999/xlink">
<g id="graph0" class="graph" transform="scale(1 1) rotate(0) translate(4 199)">
<title>Unk_800E9F7C</title>
<!-- Node1 -->
<g id="Node000001" class="node">
<title>Node1</title>
<g id="a_Node000001"><a xlink:title=" ">
<polygon fill="#999999" stroke="#666666" points="91,-19 1,-19 1,0 91,0 91,-19"/>
<text text-anchor="middle" x="46" y="-7" font-family="Helvetica,sans-Serif" font-size="10.00">Unk_800E9F7C</text>
</a>
</g>
</g>
<!-- Node2 -->
<g id="Node000002" class="node">
<title>Node2</title>
<g id="a_Node000002"><a xlink:title=" ">
<polygon fill="white" stroke="#666666" points="32,-195 0,-195 0,-176 32,-176 32,-195"/>
<text text-anchor="middle" x="16" y="-183" font-family="Helvetica,sans-Serif" font-size="10.00">f32</text>
</a>
</g>
</g>
<!-- Node2&#45;&gt;Node1 -->
<g id="edge1_Node000001_Node000002" class="edge">
<title>Node2&#45;&gt;Node1</title>
<g id="a_edge1_Node000001_Node000002"><a xlink:title=" ">
<path fill="none" stroke="#9a32cd" stroke-dasharray="5,2" d="M11.53,-165.68C5.6,-136.63 -2.02,-79.76 17,-37 20.22,-29.77 26.47,-23.65 32.35,-19.12"/>
<polygon fill="#9a32cd" stroke="#9a32cd" points="8.16,-166.67 13.73,-175.68 15,-165.16 8.16,-166.67"/>
</a>
</g>
<text text-anchor="middle" x="35.5" y="-150" font-family="Helvetica,sans-Serif" font-size="10.00" fill="grey"> pos</text>
<text text-anchor="middle" x="35.5" y="-139" font-family="Helvetica,sans-Serif" font-size="10.00" fill="grey">unk_0C</text>
<text text-anchor="middle" x="35.5" y="-128" font-family="Helvetica,sans-Serif" font-size="10.00" fill="grey">unk_10</text>
<text text-anchor="middle" x="35.5" y="-117" font-family="Helvetica,sans-Serif" font-size="10.00" fill="grey">unk_18</text>
<text text-anchor="middle" x="35.5" y="-106" font-family="Helvetica,sans-Serif" font-size="10.00" fill="grey">unk_1C</text>
<text text-anchor="middle" x="35.5" y="-95" font-family="Helvetica,sans-Serif" font-size="10.00" fill="grey">unk_20</text>
<text text-anchor="middle" x="35.5" y="-84" font-family="Helvetica,sans-Serif" font-size="10.00" fill="grey">unk_24</text>
<text text-anchor="middle" x="35.5" y="-73" font-family="Helvetica,sans-Serif" font-size="10.00" fill="grey">unk_28</text>
<text text-anchor="middle" x="35.5" y="-62" font-family="Helvetica,sans-Serif" font-size="10.00" fill="grey">unk_2C</text>
<text text-anchor="middle" x="35.5" y="-51" font-family="Helvetica,sans-Serif" font-size="10.00" fill="grey">unk_30</text>
<text text-anchor="middle" x="35.5" y="-40" font-family="Helvetica,sans-Serif" font-size="10.00" fill="grey">...</text>
</g>
<!-- Node3 -->
<g id="Node000003" class="node">
<title>Node3</title>
<g id="a_Node000003"><a xlink:title=" ">
<polygon fill="white" stroke="#666666" points="90.5,-195 61.5,-195 61.5,-176 90.5,-176 90.5,-195"/>
<text text-anchor="middle" x="76" y="-183" font-family="Helvetica,sans-Serif" font-size="10.00">s8</text>
</a>
</g>
</g>
<!-- Node3&#45;&gt;Node1 -->
<g id="edge2_Node000001_Node000003" class="edge">
<title>Node3&#45;&gt;Node1</title>
<g id="a_edge2_Node000001_Node000003"><a xlink:title=" ">
<path fill="none" stroke="#9a32cd" stroke-dasharray="5,2" d="M74.09,-165.74C71.01,-137.56 64.26,-82.74 54,-37 52.65,-31 50.65,-24.37 48.99,-19.25"/>
<polygon fill="#9a32cd" stroke="#9a32cd" points="70.61,-166.2 75.15,-175.77 77.58,-165.46 70.61,-166.2"/>
</a>
</g>
<text text-anchor="middle" x="92.5" y="-95" font-family="Helvetica,sans-Serif" font-size="10.00" fill="grey"> unk_14</text>
</g>
</g>
</svg>
