<?xml version="1.0" encoding="UTF-8" standalone="no"?>
<!DOCTYPE svg PUBLIC "-//W3C//DTD SVG 1.1//EN"
 "http://www.w3.org/Graphics/SVG/1.1/DTD/svg11.dtd">
<!-- Generated by graphviz version 2.43.0 (0)
 -->
<!-- Title: hud_player Pages: 1 -->
<svg width="790pt" height="833pt"
 viewBox="0.00 0.00 790.00 833.06" xmlns="http://www.w3.org/2000/svg" xmlns:xlink="http://www.w3.org/1999/xlink">
<g id="graph0" class="graph" transform="scale(1 1) rotate(0) translate(4 829.06)">
<title>hud_player</title>
<!-- Node1 -->
<g id="Node000001" class="node">
<title>Node1</title>
<g id="a_Node000001"><a xlink:title=" ">
<polygon fill="#999999" stroke="#666666" points="782,-516.56 711,-516.56 711,-497.56 782,-497.56 782,-516.56"/>
<text text-anchor="middle" x="746.5" y="-504.56" font-family="Helvetica,sans-Serif" font-size="10.00">hud_player</text>
</a>
</g>
</g>
<!-- Node2 -->
<g id="Node000002" class="node">
<title>Node2</title>
<g id="a_Node000002"><a xlink:title=" ">
<polygon fill="white" stroke="#666666" points="203,-796.56 171,-796.56 171,-777.56 203,-777.56 203,-796.56"/>
<text text-anchor="middle" x="187" y="-784.56" font-family="Helvetica,sans-Serif" font-size="10.00">f32</text>
</a>
</g>
</g>
<!-- Node2&#45;&gt;Node1 -->
<g id="edge1_Node000001_Node000002" class="edge">
<title>Node2&#45;&gt;Node1</title>
<g id="a_edge1_Node000001_Node000002"><a xlink:title=" ">
<path fill="none" stroke="#9a32cd" stroke-dasharray="5,2" d="M213.1,-789.78C304.83,-799.16 620.25,-826.27 693,-764.06 731.68,-730.99 742.84,-559.78 745.05,-516.84"/>
<polygon fill="#9a32cd" stroke="#9a32cd" points="213.37,-786.29 203.06,-788.74 212.64,-793.25 213.37,-786.29"/>
</a>
</g>
<text text-anchor="middle" x="542.5" y="-817.06" font-family="Helvetica,sans-Serif" font-size="10.00" fill="grey"> rankScaling</text>
<text text-anchor="middle" x="542.5" y="-806.06" font-family="Helvetica,sans-Serif" font-size="10.00" fill="grey">unknownScaling</text>
</g>
<!-- Node3 -->
<g id="Node000003" class="node">
<title>Node3</title>
<g id="a_Node000003"><a xlink:title=" ">
<polygon fill="white" stroke="#666666" points="204.5,-654.56 169.5,-654.56 169.5,-635.56 204.5,-635.56 204.5,-654.56"/>
<text text-anchor="middle" x="187" y="-642.56" font-family="Helvetica,sans-Serif" font-size="10.00">u32</text>
</a>
</g>
</g>
<!-- Node3&#45;&gt;Node1 -->
<g id="edge2_Node000001_Node000003" class="edge">
<title>Node3&#45;&gt;Node1</title>
<g id="a_edge2_Node000001_Node000003"><a xlink:title=" ">
<path fill="none" stroke="#9a32cd" stroke-dasharray="5,2" d="M214.65,-644.56C316.04,-642.55 673.03,-634.53 693,-621.06 729.49,-596.45 741.08,-539.7 744.35,-516.85"/>
<polygon fill="#9a32cd" stroke="#9a32cd" points="214.54,-641.06 204.61,-644.75 214.68,-648.06 214.54,-641.06"/>
</a>
</g>
<text text-anchor="middle" x="542.5" y="-752.06" font-family="Helvetica,sans-Serif" font-size="10.00" fill="grey"> lap1CompletionTime</text>
<text text-anchor="middle" x="542.5" y="-741.06" font-family="Helvetica,sans-Serif" font-size="10.00" fill="grey">lap1Duration</text>
<text text-anchor="middle" x="542.5" y="-730.06" font-family="Helvetica,sans-Serif" font-size="10.00" fill="grey">lap2CompletionTime</text>
<text text-anchor="middle" x="542.5" y="-719.06" font-family="Helvetica,sans-Serif" font-size="10.00" fill="grey">lap2Duration</text>
<text text-anchor="middle" x="542.5" y="-708.06" font-family="Helvetica,sans-Serif" font-size="10.00" fill="grey">lap3CompletionTime</text>
<text text-anchor="middle" x="542.5" y="-697.06" font-family="Helvetica,sans-Serif" font-size="10.00" fill="grey">lap3Duration</text>
<text text-anchor="middle" x="542.5" y="-686.06" font-family="Helvetica,sans-Serif" font-size="10.00" fill="grey">lapCompletionTimes</text>
<text text-anchor="middle" x="542.5" y="-675.06" font-family="Helvetica,sans-Serif" font-size="10.00" fill="grey">lapDurations</text>
<text text-anchor="middle" x="542.5" y="-664.06" font-family="Helvetica,sans-Serif" font-size="10.00" fill="grey">someTimer</text>
<text text-anchor="middle" x="542.5" y="-653.06" font-family="Helvetica,sans-Serif" font-size="10.00" fill="grey">someTimer1</text>
<text text-anchor="middle" x="542.5" y="-642.06" font-family="Helvetica,sans-Serif" font-size="10.00" fill="grey">...</text>
</g>
<!-- Node4 -->
<g id="Node000004" class="node">
<title>Node4</title>
<g id="a_Node000004"><a xlink:title=" ">
<polygon fill="white" stroke="#666666" points="374,-617.56 0,-617.56 0,-598.56 374,-598.56 374,-617.56"/>
<text text-anchor="middle" x="187" y="-605.56" font-family="Helvetica,sans-Serif" font-size="10.00">anonymous:@337170162022006242332263240375304213042003165241</text>
</a>
</g>
</g>
<!-- Node4&#45;&gt;Node1 -->
<g id="edge3_Node000001_Node000004" class="edge">
<title>Node4&#45;&gt;Node1</title>
<g id="a_edge3_Node000001_Node000004"><a xlink:title=" ">
<path fill="none" stroke="#9a32cd" stroke-dasharray="5,2" d="M384.27,-607.05C514.34,-604.96 665.89,-599.22 693,-584.06 719.83,-569.06 735.75,-533.91 742.18,-516.78"/>
<polygon fill="#9a32cd" stroke="#9a32cd" points="384.09,-603.55 374.15,-607.21 384.2,-610.55 384.09,-603.55"/>
</a>
</g>
<text text-anchor="middle" x="542.5" y="-609.06" font-family="Helvetica,sans-Serif" font-size="10.00" fill="grey"> @337170162022006242332263240375304213042003165241</text>
</g>
<!-- Node5 -->
<g id="Node000005" class="node">
<title>Node5</title>
<g id="a_Node000005"><a xlink:title=" ">
<polygon fill="white" stroke="#666666" points="374,-580.56 0,-580.56 0,-561.56 374,-561.56 374,-580.56"/>
<text text-anchor="middle" x="187" y="-568.56" font-family="Helvetica,sans-Serif" font-size="10.00">anonymous:@140143121035104213177126227152022374373046224316</text>
</a>
</g>
</g>
<!-- Node5&#45;&gt;Node1 -->
<g id="edge4_Node000001_Node000005" class="edge">
<title>Node5&#45;&gt;Node1</title>
<g id="a_edge4_Node000001_Node000005"><a xlink:title=" ">
<path fill="none" stroke="#9a32cd" stroke-dasharray="5,2" d="M384.19,-569.84C513.51,-567.97 664.16,-563.35 693,-552.06 711.78,-544.71 728.52,-527.63 737.81,-516.75"/>
<polygon fill="#9a32cd" stroke="#9a32cd" points="384.08,-566.34 374.13,-569.98 384.18,-573.34 384.08,-566.34"/>
</a>
</g>
<text text-anchor="middle" x="542.5" y="-572.06" font-family="Helvetica,sans-Serif" font-size="10.00" fill="grey"> @140143121035104213177126227152022374373046224316</text>
</g>
<!-- Node6 -->
<g id="Node000006" class="node">
<title>Node6</title>
<g id="a_Node000006"><a xlink:title=" ">
<polygon fill="white" stroke="#666666" points="204,-516.56 170,-516.56 170,-497.56 204,-497.56 204,-516.56"/>
<text text-anchor="middle" x="187" y="-504.56" font-family="Helvetica,sans-Serif" font-size="10.00">s32</text>
</a>
</g>
</g>
<!-- Node6&#45;&gt;Node1 -->
<g id="edge5_Node000001_Node000006" class="edge">
<title>Node6&#45;&gt;Node1</title>
<g id="a_edge5_Node000001_Node000006"><a xlink:title=" ">
<path fill="none" stroke="#9a32cd" stroke-dasharray="5,2" d="M214.09,-507.06C305,-507.06 607.87,-507.06 710.87,-507.06"/>
<polygon fill="#9a32cd" stroke="#9a32cd" points="214.08,-503.56 204.08,-507.06 214.08,-510.56 214.08,-503.56"/>
</a>
</g>
<text text-anchor="middle" x="542.5" y="-543.06" font-family="Helvetica,sans-Serif" font-size="10.00" fill="grey"> posXInt</text>
<text text-anchor="middle" x="542.5" y="-532.06" font-family="Helvetica,sans-Serif" font-size="10.00" fill="grey">posYInt</text>
<text text-anchor="middle" x="542.5" y="-521.06" font-family="Helvetica,sans-Serif" font-size="10.00" fill="grey">posZInt</text>
<text text-anchor="middle" x="542.5" y="-510.06" font-family="Helvetica,sans-Serif" font-size="10.00" fill="grey">unk_38</text>
</g>
<!-- Node7 -->
<g id="Node000007" class="node">
<title>Node7</title>
<g id="a_Node000007"><a xlink:title=" ">
<polygon fill="white" stroke="#666666" points="204,-341.56 170,-341.56 170,-322.56 204,-322.56 204,-341.56"/>
<text text-anchor="middle" x="187" y="-329.56" font-family="Helvetica,sans-Serif" font-size="10.00">s16</text>
</a>
</g>
</g>
<!-- Node7&#45;&gt;Node1 -->
<g id="edge6_Node000001_Node000007" class="edge">
<title>Node7&#45;&gt;Node1</title>
<g id="a_edge6_Node000001_Node000007"><a xlink:title=" ">
<path fill="none" stroke="#9a32cd" stroke-dasharray="5,2" d="M214.37,-329.15C307.11,-319.47 616.78,-292.1 693,-349.06 741.85,-385.57 745.84,-469.23 745.73,-497.52"/>
<polygon fill="#9a32cd" stroke="#9a32cd" points="213.74,-325.7 204.16,-330.23 214.48,-332.66 213.74,-325.7"/>
</a>
</g>
<text text-anchor="middle" x="542.5" y="-495.06" font-family="Helvetica,sans-Serif" font-size="10.00" fill="grey"> blinkTimer</text>
<text text-anchor="middle" x="542.5" y="-484.06" font-family="Helvetica,sans-Serif" font-size="10.00" fill="grey">itemBoxX</text>
<text text-anchor="middle" x="542.5" y="-473.06" font-family="Helvetica,sans-Serif" font-size="10.00" fill="grey">itemBoxY</text>
<text text-anchor="start" x="488" y="-462.06" font-family="Helvetica,sans-Serif" font-size="10.00" fill="grey">lap1CompletionTime</text>
<text text-anchor="middle" x="542.5" y="-451.06" font-family="Helvetica,sans-Serif" font-size="10.00" fill="grey">X</text>
<text text-anchor="start" x="488" y="-440.06" font-family="Helvetica,sans-Serif" font-size="10.00" fill="grey">lap2CompletionTime</text>
<text text-anchor="middle" x="542.5" y="-429.06" font-family="Helvetica,sans-Serif" font-size="10.00" fill="grey">X</text>
<text text-anchor="start" x="488" y="-418.06" font-family="Helvetica,sans-Serif" font-size="10.00" fill="grey">lap3CompletionTime</text>
<text text-anchor="middle" x="542.5" y="-407.06" font-family="Helvetica,sans-Serif" font-size="10.00" fill="grey">X</text>
<text text-anchor="middle" x="542.5" y="-396.06" font-family="Helvetica,sans-Serif" font-size="10.00" fill="grey">lapAfterImage1X</text>
<text text-anchor="middle" x="542.5" y="-385.06" font-family="Helvetica,sans-Serif" font-size="10.00" fill="grey">lapAfterImage2X</text>
<text text-anchor="middle" x="542.5" y="-374.06" font-family="Helvetica,sans-Serif" font-size="10.00" fill="grey">lapCompletionTimeXs</text>
<text text-anchor="middle" x="542.5" y="-363.06" font-family="Helvetica,sans-Serif" font-size="10.00" fill="grey">lapX</text>
<text text-anchor="middle" x="542.5" y="-352.06" font-family="Helvetica,sans-Serif" font-size="10.00" fill="grey">...</text>
</g>
<!-- Node8 -->
<g id="Node000008" class="node">
<title>Node8</title>
<g id="a_Node000008"><a xlink:title=" ">
<polygon fill="white" stroke="#666666" points="374,-304.56 0,-304.56 0,-285.56 374,-285.56 374,-304.56"/>
<text text-anchor="middle" x="187" y="-292.56" font-family="Helvetica,sans-Serif" font-size="10.00">anonymous:@327114266103115306036324146120047201117243153010</text>
</a>
</g>
</g>
<!-- Node8&#45;&gt;Node1 -->
<g id="edge7_Node000001_Node000008" class="edge">
<title>Node8&#45;&gt;Node1</title>
<g id="a_edge7_Node000001_Node000008"><a xlink:title=" ">
<path fill="none" stroke="#9a32cd" stroke-dasharray="5,2" d="M377.47,-285.16C510.16,-280.08 668.06,-278.5 693,-298.06 725.38,-323.47 740.88,-459.56 744.6,-497.33"/>
<polygon fill="#9a32cd" stroke="#9a32cd" points="377.01,-281.67 367.15,-285.56 377.28,-288.67 377.01,-281.67"/>
</a>
</g>
<text text-anchor="middle" x="542.5" y="-301.06" font-family="Helvetica,sans-Serif" font-size="10.00" fill="grey"> @327114266103115306036324146120047201117243153010</text>
</g>
<!-- Node9 -->
<g id="Node000009" class="node">
<title>Node9</title>
<g id="a_Node000009"><a xlink:title=" ">
<polygon fill="white" stroke="#666666" points="201.5,-183.56 172.5,-183.56 172.5,-164.56 201.5,-164.56 201.5,-183.56"/>
<text text-anchor="middle" x="187" y="-171.56" font-family="Helvetica,sans-Serif" font-size="10.00">s8</text>
</a>
</g>
</g>
<!-- Node9&#45;&gt;Node1 -->
<g id="edge8_Node000001_Node000009" class="edge">
<title>Node9&#45;&gt;Node1</title>
<g id="a_edge8_Node000001_Node000009"><a xlink:title=" ">
<path fill="none" stroke="#9a32cd" stroke-dasharray="5,2" d="M211.68,-172.49C306.6,-166.44 656.27,-146.48 693,-178.06 742.89,-220.96 745.57,-447.44 745.55,-497.33"/>
<polygon fill="#9a32cd" stroke="#9a32cd" points="211.39,-169.01 201.64,-173.14 211.84,-175.99 211.39,-169.01"/>
</a>
</g>
<text text-anchor="middle" x="542.5" y="-269.06" font-family="Helvetica,sans-Serif" font-size="10.00" fill="grey"> alsoLapCount</text>
<text text-anchor="middle" x="542.5" y="-258.06" font-family="Helvetica,sans-Serif" font-size="10.00" fill="grey">blinkState</text>
<text text-anchor="middle" x="542.5" y="-247.06" font-family="Helvetica,sans-Serif" font-size="10.00" fill="grey">lapCount</text>
<text text-anchor="middle" x="542.5" y="-236.06" font-family="Helvetica,sans-Serif" font-size="10.00" fill="grey">raceCompleteBool</text>
<text text-anchor="middle" x="542.5" y="-225.06" font-family="Helvetica,sans-Serif" font-size="10.00" fill="grey">unk_74</text>
<text text-anchor="middle" x="542.5" y="-214.06" font-family="Helvetica,sans-Serif" font-size="10.00" fill="grey">unk_75</text>
<text text-anchor="middle" x="542.5" y="-203.06" font-family="Helvetica,sans-Serif" font-size="10.00" fill="grey">unk_77</text>
<text text-anchor="middle" x="542.5" y="-192.06" font-family="Helvetica,sans-Serif" font-size="10.00" fill="grey">unk_82</text>
<text text-anchor="middle" x="542.5" y="-181.06" font-family="Helvetica,sans-Serif" font-size="10.00" fill="grey">unk_83</text>
</g>
<!-- Node10 -->
<g id="Node000010" class="node">
<title>Node10</title>
<g id="a_Node000010"><a xlink:title=" ">
<polygon fill="white" stroke="#666666" points="201.5,-39.56 172.5,-39.56 172.5,-20.56 201.5,-20.56 201.5,-39.56"/>
<text text-anchor="middle" x="187" y="-27.56" font-family="Helvetica,sans-Serif" font-size="10.00">u8</text>
</a>
</g>
</g>
<!-- Node10&#45;&gt;Node1 -->
<g id="edge9_Node000001_Node000010" class="edge">
<title>Node10&#45;&gt;Node1</title>
<g id="a_edge9_Node000001_Node000010"><a xlink:title=" ">
<path fill="none" stroke="#9a32cd" stroke-dasharray="5,2" d="M211.7,-26.37C301.82,-12.93 621.66,29.42 693,-35.06 728.71,-67.34 742.95,-433.41 745.18,-497.51"/>
<polygon fill="#9a32cd" stroke="#9a32cd" points="211.02,-22.94 201.66,-27.9 212.07,-29.86 211.02,-22.94"/>
</a>
</g>
<text text-anchor="middle" x="542.5" y="-148.06" font-family="Helvetica,sans-Serif" font-size="10.00" fill="grey"> itemOverride</text>
<text text-anchor="middle" x="542.5" y="-137.06" font-family="Helvetica,sans-Serif" font-size="10.00" fill="grey">unk_78</text>
<text text-anchor="middle" x="542.5" y="-126.06" font-family="Helvetica,sans-Serif" font-size="10.00" fill="grey">unk_79</text>
<text text-anchor="middle" x="542.5" y="-115.06" font-family="Helvetica,sans-Serif" font-size="10.00" fill="grey">unk_7A</text>
<text text-anchor="middle" x="542.5" y="-104.06" font-family="Helvetica,sans-Serif" font-size="10.00" fill="grey">unk_7B</text>
<text text-anchor="middle" x="542.5" y="-93.06" font-family="Helvetica,sans-Serif" font-size="10.00" fill="grey">unk_7C</text>
<text text-anchor="middle" x="542.5" y="-82.06" font-family="Helvetica,sans-Serif" font-size="10.00" fill="grey">unk_7D</text>
<text text-anchor="middle" x="542.5" y="-71.06" font-family="Helvetica,sans-Serif" font-size="10.00" fill="grey">unk_7E</text>
<text text-anchor="middle" x="542.5" y="-60.06" font-family="Helvetica,sans-Serif" font-size="10.00" fill="grey">unk_7F</text>
<text text-anchor="middle" x="542.5" y="-49.06" font-family="Helvetica,sans-Serif" font-size="10.00" fill="grey">unk_80</text>
<text text-anchor="middle" x="542.5" y="-38.06" font-family="Helvetica,sans-Serif" font-size="10.00" fill="grey">...</text>
</g>
</g>
</svg>
