<?xml version="1.0" encoding="UTF-8" standalone="no"?>
<!DOCTYPE svg PUBLIC "-//W3C//DTD SVG 1.1//EN"
 "http://www.w3.org/Graphics/SVG/1.1/DTD/svg11.dtd">
<!-- Generated by graphviz version 2.43.0 (0)
 -->
<!-- Title: SynthesisReverb Pages: 1 -->
<svg width="742pt" height="360pt"
 viewBox="0.00 0.00 742.43 360.00" xmlns="http://www.w3.org/2000/svg" xmlns:xlink="http://www.w3.org/1999/xlink">
<g id="graph0" class="graph" transform="scale(1 1) rotate(0) translate(4 356)">
<title>SynthesisReverb</title>
<!-- Node1 -->
<g id="Node000001" class="node">
<title>Node1</title>
<g id="a_Node000001"><a xlink:title=" ">
<polygon fill="#999999" stroke="#666666" points="319.93,-19 221.93,-19 221.93,0 319.93,0 319.93,-19"/>
<text text-anchor="middle" x="270.93" y="-7" font-family="Helvetica,sans-Serif" font-size="10.00">SynthesisReverb</text>
</a>
</g>
</g>
<!-- Node2 -->
<g id="Node000002" class="node">
<title>Node2</title>
<g id="a_Node000002"><a xlink:title=" ">
<polygon fill="white" stroke="#666666" points="29.43,-180 0.43,-180 0.43,-161 29.43,-161 29.43,-180"/>
<text text-anchor="middle" x="14.93" y="-168" font-family="Helvetica,sans-Serif" font-size="10.00">u8</text>
</a>
</g>
</g>
<!-- Node2&#45;&gt;Node1 -->
<g id="edge1_Node000001_Node000002" class="edge">
<title>Node2&#45;&gt;Node1</title>
<g id="a_edge1_Node000001_Node000002"><a xlink:title=" ">
<path fill="none" stroke="#9a32cd" stroke-dasharray="5,2" d="M8.82,-151.14C0.62,-122.69 -9.82,-67.98 18.93,-37 32.45,-22.43 152.51,-15.22 221.92,-12.25"/>
<polygon fill="#9a32cd" stroke="#9a32cd" points="5.56,-152.46 11.87,-160.97 12.25,-150.38 5.56,-152.46"/>
</a>
</g>
<text text-anchor="middle" x="65.93" y="-84" font-family="Helvetica,sans-Serif" font-size="10.00" fill="grey"> curFrame</text>
<text text-anchor="middle" x="65.93" y="-73" font-family="Helvetica,sans-Serif" font-size="10.00" fill="grey">downsampleRate</text>
<text text-anchor="middle" x="65.93" y="-62" font-family="Helvetica,sans-Serif" font-size="10.00" fill="grey">framesLeftToIgnore</text>
<text text-anchor="middle" x="65.93" y="-51" font-family="Helvetica,sans-Serif" font-size="10.00" fill="grey">resampleFlags</text>
<text text-anchor="middle" x="65.93" y="-40" font-family="Helvetica,sans-Serif" font-size="10.00" fill="grey">useReverb</text>
</g>
<!-- Node3 -->
<g id="Node000003" class="node">
<title>Node3</title>
<g id="a_Node000003"><a xlink:title=" ">
<polygon fill="white" stroke="#666666" points="149.43,-180 114.43,-180 114.43,-161 149.43,-161 149.43,-180"/>
<text text-anchor="middle" x="131.93" y="-168" font-family="Helvetica,sans-Serif" font-size="10.00">u16</text>
</a>
</g>
</g>
<!-- Node3&#45;&gt;Node1 -->
<g id="edge2_Node000001_Node000003" class="edge">
<title>Node3&#45;&gt;Node1</title>
<g id="a_edge2_Node000001_Node000003"><a xlink:title=" ">
<path fill="none" stroke="#9a32cd" stroke-dasharray="5,2" d="M125.52,-151.1C117.03,-123.01 106.03,-69.31 132.93,-37 144.21,-23.45 186.72,-16.76 221.62,-13.49"/>
<polygon fill="#9a32cd" stroke="#9a32cd" points="122.26,-152.39 128.68,-160.82 128.92,-150.23 122.26,-152.39"/>
</a>
</g>
<text text-anchor="middle" x="168.93" y="-73" font-family="Helvetica,sans-Serif" font-size="10.00" fill="grey"> resampleRate</text>
<text text-anchor="middle" x="168.93" y="-62" font-family="Helvetica,sans-Serif" font-size="10.00" fill="grey">reverbGain</text>
<text text-anchor="middle" x="168.93" y="-51" font-family="Helvetica,sans-Serif" font-size="10.00" fill="grey">windowSize</text>
</g>
<!-- Node4 -->
<g id="Node000004" class="node">
<title>Node4</title>
<g id="a_Node000004"><a xlink:title=" ">
<polygon fill="white" stroke="#666666" points="252.93,-352 218.93,-352 218.93,-333 252.93,-333 252.93,-352"/>
<text text-anchor="middle" x="235.93" y="-340" font-family="Helvetica,sans-Serif" font-size="10.00">s32</text>
</a>
</g>
</g>
<!-- Node4&#45;&gt;Node1 -->
<g id="edge3_Node000001_Node000004" class="edge">
<title>Node4&#45;&gt;Node1</title>
<g id="a_edge3_Node000001_Node000004"><a xlink:title=" ">
<path fill="none" stroke="#9a32cd" stroke-dasharray="5,2" d="M232.53,-322.95C225.9,-283.36 213.18,-187.84 228.93,-110 236.11,-74.53 256.34,-35.99 265.86,-19.17"/>
<polygon fill="#9a32cd" stroke="#9a32cd" points="229.12,-323.73 234.29,-332.97 236.01,-322.52 229.12,-323.73"/>
</a>
</g>
<text text-anchor="middle" x="276.43" y="-179" font-family="Helvetica,sans-Serif" font-size="10.00" fill="grey"> bufSizePerChannel</text>
<text text-anchor="middle" x="276.43" y="-168" font-family="Helvetica,sans-Serif" font-size="10.00" fill="grey">nextRingBufferPos</text>
<text text-anchor="middle" x="276.43" y="-157" font-family="Helvetica,sans-Serif" font-size="10.00" fill="grey">unkC</text>
</g>
<!-- Node7 -->
<g id="Node000007" class="node">
<title>Node7</title>
<g id="a_Node000007"><a xlink:href="structReverbRingBufferItem.html" target="_top" xlink:title=" ">
<polygon fill="white" stroke="#666666" points="457.43,-180 332.43,-180 332.43,-161 457.43,-161 457.43,-180"/>
<text text-anchor="middle" x="394.93" y="-168" font-family="Helvetica,sans-Serif" font-size="10.00">ReverbRingBufferItem</text>
</a>
</g>
</g>
<!-- Node4&#45;&gt;Node7 -->
<g id="edge8_Node000007_Node000004" class="edge">
<title>Node4&#45;&gt;Node7</title>
<g id="a_edge8_Node000007_Node000004"><a xlink:title=" ">
<path fill="none" stroke="#9a32cd" stroke-dasharray="5,2" d="M236.43,-322.72C237.98,-302.01 243.59,-268.98 262.93,-249 280.82,-230.52 295.2,-243.04 317.93,-231 344.8,-216.77 371.95,-193.13 385.71,-180.36"/>
<polygon fill="#9a32cd" stroke="#9a32cd" points="232.93,-322.63 235.92,-332.8 239.92,-322.99 232.93,-322.63"/>
</a>
</g>
<text text-anchor="middle" x="284.43" y="-279.5" font-family="Helvetica,sans-Serif" font-size="10.00" fill="grey"> startPos</text>
</g>
<!-- Node5 -->
<g id="Node000005" class="node">
<title>Node5</title>
<g id="a_Node000005"><a xlink:title=" ">
<polygon fill="white" stroke="#666666" points="422.93,-352 388.93,-352 388.93,-333 422.93,-333 422.93,-352"/>
<text text-anchor="middle" x="405.93" y="-340" font-family="Helvetica,sans-Serif" font-size="10.00">s16</text>
</a>
</g>
</g>
<!-- Node5&#45;&gt;Node1 -->
<g id="edge4_Node000001_Node000005" class="edge">
<title>Node5&#45;&gt;Node1</title>
<g id="a_edge4_Node000001_Node000005"><a xlink:title=" ">
<path fill="none" stroke="#9a32cd" stroke-dasharray="5,2" d="M433.27,-339.35C449.71,-336.48 469.43,-329.92 479.93,-315 500.44,-285.88 490.24,-151.25 466.93,-110 436.42,-56.01 365.67,-30.47 318.06,-19.02"/>
<polygon fill="#9a32cd" stroke="#9a32cd" points="432.5,-335.92 423.06,-340.75 433.45,-342.86 432.5,-335.92"/>
</a>
</g>
<text text-anchor="middle" x="538.43" y="-223" font-family="Helvetica,sans-Serif" font-size="10.00" fill="grey"> left</text>
<text text-anchor="middle" x="538.43" y="-212" font-family="Helvetica,sans-Serif" font-size="10.00" fill="grey">resampleStateLeft</text>
<text text-anchor="middle" x="538.43" y="-201" font-family="Helvetica,sans-Serif" font-size="10.00" fill="grey">resampleStateRight</text>
<text text-anchor="middle" x="538.43" y="-190" font-family="Helvetica,sans-Serif" font-size="10.00" fill="grey">right</text>
<text text-anchor="middle" x="538.43" y="-179" font-family="Helvetica,sans-Serif" font-size="10.00" fill="grey">unk100</text>
<text text-anchor="middle" x="538.43" y="-168" font-family="Helvetica,sans-Serif" font-size="10.00" fill="grey">unk104</text>
<text text-anchor="middle" x="538.43" y="-157" font-family="Helvetica,sans-Serif" font-size="10.00" fill="grey">unk24</text>
<text text-anchor="middle" x="538.43" y="-146" font-family="Helvetica,sans-Serif" font-size="10.00" fill="grey">unk28</text>
<text text-anchor="middle" x="538.43" y="-135" font-family="Helvetica,sans-Serif" font-size="10.00" fill="grey">unkF8</text>
<text text-anchor="middle" x="538.43" y="-124" font-family="Helvetica,sans-Serif" font-size="10.00" fill="grey">unkFC</text>
<text text-anchor="middle" x="538.43" y="-113" font-family="Helvetica,sans-Serif" font-size="10.00" fill="grey">...</text>
</g>
<!-- Node5&#45;&gt;Node7 -->
<g id="edge7_Node000007_Node000005" class="edge">
<title>Node5&#45;&gt;Node7</title>
<g id="a_edge7_Node000007_Node000005"><a xlink:title=" ">
<path fill="none" stroke="#9a32cd" stroke-dasharray="5,2" d="M378.67,-341.12C358.87,-339.23 333.3,-333.11 319.93,-315 302.51,-291.4 308.93,-276.19 319.93,-249 332.43,-218.11 363.81,-192.71 381.77,-180.1"/>
<polygon fill="#9a32cd" stroke="#9a32cd" points="378.47,-344.61 388.68,-341.77 378.93,-337.63 378.47,-344.61"/>
</a>
</g>
<text text-anchor="middle" x="399.93" y="-307" font-family="Helvetica,sans-Serif" font-size="10.00" fill="grey"> chunkLen</text>
<text text-anchor="middle" x="399.93" y="-296" font-family="Helvetica,sans-Serif" font-size="10.00" fill="grey">lengthA</text>
<text text-anchor="middle" x="399.93" y="-285" font-family="Helvetica,sans-Serif" font-size="10.00" fill="grey">lengthB</text>
<text text-anchor="middle" x="399.93" y="-274" font-family="Helvetica,sans-Serif" font-size="10.00" fill="grey">numSamplesAfterDownsampling</text>
<text text-anchor="middle" x="399.93" y="-263" font-family="Helvetica,sans-Serif" font-size="10.00" fill="grey">toDownsampleLeft</text>
<text text-anchor="middle" x="399.93" y="-252" font-family="Helvetica,sans-Serif" font-size="10.00" fill="grey">toDownsampleRight</text>
</g>
<!-- Node6 -->
<g id="Node000006" class="node">
<title>Node6</title>
<g id="a_Node000006"><a xlink:title=" ">
<polygon fill="white" stroke="#666666" points="734.43,-180 609.43,-180 609.43,-161 734.43,-161 734.43,-180"/>
<text text-anchor="middle" x="671.93" y="-168" font-family="Helvetica,sans-Serif" font-size="10.00">anonymous:ringBuffer</text>
</a>
</g>
</g>
<!-- Node6&#45;&gt;Node1 -->
<g id="edge5_Node000001_Node000006" class="edge">
<title>Node6&#45;&gt;Node1</title>
<g id="a_edge5_Node000001_Node000006"><a xlink:title=" ">
<path fill="none" stroke="#9a32cd" stroke-dasharray="5,2" d="M657.74,-153.06C631.5,-123.94 572.19,-63.82 507.93,-37 475.07,-23.28 379.38,-16.04 320.12,-12.76"/>
<polygon fill="#9a32cd" stroke="#9a32cd" points="655.27,-155.55 664.52,-160.72 660.51,-150.91 655.27,-155.55"/>
</a>
</g>
<text text-anchor="middle" x="615.93" y="-62" font-family="Helvetica,sans-Serif" font-size="10.00" fill="grey"> ringBuffer</text>
</g>
<!-- Node7&#45;&gt;Node1 -->
<g id="edge6_Node000001_Node000007" class="edge">
<title>Node7&#45;&gt;Node1</title>
<g id="a_edge6_Node000001_Node000007"><a xlink:title=" ">
<path fill="none" stroke="#9a32cd" stroke-dasharray="5,2" d="M382.09,-153.03C355.97,-119.53 297.44,-44.49 277.63,-19.09"/>
<polygon fill="#9a32cd" stroke="#9a32cd" points="379.36,-155.22 388.26,-160.95 384.87,-150.91 379.36,-155.22"/>
</a>
</g>
<text text-anchor="middle" x="348.43" y="-62" font-family="Helvetica,sans-Serif" font-size="10.00" fill="grey"> items</text>
</g>
</g>
</svg>
