<?xml version="1.0" encoding="UTF-8" standalone="no"?>
<!DOCTYPE svg PUBLIC "-//W3C//DTD SVG 1.1//EN"
 "http://www.w3.org/Graphics/SVG/1.1/DTD/svg11.dtd">
<!-- Generated by graphviz version 2.43.0 (0)
 -->
<!-- Title: ma_resource_manager_data_buffer_node Pages: 1 -->
<svg width="1191pt" height="467pt"
 viewBox="0.00 0.00 1191.00 467.30" xmlns="http://www.w3.org/2000/svg" xmlns:xlink="http://www.w3.org/1999/xlink">
<g id="graph0" class="graph" transform="scale(1 1) rotate(0) translate(4 463.3)">
<title>ma_resource_manager_data_buffer_node</title>
<!-- Node1 -->
<g id="Node000001" class="node">
<title>Node1</title>
<g id="a_Node000001"><a xlink:title=" ">
<polygon fill="#999999" stroke="#666666" points="1183,-249.3 1055,-249.3 1055,-219.3 1183,-219.3 1183,-249.3"/>
<text text-anchor="start" x="1063" y="-237.3" font-family="Helvetica,sans-Serif" font-size="10.00">ma_resource_manager</text>
<text text-anchor="middle" x="1119" y="-226.3" font-family="Helvetica,sans-Serif" font-size="10.00">_data_buffer_node</text>
</a>
</g>
</g>
<!-- Node1&#45;&gt;Node1 -->
<g id="edge19_Node000001_Node000001" class="edge">
<title>Node1&#45;&gt;Node1</title>
<g id="a_edge19_Node000001_Node000001"><a xlink:title=" ">
<path fill="none" stroke="#9a32cd" stroke-dasharray="5,2" d="M1089.94,-259.9C1093.91,-264.27 1103.6,-267.3 1119,-267.3 1144.94,-267.3 1154.66,-258.7 1148.18,-249.57"/>
<polygon fill="#9a32cd" stroke="#9a32cd" points="1093.44,-259.53 1089.82,-249.57 1086.44,-259.61 1093.44,-259.53"/>
</a>
</g>
<text text-anchor="middle" x="1119" y="-292.3" font-family="Helvetica,sans-Serif" font-size="10.00" fill="grey"> pChildHi</text>
<text text-anchor="middle" x="1119" y="-281.3" font-family="Helvetica,sans-Serif" font-size="10.00" fill="grey">pChildLo</text>
<text text-anchor="middle" x="1119" y="-270.3" font-family="Helvetica,sans-Serif" font-size="10.00" fill="grey">pParent</text>
</g>
<!-- Node2 -->
<g id="Node000002" class="node">
<title>Node2</title>
<g id="a_Node000002"><a xlink:title=" ">
<polygon fill="white" stroke="#666666" points="238,-289.8 209,-289.8 209,-270.8 238,-270.8 238,-289.8"/>
<text text-anchor="middle" x="223.5" y="-277.8" font-family="Helvetica,sans-Serif" font-size="10.00">int</text>
</a>
</g>
</g>
<!-- Node2&#45;&gt;Node1 -->
<g id="edge1_Node000001_Node000002" class="edge">
<title>Node2&#45;&gt;Node1</title>
<g id="a_edge1_Node000001_Node000002"><a xlink:title=" ">
<path fill="none" stroke="#9a32cd" stroke-dasharray="5,2" d="M242.4,-297.12C277.76,-329.04 360.48,-397.44 445,-422.3 555.44,-454.78 591.79,-445.03 704,-419.3 860.92,-383.31 1031.32,-286.77 1093.53,-249.38"/>
<polygon fill="#9a32cd" stroke="#9a32cd" points="244.57,-294.36 234.84,-290.18 239.85,-299.52 244.57,-294.36"/>
</a>
</g>
<text text-anchor="middle" x="664" y="-451.3" font-family="Helvetica,sans-Serif" font-size="10.00" fill="grey"> hashedName32</text>
<text text-anchor="middle" x="664" y="-440.3" font-family="Helvetica,sans-Serif" font-size="10.00" fill="grey">refCount</text>
</g>
<!-- Node4 -->
<g id="Node000004" class="node">
<title>Node4</title>
<g id="a_Node000004"><a xlink:href="structma__resource__manager__data__supply.html" target="_top" xlink:title=" ">
<polygon fill="white" stroke="#666666" points="850,-249.3 722,-249.3 722,-219.3 850,-219.3 850,-249.3"/>
<text text-anchor="start" x="730" y="-237.3" font-family="Helvetica,sans-Serif" font-size="10.00">ma_resource_manager</text>
<text text-anchor="middle" x="786" y="-226.3" font-family="Helvetica,sans-Serif" font-size="10.00">_data_supply</text>
</a>
</g>
</g>
<!-- Node2&#45;&gt;Node4 -->
<g id="edge9_Node000004_Node000002" class="edge">
<title>Node2&#45;&gt;Node4</title>
<g id="a_edge9_Node000004_Node000002"><a xlink:title=" ">
<path fill="none" stroke="#9a32cd" stroke-dasharray="5,2" d="M248.28,-279.59C318.31,-277.32 529.82,-269.11 704,-248.3 709.81,-247.6 715.84,-246.77 721.86,-245.87"/>
<polygon fill="#9a32cd" stroke="#9a32cd" points="248.17,-276.09 238.28,-279.91 248.39,-283.09 248.17,-276.09"/>
</a>
</g>
<text text-anchor="middle" x="525.5" y="-284.3" font-family="Helvetica,sans-Serif" font-size="10.00" fill="grey"> channels</text>
<text text-anchor="middle" x="525.5" y="-273.3" font-family="Helvetica,sans-Serif" font-size="10.00" fill="grey">sampleRate</text>
</g>
<!-- Node11 -->
<g id="Node000011" class="node">
<title>Node11</title>
<g id="a_Node000011"><a xlink:href="structma__paged__audio__buffer__data.html" target="_top" xlink:title=" ">
<polygon fill="white" stroke="#666666" points="606,-94.8 445,-94.8 445,-75.8 606,-75.8 606,-94.8"/>
<text text-anchor="middle" x="525.5" y="-82.8" font-family="Helvetica,sans-Serif" font-size="10.00">ma_paged_audio_buffer_data</text>
</a>
</g>
</g>
<!-- Node2&#45;&gt;Node11 -->
<g id="edge13_Node000011_Node000002" class="edge">
<title>Node2&#45;&gt;Node11</title>
<g id="a_edge13_Node000011_Node000002"><a xlink:title=" ">
<path fill="none" stroke="#9a32cd" stroke-dasharray="5,2" d="M247.92,-274.14C267.85,-268.95 297.25,-261.41 323,-255.3 369.06,-244.36 394.87,-267.07 427,-232.3 466.28,-189.78 405.82,-145.91 445,-103.3 448.06,-99.96 451.61,-97.18 455.46,-94.87"/>
<polygon fill="#9a32cd" stroke="#9a32cd" points="246.96,-270.77 238.17,-276.69 248.73,-277.54 246.96,-270.77"/>
</a>
</g>
<text text-anchor="middle" x="375" y="-258.3" font-family="Helvetica,sans-Serif" font-size="10.00" fill="grey"> channels</text>
</g>
<!-- Node3 -->
<g id="Node000003" class="node">
<title>Node3</title>
<g id="a_Node000003"><a xlink:title=" ">
<polygon fill="white" stroke="#666666" points="820,-200.8 752,-200.8 752,-181.8 820,-181.8 820,-200.8"/>
<text text-anchor="middle" x="786" y="-188.8" font-family="Helvetica,sans-Serif" font-size="10.00">ma_uint32</text>
</a>
</g>
</g>
<!-- Node3&#45;&gt;Node1 -->
<g id="edge2_Node000001_Node000003" class="edge">
<title>Node3&#45;&gt;Node1</title>
<g id="a_edge2_Node000001_Node000003"><a xlink:title=" ">
<path fill="none" stroke="#9a32cd" stroke-dasharray="5,2" d="M830.38,-195.21C880.33,-199.93 964.81,-208.58 1037,-219.3 1042.8,-220.16 1048.82,-221.13 1054.84,-222.15"/>
<polygon fill="#9a32cd" stroke="#9a32cd" points="830.54,-191.71 820.26,-194.26 829.89,-198.68 830.54,-191.71"/>
</a>
</g>
<text text-anchor="middle" x="952.5" y="-222.3" font-family="Helvetica,sans-Serif" font-size="10.00" fill="grey"> isDataOwnedByResourceManager</text>
</g>
<!-- Node4&#45;&gt;Node1 -->
<g id="edge3_Node000001_Node000004" class="edge">
<title>Node4&#45;&gt;Node1</title>
<g id="a_edge3_Node000001_Node000004"><a xlink:title=" ">
<path fill="none" stroke="#9a32cd" stroke-dasharray="5,2" d="M860.29,-234.3C918.63,-234.3 999.43,-234.3 1054.92,-234.3"/>
<polygon fill="#9a32cd" stroke="#9a32cd" points="860.04,-230.8 850.04,-234.3 860.04,-237.8 860.04,-230.8"/>
</a>
</g>
<text text-anchor="middle" x="952.5" y="-237.3" font-family="Helvetica,sans-Serif" font-size="10.00" fill="grey"> data</text>
</g>
<!-- Node5 -->
<g id="Node000005" class="node">
<title>Node5</title>
<g id="a_Node000005"><a xlink:title=" ">
<polygon fill="white" stroke="#666666" points="563,-205.8 488,-205.8 488,-186.8 563,-186.8 563,-205.8"/>
<text text-anchor="middle" x="525.5" y="-193.8" font-family="Helvetica,sans-Serif" font-size="10.00">const void *</text>
</a>
</g>
</g>
<!-- Node5&#45;&gt;Node4 -->
<g id="edge4_Node000004_Node000005" class="edge">
<title>Node5&#45;&gt;Node4</title>
<g id="a_edge4_Node000004_Node000005"><a xlink:title=" ">
<path fill="none" stroke="#9a32cd" stroke-dasharray="5,2" d="M573.39,-196.85C609.4,-197.97 660.2,-201.04 704,-209.3 716.73,-211.7 730.28,-215.4 742.58,-219.23"/>
<polygon fill="#9a32cd" stroke="#9a32cd" points="573.28,-193.34 563.19,-196.57 573.09,-200.34 573.28,-193.34"/>
</a>
</g>
<text text-anchor="middle" x="664" y="-212.3" font-family="Helvetica,sans-Serif" font-size="10.00" fill="grey"> pData</text>
</g>
<!-- Node6 -->
<g id="Node000006" class="node">
<title>Node6</title>
<g id="a_Node000006"><a xlink:title=" ">
<polygon fill="white" stroke="#666666" points="548,-168.8 503,-168.8 503,-149.8 548,-149.8 548,-168.8"/>
<text text-anchor="middle" x="525.5" y="-156.8" font-family="Helvetica,sans-Serif" font-size="10.00">size_t</text>
</a>
</g>
</g>
<!-- Node6&#45;&gt;Node4 -->
<g id="edge5_Node000004_Node000006" class="edge">
<title>Node6&#45;&gt;Node4</title>
<g id="a_edge5_Node000004_Node000006"><a xlink:title=" ">
<path fill="none" stroke="#9a32cd" stroke-dasharray="5,2" d="M558.5,-156.94C596.02,-155.69 658.8,-158.43 704,-185.3 715.46,-192.11 711.41,-201.2 722,-209.3 726.96,-213.09 732.56,-216.38 738.33,-219.21"/>
<polygon fill="#9a32cd" stroke="#9a32cd" points="558,-153.46 548.17,-157.41 558.32,-160.45 558,-153.46"/>
</a>
</g>
<text text-anchor="middle" x="664" y="-188.3" font-family="Helvetica,sans-Serif" font-size="10.00" fill="grey"> sizeInBytes</text>
</g>
<!-- Node7 -->
<g id="Node000007" class="node">
<title>Node7</title>
<g id="a_Node000007"><a xlink:title=" ">
<polygon fill="white" stroke="#666666" points="584.5,-131.8 466.5,-131.8 466.5,-112.8 584.5,-112.8 584.5,-131.8"/>
<text text-anchor="middle" x="525.5" y="-119.8" font-family="Helvetica,sans-Serif" font-size="10.00">anonymous:encoded</text>
</a>
</g>
</g>
<!-- Node7&#45;&gt;Node4 -->
<g id="edge6_Node000004_Node000007" class="edge">
<title>Node7&#45;&gt;Node4</title>
<g id="a_edge6_Node000004_Node000007"><a xlink:title=" ">
<path fill="none" stroke="#9a32cd" stroke-dasharray="5,2" d="M594.69,-114.26C631.13,-113.75 674.45,-119.76 704,-145.3 726.36,-164.62 702.22,-187.35 722,-209.3 725.47,-213.14 729.6,-216.41 734.08,-219.17"/>
<polygon fill="#9a32cd" stroke="#9a32cd" points="594.5,-110.76 584.61,-114.56 594.71,-117.76 594.5,-110.76"/>
</a>
</g>
<text text-anchor="middle" x="664" y="-148.3" font-family="Helvetica,sans-Serif" font-size="10.00" fill="grey"> encoded</text>
</g>
<!-- Node8 -->
<g id="Node000008" class="node">
<title>Node8</title>
<g id="a_Node000008"><a xlink:title=" ">
<polygon fill="white" stroke="#666666" points="38,-189.8 0,-189.8 0,-170.8 38,-170.8 38,-189.8"/>
<text text-anchor="middle" x="19" y="-177.8" font-family="Helvetica,sans-Serif" font-size="10.00">long</text>
</a>
</g>
</g>
<!-- Node8&#45;&gt;Node4 -->
<g id="edge7_Node000004_Node000008" class="edge">
<title>Node8&#45;&gt;Node4</title>
<g id="a_edge7_Node000004_Node000008"><a xlink:title=" ">
<path fill="none" stroke="#9a32cd" stroke-dasharray="5,2" d="M48.21,-185.31C50.84,-185.68 53.46,-186.02 56,-186.3 220.14,-204.34 266.45,-167.68 427,-206.3 435.51,-208.35 436.49,-212.23 445,-214.3 539.52,-237.28 652.95,-238.98 721.97,-237.27"/>
<polygon fill="#9a32cd" stroke="#9a32cd" points="48.68,-181.84 38.26,-183.75 47.6,-188.75 48.68,-181.84"/>
</a>
</g>
<text text-anchor="middle" x="375" y="-220.3" font-family="Helvetica,sans-Serif" font-size="10.00" fill="grey"> decodedFrameCount</text>
<text text-anchor="middle" x="375" y="-209.3" font-family="Helvetica,sans-Serif" font-size="10.00" fill="grey">totalFrameCount</text>
</g>
<!-- Node12 -->
<g id="Node000012" class="node">
<title>Node12</title>
<g id="a_Node000012"><a xlink:href="structma__paged__audio__buffer__page.html" target="_top" xlink:title=" ">
<polygon fill="white" stroke="#666666" points="305,-141.8 142,-141.8 142,-122.8 305,-122.8 305,-141.8"/>
<text text-anchor="middle" x="223.5" y="-129.8" font-family="Helvetica,sans-Serif" font-size="10.00">ma_paged_audio_buffer_page</text>
</a>
</g>
</g>
<!-- Node8&#45;&gt;Node12 -->
<g id="edge15_Node000012_Node000008" class="edge">
<title>Node8&#45;&gt;Node12</title>
<g id="a_edge15_Node000012_Node000008"><a xlink:title=" ">
<path fill="none" stroke="#9a32cd" stroke-dasharray="5,2" d="M48.31,-173.59C83.16,-165.33 142.59,-151.24 182.2,-141.85"/>
<polygon fill="#9a32cd" stroke="#9a32cd" points="47.25,-170.24 38.33,-175.95 48.87,-177.05 47.25,-170.24"/>
</a>
</g>
<text text-anchor="middle" x="90" y="-174.3" font-family="Helvetica,sans-Serif" font-size="10.00" fill="grey"> sizeInFrames</text>
</g>
<!-- Node9 -->
<g id="Node000009" class="node">
<title>Node9</title>
<g id="a_Node000009"><a xlink:title=" ">
<polygon fill="white" stroke="#666666" points="259,-73.8 188,-73.8 188,-54.8 259,-54.8 259,-73.8"/>
<text text-anchor="middle" x="223.5" y="-61.8" font-family="Helvetica,sans-Serif" font-size="10.00">ma_format</text>
</a>
</g>
</g>
<!-- Node9&#45;&gt;Node4 -->
<g id="edge8_Node000004_Node000009" class="edge">
<title>Node9&#45;&gt;Node4</title>
<g id="a_edge8_Node000004_Node000009"><a xlink:title=" ">
<path fill="none" stroke="#9a32cd" stroke-dasharray="5,2" d="M257.45,-51.19C344.68,-18.9 583.13,53.28 704,-69.3 748.05,-113.97 683.51,-159.76 722,-209.3 725.03,-213.2 728.76,-216.5 732.89,-219.28"/>
<polygon fill="#9a32cd" stroke="#9a32cd" points="256.18,-47.93 248.06,-54.73 258.65,-54.48 256.18,-47.93"/>
</a>
</g>
<text text-anchor="middle" x="525.5" y="-15.3" font-family="Helvetica,sans-Serif" font-size="10.00" fill="grey"> format</text>
</g>
<!-- Node9&#45;&gt;Node11 -->
<g id="edge12_Node000011_Node000009" class="edge">
<title>Node9&#45;&gt;Node11</title>
<g id="a_edge12_Node000011_Node000009"><a xlink:title=" ">
<path fill="none" stroke="#9a32cd" stroke-dasharray="5,2" d="M269.22,-67.43C315.5,-70.67 388.72,-75.79 444.91,-79.73"/>
<polygon fill="#9a32cd" stroke="#9a32cd" points="269.43,-63.93 259.21,-66.73 268.94,-70.92 269.43,-63.93"/>
</a>
</g>
<text text-anchor="middle" x="375" y="-81.3" font-family="Helvetica,sans-Serif" font-size="10.00" fill="grey"> format</text>
</g>
<!-- Node10 -->
<g id="Node000010" class="node">
<title>Node10</title>
<g id="a_Node000010"><a xlink:title=" ">
<polygon fill="white" stroke="#666666" points="584.5,-413.8 466.5,-413.8 466.5,-394.8 584.5,-394.8 584.5,-413.8"/>
<text text-anchor="middle" x="525.5" y="-401.8" font-family="Helvetica,sans-Serif" font-size="10.00">anonymous:decoded</text>
</a>
</g>
</g>
<!-- Node10&#45;&gt;Node4 -->
<g id="edge10_Node000004_Node000010" class="edge">
<title>Node10&#45;&gt;Node4</title>
<g id="a_edge10_Node000004_Node000010"><a xlink:title=" ">
<path fill="none" stroke="#9a32cd" stroke-dasharray="5,2" d="M594.99,-407.13C630.31,-405.41 672.46,-398.08 704,-376.3 749.3,-345.01 772.46,-279.59 781.02,-249.74"/>
<polygon fill="#9a32cd" stroke="#9a32cd" points="594.62,-403.64 584.75,-407.49 594.87,-410.64 594.62,-403.64"/>
</a>
</g>
<text text-anchor="middle" x="664" y="-407.3" font-family="Helvetica,sans-Serif" font-size="10.00" fill="grey"> decoded</text>
</g>
<!-- Node11&#45;&gt;Node4 -->
<g id="edge11_Node000004_Node000011" class="edge">
<title>Node11&#45;&gt;Node4</title>
<g id="a_edge11_Node000004_Node000011"><a xlink:title=" ">
<path fill="none" stroke="#9a32cd" stroke-dasharray="5,2" d="M579.96,-74.41C619.28,-69.73 671.34,-71.01 704,-101.3 739.68,-134.39 691.44,-171.43 722,-209.3 725.1,-213.14 728.89,-216.4 733.04,-219.16"/>
<polygon fill="#9a32cd" stroke="#9a32cd" points="579.45,-70.94 570.01,-75.75 580.39,-77.88 579.45,-70.94"/>
</a>
</g>
<text text-anchor="middle" x="664" y="-104.3" font-family="Helvetica,sans-Serif" font-size="10.00" fill="grey"> data</text>
</g>
<!-- Node12&#45;&gt;Node11 -->
<g id="edge14_Node000011_Node000012" class="edge">
<title>Node12&#45;&gt;Node11</title>
<g id="a_edge14_Node000011_Node000012"><a xlink:title=" ">
<path fill="none" stroke="#9a32cd" stroke-dasharray="5,2" d="M295.2,-121.22C346.39,-113.2 414.86,-102.47 463.62,-94.84"/>
<polygon fill="#9a32cd" stroke="#9a32cd" points="294.55,-117.78 285.21,-122.79 295.63,-124.7 294.55,-117.78"/>
</a>
</g>
<text text-anchor="middle" x="375" y="-119.3" font-family="Helvetica,sans-Serif" font-size="10.00" fill="grey"> head</text>
</g>
<!-- Node13 -->
<g id="Node000013" class="node">
<title>Node13</title>
<g id="a_Node000013"><a xlink:title=" ">
<polygon fill="white" stroke="#666666" points="38,-141.8 0,-141.8 0,-122.8 38,-122.8 38,-141.8"/>
<text text-anchor="middle" x="19" y="-129.8" font-family="Helvetica,sans-Serif" font-size="10.00">char</text>
</a>
</g>
</g>
<!-- Node13&#45;&gt;Node12 -->
<g id="edge16_Node000012_Node000013" class="edge">
<title>Node13&#45;&gt;Node12</title>
<g id="a_edge16_Node000012_Node000013"><a xlink:title=" ">
<path fill="none" stroke="#9a32cd" stroke-dasharray="5,2" d="M48.57,-132.3C72.76,-132.3 108.66,-132.3 141.58,-132.3"/>
<polygon fill="#9a32cd" stroke="#9a32cd" points="48.33,-128.8 38.33,-132.3 48.33,-135.8 48.33,-128.8"/>
</a>
</g>
<text text-anchor="middle" x="90" y="-135.3" font-family="Helvetica,sans-Serif" font-size="10.00" fill="grey"> pAudioData</text>
</g>
<!-- Node14 -->
<g id="Node000014" class="node">
<title>Node14</title>
<g id="a_Node000014"><a xlink:title=" ">
<polygon fill="white" stroke="#666666" points="599,-376.8 452,-376.8 452,-357.8 599,-357.8 599,-376.8"/>
<text text-anchor="middle" x="525.5" y="-364.8" font-family="Helvetica,sans-Serif" font-size="10.00">anonymous:decodedPaged</text>
</a>
</g>
</g>
<!-- Node14&#45;&gt;Node4 -->
<g id="edge17_Node000004_Node000014" class="edge">
<title>Node14&#45;&gt;Node4</title>
<g id="a_edge17_Node000004_Node000014"><a xlink:title=" ">
<path fill="none" stroke="#9a32cd" stroke-dasharray="5,2" d="M609.26,-363.38C640.67,-358.93 675.66,-350.18 704,-333.3 738.53,-312.73 764.73,-271.76 777.11,-249.52"/>
<polygon fill="#9a32cd" stroke="#9a32cd" points="608.67,-359.92 599.2,-364.68 609.57,-366.87 608.67,-359.92"/>
</a>
</g>
<text text-anchor="middle" x="664" y="-364.3" font-family="Helvetica,sans-Serif" font-size="10.00" fill="grey"> decodedPaged</text>
</g>
<!-- Node15 -->
<g id="Node000015" class="node">
<title>Node15</title>
<g id="a_Node000015"><a xlink:title=" ">
<polygon fill="white" stroke="#666666" points="584,-339.8 467,-339.8 467,-320.8 584,-320.8 584,-339.8"/>
<text text-anchor="middle" x="525.5" y="-327.8" font-family="Helvetica,sans-Serif" font-size="10.00">anonymous:backend</text>
</a>
</g>
</g>
<!-- Node15&#45;&gt;Node4 -->
<g id="edge18_Node000004_Node000015" class="edge">
<title>Node15&#45;&gt;Node4</title>
<g id="a_edge18_Node000004_Node000015"><a xlink:title=" ">
<path fill="none" stroke="#9a32cd" stroke-dasharray="5,2" d="M594.69,-323.56C628.63,-318.46 669.64,-309.6 704,-294.3 728.94,-283.2 753.56,-263.34 768.99,-249.53"/>
<polygon fill="#9a32cd" stroke="#9a32cd" points="593.81,-320.15 584.4,-325.02 594.8,-327.08 593.81,-320.15"/>
</a>
</g>
<text text-anchor="middle" x="664" y="-321.3" font-family="Helvetica,sans-Serif" font-size="10.00" fill="grey"> backend</text>
</g>
</g>
</svg>
