<?xml version="1.0" encoding="UTF-8" standalone="no"?>
<!DOCTYPE svg PUBLIC "-//W3C//DTD SVG 1.1//EN"
 "http://www.w3.org/Graphics/SVG/1.1/DTD/svg11.dtd">
<!-- Generated by graphviz version 2.43.0 (0)
 -->
<!-- Title: OMoleGroup::MoleEntry Pages: 1 -->
<!--zoomable 1146 -->

<svg id="main" version="1.1" xmlns="http://www.w3.org/2000/svg" xmlns:xlink="http://www.w3.org/1999/xlink" xml:space="preserve" onload="init(evt)">

<style type="text/css"><![CDATA[
.node, .edge {opacity: 0.7;}
.node.selected, .edge.selected {opacity: 1;}
.edge:hover path { stroke: red; }
.edge:hover polygon { stroke: red; fill: red; }
]]></style>

<defs>
  <circle id="rim" cx="0" cy="0" r="7"/>
  <circle id="rim2" cx="0" cy="0" r="3.5"/>
  <g id="zoomPlus">
    <use xlink:href="#rim" fill="#404040"><set attributeName="fill" to="#808080" begin="zoomplus.mouseover" end="zoomplus.mouseout"/></use>
    <path d="M-4,0h8M0,-4v8" fill="none" stroke="white" stroke-width="1.5" pointer-events="none"/>
  </g>
  <g id="zoomMin">
    <use xlink:href="#rim" fill="#404040"><set attributeName="fill" to="#808080" begin="zoomminus.mouseover" end="zoomminus.mouseout"/></use>
    <path d="M-4,0h8" fill="none" stroke="white" stroke-width="1.5" pointer-events="none"/>
  </g>
  <g id="arrowUp" transform="translate(30 24)">
    <use xlink:href="#rim"/>
    <path pointer-events="none" fill="none" stroke="white" stroke-width="1.5" d="M0,-3.0v7 M-2.5,-0.5L0,-3.0L2.5,-0.5"/>
  </g>
  <g id="arrowRight" transform="rotate(90) translate(36 -43)">
    <use xlink:href="#rim"/>
    <path pointer-events="none" fill="none" stroke="white" stroke-width="1.5" d="M0,-3.0v7 M-2.5,-0.5L0,-3.0L2.5,-0.5"/>
  </g>
  <g id="arrowDown" transform="rotate(180) translate(-30 -48)">
    <use xlink:href="#rim"/>
    <path pointer-events="none" fill="none" stroke="white" stroke-width="1.5" d="M0,-3.0v7 M-2.5,-0.5L0,-3.0L2.5,-0.5"/>
  </g>
  <g id="arrowLeft" transform="rotate(270) translate(-36 17)">
    <use xlink:href="#rim"/>
    <path pointer-events="none" fill="none" stroke="white" stroke-width="1.5" d="M0,-3.0v7 M-2.5,-0.5L0,-3.0L2.5,-0.5"/>
  </g>
  <g id="resetDef">
    <use xlink:href="#rim2" fill="#404040"><set attributeName="fill" to="#808080" begin="reset.mouseover" end="reset.mouseout"/></use>
  </g>
</defs>
<script type="application/ecmascript">
var viewWidth = 1356;
var viewHeight = 1146;
var sectionId = 'dynsection-0';
</script>
<script type="application/ecmascript" xlink:href="svg.min.js"/>
<svg id="graph" class="graph">
<g id="viewport">
<title>OMoleGroup::MoleEntry</title>
<!-- Node1 -->
<g id="Node000001" class="node">
<title>Node1</title>
<g id="a_Node000001"><a xlink:title=" ">
<polygon fill="#999999" stroke="#666666" points="1348,-68.5 1215,-68.5 1215,-49.5 1348,-49.5 1348,-68.5"/>
<text text-anchor="middle" x="1281.5" y="-56.5" font-family="Helvetica,sans-Serif" font-size="10.00">OMoleGroup::MoleEntry</text>
</a>
</g>
</g>
<!-- Node2 -->
<g id="Node000002" class="node">
<title>Node2</title>
<g id="a_Node000002"><a xlink:href="classOMole.html" target="_top" xlink:title=" ">
<polygon fill="white" stroke="#666666" points="1151,-897.5 1103,-897.5 1103,-878.5 1151,-878.5 1151,-897.5"/>
<text text-anchor="middle" x="1127" y="-885.5" font-family="Helvetica,sans-Serif" font-size="10.00">OMole</text>
</a>
</g>
</g>
<!-- Node2&#45;&gt;Node1 -->
<g id="edge1_Node000001_Node000002" class="edge">
<title>Node2&#45;&gt;Node1</title>
<g id="a_edge1_Node000001_Node000002"><a xlink:title=" ">
<path fill="none" stroke="#9a32cd" stroke-dasharray="5,2" d="M1131.6,-868.41C1153.03,-751.92 1263.27,-152.65 1278.7,-68.76"/>
<polygon fill="#9a32cd" stroke="#9a32cd" points="1128.13,-867.94 1129.77,-878.4 1135.02,-869.2 1128.13,-867.94"/>
</a>
</g>
<text text-anchor="middle" x="1183" y="-647" font-family="Helvetica,sans-Serif" font-size="10.00" fill="grey"> Mole</text>
</g>
<!-- Node3 -->
<g id="Node000003" class="node">
<title>Node3</title>
<g id="a_Node000003"><a xlink:href="classOObject.html" target="_top" xlink:title=" ">
<polygon fill="white" stroke="#666666" points="839.5,-893.5 783.5,-893.5 783.5,-874.5 839.5,-874.5 839.5,-893.5"/>
<text text-anchor="middle" x="811.5" y="-881.5" font-family="Helvetica,sans-Serif" font-size="10.00">OObject</text>
</a>
</g>
</g>
<!-- Node3&#45;&gt;Node2 -->
<g id="edge2_Node000002_Node000003" class="edge">
<title>Node3&#45;&gt;Node2</title>
<g id="a_edge2_Node000002_Node000003"><a xlink:title=" ">
<path fill="none" stroke="#63b8ff" d="M849.77,-884.48C915.24,-885.31 1049.04,-887.02 1102.84,-887.7"/>
<polygon fill="#63b8ff" stroke="#63b8ff" points="849.54,-880.97 839.5,-884.34 849.45,-887.97 849.54,-880.97"/>
</a>
</g>
</g>
<!-- Node25 -->
<g id="Node000025" class="node">
<title>Node25</title>
<g id="a_Node000025"><a xlink:href="classOMoleGroup.html" target="_top" xlink:title=" ">
<polygon fill="white" stroke="#666666" points="1030,-859.5 953,-859.5 953,-840.5 1030,-840.5 1030,-859.5"/>
<text text-anchor="middle" x="991.5" y="-847.5" font-family="Helvetica,sans-Serif" font-size="10.00">OMoleGroup</text>
</a>
</g>
</g>
<!-- Node3&#45;&gt;Node25 -->
<g id="edge32_Node000025_Node000003" class="edge">
<title>Node3&#45;&gt;Node25</title>
<g id="a_edge32_Node000025_Node000003"><a xlink:title=" ">
<path fill="none" stroke="#63b8ff" d="M849.7,-876.89C879.99,-871.11 922.57,-862.98 952.95,-857.17"/>
<polygon fill="#63b8ff" stroke="#63b8ff" points="848.7,-873.52 839.53,-878.84 850.01,-880.4 848.7,-873.52"/>
</a>
</g>
</g>
<!-- Node4 -->
<g id="Node000004" class="node">
<title>Node4</title>
<g id="a_Node000004"><a xlink:title=" ">
<polygon fill="white" stroke="#666666" points="600,-1038.5 550,-1038.5 550,-1019.5 600,-1019.5 600,-1038.5"/>
<text text-anchor="middle" x="575" y="-1026.5" font-family="Helvetica,sans-Serif" font-size="10.00">uint8_t</text>
</a>
</g>
</g>
<!-- Node4&#45;&gt;Node3 -->
<g id="edge3_Node000003_Node000004" class="edge">
<title>Node4&#45;&gt;Node3</title>
<g id="a_edge3_Node000003_Node000004"><a xlink:title=" ">
<path fill="none" stroke="#9a32cd" stroke-dasharray="5,2" d="M610.47,-1034.52C646.03,-1038.13 700.85,-1037.51 734,-1007 760.82,-982.32 732.05,-957.5 752,-927 761.59,-912.34 778.01,-900.92 791.02,-893.55"/>
<polygon fill="#9a32cd" stroke="#9a32cd" points="610.44,-1031 600.1,-1033.3 609.62,-1037.95 610.44,-1031"/>
</a>
</g>
<text text-anchor="middle" x="690.5" y="-1038" font-family="Helvetica,sans-Serif" font-size="10.00" fill="grey"> uuid</text>
</g>
<!-- Node5 -->
<g id="Node000005" class="node">
<title>Node5</title>
<g id="a_Node000005"><a xlink:href="structObject.html" target="_top" xlink:title=" ">
<polygon fill="white" stroke="#666666" points="599,-661.5 551,-661.5 551,-642.5 599,-642.5 599,-661.5"/>
<text text-anchor="middle" x="575" y="-649.5" font-family="Helvetica,sans-Serif" font-size="10.00">Object</text>
</a>
</g>
</g>
<!-- Node5&#45;&gt;Node3 -->
<g id="edge4_Node000003_Node000005" class="edge">
<title>Node5&#45;&gt;Node3</title>
<g id="a_edge4_Node000003_Node000005"><a xlink:title=" ">
<path fill="none" stroke="#9a32cd" stroke-dasharray="5,2" d="M587.03,-670.51C611.75,-710.55 675.47,-806.04 752,-861 761.4,-867.75 773.04,-872.85 783.46,-876.51"/>
<polygon fill="#9a32cd" stroke="#9a32cd" points="589.91,-668.51 581.72,-661.79 583.93,-672.15 589.91,-668.51"/>
</a>
</g>
<text text-anchor="middle" x="690.5" y="-846" font-family="Helvetica,sans-Serif" font-size="10.00" fill="grey"> o</text>
</g>
<!-- Node6 -->
<g id="Node000006" class="node">
<title>Node6</title>
<g id="a_Node000006"><a xlink:title=" ">
<polygon fill="white" stroke="#666666" points="376,-726.5 344,-726.5 344,-707.5 376,-707.5 376,-726.5"/>
<text text-anchor="middle" x="360" y="-714.5" font-family="Helvetica,sans-Serif" font-size="10.00">f32</text>
</a>
</g>
</g>
<!-- Node6&#45;&gt;Node5 -->
<g id="edge5_Node000005_Node000006" class="edge">
<title>Node6&#45;&gt;Node5</title>
<g id="a_edge5_Node000005_Node000006"><a xlink:title=" ">
<path fill="none" stroke="#9a32cd" stroke-dasharray="5,2" d="M386.35,-714.22C415.21,-710.55 463.48,-702.87 503,-689 523.2,-681.91 544.79,-669.96 558.79,-661.56"/>
<polygon fill="#9a32cd" stroke="#9a32cd" points="385.81,-710.76 376.3,-715.43 386.65,-717.71 385.81,-710.76"/>
</a>
</g>
<text text-anchor="middle" x="460.5" y="-790" font-family="Helvetica,sans-Serif" font-size="10.00" fill="grey"> offset</text>
<text text-anchor="middle" x="460.5" y="-779" font-family="Helvetica,sans-Serif" font-size="10.00" fill="grey">origin_pos</text>
<text text-anchor="middle" x="460.5" y="-768" font-family="Helvetica,sans-Serif" font-size="10.00" fill="grey">pos</text>
<text text-anchor="middle" x="460.5" y="-757" font-family="Helvetica,sans-Serif" font-size="10.00" fill="grey">sizeScaling</text>
<text text-anchor="middle" x="460.5" y="-746" font-family="Helvetica,sans-Serif" font-size="10.00" fill="grey">surfaceHeight</text>
<text text-anchor="middle" x="460.5" y="-735" font-family="Helvetica,sans-Serif" font-size="10.00" fill="grey">unk_01C</text>
<text text-anchor="middle" x="460.5" y="-724" font-family="Helvetica,sans-Serif" font-size="10.00" fill="grey">unk_034</text>
<text text-anchor="middle" x="460.5" y="-713" font-family="Helvetica,sans-Serif" font-size="10.00" fill="grey">velocity</text>
</g>
<!-- Node7 -->
<g id="Node000007" class="node">
<title>Node7</title>
<g id="a_Node000007"><a xlink:title=" ">
<polygon fill="white" stroke="#666666" points="377,-1007.5 343,-1007.5 343,-988.5 377,-988.5 377,-1007.5"/>
<text text-anchor="middle" x="360" y="-995.5" font-family="Helvetica,sans-Serif" font-size="10.00">s32</text>
</a>
</g>
</g>
<!-- Node7&#45;&gt;Node2 -->
<g id="edge29_Node000002_Node000007" class="edge">
<title>Node7&#45;&gt;Node2</title>
<g id="a_edge29_Node000002_Node000007"><a xlink:title=" ">
<path fill="none" stroke="#9a32cd" stroke-dasharray="5,2" d="M386.32,-1011.94C425.38,-1032.1 503.23,-1067 574,-1067 574,-1067 574,-1067 992.5,-1067 1077.79,-1067 1115.08,-934.8 1123.88,-897.62"/>
<polygon fill="#9a32cd" stroke="#9a32cd" points="387.74,-1008.73 377.26,-1007.16 384.47,-1014.92 387.74,-1008.73"/>
</a>
</g>
<text text-anchor="middle" x="811.5" y="-1070" font-family="Helvetica,sans-Serif" font-size="10.00" fill="grey"> _moleIndex</text>
</g>
<!-- Node7&#45;&gt;Node3 -->
<g id="edge22_Node000003_Node000007" class="edge">
<title>Node7&#45;&gt;Node3</title>
<g id="a_edge22_Node000003_Node000007"><a xlink:title=" ">
<path fill="none" stroke="#9a32cd" stroke-dasharray="5,2" d="M387.49,-1001.05C417.33,-1003.25 466.41,-1003.06 503,-984 513.9,-978.32 510.61,-969.57 521,-963 565.46,-934.86 720.01,-901.94 783.23,-889.31"/>
<polygon fill="#9a32cd" stroke="#9a32cd" points="387.7,-997.55 377.43,-1000.16 387.09,-1004.53 387.7,-997.55"/>
</a>
</g>
<text text-anchor="middle" x="575" y="-966" font-family="Helvetica,sans-Serif" font-size="10.00" fill="grey"> _objectIndex</text>
</g>
<!-- Node7&#45;&gt;Node5 -->
<g id="edge6_Node000005_Node000007" class="edge">
<title>Node7&#45;&gt;Node5</title>
<g id="a_edge6_Node000005_Node000007"><a xlink:title=" ">
<path fill="none" stroke="#9a32cd" stroke-dasharray="5,2" d="M371.04,-979.01C381.07,-961.44 397.87,-935.47 418,-918 450.13,-890.12 475.55,-906.5 503,-874 559.4,-807.23 571.17,-695.09 573.47,-661.68"/>
<polygon fill="#9a32cd" stroke="#9a32cd" points="367.7,-977.81 365.94,-988.25 373.83,-981.18 367.7,-977.81"/>
</a>
</g>
<text text-anchor="middle" x="460.5" y="-976" font-family="Helvetica,sans-Serif" font-size="10.00" fill="grey"> status</text>
<text text-anchor="middle" x="460.5" y="-965" font-family="Helvetica,sans-Serif" font-size="10.00" fill="grey">timer</text>
<text text-anchor="middle" x="460.5" y="-954" font-family="Helvetica,sans-Serif" font-size="10.00" fill="grey">unk_048</text>
<text text-anchor="middle" x="460.5" y="-943" font-family="Helvetica,sans-Serif" font-size="10.00" fill="grey">unk_04C</text>
<text text-anchor="middle" x="460.5" y="-932" font-family="Helvetica,sans-Serif" font-size="10.00" fill="grey">unk_058</text>
<text text-anchor="middle" x="460.5" y="-921" font-family="Helvetica,sans-Serif" font-size="10.00" fill="grey">unk_05C</text>
</g>
<!-- Node8 -->
<g id="Node000008" class="node">
<title>Node8</title>
<g id="a_Node000008"><a xlink:title=" ">
<polygon fill="white" stroke="#666666" points="397.5,-877.5 322.5,-877.5 322.5,-858.5 397.5,-858.5 397.5,-877.5"/>
<text text-anchor="middle" x="360" y="-865.5" font-family="Helvetica,sans-Serif" font-size="10.00">const char *</text>
</a>
</g>
</g>
<!-- Node8&#45;&gt;Node3 -->
<g id="edge20_Node000003_Node000008" class="edge">
<title>Node8&#45;&gt;Node3</title>
<g id="a_edge20_Node000003_Node000008"><a xlink:title=" ">
<path fill="none" stroke="#9a32cd" stroke-dasharray="5,2" d="M407.81,-869.67C501.38,-873 708.89,-880.38 783.29,-883.03"/>
<polygon fill="#9a32cd" stroke="#9a32cd" points="407.9,-866.17 397.78,-869.31 407.65,-873.16 407.9,-866.17"/>
</a>
</g>
<text text-anchor="middle" x="575" y="-902" font-family="Helvetica,sans-Serif" font-size="10.00" fill="grey"> Model</text>
<text text-anchor="middle" x="575" y="-891" font-family="Helvetica,sans-Serif" font-size="10.00" fill="grey">Name</text>
<text text-anchor="middle" x="575" y="-880" font-family="Helvetica,sans-Serif" font-size="10.00" fill="grey">ResourceName</text>
</g>
<!-- Node8&#45;&gt;Node5 -->
<g id="edge7_Node000005_Node000008" class="edge">
<title>Node8&#45;&gt;Node5</title>
<g id="a_edge7_Node000005_Node000008"><a xlink:title=" ">
<path fill="none" stroke="#9a32cd" stroke-dasharray="5,2" d="M396.89,-854.96C403.86,-852.55 411.14,-850.13 418,-848 455.38,-836.4 473.65,-850.89 503,-825 554.62,-779.47 569.43,-690.71 573,-661.54"/>
<polygon fill="#9a32cd" stroke="#9a32cd" points="395.25,-851.82 386.97,-858.44 397.57,-858.43 395.25,-851.82"/>
</a>
</g>
<text text-anchor="middle" x="460.5" y="-862" font-family="Helvetica,sans-Serif" font-size="10.00" fill="grey"> activeTLUT</text>
<text text-anchor="middle" x="460.5" y="-851" font-family="Helvetica,sans-Serif" font-size="10.00" fill="grey">activeTexture</text>
</g>
<!-- Node9 -->
<g id="Node000009" class="node">
<title>Node9</title>
<g id="a_Node000009"><a xlink:title=" ">
<polygon fill="white" stroke="#666666" points="374.5,-411.5 345.5,-411.5 345.5,-392.5 374.5,-392.5 374.5,-411.5"/>
<text text-anchor="middle" x="360" y="-399.5" font-family="Helvetica,sans-Serif" font-size="10.00">u8</text>
</a>
</g>
</g>
<!-- Node9&#45;&gt;Node5 -->
<g id="edge8_Node000005_Node000009" class="edge">
<title>Node9&#45;&gt;Node5</title>
<g id="a_edge8_Node000005_Node000009"><a xlink:title=" ">
<path fill="none" stroke="#9a32cd" stroke-dasharray="5,2" d="M384.7,-394.94C415.4,-387.36 468.99,-379.66 503,-406 542.19,-436.35 566.98,-600.49 572.72,-642.3"/>
<polygon fill="#9a32cd" stroke="#9a32cd" points="383.63,-391.6 374.87,-397.56 385.43,-398.36 383.63,-391.6"/>
</a>
</g>
<text text-anchor="middle" x="460.5" y="-519" font-family="Helvetica,sans-Serif" font-size="10.00" fill="grey"> textureHeight</text>
<text text-anchor="middle" x="460.5" y="-508" font-family="Helvetica,sans-Serif" font-size="10.00" fill="grey">textureWidth</text>
<text text-anchor="middle" x="460.5" y="-497" font-family="Helvetica,sans-Serif" font-size="10.00" fill="grey">tlutList</text>
<text text-anchor="middle" x="460.5" y="-486" font-family="Helvetica,sans-Serif" font-size="10.00" fill="grey">unk_0D5</text>
<text text-anchor="middle" x="460.5" y="-475" font-family="Helvetica,sans-Serif" font-size="10.00" fill="grey">unk_0D6</text>
<text text-anchor="middle" x="460.5" y="-464" font-family="Helvetica,sans-Serif" font-size="10.00" fill="grey">unk_0D7</text>
<text text-anchor="middle" x="460.5" y="-453" font-family="Helvetica,sans-Serif" font-size="10.00" fill="grey">unk_0D8</text>
<text text-anchor="middle" x="460.5" y="-442" font-family="Helvetica,sans-Serif" font-size="10.00" fill="grey">unk_0DB</text>
<text text-anchor="middle" x="460.5" y="-431" font-family="Helvetica,sans-Serif" font-size="10.00" fill="grey">unk_0DC</text>
<text text-anchor="middle" x="460.5" y="-420" font-family="Helvetica,sans-Serif" font-size="10.00" fill="grey">unk_0DD</text>
<text text-anchor="middle" x="460.5" y="-409" font-family="Helvetica,sans-Serif" font-size="10.00" fill="grey">...</text>
</g>
<!-- Node10 -->
<g id="Node000010" class="node">
<title>Node10</title>
<g id="a_Node000010"><a xlink:title=" ">
<polygon fill="white" stroke="#666666" points="400,-374.5 320,-374.5 320,-355.5 400,-355.5 400,-374.5"/>
<text text-anchor="middle" x="360" y="-362.5" font-family="Helvetica,sans-Serif" font-size="10.00">const char **</text>
</a>
</g>
</g>
<!-- Node10&#45;&gt;Node5 -->
<g id="edge9_Node000005_Node000010" class="edge">
<title>Node10&#45;&gt;Node5</title>
<g id="a_edge9_Node000005_Node000010"><a xlink:title=" ">
<path fill="none" stroke="#9a32cd" stroke-dasharray="5,2" d="M410.4,-354.29C440.4,-350.78 477.68,-352.15 503,-373 546.4,-408.75 568.36,-597.18 573.04,-642.29"/>
<polygon fill="#9a32cd" stroke="#9a32cd" points="409.54,-350.88 400.12,-355.72 410.5,-357.81 409.54,-350.88"/>
</a>
</g>
<text text-anchor="middle" x="460.5" y="-376" font-family="Helvetica,sans-Serif" font-size="10.00" fill="grey"> textureList</text>
</g>
<!-- Node11 -->
<g id="Node000011" class="node">
<title>Node11</title>
<g id="a_Node000011"><a xlink:title=" ">
<polygon fill="white" stroke="#666666" points="377,-337.5 343,-337.5 343,-318.5 377,-318.5 377,-337.5"/>
<text text-anchor="middle" x="360" y="-325.5" font-family="Helvetica,sans-Serif" font-size="10.00">Gfx</text>
</a>
</g>
</g>
<!-- Node11&#45;&gt;Node5 -->
<g id="edge10_Node000005_Node000011" class="edge">
<title>Node11&#45;&gt;Node5</title>
<g id="a_edge10_Node000005_Node000011"><a xlink:title=" ">
<path fill="none" stroke="#9a32cd" stroke-dasharray="5,2" d="M387.13,-321.44C418.53,-315.24 470.99,-310.52 503,-338 551.13,-379.32 569.73,-594.25 573.33,-642.42"/>
<polygon fill="#9a32cd" stroke="#9a32cd" points="386.38,-318.02 377.34,-323.55 387.86,-324.86 386.38,-318.02"/>
</a>
</g>
<text text-anchor="middle" x="460.5" y="-341" font-family="Helvetica,sans-Serif" font-size="10.00" fill="grey"> model</text>
</g>
<!-- Node12 -->
<g id="Node000012" class="node">
<title>Node12</title>
<g id="a_Node000012"><a xlink:title=" ">
<polygon fill="white" stroke="#666666" points="376.5,-300.5 343.5,-300.5 343.5,-281.5 376.5,-281.5 376.5,-300.5"/>
<text text-anchor="middle" x="360" y="-288.5" font-family="Helvetica,sans-Serif" font-size="10.00">Vtx</text>
</a>
</g>
</g>
<!-- Node12&#45;&gt;Node5 -->
<g id="edge11_Node000005_Node000012" class="edge">
<title>Node12&#45;&gt;Node5</title>
<g id="a_edge11_Node000005_Node000012"><a xlink:title=" ">
<path fill="none" stroke="#9a32cd" stroke-dasharray="5,2" d="M386.68,-284.65C418.14,-278.53 471.18,-273.87 503,-302 556.07,-348.92 570.97,-590.92 573.56,-642.38"/>
<polygon fill="#9a32cd" stroke="#9a32cd" points="385.57,-281.31 376.52,-286.82 387.03,-288.15 385.57,-281.31"/>
</a>
</g>
<text text-anchor="middle" x="460.5" y="-305" font-family="Helvetica,sans-Serif" font-size="10.00" fill="grey"> vertex</text>
</g>
<!-- Node13 -->
<g id="Node000013" class="node">
<title>Node13</title>
<g id="a_Node000013"><a xlink:title=" ">
<polygon fill="white" stroke="#666666" points="374.5,-160.5 345.5,-160.5 345.5,-141.5 374.5,-141.5 374.5,-160.5"/>
<text text-anchor="middle" x="360" y="-148.5" font-family="Helvetica,sans-Serif" font-size="10.00">s8</text>
</a>
</g>
</g>
<!-- Node13&#45;&gt;Node5 -->
<g id="edge12_Node000005_Node000013" class="edge">
<title>Node13&#45;&gt;Node5</title>
<g id="a_edge12_Node000005_Node000013"><a xlink:title=" ">
<path fill="none" stroke="#9a32cd" stroke-dasharray="5,2" d="M384.83,-143.57C416.12,-135.44 470.83,-127.1 503,-156 578.39,-223.73 575.36,-579.05 574.21,-642.35"/>
<polygon fill="#9a32cd" stroke="#9a32cd" points="383.5,-140.3 374.82,-146.37 385.39,-147.04 383.5,-140.3"/>
</a>
</g>
<text text-anchor="middle" x="460.5" y="-269" font-family="Helvetica,sans-Serif" font-size="10.00" fill="grey"> isTimerActive</text>
<text text-anchor="middle" x="460.5" y="-258" font-family="Helvetica,sans-Serif" font-size="10.00" fill="grey">textureListIndex</text>
<text text-anchor="middle" x="460.5" y="-247" font-family="Helvetica,sans-Serif" font-size="10.00" fill="grey">unk_078</text>
<text text-anchor="middle" x="460.5" y="-236" font-family="Helvetica,sans-Serif" font-size="10.00" fill="grey">unk_0CA</text>
<text text-anchor="middle" x="460.5" y="-225" font-family="Helvetica,sans-Serif" font-size="10.00" fill="grey">unk_0CC</text>
<text text-anchor="middle" x="460.5" y="-214" font-family="Helvetica,sans-Serif" font-size="10.00" fill="grey">unk_0CD</text>
<text text-anchor="middle" x="460.5" y="-203" font-family="Helvetica,sans-Serif" font-size="10.00" fill="grey">unk_0CE</text>
<text text-anchor="middle" x="460.5" y="-192" font-family="Helvetica,sans-Serif" font-size="10.00" fill="grey">unk_0CF</text>
<text text-anchor="middle" x="460.5" y="-181" font-family="Helvetica,sans-Serif" font-size="10.00" fill="grey">unk_0D0</text>
<text text-anchor="middle" x="460.5" y="-170" font-family="Helvetica,sans-Serif" font-size="10.00" fill="grey">unk_0D1</text>
<text text-anchor="middle" x="460.5" y="-159" font-family="Helvetica,sans-Serif" font-size="10.00" fill="grey">...</text>
</g>
<!-- Node14 -->
<g id="Node000014" class="node">
<title>Node14</title>
<g id="a_Node000014"><a xlink:href="structSplineControlPoint.html" target="_top" xlink:title=" ">
<polygon fill="white" stroke="#666666" points="217,-677.5 110,-677.5 110,-658.5 217,-658.5 217,-677.5"/>
<text text-anchor="middle" x="163.5" y="-665.5" font-family="Helvetica,sans-Serif" font-size="10.00">SplineControlPoint</text>
</a>
</g>
</g>
<!-- Node14&#45;&gt;Node5 -->
<g id="edge13_Node000005_Node000014" class="edge">
<title>Node14&#45;&gt;Node5</title>
<g id="a_edge13_Node000005_Node000014"><a xlink:title=" ">
<path fill="none" stroke="#9a32cd" stroke-dasharray="5,2" d="M227.16,-668.18C295.17,-667.98 406.91,-666.54 503,-660 518.96,-658.91 536.87,-656.89 550.7,-655.15"/>
<polygon fill="#9a32cd" stroke="#9a32cd" points="227.04,-664.68 217.05,-668.2 227.05,-671.68 227.04,-664.68"/>
</a>
</g>
<text text-anchor="middle" x="360" y="-671" font-family="Helvetica,sans-Serif" font-size="10.00" fill="grey"> controlPoints</text>
</g>
<!-- Node16 -->
<g id="Node000016" class="node">
<title>Node16</title>
<g id="a_Node000016"><a xlink:href="structSplineData.html" target="_top" xlink:title=" ">
<polygon fill="white" stroke="#666666" points="395,-641.5 325,-641.5 325,-622.5 395,-622.5 395,-641.5"/>
<text text-anchor="middle" x="360" y="-629.5" font-family="Helvetica,sans-Serif" font-size="10.00">SplineData</text>
</a>
</g>
</g>
<!-- Node14&#45;&gt;Node16 -->
<g id="edge17_Node000016_Node000014" class="edge">
<title>Node14&#45;&gt;Node16</title>
<g id="a_edge17_Node000016_Node000014"><a xlink:title=" ">
<path fill="none" stroke="#9a32cd" stroke-dasharray="5,2" d="M218.2,-656.33C223.86,-655.17 229.55,-654.04 235,-653 265.35,-647.2 300.03,-641.4 324.98,-637.37"/>
<polygon fill="#9a32cd" stroke="#9a32cd" points="217.15,-652.97 208.07,-658.43 218.57,-659.83 217.15,-652.97"/>
</a>
</g>
<text text-anchor="middle" x="268.5" y="-656" font-family="Helvetica,sans-Serif" font-size="10.00" fill="grey"> controlPoints</text>
</g>
<!-- Node15 -->
<g id="Node000015" class="node">
<title>Node15</title>
<g id="a_Node000015"><a xlink:title=" ">
<polygon fill="white" stroke="#666666" points="34,-677.5 0,-677.5 0,-658.5 34,-658.5 34,-677.5"/>
<text text-anchor="middle" x="17" y="-665.5" font-family="Helvetica,sans-Serif" font-size="10.00">s16</text>
</a>
</g>
</g>
<!-- Node15&#45;&gt;Node5 -->
<g id="edge18_Node000005_Node000015" class="edge">
<title>Node15&#45;&gt;Node5</title>
<g id="a_edge18_Node000005_Node000015"><a xlink:title=" ">
<path fill="none" stroke="#9a32cd" stroke-dasharray="5,2" d="M36.36,-684C41.22,-687.67 46.61,-691.28 52,-694 143.91,-740.39 415.87,-854.84 503,-800 553.65,-768.12 568.98,-688.95 572.85,-661.53"/>
<polygon fill="#9a32cd" stroke="#9a32cd" points="38.32,-681.08 28.33,-677.53 33.92,-686.53 38.32,-681.08"/>
</a>
</g>
<text text-anchor="middle" x="268.5" y="-905" font-family="Helvetica,sans-Serif" font-size="10.00" fill="grey"> primAlpha</text>
<text text-anchor="middle" x="268.5" y="-894" font-family="Helvetica,sans-Serif" font-size="10.00" fill="grey">state</text>
<text text-anchor="middle" x="268.5" y="-883" font-family="Helvetica,sans-Serif" font-size="10.00" fill="grey">type</text>
<text text-anchor="middle" x="268.5" y="-872" font-family="Helvetica,sans-Serif" font-size="10.00" fill="grey">unk_084</text>
<text text-anchor="middle" x="268.5" y="-861" font-family="Helvetica,sans-Serif" font-size="10.00" fill="grey">unk_09C</text>
<text text-anchor="middle" x="268.5" y="-850" font-family="Helvetica,sans-Serif" font-size="10.00" fill="grey">unk_09E</text>
<text text-anchor="middle" x="268.5" y="-839" font-family="Helvetica,sans-Serif" font-size="10.00" fill="grey">unk_0A2</text>
<text text-anchor="middle" x="268.5" y="-828" font-family="Helvetica,sans-Serif" font-size="10.00" fill="grey">unk_0A8</text>
<text text-anchor="middle" x="268.5" y="-817" font-family="Helvetica,sans-Serif" font-size="10.00" fill="grey">unk_0AA</text>
<text text-anchor="middle" x="268.5" y="-806" font-family="Helvetica,sans-Serif" font-size="10.00" fill="grey">unk_0AC</text>
<text text-anchor="middle" x="268.5" y="-795" font-family="Helvetica,sans-Serif" font-size="10.00" fill="grey">...</text>
</g>
<!-- Node15&#45;&gt;Node14 -->
<g id="edge14_Node000014_Node000015" class="edge">
<title>Node15&#45;&gt;Node14</title>
<g id="a_edge14_Node000014_Node000015"><a xlink:title=" ">
<path fill="none" stroke="#9a32cd" stroke-dasharray="5,2" d="M44.18,-668C62.45,-668 87.46,-668 109.78,-668"/>
<polygon fill="#9a32cd" stroke="#9a32cd" points="44.02,-664.5 34.02,-668 44.02,-671.5 44.02,-664.5"/>
</a>
</g>
<text text-anchor="middle" x="72" y="-682" font-family="Helvetica,sans-Serif" font-size="10.00" fill="grey"> pos</text>
<text text-anchor="middle" x="72" y="-671" font-family="Helvetica,sans-Serif" font-size="10.00" fill="grey">velocity</text>
</g>
<!-- Node15&#45;&gt;Node16 -->
<g id="edge16_Node000016_Node000015" class="edge">
<title>Node15&#45;&gt;Node16</title>
<g id="a_edge16_Node000016_Node000015"><a xlink:title=" ">
<path fill="none" stroke="#9a32cd" stroke-dasharray="5,2" d="M43.58,-657.43C61.76,-650.48 86.95,-641.95 110,-638 185.87,-625 276.61,-627.18 324.87,-629.71"/>
<polygon fill="#9a32cd" stroke="#9a32cd" points="42.28,-654.18 34.25,-661.1 44.84,-660.7 42.28,-654.18"/>
</a>
</g>
<text text-anchor="middle" x="163.5" y="-641" font-family="Helvetica,sans-Serif" font-size="10.00" fill="grey"> numControlPoints</text>
</g>
<!-- Node16&#45;&gt;Node5 -->
<g id="edge15_Node000005_Node000016" class="edge">
<title>Node16&#45;&gt;Node5</title>
<g id="a_edge15_Node000005_Node000016"><a xlink:title=" ">
<path fill="none" stroke="#9a32cd" stroke-dasharray="5,2" d="M405.42,-636.17C449.67,-640.33 515.91,-646.55 550.72,-649.81"/>
<polygon fill="#9a32cd" stroke="#9a32cd" points="405.51,-632.66 395.22,-635.21 404.85,-639.63 405.51,-632.66"/>
</a>
</g>
<text text-anchor="middle" x="460.5" y="-648" font-family="Helvetica,sans-Serif" font-size="10.00" fill="grey"> spline</text>
</g>
<!-- Node17 -->
<g id="Node000017" class="node">
<title>Node17</title>
<g id="a_Node000017"><a xlink:title=" ">
<polygon fill="white" stroke="#666666" points="377.5,-550.5 342.5,-550.5 342.5,-531.5 377.5,-531.5 377.5,-550.5"/>
<text text-anchor="middle" x="360" y="-538.5" font-family="Helvetica,sans-Serif" font-size="10.00">u16</text>
</a>
</g>
</g>
<!-- Node17&#45;&gt;Node5 -->
<g id="edge19_Node000005_Node000017" class="edge">
<title>Node17&#45;&gt;Node5</title>
<g id="a_edge19_Node000005_Node000017"><a xlink:title=" ">
<path fill="none" stroke="#9a32cd" stroke-dasharray="5,2" d="M387.75,-535.09C417.81,-529.92 467.1,-526.02 503,-546 541.9,-567.65 563.48,-620.65 570.96,-642.42"/>
<polygon fill="#9a32cd" stroke="#9a32cd" points="386.78,-531.71 377.6,-537 388.08,-538.59 386.78,-531.71"/>
</a>
</g>
<text text-anchor="middle" x="460.5" y="-626" font-family="Helvetica,sans-Serif" font-size="10.00" fill="grey"> animationTimer</text>
<text text-anchor="middle" x="460.5" y="-615" font-family="Helvetica,sans-Serif" font-size="10.00" fill="grey">boundingBoxSize</text>
<text text-anchor="middle" x="460.5" y="-604" font-family="Helvetica,sans-Serif" font-size="10.00" fill="grey">direction_angle</text>
<text text-anchor="middle" x="460.5" y="-593" font-family="Helvetica,sans-Serif" font-size="10.00" fill="grey">orientation</text>
<text text-anchor="middle" x="460.5" y="-582" font-family="Helvetica,sans-Serif" font-size="10.00" fill="grey">unk_09A</text>
<text text-anchor="middle" x="460.5" y="-571" font-family="Helvetica,sans-Serif" font-size="10.00" fill="grey">unk_0B8</text>
<text text-anchor="middle" x="460.5" y="-560" font-family="Helvetica,sans-Serif" font-size="10.00" fill="grey">unk_0C4</text>
<text text-anchor="middle" x="460.5" y="-549" font-family="Helvetica,sans-Serif" font-size="10.00" fill="grey">unk_0C6</text>
</g>
<!-- Node18 -->
<g id="Node000018" class="node">
<title>Node18</title>
<g id="a_Node000018"><a xlink:title=" ">
<polygon fill="white" stroke="#666666" points="594,-31.5 556,-31.5 556,-12.5 594,-12.5 594,-31.5"/>
<text text-anchor="middle" x="575" y="-19.5" font-family="Helvetica,sans-Serif" font-size="10.00">bool</text>
</a>
</g>
</g>
<!-- Node18&#45;&gt;Node1 -->
<g id="edge36_Node000001_Node000018" class="edge">
<title>Node18&#45;&gt;Node1</title>
<g id="a_edge36_Node000001_Node000018"><a xlink:title=" ">
<path fill="none" stroke="#9a32cd" stroke-dasharray="5,2" d="M604.13,-17.64C648.07,-11.23 735.7,0 810.5,0 810.5,0 810.5,0 1128,0 1181.94,0 1239.81,-32.5 1266.07,-49.26"/>
<polygon fill="#9a32cd" stroke="#9a32cd" points="603.57,-14.19 594.19,-19.12 604.6,-21.11 603.57,-14.19"/>
</a>
</g>
<text text-anchor="middle" x="991.5" y="-3" font-family="Helvetica,sans-Serif" font-size="10.00" fill="grey"> Active</text>
</g>
<!-- Node18&#45;&gt;Node3 -->
<g id="edge21_Node000003_Node000018" class="edge">
<title>Node18&#45;&gt;Node3</title>
<g id="a_edge21_Node000003_Node000018"><a xlink:title=" ">
<path fill="none" stroke="#9a32cd" stroke-dasharray="5,2" d="M604.41,-18.86C640.81,-16.62 702.89,-19.12 734,-57 762.36,-91.53 726.43,-824.36 752,-861 759.18,-871.29 771.72,-876.98 783.35,-880.12"/>
<polygon fill="#9a32cd" stroke="#9a32cd" points="603.7,-15.41 594.01,-19.68 604.25,-22.39 603.7,-15.41"/>
</a>
</g>
<text text-anchor="middle" x="690.5" y="-60" font-family="Helvetica,sans-Serif" font-size="10.00" fill="grey"> bPendingDestroy</text>
</g>
<!-- Node19 -->
<g id="Node000019" class="node">
<title>Node19</title>
<g id="a_Node000019"><a xlink:href="structFVector.html" target="_top" xlink:title=" ">
<polygon fill="white" stroke="#666666" points="601.5,-79.5 548.5,-79.5 548.5,-60.5 601.5,-60.5 601.5,-79.5"/>
<text text-anchor="middle" x="575" y="-67.5" font-family="Helvetica,sans-Serif" font-size="10.00">FVector</text>
</a>
</g>
</g>
<!-- Node19&#45;&gt;Node1 -->
<g id="edge35_Node000001_Node000019" class="edge">
<title>Node19&#45;&gt;Node1</title>
<g id="a_edge35_Node000001_Node000019"><a xlink:title=" ">
<path fill="none" stroke="#9a32cd" stroke-dasharray="5,2" d="M611.71,-67.28C657.67,-64.02 739.98,-59 810.5,-59 810.5,-59 810.5,-59 1128,-59 1156.46,-59 1187.91,-59 1214.82,-59"/>
<polygon fill="#9a32cd" stroke="#9a32cd" points="611.38,-63.8 601.66,-68.01 611.89,-70.78 611.38,-63.8"/>
</a>
</g>
<text text-anchor="middle" x="991.5" y="-62" font-family="Helvetica,sans-Serif" font-size="10.00" fill="grey"> Pos</text>
</g>
<!-- Node19&#45;&gt;Node3 -->
<g id="edge23_Node000003_Node000019" class="edge">
<title>Node19&#45;&gt;Node3</title>
<g id="a_edge23_Node000003_Node000019"><a xlink:title=" ">
<path fill="none" stroke="#9a32cd" stroke-dasharray="5,2" d="M611.82,-70.06C653.41,-70.98 718.33,-75.3 734,-93 762.3,-124.95 727.56,-826.01 752,-861 759.19,-871.29 771.72,-876.97 783.35,-880.12"/>
<polygon fill="#9a32cd" stroke="#9a32cd" points="611.85,-66.56 601.8,-69.9 611.74,-73.56 611.85,-66.56"/>
</a>
</g>
<text text-anchor="middle" x="690.5" y="-107" font-family="Helvetica,sans-Serif" font-size="10.00" fill="grey"> SpawnPos</text>
<text text-anchor="middle" x="690.5" y="-96" font-family="Helvetica,sans-Serif" font-size="10.00" fill="grey">SpawnScale</text>
</g>
<!-- Node20 -->
<g id="Node000020" class="node">
<title>Node20</title>
<g id="a_Node000020"><a xlink:title=" ">
<polygon fill="white" stroke="#666666" points="379,-101.5 341,-101.5 341,-82.5 379,-82.5 379,-101.5"/>
<text text-anchor="middle" x="360" y="-89.5" font-family="Helvetica,sans-Serif" font-size="10.00">float</text>
</a>
</g>
</g>
<!-- Node20&#45;&gt;Node3 -->
<g id="edge27_Node000003_Node000020" class="edge">
<title>Node20&#45;&gt;Node3</title>
<g id="a_edge27_Node000003_Node000020"><a xlink:title=" ">
<path fill="none" stroke="#9a32cd" stroke-dasharray="5,2" d="M389.42,-98.55C428.39,-107.74 494.56,-124.23 503,-132 719.54,-331.57 658.12,-468.47 734,-753 746.54,-800.02 721.38,-823.18 752,-861 759.76,-870.58 772.07,-876.19 783.4,-879.46"/>
<polygon fill="#9a32cd" stroke="#9a32cd" points="389.76,-95.03 379.22,-96.16 388.16,-101.85 389.76,-95.03"/>
</a>
</g>
<text text-anchor="middle" x="575" y="-292" font-family="Helvetica,sans-Serif" font-size="10.00" fill="grey"> Speed</text>
</g>
<!-- Node20&#45;&gt;Node19 -->
<g id="edge24_Node000019_Node000020" class="edge">
<title>Node20&#45;&gt;Node19</title>
<g id="a_edge24_Node000019_Node000020"><a xlink:title=" ">
<path fill="none" stroke="#9a32cd" stroke-dasharray="5,2" d="M388.45,-79.71C397.65,-76.18 408.09,-72.8 418,-71 463.3,-62.77 517.23,-65.03 548.35,-67.48"/>
<polygon fill="#9a32cd" stroke="#9a32cd" points="386.98,-76.52 379.03,-83.53 389.61,-83.01 386.98,-76.52"/>
</a>
</g>
<text text-anchor="middle" x="460.5" y="-96" font-family="Helvetica,sans-Serif" font-size="10.00" fill="grey"> x</text>
<text text-anchor="middle" x="460.5" y="-85" font-family="Helvetica,sans-Serif" font-size="10.00" fill="grey">y</text>
<text text-anchor="middle" x="460.5" y="-74" font-family="Helvetica,sans-Serif" font-size="10.00" fill="grey">z</text>
</g>
<!-- Node21 -->
<g id="Node000021" class="node">
<title>Node21</title>
<g id="a_Node000021"><a xlink:href="structIRotator.html" target="_top" xlink:title=" ">
<polygon fill="white" stroke="#666666" points="603,-1114.5 547,-1114.5 547,-1095.5 603,-1095.5 603,-1114.5"/>
<text text-anchor="middle" x="575" y="-1102.5" font-family="Helvetica,sans-Serif" font-size="10.00">IRotator</text>
</a>
</g>
</g>
<!-- Node21&#45;&gt;Node3 -->
<g id="edge25_Node000003_Node000021" class="edge">
<title>Node21&#45;&gt;Node3</title>
<g id="a_edge25_Node000003_Node000021"><a xlink:title=" ">
<path fill="none" stroke="#9a32cd" stroke-dasharray="5,2" d="M613.38,-1102.73C649.95,-1098.38 704.36,-1085.87 734,-1050 769.19,-1007.41 723.54,-974.36 752,-927 760.89,-912.2 777.02,-900.92 790.1,-893.64"/>
<polygon fill="#9a32cd" stroke="#9a32cd" points="612.69,-1099.28 603.11,-1103.79 613.41,-1106.24 612.69,-1099.28"/>
</a>
</g>
<text text-anchor="middle" x="690.5" y="-1099" font-family="Helvetica,sans-Serif" font-size="10.00" fill="grey"> SpawnRot</text>
</g>
<!-- Node22 -->
<g id="Node000022" class="node">
<title>Node22</title>
<g id="a_Node000022"><a xlink:title=" ">
<polygon fill="white" stroke="#666666" points="388,-1114.5 332,-1114.5 332,-1095.5 388,-1095.5 388,-1114.5"/>
<text text-anchor="middle" x="360" y="-1102.5" font-family="Helvetica,sans-Serif" font-size="10.00">uint16_t</text>
</a>
</g>
</g>
<!-- Node22&#45;&gt;Node21 -->
<g id="edge26_Node000021_Node000022" class="edge">
<title>Node22&#45;&gt;Node21</title>
<g id="a_edge26_Node000021_Node000022"><a xlink:title=" ">
<path fill="none" stroke="#9a32cd" stroke-dasharray="5,2" d="M398.61,-1105C441.05,-1105 509.05,-1105 546.7,-1105"/>
<polygon fill="#9a32cd" stroke="#9a32cd" points="398.41,-1101.5 388.41,-1105 398.41,-1108.5 398.41,-1101.5"/>
</a>
</g>
<text text-anchor="middle" x="460.5" y="-1130" font-family="Helvetica,sans-Serif" font-size="10.00" fill="grey"> pitch</text>
<text text-anchor="middle" x="460.5" y="-1119" font-family="Helvetica,sans-Serif" font-size="10.00" fill="grey">roll</text>
<text text-anchor="middle" x="460.5" y="-1108" font-family="Helvetica,sans-Serif" font-size="10.00" fill="grey">yaw</text>
</g>
<!-- Node23 -->
<g id="Node000023" class="node">
<title>Node23</title>
<g id="a_Node000023"><a xlink:title=" ">
<polygon fill="white" stroke="#666666" points="629,-1001.5 521,-1001.5 521,-982.5 629,-982.5 629,-1001.5"/>
<text text-anchor="middle" x="575" y="-989.5" font-family="Helvetica,sans-Serif" font-size="10.00">vector&lt; Triangle &gt;</text>
</a>
</g>
</g>
<!-- Node23&#45;&gt;Node3 -->
<g id="edge28_Node000003_Node000023" class="edge">
<title>Node23&#45;&gt;Node3</title>
<g id="a_edge28_Node000003_Node000023"><a xlink:title=" ">
<path fill="none" stroke="#9a32cd" stroke-dasharray="5,2" d="M639.67,-995.47C670.91,-994.03 707.43,-987.3 734,-967 749.49,-955.16 739.74,-942.16 752,-927 763.33,-912.98 780.26,-901.21 792.99,-893.54"/>
<polygon fill="#9a32cd" stroke="#9a32cd" points="639.2,-991.99 629.3,-995.77 639.4,-998.98 639.2,-991.99"/>
</a>
</g>
<text text-anchor="middle" x="690.5" y="-997" font-family="Helvetica,sans-Serif" font-size="10.00" fill="grey"> Triangles</text>
</g>
<!-- Node24 -->
<g id="Node000024" class="node">
<title>Node24</title>
<g id="a_Node000024"><a xlink:title=" ">
<polygon fill="white" stroke="#666666" points="834,-954.5 789,-954.5 789,-935.5 834,-935.5 834,-954.5"/>
<text text-anchor="middle" x="811.5" y="-942.5" font-family="Helvetica,sans-Serif" font-size="10.00">size_t</text>
</a>
</g>
</g>
<!-- Node24&#45;&gt;Node2 -->
<g id="edge30_Node000002_Node000024" class="edge">
<title>Node24&#45;&gt;Node2</title>
<g id="a_edge30_Node000002_Node000024"><a xlink:title=" ">
<path fill="none" stroke="#9a32cd" stroke-dasharray="5,2" d="M844.61,-945.55C869.42,-945.53 904.56,-944.53 935,-940 1003.13,-929.87 1018.81,-920.08 1085,-901 1090.74,-899.35 1096.9,-897.45 1102.65,-895.64"/>
<polygon fill="#9a32cd" stroke="#9a32cd" points="844.33,-942.05 834.32,-945.51 844.3,-949.05 844.33,-942.05"/>
</a>
</g>
<text text-anchor="middle" x="991.5" y="-950" font-family="Helvetica,sans-Serif" font-size="10.00" fill="grey"> _count</text>
<text text-anchor="middle" x="991.5" y="-939" font-family="Helvetica,sans-Serif" font-size="10.00" fill="grey">_idx</text>
</g>
<!-- Node24&#45;&gt;Node25 -->
<g id="edge34_Node000025_Node000024" class="edge">
<title>Node24&#45;&gt;Node25</title>
<g id="a_edge34_Node000025_Node000024"><a xlink:title=" ">
<path fill="none" stroke="#9a32cd" stroke-dasharray="5,2" d="M839.64,-930.68C864.48,-917.55 902.25,-897.54 935,-880 947.55,-873.28 961.67,-865.65 972.52,-859.76"/>
<polygon fill="#9a32cd" stroke="#9a32cd" points="837.99,-927.59 830.79,-935.35 841.26,-933.78 837.99,-927.59"/>
</a>
</g>
<text text-anchor="middle" x="912" y="-928" font-family="Helvetica,sans-Serif" font-size="10.00" fill="grey"> _count</text>
<text text-anchor="middle" x="912" y="-917" font-family="Helvetica,sans-Serif" font-size="10.00" fill="grey">_idx</text>
<text text-anchor="middle" x="912" y="-906" font-family="Helvetica,sans-Serif" font-size="10.00" fill="grey">_tickRate</text>
</g>
<!-- Node25&#45;&gt;Node2 -->
<g id="edge31_Node000002_Node000025" class="edge">
<title>Node25&#45;&gt;Node2</title>
<g id="a_edge31_Node000002_Node000025"><a xlink:title=" ">
<path fill="none" stroke="#9a32cd" stroke-dasharray="5,2" d="M1040.58,-853C1055.15,-854.9 1070.99,-857.99 1085,-863 1095.2,-866.65 1105.62,-873.04 1113.4,-878.45"/>
<polygon fill="#9a32cd" stroke="#9a32cd" points="1040.57,-849.48 1030.24,-851.81 1039.78,-856.43 1040.57,-849.48"/>
</a>
</g>
<text text-anchor="middle" x="1066.5" y="-866" font-family="Helvetica,sans-Serif" font-size="10.00" fill="grey"> _group</text>
</g>
<!-- Node26 -->
<g id="Node000026" class="node">
<title>Node26</title>
<g id="a_Node000026"><a xlink:title=" ">
<polygon fill="white" stroke="#666666" points="871,-852 752,-852 752,-822 871,-822 871,-852"/>
<text text-anchor="start" x="760" y="-840" font-family="Helvetica,sans-Serif" font-size="10.00">vector&lt; OMoleGroup</text>
<text text-anchor="middle" x="811.5" y="-829" font-family="Helvetica,sans-Serif" font-size="10.00">::MoleEntry &gt;</text>
</a>
</g>
</g>
<!-- Node26&#45;&gt;Node25 -->
<g id="edge33_Node000025_Node000026" class="edge">
<title>Node26&#45;&gt;Node25</title>
<g id="a_edge33_Node000025_Node000026"><a xlink:title=" ">
<path fill="none" stroke="#9a32cd" stroke-dasharray="5,2" d="M881.37,-835.09C898.9,-835.28 917.68,-836.08 935,-838 940.78,-838.64 946.84,-839.62 952.75,-840.76"/>
<polygon fill="#9a32cd" stroke="#9a32cd" points="881.23,-831.59 871.22,-835.04 881.2,-838.59 881.23,-831.59"/>
</a>
</g>
<text text-anchor="middle" x="912" y="-841" font-family="Helvetica,sans-Serif" font-size="10.00" fill="grey"> _moles</text>
</g>
</g>
</svg>

<g id="navigator" transform="translate(0 0)" fill="#404254">
  <rect fill="#f2f5e9" fill-opacity="0.5" stroke="#606060" stroke-width=".5" x="0" y="0" width="60" height="60"/>
  <use id="zoomplus" xlink:href="#zoomPlus" x="17" y="9" onmousedown="handleZoom(evt,'in')"/>
  <use id="zoomminus" xlink:href="#zoomMin" x="42" y="9" onmousedown="handleZoom(evt,'out')"/>
  <use id="reset" xlink:href="#resetDef" x="30" y="36" onmousedown="handleReset()"/>
   <use id="arrowup" xlink:href="#arrowUp" x="0" y="0" onmousedown="handlePan(0,-1)"/>
  <use id="arrowright" xlink:href="#arrowRight" x="0" y="0" onmousedown="handlePan(1,0)"/>
  <use id="arrowdown" xlink:href="#arrowDown" x="0" y="0" onmousedown="handlePan(0,1)"/>
  <use id="arrowleft" xlink:href="#arrowLeft" x="0" y="0" onmousedown="handlePan(-1,0)"/>
</g>
<svg viewBox="0 0 15 15" width="100%" height="30px" preserveAspectRatio="xMaxYMin meet">
 <g id="arrow_out" transform="scale(0.3 0.3)">
  <a xlink:href="structOMoleGroup_1_1MoleEntry__coll__graph_org.svg" target="_base">
   <rect id="button" ry="5" rx="5" y="6" x="6" height="38" width="38"
        fill="#f2f5e9" fill-opacity="0.5" stroke="#606060" stroke-width="1.0"/>
   <path id="arrow"
     d="M 11.500037,31.436501 C 11.940474,20.09759 22.043105,11.32322 32.158766,21.979434 L 37.068811,17.246167 C 37.068811,17.246167 37.088388,32 37.088388,32 L 22.160133,31.978069 C 22.160133,31.978069 26.997745,27.140456 26.997745,27.140456 C 18.528582,18.264221 13.291696,25.230495 11.500037,31.436501 z"
     style="fill:#404040;"/>
  </a>
 </g>
</svg>

<style type='text/css'>
<![CDATA[
[data-mouse-over-selected='false'] { opacity: 0.7; }
[data-mouse-over-selected='true']  { opacity: 1.0; }
]]>
</style>
<script type="application/ecmascript"><![CDATA[
document.addEventListener('DOMContentLoaded', (event) => {
  highlightEdges();
  highlightAdjacentNodes();
});
]]></script>
</svg>
