<?xml version="1.0" encoding="UTF-8" standalone="no"?>
<!DOCTYPE svg PUBLIC "-//W3C//DTD SVG 1.1//EN"
 "http://www.w3.org/Graphics/SVG/1.1/DTD/svg11.dtd">
<!-- Generated by graphviz version 2.43.0 (0)
 -->
<!-- Title: UIWidgets::WidgetOptions Pages: 1 -->
<svg width="352pt" height="175pt"
 viewBox="0.00 0.00 352.00 175.00" xmlns="http://www.w3.org/2000/svg" xmlns:xlink="http://www.w3.org/1999/xlink">
<g id="graph0" class="graph" transform="scale(1 1) rotate(0) translate(4 171)">
<title>UIWidgets::WidgetOptions</title>
<!-- Node1 -->
<g id="Node000001" class="node">
<title>Node1</title>
<g id="a_Node000001"><a xlink:title=" ">
<polygon fill="#999999" stroke="#666666" points="145,-93 0,-93 0,-74 145,-74 145,-93"/>
<text text-anchor="middle" x="72.5" y="-81" font-family="Helvetica,sans-Serif" font-size="10.00">UIWidgets::WidgetOptions</text>
</a>
</g>
</g>
<!-- Node2 -->
<g id="Node000002" class="node">
<title>Node2</title>
<g id="a_Node000002"><a xlink:href="structUIWidgets_1_1ButtonOptions.html" target="_top" xlink:title=" ">
<polygon fill="white" stroke="#666666" points="334,-167 191,-167 191,-148 334,-148 334,-167"/>
<text text-anchor="middle" x="262.5" y="-155" font-family="Helvetica,sans-Serif" font-size="10.00">UIWidgets::ButtonOptions</text>
</a>
</g>
</g>
<!-- Node1&#45;&gt;Node2 -->
<g id="edge1_Node000001_Node000002" class="edge">
<title>Node1&#45;&gt;Node2</title>
<g id="a_edge1_Node000001_Node000002"><a xlink:title=" ">
<path fill="none" stroke="#63b8ff" d="M97.61,-98.39C118.87,-110.94 151.04,-128.56 181,-139.5 190.01,-142.79 199.82,-145.59 209.39,-147.94"/>
<polygon fill="#63b8ff" stroke="#63b8ff" points="99.31,-95.33 88.94,-93.19 95.71,-101.33 99.31,-95.33"/>
</a>
</g>
</g>
<!-- Node3 -->
<g id="Node000003" class="node">
<title>Node3</title>
<g id="a_Node000003"><a xlink:href="structUIWidgets_1_1CheckboxOptions.html" target="_top" xlink:title=" ">
<polygon fill="white" stroke="#666666" points="341.5,-130 183.5,-130 183.5,-111 341.5,-111 341.5,-130"/>
<text text-anchor="middle" x="262.5" y="-118" font-family="Helvetica,sans-Serif" font-size="10.00">UIWidgets::CheckboxOptions</text>
</a>
</g>
</g>
<!-- Node1&#45;&gt;Node3 -->
<g id="edge2_Node000001_Node000003" class="edge">
<title>Node1&#45;&gt;Node3</title>
<g id="a_edge2_Node000001_Node000003"><a xlink:title=" ">
<path fill="none" stroke="#63b8ff" d="M132.01,-95.02C158,-100.13 188.22,-106.08 212.92,-110.94"/>
<polygon fill="#63b8ff" stroke="#63b8ff" points="132.4,-91.53 121.91,-93.03 131.05,-98.39 132.4,-91.53"/>
</a>
</g>
</g>
<!-- Node4 -->
<g id="Node000004" class="node">
<title>Node4</title>
<g id="a_Node000004"><a xlink:href="structUIWidgets_1_1ComboboxOptions.html" target="_top" xlink:title=" ">
<polygon fill="white" stroke="#666666" points="344,-93 181,-93 181,-74 344,-74 344,-93"/>
<text text-anchor="middle" x="262.5" y="-81" font-family="Helvetica,sans-Serif" font-size="10.00">UIWidgets::ComboboxOptions</text>
</a>
</g>
</g>
<!-- Node1&#45;&gt;Node4 -->
<g id="edge3_Node000001_Node000004" class="edge">
<title>Node1&#45;&gt;Node4</title>
<g id="a_edge3_Node000001_Node000004"><a xlink:title=" ">
<path fill="none" stroke="#63b8ff" d="M155.38,-83.5C163.88,-83.5 172.5,-83.5 180.98,-83.5"/>
<polygon fill="#63b8ff" stroke="#63b8ff" points="155.11,-80 145.11,-83.5 155.11,-87 155.11,-80"/>
</a>
</g>
</g>
<!-- Node5 -->
<g id="Node000005" class="node">
<title>Node5</title>
<g id="a_Node000005"><a xlink:href="structUIWidgets_1_1FloatSliderOptions.html" target="_top" xlink:title=" ">
<polygon fill="white" stroke="#666666" points="344,-56 181,-56 181,-37 344,-37 344,-56"/>
<text text-anchor="middle" x="262.5" y="-44" font-family="Helvetica,sans-Serif" font-size="10.00">UIWidgets::FloatSliderOptions</text>
</a>
</g>
</g>
<!-- Node1&#45;&gt;Node5 -->
<g id="edge4_Node000001_Node000005" class="edge">
<title>Node1&#45;&gt;Node5</title>
<g id="a_edge4_Node000001_Node000005"><a xlink:title=" ">
<path fill="none" stroke="#63b8ff" d="M132.01,-71.98C158,-66.87 188.22,-60.92 212.92,-56.06"/>
<polygon fill="#63b8ff" stroke="#63b8ff" points="131.05,-68.61 121.91,-73.97 132.4,-75.47 131.05,-68.61"/>
</a>
</g>
</g>
<!-- Node6 -->
<g id="Node000006" class="node">
<title>Node6</title>
<g id="a_Node000006"><a xlink:href="structUIWidgets_1_1IntSliderOptions.html" target="_top" xlink:title=" ">
<polygon fill="white" stroke="#666666" points="338,-19 187,-19 187,0 338,0 338,-19"/>
<text text-anchor="middle" x="262.5" y="-7" font-family="Helvetica,sans-Serif" font-size="10.00">UIWidgets::IntSliderOptions</text>
</a>
</g>
</g>
<!-- Node1&#45;&gt;Node6 -->
<g id="edge5_Node000001_Node000006" class="edge">
<title>Node1&#45;&gt;Node6</title>
<g id="a_edge5_Node000001_Node000006"><a xlink:title=" ">
<path fill="none" stroke="#63b8ff" d="M98.05,-68.77C119.35,-56.53 151.35,-39.4 181,-28.5 190.97,-24.83 201.91,-21.7 212.41,-19.09"/>
<polygon fill="#63b8ff" stroke="#63b8ff" points="96.22,-65.79 89.34,-73.85 99.74,-71.84 96.22,-65.79"/>
</a>
</g>
</g>
</g>
</svg>
