<?xml version="1.0" encoding="UTF-8" standalone="no"?>
<!DOCTYPE svg PUBLIC "-//W3C//DTD SVG 1.1//EN"
 "http://www.w3.org/Graphics/SVG/1.1/DTD/svg11.dtd">
<!-- Generated by graphviz version 2.43.0 (0)
 -->
<!-- Title: ma_decoding_backend_vtable Pages: 1 -->
<svg width="497pt" height="462pt"
 viewBox="0.00 0.00 497.00 462.00" xmlns="http://www.w3.org/2000/svg" xmlns:xlink="http://www.w3.org/1999/xlink">
<g id="graph0" class="graph" transform="scale(1 1) rotate(0) translate(4 458)">
<title>ma_decoding_backend_vtable</title>
<!-- Node1 -->
<g id="Node000001" class="node">
<title>Node1</title>
<g id="a_Node000001"><a xlink:title=" ">
<polygon fill="#999999" stroke="#666666" points="489,-226 361,-226 361,-196 489,-196 489,-226"/>
<text text-anchor="start" x="369" y="-214" font-family="Helvetica,sans-Serif" font-size="10.00">ma_decoding_backend</text>
<text text-anchor="middle" x="425" y="-203" font-family="Helvetica,sans-Serif" font-size="10.00">_vtable</text>
</a>
</g>
</g>
<!-- Node2 -->
<g id="Node000002" class="node">
<title>Node2</title>
<g id="a_Node000002"><a xlink:title=" ">
<polygon fill="white" stroke="#666666" points="253,-454 0,-454 0,-358 253,-358 253,-454"/>
<text text-anchor="start" x="8" y="-442" font-family="Helvetica,sans-Serif" font-size="10.00">ma_result(*)(void *pUser</text>
<text text-anchor="start" x="8" y="-431" font-family="Helvetica,sans-Serif" font-size="10.00">Data, ma_read_proc onRead,</text>
<text text-anchor="start" x="8" y="-420" font-family="Helvetica,sans-Serif" font-size="10.00"> ma_seek_proc onSeek, ma</text>
<text text-anchor="start" x="8" y="-409" font-family="Helvetica,sans-Serif" font-size="10.00">_tell_proc onTell, void *pReadSeek</text>
<text text-anchor="start" x="8" y="-398" font-family="Helvetica,sans-Serif" font-size="10.00">TellUserData, const ma_decoding</text>
<text text-anchor="start" x="8" y="-387" font-family="Helvetica,sans-Serif" font-size="10.00">_backend_config *pConfig, const</text>
<text text-anchor="start" x="8" y="-376" font-family="Helvetica,sans-Serif" font-size="10.00"> ma_allocation_callbacks *pAllocationCallbacks,</text>
<text text-anchor="middle" x="126.5" y="-365" font-family="Helvetica,sans-Serif" font-size="10.00"> ma_data_source **ppBackend)</text>
</a>
</g>
</g>
<!-- Node2&#45;&gt;Node1 -->
<g id="edge1_Node000001_Node000002" class="edge">
<title>Node2&#45;&gt;Node1</title>
<g id="a_edge1_Node000001_Node000002"><a xlink:title=" ">
<path fill="none" stroke="#9a32cd" stroke-dasharray="5,2" d="M246.96,-352.64C249,-351.44 251.01,-350.22 253,-349 314.69,-310.95 379,-253.36 408.06,-226.2"/>
<polygon fill="#9a32cd" stroke="#9a32cd" points="244.8,-349.84 237.85,-357.84 248.27,-355.92 244.8,-349.84"/>
</a>
</g>
<text text-anchor="middle" x="307" y="-339" font-family="Helvetica,sans-Serif" font-size="10.00" fill="grey"> onInit</text>
</g>
<!-- Node3 -->
<g id="Node000003" class="node">
<title>Node3</title>
<g id="a_Node000003"><a xlink:title=" ">
<polygon fill="white" stroke="#666666" points="243.5,-340 9.5,-340 9.5,-266 243.5,-266 243.5,-340"/>
<text text-anchor="start" x="17.5" y="-328" font-family="Helvetica,sans-Serif" font-size="10.00">ma_result(*)(void *pUser</text>
<text text-anchor="start" x="17.5" y="-317" font-family="Helvetica,sans-Serif" font-size="10.00">Data, const char *pFilePath,</text>
<text text-anchor="start" x="17.5" y="-306" font-family="Helvetica,sans-Serif" font-size="10.00"> const ma_decoding_backend</text>
<text text-anchor="start" x="17.5" y="-295" font-family="Helvetica,sans-Serif" font-size="10.00">_config *pConfig, const ma</text>
<text text-anchor="start" x="17.5" y="-284" font-family="Helvetica,sans-Serif" font-size="10.00">_allocation_callbacks *pAllocationCallbacks,</text>
<text text-anchor="middle" x="126.5" y="-273" font-family="Helvetica,sans-Serif" font-size="10.00"> ma_data_source **ppBackend)</text>
</a>
</g>
</g>
<!-- Node3&#45;&gt;Node1 -->
<g id="edge2_Node000001_Node000003" class="edge">
<title>Node3&#45;&gt;Node1</title>
<g id="a_edge2_Node000001_Node000003"><a xlink:title=" ">
<path fill="none" stroke="#9a32cd" stroke-dasharray="5,2" d="M253.54,-263.89C296.55,-250.55 342.1,-236.41 375.29,-226.11"/>
<polygon fill="#9a32cd" stroke="#9a32cd" points="252.35,-260.6 243.83,-266.9 254.42,-267.28 252.35,-260.6"/>
</a>
</g>
<text text-anchor="middle" x="307" y="-260" font-family="Helvetica,sans-Serif" font-size="10.00" fill="grey"> onInitFile</text>
</g>
<!-- Node4 -->
<g id="Node000004" class="node">
<title>Node4</title>
<g id="a_Node000004"><a xlink:title=" ">
<polygon fill="white" stroke="#666666" points="226.5,-248 26.5,-248 26.5,-174 226.5,-174 226.5,-248"/>
<text text-anchor="start" x="34.5" y="-236" font-family="Helvetica,sans-Serif" font-size="10.00">ma_result(*)(void *pUser</text>
<text text-anchor="start" x="34.5" y="-225" font-family="Helvetica,sans-Serif" font-size="10.00">Data, const wchar_t *pFilePath,</text>
<text text-anchor="start" x="34.5" y="-214" font-family="Helvetica,sans-Serif" font-size="10.00"> const ma_decoding_backend</text>
<text text-anchor="start" x="34.5" y="-203" font-family="Helvetica,sans-Serif" font-size="10.00">_config *pConfig, const ma_allocation</text>
<text text-anchor="start" x="34.5" y="-192" font-family="Helvetica,sans-Serif" font-size="10.00">_callbacks *pAllocationCallbacks,</text>
<text text-anchor="middle" x="126.5" y="-181" font-family="Helvetica,sans-Serif" font-size="10.00"> ma_data_source **ppBackend)</text>
</a>
</g>
</g>
<!-- Node4&#45;&gt;Node1 -->
<g id="edge3_Node000001_Node000004" class="edge">
<title>Node4&#45;&gt;Node1</title>
<g id="a_edge3_Node000001_Node000004"><a xlink:title=" ">
<path fill="none" stroke="#9a32cd" stroke-dasharray="5,2" d="M236.87,-211C278.6,-211 324.75,-211 360.78,-211"/>
<polygon fill="#9a32cd" stroke="#9a32cd" points="236.64,-207.5 226.64,-211 236.64,-214.5 236.64,-207.5"/>
</a>
</g>
<text text-anchor="middle" x="307" y="-214" font-family="Helvetica,sans-Serif" font-size="10.00" fill="grey"> onInitFileW</text>
</g>
<!-- Node5 -->
<g id="Node000005" class="node">
<title>Node5</title>
<g id="a_Node000005"><a xlink:title=" ">
<polygon fill="white" stroke="#666666" points="217,-155.5 36,-155.5 36,-70.5 217,-70.5 217,-155.5"/>
<text text-anchor="start" x="44" y="-143.5" font-family="Helvetica,sans-Serif" font-size="10.00">ma_result(*)(void *pUser</text>
<text text-anchor="start" x="44" y="-132.5" font-family="Helvetica,sans-Serif" font-size="10.00">Data, const void *pData,</text>
<text text-anchor="start" x="44" y="-121.5" font-family="Helvetica,sans-Serif" font-size="10.00"> size_t dataSize, const</text>
<text text-anchor="start" x="44" y="-110.5" font-family="Helvetica,sans-Serif" font-size="10.00"> ma_decoding_backend_config</text>
<text text-anchor="start" x="44" y="-99.5" font-family="Helvetica,sans-Serif" font-size="10.00"> *pConfig, const ma_allocation</text>
<text text-anchor="start" x="44" y="-88.5" font-family="Helvetica,sans-Serif" font-size="10.00">_callbacks *pAllocationCallbacks,</text>
<text text-anchor="middle" x="126.5" y="-77.5" font-family="Helvetica,sans-Serif" font-size="10.00"> ma_data_source **ppBackend)</text>
</a>
</g>
</g>
<!-- Node5&#45;&gt;Node1 -->
<g id="edge4_Node000001_Node000005" class="edge">
<title>Node5&#45;&gt;Node1</title>
<g id="a_edge4_Node000001_Node000005"><a xlink:title=" ">
<path fill="none" stroke="#9a32cd" stroke-dasharray="5,2" d="M227.05,-145.9C278.25,-162.83 338.17,-182.63 378.35,-195.91"/>
<polygon fill="#9a32cd" stroke="#9a32cd" points="227.86,-142.48 217.26,-142.67 225.66,-149.13 227.86,-142.48"/>
</a>
</g>
<text text-anchor="middle" x="307" y="-185" font-family="Helvetica,sans-Serif" font-size="10.00" fill="grey"> onInitMemory</text>
</g>
<!-- Node6 -->
<g id="Node000006" class="node">
<title>Node6</title>
<g id="a_Node000006"><a xlink:title=" ">
<polygon fill="white" stroke="#666666" points="211,-52 42,-52 42,0 211,0 211,-52"/>
<text text-anchor="start" x="50" y="-40" font-family="Helvetica,sans-Serif" font-size="10.00">void(*)(void *pUserData,</text>
<text text-anchor="start" x="50" y="-29" font-family="Helvetica,sans-Serif" font-size="10.00"> ma_data_source *pBackend,</text>
<text text-anchor="start" x="50" y="-18" font-family="Helvetica,sans-Serif" font-size="10.00"> const ma_allocation_callbacks</text>
<text text-anchor="middle" x="126.5" y="-7" font-family="Helvetica,sans-Serif" font-size="10.00"> *pAllocationCallbacks)</text>
</a>
</g>
</g>
<!-- Node6&#45;&gt;Node1 -->
<g id="edge5_Node000001_Node000006" class="edge">
<title>Node6&#45;&gt;Node1</title>
<g id="a_edge5_Node000001_Node000006"><a xlink:title=" ">
<path fill="none" stroke="#9a32cd" stroke-dasharray="5,2" d="M220.99,-47.83C232.07,-51.86 242.99,-56.56 253,-62 320.46,-98.68 384.36,-165.93 410.99,-195.9"/>
<polygon fill="#9a32cd" stroke="#9a32cd" points="221.82,-44.42 211.22,-44.46 219.53,-51.03 221.82,-44.42"/>
</a>
</g>
<text text-anchor="middle" x="307" y="-130" font-family="Helvetica,sans-Serif" font-size="10.00" fill="grey"> onUninit</text>
</g>
</g>
</svg>
