<?xml version="1.0" encoding="UTF-8" standalone="no"?>
<!DOCTYPE svg PUBLIC "-//W3C//DTD SVG 1.1//EN"
 "http://www.w3.org/Graphics/SVG/1.1/DTD/svg11.dtd">
<!-- Generated by graphviz version 2.43.0 (0)
 -->
<!-- Title: World::Matrix Pages: 1 -->
<svg width="391pt" height="104pt"
 viewBox="0.00 0.00 390.50 104.00" xmlns="http://www.w3.org/2000/svg" xmlns:xlink="http://www.w3.org/1999/xlink">
<g id="graph0" class="graph" transform="scale(1 1) rotate(0) translate(4 100)">
<title>World::Matrix</title>
<!-- Node1 -->
<g id="Node000001" class="node">
<title>Node1</title>
<g id="a_Node000001"><a xlink:title=" ">
<polygon fill="#999999" stroke="#666666" points="201.5,-19 119.5,-19 119.5,0 201.5,0 201.5,-19"/>
<text text-anchor="middle" x="160.5" y="-7" font-family="Helvetica,sans-Serif" font-size="10.00">World::Matrix</text>
</a>
</g>
</g>
<!-- Node2 -->
<g id="Node000002" class="node">
<title>Node2</title>
<g id="a_Node000002"><a xlink:title=" ">
<polygon fill="white" stroke="#666666" points="35,-96 0,-96 0,-77 35,-77 35,-96"/>
<text text-anchor="middle" x="17.5" y="-84" font-family="Helvetica,sans-Serif" font-size="10.00">Mtx</text>
</a>
</g>
</g>
<!-- Node2&#45;&gt;Node1 -->
<g id="edge1_Node000001_Node000002" class="edge">
<title>Node2&#45;&gt;Node1</title>
<g id="a_edge1_Node000001_Node000002"><a xlink:title=" ">
<path fill="none" stroke="#9a32cd" stroke-dasharray="5,2" d="M32.21,-69.31C42.56,-58.78 57.25,-45.48 72.5,-37 86.86,-29.01 103.91,-23.16 119.16,-19.02"/>
<polygon fill="#9a32cd" stroke="#9a32cd" points="29.54,-67.04 25.2,-76.7 34.62,-71.86 29.54,-67.04"/>
</a>
</g>
<text text-anchor="middle" x="96" y="-51" font-family="Helvetica,sans-Serif" font-size="10.00" fill="grey"> Ortho</text>
<text text-anchor="middle" x="96" y="-40" font-family="Helvetica,sans-Serif" font-size="10.00" fill="grey">Screen2D</text>
</g>
<!-- Node3 -->
<g id="Node000003" class="node">
<title>Node3</title>
<g id="a_Node000003"><a xlink:title=" ">
<polygon fill="white" stroke="#666666" points="148,-96 53,-96 53,-77 148,-77 148,-96"/>
<text text-anchor="middle" x="100.5" y="-84" font-family="Helvetica,sans-Serif" font-size="10.00">array&lt; Mtx, 5 &gt;</text>
</a>
</g>
</g>
<!-- Node3&#45;&gt;Node1 -->
<g id="edge2_Node000001_Node000003" class="edge">
<title>Node3&#45;&gt;Node1</title>
<g id="a_edge2_Node000001_Node000003"><a xlink:title=" ">
<path fill="none" stroke="#9a32cd" stroke-dasharray="5,2" d="M113.92,-68.73C126.26,-53.3 144.07,-31.04 153.7,-19"/>
<polygon fill="#9a32cd" stroke="#9a32cd" points="110.9,-66.9 107.38,-76.9 116.36,-71.27 110.9,-66.9"/>
</a>
</g>
<text text-anchor="middle" x="157" y="-51" font-family="Helvetica,sans-Serif" font-size="10.00" fill="grey"> LookAt</text>
<text text-anchor="middle" x="157" y="-40" font-family="Helvetica,sans-Serif" font-size="10.00" fill="grey">Persp</text>
</g>
<!-- Node4 -->
<g id="Node000004" class="node">
<title>Node4</title>
<g id="a_Node000004"><a xlink:title=" ">
<polygon fill="white" stroke="#666666" points="276.5,-96 166.5,-96 166.5,-77 276.5,-77 276.5,-96"/>
<text text-anchor="middle" x="221.5" y="-84" font-family="Helvetica,sans-Serif" font-size="10.00">array&lt; Mtx, 8 *4 &gt;</text>
</a>
</g>
</g>
<!-- Node4&#45;&gt;Node1 -->
<g id="edge3_Node000001_Node000004" class="edge">
<title>Node4&#45;&gt;Node1</title>
<g id="a_edge3_Node000001_Node000004"><a xlink:title=" ">
<path fill="none" stroke="#9a32cd" stroke-dasharray="5,2" d="M207.86,-68.73C195.31,-53.3 177.21,-31.04 167.42,-19"/>
<polygon fill="#9a32cd" stroke="#9a32cd" points="205.48,-71.35 214.5,-76.9 210.91,-66.93 205.48,-71.35"/>
</a>
</g>
<text text-anchor="middle" x="219.5" y="-51" font-family="Helvetica,sans-Serif" font-size="10.00" fill="grey"> Karts</text>
<text text-anchor="middle" x="219.5" y="-40" font-family="Helvetica,sans-Serif" font-size="10.00" fill="grey">Shadows</text>
</g>
<!-- Node5 -->
<g id="Node000005" class="node">
<title>Node5</title>
<g id="a_Node000005"><a xlink:title=" ">
<polygon fill="white" stroke="#666666" points="382.5,-96 294.5,-96 294.5,-77 382.5,-77 382.5,-96"/>
<text text-anchor="middle" x="338.5" y="-84" font-family="Helvetica,sans-Serif" font-size="10.00">deque&lt; Mtx &gt;</text>
</a>
</g>
</g>
<!-- Node5&#45;&gt;Node1 -->
<g id="edge4_Node000001_Node000005" class="edge">
<title>Node5&#45;&gt;Node1</title>
<g id="a_edge4_Node000001_Node000005"><a xlink:title=" ">
<path fill="none" stroke="#9a32cd" stroke-dasharray="5,2" d="M315.21,-71.87C296.73,-61.42 270.01,-47.12 245.5,-37 228.5,-29.98 208.93,-23.76 192.87,-19.12"/>
<polygon fill="#9a32cd" stroke="#9a32cd" points="313.65,-75.01 324.07,-76.94 317.13,-68.93 313.65,-75.01"/>
</a>
</g>
<text text-anchor="middle" x="308" y="-51" font-family="Helvetica,sans-Serif" font-size="10.00" fill="grey"> Hud</text>
<text text-anchor="middle" x="308" y="-40" font-family="Helvetica,sans-Serif" font-size="10.00" fill="grey">Objects</text>
</g>
</g>
</svg>
