<?xml version="1.0" encoding="UTF-8" standalone="no"?>
<!DOCTYPE svg PUBLIC "-//W3C//DTD SVG 1.1//EN"
 "http://www.w3.org/Graphics/SVG/1.1/DTD/svg11.dtd">
<!-- Generated by graphviz version 2.43.0 (0)
 -->
<!-- Title: ma_semaphore Pages: 1 -->
<svg width="266pt" height="93pt"
 viewBox="0.00 0.00 265.50 93.00" xmlns="http://www.w3.org/2000/svg" xmlns:xlink="http://www.w3.org/1999/xlink">
<g id="graph0" class="graph" transform="scale(1 1) rotate(0) translate(4 89)">
<title>ma_semaphore</title>
<!-- Node1 -->
<g id="Node000001" class="node">
<title>Node1</title>
<g id="a_Node000001"><a xlink:title=" ">
<polygon fill="#999999" stroke="#666666" points="143.5,-19 51.5,-19 51.5,0 143.5,0 143.5,-19"/>
<text text-anchor="middle" x="97.5" y="-7" font-family="Helvetica,sans-Serif" font-size="10.00">ma_semaphore</text>
</a>
</g>
</g>
<!-- Node2 -->
<g id="Node000002" class="node">
<title>Node2</title>
<g id="a_Node000002"><a xlink:title=" ">
<polygon fill="white" stroke="#666666" points="29,-85 0,-85 0,-66 29,-66 29,-85"/>
<text text-anchor="middle" x="14.5" y="-73" font-family="Helvetica,sans-Serif" font-size="10.00">int</text>
</a>
</g>
</g>
<!-- Node2&#45;&gt;Node1 -->
<g id="edge1_Node000001_Node000002" class="edge">
<title>Node2&#45;&gt;Node1</title>
<g id="a_edge1_Node000001_Node000002"><a xlink:title=" ">
<path fill="none" stroke="#9a32cd" stroke-dasharray="5,2" d="M33.6,-59.47C42.38,-52.59 52.94,-44.35 62.5,-37 70.35,-30.96 79.26,-24.22 86.12,-19.05"/>
<polygon fill="#9a32cd" stroke="#9a32cd" points="31.23,-56.89 25.52,-65.81 35.55,-62.39 31.23,-56.89"/>
</a>
</g>
<text text-anchor="middle" x="78" y="-40" font-family="Helvetica,sans-Serif" font-size="10.00" fill="grey"> value</text>
</g>
<!-- Node3 -->
<g id="Node000003" class="node">
<title>Node3</title>
<g id="a_Node000003"><a xlink:title=" ">
<polygon fill="white" stroke="#666666" points="147.5,-85 47.5,-85 47.5,-66 147.5,-66 147.5,-85"/>
<text text-anchor="middle" x="97.5" y="-73" font-family="Helvetica,sans-Serif" font-size="10.00">pthread_mutex_t</text>
</a>
</g>
</g>
<!-- Node3&#45;&gt;Node1 -->
<g id="edge2_Node000001_Node000003" class="edge">
<title>Node3&#45;&gt;Node1</title>
<g id="a_edge2_Node000001_Node000003"><a xlink:title=" ">
<path fill="none" stroke="#9a32cd" stroke-dasharray="5,2" d="M97.5,-55.58C97.5,-43.63 97.5,-28.72 97.5,-19.41"/>
<polygon fill="#9a32cd" stroke="#9a32cd" points="94,-55.87 97.5,-65.87 101,-55.87 94,-55.87"/>
</a>
</g>
<text text-anchor="middle" x="109.5" y="-40" font-family="Helvetica,sans-Serif" font-size="10.00" fill="grey"> lock</text>
</g>
<!-- Node4 -->
<g id="Node000004" class="node">
<title>Node4</title>
<g id="a_Node000004"><a xlink:title=" ">
<polygon fill="white" stroke="#666666" points="257.5,-85 165.5,-85 165.5,-66 257.5,-66 257.5,-85"/>
<text text-anchor="middle" x="211.5" y="-73" font-family="Helvetica,sans-Serif" font-size="10.00">pthread_cond_t</text>
</a>
</g>
</g>
<!-- Node4&#45;&gt;Node1 -->
<g id="edge3_Node000001_Node000004" class="edge">
<title>Node4&#45;&gt;Node1</title>
<g id="a_edge3_Node000001_Node000004"><a xlink:title=" ">
<path fill="none" stroke="#9a32cd" stroke-dasharray="5,2" d="M187.2,-60.86C164.76,-48.26 132.09,-29.92 113,-19.2"/>
<polygon fill="#9a32cd" stroke="#9a32cd" points="185.69,-64.03 196.13,-65.87 189.12,-57.92 185.69,-64.03"/>
</a>
</g>
<text text-anchor="middle" x="174" y="-40" font-family="Helvetica,sans-Serif" font-size="10.00" fill="grey"> cond</text>
</g>
</g>
</svg>
