<?xml version="1.0" encoding="UTF-8" standalone="no"?>
<!DOCTYPE svg PUBLIC "-//W3C//DTD SVG 1.1//EN"
 "http://www.w3.org/Graphics/SVG/1.1/DTD/svg11.dtd">
<!-- Generated by graphviz version 2.43.0 (0)
 -->
<!-- Title: ma_audio_buffer_config Pages: 1 -->
<svg width="656pt" height="259pt"
 viewBox="0.00 0.00 656.00 258.50" xmlns="http://www.w3.org/2000/svg" xmlns:xlink="http://www.w3.org/1999/xlink">
<g id="graph0" class="graph" transform="scale(1 1) rotate(0) translate(4 254.5)">
<title>ma_audio_buffer_config</title>
<!-- Node1 -->
<g id="Node000001" class="node">
<title>Node1</title>
<g id="a_Node000001"><a xlink:title=" ">
<polygon fill="#999999" stroke="#666666" points="648,-170.5 515,-170.5 515,-151.5 648,-151.5 648,-170.5"/>
<text text-anchor="middle" x="581.5" y="-158.5" font-family="Helvetica,sans-Serif" font-size="10.00">ma_audio_buffer_config</text>
</a>
</g>
</g>
<!-- Node2 -->
<g id="Node000002" class="node">
<title>Node2</title>
<g id="a_Node000002"><a xlink:title=" ">
<polygon fill="white" stroke="#666666" points="347,-250.5 276,-250.5 276,-231.5 347,-231.5 347,-250.5"/>
<text text-anchor="middle" x="311.5" y="-238.5" font-family="Helvetica,sans-Serif" font-size="10.00">ma_format</text>
</a>
</g>
</g>
<!-- Node2&#45;&gt;Node1 -->
<g id="edge1_Node000001_Node000002" class="edge">
<title>Node2&#45;&gt;Node1</title>
<g id="a_edge1_Node000001_Node000002"><a xlink:title=" ">
<path fill="none" stroke="#9a32cd" stroke-dasharray="5,2" d="M357.44,-238.85C395.58,-235.88 451.24,-228.81 497,-212 524.42,-201.92 552.69,-182.37 568.29,-170.61"/>
<polygon fill="#9a32cd" stroke="#9a32cd" points="356.9,-235.38 347.17,-239.58 357.4,-242.36 356.9,-235.38"/>
</a>
</g>
<text text-anchor="middle" x="447.5" y="-237" font-family="Helvetica,sans-Serif" font-size="10.00" fill="grey"> format</text>
</g>
<!-- Node3 -->
<g id="Node000003" class="node">
<title>Node3</title>
<g id="a_Node000003"><a xlink:title=" ">
<polygon fill="white" stroke="#666666" points="326,-207.5 297,-207.5 297,-188.5 326,-188.5 326,-207.5"/>
<text text-anchor="middle" x="311.5" y="-195.5" font-family="Helvetica,sans-Serif" font-size="10.00">int</text>
</a>
</g>
</g>
<!-- Node3&#45;&gt;Node1 -->
<g id="edge2_Node000001_Node000003" class="edge">
<title>Node3&#45;&gt;Node1</title>
<g id="a_edge2_Node000001_Node000003"><a xlink:title=" ">
<path fill="none" stroke="#9a32cd" stroke-dasharray="5,2" d="M336.66,-195.05C371.94,-190.71 439.58,-182.2 497,-174 504.55,-172.92 512.48,-171.74 520.32,-170.55"/>
<polygon fill="#9a32cd" stroke="#9a32cd" points="335.9,-191.62 326.4,-196.31 336.76,-198.57 335.9,-191.62"/>
</a>
</g>
<text text-anchor="middle" x="447.5" y="-200" font-family="Helvetica,sans-Serif" font-size="10.00" fill="grey"> channels</text>
<text text-anchor="middle" x="447.5" y="-189" font-family="Helvetica,sans-Serif" font-size="10.00" fill="grey">sampleRate</text>
</g>
<!-- Node4 -->
<g id="Node000004" class="node">
<title>Node4</title>
<g id="a_Node000004"><a xlink:title=" ">
<polygon fill="white" stroke="#666666" points="330.5,-170.5 292.5,-170.5 292.5,-151.5 330.5,-151.5 330.5,-170.5"/>
<text text-anchor="middle" x="311.5" y="-158.5" font-family="Helvetica,sans-Serif" font-size="10.00">long</text>
</a>
</g>
</g>
<!-- Node4&#45;&gt;Node1 -->
<g id="edge3_Node000001_Node000004" class="edge">
<title>Node4&#45;&gt;Node1</title>
<g id="a_edge3_Node000001_Node000004"><a xlink:title=" ">
<path fill="none" stroke="#9a32cd" stroke-dasharray="5,2" d="M340.58,-161C381.61,-161 459.11,-161 514.95,-161"/>
<polygon fill="#9a32cd" stroke="#9a32cd" points="340.5,-157.5 330.5,-161 340.5,-164.5 340.5,-157.5"/>
</a>
</g>
<text text-anchor="middle" x="447.5" y="-164" font-family="Helvetica,sans-Serif" font-size="10.00" fill="grey"> sizeInFrames</text>
</g>
<!-- Node5 -->
<g id="Node000005" class="node">
<title>Node5</title>
<g id="a_Node000005"><a xlink:title=" ">
<polygon fill="white" stroke="#666666" points="349,-133.5 274,-133.5 274,-114.5 349,-114.5 349,-133.5"/>
<text text-anchor="middle" x="311.5" y="-121.5" font-family="Helvetica,sans-Serif" font-size="10.00">const void *</text>
</a>
</g>
</g>
<!-- Node5&#45;&gt;Node1 -->
<g id="edge4_Node000001_Node000005" class="edge">
<title>Node5&#45;&gt;Node1</title>
<g id="a_edge4_Node000001_Node000005"><a xlink:title=" ">
<path fill="none" stroke="#9a32cd" stroke-dasharray="5,2" d="M359.43,-128.82C396.78,-132.85 450.34,-139.03 497,-146 507.78,-147.61 519.3,-149.54 530.24,-151.48"/>
<polygon fill="#9a32cd" stroke="#9a32cd" points="359.66,-125.33 349.34,-127.75 358.91,-132.29 359.66,-125.33"/>
</a>
</g>
<text text-anchor="middle" x="447.5" y="-149" font-family="Helvetica,sans-Serif" font-size="10.00" fill="grey"> pData</text>
</g>
<!-- Node6 -->
<g id="Node000006" class="node">
<title>Node6</title>
<g id="a_Node000006"><a xlink:href="structma__allocation__callbacks.html" target="_top" xlink:title=" ">
<polygon fill="white" stroke="#666666" points="380,-96.5 243,-96.5 243,-77.5 380,-77.5 380,-96.5"/>
<text text-anchor="middle" x="311.5" y="-84.5" font-family="Helvetica,sans-Serif" font-size="10.00">ma_allocation_callbacks</text>
</a>
</g>
</g>
<!-- Node6&#45;&gt;Node1 -->
<g id="edge5_Node000001_Node000006" class="edge">
<title>Node6&#45;&gt;Node1</title>
<g id="a_edge5_Node000001_Node000006"><a xlink:title=" ">
<path fill="none" stroke="#9a32cd" stroke-dasharray="5,2" d="M390.49,-94.68C423.87,-99.34 462.92,-106.67 497,-118 522.22,-126.39 549.18,-141.53 565.43,-151.42"/>
<polygon fill="#9a32cd" stroke="#9a32cd" points="390.7,-91.17 380.32,-93.31 389.77,-98.11 390.7,-91.17"/>
</a>
</g>
<text text-anchor="middle" x="447.5" y="-121" font-family="Helvetica,sans-Serif" font-size="10.00" fill="grey"> allocationCallbacks</text>
</g>
<!-- Node7 -->
<g id="Node000007" class="node">
<title>Node7</title>
<g id="a_Node000007"><a xlink:title=" ">
<polygon fill="white" stroke="#666666" points="99,-163.5 53,-163.5 53,-144.5 99,-144.5 99,-163.5"/>
<text text-anchor="middle" x="76" y="-151.5" font-family="Helvetica,sans-Serif" font-size="10.00">void *</text>
</a>
</g>
</g>
<!-- Node7&#45;&gt;Node6 -->
<g id="edge6_Node000006_Node000007" class="edge">
<title>Node7&#45;&gt;Node6</title>
<g id="a_edge6_Node000006_Node000007"><a xlink:title=" ">
<path fill="none" stroke="#9a32cd" stroke-dasharray="5,2" d="M109.38,-145.85C122.6,-142.5 138.04,-138.59 152,-135 184.47,-126.66 193.88,-128.46 225,-116 233.5,-112.6 234.54,-109.49 243,-106 251.78,-102.38 261.48,-99.21 270.71,-96.54"/>
<polygon fill="#9a32cd" stroke="#9a32cd" points="108.16,-142.54 99.33,-148.38 109.88,-149.33 108.16,-142.54"/>
</a>
</g>
<text text-anchor="middle" x="197.5" y="-133" font-family="Helvetica,sans-Serif" font-size="10.00" fill="grey"> pUserData</text>
</g>
<!-- Node8 -->
<g id="Node000008" class="node">
<title>Node8</title>
<g id="a_Node000008"><a xlink:title=" ">
<polygon fill="white" stroke="#666666" points="129.5,-126 22.5,-126 22.5,-96 129.5,-96 129.5,-126"/>
<text text-anchor="start" x="30.5" y="-114" font-family="Helvetica,sans-Serif" font-size="10.00">void *(*)(size_t sz,</text>
<text text-anchor="middle" x="76" y="-103" font-family="Helvetica,sans-Serif" font-size="10.00"> void *pUserData)</text>
</a>
</g>
</g>
<!-- Node8&#45;&gt;Node6 -->
<g id="edge7_Node000006_Node000008" class="edge">
<title>Node8&#45;&gt;Node6</title>
<g id="a_edge7_Node000006_Node000008"><a xlink:title=" ">
<path fill="none" stroke="#9a32cd" stroke-dasharray="5,2" d="M139.78,-104.55C171.64,-101.27 210.38,-97.29 242.9,-93.95"/>
<polygon fill="#9a32cd" stroke="#9a32cd" points="139.28,-101.08 129.69,-105.58 140,-108.04 139.28,-101.08"/>
</a>
</g>
<text text-anchor="middle" x="197.5" y="-104" font-family="Helvetica,sans-Serif" font-size="10.00" fill="grey"> onMalloc</text>
</g>
<!-- Node9 -->
<g id="Node000009" class="node">
<title>Node9</title>
<g id="a_Node000009"><a xlink:title=" ">
<polygon fill="white" stroke="#666666" points="152,-78 0,-78 0,-48 152,-48 152,-78"/>
<text text-anchor="start" x="8" y="-66" font-family="Helvetica,sans-Serif" font-size="10.00">void *(*)(void *p,</text>
<text text-anchor="middle" x="76" y="-55" font-family="Helvetica,sans-Serif" font-size="10.00"> size_t sz, void *pUserData)</text>
</a>
</g>
</g>
<!-- Node9&#45;&gt;Node6 -->
<g id="edge8_Node000006_Node000009" class="edge">
<title>Node9&#45;&gt;Node6</title>
<g id="a_edge8_Node000006_Node000009"><a xlink:title=" ">
<path fill="none" stroke="#9a32cd" stroke-dasharray="5,2" d="M162.23,-71.76C188.82,-74.49 217.77,-77.47 242.97,-80.06"/>
<polygon fill="#9a32cd" stroke="#9a32cd" points="162.47,-68.27 152.17,-70.73 161.76,-75.23 162.47,-68.27"/>
</a>
</g>
<text text-anchor="middle" x="197.5" y="-80" font-family="Helvetica,sans-Serif" font-size="10.00" fill="grey"> onRealloc</text>
</g>
<!-- Node10 -->
<g id="Node000010" class="node">
<title>Node10</title>
<g id="a_Node000010"><a xlink:title=" ">
<polygon fill="white" stroke="#666666" points="134,-30 18,-30 18,0 134,0 134,-30"/>
<text text-anchor="start" x="26" y="-18" font-family="Helvetica,sans-Serif" font-size="10.00">void(*)(void *p, void</text>
<text text-anchor="middle" x="76" y="-7" font-family="Helvetica,sans-Serif" font-size="10.00"> *pUserData)</text>
</a>
</g>
</g>
<!-- Node10&#45;&gt;Node6 -->
<g id="edge9_Node000006_Node000010" class="edge">
<title>Node10&#45;&gt;Node6</title>
<g id="a_edge9_Node000006_Node000010"><a xlink:title=" ">
<path fill="none" stroke="#9a32cd" stroke-dasharray="5,2" d="M142.77,-32.74C168.52,-39.92 198.25,-48.52 225,-57 245.09,-63.37 267.58,-71.29 284.44,-77.39"/>
<polygon fill="#9a32cd" stroke="#9a32cd" points="143.68,-29.36 133.11,-30.06 141.81,-36.1 143.68,-29.36"/>
</a>
</g>
<text text-anchor="middle" x="197.5" y="-60" font-family="Helvetica,sans-Serif" font-size="10.00" fill="grey"> onFree</text>
</g>
</g>
</svg>
