<?xml version="1.0" encoding="UTF-8" standalone="no"?>
<!DOCTYPE svg PUBLIC "-//W3C//DTD SVG 1.1//EN"
 "http://www.w3.org/Graphics/SVG/1.1/DTD/svg11.dtd">
<!-- Generated by graphviz version 2.43.0 (0)
 -->
<!-- Title: Object Pages: 1 -->
<svg width="1000pt" height="456pt"
 viewBox="0.00 0.00 1000.25 456.00" xmlns="http://www.w3.org/2000/svg" xmlns:xlink="http://www.w3.org/1999/xlink">
<g id="graph0" class="graph" transform="scale(1 1) rotate(0) translate(4 452)">
<title>Object</title>
<!-- Node1 -->
<g id="Node000001" class="node">
<title>Node1</title>
<g id="a_Node000001"><a xlink:title=" ">
<polygon fill="#999999" stroke="#666666" points="494.25,-19 446.25,-19 446.25,0 494.25,0 494.25,-19"/>
<text text-anchor="middle" x="470.25" y="-7" font-family="Helvetica,sans-Serif" font-size="10.00">Object</text>
</a>
</g>
</g>
<!-- Node2 -->
<g id="Node000002" class="node">
<title>Node2</title>
<g id="a_Node000002"><a xlink:title=" ">
<polygon fill="white" stroke="#666666" points="34.25,-195 2.25,-195 2.25,-176 34.25,-176 34.25,-195"/>
<text text-anchor="middle" x="18.25" y="-183" font-family="Helvetica,sans-Serif" font-size="10.00">f32</text>
</a>
</g>
</g>
<!-- Node2&#45;&gt;Node1 -->
<g id="edge1_Node000001_Node000002" class="edge">
<title>Node2&#45;&gt;Node1</title>
<g id="a_edge1_Node000001_Node000002"><a xlink:title=" ">
<path fill="none" stroke="#9a32cd" stroke-dasharray="5,2" d="M11.68,-166.08C1.87,-134.88 -12.11,-71.67 21.25,-37 36.09,-21.58 354.85,-13.13 446.06,-11.03"/>
<polygon fill="#9a32cd" stroke="#9a32cd" points="8.4,-167.31 14.89,-175.68 15.04,-165.08 8.4,-167.31"/>
</a>
</g>
<text text-anchor="middle" x="55.75" y="-133.5" font-family="Helvetica,sans-Serif" font-size="10.00" fill="grey"> offset</text>
<text text-anchor="middle" x="55.75" y="-122.5" font-family="Helvetica,sans-Serif" font-size="10.00" fill="grey">origin_pos</text>
<text text-anchor="middle" x="55.75" y="-111.5" font-family="Helvetica,sans-Serif" font-size="10.00" fill="grey">pos</text>
<text text-anchor="middle" x="55.75" y="-100.5" font-family="Helvetica,sans-Serif" font-size="10.00" fill="grey">sizeScaling</text>
<text text-anchor="middle" x="55.75" y="-89.5" font-family="Helvetica,sans-Serif" font-size="10.00" fill="grey">surfaceHeight</text>
<text text-anchor="middle" x="55.75" y="-78.5" font-family="Helvetica,sans-Serif" font-size="10.00" fill="grey">unk_01C</text>
<text text-anchor="middle" x="55.75" y="-67.5" font-family="Helvetica,sans-Serif" font-size="10.00" fill="grey">unk_034</text>
<text text-anchor="middle" x="55.75" y="-56.5" font-family="Helvetica,sans-Serif" font-size="10.00" fill="grey">velocity</text>
</g>
<!-- Node3 -->
<g id="Node000003" class="node">
<title>Node3</title>
<g id="a_Node000003"><a xlink:title=" ">
<polygon fill="white" stroke="#666666" points="125.25,-195 91.25,-195 91.25,-176 125.25,-176 125.25,-195"/>
<text text-anchor="middle" x="108.25" y="-183" font-family="Helvetica,sans-Serif" font-size="10.00">s32</text>
</a>
</g>
</g>
<!-- Node3&#45;&gt;Node1 -->
<g id="edge2_Node000001_Node000003" class="edge">
<title>Node3&#45;&gt;Node1</title>
<g id="a_edge2_Node000001_Node000003"><a xlink:title=" ">
<path fill="none" stroke="#9a32cd" stroke-dasharray="5,2" d="M102.48,-166.02C93.99,-134.74 82.53,-71.41 116.25,-37 139.27,-13.5 370.11,-10.77 446.12,-10.51"/>
<polygon fill="#9a32cd" stroke="#9a32cd" points="99.13,-167.03 105.28,-175.65 105.85,-165.07 99.13,-167.03"/>
</a>
</g>
<text text-anchor="middle" x="137.75" y="-122.5" font-family="Helvetica,sans-Serif" font-size="10.00" fill="grey"> status</text>
<text text-anchor="middle" x="137.75" y="-111.5" font-family="Helvetica,sans-Serif" font-size="10.00" fill="grey">timer</text>
<text text-anchor="middle" x="137.75" y="-100.5" font-family="Helvetica,sans-Serif" font-size="10.00" fill="grey">unk_048</text>
<text text-anchor="middle" x="137.75" y="-89.5" font-family="Helvetica,sans-Serif" font-size="10.00" fill="grey">unk_04C</text>
<text text-anchor="middle" x="137.75" y="-78.5" font-family="Helvetica,sans-Serif" font-size="10.00" fill="grey">unk_058</text>
<text text-anchor="middle" x="137.75" y="-67.5" font-family="Helvetica,sans-Serif" font-size="10.00" fill="grey">unk_05C</text>
</g>
<!-- Node4 -->
<g id="Node000004" class="node">
<title>Node4</title>
<g id="a_Node000004"><a xlink:title=" ">
<polygon fill="white" stroke="#666666" points="218.75,-195 143.75,-195 143.75,-176 218.75,-176 218.75,-195"/>
<text text-anchor="middle" x="181.25" y="-183" font-family="Helvetica,sans-Serif" font-size="10.00">const char *</text>
</a>
</g>
</g>
<!-- Node4&#45;&gt;Node1 -->
<g id="edge3_Node000001_Node000004" class="edge">
<title>Node4&#45;&gt;Node1</title>
<g id="a_edge3_Node000001_Node000004"><a xlink:title=" ">
<path fill="none" stroke="#9a32cd" stroke-dasharray="5,2" d="M174.5,-166.24C164.38,-135.29 149.71,-72.43 182.25,-37 199.95,-17.72 379.86,-12.27 446.01,-10.91"/>
<polygon fill="#9a32cd" stroke="#9a32cd" points="171.22,-167.46 177.81,-175.76 177.84,-165.17 171.22,-167.46"/>
</a>
</g>
<text text-anchor="middle" x="215.75" y="-100.5" font-family="Helvetica,sans-Serif" font-size="10.00" fill="grey"> activeTLUT</text>
<text text-anchor="middle" x="215.75" y="-89.5" font-family="Helvetica,sans-Serif" font-size="10.00" fill="grey">activeTexture</text>
</g>
<!-- Node5 -->
<g id="Node000005" class="node">
<title>Node5</title>
<g id="a_Node000005"><a xlink:title=" ">
<polygon fill="white" stroke="#666666" points="283.75,-195 254.75,-195 254.75,-176 283.75,-176 283.75,-195"/>
<text text-anchor="middle" x="269.25" y="-183" font-family="Helvetica,sans-Serif" font-size="10.00">u8</text>
</a>
</g>
</g>
<!-- Node5&#45;&gt;Node1 -->
<g id="edge4_Node000001_Node000005" class="edge">
<title>Node5&#45;&gt;Node1</title>
<g id="a_edge4_Node000001_Node000005"><a xlink:title=" ">
<path fill="none" stroke="#9a32cd" stroke-dasharray="5,2" d="M263.3,-165.87C254.66,-134.83 242.99,-72.46 275.25,-37 297.66,-12.36 399.07,-9.88 446.13,-10.1"/>
<polygon fill="#9a32cd" stroke="#9a32cd" points="260.04,-167.2 266.25,-175.78 266.75,-165.2 260.04,-167.2"/>
</a>
</g>
<text text-anchor="middle" x="310.75" y="-150" font-family="Helvetica,sans-Serif" font-size="10.00" fill="grey"> textureHeight</text>
<text text-anchor="middle" x="310.75" y="-139" font-family="Helvetica,sans-Serif" font-size="10.00" fill="grey">textureWidth</text>
<text text-anchor="middle" x="310.75" y="-128" font-family="Helvetica,sans-Serif" font-size="10.00" fill="grey">tlutList</text>
<text text-anchor="middle" x="310.75" y="-117" font-family="Helvetica,sans-Serif" font-size="10.00" fill="grey">unk_0D5</text>
<text text-anchor="middle" x="310.75" y="-106" font-family="Helvetica,sans-Serif" font-size="10.00" fill="grey">unk_0D6</text>
<text text-anchor="middle" x="310.75" y="-95" font-family="Helvetica,sans-Serif" font-size="10.00" fill="grey">unk_0D7</text>
<text text-anchor="middle" x="310.75" y="-84" font-family="Helvetica,sans-Serif" font-size="10.00" fill="grey">unk_0D8</text>
<text text-anchor="middle" x="310.75" y="-73" font-family="Helvetica,sans-Serif" font-size="10.00" fill="grey">unk_0DB</text>
<text text-anchor="middle" x="310.75" y="-62" font-family="Helvetica,sans-Serif" font-size="10.00" fill="grey">unk_0DC</text>
<text text-anchor="middle" x="310.75" y="-51" font-family="Helvetica,sans-Serif" font-size="10.00" fill="grey">unk_0DD</text>
<text text-anchor="middle" x="310.75" y="-40" font-family="Helvetica,sans-Serif" font-size="10.00" fill="grey">...</text>
</g>
<!-- Node6 -->
<g id="Node000006" class="node">
<title>Node6</title>
<g id="a_Node000006"><a xlink:title=" ">
<polygon fill="white" stroke="#666666" points="403.25,-195 323.25,-195 323.25,-176 403.25,-176 403.25,-195"/>
<text text-anchor="middle" x="363.25" y="-183" font-family="Helvetica,sans-Serif" font-size="10.00">const char **</text>
</a>
</g>
</g>
<!-- Node6&#45;&gt;Node1 -->
<g id="edge5_Node000001_Node000006" class="edge">
<title>Node6&#45;&gt;Node1</title>
<g id="a_edge5_Node000001_Node000006"><a xlink:title=" ">
<path fill="none" stroke="#9a32cd" stroke-dasharray="5,2" d="M358.1,-166.26C350.69,-135.8 341.02,-74.24 371.25,-37 389.07,-15.03 422.95,-10.13 446.06,-9.57"/>
<polygon fill="#9a32cd" stroke="#9a32cd" points="354.72,-167.19 360.64,-175.97 361.49,-165.41 354.72,-167.19"/>
</a>
</g>
<text text-anchor="middle" x="399.25" y="-95" font-family="Helvetica,sans-Serif" font-size="10.00" fill="grey"> textureList</text>
</g>
<!-- Node7 -->
<g id="Node000007" class="node">
<title>Node7</title>
<g id="a_Node000007"><a xlink:title=" ">
<polygon fill="white" stroke="#666666" points="459.25,-195 425.25,-195 425.25,-176 459.25,-176 459.25,-195"/>
<text text-anchor="middle" x="442.25" y="-183" font-family="Helvetica,sans-Serif" font-size="10.00">Gfx</text>
</a>
</g>
</g>
<!-- Node7&#45;&gt;Node1 -->
<g id="edge6_Node000001_Node000007" class="edge">
<title>Node7&#45;&gt;Node1</title>
<g id="a_edge6_Node000001_Node000007"><a xlink:title=" ">
<path fill="none" stroke="#9a32cd" stroke-dasharray="5,2" d="M437.96,-165.76C432.29,-136.82 424.99,-80.09 443.25,-37 446.27,-29.86 452.24,-23.68 457.8,-19.08"/>
<polygon fill="#9a32cd" stroke="#9a32cd" points="434.57,-166.66 440.07,-175.72 441.42,-165.21 434.57,-166.66"/>
</a>
</g>
<text text-anchor="middle" x="460.25" y="-95" font-family="Helvetica,sans-Serif" font-size="10.00" fill="grey"> model</text>
</g>
<!-- Node8 -->
<g id="Node000008" class="node">
<title>Node8</title>
<g id="a_Node000008"><a xlink:title=" ">
<polygon fill="white" stroke="#666666" points="515.75,-195 482.75,-195 482.75,-176 515.75,-176 515.75,-195"/>
<text text-anchor="middle" x="499.25" y="-183" font-family="Helvetica,sans-Serif" font-size="10.00">Vtx</text>
</a>
</g>
</g>
<!-- Node8&#45;&gt;Node1 -->
<g id="edge7_Node000001_Node000008" class="edge">
<title>Node8&#45;&gt;Node1</title>
<g id="a_edge7_Node000001_Node000008"><a xlink:title=" ">
<path fill="none" stroke="#9a32cd" stroke-dasharray="5,2" d="M497.13,-165.78C493.79,-137.66 486.71,-82.91 477.25,-37 476.02,-31.03 474.27,-24.41 472.83,-19.28"/>
<polygon fill="#9a32cd" stroke="#9a32cd" points="493.66,-166.27 498.29,-175.8 500.61,-165.46 493.66,-166.27"/>
</a>
</g>
<text text-anchor="middle" x="512.75" y="-95" font-family="Helvetica,sans-Serif" font-size="10.00" fill="grey"> vertex</text>
</g>
<!-- Node9 -->
<g id="Node000009" class="node">
<title>Node9</title>
<g id="a_Node000009"><a xlink:title=" ">
<polygon fill="white" stroke="#666666" points="571.75,-195 542.75,-195 542.75,-176 571.75,-176 571.75,-195"/>
<text text-anchor="middle" x="557.25" y="-183" font-family="Helvetica,sans-Serif" font-size="10.00">s8</text>
</a>
</g>
</g>
<!-- Node9&#45;&gt;Node1 -->
<g id="edge8_Node000001_Node000009" class="edge">
<title>Node9&#45;&gt;Node1</title>
<g id="a_edge8_Node000001_Node000009"><a xlink:title=" ">
<path fill="none" stroke="#9a32cd" stroke-dasharray="5,2" d="M556.54,-165.27C554.89,-129.95 549.65,-56.58 534.25,-37 524.58,-24.71 508.23,-18.07 494.47,-14.51"/>
<polygon fill="#9a32cd" stroke="#9a32cd" points="553.06,-165.81 556.98,-175.65 560.06,-165.52 553.06,-165.81"/>
</a>
</g>
<text text-anchor="middle" x="595.25" y="-150" font-family="Helvetica,sans-Serif" font-size="10.00" fill="grey"> isTimerActive</text>
<text text-anchor="middle" x="595.25" y="-139" font-family="Helvetica,sans-Serif" font-size="10.00" fill="grey">textureListIndex</text>
<text text-anchor="middle" x="595.25" y="-128" font-family="Helvetica,sans-Serif" font-size="10.00" fill="grey">unk_078</text>
<text text-anchor="middle" x="595.25" y="-117" font-family="Helvetica,sans-Serif" font-size="10.00" fill="grey">unk_0CA</text>
<text text-anchor="middle" x="595.25" y="-106" font-family="Helvetica,sans-Serif" font-size="10.00" fill="grey">unk_0CC</text>
<text text-anchor="middle" x="595.25" y="-95" font-family="Helvetica,sans-Serif" font-size="10.00" fill="grey">unk_0CD</text>
<text text-anchor="middle" x="595.25" y="-84" font-family="Helvetica,sans-Serif" font-size="10.00" fill="grey">unk_0CE</text>
<text text-anchor="middle" x="595.25" y="-73" font-family="Helvetica,sans-Serif" font-size="10.00" fill="grey">unk_0CF</text>
<text text-anchor="middle" x="595.25" y="-62" font-family="Helvetica,sans-Serif" font-size="10.00" fill="grey">unk_0D0</text>
<text text-anchor="middle" x="595.25" y="-51" font-family="Helvetica,sans-Serif" font-size="10.00" fill="grey">unk_0D1</text>
<text text-anchor="middle" x="595.25" y="-40" font-family="Helvetica,sans-Serif" font-size="10.00" fill="grey">...</text>
</g>
<!-- Node10 -->
<g id="Node000010" class="node">
<title>Node10</title>
<g id="a_Node000010"><a xlink:href="structSplineControlPoint.html" target="_top" xlink:title=" ">
<polygon fill="white" stroke="#666666" points="793.75,-371 686.75,-371 686.75,-352 793.75,-352 793.75,-371"/>
<text text-anchor="middle" x="740.25" y="-359" font-family="Helvetica,sans-Serif" font-size="10.00">SplineControlPoint</text>
</a>
</g>
</g>
<!-- Node10&#45;&gt;Node1 -->
<g id="edge9_Node000001_Node000010" class="edge">
<title>Node10&#45;&gt;Node1</title>
<g id="a_edge9_Node000001_Node000010"><a xlink:title=" ">
<path fill="none" stroke="#9a32cd" stroke-dasharray="5,2" d="M736.59,-341.83C723.31,-274.51 677.86,-47.56 666.25,-37 641.55,-14.53 541.24,-10.91 494.47,-10.46"/>
<polygon fill="#9a32cd" stroke="#9a32cd" points="733.19,-342.71 738.56,-351.84 740.06,-341.36 733.19,-342.71"/>
</a>
</g>
<text text-anchor="middle" x="738.75" y="-183" font-family="Helvetica,sans-Serif" font-size="10.00" fill="grey"> controlPoints</text>
</g>
<!-- Node12 -->
<g id="Node000012" class="node">
<title>Node12</title>
<g id="a_Node000012"><a xlink:href="structSplineData.html" target="_top" xlink:title=" ">
<polygon fill="white" stroke="#666666" points="871.25,-195 801.25,-195 801.25,-176 871.25,-176 871.25,-195"/>
<text text-anchor="middle" x="836.25" y="-183" font-family="Helvetica,sans-Serif" font-size="10.00">SplineData</text>
</a>
</g>
</g>
<!-- Node10&#45;&gt;Node12 -->
<g id="edge13_Node000012_Node000010" class="edge">
<title>Node10&#45;&gt;Node12</title>
<g id="a_edge13_Node000012_Node000010"><a xlink:title=" ">
<path fill="none" stroke="#9a32cd" stroke-dasharray="5,2" d="M739.69,-341.21C739.06,-305.79 739.73,-232.27 755.25,-213 761.28,-205.51 782.07,-198.79 801.08,-194"/>
<polygon fill="#9a32cd" stroke="#9a32cd" points="736.2,-341.71 739.93,-351.62 743.2,-341.55 736.2,-341.71"/>
</a>
</g>
<text text-anchor="middle" x="788.75" y="-271" font-family="Helvetica,sans-Serif" font-size="10.00" fill="grey"> controlPoints</text>
</g>
<!-- Node11 -->
<g id="Node000011" class="node">
<title>Node11</title>
<g id="a_Node000011"><a xlink:title=" ">
<polygon fill="white" stroke="#666666" points="757.25,-448 723.25,-448 723.25,-429 757.25,-429 757.25,-448"/>
<text text-anchor="middle" x="740.25" y="-436" font-family="Helvetica,sans-Serif" font-size="10.00">s16</text>
</a>
</g>
</g>
<!-- Node11&#45;&gt;Node1 -->
<g id="edge14_Node000001_Node000011" class="edge">
<title>Node11&#45;&gt;Node1</title>
<g id="a_edge14_Node000001_Node000011"><a xlink:title=" ">
<path fill="none" stroke="#9a32cd" stroke-dasharray="5,2" d="M720.65,-422.42C698.86,-404.24 665.06,-371.43 652.25,-334 630.85,-271.49 682.35,-86.2 638.25,-37 619.53,-16.11 536.05,-11.63 494.26,-10.71"/>
<polygon fill="#9a32cd" stroke="#9a32cd" points="718.63,-425.29 728.61,-428.86 723.04,-419.85 718.63,-425.29"/>
</a>
</g>
<text text-anchor="middle" x="679.25" y="-326" font-family="Helvetica,sans-Serif" font-size="10.00" fill="grey"> primAlpha</text>
<text text-anchor="middle" x="679.25" y="-315" font-family="Helvetica,sans-Serif" font-size="10.00" fill="grey">state</text>
<text text-anchor="middle" x="679.25" y="-304" font-family="Helvetica,sans-Serif" font-size="10.00" fill="grey">type</text>
<text text-anchor="middle" x="679.25" y="-293" font-family="Helvetica,sans-Serif" font-size="10.00" fill="grey">unk_084</text>
<text text-anchor="middle" x="679.25" y="-282" font-family="Helvetica,sans-Serif" font-size="10.00" fill="grey">unk_09C</text>
<text text-anchor="middle" x="679.25" y="-271" font-family="Helvetica,sans-Serif" font-size="10.00" fill="grey">unk_09E</text>
<text text-anchor="middle" x="679.25" y="-260" font-family="Helvetica,sans-Serif" font-size="10.00" fill="grey">unk_0A2</text>
<text text-anchor="middle" x="679.25" y="-249" font-family="Helvetica,sans-Serif" font-size="10.00" fill="grey">unk_0A8</text>
<text text-anchor="middle" x="679.25" y="-238" font-family="Helvetica,sans-Serif" font-size="10.00" fill="grey">unk_0AA</text>
<text text-anchor="middle" x="679.25" y="-227" font-family="Helvetica,sans-Serif" font-size="10.00" fill="grey">unk_0AC</text>
<text text-anchor="middle" x="679.25" y="-216" font-family="Helvetica,sans-Serif" font-size="10.00" fill="grey">...</text>
</g>
<!-- Node11&#45;&gt;Node10 -->
<g id="edge10_Node000010_Node000011" class="edge">
<title>Node11&#45;&gt;Node10</title>
<g id="a_edge10_Node000010_Node000011"><a xlink:title=" ">
<path fill="none" stroke="#9a32cd" stroke-dasharray="5,2" d="M740.25,-418.52C740.25,-403.24 740.25,-382.48 740.25,-371"/>
<polygon fill="#9a32cd" stroke="#9a32cd" points="736.75,-418.9 740.25,-428.9 743.75,-418.9 736.75,-418.9"/>
</a>
</g>
<text text-anchor="middle" x="760.25" y="-403" font-family="Helvetica,sans-Serif" font-size="10.00" fill="grey"> pos</text>
<text text-anchor="middle" x="760.25" y="-392" font-family="Helvetica,sans-Serif" font-size="10.00" fill="grey">velocity</text>
</g>
<!-- Node11&#45;&gt;Node12 -->
<g id="edge12_Node000012_Node000011" class="edge">
<title>Node11&#45;&gt;Node12</title>
<g id="a_edge12_Node000012_Node000011"><a xlink:title=" ">
<path fill="none" stroke="#9a32cd" stroke-dasharray="5,2" d="M766.44,-425.06C772.8,-421.18 779.22,-416.47 784.25,-411 810.08,-382.91 811.83,-370.71 822.25,-334 836.78,-282.78 836.97,-217.95 836.5,-195.01"/>
<polygon fill="#9a32cd" stroke="#9a32cd" points="764.36,-422.21 757.31,-430.12 767.75,-428.33 764.36,-422.21"/>
</a>
</g>
<text text-anchor="middle" x="861.75" y="-359" font-family="Helvetica,sans-Serif" font-size="10.00" fill="grey"> numControlPoints</text>
</g>
<!-- Node12&#45;&gt;Node1 -->
<g id="edge11_Node000001_Node000012" class="edge">
<title>Node12&#45;&gt;Node1</title>
<g id="a_edge11_Node000001_Node000012"><a xlink:title=" ">
<path fill="none" stroke="#9a32cd" stroke-dasharray="5,2" d="M829.19,-166.37C815.54,-134.05 782.23,-67.08 730.25,-37 690.49,-13.99 550.94,-10.8 494.36,-10.47"/>
<polygon fill="#9a32cd" stroke="#9a32cd" points="826.05,-167.95 833.06,-175.89 832.53,-165.31 826.05,-167.95"/>
</a>
</g>
<text text-anchor="middle" x="840.75" y="-95" font-family="Helvetica,sans-Serif" font-size="10.00" fill="grey"> spline</text>
</g>
<!-- Node13 -->
<g id="Node000013" class="node">
<title>Node13</title>
<g id="a_Node000013"><a xlink:title=" ">
<polygon fill="white" stroke="#666666" points="924.75,-195 889.75,-195 889.75,-176 924.75,-176 924.75,-195"/>
<text text-anchor="middle" x="907.25" y="-183" font-family="Helvetica,sans-Serif" font-size="10.00">u16</text>
</a>
</g>
</g>
<!-- Node13&#45;&gt;Node1 -->
<g id="edge15_Node000001_Node000013" class="edge">
<title>Node13&#45;&gt;Node1</title>
<g id="a_edge15_Node000001_Node000013"><a xlink:title=" ">
<path fill="none" stroke="#9a32cd" stroke-dasharray="5,2" d="M907.61,-165.38C907.08,-133.09 900.82,-68.23 861.25,-37 832.47,-14.29 575.07,-11.04 494.35,-10.57"/>
<polygon fill="#9a32cd" stroke="#9a32cd" points="904.11,-165.68 907.6,-175.68 911.11,-165.68 904.11,-165.68"/>
</a>
</g>
<text text-anchor="middle" x="949.75" y="-133.5" font-family="Helvetica,sans-Serif" font-size="10.00" fill="grey"> animationTimer</text>
<text text-anchor="middle" x="949.75" y="-122.5" font-family="Helvetica,sans-Serif" font-size="10.00" fill="grey">boundingBoxSize</text>
<text text-anchor="middle" x="949.75" y="-111.5" font-family="Helvetica,sans-Serif" font-size="10.00" fill="grey">direction_angle</text>
<text text-anchor="middle" x="949.75" y="-100.5" font-family="Helvetica,sans-Serif" font-size="10.00" fill="grey">orientation</text>
<text text-anchor="middle" x="949.75" y="-89.5" font-family="Helvetica,sans-Serif" font-size="10.00" fill="grey">unk_09A</text>
<text text-anchor="middle" x="949.75" y="-78.5" font-family="Helvetica,sans-Serif" font-size="10.00" fill="grey">unk_0B8</text>
<text text-anchor="middle" x="949.75" y="-67.5" font-family="Helvetica,sans-Serif" font-size="10.00" fill="grey">unk_0C4</text>
<text text-anchor="middle" x="949.75" y="-56.5" font-family="Helvetica,sans-Serif" font-size="10.00" fill="grey">unk_0C6</text>
</g>
</g>
</svg>
