<?xml version="1.0" encoding="UTF-8" standalone="no"?>
<!DOCTYPE svg PUBLIC "-//W3C//DTD SVG 1.1//EN"
 "http://www.w3.org/Graphics/SVG/1.1/DTD/svg11.dtd">
<!-- Generated by graphviz version 2.43.0 (0)
 -->
<!-- Title: WidgetInfo::CVar Pages: 1 -->
<svg width="767pt" height="142pt"
 viewBox="0.00 0.00 767.00 141.50" xmlns="http://www.w3.org/2000/svg" xmlns:xlink="http://www.w3.org/1999/xlink">
<g id="graph0" class="graph" transform="scale(1 1) rotate(0) translate(4 137.5)">
<title>WidgetInfo::CVar</title>
<!-- Node1 -->
<g id="Node000001" class="node">
<title>Node1</title>
<g id="a_Node000001"><a xlink:title=" ">
<polygon fill="#999999" stroke="#666666" points="759,-75 661,-75 661,-56 759,-56 759,-75"/>
<text text-anchor="middle" x="710" y="-63" font-family="Helvetica,sans-Serif" font-size="10.00">WidgetInfo::CVar</text>
</a>
</g>
</g>
<!-- Node2 -->
<g id="Node000002" class="node">
<title>Node2</title>
<g id="a_Node000002"><a xlink:href="classGameUI_1_1PortMenu.html#ae2b125ddd080ba7cfd4da340dfb14192" target="_top" xlink:title=" ">
<polygon fill="white" stroke="#666666" points="386.5,-133.5 233.5,-133.5 233.5,-103.5 386.5,-103.5 386.5,-133.5"/>
<text text-anchor="start" x="241.5" y="-121.5" font-family="Helvetica,sans-Serif" font-size="10.00">GameUI::PortMenu::AddDev</text>
<text text-anchor="middle" x="310" y="-110.5" font-family="Helvetica,sans-Serif" font-size="10.00">Tools</text>
</a>
</g>
</g>
<!-- Node1&#45;&gt;Node2 -->
<g id="edge1_Node000001_Node000002" class="edge">
<title>Node1&#45;&gt;Node2</title>
<g id="a_edge1_Node000001_Node000002"><a xlink:title=" ">
<path fill="none" stroke="#63b8ff" d="M651.97,-76.93C642.96,-78.57 633.74,-80.15 625,-81.5 543.89,-93.99 450.43,-104.51 386.7,-111.1"/>
<polygon fill="#63b8ff" stroke="#63b8ff" points="652.82,-80.33 662.01,-75.06 651.54,-73.45 652.82,-80.33"/>
</a>
</g>
</g>
<!-- Node4 -->
<g id="Node000004" class="node">
<title>Node4</title>
<g id="a_Node000004"><a xlink:href="classGameUI_1_1PortMenu.html#ad0164e1a4d1111fb2312cdec60c8d223" target="_top" xlink:title=" ">
<polygon fill="white" stroke="#666666" points="413,-81 207,-81 207,-62 413,-62 413,-81"/>
<text text-anchor="middle" x="310" y="-69" font-family="Helvetica,sans-Serif" font-size="10.00">GameUI::PortMenu::AddEnhancements</text>
</a>
</g>
</g>
<!-- Node1&#45;&gt;Node4 -->
<g id="edge3_Node000001_Node000004" class="edge">
<title>Node1&#45;&gt;Node4</title>
<g id="a_edge3_Node000001_Node000004"><a xlink:title=" ">
<path fill="none" stroke="#63b8ff" d="M650.95,-66.38C588.67,-67.31 488.54,-68.82 413.04,-69.96"/>
<polygon fill="#63b8ff" stroke="#63b8ff" points="651.05,-69.87 660.99,-66.22 650.94,-62.87 651.05,-69.87"/>
</a>
</g>
</g>
<!-- Node5 -->
<g id="Node000005" class="node">
<title>Node5</title>
<g id="a_Node000005"><a xlink:href="classGameUI_1_1PortMenu.html#acf1c08d9ed088b6b33ec91a0e0a48494" target="_top" xlink:title=" ">
<polygon fill="white" stroke="#666666" points="625,-56 449,-56 449,-37 625,-37 625,-56"/>
<text text-anchor="middle" x="537" y="-44" font-family="Helvetica,sans-Serif" font-size="10.00">GameUI::PortMenu::AddRulesets</text>
</a>
</g>
</g>
<!-- Node1&#45;&gt;Node5 -->
<g id="edge5_Node000001_Node000005" class="edge">
<title>Node1&#45;&gt;Node5</title>
<g id="a_edge5_Node000001_Node000005"><a xlink:title=" ">
<path fill="none" stroke="#63b8ff" d="M650.83,-59.04C642.05,-58.06 632.84,-57.04 623.63,-56.01"/>
<polygon fill="#63b8ff" stroke="#63b8ff" points="650.59,-62.53 660.91,-60.16 651.36,-55.57 650.59,-62.53"/>
</a>
</g>
</g>
<!-- Node6 -->
<g id="Node000006" class="node">
<title>Node6</title>
<g id="a_Node000006"><a xlink:href="classGameUI_1_1PortMenu.html#ad1010e161497fac3f609b69b0f7d6348" target="_top" xlink:title=" ">
<polygon fill="white" stroke="#666666" points="623.5,-19 450.5,-19 450.5,0 623.5,0 623.5,-19"/>
<text text-anchor="middle" x="537" y="-7" font-family="Helvetica,sans-Serif" font-size="10.00">GameUI::PortMenu::AddSettings</text>
</a>
</g>
</g>
<!-- Node1&#45;&gt;Node6 -->
<g id="edge7_Node000001_Node000006" class="edge">
<title>Node1&#45;&gt;Node6</title>
<g id="a_edge7_Node000001_Node000006"><a xlink:title=" ">
<path fill="none" stroke="#63b8ff" d="M681.44,-51.17C665.33,-43.27 644.41,-33.81 625,-27.5 614.88,-24.21 603.89,-21.38 593.25,-19.01"/>
<polygon fill="#63b8ff" stroke="#63b8ff" points="680.28,-54.5 690.78,-55.84 683.41,-48.24 680.28,-54.5"/>
</a>
</g>
</g>
<!-- Node3 -->
<g id="Node000003" class="node">
<title>Node3</title>
<g id="a_Node000003"><a xlink:href="classGameUI_1_1PortMenu.html#a6107d5040943b730f00a96293d335e23" target="_top" xlink:title=" ">
<polygon fill="white" stroke="#666666" points="171,-81 0,-81 0,-62 171,-62 171,-81"/>
<text text-anchor="middle" x="85.5" y="-69" font-family="Helvetica,sans-Serif" font-size="10.00">GameUI::PortMenu::InitElement</text>
</a>
</g>
</g>
<!-- Node2&#45;&gt;Node3 -->
<g id="edge2_Node000002_Node000003" class="edge">
<title>Node2&#45;&gt;Node3</title>
<g id="a_edge2_Node000002_Node000003"><a xlink:title=" ">
<path fill="none" stroke="#63b8ff" d="M228.04,-101.4C195.56,-94.54 159.34,-86.89 131.68,-81.04"/>
<polygon fill="#63b8ff" stroke="#63b8ff" points="227.48,-104.86 237.99,-103.5 228.93,-98.01 227.48,-104.86"/>
</a>
</g>
</g>
<!-- Node4&#45;&gt;Node3 -->
<g id="edge4_Node000004_Node000003" class="edge">
<title>Node4&#45;&gt;Node3</title>
<g id="a_edge4_Node000004_Node000003"><a xlink:title=" ">
<path fill="none" stroke="#63b8ff" d="M196.72,-71.5C188.08,-71.5 179.44,-71.5 171.02,-71.5"/>
<polygon fill="#63b8ff" stroke="#63b8ff" points="196.87,-75 206.87,-71.5 196.87,-68 196.87,-75"/>
</a>
</g>
</g>
<!-- Node5&#45;&gt;Node4 -->
<g id="edge6_Node000005_Node000004" class="edge">
<title>Node5&#45;&gt;Node4</title>
<g id="a_edge6_Node000005_Node000004"><a xlink:title=" ">
<path fill="none" stroke="#63b8ff" d="M439.94,-57.17C425.62,-58.76 410.93,-60.4 396.84,-61.96"/>
<polygon fill="#63b8ff" stroke="#63b8ff" points="440.74,-60.61 450.3,-56.02 439.97,-53.65 440.74,-60.61"/>
</a>
</g>
</g>
<!-- Node6&#45;&gt;Node3 -->
<g id="edge8_Node000006_Node000003" class="edge">
<title>Node6&#45;&gt;Node3</title>
<g id="a_edge8_Node000006_Node000003"><a xlink:title=" ">
<path fill="none" stroke="#63b8ff" d="M452.44,-20.32C385.92,-29.01 290.44,-41.69 207,-53.5 188.15,-56.17 167.66,-59.18 149.02,-61.98"/>
<polygon fill="#63b8ff" stroke="#63b8ff" points="452.99,-23.77 462.45,-19.01 452.09,-16.83 452.99,-23.77"/>
</a>
</g>
</g>
</g>
</svg>
