<?xml version="1.0" encoding="UTF-8" standalone="no"?>
<!DOCTYPE svg PUBLIC "-//W3C//DTD SVG 1.1//EN"
 "http://www.w3.org/Graphics/SVG/1.1/DTD/svg11.dtd">
<!-- Generated by graphviz version 2.43.0 (0)
 -->
<!-- Title: TourCamera::CameraShot Pages: 1 -->
<svg width="196pt" height="203pt"
 viewBox="0.00 0.00 196.00 203.00" xmlns="http://www.w3.org/2000/svg" xmlns:xlink="http://www.w3.org/1999/xlink">
<g id="graph0" class="graph" transform="scale(1 1) rotate(0) translate(4 199)">
<title>TourCamera::CameraShot</title>
<!-- Node1 -->
<g id="Node000001" class="node">
<title>Node1</title>
<g id="a_Node000001"><a xlink:title=" ">
<polygon fill="#999999" stroke="#666666" points="169,-19 28,-19 28,0 169,0 169,-19"/>
<text text-anchor="middle" x="98.5" y="-7" font-family="Helvetica,sans-Serif" font-size="10.00">TourCamera::CameraShot</text>
</a>
</g>
</g>
<!-- Node2 -->
<g id="Node000002" class="node">
<title>Node2</title>
<g id="a_Node000002"><a xlink:href="structFVector.html" target="_top" xlink:title=" ">
<polygon fill="white" stroke="#666666" points="53,-101.5 0,-101.5 0,-82.5 53,-82.5 53,-101.5"/>
<text text-anchor="middle" x="26.5" y="-89.5" font-family="Helvetica,sans-Serif" font-size="10.00">FVector</text>
</a>
</g>
</g>
<!-- Node2&#45;&gt;Node1 -->
<g id="edge1_Node000001_Node000002" class="edge">
<title>Node2&#45;&gt;Node1</title>
<g id="a_edge1_Node000001_Node000002"><a xlink:title=" ">
<path fill="none" stroke="#9a32cd" stroke-dasharray="5,2" d="M38.12,-73.81C45.89,-62.81 56.64,-48.5 67.5,-37 73.62,-30.51 81.23,-23.99 87.37,-19.04"/>
<polygon fill="#9a32cd" stroke="#9a32cd" points="35.17,-71.91 32.36,-82.13 40.93,-75.9 35.17,-71.91"/>
</a>
</g>
<text text-anchor="middle" x="86" y="-51" font-family="Helvetica,sans-Serif" font-size="10.00" fill="grey"> LookAt</text>
<text text-anchor="middle" x="86" y="-40" font-family="Helvetica,sans-Serif" font-size="10.00" fill="grey">Pos</text>
</g>
<!-- Node3 -->
<g id="Node000003" class="node">
<title>Node3</title>
<g id="a_Node000003"><a xlink:title=" ">
<polygon fill="white" stroke="#666666" points="45.5,-195 7.5,-195 7.5,-176 45.5,-176 45.5,-195"/>
<text text-anchor="middle" x="26.5" y="-183" font-family="Helvetica,sans-Serif" font-size="10.00">float</text>
</a>
</g>
</g>
<!-- Node3&#45;&gt;Node2 -->
<g id="edge2_Node000002_Node000003" class="edge">
<title>Node3&#45;&gt;Node2</title>
<g id="a_edge2_Node000002_Node000003"><a xlink:title=" ">
<path fill="none" stroke="#9a32cd" stroke-dasharray="5,2" d="M26.5,-165.54C26.5,-145.92 26.5,-116.16 26.5,-101.61"/>
<polygon fill="#9a32cd" stroke="#9a32cd" points="23,-165.73 26.5,-175.73 30,-165.73 23,-165.73"/>
</a>
</g>
<text text-anchor="middle" x="31.5" y="-150" font-family="Helvetica,sans-Serif" font-size="10.00" fill="grey"> x</text>
<text text-anchor="middle" x="31.5" y="-139" font-family="Helvetica,sans-Serif" font-size="10.00" fill="grey">y</text>
<text text-anchor="middle" x="31.5" y="-128" font-family="Helvetica,sans-Serif" font-size="10.00" fill="grey">z</text>
</g>
<!-- Node4 -->
<g id="Node000004" class="node">
<title>Node4</title>
<g id="a_Node000004"><a xlink:title=" ">
<polygon fill="white" stroke="#666666" points="188,-107 71,-107 71,-77 188,-77 188,-107"/>
<text text-anchor="start" x="79" y="-95" font-family="Helvetica,sans-Serif" font-size="10.00">vector&lt; TourCamera</text>
<text text-anchor="middle" x="129.5" y="-84" font-family="Helvetica,sans-Serif" font-size="10.00">::KeyFrame &gt;</text>
</a>
</g>
</g>
<!-- Node4&#45;&gt;Node1 -->
<g id="edge3_Node000001_Node000004" class="edge">
<title>Node4&#45;&gt;Node1</title>
<g id="a_edge3_Node000001_Node000004"><a xlink:title=" ">
<path fill="none" stroke="#9a32cd" stroke-dasharray="5,2" d="M120.5,-67.62C114.28,-51.48 106.36,-30.92 101.92,-19.38"/>
<polygon fill="#9a32cd" stroke="#9a32cd" points="117.24,-68.9 124.1,-76.98 123.77,-66.39 117.24,-68.9"/>
</a>
</g>
<text text-anchor="middle" x="136.5" y="-45.5" font-family="Helvetica,sans-Serif" font-size="10.00" fill="grey"> Frames</text>
</g>
</g>
</svg>
