<?xml version="1.0" encoding="UTF-8" standalone="no"?>
<!DOCTYPE svg PUBLIC "-//W3C//DTD SVG 1.1//EN"
 "http://www.w3.org/Graphics/SVG/1.1/DTD/svg11.dtd">
<!-- Generated by graphviz version 2.43.0 (0)
 -->
<!-- Title: UnkStruct80287560 Pages: 1 -->
<svg width="121pt" height="104pt"
 viewBox="0.00 0.00 121.00 104.00" xmlns="http://www.w3.org/2000/svg" xmlns:xlink="http://www.w3.org/1999/xlink">
<g id="graph0" class="graph" transform="scale(1 1) rotate(0) translate(4 100)">
<title>UnkStruct80287560</title>
<!-- Node1 -->
<g id="Node000001" class="node">
<title>Node1</title>
<g id="a_Node000001"><a xlink:title=" ">
<polygon fill="#999999" stroke="#666666" points="113,-19 0,-19 0,0 113,0 113,-19"/>
<text text-anchor="middle" x="56.5" y="-7" font-family="Helvetica,sans-Serif" font-size="10.00">UnkStruct80287560</text>
</a>
</g>
</g>
<!-- Node2 -->
<g id="Node000002" class="node">
<title>Node2</title>
<g id="a_Node000002"><a xlink:title=" ">
<polygon fill="white" stroke="#666666" points="47.5,-96 13.5,-96 13.5,-77 47.5,-77 47.5,-96"/>
<text text-anchor="middle" x="30.5" y="-84" font-family="Helvetica,sans-Serif" font-size="10.00">s16</text>
</a>
</g>
</g>
<!-- Node2&#45;&gt;Node1 -->
<g id="edge1_Node000001_Node000002" class="edge">
<title>Node2&#45;&gt;Node1</title>
<g id="a_edge1_Node000001_Node000002"><a xlink:title=" ">
<path fill="none" stroke="#9a32cd" stroke-dasharray="5,2" d="M28.34,-66.77C28,-57.5 28.69,-46.31 32.5,-37 35.32,-30.11 40.77,-23.85 45.77,-19.15"/>
<polygon fill="#9a32cd" stroke="#9a32cd" points="24.87,-67.2 29.15,-76.89 31.85,-66.65 24.87,-67.2"/>
</a>
</g>
<text text-anchor="middle" x="46.5" y="-51" font-family="Helvetica,sans-Serif" font-size="10.00" fill="grey"> unk0</text>
<text text-anchor="middle" x="46.5" y="-40" font-family="Helvetica,sans-Serif" font-size="10.00" fill="grey">unk2</text>
</g>
<!-- Node3 -->
<g id="Node000003" class="node">
<title>Node3</title>
<g id="a_Node000003"><a xlink:title=" ">
<polygon fill="white" stroke="#666666" points="99.5,-96 65.5,-96 65.5,-77 99.5,-77 99.5,-96"/>
<text text-anchor="middle" x="82.5" y="-84" font-family="Helvetica,sans-Serif" font-size="10.00">s32</text>
</a>
</g>
</g>
<!-- Node3&#45;&gt;Node1 -->
<g id="edge2_Node000001_Node000003" class="edge">
<title>Node3&#45;&gt;Node1</title>
<g id="a_edge2_Node000001_Node000003"><a xlink:title=" ">
<path fill="none" stroke="#9a32cd" stroke-dasharray="5,2" d="M76.23,-67.42C70.91,-52.06 63.5,-30.7 59.45,-19"/>
<polygon fill="#9a32cd" stroke="#9a32cd" points="72.94,-68.59 79.52,-76.9 79.55,-66.3 72.94,-68.59"/>
</a>
</g>
<text text-anchor="middle" x="86.5" y="-51" font-family="Helvetica,sans-Serif" font-size="10.00" fill="grey"> unk4</text>
<text text-anchor="middle" x="86.5" y="-40" font-family="Helvetica,sans-Serif" font-size="10.00" fill="grey">unk8</text>
</g>
</g>
</svg>
