<?xml version="1.0" encoding="UTF-8" standalone="no"?>
<!DOCTYPE svg PUBLIC "-//W3C//DTD SVG 1.1//EN"
 "http://www.w3.org/Graphics/SVG/1.1/DTD/svg11.dtd">
<!-- Generated by graphviz version 2.43.0 (0)
 -->
<!-- Title: __osThreadTail Pages: 1 -->
<svg width="446pt" height="437pt"
 viewBox="0.00 0.00 445.50 437.00" xmlns="http://www.w3.org/2000/svg" xmlns:xlink="http://www.w3.org/1999/xlink">
<g id="graph0" class="graph" transform="scale(1 1) rotate(0) translate(4 433)">
<title>__osThreadTail</title>
<!-- Node1 -->
<g id="Node000001" class="node">
<title>Node1</title>
<g id="a_Node000001"><a xlink:title=" ">
<polygon fill="#999999" stroke="#666666" points="89,-19 0,-19 0,0 89,0 89,-19"/>
<text text-anchor="middle" x="44.5" y="-7" font-family="Helvetica,sans-Serif" font-size="10.00">__osThreadTail</text>
</a>
</g>
</g>
<!-- Node2 -->
<g id="Node000002" class="node">
<title>Node2</title>
<g id="a_Node000002"><a xlink:href="structOSThread__s.html" target="_top" xlink:title=" ">
<polygon fill="white" stroke="#666666" points="162.5,-92 88.5,-92 88.5,-73 162.5,-73 162.5,-92"/>
<text text-anchor="middle" x="125.5" y="-80" font-family="Helvetica,sans-Serif" font-size="10.00">OSThread_s</text>
</a>
</g>
</g>
<!-- Node2&#45;&gt;Node1 -->
<g id="edge1_Node000001_Node000002" class="edge">
<title>Node2&#45;&gt;Node1</title>
<g id="a_edge1_Node000001_Node000002"><a xlink:title=" ">
<path fill="none" stroke="#9a32cd" stroke-dasharray="5,2" d="M107.79,-65.98C91.46,-51.66 67.79,-30.92 54.51,-19.28"/>
<polygon fill="#9a32cd" stroke="#9a32cd" points="105.74,-68.83 115.57,-72.79 110.35,-63.57 105.74,-68.83"/>
</a>
</g>
<text text-anchor="middle" x="98" y="-40" font-family="Helvetica,sans-Serif" font-size="10.00" fill="grey"> next</text>
</g>
<!-- Node2&#45;&gt;Node2 -->
<g id="edge2_Node000002_Node000002" class="edge">
<title>Node2&#45;&gt;Node2</title>
<g id="a_edge2_Node000002_Node000002"><a xlink:title=" ">
<path fill="none" stroke="#9a32cd" stroke-dasharray="5,2" d="M172.69,-88.65C177.46,-87.43 180.5,-85.38 180.5,-82.5 180.5,-77.89 172.71,-75.41 162.52,-75.05"/>
<polygon fill="#9a32cd" stroke="#9a32cd" points="171.99,-85.21 162.52,-89.95 172.88,-92.16 171.99,-85.21"/>
</a>
</g>
<text text-anchor="middle" x="196" y="-91" font-family="Helvetica,sans-Serif" font-size="10.00" fill="grey"> next</text>
<text text-anchor="middle" x="196" y="-80" font-family="Helvetica,sans-Serif" font-size="10.00" fill="grey">queue</text>
<text text-anchor="middle" x="196" y="-69" font-family="Helvetica,sans-Serif" font-size="10.00" fill="grey">tlnext</text>
</g>
<!-- Node3 -->
<g id="Node000003" class="node">
<title>Node3</title>
<g id="a_Node000003"><a xlink:title=" ">
<polygon fill="white" stroke="#666666" points="39.5,-176 5.5,-176 5.5,-157 39.5,-157 39.5,-176"/>
<text text-anchor="middle" x="22.5" y="-164" font-family="Helvetica,sans-Serif" font-size="10.00">s32</text>
</a>
</g>
</g>
<!-- Node3&#45;&gt;Node1 -->
<g id="edge15_Node000001_Node000003" class="edge">
<title>Node3&#45;&gt;Node1</title>
<g id="a_edge15_Node000001_Node000003"><a xlink:title=" ">
<path fill="none" stroke="#9a32cd" stroke-dasharray="5,2" d="M22.64,-146.73C22.87,-137.72 23.39,-126.77 24.5,-117 28.67,-80.36 38.18,-37.4 42.41,-19.27"/>
<polygon fill="#9a32cd" stroke="#9a32cd" points="19.14,-146.83 22.48,-156.89 26.14,-146.94 19.14,-146.83"/>
</a>
</g>
<text text-anchor="middle" x="52" y="-80" font-family="Helvetica,sans-Serif" font-size="10.00" fill="grey"> priority</text>
</g>
<!-- Node3&#45;&gt;Node2 -->
<g id="edge3_Node000002_Node000003" class="edge">
<title>Node3&#45;&gt;Node2</title>
<g id="a_edge3_Node000002_Node000003"><a xlink:title=" ">
<path fill="none" stroke="#9a32cd" stroke-dasharray="5,2" d="M25.56,-147.01C28.07,-137.02 32.56,-125.1 40.5,-117 53.27,-103.97 71.72,-95.89 88.17,-90.94"/>
<polygon fill="#9a32cd" stroke="#9a32cd" points="22.13,-146.33 23.55,-156.82 28.99,-147.73 22.13,-146.33"/>
</a>
</g>
<text text-anchor="middle" x="58.5" y="-131" font-family="Helvetica,sans-Serif" font-size="10.00" fill="grey"> id</text>
<text text-anchor="middle" x="58.5" y="-120" font-family="Helvetica,sans-Serif" font-size="10.00" fill="grey">priority</text>
</g>
<!-- Node4 -->
<g id="Node000004" class="node">
<title>Node4</title>
<g id="a_Node000004"><a xlink:title=" ">
<polygon fill="white" stroke="#666666" points="422,-176 387,-176 387,-157 422,-157 422,-176"/>
<text text-anchor="middle" x="404.5" y="-164" font-family="Helvetica,sans-Serif" font-size="10.00">u16</text>
</a>
</g>
</g>
<!-- Node4&#45;&gt;Node2 -->
<g id="edge4_Node000002_Node000004" class="edge">
<title>Node4&#45;&gt;Node2</title>
<g id="a_edge4_Node000002_Node000004"><a xlink:title=" ">
<path fill="none" stroke="#9a32cd" stroke-dasharray="5,2" d="M379.41,-152.25C357.92,-141.39 325.89,-126.34 296.5,-117 251.52,-102.7 197.86,-93.39 162.8,-88.3"/>
<polygon fill="#9a32cd" stroke="#9a32cd" points="377.99,-155.46 388.49,-156.91 381.19,-149.23 377.99,-155.46"/>
</a>
</g>
<text text-anchor="middle" x="364" y="-131" font-family="Helvetica,sans-Serif" font-size="10.00" fill="grey"> flags</text>
<text text-anchor="middle" x="364" y="-120" font-family="Helvetica,sans-Serif" font-size="10.00" fill="grey">state</text>
</g>
<!-- Node5 -->
<g id="Node000005" class="node">
<title>Node5</title>
<g id="a_Node000005"><a xlink:title=" ">
<polygon fill="white" stroke="#666666" points="161,-352 132,-352 132,-333 161,-333 161,-352"/>
<text text-anchor="middle" x="146.5" y="-340" font-family="Helvetica,sans-Serif" font-size="10.00">int</text>
</a>
</g>
</g>
<!-- Node5&#45;&gt;Node2 -->
<g id="edge5_Node000002_Node000005" class="edge">
<title>Node5&#45;&gt;Node2</title>
<g id="a_edge5_Node000002_Node000005"><a xlink:title=" ">
<path fill="none" stroke="#9a32cd" stroke-dasharray="5,2" d="M135.76,-324.17C134.18,-321.18 132.69,-318.06 131.5,-315 105.55,-248.22 87.38,-227.62 99.5,-157 103.67,-132.72 115.05,-105.81 121.28,-92.29"/>
<polygon fill="#9a32cd" stroke="#9a32cd" points="132.81,-326.07 140.84,-332.98 138.87,-322.57 132.81,-326.07"/>
</a>
</g>
<text text-anchor="middle" x="106" y="-164" font-family="Helvetica,sans-Serif" font-size="10.00" fill="grey"> fp</text>
</g>
<!-- Node6 -->
<g id="Node000006" class="node">
<title>Node6</title>
<g id="a_Node000006"><a xlink:href="struct____OSThreadprofile__s.html" target="_top" xlink:title=" ">
<polygon fill="white" stroke="#666666" points="237.5,-176 121.5,-176 121.5,-157 237.5,-157 237.5,-176"/>
<text text-anchor="middle" x="179.5" y="-164" font-family="Helvetica,sans-Serif" font-size="10.00">__OSThreadprofile_s</text>
</a>
</g>
</g>
<!-- Node5&#45;&gt;Node6 -->
<g id="edge8_Node000006_Node000005" class="edge">
<title>Node5&#45;&gt;Node6</title>
<g id="a_edge8_Node000006_Node000005"><a xlink:title=" ">
<path fill="none" stroke="#9a32cd" stroke-dasharray="5,2" d="M141.86,-322.99C135.59,-293.91 127.35,-236.48 147.5,-194 151.02,-186.57 157.76,-180.5 164.14,-176.06"/>
<polygon fill="#9a32cd" stroke="#9a32cd" points="138.51,-324.02 144.18,-332.96 145.33,-322.43 138.51,-324.02"/>
</a>
</g>
<text text-anchor="middle" x="160.5" y="-252" font-family="Helvetica,sans-Serif" font-size="10.00" fill="grey"> time</text>
</g>
<!-- Node8 -->
<g id="Node000008" class="node">
<title>Node8</title>
<g id="a_Node000008"><a xlink:href="struct____OSThreadContext.html" target="_top" xlink:title=" ">
<polygon fill="white" stroke="#666666" points="369,-176 256,-176 256,-157 369,-157 369,-176"/>
<text text-anchor="middle" x="312.5" y="-164" font-family="Helvetica,sans-Serif" font-size="10.00">__OSThreadContext</text>
</a>
</g>
</g>
<!-- Node5&#45;&gt;Node8 -->
<g id="edge10_Node000008_Node000005" class="edge">
<title>Node5&#45;&gt;Node8</title>
<g id="a_edge10_Node000008_Node000005"><a xlink:title=" ">
<path fill="none" stroke="#9a32cd" stroke-dasharray="5,2" d="M165.56,-325.97C168.64,-322.65 171.47,-318.94 173.5,-315 198.41,-266.6 155.21,-233.66 192.5,-194 197.47,-188.72 231.03,-181.57 261.39,-176.03"/>
<polygon fill="#9a32cd" stroke="#9a32cd" points="163.05,-323.52 158.21,-332.94 167.87,-328.6 163.05,-323.52"/>
</a>
</g>
<text text-anchor="middle" x="200.5" y="-307" font-family="Helvetica,sans-Serif" font-size="10.00" fill="grey"> a0</text>
<text text-anchor="middle" x="200.5" y="-296" font-family="Helvetica,sans-Serif" font-size="10.00" fill="grey">a1</text>
<text text-anchor="middle" x="200.5" y="-285" font-family="Helvetica,sans-Serif" font-size="10.00" fill="grey">a2</text>
<text text-anchor="middle" x="200.5" y="-274" font-family="Helvetica,sans-Serif" font-size="10.00" fill="grey">a3</text>
<text text-anchor="middle" x="200.5" y="-263" font-family="Helvetica,sans-Serif" font-size="10.00" fill="grey">at</text>
<text text-anchor="middle" x="200.5" y="-252" font-family="Helvetica,sans-Serif" font-size="10.00" fill="grey">gp</text>
<text text-anchor="middle" x="200.5" y="-241" font-family="Helvetica,sans-Serif" font-size="10.00" fill="grey">hi</text>
<text text-anchor="middle" x="200.5" y="-230" font-family="Helvetica,sans-Serif" font-size="10.00" fill="grey">lo</text>
<text text-anchor="middle" x="200.5" y="-219" font-family="Helvetica,sans-Serif" font-size="10.00" fill="grey">ra</text>
<text text-anchor="middle" x="200.5" y="-208" font-family="Helvetica,sans-Serif" font-size="10.00" fill="grey">s0</text>
<text text-anchor="middle" x="200.5" y="-197" font-family="Helvetica,sans-Serif" font-size="10.00" fill="grey">...</text>
</g>
<!-- Node6&#45;&gt;Node2 -->
<g id="edge6_Node000002_Node000006" class="edge">
<title>Node6&#45;&gt;Node2</title>
<g id="a_edge6_Node000002_Node000006"><a xlink:title=" ">
<path fill="none" stroke="#9a32cd" stroke-dasharray="5,2" d="M168.11,-148.2C156.82,-131.05 139.98,-105.49 131.24,-92.21"/>
<polygon fill="#9a32cd" stroke="#9a32cd" points="165.3,-150.3 173.72,-156.72 171.14,-146.45 165.3,-150.3"/>
</a>
</g>
<text text-anchor="middle" x="179" y="-125.5" font-family="Helvetica,sans-Serif" font-size="10.00" fill="grey"> thprof</text>
</g>
<!-- Node7 -->
<g id="Node000007" class="node">
<title>Node7</title>
<g id="a_Node000007"><a xlink:title=" ">
<polygon fill="white" stroke="#666666" points="279,-352 244,-352 244,-333 279,-333 279,-352"/>
<text text-anchor="middle" x="261.5" y="-340" font-family="Helvetica,sans-Serif" font-size="10.00">u32</text>
</a>
</g>
</g>
<!-- Node7&#45;&gt;Node6 -->
<g id="edge7_Node000006_Node000007" class="edge">
<title>Node7&#45;&gt;Node6</title>
<g id="a_edge7_Node000006_Node000007"><a xlink:title=" ">
<path fill="none" stroke="#9a32cd" stroke-dasharray="5,2" d="M240.43,-326.35C236.97,-322.98 233.78,-319.16 231.5,-315 205.33,-267.27 239.78,-241.11 212.5,-194 208.3,-186.75 201.3,-180.7 194.82,-176.22"/>
<polygon fill="#9a32cd" stroke="#9a32cd" points="238.3,-329.14 248.18,-332.97 242.85,-323.81 238.3,-329.14"/>
</a>
</g>
<text text-anchor="middle" x="247" y="-257.5" font-family="Helvetica,sans-Serif" font-size="10.00" fill="grey"> count</text>
<text text-anchor="middle" x="247" y="-246.5" font-family="Helvetica,sans-Serif" font-size="10.00" fill="grey">flag</text>
</g>
<!-- Node7&#45;&gt;Node8 -->
<g id="edge11_Node000008_Node000007" class="edge">
<title>Node7&#45;&gt;Node8</title>
<g id="a_edge11_Node000008_Node000007"><a xlink:title=" ">
<path fill="none" stroke="#9a32cd" stroke-dasharray="5,2" d="M265.12,-322.69C265.6,-320.11 266.07,-317.49 266.5,-315 275.77,-261.36 260.59,-242.4 285.5,-194 289.11,-186.99 295.26,-180.73 300.79,-176.06"/>
<polygon fill="#9a32cd" stroke="#9a32cd" points="261.65,-322.2 263.23,-332.68 268.53,-323.5 261.65,-322.2"/>
</a>
</g>
<text text-anchor="middle" x="310" y="-279.5" font-family="Helvetica,sans-Serif" font-size="10.00" fill="grey"> badvaddr</text>
<text text-anchor="middle" x="310" y="-268.5" font-family="Helvetica,sans-Serif" font-size="10.00" fill="grey">cause</text>
<text text-anchor="middle" x="310" y="-257.5" font-family="Helvetica,sans-Serif" font-size="10.00" fill="grey">fpcsr</text>
<text text-anchor="middle" x="310" y="-246.5" font-family="Helvetica,sans-Serif" font-size="10.00" fill="grey">pc</text>
<text text-anchor="middle" x="310" y="-235.5" font-family="Helvetica,sans-Serif" font-size="10.00" fill="grey">rcp</text>
<text text-anchor="middle" x="310" y="-224.5" font-family="Helvetica,sans-Serif" font-size="10.00" fill="grey">sr</text>
</g>
<!-- Node8&#45;&gt;Node2 -->
<g id="edge9_Node000002_Node000008" class="edge">
<title>Node8&#45;&gt;Node2</title>
<g id="a_edge9_Node000002_Node000008"><a xlink:title=" ">
<path fill="none" stroke="#9a32cd" stroke-dasharray="5,2" d="M283.21,-152.66C244.61,-135.73 177.77,-106.42 144.9,-92"/>
<polygon fill="#9a32cd" stroke="#9a32cd" points="282.28,-156.07 292.84,-156.88 285.09,-149.66 282.28,-156.07"/>
</a>
</g>
<text text-anchor="middle" x="272.5" y="-125.5" font-family="Helvetica,sans-Serif" font-size="10.00" fill="grey"> context</text>
</g>
<!-- Node9 -->
<g id="Node000009" class="node">
<title>Node9</title>
<g id="a_Node000009"><a xlink:href="union____OSfp.html" target="_top" xlink:title=" ">
<polygon fill="white" stroke="#666666" points="385.5,-352 335.5,-352 335.5,-333 385.5,-333 385.5,-352"/>
<text text-anchor="middle" x="360.5" y="-340" font-family="Helvetica,sans-Serif" font-size="10.00">__OSfp</text>
</a>
</g>
</g>
<!-- Node9&#45;&gt;Node8 -->
<g id="edge12_Node000008_Node000009" class="edge">
<title>Node9&#45;&gt;Node8</title>
<g id="a_edge12_Node000008_Node000009"><a xlink:title=" ">
<path fill="none" stroke="#9a32cd" stroke-dasharray="5,2" d="M361.31,-322.62C361.78,-293.44 359.6,-236.37 338.5,-194 335.05,-187.08 329.12,-180.82 323.8,-176.13"/>
<polygon fill="#9a32cd" stroke="#9a32cd" points="357.8,-322.87 361,-332.97 364.79,-323.08 357.8,-322.87"/>
</a>
</g>
<text text-anchor="middle" x="371.5" y="-307" font-family="Helvetica,sans-Serif" font-size="10.00" fill="grey"> fp0</text>
<text text-anchor="middle" x="371.5" y="-296" font-family="Helvetica,sans-Serif" font-size="10.00" fill="grey">fp10</text>
<text text-anchor="middle" x="371.5" y="-285" font-family="Helvetica,sans-Serif" font-size="10.00" fill="grey">fp12</text>
<text text-anchor="middle" x="371.5" y="-274" font-family="Helvetica,sans-Serif" font-size="10.00" fill="grey">fp14</text>
<text text-anchor="middle" x="371.5" y="-263" font-family="Helvetica,sans-Serif" font-size="10.00" fill="grey">fp16</text>
<text text-anchor="middle" x="371.5" y="-252" font-family="Helvetica,sans-Serif" font-size="10.00" fill="grey">fp18</text>
<text text-anchor="middle" x="371.5" y="-241" font-family="Helvetica,sans-Serif" font-size="10.00" fill="grey">fp2</text>
<text text-anchor="middle" x="371.5" y="-230" font-family="Helvetica,sans-Serif" font-size="10.00" fill="grey">fp20</text>
<text text-anchor="middle" x="371.5" y="-219" font-family="Helvetica,sans-Serif" font-size="10.00" fill="grey">fp22</text>
<text text-anchor="middle" x="371.5" y="-208" font-family="Helvetica,sans-Serif" font-size="10.00" fill="grey">fp24</text>
<text text-anchor="middle" x="371.5" y="-197" font-family="Helvetica,sans-Serif" font-size="10.00" fill="grey">...</text>
</g>
<!-- Node10 -->
<g id="Node000010" class="node">
<title>Node10</title>
<g id="a_Node000010"><a xlink:title=" ">
<polygon fill="white" stroke="#666666" points="339.5,-429 307.5,-429 307.5,-410 339.5,-410 339.5,-429"/>
<text text-anchor="middle" x="323.5" y="-417" font-family="Helvetica,sans-Serif" font-size="10.00">f32</text>
</a>
</g>
</g>
<!-- Node10&#45;&gt;Node9 -->
<g id="edge13_Node000009_Node000010" class="edge">
<title>Node10&#45;&gt;Node9</title>
<g id="a_edge13_Node000009_Node000010"><a xlink:title=" ">
<path fill="none" stroke="#9a32cd" stroke-dasharray="5,2" d="M327.39,-400.03C329.81,-390.68 333.43,-379.36 338.5,-370 342.03,-363.48 347.3,-357.06 351.8,-352.17"/>
<polygon fill="#9a32cd" stroke="#9a32cd" points="323.96,-399.33 325.1,-409.86 330.78,-400.92 323.96,-399.33"/>
</a>
</g>
<text text-anchor="middle" x="357" y="-384" font-family="Helvetica,sans-Serif" font-size="10.00" fill="grey"> f_even</text>
<text text-anchor="middle" x="357" y="-373" font-family="Helvetica,sans-Serif" font-size="10.00" fill="grey">f_odd</text>
</g>
<!-- Node11 -->
<g id="Node000011" class="node">
<title>Node11</title>
<g id="a_Node000011"><a xlink:title=" ">
<polygon fill="white" stroke="#666666" points="437.5,-429 357.5,-429 357.5,-410 437.5,-410 437.5,-429"/>
<text text-anchor="middle" x="397.5" y="-417" font-family="Helvetica,sans-Serif" font-size="10.00">anonymous:f</text>
</a>
</g>
</g>
<!-- Node11&#45;&gt;Node9 -->
<g id="edge14_Node000009_Node000011" class="edge">
<title>Node11&#45;&gt;Node9</title>
<g id="a_edge14_Node000009_Node000011"><a xlink:title=" ">
<path fill="none" stroke="#9a32cd" stroke-dasharray="5,2" d="M389.79,-400.49C385.73,-391.28 380.55,-379.94 375.5,-370 372.43,-363.97 368.68,-357.34 365.7,-352.23"/>
<polygon fill="#9a32cd" stroke="#9a32cd" points="386.64,-402.03 393.83,-409.8 393.06,-399.24 386.64,-402.03"/>
</a>
</g>
<text text-anchor="middle" x="389" y="-378.5" font-family="Helvetica,sans-Serif" font-size="10.00" fill="grey"> f</text>
</g>
</g>
</svg>
