<?xml version="1.0" encoding="UTF-8" standalone="no"?>
<!DOCTYPE svg PUBLIC "-//W3C//DTD SVG 1.1//EN"
 "http://www.w3.org/Graphics/SVG/1.1/DTD/svg11.dtd">
<!-- Generated by graphviz version 2.43.0 (0)
 -->
<!-- Title: ma_delay_config Pages: 1 -->
<svg width="223pt" height="115pt"
 viewBox="0.00 0.00 222.50 115.00" xmlns="http://www.w3.org/2000/svg" xmlns:xlink="http://www.w3.org/1999/xlink">
<g id="graph0" class="graph" transform="scale(1 1) rotate(0) translate(4 111)">
<title>ma_delay_config</title>
<!-- Node1 -->
<g id="Node000001" class="node">
<title>Node1</title>
<g id="a_Node000001"><a xlink:title=" ">
<polygon fill="#999999" stroke="#666666" points="160,-19 61,-19 61,0 160,0 160,-19"/>
<text text-anchor="middle" x="110.5" y="-7" font-family="Helvetica,sans-Serif" font-size="10.00">ma_delay_config</text>
</a>
</g>
</g>
<!-- Node2 -->
<g id="Node000002" class="node">
<title>Node2</title>
<g id="a_Node000002"><a xlink:title=" ">
<polygon fill="white" stroke="#666666" points="29,-107 0,-107 0,-88 29,-88 29,-107"/>
<text text-anchor="middle" x="14.5" y="-95" font-family="Helvetica,sans-Serif" font-size="10.00">int</text>
</a>
</g>
</g>
<!-- Node2&#45;&gt;Node1 -->
<g id="edge1_Node000001_Node000002" class="edge">
<title>Node2&#45;&gt;Node1</title>
<g id="a_edge1_Node000001_Node000002"><a xlink:title=" ">
<path fill="none" stroke="#9a32cd" stroke-dasharray="5,2" d="M16.1,-77.82C18.15,-64.82 22.83,-47.91 33.5,-37 41.61,-28.71 52.42,-23.01 63.37,-19.1"/>
<polygon fill="#9a32cd" stroke="#9a32cd" points="12.59,-77.65 14.89,-88 19.54,-78.48 12.59,-77.65"/>
</a>
</g>
<text text-anchor="middle" x="70" y="-62" font-family="Helvetica,sans-Serif" font-size="10.00" fill="grey"> channels</text>
<text text-anchor="middle" x="70" y="-51" font-family="Helvetica,sans-Serif" font-size="10.00" fill="grey">delayInFrames</text>
<text text-anchor="middle" x="70" y="-40" font-family="Helvetica,sans-Serif" font-size="10.00" fill="grey">sampleRate</text>
</g>
<!-- Node3 -->
<g id="Node000003" class="node">
<title>Node3</title>
<g id="a_Node000003"><a xlink:title=" ">
<polygon fill="white" stroke="#666666" points="144.5,-107 76.5,-107 76.5,-88 144.5,-88 144.5,-107"/>
<text text-anchor="middle" x="110.5" y="-95" font-family="Helvetica,sans-Serif" font-size="10.00">ma_uint32</text>
</a>
</g>
</g>
<!-- Node3&#45;&gt;Node1 -->
<g id="edge2_Node000001_Node000003" class="edge">
<title>Node3&#45;&gt;Node1</title>
<g id="a_edge2_Node000001_Node000003"><a xlink:title=" ">
<path fill="none" stroke="#9a32cd" stroke-dasharray="5,2" d="M110.5,-77.91C110.5,-59.67 110.5,-32.65 110.5,-19.03"/>
<polygon fill="#9a32cd" stroke="#9a32cd" points="107,-77.94 110.5,-87.94 114,-77.94 107,-77.94"/>
</a>
</g>
<text text-anchor="middle" x="137.5" y="-51" font-family="Helvetica,sans-Serif" font-size="10.00" fill="grey"> delayStart</text>
</g>
<!-- Node4 -->
<g id="Node000004" class="node">
<title>Node4</title>
<g id="a_Node000004"><a xlink:title=" ">
<polygon fill="white" stroke="#666666" points="206.5,-107 168.5,-107 168.5,-88 206.5,-88 206.5,-107"/>
<text text-anchor="middle" x="187.5" y="-95" font-family="Helvetica,sans-Serif" font-size="10.00">float</text>
</a>
</g>
</g>
<!-- Node4&#45;&gt;Node1 -->
<g id="edge3_Node000001_Node000004" class="edge">
<title>Node4&#45;&gt;Node1</title>
<g id="a_edge3_Node000001_Node000004"><a xlink:title=" ">
<path fill="none" stroke="#9a32cd" stroke-dasharray="5,2" d="M184.38,-77.73C181.42,-64.95 175.82,-48.34 165.5,-37 158.23,-29 148.02,-23.17 138.37,-19.05"/>
<polygon fill="#9a32cd" stroke="#9a32cd" points="180.99,-78.63 186.36,-87.76 187.86,-77.27 180.99,-78.63"/>
</a>
</g>
<text text-anchor="middle" x="198" y="-62" font-family="Helvetica,sans-Serif" font-size="10.00" fill="grey"> decay</text>
<text text-anchor="middle" x="198" y="-51" font-family="Helvetica,sans-Serif" font-size="10.00" fill="grey">dry</text>
<text text-anchor="middle" x="198" y="-40" font-family="Helvetica,sans-Serif" font-size="10.00" fill="grey">wet</text>
</g>
</g>
</svg>
