<?xml version="1.0" encoding="UTF-8" standalone="no"?>
<!DOCTYPE svg PUBLIC "-//W3C//DTD SVG 1.1//EN"
 "http://www.w3.org/Graphics/SVG/1.1/DTD/svg11.dtd">
<!-- Generated by graphviz version 2.43.0 (0)
 -->
<!-- Title: SF64::ColPolyData Pages: 1 -->
<svg width="178pt" height="104pt"
 viewBox="0.00 0.00 178.00 104.00" xmlns="http://www.w3.org/2000/svg" xmlns:xlink="http://www.w3.org/1999/xlink">
<g id="graph0" class="graph" transform="scale(1 1) rotate(0) translate(4 100)">
<title>SF64::ColPolyData</title>
<!-- Node1 -->
<g id="Node000001" class="node">
<title>Node1</title>
<g id="a_Node000001"><a xlink:title=" ">
<polygon fill="#999999" stroke="#666666" points="130.5,-19 23.5,-19 23.5,0 130.5,0 130.5,-19"/>
<text text-anchor="middle" x="77" y="-7" font-family="Helvetica,sans-Serif" font-size="10.00">SF64::ColPolyData</text>
</a>
</g>
</g>
<!-- Node2 -->
<g id="Node000002" class="node">
<title>Node2</title>
<g id="a_Node000002"><a xlink:title=" ">
<polygon fill="white" stroke="#666666" points="34,-96 0,-96 0,-77 34,-77 34,-96"/>
<text text-anchor="middle" x="17" y="-84" font-family="Helvetica,sans-Serif" font-size="10.00">s16</text>
</a>
</g>
</g>
<!-- Node2&#45;&gt;Node1 -->
<g id="edge1_Node000001_Node000002" class="edge">
<title>Node2&#45;&gt;Node1</title>
<g id="a_edge1_Node000001_Node000002"><a xlink:title=" ">
<path fill="none" stroke="#9a32cd" stroke-dasharray="5,2" d="M24.74,-67.9C29.49,-58.21 36.16,-46.29 44,-37 49.78,-30.15 57.55,-23.81 64.09,-19.05"/>
<polygon fill="#9a32cd" stroke="#9a32cd" points="21.55,-66.45 20.52,-77 27.9,-69.4 21.55,-66.45"/>
</a>
</g>
<text text-anchor="middle" x="58.5" y="-51" font-family="Helvetica,sans-Serif" font-size="10.00" fill="grey"> norm</text>
<text text-anchor="middle" x="58.5" y="-40" font-family="Helvetica,sans-Serif" font-size="10.00" fill="grey">tri</text>
</g>
<!-- Node3 -->
<g id="Node000003" class="node">
<title>Node3</title>
<g id="a_Node000003"><a xlink:title=" ">
<polygon fill="white" stroke="#666666" points="102,-96 52,-96 52,-77 102,-77 102,-96"/>
<text text-anchor="middle" x="77" y="-84" font-family="Helvetica,sans-Serif" font-size="10.00">int16_t</text>
</a>
</g>
</g>
<!-- Node3&#45;&gt;Node1 -->
<g id="edge2_Node000001_Node000003" class="edge">
<title>Node3&#45;&gt;Node1</title>
<g id="a_edge2_Node000001_Node000003"><a xlink:title=" ">
<path fill="none" stroke="#9a32cd" stroke-dasharray="5,2" d="M77,-66.52C77,-51.24 77,-30.48 77,-19"/>
<polygon fill="#9a32cd" stroke="#9a32cd" points="73.5,-66.9 77,-76.9 80.5,-66.9 73.5,-66.9"/>
</a>
</g>
<text text-anchor="middle" x="96.5" y="-51" font-family="Helvetica,sans-Serif" font-size="10.00" fill="grey"> unk_06</text>
<text text-anchor="middle" x="96.5" y="-40" font-family="Helvetica,sans-Serif" font-size="10.00" fill="grey">unk_0E</text>
</g>
<!-- Node4 -->
<g id="Node000004" class="node">
<title>Node4</title>
<g id="a_Node000004"><a xlink:title=" ">
<polygon fill="white" stroke="#666666" points="170,-96 120,-96 120,-77 170,-77 170,-96"/>
<text text-anchor="middle" x="145" y="-84" font-family="Helvetica,sans-Serif" font-size="10.00">int32_t</text>
</a>
</g>
</g>
<!-- Node4&#45;&gt;Node1 -->
<g id="edge3_Node000001_Node000004" class="edge">
<title>Node4&#45;&gt;Node1</title>
<g id="a_edge3_Node000001_Node000004"><a xlink:title=" ">
<path fill="none" stroke="#9a32cd" stroke-dasharray="5,2" d="M138.37,-67.18C134.18,-57.42 128.04,-45.68 120,-37 113.21,-29.67 103.94,-23.61 95.74,-19.15"/>
<polygon fill="#9a32cd" stroke="#9a32cd" points="135.22,-68.74 142.14,-76.76 141.73,-66.17 135.22,-68.74"/>
</a>
</g>
<text text-anchor="middle" x="145" y="-45.5" font-family="Helvetica,sans-Serif" font-size="10.00" fill="grey"> dist</text>
</g>
</g>
</svg>
