<?xml version="1.0" encoding="UTF-8" standalone="no"?>
<!DOCTYPE svg PUBLIC "-//W3C//DTD SVG 1.1//EN"
 "http://www.w3.org/Graphics/SVG/1.1/DTD/svg11.dtd">
<!-- Generated by graphviz version 2.43.0 (0)
 -->
<!-- Title: src/engine/TrackBrowser.h Pages: 1 -->
<svg width="1899pt" height="192pt"
 viewBox="0.00 0.00 1898.50 192.00" xmlns="http://www.w3.org/2000/svg" xmlns:xlink="http://www.w3.org/1999/xlink">
<g id="graph0" class="graph" transform="scale(1 1) rotate(0) translate(4 188)">
<title>src/engine/TrackBrowser.h</title>
<!-- Node1 -->
<g id="Node000001" class="node">
<title>Node1</title>
<g id="a_Node000001"><a xlink:title=" ">
<polygon fill="#999999" stroke="#666666" points="1065,-184 922,-184 922,-165 1065,-165 1065,-184"/>
<text text-anchor="middle" x="993.5" y="-172" font-family="Helvetica,sans-Serif" font-size="10.00">src/engine/TrackBrowser.h</text>
</a>
</g>
</g>
<!-- Node2 -->
<g id="Node000002" class="node">
<title>Node2</title>
<g id="a_Node000002"><a xlink:href="external_8c.html" target="_top" xlink:title=" ">
<polygon fill="white" stroke="#666666" points="113,-129 0,-129 0,-110 113,-110 113,-129"/>
<text text-anchor="middle" x="56.5" y="-117" font-family="Helvetica,sans-Serif" font-size="10.00">src/audio/external.c</text>
</a>
</g>
</g>
<!-- Node1&#45;&gt;Node2 -->
<g id="edge1_Node000001_Node000002" class="edge">
<title>Node1&#45;&gt;Node2</title>
<g id="a_edge1_Node000001_Node000002"><a xlink:title=" ">
<path fill="none" stroke="#63b8ff" d="M911.51,-171.48C756.8,-167.18 411.3,-155.3 121.5,-129 118.78,-128.75 116,-128.48 113.19,-128.18"/>
<polygon fill="#63b8ff" stroke="#63b8ff" points="911.78,-174.99 921.87,-171.76 911.97,-167.99 911.78,-174.99"/>
</a>
</g>
</g>
<!-- Node3 -->
<g id="Node000003" class="node">
<title>Node3</title>
<g id="a_Node000003"><a xlink:href="code__800029B0_8c.html" target="_top" xlink:title=" ">
<polygon fill="white" stroke="#666666" points="250,-129 131,-129 131,-110 250,-110 250,-129"/>
<text text-anchor="middle" x="190.5" y="-117" font-family="Helvetica,sans-Serif" font-size="10.00">src/code_800029B0.c</text>
</a>
</g>
</g>
<!-- Node1&#45;&gt;Node3 -->
<g id="edge2_Node000001_Node000003" class="edge">
<title>Node1&#45;&gt;Node3</title>
<g id="a_edge2_Node000001_Node000003"><a xlink:title=" ">
<path fill="none" stroke="#63b8ff" d="M911.59,-170.25C775.7,-164.48 495.15,-150.93 258.5,-129 255.78,-128.75 252.99,-128.47 250.18,-128.18"/>
<polygon fill="#63b8ff" stroke="#63b8ff" points="911.78,-173.76 921.92,-170.69 912.07,-166.77 911.78,-173.76"/>
</a>
</g>
</g>
<!-- Node4 -->
<g id="Node000004" class="node">
<title>Node4</title>
<g id="a_Node000004"><a xlink:href="code__80280000_8c.html" target="_top" xlink:title=" ">
<polygon fill="white" stroke="#666666" points="423,-129 268,-129 268,-110 423,-110 423,-129"/>
<text text-anchor="middle" x="345.5" y="-117" font-family="Helvetica,sans-Serif" font-size="10.00">src/ending/code_80280000.c</text>
</a>
</g>
</g>
<!-- Node1&#45;&gt;Node4 -->
<g id="edge3_Node000001_Node000004" class="edge">
<title>Node1&#45;&gt;Node4</title>
<g id="a_edge3_Node000001_Node000004"><a xlink:title=" ">
<path fill="none" stroke="#63b8ff" d="M911.62,-167.52C802.17,-159.41 602.14,-144.19 431.5,-129 428.81,-128.76 426.07,-128.51 423.31,-128.26"/>
<polygon fill="#63b8ff" stroke="#63b8ff" points="911.37,-171.01 921.6,-168.26 911.89,-164.03 911.37,-171.01"/>
</a>
</g>
</g>
<!-- Node5 -->
<g id="Node000005" class="node">
<title>Node5</title>
<g id="a_Node000005"><a xlink:href="TrackBrowser_8cpp.html" target="_top" xlink:title=" ">
<polygon fill="white" stroke="#666666" points="596,-129 441,-129 441,-110 596,-110 596,-129"/>
<text text-anchor="middle" x="518.5" y="-117" font-family="Helvetica,sans-Serif" font-size="10.00">src/engine/TrackBrowser.cpp</text>
</a>
</g>
</g>
<!-- Node1&#45;&gt;Node5 -->
<g id="edge4_Node000001_Node000005" class="edge">
<title>Node1&#45;&gt;Node5</title>
<g id="a_edge4_Node000001_Node000005"><a xlink:title=" ">
<path fill="none" stroke="#63b8ff" d="M911.83,-164.39C822.93,-154.47 681.88,-138.73 595.05,-129.04"/>
<polygon fill="#63b8ff" stroke="#63b8ff" points="911.55,-167.88 921.87,-165.51 912.32,-160.92 911.55,-167.88"/>
</a>
</g>
</g>
<!-- Node6 -->
<g id="Node000006" class="node">
<title>Node6</title>
<g id="a_Node000006"><a xlink:href="Editor_8cpp.html" target="_top" xlink:title=" ">
<polygon fill="white" stroke="#666666" points="763,-129 614,-129 614,-110 763,-110 763,-129"/>
<text text-anchor="middle" x="688.5" y="-117" font-family="Helvetica,sans-Serif" font-size="10.00">src/engine/editor/Editor.cpp</text>
</a>
</g>
</g>
<!-- Node1&#45;&gt;Node6 -->
<g id="edge5_Node000001_Node000006" class="edge">
<title>Node1&#45;&gt;Node6</title>
<g id="a_edge5_Node000001_Node000006"><a xlink:title=" ">
<path fill="none" stroke="#63b8ff" d="M934.5,-163.25C877.23,-153.3 791.3,-138.36 737.63,-129.04"/>
<polygon fill="#63b8ff" stroke="#63b8ff" points="934.04,-166.72 944.5,-164.98 935.24,-159.82 934.04,-166.72"/>
</a>
</g>
</g>
<!-- Node7 -->
<g id="Node000007" class="node">
<title>Node7</title>
<g id="a_Node000007"><a xlink:href="menu__items_8c.html" target="_top" xlink:title=" ">
<polygon fill="white" stroke="#666666" points="884,-129 781,-129 781,-110 884,-110 884,-129"/>
<text text-anchor="middle" x="832.5" y="-117" font-family="Helvetica,sans-Serif" font-size="10.00">src/menu_items.c</text>
</a>
</g>
</g>
<!-- Node1&#45;&gt;Node7 -->
<g id="edge6_Node000001_Node000007" class="edge">
<title>Node1&#45;&gt;Node7</title>
<g id="a_edge6_Node000001_Node000007"><a xlink:title=" ">
<path fill="none" stroke="#63b8ff" d="M957.95,-161.8C927.91,-151.91 885.56,-137.97 858.57,-129.08"/>
<polygon fill="#63b8ff" stroke="#63b8ff" points="957.04,-165.18 967.63,-164.98 959.23,-158.53 957.04,-165.18"/>
</a>
</g>
</g>
<!-- Node8 -->
<g id="Node000008" class="node">
<title>Node8</title>
<g id="a_Node000008"><a xlink:href="menus_8c.html" target="_top" xlink:title=" ">
<polygon fill="white" stroke="#666666" points="977,-129 902,-129 902,-110 977,-110 977,-129"/>
<text text-anchor="middle" x="939.5" y="-117" font-family="Helvetica,sans-Serif" font-size="10.00">src/menus.c</text>
</a>
</g>
</g>
<!-- Node1&#45;&gt;Node8 -->
<g id="edge7_Node000001_Node000008" class="edge">
<title>Node1&#45;&gt;Node8</title>
<g id="a_edge7_Node000001_Node000008"><a xlink:title=" ">
<path fill="none" stroke="#63b8ff" d="M977.22,-157.52C967.7,-148.18 956.06,-136.75 948.25,-129.09"/>
<polygon fill="#63b8ff" stroke="#63b8ff" points="974.99,-160.24 984.58,-164.75 979.9,-155.25 974.99,-160.24"/>
</a>
</g>
</g>
<!-- Node9 -->
<g id="Node000009" class="node">
<title>Node9</title>
<g id="a_Node000009"><a xlink:href="Game_8cpp.html" target="_top" xlink:title=" ">
<polygon fill="white" stroke="#666666" points="1100.5,-129 994.5,-129 994.5,-110 1100.5,-110 1100.5,-129"/>
<text text-anchor="middle" x="1047.5" y="-117" font-family="Helvetica,sans-Serif" font-size="10.00">src/port/Game.cpp</text>
</a>
</g>
</g>
<!-- Node1&#45;&gt;Node9 -->
<g id="edge8_Node000001_Node000009" class="edge">
<title>Node1&#45;&gt;Node9</title>
<g id="a_edge8_Node000001_Node000009"><a xlink:title=" ">
<path fill="none" stroke="#63b8ff" d="M1009.78,-157.52C1019.3,-148.18 1030.94,-136.75 1038.75,-129.09"/>
<polygon fill="#63b8ff" stroke="#63b8ff" points="1007.1,-155.25 1002.42,-164.75 1012.01,-160.24 1007.1,-155.25"/>
</a>
</g>
</g>
<!-- Node10 -->
<g id="Node000010" class="node">
<title>Node10</title>
<g id="a_Node000010"><a xlink:href="ContentBrowser_8cpp.html" target="_top" xlink:title=" ">
<polygon fill="white" stroke="#666666" points="574.5,-19 408.5,-19 408.5,0 574.5,0 574.5,-19"/>
<text text-anchor="middle" x="491.5" y="-7" font-family="Helvetica,sans-Serif" font-size="10.00">src/port/ui/ContentBrowser.cpp</text>
</a>
</g>
</g>
<!-- Node1&#45;&gt;Node10 -->
<g id="edge9_Node000001_Node000010" class="edge">
<title>Node1&#45;&gt;Node10</title>
<g id="a_edge9_Node000001_Node000010"><a xlink:title=" ">
<path fill="none" stroke="#63b8ff" d="M1051.29,-162.56C1090.38,-152.61 1131.25,-135.54 1109.5,-110 1091.67,-89.07 715.82,-39.05 559.14,-19.01"/>
<polygon fill="#63b8ff" stroke="#63b8ff" points="1050.33,-159.19 1041.43,-164.94 1051.97,-166 1050.33,-159.19"/>
</a>
</g>
</g>
<!-- Node11 -->
<g id="Node000011" class="node">
<title>Node11</title>
<g id="a_Node000011"><a xlink:href="Menu_8h.html" target="_top" xlink:title=" ">
<polygon fill="white" stroke="#666666" points="1260.5,-129 1156.5,-129 1156.5,-110 1260.5,-110 1260.5,-129"/>
<text text-anchor="middle" x="1208.5" y="-117" font-family="Helvetica,sans-Serif" font-size="10.00">src/port/ui/Menu.h</text>
</a>
</g>
</g>
<!-- Node1&#45;&gt;Node11 -->
<g id="edge10_Node000001_Node000011" class="edge">
<title>Node1&#45;&gt;Node11</title>
<g id="a_edge10_Node000001_Node000011"><a xlink:title=" ">
<path fill="none" stroke="#63b8ff" d="M1037.86,-162.56C1078.13,-152.64 1136.7,-138.2 1173.69,-129.08"/>
<polygon fill="#63b8ff" stroke="#63b8ff" points="1036.92,-159.19 1028.04,-164.98 1038.59,-165.99 1036.92,-159.19"/>
</a>
</g>
</g>
<!-- Node20 -->
<g id="Node000020" class="node">
<title>Node20</title>
<g id="a_Node000020"><a xlink:href="Tools_8cpp.html" target="_top" xlink:title=" ">
<polygon fill="white" stroke="#666666" points="1708,-19 1595,-19 1595,0 1708,0 1708,-19"/>
<text text-anchor="middle" x="1651.5" y="-7" font-family="Helvetica,sans-Serif" font-size="10.00">src/port/ui/Tools.cpp</text>
</a>
</g>
</g>
<!-- Node1&#45;&gt;Node20 -->
<g id="edge22_Node000001_Node000020" class="edge">
<title>Node1&#45;&gt;Node20</title>
<g id="a_edge22_Node000001_Node000020"><a xlink:title=" ">
<path fill="none" stroke="#63b8ff" d="M1075.4,-168.58C1131.44,-163.24 1206.68,-152.11 1269.5,-129 1329.02,-107.1 1332.09,-77.18 1391.5,-55 1410.22,-48.01 1524.22,-29.87 1594.91,-19.03"/>
<polygon fill="#63b8ff" stroke="#63b8ff" points="1074.8,-165.12 1065.16,-169.52 1075.44,-172.09 1074.8,-165.12"/>
</a>
</g>
</g>
<!-- Node21 -->
<g id="Node000021" class="node">
<title>Node21</title>
<g id="a_Node000021"><a xlink:href="TrackProperties_8cpp.html" target="_top" xlink:title=" ">
<polygon fill="white" stroke="#666666" points="1890.5,-19 1726.5,-19 1726.5,0 1890.5,0 1890.5,-19"/>
<text text-anchor="middle" x="1808.5" y="-7" font-family="Helvetica,sans-Serif" font-size="10.00">src/port/ui/TrackProperties.cpp</text>
</a>
</g>
</g>
<!-- Node1&#45;&gt;Node21 -->
<g id="edge23_Node000001_Node000021" class="edge">
<title>Node1&#45;&gt;Node21</title>
<g id="a_edge23_Node000001_Node000021"><a xlink:title=" ">
<path fill="none" stroke="#63b8ff" d="M1074.9,-163.68C1137.17,-155.7 1225.06,-143.43 1301.5,-129 1482.48,-94.84 1696.54,-39.99 1776.38,-19.03"/>
<polygon fill="#63b8ff" stroke="#63b8ff" points="1074.22,-160.24 1064.74,-164.98 1075.1,-167.19 1074.22,-160.24"/>
</a>
</g>
</g>
<!-- Node22 -->
<g id="Node000022" class="node">
<title>Node22</title>
<g id="a_Node000022"><a xlink:href="race__logic_8c.html" target="_top" xlink:title=" ">
<polygon fill="white" stroke="#666666" points="1559,-129 1434,-129 1434,-110 1559,-110 1559,-129"/>
<text text-anchor="middle" x="1496.5" y="-117" font-family="Helvetica,sans-Serif" font-size="10.00">src/racing/race_logic.c</text>
</a>
</g>
</g>
<!-- Node1&#45;&gt;Node22 -->
<g id="edge24_Node000001_Node000022" class="edge">
<title>Node1&#45;&gt;Node22</title>
<g id="a_edge24_Node000001_Node000022"><a xlink:title=" ">
<path fill="none" stroke="#63b8ff" d="M1075.31,-165.1C1161.09,-156.25 1299.79,-141.86 1419.5,-129 1424.18,-128.5 1429.02,-127.97 1433.89,-127.44"/>
<polygon fill="#63b8ff" stroke="#63b8ff" points="1074.71,-161.64 1065.12,-166.15 1075.43,-168.6 1074.71,-161.64"/>
</a>
</g>
</g>
<!-- Node23 -->
<g id="Node000023" class="node">
<title>Node23</title>
<g id="a_Node000023"><a xlink:href="render__objects_8c.html" target="_top" xlink:title=" ">
<polygon fill="white" stroke="#666666" points="1691.5,-129 1577.5,-129 1577.5,-110 1691.5,-110 1691.5,-129"/>
<text text-anchor="middle" x="1634.5" y="-117" font-family="Helvetica,sans-Serif" font-size="10.00">src/render_objects.c</text>
</a>
</g>
</g>
<!-- Node1&#45;&gt;Node23 -->
<g id="edge25_Node000001_Node000023" class="edge">
<title>Node1&#45;&gt;Node23</title>
<g id="a_edge25_Node000001_Node000023"><a xlink:title=" ">
<path fill="none" stroke="#63b8ff" d="M1075.5,-168.47C1187.15,-161.32 1393.2,-147.06 1568.5,-129 1571.37,-128.7 1574.31,-128.38 1577.28,-128.05"/>
<polygon fill="#63b8ff" stroke="#63b8ff" points="1075.08,-164.99 1065.32,-169.12 1075.52,-171.98 1075.08,-164.99"/>
</a>
</g>
</g>
<!-- Node12 -->
<g id="Node000012" class="node">
<title>Node12</title>
<g id="a_Node000012"><a xlink:href="Menu_8cpp.html" target="_top" xlink:title=" ">
<polygon fill="white" stroke="#666666" points="1197.5,-74 1081.5,-74 1081.5,-55 1197.5,-55 1197.5,-74"/>
<text text-anchor="middle" x="1139.5" y="-62" font-family="Helvetica,sans-Serif" font-size="10.00">src/port/ui/Menu.cpp</text>
</a>
</g>
</g>
<!-- Node11&#45;&gt;Node12 -->
<g id="edge11_Node000011_Node000012" class="edge">
<title>Node11&#45;&gt;Node12</title>
<g id="a_edge11_Node000011_Node000012"><a xlink:title=" ">
<path fill="none" stroke="#63b8ff" d="M1189.46,-103.88C1177.04,-94.34 1161.26,-82.21 1150.79,-74.17"/>
<polygon fill="#63b8ff" stroke="#63b8ff" points="1187.35,-106.67 1197.41,-109.98 1191.62,-101.12 1187.35,-106.67"/>
</a>
</g>
</g>
<!-- Node13 -->
<g id="Node000013" class="node">
<title>Node13</title>
<g id="a_Node000013"><a xlink:href="PortMenu_8h.html" target="_top" xlink:title=" ">
<polygon fill="white" stroke="#666666" points="1339.5,-74 1215.5,-74 1215.5,-55 1339.5,-55 1339.5,-74"/>
<text text-anchor="middle" x="1277.5" y="-62" font-family="Helvetica,sans-Serif" font-size="10.00">src/port/ui/PortMenu.h</text>
</a>
</g>
</g>
<!-- Node11&#45;&gt;Node13 -->
<g id="edge12_Node000011_Node000013" class="edge">
<title>Node11&#45;&gt;Node13</title>
<g id="a_edge12_Node000011_Node000013"><a xlink:title=" ">
<path fill="none" stroke="#63b8ff" d="M1227.54,-103.88C1239.96,-94.34 1255.74,-82.21 1266.21,-74.17"/>
<polygon fill="#63b8ff" stroke="#63b8ff" points="1225.38,-101.12 1219.59,-109.98 1229.65,-106.67 1225.38,-101.12"/>
</a>
</g>
</g>
<!-- Node13&#45;&gt;Node10 -->
<g id="edge13_Node000013_Node000010" class="edge">
<title>Node13&#45;&gt;Node10</title>
<g id="a_edge13_Node000013_Node000010"><a xlink:title=" ">
<path fill="none" stroke="#63b8ff" d="M1204.84,-54.91C928.49,-30.73 856.7,-39.51 583.5,-19 580.62,-18.78 577.69,-18.56 574.73,-18.32"/>
<polygon fill="#63b8ff" stroke="#63b8ff" points="1204.92,-58.43 1215.18,-55.82 1205.53,-51.46 1204.92,-58.43"/>
</a>
</g>
</g>
<!-- Node14 -->
<g id="Node000014" class="node">
<title>Node14</title>
<g id="a_Node000014"><a xlink:href="FreecamWindow_8cpp.html" target="_top" xlink:title=" ">
<polygon fill="white" stroke="#666666" points="1279,-19 1110,-19 1110,0 1279,0 1279,-19"/>
<text text-anchor="middle" x="1194.5" y="-7" font-family="Helvetica,sans-Serif" font-size="10.00">src/port/ui/FreecamWindow.cpp</text>
</a>
</g>
</g>
<!-- Node13&#45;&gt;Node14 -->
<g id="edge14_Node000013_Node000014" class="edge">
<title>Node13&#45;&gt;Node14</title>
<g id="a_edge14_Node000013_Node000014"><a xlink:title=" ">
<path fill="none" stroke="#63b8ff" d="M1255.46,-49.42C1240.39,-39.81 1220.91,-27.37 1208.08,-19.17"/>
<polygon fill="#63b8ff" stroke="#63b8ff" points="1253.85,-52.55 1264.16,-54.98 1257.62,-46.65 1253.85,-52.55"/>
</a>
</g>
</g>
<!-- Node15 -->
<g id="Node000015" class="node">
<title>Node15</title>
<g id="a_Node000015"><a xlink:href="ImguiUI_8cpp.html" target="_top" xlink:title=" ">
<polygon fill="white" stroke="#666666" points="1424,-19 1297,-19 1297,0 1424,0 1424,-19"/>
<text text-anchor="middle" x="1360.5" y="-7" font-family="Helvetica,sans-Serif" font-size="10.00">src/port/ui/ImguiUI.cpp</text>
</a>
</g>
</g>
<!-- Node13&#45;&gt;Node15 -->
<g id="edge15_Node000013_Node000015" class="edge">
<title>Node13&#45;&gt;Node15</title>
<g id="a_edge15_Node000013_Node000015"><a xlink:title=" ">
<path fill="none" stroke="#63b8ff" d="M1299.54,-49.42C1314.61,-39.81 1334.09,-27.37 1346.92,-19.17"/>
<polygon fill="#63b8ff" stroke="#63b8ff" points="1297.38,-46.65 1290.84,-54.98 1301.15,-52.55 1297.38,-46.65"/>
</a>
</g>
</g>
<!-- Node16 -->
<g id="Node000016" class="node">
<title>Node16</title>
<g id="a_Node000016"><a xlink:href="PortMenu_8cpp.html" target="_top" xlink:title=" ">
<polygon fill="white" stroke="#666666" points="1577,-19 1442,-19 1442,0 1577,0 1577,-19"/>
<text text-anchor="middle" x="1509.5" y="-7" font-family="Helvetica,sans-Serif" font-size="10.00">src/port/ui/PortMenu.cpp</text>
</a>
</g>
</g>
<!-- Node13&#45;&gt;Node16 -->
<g id="edge16_Node000013_Node000016" class="edge">
<title>Node13&#45;&gt;Node16</title>
<g id="a_edge16_Node000013_Node000016"><a xlink:title=" ">
<path fill="none" stroke="#63b8ff" d="M1324.54,-52.75C1368.02,-42.82 1431.77,-28.26 1471.93,-19.08"/>
<polygon fill="#63b8ff" stroke="#63b8ff" points="1323.74,-49.35 1314.77,-54.98 1325.3,-56.17 1323.74,-49.35"/>
</a>
</g>
</g>
<!-- Node17 -->
<g id="Node000017" class="node">
<title>Node17</title>
<g id="a_Node000017"><a xlink:href="Properties_8cpp.html" target="_top" xlink:title=" ">
<polygon fill="white" stroke="#666666" points="730.5,-19 592.5,-19 592.5,0 730.5,0 730.5,-19"/>
<text text-anchor="middle" x="661.5" y="-7" font-family="Helvetica,sans-Serif" font-size="10.00">src/port/ui/Properties.cpp</text>
</a>
</g>
</g>
<!-- Node13&#45;&gt;Node17 -->
<g id="edge17_Node000013_Node000017" class="edge">
<title>Node13&#45;&gt;Node17</title>
<g id="a_edge17_Node000013_Node000017"><a xlink:title=" ">
<path fill="none" stroke="#63b8ff" d="M1205.18,-54.91C997.65,-34.73 943.54,-37.98 739.5,-19 736.65,-18.74 733.75,-18.46 730.81,-18.17"/>
<polygon fill="#63b8ff" stroke="#63b8ff" points="1204.88,-58.4 1215.18,-55.89 1205.57,-51.43 1204.88,-58.4"/>
</a>
</g>
</g>
<!-- Node18 -->
<g id="Node000018" class="node">
<title>Node18</title>
<g id="a_Node000018"><a xlink:href="ResolutionEditor_8cpp.html" target="_top" xlink:title=" ">
<polygon fill="white" stroke="#666666" points="916.5,-19 748.5,-19 748.5,0 916.5,0 916.5,-19"/>
<text text-anchor="middle" x="832.5" y="-7" font-family="Helvetica,sans-Serif" font-size="10.00">src/port/ui/ResolutionEditor.cpp</text>
</a>
</g>
</g>
<!-- Node13&#45;&gt;Node18 -->
<g id="edge18_Node000013_Node000018" class="edge">
<title>Node13&#45;&gt;Node18</title>
<g id="a_edge18_Node000013_Node000018"><a xlink:title=" ">
<path fill="none" stroke="#63b8ff" d="M1205.14,-54.84C1094.22,-41.6 977.28,-27.7 904.2,-19.02"/>
<polygon fill="#63b8ff" stroke="#63b8ff" points="1204.82,-58.32 1215.16,-56.03 1205.65,-51.37 1204.82,-58.32"/>
</a>
</g>
</g>
<!-- Node19 -->
<g id="Node000019" class="node">
<title>Node19</title>
<g id="a_Node000019"><a xlink:href="SceneExplorer_8cpp.html" target="_top" xlink:title=" ">
<polygon fill="white" stroke="#666666" points="1092.5,-19 934.5,-19 934.5,0 1092.5,0 1092.5,-19"/>
<text text-anchor="middle" x="1013.5" y="-7" font-family="Helvetica,sans-Serif" font-size="10.00">src/port/ui/SceneExplorer.cpp</text>
</a>
</g>
</g>
<!-- Node13&#45;&gt;Node19 -->
<g id="edge19_Node000013_Node000019" class="edge">
<title>Node13&#45;&gt;Node19</title>
<g id="a_edge19_Node000013_Node000019"><a xlink:title=" ">
<path fill="none" stroke="#63b8ff" d="M1225.21,-53C1175.72,-43.07 1102.33,-28.33 1056.25,-19.08"/>
<polygon fill="#63b8ff" stroke="#63b8ff" points="1224.59,-56.45 1235.08,-54.98 1225.97,-49.58 1224.59,-56.45"/>
</a>
</g>
</g>
<!-- Node13&#45;&gt;Node20 -->
<g id="edge20_Node000013_Node000020" class="edge">
<title>Node13&#45;&gt;Node20</title>
<g id="a_edge20_Node000013_Node000020"><a xlink:title=" ">
<path fill="none" stroke="#63b8ff" d="M1347.86,-53.53C1419.39,-43.39 1528.82,-27.89 1594.93,-18.52"/>
<polygon fill="#63b8ff" stroke="#63b8ff" points="1347,-50.12 1337.59,-54.98 1347.98,-57.05 1347,-50.12"/>
</a>
</g>
</g>
<!-- Node13&#45;&gt;Node21 -->
<g id="edge21_Node000013_Node000021" class="edge">
<title>Node13&#45;&gt;Node21</title>
<g id="a_edge21_Node000013_Node000021"><a xlink:title=" ">
<path fill="none" stroke="#63b8ff" d="M1349.84,-56.28C1448.04,-46.48 1623.08,-29.01 1726.19,-18.72"/>
<polygon fill="#63b8ff" stroke="#63b8ff" points="1349.32,-52.81 1339.71,-57.29 1350.01,-59.78 1349.32,-52.81"/>
</a>
</g>
</g>
</g>
</svg>
