<?xml version="1.0" encoding="UTF-8" standalone="no"?>
<!DOCTYPE svg PUBLIC "-//W3C//DTD SVG 1.1//EN"
 "http://www.w3.org/Graphics/SVG/1.1/DTD/svg11.dtd">
<!-- Generated by graphviz version 2.43.0 (0)
 -->
<!-- Title: src/engine/actors/Tree.h Pages: 1 -->
<svg width="868pt" height="203pt"
 viewBox="0.00 0.00 868.00 203.00" xmlns="http://www.w3.org/2000/svg" xmlns:xlink="http://www.w3.org/1999/xlink">
<g id="graph0" class="graph" transform="scale(1 1) rotate(0) translate(4 199)">
<title>src/engine/actors/Tree.h</title>
<!-- Node1 -->
<g id="Node000001" class="node">
<title>Node1</title>
<g id="a_Node000001"><a xlink:title=" ">
<polygon fill="#999999" stroke="#666666" points="574,-195 442,-195 442,-176 574,-176 574,-195"/>
<text text-anchor="middle" x="508" y="-183" font-family="Helvetica,sans-Serif" font-size="10.00">src/engine/actors/Tree.h</text>
</a>
</g>
</g>
<!-- Node2 -->
<g id="Node000002" class="node">
<title>Node2</title>
<g id="a_Node000002"><a xlink:href="AllActors_8h.html" target="_top" xlink:title=" ">
<polygon fill="white" stroke="#666666" points="333,-140 211,-140 211,-121 333,-121 333,-140"/>
<text text-anchor="middle" x="272" y="-128" font-family="Helvetica,sans-Serif" font-size="10.00">src/engine/AllActors.h</text>
</a>
</g>
</g>
<!-- Node1&#45;&gt;Node2 -->
<g id="edge1_Node000001_Node000002" class="edge">
<title>Node1&#45;&gt;Node2</title>
<g id="a_edge1_Node000001_Node000002"><a xlink:title=" ">
<path fill="none" stroke="#63b8ff" d="M460.15,-173.75C415.92,-163.82 351.07,-149.26 310.21,-140.08"/>
<polygon fill="#63b8ff" stroke="#63b8ff" points="459.56,-177.21 470.08,-175.98 461.09,-170.38 459.56,-177.21"/>
</a>
</g>
</g>
<!-- Node8 -->
<g id="Node000008" class="node">
<title>Node8</title>
<g id="a_Node000008"><a xlink:href="Tree_8cpp.html" target="_top" xlink:title=" ">
<polygon fill="white" stroke="#666666" points="494.5,-140 351.5,-140 351.5,-121 494.5,-121 494.5,-140"/>
<text text-anchor="middle" x="423" y="-128" font-family="Helvetica,sans-Serif" font-size="10.00">src/engine/actors/Tree.cpp</text>
</a>
</g>
</g>
<!-- Node1&#45;&gt;Node8 -->
<g id="edge8_Node000001_Node000008" class="edge">
<title>Node1&#45;&gt;Node8</title>
<g id="a_edge8_Node000001_Node000008"><a xlink:title=" ">
<path fill="none" stroke="#63b8ff" d="M485.43,-170.42C470,-160.81 450.05,-148.37 436.91,-140.17"/>
<polygon fill="#63b8ff" stroke="#63b8ff" points="484.01,-173.66 494.34,-175.98 487.71,-167.72 484.01,-173.66"/>
</a>
</g>
</g>
<!-- Node9 -->
<g id="Node000009" class="node">
<title>Node9</title>
<g id="a_Node000009"><a xlink:href="Harbour_8cpp.html" target="_top" xlink:title=" ">
<polygon fill="white" stroke="#666666" points="673.5,-140 512.5,-140 512.5,-121 673.5,-121 673.5,-140"/>
<text text-anchor="middle" x="593" y="-128" font-family="Helvetica,sans-Serif" font-size="10.00">src/engine/tracks/Harbour.cpp</text>
</a>
</g>
</g>
<!-- Node1&#45;&gt;Node9 -->
<g id="edge9_Node000001_Node000009" class="edge">
<title>Node1&#45;&gt;Node9</title>
<g id="a_edge9_Node000001_Node000009"><a xlink:title=" ">
<path fill="none" stroke="#63b8ff" d="M530.57,-170.42C546,-160.81 565.95,-148.37 579.09,-140.17"/>
<polygon fill="#63b8ff" stroke="#63b8ff" points="528.29,-167.72 521.66,-175.98 531.99,-173.66 528.29,-167.72"/>
</a>
</g>
</g>
<!-- Node10 -->
<g id="Node000010" class="node">
<title>Node10</title>
<g id="a_Node000010"><a xlink:href="TestTrack_8cpp.html" target="_top" xlink:title=" ">
<polygon fill="white" stroke="#666666" points="860,-140 692,-140 692,-121 860,-121 860,-140"/>
<text text-anchor="middle" x="776" y="-128" font-family="Helvetica,sans-Serif" font-size="10.00">src/engine/tracks/TestTrack.cpp</text>
</a>
</g>
</g>
<!-- Node1&#45;&gt;Node10 -->
<g id="edge10_Node000001_Node000010" class="edge">
<title>Node1&#45;&gt;Node10</title>
<g id="a_edge10_Node000001_Node000010"><a xlink:title=" ">
<path fill="none" stroke="#63b8ff" d="M561.08,-174C611.32,-164.07 685.82,-149.33 732.6,-140.08"/>
<polygon fill="#63b8ff" stroke="#63b8ff" points="560.19,-170.61 551.06,-175.98 561.55,-177.48 560.19,-170.61"/>
</a>
</g>
</g>
<!-- Node3 -->
<g id="Node000003" class="node">
<title>Node3</title>
<g id="a_Node000003"><a xlink:href="RaceManager_8cpp.html" target="_top" xlink:title=" ">
<polygon fill="white" stroke="#666666" points="156,-79.5 0,-79.5 0,-60.5 156,-60.5 156,-79.5"/>
<text text-anchor="middle" x="78" y="-67.5" font-family="Helvetica,sans-Serif" font-size="10.00">src/engine/RaceManager.cpp</text>
</a>
</g>
</g>
<!-- Node2&#45;&gt;Node3 -->
<g id="edge2_Node000002_Node000003" class="edge">
<title>Node2&#45;&gt;Node3</title>
<g id="a_edge2_Node000002_Node000003"><a xlink:title=" ">
<path fill="none" stroke="#63b8ff" d="M233.74,-117.96C196.22,-106.65 139.88,-89.66 106.24,-79.52"/>
<polygon fill="#63b8ff" stroke="#63b8ff" points="233.21,-121.46 243.79,-120.99 235.23,-114.76 233.21,-121.46"/>
</a>
</g>
</g>
<!-- Node4 -->
<g id="Node000004" class="node">
<title>Node4</title>
<g id="a_Node000004"><a xlink:href="RegisterActors_8cpp.html" target="_top" xlink:title=" ">
<polygon fill="white" stroke="#666666" points="285.5,-85 174.5,-85 174.5,-55 285.5,-55 285.5,-85"/>
<text text-anchor="start" x="182.5" y="-73" font-family="Helvetica,sans-Serif" font-size="10.00">src/engine/registry</text>
<text text-anchor="middle" x="230" y="-62" font-family="Helvetica,sans-Serif" font-size="10.00">/RegisterActors.cpp</text>
</a>
</g>
</g>
<!-- Node2&#45;&gt;Node4 -->
<g id="edge3_Node000002_Node000004" class="edge">
<title>Node2&#45;&gt;Node4</title>
<g id="a_edge3_Node000002_Node000004"><a xlink:title=" ">
<path fill="none" stroke="#63b8ff" d="M259.87,-112.61C253.62,-103.89 246.07,-93.39 240.13,-85.11"/>
<polygon fill="#63b8ff" stroke="#63b8ff" points="257.13,-114.79 265.8,-120.87 262.81,-110.7 257.13,-114.79"/>
</a>
</g>
</g>
<!-- Node5 -->
<g id="Node000005" class="node">
<title>Node5</title>
<g id="a_Node000005"><a xlink:href="ContentBrowser_8cpp.html" target="_top" xlink:title=" ">
<polygon fill="white" stroke="#666666" points="397,-19 231,-19 231,0 397,0 397,-19"/>
<text text-anchor="middle" x="314" y="-7" font-family="Helvetica,sans-Serif" font-size="10.00">src/port/ui/ContentBrowser.cpp</text>
</a>
</g>
</g>
<!-- Node2&#45;&gt;Node5 -->
<g id="edge4_Node000002_Node000005" class="edge">
<title>Node2&#45;&gt;Node5</title>
<g id="a_edge4_Node000002_Node000005"><a xlink:title=" ">
<path fill="none" stroke="#63b8ff" d="M281.76,-111.78C285.92,-103.76 290.58,-94.07 294,-85 302.7,-61.94 309.22,-33.54 312.21,-19.39"/>
<polygon fill="#63b8ff" stroke="#63b8ff" points="278.53,-110.39 276.91,-120.86 284.71,-113.69 278.53,-110.39"/>
</a>
</g>
</g>
<!-- Node6 -->
<g id="Node000006" class="node">
<title>Node6</title>
<g id="a_Node000006"><a xlink:href="ContentBrowser_8h.html" target="_top" xlink:title=" ">
<polygon fill="white" stroke="#666666" points="497.5,-79.5 342.5,-79.5 342.5,-60.5 497.5,-60.5 497.5,-79.5"/>
<text text-anchor="middle" x="420" y="-67.5" font-family="Helvetica,sans-Serif" font-size="10.00">src/port/ui/ContentBrowser.h</text>
</a>
</g>
</g>
<!-- Node2&#45;&gt;Node6 -->
<g id="edge5_Node000002_Node000006" class="edge">
<title>Node2&#45;&gt;Node6</title>
<g id="a_edge5_Node000002_Node000006"><a xlink:title=" ">
<path fill="none" stroke="#63b8ff" d="M303.04,-117.23C331.64,-105.92 373.34,-89.44 398.45,-79.52"/>
<polygon fill="#63b8ff" stroke="#63b8ff" points="301.53,-114.06 293.52,-120.99 304.11,-120.57 301.53,-114.06"/>
</a>
</g>
</g>
<!-- Node6&#45;&gt;Node5 -->
<g id="edge6_Node000006_Node000005" class="edge">
<title>Node6&#45;&gt;Node5</title>
<g id="a_edge6_Node000006_Node000005"><a xlink:title=" ">
<path fill="none" stroke="#63b8ff" d="M395.4,-55.42C375.14,-44.24 347.03,-28.73 329.7,-19.17"/>
<polygon fill="#63b8ff" stroke="#63b8ff" points="393.91,-58.6 404.36,-60.37 397.3,-52.47 393.91,-58.6"/>
</a>
</g>
</g>
<!-- Node7 -->
<g id="Node000007" class="node">
<title>Node7</title>
<g id="a_Node000007"><a xlink:href="ImguiUI_8cpp.html" target="_top" xlink:title=" ">
<polygon fill="white" stroke="#666666" points="542.5,-19 415.5,-19 415.5,0 542.5,0 542.5,-19"/>
<text text-anchor="middle" x="479" y="-7" font-family="Helvetica,sans-Serif" font-size="10.00">src/port/ui/ImguiUI.cpp</text>
</a>
</g>
</g>
<!-- Node6&#45;&gt;Node7 -->
<g id="edge7_Node000006_Node000007" class="edge">
<title>Node6&#45;&gt;Node7</title>
<g id="a_edge7_Node000006_Node000007"><a xlink:title=" ">
<path fill="none" stroke="#63b8ff" d="M436.05,-53.09C447.06,-42.17 461.27,-28.08 470.26,-19.17"/>
<polygon fill="#63b8ff" stroke="#63b8ff" points="433.34,-50.84 428.71,-60.37 438.27,-55.81 433.34,-50.84"/>
</a>
</g>
</g>
</g>
</svg>
