<?xml version="1.0" encoding="UTF-8" standalone="no"?>
<!DOCTYPE svg PUBLIC "-//W3C//DTD SVG 1.1//EN"
 "http://www.w3.org/Graphics/SVG/1.1/DTD/svg11.dtd">
<!-- Generated by graphviz version 2.43.0 (0)
 -->
<!-- Title: src/port/resource/importers/UnkActorSpawnDataFactory.cpp Pages: 1 -->
<svg width="884pt" height="225pt"
 viewBox="0.00 0.00 884.00 225.00" xmlns="http://www.w3.org/2000/svg" xmlns:xlink="http://www.w3.org/1999/xlink">
<g id="graph0" class="graph" transform="scale(1 1) rotate(0) translate(4 221)">
<title>src/port/resource/importers/UnkActorSpawnDataFactory.cpp</title>
<!-- Node1 -->
<g id="Node000001" class="node">
<title>Node1</title>
<g id="a_Node000001"><a xlink:title=" ">
<polygon fill="#999999" stroke="#666666" points="714.5,-217 540.5,-217 540.5,-187 714.5,-187 714.5,-217"/>
<text text-anchor="start" x="548.5" y="-205" font-family="Helvetica,sans-Serif" font-size="10.00">src/port/resource/importers</text>
<text text-anchor="middle" x="627.5" y="-194" font-family="Helvetica,sans-Serif" font-size="10.00">/UnkActorSpawnDataFactory.cpp</text>
</a>
</g>
</g>
<!-- Node2 -->
<g id="Node000002" class="node">
<title>Node2</title>
<g id="a_Node000002"><a xlink:href="UnkActorSpawnDataFactory_8h.html" target="_top" xlink:title=" ">
<polygon fill="white" stroke="#666666" points="403.5,-145.5 243.5,-145.5 243.5,-126.5 403.5,-126.5 403.5,-145.5"/>
<text text-anchor="middle" x="323.5" y="-133.5" font-family="Helvetica,sans-Serif" font-size="10.00">UnkActorSpawnDataFactory.h</text>
</a>
</g>
</g>
<!-- Node1&#45;&gt;Node2 -->
<g id="edge1_Node000001_Node000002" class="edge">
<title>Node1&#45;&gt;Node2</title>
<g id="a_edge1_Node000001_Node000002"><a xlink:title=" ">
<path fill="none" stroke="#63b8ff" d="M560.79,-186.95C504.42,-175.09 424.92,-158.35 373.79,-147.59"/>
<polygon fill="#63b8ff" stroke="#63b8ff" points="374.46,-144.15 363.96,-145.52 373.02,-151 374.46,-144.15"/>
</a>
</g>
</g>
<!-- Node6 -->
<g id="Node000006" class="node">
<title>Node6</title>
<g id="a_Node000006"><a xlink:href="UnkSpawnData_8h.html" target="_top" xlink:title=" ">
<polygon fill="white" stroke="#666666" points="599.5,-145.5 465.5,-145.5 465.5,-126.5 599.5,-126.5 599.5,-145.5"/>
<text text-anchor="middle" x="532.5" y="-133.5" font-family="Helvetica,sans-Serif" font-size="10.00">../type/UnkSpawnData.h</text>
</a>
</g>
</g>
<!-- Node1&#45;&gt;Node6 -->
<g id="edge5_Node000001_Node000006" class="edge">
<title>Node1&#45;&gt;Node6</title>
<g id="a_edge5_Node000001_Node000006"><a xlink:title=" ">
<path fill="none" stroke="#63b8ff" d="M606.42,-186.8C590.79,-176.27 569.57,-161.97 553.87,-151.4"/>
<polygon fill="#63b8ff" stroke="#63b8ff" points="555.6,-148.34 545.35,-145.66 551.69,-154.15 555.6,-148.34"/>
</a>
</g>
</g>
<!-- Node9 -->
<g id="Node000009" class="node">
<title>Node9</title>
<g id="a_Node000009"><a xlink:href="common__structs_8h.html" target="_top" xlink:title=" ">
<polygon fill="white" stroke="#666666" points="738,-79.5 631,-79.5 631,-60.5 738,-60.5 738,-79.5"/>
<text text-anchor="middle" x="684.5" y="-67.5" font-family="Helvetica,sans-Serif" font-size="10.00">common_structs.h</text>
</a>
</g>
</g>
<!-- Node1&#45;&gt;Node9 -->
<g id="edge13_Node000001_Node000009" class="edge">
<title>Node1&#45;&gt;Node9</title>
<g id="a_edge13_Node000001_Node000009"><a xlink:title=" ">
<path fill="none" stroke="#63b8ff" d="M629.06,-186.83C631.27,-170.36 636.25,-142.68 646.5,-121 652.28,-108.77 661.38,-96.66 669.22,-87.42"/>
<polygon fill="#63b8ff" stroke="#63b8ff" points="671.94,-89.62 675.95,-79.81 666.7,-84.99 671.94,-89.62"/>
</a>
</g>
</g>
<!-- Node11 -->
<g id="Node000011" class="node">
<title>Node11</title>
<g id="a_Node000011"><a xlink:title=" ">
<polygon fill="#e0e0e0" stroke="#999999" points="749,-145.5 656,-145.5 656,-126.5 749,-126.5 749,-145.5"/>
<text text-anchor="middle" x="702.5" y="-133.5" font-family="Helvetica,sans-Serif" font-size="10.00">spdlog/spdlog.h</text>
</a>
</g>
</g>
<!-- Node1&#45;&gt;Node11 -->
<g id="edge11_Node000001_Node000011" class="edge">
<title>Node1&#45;&gt;Node11</title>
<g id="a_edge11_Node000001_Node000011"><a xlink:title=" ">
<path fill="none" stroke="#63b8ff" d="M644.14,-186.8C656.07,-176.62 672.11,-162.93 684.36,-152.48"/>
<polygon fill="#63b8ff" stroke="#63b8ff" points="686.8,-155 692.14,-145.84 682.26,-149.67 686.8,-155"/>
</a>
</g>
</g>
<!-- Node12 -->
<g id="Node000012" class="node">
<title>Node12</title>
<g id="a_Node000012"><a xlink:title=" ">
<polygon fill="#e0e0e0" stroke="#999999" points="876,-151 767,-151 767,-121 876,-121 876,-151"/>
<text text-anchor="start" x="775" y="-139" font-family="Helvetica,sans-Serif" font-size="10.00">libultraship/libultra</text>
<text text-anchor="middle" x="821.5" y="-128" font-family="Helvetica,sans-Serif" font-size="10.00">/gbi.h</text>
</a>
</g>
</g>
<!-- Node1&#45;&gt;Node12 -->
<g id="edge12_Node000001_Node000012" class="edge">
<title>Node1&#45;&gt;Node12</title>
<g id="a_edge12_Node000001_Node000012"><a xlink:title=" ">
<path fill="none" stroke="#63b8ff" d="M670.07,-186.95C699.26,-177.33 738.17,-164.49 769.24,-154.24"/>
<polygon fill="#63b8ff" stroke="#63b8ff" points="770.63,-157.47 779.03,-151.01 768.43,-150.82 770.63,-157.47"/>
</a>
</g>
</g>
<!-- Node3 -->
<g id="Node000003" class="node">
<title>Node3</title>
<g id="a_Node000003"><a xlink:title=" ">
<polygon fill="#e0e0e0" stroke="#999999" points="451,-79.5 312,-79.5 312,-60.5 451,-60.5 451,-79.5"/>
<text text-anchor="middle" x="381.5" y="-67.5" font-family="Helvetica,sans-Serif" font-size="10.00">ship/resource/Resource.h</text>
</a>
</g>
</g>
<!-- Node2&#45;&gt;Node3 -->
<g id="edge2_Node000002_Node000003" class="edge">
<title>Node2&#45;&gt;Node3</title>
<g id="a_edge2_Node000002_Node000003"><a xlink:title=" ">
<path fill="none" stroke="#63b8ff" d="M331.32,-126.37C340.35,-116.4 355.41,-99.79 366.67,-87.36"/>
<polygon fill="#63b8ff" stroke="#63b8ff" points="369.31,-89.67 373.43,-79.91 364.12,-84.96 369.31,-89.67"/>
</a>
</g>
</g>
<!-- Node4 -->
<g id="Node000004" class="node">
<title>Node4</title>
<g id="a_Node000004"><a xlink:title=" ">
<polygon fill="#e0e0e0" stroke="#999999" points="165,-85 0,-85 0,-55 165,-55 165,-85"/>
<text text-anchor="start" x="8" y="-73" font-family="Helvetica,sans-Serif" font-size="10.00">ship/resource/ResourceFactory</text>
<text text-anchor="middle" x="82.5" y="-62" font-family="Helvetica,sans-Serif" font-size="10.00">Binary.h</text>
</a>
</g>
</g>
<!-- Node2&#45;&gt;Node4 -->
<g id="edge3_Node000002_Node000004" class="edge">
<title>Node2&#45;&gt;Node4</title>
<g id="a_edge3_Node000002_Node000004"><a xlink:title=" ">
<path fill="none" stroke="#63b8ff" d="M291,-126.37C253.81,-116.49 192.05,-100.09 145.37,-87.7"/>
<polygon fill="#63b8ff" stroke="#63b8ff" points="146.22,-84.3 135.65,-85.12 144.42,-91.07 146.22,-84.3"/>
</a>
</g>
</g>
<!-- Node5 -->
<g id="Node000005" class="node">
<title>Node5</title>
<g id="a_Node000005"><a xlink:title=" ">
<polygon fill="#e0e0e0" stroke="#999999" points="294,-79.5 183,-79.5 183,-60.5 294,-60.5 294,-79.5"/>
<text text-anchor="middle" x="238.5" y="-67.5" font-family="Helvetica,sans-Serif" font-size="10.00">ship/resource/File.h</text>
</a>
</g>
</g>
<!-- Node2&#45;&gt;Node5 -->
<g id="edge4_Node000002_Node000005" class="edge">
<title>Node2&#45;&gt;Node5</title>
<g id="a_edge4_Node000002_Node000005"><a xlink:title=" ">
<path fill="none" stroke="#63b8ff" d="M312.04,-126.37C298.22,-115.97 274.79,-98.32 258.09,-85.75"/>
<polygon fill="#63b8ff" stroke="#63b8ff" points="260.15,-82.92 250.05,-79.7 255.94,-88.51 260.15,-82.92"/>
</a>
</g>
</g>
<!-- Node6&#45;&gt;Node3 -->
<g id="edge6_Node000006_Node000003" class="edge">
<title>Node6&#45;&gt;Node3</title>
<g id="a_edge6_Node000006_Node000003"><a xlink:title=" ">
<path fill="none" stroke="#63b8ff" d="M512.14,-126.37C486.24,-115.39 441.33,-96.36 411.51,-83.72"/>
<polygon fill="#63b8ff" stroke="#63b8ff" points="412.6,-80.38 402.02,-79.7 409.87,-86.82 412.6,-80.38"/>
</a>
</g>
</g>
<!-- Node7 -->
<g id="Node000007" class="node">
<title>Node7</title>
<g id="a_Node000007"><a xlink:title=" ">
<polygon fill="#e0e0e0" stroke="#999999" points="516,-79.5 469,-79.5 469,-60.5 516,-60.5 516,-79.5"/>
<text text-anchor="middle" x="492.5" y="-67.5" font-family="Helvetica,sans-Serif" font-size="10.00">vector</text>
</a>
</g>
</g>
<!-- Node6&#45;&gt;Node7 -->
<g id="edge7_Node000006_Node000007" class="edge">
<title>Node6&#45;&gt;Node7</title>
<g id="a_edge7_Node000006_Node000007"><a xlink:title=" ">
<path fill="none" stroke="#63b8ff" d="M527.11,-126.37C521.06,-116.69 511.09,-100.74 503.4,-88.44"/>
<polygon fill="#63b8ff" stroke="#63b8ff" points="506.33,-86.53 498.07,-79.91 500.4,-90.24 506.33,-86.53"/>
</a>
</g>
</g>
<!-- Node8 -->
<g id="Node000008" class="node">
<title>Node8</title>
<g id="a_Node000008"><a xlink:title=" ">
<polygon fill="#e0e0e0" stroke="#999999" points="612.5,-79.5 534.5,-79.5 534.5,-60.5 612.5,-60.5 612.5,-79.5"/>
<text text-anchor="middle" x="573.5" y="-67.5" font-family="Helvetica,sans-Serif" font-size="10.00">libultra/gbi.h</text>
</a>
</g>
</g>
<!-- Node6&#45;&gt;Node8 -->
<g id="edge8_Node000006_Node000008" class="edge">
<title>Node6&#45;&gt;Node8</title>
<g id="a_edge8_Node000006_Node000008"><a xlink:title=" ">
<path fill="none" stroke="#63b8ff" d="M538.03,-126.37C544.23,-116.69 554.45,-100.74 562.33,-88.44"/>
<polygon fill="#63b8ff" stroke="#63b8ff" points="565.35,-90.21 567.8,-79.91 559.45,-86.44 565.35,-90.21"/>
</a>
</g>
</g>
<!-- Node6&#45;&gt;Node9 -->
<g id="edge9_Node000006_Node000009" class="edge">
<title>Node6&#45;&gt;Node9</title>
<g id="a_edge9_Node000006_Node000009"><a xlink:title=" ">
<path fill="none" stroke="#63b8ff" d="M553,-126.37C579.06,-115.39 624.28,-96.36 654.29,-83.72"/>
<polygon fill="#63b8ff" stroke="#63b8ff" points="655.98,-86.81 663.84,-79.7 653.27,-80.35 655.98,-86.81"/>
</a>
</g>
</g>
<!-- Node10 -->
<g id="Node000010" class="node">
<title>Node10</title>
<g id="a_Node000010"><a xlink:title=" ">
<polygon fill="#e0e0e0" stroke="#999999" points="724.5,-19 644.5,-19 644.5,0 724.5,0 724.5,-19"/>
<text text-anchor="middle" x="684.5" y="-7" font-family="Helvetica,sans-Serif" font-size="10.00">libultraship.h</text>
</a>
</g>
</g>
<!-- Node9&#45;&gt;Node10 -->
<g id="edge10_Node000009_Node000010" class="edge">
<title>Node9&#45;&gt;Node10</title>
<g id="a_edge10_Node000009_Node000010"><a xlink:title=" ">
<path fill="none" stroke="#63b8ff" d="M684.5,-60.37C684.5,-52.25 684.5,-39.81 684.5,-29.39"/>
<polygon fill="#63b8ff" stroke="#63b8ff" points="688,-29.17 684.5,-19.17 681,-29.17 688,-29.17"/>
</a>
</g>
</g>
</g>
</svg>
