<?xml version="1.0" encoding="UTF-8" standalone="no"?>
<!DOCTYPE svg PUBLIC "-//W3C//DTD SVG 1.1//EN"
 "http://www.w3.org/Graphics/SVG/1.1/DTD/svg11.dtd">
<!-- Generated by graphviz version 2.43.0 (0)
 -->
<!-- Title: spawn_leaf Pages: 1 -->
<svg width="856pt" height="373pt"
 viewBox="0.00 0.00 856.00 373.00" xmlns="http://www.w3.org/2000/svg" xmlns:xlink="http://www.w3.org/1999/xlink">
<g id="graph0" class="graph" transform="scale(1 1) rotate(0) translate(4 369)">
<title>spawn_leaf</title>
<!-- Node1 -->
<g id="Node000001" class="node">
<title>Node1</title>
<g id="a_Node000001"><a xlink:title=" ">
<polygon fill="#999999" stroke="#666666" points="72,-212 0,-212 0,-193 72,-193 72,-212"/>
<text text-anchor="middle" x="36" y="-200" font-family="Helvetica,sans-Serif" font-size="10.00">spawn_leaf</text>
</a>
</g>
</g>
<!-- Node2 -->
<g id="Node000002" class="node">
<title>Node2</title>
<g id="a_Node000002"><a xlink:href="update__objects_8c.html#a86113b7f254606e89d4e7c566ce8ff27" target="_top" xlink:title=" ">
<polygon fill="white" stroke="#666666" points="206,-212 108,-212 108,-193 206,-193 206,-212"/>
<text text-anchor="middle" x="157" y="-200" font-family="Helvetica,sans-Serif" font-size="10.00">init_leaf_particle</text>
</a>
</g>
</g>
<!-- Node1&#45;&gt;Node2 -->
<g id="edge1_Node000001_Node000002" class="edge">
<title>Node1&#45;&gt;Node2</title>
<g id="a_edge1_Node000001_Node000002"><a xlink:title=" ">
<path fill="none" stroke="#63b8ff" d="M72.06,-202.5C80.14,-202.5 88.95,-202.5 97.72,-202.5"/>
<polygon fill="#63b8ff" stroke="#63b8ff" points="97.96,-206 107.96,-202.5 97.96,-199 97.96,-206"/>
</a>
</g>
</g>
<!-- Node3 -->
<g id="Node000003" class="node">
<title>Node3</title>
<g id="a_Node000003"><a xlink:href="update__objects_8c.html#a6e56a43ec98e81db05f2410893efa437" target="_top" xlink:title=" ">
<polygon fill="white" stroke="#666666" points="373,-298 245,-298 245,-279 373,-279 373,-298"/>
<text text-anchor="middle" x="309" y="-286" font-family="Helvetica,sans-Serif" font-size="10.00">add_unused_obj_index</text>
</a>
</g>
</g>
<!-- Node2&#45;&gt;Node3 -->
<g id="edge2_Node000002_Node000003" class="edge">
<title>Node2&#45;&gt;Node3</title>
<g id="a_edge2_Node000002_Node000003"><a xlink:title=" ">
<path fill="none" stroke="#63b8ff" d="M174.63,-212.03C200.76,-227.01 251.63,-256.18 282.43,-273.84"/>
<polygon fill="#63b8ff" stroke="#63b8ff" points="280.88,-276.99 291.3,-278.93 284.37,-270.91 280.88,-276.99"/>
</a>
</g>
</g>
<!-- Node5 -->
<g id="Node000005" class="node">
<title>Node5</title>
<g id="a_Node000005"><a xlink:href="update__objects_8c.html#ace0a45ab5c99bef15402117191fd2242" target="_top" xlink:title=" ">
<polygon fill="white" stroke="#666666" points="376,-194 242,-194 242,-175 376,-175 376,-194"/>
<text text-anchor="middle" x="309" y="-182" font-family="Helvetica,sans-Serif" font-size="10.00">init_object_leaf_particle</text>
</a>
</g>
</g>
<!-- Node2&#45;&gt;Node5 -->
<g id="edge4_Node000002_Node000005" class="edge">
<title>Node2&#45;&gt;Node5</title>
<g id="a_edge4_Node000002_Node000005"><a xlink:title=" ">
<path fill="none" stroke="#63b8ff" d="M206.29,-196.71C214.41,-195.73 223.02,-194.7 231.65,-193.66"/>
<polygon fill="#63b8ff" stroke="#63b8ff" points="232.25,-197.11 241.76,-192.45 231.42,-190.16 232.25,-197.11"/>
</a>
</g>
</g>
<!-- Node4 -->
<g id="Node000004" class="node">
<title>Node4</title>
<g id="a_Node000004"><a xlink:href="update__objects_8c.html#a92856990c4ca5fba1b8e0c61ca832c27" target="_top" xlink:title=" ">
<polygon fill="white" stroke="#666666" points="555.5,-365 427.5,-365 427.5,-346 555.5,-346 555.5,-365"/>
<text text-anchor="middle" x="491.5" y="-353" font-family="Helvetica,sans-Serif" font-size="10.00">find_unused_obj_index</text>
</a>
</g>
</g>
<!-- Node3&#45;&gt;Node4 -->
<g id="edge3_Node000003_Node000004" class="edge">
<title>Node3&#45;&gt;Node4</title>
<g id="a_edge3_Node000003_Node000004"><a xlink:title=" ">
<path fill="none" stroke="#63b8ff" d="M326.83,-298.02C346.65,-308.9 380.85,-326.6 412,-337.5 418.06,-339.62 424.48,-341.56 430.92,-343.32"/>
<polygon fill="#63b8ff" stroke="#63b8ff" points="430.47,-346.81 441.03,-345.92 432.22,-340.04 430.47,-346.81"/>
</a>
</g>
</g>
<!-- Node6 -->
<g id="Node000006" class="node">
<title>Node6</title>
<g id="a_Node000006"><a xlink:href="update__objects_8c.html#abdebd086b5ff081f83af3d9205f39cd3" target="_top" xlink:title=" ">
<polygon fill="white" stroke="#666666" points="525.5,-328 457.5,-328 457.5,-309 525.5,-309 525.5,-328"/>
<text text-anchor="middle" x="491.5" y="-316" font-family="Helvetica,sans-Serif" font-size="10.00">init_object</text>
</a>
</g>
</g>
<!-- Node5&#45;&gt;Node6 -->
<g id="edge5_Node000005_Node000006" class="edge">
<title>Node5&#45;&gt;Node6</title>
<g id="a_edge5_Node000005_Node000006"><a xlink:title=" ">
<path fill="none" stroke="#63b8ff" d="M317.16,-194.06C336.18,-219.22 388.16,-286.29 412,-300.5 422.7,-306.88 435.45,-310.99 447.54,-313.65"/>
<polygon fill="#63b8ff" stroke="#63b8ff" points="446.99,-317.11 457.47,-315.56 448.31,-310.24 446.99,-317.11"/>
</a>
</g>
</g>
<!-- Node8 -->
<g id="Node000008" class="node">
<title>Node8</title>
<g id="a_Node000008"><a xlink:href="Game_8cpp.html#a2d7429dca77188f881bf1c340271ea90" target="_top" xlink:title=" ">
<polygon fill="white" stroke="#666666" points="537.5,-130 445.5,-130 445.5,-111 537.5,-111 537.5,-130"/>
<text text-anchor="middle" x="491.5" y="-118" font-family="Helvetica,sans-Serif" font-size="10.00">IsLuigiRaceway</text>
</a>
</g>
</g>
<!-- Node5&#45;&gt;Node8 -->
<g id="edge7_Node000005_Node000008" class="edge">
<title>Node5&#45;&gt;Node8</title>
<g id="a_edge7_Node000005_Node000008"><a xlink:title=" ">
<path fill="none" stroke="#63b8ff" d="M329.14,-174.82C349.34,-164.91 382.3,-149.56 412,-139.5 419.47,-136.97 427.45,-134.64 435.35,-132.53"/>
<polygon fill="#63b8ff" stroke="#63b8ff" points="436.45,-135.86 445.27,-129.99 434.72,-129.08 436.45,-135.86"/>
</a>
</g>
</g>
<!-- Node11 -->
<g id="Node000011" class="node">
<title>Node11</title>
<g id="a_Node000011"><a xlink:href="Game_8cpp.html#a591286b8b2219a8889cda4cc5d3b8c79" target="_top" xlink:title=" ">
<polygon fill="white" stroke="#666666" points="540,-93 443,-93 443,-74 540,-74 540,-93"/>
<text text-anchor="middle" x="491.5" y="-81" font-family="Helvetica,sans-Serif" font-size="10.00">IsMarioRaceway</text>
</a>
</g>
</g>
<!-- Node5&#45;&gt;Node11 -->
<g id="edge10_Node000005_Node000011" class="edge">
<title>Node5&#45;&gt;Node11</title>
<g id="a_edge10_Node000005_Node000011"><a xlink:title=" ">
<path fill="none" stroke="#63b8ff" d="M318.81,-174.87C335.32,-157.42 372.82,-120.63 412,-101.5 418.56,-98.29 425.72,-95.65 432.95,-93.46"/>
<polygon fill="#63b8ff" stroke="#63b8ff" points="434.09,-96.78 442.81,-90.77 432.24,-90.03 434.09,-96.78"/>
</a>
</g>
</g>
<!-- Node12 -->
<g id="Node000012" class="node">
<title>Node12</title>
<g id="a_Node000012"><a xlink:href="Game_8cpp.html#afb0bb7b7bc2b816a7a9fbedcc6c41ab7" target="_top" xlink:title=" ">
<polygon fill="white" stroke="#666666" points="540,-56 443,-56 443,-37 540,-37 540,-56"/>
<text text-anchor="middle" x="491.5" y="-44" font-family="Helvetica,sans-Serif" font-size="10.00">IsRoyalRaceway</text>
</a>
</g>
</g>
<!-- Node5&#45;&gt;Node12 -->
<g id="edge13_Node000005_Node000012" class="edge">
<title>Node5&#45;&gt;Node12</title>
<g id="a_edge13_Node000005_Node000012"><a xlink:title=" ">
<path fill="none" stroke="#63b8ff" d="M315.21,-174.9C328.22,-151.89 364.56,-93.32 412,-64.5 418.48,-60.56 425.74,-57.49 433.15,-55.08"/>
<polygon fill="#63b8ff" stroke="#63b8ff" points="434.28,-58.4 442.94,-52.29 432.36,-51.67 434.28,-58.4"/>
</a>
</g>
</g>
<!-- Node13 -->
<g id="Node000013" class="node">
<title>Node13</title>
<g id="a_Node000013"><a xlink:href="Game_8cpp.html#ab05bb065469940f40a5023c58a8f9e7f" target="_top" xlink:title=" ">
<polygon fill="white" stroke="#666666" points="531.5,-19 451.5,-19 451.5,0 531.5,0 531.5,-19"/>
<text text-anchor="middle" x="491.5" y="-7" font-family="Helvetica,sans-Serif" font-size="10.00">IsYoshiValley</text>
</a>
</g>
</g>
<!-- Node5&#45;&gt;Node13 -->
<g id="edge16_Node000005_Node000013" class="edge">
<title>Node5&#45;&gt;Node13</title>
<g id="a_edge16_Node000005_Node000013"><a xlink:title=" ">
<path fill="none" stroke="#63b8ff" d="M313.28,-174.9C323.26,-147.2 356.05,-66.6 412,-27.5 420.68,-21.43 431.11,-17.38 441.48,-14.68"/>
<polygon fill="#63b8ff" stroke="#63b8ff" points="442.34,-18.07 451.34,-12.48 440.82,-11.24 442.34,-18.07"/>
</a>
</g>
</g>
<!-- Node14 -->
<g id="Node000014" class="node">
<title>Node14</title>
<g id="a_Node000014"><a xlink:href="code__80086E70_8c.html#a96d06a13f28b2621752f09858946c5f1" target="_top" xlink:title=" ">
<polygon fill="white" stroke="#666666" points="571,-178.5 412,-178.5 412,-148.5 571,-148.5 571,-178.5"/>
<text text-anchor="start" x="420" y="-166.5" font-family="Helvetica,sans-Serif" font-size="10.00">object_origin_pos_randomize</text>
<text text-anchor="middle" x="491.5" y="-155.5" font-family="Helvetica,sans-Serif" font-size="10.00">_around_xyz</text>
</a>
</g>
</g>
<!-- Node5&#45;&gt;Node14 -->
<g id="edge19_Node000005_Node000014" class="edge">
<title>Node5&#45;&gt;Node14</title>
<g id="a_edge19_Node000005_Node000014"><a xlink:title=" ">
<path fill="none" stroke="#63b8ff" d="M376.19,-176.8C384.5,-175.83 393.11,-174.83 401.71,-173.83"/>
<polygon fill="#63b8ff" stroke="#63b8ff" points="402.24,-177.29 411.77,-172.66 401.43,-170.34 402.24,-177.29"/>
</a>
</g>
</g>
<!-- Node15 -->
<g id="Node000015" class="node">
<title>Node15</title>
<g id="a_Node000015"><a xlink:href="math__util_8c.html#a151b63b8adf9af7e4054b3b84bd226dc" target="_top" xlink:title=" ">
<polygon fill="white" stroke="#666666" points="707,-194 635,-194 635,-175 707,-175 707,-194"/>
<text text-anchor="middle" x="671" y="-182" font-family="Helvetica,sans-Serif" font-size="10.00">random_int</text>
</a>
</g>
</g>
<!-- Node5&#45;&gt;Node15 -->
<g id="edge22_Node000005_Node000015" class="edge">
<title>Node5&#45;&gt;Node15</title>
<g id="a_edge22_Node000005_Node000015"><a xlink:title=" ">
<path fill="none" stroke="#63b8ff" d="M376.11,-186.73C388.05,-187.05 400.4,-187.33 412,-187.5 482.66,-188.54 500.34,-188.57 571,-187.5 588.51,-187.23 607.76,-186.71 624.59,-186.16"/>
<polygon fill="#63b8ff" stroke="#63b8ff" points="624.85,-189.66 634.73,-185.83 624.61,-182.66 624.85,-189.66"/>
</a>
</g>
</g>
<!-- Node17 -->
<g id="Node000017" class="node">
<title>Node17</title>
<g id="a_Node000017"><a xlink:href="code__80086E70_8c.html#af0e1570f9594db6104157d24386b80cb" target="_top" xlink:title=" ">
<polygon fill="white" stroke="#666666" points="557.5,-291 425.5,-291 425.5,-272 557.5,-272 557.5,-291"/>
<text text-anchor="middle" x="491.5" y="-279" font-family="Helvetica,sans-Serif" font-size="10.00">set_obj_direction_angle</text>
</a>
</g>
</g>
<!-- Node5&#45;&gt;Node17 -->
<g id="edge23_Node000005_Node000017" class="edge">
<title>Node5&#45;&gt;Node17</title>
<g id="a_edge23_Node000005_Node000017"><a xlink:title=" ">
<path fill="none" stroke="#63b8ff" d="M319.44,-194.18C336.38,-210.96 373.74,-245.38 412,-263.5 416.28,-265.53 420.79,-267.33 425.42,-268.94"/>
<polygon fill="#63b8ff" stroke="#63b8ff" points="424.41,-272.29 435,-271.96 426.52,-265.61 424.41,-272.29"/>
</a>
</g>
</g>
<!-- Node18 -->
<g id="Node000018" class="node">
<title>Node18</title>
<g id="a_Node000018"><a xlink:href="code__80086E70_8c.html#ad745ffd7b6ecd50c57336a484979b258" target="_top" xlink:title=" ">
<polygon fill="white" stroke="#666666" points="546.5,-254 436.5,-254 436.5,-235 546.5,-235 546.5,-254"/>
<text text-anchor="middle" x="491.5" y="-242" font-family="Helvetica,sans-Serif" font-size="10.00">set_obj_orientation</text>
</a>
</g>
</g>
<!-- Node5&#45;&gt;Node18 -->
<g id="edge24_Node000005_Node000018" class="edge">
<title>Node5&#45;&gt;Node18</title>
<g id="a_edge24_Node000005_Node000018"><a xlink:title=" ">
<path fill="none" stroke="#63b8ff" d="M336.31,-194.13C356.85,-201.57 386.14,-211.99 412,-220.5 423.84,-224.4 436.76,-228.44 448.64,-232.06"/>
<polygon fill="#63b8ff" stroke="#63b8ff" points="447.73,-235.45 458.32,-235 449.77,-228.75 447.73,-235.45"/>
</a>
</g>
</g>
<!-- Node7 -->
<g id="Node000007" class="node">
<title>Node7</title>
<g id="a_Node000007"><a xlink:href="update__objects_8c.html#af20e3f3c403dd4fbea56e358997e515a" target="_top" xlink:title=" ">
<polygon fill="white" stroke="#666666" points="735,-328 607,-328 607,-309 735,-309 735,-328"/>
<text text-anchor="middle" x="671" y="-316" font-family="Helvetica,sans-Serif" font-size="10.00">set_object_timer_state</text>
</a>
</g>
</g>
<!-- Node6&#45;&gt;Node7 -->
<g id="edge6_Node000006_Node000007" class="edge">
<title>Node6&#45;&gt;Node7</title>
<g id="a_edge6_Node000006_Node000007"><a xlink:title=" ">
<path fill="none" stroke="#63b8ff" d="M525.89,-318.5C545.92,-318.5 572.23,-318.5 596.87,-318.5"/>
<polygon fill="#63b8ff" stroke="#63b8ff" points="596.94,-322 606.94,-318.5 596.94,-315 596.94,-322"/>
</a>
</g>
</g>
<!-- Node9 -->
<g id="Node000009" class="node">
<title>Node9</title>
<g id="a_Node000009"><a xlink:href="classWorld.html#a1a4dacc6aea0b846df998be0afc239f7" target="_top" xlink:title=" ">
<polygon fill="white" stroke="#666666" points="717.5,-56 624.5,-56 624.5,-37 717.5,-37 717.5,-56"/>
<text text-anchor="middle" x="671" y="-44" font-family="Helvetica,sans-Serif" font-size="10.00">World::GetTrack</text>
</a>
</g>
</g>
<!-- Node8&#45;&gt;Node9 -->
<g id="edge8_Node000008_Node000009" class="edge">
<title>Node8&#45;&gt;Node9</title>
<g id="a_edge8_Node000008_Node000009"><a xlink:title=" ">
<path fill="none" stroke="#63b8ff" d="M537.74,-114.1C549.08,-111.29 560.89,-107.27 571,-101.5 590.93,-90.13 587.31,-76.27 607,-64.5 609.83,-62.81 612.83,-61.27 615.92,-59.87"/>
<polygon fill="#63b8ff" stroke="#63b8ff" points="617.42,-63.04 625.4,-56.07 614.81,-56.54 617.42,-63.04"/>
</a>
</g>
</g>
<!-- Node10 -->
<g id="Node000010" class="node">
<title>Node10</title>
<g id="a_Node000010"><a xlink:href="Game_8cpp.html#ae2fa844b3cb1021ecbc357f8ed2ad8cc" target="_top" xlink:title=" ">
<polygon fill="white" stroke="#666666" points="702,-93 640,-93 640,-74 702,-74 702,-93"/>
<text text-anchor="middle" x="671" y="-81" font-family="Helvetica,sans-Serif" font-size="10.00">GetWorld</text>
</a>
</g>
</g>
<!-- Node8&#45;&gt;Node10 -->
<g id="edge9_Node000008_Node000010" class="edge">
<title>Node8&#45;&gt;Node10</title>
<g id="a_edge9_Node000008_Node000010"><a xlink:title=" ">
<path fill="none" stroke="#63b8ff" d="M537.75,-111.07C566.17,-105.14 602.49,-97.57 629.87,-91.86"/>
<polygon fill="#63b8ff" stroke="#63b8ff" points="630.82,-95.24 639.9,-89.78 629.39,-88.39 630.82,-95.24"/>
</a>
</g>
</g>
<!-- Node11&#45;&gt;Node9 -->
<g id="edge11_Node000011_Node000009" class="edge">
<title>Node11&#45;&gt;Node9</title>
<g id="a_edge11_Node000011_Node000009"><a xlink:title=" ">
<path fill="none" stroke="#63b8ff" d="M538.21,-73.97C561.5,-69.12 590.01,-63.17 614.55,-58.06"/>
<polygon fill="#63b8ff" stroke="#63b8ff" points="615.37,-61.46 624.44,-56 613.94,-54.61 615.37,-61.46"/>
</a>
</g>
</g>
<!-- Node11&#45;&gt;Node10 -->
<g id="edge12_Node000011_Node000010" class="edge">
<title>Node11&#45;&gt;Node10</title>
<g id="a_edge12_Node000011_Node000010"><a xlink:title=" ">
<path fill="none" stroke="#63b8ff" d="M540.07,-83.5C568.08,-83.5 603.13,-83.5 629.76,-83.5"/>
<polygon fill="#63b8ff" stroke="#63b8ff" points="629.88,-87 639.88,-83.5 629.88,-80 629.88,-87"/>
</a>
</g>
</g>
<!-- Node12&#45;&gt;Node9 -->
<g id="edge14_Node000012_Node000009" class="edge">
<title>Node12&#45;&gt;Node9</title>
<g id="a_edge14_Node000012_Node000009"><a xlink:title=" ">
<path fill="none" stroke="#63b8ff" d="M540.07,-46.5C562.88,-46.5 590.35,-46.5 614.15,-46.5"/>
<polygon fill="#63b8ff" stroke="#63b8ff" points="614.45,-50 624.45,-46.5 614.45,-43 614.45,-50"/>
</a>
</g>
</g>
<!-- Node12&#45;&gt;Node10 -->
<g id="edge15_Node000012_Node000010" class="edge">
<title>Node12&#45;&gt;Node10</title>
<g id="a_edge15_Node000012_Node000010"><a xlink:title=" ">
<path fill="none" stroke="#63b8ff" d="M538.21,-56.03C566.54,-61.93 602.58,-69.45 629.81,-75.12"/>
<polygon fill="#63b8ff" stroke="#63b8ff" points="629.28,-78.59 639.78,-77.2 630.71,-71.73 629.28,-78.59"/>
</a>
</g>
</g>
<!-- Node13&#45;&gt;Node9 -->
<g id="edge17_Node000013_Node000009" class="edge">
<title>Node13&#45;&gt;Node9</title>
<g id="a_edge17_Node000013_Node000009"><a xlink:title=" ">
<path fill="none" stroke="#63b8ff" d="M531.89,-17.71C556.16,-22.77 587.66,-29.34 614.44,-34.92"/>
<polygon fill="#63b8ff" stroke="#63b8ff" points="613.94,-38.39 624.45,-37 615.37,-31.54 613.94,-38.39"/>
</a>
</g>
</g>
<!-- Node13&#45;&gt;Node10 -->
<g id="edge18_Node000013_Node000010" class="edge">
<title>Node13&#45;&gt;Node10</title>
<g id="a_edge18_Node000013_Node000010"><a xlink:title=" ">
<path fill="none" stroke="#63b8ff" d="M531.65,-13.93C544.75,-16.57 559.06,-20.78 571,-27.5 591,-38.75 587.39,-52.59 607,-64.5 614.08,-68.8 622.2,-72.19 630.21,-74.84"/>
<polygon fill="#63b8ff" stroke="#63b8ff" points="629.26,-78.21 639.85,-77.71 631.26,-71.5 629.26,-78.21"/>
</a>
</g>
</g>
<!-- Node14&#45;&gt;Node15 -->
<g id="edge20_Node000014_Node000015" class="edge">
<title>Node14&#45;&gt;Node15</title>
<g id="a_edge20_Node000014_Node000015"><a xlink:title=" ">
<path fill="none" stroke="#63b8ff" d="M571.13,-172.8C589.39,-174.96 608.22,-177.19 624.49,-179.12"/>
<polygon fill="#63b8ff" stroke="#63b8ff" points="624.44,-182.63 634.78,-180.33 625.26,-175.68 624.44,-182.63"/>
</a>
</g>
</g>
<!-- Node16 -->
<g id="Node000016" class="node">
<title>Node16</title>
<g id="a_Node000016"><a xlink:href="math__util_8c.html#a062850863585005ad1d0a75d9ff70693" target="_top" xlink:title=" ">
<polygon fill="white" stroke="#666666" points="848,-194 771,-194 771,-175 848,-175 848,-194"/>
<text text-anchor="middle" x="809.5" y="-182" font-family="Helvetica,sans-Serif" font-size="10.00">random_u16</text>
</a>
</g>
</g>
<!-- Node15&#45;&gt;Node16 -->
<g id="edge21_Node000015_Node000016" class="edge">
<title>Node15&#45;&gt;Node16</title>
<g id="a_edge21_Node000015_Node000016"><a xlink:title=" ">
<path fill="none" stroke="#63b8ff" d="M707.15,-184.5C723.4,-184.5 742.94,-184.5 760.51,-184.5"/>
<polygon fill="#63b8ff" stroke="#63b8ff" points="760.59,-188 770.59,-184.5 760.59,-181 760.59,-188"/>
</a>
</g>
</g>
</g>
</svg>
