<?xml version="1.0" encoding="UTF-8" standalone="no"?>
<!DOCTYPE svg PUBLIC "-//W3C//DTD SVG 1.1//EN"
 "http://www.w3.org/Graphics/SVG/1.1/DTD/svg11.dtd">
<!-- Generated by graphviz version 2.43.0 (0)
 -->
<!-- Title: func_8007D360 Pages: 1 -->
<svg width="865pt" height="70pt"
 viewBox="0.00 0.00 865.00 69.50" xmlns="http://www.w3.org/2000/svg" xmlns:xlink="http://www.w3.org/1999/xlink">
<g id="graph0" class="graph" transform="scale(1 1) rotate(0) translate(4 65.5)">
<title>func_8007D360</title>
<!-- Node1 -->
<g id="Node000001" class="node">
<title>Node1</title>
<g id="a_Node000001"><a xlink:title=" ">
<polygon fill="#999999" stroke="#666666" points="857,-42.5 765,-42.5 765,-23.5 857,-23.5 857,-42.5"/>
<text text-anchor="middle" x="811" y="-30.5" font-family="Helvetica,sans-Serif" font-size="10.00">func_8007D360</text>
</a>
</g>
</g>
<!-- Node2 -->
<g id="Node000002" class="node">
<title>Node2</title>
<g id="a_Node000002"><a xlink:href="update__objects_8c.html#ad44c53b9400e14a1222584ef55fa41db" target="_top" xlink:title=" ">
<polygon fill="white" stroke="#666666" points="729,-42.5 636,-42.5 636,-23.5 729,-23.5 729,-42.5"/>
<text text-anchor="middle" x="682.5" y="-30.5" font-family="Helvetica,sans-Serif" font-size="10.00">func_8007D6A8</text>
</a>
</g>
</g>
<!-- Node1&#45;&gt;Node2 -->
<g id="edge1_Node000001_Node000002" class="edge">
<title>Node1&#45;&gt;Node2</title>
<g id="a_edge1_Node000001_Node000002"><a xlink:title=" ">
<path fill="none" stroke="#63b8ff" d="M754.55,-33C746.14,-33 737.53,-33 729.35,-33"/>
<polygon fill="#63b8ff" stroke="#63b8ff" points="754.69,-36.5 764.69,-33 754.69,-29.5 754.69,-36.5"/>
</a>
</g>
</g>
<!-- Node3 -->
<g id="Node000003" class="node">
<title>Node3</title>
<g id="a_Node000003"><a xlink:href="update__objects_8c.html#a281b6219991026ad20df7d33ae149504" target="_top" xlink:title=" ">
<polygon fill="white" stroke="#666666" points="600,-42.5 508,-42.5 508,-23.5 600,-23.5 600,-42.5"/>
<text text-anchor="middle" x="554" y="-30.5" font-family="Helvetica,sans-Serif" font-size="10.00">func_8007D714</text>
</a>
</g>
</g>
<!-- Node2&#45;&gt;Node3 -->
<g id="edge2_Node000002_Node000003" class="edge">
<title>Node2&#45;&gt;Node3</title>
<g id="a_edge2_Node000002_Node000003"><a xlink:title=" ">
<path fill="none" stroke="#63b8ff" d="M625.59,-33C617.09,-33 608.41,-33 600.18,-33"/>
<polygon fill="#63b8ff" stroke="#63b8ff" points="625.83,-36.5 635.83,-33 625.83,-29.5 625.83,-36.5"/>
</a>
</g>
</g>
<!-- Node4 -->
<g id="Node000004" class="node">
<title>Node4</title>
<g id="a_Node000004"><a xlink:href="classOTrashBin.html#a3bfba89c86991d823fdbeb0cb0e65097" target="_top" xlink:title=" ">
<polygon fill="white" stroke="#666666" points="472,-61.5 326,-61.5 326,-42.5 472,-42.5 472,-61.5"/>
<text text-anchor="middle" x="399" y="-49.5" font-family="Helvetica,sans-Serif" font-size="10.00">OTrashBin::func_8007E00C</text>
</a>
</g>
</g>
<!-- Node3&#45;&gt;Node4 -->
<g id="edge3_Node000003_Node000004" class="edge">
<title>Node3&#45;&gt;Node4</title>
<g id="a_edge3_Node000003_Node000004"><a xlink:title=" ">
<path fill="none" stroke="#63b8ff" d="M497.89,-39.84C489.49,-40.89 480.72,-41.98 472.02,-43.06"/>
<polygon fill="#63b8ff" stroke="#63b8ff" points="498.43,-43.3 507.92,-38.6 497.57,-36.36 498.43,-43.3"/>
</a>
</g>
</g>
<!-- Node6 -->
<g id="Node000006" class="node">
<title>Node6</title>
<g id="a_Node000006"><a xlink:href="update__objects_8c.html#a7cccb4f6d5faf49ab0e338bab2e9f535" target="_top" xlink:title=" ">
<polygon fill="white" stroke="#666666" points="445,-24.5 353,-24.5 353,-5.5 445,-5.5 445,-24.5"/>
<text text-anchor="middle" x="399" y="-12.5" font-family="Helvetica,sans-Serif" font-size="10.00">func_8007E3EC</text>
</a>
</g>
</g>
<!-- Node3&#45;&gt;Node6 -->
<g id="edge5_Node000003_Node000006" class="edge">
<title>Node3&#45;&gt;Node6</title>
<g id="a_edge5_Node000003_Node000006"><a xlink:title=" ">
<path fill="none" stroke="#63b8ff" d="M497.92,-26.52C480.55,-24.48 461.59,-22.25 445.02,-20.3"/>
<polygon fill="#63b8ff" stroke="#63b8ff" points="497.58,-30 507.92,-27.7 498.4,-23.05 497.58,-30"/>
</a>
</g>
</g>
<!-- Node5 -->
<g id="Node000005" class="node">
<title>Node5</title>
<g id="a_Node000005"><a xlink:href="classOTrashBin.html#af6d73933526741c82beebbed24515259" target="_top" xlink:title=" ">
<polygon fill="white" stroke="#666666" points="290,-61.5 198,-61.5 198,-42.5 290,-42.5 290,-61.5"/>
<text text-anchor="middle" x="244" y="-49.5" font-family="Helvetica,sans-Serif" font-size="10.00">OTrashBin::Tick</text>
</a>
</g>
</g>
<!-- Node4&#45;&gt;Node5 -->
<g id="edge4_Node000004_Node000005" class="edge">
<title>Node4&#45;&gt;Node5</title>
<g id="a_edge4_Node000004_Node000005"><a xlink:title=" ">
<path fill="none" stroke="#63b8ff" d="M315.93,-52C307.04,-52 298.25,-52 290.04,-52"/>
<polygon fill="#63b8ff" stroke="#63b8ff" points="315.98,-55.5 325.98,-52 315.98,-48.5 315.98,-55.5"/>
</a>
</g>
</g>
<!-- Node7 -->
<g id="Node000007" class="node">
<title>Node7</title>
<g id="a_Node000007"><a xlink:href="update__objects_8c.html#ac8b268e6a216ed165f6d9ba102367fd7" target="_top" xlink:title=" ">
<polygon fill="white" stroke="#666666" points="290,-24.5 198,-24.5 198,-5.5 290,-5.5 290,-24.5"/>
<text text-anchor="middle" x="244" y="-12.5" font-family="Helvetica,sans-Serif" font-size="10.00">func_8007E4C4</text>
</a>
</g>
</g>
<!-- Node6&#45;&gt;Node7 -->
<g id="edge6_Node000006_Node000007" class="edge">
<title>Node6&#45;&gt;Node7</title>
<g id="a_edge6_Node000006_Node000007"><a xlink:title=" ">
<path fill="none" stroke="#63b8ff" d="M342.92,-15C325.55,-15 306.59,-15 290.02,-15"/>
<polygon fill="#63b8ff" stroke="#63b8ff" points="342.92,-18.5 352.92,-15 342.92,-11.5 342.92,-18.5"/>
</a>
</g>
</g>
<!-- Node8 -->
<g id="Node000008" class="node">
<title>Node8</title>
<g id="a_Node000008"><a xlink:href="classBansheeBoardwalk.html#a276b49e729ec437355028e0ff225f161" target="_top" xlink:title=" ">
<polygon fill="white" stroke="#666666" points="162,-30 0,-30 0,0 162,0 162,-30"/>
<text text-anchor="start" x="8" y="-18" font-family="Helvetica,sans-Serif" font-size="10.00">BansheeBoardwalk::TickTrack</text>
<text text-anchor="middle" x="81" y="-7" font-family="Helvetica,sans-Serif" font-size="10.00">Objects</text>
</a>
</g>
</g>
<!-- Node7&#45;&gt;Node8 -->
<g id="edge7_Node000007_Node000008" class="edge">
<title>Node7&#45;&gt;Node8</title>
<g id="a_edge7_Node000007_Node000008"><a xlink:title=" ">
<path fill="none" stroke="#63b8ff" d="M187.52,-15C179.27,-15 170.63,-15 162.01,-15"/>
<polygon fill="#63b8ff" stroke="#63b8ff" points="187.72,-18.5 197.72,-15 187.72,-11.5 187.72,-18.5"/>
</a>
</g>
</g>
</g>
</svg>
