<?xml version="1.0" encoding="UTF-8" standalone="no"?>
<!DOCTYPE svg PUBLIC "-//W3C//DTD SVG 1.1//EN"
 "http://www.w3.org/Graphics/SVG/1.1/DTD/svg11.dtd">
<!-- Generated by graphviz version 2.43.0 (0)
 -->
<!-- Title: update_object_neon Pages: 1 -->
<svg width="918pt" height="585pt"
 viewBox="0.00 0.00 918.00 585.20" xmlns="http://www.w3.org/2000/svg" xmlns:xlink="http://www.w3.org/1999/xlink">
<g id="graph0" class="graph" transform="scale(1 1) rotate(0) translate(4 581.2)">
<title>update_object_neon</title>
<!-- Node1 -->
<g id="Node000001" class="node">
<title>Node1</title>
<g id="a_Node000001"><a xlink:title=" ">
<polygon fill="#999999" stroke="#666666" points="115,-265 0,-265 0,-246 115,-246 115,-265"/>
<text text-anchor="middle" x="57.5" y="-253" font-family="Helvetica,sans-Serif" font-size="10.00">update_object_neon</text>
</a>
</g>
</g>
<!-- Node2 -->
<g id="Node000002" class="node">
<title>Node2</title>
<g id="a_Node000002"><a xlink:href="update__objects_8c.html#a38bcb1c1e3fb81ad72c3e87254e35a0c" target="_top" xlink:title=" ">
<polygon fill="white" stroke="#666666" points="243,-322 151,-322 151,-303 243,-303 243,-322"/>
<text text-anchor="middle" x="197" y="-310" font-family="Helvetica,sans-Serif" font-size="10.00">func_80085CA0</text>
</a>
</g>
</g>
<!-- Node1&#45;&gt;Node2 -->
<g id="edge1_Node000001_Node000002" class="edge">
<title>Node1&#45;&gt;Node2</title>
<g id="a_edge1_Node000001_Node000002"><a xlink:title=" ">
<path fill="none" stroke="#63b8ff" d="M81.51,-265.04C103.92,-274.33 138.19,-288.54 163.4,-298.99"/>
<polygon fill="#63b8ff" stroke="#63b8ff" points="162.33,-302.33 172.91,-302.93 165.01,-295.87 162.33,-302.33"/>
</a>
</g>
</g>
<!-- Node20 -->
<g id="Node000020" class="node">
<title>Node20</title>
<g id="a_Node000020"><a xlink:href="update__objects_8c.html#aaf345d74477b4556bd7cb590179d7e72" target="_top" xlink:title=" ">
<polygon fill="white" stroke="#666666" points="242.5,-247 151.5,-247 151.5,-228 242.5,-228 242.5,-247"/>
<text text-anchor="middle" x="197" y="-235" font-family="Helvetica,sans-Serif" font-size="10.00">func_80085E38</text>
</a>
</g>
</g>
<!-- Node1&#45;&gt;Node20 -->
<g id="edge30_Node000001_Node000020" class="edge">
<title>Node1&#45;&gt;Node20</title>
<g id="a_edge30_Node000001_Node000020"><a xlink:title=" ">
<path fill="none" stroke="#63b8ff" d="M115.22,-248.07C123.74,-246.96 132.51,-245.81 141,-244.7"/>
<polygon fill="#63b8ff" stroke="#63b8ff" points="141.7,-248.14 151.16,-243.37 140.79,-241.2 141.7,-248.14"/>
</a>
</g>
</g>
<!-- Node23 -->
<g id="Node000023" class="node">
<title>Node23</title>
<g id="a_Node000023"><a xlink:href="update__objects_8c.html#a611ea98550b46aa887eb34b7472ef871" target="_top" xlink:title=" ">
<polygon fill="white" stroke="#666666" points="242.5,-284 151.5,-284 151.5,-265 242.5,-265 242.5,-284"/>
<text text-anchor="middle" x="197" y="-272" font-family="Helvetica,sans-Serif" font-size="10.00">func_80085F74</text>
</a>
</g>
</g>
<!-- Node1&#45;&gt;Node23 -->
<g id="edge44_Node000001_Node000023" class="edge">
<title>Node1&#45;&gt;Node23</title>
<g id="a_edge44_Node000001_Node000023"><a xlink:title=" ">
<path fill="none" stroke="#63b8ff" d="M115.22,-263.34C123.74,-264.52 132.51,-265.73 141,-266.9"/>
<polygon fill="#63b8ff" stroke="#63b8ff" points="140.78,-270.4 151.16,-268.3 141.74,-263.47 140.78,-270.4"/>
</a>
</g>
</g>
<!-- Node27 -->
<g id="Node000027" class="node">
<title>Node27</title>
<g id="a_Node000027"><a xlink:href="update__objects_8c.html#a0bbcf658cc179abdfa00efd79207efed" target="_top" xlink:title=" ">
<polygon fill="white" stroke="#666666" points="242.5,-210 151.5,-210 151.5,-191 242.5,-191 242.5,-210"/>
<text text-anchor="middle" x="197" y="-198" font-family="Helvetica,sans-Serif" font-size="10.00">func_80086110</text>
</a>
</g>
</g>
<!-- Node1&#45;&gt;Node27 -->
<g id="edge65_Node000001_Node000027" class="edge">
<title>Node1&#45;&gt;Node27</title>
<g id="a_edge65_Node000001_Node000027"><a xlink:title=" ">
<path fill="none" stroke="#63b8ff" d="M82.45,-245.92C104.59,-237.06 137.72,-223.81 162.49,-213.91"/>
<polygon fill="#63b8ff" stroke="#63b8ff" points="163.88,-217.12 171.86,-210.16 161.28,-210.62 163.88,-217.12"/>
</a>
</g>
</g>
<!-- Node3 -->
<g id="Node000003" class="node">
<title>Node3</title>
<g id="a_Node000003"><a xlink:href="update__objects_8c.html#a6433786e30fbe8c3dc83f83c9f2c35f9" target="_top" xlink:title=" ">
<polygon fill="white" stroke="#666666" points="396.5,-19 304.5,-19 304.5,0 396.5,0 396.5,-19"/>
<text text-anchor="middle" x="350.5" y="-7" font-family="Helvetica,sans-Serif" font-size="10.00">func_800726CC</text>
</a>
</g>
</g>
<!-- Node2&#45;&gt;Node3 -->
<g id="edge2_Node000002_Node000003" class="edge">
<title>Node2&#45;&gt;Node3</title>
<g id="a_edge2_Node000002_Node000003"><a xlink:title=" ">
<path fill="none" stroke="#63b8ff" d="M230.21,-302.95C234.95,-300.46 239.43,-297.36 243,-293.5 277.36,-256.36 261.59,-233.01 279,-185.5 300.07,-128.02 327.73,-61.17 341.29,-28.9"/>
<polygon fill="#63b8ff" stroke="#63b8ff" points="344.66,-29.92 345.32,-19.34 338.21,-27.2 344.66,-29.92"/>
</a>
</g>
</g>
<!-- Node6 -->
<g id="Node000006" class="node">
<title>Node6</title>
<g id="a_Node000006"><a xlink:href="update__objects_8c.html#a9118be650e419fe94f08bea1e9040a4b" target="_top" xlink:title=" ">
<polygon fill="white" stroke="#666666" points="562.5,-209 469.5,-209 469.5,-190 562.5,-190 562.5,-209"/>
<text text-anchor="middle" x="516" y="-197" font-family="Helvetica,sans-Serif" font-size="10.00">func_80072D3C</text>
</a>
</g>
</g>
<!-- Node2&#45;&gt;Node6 -->
<g id="edge5_Node000002_Node000006" class="edge">
<title>Node2&#45;&gt;Node6</title>
<g id="a_edge5_Node000002_Node000006"><a xlink:title=" ">
<path fill="none" stroke="#63b8ff" d="M221.44,-302.82C228.4,-299.89 236.03,-296.61 243,-293.5 259.15,-286.28 262.56,-283.03 279,-276.5 345,-250.27 423.81,-225.91 471.6,-211.87"/>
<polygon fill="#63b8ff" stroke="#63b8ff" points="472.69,-215.2 481.31,-209.04 470.73,-208.48 472.69,-215.2"/>
</a>
</g>
</g>
<!-- Node10 -->
<g id="Node000010" class="node">
<title>Node10</title>
<g id="a_Node000010"><a xlink:href="update__objects_8c.html#a5ac10bdf02fa5f66183ce0da2f55a41d" target="_top" xlink:title=" ">
<polygon fill="white" stroke="#666666" points="561.5,-268 470.5,-268 470.5,-249 561.5,-249 561.5,-268"/>
<text text-anchor="middle" x="516" y="-256" font-family="Helvetica,sans-Serif" font-size="10.00">func_80072E54</text>
</a>
</g>
</g>
<!-- Node2&#45;&gt;Node10 -->
<g id="edge12_Node000002_Node000010" class="edge">
<title>Node2&#45;&gt;Node10</title>
<g id="a_edge12_Node000002_Node000010"><a xlink:title=" ">
<path fill="none" stroke="#63b8ff" d="M243.25,-307.26C288.63,-301.71 360.44,-292.15 422,-280.5 437.1,-277.64 453.45,-273.97 468.16,-270.45"/>
<polygon fill="#63b8ff" stroke="#63b8ff" points="469.16,-273.81 478.06,-268.05 467.51,-267.01 469.16,-273.81"/>
</a>
</g>
</g>
<!-- Node11 -->
<g id="Node000011" class="node">
<title>Node11</title>
<g id="a_Node000011"><a xlink:href="update__objects_8c.html#a86976d4b79853c37ad7d3b5f0513a9b8" target="_top" xlink:title=" ">
<polygon fill="white" stroke="#666666" points="420.5,-473 280.5,-473 280.5,-454 420.5,-454 420.5,-473"/>
<text text-anchor="middle" x="350.5" y="-461" font-family="Helvetica,sans-Serif" font-size="10.00">init_obj_neon_mushroom</text>
</a>
</g>
</g>
<!-- Node2&#45;&gt;Node11 -->
<g id="edge18_Node000002_Node000011" class="edge">
<title>Node2&#45;&gt;Node11</title>
<g id="a_edge18_Node000002_Node000011"><a xlink:title=" ">
<path fill="none" stroke="#63b8ff" d="M201.06,-322.31C209.31,-347.08 234.44,-412.54 279,-445.5 280.86,-446.87 282.81,-448.14 284.83,-449.31"/>
<polygon fill="#63b8ff" stroke="#63b8ff" points="283.56,-452.59 294.08,-453.86 286.65,-446.31 283.56,-452.59"/>
</a>
</g>
</g>
<!-- Node19 -->
<g id="Node000019" class="node">
<title>Node19</title>
<g id="a_Node000019"><a xlink:href="update__objects_8c.html#aa87c6969a1223fe82e1cf59e29664510" target="_top" xlink:title="will return true if the timer is done">
<polygon fill="white" stroke="#666666" points="422,-516 279,-516 279,-497 422,-497 422,-516"/>
<text text-anchor="middle" x="350.5" y="-504" font-family="Helvetica,sans-Serif" font-size="10.00">set_and_run_timer_object</text>
</a>
</g>
</g>
<!-- Node2&#45;&gt;Node19 -->
<g id="edge27_Node000002_Node000019" class="edge">
<title>Node2&#45;&gt;Node19</title>
<g id="a_edge27_Node000002_Node000019"><a xlink:title=" ">
<path fill="none" stroke="#63b8ff" d="M199.85,-322.16C205.86,-350.89 227.46,-436.65 279,-482.5 283.52,-486.52 288.74,-489.87 294.25,-492.66"/>
<polygon fill="#63b8ff" stroke="#63b8ff" points="293.18,-496.02 303.74,-496.86 296.01,-489.61 293.18,-496.02"/>
</a>
</g>
</g>
<!-- Node4 -->
<g id="Node000004" class="node">
<title>Node4</title>
<g id="a_Node000004"><a xlink:href="update__objects_8c.html#a3953241e15c6372ac8944ba842148a9a" target="_top" xlink:title=" ">
<polygon fill="white" stroke="#666666" points="895.5,-182 796.5,-182 796.5,-163 895.5,-163 895.5,-182"/>
<text text-anchor="middle" x="846" y="-170" font-family="Helvetica,sans-Serif" font-size="10.00">clear_object_flag</text>
</a>
</g>
</g>
<!-- Node3&#45;&gt;Node4 -->
<g id="edge3_Node000003_Node000004" class="edge">
<title>Node3&#45;&gt;Node4</title>
<g id="a_edge3_Node000003_Node000004"><a xlink:title=" ">
<path fill="none" stroke="#63b8ff" d="M396.78,-10.02C473.05,-12.64 630.16,-25.56 746,-85.5 780.32,-103.26 812.44,-135.45 830.33,-155.3"/>
<polygon fill="#63b8ff" stroke="#63b8ff" points="827.85,-157.78 837.09,-162.97 833.11,-153.16 827.85,-157.78"/>
</a>
</g>
</g>
<!-- Node5 -->
<g id="Node000005" class="node">
<title>Node5</title>
<g id="a_Node000005"><a xlink:href="update__objects_8c.html#af20e3f3c403dd4fbea56e358997e515a" target="_top" xlink:title=" ">
<polygon fill="white" stroke="#666666" points="910,-325 782,-325 782,-306 910,-306 910,-325"/>
<text text-anchor="middle" x="846" y="-313" font-family="Helvetica,sans-Serif" font-size="10.00">set_object_timer_state</text>
</a>
</g>
</g>
<!-- Node3&#45;&gt;Node5 -->
<g id="edge4_Node000003_Node000005" class="edge">
<title>Node3&#45;&gt;Node5</title>
<g id="a_edge4_Node000003_Node000005"><a xlink:title=" ">
<path fill="none" stroke="#63b8ff" d="M387.84,-19.02C408.36,-24.23 434.52,-30.6 458,-35.5 521.59,-48.77 696.58,-43.35 746,-85.5 783.53,-117.51 762.85,-145.03 782,-190.5 798.34,-229.3 821.42,-272.84 834.63,-296.92"/>
<polygon fill="#63b8ff" stroke="#63b8ff" points="831.74,-298.93 839.64,-305.99 837.86,-295.54 831.74,-298.93"/>
</a>
</g>
</g>
<!-- Node6&#45;&gt;Node4 -->
<g id="edge6_Node000006_Node000004" class="edge">
<title>Node6&#45;&gt;Node4</title>
<g id="a_edge6_Node000006_Node000004"><a xlink:title=" ">
<path fill="none" stroke="#63b8ff" d="M562.88,-195.51C577.9,-194.21 594.66,-192.78 610,-191.5 670.04,-186.49 738.73,-180.96 786.27,-177.16"/>
<polygon fill="#63b8ff" stroke="#63b8ff" points="786.7,-180.64 796.39,-176.36 786.14,-173.66 786.7,-180.64"/>
</a>
</g>
</g>
<!-- Node7 -->
<g id="Node000007" class="node">
<title>Node7</title>
<g id="a_Node000007"><a xlink:href="update__objects_8c.html#a2301a51a93a60f0382cdc7002e14f95a" target="_top" xlink:title=" ">
<polygon fill="white" stroke="#666666" points="746,-230.5 610,-230.5 610,-200.5 746,-200.5 746,-230.5"/>
<text text-anchor="start" x="618" y="-218.5" font-family="Helvetica,sans-Serif" font-size="10.00">is_obj_index_flag_status</text>
<text text-anchor="middle" x="678" y="-207.5" font-family="Helvetica,sans-Serif" font-size="10.00">_inactive</text>
</a>
</g>
</g>
<!-- Node6&#45;&gt;Node7 -->
<g id="edge7_Node000006_Node000007" class="edge">
<title>Node6&#45;&gt;Node7</title>
<g id="a_edge7_Node000006_Node000007"><a xlink:title=" ">
<path fill="none" stroke="#63b8ff" d="M562.85,-204.08C574.44,-205.24 587.2,-206.52 599.86,-207.79"/>
<polygon fill="#63b8ff" stroke="#63b8ff" points="599.68,-211.29 609.98,-208.8 600.37,-204.32 599.68,-211.29"/>
</a>
</g>
</g>
<!-- Node8 -->
<g id="Node000008" class="node">
<title>Node8</title>
<g id="a_Node000008"><a xlink:href="update__objects_8c.html#a8bfc5f5c7034d61b534e14f325b6e399" target="_top" xlink:title=" ">
<polygon fill="white" stroke="#666666" points="730,-306 626,-306 626,-287 730,-287 730,-306"/>
<text text-anchor="middle" x="678" y="-294" font-family="Helvetica,sans-Serif" font-size="10.00">object_next_state</text>
</a>
</g>
</g>
<!-- Node6&#45;&gt;Node8 -->
<g id="edge8_Node000006_Node000008" class="edge">
<title>Node6&#45;&gt;Node8</title>
<g id="a_edge8_Node000006_Node000008"><a xlink:title=" ">
<path fill="none" stroke="#63b8ff" d="M532.93,-209.16C560.96,-226.15 619.29,-261.51 652.49,-281.64"/>
<polygon fill="#63b8ff" stroke="#63b8ff" points="650.77,-284.69 661.14,-286.88 654.4,-278.71 650.77,-284.69"/>
</a>
</g>
</g>
<!-- Node9 -->
<g id="Node000009" class="node">
<title>Node9</title>
<g id="a_Node000009"><a xlink:href="update__objects_8c.html#afe64f2394ee0deab6370b77609500bda" target="_top" xlink:title=" ">
<polygon fill="white" stroke="#666666" points="723,-144 633,-144 633,-125 723,-125 723,-144"/>
<text text-anchor="middle" x="678" y="-132" font-family="Helvetica,sans-Serif" font-size="10.00">set_object_flag</text>
</a>
</g>
</g>
<!-- Node6&#45;&gt;Node9 -->
<g id="edge11_Node000006_Node000009" class="edge">
<title>Node6&#45;&gt;Node9</title>
<g id="a_edge11_Node000006_Node000009"><a xlink:title=" ">
<path fill="none" stroke="#63b8ff" d="M547.6,-189.97C556.27,-186.94 565.62,-183.37 574,-179.5 590.82,-171.73 593.21,-166.32 610,-158.5 618.55,-154.51 627.97,-150.77 636.97,-147.48"/>
<polygon fill="#63b8ff" stroke="#63b8ff" points="638.25,-150.74 646.51,-144.1 635.91,-144.14 638.25,-150.74"/>
</a>
</g>
</g>
<!-- Node8&#45;&gt;Node4 -->
<g id="edge9_Node000008_Node000004" class="edge">
<title>Node8&#45;&gt;Node4</title>
<g id="a_edge9_Node000008_Node000004"><a xlink:title=" ">
<path fill="none" stroke="#63b8ff" d="M714.8,-286.97C725.31,-283.32 736.52,-278.54 746,-272.5 781.49,-249.89 814.05,-212.43 831.55,-190.34"/>
<polygon fill="#63b8ff" stroke="#63b8ff" points="834.52,-192.21 837.89,-182.17 828.99,-187.92 834.52,-192.21"/>
</a>
</g>
</g>
<!-- Node8&#45;&gt;Node5 -->
<g id="edge10_Node000008_Node000005" class="edge">
<title>Node8&#45;&gt;Node5</title>
<g id="a_edge10_Node000008_Node000005"><a xlink:title=" ">
<path fill="none" stroke="#63b8ff" d="M730.16,-302.36C743.27,-303.86 757.63,-305.5 771.61,-307.1"/>
<polygon fill="#63b8ff" stroke="#63b8ff" points="771.38,-310.6 781.71,-308.26 772.17,-303.64 771.38,-310.6"/>
</a>
</g>
</g>
<!-- Node10&#45;&gt;Node4 -->
<g id="edge13_Node000010_Node000004" class="edge">
<title>Node10&#45;&gt;Node4</title>
<g id="a_edge13_Node000010_Node000004"><a xlink:title=" ">
<path fill="none" stroke="#63b8ff" d="M561.86,-261.37C609.07,-262.9 684.86,-261.05 746,-239.5 777.4,-228.43 808.33,-204.92 827.04,-188.91"/>
<polygon fill="#63b8ff" stroke="#63b8ff" points="829.53,-191.38 834.73,-182.16 824.91,-186.12 829.53,-191.38"/>
</a>
</g>
</g>
<!-- Node10&#45;&gt;Node5 -->
<g id="edge17_Node000010_Node000005" class="edge">
<title>Node10&#45;&gt;Node5</title>
<g id="a_edge17_Node000010_Node000005"><a xlink:title=" ">
<path fill="none" stroke="#63b8ff" d="M533.54,-268.19C544.96,-274.92 560.47,-284.15 574,-292.5 590.15,-302.48 591.78,-310.18 610,-315.5 662.54,-330.85 724.55,-330.11 771.67,-325.93"/>
<polygon fill="#63b8ff" stroke="#63b8ff" points="772.18,-329.4 781.8,-324.96 771.51,-322.43 772.18,-329.4"/>
</a>
</g>
</g>
<!-- Node10&#45;&gt;Node7 -->
<g id="edge14_Node000010_Node000007" class="edge">
<title>Node10&#45;&gt;Node7</title>
<g id="a_edge14_Node000010_Node000007"><a xlink:title=" ">
<path fill="none" stroke="#63b8ff" d="M552.51,-248.96C569.84,-244.3 591.25,-238.55 611.4,-233.13"/>
<polygon fill="#63b8ff" stroke="#63b8ff" points="612.41,-236.48 621.16,-230.51 610.6,-229.72 612.41,-236.48"/>
</a>
</g>
</g>
<!-- Node10&#45;&gt;Node8 -->
<g id="edge15_Node000010_Node000008" class="edge">
<title>Node10&#45;&gt;Node8</title>
<g id="a_edge15_Node000010_Node000008"><a xlink:title=" ">
<path fill="none" stroke="#63b8ff" d="M557.37,-268.09C578.49,-273.1 604.53,-279.29 626.92,-284.61"/>
<polygon fill="#63b8ff" stroke="#63b8ff" points="626.38,-288.07 636.92,-286.98 627.99,-281.26 626.38,-288.07"/>
</a>
</g>
</g>
<!-- Node10&#45;&gt;Node9 -->
<g id="edge16_Node000010_Node000009" class="edge">
<title>Node10&#45;&gt;Node9</title>
<g id="a_edge16_Node000010_Node000009"><a xlink:title=" ">
<path fill="none" stroke="#63b8ff" d="M530.74,-248.93C542.38,-240.75 559.45,-228.58 574,-217.5 603.57,-194.97 636.93,-167.75 657.46,-150.78"/>
<polygon fill="#63b8ff" stroke="#63b8ff" points="659.96,-153.25 665.43,-144.17 655.49,-147.86 659.96,-153.25"/>
</a>
</g>
</g>
<!-- Node12 -->
<g id="Node000012" class="node">
<title>Node12</title>
<g id="a_Node000012"><a xlink:href="update__objects_8c.html#ac47489d8761fe55d49915f2af1155799" target="_top" xlink:title=" ">
<polygon fill="white" stroke="#666666" points="562,-372 470,-372 470,-353 562,-353 562,-372"/>
<text text-anchor="middle" x="516" y="-360" font-family="Helvetica,sans-Serif" font-size="10.00">func_80085BB4</text>
</a>
</g>
</g>
<!-- Node11&#45;&gt;Node12 -->
<g id="edge19_Node000011_Node000012" class="edge">
<title>Node11&#45;&gt;Node12</title>
<g id="a_edge19_Node000011_Node000012"><a xlink:title=" ">
<path fill="none" stroke="#63b8ff" d="M407.39,-453.87C412.61,-451.63 417.59,-448.88 422,-445.5 447.9,-425.64 432.83,-402.28 458,-381.5 460.04,-379.81 462.24,-378.28 464.54,-376.87"/>
<polygon fill="#63b8ff" stroke="#63b8ff" points="466.53,-379.79 473.83,-372.1 463.33,-373.56 466.53,-379.79"/>
</a>
</g>
</g>
<!-- Node15 -->
<g id="Node000015" class="node">
<title>Node15</title>
<g id="a_Node000015"><a xlink:href="update__objects_8c.html#add0bf98084e3359319c40487d800d428" target="_top" xlink:title=" ">
<polygon fill="white" stroke="#666666" points="570,-446 462,-446 462,-427 570,-427 570,-446"/>
<text text-anchor="middle" x="516" y="-434" font-family="Helvetica,sans-Serif" font-size="10.00">init_texture_object</text>
</a>
</g>
</g>
<!-- Node11&#45;&gt;Node15 -->
<g id="edge23_Node000011_Node000015" class="edge">
<title>Node11&#45;&gt;Node15</title>
<g id="a_edge23_Node000011_Node000015"><a xlink:title=" ">
<path fill="none" stroke="#63b8ff" d="M409.14,-453.98C422.98,-451.7 437.82,-449.24 451.89,-446.92"/>
<polygon fill="#63b8ff" stroke="#63b8ff" points="452.68,-450.34 461.97,-445.26 451.54,-443.43 452.68,-450.34"/>
</a>
</g>
</g>
<!-- Node16 -->
<g id="Node000016" class="node">
<title>Node16</title>
<g id="a_Node000016"><a xlink:href="memory_8c.html#a3617f7116e3cc000b7ebf38ad3bae48f" target="_top" xlink:title=" ">
<polygon fill="white" stroke="#666666" points="574,-409 458,-409 458,-390 574,-390 574,-409"/>
<text text-anchor="middle" x="516" y="-397" font-family="Helvetica,sans-Serif" font-size="10.00">load_lakitu_tlut_x64</text>
</a>
</g>
</g>
<!-- Node11&#45;&gt;Node16 -->
<g id="edge24_Node000011_Node000016" class="edge">
<title>Node11&#45;&gt;Node16</title>
<g id="a_edge24_Node000011_Node000016"><a xlink:title=" ">
<path fill="none" stroke="#63b8ff" d="M399.43,-453.99C407.16,-451.68 414.94,-448.88 422,-445.5 440.04,-436.86 440.28,-427.78 458,-418.5 462.06,-416.37 466.4,-414.42 470.82,-412.63"/>
<polygon fill="#63b8ff" stroke="#63b8ff" points="472.36,-415.79 480.5,-409.01 469.91,-409.24 472.36,-415.79"/>
</a>
</g>
</g>
<!-- Node18 -->
<g id="Node000018" class="node">
<title>Node18</title>
<g id="a_Node000018"><a xlink:href="code__80086E70_8c.html#a670bd4aa157a5ec3dd6a4f4335a13ea4" target="_top" xlink:title=" ">
<polygon fill="white" stroke="#666666" points="569.5,-483 462.5,-483 462.5,-464 569.5,-464 569.5,-483"/>
<text text-anchor="middle" x="516" y="-471" font-family="Helvetica,sans-Serif" font-size="10.00">set_obj_origin_pos</text>
</a>
</g>
</g>
<!-- Node11&#45;&gt;Node18 -->
<g id="edge26_Node000011_Node000018" class="edge">
<title>Node11&#45;&gt;Node18</title>
<g id="a_edge26_Node000011_Node000018"><a xlink:title=" ">
<path fill="none" stroke="#63b8ff" d="M420.84,-467.74C431.28,-468.38 442,-469.04 452.3,-469.67"/>
<polygon fill="#63b8ff" stroke="#63b8ff" points="452.23,-473.17 462.42,-470.28 452.66,-466.18 452.23,-473.17"/>
</a>
</g>
</g>
<!-- Node12&#45;&gt;Node8 -->
<g id="edge20_Node000012_Node000008" class="edge">
<title>Node12&#45;&gt;Node8</title>
<g id="a_edge20_Node000012_Node000008"><a xlink:title=" ">
<path fill="none" stroke="#63b8ff" d="M540.27,-352.9C567.72,-341.58 613.53,-322.68 644.48,-309.91"/>
<polygon fill="#63b8ff" stroke="#63b8ff" points="646.06,-313.05 653.97,-306 643.39,-306.58 646.06,-313.05"/>
</a>
</g>
</g>
<!-- Node13 -->
<g id="Node000013" class="node">
<title>Node13</title>
<g id="a_Node000013"><a xlink:href="code__80086E70_8c.html#ad745ffd7b6ecd50c57336a484979b258" target="_top" xlink:title=" ">
<polygon fill="white" stroke="#666666" points="733,-495 623,-495 623,-476 733,-476 733,-495"/>
<text text-anchor="middle" x="678" y="-483" font-family="Helvetica,sans-Serif" font-size="10.00">set_obj_orientation</text>
</a>
</g>
</g>
<!-- Node12&#45;&gt;Node13 -->
<g id="edge21_Node000012_Node000013" class="edge">
<title>Node12&#45;&gt;Node13</title>
<g id="a_edge21_Node000012_Node000013"><a xlink:title=" ">
<path fill="none" stroke="#63b8ff" d="M559.46,-372.03C564.77,-374.49 569.79,-377.6 574,-381.5 604.37,-409.69 578.8,-440.23 610,-467.5 611.34,-468.67 612.75,-469.77 614.21,-470.79"/>
<polygon fill="#63b8ff" stroke="#63b8ff" points="612.72,-473.97 623.13,-475.93 616.22,-467.91 612.72,-473.97"/>
</a>
</g>
</g>
<!-- Node14 -->
<g id="Node000014" class="node">
<title>Node14</title>
<g id="a_Node000014"><a xlink:href="code__80086E70_8c.html#ac9171108201f29dda52974a4a5c68a04" target="_top" xlink:title=" ">
<polygon fill="white" stroke="#666666" points="737,-458 619,-458 619,-439 737,-439 737,-458"/>
<text text-anchor="middle" x="678" y="-446" font-family="Helvetica,sans-Serif" font-size="10.00">set_obj_origin_offset</text>
</a>
</g>
</g>
<!-- Node12&#45;&gt;Node14 -->
<g id="edge22_Node000012_Node000014" class="edge">
<title>Node12&#45;&gt;Node14</title>
<g id="a_edge22_Node000012_Node000014"><a xlink:title=" ">
<path fill="none" stroke="#63b8ff" d="M555.48,-372.07C561.96,-374.58 568.4,-377.68 574,-381.5 594.6,-395.53 589.55,-410.24 610,-424.5 616.06,-428.73 622.95,-432.29 629.94,-435.27"/>
<polygon fill="#63b8ff" stroke="#63b8ff" points="628.89,-438.61 639.48,-438.97 631.43,-432.09 628.89,-438.61"/>
</a>
</g>
</g>
<!-- Node17 -->
<g id="Node000017" class="node">
<title>Node17</title>
<g id="a_Node000017"><a xlink:href="string_8c.html#ad7f1ae1bbb49dece44bda378982a704d" target="_top" xlink:title=" ">
<polygon fill="white" stroke="#666666" points="707.5,-532 648.5,-532 648.5,-513 707.5,-513 707.5,-532"/>
<text text-anchor="middle" x="678" y="-520" font-family="Helvetica,sans-Serif" font-size="10.00">memcpy</text>
</a>
</g>
</g>
<!-- Node16&#45;&gt;Node17 -->
<g id="edge25_Node000016_Node000017" class="edge">
<title>Node16&#45;&gt;Node17</title>
<g id="a_edge25_Node000016_Node000017"><a xlink:title=" ">
<path fill="none" stroke="#63b8ff" d="M559.46,-409.03C564.77,-411.49 569.79,-414.6 574,-418.5 604.37,-446.69 578.8,-477.23 610,-504.5 617.89,-511.4 628.15,-515.68 638.27,-518.34"/>
<polygon fill="#63b8ff" stroke="#63b8ff" points="637.73,-521.8 648.24,-520.49 639.2,-514.96 637.73,-521.8"/>
</a>
</g>
</g>
<!-- Node19&#45;&gt;Node5 -->
<g id="edge29_Node000019_Node000005" class="edge">
<title>Node19&#45;&gt;Node5</title>
<g id="a_edge29_Node000019_Node000005"><a xlink:title=" ">
<path fill="none" stroke="#63b8ff" d="M371.21,-516.11C432.61,-544.55 623.7,-621.45 746,-541.5 818.39,-494.18 838.17,-380.94 843.3,-335.18"/>
<polygon fill="#63b8ff" stroke="#63b8ff" points="846.8,-335.38 844.31,-325.08 839.84,-334.68 846.8,-335.38"/>
</a>
</g>
</g>
<!-- Node19&#45;&gt;Node8 -->
<g id="edge28_Node000019_Node000008" class="edge">
<title>Node19&#45;&gt;Node8</title>
<g id="a_edge28_Node000019_Node000008"><a xlink:title=" ">
<path fill="none" stroke="#63b8ff" d="M398.18,-516.01C446.25,-523.14 521.38,-526.59 574,-492.5 582.32,-487.11 644.13,-363.09 667.81,-315.17"/>
<polygon fill="#63b8ff" stroke="#63b8ff" points="670.97,-316.68 672.25,-306.17 664.69,-313.59 670.97,-316.68"/>
</a>
</g>
</g>
<!-- Node20&#45;&gt;Node3 -->
<g id="edge31_Node000020_Node000003" class="edge">
<title>Node20&#45;&gt;Node3</title>
<g id="a_edge31_Node000020_Node000003"><a xlink:title=" ">
<path fill="none" stroke="#63b8ff" d="M231.55,-227.84C235.9,-225.38 239.9,-222.32 243,-218.5 295.78,-153.46 223.93,-96.62 279,-33.5 283.45,-28.39 289.04,-24.37 295.11,-21.21"/>
<polygon fill="#63b8ff" stroke="#63b8ff" points="296.54,-24.4 304.26,-17.15 293.7,-18 296.54,-24.4"/>
</a>
</g>
</g>
<!-- Node20&#45;&gt;Node6 -->
<g id="edge37_Node000020_Node000006" class="edge">
<title>Node20&#45;&gt;Node6</title>
<g id="a_edge37_Node000020_Node000006"><a xlink:title=" ">
<path fill="none" stroke="#63b8ff" d="M224.94,-227.9C231.08,-225.23 237.43,-222.07 243,-218.5 261.26,-206.77 258.77,-193.37 279,-185.5 344.17,-160.15 427.13,-174.74 475.33,-187.34"/>
<polygon fill="#63b8ff" stroke="#63b8ff" points="474.51,-190.74 485.07,-189.99 476.34,-183.99 474.51,-190.74"/>
</a>
</g>
</g>
<!-- Node20&#45;&gt;Node10 -->
<g id="edge38_Node000020_Node000010" class="edge">
<title>Node20&#45;&gt;Node10</title>
<g id="a_edge38_Node000020_Node000010"><a xlink:title=" ">
<path fill="none" stroke="#63b8ff" d="M242.75,-240.46C299.86,-244.25 398.62,-250.79 460.18,-254.87"/>
<polygon fill="#63b8ff" stroke="#63b8ff" points="460.27,-258.38 470.48,-255.55 460.73,-251.4 460.27,-258.38"/>
</a>
</g>
</g>
<!-- Node21 -->
<g id="Node000021" class="node">
<title>Node21</title>
<g id="a_Node000021"><a xlink:href="update__objects_8c.html#ab93c45055a8980a04bc16a5255c2bf79" target="_top" xlink:title=" ">
<polygon fill="white" stroke="#666666" points="562,-119 470,-119 470,-100 562,-100 562,-119"/>
<text text-anchor="middle" x="516" y="-107" font-family="Helvetica,sans-Serif" font-size="10.00">func_80072B48</text>
</a>
</g>
</g>
<!-- Node20&#45;&gt;Node21 -->
<g id="edge32_Node000020_Node000021" class="edge">
<title>Node20&#45;&gt;Node21</title>
<g id="a_edge32_Node000020_Node000021"><a xlink:title=" ">
<path fill="none" stroke="#63b8ff" d="M227.4,-227.85C232.89,-225.3 238.36,-222.2 243,-218.5 264.41,-201.43 256.34,-183.87 279,-168.5 333.45,-131.58 409.01,-117.74 459.84,-112.57"/>
<polygon fill="#63b8ff" stroke="#63b8ff" points="460.34,-116.04 469.97,-111.62 459.69,-109.07 460.34,-116.04"/>
</a>
</g>
</g>
<!-- Node22 -->
<g id="Node000022" class="node">
<title>Node22</title>
<g id="a_Node000022"><a xlink:href="update__objects_8c.html#aad7449c3468a6e25931243fd9d0fc3ae" target="_top" xlink:title=" ">
<polygon fill="white" stroke="#666666" points="397,-399 304,-399 304,-380 397,-380 397,-399"/>
<text text-anchor="middle" x="350.5" y="-387" font-family="Helvetica,sans-Serif" font-size="10.00">func_80085DB8</text>
</a>
</g>
</g>
<!-- Node20&#45;&gt;Node22 -->
<g id="edge39_Node000020_Node000022" class="edge">
<title>Node20&#45;&gt;Node22</title>
<g id="a_edge39_Node000020_Node000022"><a xlink:title=" ">
<path fill="none" stroke="#63b8ff" d="M226.78,-247.13C232.44,-249.7 238.13,-252.82 243,-256.5 286.05,-289.06 321.84,-342.78 338.85,-370.95"/>
<polygon fill="#63b8ff" stroke="#63b8ff" points="335.96,-372.94 344.06,-379.77 341.99,-369.38 335.96,-372.94"/>
</a>
</g>
</g>
<!-- Node21&#45;&gt;Node4 -->
<g id="edge33_Node000021_Node000004" class="edge">
<title>Node21&#45;&gt;Node4</title>
<g id="a_edge33_Node000021_Node000004"><a xlink:title=" ">
<path fill="none" stroke="#63b8ff" d="M555.8,-99.97C602.27,-90.35 681.87,-79.64 746,-100.5 779.12,-111.27 810.41,-137.76 828.64,-155.43"/>
<polygon fill="#63b8ff" stroke="#63b8ff" points="826.51,-158.25 836.06,-162.84 831.45,-153.29 826.51,-158.25"/>
</a>
</g>
</g>
<!-- Node21&#45;&gt;Node5 -->
<g id="edge36_Node000021_Node000005" class="edge">
<title>Node21&#45;&gt;Node5</title>
<g id="a_edge36_Node000021_Node000005"><a xlink:title=" ">
<path fill="none" stroke="#63b8ff" d="M552.08,-99.93C600.06,-89.01 686.92,-77.23 746,-115.5 777.03,-135.6 765.68,-157.32 782,-190.5 800.59,-228.28 822.87,-272.17 835.33,-296.6"/>
<polygon fill="#63b8ff" stroke="#63b8ff" points="832.37,-298.49 840.03,-305.81 838.6,-295.31 832.37,-298.49"/>
</a>
</g>
</g>
<!-- Node21&#45;&gt;Node8 -->
<g id="edge34_Node000021_Node000008" class="edge">
<title>Node21&#45;&gt;Node8</title>
<g id="a_edge34_Node000021_Node000008"><a xlink:title=" ">
<path fill="none" stroke="#63b8ff" d="M541.54,-119.08C552.73,-124.5 565.37,-132.27 574,-142.5 603.65,-177.65 583.63,-201.83 610,-239.5 621.6,-256.08 639.14,-270.77 653.37,-281.08"/>
<polygon fill="#63b8ff" stroke="#63b8ff" points="651.51,-284.05 661.71,-286.91 655.52,-278.31 651.51,-284.05"/>
</a>
</g>
</g>
<!-- Node21&#45;&gt;Node9 -->
<g id="edge35_Node000021_Node000009" class="edge">
<title>Node21&#45;&gt;Node9</title>
<g id="a_edge35_Node000021_Node000009"><a xlink:title=" ">
<path fill="none" stroke="#63b8ff" d="M562.42,-116.6C581.22,-119.54 603.18,-122.97 622.82,-126.03"/>
<polygon fill="#63b8ff" stroke="#63b8ff" points="622.43,-129.52 632.85,-127.6 623.51,-122.6 622.43,-129.52"/>
</a>
</g>
</g>
<!-- Node22&#45;&gt;Node12 -->
<g id="edge40_Node000022_Node000012" class="edge">
<title>Node22&#45;&gt;Node12</title>
<g id="a_edge40_Node000022_Node000012"><a xlink:title=" ">
<path fill="none" stroke="#63b8ff" d="M397.04,-381.98C416.52,-378.76 439.44,-374.98 459.87,-371.6"/>
<polygon fill="#63b8ff" stroke="#63b8ff" points="460.69,-375.02 469.98,-369.93 459.55,-368.11 460.69,-375.02"/>
</a>
</g>
</g>
<!-- Node22&#45;&gt;Node15 -->
<g id="edge41_Node000022_Node000015" class="edge">
<title>Node22&#45;&gt;Node15</title>
<g id="a_edge41_Node000022_Node000015"><a xlink:title=" ">
<path fill="none" stroke="#63b8ff" d="M387.78,-399.06C398.79,-402.02 410.91,-405.34 422,-408.5 439.19,-413.4 458.09,-419.05 474.33,-423.98"/>
<polygon fill="#63b8ff" stroke="#63b8ff" points="473.48,-427.37 484.07,-426.94 475.52,-420.68 473.48,-427.37"/>
</a>
</g>
</g>
<!-- Node22&#45;&gt;Node16 -->
<g id="edge42_Node000022_Node000016" class="edge">
<title>Node22&#45;&gt;Node16</title>
<g id="a_edge42_Node000022_Node000016"><a xlink:title=" ">
<path fill="none" stroke="#63b8ff" d="M397.04,-392.29C412.62,-393.24 430.38,-394.32 447.32,-395.36"/>
<polygon fill="#63b8ff" stroke="#63b8ff" points="447.54,-398.88 457.73,-396 447.96,-391.89 447.54,-398.88"/>
</a>
</g>
</g>
<!-- Node22&#45;&gt;Node18 -->
<g id="edge43_Node000022_Node000018" class="edge">
<title>Node22&#45;&gt;Node18</title>
<g id="a_edge43_Node000022_Node000018"><a xlink:title=" ">
<path fill="none" stroke="#63b8ff" d="M397.02,-397.08C405.77,-399.8 414.52,-403.49 422,-408.5 443.86,-423.14 436.46,-440.39 458,-455.5 460.12,-456.99 462.37,-458.35 464.7,-459.61"/>
<polygon fill="#63b8ff" stroke="#63b8ff" points="463.46,-462.89 474,-463.94 466.41,-456.55 463.46,-462.89"/>
</a>
</g>
</g>
<!-- Node23&#45;&gt;Node3 -->
<g id="edge45_Node000023_Node000003" class="edge">
<title>Node23&#45;&gt;Node3</title>
<g id="a_edge45_Node000023_Node000003"><a xlink:title=" ">
<path fill="none" stroke="#63b8ff" d="M232.27,-264.97C236.3,-262.71 240.02,-259.93 243,-256.5 287.11,-205.72 251.14,-170.72 279,-109.5 293.35,-77.98 318.01,-46.05 334.04,-27.02"/>
<polygon fill="#63b8ff" stroke="#63b8ff" points="336.86,-29.09 340.72,-19.23 331.55,-24.53 336.86,-29.09"/>
</a>
</g>
</g>
<!-- Node23&#45;&gt;Node10 -->
<g id="edge52_Node000023_Node000010" class="edge">
<title>Node23&#45;&gt;Node10</title>
<g id="a_edge52_Node000023_Node000010"><a xlink:title=" ">
<path fill="none" stroke="#63b8ff" d="M242.75,-272.24C299.86,-269.36 398.62,-264.37 460.18,-261.27"/>
<polygon fill="#63b8ff" stroke="#63b8ff" points="460.67,-264.75 470.48,-260.75 460.32,-257.76 460.67,-264.75"/>
</a>
</g>
</g>
<!-- Node23&#45;&gt;Node19 -->
<g id="edge64_Node000023_Node000019" class="edge">
<title>Node23&#45;&gt;Node19</title>
<g id="a_edge64_Node000023_Node000019"><a xlink:title=" ">
<path fill="none" stroke="#63b8ff" d="M230.23,-284.14C235.09,-286.82 239.6,-290.21 243,-294.5 295.89,-361.14 223.16,-418.31 279,-482.5 282.28,-486.26 286.16,-489.44 290.41,-492.12"/>
<polygon fill="#63b8ff" stroke="#63b8ff" points="289.06,-495.36 299.54,-496.94 292.33,-489.18 289.06,-495.36"/>
</a>
</g>
</g>
<!-- Node23&#45;&gt;Node21 -->
<g id="edge46_Node000023_Node000021" class="edge">
<title>Node23&#45;&gt;Node21</title>
<g id="a_edge46_Node000023_Node000021"><a xlink:title=" ">
<path fill="none" stroke="#63b8ff" d="M230.85,-264.97C235.29,-262.7 239.51,-259.91 243,-256.5 272.07,-228.13 248.29,-199.08 279,-172.5 329.5,-128.79 407.19,-115.02 459.5,-110.89"/>
<polygon fill="#63b8ff" stroke="#63b8ff" points="459.88,-114.37 469.61,-110.19 459.39,-107.39 459.88,-114.37"/>
</a>
</g>
</g>
<!-- Node24 -->
<g id="Node000024" class="node">
<title>Node24</title>
<g id="a_Node000024"><a xlink:href="update__objects_8c.html#a3f1280e08506aa4958434f0bd5e1c56a" target="_top" xlink:title=" ">
<polygon fill="white" stroke="#666666" points="562,-171 470,-171 470,-152 562,-152 562,-171"/>
<text text-anchor="middle" x="516" y="-159" font-family="Helvetica,sans-Serif" font-size="10.00">func_80072C00</text>
</a>
</g>
</g>
<!-- Node23&#45;&gt;Node24 -->
<g id="edge47_Node000023_Node000024" class="edge">
<title>Node23&#45;&gt;Node24</title>
<g id="a_edge47_Node000023_Node000024"><a xlink:title=" ">
<path fill="none" stroke="#63b8ff" d="M226.34,-264.91C232.03,-262.5 237.85,-259.69 243,-256.5 261.21,-245.25 260.15,-234.65 279,-224.5 336.47,-193.57 410.13,-177.06 459.75,-168.81"/>
<polygon fill="#63b8ff" stroke="#63b8ff" points="460.33,-172.26 469.65,-167.22 459.22,-165.35 460.33,-172.26"/>
</a>
</g>
</g>
<!-- Node25 -->
<g id="Node000025" class="node">
<title>Node25</title>
<g id="a_Node000025"><a xlink:href="update__objects_8c.html#acf82f78d6e5721b75562f93ec9b40a57" target="_top" xlink:title=" ">
<polygon fill="white" stroke="#666666" points="561.5,-320 470.5,-320 470.5,-301 561.5,-301 561.5,-320"/>
<text text-anchor="middle" x="516" y="-308" font-family="Helvetica,sans-Serif" font-size="10.00">func_80072F88</text>
</a>
</g>
</g>
<!-- Node23&#45;&gt;Node25 -->
<g id="edge53_Node000023_Node000025" class="edge">
<title>Node23&#45;&gt;Node25</title>
<g id="a_edge53_Node000023_Node000025"><a xlink:title=" ">
<path fill="none" stroke="#63b8ff" d="M242.75,-279.58C299.86,-286.07 398.62,-297.28 460.18,-304.27"/>
<polygon fill="#63b8ff" stroke="#63b8ff" points="460.15,-307.79 470.48,-305.44 460.94,-300.84 460.15,-307.79"/>
</a>
</g>
</g>
<!-- Node26 -->
<g id="Node000026" class="node">
<title>Node26</title>
<g id="a_Node000026"><a xlink:href="update__objects_8c.html#abef9e21ca75285520cc71d37b6ef71b5" target="_top" xlink:title=" ">
<polygon fill="white" stroke="#666666" points="396,-436 305,-436 305,-417 396,-417 396,-436"/>
<text text-anchor="middle" x="350.5" y="-424" font-family="Helvetica,sans-Serif" font-size="10.00">func_80085EF8</text>
</a>
</g>
</g>
<!-- Node23&#45;&gt;Node26 -->
<g id="edge59_Node000023_Node000026" class="edge">
<title>Node23&#45;&gt;Node26</title>
<g id="a_edge59_Node000023_Node000026"><a xlink:title=" ">
<path fill="none" stroke="#63b8ff" d="M228.89,-284C234.14,-286.72 239.13,-290.16 243,-294.5 278.4,-334.12 240.39,-371.99 279,-408.5 283.64,-412.89 289.19,-416.24 295.12,-418.8"/>
<polygon fill="#63b8ff" stroke="#63b8ff" points="294.07,-422.14 304.66,-422.21 296.42,-415.55 294.07,-422.14"/>
</a>
</g>
</g>
<!-- Node24&#45;&gt;Node4 -->
<g id="edge48_Node000024_Node000004" class="edge">
<title>Node24&#45;&gt;Node4</title>
<g id="a_edge48_Node000024_Node000004"><a xlink:title=" ">
<path fill="none" stroke="#63b8ff" d="M531.03,-151.97C548.59,-140.68 580.01,-122.51 610,-115.5 668.86,-101.74 687.61,-99.89 746,-115.5 775.77,-123.46 805.88,-142.76 824.94,-156.7"/>
<polygon fill="#63b8ff" stroke="#63b8ff" points="823.03,-159.64 833.12,-162.85 827.24,-154.04 823.03,-159.64"/>
</a>
</g>
</g>
<!-- Node24&#45;&gt;Node7 -->
<g id="edge49_Node000024_Node000007" class="edge">
<title>Node24&#45;&gt;Node7</title>
<g id="a_edge49_Node000024_Node000007"><a xlink:title=" ">
<path fill="none" stroke="#63b8ff" d="M545.72,-171.04C554.77,-174.05 564.81,-177.41 574,-180.5 590.01,-185.89 607.4,-191.78 623.26,-197.17"/>
<polygon fill="#63b8ff" stroke="#63b8ff" points="622.32,-200.55 632.91,-200.46 624.57,-193.92 622.32,-200.55"/>
</a>
</g>
</g>
<!-- Node24&#45;&gt;Node8 -->
<g id="edge50_Node000024_Node000008" class="edge">
<title>Node24&#45;&gt;Node8</title>
<g id="a_edge50_Node000024_Node000008"><a xlink:title=" ">
<path fill="none" stroke="#63b8ff" d="M557.46,-171C563.37,-173.49 569.1,-176.6 574,-180.5 598.03,-199.63 590.05,-216.14 610,-239.5 623.39,-255.18 641.29,-270.17 655.21,-280.84"/>
<polygon fill="#63b8ff" stroke="#63b8ff" points="653.2,-283.7 663.3,-286.89 657.39,-278.1 653.2,-283.7"/>
</a>
</g>
</g>
<!-- Node24&#45;&gt;Node9 -->
<g id="edge51_Node000024_Node000009" class="edge">
<title>Node24&#45;&gt;Node9</title>
<g id="a_edge51_Node000024_Node000009"><a xlink:title=" ">
<path fill="none" stroke="#63b8ff" d="M562.42,-153.84C581.22,-150.66 603.18,-146.96 622.82,-143.64"/>
<polygon fill="#63b8ff" stroke="#63b8ff" points="623.57,-147.07 632.85,-141.95 622.4,-140.16 623.57,-147.07"/>
</a>
</g>
</g>
<!-- Node25&#45;&gt;Node4 -->
<g id="edge54_Node000025_Node000004" class="edge">
<title>Node25&#45;&gt;Node4</title>
<g id="a_edge54_Node000025_Node000004"><a xlink:title=" ">
<path fill="none" stroke="#63b8ff" d="M547.65,-320.03C593.68,-332.48 682.07,-349 746,-315.5 796.22,-289.19 826.03,-224.54 838.35,-191.95"/>
<polygon fill="#63b8ff" stroke="#63b8ff" points="841.76,-192.82 841.87,-182.23 835.18,-190.44 841.76,-192.82"/>
</a>
</g>
</g>
<!-- Node25&#45;&gt;Node5 -->
<g id="edge58_Node000025_Node000005" class="edge">
<title>Node25&#45;&gt;Node5</title>
<g id="a_edge58_Node000025_Node000005"><a xlink:title=" ">
<path fill="none" stroke="#63b8ff" d="M536.51,-320.09C548.02,-326.23 562.54,-334.85 574,-344.5 592.8,-360.34 587.66,-376.23 610,-386.5 664.91,-411.76 688.46,-405 746,-386.5 779,-375.89 810.33,-349.76 828.59,-332.34"/>
<polygon fill="#63b8ff" stroke="#63b8ff" points="831.35,-334.54 836.03,-325.03 826.44,-329.54 831.35,-334.54"/>
</a>
</g>
</g>
<!-- Node25&#45;&gt;Node7 -->
<g id="edge55_Node000025_Node000007" class="edge">
<title>Node25&#45;&gt;Node7</title>
<g id="a_edge55_Node000025_Node000007"><a xlink:title=" ">
<path fill="none" stroke="#63b8ff" d="M534,-300.76C545.36,-294.23 560.61,-285.41 574,-277.5 597.22,-263.79 623.24,-248.12 643.32,-235.97"/>
<polygon fill="#63b8ff" stroke="#63b8ff" points="645.36,-238.83 652.1,-230.65 641.73,-232.84 645.36,-238.83"/>
</a>
</g>
</g>
<!-- Node25&#45;&gt;Node8 -->
<g id="edge56_Node000025_Node000008" class="edge">
<title>Node25&#45;&gt;Node8</title>
<g id="a_edge56_Node000025_Node000008"><a xlink:title=" ">
<path fill="none" stroke="#63b8ff" d="M561.57,-306.6C578.34,-305.13 597.72,-303.44 615.75,-301.86"/>
<polygon fill="#63b8ff" stroke="#63b8ff" points="616.24,-305.33 625.89,-300.97 615.63,-298.36 616.24,-305.33"/>
</a>
</g>
</g>
<!-- Node25&#45;&gt;Node9 -->
<g id="edge57_Node000025_Node000009" class="edge">
<title>Node25&#45;&gt;Node9</title>
<g id="a_edge57_Node000025_Node000009"><a xlink:title=" ">
<path fill="none" stroke="#63b8ff" d="M541.07,-300.9C552.28,-295.44 565.09,-287.63 574,-277.5 601.36,-246.38 585.55,-224.95 610,-191.5 622.01,-175.06 639.69,-160.28 653.87,-149.9"/>
<polygon fill="#63b8ff" stroke="#63b8ff" points="656.02,-152.66 662.16,-144.02 651.98,-146.95 656.02,-152.66"/>
</a>
</g>
</g>
<!-- Node26&#45;&gt;Node12 -->
<g id="edge60_Node000026_Node000012" class="edge">
<title>Node26&#45;&gt;Node12</title>
<g id="a_edge60_Node000026_Node000012"><a xlink:title=" ">
<path fill="none" stroke="#63b8ff" d="M396.07,-417.96C404.89,-415.48 413.91,-412.37 422,-408.5 440.04,-399.86 440.28,-390.78 458,-381.5 462.06,-379.37 466.4,-377.42 470.82,-375.63"/>
<polygon fill="#63b8ff" stroke="#63b8ff" points="472.36,-378.79 480.5,-372.01 469.91,-372.24 472.36,-378.79"/>
</a>
</g>
</g>
<!-- Node26&#45;&gt;Node15 -->
<g id="edge61_Node000026_Node000015" class="edge">
<title>Node26&#45;&gt;Node15</title>
<g id="a_edge61_Node000026_Node000015"><a xlink:title=" ">
<path fill="none" stroke="#63b8ff" d="M396.18,-429.23C413.33,-430.28 433.24,-431.5 451.81,-432.64"/>
<polygon fill="#63b8ff" stroke="#63b8ff" points="451.76,-436.14 461.96,-433.26 452.19,-429.15 451.76,-436.14"/>
</a>
</g>
</g>
<!-- Node26&#45;&gt;Node16 -->
<g id="edge62_Node000026_Node000016" class="edge">
<title>Node26&#45;&gt;Node16</title>
<g id="a_edge62_Node000026_Node000016"><a xlink:title=" ">
<path fill="none" stroke="#63b8ff" d="M396.18,-419.12C412.06,-416.5 430.32,-413.48 447.68,-410.62"/>
<polygon fill="#63b8ff" stroke="#63b8ff" points="448.48,-414.03 457.77,-408.95 447.34,-407.13 448.48,-414.03"/>
</a>
</g>
</g>
<!-- Node26&#45;&gt;Node18 -->
<g id="edge63_Node000026_Node000018" class="edge">
<title>Node26&#45;&gt;Node18</title>
<g id="a_edge63_Node000026_Node000018"><a xlink:title=" ">
<path fill="none" stroke="#63b8ff" d="M387.78,-436.06C398.79,-439.02 410.91,-442.34 422,-445.5 439.19,-450.4 458.09,-456.05 474.33,-460.98"/>
<polygon fill="#63b8ff" stroke="#63b8ff" points="473.48,-464.37 484.07,-463.94 475.52,-457.68 473.48,-464.37"/>
</a>
</g>
</g>
</g>
</svg>
