<?xml version="1.0" encoding="UTF-8" standalone="no"?>
<!DOCTYPE svg PUBLIC "-//W3C//DTD SVG 1.1//EN"
 "http://www.w3.org/Graphics/SVG/1.1/DTD/svg11.dtd">
<!-- Generated by graphviz version 2.43.0 (0)
 -->
<!-- Title: func_80073B78 Pages: 1 -->
<!--zoomable 249 -->

<svg id="main" version="1.1" xmlns="http://www.w3.org/2000/svg" xmlns:xlink="http://www.w3.org/1999/xlink" xml:space="preserve" onload="init(evt)">

<style type="text/css"><![CDATA[
.node, .edge {opacity: 0.7;}
.node.selected, .edge.selected {opacity: 1;}
.edge:hover path { stroke: red; }
.edge:hover polygon { stroke: red; fill: red; }
]]></style>

<defs>
  <circle id="rim" cx="0" cy="0" r="7"/>
  <circle id="rim2" cx="0" cy="0" r="3.5"/>
  <g id="zoomPlus">
    <use xlink:href="#rim" fill="#404040"><set attributeName="fill" to="#808080" begin="zoomplus.mouseover" end="zoomplus.mouseout"/></use>
    <path d="M-4,0h8M0,-4v8" fill="none" stroke="white" stroke-width="1.5" pointer-events="none"/>
  </g>
  <g id="zoomMin">
    <use xlink:href="#rim" fill="#404040"><set attributeName="fill" to="#808080" begin="zoomminus.mouseover" end="zoomminus.mouseout"/></use>
    <path d="M-4,0h8" fill="none" stroke="white" stroke-width="1.5" pointer-events="none"/>
  </g>
  <g id="arrowUp" transform="translate(30 24)">
    <use xlink:href="#rim"/>
    <path pointer-events="none" fill="none" stroke="white" stroke-width="1.5" d="M0,-3.0v7 M-2.5,-0.5L0,-3.0L2.5,-0.5"/>
  </g>
  <g id="arrowRight" transform="rotate(90) translate(36 -43)">
    <use xlink:href="#rim"/>
    <path pointer-events="none" fill="none" stroke="white" stroke-width="1.5" d="M0,-3.0v7 M-2.5,-0.5L0,-3.0L2.5,-0.5"/>
  </g>
  <g id="arrowDown" transform="rotate(180) translate(-30 -48)">
    <use xlink:href="#rim"/>
    <path pointer-events="none" fill="none" stroke="white" stroke-width="1.5" d="M0,-3.0v7 M-2.5,-0.5L0,-3.0L2.5,-0.5"/>
  </g>
  <g id="arrowLeft" transform="rotate(270) translate(-36 17)">
    <use xlink:href="#rim"/>
    <path pointer-events="none" fill="none" stroke="white" stroke-width="1.5" d="M0,-3.0v7 M-2.5,-0.5L0,-3.0L2.5,-0.5"/>
  </g>
  <g id="resetDef">
    <use xlink:href="#rim2" fill="#404040"><set attributeName="fill" to="#808080" begin="reset.mouseover" end="reset.mouseout"/></use>
  </g>
</defs>
<script type="application/ecmascript">
var viewWidth = 802;
var viewHeight = 249;
var sectionId = 'dynsection-83';
</script>
<script type="application/ecmascript" xlink:href="svg.min.js"/>
<svg id="graph" class="graph">
<g id="viewport">
<title>func_80073B78</title>
<!-- Node1 -->
<g id="Node000001" class="node">
<title>Node1</title>
<g id="a_Node000001"><a xlink:title=" ">
<polygon fill="#999999" stroke="#666666" points="794,-111 702,-111 702,-92 794,-92 794,-111"/>
<text text-anchor="middle" x="748" y="-99" font-family="Helvetica,sans-Serif" font-size="10.00">func_80073B78</text>
</a>
</g>
</g>
<!-- Node2 -->
<g id="Node000002" class="node">
<title>Node2</title>
<g id="a_Node000002"><a xlink:href="update__objects_8c.html#ac31769d6520eb620744212bb98a35c67" target="_top" xlink:title=" ">
<polygon fill="white" stroke="#666666" points="634.5,-148 542.5,-148 542.5,-129 634.5,-129 634.5,-148"/>
<text text-anchor="middle" x="588.5" y="-136" font-family="Helvetica,sans-Serif" font-size="10.00">func_80073CB0</text>
</a>
</g>
</g>
<!-- Node1&#45;&gt;Node2 -->
<g id="edge1_Node000001_Node000002" class="edge">
<title>Node1&#45;&gt;Node2</title>
<g id="a_edge1_Node000001_Node000002"><a xlink:title=" ">
<path fill="none" stroke="#63b8ff" d="M696.53,-113.36C675.09,-118.39 650.44,-124.18 630.2,-128.94"/>
<polygon fill="#63b8ff" stroke="#63b8ff" points="697.51,-116.72 706.44,-111.03 695.9,-109.91 697.51,-116.72"/>
</a>
</g>
</g>
<!-- Node14 -->
<g id="Node000014" class="node">
<title>Node14</title>
<g id="a_Node000014"><a xlink:href="classOSnowman.html#ab008c50a3a4d6607147b0a5d07d65693" target="_top" xlink:title=" ">
<polygon fill="white" stroke="#666666" points="666,-93 511,-93 511,-74 666,-74 666,-93"/>
<text text-anchor="middle" x="588.5" y="-81" font-family="Helvetica,sans-Serif" font-size="10.00">OSnowman::func_80073D0C</text>
</a>
</g>
</g>
<!-- Node1&#45;&gt;Node14 -->
<g id="edge13_Node000001_Node000014" class="edge">
<title>Node1&#45;&gt;Node14</title>
<g id="a_edge13_Node000001_Node000014"><a xlink:title=" ">
<path fill="none" stroke="#63b8ff" d="M691.92,-95.21C683.58,-94.25 674.86,-93.26 666.17,-92.26"/>
<polygon fill="#63b8ff" stroke="#63b8ff" points="691.53,-98.68 701.87,-96.34 692.33,-91.73 691.53,-98.68"/>
</a>
</g>
</g>
<!-- Node3 -->
<g id="Node000003" class="node">
<title>Node3</title>
<g id="a_Node000003"><a xlink:href="classOBoos.html#a5483474ae266b13f26f36898ac4e6b35" target="_top" xlink:title=" ">
<polygon fill="white" stroke="#666666" points="463.5,-241 334.5,-241 334.5,-222 463.5,-222 463.5,-241"/>
<text text-anchor="middle" x="399" y="-229" font-family="Helvetica,sans-Serif" font-size="10.00">OBoos::func_8007C684</text>
</a>
</g>
</g>
<!-- Node2&#45;&gt;Node3 -->
<g id="edge2_Node000002_Node000003" class="edge">
<title>Node2&#45;&gt;Node3</title>
<g id="a_edge2_Node000002_Node000003"><a xlink:title=" ">
<path fill="none" stroke="#63b8ff" d="M568.16,-154.52C546.68,-171.53 510.36,-198.06 475,-213.5 467.27,-216.88 458.8,-219.68 450.43,-221.99"/>
<polygon fill="#63b8ff" stroke="#63b8ff" points="570.56,-157.08 576.15,-148.08 566.17,-151.63 570.56,-157.08"/>
</a>
</g>
</g>
<!-- Node5 -->
<g id="Node000005" class="node">
<title>Node5</title>
<g id="a_Node000005"><a xlink:href="update__objects_8c.html#a73baf566f784645307e6515a2528537d" target="_top" xlink:title=" ">
<polygon fill="white" stroke="#666666" points="446,-204 352,-204 352,-185 446,-185 446,-204"/>
<text text-anchor="middle" x="399" y="-192" font-family="Helvetica,sans-Serif" font-size="10.00">func_8007CEDC</text>
</a>
</g>
</g>
<!-- Node2&#45;&gt;Node5 -->
<g id="edge4_Node000002_Node000005" class="edge">
<title>Node2&#45;&gt;Node5</title>
<g id="a_edge4_Node000002_Node000005"><a xlink:title=" ">
<path fill="none" stroke="#63b8ff" d="M551.76,-151.49C529.78,-159.25 500.94,-169.02 475,-176.5 464.58,-179.5 453.24,-182.41 442.62,-184.98"/>
<polygon fill="#63b8ff" stroke="#63b8ff" points="553.1,-154.73 561.34,-148.08 550.75,-148.14 553.1,-154.73"/>
</a>
</g>
</g>
<!-- Node7 -->
<g id="Node000007" class="node">
<title>Node7</title>
<g id="a_Node000007"><a xlink:href="classOTrashBin.html#a3bfba89c86991d823fdbeb0cb0e65097" target="_top" xlink:title=" ">
<polygon fill="white" stroke="#666666" points="472,-167 326,-167 326,-148 472,-148 472,-167"/>
<text text-anchor="middle" x="399" y="-155" font-family="Helvetica,sans-Serif" font-size="10.00">OTrashBin::func_8007E00C</text>
</a>
</g>
</g>
<!-- Node2&#45;&gt;Node7 -->
<g id="edge6_Node000002_Node000007" class="edge">
<title>Node2&#45;&gt;Node7</title>
<g id="a_edge6_Node000002_Node000007"><a xlink:title=" ">
<path fill="none" stroke="#63b8ff" d="M531.95,-144.13C513.17,-146.03 491.91,-148.19 472.03,-150.2"/>
<polygon fill="#63b8ff" stroke="#63b8ff" points="532.52,-147.59 542.11,-143.1 531.81,-140.63 532.52,-147.59"/>
</a>
</g>
</g>
<!-- Node9 -->
<g id="Node000009" class="node">
<title>Node9</title>
<g id="a_Node000009"><a xlink:href="classOBat.html#ae20ad02992d817ca3c975e94cc6f1b26" target="_top" xlink:title=" ">
<polygon fill="white" stroke="#666666" points="432.5,-130 365.5,-130 365.5,-111 432.5,-111 432.5,-130"/>
<text text-anchor="middle" x="399" y="-118" font-family="Helvetica,sans-Serif" font-size="10.00">OBat::Tick</text>
</a>
</g>
</g>
<!-- Node2&#45;&gt;Node9 -->
<g id="edge8_Node000002_Node000009" class="edge">
<title>Node2&#45;&gt;Node9</title>
<g id="a_edge8_Node000002_Node000009"><a xlink:title=" ">
<path fill="none" stroke="#63b8ff" d="M531.9,-133.16C499.58,-130.06 459.96,-126.26 432.63,-123.63"/>
<polygon fill="#63b8ff" stroke="#63b8ff" points="531.82,-136.67 542.11,-134.14 532.49,-129.7 531.82,-136.67"/>
</a>
</g>
</g>
<!-- Node10 -->
<g id="Node000010" class="node">
<title>Node10</title>
<g id="a_Node000010"><a xlink:href="update__objects_8c.html#aa8f45d9faeaae2c86b272f979f68b788" target="_top" xlink:title=" ">
<polygon fill="white" stroke="#666666" points="439,-93 359,-93 359,-74 439,-74 439,-93"/>
<text text-anchor="middle" x="399" y="-81" font-family="Helvetica,sans-Serif" font-size="10.00">update_stars</text>
</a>
</g>
</g>
<!-- Node2&#45;&gt;Node10 -->
<g id="edge9_Node000002_Node000010" class="edge">
<title>Node2&#45;&gt;Node10</title>
<g id="a_edge9_Node000002_Node000010"><a xlink:title=" ">
<path fill="none" stroke="#63b8ff" d="M549.91,-125.83C528.13,-118.65 500.13,-109.7 475,-102.5 463.38,-99.17 450.66,-95.84 439.05,-92.91"/>
<polygon fill="#63b8ff" stroke="#63b8ff" points="548.85,-129.17 559.44,-128.99 551.05,-122.52 548.85,-129.17"/>
</a>
</g>
</g>
<!-- Node4 -->
<g id="Node000004" class="node">
<title>Node4</title>
<g id="a_Node000004"><a xlink:href="classOBoos.html#a12c6c9d602befe0bdc7383aa3f3530ed" target="_top" xlink:title=" ">
<polygon fill="white" stroke="#666666" points="247.5,-241 173.5,-241 173.5,-222 247.5,-222 247.5,-241"/>
<text text-anchor="middle" x="210.5" y="-229" font-family="Helvetica,sans-Serif" font-size="10.00">OBoos::Tick</text>
</a>
</g>
</g>
<!-- Node3&#45;&gt;Node4 -->
<g id="edge3_Node000003_Node000004" class="edge">
<title>Node3&#45;&gt;Node4</title>
<g id="a_edge3_Node000003_Node000004"><a xlink:title=" ">
<path fill="none" stroke="#63b8ff" d="M324.02,-231.5C297.77,-231.5 269.4,-231.5 247.71,-231.5"/>
<polygon fill="#63b8ff" stroke="#63b8ff" points="324.34,-235 334.34,-231.5 324.34,-228 324.34,-235"/>
</a>
</g>
</g>
<!-- Node6 -->
<g id="Node000006" class="node">
<title>Node6</title>
<g id="a_Node000006"><a xlink:href="update__objects_8c.html#a0f87dba5711ff3586d5fc515bd6df6af" target="_top" xlink:title=" ">
<polygon fill="white" stroke="#666666" points="256.5,-204 164.5,-204 164.5,-185 256.5,-185 256.5,-204"/>
<text text-anchor="middle" x="210.5" y="-192" font-family="Helvetica,sans-Serif" font-size="10.00">func_8007D070</text>
</a>
</g>
</g>
<!-- Node5&#45;&gt;Node6 -->
<g id="edge5_Node000005_Node000006" class="edge">
<title>Node5&#45;&gt;Node6</title>
<g id="a_edge5_Node000005_Node000006"><a xlink:title=" ">
<path fill="none" stroke="#63b8ff" d="M341.74,-194.5C314.54,-194.5 282.33,-194.5 256.75,-194.5"/>
<polygon fill="#63b8ff" stroke="#63b8ff" points="341.9,-198 351.9,-194.5 341.9,-191 341.9,-198"/>
</a>
</g>
</g>
<!-- Node8 -->
<g id="Node000008" class="node">
<title>Node8</title>
<g id="a_Node000008"><a xlink:href="classOTrashBin.html#af6d73933526741c82beebbed24515259" target="_top" xlink:title=" ">
<polygon fill="white" stroke="#666666" points="256.5,-167 164.5,-167 164.5,-148 256.5,-148 256.5,-167"/>
<text text-anchor="middle" x="210.5" y="-155" font-family="Helvetica,sans-Serif" font-size="10.00">OTrashBin::Tick</text>
</a>
</g>
</g>
<!-- Node7&#45;&gt;Node8 -->
<g id="edge7_Node000007_Node000008" class="edge">
<title>Node7&#45;&gt;Node8</title>
<g id="a_edge7_Node000007_Node000008"><a xlink:title=" ">
<path fill="none" stroke="#63b8ff" d="M315.71,-157.5C295.46,-157.5 274.5,-157.5 256.75,-157.5"/>
<polygon fill="#63b8ff" stroke="#63b8ff" points="315.89,-161 325.89,-157.5 315.89,-154 315.89,-161"/>
</a>
</g>
</g>
<!-- Node11 -->
<g id="Node000011" class="node">
<title>Node11</title>
<g id="a_Node000011"><a xlink:href="classRainbowRoad.html#ac8769b08e2d7972ee293b98de707fc8e" target="_top" xlink:title=" ">
<polygon fill="white" stroke="#666666" points="282,-130 139,-130 139,-111 282,-111 282,-130"/>
<text text-anchor="middle" x="210.5" y="-118" font-family="Helvetica,sans-Serif" font-size="10.00">RainbowRoad::TickClouds</text>
</a>
</g>
</g>
<!-- Node10&#45;&gt;Node11 -->
<g id="edge10_Node000010_Node000011" class="edge">
<title>Node10&#45;&gt;Node11</title>
<g id="a_edge10_Node000010_Node000011"><a xlink:title=" ">
<path fill="none" stroke="#63b8ff" d="M349.05,-93.21C321.4,-98.7 286.98,-105.53 259.49,-110.98"/>
<polygon fill="#63b8ff" stroke="#63b8ff" points="349.78,-96.64 358.9,-91.26 348.41,-89.77 349.78,-96.64"/>
</a>
</g>
</g>
<!-- Node12 -->
<g id="Node000012" class="node">
<title>Node12</title>
<g id="a_Node000012"><a xlink:href="classToadsTurnpike.html#a47be1f04c149cac0395c58def69ff150" target="_top" xlink:title=" ">
<polygon fill="white" stroke="#666666" points="282.5,-93 138.5,-93 138.5,-74 282.5,-74 282.5,-93"/>
<text text-anchor="middle" x="210.5" y="-81" font-family="Helvetica,sans-Serif" font-size="10.00">ToadsTurnpike::TickClouds</text>
</a>
</g>
</g>
<!-- Node10&#45;&gt;Node12 -->
<g id="edge11_Node000010_Node000012" class="edge">
<title>Node10&#45;&gt;Node12</title>
<g id="a_edge11_Node000010_Node000012"><a xlink:title=" ">
<path fill="none" stroke="#63b8ff" d="M348.67,-83.5C328.44,-83.5 304.62,-83.5 282.57,-83.5"/>
<polygon fill="#63b8ff" stroke="#63b8ff" points="348.9,-87 358.9,-83.5 348.9,-80 348.9,-87"/>
</a>
</g>
</g>
<!-- Node13 -->
<g id="Node000013" class="node">
<title>Node13</title>
<g id="a_Node000013"><a xlink:href="classWarioStadium.html#a01c3602dbf33f3d4f8279aea761bb1fd" target="_top" xlink:title=" ">
<polygon fill="white" stroke="#666666" points="282.5,-56 138.5,-56 138.5,-37 282.5,-37 282.5,-56"/>
<text text-anchor="middle" x="210.5" y="-44" font-family="Helvetica,sans-Serif" font-size="10.00">WarioStadium::TickClouds</text>
</a>
</g>
</g>
<!-- Node10&#45;&gt;Node13 -->
<g id="edge12_Node000010_Node000013" class="edge">
<title>Node10&#45;&gt;Node13</title>
<g id="a_edge12_Node000010_Node000013"><a xlink:title=" ">
<path fill="none" stroke="#63b8ff" d="M349.05,-73.79C321.4,-68.3 286.98,-61.47 259.49,-56.02"/>
<polygon fill="#63b8ff" stroke="#63b8ff" points="348.41,-77.23 358.9,-75.74 349.78,-70.36 348.41,-77.23"/>
</a>
</g>
</g>
<!-- Node15 -->
<g id="Node000015" class="node">
<title>Node15</title>
<g id="a_Node000015"><a xlink:href="classOSnowman.html#a1d589cb7de864ebc8942ea1bc10d155a" target="_top" xlink:title=" ">
<polygon fill="white" stroke="#666666" points="475,-38 323,-38 323,-19 475,-19 475,-38"/>
<text text-anchor="middle" x="399" y="-26" font-family="Helvetica,sans-Serif" font-size="10.00">OSnowman::func_80083948</text>
</a>
</g>
</g>
<!-- Node14&#45;&gt;Node15 -->
<g id="edge14_Node000014_Node000015" class="edge">
<title>Node14&#45;&gt;Node15</title>
<g id="a_edge14_Node000014_Node000015"><a xlink:title=" ">
<path fill="none" stroke="#63b8ff" d="M545.15,-71.08C511.05,-61.07 463.81,-47.22 432.6,-38.06"/>
<polygon fill="#63b8ff" stroke="#63b8ff" points="544.26,-74.46 554.84,-73.92 546.23,-67.75 544.26,-74.46"/>
</a>
</g>
</g>
<!-- Node16 -->
<g id="Node000016" class="node">
<title>Node16</title>
<g id="a_Node000016"><a xlink:href="classOSnowman.html#ad8f7afbec39a4816e2c2b4237d15b294" target="_top" xlink:title=" ">
<polygon fill="white" stroke="#666666" points="287,-19 134,-19 134,0 287,0 287,-19"/>
<text text-anchor="middle" x="210.5" y="-7" font-family="Helvetica,sans-Serif" font-size="10.00">OSnowman::func_80083A94</text>
</a>
</g>
</g>
<!-- Node15&#45;&gt;Node16 -->
<g id="edge15_Node000015_Node000016" class="edge">
<title>Node15&#45;&gt;Node16</title>
<g id="a_edge15_Node000015_Node000016"><a xlink:title=" ">
<path fill="none" stroke="#63b8ff" d="M312.88,-19.83C304.25,-18.95 295.52,-18.06 287,-17.19"/>
<polygon fill="#63b8ff" stroke="#63b8ff" points="312.65,-23.32 322.95,-20.85 313.36,-16.36 312.65,-23.32"/>
</a>
</g>
</g>
<!-- Node17 -->
<g id="Node000017" class="node">
<title>Node17</title>
<g id="a_Node000017"><a xlink:href="classOSnowman.html#ae84de267ff70c7e2ac5748b9bd738ada" target="_top" xlink:title=" ">
<polygon fill="white" stroke="#666666" points="98,-19 0,-19 0,0 98,0 98,-19"/>
<text text-anchor="middle" x="49" y="-7" font-family="Helvetica,sans-Serif" font-size="10.00">OSnowman::Tick</text>
</a>
</g>
</g>
<!-- Node16&#45;&gt;Node17 -->
<g id="edge16_Node000016_Node000017" class="edge">
<title>Node16&#45;&gt;Node17</title>
<g id="a_edge16_Node000016_Node000017"><a xlink:title=" ">
<path fill="none" stroke="#63b8ff" d="M123.76,-9.5C115.09,-9.5 106.51,-9.5 98.45,-9.5"/>
<polygon fill="#63b8ff" stroke="#63b8ff" points="123.95,-13 133.95,-9.5 123.95,-6 123.95,-13"/>
</a>
</g>
</g>
</g>
</svg>

<g id="navigator" transform="translate(0 0)" fill="#404254">
  <rect fill="#f2f5e9" fill-opacity="0.5" stroke="#606060" stroke-width=".5" x="0" y="0" width="60" height="60"/>
  <use id="zoomplus" xlink:href="#zoomPlus" x="17" y="9" onmousedown="handleZoom(evt,'in')"/>
  <use id="zoomminus" xlink:href="#zoomMin" x="42" y="9" onmousedown="handleZoom(evt,'out')"/>
  <use id="reset" xlink:href="#resetDef" x="30" y="36" onmousedown="handleReset()"/>
   <use id="arrowup" xlink:href="#arrowUp" x="0" y="0" onmousedown="handlePan(0,-1)"/>
  <use id="arrowright" xlink:href="#arrowRight" x="0" y="0" onmousedown="handlePan(1,0)"/>
  <use id="arrowdown" xlink:href="#arrowDown" x="0" y="0" onmousedown="handlePan(0,1)"/>
  <use id="arrowleft" xlink:href="#arrowLeft" x="0" y="0" onmousedown="handlePan(-1,0)"/>
</g>
<svg viewBox="0 0 15 15" width="100%" height="30px" preserveAspectRatio="xMaxYMin meet">
 <g id="arrow_out" transform="scale(0.3 0.3)">
  <a xlink:href="update__objects_8c_a394360d128db360e999e096566bffa94_icgraph_org.svg" target="_base">
   <rect id="button" ry="5" rx="5" y="6" x="6" height="38" width="38"
        fill="#f2f5e9" fill-opacity="0.5" stroke="#606060" stroke-width="1.0"/>
   <path id="arrow"
     d="M 11.500037,31.436501 C 11.940474,20.09759 22.043105,11.32322 32.158766,21.979434 L 37.068811,17.246167 C 37.068811,17.246167 37.088388,32 37.088388,32 L 22.160133,31.978069 C 22.160133,31.978069 26.997745,27.140456 26.997745,27.140456 C 18.528582,18.264221 13.291696,25.230495 11.500037,31.436501 z"
     style="fill:#404040;"/>
  </a>
 </g>
</svg>

<style type='text/css'>
<![CDATA[
[data-mouse-over-selected='false'] { opacity: 0.7; }
[data-mouse-over-selected='true']  { opacity: 1.0; }
]]>
</style>
<script type="application/ecmascript"><![CDATA[
document.addEventListener('DOMContentLoaded', (event) => {
  highlightEdges();
  highlightAdjacentNodes();
});
]]></script>
</svg>
