<?xml version="1.0" encoding="UTF-8" standalone="no"?>
<!DOCTYPE svg PUBLIC "-//W3C//DTD SVG 1.1//EN"
 "http://www.w3.org/Graphics/SVG/1.1/DTD/svg11.dtd">
<!-- Generated by graphviz version 2.43.0 (0)
 -->
<!-- Title: func_80078288 Pages: 1 -->
<svg width="558pt" height="38pt"
 viewBox="0.00 0.00 558.00 38.00" xmlns="http://www.w3.org/2000/svg" xmlns:xlink="http://www.w3.org/1999/xlink">
<g id="graph0" class="graph" transform="scale(1 1) rotate(0) translate(4 34)">
<title>func_80078288</title>
<!-- Node1 -->
<g id="Node000001" class="node">
<title>Node1</title>
<g id="a_Node000001"><a xlink:title=" ">
<polygon fill="#999999" stroke="#666666" points="550,-24.5 459,-24.5 459,-5.5 550,-5.5 550,-24.5"/>
<text text-anchor="middle" x="504.5" y="-12.5" font-family="Helvetica,sans-Serif" font-size="10.00">func_80078288</text>
</a>
</g>
</g>
<!-- Node2 -->
<g id="Node000002" class="node">
<title>Node2</title>
<g id="a_Node000002"><a xlink:href="update__objects_8c.html#ab41f725550186878218b0d8b3b0fa5d4" target="_top" xlink:title=" ">
<polygon fill="white" stroke="#666666" points="423,-24.5 331,-24.5 331,-5.5 423,-5.5 423,-24.5"/>
<text text-anchor="middle" x="377" y="-12.5" font-family="Helvetica,sans-Serif" font-size="10.00">func_800786EC</text>
</a>
</g>
</g>
<!-- Node1&#45;&gt;Node2 -->
<g id="edge1_Node000001_Node000002" class="edge">
<title>Node1&#45;&gt;Node2</title>
<g id="a_edge1_Node000001_Node000002"><a xlink:title=" ">
<path fill="none" stroke="#63b8ff" d="M448.7,-15C440.22,-15 431.54,-15 423.3,-15"/>
<polygon fill="#63b8ff" stroke="#63b8ff" points="448.9,-18.5 458.9,-15 448.9,-11.5 448.9,-18.5"/>
</a>
</g>
</g>
<!-- Node3 -->
<g id="Node000003" class="node">
<title>Node3</title>
<g id="a_Node000003"><a xlink:href="update__objects_8c.html#aa48fd49d06dac7e1948b468b4f260477" target="_top" xlink:title=" ">
<polygon fill="white" stroke="#666666" points="295,-24.5 185,-24.5 185,-5.5 295,-5.5 295,-24.5"/>
<text text-anchor="middle" x="240" y="-12.5" font-family="Helvetica,sans-Serif" font-size="10.00">update_snowflakes</text>
</a>
</g>
</g>
<!-- Node2&#45;&gt;Node3 -->
<g id="edge2_Node000002_Node000003" class="edge">
<title>Node2&#45;&gt;Node3</title>
<g id="a_edge2_Node000002_Node000003"><a xlink:title=" ">
<path fill="none" stroke="#63b8ff" d="M320.64,-15C312.28,-15 303.67,-15 295.34,-15"/>
<polygon fill="#63b8ff" stroke="#63b8ff" points="320.67,-18.5 330.67,-15 320.67,-11.5 320.67,-18.5"/>
</a>
</g>
</g>
<!-- Node4 -->
<g id="Node000004" class="node">
<title>Node4</title>
<g id="a_Node000004"><a xlink:href="classFrappeSnowland.html#a96ecd2e1bd66ff82a6f0684ad88ee1af" target="_top" xlink:title=" ">
<polygon fill="white" stroke="#666666" points="149,-30 0,-30 0,0 149,0 149,-30"/>
<text text-anchor="start" x="8" y="-18" font-family="Helvetica,sans-Serif" font-size="10.00">FrappeSnowland::TickTrack</text>
<text text-anchor="middle" x="74.5" y="-7" font-family="Helvetica,sans-Serif" font-size="10.00">Objects</text>
</a>
</g>
</g>
<!-- Node3&#45;&gt;Node4 -->
<g id="edge3_Node000003_Node000004" class="edge">
<title>Node3&#45;&gt;Node4</title>
<g id="a_edge3_Node000003_Node000004"><a xlink:title=" ">
<path fill="none" stroke="#63b8ff" d="M174.56,-15C166.23,-15 157.66,-15 149.2,-15"/>
<polygon fill="#63b8ff" stroke="#63b8ff" points="174.56,-18.5 184.56,-15 174.56,-11.5 174.56,-18.5"/>
</a>
</g>
</g>
</g>
</svg>
