<?xml version="1.0" encoding="UTF-8" standalone="no"?>
<!DOCTYPE svg PUBLIC "-//W3C//DTD SVG 1.1//EN"
 "http://www.w3.org/Graphics/SVG/1.1/DTD/svg11.dtd">
<!-- Generated by graphviz version 2.43.0 (0)
 -->
<!-- Title: func_80083F18 Pages: 1 -->
<svg width="564pt" height="353pt"
 viewBox="0.00 0.00 564.00 353.46" xmlns="http://www.w3.org/2000/svg" xmlns:xlink="http://www.w3.org/1999/xlink">
<g id="graph0" class="graph" transform="scale(1 1) rotate(0) translate(4 349.46)">
<title>func_80083F18</title>
<!-- Node1 -->
<g id="Node000001" class="node">
<title>Node1</title>
<g id="a_Node000001"><a xlink:title=" ">
<polygon fill="#999999" stroke="#666666" points="91,-246 0,-246 0,-227 91,-227 91,-246"/>
<text text-anchor="middle" x="45.5" y="-234" font-family="Helvetica,sans-Serif" font-size="10.00">func_80083F18</text>
</a>
</g>
</g>
<!-- Node2 -->
<g id="Node000002" class="node">
<title>Node2</title>
<g id="a_Node000002"><a xlink:href="update__objects_8c.html#a5978ef1e35515c275f92eb79b8601d77" target="_top" xlink:title=" ">
<polygon fill="white" stroke="#666666" points="233.5,-284 142.5,-284 142.5,-265 233.5,-265 233.5,-284"/>
<text text-anchor="middle" x="188" y="-272" font-family="Helvetica,sans-Serif" font-size="10.00">func_80072428</text>
</a>
</g>
</g>
<!-- Node1&#45;&gt;Node2 -->
<g id="edge1_Node000001_Node000002" class="edge">
<title>Node1&#45;&gt;Node2</title>
<g id="a_edge1_Node000001_Node000002"><a xlink:title=" ">
<path fill="none" stroke="#63b8ff" d="M81.95,-246.09C100.09,-250.99 122.37,-257.02 141.73,-262.26"/>
<polygon fill="#63b8ff" stroke="#63b8ff" points="140.99,-265.68 151.56,-264.91 142.82,-258.92 140.99,-265.68"/>
</a>
</g>
</g>
<!-- Node3 -->
<g id="Node000003" class="node">
<title>Node3</title>
<g id="a_Node000003"><a xlink:href="code__80086E70_8c.html#acd186a6f592769b3e3db3da72fcf765f" target="_top" xlink:title=" ">
<polygon fill="white" stroke="#666666" points="398.5,-284 307.5,-284 307.5,-265 398.5,-265 398.5,-284"/>
<text text-anchor="middle" x="353" y="-272" font-family="Helvetica,sans-Serif" font-size="10.00">func_80086F60</text>
</a>
</g>
</g>
<!-- Node1&#45;&gt;Node3 -->
<g id="edge5_Node000001_Node000003" class="edge">
<title>Node1&#45;&gt;Node3</title>
<g id="a_edge5_Node000001_Node000003"><a xlink:title=" ">
<path fill="none" stroke="#63b8ff" d="M91.27,-239.55C132.39,-242.63 194.96,-248 249,-255.5 264.73,-257.69 281.73,-260.59 297.28,-263.47"/>
<polygon fill="#63b8ff" stroke="#63b8ff" points="296.8,-266.94 307.27,-265.35 298.09,-260.06 296.8,-266.94"/>
</a>
</g>
</g>
<!-- Node6 -->
<g id="Node000006" class="node">
<title>Node6</title>
<g id="a_Node000006"><a xlink:href="code__80086E70_8c.html#a989c71b5530f8701df950f1d39a9259b" target="_top" xlink:title=" ">
<polygon fill="white" stroke="#666666" points="233.5,-190 142.5,-190 142.5,-171 233.5,-171 233.5,-190"/>
<text text-anchor="middle" x="188" y="-178" font-family="Helvetica,sans-Serif" font-size="10.00">func_80087E08</text>
</a>
</g>
</g>
<!-- Node1&#45;&gt;Node6 -->
<g id="edge6_Node000001_Node000006" class="edge">
<title>Node1&#45;&gt;Node6</title>
<g id="a_edge6_Node000001_Node000006"><a xlink:title=" ">
<path fill="none" stroke="#63b8ff" d="M70.65,-226.87C93.61,-217.72 128.33,-203.88 153.87,-193.71"/>
<polygon fill="#63b8ff" stroke="#63b8ff" points="155.17,-196.95 163.16,-190 152.58,-190.45 155.17,-196.95"/>
</a>
</g>
</g>
<!-- Node14 -->
<g id="Node000014" class="node">
<title>Node14</title>
<g id="a_Node000014"><a xlink:href="code__80086E70_8c.html#a2f6ae8b384477efbc2654d6427d095f7" target="_top" xlink:title=" ">
<polygon fill="white" stroke="#666666" points="249,-152.5 127,-152.5 127,-122.5 249,-122.5 249,-152.5"/>
<text text-anchor="start" x="135" y="-140.5" font-family="Helvetica,sans-Serif" font-size="10.00">object_calculate_new</text>
<text text-anchor="middle" x="188" y="-129.5" font-family="Helvetica,sans-Serif" font-size="10.00">_pos_offset</text>
</a>
</g>
</g>
<!-- Node1&#45;&gt;Node14 -->
<g id="edge16_Node000001_Node000014" class="edge">
<title>Node1&#45;&gt;Node14</title>
<g id="a_edge16_Node000001_Node000014"><a xlink:title=" ">
<path fill="none" stroke="#63b8ff" d="M54.98,-226.51C68.72,-210.83 97.32,-180.33 127,-161.5 129.44,-159.95 132,-158.47 134.63,-157.06"/>
<polygon fill="#63b8ff" stroke="#63b8ff" points="136.35,-160.11 143.75,-152.54 133.24,-153.84 136.35,-160.11"/>
</a>
</g>
</g>
<!-- Node15 -->
<g id="Node000015" class="node">
<title>Node15</title>
<g id="a_Node000015"><a xlink:href="update__objects_8c.html#a8bfc5f5c7034d61b534e14f325b6e399" target="_top" xlink:title=" ">
<polygon fill="white" stroke="#666666" points="240,-321 136,-321 136,-302 240,-302 240,-321"/>
<text text-anchor="middle" x="188" y="-309" font-family="Helvetica,sans-Serif" font-size="10.00">object_next_state</text>
</a>
</g>
</g>
<!-- Node1&#45;&gt;Node15 -->
<g id="edge17_Node000001_Node000015" class="edge">
<title>Node1&#45;&gt;Node15</title>
<g id="a_edge17_Node000001_Node000015"><a xlink:title=" ">
<path fill="none" stroke="#63b8ff" d="M57.81,-246.03C72.78,-258.25 100.42,-279.42 127,-292.5 131.54,-294.73 136.4,-296.78 141.32,-298.64"/>
<polygon fill="#63b8ff" stroke="#63b8ff" points="140.18,-301.95 150.78,-301.97 142.51,-295.34 140.18,-301.95"/>
</a>
</g>
</g>
<!-- Node2&#45;&gt;Node3 -->
<g id="edge2_Node000002_Node000003" class="edge">
<title>Node2&#45;&gt;Node3</title>
<g id="a_edge2_Node000002_Node000003"><a xlink:title=" ">
<path fill="none" stroke="#63b8ff" d="M233.54,-274.5C253.14,-274.5 276.35,-274.5 297.01,-274.5"/>
<polygon fill="#63b8ff" stroke="#63b8ff" points="297.23,-278 307.23,-274.5 297.23,-271 297.23,-278"/>
</a>
</g>
</g>
<!-- Node5 -->
<g id="Node000005" class="node">
<title>Node5</title>
<g id="a_Node000005"><a xlink:href="update__objects_8c.html#af20e3f3c403dd4fbea56e358997e515a" target="_top" xlink:title=" ">
<polygon fill="white" stroke="#666666" points="417,-321 289,-321 289,-302 417,-302 417,-321"/>
<text text-anchor="middle" x="353" y="-309" font-family="Helvetica,sans-Serif" font-size="10.00">set_object_timer_state</text>
</a>
</g>
</g>
<!-- Node2&#45;&gt;Node5 -->
<g id="edge4_Node000002_Node000005" class="edge">
<title>Node2&#45;&gt;Node5</title>
<g id="a_edge4_Node000002_Node000005"><a xlink:title=" ">
<path fill="none" stroke="#63b8ff" d="M230.98,-284.03C252,-288.8 277.65,-294.62 299.92,-299.68"/>
<polygon fill="#63b8ff" stroke="#63b8ff" points="299.36,-303.14 309.88,-301.94 300.91,-296.31 299.36,-303.14"/>
</a>
</g>
</g>
<!-- Node4 -->
<g id="Node000004" class="node">
<title>Node4</title>
<g id="a_Node000004"><a xlink:href="update__objects_8c.html#a3953241e15c6372ac8944ba842148a9a" target="_top" xlink:title=" ">
<polygon fill="white" stroke="#666666" points="556,-246 457,-246 457,-227 556,-227 556,-246"/>
<text text-anchor="middle" x="506.5" y="-234" font-family="Helvetica,sans-Serif" font-size="10.00">clear_object_flag</text>
</a>
</g>
</g>
<!-- Node3&#45;&gt;Node4 -->
<g id="edge3_Node000003_Node000004" class="edge">
<title>Node3&#45;&gt;Node4</title>
<g id="a_edge3_Node000003_Node000004"><a xlink:title=" ">
<path fill="none" stroke="#63b8ff" d="M392.23,-264.91C412.13,-259.92 436.66,-253.77 457.79,-248.47"/>
<polygon fill="#63b8ff" stroke="#63b8ff" points="458.7,-251.85 467.55,-246.02 456.99,-245.06 458.7,-251.85"/>
</a>
</g>
</g>
<!-- Node6&#45;&gt;Node4 -->
<g id="edge7_Node000006_Node000004" class="edge">
<title>Node6&#45;&gt;Node4</title>
<g id="a_edge7_Node000006_Node000004"><a xlink:title=" ">
<path fill="none" stroke="#63b8ff" d="M233.59,-187.16C280.38,-194.3 356.02,-206.27 421,-218.5 431.28,-220.44 442.22,-222.65 452.71,-224.85"/>
<polygon fill="#63b8ff" stroke="#63b8ff" points="452.08,-228.3 462.59,-226.95 453.54,-221.45 452.08,-228.3"/>
</a>
</g>
</g>
<!-- Node7 -->
<g id="Node000007" class="node">
<title>Node7</title>
<g id="a_Node000007"><a xlink:href="code__80086E70_8c.html#a6eea48094f49bb346ce1170842d955b2" target="_top" xlink:title=" ">
<polygon fill="white" stroke="#666666" points="399,-171 307,-171 307,-152 399,-152 399,-171"/>
<text text-anchor="middle" x="353" y="-159" font-family="Helvetica,sans-Serif" font-size="10.00">func_80086FD4</text>
</a>
</g>
</g>
<!-- Node6&#45;&gt;Node7 -->
<g id="edge8_Node000006_Node000007" class="edge">
<title>Node6&#45;&gt;Node7</title>
<g id="a_edge8_Node000006_Node000007"><a xlink:title=" ">
<path fill="none" stroke="#63b8ff" d="M233.54,-175.31C253.05,-173.03 276.16,-170.34 296.75,-167.94"/>
<polygon fill="#63b8ff" stroke="#63b8ff" points="297.42,-171.39 306.95,-166.75 296.61,-164.43 297.42,-171.39"/>
</a>
</g>
</g>
<!-- Node8 -->
<g id="Node000008" class="node">
<title>Node8</title>
<g id="a_Node000008"><a xlink:href="code__80086E70_8c.html#a1cd6a78cf091bd496e83739902c652a7" target="_top" xlink:title=" ">
<polygon fill="white" stroke="#666666" points="399,-37 307,-37 307,-18 399,-18 399,-37"/>
<text text-anchor="middle" x="353" y="-25" font-family="Helvetica,sans-Serif" font-size="10.00">func_8008751C</text>
</a>
</g>
</g>
<!-- Node6&#45;&gt;Node8 -->
<g id="edge10_Node000006_Node000008" class="edge">
<title>Node6&#45;&gt;Node8</title>
<g id="a_edge10_Node000006_Node000008"><a xlink:title=" ">
<path fill="none" stroke="#63b8ff" d="M233.73,-171.77C239.38,-169.18 244.68,-165.83 249,-161.5 286.81,-123.57 246.62,-83.85 285,-46.5 288.7,-42.9 293.02,-39.98 297.66,-37.6"/>
<polygon fill="#63b8ff" stroke="#63b8ff" points="299.06,-40.8 306.89,-33.67 296.32,-34.36 299.06,-40.8"/>
</a>
</g>
</g>
<!-- Node11 -->
<g id="Node000011" class="node">
<title>Node11</title>
<g id="a_Node000011"><a xlink:href="update__objects_8c.html#a2301a51a93a60f0382cdc7002e14f95a" target="_top" xlink:title=" ">
<polygon fill="white" stroke="#666666" points="421,-133.5 285,-133.5 285,-103.5 421,-103.5 421,-133.5"/>
<text text-anchor="start" x="293" y="-121.5" font-family="Helvetica,sans-Serif" font-size="10.00">is_obj_index_flag_status</text>
<text text-anchor="middle" x="353" y="-110.5" font-family="Helvetica,sans-Serif" font-size="10.00">_inactive</text>
</a>
</g>
</g>
<!-- Node6&#45;&gt;Node11 -->
<g id="edge13_Node000006_Node000011" class="edge">
<title>Node6&#45;&gt;Node11</title>
<g id="a_edge13_Node000006_Node000011"><a xlink:title=" ">
<path fill="none" stroke="#63b8ff" d="M222.71,-170.99C231.38,-168.23 240.63,-165 249,-161.5 265.69,-154.52 268.44,-149.79 285,-142.5 289.12,-140.69 293.42,-138.9 297.77,-137.18"/>
<polygon fill="#63b8ff" stroke="#63b8ff" points="299.25,-140.36 307.32,-133.51 296.73,-133.83 299.25,-140.36"/>
</a>
</g>
</g>
<!-- Node12 -->
<g id="Node000012" class="node">
<title>Node12</title>
<g id="a_Node000012"><a xlink:href="code__80086E70_8c.html#a1d4593518e5153328388afb23bbc6902" target="_top" xlink:title=" ">
<polygon fill="white" stroke="#666666" points="410,-85.5 296,-85.5 296,-55.5 410,-55.5 410,-85.5"/>
<text text-anchor="start" x="304" y="-73.5" font-family="Helvetica,sans-Serif" font-size="10.00">object_add_velocity</text>
<text text-anchor="middle" x="353" y="-62.5" font-family="Helvetica,sans-Serif" font-size="10.00">_offset_xyz</text>
</a>
</g>
</g>
<!-- Node6&#45;&gt;Node12 -->
<g id="edge14_Node000006_Node000012" class="edge">
<title>Node6&#45;&gt;Node12</title>
<g id="a_edge14_Node000006_Node000012"><a xlink:title=" ">
<path fill="none" stroke="#63b8ff" d="M233.02,-170.98C238.77,-168.51 244.29,-165.41 249,-161.5 275.02,-139.92 259.38,-116.56 285,-94.5 286.35,-93.34 287.76,-92.23 289.23,-91.17"/>
<polygon fill="#63b8ff" stroke="#63b8ff" points="291.42,-93.93 298.06,-85.68 287.72,-87.98 291.42,-93.93"/>
</a>
</g>
</g>
<!-- Node13 -->
<g id="Node000013" class="node">
<title>Node13</title>
<g id="a_Node000013"><a xlink:href="update__objects_8c.html#afe64f2394ee0deab6370b77609500bda" target="_top" xlink:title=" ">
<polygon fill="white" stroke="#666666" points="398,-247 308,-247 308,-228 398,-228 398,-247"/>
<text text-anchor="middle" x="353" y="-235" font-family="Helvetica,sans-Serif" font-size="10.00">set_object_flag</text>
</a>
</g>
</g>
<!-- Node6&#45;&gt;Node13 -->
<g id="edge15_Node000006_Node000013" class="edge">
<title>Node6&#45;&gt;Node13</title>
<g id="a_edge15_Node000006_Node000013"><a xlink:title=" ">
<path fill="none" stroke="#63b8ff" d="M216.28,-190.04C243.32,-199.49 284.91,-214.04 314.93,-224.54"/>
<polygon fill="#63b8ff" stroke="#63b8ff" points="314.03,-227.93 324.63,-227.93 316.34,-221.32 314.03,-227.93"/>
</a>
</g>
</g>
<!-- Node7&#45;&gt;Node4 -->
<g id="edge9_Node000007_Node000004" class="edge">
<title>Node7&#45;&gt;Node4</title>
<g id="a_edge9_Node000007_Node000004"><a xlink:title=" ">
<path fill="none" stroke="#63b8ff" d="M384.54,-171C396.16,-174.99 409.39,-179.99 421,-185.5 442.94,-195.92 466.49,-210.44 483.14,-221.32"/>
<polygon fill="#63b8ff" stroke="#63b8ff" points="481.36,-224.34 491.63,-226.94 485.22,-218.5 481.36,-224.34"/>
</a>
</g>
</g>
<!-- Node9 -->
<g id="Node000009" class="node">
<title>Node9</title>
<g id="a_Node000009"><a xlink:href="math__util_8c.html#ae69cbf5c8d4b3b0dba2d7b4d4673689f" target="_top" xlink:title=" ">
<polygon fill="white" stroke="#666666" points="525.5,-19 487.5,-19 487.5,0 525.5,0 525.5,-19"/>
<text text-anchor="middle" x="506.5" y="-7" font-family="Helvetica,sans-Serif" font-size="10.00">coss</text>
</a>
</g>
</g>
<!-- Node8&#45;&gt;Node9 -->
<g id="edge11_Node000008_Node000009" class="edge">
<title>Node8&#45;&gt;Node9</title>
<g id="a_edge11_Node000008_Node000009"><a xlink:title=" ">
<path fill="none" stroke="#63b8ff" d="M399.04,-22.15C424.38,-19.14 455.23,-15.47 477.19,-12.86"/>
<polygon fill="#63b8ff" stroke="#63b8ff" points="477.67,-16.33 487.19,-11.68 476.84,-9.38 477.67,-16.33"/>
</a>
</g>
</g>
<!-- Node10 -->
<g id="Node000010" class="node">
<title>Node10</title>
<g id="a_Node000010"><a xlink:href="math__util_8c.html#a19ed3bd78fd2d3e2bd0a29f6caf48545" target="_top" xlink:title=" ">
<polygon fill="white" stroke="#666666" points="524.5,-56 488.5,-56 488.5,-37 524.5,-37 524.5,-56"/>
<text text-anchor="middle" x="506.5" y="-44" font-family="Helvetica,sans-Serif" font-size="10.00">sins</text>
</a>
</g>
</g>
<!-- Node8&#45;&gt;Node10 -->
<g id="edge12_Node000008_Node000010" class="edge">
<title>Node8&#45;&gt;Node10</title>
<g id="a_edge12_Node000008_Node000010"><a xlink:title=" ">
<path fill="none" stroke="#63b8ff" d="M399.04,-33.15C424.83,-36.38 456.33,-40.33 478.35,-43.09"/>
<polygon fill="#63b8ff" stroke="#63b8ff" points="477.97,-46.57 488.33,-44.35 478.84,-39.63 477.97,-46.57"/>
</a>
</g>
</g>
<!-- Node15&#45;&gt;Node4 -->
<g id="edge18_Node000015_Node000004" class="edge">
<title>Node15&#45;&gt;Node4</title>
<g id="a_edge18_Node000015_Node000004"><a xlink:title=" ">
<path fill="none" stroke="#63b8ff" d="M214.02,-321.11C258.03,-336.42 351.24,-361.59 421,-330.5 455.72,-315.02 482.15,-277.44 495.61,-254.76"/>
<polygon fill="#63b8ff" stroke="#63b8ff" points="498.65,-256.49 500.56,-246.06 492.57,-253.02 498.65,-256.49"/>
</a>
</g>
</g>
<!-- Node15&#45;&gt;Node5 -->
<g id="edge19_Node000015_Node000005" class="edge">
<title>Node15&#45;&gt;Node5</title>
<g id="a_edge19_Node000015_Node000005"><a xlink:title=" ">
<path fill="none" stroke="#63b8ff" d="M240.13,-311.5C252.28,-311.5 265.49,-311.5 278.43,-311.5"/>
<polygon fill="#63b8ff" stroke="#63b8ff" points="278.72,-315 288.72,-311.5 278.72,-308 278.72,-315"/>
</a>
</g>
</g>
</g>
</svg>
