<?xml version="1.0" encoding="UTF-8" standalone="no"?>
<!DOCTYPE svg PUBLIC "-//W3C//DTD SVG 1.1//EN"
 "http://www.w3.org/Graphics/SVG/1.1/DTD/svg11.dtd">
<!-- Generated by graphviz version 2.43.0 (0)
 -->
<!-- Title: func_80085EF8 Pages: 1 -->
<svg width="569pt" height="193pt"
 viewBox="0.00 0.00 569.00 193.00" xmlns="http://www.w3.org/2000/svg" xmlns:xlink="http://www.w3.org/1999/xlink">
<g id="graph0" class="graph" transform="scale(1 1) rotate(0) translate(4 189)">
<title>func_80085EF8</title>
<!-- Node1 -->
<g id="Node000001" class="node">
<title>Node1</title>
<g id="a_Node000001"><a xlink:title=" ">
<polygon fill="#999999" stroke="#666666" points="91,-74 0,-74 0,-55 91,-55 91,-74"/>
<text text-anchor="middle" x="45.5" y="-62" font-family="Helvetica,sans-Serif" font-size="10.00">func_80085EF8</text>
</a>
</g>
</g>
<!-- Node2 -->
<g id="Node000002" class="node">
<title>Node2</title>
<g id="a_Node000002"><a xlink:href="update__objects_8c.html#ac47489d8761fe55d49915f2af1155799" target="_top" xlink:title=" ">
<polygon fill="white" stroke="#666666" points="231,-130 139,-130 139,-111 231,-111 231,-130"/>
<text text-anchor="middle" x="185" y="-118" font-family="Helvetica,sans-Serif" font-size="10.00">func_80085BB4</text>
</a>
</g>
</g>
<!-- Node1&#45;&gt;Node2 -->
<g id="edge1_Node000001_Node000002" class="edge">
<title>Node1&#45;&gt;Node2</title>
<g id="a_edge1_Node000001_Node000002"><a xlink:title=" ">
<path fill="none" stroke="#63b8ff" d="M65.76,-74.07C81.91,-81.93 105.69,-93.08 127,-101.5 132.28,-103.58 137.88,-105.64 143.44,-107.59"/>
<polygon fill="#63b8ff" stroke="#63b8ff" points="142.72,-111.04 153.31,-110.95 144.97,-104.41 142.72,-111.04"/>
</a>
</g>
</g>
<!-- Node8 -->
<g id="Node000008" class="node">
<title>Node8</title>
<g id="a_Node000008"><a xlink:href="update__objects_8c.html#add0bf98084e3359319c40487d800d428" target="_top" xlink:title=" ">
<polygon fill="white" stroke="#666666" points="239,-93 131,-93 131,-74 239,-74 239,-93"/>
<text text-anchor="middle" x="185" y="-81" font-family="Helvetica,sans-Serif" font-size="10.00">init_texture_object</text>
</a>
</g>
</g>
<!-- Node1&#45;&gt;Node8 -->
<g id="edge7_Node000001_Node000008" class="edge">
<title>Node1&#45;&gt;Node8</title>
<g id="a_edge7_Node000001_Node000008"><a xlink:title=" ">
<path fill="none" stroke="#63b8ff" d="M91.14,-70.67C100.67,-71.99 110.9,-73.4 120.97,-74.79"/>
<polygon fill="#63b8ff" stroke="#63b8ff" points="120.57,-78.27 130.96,-76.17 121.53,-71.33 120.57,-78.27"/>
</a>
</g>
</g>
<!-- Node9 -->
<g id="Node000009" class="node">
<title>Node9</title>
<g id="a_Node000009"><a xlink:href="memory_8c.html#a3617f7116e3cc000b7ebf38ad3bae48f" target="_top" xlink:title=" ">
<polygon fill="white" stroke="#666666" points="243,-56 127,-56 127,-37 243,-37 243,-56"/>
<text text-anchor="middle" x="185" y="-44" font-family="Helvetica,sans-Serif" font-size="10.00">load_lakitu_tlut_x64</text>
</a>
</g>
</g>
<!-- Node1&#45;&gt;Node9 -->
<g id="edge8_Node000001_Node000009" class="edge">
<title>Node1&#45;&gt;Node9</title>
<g id="a_edge8_Node000001_Node000009"><a xlink:title=" ">
<path fill="none" stroke="#63b8ff" d="M91.14,-58.66C99.26,-57.59 107.89,-56.46 116.49,-55.34"/>
<polygon fill="#63b8ff" stroke="#63b8ff" points="117.09,-58.79 126.55,-54.02 116.18,-51.85 117.09,-58.79"/>
</a>
</g>
</g>
<!-- Node11 -->
<g id="Node000011" class="node">
<title>Node11</title>
<g id="a_Node000011"><a xlink:href="code__80086E70_8c.html#a670bd4aa157a5ec3dd6a4f4335a13ea4" target="_top" xlink:title=" ">
<polygon fill="white" stroke="#666666" points="238.5,-19 131.5,-19 131.5,0 238.5,0 238.5,-19"/>
<text text-anchor="middle" x="185" y="-7" font-family="Helvetica,sans-Serif" font-size="10.00">set_obj_origin_pos</text>
</a>
</g>
</g>
<!-- Node1&#45;&gt;Node11 -->
<g id="edge10_Node000001_Node000011" class="edge">
<title>Node1&#45;&gt;Node11</title>
<g id="a_edge10_Node000001_Node000011"><a xlink:title=" ">
<path fill="none" stroke="#63b8ff" d="M65.4,-55C81.54,-47.08 105.48,-35.81 127,-27.5 131.72,-25.68 136.71,-23.9 141.69,-22.21"/>
<polygon fill="#63b8ff" stroke="#63b8ff" points="142.79,-25.53 151.2,-19.09 140.61,-18.88 142.79,-25.53"/>
</a>
</g>
</g>
<!-- Node3 -->
<g id="Node000003" class="node">
<title>Node3</title>
<g id="a_Node000003"><a xlink:href="update__objects_8c.html#a8bfc5f5c7034d61b534e14f325b6e399" target="_top" xlink:title=" ">
<polygon fill="white" stroke="#666666" points="390,-167 286,-167 286,-148 390,-148 390,-167"/>
<text text-anchor="middle" x="338" y="-155" font-family="Helvetica,sans-Serif" font-size="10.00">object_next_state</text>
</a>
</g>
</g>
<!-- Node2&#45;&gt;Node3 -->
<g id="edge2_Node000002_Node000003" class="edge">
<title>Node2&#45;&gt;Node3</title>
<g id="a_edge2_Node000002_Node000003"><a xlink:title=" ">
<path fill="none" stroke="#63b8ff" d="M224.89,-130.03C244.19,-134.76 267.7,-140.52 288.19,-145.54"/>
<polygon fill="#63b8ff" stroke="#63b8ff" points="287.44,-148.96 297.98,-147.94 289.1,-142.16 287.44,-148.96"/>
</a>
</g>
</g>
<!-- Node6 -->
<g id="Node000006" class="node">
<title>Node6</title>
<g id="a_Node000006"><a xlink:href="code__80086E70_8c.html#ad745ffd7b6ecd50c57336a484979b258" target="_top" xlink:title=" ">
<polygon fill="white" stroke="#666666" points="393,-130 283,-130 283,-111 393,-111 393,-130"/>
<text text-anchor="middle" x="338" y="-118" font-family="Helvetica,sans-Serif" font-size="10.00">set_obj_orientation</text>
</a>
</g>
</g>
<!-- Node2&#45;&gt;Node6 -->
<g id="edge5_Node000002_Node000006" class="edge">
<title>Node2&#45;&gt;Node6</title>
<g id="a_edge5_Node000002_Node000006"><a xlink:title=" ">
<path fill="none" stroke="#63b8ff" d="M231.3,-120.5C244.38,-120.5 258.89,-120.5 272.88,-120.5"/>
<polygon fill="#63b8ff" stroke="#63b8ff" points="272.94,-124 282.94,-120.5 272.94,-117 272.94,-124"/>
</a>
</g>
</g>
<!-- Node7 -->
<g id="Node000007" class="node">
<title>Node7</title>
<g id="a_Node000007"><a xlink:href="code__80086E70_8c.html#ac9171108201f29dda52974a4a5c68a04" target="_top" xlink:title=" ">
<polygon fill="white" stroke="#666666" points="397,-93 279,-93 279,-74 397,-74 397,-93"/>
<text text-anchor="middle" x="338" y="-81" font-family="Helvetica,sans-Serif" font-size="10.00">set_obj_origin_offset</text>
</a>
</g>
</g>
<!-- Node2&#45;&gt;Node7 -->
<g id="edge6_Node000002_Node000007" class="edge">
<title>Node2&#45;&gt;Node7</title>
<g id="a_edge6_Node000002_Node000007"><a xlink:title=" ">
<path fill="none" stroke="#63b8ff" d="M224.89,-110.97C244.19,-106.24 267.7,-100.48 288.19,-95.46"/>
<polygon fill="#63b8ff" stroke="#63b8ff" points="289.1,-98.84 297.98,-93.06 287.44,-92.04 289.1,-98.84"/>
</a>
</g>
</g>
<!-- Node4 -->
<g id="Node000004" class="node">
<title>Node4</title>
<g id="a_Node000004"><a xlink:href="update__objects_8c.html#a3953241e15c6372ac8944ba842148a9a" target="_top" xlink:title=" ">
<polygon fill="white" stroke="#666666" points="546.5,-185 447.5,-185 447.5,-166 546.5,-166 546.5,-185"/>
<text text-anchor="middle" x="497" y="-173" font-family="Helvetica,sans-Serif" font-size="10.00">clear_object_flag</text>
</a>
</g>
</g>
<!-- Node3&#45;&gt;Node4 -->
<g id="edge3_Node000003_Node000004" class="edge">
<title>Node3&#45;&gt;Node4</title>
<g id="a_edge3_Node000003_Node000004"><a xlink:title=" ">
<path fill="none" stroke="#63b8ff" d="M390.41,-163.39C405.45,-165.12 422,-167.02 437.44,-168.79"/>
<polygon fill="#63b8ff" stroke="#63b8ff" points="437.08,-172.27 447.41,-169.93 437.87,-165.31 437.08,-172.27"/>
</a>
</g>
</g>
<!-- Node5 -->
<g id="Node000005" class="node">
<title>Node5</title>
<g id="a_Node000005"><a xlink:href="update__objects_8c.html#af20e3f3c403dd4fbea56e358997e515a" target="_top" xlink:title=" ">
<polygon fill="white" stroke="#666666" points="561,-148 433,-148 433,-129 561,-129 561,-148"/>
<text text-anchor="middle" x="497" y="-136" font-family="Helvetica,sans-Serif" font-size="10.00">set_object_timer_state</text>
</a>
</g>
</g>
<!-- Node3&#45;&gt;Node5 -->
<g id="edge4_Node000003_Node000005" class="edge">
<title>Node3&#45;&gt;Node5</title>
<g id="a_edge4_Node000003_Node000005"><a xlink:title=" ">
<path fill="none" stroke="#63b8ff" d="M390.41,-151.28C400.82,-150.02 411.95,-148.67 422.94,-147.34"/>
<polygon fill="#63b8ff" stroke="#63b8ff" points="423.45,-150.8 432.96,-146.13 422.61,-143.86 423.45,-150.8"/>
</a>
</g>
</g>
<!-- Node10 -->
<g id="Node000010" class="node">
<title>Node10</title>
<g id="a_Node000010"><a xlink:href="string_8c.html#ad7f1ae1bbb49dece44bda378982a704d" target="_top" xlink:title=" ">
<polygon fill="white" stroke="#666666" points="367.5,-56 308.5,-56 308.5,-37 367.5,-37 367.5,-56"/>
<text text-anchor="middle" x="338" y="-44" font-family="Helvetica,sans-Serif" font-size="10.00">memcpy</text>
</a>
</g>
</g>
<!-- Node9&#45;&gt;Node10 -->
<g id="edge9_Node000009_Node000010" class="edge">
<title>Node9&#45;&gt;Node10</title>
<g id="a_edge9_Node000009_Node000010"><a xlink:title=" ">
<path fill="none" stroke="#63b8ff" d="M243.09,-46.5C261.31,-46.5 281.06,-46.5 297.72,-46.5"/>
<polygon fill="#63b8ff" stroke="#63b8ff" points="298.18,-50 308.18,-46.5 298.18,-43 298.18,-50"/>
</a>
</g>
</g>
</g>
</svg>
