<?xml version="1.0" encoding="UTF-8" standalone="no"?>
<!DOCTYPE svg PUBLIC "-//W3C//DTD SVG 1.1//EN"
 "http://www.w3.org/Graphics/SVG/1.1/DTD/svg11.dtd">
<!-- Generated by graphviz version 2.43.0 (0)
 -->
<!-- Title: func_8007D6A8 Pages: 1 -->
<svg width="625pt" height="101pt"
 viewBox="0.00 0.00 625.00 101.00" xmlns="http://www.w3.org/2000/svg" xmlns:xlink="http://www.w3.org/1999/xlink">
<g id="graph0" class="graph" transform="scale(1 1) rotate(0) translate(4 97)">
<title>func_8007D6A8</title>
<!-- Node1 -->
<g id="Node000001" class="node">
<title>Node1</title>
<g id="a_Node000001"><a xlink:title=" ">
<polygon fill="#999999" stroke="#666666" points="93,-37 0,-37 0,-18 93,-18 93,-37"/>
<text text-anchor="middle" x="46.5" y="-25" font-family="Helvetica,sans-Serif" font-size="10.00">func_8007D6A8</text>
</a>
</g>
</g>
<!-- Node2 -->
<g id="Node000002" class="node">
<title>Node2</title>
<g id="a_Node000002"><a xlink:href="update__objects_8c.html#aa2925a041b2174084d6f3cc16d2cc705" target="_top" xlink:title=" ">
<polygon fill="white" stroke="#666666" points="221,-56 129,-56 129,-37 221,-37 221,-56"/>
<text text-anchor="middle" x="175" y="-44" font-family="Helvetica,sans-Serif" font-size="10.00">func_8007D360</text>
</a>
</g>
</g>
<!-- Node1&#45;&gt;Node2 -->
<g id="edge1_Node000001_Node000002" class="edge">
<title>Node1&#45;&gt;Node2</title>
<g id="a_edge1_Node000001_Node000002"><a xlink:title=" ">
<path fill="none" stroke="#63b8ff" d="M93.17,-34.36C101.51,-35.61 110.3,-36.93 118.88,-38.22"/>
<polygon fill="#63b8ff" stroke="#63b8ff" points="118.41,-41.69 128.82,-39.71 119.45,-34.77 118.41,-41.69"/>
</a>
</g>
</g>
<!-- Node9 -->
<g id="Node000009" class="node">
<title>Node9</title>
<g id="a_Node000009"><a xlink:href="update__objects_8c.html#afe64f2394ee0deab6370b77609500bda" target="_top" xlink:title=" ">
<polygon fill="white" stroke="#666666" points="220,-19 130,-19 130,0 220,0 220,-19"/>
<text text-anchor="middle" x="175" y="-7" font-family="Helvetica,sans-Serif" font-size="10.00">set_object_flag</text>
</a>
</g>
</g>
<!-- Node1&#45;&gt;Node9 -->
<g id="edge8_Node000001_Node000009" class="edge">
<title>Node1&#45;&gt;Node9</title>
<g id="a_edge8_Node000001_Node000009"><a xlink:title=" ">
<path fill="none" stroke="#63b8ff" d="M93.17,-21C101.71,-19.79 110.73,-18.5 119.51,-17.25"/>
<polygon fill="#63b8ff" stroke="#63b8ff" points="120.26,-20.68 129.67,-15.81 119.27,-13.75 120.26,-20.68"/>
</a>
</g>
</g>
<!-- Node3 -->
<g id="Node000003" class="node">
<title>Node3</title>
<g id="a_Node000003"><a xlink:href="math__util__2_8c.html#a13e56d0f66165ef2bfef5122f7de73b6" target="_top" xlink:title=" ">
<polygon fill="white" stroke="#666666" points="386,-93 257,-93 257,-74 386,-74 386,-93"/>
<text text-anchor="middle" x="321.5" y="-81" font-family="Helvetica,sans-Serif" font-size="10.00">get_angle_between_xy</text>
</a>
</g>
</g>
<!-- Node2&#45;&gt;Node3 -->
<g id="edge2_Node000002_Node000003" class="edge">
<title>Node2&#45;&gt;Node3</title>
<g id="a_edge2_Node000002_Node000003"><a xlink:title=" ">
<path fill="none" stroke="#63b8ff" d="M213.21,-56.03C231.51,-60.71 253.77,-66.41 273.26,-71.4"/>
<polygon fill="#63b8ff" stroke="#63b8ff" points="272.61,-74.85 283.16,-73.94 274.34,-68.07 272.61,-74.85"/>
</a>
</g>
</g>
<!-- Node6 -->
<g id="Node000006" class="node">
<title>Node6</title>
<g id="a_Node000006"><a xlink:href="math__util_8c.html#a151b63b8adf9af7e4054b3b84bd226dc" target="_top" xlink:title=" ">
<polygon fill="white" stroke="#666666" points="357.5,-56 285.5,-56 285.5,-37 357.5,-37 357.5,-56"/>
<text text-anchor="middle" x="321.5" y="-44" font-family="Helvetica,sans-Serif" font-size="10.00">random_int</text>
</a>
</g>
</g>
<!-- Node2&#45;&gt;Node6 -->
<g id="edge5_Node000002_Node000006" class="edge">
<title>Node2&#45;&gt;Node6</title>
<g id="a_edge5_Node000002_Node000006"><a xlink:title=" ">
<path fill="none" stroke="#63b8ff" d="M221.32,-46.5C238.46,-46.5 257.95,-46.5 275.1,-46.5"/>
<polygon fill="#63b8ff" stroke="#63b8ff" points="275.42,-50 285.42,-46.5 275.42,-43 275.42,-50"/>
</a>
</g>
</g>
<!-- Node8 -->
<g id="Node000008" class="node">
<title>Node8</title>
<g id="a_Node000008"><a xlink:href="code__80086E70_8c.html#ac9171108201f29dda52974a4a5c68a04" target="_top" xlink:title=" ">
<polygon fill="white" stroke="#666666" points="380.5,-19 262.5,-19 262.5,0 380.5,0 380.5,-19"/>
<text text-anchor="middle" x="321.5" y="-7" font-family="Helvetica,sans-Serif" font-size="10.00">set_obj_origin_offset</text>
</a>
</g>
</g>
<!-- Node2&#45;&gt;Node8 -->
<g id="edge7_Node000002_Node000008" class="edge">
<title>Node2&#45;&gt;Node8</title>
<g id="a_edge7_Node000002_Node000008"><a xlink:title=" ">
<path fill="none" stroke="#63b8ff" d="M213.21,-36.97C231.51,-32.29 253.77,-26.59 273.26,-21.6"/>
<polygon fill="#63b8ff" stroke="#63b8ff" points="274.34,-24.93 283.16,-19.06 272.61,-18.15 274.34,-24.93"/>
</a>
</g>
</g>
<!-- Node4 -->
<g id="Node000004" class="node">
<title>Node4</title>
<g id="a_Node000004"><a xlink:href="math__util_8c.html#aaa39a297477f56051975259f4bddd829" target="_top" xlink:title=" ">
<polygon fill="white" stroke="#666666" points="485.5,-93 435.5,-93 435.5,-74 485.5,-74 485.5,-93"/>
<text text-anchor="middle" x="460.5" y="-81" font-family="Helvetica,sans-Serif" font-size="10.00">atan2s</text>
</a>
</g>
</g>
<!-- Node3&#45;&gt;Node4 -->
<g id="edge3_Node000003_Node000004" class="edge">
<title>Node3&#45;&gt;Node4</title>
<g id="a_edge3_Node000003_Node000004"><a xlink:title=" ">
<path fill="none" stroke="#63b8ff" d="M386.19,-83.5C399.56,-83.5 413.18,-83.5 425,-83.5"/>
<polygon fill="#63b8ff" stroke="#63b8ff" points="425.28,-87 435.28,-83.5 425.28,-80 425.28,-87"/>
</a>
</g>
</g>
<!-- Node5 -->
<g id="Node000005" class="node">
<title>Node5</title>
<g id="a_Node000005"><a xlink:href="math__util_8c.html#a0273b0ea0783a06996c28669a7438ed9" target="_top" xlink:title=" ">
<polygon fill="white" stroke="#666666" points="617,-93 535,-93 535,-74 617,-74 617,-93"/>
<text text-anchor="middle" x="576" y="-81" font-family="Helvetica,sans-Serif" font-size="10.00">atan2_lookup</text>
</a>
</g>
</g>
<!-- Node4&#45;&gt;Node5 -->
<g id="edge4_Node000004_Node000005" class="edge">
<title>Node4&#45;&gt;Node5</title>
<g id="a_edge4_Node000004_Node000005"><a xlink:title=" ">
<path fill="none" stroke="#63b8ff" d="M485.57,-83.5C496.98,-83.5 511.06,-83.5 524.64,-83.5"/>
<polygon fill="#63b8ff" stroke="#63b8ff" points="524.88,-87 534.88,-83.5 524.88,-80 524.88,-87"/>
</a>
</g>
</g>
<!-- Node7 -->
<g id="Node000007" class="node">
<title>Node7</title>
<g id="a_Node000007"><a xlink:href="math__util_8c.html#a062850863585005ad1d0a75d9ff70693" target="_top" xlink:title=" ">
<polygon fill="white" stroke="#666666" points="499,-56 422,-56 422,-37 499,-37 499,-56"/>
<text text-anchor="middle" x="460.5" y="-44" font-family="Helvetica,sans-Serif" font-size="10.00">random_u16</text>
</a>
</g>
</g>
<!-- Node6&#45;&gt;Node7 -->
<g id="edge6_Node000006_Node000007" class="edge">
<title>Node6&#45;&gt;Node7</title>
<g id="a_edge6_Node000006_Node000007"><a xlink:title=" ">
<path fill="none" stroke="#63b8ff" d="M357.78,-46.5C374.22,-46.5 394.02,-46.5 411.77,-46.5"/>
<polygon fill="#63b8ff" stroke="#63b8ff" points="411.94,-50 421.94,-46.5 411.94,-43 411.94,-50"/>
</a>
</g>
</g>
</g>
</svg>
