<?xml version="1.0" encoding="UTF-8" standalone="no"?>
<!DOCTYPE svg PUBLIC "-//W3C//DTD SVG 1.1//EN"
 "http://www.w3.org/Graphics/SVG/1.1/DTD/svg11.dtd">
<!-- Generated by graphviz version 2.43.0 (0)
 -->
<!-- Title: init_leaf_particle Pages: 1 -->
<svg width="748pt" height="373pt"
 viewBox="0.00 0.00 748.00 373.00" xmlns="http://www.w3.org/2000/svg" xmlns:xlink="http://www.w3.org/1999/xlink">
<g id="graph0" class="graph" transform="scale(1 1) rotate(0) translate(4 369)">
<title>init_leaf_particle</title>
<!-- Node1 -->
<g id="Node000001" class="node">
<title>Node1</title>
<g id="a_Node000001"><a xlink:title=" ">
<polygon fill="#999999" stroke="#666666" points="98,-212 0,-212 0,-193 98,-193 98,-212"/>
<text text-anchor="middle" x="49" y="-200" font-family="Helvetica,sans-Serif" font-size="10.00">init_leaf_particle</text>
</a>
</g>
</g>
<!-- Node2 -->
<g id="Node000002" class="node">
<title>Node2</title>
<g id="a_Node000002"><a xlink:href="update__objects_8c.html#a6e56a43ec98e81db05f2410893efa437" target="_top" xlink:title=" ">
<polygon fill="white" stroke="#666666" points="265,-298 137,-298 137,-279 265,-279 265,-298"/>
<text text-anchor="middle" x="201" y="-286" font-family="Helvetica,sans-Serif" font-size="10.00">add_unused_obj_index</text>
</a>
</g>
</g>
<!-- Node1&#45;&gt;Node2 -->
<g id="edge1_Node000001_Node000002" class="edge">
<title>Node1&#45;&gt;Node2</title>
<g id="a_edge1_Node000001_Node000002"><a xlink:title=" ">
<path fill="none" stroke="#63b8ff" d="M66.63,-212.03C92.76,-227.01 143.63,-256.18 174.43,-273.84"/>
<polygon fill="#63b8ff" stroke="#63b8ff" points="172.88,-276.99 183.3,-278.93 176.37,-270.91 172.88,-276.99"/>
</a>
</g>
</g>
<!-- Node4 -->
<g id="Node000004" class="node">
<title>Node4</title>
<g id="a_Node000004"><a xlink:href="update__objects_8c.html#ace0a45ab5c99bef15402117191fd2242" target="_top" xlink:title=" ">
<polygon fill="white" stroke="#666666" points="268,-194 134,-194 134,-175 268,-175 268,-194"/>
<text text-anchor="middle" x="201" y="-182" font-family="Helvetica,sans-Serif" font-size="10.00">init_object_leaf_particle</text>
</a>
</g>
</g>
<!-- Node1&#45;&gt;Node4 -->
<g id="edge3_Node000001_Node000004" class="edge">
<title>Node1&#45;&gt;Node4</title>
<g id="a_edge3_Node000001_Node000004"><a xlink:title=" ">
<path fill="none" stroke="#63b8ff" d="M98.29,-196.71C106.41,-195.73 115.02,-194.7 123.65,-193.66"/>
<polygon fill="#63b8ff" stroke="#63b8ff" points="124.25,-197.11 133.76,-192.45 123.42,-190.16 124.25,-197.11"/>
</a>
</g>
</g>
<!-- Node3 -->
<g id="Node000003" class="node">
<title>Node3</title>
<g id="a_Node000003"><a xlink:href="update__objects_8c.html#a92856990c4ca5fba1b8e0c61ca832c27" target="_top" xlink:title=" ">
<polygon fill="white" stroke="#666666" points="447.5,-365 319.5,-365 319.5,-346 447.5,-346 447.5,-365"/>
<text text-anchor="middle" x="383.5" y="-353" font-family="Helvetica,sans-Serif" font-size="10.00">find_unused_obj_index</text>
</a>
</g>
</g>
<!-- Node2&#45;&gt;Node3 -->
<g id="edge2_Node000002_Node000003" class="edge">
<title>Node2&#45;&gt;Node3</title>
<g id="a_edge2_Node000002_Node000003"><a xlink:title=" ">
<path fill="none" stroke="#63b8ff" d="M218.83,-298.02C238.65,-308.9 272.85,-326.6 304,-337.5 310.06,-339.62 316.48,-341.56 322.92,-343.32"/>
<polygon fill="#63b8ff" stroke="#63b8ff" points="322.47,-346.81 333.03,-345.92 324.22,-340.04 322.47,-346.81"/>
</a>
</g>
</g>
<!-- Node5 -->
<g id="Node000005" class="node">
<title>Node5</title>
<g id="a_Node000005"><a xlink:href="update__objects_8c.html#abdebd086b5ff081f83af3d9205f39cd3" target="_top" xlink:title=" ">
<polygon fill="white" stroke="#666666" points="417.5,-328 349.5,-328 349.5,-309 417.5,-309 417.5,-328"/>
<text text-anchor="middle" x="383.5" y="-316" font-family="Helvetica,sans-Serif" font-size="10.00">init_object</text>
</a>
</g>
</g>
<!-- Node4&#45;&gt;Node5 -->
<g id="edge4_Node000004_Node000005" class="edge">
<title>Node4&#45;&gt;Node5</title>
<g id="a_edge4_Node000004_Node000005"><a xlink:title=" ">
<path fill="none" stroke="#63b8ff" d="M209.16,-194.06C228.18,-219.22 280.16,-286.29 304,-300.5 314.7,-306.88 327.45,-310.99 339.54,-313.65"/>
<polygon fill="#63b8ff" stroke="#63b8ff" points="338.99,-317.11 349.47,-315.56 340.31,-310.24 338.99,-317.11"/>
</a>
</g>
</g>
<!-- Node7 -->
<g id="Node000007" class="node">
<title>Node7</title>
<g id="a_Node000007"><a xlink:href="Game_8cpp.html#a2d7429dca77188f881bf1c340271ea90" target="_top" xlink:title=" ">
<polygon fill="white" stroke="#666666" points="429.5,-130 337.5,-130 337.5,-111 429.5,-111 429.5,-130"/>
<text text-anchor="middle" x="383.5" y="-118" font-family="Helvetica,sans-Serif" font-size="10.00">IsLuigiRaceway</text>
</a>
</g>
</g>
<!-- Node4&#45;&gt;Node7 -->
<g id="edge6_Node000004_Node000007" class="edge">
<title>Node4&#45;&gt;Node7</title>
<g id="a_edge6_Node000004_Node000007"><a xlink:title=" ">
<path fill="none" stroke="#63b8ff" d="M221.14,-174.82C241.34,-164.91 274.3,-149.56 304,-139.5 311.47,-136.97 319.45,-134.64 327.35,-132.53"/>
<polygon fill="#63b8ff" stroke="#63b8ff" points="328.45,-135.86 337.27,-129.99 326.72,-129.08 328.45,-135.86"/>
</a>
</g>
</g>
<!-- Node10 -->
<g id="Node000010" class="node">
<title>Node10</title>
<g id="a_Node000010"><a xlink:href="Game_8cpp.html#a591286b8b2219a8889cda4cc5d3b8c79" target="_top" xlink:title=" ">
<polygon fill="white" stroke="#666666" points="432,-93 335,-93 335,-74 432,-74 432,-93"/>
<text text-anchor="middle" x="383.5" y="-81" font-family="Helvetica,sans-Serif" font-size="10.00">IsMarioRaceway</text>
</a>
</g>
</g>
<!-- Node4&#45;&gt;Node10 -->
<g id="edge9_Node000004_Node000010" class="edge">
<title>Node4&#45;&gt;Node10</title>
<g id="a_edge9_Node000004_Node000010"><a xlink:title=" ">
<path fill="none" stroke="#63b8ff" d="M210.81,-174.87C227.32,-157.42 264.82,-120.63 304,-101.5 310.56,-98.29 317.72,-95.65 324.95,-93.46"/>
<polygon fill="#63b8ff" stroke="#63b8ff" points="326.09,-96.78 334.81,-90.77 324.24,-90.03 326.09,-96.78"/>
</a>
</g>
</g>
<!-- Node11 -->
<g id="Node000011" class="node">
<title>Node11</title>
<g id="a_Node000011"><a xlink:href="Game_8cpp.html#afb0bb7b7bc2b816a7a9fbedcc6c41ab7" target="_top" xlink:title=" ">
<polygon fill="white" stroke="#666666" points="432,-56 335,-56 335,-37 432,-37 432,-56"/>
<text text-anchor="middle" x="383.5" y="-44" font-family="Helvetica,sans-Serif" font-size="10.00">IsRoyalRaceway</text>
</a>
</g>
</g>
<!-- Node4&#45;&gt;Node11 -->
<g id="edge12_Node000004_Node000011" class="edge">
<title>Node4&#45;&gt;Node11</title>
<g id="a_edge12_Node000004_Node000011"><a xlink:title=" ">
<path fill="none" stroke="#63b8ff" d="M207.21,-174.9C220.22,-151.89 256.56,-93.32 304,-64.5 310.48,-60.56 317.74,-57.49 325.15,-55.08"/>
<polygon fill="#63b8ff" stroke="#63b8ff" points="326.28,-58.4 334.94,-52.29 324.36,-51.67 326.28,-58.4"/>
</a>
</g>
</g>
<!-- Node12 -->
<g id="Node000012" class="node">
<title>Node12</title>
<g id="a_Node000012"><a xlink:href="Game_8cpp.html#ab05bb065469940f40a5023c58a8f9e7f" target="_top" xlink:title=" ">
<polygon fill="white" stroke="#666666" points="423.5,-19 343.5,-19 343.5,0 423.5,0 423.5,-19"/>
<text text-anchor="middle" x="383.5" y="-7" font-family="Helvetica,sans-Serif" font-size="10.00">IsYoshiValley</text>
</a>
</g>
</g>
<!-- Node4&#45;&gt;Node12 -->
<g id="edge15_Node000004_Node000012" class="edge">
<title>Node4&#45;&gt;Node12</title>
<g id="a_edge15_Node000004_Node000012"><a xlink:title=" ">
<path fill="none" stroke="#63b8ff" d="M205.28,-174.9C215.26,-147.2 248.05,-66.6 304,-27.5 312.68,-21.43 323.11,-17.38 333.48,-14.68"/>
<polygon fill="#63b8ff" stroke="#63b8ff" points="334.34,-18.07 343.34,-12.48 332.82,-11.24 334.34,-18.07"/>
</a>
</g>
</g>
<!-- Node13 -->
<g id="Node000013" class="node">
<title>Node13</title>
<g id="a_Node000013"><a xlink:href="code__80086E70_8c.html#a96d06a13f28b2621752f09858946c5f1" target="_top" xlink:title=" ">
<polygon fill="white" stroke="#666666" points="463,-178.5 304,-178.5 304,-148.5 463,-148.5 463,-178.5"/>
<text text-anchor="start" x="312" y="-166.5" font-family="Helvetica,sans-Serif" font-size="10.00">object_origin_pos_randomize</text>
<text text-anchor="middle" x="383.5" y="-155.5" font-family="Helvetica,sans-Serif" font-size="10.00">_around_xyz</text>
</a>
</g>
</g>
<!-- Node4&#45;&gt;Node13 -->
<g id="edge18_Node000004_Node000013" class="edge">
<title>Node4&#45;&gt;Node13</title>
<g id="a_edge18_Node000004_Node000013"><a xlink:title=" ">
<path fill="none" stroke="#63b8ff" d="M268.19,-176.8C276.5,-175.83 285.11,-174.83 293.71,-173.83"/>
<polygon fill="#63b8ff" stroke="#63b8ff" points="294.24,-177.29 303.77,-172.66 293.43,-170.34 294.24,-177.29"/>
</a>
</g>
</g>
<!-- Node14 -->
<g id="Node000014" class="node">
<title>Node14</title>
<g id="a_Node000014"><a xlink:href="math__util_8c.html#a151b63b8adf9af7e4054b3b84bd226dc" target="_top" xlink:title=" ">
<polygon fill="white" stroke="#666666" points="599,-194 527,-194 527,-175 599,-175 599,-194"/>
<text text-anchor="middle" x="563" y="-182" font-family="Helvetica,sans-Serif" font-size="10.00">random_int</text>
</a>
</g>
</g>
<!-- Node4&#45;&gt;Node14 -->
<g id="edge21_Node000004_Node000014" class="edge">
<title>Node4&#45;&gt;Node14</title>
<g id="a_edge21_Node000004_Node000014"><a xlink:title=" ">
<path fill="none" stroke="#63b8ff" d="M268.11,-186.73C280.05,-187.05 292.4,-187.33 304,-187.5 374.66,-188.54 392.34,-188.57 463,-187.5 480.51,-187.23 499.76,-186.71 516.59,-186.16"/>
<polygon fill="#63b8ff" stroke="#63b8ff" points="516.85,-189.66 526.73,-185.83 516.61,-182.66 516.85,-189.66"/>
</a>
</g>
</g>
<!-- Node16 -->
<g id="Node000016" class="node">
<title>Node16</title>
<g id="a_Node000016"><a xlink:href="code__80086E70_8c.html#af0e1570f9594db6104157d24386b80cb" target="_top" xlink:title=" ">
<polygon fill="white" stroke="#666666" points="449.5,-291 317.5,-291 317.5,-272 449.5,-272 449.5,-291"/>
<text text-anchor="middle" x="383.5" y="-279" font-family="Helvetica,sans-Serif" font-size="10.00">set_obj_direction_angle</text>
</a>
</g>
</g>
<!-- Node4&#45;&gt;Node16 -->
<g id="edge22_Node000004_Node000016" class="edge">
<title>Node4&#45;&gt;Node16</title>
<g id="a_edge22_Node000004_Node000016"><a xlink:title=" ">
<path fill="none" stroke="#63b8ff" d="M211.44,-194.18C228.38,-210.96 265.74,-245.38 304,-263.5 308.28,-265.53 312.79,-267.33 317.42,-268.94"/>
<polygon fill="#63b8ff" stroke="#63b8ff" points="316.41,-272.29 327,-271.96 318.52,-265.61 316.41,-272.29"/>
</a>
</g>
</g>
<!-- Node17 -->
<g id="Node000017" class="node">
<title>Node17</title>
<g id="a_Node000017"><a xlink:href="code__80086E70_8c.html#ad745ffd7b6ecd50c57336a484979b258" target="_top" xlink:title=" ">
<polygon fill="white" stroke="#666666" points="438.5,-254 328.5,-254 328.5,-235 438.5,-235 438.5,-254"/>
<text text-anchor="middle" x="383.5" y="-242" font-family="Helvetica,sans-Serif" font-size="10.00">set_obj_orientation</text>
</a>
</g>
</g>
<!-- Node4&#45;&gt;Node17 -->
<g id="edge23_Node000004_Node000017" class="edge">
<title>Node4&#45;&gt;Node17</title>
<g id="a_edge23_Node000004_Node000017"><a xlink:title=" ">
<path fill="none" stroke="#63b8ff" d="M228.31,-194.13C248.85,-201.57 278.14,-211.99 304,-220.5 315.84,-224.4 328.76,-228.44 340.64,-232.06"/>
<polygon fill="#63b8ff" stroke="#63b8ff" points="339.73,-235.45 350.32,-235 341.77,-228.75 339.73,-235.45"/>
</a>
</g>
</g>
<!-- Node6 -->
<g id="Node000006" class="node">
<title>Node6</title>
<g id="a_Node000006"><a xlink:href="update__objects_8c.html#af20e3f3c403dd4fbea56e358997e515a" target="_top" xlink:title=" ">
<polygon fill="white" stroke="#666666" points="627,-328 499,-328 499,-309 627,-309 627,-328"/>
<text text-anchor="middle" x="563" y="-316" font-family="Helvetica,sans-Serif" font-size="10.00">set_object_timer_state</text>
</a>
</g>
</g>
<!-- Node5&#45;&gt;Node6 -->
<g id="edge5_Node000005_Node000006" class="edge">
<title>Node5&#45;&gt;Node6</title>
<g id="a_edge5_Node000005_Node000006"><a xlink:title=" ">
<path fill="none" stroke="#63b8ff" d="M417.89,-318.5C437.92,-318.5 464.23,-318.5 488.87,-318.5"/>
<polygon fill="#63b8ff" stroke="#63b8ff" points="488.94,-322 498.94,-318.5 488.94,-315 488.94,-322"/>
</a>
</g>
</g>
<!-- Node8 -->
<g id="Node000008" class="node">
<title>Node8</title>
<g id="a_Node000008"><a xlink:href="classWorld.html#a1a4dacc6aea0b846df998be0afc239f7" target="_top" xlink:title=" ">
<polygon fill="white" stroke="#666666" points="609.5,-56 516.5,-56 516.5,-37 609.5,-37 609.5,-56"/>
<text text-anchor="middle" x="563" y="-44" font-family="Helvetica,sans-Serif" font-size="10.00">World::GetTrack</text>
</a>
</g>
</g>
<!-- Node7&#45;&gt;Node8 -->
<g id="edge7_Node000007_Node000008" class="edge">
<title>Node7&#45;&gt;Node8</title>
<g id="a_edge7_Node000007_Node000008"><a xlink:title=" ">
<path fill="none" stroke="#63b8ff" d="M429.74,-114.1C441.08,-111.29 452.89,-107.27 463,-101.5 482.93,-90.13 479.31,-76.27 499,-64.5 501.83,-62.81 504.83,-61.27 507.92,-59.87"/>
<polygon fill="#63b8ff" stroke="#63b8ff" points="509.42,-63.04 517.4,-56.07 506.81,-56.54 509.42,-63.04"/>
</a>
</g>
</g>
<!-- Node9 -->
<g id="Node000009" class="node">
<title>Node9</title>
<g id="a_Node000009"><a xlink:href="Game_8cpp.html#ae2fa844b3cb1021ecbc357f8ed2ad8cc" target="_top" xlink:title=" ">
<polygon fill="white" stroke="#666666" points="594,-93 532,-93 532,-74 594,-74 594,-93"/>
<text text-anchor="middle" x="563" y="-81" font-family="Helvetica,sans-Serif" font-size="10.00">GetWorld</text>
</a>
</g>
</g>
<!-- Node7&#45;&gt;Node9 -->
<g id="edge8_Node000007_Node000009" class="edge">
<title>Node7&#45;&gt;Node9</title>
<g id="a_edge8_Node000007_Node000009"><a xlink:title=" ">
<path fill="none" stroke="#63b8ff" d="M429.75,-111.07C458.17,-105.14 494.49,-97.57 521.87,-91.86"/>
<polygon fill="#63b8ff" stroke="#63b8ff" points="522.82,-95.24 531.9,-89.78 521.39,-88.39 522.82,-95.24"/>
</a>
</g>
</g>
<!-- Node10&#45;&gt;Node8 -->
<g id="edge10_Node000010_Node000008" class="edge">
<title>Node10&#45;&gt;Node8</title>
<g id="a_edge10_Node000010_Node000008"><a xlink:title=" ">
<path fill="none" stroke="#63b8ff" d="M430.21,-73.97C453.5,-69.12 482.01,-63.17 506.55,-58.06"/>
<polygon fill="#63b8ff" stroke="#63b8ff" points="507.37,-61.46 516.44,-56 505.94,-54.61 507.37,-61.46"/>
</a>
</g>
</g>
<!-- Node10&#45;&gt;Node9 -->
<g id="edge11_Node000010_Node000009" class="edge">
<title>Node10&#45;&gt;Node9</title>
<g id="a_edge11_Node000010_Node000009"><a xlink:title=" ">
<path fill="none" stroke="#63b8ff" d="M432.07,-83.5C460.08,-83.5 495.13,-83.5 521.76,-83.5"/>
<polygon fill="#63b8ff" stroke="#63b8ff" points="521.88,-87 531.88,-83.5 521.88,-80 521.88,-87"/>
</a>
</g>
</g>
<!-- Node11&#45;&gt;Node8 -->
<g id="edge13_Node000011_Node000008" class="edge">
<title>Node11&#45;&gt;Node8</title>
<g id="a_edge13_Node000011_Node000008"><a xlink:title=" ">
<path fill="none" stroke="#63b8ff" d="M432.07,-46.5C454.88,-46.5 482.35,-46.5 506.15,-46.5"/>
<polygon fill="#63b8ff" stroke="#63b8ff" points="506.45,-50 516.45,-46.5 506.45,-43 506.45,-50"/>
</a>
</g>
</g>
<!-- Node11&#45;&gt;Node9 -->
<g id="edge14_Node000011_Node000009" class="edge">
<title>Node11&#45;&gt;Node9</title>
<g id="a_edge14_Node000011_Node000009"><a xlink:title=" ">
<path fill="none" stroke="#63b8ff" d="M430.21,-56.03C458.54,-61.93 494.58,-69.45 521.81,-75.12"/>
<polygon fill="#63b8ff" stroke="#63b8ff" points="521.28,-78.59 531.78,-77.2 522.71,-71.73 521.28,-78.59"/>
</a>
</g>
</g>
<!-- Node12&#45;&gt;Node8 -->
<g id="edge16_Node000012_Node000008" class="edge">
<title>Node12&#45;&gt;Node8</title>
<g id="a_edge16_Node000012_Node000008"><a xlink:title=" ">
<path fill="none" stroke="#63b8ff" d="M423.89,-17.71C448.16,-22.77 479.66,-29.34 506.44,-34.92"/>
<polygon fill="#63b8ff" stroke="#63b8ff" points="505.94,-38.39 516.45,-37 507.37,-31.54 505.94,-38.39"/>
</a>
</g>
</g>
<!-- Node12&#45;&gt;Node9 -->
<g id="edge17_Node000012_Node000009" class="edge">
<title>Node12&#45;&gt;Node9</title>
<g id="a_edge17_Node000012_Node000009"><a xlink:title=" ">
<path fill="none" stroke="#63b8ff" d="M423.65,-13.93C436.75,-16.57 451.06,-20.78 463,-27.5 483,-38.75 479.39,-52.59 499,-64.5 506.08,-68.8 514.2,-72.19 522.21,-74.84"/>
<polygon fill="#63b8ff" stroke="#63b8ff" points="521.26,-78.21 531.85,-77.71 523.26,-71.5 521.26,-78.21"/>
</a>
</g>
</g>
<!-- Node13&#45;&gt;Node14 -->
<g id="edge19_Node000013_Node000014" class="edge">
<title>Node13&#45;&gt;Node14</title>
<g id="a_edge19_Node000013_Node000014"><a xlink:title=" ">
<path fill="none" stroke="#63b8ff" d="M463.13,-172.8C481.39,-174.96 500.22,-177.19 516.49,-179.12"/>
<polygon fill="#63b8ff" stroke="#63b8ff" points="516.44,-182.63 526.78,-180.33 517.26,-175.68 516.44,-182.63"/>
</a>
</g>
</g>
<!-- Node15 -->
<g id="Node000015" class="node">
<title>Node15</title>
<g id="a_Node000015"><a xlink:href="math__util_8c.html#a062850863585005ad1d0a75d9ff70693" target="_top" xlink:title=" ">
<polygon fill="white" stroke="#666666" points="740,-194 663,-194 663,-175 740,-175 740,-194"/>
<text text-anchor="middle" x="701.5" y="-182" font-family="Helvetica,sans-Serif" font-size="10.00">random_u16</text>
</a>
</g>
</g>
<!-- Node14&#45;&gt;Node15 -->
<g id="edge20_Node000014_Node000015" class="edge">
<title>Node14&#45;&gt;Node15</title>
<g id="a_edge20_Node000014_Node000015"><a xlink:title=" ">
<path fill="none" stroke="#63b8ff" d="M599.15,-184.5C615.4,-184.5 634.94,-184.5 652.51,-184.5"/>
<polygon fill="#63b8ff" stroke="#63b8ff" points="652.59,-188 662.59,-184.5 652.59,-181 652.59,-188"/>
</a>
</g>
</g>
</g>
</svg>
