<?xml version="1.0" encoding="UTF-8" standalone="no"?>
<!DOCTYPE svg PUBLIC "-//W3C//DTD SVG 1.1//EN"
 "http://www.w3.org/Graphics/SVG/1.1/DTD/svg11.dtd">
<!-- Generated by graphviz version 2.43.0 (0)
 -->
<!-- Title: func_8007D714 Pages: 1 -->
<svg width="824pt" height="138pt"
 viewBox="0.00 0.00 824.00 138.00" xmlns="http://www.w3.org/2000/svg" xmlns:xlink="http://www.w3.org/1999/xlink">
<g id="graph0" class="graph" transform="scale(1 1) rotate(0) translate(4 134)">
<title>func_8007D714</title>
<!-- Node1 -->
<g id="Node000001" class="node">
<title>Node1</title>
<g id="a_Node000001"><a xlink:title=" ">
<polygon fill="#999999" stroke="#666666" points="92,-83 0,-83 0,-64 92,-64 92,-83"/>
<text text-anchor="middle" x="46" y="-71" font-family="Helvetica,sans-Serif" font-size="10.00">func_8007D714</text>
</a>
</g>
</g>
<!-- Node2 -->
<g id="Node000002" class="node">
<title>Node2</title>
<g id="a_Node000002"><a xlink:href="update__objects_8c.html#a6e56a43ec98e81db05f2410893efa437" target="_top" xlink:title=" ">
<polygon fill="white" stroke="#666666" points="256,-125 128,-125 128,-106 256,-106 256,-125"/>
<text text-anchor="middle" x="192" y="-113" font-family="Helvetica,sans-Serif" font-size="10.00">add_unused_obj_index</text>
</a>
</g>
</g>
<!-- Node1&#45;&gt;Node2 -->
<g id="edge1_Node000001_Node000002" class="edge">
<title>Node1&#45;&gt;Node2</title>
<g id="a_edge1_Node000001_Node000002"><a xlink:title=" ">
<path fill="none" stroke="#63b8ff" d="M79.68,-83.03C99.97,-88.95 126.27,-96.62 148.22,-103.02"/>
<polygon fill="#63b8ff" stroke="#63b8ff" points="147.37,-106.42 157.96,-105.86 149.34,-99.7 147.37,-106.42"/>
</a>
</g>
</g>
<!-- Node4 -->
<g id="Node000004" class="node">
<title>Node4</title>
<g id="a_Node000004"><a xlink:href="update__objects_8c.html#ad44c53b9400e14a1222584ef55fa41db" target="_top" xlink:title=" ">
<polygon fill="white" stroke="#666666" points="238.5,-83 145.5,-83 145.5,-64 238.5,-64 238.5,-83"/>
<text text-anchor="middle" x="192" y="-71" font-family="Helvetica,sans-Serif" font-size="10.00">func_8007D6A8</text>
</a>
</g>
</g>
<!-- Node1&#45;&gt;Node4 -->
<g id="edge3_Node000001_Node000004" class="edge">
<title>Node1&#45;&gt;Node4</title>
<g id="a_edge3_Node000001_Node000004"><a xlink:title=" ">
<path fill="none" stroke="#63b8ff" d="M92.17,-73.5C105.84,-73.5 121.02,-73.5 135.3,-73.5"/>
<polygon fill="#63b8ff" stroke="#63b8ff" points="135.5,-77 145.5,-73.5 135.5,-70 135.5,-77"/>
</a>
</g>
</g>
<!-- Node13 -->
<g id="Node000013" class="node">
<title>Node13</title>
<g id="a_Node000013"><a xlink:href="update__objects_8c.html#abdebd086b5ff081f83af3d9205f39cd3" target="_top" xlink:title=" ">
<polygon fill="white" stroke="#666666" points="226,-37 158,-37 158,-18 226,-18 226,-37"/>
<text text-anchor="middle" x="192" y="-25" font-family="Helvetica,sans-Serif" font-size="10.00">init_object</text>
</a>
</g>
</g>
<!-- Node1&#45;&gt;Node13 -->
<g id="edge12_Node000001_Node000013" class="edge">
<title>Node1&#45;&gt;Node13</title>
<g id="a_edge12_Node000001_Node000013"><a xlink:title=" ">
<path fill="none" stroke="#63b8ff" d="M76.84,-63.97C98.46,-57.06 127.92,-47.65 151.5,-40.12"/>
<polygon fill="#63b8ff" stroke="#63b8ff" points="152.74,-43.4 161.2,-37.02 150.61,-36.73 152.74,-43.4"/>
</a>
</g>
</g>
<!-- Node3 -->
<g id="Node000003" class="node">
<title>Node3</title>
<g id="a_Node000003"><a xlink:href="update__objects_8c.html#a92856990c4ca5fba1b8e0c61ca832c27" target="_top" xlink:title=" ">
<polygon fill="white" stroke="#666666" points="420,-130 292,-130 292,-111 420,-111 420,-130"/>
<text text-anchor="middle" x="356" y="-118" font-family="Helvetica,sans-Serif" font-size="10.00">find_unused_obj_index</text>
</a>
</g>
</g>
<!-- Node2&#45;&gt;Node3 -->
<g id="edge2_Node000002_Node000003" class="edge">
<title>Node2&#45;&gt;Node3</title>
<g id="a_edge2_Node000002_Node000003"><a xlink:title=" ">
<path fill="none" stroke="#63b8ff" d="M256.1,-117.45C264.53,-117.71 273.23,-117.98 281.81,-118.24"/>
<polygon fill="#63b8ff" stroke="#63b8ff" points="281.71,-121.74 291.81,-118.55 281.92,-114.74 281.71,-121.74"/>
</a>
</g>
</g>
<!-- Node5 -->
<g id="Node000005" class="node">
<title>Node5</title>
<g id="a_Node000005"><a xlink:href="update__objects_8c.html#aa2925a041b2174084d6f3cc16d2cc705" target="_top" xlink:title=" ">
<polygon fill="white" stroke="#666666" points="402,-93 310,-93 310,-74 402,-74 402,-93"/>
<text text-anchor="middle" x="356" y="-81" font-family="Helvetica,sans-Serif" font-size="10.00">func_8007D360</text>
</a>
</g>
</g>
<!-- Node4&#45;&gt;Node5 -->
<g id="edge4_Node000004_Node000005" class="edge">
<title>Node4&#45;&gt;Node5</title>
<g id="a_edge4_Node000004_Node000005"><a xlink:title=" ">
<path fill="none" stroke="#63b8ff" d="M238.56,-76.31C257.52,-77.48 279.72,-78.85 299.62,-80.08"/>
<polygon fill="#63b8ff" stroke="#63b8ff" points="299.59,-83.59 309.78,-80.71 300.02,-76.6 299.59,-83.59"/>
</a>
</g>
</g>
<!-- Node12 -->
<g id="Node000012" class="node">
<title>Node12</title>
<g id="a_Node000012"><a xlink:href="update__objects_8c.html#afe64f2394ee0deab6370b77609500bda" target="_top" xlink:title=" ">
<polygon fill="white" stroke="#666666" points="401,-56 311,-56 311,-37 401,-37 401,-56"/>
<text text-anchor="middle" x="356" y="-44" font-family="Helvetica,sans-Serif" font-size="10.00">set_object_flag</text>
</a>
</g>
</g>
<!-- Node4&#45;&gt;Node12 -->
<g id="edge11_Node000004_Node000012" class="edge">
<title>Node4&#45;&gt;Node12</title>
<g id="a_edge11_Node000004_Node000012"><a xlink:title=" ">
<path fill="none" stroke="#63b8ff" d="M238.56,-65.91C257.93,-62.68 280.68,-58.89 300.9,-55.52"/>
<polygon fill="#63b8ff" stroke="#63b8ff" points="301.61,-58.95 310.9,-53.85 300.46,-52.04 301.61,-58.95"/>
</a>
</g>
</g>
<!-- Node6 -->
<g id="Node000006" class="node">
<title>Node6</title>
<g id="a_Node000006"><a xlink:href="math__util__2_8c.html#a13e56d0f66165ef2bfef5122f7de73b6" target="_top" xlink:title=" ">
<polygon fill="white" stroke="#666666" points="585,-130 456,-130 456,-111 585,-111 585,-130"/>
<text text-anchor="middle" x="520.5" y="-118" font-family="Helvetica,sans-Serif" font-size="10.00">get_angle_between_xy</text>
</a>
</g>
</g>
<!-- Node5&#45;&gt;Node6 -->
<g id="edge5_Node000005_Node000006" class="edge">
<title>Node5&#45;&gt;Node6</title>
<g id="a_edge5_Node000005_Node000006"><a xlink:title=" ">
<path fill="none" stroke="#63b8ff" d="M398.85,-93.03C419.81,-97.8 445.38,-103.62 467.58,-108.68"/>
<polygon fill="#63b8ff" stroke="#63b8ff" points="466.98,-112.13 477.51,-110.94 468.54,-105.31 466.98,-112.13"/>
</a>
</g>
</g>
<!-- Node9 -->
<g id="Node000009" class="node">
<title>Node9</title>
<g id="a_Node000009"><a xlink:href="math__util_8c.html#a151b63b8adf9af7e4054b3b84bd226dc" target="_top" xlink:title=" ">
<polygon fill="white" stroke="#666666" points="556.5,-93 484.5,-93 484.5,-74 556.5,-74 556.5,-93"/>
<text text-anchor="middle" x="520.5" y="-81" font-family="Helvetica,sans-Serif" font-size="10.00">random_int</text>
</a>
</g>
</g>
<!-- Node5&#45;&gt;Node9 -->
<g id="edge8_Node000005_Node000009" class="edge">
<title>Node5&#45;&gt;Node9</title>
<g id="a_edge8_Node000005_Node000009"><a xlink:title=" ">
<path fill="none" stroke="#63b8ff" d="M402.27,-83.5C424.64,-83.5 451.58,-83.5 473.99,-83.5"/>
<polygon fill="#63b8ff" stroke="#63b8ff" points="474.26,-87 484.26,-83.5 474.26,-80 474.26,-87"/>
</a>
</g>
</g>
<!-- Node11 -->
<g id="Node000011" class="node">
<title>Node11</title>
<g id="a_Node000011"><a xlink:href="code__80086E70_8c.html#ac9171108201f29dda52974a4a5c68a04" target="_top" xlink:title=" ">
<polygon fill="white" stroke="#666666" points="579.5,-56 461.5,-56 461.5,-37 579.5,-37 579.5,-56"/>
<text text-anchor="middle" x="520.5" y="-44" font-family="Helvetica,sans-Serif" font-size="10.00">set_obj_origin_offset</text>
</a>
</g>
</g>
<!-- Node5&#45;&gt;Node11 -->
<g id="edge10_Node000005_Node000011" class="edge">
<title>Node5&#45;&gt;Node11</title>
<g id="a_edge10_Node000005_Node000011"><a xlink:title=" ">
<path fill="none" stroke="#63b8ff" d="M398.85,-73.97C419.81,-69.2 445.38,-63.38 467.58,-58.32"/>
<polygon fill="#63b8ff" stroke="#63b8ff" points="468.54,-61.69 477.51,-56.06 466.98,-54.87 468.54,-61.69"/>
</a>
</g>
</g>
<!-- Node7 -->
<g id="Node000007" class="node">
<title>Node7</title>
<g id="a_Node000007"><a xlink:href="math__util_8c.html#aaa39a297477f56051975259f4bddd829" target="_top" xlink:title=" ">
<polygon fill="white" stroke="#666666" points="684.5,-130 634.5,-130 634.5,-111 684.5,-111 684.5,-130"/>
<text text-anchor="middle" x="659.5" y="-118" font-family="Helvetica,sans-Serif" font-size="10.00">atan2s</text>
</a>
</g>
</g>
<!-- Node6&#45;&gt;Node7 -->
<g id="edge6_Node000006_Node000007" class="edge">
<title>Node6&#45;&gt;Node7</title>
<g id="a_edge6_Node000006_Node000007"><a xlink:title=" ">
<path fill="none" stroke="#63b8ff" d="M585.19,-120.5C598.56,-120.5 612.18,-120.5 624,-120.5"/>
<polygon fill="#63b8ff" stroke="#63b8ff" points="624.28,-124 634.28,-120.5 624.28,-117 624.28,-124"/>
</a>
</g>
</g>
<!-- Node8 -->
<g id="Node000008" class="node">
<title>Node8</title>
<g id="a_Node000008"><a xlink:href="math__util_8c.html#a0273b0ea0783a06996c28669a7438ed9" target="_top" xlink:title=" ">
<polygon fill="white" stroke="#666666" points="816,-130 734,-130 734,-111 816,-111 816,-130"/>
<text text-anchor="middle" x="775" y="-118" font-family="Helvetica,sans-Serif" font-size="10.00">atan2_lookup</text>
</a>
</g>
</g>
<!-- Node7&#45;&gt;Node8 -->
<g id="edge7_Node000007_Node000008" class="edge">
<title>Node7&#45;&gt;Node8</title>
<g id="a_edge7_Node000007_Node000008"><a xlink:title=" ">
<path fill="none" stroke="#63b8ff" d="M684.57,-120.5C695.98,-120.5 710.06,-120.5 723.64,-120.5"/>
<polygon fill="#63b8ff" stroke="#63b8ff" points="723.88,-124 733.88,-120.5 723.88,-117 723.88,-124"/>
</a>
</g>
</g>
<!-- Node10 -->
<g id="Node000010" class="node">
<title>Node10</title>
<g id="a_Node000010"><a xlink:href="math__util_8c.html#a062850863585005ad1d0a75d9ff70693" target="_top" xlink:title=" ">
<polygon fill="white" stroke="#666666" points="698,-93 621,-93 621,-74 698,-74 698,-93"/>
<text text-anchor="middle" x="659.5" y="-81" font-family="Helvetica,sans-Serif" font-size="10.00">random_u16</text>
</a>
</g>
</g>
<!-- Node9&#45;&gt;Node10 -->
<g id="edge9_Node000009_Node000010" class="edge">
<title>Node9&#45;&gt;Node10</title>
<g id="a_edge9_Node000009_Node000010"><a xlink:title=" ">
<path fill="none" stroke="#63b8ff" d="M556.78,-83.5C573.22,-83.5 593.02,-83.5 610.77,-83.5"/>
<polygon fill="#63b8ff" stroke="#63b8ff" points="610.94,-87 620.94,-83.5 610.94,-80 610.94,-87"/>
</a>
</g>
</g>
<!-- Node14 -->
<g id="Node000014" class="node">
<title>Node14</title>
<g id="a_Node000014"><a xlink:href="update__objects_8c.html#af20e3f3c403dd4fbea56e358997e515a" target="_top" xlink:title=" ">
<polygon fill="white" stroke="#666666" points="420,-19 292,-19 292,0 420,0 420,-19"/>
<text text-anchor="middle" x="356" y="-7" font-family="Helvetica,sans-Serif" font-size="10.00">set_object_timer_state</text>
</a>
</g>
</g>
<!-- Node13&#45;&gt;Node14 -->
<g id="edge13_Node000013_Node000014" class="edge">
<title>Node13&#45;&gt;Node14</title>
<g id="a_edge13_Node000013_Node000014"><a xlink:title=" ">
<path fill="none" stroke="#63b8ff" d="M226.17,-23.81C242.25,-22.03 262.25,-19.81 281.66,-17.65"/>
<polygon fill="#63b8ff" stroke="#63b8ff" points="282.18,-21.11 291.73,-16.53 281.41,-14.16 282.18,-21.11"/>
</a>
</g>
</g>
</g>
</svg>
