<?xml version="1.0" encoding="UTF-8" standalone="no"?>
<!DOCTYPE svg PUBLIC "-//W3C//DTD SVG 1.1//EN"
 "http://www.w3.org/Graphics/SVG/1.1/DTD/svg11.dtd">
<!-- Generated by graphviz version 2.43.0 (0)
 -->
<!-- Title: init_smoke_particle Pages: 1 -->
<svg width="631pt" height="175pt"
 viewBox="0.00 0.00 631.00 175.00" xmlns="http://www.w3.org/2000/svg" xmlns:xlink="http://www.w3.org/1999/xlink">
<g id="graph0" class="graph" transform="scale(1 1) rotate(0) translate(4 171)">
<title>init_smoke_particle</title>
<!-- Node1 -->
<g id="Node000001" class="node">
<title>Node1</title>
<g id="a_Node000001"><a xlink:title=" ">
<polygon fill="#999999" stroke="#666666" points="112,-111 0,-111 0,-92 112,-92 112,-111"/>
<text text-anchor="middle" x="56" y="-99" font-family="Helvetica,sans-Serif" font-size="10.00">init_smoke_particle</text>
</a>
</g>
</g>
<!-- Node2 -->
<g id="Node000002" class="node">
<title>Node2</title>
<g id="a_Node000002"><a xlink:href="update__objects_8c.html#a6e56a43ec98e81db05f2410893efa437" target="_top" xlink:title=" ">
<polygon fill="white" stroke="#666666" points="285.5,-148 157.5,-148 157.5,-129 285.5,-129 285.5,-148"/>
<text text-anchor="middle" x="221.5" y="-136" font-family="Helvetica,sans-Serif" font-size="10.00">add_unused_obj_index</text>
</a>
</g>
</g>
<!-- Node1&#45;&gt;Node2 -->
<g id="edge1_Node000001_Node000002" class="edge">
<title>Node1&#45;&gt;Node2</title>
<g id="a_edge1_Node000001_Node000002"><a xlink:title=" ">
<path fill="none" stroke="#63b8ff" d="M99.11,-111.03C120.19,-115.8 145.92,-121.62 168.26,-126.68"/>
<polygon fill="#63b8ff" stroke="#63b8ff" points="167.73,-130.15 178.25,-128.94 169.27,-123.32 167.73,-130.15"/>
</a>
</g>
</g>
<!-- Node4 -->
<g id="Node000004" class="node">
<title>Node4</title>
<g id="a_Node000004"><a xlink:href="update__objects_8c.html#a4a4a2a335155eaf7733d37c0f80fa728" target="_top" xlink:title=" ">
<polygon fill="white" stroke="#666666" points="295,-93 148,-93 148,-74 295,-74 295,-93"/>
<text text-anchor="middle" x="221.5" y="-81" font-family="Helvetica,sans-Serif" font-size="10.00">init_object_smoke_particle</text>
</a>
</g>
</g>
<!-- Node1&#45;&gt;Node4 -->
<g id="edge3_Node000001_Node000004" class="edge">
<title>Node1&#45;&gt;Node4</title>
<g id="a_edge3_Node000001_Node000004"><a xlink:title=" ">
<path fill="none" stroke="#63b8ff" d="M112.35,-95.41C120.54,-94.5 129.13,-93.56 137.73,-92.61"/>
<polygon fill="#63b8ff" stroke="#63b8ff" points="138.26,-96.08 147.81,-91.5 137.49,-89.12 138.26,-96.08"/>
</a>
</g>
</g>
<!-- Node3 -->
<g id="Node000003" class="node">
<title>Node3</title>
<g id="a_Node000003"><a xlink:href="update__objects_8c.html#a92856990c4ca5fba1b8e0c61ca832c27" target="_top" xlink:title=" ">
<polygon fill="white" stroke="#666666" points="459,-167 331,-167 331,-148 459,-148 459,-167"/>
<text text-anchor="middle" x="395" y="-155" font-family="Helvetica,sans-Serif" font-size="10.00">find_unused_obj_index</text>
</a>
</g>
</g>
<!-- Node2&#45;&gt;Node3 -->
<g id="edge2_Node000002_Node000003" class="edge">
<title>Node2&#45;&gt;Node3</title>
<g id="a_edge2_Node000002_Node000003"><a xlink:title=" ">
<path fill="none" stroke="#63b8ff" d="M285.87,-145.52C297.24,-146.78 309.17,-148.1 320.78,-149.39"/>
<polygon fill="#63b8ff" stroke="#63b8ff" points="320.56,-152.89 330.89,-150.51 321.33,-145.93 320.56,-152.89"/>
</a>
</g>
</g>
<!-- Node5 -->
<g id="Node000005" class="node">
<title>Node5</title>
<g id="a_Node000005"><a xlink:href="update__objects_8c.html#abdebd086b5ff081f83af3d9205f39cd3" target="_top" xlink:title=" ">
<polygon fill="white" stroke="#666666" points="429,-130 361,-130 361,-111 429,-111 429,-130"/>
<text text-anchor="middle" x="395" y="-118" font-family="Helvetica,sans-Serif" font-size="10.00">init_object</text>
</a>
</g>
</g>
<!-- Node4&#45;&gt;Node5 -->
<g id="edge4_Node000004_Node000005" class="edge">
<title>Node4&#45;&gt;Node5</title>
<g id="a_edge4_Node000004_Node000005"><a xlink:title=" ">
<path fill="none" stroke="#63b8ff" d="M266.67,-93.03C292.6,-98.62 325.23,-105.66 350.97,-111.22"/>
<polygon fill="#63b8ff" stroke="#63b8ff" points="350.31,-114.65 360.82,-113.34 351.78,-107.81 350.31,-114.65"/>
</a>
</g>
</g>
<!-- Node7 -->
<g id="Node000007" class="node">
<title>Node7</title>
<g id="a_Node000007"><a xlink:href="code__80086E70_8c.html#ad745ffd7b6ecd50c57336a484979b258" target="_top" xlink:title=" ">
<polygon fill="white" stroke="#666666" points="450,-93 340,-93 340,-74 450,-74 450,-93"/>
<text text-anchor="middle" x="395" y="-81" font-family="Helvetica,sans-Serif" font-size="10.00">set_obj_orientation</text>
</a>
</g>
</g>
<!-- Node4&#45;&gt;Node7 -->
<g id="edge6_Node000004_Node000007" class="edge">
<title>Node4&#45;&gt;Node7</title>
<g id="a_edge6_Node000004_Node000007"><a xlink:title=" ">
<path fill="none" stroke="#63b8ff" d="M295.23,-83.5C306.69,-83.5 318.48,-83.5 329.73,-83.5"/>
<polygon fill="#63b8ff" stroke="#63b8ff" points="329.89,-87 339.89,-83.5 329.89,-80 329.89,-87"/>
</a>
</g>
</g>
<!-- Node8 -->
<g id="Node000008" class="node">
<title>Node8</title>
<g id="a_Node000008"><a xlink:href="code__80086E70_8c.html#ac9171108201f29dda52974a4a5c68a04" target="_top" xlink:title=" ">
<polygon fill="white" stroke="#666666" points="454,-56 336,-56 336,-37 454,-37 454,-56"/>
<text text-anchor="middle" x="395" y="-44" font-family="Helvetica,sans-Serif" font-size="10.00">set_obj_origin_offset</text>
</a>
</g>
</g>
<!-- Node4&#45;&gt;Node8 -->
<g id="edge7_Node000004_Node000008" class="edge">
<title>Node4&#45;&gt;Node8</title>
<g id="a_edge7_Node000004_Node000008"><a xlink:title=" ">
<path fill="none" stroke="#63b8ff" d="M266.67,-73.97C288.98,-69.16 316.26,-63.27 339.83,-58.19"/>
<polygon fill="#63b8ff" stroke="#63b8ff" points="340.65,-61.59 349.69,-56.06 339.17,-54.75 340.65,-61.59"/>
</a>
</g>
</g>
<!-- Node9 -->
<g id="Node000009" class="node">
<title>Node9</title>
<g id="a_Node000009"><a xlink:href="code__80086E70_8c.html#a670bd4aa157a5ec3dd6a4f4335a13ea4" target="_top" xlink:title=" ">
<polygon fill="white" stroke="#666666" points="448.5,-19 341.5,-19 341.5,0 448.5,0 448.5,-19"/>
<text text-anchor="middle" x="395" y="-7" font-family="Helvetica,sans-Serif" font-size="10.00">set_obj_origin_pos</text>
</a>
</g>
</g>
<!-- Node4&#45;&gt;Node9 -->
<g id="edge8_Node000004_Node000009" class="edge">
<title>Node4&#45;&gt;Node9</title>
<g id="a_edge8_Node000004_Node000009"><a xlink:title=" ">
<path fill="none" stroke="#63b8ff" d="M238.99,-73.98C259.89,-62.19 297.28,-42.01 331,-28.5 336.57,-26.27 342.51,-24.15 348.43,-22.2"/>
<polygon fill="#63b8ff" stroke="#63b8ff" points="349.83,-25.43 358.3,-19.07 347.71,-18.75 349.83,-25.43"/>
</a>
</g>
</g>
<!-- Node6 -->
<g id="Node000006" class="node">
<title>Node6</title>
<g id="a_Node000006"><a xlink:href="update__objects_8c.html#af20e3f3c403dd4fbea56e358997e515a" target="_top" xlink:title=" ">
<polygon fill="white" stroke="#666666" points="623,-130 495,-130 495,-111 623,-111 623,-130"/>
<text text-anchor="middle" x="559" y="-118" font-family="Helvetica,sans-Serif" font-size="10.00">set_object_timer_state</text>
</a>
</g>
</g>
<!-- Node5&#45;&gt;Node6 -->
<g id="edge5_Node000005_Node000006" class="edge">
<title>Node5&#45;&gt;Node6</title>
<g id="a_edge5_Node000005_Node000006"><a xlink:title=" ">
<path fill="none" stroke="#63b8ff" d="M429.17,-120.5C445.25,-120.5 465.25,-120.5 484.66,-120.5"/>
<polygon fill="#63b8ff" stroke="#63b8ff" points="484.73,-124 494.73,-120.5 484.73,-117 484.73,-124"/>
</a>
</g>
</g>
</g>
</svg>
