<?xml version="1.0" encoding="UTF-8" standalone="no"?>
<!DOCTYPE svg PUBLIC "-//W3C//DTD SVG 1.1//EN"
 "http://www.w3.org/Graphics/SVG/1.1/DTD/svg11.dtd">
<!-- Generated by graphviz version 2.43.0 (0)
 -->
<!-- Title: func_8007E4C4 Pages: 1 -->
<svg width="1158pt" height="569pt"
 viewBox="0.00 0.00 1158.00 569.00" xmlns="http://www.w3.org/2000/svg" xmlns:xlink="http://www.w3.org/1999/xlink">
<g id="graph0" class="graph" transform="scale(1 1) rotate(0) translate(4 565)">
<title>func_8007E4C4</title>
<!-- Node1 -->
<g id="Node000001" class="node">
<title>Node1</title>
<g id="a_Node000001"><a xlink:title=" ">
<polygon fill="#999999" stroke="#666666" points="92,-114 0,-114 0,-95 92,-95 92,-114"/>
<text text-anchor="middle" x="46" y="-102" font-family="Helvetica,sans-Serif" font-size="10.00">func_8007E4C4</text>
</a>
</g>
</g>
<!-- Node2 -->
<g id="Node000002" class="node">
<title>Node2</title>
<g id="a_Node000002"><a xlink:href="update__objects_8c.html#a6c7938339fa5406ffe336278a92aa7ad" target="_top" xlink:title=" ">
<polygon fill="white" stroke="#666666" points="373,-394 282,-394 282,-375 373,-375 373,-394"/>
<text text-anchor="middle" x="327.5" y="-382" font-family="Helvetica,sans-Serif" font-size="10.00">func_8007E1F4</text>
</a>
</g>
</g>
<!-- Node1&#45;&gt;Node2 -->
<g id="edge1_Node000001_Node000002" class="edge">
<title>Node1&#45;&gt;Node2</title>
<g id="a_edge1_Node000001_Node000002"><a xlink:title=" ">
<path fill="none" stroke="#63b8ff" d="M56.62,-114.14C97.53,-155.12 257.28,-315.16 309.72,-367.69"/>
<polygon fill="#63b8ff" stroke="#63b8ff" points="307.38,-370.3 316.92,-374.9 312.33,-365.35 307.38,-370.3"/>
</a>
</g>
</g>
<!-- Node29 -->
<g id="Node000029" class="node">
<title>Node29</title>
<g id="a_Node000029"><a xlink:href="update__objects_8c.html#a7cccb4f6d5faf49ab0e338bab2e9f535" target="_top" xlink:title=" ">
<polygon fill="white" stroke="#666666" points="220,-95 128,-95 128,-76 220,-76 220,-95"/>
<text text-anchor="middle" x="174" y="-83" font-family="Helvetica,sans-Serif" font-size="10.00">func_8007E3EC</text>
</a>
</g>
</g>
<!-- Node1&#45;&gt;Node29 -->
<g id="edge29_Node000001_Node000029" class="edge">
<title>Node1&#45;&gt;Node29</title>
<g id="a_edge29_Node000001_Node000029"><a xlink:title=" ">
<path fill="none" stroke="#63b8ff" d="M92.13,-97.69C100.46,-96.44 109.23,-95.12 117.81,-93.82"/>
<polygon fill="#63b8ff" stroke="#63b8ff" points="118.39,-97.27 127.76,-92.32 117.35,-90.35 118.39,-97.27"/>
</a>
</g>
</g>
<!-- Node3 -->
<g id="Node000003" class="node">
<title>Node3</title>
<g id="a_Node000003"><a xlink:href="code__80086E70_8c.html#a4e29ffbd761ff49235e00cbcbc8e4d60" target="_top" xlink:title=" ">
<polygon fill="white" stroke="#666666" points="561.5,-290.5 436.5,-290.5 436.5,-260.5 561.5,-260.5 561.5,-290.5"/>
<text text-anchor="start" x="444.5" y="-278.5" font-family="Helvetica,sans-Serif" font-size="10.00">are_players_in_course</text>
<text text-anchor="middle" x="499" y="-267.5" font-family="Helvetica,sans-Serif" font-size="10.00">_section</text>
</a>
</g>
</g>
<!-- Node2&#45;&gt;Node3 -->
<g id="edge2_Node000002_Node000003" class="edge">
<title>Node2&#45;&gt;Node3</title>
<g id="a_edge2_Node000002_Node000003"><a xlink:title=" ">
<path fill="none" stroke="#63b8ff" d="M338.3,-374.91C356.21,-357.81 395.97,-321.79 435,-299.5 437.85,-297.88 440.82,-296.32 443.87,-294.83"/>
<polygon fill="#63b8ff" stroke="#63b8ff" points="445.5,-297.94 453.15,-290.61 442.6,-291.57 445.5,-297.94"/>
</a>
</g>
</g>
<!-- Node4 -->
<g id="Node000004" class="node">
<title>Node4</title>
<g id="a_Node000004"><a xlink:href="update__objects_8c.html#a2c88cc32dff07c6af5fe74d00b9fa279" target="_top" xlink:title=" ">
<polygon fill="white" stroke="#666666" points="545,-561 453,-561 453,-542 545,-542 545,-561"/>
<text text-anchor="middle" x="499" y="-549" font-family="Helvetica,sans-Serif" font-size="10.00">func_800722A4</text>
</a>
</g>
</g>
<!-- Node2&#45;&gt;Node4 -->
<g id="edge3_Node000002_Node000004" class="edge">
<title>Node2&#45;&gt;Node4</title>
<g id="a_edge3_Node000002_Node000004"><a xlink:title=" ">
<path fill="none" stroke="#63b8ff" d="M332.63,-394.23C344.43,-420.84 380.95,-495.38 435,-533.5 437.7,-535.4 440.59,-537.1 443.6,-538.63"/>
<polygon fill="#63b8ff" stroke="#63b8ff" points="442.35,-541.9 452.91,-542.68 445.14,-535.48 442.35,-541.9"/>
</a>
</g>
</g>
<!-- Node5 -->
<g id="Node000005" class="node">
<title>Node5</title>
<g id="a_Node000005"><a xlink:href="update__objects_8c.html#aaece45bd6baf5aaf797c872a6e105604" target="_top" xlink:title=" ">
<polygon fill="white" stroke="#666666" points="545,-524 453,-524 453,-505 545,-505 545,-524"/>
<text text-anchor="middle" x="499" y="-512" font-family="Helvetica,sans-Serif" font-size="10.00">func_800722CC</text>
</a>
</g>
</g>
<!-- Node2&#45;&gt;Node5 -->
<g id="edge4_Node000002_Node000005" class="edge">
<title>Node2&#45;&gt;Node5</title>
<g id="a_edge4_Node000002_Node000005"><a xlink:title=" ">
<path fill="none" stroke="#63b8ff" d="M334.97,-394.24C349.91,-415.98 389.09,-468.71 435,-496.5 437.82,-498.21 440.81,-499.76 443.9,-501.17"/>
<polygon fill="#63b8ff" stroke="#63b8ff" points="442.78,-504.49 453.36,-504.99 445.4,-498 442.78,-504.49"/>
</a>
</g>
</g>
<!-- Node6 -->
<g id="Node000006" class="node">
<title>Node6</title>
<g id="a_Node000006"><a xlink:href="update__objects_8c.html#ab7e91b1ebcbec57dfed6e185a2f67580" target="_top" xlink:title=" ">
<polygon fill="white" stroke="#666666" points="544.5,-450 453.5,-450 453.5,-431 544.5,-431 544.5,-450"/>
<text text-anchor="middle" x="499" y="-438" font-family="Helvetica,sans-Serif" font-size="10.00">func_80072354</text>
</a>
</g>
</g>
<!-- Node2&#45;&gt;Node6 -->
<g id="edge5_Node000002_Node000006" class="edge">
<title>Node2&#45;&gt;Node6</title>
<g id="a_edge5_Node000002_Node000006"><a xlink:title=" ">
<path fill="none" stroke="#63b8ff" d="M353.74,-394.02C375.22,-402 406.96,-413.5 435,-422.5 440.97,-424.42 447.29,-426.34 453.53,-428.18"/>
<polygon fill="#63b8ff" stroke="#63b8ff" points="452.64,-431.57 463.22,-431 454.59,-424.85 452.64,-431.57"/>
</a>
</g>
</g>
<!-- Node7 -->
<g id="Node000007" class="node">
<title>Node7</title>
<g id="a_Node000007"><a xlink:href="update__objects_8c.html#a6433786e30fbe8c3dc83f83c9f2c35f9" target="_top" xlink:title=" ">
<polygon fill="white" stroke="#666666" points="545,-205 453,-205 453,-186 545,-186 545,-205"/>
<text text-anchor="middle" x="499" y="-193" font-family="Helvetica,sans-Serif" font-size="10.00">func_800726CC</text>
</a>
</g>
</g>
<!-- Node2&#45;&gt;Node7 -->
<g id="edge6_Node000002_Node000007" class="edge">
<title>Node2&#45;&gt;Node7</title>
<g id="a_edge6_Node000002_Node000007"><a xlink:title=" ">
<path fill="none" stroke="#63b8ff" d="M331.75,-374.62C341.94,-345.29 376.08,-257.93 435,-213.5 437.63,-211.51 440.48,-209.75 443.46,-208.17"/>
<polygon fill="#63b8ff" stroke="#63b8ff" points="445.01,-211.31 452.69,-204.02 442.13,-204.93 445.01,-211.31"/>
</a>
</g>
</g>
<!-- Node10 -->
<g id="Node000010" class="node">
<title>Node10</title>
<g id="a_Node000010"><a xlink:href="code__80086E70_8c.html#a6e45fa53e2d0e566e0275afa3bbbc1f9" target="_top" xlink:title=" ">
<polygon fill="white" stroke="#666666" points="546,-376 452,-376 452,-357 546,-357 546,-376"/>
<text text-anchor="middle" x="499" y="-364" font-family="Helvetica,sans-Serif" font-size="10.00">func_8008A6DC</text>
</a>
</g>
</g>
<!-- Node2&#45;&gt;Node10 -->
<g id="edge9_Node000002_Node000010" class="edge">
<title>Node2&#45;&gt;Node10</title>
<g id="a_edge9_Node000002_Node000010"><a xlink:title=" ">
<path fill="none" stroke="#63b8ff" d="M373.03,-379.77C394.13,-377.53 419.55,-374.83 441.94,-372.45"/>
<polygon fill="#63b8ff" stroke="#63b8ff" points="442.42,-375.92 451.99,-371.39 441.68,-368.96 442.42,-375.92"/>
</a>
</g>
</g>
<!-- Node17 -->
<g id="Node000017" class="node">
<title>Node17</title>
<g id="a_Node000017"><a xlink:href="external_8c.html#a903d1c248a30cd68262a6833b9c0b112" target="_top" xlink:title=" ">
<polygon fill="white" stroke="#666666" points="545.5,-487 452.5,-487 452.5,-468 545.5,-468 545.5,-487"/>
<text text-anchor="middle" x="499" y="-475" font-family="Helvetica,sans-Serif" font-size="10.00">func_800C9D80</text>
</a>
</g>
</g>
<!-- Node2&#45;&gt;Node17 -->
<g id="edge17_Node000002_Node000017" class="edge">
<title>Node2&#45;&gt;Node17</title>
<g id="a_edge17_Node000002_Node000017"><a xlink:title=" ">
<path fill="none" stroke="#63b8ff" d="M339.52,-394.19C358.03,-409.99 397.05,-441.36 435,-459.5 438.87,-461.35 442.96,-463.04 447.13,-464.59"/>
<polygon fill="#63b8ff" stroke="#63b8ff" points="446.34,-468.02 456.93,-467.93 448.59,-461.39 446.34,-468.02"/>
</a>
</g>
</g>
<!-- Node20 -->
<g id="Node000020" class="node">
<title>Node20</title>
<g id="a_Node000020"><a xlink:href="external_8c.html#a73831bcbe259500206651a0b4702be9f" target="_top" xlink:title=" ">
<polygon fill="white" stroke="#666666" points="545,-413 453,-413 453,-394 545,-394 545,-413"/>
<text text-anchor="middle" x="499" y="-401" font-family="Helvetica,sans-Serif" font-size="10.00">func_800C9EF4</text>
</a>
</g>
</g>
<!-- Node2&#45;&gt;Node20 -->
<g id="edge20_Node000002_Node000020" class="edge">
<title>Node2&#45;&gt;Node20</title>
<g id="a_edge20_Node000002_Node000020"><a xlink:title=" ">
<path fill="none" stroke="#63b8ff" d="M373.03,-389.49C394.38,-391.89 420.17,-394.78 442.75,-397.31"/>
<polygon fill="#63b8ff" stroke="#63b8ff" points="442.55,-400.81 452.88,-398.44 443.33,-393.85 442.55,-400.81"/>
</a>
</g>
</g>
<!-- Node28 -->
<g id="Node000028" class="node">
<title>Node28</title>
<g id="a_Node000028"><a xlink:href="update__objects_8c.html#ae85ab923e54f707801592c71f2a847cd" target="_top" xlink:title=" ">
<polygon fill="white" stroke="#666666" points="551,-338.5 447,-338.5 447,-308.5 551,-308.5 551,-338.5"/>
<text text-anchor="start" x="455" y="-326.5" font-family="Helvetica,sans-Serif" font-size="10.00">is_obj_flag_status</text>
<text text-anchor="middle" x="499" y="-315.5" font-family="Helvetica,sans-Serif" font-size="10.00">_active</text>
</a>
</g>
</g>
<!-- Node2&#45;&gt;Node28 -->
<g id="edge28_Node000002_Node000028" class="edge">
<title>Node2&#45;&gt;Node28</title>
<g id="a_edge28_Node000002_Node000028"><a xlink:title=" ">
<path fill="none" stroke="#63b8ff" d="M354.98,-374.97C379.43,-366.17 416.42,-352.86 446.66,-341.98"/>
<polygon fill="#63b8ff" stroke="#63b8ff" points="447.99,-345.22 456.21,-338.54 445.62,-338.63 447.99,-345.22"/>
</a>
</g>
</g>
<!-- Node8 -->
<g id="Node000008" class="node">
<title>Node8</title>
<g id="a_Node000008"><a xlink:href="update__objects_8c.html#a3953241e15c6372ac8944ba842148a9a" target="_top" xlink:title=" ">
<polygon fill="white" stroke="#666666" points="712.5,-205 613.5,-205 613.5,-186 712.5,-186 712.5,-205"/>
<text text-anchor="middle" x="663" y="-193" font-family="Helvetica,sans-Serif" font-size="10.00">clear_object_flag</text>
</a>
</g>
</g>
<!-- Node7&#45;&gt;Node8 -->
<g id="edge7_Node000007_Node000008" class="edge">
<title>Node7&#45;&gt;Node8</title>
<g id="a_edge7_Node000007_Node000008"><a xlink:title=" ">
<path fill="none" stroke="#63b8ff" d="M545.13,-195.5C563.14,-195.5 584.12,-195.5 603.3,-195.5"/>
<polygon fill="#63b8ff" stroke="#63b8ff" points="603.43,-199 613.43,-195.5 603.43,-192 603.43,-199"/>
</a>
</g>
</g>
<!-- Node9 -->
<g id="Node000009" class="node">
<title>Node9</title>
<g id="a_Node000009"><a xlink:href="update__objects_8c.html#af20e3f3c403dd4fbea56e358997e515a" target="_top" xlink:title=" ">
<polygon fill="white" stroke="#666666" points="727,-94 599,-94 599,-75 727,-75 727,-94"/>
<text text-anchor="middle" x="663" y="-82" font-family="Helvetica,sans-Serif" font-size="10.00">set_object_timer_state</text>
</a>
</g>
</g>
<!-- Node7&#45;&gt;Node9 -->
<g id="edge8_Node000007_Node000009" class="edge">
<title>Node7&#45;&gt;Node9</title>
<g id="a_edge8_Node000007_Node000009"><a xlink:title=" ">
<path fill="none" stroke="#63b8ff" d="M542.28,-185.99C549.47,-183.48 556.65,-180.36 563,-176.5 582.61,-164.59 582.34,-155.28 599,-139.5 613.18,-126.07 629.85,-111.56 642.49,-100.82"/>
<polygon fill="#63b8ff" stroke="#63b8ff" points="644.76,-103.49 650.14,-94.36 640.24,-98.14 644.76,-103.49"/>
</a>
</g>
</g>
<!-- Node10&#45;&gt;Node8 -->
<g id="edge10_Node000010_Node000008" class="edge">
<title>Node10&#45;&gt;Node8</title>
<g id="a_edge10_Node000010_Node000008"><a xlink:title=" ">
<path fill="none" stroke="#63b8ff" d="M546.17,-358.66C552.43,-355.96 558.31,-352.34 563,-347.5 605.94,-303.24 555.74,-257.45 599,-213.5 600.65,-211.82 602.45,-210.29 604.36,-208.91"/>
<polygon fill="#63b8ff" stroke="#63b8ff" points="606.45,-211.74 613.33,-203.69 602.93,-205.69 606.45,-211.74"/>
</a>
</g>
</g>
<!-- Node11 -->
<g id="Node000011" class="node">
<title>Node11</title>
<g id="a_Node000011"><a xlink:href="code__80086E70_8c.html#abe4dd4c208100b3bca1036d0a14074f2" target="_top" xlink:title=" ">
<polygon fill="white" stroke="#666666" points="720.5,-375.5 605.5,-375.5 605.5,-345.5 720.5,-345.5 720.5,-375.5"/>
<text text-anchor="start" x="613.5" y="-363.5" font-family="Helvetica,sans-Serif" font-size="10.00">is_object_visible_on</text>
<text text-anchor="middle" x="663" y="-352.5" font-family="Helvetica,sans-Serif" font-size="10.00">_camera</text>
</a>
</g>
</g>
<!-- Node10&#45;&gt;Node11 -->
<g id="edge11_Node000010_Node000011" class="edge">
<title>Node10&#45;&gt;Node11</title>
<g id="a_edge11_Node000010_Node000011"><a xlink:title=" ">
<path fill="none" stroke="#63b8ff" d="M546.42,-364.78C561.6,-364.22 578.77,-363.58 595.14,-362.98"/>
<polygon fill="#63b8ff" stroke="#63b8ff" points="595.35,-366.47 605.21,-362.6 595.09,-359.48 595.35,-366.47"/>
</a>
</g>
</g>
<!-- Node15 -->
<g id="Node000015" class="node">
<title>Node15</title>
<g id="a_Node000015"><a xlink:href="code__80086E70_8c.html#a212c7d92f5bac3eedbd693abaee4f7f2" target="_top" xlink:title="Returns if the object is between the distance_min and distance_max to the camera.">
<polygon fill="white" stroke="#666666" points="723,-327.5 603,-327.5 603,-297.5 723,-297.5 723,-327.5"/>
<text text-anchor="start" x="611" y="-315.5" font-family="Helvetica,sans-Serif" font-size="10.00">is_within_horizontal</text>
<text text-anchor="middle" x="663" y="-304.5" font-family="Helvetica,sans-Serif" font-size="10.00">_distance_to_camera</text>
</a>
</g>
</g>
<!-- Node10&#45;&gt;Node15 -->
<g id="edge15_Node000010_Node000015" class="edge">
<title>Node10&#45;&gt;Node15</title>
<g id="a_edge15_Node000010_Node000015"><a xlink:title=" ">
<path fill="none" stroke="#63b8ff" d="M532.79,-356.93C542.54,-354 553.23,-350.7 563,-347.5 578.63,-342.38 595.55,-336.52 610.89,-331.08"/>
<polygon fill="#63b8ff" stroke="#63b8ff" points="612.48,-334.23 620.72,-327.58 610.13,-327.64 612.48,-334.23"/>
</a>
</g>
</g>
<!-- Node16 -->
<g id="Node000016" class="node">
<title>Node16</title>
<g id="a_Node000016"><a xlink:href="update__objects_8c.html#afe64f2394ee0deab6370b77609500bda" target="_top" xlink:title=" ">
<polygon fill="white" stroke="#666666" points="708,-279 618,-279 618,-260 708,-260 708,-279"/>
<text text-anchor="middle" x="663" y="-267" font-family="Helvetica,sans-Serif" font-size="10.00">set_object_flag</text>
</a>
</g>
</g>
<!-- Node10&#45;&gt;Node16 -->
<g id="edge16_Node000010_Node000016" class="edge">
<title>Node10&#45;&gt;Node16</title>
<g id="a_edge16_Node000010_Node000016"><a xlink:title=" ">
<path fill="none" stroke="#63b8ff" d="M546.01,-356.99C552.08,-354.52 557.94,-351.41 563,-347.5 587.31,-328.72 574.69,-307.28 599,-288.5 601.98,-286.2 605.23,-284.18 608.64,-282.4"/>
<polygon fill="#63b8ff" stroke="#63b8ff" points="610.25,-285.51 617.95,-278.23 607.39,-279.12 610.25,-285.51"/>
</a>
</g>
</g>
<!-- Node12 -->
<g id="Node000012" class="node">
<title>Node12</title>
<g id="a_Node000012"><a xlink:href="math__util__2_8c.html#a13e56d0f66165ef2bfef5122f7de73b6" target="_top" xlink:title=" ">
<polygon fill="white" stroke="#666666" points="897.5,-334 768.5,-334 768.5,-315 897.5,-315 897.5,-334"/>
<text text-anchor="middle" x="833" y="-322" font-family="Helvetica,sans-Serif" font-size="10.00">get_angle_between_xy</text>
</a>
</g>
</g>
<!-- Node11&#45;&gt;Node12 -->
<g id="edge12_Node000011_Node000012" class="edge">
<title>Node11&#45;&gt;Node12</title>
<g id="a_edge12_Node000011_Node000012"><a xlink:title=" ">
<path fill="none" stroke="#63b8ff" d="M720.88,-348.31C739.27,-344.37 759.61,-340.01 777.8,-336.11"/>
<polygon fill="#63b8ff" stroke="#63b8ff" points="778.62,-339.52 787.66,-334 777.15,-332.67 778.62,-339.52"/>
</a>
</g>
</g>
<!-- Node13 -->
<g id="Node000013" class="node">
<title>Node13</title>
<g id="a_Node000013"><a xlink:href="math__util_8c.html#aaa39a297477f56051975259f4bddd829" target="_top" xlink:title=" ">
<polygon fill="white" stroke="#666666" points="1010.5,-334 960.5,-334 960.5,-315 1010.5,-315 1010.5,-334"/>
<text text-anchor="middle" x="985.5" y="-322" font-family="Helvetica,sans-Serif" font-size="10.00">atan2s</text>
</a>
</g>
</g>
<!-- Node12&#45;&gt;Node13 -->
<g id="edge13_Node000012_Node000013" class="edge">
<title>Node12&#45;&gt;Node13</title>
<g id="a_edge13_Node000012_Node000013"><a xlink:title=" ">
<path fill="none" stroke="#63b8ff" d="M897.83,-324.5C915.79,-324.5 934.65,-324.5 950.17,-324.5"/>
<polygon fill="#63b8ff" stroke="#63b8ff" points="950.32,-328 960.32,-324.5 950.32,-321 950.32,-328"/>
</a>
</g>
</g>
<!-- Node14 -->
<g id="Node000014" class="node">
<title>Node14</title>
<g id="a_Node000014"><a xlink:href="math__util_8c.html#a0273b0ea0783a06996c28669a7438ed9" target="_top" xlink:title=" ">
<polygon fill="white" stroke="#666666" points="1150,-334 1068,-334 1068,-315 1150,-315 1150,-334"/>
<text text-anchor="middle" x="1109" y="-322" font-family="Helvetica,sans-Serif" font-size="10.00">atan2_lookup</text>
</a>
</g>
</g>
<!-- Node13&#45;&gt;Node14 -->
<g id="edge14_Node000013_Node000014" class="edge">
<title>Node13&#45;&gt;Node14</title>
<g id="a_edge14_Node000013_Node000014"><a xlink:title=" ">
<path fill="none" stroke="#63b8ff" d="M1010.5,-324.5C1024.02,-324.5 1041.42,-324.5 1057.78,-324.5"/>
<polygon fill="#63b8ff" stroke="#63b8ff" points="1057.78,-328 1067.78,-324.5 1057.78,-321 1057.78,-328"/>
</a>
</g>
</g>
<!-- Node18 -->
<g id="Node000018" class="node">
<title>Node18</title>
<g id="a_Node000018"><a xlink:href="external_8c.html#a747de0be4005b4b29150d5c068564b7d" target="_top" xlink:title=" ">
<polygon fill="white" stroke="#666666" points="709,-487 617,-487 617,-468 709,-468 709,-487"/>
<text text-anchor="middle" x="663" y="-475" font-family="Helvetica,sans-Serif" font-size="10.00">func_800C1C88</text>
</a>
</g>
</g>
<!-- Node17&#45;&gt;Node18 -->
<g id="edge18_Node000017_Node000018" class="edge">
<title>Node17&#45;&gt;Node18</title>
<g id="a_edge18_Node000017_Node000018"><a xlink:title=" ">
<path fill="none" stroke="#63b8ff" d="M545.56,-477.5C564.52,-477.5 586.72,-477.5 606.62,-477.5"/>
<polygon fill="#63b8ff" stroke="#63b8ff" points="606.78,-481 616.78,-477.5 606.78,-474 606.78,-481"/>
</a>
</g>
</g>
<!-- Node19 -->
<g id="Node000019" class="node">
<title>Node19</title>
<g id="a_Node000019"><a xlink:href="external_8c.html#a475cff796211891556f52877cd8e9b9e" target="_top" xlink:title=" ">
<polygon fill="white" stroke="#666666" points="699,-524 627,-524 627,-505 699,-505 699,-524"/>
<text text-anchor="middle" x="663" y="-512" font-family="Helvetica,sans-Serif" font-size="10.00">play_sound</text>
</a>
</g>
</g>
<!-- Node17&#45;&gt;Node19 -->
<g id="edge19_Node000017_Node000019" class="edge">
<title>Node17&#45;&gt;Node19</title>
<g id="a_edge19_Node000017_Node000019"><a xlink:title=" ">
<path fill="none" stroke="#63b8ff" d="M541.72,-487.03C564.85,-492.31 593.62,-498.88 617.23,-504.27"/>
<polygon fill="#63b8ff" stroke="#63b8ff" points="616.47,-507.69 626.99,-506.51 618.03,-500.87 616.47,-507.69"/>
</a>
</g>
</g>
<!-- Node21 -->
<g id="Node000021" class="node">
<title>Node21</title>
<g id="a_Node000021"><a xlink:href="external_8c.html#aeb87c527482a244173df36a1f3d4f446" target="_top" xlink:title=" ">
<polygon fill="white" stroke="#666666" points="709,-413 617,-413 617,-394 709,-394 709,-413"/>
<text text-anchor="middle" x="663" y="-401" font-family="Helvetica,sans-Serif" font-size="10.00">func_800C21E8</text>
</a>
</g>
</g>
<!-- Node20&#45;&gt;Node21 -->
<g id="edge21_Node000020_Node000021" class="edge">
<title>Node20&#45;&gt;Node21</title>
<g id="a_edge21_Node000020_Node000021"><a xlink:title=" ">
<path fill="none" stroke="#63b8ff" d="M545.13,-403.5C564.18,-403.5 586.55,-403.5 606.6,-403.5"/>
<polygon fill="#63b8ff" stroke="#63b8ff" points="606.84,-407 616.84,-403.5 606.84,-400 606.84,-407"/>
</a>
</g>
</g>
<!-- Node22 -->
<g id="Node000022" class="node">
<title>Node22</title>
<g id="a_Node000022"><a xlink:href="external_8c.html#a028d40421b90c38f68ebfd5acc626f2e" target="_top" xlink:title=" ">
<polygon fill="white" stroke="#666666" points="709,-450 617,-450 617,-431 709,-431 709,-450"/>
<text text-anchor="middle" x="663" y="-438" font-family="Helvetica,sans-Serif" font-size="10.00">func_800C5578</text>
</a>
</g>
</g>
<!-- Node20&#45;&gt;Node22 -->
<g id="edge22_Node000020_Node000022" class="edge">
<title>Node20&#45;&gt;Node22</title>
<g id="a_edge22_Node000020_Node000022"><a xlink:title=" ">
<path fill="none" stroke="#63b8ff" d="M541.72,-413.03C562.61,-417.8 588.11,-423.62 610.24,-428.68"/>
<polygon fill="#63b8ff" stroke="#63b8ff" points="609.61,-432.13 620.14,-430.94 611.17,-425.3 609.61,-432.13"/>
</a>
</g>
</g>
<!-- Node23 -->
<g id="Node000023" class="node">
<title>Node23</title>
<g id="a_Node000023"><a xlink:href="external_8c.html#ac0fb767de7e14a03f1bcfa53f0abd23b" target="_top" xlink:title=" ">
<polygon fill="white" stroke="#666666" points="903,-413 763,-413 763,-394 903,-394 903,-413"/>
<text text-anchor="middle" x="833" y="-401" font-family="Helvetica,sans-Serif" font-size="10.00">delete_sound_from_bank</text>
</a>
</g>
</g>
<!-- Node22&#45;&gt;Node23 -->
<g id="edge23_Node000022_Node000023" class="edge">
<title>Node22&#45;&gt;Node23</title>
<g id="a_edge23_Node000022_Node000023"><a xlink:title=" ">
<path fill="none" stroke="#63b8ff" d="M707.26,-430.97C729.03,-426.18 755.61,-420.32 778.63,-415.25"/>
<polygon fill="#63b8ff" stroke="#63b8ff" points="779.58,-418.63 788.59,-413.06 778.07,-411.79 779.58,-418.63"/>
</a>
</g>
</g>
<!-- Node25 -->
<g id="Node000025" class="node">
<title>Node25</title>
<g id="a_Node000025"><a xlink:href="external_8c.html#ab83bd36e63f0f1baddcb2482b5ad31b0" target="_top" xlink:title=" ">
<polygon fill="white" stroke="#666666" points="879.5,-487 786.5,-487 786.5,-468 879.5,-468 879.5,-487"/>
<text text-anchor="middle" x="833" y="-475" font-family="Helvetica,sans-Serif" font-size="10.00">func_800C41CC</text>
</a>
</g>
</g>
<!-- Node22&#45;&gt;Node25 -->
<g id="edge25_Node000022_Node000025" class="edge">
<title>Node22&#45;&gt;Node25</title>
<g id="a_edge25_Node000022_Node000025"><a xlink:title=" ">
<path fill="none" stroke="#63b8ff" d="M707.26,-450.03C729.03,-454.82 755.61,-460.68 778.63,-465.75"/>
<polygon fill="#63b8ff" stroke="#63b8ff" points="778.07,-469.21 788.59,-467.94 779.58,-462.37 778.07,-469.21"/>
</a>
</g>
</g>
<!-- Node26 -->
<g id="Node000026" class="node">
<title>Node26</title>
<g id="a_Node000026"><a xlink:href="port__eu_8c.html#aa89dfaecca46c6d071f08c1898d1f7c9" target="_top" xlink:title=" ">
<polygon fill="white" stroke="#666666" points="879.5,-450 786.5,-450 786.5,-431 879.5,-431 879.5,-450"/>
<text text-anchor="middle" x="833" y="-438" font-family="Helvetica,sans-Serif" font-size="10.00">func_800CBBE8</text>
</a>
</g>
</g>
<!-- Node22&#45;&gt;Node26 -->
<g id="edge26_Node000022_Node000026" class="edge">
<title>Node22&#45;&gt;Node26</title>
<g id="a_edge26_Node000022_Node000026"><a xlink:title=" ">
<path fill="none" stroke="#63b8ff" d="M709.02,-440.5C729.66,-440.5 754.34,-440.5 776.15,-440.5"/>
<polygon fill="#63b8ff" stroke="#63b8ff" points="776.27,-444 786.27,-440.5 776.27,-437 776.27,-444"/>
</a>
</g>
</g>
<!-- Node24 -->
<g id="Node000024" class="node">
<title>Node24</title>
<g id="a_Node000024"><a xlink:href="external_8c.html#a358ac55e8ab5262dcae8037334be06d7" target="_top" xlink:title=" ">
<polygon fill="white" stroke="#666666" points="1031.5,-413 939.5,-413 939.5,-394 1031.5,-394 1031.5,-413"/>
<text text-anchor="middle" x="985.5" y="-401" font-family="Helvetica,sans-Serif" font-size="10.00">func_800C40F0</text>
</a>
</g>
</g>
<!-- Node23&#45;&gt;Node24 -->
<g id="edge24_Node000023_Node000024" class="edge">
<title>Node23&#45;&gt;Node24</title>
<g id="a_edge24_Node000023_Node000024"><a xlink:title=" ">
<path fill="none" stroke="#63b8ff" d="M903.08,-403.5C911.87,-403.5 920.78,-403.5 929.31,-403.5"/>
<polygon fill="#63b8ff" stroke="#63b8ff" points="929.5,-407 939.5,-403.5 929.5,-400 929.5,-407"/>
</a>
</g>
</g>
<!-- Node27 -->
<g id="Node000027" class="node">
<title>Node27</title>
<g id="a_Node000027"><a xlink:href="port__eu_8c.html#af361a20d2e08f30c53a237ca481ff734" target="_top" xlink:title=" ">
<polygon fill="white" stroke="#666666" points="1032,-450 939,-450 939,-431 1032,-431 1032,-450"/>
<text text-anchor="middle" x="985.5" y="-438" font-family="Helvetica,sans-Serif" font-size="10.00">func_800CBB48</text>
</a>
</g>
</g>
<!-- Node26&#45;&gt;Node27 -->
<g id="edge27_Node000026_Node000027" class="edge">
<title>Node26&#45;&gt;Node27</title>
<g id="a_edge27_Node000026_Node000027"><a xlink:title=" ">
<path fill="none" stroke="#63b8ff" d="M879.56,-440.5C894.96,-440.5 912.34,-440.5 928.46,-440.5"/>
<polygon fill="#63b8ff" stroke="#63b8ff" points="928.83,-444 938.83,-440.5 928.83,-437 928.83,-444"/>
</a>
</g>
</g>
<!-- Node30 -->
<g id="Node000030" class="node">
<title>Node30</title>
<g id="a_Node000030"><a xlink:href="update__objects_8c.html#a281b6219991026ad20df7d33ae149504" target="_top" xlink:title=" ">
<polygon fill="white" stroke="#666666" points="373.5,-150 281.5,-150 281.5,-131 373.5,-131 373.5,-150"/>
<text text-anchor="middle" x="327.5" y="-138" font-family="Helvetica,sans-Serif" font-size="10.00">func_8007D714</text>
</a>
</g>
</g>
<!-- Node29&#45;&gt;Node30 -->
<g id="edge30_Node000029_Node000030" class="edge">
<title>Node29&#45;&gt;Node30</title>
<g id="a_edge30_Node000029_Node000030"><a xlink:title=" ">
<path fill="none" stroke="#63b8ff" d="M201.39,-95.08C226.08,-104.04 263.16,-117.51 290.55,-127.45"/>
<polygon fill="#63b8ff" stroke="#63b8ff" points="289.57,-130.81 300.16,-130.94 291.95,-124.23 289.57,-130.81"/>
</a>
</g>
</g>
<!-- Node39 -->
<g id="Node000039" class="node">
<title>Node39</title>
<g id="a_Node000039"><a xlink:href="update__objects_8c.html#aa3d2d44021ec152831523b1c0b366c4f" target="_top" xlink:title=" ">
<polygon fill="white" stroke="#666666" points="373,-95 282,-95 282,-76 373,-76 373,-95"/>
<text text-anchor="middle" x="327.5" y="-83" font-family="Helvetica,sans-Serif" font-size="10.00">func_8007E358</text>
</a>
</g>
</g>
<!-- Node29&#45;&gt;Node39 -->
<g id="edge42_Node000029_Node000039" class="edge">
<title>Node29&#45;&gt;Node39</title>
<g id="a_edge42_Node000029_Node000039"><a xlink:title=" ">
<path fill="none" stroke="#63b8ff" d="M220.04,-85.5C236.22,-85.5 254.65,-85.5 271.58,-85.5"/>
<polygon fill="#63b8ff" stroke="#63b8ff" points="271.89,-89 281.89,-85.5 271.89,-82 271.89,-89"/>
</a>
</g>
</g>
<!-- Node40 -->
<g id="Node000040" class="node">
<title>Node40</title>
<g id="a_Node000040"><a xlink:href="update__objects_8c.html#a8bfc5f5c7034d61b534e14f325b6e399" target="_top" xlink:title=" ">
<polygon fill="white" stroke="#666666" points="551,-57 447,-57 447,-38 551,-38 551,-57"/>
<text text-anchor="middle" x="499" y="-45" font-family="Helvetica,sans-Serif" font-size="10.00">object_next_state</text>
</a>
</g>
</g>
<!-- Node29&#45;&gt;Node40 -->
<g id="edge47_Node000029_Node000040" class="edge">
<title>Node29&#45;&gt;Node40</title>
<g id="a_edge47_Node000029_Node000040"><a xlink:title=" ">
<path fill="none" stroke="#63b8ff" d="M210.26,-76C224.38,-72.52 240.87,-68.85 256,-66.5 317.04,-57 387.51,-52.15 436.61,-49.74"/>
<polygon fill="#63b8ff" stroke="#63b8ff" points="436.93,-53.23 446.75,-49.26 436.6,-46.24 436.93,-53.23"/>
</a>
</g>
</g>
<!-- Node42 -->
<g id="Node000042" class="node">
<title>Node42</title>
<g id="a_Node000042"><a xlink:href="update__objects_8c.html#aa87c6969a1223fe82e1cf59e29664510" target="_top" xlink:title="will return true if the timer is done">
<polygon fill="white" stroke="#666666" points="399,-19 256,-19 256,0 399,0 399,-19"/>
<text text-anchor="middle" x="327.5" y="-7" font-family="Helvetica,sans-Serif" font-size="10.00">set_and_run_timer_object</text>
</a>
</g>
</g>
<!-- Node29&#45;&gt;Node42 -->
<g id="edge48_Node000029_Node000042" class="edge">
<title>Node29&#45;&gt;Node42</title>
<g id="a_edge48_Node000029_Node000042"><a xlink:title=" ">
<path fill="none" stroke="#63b8ff" d="M187.89,-75.82C203.41,-64.5 230.56,-45.77 256,-33.5 264.73,-29.29 274.39,-25.49 283.69,-22.21"/>
<polygon fill="#63b8ff" stroke="#63b8ff" points="284.84,-25.52 293.2,-19 282.6,-18.89 284.84,-25.52"/>
</a>
</g>
</g>
<!-- Node31 -->
<g id="Node000031" class="node">
<title>Node31</title>
<g id="a_Node000031"><a xlink:href="update__objects_8c.html#a6e56a43ec98e81db05f2410893efa437" target="_top" xlink:title=" ">
<polygon fill="white" stroke="#666666" points="563,-168 435,-168 435,-149 563,-149 563,-168"/>
<text text-anchor="middle" x="499" y="-156" font-family="Helvetica,sans-Serif" font-size="10.00">add_unused_obj_index</text>
</a>
</g>
</g>
<!-- Node30&#45;&gt;Node31 -->
<g id="edge31_Node000030_Node000031" class="edge">
<title>Node30&#45;&gt;Node31</title>
<g id="a_edge31_Node000030_Node000031"><a xlink:title=" ">
<path fill="none" stroke="#63b8ff" d="M373.92,-145.32C389.58,-146.99 407.54,-148.89 424.84,-150.73"/>
<polygon fill="#63b8ff" stroke="#63b8ff" points="424.61,-154.23 434.93,-151.8 425.35,-147.27 424.61,-154.23"/>
</a>
</g>
</g>
<!-- Node33 -->
<g id="Node000033" class="node">
<title>Node33</title>
<g id="a_Node000033"><a xlink:href="update__objects_8c.html#ad44c53b9400e14a1222584ef55fa41db" target="_top" xlink:title=" ">
<polygon fill="white" stroke="#666666" points="545.5,-242 452.5,-242 452.5,-223 545.5,-223 545.5,-242"/>
<text text-anchor="middle" x="499" y="-230" font-family="Helvetica,sans-Serif" font-size="10.00">func_8007D6A8</text>
</a>
</g>
</g>
<!-- Node30&#45;&gt;Node33 -->
<g id="edge33_Node000030_Node000033" class="edge">
<title>Node30&#45;&gt;Node33</title>
<g id="a_edge33_Node000030_Node000033"><a xlink:title=" ">
<path fill="none" stroke="#63b8ff" d="M339.9,-150.1C358.64,-165.44 397.6,-195.58 435,-213.5 439.71,-215.76 444.74,-217.81 449.84,-219.67"/>
<polygon fill="#63b8ff" stroke="#63b8ff" points="449.05,-223.1 459.64,-222.99 451.29,-216.47 449.05,-223.1"/>
</a>
</g>
</g>
<!-- Node38 -->
<g id="Node000038" class="node">
<title>Node38</title>
<g id="a_Node000038"><a xlink:href="update__objects_8c.html#abdebd086b5ff081f83af3d9205f39cd3" target="_top" xlink:title=" ">
<polygon fill="white" stroke="#666666" points="533,-131 465,-131 465,-112 533,-112 533,-131"/>
<text text-anchor="middle" x="499" y="-119" font-family="Helvetica,sans-Serif" font-size="10.00">init_object</text>
</a>
</g>
</g>
<!-- Node30&#45;&gt;Node38 -->
<g id="edge40_Node000030_Node000038" class="edge">
<title>Node30&#45;&gt;Node38</title>
<g id="a_edge40_Node000030_Node000038"><a xlink:title=" ">
<path fill="none" stroke="#63b8ff" d="M373.92,-135.41C398.98,-132.6 429.92,-129.13 454.64,-126.36"/>
<polygon fill="#63b8ff" stroke="#63b8ff" points="455.27,-129.81 464.82,-125.22 454.49,-122.85 455.27,-129.81"/>
</a>
</g>
</g>
<!-- Node32 -->
<g id="Node000032" class="node">
<title>Node32</title>
<g id="a_Node000032"><a xlink:href="update__objects_8c.html#a92856990c4ca5fba1b8e0c61ca832c27" target="_top" xlink:title=" ">
<polygon fill="white" stroke="#666666" points="727,-168 599,-168 599,-149 727,-149 727,-168"/>
<text text-anchor="middle" x="663" y="-156" font-family="Helvetica,sans-Serif" font-size="10.00">find_unused_obj_index</text>
</a>
</g>
</g>
<!-- Node31&#45;&gt;Node32 -->
<g id="edge32_Node000031_Node000032" class="edge">
<title>Node31&#45;&gt;Node32</title>
<g id="a_edge32_Node000031_Node000032"><a xlink:title=" ">
<path fill="none" stroke="#63b8ff" d="M563.1,-158.5C571.43,-158.5 580.04,-158.5 588.53,-158.5"/>
<polygon fill="#63b8ff" stroke="#63b8ff" points="588.81,-162 598.81,-158.5 588.81,-155 588.81,-162"/>
</a>
</g>
</g>
<!-- Node33&#45;&gt;Node16 -->
<g id="edge39_Node000033_Node000016" class="edge">
<title>Node33&#45;&gt;Node16</title>
<g id="a_edge39_Node000033_Node000016"><a xlink:title=" ">
<path fill="none" stroke="#63b8ff" d="M541.72,-242.03C562.61,-246.8 588.11,-252.62 610.24,-257.68"/>
<polygon fill="#63b8ff" stroke="#63b8ff" points="609.61,-261.13 620.14,-259.94 611.17,-254.3 609.61,-261.13"/>
</a>
</g>
</g>
<!-- Node34 -->
<g id="Node000034" class="node">
<title>Node34</title>
<g id="a_Node000034"><a xlink:href="update__objects_8c.html#aa2925a041b2174084d6f3cc16d2cc705" target="_top" xlink:title=" ">
<polygon fill="white" stroke="#666666" points="709,-242 617,-242 617,-223 709,-223 709,-242"/>
<text text-anchor="middle" x="663" y="-230" font-family="Helvetica,sans-Serif" font-size="10.00">func_8007D360</text>
</a>
</g>
</g>
<!-- Node33&#45;&gt;Node34 -->
<g id="edge34_Node000033_Node000034" class="edge">
<title>Node33&#45;&gt;Node34</title>
<g id="a_edge34_Node000033_Node000034"><a xlink:title=" ">
<path fill="none" stroke="#63b8ff" d="M545.56,-232.5C564.52,-232.5 586.72,-232.5 606.62,-232.5"/>
<polygon fill="#63b8ff" stroke="#63b8ff" points="606.78,-236 616.78,-232.5 606.78,-229 606.78,-236"/>
</a>
</g>
</g>
<!-- Node34&#45;&gt;Node12 -->
<g id="edge35_Node000034_Node000012" class="edge">
<title>Node34&#45;&gt;Node12</title>
<g id="a_edge35_Node000034_Node000012"><a xlink:title=" ">
<path fill="none" stroke="#63b8ff" d="M705.07,-242.07C712.53,-244.41 720.12,-247.21 727,-250.5 759.74,-266.16 793.29,-291.82 813.39,-308.43"/>
<polygon fill="#63b8ff" stroke="#63b8ff" points="811.23,-311.19 821.14,-314.94 815.73,-305.83 811.23,-311.19"/>
</a>
</g>
</g>
<!-- Node35 -->
<g id="Node000035" class="node">
<title>Node35</title>
<g id="a_Node000035"><a xlink:href="math__util_8c.html#a151b63b8adf9af7e4054b3b84bd226dc" target="_top" xlink:title=" ">
<polygon fill="white" stroke="#666666" points="869,-223 797,-223 797,-204 869,-204 869,-223"/>
<text text-anchor="middle" x="833" y="-211" font-family="Helvetica,sans-Serif" font-size="10.00">random_int</text>
</a>
</g>
</g>
<!-- Node34&#45;&gt;Node35 -->
<g id="edge36_Node000034_Node000035" class="edge">
<title>Node34&#45;&gt;Node35</title>
<g id="a_edge36_Node000034_Node000035"><a xlink:title=" ">
<path fill="none" stroke="#63b8ff" d="M709.02,-227.41C733.17,-224.68 762.85,-221.32 787,-218.59"/>
<polygon fill="#63b8ff" stroke="#63b8ff" points="787.44,-222.06 796.98,-217.46 786.65,-215.11 787.44,-222.06"/>
</a>
</g>
</g>
<!-- Node37 -->
<g id="Node000037" class="node">
<title>Node37</title>
<g id="a_Node000037"><a xlink:href="code__80086E70_8c.html#ac9171108201f29dda52974a4a5c68a04" target="_top" xlink:title=" ">
<polygon fill="white" stroke="#666666" points="892,-260 774,-260 774,-241 892,-241 892,-260"/>
<text text-anchor="middle" x="833" y="-248" font-family="Helvetica,sans-Serif" font-size="10.00">set_obj_origin_offset</text>
</a>
</g>
</g>
<!-- Node34&#45;&gt;Node37 -->
<g id="edge38_Node000034_Node000037" class="edge">
<title>Node34&#45;&gt;Node37</title>
<g id="a_edge38_Node000034_Node000037"><a xlink:title=" ">
<path fill="none" stroke="#63b8ff" d="M709.02,-237.32C725.83,-239.12 745.32,-241.21 763.76,-243.19"/>
<polygon fill="#63b8ff" stroke="#63b8ff" points="763.55,-246.69 773.87,-244.27 764.3,-239.73 763.55,-246.69"/>
</a>
</g>
</g>
<!-- Node36 -->
<g id="Node000036" class="node">
<title>Node36</title>
<g id="a_Node000036"><a xlink:href="math__util_8c.html#a062850863585005ad1d0a75d9ff70693" target="_top" xlink:title=" ">
<polygon fill="white" stroke="#666666" points="1024,-223 947,-223 947,-204 1024,-204 1024,-223"/>
<text text-anchor="middle" x="985.5" y="-211" font-family="Helvetica,sans-Serif" font-size="10.00">random_u16</text>
</a>
</g>
</g>
<!-- Node35&#45;&gt;Node36 -->
<g id="edge37_Node000035_Node000036" class="edge">
<title>Node35&#45;&gt;Node36</title>
<g id="a_edge37_Node000035_Node000036"><a xlink:title=" ">
<path fill="none" stroke="#63b8ff" d="M869.29,-213.5C889.39,-213.5 914.85,-213.5 936.72,-213.5"/>
<polygon fill="#63b8ff" stroke="#63b8ff" points="936.8,-217 946.8,-213.5 936.8,-210 936.8,-217"/>
</a>
</g>
</g>
<!-- Node38&#45;&gt;Node9 -->
<g id="edge41_Node000038_Node000009" class="edge">
<title>Node38&#45;&gt;Node9</title>
<g id="a_edge41_Node000038_Node000009"><a xlink:title=" ">
<path fill="none" stroke="#63b8ff" d="M533.17,-113.92C555.4,-108.85 585.12,-102.06 610.41,-96.28"/>
<polygon fill="#63b8ff" stroke="#63b8ff" points="611.25,-99.68 620.22,-94.04 609.69,-92.86 611.25,-99.68"/>
</a>
</g>
</g>
<!-- Node39&#45;&gt;Node40 -->
<g id="edge43_Node000039_Node000040" class="edge">
<title>Node39&#45;&gt;Node40</title>
<g id="a_edge43_Node000039_Node000040"><a xlink:title=" ">
<path fill="none" stroke="#63b8ff" d="M371.27,-75.91C393.84,-70.85 421.72,-64.6 445.58,-59.25"/>
<polygon fill="#63b8ff" stroke="#63b8ff" points="446.54,-62.62 455.54,-57.02 445.01,-55.79 446.54,-62.62"/>
</a>
</g>
</g>
<!-- Node41 -->
<g id="Node000041" class="node">
<title>Node41</title>
<g id="a_Node000041"><a xlink:href="code__80086E70_8c.html#a1ac4b1d79eb9303b677c9f65f341e139" target="_top" xlink:title=" ">
<polygon fill="white" stroke="#666666" points="547,-94 451,-94 451,-75 547,-75 547,-94"/>
<text text-anchor="middle" x="499" y="-82" font-family="Helvetica,sans-Serif" font-size="10.00">set_obj_velocity</text>
</a>
</g>
</g>
<!-- Node39&#45;&gt;Node41 -->
<g id="edge46_Node000039_Node000041" class="edge">
<title>Node39&#45;&gt;Node41</title>
<g id="a_edge46_Node000039_Node000041"><a xlink:title=" ">
<path fill="none" stroke="#63b8ff" d="M373.03,-85.24C393.69,-85.12 418.51,-84.97 440.56,-84.84"/>
<polygon fill="#63b8ff" stroke="#63b8ff" points="440.82,-88.34 450.8,-84.78 440.78,-81.34 440.82,-88.34"/>
</a>
</g>
</g>
<!-- Node40&#45;&gt;Node8 -->
<g id="edge44_Node000040_Node000008" class="edge">
<title>Node40&#45;&gt;Node8</title>
<g id="a_edge44_Node000040_Node000008"><a xlink:title=" ">
<path fill="none" stroke="#63b8ff" d="M550.96,-57.09C555.37,-59.34 559.48,-62.1 563,-65.5 600.31,-101.52 561.95,-140.21 599,-176.5 600.66,-178.12 602.45,-179.61 604.34,-180.97"/>
<polygon fill="#63b8ff" stroke="#63b8ff" points="602.8,-184.12 613.2,-186.16 606.34,-178.08 602.8,-184.12"/>
</a>
</g>
</g>
<!-- Node40&#45;&gt;Node9 -->
<g id="edge45_Node000040_Node000009" class="edge">
<title>Node40&#45;&gt;Node9</title>
<g id="a_edge45_Node000040_Node000009"><a xlink:title=" ">
<path fill="none" stroke="#63b8ff" d="M541.72,-57.03C562.61,-61.8 588.11,-67.62 610.24,-72.68"/>
<polygon fill="#63b8ff" stroke="#63b8ff" points="609.61,-76.13 620.14,-74.94 611.17,-69.3 609.61,-76.13"/>
</a>
</g>
</g>
<!-- Node42&#45;&gt;Node9 -->
<g id="edge50_Node000042_Node000009" class="edge">
<title>Node42&#45;&gt;Node9</title>
<g id="a_edge50_Node000042_Node000009"><a xlink:title=" ">
<path fill="none" stroke="#63b8ff" d="M399.25,-7.36C446.57,-7.82 509.7,-12.14 563,-28.5 592.01,-37.4 621.86,-55.8 641.09,-69.08"/>
<polygon fill="#63b8ff" stroke="#63b8ff" points="639.2,-72.03 649.39,-74.94 643.25,-66.31 639.2,-72.03"/>
</a>
</g>
</g>
<!-- Node42&#45;&gt;Node40 -->
<g id="edge49_Node000042_Node000040" class="edge">
<title>Node42&#45;&gt;Node40</title>
<g id="a_edge49_Node000042_Node000040"><a xlink:title=" ">
<path fill="none" stroke="#63b8ff" d="M371.27,-19.09C393.84,-24.15 421.72,-30.4 445.58,-35.75"/>
<polygon fill="#63b8ff" stroke="#63b8ff" points="445.01,-39.21 455.54,-37.98 446.54,-32.38 445.01,-39.21"/>
</a>
</g>
</g>
</g>
</svg>
