<?xml version="1.0" encoding="UTF-8" standalone="no"?>
<!DOCTYPE svg PUBLIC "-//W3C//DTD SVG 1.1//EN"
 "http://www.w3.org/Graphics/SVG/1.1/DTD/svg11.dtd">
<!-- Generated by graphviz version 2.43.0 (0)
 -->
<!-- Title: func_80085CA0 Pages: 1 -->
<svg width="791pt" height="452pt"
 viewBox="0.00 0.00 791.00 452.00" xmlns="http://www.w3.org/2000/svg" xmlns:xlink="http://www.w3.org/1999/xlink">
<g id="graph0" class="graph" transform="scale(1 1) rotate(0) translate(4 448)">
<title>func_80085CA0</title>
<!-- Node1 -->
<g id="Node000001" class="node">
<title>Node1</title>
<g id="a_Node000001"><a xlink:title=" ">
<polygon fill="#999999" stroke="#666666" points="92,-282 0,-282 0,-263 92,-263 92,-282"/>
<text text-anchor="middle" x="46" y="-270" font-family="Helvetica,sans-Serif" font-size="10.00">func_80085CA0</text>
</a>
</g>
</g>
<!-- Node2 -->
<g id="Node000002" class="node">
<title>Node2</title>
<g id="a_Node000002"><a xlink:href="update__objects_8c.html#a6433786e30fbe8c3dc83f83c9f2c35f9" target="_top" xlink:title=" ">
<polygon fill="white" stroke="#666666" points="597,-444 505,-444 505,-425 597,-425 597,-444"/>
<text text-anchor="middle" x="551" y="-432" font-family="Helvetica,sans-Serif" font-size="10.00">func_800726CC</text>
</a>
</g>
</g>
<!-- Node1&#45;&gt;Node2 -->
<g id="edge1_Node000001_Node000002" class="edge">
<title>Node1&#45;&gt;Node2</title>
<g id="a_edge1_Node000001_Node000002"><a xlink:title=" ">
<path fill="none" stroke="#63b8ff" d="M67.38,-282.08C83.6,-289.52 106.99,-299.83 128,-307.5 261.95,-356.41 424.54,-401.42 503.07,-422.28"/>
<polygon fill="#63b8ff" stroke="#63b8ff" points="502.56,-425.77 513.12,-424.95 504.35,-419 502.56,-425.77"/>
</a>
</g>
</g>
<!-- Node5 -->
<g id="Node000005" class="node">
<title>Node5</title>
<g id="a_Node000005"><a xlink:href="update__objects_8c.html#a9118be650e419fe94f08bea1e9040a4b" target="_top" xlink:title=" ">
<polygon fill="white" stroke="#666666" points="422,-320 329,-320 329,-301 422,-301 422,-320"/>
<text text-anchor="middle" x="375.5" y="-308" font-family="Helvetica,sans-Serif" font-size="10.00">func_80072D3C</text>
</a>
</g>
</g>
<!-- Node1&#45;&gt;Node5 -->
<g id="edge4_Node000001_Node000005" class="edge">
<title>Node1&#45;&gt;Node5</title>
<g id="a_edge4_Node000001_Node000005"><a xlink:title=" ">
<path fill="none" stroke="#63b8ff" d="M92.32,-280.94C103.92,-282.94 116.4,-284.94 128,-286.5 193.38,-295.32 268.93,-302.19 318.98,-306.28"/>
<polygon fill="#63b8ff" stroke="#63b8ff" points="318.7,-309.77 328.95,-307.08 319.27,-302.79 318.7,-309.77"/>
</a>
</g>
</g>
<!-- Node9 -->
<g id="Node000009" class="node">
<title>Node9</title>
<g id="a_Node000009"><a xlink:href="update__objects_8c.html#a5ac10bdf02fa5f66183ce0da2f55a41d" target="_top" xlink:title=" ">
<polygon fill="white" stroke="#666666" points="421,-282 330,-282 330,-263 421,-263 421,-282"/>
<text text-anchor="middle" x="375.5" y="-270" font-family="Helvetica,sans-Serif" font-size="10.00">func_80072E54</text>
</a>
</g>
</g>
<!-- Node1&#45;&gt;Node9 -->
<g id="edge11_Node000001_Node000009" class="edge">
<title>Node1&#45;&gt;Node9</title>
<g id="a_edge11_Node000001_Node000009"><a xlink:title=" ">
<path fill="none" stroke="#63b8ff" d="M92.19,-272.5C151.53,-272.5 255.64,-272.5 319.5,-272.5"/>
<polygon fill="#63b8ff" stroke="#63b8ff" points="319.77,-276 329.77,-272.5 319.77,-269 319.77,-276"/>
</a>
</g>
</g>
<!-- Node10 -->
<g id="Node000010" class="node">
<title>Node10</title>
<g id="a_Node000010"><a xlink:href="update__objects_8c.html#a86976d4b79853c37ad7d3b5f0513a9b8" target="_top" xlink:title=" ">
<polygon fill="white" stroke="#666666" points="268,-93 128,-93 128,-74 268,-74 268,-93"/>
<text text-anchor="middle" x="198" y="-81" font-family="Helvetica,sans-Serif" font-size="10.00">init_obj_neon_mushroom</text>
</a>
</g>
</g>
<!-- Node1&#45;&gt;Node10 -->
<g id="edge17_Node000001_Node000010" class="edge">
<title>Node1&#45;&gt;Node10</title>
<g id="a_edge17_Node000001_Node000010"><a xlink:title=" ">
<path fill="none" stroke="#63b8ff" d="M54.64,-262.87C78.51,-232.8 151.89,-140.33 182.92,-101.24"/>
<polygon fill="#63b8ff" stroke="#63b8ff" points="185.72,-103.35 189.19,-93.34 180.23,-99 185.72,-103.35"/>
</a>
</g>
</g>
<!-- Node18 -->
<g id="Node000018" class="node">
<title>Node18</title>
<g id="a_Node000018"><a xlink:href="update__objects_8c.html#aa87c6969a1223fe82e1cf59e29664510" target="_top" xlink:title="will return true if the timer is done">
<polygon fill="white" stroke="#666666" points="447,-206 304,-206 304,-187 447,-187 447,-206"/>
<text text-anchor="middle" x="375.5" y="-194" font-family="Helvetica,sans-Serif" font-size="10.00">set_and_run_timer_object</text>
</a>
</g>
</g>
<!-- Node1&#45;&gt;Node18 -->
<g id="edge26_Node000001_Node000018" class="edge">
<title>Node1&#45;&gt;Node18</title>
<g id="a_edge26_Node000001_Node000018"><a xlink:title=" ">
<path fill="none" stroke="#63b8ff" d="M88.15,-262.95C147.91,-249.08 258.66,-223.38 323.52,-208.33"/>
<polygon fill="#63b8ff" stroke="#63b8ff" points="324.57,-211.68 333.52,-206.01 322.99,-204.86 324.57,-211.68"/>
</a>
</g>
</g>
<!-- Node3 -->
<g id="Node000003" class="node">
<title>Node3</title>
<g id="a_Node000003"><a xlink:href="update__objects_8c.html#a3953241e15c6372ac8944ba842148a9a" target="_top" xlink:title=" ">
<polygon fill="white" stroke="#666666" points="768.5,-344 669.5,-344 669.5,-325 768.5,-325 768.5,-344"/>
<text text-anchor="middle" x="719" y="-332" font-family="Helvetica,sans-Serif" font-size="10.00">clear_object_flag</text>
</a>
</g>
</g>
<!-- Node2&#45;&gt;Node3 -->
<g id="edge2_Node000002_Node000003" class="edge">
<title>Node2&#45;&gt;Node3</title>
<g id="a_edge2_Node000002_Node000003"><a xlink:title=" ">
<path fill="none" stroke="#63b8ff" d="M584.91,-424.98C596.06,-421.17 608.37,-416.3 619,-410.5 649.82,-393.69 681.28,-367.71 700.23,-350.91"/>
<polygon fill="#63b8ff" stroke="#63b8ff" points="702.69,-353.4 707.78,-344.11 698.01,-348.2 702.69,-353.4"/>
</a>
</g>
</g>
<!-- Node4 -->
<g id="Node000004" class="node">
<title>Node4</title>
<g id="a_Node000004"><a xlink:href="update__objects_8c.html#af20e3f3c403dd4fbea56e358997e515a" target="_top" xlink:title=" ">
<polygon fill="white" stroke="#666666" points="783,-225 655,-225 655,-206 783,-206 783,-225"/>
<text text-anchor="middle" x="719" y="-213" font-family="Helvetica,sans-Serif" font-size="10.00">set_object_timer_state</text>
</a>
</g>
</g>
<!-- Node2&#45;&gt;Node4 -->
<g id="edge3_Node000002_Node000004" class="edge">
<title>Node2&#45;&gt;Node4</title>
<g id="a_edge3_Node000002_Node000004"><a xlink:title=" ">
<path fill="none" stroke="#63b8ff" d="M565.76,-424.94C580.19,-414.45 602.97,-396.55 619,-377.5 639.27,-353.41 638.67,-343.41 655,-316.5 672.68,-287.37 693.72,-253.86 706.46,-233.7"/>
<polygon fill="#63b8ff" stroke="#63b8ff" points="709.45,-235.52 711.84,-225.2 703.53,-231.78 709.45,-235.52"/>
</a>
</g>
</g>
<!-- Node5&#45;&gt;Node3 -->
<g id="edge5_Node000005_Node000003" class="edge">
<title>Node5&#45;&gt;Node3</title>
<g id="a_edge5_Node000005_Node000003"><a xlink:title=" ">
<path fill="none" stroke="#63b8ff" d="M386.99,-320.01C405.02,-335.65 443.75,-366.18 483,-377.5 541.08,-394.25 559.82,-389.8 619,-377.5 645.33,-372.03 673.25,-359.18 692.71,-348.94"/>
<polygon fill="#63b8ff" stroke="#63b8ff" points="694.4,-352 701.53,-344.17 691.07,-345.85 694.4,-352"/>
</a>
</g>
</g>
<!-- Node6 -->
<g id="Node000006" class="node">
<title>Node6</title>
<g id="a_Node000006"><a xlink:href="update__objects_8c.html#a2301a51a93a60f0382cdc7002e14f95a" target="_top" xlink:title=" ">
<polygon fill="white" stroke="#666666" points="619,-368.5 483,-368.5 483,-338.5 619,-338.5 619,-368.5"/>
<text text-anchor="start" x="491" y="-356.5" font-family="Helvetica,sans-Serif" font-size="10.00">is_obj_index_flag_status</text>
<text text-anchor="middle" x="551" y="-345.5" font-family="Helvetica,sans-Serif" font-size="10.00">_inactive</text>
</a>
</g>
</g>
<!-- Node5&#45;&gt;Node6 -->
<g id="edge6_Node000005_Node000006" class="edge">
<title>Node5&#45;&gt;Node6</title>
<g id="a_edge6_Node000005_Node000006"><a xlink:title=" ">
<path fill="none" stroke="#63b8ff" d="M415.01,-320.04C433.96,-324.74 457.43,-330.56 479.46,-336.02"/>
<polygon fill="#63b8ff" stroke="#63b8ff" points="478.9,-339.49 489.45,-338.49 480.59,-332.69 478.9,-339.49"/>
</a>
</g>
</g>
<!-- Node7 -->
<g id="Node000007" class="node">
<title>Node7</title>
<g id="a_Node000007"><a xlink:href="update__objects_8c.html#a8bfc5f5c7034d61b534e14f325b6e399" target="_top" xlink:title=" ">
<polygon fill="white" stroke="#666666" points="603,-206 499,-206 499,-187 603,-187 603,-206"/>
<text text-anchor="middle" x="551" y="-194" font-family="Helvetica,sans-Serif" font-size="10.00">object_next_state</text>
</a>
</g>
</g>
<!-- Node5&#45;&gt;Node7 -->
<g id="edge7_Node000005_Node000007" class="edge">
<title>Node5&#45;&gt;Node7</title>
<g id="a_edge7_Node000005_Node000007"><a xlink:title=" ">
<path fill="none" stroke="#63b8ff" d="M422.14,-301.66C430.69,-299.05 439.34,-295.73 447,-291.5 483.67,-271.27 517.6,-235.29 535.89,-213.89"/>
<polygon fill="#63b8ff" stroke="#63b8ff" points="538.58,-216.12 542.32,-206.21 533.22,-211.63 538.58,-216.12"/>
</a>
</g>
</g>
<!-- Node8 -->
<g id="Node000008" class="node">
<title>Node8</title>
<g id="a_Node000008"><a xlink:href="update__objects_8c.html#afe64f2394ee0deab6370b77609500bda" target="_top" xlink:title=" ">
<polygon fill="white" stroke="#666666" points="596,-320 506,-320 506,-301 596,-301 596,-320"/>
<text text-anchor="middle" x="551" y="-308" font-family="Helvetica,sans-Serif" font-size="10.00">set_object_flag</text>
</a>
</g>
</g>
<!-- Node5&#45;&gt;Node8 -->
<g id="edge10_Node000005_Node000008" class="edge">
<title>Node5&#45;&gt;Node8</title>
<g id="a_edge10_Node000005_Node000008"><a xlink:title=" ">
<path fill="none" stroke="#63b8ff" d="M422.09,-310.5C444.65,-310.5 472.05,-310.5 495.7,-310.5"/>
<polygon fill="#63b8ff" stroke="#63b8ff" points="495.92,-314 505.92,-310.5 495.92,-307 495.92,-314"/>
</a>
</g>
</g>
<!-- Node7&#45;&gt;Node3 -->
<g id="edge8_Node000007_Node000003" class="edge">
<title>Node7&#45;&gt;Node3</title>
<g id="a_edge8_Node000007_Node000003"><a xlink:title=" ">
<path fill="none" stroke="#63b8ff" d="M563.67,-206.2C591.84,-229.62 663.77,-289.41 698.56,-318.34"/>
<polygon fill="#63b8ff" stroke="#63b8ff" points="696.63,-321.29 706.56,-324.99 701.11,-315.91 696.63,-321.29"/>
</a>
</g>
</g>
<!-- Node7&#45;&gt;Node4 -->
<g id="edge9_Node000007_Node000004" class="edge">
<title>Node7&#45;&gt;Node4</title>
<g id="a_edge9_Node000007_Node000004"><a xlink:title=" ">
<path fill="none" stroke="#63b8ff" d="M603.16,-202.36C616.27,-203.86 630.63,-205.5 644.61,-207.1"/>
<polygon fill="#63b8ff" stroke="#63b8ff" points="644.38,-210.6 654.71,-208.26 645.17,-203.64 644.38,-210.6"/>
</a>
</g>
</g>
<!-- Node9&#45;&gt;Node3 -->
<g id="edge12_Node000009_Node000003" class="edge">
<title>Node9&#45;&gt;Node3</title>
<g id="a_edge12_Node000009_Node000003"><a xlink:title=" ">
<path fill="none" stroke="#63b8ff" d="M421.44,-271.96C470.64,-272.35 551.53,-275.86 619,-292.5 644.43,-298.77 671.72,-310.78 691.2,-320.36"/>
<polygon fill="#63b8ff" stroke="#63b8ff" points="689.84,-323.6 700.35,-324.97 692.99,-317.34 689.84,-323.6"/>
</a>
</g>
</g>
<!-- Node9&#45;&gt;Node4 -->
<g id="edge16_Node000009_Node000004" class="edge">
<title>Node9&#45;&gt;Node4</title>
<g id="a_edge16_Node000009_Node000004"><a xlink:title=" ">
<path fill="none" stroke="#63b8ff" d="M421.15,-265.05C479.61,-255.29 582.66,-238.09 650.64,-226.74"/>
<polygon fill="#63b8ff" stroke="#63b8ff" points="651.53,-230.14 660.82,-225.04 650.38,-223.24 651.53,-230.14"/>
</a>
</g>
</g>
<!-- Node9&#45;&gt;Node6 -->
<g id="edge13_Node000009_Node000006" class="edge">
<title>Node9&#45;&gt;Node6</title>
<g id="a_edge13_Node000009_Node000006"><a xlink:title=" ">
<path fill="none" stroke="#63b8ff" d="M421.21,-281.37C430.11,-284.17 439.13,-287.81 447,-292.5 466.71,-304.25 463.7,-317.09 483,-329.5 485.44,-331.07 487.99,-332.55 490.61,-333.94"/>
<polygon fill="#63b8ff" stroke="#63b8ff" points="489.24,-337.17 499.76,-338.38 492.29,-330.87 489.24,-337.17"/>
</a>
</g>
</g>
<!-- Node9&#45;&gt;Node7 -->
<g id="edge14_Node000009_Node000007" class="edge">
<title>Node9&#45;&gt;Node7</title>
<g id="a_edge14_Node000009_Node000007"><a xlink:title=" ">
<path fill="none" stroke="#63b8ff" d="M394.69,-262.86C415.66,-251.91 451.34,-233.85 483,-220.5 492.13,-216.65 502.11,-212.86 511.51,-209.47"/>
<polygon fill="#63b8ff" stroke="#63b8ff" points="512.78,-212.73 521.04,-206.09 510.45,-206.13 512.78,-212.73"/>
</a>
</g>
</g>
<!-- Node9&#45;&gt;Node8 -->
<g id="edge15_Node000009_Node000008" class="edge">
<title>Node9&#45;&gt;Node8</title>
<g id="a_edge15_Node000009_Node000008"><a xlink:title=" ">
<path fill="none" stroke="#63b8ff" d="M420.28,-282.09C443.49,-287.17 472.18,-293.46 496.67,-298.82"/>
<polygon fill="#63b8ff" stroke="#63b8ff" points="496.02,-302.26 506.53,-300.98 497.51,-295.42 496.02,-302.26"/>
</a>
</g>
</g>
<!-- Node11 -->
<g id="Node000011" class="node">
<title>Node11</title>
<g id="a_Node000011"><a xlink:href="update__objects_8c.html#ac47489d8761fe55d49915f2af1155799" target="_top" xlink:title=" ">
<polygon fill="white" stroke="#666666" points="421.5,-130 329.5,-130 329.5,-111 421.5,-111 421.5,-130"/>
<text text-anchor="middle" x="375.5" y="-118" font-family="Helvetica,sans-Serif" font-size="10.00">func_80085BB4</text>
</a>
</g>
</g>
<!-- Node10&#45;&gt;Node11 -->
<g id="edge18_Node000010_Node000011" class="edge">
<title>Node10&#45;&gt;Node11</title>
<g id="a_edge18_Node000010_Node000011"><a xlink:title=" ">
<path fill="none" stroke="#63b8ff" d="M244.2,-93.03C267.12,-97.86 295.16,-103.77 319.35,-108.87"/>
<polygon fill="#63b8ff" stroke="#63b8ff" points="318.95,-112.37 329.46,-111 320.39,-105.52 318.95,-112.37"/>
</a>
</g>
</g>
<!-- Node14 -->
<g id="Node000014" class="node">
<title>Node14</title>
<g id="a_Node000014"><a xlink:href="update__objects_8c.html#add0bf98084e3359319c40487d800d428" target="_top" xlink:title=" ">
<polygon fill="white" stroke="#666666" points="429.5,-93 321.5,-93 321.5,-74 429.5,-74 429.5,-93"/>
<text text-anchor="middle" x="375.5" y="-81" font-family="Helvetica,sans-Serif" font-size="10.00">init_texture_object</text>
</a>
</g>
</g>
<!-- Node10&#45;&gt;Node14 -->
<g id="edge22_Node000010_Node000014" class="edge">
<title>Node10&#45;&gt;Node14</title>
<g id="a_edge22_Node000010_Node000014"><a xlink:title=" ">
<path fill="none" stroke="#63b8ff" d="M268.11,-83.5C282.39,-83.5 297.36,-83.5 311.41,-83.5"/>
<polygon fill="#63b8ff" stroke="#63b8ff" points="311.46,-87 321.46,-83.5 311.46,-80 311.46,-87"/>
</a>
</g>
</g>
<!-- Node15 -->
<g id="Node000015" class="node">
<title>Node15</title>
<g id="a_Node000015"><a xlink:href="memory_8c.html#a3617f7116e3cc000b7ebf38ad3bae48f" target="_top" xlink:title=" ">
<polygon fill="white" stroke="#666666" points="433.5,-56 317.5,-56 317.5,-37 433.5,-37 433.5,-56"/>
<text text-anchor="middle" x="375.5" y="-44" font-family="Helvetica,sans-Serif" font-size="10.00">load_lakitu_tlut_x64</text>
</a>
</g>
</g>
<!-- Node10&#45;&gt;Node15 -->
<g id="edge23_Node000010_Node000015" class="edge">
<title>Node10&#45;&gt;Node15</title>
<g id="a_edge23_Node000010_Node000015"><a xlink:title=" ">
<path fill="none" stroke="#63b8ff" d="M244.2,-73.97C267.03,-69.16 294.95,-63.27 319.07,-58.19"/>
<polygon fill="#63b8ff" stroke="#63b8ff" points="320.09,-61.55 329.15,-56.06 318.65,-54.7 320.09,-61.55"/>
</a>
</g>
</g>
<!-- Node17 -->
<g id="Node000017" class="node">
<title>Node17</title>
<g id="a_Node000017"><a xlink:href="code__80086E70_8c.html#a670bd4aa157a5ec3dd6a4f4335a13ea4" target="_top" xlink:title=" ">
<polygon fill="white" stroke="#666666" points="429,-19 322,-19 322,0 429,0 429,-19"/>
<text text-anchor="middle" x="375.5" y="-7" font-family="Helvetica,sans-Serif" font-size="10.00">set_obj_origin_pos</text>
</a>
</g>
</g>
<!-- Node10&#45;&gt;Node17 -->
<g id="edge25_Node000010_Node000017" class="edge">
<title>Node10&#45;&gt;Node17</title>
<g id="a_edge25_Node000010_Node000017"><a xlink:title=" ">
<path fill="none" stroke="#63b8ff" d="M214.1,-73.94C234.02,-61.7 270.48,-40.5 304,-27.5 309.23,-25.47 314.76,-23.61 320.33,-21.91"/>
<polygon fill="#63b8ff" stroke="#63b8ff" points="321.71,-25.16 330.36,-19.03 319.78,-18.43 321.71,-25.16"/>
</a>
</g>
</g>
<!-- Node11&#45;&gt;Node7 -->
<g id="edge19_Node000011_Node000007" class="edge">
<title>Node11&#45;&gt;Node7</title>
<g id="a_edge19_Node000011_Node000007"><a xlink:title=" ">
<path fill="none" stroke="#63b8ff" d="M398.47,-130.13C428.98,-143.49 484.31,-167.73 519,-182.92"/>
<polygon fill="#63b8ff" stroke="#63b8ff" points="517.64,-186.15 528.2,-186.95 520.45,-179.73 517.64,-186.15"/>
</a>
</g>
</g>
<!-- Node12 -->
<g id="Node000012" class="node">
<title>Node12</title>
<g id="a_Node000012"><a xlink:href="code__80086E70_8c.html#ad745ffd7b6ecd50c57336a484979b258" target="_top" xlink:title=" ">
<polygon fill="white" stroke="#666666" points="606,-130 496,-130 496,-111 606,-111 606,-130"/>
<text text-anchor="middle" x="551" y="-118" font-family="Helvetica,sans-Serif" font-size="10.00">set_obj_orientation</text>
</a>
</g>
</g>
<!-- Node11&#45;&gt;Node12 -->
<g id="edge20_Node000011_Node000012" class="edge">
<title>Node11&#45;&gt;Node12</title>
<g id="a_edge20_Node000011_Node000012"><a xlink:title=" ">
<path fill="none" stroke="#63b8ff" d="M421.63,-120.5C441.13,-120.5 464.31,-120.5 485.57,-120.5"/>
<polygon fill="#63b8ff" stroke="#63b8ff" points="485.83,-124 495.83,-120.5 485.83,-117 485.83,-124"/>
</a>
</g>
</g>
<!-- Node13 -->
<g id="Node000013" class="node">
<title>Node13</title>
<g id="a_Node000013"><a xlink:href="code__80086E70_8c.html#ac9171108201f29dda52974a4a5c68a04" target="_top" xlink:title=" ">
<polygon fill="white" stroke="#666666" points="610,-93 492,-93 492,-74 610,-74 610,-93"/>
<text text-anchor="middle" x="551" y="-81" font-family="Helvetica,sans-Serif" font-size="10.00">set_obj_origin_offset</text>
</a>
</g>
</g>
<!-- Node11&#45;&gt;Node13 -->
<g id="edge21_Node000011_Node000013" class="edge">
<title>Node11&#45;&gt;Node13</title>
<g id="a_edge21_Node000011_Node000013"><a xlink:title=" ">
<path fill="none" stroke="#63b8ff" d="M421.18,-110.97C443.76,-106.16 471.35,-100.27 495.2,-95.19"/>
<polygon fill="#63b8ff" stroke="#63b8ff" points="496.12,-98.57 505.17,-93.06 494.66,-91.72 496.12,-98.57"/>
</a>
</g>
</g>
<!-- Node16 -->
<g id="Node000016" class="node">
<title>Node16</title>
<g id="a_Node000016"><a xlink:href="string_8c.html#ad7f1ae1bbb49dece44bda378982a704d" target="_top" xlink:title=" ">
<polygon fill="white" stroke="#666666" points="580.5,-56 521.5,-56 521.5,-37 580.5,-37 580.5,-56"/>
<text text-anchor="middle" x="551" y="-44" font-family="Helvetica,sans-Serif" font-size="10.00">memcpy</text>
</a>
</g>
</g>
<!-- Node15&#45;&gt;Node16 -->
<g id="edge24_Node000015_Node000016" class="edge">
<title>Node15&#45;&gt;Node16</title>
<g id="a_edge24_Node000015_Node000016"><a xlink:title=" ">
<path fill="none" stroke="#63b8ff" d="M433.79,-46.5C459.18,-46.5 488.4,-46.5 511.18,-46.5"/>
<polygon fill="#63b8ff" stroke="#63b8ff" points="511.48,-50 521.48,-46.5 511.48,-43 511.48,-50"/>
</a>
</g>
</g>
<!-- Node18&#45;&gt;Node4 -->
<g id="edge28_Node000018_Node000004" class="edge">
<title>Node18&#45;&gt;Node4</title>
<g id="a_edge28_Node000018_Node000004"><a xlink:title=" ">
<path fill="none" stroke="#63b8ff" d="M416.74,-186.99C465.13,-177.01 548.62,-164.46 619,-177.5 643.93,-182.12 670.69,-192.77 690.1,-201.62"/>
<polygon fill="#63b8ff" stroke="#63b8ff" points="688.72,-204.84 699.26,-205.92 691.69,-198.5 688.72,-204.84"/>
</a>
</g>
</g>
<!-- Node18&#45;&gt;Node7 -->
<g id="edge27_Node000018_Node000007" class="edge">
<title>Node18&#45;&gt;Node7</title>
<g id="a_edge27_Node000018_Node000007"><a xlink:title=" ">
<path fill="none" stroke="#63b8ff" d="M447.07,-196.5C460.9,-196.5 475.3,-196.5 488.79,-196.5"/>
<polygon fill="#63b8ff" stroke="#63b8ff" points="488.91,-200 498.91,-196.5 488.91,-193 488.91,-200"/>
</a>
</g>
</g>
</g>
</svg>
