<?xml version="1.0" encoding="UTF-8" standalone="no"?>
<!DOCTYPE svg PUBLIC "-//W3C//DTD SVG 1.1//EN"
 "http://www.w3.org/Graphics/SVG/1.1/DTD/svg11.dtd">
<!-- Generated by graphviz version 2.43.0 (0)
 -->
<!-- Title: src/port/resource/importers/Vec3sFactory.cpp Pages: 1 -->
<svg width="541pt" height="159pt"
 viewBox="0.00 0.00 541.00 159.00" xmlns="http://www.w3.org/2000/svg" xmlns:xlink="http://www.w3.org/1999/xlink">
<g id="graph0" class="graph" transform="scale(1 1) rotate(0) translate(4 155)">
<title>src/port/resource/importers/Vec3sFactory.cpp</title>
<!-- Node1 -->
<g id="Node000001" class="node">
<title>Node1</title>
<g id="a_Node000001"><a xlink:title=" ">
<polygon fill="#999999" stroke="#666666" points="440,-151 291,-151 291,-121 440,-121 440,-151"/>
<text text-anchor="start" x="299" y="-139" font-family="Helvetica,sans-Serif" font-size="10.00">src/port/resource/importers</text>
<text text-anchor="middle" x="365.5" y="-128" font-family="Helvetica,sans-Serif" font-size="10.00">/Vec3sFactory.cpp</text>
</a>
</g>
</g>
<!-- Node2 -->
<g id="Node000002" class="node">
<title>Node2</title>
<g id="a_Node000002"><a xlink:href="Vec3sFactory_8h.html" target="_top" xlink:title=" ">
<polygon fill="white" stroke="#666666" points="290.5,-85 202.5,-85 202.5,-66 290.5,-66 290.5,-85"/>
<text text-anchor="middle" x="246.5" y="-73" font-family="Helvetica,sans-Serif" font-size="10.00">Vec3sFactory.h</text>
</a>
</g>
</g>
<!-- Node1&#45;&gt;Node2 -->
<g id="edge1_Node000001_Node000002" class="edge">
<title>Node1&#45;&gt;Node2</title>
<g id="a_edge1_Node000001_Node000002"><a xlink:title=" ">
<path fill="none" stroke="#63b8ff" d="M337,-120.99C317.59,-111.45 292.07,-98.9 273.08,-89.57"/>
<polygon fill="#63b8ff" stroke="#63b8ff" points="274.59,-86.41 264.07,-85.14 271.5,-92.69 274.59,-86.41"/>
</a>
</g>
</g>
<!-- Node5 -->
<g id="Node000005" class="node">
<title>Node5</title>
<g id="a_Node000005"><a xlink:href="Vec3sArray_8h.html" target="_top" xlink:title=" ">
<polygon fill="white" stroke="#666666" points="422,-85 309,-85 309,-66 422,-66 422,-85"/>
<text text-anchor="middle" x="365.5" y="-73" font-family="Helvetica,sans-Serif" font-size="10.00">../type/Vec3sArray.h</text>
</a>
</g>
</g>
<!-- Node1&#45;&gt;Node5 -->
<g id="edge4_Node000001_Node000005" class="edge">
<title>Node1&#45;&gt;Node5</title>
<g id="a_edge4_Node000001_Node000005"><a xlink:title=" ">
<path fill="none" stroke="#63b8ff" d="M365.5,-120.84C365.5,-113.21 365.5,-103.7 365.5,-95.45"/>
<polygon fill="#63b8ff" stroke="#63b8ff" points="369,-95.27 365.5,-85.27 362,-95.27 369,-95.27"/>
</a>
</g>
</g>
<!-- Node8 -->
<g id="Node000008" class="node">
<title>Node8</title>
<g id="a_Node000008"><a xlink:title=" ">
<polygon fill="#e0e0e0" stroke="#999999" points="533,-85 440,-85 440,-66 533,-66 533,-85"/>
<text text-anchor="middle" x="486.5" y="-73" font-family="Helvetica,sans-Serif" font-size="10.00">spdlog/spdlog.h</text>
</a>
</g>
</g>
<!-- Node1&#45;&gt;Node8 -->
<g id="edge8_Node000001_Node000008" class="edge">
<title>Node1&#45;&gt;Node8</title>
<g id="a_edge8_Node000001_Node000008"><a xlink:title=" ">
<path fill="none" stroke="#63b8ff" d="M394.48,-120.99C414.22,-111.45 440.17,-98.9 459.47,-89.57"/>
<polygon fill="#63b8ff" stroke="#63b8ff" points="461.15,-92.64 468.63,-85.14 458.1,-86.34 461.15,-92.64"/>
</a>
</g>
</g>
<!-- Node3 -->
<g id="Node000003" class="node">
<title>Node3</title>
<g id="a_Node000003"><a xlink:title=" ">
<polygon fill="#e0e0e0" stroke="#999999" points="322,-24.5 183,-24.5 183,-5.5 322,-5.5 322,-24.5"/>
<text text-anchor="middle" x="252.5" y="-12.5" font-family="Helvetica,sans-Serif" font-size="10.00">ship/resource/Resource.h</text>
</a>
</g>
</g>
<!-- Node2&#45;&gt;Node3 -->
<g id="edge2_Node000002_Node000003" class="edge">
<title>Node2&#45;&gt;Node3</title>
<g id="a_edge2_Node000002_Node000003"><a xlink:title=" ">
<path fill="none" stroke="#63b8ff" d="M247.39,-65.87C248.22,-57.75 249.49,-45.31 250.56,-34.89"/>
<polygon fill="#63b8ff" stroke="#63b8ff" points="254.07,-34.97 251.61,-24.67 247.11,-34.26 254.07,-34.97"/>
</a>
</g>
</g>
<!-- Node4 -->
<g id="Node000004" class="node">
<title>Node4</title>
<g id="a_Node000004"><a xlink:title=" ">
<polygon fill="#e0e0e0" stroke="#999999" points="165,-30 0,-30 0,0 165,0 165,-30"/>
<text text-anchor="start" x="8" y="-18" font-family="Helvetica,sans-Serif" font-size="10.00">ship/resource/ResourceFactory</text>
<text text-anchor="middle" x="82.5" y="-7" font-family="Helvetica,sans-Serif" font-size="10.00">Binary.h</text>
</a>
</g>
</g>
<!-- Node2&#45;&gt;Node4 -->
<g id="edge3_Node000002_Node000004" class="edge">
<title>Node2&#45;&gt;Node4</title>
<g id="a_edge3_Node000002_Node000004"><a xlink:title=" ">
<path fill="none" stroke="#63b8ff" d="M222.65,-65.99C198.84,-57.5 161.56,-44.2 131.43,-33.45"/>
<polygon fill="#63b8ff" stroke="#63b8ff" points="132.52,-30.13 121.93,-30.06 130.17,-36.72 132.52,-30.13"/>
</a>
</g>
</g>
<!-- Node5&#45;&gt;Node3 -->
<g id="edge6_Node000005_Node000003" class="edge">
<title>Node5&#45;&gt;Node3</title>
<g id="a_edge6_Node000005_Node000003"><a xlink:title=" ">
<path fill="none" stroke="#63b8ff" d="M348.83,-65.87C330.22,-56.23 299.88,-40.53 278.22,-29.31"/>
<polygon fill="#63b8ff" stroke="#63b8ff" points="279.73,-26.16 269.24,-24.67 276.51,-32.37 279.73,-26.16"/>
</a>
</g>
</g>
<!-- Node6 -->
<g id="Node000006" class="node">
<title>Node6</title>
<g id="a_Node000006"><a xlink:title=" ">
<polygon fill="#e0e0e0" stroke="#999999" points="390.5,-24.5 340.5,-24.5 340.5,-5.5 390.5,-5.5 390.5,-24.5"/>
<text text-anchor="middle" x="365.5" y="-12.5" font-family="Helvetica,sans-Serif" font-size="10.00">cstdint</text>
</a>
</g>
</g>
<!-- Node5&#45;&gt;Node6 -->
<g id="edge5_Node000005_Node000006" class="edge">
<title>Node5&#45;&gt;Node6</title>
<g id="a_edge5_Node000005_Node000006"><a xlink:title=" ">
<path fill="none" stroke="#63b8ff" d="M365.5,-65.87C365.5,-57.75 365.5,-45.31 365.5,-34.89"/>
<polygon fill="#63b8ff" stroke="#63b8ff" points="369,-34.67 365.5,-24.67 362,-34.67 369,-34.67"/>
</a>
</g>
</g>
<!-- Node7 -->
<g id="Node000007" class="node">
<title>Node7</title>
<g id="a_Node000007"><a xlink:title=" ">
<polygon fill="#e0e0e0" stroke="#999999" points="518,-30 409,-30 409,0 518,0 518,-30"/>
<text text-anchor="start" x="417" y="-18" font-family="Helvetica,sans-Serif" font-size="10.00">libultraship/libultra</text>
<text text-anchor="middle" x="463.5" y="-7" font-family="Helvetica,sans-Serif" font-size="10.00">/types.h</text>
</a>
</g>
</g>
<!-- Node5&#45;&gt;Node7 -->
<g id="edge7_Node000005_Node000007" class="edge">
<title>Node5&#45;&gt;Node7</title>
<g id="a_edge7_Node000005_Node000007"><a xlink:title=" ">
<path fill="none" stroke="#63b8ff" d="M379.96,-65.87C393.38,-57.86 413.83,-45.65 431.14,-35.31"/>
<polygon fill="#63b8ff" stroke="#63b8ff" points="433.06,-38.25 439.86,-30.11 429.47,-32.23 433.06,-38.25"/>
</a>
</g>
</g>
</g>
</svg>
