<?xml version="1.0" encoding="UTF-8" standalone="no"?>
<!DOCTYPE svg PUBLIC "-//W3C//DTD SVG 1.1//EN"
 "http://www.w3.org/Graphics/SVG/1.1/DTD/svg11.dtd">
<!-- Generated by graphviz version 2.43.0 (0)
 -->
<!-- Title: include/assets/models/tracks/wario_stadium/wario_stadium_displaylists.h Pages: 1 -->
<svg width="801pt" height="291pt"
 viewBox="0.00 0.00 801.00 291.00" xmlns="http://www.w3.org/2000/svg" xmlns:xlink="http://www.w3.org/1999/xlink">
<g id="graph0" class="graph" transform="scale(1 1) rotate(0) translate(4 287)">
<title>include/assets/models/tracks/wario_stadium/wario_stadium_displaylists.h</title>
<!-- Node1 -->
<g id="Node000001" class="node">
<title>Node1</title>
<g id="a_Node000001"><a xlink:title=" ">
<polygon fill="#999999" stroke="#666666" points="445,-283 284,-283 284,-242 445,-242 445,-283"/>
<text text-anchor="start" x="292" y="-271" font-family="Helvetica,sans-Serif" font-size="10.00">include/assets/models</text>
<text text-anchor="start" x="292" y="-260" font-family="Helvetica,sans-Serif" font-size="10.00">/tracks/wario_stadium</text>
<text text-anchor="middle" x="364.5" y="-249" font-family="Helvetica,sans-Serif" font-size="10.00">/wario_stadium_displaylists.h</text>
</a>
</g>
</g>
<!-- Node2 -->
<g id="Node000002" class="node">
<title>Node2</title>
<g id="a_Node000002"><a xlink:href="all__course__packed_8h.html" target="_top" xlink:title=" ">
<polygon fill="white" stroke="#666666" points="337,-206 230,-206 230,-176 337,-176 337,-206"/>
<text text-anchor="start" x="238" y="-194" font-family="Helvetica,sans-Serif" font-size="10.00">courses/all_course</text>
<text text-anchor="middle" x="283.5" y="-183" font-family="Helvetica,sans-Serif" font-size="10.00">_packed.h</text>
</a>
</g>
</g>
<!-- Node1&#45;&gt;Node2 -->
<g id="edge1_Node000001_Node000002" class="edge">
<title>Node1&#45;&gt;Node2</title>
<g id="a_edge1_Node000001_Node000002"><a xlink:title=" ">
<path fill="none" stroke="#63b8ff" d="M333.76,-235.12C322.23,-225.23 309.58,-214.38 299.86,-206.04"/>
<polygon fill="#63b8ff" stroke="#63b8ff" points="331.64,-237.91 341.51,-241.77 336.2,-232.6 331.64,-237.91"/>
</a>
</g>
</g>
<!-- Node8 -->
<g id="Node000008" class="node">
<title>Node8</title>
<g id="a_Node000008"><a xlink:href="WarioStadium_8h.html" target="_top" xlink:title=" ">
<polygon fill="white" stroke="#666666" points="612.5,-200.5 432.5,-200.5 432.5,-181.5 612.5,-181.5 612.5,-200.5"/>
<text text-anchor="middle" x="522.5" y="-188.5" font-family="Helvetica,sans-Serif" font-size="10.00">src/engine/tracks/WarioStadium.h</text>
</a>
</g>
</g>
<!-- Node1&#45;&gt;Node8 -->
<g id="edge7_Node000001_Node000008" class="edge">
<title>Node1&#45;&gt;Node8</title>
<g id="a_edge7_Node000001_Node000008"><a xlink:title=" ">
<path fill="none" stroke="#63b8ff" d="M418.25,-237.86C447.6,-224.95 482.14,-209.75 503.17,-200.5"/>
<polygon fill="#63b8ff" stroke="#63b8ff" points="416.68,-234.73 408.93,-241.96 419.5,-241.13 416.68,-234.73"/>
</a>
</g>
</g>
<!-- Node3 -->
<g id="Node000003" class="node">
<title>Node3</title>
<g id="a_Node000003"><a xlink:href="code__800029B0_8c.html" target="_top" xlink:title=" ">
<polygon fill="white" stroke="#666666" points="119,-140 0,-140 0,-121 119,-121 119,-140"/>
<text text-anchor="middle" x="59.5" y="-128" font-family="Helvetica,sans-Serif" font-size="10.00">src/code_800029B0.c</text>
</a>
</g>
</g>
<!-- Node2&#45;&gt;Node3 -->
<g id="edge2_Node000002_Node000003" class="edge">
<title>Node2&#45;&gt;Node3</title>
<g id="a_edge2_Node000002_Node000003"><a xlink:title=" ">
<path fill="none" stroke="#63b8ff" d="M220.06,-173.43C178.42,-162.56 125.68,-148.78 92.25,-140.05"/>
<polygon fill="#63b8ff" stroke="#63b8ff" points="219.29,-176.85 229.85,-175.99 221.06,-170.07 219.29,-176.85"/>
</a>
</g>
</g>
<!-- Node4 -->
<g id="Node000004" class="node">
<title>Node4</title>
<g id="a_Node000004"><a xlink:href="all__variables_8h.html" target="_top" xlink:title=" ">
<polygon fill="white" stroke="#666666" points="275.5,-140 137.5,-140 137.5,-121 275.5,-121 275.5,-140"/>
<text text-anchor="middle" x="206.5" y="-128" font-family="Helvetica,sans-Serif" font-size="10.00">src/debug/all_variables.h</text>
</a>
</g>
</g>
<!-- Node2&#45;&gt;Node4 -->
<g id="edge3_Node000002_Node000004" class="edge">
<title>Node2&#45;&gt;Node4</title>
<g id="a_edge3_Node000002_Node000004"><a xlink:title=" ">
<path fill="none" stroke="#63b8ff" d="M256.56,-169.53C243.37,-159.51 228.19,-147.98 218.04,-140.27"/>
<polygon fill="#63b8ff" stroke="#63b8ff" points="254.78,-172.58 264.86,-175.84 259.02,-167 254.78,-172.58"/>
</a>
</g>
</g>
<!-- Node7 -->
<g id="Node000007" class="node">
<title>Node7</title>
<g id="a_Node000007"><a xlink:href="render__courses_8c.html" target="_top" xlink:title=" ">
<polygon fill="white" stroke="#666666" points="443,-140 294,-140 294,-121 443,-121 443,-140"/>
<text text-anchor="middle" x="368.5" y="-128" font-family="Helvetica,sans-Serif" font-size="10.00">src/racing/render_courses.c</text>
</a>
</g>
</g>
<!-- Node2&#45;&gt;Node7 -->
<g id="edge6_Node000002_Node000007" class="edge">
<title>Node2&#45;&gt;Node7</title>
<g id="a_edge6_Node000002_Node000007"><a xlink:title=" ">
<path fill="none" stroke="#63b8ff" d="M312.41,-170.1C327.16,-159.95 344.34,-148.13 355.76,-140.27"/>
<polygon fill="#63b8ff" stroke="#63b8ff" points="310.33,-167.29 304.08,-175.84 314.3,-173.05 310.33,-167.29"/>
</a>
</g>
</g>
<!-- Node5 -->
<g id="Node000005" class="node">
<title>Node5</title>
<g id="a_Node000005"><a xlink:href="debug_8inc_8c.html" target="_top" xlink:title=" ">
<polygon fill="white" stroke="#666666" points="267.5,-79.5 145.5,-79.5 145.5,-60.5 267.5,-60.5 267.5,-79.5"/>
<text text-anchor="middle" x="206.5" y="-67.5" font-family="Helvetica,sans-Serif" font-size="10.00">src/debug/debug.inc.c</text>
</a>
</g>
</g>
<!-- Node4&#45;&gt;Node5 -->
<g id="edge4_Node000004_Node000005" class="edge">
<title>Node4&#45;&gt;Node5</title>
<g id="a_edge4_Node000004_Node000005"><a xlink:title=" ">
<path fill="none" stroke="#63b8ff" d="M206.5,-110.66C206.5,-100.24 206.5,-87.8 206.5,-79.67"/>
<polygon fill="#63b8ff" stroke="#63b8ff" points="203,-110.87 206.5,-120.87 210,-110.87 203,-110.87"/>
</a>
</g>
</g>
<!-- Node6 -->
<g id="Node000006" class="node">
<title>Node6</title>
<g id="a_Node000006"><a xlink:href="debug_8c.html" target="_top" xlink:title=" ">
<polygon fill="white" stroke="#666666" points="259,-19 154,-19 154,0 259,0 259,-19"/>
<text text-anchor="middle" x="206.5" y="-7" font-family="Helvetica,sans-Serif" font-size="10.00">src/debug/debug.c</text>
</a>
</g>
</g>
<!-- Node5&#45;&gt;Node6 -->
<g id="edge5_Node000005_Node000006" class="edge">
<title>Node5&#45;&gt;Node6</title>
<g id="a_edge5_Node000005_Node000006"><a xlink:title=" ">
<path fill="none" stroke="#63b8ff" d="M206.5,-50.16C206.5,-39.74 206.5,-27.3 206.5,-19.17"/>
<polygon fill="#63b8ff" stroke="#63b8ff" points="203,-50.37 206.5,-60.37 210,-50.37 203,-50.37"/>
</a>
</g>
</g>
<!-- Node9 -->
<g id="Node000009" class="node">
<title>Node9</title>
<g id="a_Node000009"><a xlink:href="AllTracks_8h.html" target="_top" xlink:title=" ">
<polygon fill="white" stroke="#666666" points="583.5,-140 461.5,-140 461.5,-121 583.5,-121 583.5,-140"/>
<text text-anchor="middle" x="522.5" y="-128" font-family="Helvetica,sans-Serif" font-size="10.00">src/engine/AllTracks.h</text>
</a>
</g>
</g>
<!-- Node8&#45;&gt;Node9 -->
<g id="edge8_Node000008_Node000009" class="edge">
<title>Node8&#45;&gt;Node9</title>
<g id="a_edge8_Node000008_Node000009"><a xlink:title=" ">
<path fill="none" stroke="#63b8ff" d="M522.5,-171.16C522.5,-160.74 522.5,-148.3 522.5,-140.17"/>
<polygon fill="#63b8ff" stroke="#63b8ff" points="519,-171.37 522.5,-181.37 526,-171.37 519,-171.37"/>
</a>
</g>
</g>
<!-- Node12 -->
<g id="Node000012" class="node">
<title>Node12</title>
<g id="a_Node000012"><a xlink:href="WarioStadium_8cpp.html" target="_top" xlink:title=" ">
<polygon fill="white" stroke="#666666" points="793,-140 602,-140 602,-121 793,-121 793,-140"/>
<text text-anchor="middle" x="697.5" y="-128" font-family="Helvetica,sans-Serif" font-size="10.00">src/engine/tracks/WarioStadium.cpp</text>
</a>
</g>
</g>
<!-- Node8&#45;&gt;Node12 -->
<g id="edge11_Node000008_Node000012" class="edge">
<title>Node8&#45;&gt;Node12</title>
<g id="a_edge11_Node000008_Node000012"><a xlink:title=" ">
<path fill="none" stroke="#63b8ff" d="M557.45,-178.32C591.3,-167 641.81,-150.12 672.02,-140.02"/>
<polygon fill="#63b8ff" stroke="#63b8ff" points="556.32,-175 547.95,-181.49 558.54,-181.64 556.32,-175"/>
</a>
</g>
</g>
<!-- Node10 -->
<g id="Node000010" class="node">
<title>Node10</title>
<g id="a_Node000010"><a xlink:href="RegisterTracks_8cpp.html" target="_top" xlink:title=" ">
<polygon fill="white" stroke="#666666" points="514,-85 403,-85 403,-55 514,-55 514,-85"/>
<text text-anchor="start" x="411" y="-73" font-family="Helvetica,sans-Serif" font-size="10.00">src/engine/registry</text>
<text text-anchor="middle" x="458.5" y="-62" font-family="Helvetica,sans-Serif" font-size="10.00">/RegisterTracks.cpp</text>
</a>
</g>
</g>
<!-- Node9&#45;&gt;Node10 -->
<g id="edge9_Node000009_Node000010" class="edge">
<title>Node9&#45;&gt;Node10</title>
<g id="a_edge9_Node000009_Node000010"><a xlink:title=" ">
<path fill="none" stroke="#63b8ff" d="M505.51,-113.97C495.7,-105.01 483.47,-93.82 473.94,-85.11"/>
<polygon fill="#63b8ff" stroke="#63b8ff" points="503.31,-116.7 513.06,-120.87 508.04,-111.54 503.31,-116.7"/>
</a>
</g>
</g>
<!-- Node11 -->
<g id="Node000011" class="node">
<title>Node11</title>
<g id="a_Node000011"><a xlink:href="Game_8cpp.html" target="_top" xlink:title=" ">
<polygon fill="white" stroke="#666666" points="638.5,-79.5 532.5,-79.5 532.5,-60.5 638.5,-60.5 638.5,-79.5"/>
<text text-anchor="middle" x="585.5" y="-67.5" font-family="Helvetica,sans-Serif" font-size="10.00">src/port/Game.cpp</text>
</a>
</g>
</g>
<!-- Node9&#45;&gt;Node11 -->
<g id="edge10_Node000009_Node000011" class="edge">
<title>Node9&#45;&gt;Node11</title>
<g id="a_edge10_Node000009_Node000011"><a xlink:title=" ">
<path fill="none" stroke="#63b8ff" d="M539.29,-113.91C551.1,-102.94 566.47,-88.67 576.17,-79.67"/>
<polygon fill="#63b8ff" stroke="#63b8ff" points="536.74,-111.5 531.8,-120.87 541.51,-116.63 536.74,-111.5"/>
</a>
</g>
</g>
</g>
</svg>
